<svg width="1024" height="1024" viewBox="0 0 1024 1024" xmlns="http://www.w3.org/2000/svg"><rect width="100%" height="100%" fill="white"/><g><circle data-type="point" data-label="conn_000" data-x="5" data-y="3.62" cx="983.9999999999998" cy="170.27200000000022" r="14.16" fill="blue"/></g><g><circle data-type="point" data-label="conn_000" data-x="-4.18" data-y="5" cx="117.40800000000013" cy="40.000000000000284" r="14.16" fill="red"/></g><g><circle data-type="point" data-label="conn_001" data-x="-5" data-y="4.44" cx="40.000000000000114" cy="92.86400000000026" r="14.16" fill="blue"/></g><g><circle data-type="point" data-label="conn_001" data-x="5" data-y="4.58" cx="983.9999999999998" cy="79.64800000000025" r="14.16" fill="blue"/></g><g><circle data-type="point" data-label="conn_002" data-x="-3.02" data-y="5" cx="226.91200000000003" cy="40.000000000000284" r="14.16" fill="blue"/></g><g><circle data-type="point" data-label="conn_002" data-x="-3.66" data-y="-5" cx="166.49600000000004" cy="984" r="14.16" fill="blue"/></g><g><circle data-type="point" data-label="conn_003" data-x="5" data-y="0.6" cx="983.9999999999998" cy="455.3600000000001" r="14.16" fill="red"/></g><g><circle data-type="point" data-label="conn_003" data-x="-5" data-y="-2.6" cx="40.000000000000114" cy="757.44" r="14.16" fill="red"/></g><g><circle data-type="point" data-label="conn_004" data-x="-3.96" data-y="-5" cx="138.1760000000001" cy="984" r="14.16" fill="blue"/></g><g><circle data-type="point" data-label="conn_004" data-x="-5" data-y="-4.2" cx="40.000000000000114" cy="908.48" r="14.16" fill="blue"/></g><g><circle data-type="point" data-label="conn_005" data-x="5" data-y="-3.74" cx="983.9999999999998" cy="865.056" r="14.16" fill="blue"/></g><g><circle data-type="point" data-label="conn_005" data-x="-5" data-y="-2.66" cx="40.000000000000114" cy="763.104" r="14.16" fill="blue"/></g><g><circle data-type="point" data-label="conn_006" data-x="5" data-y="-4.6000000000000005" cx="983.9999999999998" cy="946.24" r="14.16" fill="blue"/></g><g><circle data-type="point" data-label="conn_006" data-x="-5" data-y="3.56" cx="40.000000000000114" cy="175.93600000000026" r="14.16" fill="red"/></g><g><polyline data-points="5.000000000000002,-3.7878787878787876 4.898989898989901,-3.6868686868686864 4.7979797979797985,-3.5858585858585856 4.696969696969697,-3.484848484848485 4.595959595959597,-3.383838383838383 4.494949494949497,-3.2828282828282824 4.393939393939394,-3.1818181818181817 4.292929292929293,-3.0808080808080804 4.191919191919193,-2.9797979797979792 4.090909090909092,-2.8787878787878785 3.989898989898992,-2.7777777777777777 3.8888888888888893,-2.6767676767676765 3.7878787878787885,-2.6767676767676765 3.6868686868686877,-2.6767676767676765 3.5858585858585874,-2.6767676767676765 3.4848484848484866,-2.6767676767676765 3.383838383838384,-2.6767676767676765 3.2828282828282833,-2.6767676767676765 3.181818181818183,-2.6767676767676765 3.080808080808082,-2.6767676767676765 2.9797979797979806,-2.6767676767676765 2.87878787878788,-2.6767676767676765 2.7777777777777786,-2.6767676767676765 2.676767676767678,-2.6767676767676765 2.575757575757577,-2.6767676767676765 2.4747474747474754,-2.6767676767676765 2.373737373737375,-2.6767676767676765 2.2727272727272734,-2.6767676767676765 2.1717171717171726,-2.6767676767676765 2.070707070707072,-2.6767676767676765 1.9696969696969702,-2.6767676767676765 1.8686868686868696,-2.6767676767676765 1.767676767676768,-2.6767676767676765 1.6666666666666674,-2.6767676767676765 1.5656565656565666,-2.6767676767676765 1.4646464646464652,-2.6767676767676765 1.3636363636363644,-2.6767676767676765 1.262626262626263,-2.6767676767676765 1.1616161616161622,-2.6767676767676765 1.0606060606060617,-2.6767676767676765 0.9595959595959602,-2.6767676767676765 0.8585858585858596,-2.6767676767676765 0.7575757575757579,-2.6767676767676765 0.6565656565656574,-2.6767676767676765 0.5555555555555567,-2.6767676767676765 0.4545454545454551,-2.6767676767676765 0.3535353535353544,-2.6767676767676765 0.2525252525252529,-2.6767676767676765 0.1515151515151522,-2.6767676767676765 0.050505050505051545,-2.6767676767676765 -0.05050505050505001,-2.6767676767676765 -0.15151515151515066,-2.6767676767676765 -0.2525252525252522,-2.6767676767676765 -0.35353535353535287,-2.6767676767676765 -0.4545454545454544,-2.6767676767676765 -0.555555555555555,-2.6767676767676765 -0.6565656565656557,-2.6767676767676765 -0.7575757575757572,-2.6767676767676765 -0.8585858585858579,-2.6767676767676765 -0.9595959595959596,-2.6767676767676765 -1.0606060606060603,-2.6767676767676765 -1.1616161616161613,-2.6767676767676765 -1.2626262626262625,-2.6767676767676765 -1.363636363636363,-2.6767676767676765 -1.4646464646464643,-2.6767676767676765 -1.5656565656565653,-2.6767676767676765 -1.6666666666666665,-2.6767676767676765 -1.7676767676767675,-2.6767676767676765 -1.8686868686868683,-2.6767676767676765 -1.9696969696969693,-2.6767676767676765 -2.07070707070707,-2.6767676767676765 -2.1717171717171713,-2.6767676767676765 -2.2727272727272725,-2.6767676767676765 -2.3737373737373733,-2.6767676767676765 -2.474747474747474,-2.6767676767676765 -2.5757575757575752,-2.6767676767676765 -2.6767676767676765,-2.6767676767676765 -2.7777777777777777,-2.6767676767676765 -2.8787878787878785,-2.6767676767676765 -2.9797979797979792,-2.6767676767676765 -3.0808080808080804,-2.6767676767676765 -3.1818181818181817,-2.6767676767676765 -3.2828282828282824,-2.6767676767676765 -3.383838383838383,-2.6767676767676765 -3.484848484848485,-2.6767676767676765 -3.5858585858585856,-2.6767676767676765 -3.6868686868686864,-2.6767676767676765 -3.7878787878787876,-2.6767676767676765 -3.8888888888888884,-2.6767676767676765 -3.98989898989899,-2.6767676767676765 -4.090909090909091,-2.6767676767676765 -4.191919191919193,-2.6767676767676765 -4.292929292929293,-2.6767676767676765 -4.393939393939394,-2.6767676767676765 -4.494949494949496,-2.6767676767676765 -4.595959595959596,-2.6767676767676765 -4.696969696969697,-2.6767676767676765 -4.7979797979797985,-2.6767676767676765 -4.898989898989899,-2.6767676767676765 -5.000000000000001,-2.6767676767676765" data-type="line" data-label="" points="984,869.5757575757575 974.4646464646464,860.0404040404039 964.9292929292927,850.5050505050505 955.3939393939393,840.969696969697 945.8585858585857,831.4343434343434 936.3232323232323,821.8989898989898 926.7878787878785,812.3636363636363 917.2525252525251,802.8282828282828 907.7171717171716,793.2929292929292 898.181818181818,783.7575757575758 888.6464646464647,774.2222222222222 879.111111111111,764.6868686868687 869.5757575757575,764.6868686868687 860.0404040404039,764.6868686868687 850.5050505050505,764.6868686868687 840.969696969697,764.6868686868687 831.4343434343433,764.6868686868687 821.8989898989898,764.6868686868687 812.3636363636363,764.6868686868687 802.8282828282828,764.6868686868687 793.2929292929292,764.6868686868687 783.7575757575758,764.6868686868687 774.2222222222222,764.6868686868687 764.6868686868686,764.6868686868687 755.1515151515151,764.6868686868687 745.6161616161615,764.6868686868687 736.0808080808081,764.6868686868687 726.5454545454545,764.6868686868687 717.0101010101009,764.6868686868687 707.4747474747475,764.6868686868687 697.9393939393939,764.6868686868687 688.4040404040404,764.6868686868687 678.8686868686868,764.6868686868687 669.3333333333333,764.6868686868687 659.7979797979798,764.6868686868687 650.2626262626262,764.6868686868687 640.7272727272727,764.6868686868687 631.1919191919192,764.6868686868687 621.6565656565656,764.6868686868687 612.1212121212121,764.6868686868687 602.5858585858585,764.6868686868687 593.0505050505051,764.6868686868687 583.5151515151515,764.6868686868687 573.9797979797979,764.6868686868687 564.4444444444445,764.6868686868687 554.9090909090909,764.6868686868687 545.3737373737374,764.6868686868687 535.8383838383838,764.6868686868687 526.3030303030303,764.6868686868687 516.7676767676768,764.6868686868687 507.2323232323232,764.6868686868687 497.69696969696975,764.6868686868687 488.16161616161617,764.6868686868687 478.62626262626264,764.6868686868687 469.09090909090907,764.6868686868687 459.55555555555554,764.6868686868687 450.0202020202021,764.6868686868687 440.4848484848485,764.6868686868687 430.949494949495,764.6868686868687 421.4141414141414,764.6868686868687 411.8787878787879,764.6868686868687 402.34343434343435,764.6868686868687 392.80808080808083,764.6868686868687 383.2727272727273,764.6868686868687 373.7373737373738,764.6868686868687 364.2020202020202,764.6868686868687 354.6666666666667,764.6868686868687 345.13131313131316,764.6868686868687 335.59595959595964,764.6868686868687 326.0606060606061,764.6868686868687 316.5252525252526,764.6868686868687 306.9898989898991,764.6868686868687 297.4545454545455,764.6868686868687 287.91919191919203,764.6868686868687 278.38383838383845,764.6868686868687 268.84848484848493,764.6868686868687 259.3131313131314,764.6868686868687 249.77777777777783,764.6868686868687 240.2424242424243,764.6868686868687 230.70707070707084,764.6868686868687 221.17171717171726,764.6868686868687 211.63636363636374,764.6868686868687 202.10101010101022,764.6868686868687 192.5656565656567,764.6868686868687 183.03030303030312,764.6868686868687 173.4949494949496,764.6868686868687 163.95959595959607,764.6868686868687 154.42424242424255,764.6868686868687 144.88888888888903,764.6868686868687 135.35353535353545,764.6868686868687 125.81818181818193,764.6868686868687 116.28282828282829,764.6868686868687 106.74747474747483,764.6868686868687 97.21212121212136,764.6868686868687 87.67676767676772,764.6868686868687 78.14141414141426,764.6868686868687 68.60606060606068,764.6868686868687 59.07070707070716,764.6868686868687 49.53535353535369,764.6868686868687 40.00000000000006,764.6868686868687" fill="none" stroke="rgba(0,0,255,0.75)" stroke-width="11.327999999999996"/></g><g><polyline data-points="5.000000000000002,-4.696969696969697 4.898989898989901,-4.595959595959596 4.7979797979797985,-4.494949494949496 4.696969696969697,-4.393939393939394 4.595959595959597,-4.292929292929293 4.494949494949497,-4.191919191919193 4.393939393939394,-4.090909090909091 4.292929292929293,-3.98989898989899 4.191919191919193,-3.8888888888888884 4.090909090909092,-3.7878787878787876 3.989898989898992,-3.6868686868686864 3.8888888888888893,-3.5858585858585856 3.7878787878787885,-3.484848484848485 3.6868686868686877,-3.383838383838383 3.5858585858585874,-3.2828282828282824 3.4848484848484866,-3.1818181818181817 3.383838383838384,-3.0808080808080804 3.2828282828282833,-3.0808080808080804 3.181818181818183,-3.0808080808080804 3.080808080808082,-3.0808080808080804 2.9797979797979806,-3.0808080808080804 2.87878787878788,-3.0808080808080804 2.7777777777777786,-3.0808080808080804 2.676767676767678,-3.0808080808080804 2.575757575757577,-3.0808080808080804 2.4747474747474754,-3.0808080808080804 2.373737373737375,-3.0808080808080804 2.2727272727272734,-3.0808080808080804 2.1717171717171726,-3.0808080808080804 2.070707070707072,-3.0808080808080804 1.9696969696969702,-3.0808080808080804 1.8686868686868696,-3.0808080808080804 1.767676767676768,-3.0808080808080804 1.6666666666666674,-3.0808080808080804 1.5656565656565666,-3.0808080808080804 1.4646464646464652,-3.0808080808080804 1.3636363636363644,-3.0808080808080804 1.262626262626263,-3.0808080808080804 1.1616161616161622,-3.0808080808080804 1.0606060606060617,-3.0808080808080804 0.9595959595959602,-3.0808080808080804 0.8585858585858596,-3.0808080808080804 0.7575757575757579,-3.0808080808080804 0.6565656565656574,-3.0808080808080804 0.5555555555555567,-3.0808080808080804 0.4545454545454551,-3.0808080808080804 0.3535353535353544,-3.0808080808080804 0.2525252525252529,-3.0808080808080804 0.1515151515151522,-3.0808080808080804 0.050505050505051545,-3.0808080808080804 -0.05050505050505001,-3.0808080808080804 -0.15151515151515066,-3.0808080808080804 -0.2525252525252522,-3.0808080808080804 -0.35353535353535287,-3.0808080808080804 -0.4545454545454544,-3.0808080808080804 -0.555555555555555,-3.0808080808080804 -0.6565656565656557,-3.0808080808080804 -0.7575757575757572,-3.0808080808080804 -0.8585858585858579,-3.0808080808080804 -0.9595959595959596,-3.0808080808080804 -1.0606060606060603,-3.0808080808080804 -1.1616161616161613,-3.0808080808080804 -1.2626262626262625,-3.0808080808080804 -1.363636363636363,-3.0808080808080804 -1.4646464646464643,-3.0808080808080804 -1.5656565656565653,-3.0808080808080804 -1.6666666666666665,-3.0808080808080804 -1.7676767676767675,-3.0808080808080804 -1.8686868686868683,-3.0808080808080804 -1.9696969696969693,-3.0808080808080804 -2.07070707070707,-3.0808080808080804 -2.1717171717171713,-3.0808080808080804 -2.2727272727272725,-3.0808080808080804 -2.3737373737373733,-3.0808080808080804 -2.474747474747474,-3.0808080808080804 -2.5757575757575752,-3.0808080808080804 -2.6767676767676765,-3.0808080808080804 -2.7777777777777777,-3.0808080808080804 -2.8787878787878785,-3.0808080808080804 -2.9797979797979792,-3.0808080808080804 -3.0808080808080804,-3.0808080808080804 -3.1818181818181817,-3.0808080808080804 -3.2828282828282824,-3.0808080808080804 -3.383838383838383,-3.0808080808080804 -3.484848484848485,-3.0808080808080804" data-type="line" data-label="" points="984,955.3939393939394 974.4646464646464,945.8585858585858 964.9292929292927,936.3232323232323 955.3939393939393,926.7878787878788 945.8585858585857,917.2525252525252 936.3232323232323,907.7171717171718 926.7878787878785,898.1818181818181 917.2525252525251,888.6464646464647 907.7171717171716,879.1111111111111 898.181818181818,869.5757575757575 888.6464646464647,860.0404040404039 879.111111111111,850.5050505050505 869.5757575757575,840.969696969697 860.0404040404039,831.4343434343434 850.5050505050505,821.8989898989898 840.969696969697,812.3636363636363 831.4343434343433,802.8282828282828 821.8989898989898,802.8282828282828 812.3636363636363,802.8282828282828 802.8282828282828,802.8282828282828 793.2929292929292,802.8282828282828 783.7575757575758,802.8282828282828 774.2222222222222,802.8282828282828 764.6868686868686,802.8282828282828 755.1515151515151,802.8282828282828 745.6161616161615,802.8282828282828 736.0808080808081,802.8282828282828 726.5454545454545,802.8282828282828 717.0101010101009,802.8282828282828 707.4747474747475,802.8282828282828 697.9393939393939,802.8282828282828 688.4040404040404,802.8282828282828 678.8686868686868,802.8282828282828 669.3333333333333,802.8282828282828 659.7979797979798,802.8282828282828 650.2626262626262,802.8282828282828 640.7272727272727,802.8282828282828 631.1919191919192,802.8282828282828 621.6565656565656,802.8282828282828 612.1212121212121,802.8282828282828 602.5858585858585,802.8282828282828 593.0505050505051,802.8282828282828 583.5151515151515,802.8282828282828 573.9797979797979,802.8282828282828 564.4444444444445,802.8282828282828 554.9090909090909,802.8282828282828 545.3737373737374,802.8282828282828 535.8383838383838,802.8282828282828 526.3030303030303,802.8282828282828 516.7676767676768,802.8282828282828 507.2323232323232,802.8282828282828 497.69696969696975,802.8282828282828 488.16161616161617,802.8282828282828 478.62626262626264,802.8282828282828 469.09090909090907,802.8282828282828 459.55555555555554,802.8282828282828 450.0202020202021,802.8282828282828 440.4848484848485,802.8282828282828 430.949494949495,802.8282828282828 421.4141414141414,802.8282828282828 411.8787878787879,802.8282828282828 402.34343434343435,802.8282828282828 392.80808080808083,802.8282828282828 383.2727272727273,802.8282828282828 373.7373737373738,802.8282828282828 364.2020202020202,802.8282828282828 354.6666666666667,802.8282828282828 345.13131313131316,802.8282828282828 335.59595959595964,802.8282828282828 326.0606060606061,802.8282828282828 316.5252525252526,802.8282828282828 306.9898989898991,802.8282828282828 297.4545454545455,802.8282828282828 287.91919191919203,802.8282828282828 278.38383838383845,802.8282828282828 268.84848484848493,802.8282828282828 259.3131313131314,802.8282828282828 249.77777777777783,802.8282828282828 240.2424242424243,802.8282828282828 230.70707070707084,802.8282828282828 221.17171717171726,802.8282828282828 211.63636363636374,802.8282828282828 202.10101010101022,802.8282828282828 192.5656565656567,802.8282828282828 183.03030303030312,802.8282828282828" fill="none" stroke="rgba(0,0,255,0.75)" stroke-width="11.327999999999996"/></g><g><polyline data-points="-3.484848484848485,-3.0808080808080804 -3.5858585858585856,-2.9797979797979792 -3.6868686868686864,-2.8787878787878785 -3.7878787878787876,-2.7777777777777777 -3.8888888888888884,-2.6767676767676765 -3.98989898989899,-2.5757575757575752 -4.090909090909091,-2.474747474747474 -4.191919191919193,-2.3737373737373733 -4.292929292929293,-2.2727272727272725 -4.393939393939394,-2.1717171717171713 -4.494949494949496,-2.07070707070707 -4.595959595959596,-1.9696969696969693 -4.696969696969697,-1.8686868686868683 -4.7979797979797985,-1.7676767676767675 -4.898989898989899,-1.6666666666666665 -5.000000000000001,-1.5656565656565653 -5.000000000000001,-1.4646464646464643 -5.000000000000001,-1.363636363636363 -5.000000000000001,-1.2626262626262625 -5.000000000000001,-1.1616161616161613 -5.000000000000001,-1.0606060606060603 -5.000000000000001,-0.9595959595959596 -5.000000000000001,-0.8585858585858579 -5.000000000000001,-0.7575757575757572 -5.000000000000001,-0.6565656565656557 -5.000000000000001,-0.555555555555555 -5.000000000000001,-0.4545454545454544 -5.000000000000001,-0.35353535353535287 -5.000000000000001,-0.2525252525252522 -5.000000000000001,-0.15151515151515066 -5.000000000000001,-0.05050505050505001 -5.000000000000001,0.050505050505051545 -5.000000000000001,0.1515151515151522 -5.000000000000001,0.2525252525252529 -5.000000000000001,0.3535353535353544 -5.000000000000001,0.4545454545454551 -5.000000000000001,0.5555555555555567 -5.000000000000001,0.6565656565656574 -5.000000000000001,0.7575757575757579 -5.000000000000001,0.8585858585858596 -5.000000000000001,0.9595959595959602 -5.000000000000001,1.0606060606060617 -5.000000000000001,1.1616161616161622 -5.000000000000001,1.262626262626263 -5.000000000000001,1.3636363636363644 -5.000000000000001,1.4646464646464652 -5.000000000000001,1.5656565656565666 -5.000000000000001,1.6666666666666674 -5.000000000000001,1.767676767676768 -5.000000000000001,1.8686868686868696 -5.000000000000001,1.9696969696969702 -5.000000000000001,2.070707070707072 -5.000000000000001,2.1717171717171726 -5.000000000000001,2.2727272727272734 -5.000000000000001,2.373737373737375 -5.000000000000001,2.4747474747474754 -5.000000000000001,2.575757575757577 -5.000000000000001,2.676767676767678 -5.000000000000001,2.7777777777777786 -5.000000000000001,2.87878787878788 -5.000000000000001,2.9797979797979806 -5.000000000000001,3.080808080808082 -5.000000000000001,3.181818181818183 -5.000000000000001,3.2828282828282833 -5.000000000000001,3.383838383838384 -5.000000000000001,3.4848484848484866 -5.000000000000001,3.5858585858585874" data-type="line" data-label="" points="183.03030303030312,802.8282828282828 173.4949494949496,793.2929292929292 163.95959595959607,783.7575757575758 154.42424242424255,774.2222222222222 144.88888888888903,764.6868686868687 135.35353535353545,755.1515151515151 125.81818181818193,745.6161616161615 116.28282828282829,736.0808080808081 106.74747474747483,726.5454545454545 97.21212121212136,717.010101010101 87.67676767676772,707.4747474747475 78.14141414141426,697.939393939394 68.60606060606068,688.4040404040404 59.07070707070716,678.8686868686868 49.53535353535369,669.3333333333334 40.00000000000006,659.7979797979798 40.00000000000006,650.2626262626263 40.00000000000006,640.7272727272727 40.00000000000006,631.1919191919193 40.00000000000006,621.6565656565657 40.00000000000006,612.1212121212121 40.00000000000006,602.5858585858587 40.00000000000006,593.0505050505051 40.00000000000006,583.5151515151516 40.00000000000006,573.979797979798 40.00000000000006,564.4444444444445 40.00000000000006,554.909090909091 40.00000000000006,545.3737373737374 40.00000000000006,535.838383838384 40.00000000000006,526.3030303030304 40.00000000000006,516.7676767676768 40.00000000000006,507.23232323232327 40.00000000000006,497.69696969696975 40.00000000000006,488.1616161616163 40.00000000000006,478.6262626262627 40.00000000000006,469.0909090909092 40.00000000000006,459.5555555555556 40.00000000000006,450.0202020202021 40.00000000000006,440.4848484848486 40.00000000000006,430.94949494949503 40.00000000000006,421.4141414141415 40.00000000000006,411.87878787878793 40.00000000000006,402.3434343434344 40.00000000000006,392.80808080808094 40.00000000000006,383.27272727272737 40.00000000000006,373.73737373737384 40.00000000000006,364.2020202020203 40.00000000000006,354.66666666666674 40.00000000000006,345.1313131313133 40.00000000000006,335.5959595959597 40.00000000000006,326.06060606060623 40.00000000000006,316.5252525252526 40.00000000000006,306.9898989898991 40.00000000000006,297.4545454545456 40.00000000000006,287.91919191919203 40.00000000000006,278.38383838383857 40.00000000000006,268.84848484848493 40.00000000000006,259.3131313131314 40.00000000000006,249.77777777777794 40.00000000000006,240.24242424242436 40.00000000000006,230.70707070707084 40.00000000000006,221.17171717171726 40.00000000000006,211.63636363636374 40.00000000000006,202.10101010101027 40.00000000000006,192.56565656565675 40.00000000000006,183.03030303030312 40.00000000000006,173.4949494949496" fill="none" stroke="rgba(255,0,0,0.75)" stroke-width="11.327999999999996"/></g><g><polyline data-points="5.000000000000002,0.5555555555555567 4.898989898989901,0.4545454545454551 4.7979797979797985,0.3535353535353544 4.696969696969697,0.2525252525252529 4.595959595959597,0.1515151515151522 4.494949494949497,0.050505050505051545 4.393939393939394,-0.05050505050505001 4.292929292929293,-0.15151515151515066 4.191919191919193,-0.2525252525252522 4.090909090909092,-0.35353535353535287 3.989898989898992,-0.4545454545454544 3.8888888888888893,-0.555555555555555 3.7878787878787885,-0.6565656565656557 3.6868686868686877,-0.7575757575757572 3.5858585858585874,-0.8585858585858579 3.4848484848484866,-0.9595959595959596 3.383838383838384,-1.0606060606060603 3.2828282828282833,-1.1616161616161613 3.181818181818183,-1.2626262626262625 3.080808080808082,-1.363636363636363 2.9797979797979806,-1.4646464646464643 2.87878787878788,-1.5656565656565653 2.7777777777777786,-1.6666666666666665 2.676767676767678,-1.7676767676767675 2.575757575757577,-1.8686868686868683 2.4747474747474754,-1.9696969696969693 2.373737373737375,-2.07070707070707 2.2727272727272734,-2.1717171717171713 2.1717171717171726,-2.2727272727272725 2.070707070707072,-2.3737373737373733 1.9696969696969702,-2.474747474747474 1.8686868686868696,-2.5757575757575752 1.767676767676768,-2.6767676767676765 1.6666666666666674,-2.6767676767676765 1.5656565656565666,-2.6767676767676765 1.4646464646464652,-2.6767676767676765 1.3636363636363644,-2.6767676767676765 1.262626262626263,-2.6767676767676765 1.1616161616161622,-2.6767676767676765 1.0606060606060617,-2.6767676767676765 0.9595959595959602,-2.6767676767676765 0.8585858585858596,-2.6767676767676765 0.7575757575757579,-2.6767676767676765 0.6565656565656574,-2.6767676767676765 0.5555555555555567,-2.6767676767676765 0.4545454545454551,-2.6767676767676765 0.3535353535353544,-2.6767676767676765 0.2525252525252529,-2.6767676767676765 0.1515151515151522,-2.6767676767676765 0.050505050505051545,-2.6767676767676765 -0.05050505050505001,-2.6767676767676765 -0.15151515151515066,-2.6767676767676765 -0.2525252525252522,-2.6767676767676765 -0.35353535353535287,-2.6767676767676765 -0.4545454545454544,-2.6767676767676765 -0.555555555555555,-2.6767676767676765 -0.6565656565656557,-2.6767676767676765 -0.7575757575757572,-2.6767676767676765 -0.8585858585858579,-2.6767676767676765 -0.9595959595959596,-2.6767676767676765 -1.0606060606060603,-2.6767676767676765 -1.1616161616161613,-2.6767676767676765 -1.2626262626262625,-2.6767676767676765 -1.363636363636363,-2.6767676767676765 -1.4646464646464643,-2.6767676767676765 -1.5656565656565653,-2.6767676767676765 -1.6666666666666665,-2.6767676767676765 -1.7676767676767675,-2.6767676767676765 -1.8686868686868683,-2.6767676767676765 -1.9696969696969693,-2.6767676767676765 -2.07070707070707,-2.6767676767676765 -2.1717171717171713,-2.6767676767676765 -2.2727272727272725,-2.6767676767676765 -2.3737373737373733,-2.6767676767676765 -2.474747474747474,-2.6767676767676765 -2.5757575757575752,-2.6767676767676765 -2.6767676767676765,-2.6767676767676765 -2.7777777777777777,-2.6767676767676765 -2.8787878787878785,-2.7777777777777777 -2.9797979797979792,-2.8787878787878785 -3.0808080808080804,-2.9797979797979792 -3.1818181818181817,-3.0808080808080804 -3.2828282828282824,-3.1818181818181817 -3.383838383838383,-3.2828282828282824 -3.484848484848485,-3.383838383838383 -3.5858585858585856,-3.2828282828282824 -3.6868686868686864,-3.1818181818181817 -3.7878787878787876,-3.0808080808080804 -3.8888888888888884,-2.9797979797979792 -3.98989898989899,-2.8787878787878785 -4.090909090909091,-2.7777777777777777 -4.191919191919193,-2.6767676767676765 -4.292929292929293,-2.6767676767676765 -4.393939393939394,-2.6767676767676765 -4.494949494949496,-2.6767676767676765 -4.595959595959596,-2.6767676767676765 -4.696969696969697,-2.6767676767676765 -4.7979797979797985,-2.6767676767676765 -4.898989898989899,-2.6767676767676765 -5.000000000000001,-2.6767676767676765" data-type="line" data-label="" points="984,459.5555555555556 974.4646464646464,469.0909090909092 964.9292929292927,478.6262626262627 955.3939393939393,488.1616161616163 945.8585858585857,497.69696969696975 936.3232323232323,507.23232323232327 926.7878787878785,516.7676767676768 917.2525252525251,526.3030303030304 907.7171717171716,535.838383838384 898.181818181818,545.3737373737374 888.6464646464647,554.909090909091 879.111111111111,564.4444444444445 869.5757575757575,573.979797979798 860.0404040404039,583.5151515151516 850.5050505050505,593.0505050505051 840.969696969697,602.5858585858587 831.4343434343433,612.1212121212121 821.8989898989898,621.6565656565657 812.3636363636363,631.1919191919193 802.8282828282828,640.7272727272727 793.2929292929292,650.2626262626263 783.7575757575758,659.7979797979798 774.2222222222222,669.3333333333334 764.6868686868686,678.8686868686868 755.1515151515151,688.4040404040404 745.6161616161615,697.939393939394 736.0808080808081,707.4747474747475 726.5454545454545,717.010101010101 717.0101010101009,726.5454545454545 707.4747474747475,736.0808080808081 697.9393939393939,745.6161616161615 688.4040404040404,755.1515151515151 678.8686868686868,764.6868686868687 669.3333333333333,764.6868686868687 659.7979797979798,764.6868686868687 650.2626262626262,764.6868686868687 640.7272727272727,764.6868686868687 631.1919191919192,764.6868686868687 621.6565656565656,764.6868686868687 612.1212121212121,764.6868686868687 602.5858585858585,764.6868686868687 593.0505050505051,764.6868686868687 583.5151515151515,764.6868686868687 573.9797979797979,764.6868686868687 564.4444444444445,764.6868686868687 554.9090909090909,764.6868686868687 545.3737373737374,764.6868686868687 535.8383838383838,764.6868686868687 526.3030303030303,764.6868686868687 516.7676767676768,764.6868686868687 507.2323232323232,764.6868686868687 497.69696969696975,764.6868686868687 488.16161616161617,764.6868686868687 478.62626262626264,764.6868686868687 469.09090909090907,764.6868686868687 459.55555555555554,764.6868686868687 450.0202020202021,764.6868686868687 440.4848484848485,764.6868686868687 430.949494949495,764.6868686868687 421.4141414141414,764.6868686868687 411.8787878787879,764.6868686868687 402.34343434343435,764.6868686868687 392.80808080808083,764.6868686868687 383.2727272727273,764.6868686868687 373.7373737373738,764.6868686868687 364.2020202020202,764.6868686868687 354.6666666666667,764.6868686868687 345.13131313131316,764.6868686868687 335.59595959595964,764.6868686868687 326.0606060606061,764.6868686868687 316.5252525252526,764.6868686868687 306.9898989898991,764.6868686868687 297.4545454545455,764.6868686868687 287.91919191919203,764.6868686868687 278.38383838383845,764.6868686868687 268.84848484848493,764.6868686868687 259.3131313131314,764.6868686868687 249.77777777777783,764.6868686868687 240.2424242424243,774.2222222222222 230.70707070707084,783.7575757575758 221.17171717171726,793.2929292929292 211.63636363636374,802.8282828282828 202.10101010101022,812.3636363636363 192.5656565656567,821.8989898989898 183.03030303030312,831.4343434343434 173.4949494949496,821.8989898989898 163.95959595959607,812.3636363636363 154.42424242424255,802.8282828282828 144.88888888888903,793.2929292929292 135.35353535353545,783.7575757575758 125.81818181818193,774.2222222222222 116.28282828282829,764.6868686868687 106.74747474747483,764.6868686868687 97.21212121212136,764.6868686868687 87.67676767676772,764.6868686868687 78.14141414141426,764.6868686868687 68.60606060606068,764.6868686868687 59.07070707070716,764.6868686868687 49.53535353535369,764.6868686868687 40.00000000000006,764.6868686868687" fill="none" stroke="rgba(255,0,0,0.75)" stroke-width="11.327999999999996"/></g><g><polyline data-points="-3.98989898989899,-5.000000000000001 -4.090909090909091,-4.898989898989899 -4.191919191919193,-4.7979797979797985 -4.292929292929293,-4.696969696969697 -4.393939393939394,-4.595959595959596 -4.494949494949496,-4.494949494949496 -4.595959595959596,-4.393939393939394 -4.696969696969697,-4.292929292929293 -4.7979797979797985,-4.292929292929293 -4.898989898989899,-4.292929292929293 -5.000000000000001,-4.292929292929293" data-type="line" data-label="" points="135.35353535353545,984 125.81818181818193,974.4646464646464 116.28282828282829,964.9292929292928 106.74747474747483,955.3939393939394 97.21212121212136,945.8585858585858 87.67676767676772,936.3232323232323 78.14141414141426,926.7878787878788 68.60606060606068,917.2525252525252 59.07070707070716,917.2525252525252 49.53535353535369,917.2525252525252 40.00000000000006,917.2525252525252" fill="none" stroke="rgba(0,0,255,0.75)" stroke-width="11.327999999999996"/></g><g><polyline data-points="-3.0808080808080804,5.000000000000002 -3.0808080808080804,4.898989898989901 -3.0808080808080804,4.7979797979797985 -3.0808080808080804,4.696969696969697 -3.0808080808080804,4.595959595959597 -3.0808080808080804,4.494949494949497 -3.0808080808080804,4.393939393939394 -3.0808080808080804,4.292929292929293 -3.0808080808080804,4.191919191919193 -3.0808080808080804,4.090909090909092 -3.0808080808080804,3.989898989898992 -3.0808080808080804,3.8888888888888893 -3.0808080808080804,3.7878787878787885 -3.0808080808080804,3.6868686868686877 -3.0808080808080804,3.5858585858585874 -3.0808080808080804,3.4848484848484866 -2.9797979797979792,3.383838383838384 -2.8787878787878785,3.2828282828282833 -2.7777777777777777,3.181818181818183 -2.6767676767676765,3.080808080808082 -2.5757575757575752,2.9797979797979806 -2.474747474747474,2.87878787878788 -2.3737373737373733,2.7777777777777786 -2.2727272727272725,2.676767676767678 -2.1717171717171713,2.575757575757577 -2.07070707070707,2.4747474747474754 -1.9696969696969693,2.373737373737375 -1.8686868686868683,2.2727272727272734 -1.7676767676767675,2.1717171717171726 -1.6666666666666665,2.070707070707072 -1.5656565656565653,1.9696969696969702 -1.4646464646464643,1.8686868686868696 -1.363636363636363,1.767676767676768 -1.2626262626262625,1.6666666666666674 -1.1616161616161613,1.5656565656565666 -1.0606060606060603,1.4646464646464652 -0.9595959595959596,1.3636363636363644 -0.8585858585858579,1.262626262626263 -0.7575757575757572,1.1616161616161622 -0.6565656565656557,1.0606060606060617 -0.555555555555555,0.9595959595959602 -0.4545454545454544,0.8585858585858596 -0.35353535353535287,0.7575757575757579 -0.2525252525252522,0.6565656565656574 -0.15151515151515066,0.5555555555555567 -0.05050505050505001,0.4545454545454551 0.050505050505051545,0.3535353535353544 0.1515151515151522,0.2525252525252529 0.2525252525252529,0.1515151515151522 0.3535353535353544,0.050505050505051545 0.4545454545454551,-0.05050505050505001 0.5555555555555567,-0.15151515151515066 0.6565656565656574,-0.2525252525252522 0.7575757575757579,-0.35353535353535287 0.8585858585858596,-0.4545454545454544 0.9595959595959602,-0.555555555555555 1.0606060606060617,-0.6565656565656557 1.1616161616161622,-0.7575757575757572 1.262626262626263,-0.8585858585858579 1.3636363636363644,-0.9595959595959596 1.4646464646464652,-1.0606060606060603 1.5656565656565666,-1.1616161616161613 1.6666666666666674,-1.2626262626262625 1.767676767676768,-1.363636363636363 1.8686868686868696,-1.4646464646464643 1.9696969696969702,-1.5656565656565653 2.070707070707072,-1.6666666666666665 2.1717171717171726,-1.7676767676767675 2.2727272727272734,-1.8686868686868683 2.373737373737375,-1.9696969696969693 2.4747474747474754,-2.07070707070707 2.575757575757577,-2.1717171717171713 2.676767676767678,-2.2727272727272725" data-type="line" data-label="" points="221.17171717171726,40.000000000000114 221.17171717171726,49.53535353535369 221.17171717171726,59.07070707070733 221.17171717171726,68.60606060606085 221.17171717171726,78.14141414141432 221.17171717171726,87.67676767676778 221.17171717171726,97.21212121212153 221.17171717171726,106.747474747475 221.17171717171726,116.28282828282846 221.17171717171726,125.81818181818198 221.17171717171726,135.35353535353545 221.17171717171726,144.88888888888908 221.17171717171726,154.4242424242426 221.17171717171726,163.95959595959613 221.17171717171726,173.4949494949496 221.17171717171726,183.03030303030312 230.70707070707084,192.56565656565675 240.2424242424243,202.10101010101027 249.77777777777783,211.63636363636374 259.3131313131314,221.17171717171726 268.84848484848493,230.70707070707084 278.38383838383845,240.24242424242436 287.91919191919203,249.77777777777794 297.4545454545455,259.3131313131314 306.9898989898991,268.84848484848493 316.5252525252526,278.38383838383857 326.0606060606061,287.91919191919203 335.59595959595964,297.4545454545456 345.13131313131316,306.9898989898991 354.6666666666667,316.5252525252526 364.2020202020202,326.06060606060623 373.7373737373738,335.5959595959597 383.2727272727273,345.1313131313133 392.80808080808083,354.66666666666674 402.34343434343435,364.2020202020203 411.8787878787879,373.73737373737384 421.4141414141414,383.27272727272737 430.949494949495,392.80808080808094 440.4848484848485,402.3434343434344 450.0202020202021,411.87878787878793 459.55555555555554,421.4141414141415 469.09090909090907,430.94949494949503 478.62626262626264,440.4848484848486 488.16161616161617,450.0202020202021 497.69696969696975,459.5555555555556 507.2323232323232,469.0909090909092 516.7676767676768,478.6262626262627 526.3030303030303,488.1616161616163 535.8383838383838,497.69696969696975 545.3737373737374,507.23232323232327 554.9090909090909,516.7676767676768 564.4444444444445,526.3030303030304 573.9797979797979,535.838383838384 583.5151515151515,545.3737373737374 593.0505050505051,554.909090909091 602.5858585858585,564.4444444444445 612.1212121212121,573.979797979798 621.6565656565656,583.5151515151516 631.1919191919192,593.0505050505051 640.7272727272727,602.5858585858587 650.2626262626262,612.1212121212121 659.7979797979798,621.6565656565657 669.3333333333333,631.1919191919193 678.8686868686868,640.7272727272727 688.4040404040404,650.2626262626263 697.9393939393939,659.7979797979798 707.4747474747475,669.3333333333334 717.0101010101009,678.8686868686868 726.5454545454545,688.4040404040404 736.0808080808081,697.939393939394 745.6161616161615,707.4747474747475 755.1515151515151,717.010101010101 764.6868686868686,726.5454545454545" fill="none" stroke="rgba(0,0,255,0.75)" stroke-width="11.327999999999996"/></g><g><polyline data-points="2.676767676767678,-2.2727272727272725 2.575757575757577,-2.3737373737373733 2.4747474747474754,-2.474747474747474 2.373737373737375,-2.5757575757575752 2.2727272727272734,-2.6767676767676765 2.1717171717171726,-2.7777777777777777 2.070707070707072,-2.8787878787878785 1.9696969696969702,-2.9797979797979792 1.8686868686868696,-3.0808080808080804 1.767676767676768,-3.1818181818181817 1.6666666666666674,-3.2828282828282824 1.5656565656565666,-3.383838383838383 1.4646464646464652,-3.484848484848485 1.3636363636363644,-3.5858585858585856 1.262626262626263,-3.6868686868686864 1.1616161616161622,-3.7878787878787876 1.0606060606060617,-3.8888888888888884 0.9595959595959602,-3.98989898989899" data-type="line" data-label="" points="764.6868686868686,726.5454545454545 755.1515151515151,736.0808080808081 745.6161616161615,745.6161616161615 736.0808080808081,755.1515151515151 726.5454545454545,764.6868686868687 717.0101010101009,774.2222222222222 707.4747474747475,783.7575757575758 697.9393939393939,793.2929292929292 688.4040404040404,802.8282828282828 678.8686868686868,812.3636363636363 669.3333333333333,821.8989898989898 659.7979797979798,831.4343434343434 650.2626262626262,840.969696969697 640.7272727272727,850.5050505050505 631.1919191919192,860.0404040404039 621.6565656565656,869.5757575757575 612.1212121212121,879.1111111111111 602.5858585858585,888.6464646464647" fill="none" stroke="rgba(255,0,0,0.75)" stroke-width="11.327999999999996"/></g><g><polyline data-points="0.9595959595959602,-3.98989898989899 0.8585858585858596,-4.090909090909091 0.7575757575757579,-4.191919191919193 0.6565656565656574,-4.292929292929293 0.5555555555555567,-4.393939393939394 0.4545454545454551,-4.494949494949496 0.3535353535353544,-4.595959595959596 0.2525252525252529,-4.696969696969697 0.1515151515151522,-4.7979797979797985 0.050505050505051545,-4.898989898989899 -0.05050505050505001,-5.000000000000001 -0.15151515151515066,-5.000000000000001 -0.2525252525252522,-5.000000000000001 -0.35353535353535287,-5.000000000000001 -0.4545454545454544,-5.000000000000001 -0.555555555555555,-5.000000000000001 -0.6565656565656557,-5.000000000000001 -0.7575757575757572,-5.000000000000001 -0.8585858585858579,-5.000000000000001 -0.9595959595959596,-5.000000000000001 -1.0606060606060603,-5.000000000000001 -1.1616161616161613,-5.000000000000001 -1.2626262626262625,-5.000000000000001 -1.363636363636363,-5.000000000000001 -1.4646464646464643,-5.000000000000001 -1.5656565656565653,-5.000000000000001 -1.6666666666666665,-5.000000000000001 -1.7676767676767675,-5.000000000000001 -1.8686868686868683,-5.000000000000001 -1.9696969696969693,-5.000000000000001 -2.07070707070707,-5.000000000000001 -2.1717171717171713,-5.000000000000001 -2.2727272727272725,-5.000000000000001 -2.3737373737373733,-5.000000000000001 -2.474747474747474,-5.000000000000001 -2.5757575757575752,-5.000000000000001 -2.6767676767676765,-5.000000000000001 -2.7777777777777777,-5.000000000000001 -2.8787878787878785,-5.000000000000001 -2.9797979797979792,-5.000000000000001 -3.0808080808080804,-5.000000000000001 -3.1818181818181817,-5.000000000000001 -3.2828282828282824,-5.000000000000001 -3.383838383838383,-5.000000000000001 -3.484848484848485,-5.000000000000001 -3.5858585858585856,-5.000000000000001 -3.6868686868686864,-5.000000000000001" data-type="line" data-label="" points="602.5858585858585,888.6464646464647 593.0505050505051,898.1818181818181 583.5151515151515,907.7171717171718 573.9797979797979,917.2525252525252 564.4444444444445,926.7878787878788 554.9090909090909,936.3232323232323 545.3737373737374,945.8585858585858 535.8383838383838,955.3939393939394 526.3030303030303,964.9292929292928 516.7676767676768,974.4646464646464 507.2323232323232,984 497.69696969696975,984 488.16161616161617,984 478.62626262626264,984 469.09090909090907,984 459.55555555555554,984 450.0202020202021,984 440.4848484848485,984 430.949494949495,984 421.4141414141414,984 411.8787878787879,984 402.34343434343435,984 392.80808080808083,984 383.2727272727273,984 373.7373737373738,984 364.2020202020202,984 354.6666666666667,984 345.13131313131316,984 335.59595959595964,984 326.0606060606061,984 316.5252525252526,984 306.9898989898991,984 297.4545454545455,984 287.91919191919203,984 278.38383838383845,984 268.84848484848493,984 259.3131313131314,984 249.77777777777783,984 240.2424242424243,984 230.70707070707084,984 221.17171717171726,984 211.63636363636374,984 202.10101010101022,984 192.5656565656567,984 183.03030303030312,984 173.4949494949496,984 163.95959595959607,984" fill="none" stroke="rgba(0,0,255,0.75)" stroke-width="11.327999999999996"/></g><g><polyline data-points="5.000000000000002,3.6868686868686877 4.898989898989901,3.7878787878787885 4.7979797979797985,3.8888888888888893 4.696969696969697,3.989898989898992 4.595959595959597,3.989898989898992 4.494949494949497,3.989898989898992 4.393939393939394,3.989898989898992 4.292929292929293,3.989898989898992 4.191919191919193,3.989898989898992 4.090909090909092,3.989898989898992 3.989898989898992,3.989898989898992 3.8888888888888893,3.989898989898992 3.7878787878787885,3.989898989898992 3.6868686868686877,3.989898989898992 3.5858585858585874,3.989898989898992 3.4848484848484866,3.989898989898992 3.383838383838384,3.989898989898992 3.2828282828282833,3.989898989898992 3.181818181818183,3.989898989898992 3.080808080808082,3.989898989898992 2.9797979797979806,3.989898989898992 2.87878787878788,3.989898989898992 2.7777777777777786,3.989898989898992 2.676767676767678,3.989898989898992 2.575757575757577,3.989898989898992 2.4747474747474754,3.989898989898992 2.373737373737375,3.989898989898992 2.2727272727272734,3.989898989898992 2.1717171717171726,3.989898989898992 2.070707070707072,3.989898989898992 1.9696969696969702,3.989898989898992 1.8686868686868696,3.989898989898992 1.767676767676768,3.989898989898992 1.6666666666666674,3.989898989898992 1.5656565656565666,3.989898989898992 1.4646464646464652,3.989898989898992 1.3636363636363644,3.989898989898992 1.262626262626263,3.989898989898992 1.1616161616161622,3.989898989898992 1.0606060606060617,3.989898989898992 0.9595959595959602,3.989898989898992 0.8585858585858596,3.989898989898992 0.7575757575757579,3.989898989898992 0.6565656565656574,3.989898989898992 0.5555555555555567,3.989898989898992 0.4545454545454551,3.989898989898992 0.3535353535353544,3.989898989898992 0.2525252525252529,3.989898989898992 0.1515151515151522,3.989898989898992 0.050505050505051545,3.989898989898992 -0.05050505050505001,3.989898989898992 -0.15151515151515066,3.989898989898992 -0.2525252525252522,3.989898989898992 -0.35353535353535287,3.989898989898992 -0.4545454545454544,3.989898989898992 -0.555555555555555,3.989898989898992 -0.6565656565656557,3.989898989898992 -0.7575757575757572,3.989898989898992 -0.8585858585858579,3.989898989898992 -0.9595959595959596,3.989898989898992 -1.0606060606060603,3.989898989898992 -1.1616161616161613,3.989898989898992 -1.2626262626262625,3.989898989898992 -1.363636363636363,3.989898989898992 -1.4646464646464643,3.989898989898992 -1.5656565656565653,3.989898989898992 -1.6666666666666665,3.989898989898992 -1.7676767676767675,3.989898989898992 -1.8686868686868683,3.989898989898992 -1.9696969696969693,3.989898989898992 -2.07070707070707,3.989898989898992 -2.1717171717171713,3.989898989898992 -2.2727272727272725,3.989898989898992 -2.3737373737373733,3.989898989898992 -2.474747474747474,3.989898989898992 -2.5757575757575752,3.989898989898992" data-type="line" data-label="" points="984,163.95959595959613 974.4646464646464,154.4242424242426 964.9292929292927,144.88888888888908 955.3939393939393,135.35353535353545 945.8585858585857,135.35353535353545 936.3232323232323,135.35353535353545 926.7878787878785,135.35353535353545 917.2525252525251,135.35353535353545 907.7171717171716,135.35353535353545 898.181818181818,135.35353535353545 888.6464646464647,135.35353535353545 879.111111111111,135.35353535353545 869.5757575757575,135.35353535353545 860.0404040404039,135.35353535353545 850.5050505050505,135.35353535353545 840.969696969697,135.35353535353545 831.4343434343433,135.35353535353545 821.8989898989898,135.35353535353545 812.3636363636363,135.35353535353545 802.8282828282828,135.35353535353545 793.2929292929292,135.35353535353545 783.7575757575758,135.35353535353545 774.2222222222222,135.35353535353545 764.6868686868686,135.35353535353545 755.1515151515151,135.35353535353545 745.6161616161615,135.35353535353545 736.0808080808081,135.35353535353545 726.5454545454545,135.35353535353545 717.0101010101009,135.35353535353545 707.4747474747475,135.35353535353545 697.9393939393939,135.35353535353545 688.4040404040404,135.35353535353545 678.8686868686868,135.35353535353545 669.3333333333333,135.35353535353545 659.7979797979798,135.35353535353545 650.2626262626262,135.35353535353545 640.7272727272727,135.35353535353545 631.1919191919192,135.35353535353545 621.6565656565656,135.35353535353545 612.1212121212121,135.35353535353545 602.5858585858585,135.35353535353545 593.0505050505051,135.35353535353545 583.5151515151515,135.35353535353545 573.9797979797979,135.35353535353545 564.4444444444445,135.35353535353545 554.9090909090909,135.35353535353545 545.3737373737374,135.35353535353545 535.8383838383838,135.35353535353545 526.3030303030303,135.35353535353545 516.7676767676768,135.35353535353545 507.2323232323232,135.35353535353545 497.69696969696975,135.35353535353545 488.16161616161617,135.35353535353545 478.62626262626264,135.35353535353545 469.09090909090907,135.35353535353545 459.55555555555554,135.35353535353545 450.0202020202021,135.35353535353545 440.4848484848485,135.35353535353545 430.949494949495,135.35353535353545 421.4141414141414,135.35353535353545 411.8787878787879,135.35353535353545 402.34343434343435,135.35353535353545 392.80808080808083,135.35353535353545 383.2727272727273,135.35353535353545 373.7373737373738,135.35353535353545 364.2020202020202,135.35353535353545 354.6666666666667,135.35353535353545 345.13131313131316,135.35353535353545 335.59595959595964,135.35353535353545 326.0606060606061,135.35353535353545 316.5252525252526,135.35353535353545 306.9898989898991,135.35353535353545 297.4545454545455,135.35353535353545 287.91919191919203,135.35353535353545 278.38383838383845,135.35353535353545 268.84848484848493,135.35353535353545" fill="none" stroke="rgba(0,0,255,0.75)" stroke-width="11.327999999999996"/></g><g><polyline data-points="-2.5757575757575752,3.989898989898992 -2.6767676767676765,4.090909090909092 -2.7777777777777777,4.191919191919193 -2.8787878787878785,4.292929292929293 -2.9797979797979792,4.393939393939394 -3.0808080808080804,4.494949494949497 -3.1818181818181817,4.494949494949497 -3.2828282828282824,4.494949494949497 -3.383838383838383,4.494949494949497 -3.484848484848485,4.494949494949497 -3.5858585858585856,4.494949494949497 -3.6868686868686864,4.494949494949497 -3.7878787878787876,4.494949494949497 -3.8888888888888884,4.595959595959597 -3.98989898989899,4.696969696969697 -4.090909090909091,4.7979797979797985 -4.191919191919193,4.898989898989901 -4.191919191919193,5.000000000000002" data-type="line" data-label="" points="268.84848484848493,135.35353535353545 259.3131313131314,125.81818181818198 249.77777777777783,116.28282828282846 240.2424242424243,106.747474747475 230.70707070707084,97.21212121212153 221.17171717171726,87.67676767676778 211.63636363636374,87.67676767676778 202.10101010101022,87.67676767676778 192.5656565656567,87.67676767676778 183.03030303030312,87.67676767676778 173.4949494949496,87.67676767676778 163.95959595959607,87.67676767676778 154.42424242424255,87.67676767676778 144.88888888888903,78.14141414141432 135.35353535353545,68.60606060606085 125.81818181818193,59.07070707070733 116.28282828282829,49.53535353535369 116.28282828282829,40.000000000000114" fill="none" stroke="rgba(255,0,0,0.75)" stroke-width="11.327999999999996"/></g><g><polyline data-points="-5.000000000000001,4.494949494949497 -4.898989898989899,4.494949494949497 -4.7979797979797985,4.494949494949497 -4.696969696969697,4.494949494949497 -4.595959595959596,4.494949494949497 -4.494949494949496,4.494949494949497 -4.393939393939394,4.494949494949497 -4.292929292929293,4.494949494949497 -4.191919191919193,4.494949494949497 -4.090909090909091,4.494949494949497 -3.98989898989899,4.494949494949497 -3.8888888888888884,4.393939393939394 -3.7878787878787876,4.292929292929293 -3.6868686868686864,4.191919191919193 -3.5858585858585856,4.090909090909092 -3.484848484848485,3.989898989898992" data-type="line" data-label="" points="40.00000000000006,87.67676767676778 49.53535353535369,87.67676767676778 59.07070707070716,87.67676767676778 68.60606060606068,87.67676767676778 78.14141414141426,87.67676767676778 87.67676767676772,87.67676767676778 97.21212121212136,87.67676767676778 106.74747474747483,87.67676767676778 116.28282828282829,87.67676767676778 125.81818181818193,87.67676767676778 135.35353535353545,87.67676767676778 144.88888888888903,97.21212121212153 154.42424242424255,106.747474747475 163.95959595959607,116.28282828282846 173.4949494949496,125.81818181818198 183.03030303030312,135.35353535353545" fill="none" stroke="rgba(0,0,255,0.75)" stroke-width="11.327999999999996"/></g><g><polyline data-points="-3.484848484848485,3.989898989898992 -3.383838383838383,3.989898989898992 -3.2828282828282824,3.989898989898992 -3.1818181818181817,3.989898989898992 -3.0808080808080804,3.989898989898992 -2.9797979797979792,3.8888888888888893 -2.8787878787878785,3.7878787878787885 -2.7777777777777777,3.6868686868686877 -2.6767676767676765,3.5858585858585874" data-type="line" data-label="" points="183.03030303030312,135.35353535353545 192.5656565656567,135.35353535353545 202.10101010101022,135.35353535353545 211.63636363636374,135.35353535353545 221.17171717171726,135.35353535353545 230.70707070707084,144.88888888888908 240.2424242424243,154.4242424242426 249.77777777777783,163.95959595959613 259.3131313131314,173.4949494949496" fill="none" stroke="rgba(255,0,0,0.75)" stroke-width="11.327999999999996"/></g><g><polyline data-points="-2.6767676767676765,3.5858585858585874 -2.6767676767676765,3.6868686868686877 -2.6767676767676765,3.7878787878787885 -2.7777777777777777,3.8888888888888893 -2.8787878787878785,3.989898989898992 -2.7777777777777777,4.090909090909092 -2.6767676767676765,4.191919191919193 -2.5757575757575752,4.292929292929293 -2.474747474747474,4.393939393939394 -2.3737373737373733,4.494949494949497 -2.2727272727272725,4.494949494949497 -2.1717171717171713,4.494949494949497 -2.07070707070707,4.494949494949497 -1.9696969696969693,4.494949494949497 -1.8686868686868683,4.494949494949497 -1.7676767676767675,4.494949494949497 -1.6666666666666665,4.494949494949497 -1.5656565656565653,4.494949494949497 -1.4646464646464643,4.494949494949497 -1.363636363636363,4.494949494949497 -1.2626262626262625,4.494949494949497 -1.1616161616161613,4.494949494949497 -1.0606060606060603,4.494949494949497 -0.9595959595959596,4.494949494949497 -0.8585858585858579,4.494949494949497 -0.7575757575757572,4.494949494949497 -0.6565656565656557,4.494949494949497 -0.555555555555555,4.494949494949497 -0.4545454545454544,4.494949494949497 -0.35353535353535287,4.494949494949497 -0.2525252525252522,4.494949494949497 -0.15151515151515066,4.494949494949497 -0.05050505050505001,4.494949494949497 0.050505050505051545,4.494949494949497 0.1515151515151522,4.494949494949497 0.2525252525252529,4.494949494949497 0.3535353535353544,4.494949494949497 0.4545454545454551,4.494949494949497 0.5555555555555567,4.494949494949497 0.6565656565656574,4.494949494949497 0.7575757575757579,4.494949494949497 0.8585858585858596,4.494949494949497 0.9595959595959602,4.494949494949497 1.0606060606060617,4.494949494949497 1.1616161616161622,4.494949494949497 1.262626262626263,4.494949494949497 1.3636363636363644,4.494949494949497 1.4646464646464652,4.494949494949497 1.5656565656565666,4.494949494949497 1.6666666666666674,4.494949494949497 1.767676767676768,4.494949494949497 1.8686868686868696,4.494949494949497 1.9696969696969702,4.494949494949497 2.070707070707072,4.494949494949497 2.1717171717171726,4.494949494949497 2.2727272727272734,4.494949494949497 2.373737373737375,4.494949494949497 2.4747474747474754,4.494949494949497 2.575757575757577,4.494949494949497 2.676767676767678,4.494949494949497 2.7777777777777786,4.494949494949497 2.87878787878788,4.494949494949497 2.9797979797979806,4.494949494949497 3.080808080808082,4.494949494949497 3.181818181818183,4.494949494949497 3.2828282828282833,4.494949494949497 3.383838383838384,4.494949494949497 3.4848484848484866,4.494949494949497 3.5858585858585874,4.494949494949497 3.6868686868686877,4.494949494949497 3.7878787878787885,4.494949494949497 3.8888888888888893,4.494949494949497 3.989898989898992,4.494949494949497 4.090909090909092,4.494949494949497 4.191919191919193,4.494949494949497 4.292929292929293,4.494949494949497 4.393939393939394,4.494949494949497 4.494949494949497,4.494949494949497 4.595959595959597,4.494949494949497 4.696969696969697,4.494949494949497 4.7979797979797985,4.494949494949497 4.898989898989901,4.494949494949497 5.000000000000002,4.595959595959597" data-type="line" data-label="" points="259.3131313131314,173.4949494949496 259.3131313131314,163.95959595959613 259.3131313131314,154.4242424242426 249.77777777777783,144.88888888888908 240.2424242424243,135.35353535353545 249.77777777777783,125.81818181818198 259.3131313131314,116.28282828282846 268.84848484848493,106.747474747475 278.38383838383845,97.21212121212153 287.91919191919203,87.67676767676778 297.4545454545455,87.67676767676778 306.9898989898991,87.67676767676778 316.5252525252526,87.67676767676778 326.0606060606061,87.67676767676778 335.59595959595964,87.67676767676778 345.13131313131316,87.67676767676778 354.6666666666667,87.67676767676778 364.2020202020202,87.67676767676778 373.7373737373738,87.67676767676778 383.2727272727273,87.67676767676778 392.80808080808083,87.67676767676778 402.34343434343435,87.67676767676778 411.8787878787879,87.67676767676778 421.4141414141414,87.67676767676778 430.949494949495,87.67676767676778 440.4848484848485,87.67676767676778 450.0202020202021,87.67676767676778 459.55555555555554,87.67676767676778 469.09090909090907,87.67676767676778 478.62626262626264,87.67676767676778 488.16161616161617,87.67676767676778 497.69696969696975,87.67676767676778 507.2323232323232,87.67676767676778 516.7676767676768,87.67676767676778 526.3030303030303,87.67676767676778 535.8383838383838,87.67676767676778 545.3737373737374,87.67676767676778 554.9090909090909,87.67676767676778 564.4444444444445,87.67676767676778 573.9797979797979,87.67676767676778 583.5151515151515,87.67676767676778 593.0505050505051,87.67676767676778 602.5858585858585,87.67676767676778 612.1212121212121,87.67676767676778 621.6565656565656,87.67676767676778 631.1919191919192,87.67676767676778 640.7272727272727,87.67676767676778 650.2626262626262,87.67676767676778 659.7979797979798,87.67676767676778 669.3333333333333,87.67676767676778 678.8686868686868,87.67676767676778 688.4040404040404,87.67676767676778 697.9393939393939,87.67676767676778 707.4747474747475,87.67676767676778 717.0101010101009,87.67676767676778 726.5454545454545,87.67676767676778 736.0808080808081,87.67676767676778 745.6161616161615,87.67676767676778 755.1515151515151,87.67676767676778 764.6868686868686,87.67676767676778 774.2222222222222,87.67676767676778 783.7575757575758,87.67676767676778 793.2929292929292,87.67676767676778 802.8282828282828,87.67676767676778 812.3636363636363,87.67676767676778 821.8989898989898,87.67676767676778 831.4343434343433,87.67676767676778 840.969696969697,87.67676767676778 850.5050505050505,87.67676767676778 860.0404040404039,87.67676767676778 869.5757575757575,87.67676767676778 879.111111111111,87.67676767676778 888.6464646464647,87.67676767676778 898.181818181818,87.67676767676778 907.7171717171716,87.67676767676778 917.2525252525251,87.67676767676778 926.7878787878785,87.67676767676778 936.3232323232323,87.67676767676778 945.8585858585857,87.67676767676778 955.3939393939393,87.67676767676778 964.9292929292927,87.67676767676778 974.4646464646464,87.67676767676778 984,78.14141414141432" fill="none" stroke="rgba(0,0,255,0.75)" stroke-width="11.327999999999996"/></g><g><rect data-type="rect" data-label="" data-x="0" data-y="0" x="40.000000000000114" y="40.000000000000284" width="943.9999999999997" height="943.9999999999998" fill="none" stroke="gray" stroke-width="0.010593220338983056"/></g><g><rect data-type="rect" data-label="" data-x="0" data-y="0" x="40.000000000000114" y="40.000000000000284" width="943.9999999999997" height="943.9999999999998" fill="none" stroke="rgba(15, 23, 42, 0.8)" stroke-width="0.010593220338983056"/></g><circle data-type="circle" data-label="" data-x="-3.484848484848485" data-y="-3.0808080808080804" cx="183.03030303030312" cy="802.8282828282828" r="14.159999999999995" fill="rgba(0,0,0,0.3)" stroke="black" stroke-width="0.010593220338983056"/><circle data-type="circle" data-label="" data-x="2.676767676767678" data-y="-2.2727272727272725" cx="764.6868686868686" cy="726.5454545454545" r="14.159999999999995" fill="rgba(0,0,0,0.3)" stroke="black" stroke-width="0.010593220338983056"/><circle data-type="circle" data-label="" data-x="0.9595959595959602" data-y="-3.98989898989899" cx="602.5858585858585" cy="888.6464646464647" r="14.159999999999995" fill="rgba(0,0,0,0.3)" stroke="black" stroke-width="0.010593220338983056"/><circle data-type="circle" data-label="" data-x="-2.5757575757575752" data-y="3.989898989898992" cx="268.84848484848493" cy="135.35353535353545" r="14.159999999999995" fill="rgba(0,0,0,0.3)" stroke="black" stroke-width="0.010593220338983056"/><circle data-type="circle" data-label="" data-x="-3.484848484848485" data-y="3.989898989898992" cx="183.03030303030312" cy="135.35353535353545" r="14.159999999999995" fill="rgba(0,0,0,0.3)" stroke="black" stroke-width="0.010593220338983056"/><circle data-type="circle" data-label="" data-x="-2.6767676767676765" data-y="3.5858585858585874" cx="259.3131313131314" cy="173.4949494949496" r="14.159999999999995" fill="rgba(0,0,0,0.3)" stroke="black" stroke-width="0.010593220338983056"/><g id="crosshair" style="display: none"><line id="crosshair-h" y1="0" y2="1024" stroke="#666" stroke-width="0.5"/><line id="crosshair-v" x1="0" x2="1024" stroke="#666" stroke-width="0.5"/><text id="coordinates" font-family="monospace" font-size="12" fill="#666"></text></g><script><![CDATA[
              document.currentScript.parentElement.addEventListener('mousemove', (e) => {
                const svg = e.currentTarget;
                const rect = svg.getBoundingClientRect();
                const x = e.clientX - rect.left;
                const y = e.clientY - rect.top;
                const crosshair = svg.getElementById('crosshair');
                const h = svg.getElementById('crosshair-h');
                const v = svg.getElementById('crosshair-v');
                const coords = svg.getElementById('coordinates');
                
                crosshair.style.display = 'block';
                h.setAttribute('x1', '0');
                h.setAttribute('x2', '1024');
                h.setAttribute('y1', y);
                h.setAttribute('y2', y);
                v.setAttribute('x1', x);
                v.setAttribute('x2', x);
                v.setAttribute('y1', '0');
                v.setAttribute('y2', '1024');

                // Calculate real coordinates using inverse transformation
                const matrix = {"a":94.39999999999996,"c":0,"e":511.99999999999994,"b":0,"d":-94.39999999999996,"f":512.0000000000001};
                // Manually invert and apply the affine transform
                // Since we only use translate and scale, we can directly compute:
                // x' = (x - tx) / sx
                // y' = (y - ty) / sy
                const sx = matrix.a;
                const sy = matrix.d;
                const tx = matrix.e; 
                const ty = matrix.f;
                const realPoint = {
                  x: (x - tx) / sx,
                  y: (y - ty) / sy // Flip y back since we used negative scale
                }
                
                coords.textContent = `(${realPoint.x.toFixed(2)}, ${realPoint.y.toFixed(2)})`;
                coords.setAttribute('x', (x + 5).toString());
                coords.setAttribute('y', (y - 5).toString());
              });
              document.currentScript.parentElement.addEventListener('mouseleave', () => {
                document.currentScript.parentElement.getElementById('crosshair').style.display = 'none';
              });
            ]]></script></svg>