<svg width="1024" height="1024" viewBox="0 0 1024 1024" xmlns="http://www.w3.org/2000/svg"><rect width="100%" height="100%" fill="white"/><g><circle data-type="point" data-label="conn_000" data-x="-5" data-y="4.1" cx="40.000000000000114" cy="124.96000000000032" r="14.16" fill="blue"/></g><g><circle data-type="point" data-label="conn_000" data-x="-1.12" data-y="5" cx="406.272" cy="40.000000000000284" r="14.16" fill="red"/></g><g><circle data-type="point" data-label="conn_001" data-x="-5" data-y="2.14" cx="40.000000000000114" cy="309.98400000000015" r="14.16" fill="blue"/></g><g><circle data-type="point" data-label="conn_001" data-x="-3.34" data-y="5" cx="196.70400000000006" cy="40.000000000000284" r="14.16" fill="blue"/></g><g><circle data-type="point" data-label="conn_002" data-x="-5" data-y="0.3" cx="40.000000000000114" cy="483.6800000000001" r="14.16" fill="blue"/></g><g><circle data-type="point" data-label="conn_002" data-x="5" data-y="4.94" cx="983.9999999999998" cy="45.66400000000027" r="14.16" fill="blue"/></g><g><circle data-type="point" data-label="conn_003" data-x="5" data-y="4.0600000000000005" cx="983.9999999999998" cy="128.73600000000022" r="14.16" fill="red"/></g><g><circle data-type="point" data-label="conn_003" data-x="-4" data-y="5" cx="134.4000000000001" cy="40.000000000000284" r="14.16" fill="blue"/></g><g><circle data-type="point" data-label="conn_004" data-x="-5" data-y="4.7" cx="40.000000000000114" cy="68.32000000000028" r="14.16" fill="blue"/></g><g><circle data-type="point" data-label="conn_004" data-x="5" data-y="0.56" cx="983.9999999999998" cy="459.13600000000014" r="14.16" fill="red"/></g><g><circle data-type="point" data-label="conn_005" data-x="-2.14" data-y="5" cx="309.98400000000004" cy="40.000000000000284" r="14.16" fill="blue"/></g><g><circle data-type="point" data-label="conn_005" data-x="-4.54" data-y="-5" cx="83.42400000000009" cy="984" r="14.16" fill="blue"/></g><g><circle data-type="point" data-label="conn_006" data-x="3.4" data-y="-5" cx="832.9599999999998" cy="984" r="14.16" fill="blue"/></g><g><circle data-type="point" data-label="conn_006" data-x="4.66" data-y="5" cx="951.9039999999998" cy="40.000000000000284" r="14.16" fill="red"/></g><g><circle data-type="point" data-label="conn_007" data-x="0.42" data-y="-5" cx="551.6479999999999" cy="984" r="14.16" fill="red"/></g><g><circle data-type="point" data-label="conn_007" data-x="3.1" data-y="5" cx="804.6399999999999" cy="40.000000000000284" r="14.16" fill="blue"/></g><g><circle data-type="point" data-label="conn_008" data-x="5" data-y="2.7800000000000002" cx="983.9999999999998" cy="249.5680000000002" r="14.16" fill="blue"/></g><g><circle data-type="point" data-label="conn_008" data-x="-5" data-y="1.32" cx="40.000000000000114" cy="387.39200000000017" r="14.16" fill="red"/></g><g><polyline data-points="0.4545454545454551,-5.000000000000001 0.5555555555555567,-4.898989898989899 0.6565656565656574,-4.7979797979797985 0.7575757575757579,-4.696969696969697 0.8585858585858596,-4.595959595959596 0.9595959595959602,-4.494949494949496 1.0606060606060617,-4.393939393939394 1.1616161616161622,-4.292929292929293 1.262626262626263,-4.191919191919193 1.3636363636363644,-4.090909090909091 1.4646464646464652,-3.98989898989899 1.5656565656565666,-3.8888888888888884 1.6666666666666674,-3.7878787878787876 1.767676767676768,-3.6868686868686864 1.8686868686868696,-3.5858585858585856 1.9696969696969702,-3.484848484848485 2.070707070707072,-3.383838383838383 2.1717171717171726,-3.2828282828282824 2.2727272727272734,-3.1818181818181817 2.373737373737375,-3.0808080808080804 2.4747474747474754,-2.9797979797979792 2.575757575757577,-2.8787878787878785 2.676767676767678,-2.7777777777777777 2.7777777777777786,-2.6767676767676765 2.87878787878788,-2.5757575757575752 2.9797979797979806,-2.474747474747474 3.080808080808082,-2.3737373737373733 3.080808080808082,-2.2727272727272725 3.080808080808082,-2.1717171717171713 3.080808080808082,-2.07070707070707 3.080808080808082,-1.9696969696969693 3.080808080808082,-1.8686868686868683 3.080808080808082,-1.7676767676767675 3.080808080808082,-1.6666666666666665 3.080808080808082,-1.5656565656565653 3.080808080808082,-1.4646464646464643 3.080808080808082,-1.363636363636363 3.080808080808082,-1.2626262626262625 3.080808080808082,-1.1616161616161613 3.080808080808082,-1.0606060606060603 3.080808080808082,-0.9595959595959596 3.080808080808082,-0.8585858585858579 3.080808080808082,-0.7575757575757572 3.080808080808082,-0.6565656565656557 3.080808080808082,-0.555555555555555 3.080808080808082,-0.4545454545454544 3.080808080808082,-0.35353535353535287 3.080808080808082,-0.2525252525252522 3.080808080808082,-0.15151515151515066 3.080808080808082,-0.05050505050505001 3.080808080808082,0.050505050505051545 3.080808080808082,0.1515151515151522 3.080808080808082,0.2525252525252529 3.080808080808082,0.3535353535353544 3.080808080808082,0.4545454545454551 3.080808080808082,0.5555555555555567 3.080808080808082,0.6565656565656574 3.080808080808082,0.7575757575757579 3.080808080808082,0.8585858585858596 3.080808080808082,0.9595959595959602 3.080808080808082,1.0606060606060617 3.080808080808082,1.1616161616161622 3.080808080808082,1.262626262626263 3.080808080808082,1.3636363636363644 3.080808080808082,1.4646464646464652 3.080808080808082,1.5656565656565666 3.080808080808082,1.6666666666666674 3.080808080808082,1.767676767676768 3.080808080808082,1.8686868686868696 3.080808080808082,1.9696969696969702 3.080808080808082,2.070707070707072 3.080808080808082,2.1717171717171726 3.080808080808082,2.2727272727272734 3.080808080808082,2.373737373737375 3.080808080808082,2.4747474747474754 3.080808080808082,2.575757575757577 3.080808080808082,2.676767676767678 3.080808080808082,2.7777777777777786 3.080808080808082,2.87878787878788 3.080808080808082,2.9797979797979806 3.080808080808082,3.080808080808082 3.080808080808082,3.181818181818183 3.080808080808082,3.2828282828282833 3.080808080808082,3.383838383838384 3.080808080808082,3.4848484848484866 3.080808080808082,3.5858585858585874 3.080808080808082,3.6868686868686877" data-type="line" data-label="" points="554.9090909090909,984 564.4444444444445,974.4646464646464 573.9797979797979,964.9292929292928 583.5151515151515,955.3939393939394 593.0505050505051,945.8585858585858 602.5858585858585,936.3232323232323 612.1212121212121,926.7878787878788 621.6565656565656,917.2525252525252 631.1919191919192,907.7171717171718 640.7272727272727,898.1818181818181 650.2626262626262,888.6464646464647 659.7979797979798,879.1111111111111 669.3333333333333,869.5757575757575 678.8686868686868,860.0404040404039 688.4040404040404,850.5050505050505 697.9393939393939,840.969696969697 707.4747474747475,831.4343434343434 717.0101010101009,821.8989898989898 726.5454545454545,812.3636363636363 736.0808080808081,802.8282828282828 745.6161616161615,793.2929292929292 755.1515151515151,783.7575757575758 764.6868686868686,774.2222222222222 774.2222222222222,764.6868686868687 783.7575757575758,755.1515151515151 793.2929292929292,745.6161616161615 802.8282828282828,736.0808080808081 802.8282828282828,726.5454545454545 802.8282828282828,717.010101010101 802.8282828282828,707.4747474747475 802.8282828282828,697.939393939394 802.8282828282828,688.4040404040404 802.8282828282828,678.8686868686868 802.8282828282828,669.3333333333334 802.8282828282828,659.7979797979798 802.8282828282828,650.2626262626263 802.8282828282828,640.7272727272727 802.8282828282828,631.1919191919193 802.8282828282828,621.6565656565657 802.8282828282828,612.1212121212121 802.8282828282828,602.5858585858587 802.8282828282828,593.0505050505051 802.8282828282828,583.5151515151516 802.8282828282828,573.979797979798 802.8282828282828,564.4444444444445 802.8282828282828,554.909090909091 802.8282828282828,545.3737373737374 802.8282828282828,535.838383838384 802.8282828282828,526.3030303030304 802.8282828282828,516.7676767676768 802.8282828282828,507.23232323232327 802.8282828282828,497.69696969696975 802.8282828282828,488.1616161616163 802.8282828282828,478.6262626262627 802.8282828282828,469.0909090909092 802.8282828282828,459.5555555555556 802.8282828282828,450.0202020202021 802.8282828282828,440.4848484848486 802.8282828282828,430.94949494949503 802.8282828282828,421.4141414141415 802.8282828282828,411.87878787878793 802.8282828282828,402.3434343434344 802.8282828282828,392.80808080808094 802.8282828282828,383.27272727272737 802.8282828282828,373.73737373737384 802.8282828282828,364.2020202020203 802.8282828282828,354.66666666666674 802.8282828282828,345.1313131313133 802.8282828282828,335.5959595959597 802.8282828282828,326.06060606060623 802.8282828282828,316.5252525252526 802.8282828282828,306.9898989898991 802.8282828282828,297.4545454545456 802.8282828282828,287.91919191919203 802.8282828282828,278.38383838383857 802.8282828282828,268.84848484848493 802.8282828282828,259.3131313131314 802.8282828282828,249.77777777777794 802.8282828282828,240.24242424242436 802.8282828282828,230.70707070707084 802.8282828282828,221.17171717171726 802.8282828282828,211.63636363636374 802.8282828282828,202.10101010101027 802.8282828282828,192.56565656565675 802.8282828282828,183.03030303030312 802.8282828282828,173.4949494949496 802.8282828282828,163.95959595959613" fill="none" stroke="rgba(255,0,0,0.75)" stroke-width="11.327999999999996"/></g><g><polyline data-points="3.080808080808082,3.6868686868686877 3.080808080808082,3.7878787878787885 3.080808080808082,3.8888888888888893 3.080808080808082,3.989898989898992 3.080808080808082,4.090909090909092 3.080808080808082,4.191919191919193 3.080808080808082,4.292929292929293 3.080808080808082,4.393939393939394 3.080808080808082,4.494949494949497 3.080808080808082,4.595959595959597 3.080808080808082,4.696969696969697 3.080808080808082,4.7979797979797985 3.080808080808082,4.898989898989901 3.080808080808082,5.000000000000002" data-type="line" data-label="" points="802.8282828282828,163.95959595959613 802.8282828282828,154.4242424242426 802.8282828282828,144.88888888888908 802.8282828282828,135.35353535353545 802.8282828282828,125.81818181818198 802.8282828282828,116.28282828282846 802.8282828282828,106.747474747475 802.8282828282828,97.21212121212153 802.8282828282828,87.67676767676778 802.8282828282828,78.14141414141432 802.8282828282828,68.60606060606085 802.8282828282828,59.07070707070733 802.8282828282828,49.53535353535369 802.8282828282828,40.000000000000114" fill="none" stroke="rgba(0,0,255,0.75)" stroke-width="11.327999999999996"/></g><g><polyline data-points="5.000000000000002,2.7777777777777786 4.898989898989901,2.676767676767678 4.7979797979797985,2.575757575757577 4.696969696969697,2.4747474747474754 4.595959595959597,2.373737373737375 4.494949494949497,2.2727272727272734 4.393939393939394,2.1717171717171726 4.292929292929293,2.070707070707072 4.191919191919193,1.9696969696969702 4.090909090909092,1.9696969696969702 3.989898989898992,1.9696969696969702 3.8888888888888893,1.9696969696969702 3.7878787878787885,1.9696969696969702 3.6868686868686877,1.9696969696969702 3.5858585858585874,1.9696969696969702 3.4848484848484866,1.9696969696969702 3.383838383838384,1.9696969696969702 3.2828282828282833,1.9696969696969702 3.181818181818183,1.9696969696969702 3.080808080808082,1.9696969696969702 2.9797979797979806,1.9696969696969702 2.87878787878788,1.9696969696969702 2.7777777777777786,1.9696969696969702 2.676767676767678,1.9696969696969702 2.575757575757577,1.9696969696969702 2.4747474747474754,1.9696969696969702 2.373737373737375,1.9696969696969702 2.2727272727272734,1.9696969696969702 2.1717171717171726,1.9696969696969702 2.070707070707072,1.9696969696969702 1.9696969696969702,1.9696969696969702 1.8686868686868696,1.9696969696969702 1.767676767676768,1.9696969696969702 1.6666666666666674,1.9696969696969702 1.5656565656565666,1.9696969696969702 1.4646464646464652,1.9696969696969702 1.3636363636363644,1.9696969696969702 1.262626262626263,1.9696969696969702 1.1616161616161622,1.9696969696969702 1.0606060606060617,1.9696969696969702 0.9595959595959602,1.9696969696969702 0.8585858585858596,1.9696969696969702 0.7575757575757579,1.9696969696969702 0.6565656565656574,1.9696969696969702 0.5555555555555567,1.9696969696969702 0.4545454545454551,1.9696969696969702 0.3535353535353544,1.9696969696969702 0.2525252525252529,1.9696969696969702 0.1515151515151522,1.9696969696969702 0.050505050505051545,1.9696969696969702 -0.05050505050505001,1.9696969696969702 -0.15151515151515066,1.9696969696969702 -0.2525252525252522,1.9696969696969702 -0.35353535353535287,1.9696969696969702 -0.4545454545454544,1.9696969696969702 -0.555555555555555,1.9696969696969702 -0.6565656565656557,1.9696969696969702 -0.7575757575757572,1.9696969696969702 -0.8585858585858579,1.9696969696969702 -0.9595959595959596,1.9696969696969702 -1.0606060606060603,1.9696969696969702 -1.1616161616161613,1.9696969696969702 -1.2626262626262625,1.9696969696969702 -1.363636363636363,1.9696969696969702 -1.4646464646464643,1.9696969696969702 -1.5656565656565653,1.9696969696969702 -1.6666666666666665,1.9696969696969702 -1.7676767676767675,1.9696969696969702 -1.8686868686868683,1.9696969696969702 -1.9696969696969693,1.9696969696969702 -2.07070707070707,1.9696969696969702 -2.1717171717171713,1.9696969696969702 -2.2727272727272725,1.9696969696969702 -2.3737373737373733,1.9696969696969702 -2.474747474747474,1.9696969696969702 -2.5757575757575752,1.9696969696969702 -2.6767676767676765,1.9696969696969702 -2.7777777777777777,1.9696969696969702 -2.8787878787878785,1.9696969696969702 -2.9797979797979792,1.9696969696969702 -3.0808080808080804,1.9696969696969702 -3.1818181818181817,1.9696969696969702 -3.2828282828282824,2.070707070707072 -3.383838383838383,2.070707070707072 -3.484848484848485,2.070707070707072 -3.5858585858585856,2.070707070707072" data-type="line" data-label="" points="984,249.77777777777794 974.4646464646464,259.3131313131314 964.9292929292927,268.84848484848493 955.3939393939393,278.38383838383857 945.8585858585857,287.91919191919203 936.3232323232323,297.4545454545456 926.7878787878785,306.9898989898991 917.2525252525251,316.5252525252526 907.7171717171716,326.06060606060623 898.181818181818,326.06060606060623 888.6464646464647,326.06060606060623 879.111111111111,326.06060606060623 869.5757575757575,326.06060606060623 860.0404040404039,326.06060606060623 850.5050505050505,326.06060606060623 840.969696969697,326.06060606060623 831.4343434343433,326.06060606060623 821.8989898989898,326.06060606060623 812.3636363636363,326.06060606060623 802.8282828282828,326.06060606060623 793.2929292929292,326.06060606060623 783.7575757575758,326.06060606060623 774.2222222222222,326.06060606060623 764.6868686868686,326.06060606060623 755.1515151515151,326.06060606060623 745.6161616161615,326.06060606060623 736.0808080808081,326.06060606060623 726.5454545454545,326.06060606060623 717.0101010101009,326.06060606060623 707.4747474747475,326.06060606060623 697.9393939393939,326.06060606060623 688.4040404040404,326.06060606060623 678.8686868686868,326.06060606060623 669.3333333333333,326.06060606060623 659.7979797979798,326.06060606060623 650.2626262626262,326.06060606060623 640.7272727272727,326.06060606060623 631.1919191919192,326.06060606060623 621.6565656565656,326.06060606060623 612.1212121212121,326.06060606060623 602.5858585858585,326.06060606060623 593.0505050505051,326.06060606060623 583.5151515151515,326.06060606060623 573.9797979797979,326.06060606060623 564.4444444444445,326.06060606060623 554.9090909090909,326.06060606060623 545.3737373737374,326.06060606060623 535.8383838383838,326.06060606060623 526.3030303030303,326.06060606060623 516.7676767676768,326.06060606060623 507.2323232323232,326.06060606060623 497.69696969696975,326.06060606060623 488.16161616161617,326.06060606060623 478.62626262626264,326.06060606060623 469.09090909090907,326.06060606060623 459.55555555555554,326.06060606060623 450.0202020202021,326.06060606060623 440.4848484848485,326.06060606060623 430.949494949495,326.06060606060623 421.4141414141414,326.06060606060623 411.8787878787879,326.06060606060623 402.34343434343435,326.06060606060623 392.80808080808083,326.06060606060623 383.2727272727273,326.06060606060623 373.7373737373738,326.06060606060623 364.2020202020202,326.06060606060623 354.6666666666667,326.06060606060623 345.13131313131316,326.06060606060623 335.59595959595964,326.06060606060623 326.0606060606061,326.06060606060623 316.5252525252526,326.06060606060623 306.9898989898991,326.06060606060623 297.4545454545455,326.06060606060623 287.91919191919203,326.06060606060623 278.38383838383845,326.06060606060623 268.84848484848493,326.06060606060623 259.3131313131314,326.06060606060623 249.77777777777783,326.06060606060623 240.2424242424243,326.06060606060623 230.70707070707084,326.06060606060623 221.17171717171726,326.06060606060623 211.63636363636374,326.06060606060623 202.10101010101022,316.5252525252526 192.5656565656567,316.5252525252526 183.03030303030312,316.5252525252526 173.4949494949496,316.5252525252526" fill="none" stroke="rgba(0,0,255,0.75)" stroke-width="11.327999999999996"/></g><g><polyline data-points="-3.5858585858585856,2.070707070707072 -3.6868686868686864,2.070707070707072 -3.7878787878787876,2.070707070707072 -3.8888888888888884,2.070707070707072 -3.98989898989899,2.070707070707072 -4.090909090909091,1.9696969696969702 -4.191919191919193,1.8686868686868696 -4.292929292929293,1.767676767676768 -4.393939393939394,1.6666666666666674 -4.494949494949496,1.5656565656565666 -4.595959595959596,1.4646464646464652 -4.696969696969697,1.3636363636363644 -4.7979797979797985,1.3636363636363644 -4.898989898989899,1.3636363636363644 -5.000000000000001,1.3636363636363644" data-type="line" data-label="" points="173.4949494949496,316.5252525252526 163.95959595959607,316.5252525252526 154.42424242424255,316.5252525252526 144.88888888888903,316.5252525252526 135.35353535353545,316.5252525252526 125.81818181818193,326.06060606060623 116.28282828282829,335.5959595959597 106.74747474747483,345.1313131313133 97.21212121212136,354.66666666666674 87.67676767676772,364.2020202020203 78.14141414141426,373.73737373737384 68.60606060606068,383.27272727272737 59.07070707070716,383.27272727272737 49.53535353535369,383.27272727272737 40.00000000000006,383.27272727272737" fill="none" stroke="rgba(255,0,0,0.75)" stroke-width="11.327999999999996"/></g><g><polyline data-points="-5.000000000000001,0.2525252525252529 -4.898989898989899,0.2525252525252529 -4.7979797979797985,0.3535353535353544 -4.696969696969697,0.4545454545454551 -4.595959595959596,0.5555555555555567 -4.494949494949496,0.6565656565656574 -4.393939393939394,0.7575757575757579 -4.292929292929293,0.8585858585858596 -4.191919191919193,0.9595959595959602 -4.090909090909091,1.0606060606060617 -3.98989898989899,1.1616161616161622 -3.8888888888888884,1.262626262626263 -3.7878787878787876,1.3636363636363644 -3.6868686868686864,1.4646464646464652 -3.5858585858585856,1.5656565656565666 -3.484848484848485,1.6666666666666674" data-type="line" data-label="" points="40.00000000000006,488.1616161616163 49.53535353535369,488.1616161616163 59.07070707070716,478.6262626262627 68.60606060606068,469.0909090909092 78.14141414141426,459.5555555555556 87.67676767676772,450.0202020202021 97.21212121212136,440.4848484848486 106.74747474747483,430.94949494949503 116.28282828282829,421.4141414141415 125.81818181818193,411.87878787878793 135.35353535353545,402.3434343434344 144.88888888888903,392.80808080808094 154.42424242424255,383.27272727272737 163.95959595959607,373.73737373737384 173.4949494949496,364.2020202020203 183.03030303030312,354.66666666666674" fill="none" stroke="rgba(0,0,255,0.75)" stroke-width="11.327999999999996"/></g><g><polyline data-points="-3.484848484848485,1.6666666666666674 -3.383838383838383,1.767676767676768 -3.2828282828282824,1.8686868686868696 -3.1818181818181817,1.9696969696969702 -3.0808080808080804,2.070707070707072 -2.9797979797979792,2.1717171717171726 -2.8787878787878785,2.2727272727272734 -2.9797979797979792,2.373737373737375" data-type="line" data-label="" points="183.03030303030312,354.66666666666674 192.5656565656567,345.1313131313133 202.10101010101022,335.5959595959597 211.63636363636374,326.06060606060623 221.17171717171726,316.5252525252526 230.70707070707084,306.9898989898991 240.2424242424243,297.4545454545456 230.70707070707084,287.91919191919203" fill="none" stroke="rgba(255,0,0,0.75)" stroke-width="11.327999999999996"/></g><g><polyline data-points="-2.9797979797979792,2.373737373737375 -2.8787878787878785,2.4747474747474754 -2.8787878787878785,2.575757575757577 -2.7777777777777777,2.676767676767678 -2.6767676767676765,2.7777777777777786 -2.5757575757575752,2.87878787878788 -2.474747474747474,2.9797979797979806 -2.3737373737373733,3.080808080808082 -2.2727272727272725,3.181818181818183 -2.1717171717171713,3.2828282828282833 -2.07070707070707,3.383838383838384 -1.9696969696969693,3.4848484848484866 -1.8686868686868683,3.4848484848484866 -1.7676767676767675,3.383838383838384 -1.6666666666666665,3.383838383838384 -1.5656565656565653,3.383838383838384 -1.4646464646464643,3.383838383838384 -1.363636363636363,3.383838383838384 -1.2626262626262625,3.383838383838384 -1.1616161616161613,3.383838383838384 -1.0606060606060603,3.383838383838384 -0.9595959595959596,3.383838383838384 -0.8585858585858579,3.383838383838384 -0.7575757575757572,3.383838383838384 -0.6565656565656557,3.383838383838384 -0.555555555555555,3.383838383838384 -0.4545454545454544,3.383838383838384 -0.35353535353535287,3.383838383838384 -0.2525252525252522,3.383838383838384 -0.15151515151515066,3.383838383838384 -0.05050505050505001,3.383838383838384 0.050505050505051545,3.383838383838384 0.1515151515151522,3.383838383838384 0.2525252525252529,3.383838383838384 0.3535353535353544,3.383838383838384 0.4545454545454551,3.383838383838384 0.5555555555555567,3.383838383838384 0.6565656565656574,3.383838383838384 0.7575757575757579,3.383838383838384 0.8585858585858596,3.383838383838384 0.9595959595959602,3.383838383838384 1.0606060606060617,3.383838383838384 1.1616161616161622,3.383838383838384 1.262626262626263,3.383838383838384 1.3636363636363644,3.383838383838384 1.4646464646464652,3.383838383838384 1.5656565656565666,3.383838383838384 1.6666666666666674,3.383838383838384 1.767676767676768,3.383838383838384 1.8686868686868696,3.383838383838384 1.9696969696969702,3.383838383838384 2.070707070707072,3.383838383838384 2.1717171717171726,3.383838383838384 2.2727272727272734,3.383838383838384 2.373737373737375,3.383838383838384 2.4747474747474754,3.383838383838384 2.575757575757577,3.383838383838384 2.676767676767678,3.383838383838384 2.7777777777777786,3.383838383838384 2.87878787878788,3.383838383838384 2.9797979797979806,3.383838383838384 3.080808080808082,3.383838383838384 3.181818181818183,3.4848484848484866 3.2828282828282833,3.5858585858585874 3.383838383838384,3.6868686868686877 3.383838383838384,3.7878787878787885 3.383838383838384,3.8888888888888893 3.383838383838384,3.989898989898992 3.4848484848484866,4.090909090909092 3.5858585858585874,4.191919191919193 3.6868686868686877,4.292929292929293 3.7878787878787885,4.393939393939394 3.8888888888888893,4.494949494949497 3.989898989898992,4.595959595959597 4.090909090909092,4.696969696969697 4.191919191919193,4.7979797979797985 4.292929292929293,4.898989898989901 4.393939393939394,4.898989898989901 4.494949494949497,4.898989898989901 4.595959595959597,4.898989898989901 4.696969696969697,4.898989898989901 4.7979797979797985,4.898989898989901 4.898989898989901,4.898989898989901 5.000000000000002,5.000000000000002" data-type="line" data-label="" points="230.70707070707084,287.91919191919203 240.2424242424243,278.38383838383857 240.2424242424243,268.84848484848493 249.77777777777783,259.3131313131314 259.3131313131314,249.77777777777794 268.84848484848493,240.24242424242436 278.38383838383845,230.70707070707084 287.91919191919203,221.17171717171726 297.4545454545455,211.63636363636374 306.9898989898991,202.10101010101027 316.5252525252526,192.56565656565675 326.0606060606061,183.03030303030312 335.59595959595964,183.03030303030312 345.13131313131316,192.56565656565675 354.6666666666667,192.56565656565675 364.2020202020202,192.56565656565675 373.7373737373738,192.56565656565675 383.2727272727273,192.56565656565675 392.80808080808083,192.56565656565675 402.34343434343435,192.56565656565675 411.8787878787879,192.56565656565675 421.4141414141414,192.56565656565675 430.949494949495,192.56565656565675 440.4848484848485,192.56565656565675 450.0202020202021,192.56565656565675 459.55555555555554,192.56565656565675 469.09090909090907,192.56565656565675 478.62626262626264,192.56565656565675 488.16161616161617,192.56565656565675 497.69696969696975,192.56565656565675 507.2323232323232,192.56565656565675 516.7676767676768,192.56565656565675 526.3030303030303,192.56565656565675 535.8383838383838,192.56565656565675 545.3737373737374,192.56565656565675 554.9090909090909,192.56565656565675 564.4444444444445,192.56565656565675 573.9797979797979,192.56565656565675 583.5151515151515,192.56565656565675 593.0505050505051,192.56565656565675 602.5858585858585,192.56565656565675 612.1212121212121,192.56565656565675 621.6565656565656,192.56565656565675 631.1919191919192,192.56565656565675 640.7272727272727,192.56565656565675 650.2626262626262,192.56565656565675 659.7979797979798,192.56565656565675 669.3333333333333,192.56565656565675 678.8686868686868,192.56565656565675 688.4040404040404,192.56565656565675 697.9393939393939,192.56565656565675 707.4747474747475,192.56565656565675 717.0101010101009,192.56565656565675 726.5454545454545,192.56565656565675 736.0808080808081,192.56565656565675 745.6161616161615,192.56565656565675 755.1515151515151,192.56565656565675 764.6868686868686,192.56565656565675 774.2222222222222,192.56565656565675 783.7575757575758,192.56565656565675 793.2929292929292,192.56565656565675 802.8282828282828,192.56565656565675 812.3636363636363,183.03030303030312 821.8989898989898,173.4949494949496 831.4343434343433,163.95959595959613 831.4343434343433,154.4242424242426 831.4343434343433,144.88888888888908 831.4343434343433,135.35353535353545 840.969696969697,125.81818181818198 850.5050505050505,116.28282828282846 860.0404040404039,106.747474747475 869.5757575757575,97.21212121212153 879.111111111111,87.67676767676778 888.6464646464647,78.14141414141432 898.181818181818,68.60606060606085 907.7171717171716,59.07070707070733 917.2525252525251,49.53535353535369 926.7878787878785,49.53535353535369 936.3232323232323,49.53535353535369 945.8585858585857,49.53535353535369 955.3939393939393,49.53535353535369 964.9292929292927,49.53535353535369 974.4646464646464,49.53535353535369 984,40.000000000000114" fill="none" stroke="rgba(0,0,255,0.75)" stroke-width="11.327999999999996"/></g><g><polyline data-points="-5.000000000000001,4.090909090909092 -4.898989898989899,3.989898989898992 -4.7979797979797985,3.989898989898992 -4.696969696969697,3.989898989898992 -4.595959595959596,3.989898989898992 -4.494949494949496,3.989898989898992 -4.393939393939394,3.989898989898992 -4.292929292929293,3.989898989898992 -4.191919191919193,3.8888888888888893 -4.090909090909091,3.7878787878787885 -3.98989898989899,3.8888888888888893 -3.8888888888888884,3.989898989898992" data-type="line" data-label="" points="40.00000000000006,125.81818181818198 49.53535353535369,135.35353535353545 59.07070707070716,135.35353535353545 68.60606060606068,135.35353535353545 78.14141414141426,135.35353535353545 87.67676767676772,135.35353535353545 97.21212121212136,135.35353535353545 106.74747474747483,135.35353535353545 116.28282828282829,144.88888888888908 125.81818181818193,154.4242424242426 135.35353535353545,144.88888888888908 144.88888888888903,135.35353535353545" fill="none" stroke="rgba(0,0,255,0.75)" stroke-width="11.327999999999996"/></g><g><polyline data-points="-3.8888888888888884,3.989898989898992 -3.7878787878787876,3.989898989898992 -3.6868686868686864,4.090909090909092 -3.5858585858585856,4.191919191919193 -3.484848484848485,4.292929292929293 -3.383838383838383,4.393939393939394 -3.2828282828282824,4.494949494949497 -3.1818181818181817,4.595959595959597 -3.0808080808080804,4.696969696969697 -2.9797979797979792,4.696969696969697 -2.8787878787878785,4.696969696969697 -2.7777777777777777,4.696969696969697 -2.6767676767676765,4.696969696969697 -2.5757575757575752,4.696969696969697 -2.474747474747474,4.696969696969697 -2.3737373737373733,4.696969696969697 -2.2727272727272725,4.696969696969697 -2.1717171717171713,4.696969696969697 -2.07070707070707,4.696969696969697 -1.9696969696969693,4.696969696969697 -1.8686868686868683,4.696969696969697 -1.7676767676767675,4.696969696969697 -1.6666666666666665,4.696969696969697 -1.5656565656565653,4.696969696969697 -1.4646464646464643,4.696969696969697 -1.363636363636363,4.696969696969697 -1.2626262626262625,4.696969696969697 -1.1616161616161613,4.7979797979797985 -1.0606060606060603,4.898989898989901 -1.1616161616161613,5.000000000000002" data-type="line" data-label="" points="144.88888888888903,135.35353535353545 154.42424242424255,135.35353535353545 163.95959595959607,125.81818181818198 173.4949494949496,116.28282828282846 183.03030303030312,106.747474747475 192.5656565656567,97.21212121212153 202.10101010101022,87.67676767676778 211.63636363636374,78.14141414141432 221.17171717171726,68.60606060606085 230.70707070707084,68.60606060606085 240.2424242424243,68.60606060606085 249.77777777777783,68.60606060606085 259.3131313131314,68.60606060606085 268.84848484848493,68.60606060606085 278.38383838383845,68.60606060606085 287.91919191919203,68.60606060606085 297.4545454545455,68.60606060606085 306.9898989898991,68.60606060606085 316.5252525252526,68.60606060606085 326.0606060606061,68.60606060606085 335.59595959595964,68.60606060606085 345.13131313131316,68.60606060606085 354.6666666666667,68.60606060606085 364.2020202020202,68.60606060606085 373.7373737373738,68.60606060606085 383.2727272727273,68.60606060606085 392.80808080808083,68.60606060606085 402.34343434343435,59.07070707070733 411.8787878787879,49.53535353535369 402.34343434343435,40.000000000000114" fill="none" stroke="rgba(255,0,0,0.75)" stroke-width="11.327999999999996"/></g><g><polyline data-points="-5.000000000000001,4.696969696969697 -4.898989898989899,4.7979797979797985 -4.7979797979797985,4.696969696969697 -4.696969696969697,4.595959595959597 -4.595959595959596,4.494949494949497 -4.494949494949496,4.494949494949497 -4.393939393939394,4.494949494949497 -4.292929292929293,4.494949494949497 -4.191919191919193,4.494949494949497 -4.090909090909091,4.494949494949497 -3.98989898989899,4.494949494949497 -3.8888888888888884,4.393939393939394 -3.7878787878787876,4.292929292929293 -3.6868686868686864,4.191919191919193 -3.5858585858585856,4.090909090909092 -3.484848484848485,3.989898989898992 -3.383838383838383,3.8888888888888893 -3.2828282828282824,3.7878787878787885 -3.1818181818181817,3.6868686868686877 -3.0808080808080804,3.5858585858585874 -2.9797979797979792,3.4848484848484866 -2.8787878787878785,3.383838383838384 -2.7777777777777777,3.2828282828282833" data-type="line" data-label="" points="40.00000000000006,68.60606060606085 49.53535353535369,59.07070707070733 59.07070707070716,68.60606060606085 68.60606060606068,78.14141414141432 78.14141414141426,87.67676767676778 87.67676767676772,87.67676767676778 97.21212121212136,87.67676767676778 106.74747474747483,87.67676767676778 116.28282828282829,87.67676767676778 125.81818181818193,87.67676767676778 135.35353535353545,87.67676767676778 144.88888888888903,97.21212121212153 154.42424242424255,106.747474747475 163.95959595959607,116.28282828282846 173.4949494949496,125.81818181818198 183.03030303030312,135.35353535353545 192.5656565656567,144.88888888888908 202.10101010101022,154.4242424242426 211.63636363636374,163.95959595959613 221.17171717171726,173.4949494949496 230.70707070707084,183.03030303030312 240.2424242424243,192.56565656565675 249.77777777777783,202.10101010101027" fill="none" stroke="rgba(0,0,255,0.75)" stroke-width="11.327999999999996"/></g><g><polyline data-points="-2.7777777777777777,3.2828282828282833 -2.6767676767676765,3.181818181818183 -2.5757575757575752,3.080808080808082 -2.474747474747474,2.9797979797979806 -2.474747474747474,2.87878787878788 -2.3737373737373733,2.7777777777777786 -2.2727272727272725,2.676767676767678 -2.1717171717171713,2.575757575757577 -2.07070707070707,2.4747474747474754 -1.9696969696969693,2.373737373737375 -1.8686868686868683,2.2727272727272734 -1.7676767676767675,2.1717171717171726 -1.6666666666666665,2.070707070707072 -1.5656565656565653,1.9696969696969702 -1.4646464646464643,1.8686868686868696 -1.363636363636363,1.767676767676768 -1.2626262626262625,1.6666666666666674 -1.1616161616161613,1.5656565656565666 -1.0606060606060603,1.4646464646464652 -0.9595959595959596,1.3636363636363644 -0.8585858585858579,1.262626262626263 -0.7575757575757572,1.1616161616161622 -0.6565656565656557,1.0606060606060617 -0.555555555555555,0.9595959595959602 -0.4545454545454544,0.8585858585858596 -0.35353535353535287,0.8585858585858596 -0.2525252525252522,0.8585858585858596 -0.15151515151515066,0.8585858585858596 -0.05050505050505001,0.8585858585858596 0.050505050505051545,0.8585858585858596 0.1515151515151522,0.8585858585858596 0.2525252525252529,0.8585858585858596 0.3535353535353544,0.8585858585858596 0.4545454545454551,0.8585858585858596 0.5555555555555567,0.8585858585858596 0.6565656565656574,0.8585858585858596 0.7575757575757579,0.8585858585858596 0.8585858585858596,0.8585858585858596 0.9595959595959602,0.8585858585858596 1.0606060606060617,0.8585858585858596 1.1616161616161622,0.8585858585858596 1.262626262626263,0.8585858585858596 1.3636363636363644,0.8585858585858596 1.4646464646464652,0.8585858585858596 1.5656565656565666,0.8585858585858596 1.6666666666666674,0.8585858585858596 1.767676767676768,0.8585858585858596 1.8686868686868696,0.8585858585858596 1.9696969696969702,0.8585858585858596 2.070707070707072,0.8585858585858596 2.1717171717171726,0.8585858585858596 2.2727272727272734,0.8585858585858596 2.373737373737375,0.8585858585858596 2.4747474747474754,0.8585858585858596 2.575757575757577,0.8585858585858596 2.676767676767678,0.8585858585858596" data-type="line" data-label="" points="249.77777777777783,202.10101010101027 259.3131313131314,211.63636363636374 268.84848484848493,221.17171717171726 278.38383838383845,230.70707070707084 278.38383838383845,240.24242424242436 287.91919191919203,249.77777777777794 297.4545454545455,259.3131313131314 306.9898989898991,268.84848484848493 316.5252525252526,278.38383838383857 326.0606060606061,287.91919191919203 335.59595959595964,297.4545454545456 345.13131313131316,306.9898989898991 354.6666666666667,316.5252525252526 364.2020202020202,326.06060606060623 373.7373737373738,335.5959595959597 383.2727272727273,345.1313131313133 392.80808080808083,354.66666666666674 402.34343434343435,364.2020202020203 411.8787878787879,373.73737373737384 421.4141414141414,383.27272727272737 430.949494949495,392.80808080808094 440.4848484848485,402.3434343434344 450.0202020202021,411.87878787878793 459.55555555555554,421.4141414141415 469.09090909090907,430.94949494949503 478.62626262626264,430.94949494949503 488.16161616161617,430.94949494949503 497.69696969696975,430.94949494949503 507.2323232323232,430.94949494949503 516.7676767676768,430.94949494949503 526.3030303030303,430.94949494949503 535.8383838383838,430.94949494949503 545.3737373737374,430.94949494949503 554.9090909090909,430.94949494949503 564.4444444444445,430.94949494949503 573.9797979797979,430.94949494949503 583.5151515151515,430.94949494949503 593.0505050505051,430.94949494949503 602.5858585858585,430.94949494949503 612.1212121212121,430.94949494949503 621.6565656565656,430.94949494949503 631.1919191919192,430.94949494949503 640.7272727272727,430.94949494949503 650.2626262626262,430.94949494949503 659.7979797979798,430.94949494949503 669.3333333333333,430.94949494949503 678.8686868686868,430.94949494949503 688.4040404040404,430.94949494949503 697.9393939393939,430.94949494949503 707.4747474747475,430.94949494949503 717.0101010101009,430.94949494949503 726.5454545454545,430.94949494949503 736.0808080808081,430.94949494949503 745.6161616161615,430.94949494949503 755.1515151515151,430.94949494949503 764.6868686868686,430.94949494949503" fill="none" stroke="rgba(255,0,0,0.75)" stroke-width="11.327999999999996"/></g><g><polyline data-points="2.676767676767678,0.8585858585858596 2.7777777777777786,0.8585858585858596 2.87878787878788,0.8585858585858596 2.9797979797979806,0.8585858585858596 3.080808080808082,0.8585858585858596 3.181818181818183,0.8585858585858596 3.2828282828282833,0.8585858585858596 3.383838383838384,0.8585858585858596 3.4848484848484866,0.8585858585858596 3.5858585858585874,0.8585858585858596 3.6868686868686877,0.8585858585858596 3.7878787878787885,0.8585858585858596 3.8888888888888893,0.7575757575757579 3.989898989898992,0.7575757575757579" data-type="line" data-label="" points="764.6868686868686,430.94949494949503 774.2222222222222,430.94949494949503 783.7575757575758,430.94949494949503 793.2929292929292,430.94949494949503 802.8282828282828,430.94949494949503 812.3636363636363,430.94949494949503 821.8989898989898,430.94949494949503 831.4343434343433,430.94949494949503 840.969696969697,430.94949494949503 850.5050505050505,430.94949494949503 860.0404040404039,430.94949494949503 869.5757575757575,430.94949494949503 879.111111111111,440.4848484848486 888.6464646464647,440.4848484848486" fill="none" stroke="rgba(0,0,255,0.75)" stroke-width="11.327999999999996"/></g><g><polyline data-points="3.989898989898992,0.7575757575757579 4.090909090909092,0.7575757575757579 4.191919191919193,0.7575757575757579 4.292929292929293,0.7575757575757579 4.393939393939394,0.7575757575757579 4.494949494949497,0.7575757575757579 4.595959595959597,0.7575757575757579 4.696969696969697,0.7575757575757579 4.7979797979797985,0.7575757575757579 4.898989898989901,0.7575757575757579 5.000000000000002,0.6565656565656574 5.000000000000002,0.5555555555555567" data-type="line" data-label="" points="888.6464646464647,440.4848484848486 898.181818181818,440.4848484848486 907.7171717171716,440.4848484848486 917.2525252525251,440.4848484848486 926.7878787878785,440.4848484848486 936.3232323232323,440.4848484848486 945.8585858585857,440.4848484848486 955.3939393939393,440.4848484848486 964.9292929292927,440.4848484848486 974.4646464646464,440.4848484848486 984,450.0202020202021 984,459.5555555555556" fill="none" stroke="rgba(255,0,0,0.75)" stroke-width="11.327999999999996"/></g><g><polyline data-points="-2.1717171717171713,5.000000000000002 -2.07070707070707,4.898989898989901 -1.9696969696969693,4.7979797979797985 -1.8686868686868683,4.7979797979797985 -1.7676767676767675,4.7979797979797985 -1.6666666666666665,4.7979797979797985 -1.5656565656565653,4.7979797979797985 -1.4646464646464643,4.7979797979797985 -1.363636363636363,4.696969696969697 -1.2626262626262625,4.595959595959597 -1.1616161616161613,4.494949494949497 -1.0606060606060603,4.393939393939394 -0.9595959595959596,4.393939393939394 -0.8585858585858579,4.292929292929293 -0.8585858585858579,4.191919191919193 -0.7575757575757572,4.090909090909092 -0.6565656565656557,3.989898989898992 -0.555555555555555,3.8888888888888893 -0.6565656565656557,3.7878787878787885 -0.7575757575757572,3.6868686868686877 -0.8585858585858579,3.5858585858585874 -0.9595959595959596,3.5858585858585874 -1.0606060606060603,3.5858585858585874 -1.1616161616161613,3.6868686868686877 -1.2626262626262625,3.7878787878787885" data-type="line" data-label="" points="306.9898989898991,40.000000000000114 316.5252525252526,49.53535353535369 326.0606060606061,59.07070707070733 335.59595959595964,59.07070707070733 345.13131313131316,59.07070707070733 354.6666666666667,59.07070707070733 364.2020202020202,59.07070707070733 373.7373737373738,59.07070707070733 383.2727272727273,68.60606060606085 392.80808080808083,78.14141414141432 402.34343434343435,87.67676767676778 411.8787878787879,97.21212121212153 421.4141414141414,97.21212121212153 430.949494949495,106.747474747475 430.949494949495,116.28282828282846 440.4848484848485,125.81818181818198 450.0202020202021,135.35353535353545 459.55555555555554,144.88888888888908 450.0202020202021,154.4242424242426 440.4848484848485,163.95959595959613 430.949494949495,173.4949494949496 421.4141414141414,173.4949494949496 411.8787878787879,173.4949494949496 402.34343434343435,163.95959595959613 392.80808080808083,154.4242424242426" fill="none" stroke="rgba(0,0,255,0.75)" stroke-width="11.327999999999996"/></g><g><polyline data-points="-1.2626262626262625,3.7878787878787885 -1.363636363636363,3.6868686868686877 -1.4646464646464643,3.5858585858585874 -1.5656565656565653,3.4848484848484866 -1.6666666666666665,3.383838383838384 -1.7676767676767675,3.2828282828282833 -1.8686868686868683,3.181818181818183 -1.9696969696969693,3.080808080808082 -1.9696969696969693,2.9797979797979806" data-type="line" data-label="" points="392.80808080808083,154.4242424242426 383.2727272727273,163.95959595959613 373.7373737373738,173.4949494949496 364.2020202020202,183.03030303030312 354.6666666666667,192.56565656565675 345.13131313131316,202.10101010101027 335.59595959595964,211.63636363636374 326.0606060606061,221.17171717171726 326.0606060606061,230.70707070707084" fill="none" stroke="rgba(255,0,0,0.75)" stroke-width="11.327999999999996"/></g><g><polyline data-points="-1.9696969696969693,2.9797979797979806 -2.07070707070707,2.87878787878788 -2.1717171717171713,2.7777777777777786 -2.2727272727272725,2.676767676767678 -2.2727272727272725,2.575757575757577 -2.3737373737373733,2.4747474747474754 -2.474747474747474,2.373737373737375" data-type="line" data-label="" points="326.0606060606061,230.70707070707084 316.5252525252526,240.24242424242436 306.9898989898991,249.77777777777794 297.4545454545455,259.3131313131314 297.4545454545455,268.84848484848493 287.91919191919203,278.38383838383857 278.38383838383845,287.91919191919203" fill="none" stroke="rgba(0,0,255,0.75)" stroke-width="11.327999999999996"/></g><g><polyline data-points="-2.474747474747474,2.373737373737375 -2.5757575757575752,2.2727272727272734 -2.6767676767676765,2.1717171717171726 -2.7777777777777777,2.070707070707072 -2.8787878787878785,1.9696969696969702 -2.9797979797979792,1.8686868686868696 -3.0808080808080804,1.767676767676768 -3.1818181818181817,1.6666666666666674 -3.2828282828282824,1.5656565656565666 -3.383838383838383,1.4646464646464652 -3.484848484848485,1.3636363636363644 -3.5858585858585856,1.262626262626263 -3.6868686868686864,1.1616161616161622 -3.7878787878787876,1.0606060606060617 -3.8888888888888884,0.9595959595959602 -3.8888888888888884,0.8585858585858596 -3.8888888888888884,0.7575757575757579 -3.8888888888888884,0.6565656565656574 -3.8888888888888884,0.5555555555555567 -3.8888888888888884,0.4545454545454551 -3.8888888888888884,0.3535353535353544 -3.8888888888888884,0.2525252525252529 -3.8888888888888884,0.1515151515151522 -3.8888888888888884,0.050505050505051545 -3.8888888888888884,-0.05050505050505001 -3.8888888888888884,-0.15151515151515066 -3.8888888888888884,-0.2525252525252522 -3.8888888888888884,-0.35353535353535287 -3.8888888888888884,-0.4545454545454544 -3.8888888888888884,-0.555555555555555 -3.8888888888888884,-0.6565656565656557 -3.8888888888888884,-0.7575757575757572 -3.8888888888888884,-0.8585858585858579 -3.8888888888888884,-0.9595959595959596 -3.8888888888888884,-1.0606060606060603 -3.8888888888888884,-1.1616161616161613 -3.8888888888888884,-1.2626262626262625 -3.8888888888888884,-1.363636363636363 -3.8888888888888884,-1.4646464646464643 -3.8888888888888884,-1.5656565656565653 -3.8888888888888884,-1.6666666666666665 -3.8888888888888884,-1.7676767676767675 -3.8888888888888884,-1.8686868686868683 -3.8888888888888884,-1.9696969696969693 -3.8888888888888884,-2.07070707070707 -3.8888888888888884,-2.1717171717171713 -3.8888888888888884,-2.2727272727272725 -3.8888888888888884,-2.3737373737373733 -3.8888888888888884,-2.474747474747474 -3.8888888888888884,-2.5757575757575752 -3.8888888888888884,-2.6767676767676765 -3.8888888888888884,-2.7777777777777777 -3.8888888888888884,-2.8787878787878785 -3.8888888888888884,-2.9797979797979792 -3.8888888888888884,-3.0808080808080804 -3.8888888888888884,-3.1818181818181817 -3.8888888888888884,-3.2828282828282824 -3.8888888888888884,-3.383838383838383 -3.8888888888888884,-3.484848484848485 -3.8888888888888884,-3.5858585858585856 -3.8888888888888884,-3.6868686868686864 -3.8888888888888884,-3.7878787878787876 -3.8888888888888884,-3.8888888888888884 -3.8888888888888884,-3.98989898989899" data-type="line" data-label="" points="278.38383838383845,287.91919191919203 268.84848484848493,297.4545454545456 259.3131313131314,306.9898989898991 249.77777777777783,316.5252525252526 240.2424242424243,326.06060606060623 230.70707070707084,335.5959595959597 221.17171717171726,345.1313131313133 211.63636363636374,354.66666666666674 202.10101010101022,364.2020202020203 192.5656565656567,373.73737373737384 183.03030303030312,383.27272727272737 173.4949494949496,392.80808080808094 163.95959595959607,402.3434343434344 154.42424242424255,411.87878787878793 144.88888888888903,421.4141414141415 144.88888888888903,430.94949494949503 144.88888888888903,440.4848484848486 144.88888888888903,450.0202020202021 144.88888888888903,459.5555555555556 144.88888888888903,469.0909090909092 144.88888888888903,478.6262626262627 144.88888888888903,488.1616161616163 144.88888888888903,497.69696969696975 144.88888888888903,507.23232323232327 144.88888888888903,516.7676767676768 144.88888888888903,526.3030303030304 144.88888888888903,535.838383838384 144.88888888888903,545.3737373737374 144.88888888888903,554.909090909091 144.88888888888903,564.4444444444445 144.88888888888903,573.979797979798 144.88888888888903,583.5151515151516 144.88888888888903,593.0505050505051 144.88888888888903,602.5858585858587 144.88888888888903,612.1212121212121 144.88888888888903,621.6565656565657 144.88888888888903,631.1919191919193 144.88888888888903,640.7272727272727 144.88888888888903,650.2626262626263 144.88888888888903,659.7979797979798 144.88888888888903,669.3333333333334 144.88888888888903,678.8686868686868 144.88888888888903,688.4040404040404 144.88888888888903,697.939393939394 144.88888888888903,707.4747474747475 144.88888888888903,717.010101010101 144.88888888888903,726.5454545454545 144.88888888888903,736.0808080808081 144.88888888888903,745.6161616161615 144.88888888888903,755.1515151515151 144.88888888888903,764.6868686868687 144.88888888888903,774.2222222222222 144.88888888888903,783.7575757575758 144.88888888888903,793.2929292929292 144.88888888888903,802.8282828282828 144.88888888888903,812.3636363636363 144.88888888888903,821.8989898989898 144.88888888888903,831.4343434343434 144.88888888888903,840.969696969697 144.88888888888903,850.5050505050505 144.88888888888903,860.0404040404039 144.88888888888903,869.5757575757575 144.88888888888903,879.1111111111111 144.88888888888903,888.6464646464647" fill="none" stroke="rgba(255,0,0,0.75)" stroke-width="11.327999999999996"/></g><g><polyline data-points="-3.8888888888888884,-3.98989898989899 -3.98989898989899,-4.090909090909091 -4.090909090909091,-4.191919191919193 -4.191919191919193,-4.292929292929293 -4.292929292929293,-4.393939393939394 -4.393939393939394,-4.494949494949496 -4.494949494949496,-4.595959595959596 -4.494949494949496,-4.696969696969697 -4.494949494949496,-4.7979797979797985 -4.494949494949496,-4.898989898989899 -4.595959595959596,-5.000000000000001" data-type="line" data-label="" points="144.88888888888903,888.6464646464647 135.35353535353545,898.1818181818181 125.81818181818193,907.7171717171718 116.28282828282829,917.2525252525252 106.74747474747483,926.7878787878788 97.21212121212136,936.3232323232323 87.67676767676772,945.8585858585858 87.67676767676772,955.3939393939394 87.67676767676772,964.9292929292928 87.67676767676772,974.4646464646464 78.14141414141426,984" fill="none" stroke="rgba(0,0,255,0.75)" stroke-width="11.327999999999996"/></g><g><polyline data-points="-5.000000000000001,2.1717171717171726 -4.898989898989899,2.070707070707072 -4.7979797979797985,2.1717171717171726 -4.696969696969697,2.2727272727272734 -4.595959595959596,2.373737373737375 -4.494949494949496,2.4747474747474754 -4.393939393939394,2.575757575757577 -4.292929292929293,2.676767676767678 -4.191919191919193,2.7777777777777786 -4.090909090909091,2.87878787878788 -3.98989898989899,2.9797979797979806 -3.8888888888888884,3.080808080808082 -3.7878787878787876,3.181818181818183 -3.6868686868686864,3.2828282828282833 -3.5858585858585856,3.2828282828282833 -3.484848484848485,3.383838383838384" data-type="line" data-label="" points="40.00000000000006,306.9898989898991 49.53535353535369,316.5252525252526 59.07070707070716,306.9898989898991 68.60606060606068,297.4545454545456 78.14141414141426,287.91919191919203 87.67676767676772,278.38383838383857 97.21212121212136,268.84848484848493 106.74747474747483,259.3131313131314 116.28282828282829,249.77777777777794 125.81818181818193,240.24242424242436 135.35353535353545,230.70707070707084 144.88888888888903,221.17171717171726 154.42424242424255,211.63636363636374 163.95959595959607,202.10101010101027 173.4949494949496,202.10101010101027 183.03030303030312,192.56565656565675" fill="none" stroke="rgba(0,0,255,0.75)" stroke-width="11.327999999999996"/></g><g><polyline data-points="-3.484848484848485,3.383838383838384 -3.383838383838383,3.4848484848484866 -3.2828282828282824,3.5858585858585874 -3.1818181818181817,3.5858585858585874 -3.0808080808080804,3.5858585858585874 -2.9797979797979792,3.5858585858585874 -2.8787878787878785,3.5858585858585874 -2.7777777777777777,3.5858585858585874 -2.6767676767676765,3.4848484848484866 -2.5757575757575752,3.383838383838384 -2.474747474747474,3.2828282828282833 -2.3737373737373733,3.181818181818183 -2.2727272727272725,3.080808080808082 -2.2727272727272725,2.9797979797979806 -2.1717171717171713,2.87878787878788 -2.07070707070707,2.7777777777777786 -1.9696969696969693,2.676767676767678 -1.8686868686868683,2.7777777777777786 -1.7676767676767675,2.87878787878788 -1.6666666666666665,2.9797979797979806 -1.6666666666666665,3.080808080808082 -1.5656565656565653,3.181818181818183 -1.4646464646464643,3.2828282828282833 -1.363636363636363,3.383838383838384 -1.2626262626262625,3.4848484848484866 -1.1616161616161613,3.5858585858585874 -1.0606060606060603,3.6868686868686877 -0.9595959595959596,3.7878787878787885 -0.8585858585858579,3.8888888888888893" data-type="line" data-label="" points="183.03030303030312,192.56565656565675 192.5656565656567,183.03030303030312 202.10101010101022,173.4949494949496 211.63636363636374,173.4949494949496 221.17171717171726,173.4949494949496 230.70707070707084,173.4949494949496 240.2424242424243,173.4949494949496 249.77777777777783,173.4949494949496 259.3131313131314,183.03030303030312 268.84848484848493,192.56565656565675 278.38383838383845,202.10101010101027 287.91919191919203,211.63636363636374 297.4545454545455,221.17171717171726 297.4545454545455,230.70707070707084 306.9898989898991,240.24242424242436 316.5252525252526,249.77777777777794 326.0606060606061,259.3131313131314 335.59595959595964,249.77777777777794 345.13131313131316,240.24242424242436 354.6666666666667,230.70707070707084 354.6666666666667,221.17171717171726 364.2020202020202,211.63636363636374 373.7373737373738,202.10101010101027 383.2727272727273,192.56565656565675 392.80808080808083,183.03030303030312 402.34343434343435,173.4949494949496 411.8787878787879,163.95959595959613 421.4141414141414,154.4242424242426 430.949494949495,144.88888888888908" fill="none" stroke="rgba(255,0,0,0.75)" stroke-width="11.327999999999996"/></g><g><polyline data-points="-0.8585858585858579,3.8888888888888893 -0.9595959595959596,3.8888888888888893 -1.0606060606060603,3.8888888888888893 -1.1616161616161613,3.989898989898992 -1.2626262626262625,4.090909090909092 -1.363636363636363,4.191919191919193 -1.4646464646464643,4.292929292929293 -1.5656565656565653,4.393939393939394 -1.5656565656565653,4.494949494949497 -1.4646464646464643,4.595959595959597 -1.5656565656565653,4.696969696969697 -1.6666666666666665,4.696969696969697 -1.7676767676767675,4.696969696969697 -1.8686868686868683,4.696969696969697 -1.9696969696969693,4.696969696969697 -2.07070707070707,4.696969696969697 -2.1717171717171713,4.696969696969697 -2.2727272727272725,4.696969696969697 -2.3737373737373733,4.696969696969697 -2.474747474747474,4.7979797979797985 -2.5757575757575752,4.7979797979797985 -2.6767676767676765,4.7979797979797985 -2.7777777777777777,4.898989898989901 -2.8787878787878785,5.000000000000002 -2.9797979797979792,5.000000000000002 -3.0808080808080804,5.000000000000002 -3.1818181818181817,5.000000000000002 -3.2828282828282824,5.000000000000002 -3.383838383838383,5.000000000000002" data-type="line" data-label="" points="430.949494949495,144.88888888888908 421.4141414141414,144.88888888888908 411.8787878787879,144.88888888888908 402.34343434343435,135.35353535353545 392.80808080808083,125.81818181818198 383.2727272727273,116.28282828282846 373.7373737373738,106.747474747475 364.2020202020202,97.21212121212153 364.2020202020202,87.67676767676778 373.7373737373738,78.14141414141432 364.2020202020202,68.60606060606085 354.6666666666667,68.60606060606085 345.13131313131316,68.60606060606085 335.59595959595964,68.60606060606085 326.0606060606061,68.60606060606085 316.5252525252526,68.60606060606085 306.9898989898991,68.60606060606085 297.4545454545455,68.60606060606085 287.91919191919203,68.60606060606085 278.38383838383845,59.07070707070733 268.84848484848493,59.07070707070733 259.3131313131314,59.07070707070733 249.77777777777783,49.53535353535369 240.2424242424243,40.000000000000114 230.70707070707084,40.000000000000114 221.17171717171726,40.000000000000114 211.63636363636374,40.000000000000114 202.10101010101022,40.000000000000114 192.5656565656567,40.000000000000114" fill="none" stroke="rgba(0,0,255,0.75)" stroke-width="11.327999999999996"/></g><g><polyline data-points="3.4848484848484866,-5.000000000000001 3.5858585858585874,-5.000000000000001 3.6868686868686877,-5.000000000000001 3.7878787878787885,-4.898989898989899 3.8888888888888893,-4.7979797979797985 3.989898989898992,-4.696969696969697 4.090909090909092,-4.595959595959596 4.191919191919193,-4.494949494949496 4.292929292929293,-4.393939393939394 4.292929292929293,-4.292929292929293 4.292929292929293,-4.191919191919193 4.292929292929293,-4.090909090909091 4.292929292929293,-3.98989898989899 4.292929292929293,-3.8888888888888884 4.292929292929293,-3.7878787878787876 4.292929292929293,-3.6868686868686864 4.292929292929293,-3.5858585858585856 4.292929292929293,-3.484848484848485 4.292929292929293,-3.383838383838383 4.292929292929293,-3.2828282828282824 4.292929292929293,-3.1818181818181817 4.292929292929293,-3.0808080808080804 4.292929292929293,-2.9797979797979792 4.292929292929293,-2.8787878787878785 4.292929292929293,-2.7777777777777777 4.292929292929293,-2.6767676767676765 4.292929292929293,-2.5757575757575752 4.292929292929293,-2.474747474747474 4.292929292929293,-2.3737373737373733 4.292929292929293,-2.2727272727272725 4.292929292929293,-2.1717171717171713 4.292929292929293,-2.07070707070707 4.292929292929293,-1.9696969696969693 4.292929292929293,-1.8686868686868683 4.292929292929293,-1.7676767676767675 4.292929292929293,-1.6666666666666665 4.292929292929293,-1.5656565656565653 4.292929292929293,-1.4646464646464643 4.292929292929293,-1.363636363636363 4.292929292929293,-1.2626262626262625 4.292929292929293,-1.1616161616161613 4.292929292929293,-1.0606060606060603 4.292929292929293,-0.9595959595959596 4.292929292929293,-0.8585858585858579 4.292929292929293,-0.7575757575757572 4.292929292929293,-0.6565656565656557 4.292929292929293,-0.555555555555555 4.292929292929293,-0.4545454545454544 4.292929292929293,-0.35353535353535287 4.292929292929293,-0.2525252525252522 4.292929292929293,-0.15151515151515066 4.292929292929293,-0.05050505050505001 4.292929292929293,0.050505050505051545 4.292929292929293,0.1515151515151522 4.292929292929293,0.2525252525252529 4.292929292929293,0.3535353535353544 4.292929292929293,0.4545454545454551 4.292929292929293,0.5555555555555567 4.292929292929293,0.6565656565656574 4.292929292929293,0.7575757575757579 4.292929292929293,0.8585858585858596 4.292929292929293,0.9595959595959602 4.292929292929293,1.0606060606060617 4.191919191919193,1.1616161616161622 4.090909090909092,1.262626262626263 3.989898989898992,1.3636363636363644" data-type="line" data-label="" points="840.969696969697,984 850.5050505050505,984 860.0404040404039,984 869.5757575757575,974.4646464646464 879.111111111111,964.9292929292928 888.6464646464647,955.3939393939394 898.181818181818,945.8585858585858 907.7171717171716,936.3232323232323 917.2525252525251,926.7878787878788 917.2525252525251,917.2525252525252 917.2525252525251,907.7171717171718 917.2525252525251,898.1818181818181 917.2525252525251,888.6464646464647 917.2525252525251,879.1111111111111 917.2525252525251,869.5757575757575 917.2525252525251,860.0404040404039 917.2525252525251,850.5050505050505 917.2525252525251,840.969696969697 917.2525252525251,831.4343434343434 917.2525252525251,821.8989898989898 917.2525252525251,812.3636363636363 917.2525252525251,802.8282828282828 917.2525252525251,793.2929292929292 917.2525252525251,783.7575757575758 917.2525252525251,774.2222222222222 917.2525252525251,764.6868686868687 917.2525252525251,755.1515151515151 917.2525252525251,745.6161616161615 917.2525252525251,736.0808080808081 917.2525252525251,726.5454545454545 917.2525252525251,717.010101010101 917.2525252525251,707.4747474747475 917.2525252525251,697.939393939394 917.2525252525251,688.4040404040404 917.2525252525251,678.8686868686868 917.2525252525251,669.3333333333334 917.2525252525251,659.7979797979798 917.2525252525251,650.2626262626263 917.2525252525251,640.7272727272727 917.2525252525251,631.1919191919193 917.2525252525251,621.6565656565657 917.2525252525251,612.1212121212121 917.2525252525251,602.5858585858587 917.2525252525251,593.0505050505051 917.2525252525251,583.5151515151516 917.2525252525251,573.979797979798 917.2525252525251,564.4444444444445 917.2525252525251,554.909090909091 917.2525252525251,545.3737373737374 917.2525252525251,535.838383838384 917.2525252525251,526.3030303030304 917.2525252525251,516.7676767676768 917.2525252525251,507.23232323232327 917.2525252525251,497.69696969696975 917.2525252525251,488.1616161616163 917.2525252525251,478.6262626262627 917.2525252525251,469.0909090909092 917.2525252525251,459.5555555555556 917.2525252525251,450.0202020202021 917.2525252525251,440.4848484848486 917.2525252525251,430.94949494949503 917.2525252525251,421.4141414141415 917.2525252525251,411.87878787878793 907.7171717171716,402.3434343434344 898.181818181818,392.80808080808094 888.6464646464647,383.27272727272737" fill="none" stroke="rgba(0,0,255,0.75)" stroke-width="11.327999999999996"/></g><g><polyline data-points="3.989898989898992,1.3636363636363644 4.090909090909092,1.4646464646464652 4.090909090909092,1.5656565656565666 4.090909090909092,1.6666666666666674 4.090909090909092,1.767676767676768 4.090909090909092,1.8686868686868696 4.090909090909092,1.9696969696969702 4.090909090909092,2.070707070707072 4.090909090909092,2.1717171717171726 4.090909090909092,2.2727272727272734 4.090909090909092,2.373737373737375 4.090909090909092,2.4747474747474754 4.090909090909092,2.575757575757577 4.090909090909092,2.676767676767678 4.090909090909092,2.7777777777777786 4.090909090909092,2.87878787878788 4.090909090909092,2.9797979797979806 4.090909090909092,3.080808080808082 4.090909090909092,3.181818181818183 4.090909090909092,3.2828282828282833 4.090909090909092,3.383838383838384 4.090909090909092,3.4848484848484866 4.090909090909092,3.5858585858585874 4.090909090909092,3.6868686868686877 4.090909090909092,3.7878787878787885 4.090909090909092,3.8888888888888893 4.090909090909092,3.989898989898992 4.090909090909092,4.090909090909092 4.090909090909092,4.191919191919193 4.090909090909092,4.292929292929293 4.090909090909092,4.393939393939394 4.191919191919193,4.494949494949497 4.292929292929293,4.595959595959597 4.292929292929293,4.696969696969697 4.292929292929293,4.7979797979797985 4.393939393939394,4.898989898989901 4.494949494949497,4.898989898989901 4.595959595959597,4.898989898989901 4.696969696969697,5.000000000000002" data-type="line" data-label="" points="888.6464646464647,383.27272727272737 898.181818181818,373.73737373737384 898.181818181818,364.2020202020203 898.181818181818,354.66666666666674 898.181818181818,345.1313131313133 898.181818181818,335.5959595959597 898.181818181818,326.06060606060623 898.181818181818,316.5252525252526 898.181818181818,306.9898989898991 898.181818181818,297.4545454545456 898.181818181818,287.91919191919203 898.181818181818,278.38383838383857 898.181818181818,268.84848484848493 898.181818181818,259.3131313131314 898.181818181818,249.77777777777794 898.181818181818,240.24242424242436 898.181818181818,230.70707070707084 898.181818181818,221.17171717171726 898.181818181818,211.63636363636374 898.181818181818,202.10101010101027 898.181818181818,192.56565656565675 898.181818181818,183.03030303030312 898.181818181818,173.4949494949496 898.181818181818,163.95959595959613 898.181818181818,154.4242424242426 898.181818181818,144.88888888888908 898.181818181818,135.35353535353545 898.181818181818,125.81818181818198 898.181818181818,116.28282828282846 898.181818181818,106.747474747475 898.181818181818,97.21212121212153 907.7171717171716,87.67676767676778 917.2525252525251,78.14141414141432 917.2525252525251,68.60606060606085 917.2525252525251,59.07070707070733 926.7878787878785,49.53535353535369 936.3232323232323,49.53535353535369 945.8585858585857,49.53535353535369 955.3939393939393,40.000000000000114" fill="none" stroke="rgba(255,0,0,0.75)" stroke-width="11.327999999999996"/></g><g><polyline data-points="5.000000000000002,4.090909090909092 5.000000000000002,3.989898989898992 5.000000000000002,3.8888888888888893 5.000000000000002,3.7878787878787885 5.000000000000002,3.6868686868686877 5.000000000000002,3.5858585858585874 5.000000000000002,3.4848484848484866 5.000000000000002,3.383838383838384 4.898989898989901,3.2828282828282833 4.898989898989901,3.181818181818183 4.898989898989901,3.080808080808082 4.898989898989901,2.9797979797979806 4.898989898989901,2.87878787878788 4.898989898989901,2.7777777777777786 4.898989898989901,2.676767676767678 4.898989898989901,2.575757575757577 4.898989898989901,2.4747474747474754 4.898989898989901,2.373737373737375 4.898989898989901,2.2727272727272734 4.898989898989901,2.1717171717171726 4.898989898989901,2.070707070707072 4.898989898989901,1.9696969696969702 4.898989898989901,1.8686868686868696 4.898989898989901,1.767676767676768 4.898989898989901,1.6666666666666674 4.898989898989901,1.5656565656565666 4.7979797979797985,1.4646464646464652 4.696969696969697,1.5656565656565666 4.595959595959597,1.5656565656565666 4.494949494949497,1.4646464646464652 4.393939393939394,1.3636363636363644 4.292929292929293,1.262626262626263 4.191919191919193,1.1616161616161622 4.090909090909092,1.1616161616161622 3.989898989898992,1.0606060606060617 3.8888888888888893,1.1616161616161622 3.7878787878787885,1.262626262626263 3.6868686868686877,1.3636363636363644 3.5858585858585874,1.4646464646464652 3.4848484848484866,1.5656565656565666 3.4848484848484866,1.6666666666666674 3.4848484848484866,1.767676767676768 3.4848484848484866,1.8686868686868696 3.4848484848484866,1.9696969696969702 3.4848484848484866,2.070707070707072 3.4848484848484866,2.1717171717171726 3.4848484848484866,2.2727272727272734 3.4848484848484866,2.373737373737375" data-type="line" data-label="" points="984,125.81818181818198 984,135.35353535353545 984,144.88888888888908 984,154.4242424242426 984,163.95959595959613 984,173.4949494949496 984,183.03030303030312 984,192.56565656565675 974.4646464646464,202.10101010101027 974.4646464646464,211.63636363636374 974.4646464646464,221.17171717171726 974.4646464646464,230.70707070707084 974.4646464646464,240.24242424242436 974.4646464646464,249.77777777777794 974.4646464646464,259.3131313131314 974.4646464646464,268.84848484848493 974.4646464646464,278.38383838383857 974.4646464646464,287.91919191919203 974.4646464646464,297.4545454545456 974.4646464646464,306.9898989898991 974.4646464646464,316.5252525252526 974.4646464646464,326.06060606060623 974.4646464646464,335.5959595959597 974.4646464646464,345.1313131313133 974.4646464646464,354.66666666666674 974.4646464646464,364.2020202020203 964.9292929292927,373.73737373737384 955.3939393939393,364.2020202020203 945.8585858585857,364.2020202020203 936.3232323232323,373.73737373737384 926.7878787878785,383.27272727272737 917.2525252525251,392.80808080808094 907.7171717171716,402.3434343434344 898.181818181818,402.3434343434344 888.6464646464647,411.87878787878793 879.111111111111,402.3434343434344 869.5757575757575,392.80808080808094 860.0404040404039,383.27272727272737 850.5050505050505,373.73737373737384 840.969696969697,364.2020202020203 840.969696969697,354.66666666666674 840.969696969697,345.1313131313133 840.969696969697,335.5959595959597 840.969696969697,326.06060606060623 840.969696969697,316.5252525252526 840.969696969697,306.9898989898991 840.969696969697,297.4545454545456 840.969696969697,287.91919191919203" fill="none" stroke="rgba(255,0,0,0.75)" stroke-width="11.327999999999996"/></g><g><polyline data-points="3.4848484848484866,2.373737373737375 3.383838383838384,2.4747474747474754 3.2828282828282833,2.575757575757577 3.181818181818183,2.676767676767678 3.080808080808082,2.7777777777777786 2.9797979797979806,2.87878787878788 2.87878787878788,2.9797979797979806 2.7777777777777786,2.9797979797979806 2.676767676767678,2.9797979797979806 2.575757575757577,2.9797979797979806 2.4747474747474754,2.9797979797979806 2.373737373737375,2.9797979797979806 2.2727272727272734,2.9797979797979806 2.1717171717171726,2.9797979797979806 2.070707070707072,2.9797979797979806 1.9696969696969702,2.9797979797979806 1.8686868686868696,2.9797979797979806 1.767676767676768,2.9797979797979806 1.6666666666666674,2.9797979797979806 1.5656565656565666,2.9797979797979806 1.4646464646464652,2.9797979797979806 1.3636363636363644,2.9797979797979806 1.262626262626263,2.9797979797979806 1.1616161616161622,2.9797979797979806 1.0606060606060617,2.9797979797979806" data-type="line" data-label="" points="840.969696969697,287.91919191919203 831.4343434343433,278.38383838383857 821.8989898989898,268.84848484848493 812.3636363636363,259.3131313131314 802.8282828282828,249.77777777777794 793.2929292929292,240.24242424242436 783.7575757575758,230.70707070707084 774.2222222222222,230.70707070707084 764.6868686868686,230.70707070707084 755.1515151515151,230.70707070707084 745.6161616161615,230.70707070707084 736.0808080808081,230.70707070707084 726.5454545454545,230.70707070707084 717.0101010101009,230.70707070707084 707.4747474747475,230.70707070707084 697.9393939393939,230.70707070707084 688.4040404040404,230.70707070707084 678.8686868686868,230.70707070707084 669.3333333333333,230.70707070707084 659.7979797979798,230.70707070707084 650.2626262626262,230.70707070707084 640.7272727272727,230.70707070707084 631.1919191919192,230.70707070707084 621.6565656565656,230.70707070707084 612.1212121212121,230.70707070707084" fill="none" stroke="rgba(0,0,255,0.75)" stroke-width="11.327999999999996"/></g><g><polyline data-points="1.0606060606060617,2.9797979797979806 0.9595959595959602,3.080808080808082 0.8585858585858596,3.181818181818183 0.7575757575757579,3.2828282828282833 0.6565656565656574,3.383838383838384 0.5555555555555567,3.4848484848484866 0.4545454545454551,3.5858585858585874 0.3535353535353544,3.6868686868686877 0.2525252525252529,3.7878787878787885 0.1515151515151522,3.7878787878787885 0.050505050505051545,3.7878787878787885 -0.05050505050505001,3.7878787878787885 -0.15151515151515066,3.7878787878787885 -0.2525252525252522,3.8888888888888893 -0.35353535353535287,3.989898989898992 -0.4545454545454544,4.090909090909092 -0.555555555555555,4.191919191919193 -0.6565656565656557,4.292929292929293 -0.7575757575757572,4.393939393939394 -0.8585858585858579,4.494949494949497 -0.9595959595959596,4.494949494949497 -1.0606060606060603,4.494949494949497 -1.1616161616161613,4.393939393939394 -1.2626262626262625,4.494949494949497 -1.363636363636363,4.494949494949497 -1.4646464646464643,4.393939393939394 -1.5656565656565653,4.292929292929293 -1.6666666666666665,4.191919191919193 -1.7676767676767675,4.090909090909092 -1.8686868686868683,3.989898989898992" data-type="line" data-label="" points="612.1212121212121,230.70707070707084 602.5858585858585,221.17171717171726 593.0505050505051,211.63636363636374 583.5151515151515,202.10101010101027 573.9797979797979,192.56565656565675 564.4444444444445,183.03030303030312 554.9090909090909,173.4949494949496 545.3737373737374,163.95959595959613 535.8383838383838,154.4242424242426 526.3030303030303,154.4242424242426 516.7676767676768,154.4242424242426 507.2323232323232,154.4242424242426 497.69696969696975,154.4242424242426 488.16161616161617,144.88888888888908 478.62626262626264,135.35353535353545 469.09090909090907,125.81818181818198 459.55555555555554,116.28282828282846 450.0202020202021,106.747474747475 440.4848484848485,97.21212121212153 430.949494949495,87.67676767676778 421.4141414141414,87.67676767676778 411.8787878787879,87.67676767676778 402.34343434343435,97.21212121212153 392.80808080808083,87.67676767676778 383.2727272727273,87.67676767676778 373.7373737373738,97.21212121212153 364.2020202020202,106.747474747475 354.6666666666667,116.28282828282846 345.13131313131316,125.81818181818198 335.59595959595964,135.35353535353545" fill="none" stroke="rgba(255,0,0,0.75)" stroke-width="11.327999999999996"/></g><g><polyline data-points="-1.8686868686868683,3.989898989898992 -1.9696969696969693,4.090909090909092 -2.07070707070707,4.191919191919193 -2.1717171717171713,4.191919191919193 -2.2727272727272725,4.191919191919193 -2.3737373737373733,4.191919191919193 -2.474747474747474,4.191919191919193 -2.5757575757575752,4.191919191919193 -2.6767676767676765,4.191919191919193 -2.7777777777777777,4.292929292929293 -2.8787878787878785,4.393939393939394 -2.9797979797979792,4.393939393939394 -3.0808080808080804,4.393939393939394 -3.1818181818181817,4.393939393939394 -3.2828282828282824,4.393939393939394 -3.383838383838383,4.393939393939394 -3.484848484848485,4.494949494949497 -3.5858585858585856,4.595959595959597 -3.6868686868686864,4.696969696969697 -3.7878787878787876,4.7979797979797985 -3.8888888888888884,4.898989898989901 -3.98989898989899,5.000000000000002" data-type="line" data-label="" points="335.59595959595964,135.35353535353545 326.0606060606061,125.81818181818198 316.5252525252526,116.28282828282846 306.9898989898991,116.28282828282846 297.4545454545455,116.28282828282846 287.91919191919203,116.28282828282846 278.38383838383845,116.28282828282846 268.84848484848493,116.28282828282846 259.3131313131314,116.28282828282846 249.77777777777783,106.747474747475 240.2424242424243,97.21212121212153 230.70707070707084,97.21212121212153 221.17171717171726,97.21212121212153 211.63636363636374,97.21212121212153 202.10101010101022,97.21212121212153 192.5656565656567,97.21212121212153 183.03030303030312,87.67676767676778 173.4949494949496,78.14141414141432 163.95959595959607,68.60606060606085 154.42424242424255,59.07070707070733 144.88888888888903,49.53535353535369 135.35353535353545,40.000000000000114" fill="none" stroke="rgba(0,0,255,0.75)" stroke-width="11.327999999999996"/></g><g><rect data-type="rect" data-label="" data-x="0" data-y="0" x="40.000000000000114" y="40.000000000000284" width="943.9999999999997" height="943.9999999999998" fill="none" stroke="gray" stroke-width="0.010593220338983056"/></g><g><rect data-type="rect" data-label="" data-x="0" data-y="0" x="40.000000000000114" y="40.000000000000284" width="943.9999999999997" height="943.9999999999998" fill="none" stroke="rgba(15, 23, 42, 0.8)" stroke-width="0.010593220338983056"/></g><circle data-type="circle" data-label="" data-x="3.080808080808082" data-y="3.6868686868686877" cx="802.8282828282828" cy="163.95959595959613" r="14.159999999999995" fill="rgba(0,0,0,0.3)" stroke="black" stroke-width="0.010593220338983056"/><circle data-type="circle" data-label="" data-x="-3.5858585858585856" data-y="2.070707070707072" cx="173.4949494949496" cy="316.5252525252526" r="14.159999999999995" fill="rgba(0,0,0,0.3)" stroke="black" stroke-width="0.010593220338983056"/><circle data-type="circle" data-label="" data-x="-3.484848484848485" data-y="1.6666666666666674" cx="183.03030303030312" cy="354.66666666666674" r="14.159999999999995" fill="rgba(0,0,0,0.3)" stroke="black" stroke-width="0.010593220338983056"/><circle data-type="circle" data-label="" data-x="-2.9797979797979792" data-y="2.373737373737375" cx="230.70707070707084" cy="287.91919191919203" r="14.159999999999995" fill="rgba(0,0,0,0.3)" stroke="black" stroke-width="0.010593220338983056"/><circle data-type="circle" data-label="" data-x="-3.8888888888888884" data-y="3.989898989898992" cx="144.88888888888903" cy="135.35353535353545" r="14.159999999999995" fill="rgba(0,0,0,0.3)" stroke="black" stroke-width="0.010593220338983056"/><circle data-type="circle" data-label="" data-x="-2.7777777777777777" data-y="3.2828282828282833" cx="249.77777777777783" cy="202.10101010101027" r="14.159999999999995" fill="rgba(0,0,0,0.3)" stroke="black" stroke-width="0.010593220338983056"/><circle data-type="circle" data-label="" data-x="2.676767676767678" data-y="0.8585858585858596" cx="764.6868686868686" cy="430.94949494949503" r="14.159999999999995" fill="rgba(0,0,0,0.3)" stroke="black" stroke-width="0.010593220338983056"/><circle data-type="circle" data-label="" data-x="3.989898989898992" data-y="0.7575757575757579" cx="888.6464646464647" cy="440.4848484848486" r="14.159999999999995" fill="rgba(0,0,0,0.3)" stroke="black" stroke-width="0.010593220338983056"/><circle data-type="circle" data-label="" data-x="-1.2626262626262625" data-y="3.7878787878787885" cx="392.80808080808083" cy="154.4242424242426" r="14.159999999999995" fill="rgba(0,0,0,0.3)" stroke="black" stroke-width="0.010593220338983056"/><circle data-type="circle" data-label="" data-x="-1.9696969696969693" data-y="2.9797979797979806" cx="326.0606060606061" cy="230.70707070707084" r="14.159999999999995" fill="rgba(0,0,0,0.3)" stroke="black" stroke-width="0.010593220338983056"/><circle data-type="circle" data-label="" data-x="-2.474747474747474" data-y="2.373737373737375" cx="278.38383838383845" cy="287.91919191919203" r="14.159999999999995" fill="rgba(0,0,0,0.3)" stroke="black" stroke-width="0.010593220338983056"/><circle data-type="circle" data-label="" data-x="-3.8888888888888884" data-y="-3.98989898989899" cx="144.88888888888903" cy="888.6464646464647" r="14.159999999999995" fill="rgba(0,0,0,0.3)" stroke="black" stroke-width="0.010593220338983056"/><circle data-type="circle" data-label="" data-x="-3.484848484848485" data-y="3.383838383838384" cx="183.03030303030312" cy="192.56565656565675" r="14.159999999999995" fill="rgba(0,0,0,0.3)" stroke="black" stroke-width="0.010593220338983056"/><circle data-type="circle" data-label="" data-x="-0.8585858585858579" data-y="3.8888888888888893" cx="430.949494949495" cy="144.88888888888908" r="14.159999999999995" fill="rgba(0,0,0,0.3)" stroke="black" stroke-width="0.010593220338983056"/><circle data-type="circle" data-label="" data-x="3.989898989898992" data-y="1.3636363636363644" cx="888.6464646464647" cy="383.27272727272737" r="14.159999999999995" fill="rgba(0,0,0,0.3)" stroke="black" stroke-width="0.010593220338983056"/><circle data-type="circle" data-label="" data-x="3.4848484848484866" data-y="2.373737373737375" cx="840.969696969697" cy="287.91919191919203" r="14.159999999999995" fill="rgba(0,0,0,0.3)" stroke="black" stroke-width="0.010593220338983056"/><circle data-type="circle" data-label="" data-x="1.0606060606060617" data-y="2.9797979797979806" cx="612.1212121212121" cy="230.70707070707084" r="14.159999999999995" fill="rgba(0,0,0,0.3)" stroke="black" stroke-width="0.010593220338983056"/><circle data-type="circle" data-label="" data-x="-1.8686868686868683" data-y="3.989898989898992" cx="335.59595959595964" cy="135.35353535353545" r="14.159999999999995" fill="rgba(0,0,0,0.3)" stroke="black" stroke-width="0.010593220338983056"/><g id="crosshair" style="display: none"><line id="crosshair-h" y1="0" y2="1024" stroke="#666" stroke-width="0.5"/><line id="crosshair-v" x1="0" x2="1024" stroke="#666" stroke-width="0.5"/><text id="coordinates" font-family="monospace" font-size="12" fill="#666"></text></g><script><![CDATA[
              document.currentScript.parentElement.addEventListener('mousemove', (e) => {
                const svg = e.currentTarget;
                const rect = svg.getBoundingClientRect();
                const x = e.clientX - rect.left;
                const y = e.clientY - rect.top;
                const crosshair = svg.getElementById('crosshair');
                const h = svg.getElementById('crosshair-h');
                const v = svg.getElementById('crosshair-v');
                const coords = svg.getElementById('coordinates');
                
                crosshair.style.display = 'block';
                h.setAttribute('x1', '0');
                h.setAttribute('x2', '1024');
                h.setAttribute('y1', y);
                h.setAttribute('y2', y);
                v.setAttribute('x1', x);
                v.setAttribute('x2', x);
                v.setAttribute('y1', '0');
                v.setAttribute('y2', '1024');

                // Calculate real coordinates using inverse transformation
                const matrix = {"a":94.39999999999996,"c":0,"e":511.99999999999994,"b":0,"d":-94.39999999999996,"f":512.0000000000001};
                // Manually invert and apply the affine transform
                // Since we only use translate and scale, we can directly compute:
                // x' = (x - tx) / sx
                // y' = (y - ty) / sy
                const sx = matrix.a;
                const sy = matrix.d;
                const tx = matrix.e; 
                const ty = matrix.f;
                const realPoint = {
                  x: (x - tx) / sx,
                  y: (y - ty) / sy // Flip y back since we used negative scale
                }
                
                coords.textContent = `(${realPoint.x.toFixed(2)}, ${realPoint.y.toFixed(2)})`;
                coords.setAttribute('x', (x + 5).toString());
                coords.setAttribute('y', (y - 5).toString());
              });
              document.currentScript.parentElement.addEventListener('mouseleave', () => {
                document.currentScript.parentElement.getElementById('crosshair').style.display = 'none';
              });
            ]]></script></svg>