<svg width="1024" height="1024" viewBox="0 0 1024 1024" xmlns="http://www.w3.org/2000/svg"><rect width="100%" height="100%" fill="white"/><g><circle data-type="point" data-label="conn_000" data-x="-5" data-y="2.2800000000000002" cx="40.000000000000114" cy="296.76800000000014" r="14.16" fill="red"/></g><g><circle data-type="point" data-label="conn_000" data-x="5" data-y="-2.14" cx="983.9999999999998" cy="714.0160000000001" r="14.16" fill="blue"/></g><g><circle data-type="point" data-label="conn_001" data-x="-2.16" data-y="5" cx="308.096" cy="40.000000000000284" r="14.16" fill="red"/></g><g><circle data-type="point" data-label="conn_001" data-x="2.82" data-y="-5" cx="778.2079999999999" cy="984" r="14.16" fill="blue"/></g><g><circle data-type="point" data-label="conn_002" data-x="0.5" data-y="-5" cx="559.1999999999999" cy="984" r="14.16" fill="blue"/></g><g><circle data-type="point" data-label="conn_002" data-x="4.46" data-y="5" cx="933.0239999999998" cy="40.000000000000284" r="14.16" fill="blue"/></g><g><circle data-type="point" data-label="conn_003" data-x="5" data-y="3.66" cx="983.9999999999998" cy="166.4960000000002" r="14.16" fill="blue"/></g><g><circle data-type="point" data-label="conn_003" data-x="-5" data-y="1.16" cx="40.000000000000114" cy="402.49600000000015" r="14.16" fill="blue"/></g><g><circle data-type="point" data-label="conn_004" data-x="4.16" data-y="5" cx="904.7039999999997" cy="40.000000000000284" r="14.16" fill="red"/></g><g><circle data-type="point" data-label="conn_004" data-x="-3.48" data-y="-5" cx="183.48800000000006" cy="984" r="14.16" fill="blue"/></g><g><circle data-type="point" data-label="conn_005" data-x="-2.32" data-y="5" cx="292.9920000000001" cy="40.000000000000284" r="14.16" fill="blue"/></g><g><circle data-type="point" data-label="conn_005" data-x="2.64" data-y="-5" cx="761.2159999999999" cy="984" r="14.16" fill="red"/></g><g><circle data-type="point" data-label="conn_006" data-x="-5" data-y="-3.12" cx="40.000000000000114" cy="806.528" r="14.16" fill="blue"/></g><g><circle data-type="point" data-label="conn_006" data-x="5" data-y="0.34" cx="983.9999999999998" cy="479.9040000000001" r="14.16" fill="red"/></g><g><circle data-type="point" data-label="conn_007" data-x="5" data-y="2.06" cx="983.9999999999998" cy="317.5360000000002" r="14.16" fill="blue"/></g><g><circle data-type="point" data-label="conn_007" data-x="-4.24" data-y="-5" cx="111.74400000000009" cy="984" r="14.16" fill="blue"/></g><g><circle data-type="point" data-label="conn_008" data-x="4.7" data-y="5" cx="955.6799999999998" cy="40.000000000000284" r="14.16" fill="blue"/></g><g><circle data-type="point" data-label="conn_008" data-x="3.9" data-y="-5" cx="880.1599999999999" cy="984" r="14.16" fill="red"/></g><g><polyline data-points="5.000000000000002,3.6868686868686877 4.898989898989901,3.5858585858585874 4.7979797979797985,3.4848484848484866 4.696969696969697,3.383838383838384 4.595959595959597,3.2828282828282833 4.494949494949497,3.181818181818183 4.393939393939394,3.080808080808082 4.292929292929293,2.9797979797979806 4.191919191919193,2.87878787878788 4.090909090909092,2.7777777777777786 3.989898989898992,2.676767676767678 3.8888888888888893,2.575757575757577 3.7878787878787885,2.4747474747474754 3.6868686868686877,2.373737373737375 3.5858585858585874,2.2727272727272734 3.4848484848484866,2.1717171717171726 3.383838383838384,2.070707070707072 3.2828282828282833,1.9696969696969702 3.181818181818183,1.8686868686868696 3.080808080808082,1.767676767676768 2.9797979797979806,1.6666666666666674 2.87878787878788,1.5656565656565666 2.7777777777777786,1.4646464646464652 2.676767676767678,1.3636363636363644 2.575757575757577,1.262626262626263 2.4747474747474754,1.1616161616161622 2.373737373737375,1.1616161616161622 2.2727272727272734,1.1616161616161622 2.1717171717171726,1.1616161616161622 2.070707070707072,1.1616161616161622 1.9696969696969702,1.1616161616161622 1.8686868686868696,1.1616161616161622 1.767676767676768,1.1616161616161622 1.6666666666666674,1.1616161616161622 1.5656565656565666,1.1616161616161622 1.4646464646464652,1.1616161616161622 1.3636363636363644,1.1616161616161622 1.262626262626263,1.1616161616161622 1.1616161616161622,1.1616161616161622 1.0606060606060617,1.1616161616161622 0.9595959595959602,1.1616161616161622 0.8585858585858596,1.1616161616161622 0.7575757575757579,1.1616161616161622 0.6565656565656574,1.1616161616161622 0.5555555555555567,1.1616161616161622 0.4545454545454551,1.1616161616161622 0.3535353535353544,1.1616161616161622 0.2525252525252529,1.1616161616161622 0.1515151515151522,1.1616161616161622 0.050505050505051545,1.1616161616161622 -0.05050505050505001,1.1616161616161622 -0.15151515151515066,1.1616161616161622 -0.2525252525252522,1.1616161616161622 -0.35353535353535287,1.1616161616161622 -0.4545454545454544,1.1616161616161622 -0.555555555555555,1.1616161616161622 -0.6565656565656557,1.1616161616161622 -0.7575757575757572,1.1616161616161622 -0.8585858585858579,1.1616161616161622 -0.9595959595959596,1.1616161616161622 -1.0606060606060603,1.1616161616161622 -1.1616161616161613,1.1616161616161622 -1.2626262626262625,1.1616161616161622 -1.363636363636363,1.1616161616161622 -1.4646464646464643,1.1616161616161622 -1.5656565656565653,1.1616161616161622 -1.6666666666666665,1.1616161616161622 -1.7676767676767675,1.1616161616161622 -1.8686868686868683,1.1616161616161622 -1.9696969696969693,1.1616161616161622 -2.07070707070707,1.1616161616161622 -2.1717171717171713,1.1616161616161622 -2.2727272727272725,1.1616161616161622 -2.3737373737373733,1.1616161616161622 -2.474747474747474,1.1616161616161622 -2.5757575757575752,1.1616161616161622 -2.6767676767676765,1.1616161616161622 -2.7777777777777777,1.1616161616161622 -2.8787878787878785,1.1616161616161622 -2.9797979797979792,1.1616161616161622 -3.0808080808080804,1.1616161616161622 -3.1818181818181817,1.1616161616161622 -3.2828282828282824,1.1616161616161622 -3.383838383838383,1.1616161616161622 -3.484848484848485,1.1616161616161622 -3.5858585858585856,1.1616161616161622 -3.6868686868686864,1.1616161616161622 -3.7878787878787876,1.1616161616161622 -3.8888888888888884,1.1616161616161622 -3.98989898989899,1.1616161616161622 -4.090909090909091,1.1616161616161622 -4.191919191919193,1.1616161616161622 -4.292929292929293,1.1616161616161622 -4.393939393939394,1.1616161616161622 -4.494949494949496,1.1616161616161622 -4.595959595959596,1.1616161616161622 -4.696969696969697,1.1616161616161622 -4.7979797979797985,1.1616161616161622 -4.898989898989899,1.1616161616161622 -5.000000000000001,1.1616161616161622" data-type="line" data-label="" points="984,163.95959595959613 974.4646464646464,173.4949494949496 964.9292929292927,183.03030303030312 955.3939393939393,192.56565656565675 945.8585858585857,202.10101010101027 936.3232323232323,211.63636363636374 926.7878787878785,221.17171717171726 917.2525252525251,230.70707070707084 907.7171717171716,240.24242424242436 898.181818181818,249.77777777777794 888.6464646464647,259.3131313131314 879.111111111111,268.84848484848493 869.5757575757575,278.38383838383857 860.0404040404039,287.91919191919203 850.5050505050505,297.4545454545456 840.969696969697,306.9898989898991 831.4343434343433,316.5252525252526 821.8989898989898,326.06060606060623 812.3636363636363,335.5959595959597 802.8282828282828,345.1313131313133 793.2929292929292,354.66666666666674 783.7575757575758,364.2020202020203 774.2222222222222,373.73737373737384 764.6868686868686,383.27272727272737 755.1515151515151,392.80808080808094 745.6161616161615,402.3434343434344 736.0808080808081,402.3434343434344 726.5454545454545,402.3434343434344 717.0101010101009,402.3434343434344 707.4747474747475,402.3434343434344 697.9393939393939,402.3434343434344 688.4040404040404,402.3434343434344 678.8686868686868,402.3434343434344 669.3333333333333,402.3434343434344 659.7979797979798,402.3434343434344 650.2626262626262,402.3434343434344 640.7272727272727,402.3434343434344 631.1919191919192,402.3434343434344 621.6565656565656,402.3434343434344 612.1212121212121,402.3434343434344 602.5858585858585,402.3434343434344 593.0505050505051,402.3434343434344 583.5151515151515,402.3434343434344 573.9797979797979,402.3434343434344 564.4444444444445,402.3434343434344 554.9090909090909,402.3434343434344 545.3737373737374,402.3434343434344 535.8383838383838,402.3434343434344 526.3030303030303,402.3434343434344 516.7676767676768,402.3434343434344 507.2323232323232,402.3434343434344 497.69696969696975,402.3434343434344 488.16161616161617,402.3434343434344 478.62626262626264,402.3434343434344 469.09090909090907,402.3434343434344 459.55555555555554,402.3434343434344 450.0202020202021,402.3434343434344 440.4848484848485,402.3434343434344 430.949494949495,402.3434343434344 421.4141414141414,402.3434343434344 411.8787878787879,402.3434343434344 402.34343434343435,402.3434343434344 392.80808080808083,402.3434343434344 383.2727272727273,402.3434343434344 373.7373737373738,402.3434343434344 364.2020202020202,402.3434343434344 354.6666666666667,402.3434343434344 345.13131313131316,402.3434343434344 335.59595959595964,402.3434343434344 326.0606060606061,402.3434343434344 316.5252525252526,402.3434343434344 306.9898989898991,402.3434343434344 297.4545454545455,402.3434343434344 287.91919191919203,402.3434343434344 278.38383838383845,402.3434343434344 268.84848484848493,402.3434343434344 259.3131313131314,402.3434343434344 249.77777777777783,402.3434343434344 240.2424242424243,402.3434343434344 230.70707070707084,402.3434343434344 221.17171717171726,402.3434343434344 211.63636363636374,402.3434343434344 202.10101010101022,402.3434343434344 192.5656565656567,402.3434343434344 183.03030303030312,402.3434343434344 173.4949494949496,402.3434343434344 163.95959595959607,402.3434343434344 154.42424242424255,402.3434343434344 144.88888888888903,402.3434343434344 135.35353535353545,402.3434343434344 125.81818181818193,402.3434343434344 116.28282828282829,402.3434343434344 106.74747474747483,402.3434343434344 97.21212121212136,402.3434343434344 87.67676767676772,402.3434343434344 78.14141414141426,402.3434343434344 68.60606060606068,402.3434343434344 59.07070707070716,402.3434343434344 49.53535353535369,402.3434343434344 40.00000000000006,402.3434343434344" fill="none" stroke="rgba(0,0,255,0.75)" stroke-width="11.327999999999996"/></g><g><polyline data-points="4.191919191919193,5.000000000000002 4.090909090909092,4.898989898989901 3.989898989898992,4.7979797979797985 3.8888888888888893,4.696969696969697 3.7878787878787885,4.595959595959597 3.6868686868686877,4.494949494949497 3.5858585858585874,4.393939393939394 3.4848484848484866,4.292929292929293 3.383838383838384,4.191919191919193 3.2828282828282833,4.090909090909092 3.181818181818183,3.989898989898992 3.080808080808082,3.8888888888888893 2.9797979797979806,3.7878787878787885 2.87878787878788,3.6868686868686877 2.7777777777777786,3.5858585858585874 2.676767676767678,3.4848484848484866 2.575757575757577,3.383838383838384 2.4747474747474754,3.2828282828282833 2.373737373737375,3.181818181818183 2.2727272727272734,3.080808080808082 2.1717171717171726,2.9797979797979806 2.070707070707072,2.87878787878788 1.9696969696969702,2.7777777777777786 1.8686868686868696,2.676767676767678 1.767676767676768,2.575757575757577 1.6666666666666674,2.4747474747474754 1.5656565656565666,2.373737373737375 1.4646464646464652,2.2727272727272734 1.3636363636363644,2.1717171717171726 1.262626262626263,2.070707070707072 1.1616161616161622,1.9696969696969702 1.0606060606060617,1.8686868686868696 0.9595959595959602,1.767676767676768 0.8585858585858596,1.6666666666666674 0.7575757575757579,1.5656565656565666 0.6565656565656574,1.4646464646464652 0.5555555555555567,1.3636363636363644 0.4545454545454551,1.262626262626263 0.3535353535353544,1.1616161616161622 0.2525252525252529,1.0606060606060617 0.1515151515151522,0.9595959595959602 0.050505050505051545,0.8585858585858596 -0.05050505050505001,0.7575757575757579 -0.15151515151515066,0.6565656565656574 -0.2525252525252522,0.5555555555555567 -0.35353535353535287,0.4545454545454551 -0.4545454545454544,0.3535353535353544 -0.555555555555555,0.2525252525252529 -0.6565656565656557,0.1515151515151522 -0.7575757575757572,0.050505050505051545 -0.8585858585858579,-0.05050505050505001 -0.9595959595959596,-0.15151515151515066 -1.0606060606060603,-0.2525252525252522 -1.1616161616161613,-0.35353535353535287 -1.2626262626262625,-0.4545454545454544 -1.363636363636363,-0.555555555555555 -1.4646464646464643,-0.6565656565656557 -1.5656565656565653,-0.7575757575757572 -1.6666666666666665,-0.8585858585858579 -1.7676767676767675,-0.9595959595959596 -1.8686868686868683,-1.0606060606060603 -1.9696969696969693,-1.1616161616161613 -2.07070707070707,-1.2626262626262625 -2.1717171717171713,-1.363636363636363 -2.2727272727272725,-1.4646464646464643 -2.3737373737373733,-1.5656565656565653 -2.474747474747474,-1.6666666666666665 -2.5757575757575752,-1.7676767676767675 -2.6767676767676765,-1.8686868686868683 -2.7777777777777777,-1.9696969696969693 -2.8787878787878785,-2.07070707070707 -2.9797979797979792,-2.1717171717171713 -3.0808080808080804,-2.2727272727272725 -3.1818181818181817,-2.3737373737373733 -3.2828282828282824,-2.474747474747474 -3.383838383838383,-2.5757575757575752 -3.383838383838383,-2.6767676767676765 -3.383838383838383,-2.7777777777777777 -3.383838383838383,-2.8787878787878785 -3.383838383838383,-2.9797979797979792 -3.383838383838383,-3.0808080808080804 -3.383838383838383,-3.1818181818181817 -3.383838383838383,-3.2828282828282824 -3.383838383838383,-3.383838383838383 -3.383838383838383,-3.484848484848485 -3.383838383838383,-3.5858585858585856 -3.383838383838383,-3.6868686868686864 -3.383838383838383,-3.7878787878787876 -3.383838383838383,-3.8888888888888884 -3.383838383838383,-3.98989898989899" data-type="line" data-label="" points="907.7171717171716,40.000000000000114 898.181818181818,49.53535353535369 888.6464646464647,59.07070707070733 879.111111111111,68.60606060606085 869.5757575757575,78.14141414141432 860.0404040404039,87.67676767676778 850.5050505050505,97.21212121212153 840.969696969697,106.747474747475 831.4343434343433,116.28282828282846 821.8989898989898,125.81818181818198 812.3636363636363,135.35353535353545 802.8282828282828,144.88888888888908 793.2929292929292,154.4242424242426 783.7575757575758,163.95959595959613 774.2222222222222,173.4949494949496 764.6868686868686,183.03030303030312 755.1515151515151,192.56565656565675 745.6161616161615,202.10101010101027 736.0808080808081,211.63636363636374 726.5454545454545,221.17171717171726 717.0101010101009,230.70707070707084 707.4747474747475,240.24242424242436 697.9393939393939,249.77777777777794 688.4040404040404,259.3131313131314 678.8686868686868,268.84848484848493 669.3333333333333,278.38383838383857 659.7979797979798,287.91919191919203 650.2626262626262,297.4545454545456 640.7272727272727,306.9898989898991 631.1919191919192,316.5252525252526 621.6565656565656,326.06060606060623 612.1212121212121,335.5959595959597 602.5858585858585,345.1313131313133 593.0505050505051,354.66666666666674 583.5151515151515,364.2020202020203 573.9797979797979,373.73737373737384 564.4444444444445,383.27272727272737 554.9090909090909,392.80808080808094 545.3737373737374,402.3434343434344 535.8383838383838,411.87878787878793 526.3030303030303,421.4141414141415 516.7676767676768,430.94949494949503 507.2323232323232,440.4848484848486 497.69696969696975,450.0202020202021 488.16161616161617,459.5555555555556 478.62626262626264,469.0909090909092 469.09090909090907,478.6262626262627 459.55555555555554,488.1616161616163 450.0202020202021,497.69696969696975 440.4848484848485,507.23232323232327 430.949494949495,516.7676767676768 421.4141414141414,526.3030303030304 411.8787878787879,535.838383838384 402.34343434343435,545.3737373737374 392.80808080808083,554.909090909091 383.2727272727273,564.4444444444445 373.7373737373738,573.979797979798 364.2020202020202,583.5151515151516 354.6666666666667,593.0505050505051 345.13131313131316,602.5858585858587 335.59595959595964,612.1212121212121 326.0606060606061,621.6565656565657 316.5252525252526,631.1919191919193 306.9898989898991,640.7272727272727 297.4545454545455,650.2626262626263 287.91919191919203,659.7979797979798 278.38383838383845,669.3333333333334 268.84848484848493,678.8686868686868 259.3131313131314,688.4040404040404 249.77777777777783,697.939393939394 240.2424242424243,707.4747474747475 230.70707070707084,717.010101010101 221.17171717171726,726.5454545454545 211.63636363636374,736.0808080808081 202.10101010101022,745.6161616161615 192.5656565656567,755.1515151515151 192.5656565656567,764.6868686868687 192.5656565656567,774.2222222222222 192.5656565656567,783.7575757575758 192.5656565656567,793.2929292929292 192.5656565656567,802.8282828282828 192.5656565656567,812.3636363636363 192.5656565656567,821.8989898989898 192.5656565656567,831.4343434343434 192.5656565656567,840.969696969697 192.5656565656567,850.5050505050505 192.5656565656567,860.0404040404039 192.5656565656567,869.5757575757575 192.5656565656567,879.1111111111111 192.5656565656567,888.6464646464647" fill="none" stroke="rgba(255,0,0,0.75)" stroke-width="11.327999999999996"/></g><g><polyline data-points="-3.383838383838383,-3.98989898989899 -3.383838383838383,-4.090909090909091 -3.383838383838383,-4.191919191919193 -3.383838383838383,-4.292929292929293 -3.383838383838383,-4.393939393939394 -3.383838383838383,-4.494949494949496 -3.383838383838383,-4.595959595959596 -3.383838383838383,-4.696969696969697 -3.383838383838383,-4.7979797979797985 -3.383838383838383,-4.898989898989899 -3.484848484848485,-5.000000000000001" data-type="line" data-label="" points="192.5656565656567,888.6464646464647 192.5656565656567,898.1818181818181 192.5656565656567,907.7171717171718 192.5656565656567,917.2525252525252 192.5656565656567,926.7878787878788 192.5656565656567,936.3232323232323 192.5656565656567,945.8585858585858 192.5656565656567,955.3939393939394 192.5656565656567,964.9292929292928 192.5656565656567,974.4646464646464 183.03030303030312,984" fill="none" stroke="rgba(0,0,255,0.75)" stroke-width="11.327999999999996"/></g><g><polyline data-points="-5.000000000000001,2.2727272727272734 -4.898989898989899,2.1717171717171726 -4.7979797979797985,2.070707070707072 -4.696969696969697,1.9696969696969702 -4.595959595959596,1.8686868686868696 -4.494949494949496,1.767676767676768 -4.393939393939394,1.6666666666666674 -4.292929292929293,1.5656565656565666 -4.191919191919193,1.4646464646464652 -4.090909090909091,1.3636363636363644 -3.98989898989899,1.262626262626263 -3.8888888888888884,1.1616161616161622 -3.7878787878787876,1.0606060606060617 -3.6868686868686864,0.9595959595959602 -3.5858585858585856,0.8585858585858596 -3.484848484848485,0.7575757575757579 -3.383838383838383,0.6565656565656574 -3.2828282828282824,0.5555555555555567 -3.1818181818181817,0.4545454545454551 -3.0808080808080804,0.3535353535353544 -2.9797979797979792,0.2525252525252529 -2.8787878787878785,0.1515151515151522 -2.7777777777777777,0.050505050505051545 -2.6767676767676765,-0.05050505050505001 -2.5757575757575752,-0.15151515151515066 -2.474747474747474,-0.2525252525252522 -2.3737373737373733,-0.35353535353535287 -2.2727272727272725,-0.4545454545454544 -2.1717171717171713,-0.555555555555555 -2.07070707070707,-0.6565656565656557" data-type="line" data-label="" points="40.00000000000006,297.4545454545456 49.53535353535369,306.9898989898991 59.07070707070716,316.5252525252526 68.60606060606068,326.06060606060623 78.14141414141426,335.5959595959597 87.67676767676772,345.1313131313133 97.21212121212136,354.66666666666674 106.74747474747483,364.2020202020203 116.28282828282829,373.73737373737384 125.81818181818193,383.27272727272737 135.35353535353545,392.80808080808094 144.88888888888903,402.3434343434344 154.42424242424255,411.87878787878793 163.95959595959607,421.4141414141415 173.4949494949496,430.94949494949503 183.03030303030312,440.4848484848486 192.5656565656567,450.0202020202021 202.10101010101022,459.5555555555556 211.63636363636374,469.0909090909092 221.17171717171726,478.6262626262627 230.70707070707084,488.1616161616163 240.2424242424243,497.69696969696975 249.77777777777783,507.23232323232327 259.3131313131314,516.7676767676768 268.84848484848493,526.3030303030304 278.38383838383845,535.838383838384 287.91919191919203,545.3737373737374 297.4545454545455,554.909090909091 306.9898989898991,564.4444444444445 316.5252525252526,573.979797979798" fill="none" stroke="rgba(255,0,0,0.75)" stroke-width="11.327999999999996"/></g><g><polyline data-points="-2.07070707070707,-0.6565656565656557 -1.9696969696969693,-0.7575757575757572 -1.8686868686868683,-0.8585858585858579 -1.7676767676767675,-0.9595959595959596 -1.6666666666666665,-1.0606060606060603 -1.5656565656565653,-1.1616161616161613 -1.4646464646464643,-1.2626262626262625 -1.363636363636363,-1.363636363636363 -1.2626262626262625,-1.4646464646464643 -1.1616161616161613,-1.5656565656565653 -1.0606060606060603,-1.6666666666666665 -0.9595959595959596,-1.7676767676767675 -0.8585858585858579,-1.8686868686868683 -0.7575757575757572,-1.9696969696969693 -0.6565656565656557,-2.07070707070707 -0.555555555555555,-2.07070707070707 -0.4545454545454544,-2.07070707070707 -0.35353535353535287,-2.07070707070707 -0.2525252525252522,-2.07070707070707 -0.15151515151515066,-2.07070707070707 -0.05050505050505001,-2.07070707070707 0.050505050505051545,-2.07070707070707 0.1515151515151522,-2.07070707070707 0.2525252525252529,-2.07070707070707 0.3535353535353544,-2.07070707070707 0.4545454545454551,-2.07070707070707 0.5555555555555567,-2.07070707070707 0.6565656565656574,-2.07070707070707 0.7575757575757579,-2.07070707070707 0.8585858585858596,-2.1717171717171713 0.9595959595959602,-2.1717171717171713 1.0606060606060617,-2.1717171717171713 1.1616161616161622,-2.1717171717171713 1.262626262626263,-2.1717171717171713 1.3636363636363644,-2.1717171717171713 1.4646464646464652,-2.1717171717171713 1.5656565656565666,-2.1717171717171713 1.6666666666666674,-2.1717171717171713 1.767676767676768,-2.1717171717171713 1.8686868686868696,-2.1717171717171713 1.9696969696969702,-2.1717171717171713 2.070707070707072,-2.1717171717171713 2.1717171717171726,-2.1717171717171713 2.2727272727272734,-2.1717171717171713 2.373737373737375,-2.1717171717171713 2.4747474747474754,-2.1717171717171713 2.575757575757577,-2.1717171717171713 2.676767676767678,-2.1717171717171713 2.7777777777777786,-2.1717171717171713 2.87878787878788,-2.1717171717171713" data-type="line" data-label="" points="316.5252525252526,573.979797979798 326.0606060606061,583.5151515151516 335.59595959595964,593.0505050505051 345.13131313131316,602.5858585858587 354.6666666666667,612.1212121212121 364.2020202020202,621.6565656565657 373.7373737373738,631.1919191919193 383.2727272727273,640.7272727272727 392.80808080808083,650.2626262626263 402.34343434343435,659.7979797979798 411.8787878787879,669.3333333333334 421.4141414141414,678.8686868686868 430.949494949495,688.4040404040404 440.4848484848485,697.939393939394 450.0202020202021,707.4747474747475 459.55555555555554,707.4747474747475 469.09090909090907,707.4747474747475 478.62626262626264,707.4747474747475 488.16161616161617,707.4747474747475 497.69696969696975,707.4747474747475 507.2323232323232,707.4747474747475 516.7676767676768,707.4747474747475 526.3030303030303,707.4747474747475 535.8383838383838,707.4747474747475 545.3737373737374,707.4747474747475 554.9090909090909,707.4747474747475 564.4444444444445,707.4747474747475 573.9797979797979,707.4747474747475 583.5151515151515,707.4747474747475 593.0505050505051,717.010101010101 602.5858585858585,717.010101010101 612.1212121212121,717.010101010101 621.6565656565656,717.010101010101 631.1919191919192,717.010101010101 640.7272727272727,717.010101010101 650.2626262626262,717.010101010101 659.7979797979798,717.010101010101 669.3333333333333,717.010101010101 678.8686868686868,717.010101010101 688.4040404040404,717.010101010101 697.9393939393939,717.010101010101 707.4747474747475,717.010101010101 717.0101010101009,717.010101010101 726.5454545454545,717.010101010101 736.0808080808081,717.010101010101 745.6161616161615,717.010101010101 755.1515151515151,717.010101010101 764.6868686868686,717.010101010101 774.2222222222222,717.010101010101 783.7575757575758,717.010101010101" fill="none" stroke="rgba(0,0,255,0.75)" stroke-width="11.327999999999996"/></g><g><polyline data-points="2.87878787878788,-2.1717171717171713 2.9797979797979806,-2.1717171717171713 3.080808080808082,-2.1717171717171713 3.181818181818183,-2.1717171717171713 3.2828282828282833,-2.1717171717171713 3.383838383838384,-2.1717171717171713 3.4848484848484866,-2.1717171717171713 3.5858585858585874,-2.1717171717171713 3.6868686868686877,-2.1717171717171713 3.7878787878787885,-2.1717171717171713 3.8888888888888893,-2.1717171717171713 3.989898989898992,-2.1717171717171713" data-type="line" data-label="" points="783.7575757575758,717.010101010101 793.2929292929292,717.010101010101 802.8282828282828,717.010101010101 812.3636363636363,717.010101010101 821.8989898989898,717.010101010101 831.4343434343433,717.010101010101 840.969696969697,717.010101010101 850.5050505050505,717.010101010101 860.0404040404039,717.010101010101 869.5757575757575,717.010101010101 879.111111111111,717.010101010101 888.6464646464647,717.010101010101" fill="none" stroke="rgba(255,0,0,0.75)" stroke-width="11.327999999999996"/></g><g><polyline data-points="3.989898989898992,-2.1717171717171713 4.090909090909092,-2.1717171717171713 4.191919191919193,-2.1717171717171713 4.292929292929293,-2.1717171717171713 4.393939393939394,-2.1717171717171713 4.494949494949497,-2.1717171717171713 4.595959595959597,-2.1717171717171713 4.696969696969697,-2.1717171717171713 4.7979797979797985,-2.1717171717171713 4.898989898989901,-2.1717171717171713 5.000000000000002,-2.1717171717171713" data-type="line" data-label="" points="888.6464646464647,717.010101010101 898.181818181818,717.010101010101 907.7171717171716,717.010101010101 917.2525252525251,717.010101010101 926.7878787878785,717.010101010101 936.3232323232323,717.010101010101 945.8585858585857,717.010101010101 955.3939393939393,717.010101010101 964.9292929292927,717.010101010101 974.4646464646464,717.010101010101 984,717.010101010101" fill="none" stroke="rgba(0,0,255,0.75)" stroke-width="11.327999999999996"/></g><g><polyline data-points="-2.3737373737373733,5.000000000000002 -2.2727272727272725,4.898989898989901 -2.1717171717171713,4.7979797979797985 -2.07070707070707,4.696969696969697 -1.9696969696969693,4.595959595959597 -1.8686868686868683,4.494949494949497 -1.7676767676767675,4.393939393939394 -1.6666666666666665,4.292929292929293 -1.5656565656565653,4.191919191919193 -1.4646464646464643,4.090909090909092 -1.363636363636363,3.989898989898992 -1.2626262626262625,3.8888888888888893 -1.1616161616161613,3.7878787878787885 -1.0606060606060603,3.6868686868686877 -0.9595959595959596,3.5858585858585874 -0.8585858585858579,3.4848484848484866 -0.7575757575757572,3.383838383838384 -0.6565656565656557,3.2828282828282833 -0.555555555555555,3.181818181818183 -0.4545454545454544,3.080808080808082 -0.35353535353535287,2.9797979797979806 -0.2525252525252522,2.87878787878788 -0.15151515151515066,2.7777777777777786 -0.05050505050505001,2.676767676767678 0.050505050505051545,2.575757575757577 0.1515151515151522,2.4747474747474754 0.2525252525252529,2.373737373737375 0.3535353535353544,2.2727272727272734 0.4545454545454551,2.1717171717171726 0.5555555555555567,2.070707070707072 0.6565656565656574,1.9696969696969702 0.7575757575757579,1.8686868686868696 0.8585858585858596,1.767676767676768 0.9595959595959602,1.6666666666666674 1.0606060606060617,1.5656565656565666 1.1616161616161622,1.5656565656565666 1.262626262626263,1.5656565656565666 1.3636363636363644,1.5656565656565666 1.4646464646464652,1.5656565656565666 1.5656565656565666,1.5656565656565666 1.6666666666666674,1.5656565656565666" data-type="line" data-label="" points="287.91919191919203,40.000000000000114 297.4545454545455,49.53535353535369 306.9898989898991,59.07070707070733 316.5252525252526,68.60606060606085 326.0606060606061,78.14141414141432 335.59595959595964,87.67676767676778 345.13131313131316,97.21212121212153 354.6666666666667,106.747474747475 364.2020202020202,116.28282828282846 373.7373737373738,125.81818181818198 383.2727272727273,135.35353535353545 392.80808080808083,144.88888888888908 402.34343434343435,154.4242424242426 411.8787878787879,163.95959595959613 421.4141414141414,173.4949494949496 430.949494949495,183.03030303030312 440.4848484848485,192.56565656565675 450.0202020202021,202.10101010101027 459.55555555555554,211.63636363636374 469.09090909090907,221.17171717171726 478.62626262626264,230.70707070707084 488.16161616161617,240.24242424242436 497.69696969696975,249.77777777777794 507.2323232323232,259.3131313131314 516.7676767676768,268.84848484848493 526.3030303030303,278.38383838383857 535.8383838383838,287.91919191919203 545.3737373737374,297.4545454545456 554.9090909090909,306.9898989898991 564.4444444444445,316.5252525252526 573.9797979797979,326.06060606060623 583.5151515151515,335.5959595959597 593.0505050505051,345.1313131313133 602.5858585858585,354.66666666666674 612.1212121212121,364.2020202020203 621.6565656565656,364.2020202020203 631.1919191919192,364.2020202020203 640.7272727272727,364.2020202020203 650.2626262626262,364.2020202020203 659.7979797979798,364.2020202020203 669.3333333333333,364.2020202020203" fill="none" stroke="rgba(0,0,255,0.75)" stroke-width="11.327999999999996"/></g><g><polyline data-points="1.6666666666666674,1.5656565656565666 1.767676767676768,1.4646464646464652 1.8686868686868696,1.3636363636363644 1.9696969696969702,1.262626262626263 2.070707070707072,1.1616161616161622 2.1717171717171726,1.0606060606060617 2.2727272727272734,0.9595959595959602 2.373737373737375,0.8585858585858596 2.4747474747474754,0.7575757575757579 2.4747474747474754,0.6565656565656574 2.4747474747474754,0.5555555555555567 2.4747474747474754,0.4545454545454551 2.4747474747474754,0.3535353535353544 2.4747474747474754,0.2525252525252529 2.4747474747474754,0.1515151515151522 2.4747474747474754,0.050505050505051545 2.4747474747474754,-0.05050505050505001 2.4747474747474754,-0.15151515151515066 2.4747474747474754,-0.2525252525252522 2.4747474747474754,-0.35353535353535287 2.575757575757577,-0.4545454545454544 2.575757575757577,-0.555555555555555 2.575757575757577,-0.6565656565656557 2.575757575757577,-0.7575757575757572 2.575757575757577,-0.8585858585858579 2.575757575757577,-0.9595959595959596 2.575757575757577,-1.0606060606060603 2.575757575757577,-1.1616161616161613 2.575757575757577,-1.2626262626262625 2.575757575757577,-1.363636363636363 2.575757575757577,-1.4646464646464643 2.575757575757577,-1.5656565656565653 2.575757575757577,-1.6666666666666665 2.575757575757577,-1.7676767676767675 2.575757575757577,-1.8686868686868683 2.575757575757577,-1.9696969696969693 2.575757575757577,-2.07070707070707 2.575757575757577,-2.1717171717171713 2.676767676767678,-2.2727272727272725 2.676767676767678,-2.3737373737373733 2.676767676767678,-2.474747474747474 2.676767676767678,-2.5757575757575752 2.676767676767678,-2.6767676767676765 2.676767676767678,-2.7777777777777777 2.676767676767678,-2.8787878787878785 2.676767676767678,-2.9797979797979792 2.676767676767678,-3.0808080808080804 2.676767676767678,-3.1818181818181817 2.676767676767678,-3.2828282828282824 2.676767676767678,-3.383838383838383 2.676767676767678,-3.484848484848485 2.676767676767678,-3.5858585858585856 2.676767676767678,-3.6868686868686864 2.676767676767678,-3.7878787878787876 2.676767676767678,-3.8888888888888884 2.676767676767678,-3.98989898989899 2.676767676767678,-4.090909090909091 2.676767676767678,-4.191919191919193 2.676767676767678,-4.292929292929293 2.676767676767678,-4.393939393939394 2.676767676767678,-4.494949494949496 2.676767676767678,-4.595959595959596 2.676767676767678,-4.696969696969697 2.676767676767678,-4.7979797979797985 2.676767676767678,-4.898989898989899 2.676767676767678,-5.000000000000001" data-type="line" data-label="" points="669.3333333333333,364.2020202020203 678.8686868686868,373.73737373737384 688.4040404040404,383.27272727272737 697.9393939393939,392.80808080808094 707.4747474747475,402.3434343434344 717.0101010101009,411.87878787878793 726.5454545454545,421.4141414141415 736.0808080808081,430.94949494949503 745.6161616161615,440.4848484848486 745.6161616161615,450.0202020202021 745.6161616161615,459.5555555555556 745.6161616161615,469.0909090909092 745.6161616161615,478.6262626262627 745.6161616161615,488.1616161616163 745.6161616161615,497.69696969696975 745.6161616161615,507.23232323232327 745.6161616161615,516.7676767676768 745.6161616161615,526.3030303030304 745.6161616161615,535.838383838384 745.6161616161615,545.3737373737374 755.1515151515151,554.909090909091 755.1515151515151,564.4444444444445 755.1515151515151,573.979797979798 755.1515151515151,583.5151515151516 755.1515151515151,593.0505050505051 755.1515151515151,602.5858585858587 755.1515151515151,612.1212121212121 755.1515151515151,621.6565656565657 755.1515151515151,631.1919191919193 755.1515151515151,640.7272727272727 755.1515151515151,650.2626262626263 755.1515151515151,659.7979797979798 755.1515151515151,669.3333333333334 755.1515151515151,678.8686868686868 755.1515151515151,688.4040404040404 755.1515151515151,697.939393939394 755.1515151515151,707.4747474747475 755.1515151515151,717.010101010101 764.6868686868686,726.5454545454545 764.6868686868686,736.0808080808081 764.6868686868686,745.6161616161615 764.6868686868686,755.1515151515151 764.6868686868686,764.6868686868687 764.6868686868686,774.2222222222222 764.6868686868686,783.7575757575758 764.6868686868686,793.2929292929292 764.6868686868686,802.8282828282828 764.6868686868686,812.3636363636363 764.6868686868686,821.8989898989898 764.6868686868686,831.4343434343434 764.6868686868686,840.969696969697 764.6868686868686,850.5050505050505 764.6868686868686,860.0404040404039 764.6868686868686,869.5757575757575 764.6868686868686,879.1111111111111 764.6868686868686,888.6464646464647 764.6868686868686,898.1818181818181 764.6868686868686,907.7171717171718 764.6868686868686,917.2525252525252 764.6868686868686,926.7878787878788 764.6868686868686,936.3232323232323 764.6868686868686,945.8585858585858 764.6868686868686,955.3939393939394 764.6868686868686,964.9292929292928 764.6868686868686,974.4646464646464 764.6868686868686,984" fill="none" stroke="rgba(255,0,0,0.75)" stroke-width="11.327999999999996"/></g><g><polyline data-points="4.696969696969697,5.000000000000002 4.696969696969697,4.898989898989901 4.696969696969697,4.7979797979797985 4.696969696969697,4.696969696969697 4.696969696969697,4.595959595959597 4.696969696969697,4.494949494949497 4.696969696969697,4.393939393939394 4.696969696969697,4.292929292929293 4.595959595959597,4.191919191919193 4.494949494949497,4.090909090909092 4.393939393939394,3.989898989898992 4.292929292929293,3.8888888888888893 4.191919191919193,3.7878787878787885 4.090909090909092,3.6868686868686877 3.989898989898992,3.5858585858585874 3.8888888888888893,3.4848484848484866 3.7878787878787885,3.383838383838384 3.6868686868686877,3.2828282828282833 3.5858585858585874,3.181818181818183" data-type="line" data-label="" points="955.3939393939393,40.000000000000114 955.3939393939393,49.53535353535369 955.3939393939393,59.07070707070733 955.3939393939393,68.60606060606085 955.3939393939393,78.14141414141432 955.3939393939393,87.67676767676778 955.3939393939393,97.21212121212153 955.3939393939393,106.747474747475 945.8585858585857,116.28282828282846 936.3232323232323,125.81818181818198 926.7878787878785,135.35353535353545 917.2525252525251,144.88888888888908 907.7171717171716,154.4242424242426 898.181818181818,163.95959595959613 888.6464646464647,173.4949494949496 879.111111111111,183.03030303030312 869.5757575757575,192.56565656565675 860.0404040404039,202.10101010101027 850.5050505050505,211.63636363636374" fill="none" stroke="rgba(0,0,255,0.75)" stroke-width="11.327999999999996"/></g><g><polyline data-points="3.5858585858585874,3.181818181818183 3.6868686868686877,3.080808080808082 3.6868686868686877,2.9797979797979806 3.6868686868686877,2.87878787878788 3.6868686868686877,2.7777777777777786 3.6868686868686877,2.676767676767678 3.6868686868686877,2.575757575757577 3.6868686868686877,2.4747474747474754 3.6868686868686877,2.373737373737375 3.6868686868686877,2.2727272727272734 3.6868686868686877,2.1717171717171726 3.7878787878787885,2.070707070707072 3.8888888888888893,1.9696969696969702 3.8888888888888893,1.8686868686868696 3.8888888888888893,1.767676767676768 3.8888888888888893,1.6666666666666674 3.8888888888888893,1.5656565656565666 3.8888888888888893,1.4646464646464652 3.8888888888888893,1.3636363636363644 3.8888888888888893,1.262626262626263 3.8888888888888893,1.1616161616161622 3.8888888888888893,1.0606060606060617 3.989898989898992,0.9595959595959602 3.989898989898992,0.8585858585858596 3.989898989898992,0.7575757575757579 3.989898989898992,0.6565656565656574 3.989898989898992,0.5555555555555567 3.989898989898992,0.4545454545454551 3.989898989898992,0.3535353535353544 3.989898989898992,0.2525252525252529 3.989898989898992,0.1515151515151522 3.989898989898992,0.050505050505051545 3.989898989898992,-0.05050505050505001 3.989898989898992,-0.15151515151515066 3.989898989898992,-0.2525252525252522 3.989898989898992,-0.35353535353535287 3.989898989898992,-0.4545454545454544 3.989898989898992,-0.555555555555555 3.989898989898992,-0.6565656565656557 3.989898989898992,-0.7575757575757572 3.989898989898992,-0.8585858585858579 3.989898989898992,-0.9595959595959596 3.989898989898992,-1.0606060606060603 3.989898989898992,-1.1616161616161613 3.989898989898992,-1.2626262626262625 3.989898989898992,-1.363636363636363 3.989898989898992,-1.4646464646464643 3.989898989898992,-1.5656565656565653 3.989898989898992,-1.6666666666666665 3.989898989898992,-1.7676767676767675 3.989898989898992,-1.8686868686868683 4.090909090909092,-1.9696969696969693 4.191919191919193,-2.07070707070707 4.292929292929293,-2.1717171717171713 4.191919191919193,-2.2727272727272725 4.090909090909092,-2.3737373737373733 3.989898989898992,-2.474747474747474 3.989898989898992,-2.5757575757575752 3.989898989898992,-2.6767676767676765 3.989898989898992,-2.7777777777777777 3.989898989898992,-2.8787878787878785 3.989898989898992,-2.9797979797979792 3.989898989898992,-3.0808080808080804 3.989898989898992,-3.1818181818181817 3.989898989898992,-3.2828282828282824 3.989898989898992,-3.383838383838383 3.989898989898992,-3.484848484848485 3.989898989898992,-3.5858585858585856 3.989898989898992,-3.6868686868686864 3.989898989898992,-3.7878787878787876 3.989898989898992,-3.8888888888888884 3.989898989898992,-3.98989898989899 3.989898989898992,-4.090909090909091 3.989898989898992,-4.191919191919193 3.989898989898992,-4.292929292929293 3.989898989898992,-4.393939393939394 3.989898989898992,-4.494949494949496 3.989898989898992,-4.595959595959596 3.989898989898992,-4.696969696969697 3.989898989898992,-4.7979797979797985 3.989898989898992,-4.898989898989899 3.989898989898992,-5.000000000000001" data-type="line" data-label="" points="850.5050505050505,211.63636363636374 860.0404040404039,221.17171717171726 860.0404040404039,230.70707070707084 860.0404040404039,240.24242424242436 860.0404040404039,249.77777777777794 860.0404040404039,259.3131313131314 860.0404040404039,268.84848484848493 860.0404040404039,278.38383838383857 860.0404040404039,287.91919191919203 860.0404040404039,297.4545454545456 860.0404040404039,306.9898989898991 869.5757575757575,316.5252525252526 879.111111111111,326.06060606060623 879.111111111111,335.5959595959597 879.111111111111,345.1313131313133 879.111111111111,354.66666666666674 879.111111111111,364.2020202020203 879.111111111111,373.73737373737384 879.111111111111,383.27272727272737 879.111111111111,392.80808080808094 879.111111111111,402.3434343434344 879.111111111111,411.87878787878793 888.6464646464647,421.4141414141415 888.6464646464647,430.94949494949503 888.6464646464647,440.4848484848486 888.6464646464647,450.0202020202021 888.6464646464647,459.5555555555556 888.6464646464647,469.0909090909092 888.6464646464647,478.6262626262627 888.6464646464647,488.1616161616163 888.6464646464647,497.69696969696975 888.6464646464647,507.23232323232327 888.6464646464647,516.7676767676768 888.6464646464647,526.3030303030304 888.6464646464647,535.838383838384 888.6464646464647,545.3737373737374 888.6464646464647,554.909090909091 888.6464646464647,564.4444444444445 888.6464646464647,573.979797979798 888.6464646464647,583.5151515151516 888.6464646464647,593.0505050505051 888.6464646464647,602.5858585858587 888.6464646464647,612.1212121212121 888.6464646464647,621.6565656565657 888.6464646464647,631.1919191919193 888.6464646464647,640.7272727272727 888.6464646464647,650.2626262626263 888.6464646464647,659.7979797979798 888.6464646464647,669.3333333333334 888.6464646464647,678.8686868686868 888.6464646464647,688.4040404040404 898.181818181818,697.939393939394 907.7171717171716,707.4747474747475 917.2525252525251,717.010101010101 907.7171717171716,726.5454545454545 898.181818181818,736.0808080808081 888.6464646464647,745.6161616161615 888.6464646464647,755.1515151515151 888.6464646464647,764.6868686868687 888.6464646464647,774.2222222222222 888.6464646464647,783.7575757575758 888.6464646464647,793.2929292929292 888.6464646464647,802.8282828282828 888.6464646464647,812.3636363636363 888.6464646464647,821.8989898989898 888.6464646464647,831.4343434343434 888.6464646464647,840.969696969697 888.6464646464647,850.5050505050505 888.6464646464647,860.0404040404039 888.6464646464647,869.5757575757575 888.6464646464647,879.1111111111111 888.6464646464647,888.6464646464647 888.6464646464647,898.1818181818181 888.6464646464647,907.7171717171718 888.6464646464647,917.2525252525252 888.6464646464647,926.7878787878788 888.6464646464647,936.3232323232323 888.6464646464647,945.8585858585858 888.6464646464647,955.3939393939394 888.6464646464647,964.9292929292928 888.6464646464647,974.4646464646464 888.6464646464647,984" fill="none" stroke="rgba(255,0,0,0.75)" stroke-width="11.327999999999996"/></g><g><polyline data-points="-2.1717171717171713,5.000000000000002 -2.07070707070707,4.898989898989901 -1.9696969696969693,4.7979797979797985 -1.8686868686868683,4.696969696969697 -1.7676767676767675,4.595959595959597 -1.6666666666666665,4.494949494949497 -1.5656565656565653,4.393939393939394 -1.4646464646464643,4.292929292929293 -1.363636363636363,4.191919191919193 -1.2626262626262625,4.090909090909092 -1.1616161616161613,3.989898989898992 -1.0606060606060603,3.8888888888888893 -0.9595959595959596,3.7878787878787885 -0.8585858585858579,3.6868686868686877 -0.7575757575757572,3.5858585858585874 -0.6565656565656557,3.4848484848484866 -0.555555555555555,3.383838383838384 -0.4545454545454544,3.2828282828282833 -0.35353535353535287,3.181818181818183 -0.2525252525252522,3.080808080808082 -0.15151515151515066,2.9797979797979806 -0.05050505050505001,2.87878787878788 0.050505050505051545,2.7777777777777786 0.1515151515151522,2.676767676767678 0.2525252525252529,2.575757575757577 0.3535353535353544,2.4747474747474754 0.4545454545454551,2.373737373737375 0.5555555555555567,2.2727272727272734 0.6565656565656574,2.2727272727272734 0.7575757575757579,2.2727272727272734 0.8585858585858596,2.2727272727272734" data-type="line" data-label="" points="306.9898989898991,40.000000000000114 316.5252525252526,49.53535353535369 326.0606060606061,59.07070707070733 335.59595959595964,68.60606060606085 345.13131313131316,78.14141414141432 354.6666666666667,87.67676767676778 364.2020202020202,97.21212121212153 373.7373737373738,106.747474747475 383.2727272727273,116.28282828282846 392.80808080808083,125.81818181818198 402.34343434343435,135.35353535353545 411.8787878787879,144.88888888888908 421.4141414141414,154.4242424242426 430.949494949495,163.95959595959613 440.4848484848485,173.4949494949496 450.0202020202021,183.03030303030312 459.55555555555554,192.56565656565675 469.09090909090907,202.10101010101027 478.62626262626264,211.63636363636374 488.16161616161617,221.17171717171726 497.69696969696975,230.70707070707084 507.2323232323232,240.24242424242436 516.7676767676768,249.77777777777794 526.3030303030303,259.3131313131314 535.8383838383838,268.84848484848493 545.3737373737374,278.38383838383857 554.9090909090909,287.91919191919203 564.4444444444445,297.4545454545456 573.9797979797979,297.4545454545456 583.5151515151515,297.4545454545456 593.0505050505051,297.4545454545456" fill="none" stroke="rgba(255,0,0,0.75)" stroke-width="11.327999999999996"/></g><g><polyline data-points="0.8585858585858596,2.2727272727272734 0.9595959595959602,2.1717171717171726 1.0606060606060617,2.070707070707072 1.1616161616161622,1.9696969696969702 1.262626262626263,1.9696969696969702 1.3636363636363644,1.9696969696969702 1.4646464646464652,1.9696969696969702 1.5656565656565666,1.9696969696969702 1.6666666666666674,1.9696969696969702 1.767676767676768,1.9696969696969702" data-type="line" data-label="" points="593.0505050505051,297.4545454545456 602.5858585858585,306.9898989898991 612.1212121212121,316.5252525252526 621.6565656565656,326.06060606060623 631.1919191919192,326.06060606060623 640.7272727272727,326.06060606060623 650.2626262626262,326.06060606060623 659.7979797979798,326.06060606060623 669.3333333333333,326.06060606060623 678.8686868686868,326.06060606060623" fill="none" stroke="rgba(0,0,255,0.75)" stroke-width="11.327999999999996"/></g><g><polyline data-points="1.767676767676768,1.9696969696969702 1.6666666666666674,1.8686868686868696 1.5656565656565666,1.767676767676768 1.4646464646464652,1.6666666666666674 1.3636363636363644,1.5656565656565666 1.4646464646464652,1.4646464646464652 1.5656565656565666,1.3636363636363644 1.6666666666666674,1.262626262626263 1.767676767676768,1.1616161616161622 1.8686868686868696,1.0606060606060617 1.9696969696969702,0.9595959595959602 2.070707070707072,0.8585858585858596 2.1717171717171726,0.7575757575757579 2.1717171717171726,0.6565656565656574 2.1717171717171726,0.5555555555555567 2.1717171717171726,0.4545454545454551 2.1717171717171726,0.3535353535353544 2.1717171717171726,0.2525252525252529 2.1717171717171726,0.1515151515151522 2.1717171717171726,0.050505050505051545 2.1717171717171726,-0.05050505050505001 2.1717171717171726,-0.15151515151515066 2.1717171717171726,-0.2525252525252522 2.1717171717171726,-0.35353535353535287 2.1717171717171726,-0.4545454545454544 2.1717171717171726,-0.555555555555555 2.1717171717171726,-0.6565656565656557 2.2727272727272734,-0.7575757575757572 2.2727272727272734,-0.8585858585858579 2.2727272727272734,-0.9595959595959596 2.2727272727272734,-1.0606060606060603 2.2727272727272734,-1.1616161616161613 2.2727272727272734,-1.2626262626262625 2.2727272727272734,-1.363636363636363 2.2727272727272734,-1.4646464646464643 2.2727272727272734,-1.5656565656565653 2.2727272727272734,-1.6666666666666665 2.2727272727272734,-1.7676767676767675 2.2727272727272734,-1.8686868686868683 2.2727272727272734,-1.9696969696969693 2.2727272727272734,-2.07070707070707 2.2727272727272734,-2.1717171717171713 2.2727272727272734,-2.2727272727272725 2.2727272727272734,-2.3737373737373733 2.2727272727272734,-2.474747474747474 2.2727272727272734,-2.5757575757575752 2.2727272727272734,-2.6767676767676765 2.2727272727272734,-2.7777777777777777 2.2727272727272734,-2.8787878787878785 2.2727272727272734,-2.9797979797979792 2.2727272727272734,-3.0808080808080804 2.2727272727272734,-3.1818181818181817 2.2727272727272734,-3.2828282828282824 2.2727272727272734,-3.383838383838383 2.2727272727272734,-3.484848484848485 2.2727272727272734,-3.5858585858585856 2.2727272727272734,-3.6868686868686864 2.2727272727272734,-3.7878787878787876 2.2727272727272734,-3.8888888888888884 2.2727272727272734,-3.98989898989899" data-type="line" data-label="" points="678.8686868686868,326.06060606060623 669.3333333333333,335.5959595959597 659.7979797979798,345.1313131313133 650.2626262626262,354.66666666666674 640.7272727272727,364.2020202020203 650.2626262626262,373.73737373737384 659.7979797979798,383.27272727272737 669.3333333333333,392.80808080808094 678.8686868686868,402.3434343434344 688.4040404040404,411.87878787878793 697.9393939393939,421.4141414141415 707.4747474747475,430.94949494949503 717.0101010101009,440.4848484848486 717.0101010101009,450.0202020202021 717.0101010101009,459.5555555555556 717.0101010101009,469.0909090909092 717.0101010101009,478.6262626262627 717.0101010101009,488.1616161616163 717.0101010101009,497.69696969696975 717.0101010101009,507.23232323232327 717.0101010101009,516.7676767676768 717.0101010101009,526.3030303030304 717.0101010101009,535.838383838384 717.0101010101009,545.3737373737374 717.0101010101009,554.909090909091 717.0101010101009,564.4444444444445 717.0101010101009,573.979797979798 726.5454545454545,583.5151515151516 726.5454545454545,593.0505050505051 726.5454545454545,602.5858585858587 726.5454545454545,612.1212121212121 726.5454545454545,621.6565656565657 726.5454545454545,631.1919191919193 726.5454545454545,640.7272727272727 726.5454545454545,650.2626262626263 726.5454545454545,659.7979797979798 726.5454545454545,669.3333333333334 726.5454545454545,678.8686868686868 726.5454545454545,688.4040404040404 726.5454545454545,697.939393939394 726.5454545454545,707.4747474747475 726.5454545454545,717.010101010101 726.5454545454545,726.5454545454545 726.5454545454545,736.0808080808081 726.5454545454545,745.6161616161615 726.5454545454545,755.1515151515151 726.5454545454545,764.6868686868687 726.5454545454545,774.2222222222222 726.5454545454545,783.7575757575758 726.5454545454545,793.2929292929292 726.5454545454545,802.8282828282828 726.5454545454545,812.3636363636363 726.5454545454545,821.8989898989898 726.5454545454545,831.4343434343434 726.5454545454545,840.969696969697 726.5454545454545,850.5050505050505 726.5454545454545,860.0404040404039 726.5454545454545,869.5757575757575 726.5454545454545,879.1111111111111 726.5454545454545,888.6464646464647" fill="none" stroke="rgba(255,0,0,0.75)" stroke-width="11.327999999999996"/></g><g><polyline data-points="2.2727272727272734,-3.98989898989899 2.373737373737375,-4.090909090909091 2.4747474747474754,-4.191919191919193 2.575757575757577,-4.292929292929293 2.676767676767678,-4.393939393939394 2.7777777777777786,-4.494949494949496 2.87878787878788,-4.595959595959596 2.87878787878788,-4.696969696969697 2.87878787878788,-4.7979797979797985 2.87878787878788,-4.898989898989899 2.87878787878788,-5.000000000000001" data-type="line" data-label="" points="726.5454545454545,888.6464646464647 736.0808080808081,898.1818181818181 745.6161616161615,907.7171717171718 755.1515151515151,917.2525252525252 764.6868686868686,926.7878787878788 774.2222222222222,936.3232323232323 783.7575757575758,945.8585858585858 783.7575757575758,955.3939393939394 783.7575757575758,964.9292929292928 783.7575757575758,974.4646464646464 783.7575757575758,984" fill="none" stroke="rgba(0,0,255,0.75)" stroke-width="11.327999999999996"/></g><g><polyline data-points="-5.000000000000001,-3.1818181818181817 -4.898989898989899,-3.0808080808080804 -4.7979797979797985,-2.9797979797979792 -4.696969696969697,-2.8787878787878785 -4.595959595959596,-2.7777777777777777 -4.494949494949496,-2.6767676767676765 -4.393939393939394,-2.5757575757575752 -4.292929292929293,-2.474747474747474 -4.191919191919193,-2.3737373737373733 -4.090909090909091,-2.2727272727272725 -3.98989898989899,-2.1717171717171713 -3.8888888888888884,-2.07070707070707 -3.7878787878787876,-1.9696969696969693 -3.6868686868686864,-1.8686868686868683 -3.5858585858585856,-1.7676767676767675 -3.484848484848485,-1.6666666666666665 -3.383838383838383,-1.5656565656565653 -3.2828282828282824,-1.4646464646464643 -3.1818181818181817,-1.363636363636363 -3.0808080808080804,-1.2626262626262625 -2.9797979797979792,-1.1616161616161613 -2.8787878787878785,-1.0606060606060603 -2.7777777777777777,-0.9595959595959596 -2.6767676767676765,-0.8585858585858579 -2.5757575757575752,-0.7575757575757572 -2.474747474747474,-0.6565656565656557 -2.3737373737373733,-0.555555555555555 -2.2727272727272725,-0.4545454545454544 -2.1717171717171713,-0.35353535353535287 -2.07070707070707,-0.2525252525252522 -1.9696969696969693,-0.15151515151515066 -1.8686868686868683,-0.05050505050505001 -1.7676767676767675,0.050505050505051545 -1.6666666666666665,0.1515151515151522 -1.5656565656565653,0.2525252525252529 -1.4646464646464643,0.3535353535353544 -1.363636363636363,0.3535353535353544 -1.2626262626262625,0.3535353535353544 -1.1616161616161613,0.3535353535353544 -1.0606060606060603,0.3535353535353544 -0.9595959595959596,0.3535353535353544 -0.8585858585858579,0.3535353535353544 -0.7575757575757572,0.3535353535353544 -0.6565656565656557,0.3535353535353544 -0.555555555555555,0.3535353535353544 -0.4545454545454544,0.3535353535353544 -0.35353535353535287,0.3535353535353544 -0.2525252525252522,0.3535353535353544 -0.15151515151515066,0.3535353535353544 -0.05050505050505001,0.3535353535353544 0.050505050505051545,0.3535353535353544" data-type="line" data-label="" points="40.00000000000006,812.3636363636363 49.53535353535369,802.8282828282828 59.07070707070716,793.2929292929292 68.60606060606068,783.7575757575758 78.14141414141426,774.2222222222222 87.67676767676772,764.6868686868687 97.21212121212136,755.1515151515151 106.74747474747483,745.6161616161615 116.28282828282829,736.0808080808081 125.81818181818193,726.5454545454545 135.35353535353545,717.010101010101 144.88888888888903,707.4747474747475 154.42424242424255,697.939393939394 163.95959595959607,688.4040404040404 173.4949494949496,678.8686868686868 183.03030303030312,669.3333333333334 192.5656565656567,659.7979797979798 202.10101010101022,650.2626262626263 211.63636363636374,640.7272727272727 221.17171717171726,631.1919191919193 230.70707070707084,621.6565656565657 240.2424242424243,612.1212121212121 249.77777777777783,602.5858585858587 259.3131313131314,593.0505050505051 268.84848484848493,583.5151515151516 278.38383838383845,573.979797979798 287.91919191919203,564.4444444444445 297.4545454545455,554.909090909091 306.9898989898991,545.3737373737374 316.5252525252526,535.838383838384 326.0606060606061,526.3030303030304 335.59595959595964,516.7676767676768 345.13131313131316,507.23232323232327 354.6666666666667,497.69696969696975 364.2020202020202,488.1616161616163 373.7373737373738,478.6262626262627 383.2727272727273,478.6262626262627 392.80808080808083,478.6262626262627 402.34343434343435,478.6262626262627 411.8787878787879,478.6262626262627 421.4141414141414,478.6262626262627 430.949494949495,478.6262626262627 440.4848484848485,478.6262626262627 450.0202020202021,478.6262626262627 459.55555555555554,478.6262626262627 469.09090909090907,478.6262626262627 478.62626262626264,478.6262626262627 488.16161616161617,478.6262626262627 497.69696969696975,478.6262626262627 507.2323232323232,478.6262626262627 516.7676767676768,478.6262626262627" fill="none" stroke="rgba(0,0,255,0.75)" stroke-width="11.327999999999996"/></g><g><polyline data-points="0.050505050505051545,0.3535353535353544 0.1515151515151522,0.4545454545454551 0.2525252525252529,0.5555555555555567 0.3535353535353544,0.6565656565656574 0.4545454545454551,0.7575757575757579 0.5555555555555567,0.8585858585858596 0.6565656565656574,0.9595959595959602 0.7575757575757579,1.0606060606060617 0.8585858585858596,1.1616161616161622 0.9595959595959602,1.262626262626263 1.0606060606060617,1.3636363636363644 1.1616161616161622,1.4646464646464652 1.1616161616161622,1.5656565656565666 1.1616161616161622,1.6666666666666674 1.262626262626263,1.767676767676768 1.3636363636363644,1.8686868686868696 1.4646464646464652,1.9696969696969702 1.5656565656565666,2.070707070707072 1.6666666666666674,2.1717171717171726 1.767676767676768,2.2727272727272734 1.8686868686868696,2.2727272727272734 1.9696969696969702,2.2727272727272734 2.070707070707072,2.2727272727272734 2.1717171717171726,2.373737373737375 2.2727272727272734,2.4747474747474754 2.373737373737375,2.575757575757577 2.4747474747474754,2.676767676767678 2.575757575757577,2.7777777777777786 2.676767676767678,2.87878787878788 2.7777777777777786,2.9797979797979806 2.87878787878788,3.080808080808082 2.9797979797979806,3.181818181818183 3.080808080808082,3.2828282828282833 3.181818181818183,3.383838383838384 3.2828282828282833,3.4848484848484866 3.383838383838384,3.5858585858585874 3.4848484848484866,3.6868686868686877 3.5858585858585874,3.7878787878787885 3.6868686868686877,3.8888888888888893 3.7878787878787885,3.989898989898992 3.8888888888888893,4.090909090909092 3.989898989898992,4.191919191919193 4.090909090909092,4.090909090909092 4.191919191919193,3.989898989898992 4.292929292929293,3.8888888888888893 4.393939393939394,3.7878787878787885 4.494949494949497,3.6868686868686877 4.595959595959597,3.5858585858585874 4.696969696969697,3.4848484848484866 4.7979797979797985,3.383838383838384 4.898989898989901,3.2828282828282833 4.898989898989901,3.181818181818183 4.898989898989901,3.080808080808082 4.898989898989901,2.9797979797979806 4.898989898989901,2.87878787878788 4.898989898989901,2.7777777777777786 4.898989898989901,2.676767676767678 4.898989898989901,2.575757575757577 4.898989898989901,2.4747474747474754 4.898989898989901,2.373737373737375 4.898989898989901,2.2727272727272734 4.898989898989901,2.1717171717171726 4.898989898989901,2.070707070707072 5.000000000000002,1.9696969696969702 5.000000000000002,1.8686868686868696 5.000000000000002,1.767676767676768 5.000000000000002,1.6666666666666674 5.000000000000002,1.5656565656565666 5.000000000000002,1.4646464646464652 5.000000000000002,1.3636363636363644 5.000000000000002,1.262626262626263 5.000000000000002,1.1616161616161622 5.000000000000002,1.0606060606060617 5.000000000000002,0.9595959595959602 5.000000000000002,0.8585858585858596 5.000000000000002,0.7575757575757579 5.000000000000002,0.6565656565656574 5.000000000000002,0.5555555555555567 5.000000000000002,0.4545454545454551 5.000000000000002,0.3535353535353544" data-type="line" data-label="" points="516.7676767676768,478.6262626262627 526.3030303030303,469.0909090909092 535.8383838383838,459.5555555555556 545.3737373737374,450.0202020202021 554.9090909090909,440.4848484848486 564.4444444444445,430.94949494949503 573.9797979797979,421.4141414141415 583.5151515151515,411.87878787878793 593.0505050505051,402.3434343434344 602.5858585858585,392.80808080808094 612.1212121212121,383.27272727272737 621.6565656565656,373.73737373737384 621.6565656565656,364.2020202020203 621.6565656565656,354.66666666666674 631.1919191919192,345.1313131313133 640.7272727272727,335.5959595959597 650.2626262626262,326.06060606060623 659.7979797979798,316.5252525252526 669.3333333333333,306.9898989898991 678.8686868686868,297.4545454545456 688.4040404040404,297.4545454545456 697.9393939393939,297.4545454545456 707.4747474747475,297.4545454545456 717.0101010101009,287.91919191919203 726.5454545454545,278.38383838383857 736.0808080808081,268.84848484848493 745.6161616161615,259.3131313131314 755.1515151515151,249.77777777777794 764.6868686868686,240.24242424242436 774.2222222222222,230.70707070707084 783.7575757575758,221.17171717171726 793.2929292929292,211.63636363636374 802.8282828282828,202.10101010101027 812.3636363636363,192.56565656565675 821.8989898989898,183.03030303030312 831.4343434343433,173.4949494949496 840.969696969697,163.95959595959613 850.5050505050505,154.4242424242426 860.0404040404039,144.88888888888908 869.5757575757575,135.35353535353545 879.111111111111,125.81818181818198 888.6464646464647,116.28282828282846 898.181818181818,125.81818181818198 907.7171717171716,135.35353535353545 917.2525252525251,144.88888888888908 926.7878787878785,154.4242424242426 936.3232323232323,163.95959595959613 945.8585858585857,173.4949494949496 955.3939393939393,183.03030303030312 964.9292929292927,192.56565656565675 974.4646464646464,202.10101010101027 974.4646464646464,211.63636363636374 974.4646464646464,221.17171717171726 974.4646464646464,230.70707070707084 974.4646464646464,240.24242424242436 974.4646464646464,249.77777777777794 974.4646464646464,259.3131313131314 974.4646464646464,268.84848484848493 974.4646464646464,278.38383838383857 974.4646464646464,287.91919191919203 974.4646464646464,297.4545454545456 974.4646464646464,306.9898989898991 974.4646464646464,316.5252525252526 984,326.06060606060623 984,335.5959595959597 984,345.1313131313133 984,354.66666666666674 984,364.2020202020203 984,373.73737373737384 984,383.27272727272737 984,392.80808080808094 984,402.3434343434344 984,411.87878787878793 984,421.4141414141415 984,430.94949494949503 984,440.4848484848486 984,450.0202020202021 984,459.5555555555556 984,469.0909090909092 984,478.6262626262627" fill="none" stroke="rgba(255,0,0,0.75)" stroke-width="11.327999999999996"/></g><g><polyline data-points="0.5555555555555567,-5.000000000000001 0.6565656565656574,-5.000000000000001 0.7575757575757579,-4.898989898989899 0.8585858585858596,-4.7979797979797985 0.9595959595959602,-4.696969696969697 1.0606060606060617,-4.595959595959596 1.1616161616161622,-4.494949494949496 1.262626262626263,-4.393939393939394 1.3636363636363644,-4.292929292929293 1.4646464646464652,-4.191919191919193 1.3636363636363644,-4.090909090909091 1.3636363636363644,-3.98989898989899" data-type="line" data-label="" points="564.4444444444445,984 573.9797979797979,984 583.5151515151515,974.4646464646464 593.0505050505051,964.9292929292928 602.5858585858585,955.3939393939394 612.1212121212121,945.8585858585858 621.6565656565656,936.3232323232323 631.1919191919192,926.7878787878788 640.7272727272727,917.2525252525252 650.2626262626262,907.7171717171718 640.7272727272727,898.1818181818181 640.7272727272727,888.6464646464647" fill="none" stroke="rgba(0,0,255,0.75)" stroke-width="11.327999999999996"/></g><g><polyline data-points="1.3636363636363644,-3.98989898989899 1.4646464646464652,-3.8888888888888884 1.5656565656565666,-3.7878787878787876 1.6666666666666674,-3.6868686868686864 1.767676767676768,-3.5858585858585856 1.8686868686868696,-3.484848484848485 1.8686868686868696,-3.383838383838383 1.8686868686868696,-3.2828282828282824 1.8686868686868696,-3.1818181818181817 1.8686868686868696,-3.0808080808080804 1.8686868686868696,-2.9797979797979792 1.8686868686868696,-2.8787878787878785 1.8686868686868696,-2.7777777777777777 1.8686868686868696,-2.6767676767676765 1.8686868686868696,-2.5757575757575752 1.8686868686868696,-2.474747474747474 1.8686868686868696,-2.3737373737373733 1.8686868686868696,-2.2727272727272725 1.8686868686868696,-2.1717171717171713 1.8686868686868696,-2.07070707070707 1.8686868686868696,-1.9696969696969693 1.8686868686868696,-1.8686868686868683 1.8686868686868696,-1.7676767676767675 1.8686868686868696,-1.6666666666666665 1.8686868686868696,-1.5656565656565653" data-type="line" data-label="" points="640.7272727272727,888.6464646464647 650.2626262626262,879.1111111111111 659.7979797979798,869.5757575757575 669.3333333333333,860.0404040404039 678.8686868686868,850.5050505050505 688.4040404040404,840.969696969697 688.4040404040404,831.4343434343434 688.4040404040404,821.8989898989898 688.4040404040404,812.3636363636363 688.4040404040404,802.8282828282828 688.4040404040404,793.2929292929292 688.4040404040404,783.7575757575758 688.4040404040404,774.2222222222222 688.4040404040404,764.6868686868687 688.4040404040404,755.1515151515151 688.4040404040404,745.6161616161615 688.4040404040404,736.0808080808081 688.4040404040404,726.5454545454545 688.4040404040404,717.010101010101 688.4040404040404,707.4747474747475 688.4040404040404,697.939393939394 688.4040404040404,688.4040404040404 688.4040404040404,678.8686868686868 688.4040404040404,669.3333333333334 688.4040404040404,659.7979797979798" fill="none" stroke="rgba(255,0,0,0.75)" stroke-width="11.327999999999996"/></g><g><polyline data-points="1.8686868686868696,-1.5656565656565653 1.9696969696969702,-1.4646464646464643 2.070707070707072,-1.363636363636363 2.1717171717171726,-1.2626262626262625 2.2727272727272734,-1.1616161616161613 2.373737373737375,-1.0606060606060603 2.4747474747474754,-0.9595959595959596 2.575757575757577,-0.8585858585858579 2.676767676767678,-0.7575757575757572 2.7777777777777786,-0.6565656565656557 2.87878787878788,-0.555555555555555 2.9797979797979806,-0.4545454545454544 3.080808080808082,-0.35353535353535287 3.181818181818183,-0.2525252525252522 3.2828282828282833,-0.15151515151515066 3.383838383838384,-0.05050505050505001 3.383838383838384,0.050505050505051545 3.383838383838384,0.1515151515151522 3.383838383838384,0.2525252525252529 3.383838383838384,0.3535353535353544 3.2828282828282833,0.4545454545454551 3.2828282828282833,0.5555555555555567 3.2828282828282833,0.6565656565656574 3.2828282828282833,0.7575757575757579 3.2828282828282833,0.8585858585858596 3.2828282828282833,0.9595959595959602 3.2828282828282833,1.0606060606060617 3.2828282828282833,1.1616161616161622 3.2828282828282833,1.262626262626263 3.2828282828282833,1.3636363636363644 3.2828282828282833,1.4646464646464652" data-type="line" data-label="" points="688.4040404040404,659.7979797979798 697.9393939393939,650.2626262626263 707.4747474747475,640.7272727272727 717.0101010101009,631.1919191919193 726.5454545454545,621.6565656565657 736.0808080808081,612.1212121212121 745.6161616161615,602.5858585858587 755.1515151515151,593.0505050505051 764.6868686868686,583.5151515151516 774.2222222222222,573.979797979798 783.7575757575758,564.4444444444445 793.2929292929292,554.909090909091 802.8282828282828,545.3737373737374 812.3636363636363,535.838383838384 821.8989898989898,526.3030303030304 831.4343434343433,516.7676767676768 831.4343434343433,507.23232323232327 831.4343434343433,497.69696969696975 831.4343434343433,488.1616161616163 831.4343434343433,478.6262626262627 821.8989898989898,469.0909090909092 821.8989898989898,459.5555555555556 821.8989898989898,450.0202020202021 821.8989898989898,440.4848484848486 821.8989898989898,430.94949494949503 821.8989898989898,421.4141414141415 821.8989898989898,411.87878787878793 821.8989898989898,402.3434343434344 821.8989898989898,392.80808080808094 821.8989898989898,383.27272727272737 821.8989898989898,373.73737373737384" fill="none" stroke="rgba(0,0,255,0.75)" stroke-width="11.327999999999996"/></g><g><polyline data-points="3.2828282828282833,1.4646464646464652 3.2828282828282833,1.5656565656565666 3.2828282828282833,1.6666666666666674 3.2828282828282833,1.767676767676768 3.2828282828282833,1.8686868686868696 3.2828282828282833,1.9696969696969702 3.2828282828282833,2.070707070707072 3.2828282828282833,2.1717171717171726 3.2828282828282833,2.2727272727272734 3.2828282828282833,2.373737373737375 3.2828282828282833,2.4747474747474754 3.2828282828282833,2.575757575757577 3.2828282828282833,2.676767676767678 3.2828282828282833,2.7777777777777786 3.2828282828282833,2.87878787878788 3.2828282828282833,2.9797979797979806" data-type="line" data-label="" points="821.8989898989898,373.73737373737384 821.8989898989898,364.2020202020203 821.8989898989898,354.66666666666674 821.8989898989898,345.1313131313133 821.8989898989898,335.5959595959597 821.8989898989898,326.06060606060623 821.8989898989898,316.5252525252526 821.8989898989898,306.9898989898991 821.8989898989898,297.4545454545456 821.8989898989898,287.91919191919203 821.8989898989898,278.38383838383857 821.8989898989898,268.84848484848493 821.8989898989898,259.3131313131314 821.8989898989898,249.77777777777794 821.8989898989898,240.24242424242436 821.8989898989898,230.70707070707084" fill="none" stroke="rgba(255,0,0,0.75)" stroke-width="11.327999999999996"/></g><g><polyline data-points="3.2828282828282833,2.9797979797979806 3.2828282828282833,3.080808080808082 3.2828282828282833,3.181818181818183 3.383838383838384,3.2828282828282833 3.4848484848484866,3.383838383838384 3.5858585858585874,3.4848484848484866 3.6868686868686877,3.5858585858585874 3.7878787878787885,3.6868686868686877 3.8888888888888893,3.7878787878787885 3.8888888888888893,3.8888888888888893 3.989898989898992,3.989898989898992 4.090909090909092,4.090909090909092 4.191919191919193,4.191919191919193 4.292929292929293,4.292929292929293 4.393939393939394,4.393939393939394 4.393939393939394,4.494949494949497 4.393939393939394,4.595959595959597 4.393939393939394,4.696969696969697 4.393939393939394,4.7979797979797985 4.393939393939394,4.898989898989901 4.494949494949497,5.000000000000002" data-type="line" data-label="" points="821.8989898989898,230.70707070707084 821.8989898989898,221.17171717171726 821.8989898989898,211.63636363636374 831.4343434343433,202.10101010101027 840.969696969697,192.56565656565675 850.5050505050505,183.03030303030312 860.0404040404039,173.4949494949496 869.5757575757575,163.95959595959613 879.111111111111,154.4242424242426 879.111111111111,144.88888888888908 888.6464646464647,135.35353535353545 898.181818181818,125.81818181818198 907.7171717171716,116.28282828282846 917.2525252525251,106.747474747475 926.7878787878785,97.21212121212153 926.7878787878785,87.67676767676778 926.7878787878785,78.14141414141432 926.7878787878785,68.60606060606085 926.7878787878785,59.07070707070733 926.7878787878785,49.53535353535369 936.3232323232323,40.000000000000114" fill="none" stroke="rgba(0,0,255,0.75)" stroke-width="11.327999999999996"/></g><g><polyline data-points="5.000000000000002,2.070707070707072 4.898989898989901,2.070707070707072 4.7979797979797985,1.9696969696969702 4.696969696969697,1.8686868686868696 4.595959595959597,1.767676767676768 4.494949494949497,1.6666666666666674 4.393939393939394,1.5656565656565666 4.292929292929293,1.4646464646464652 4.191919191919193,1.3636363636363644 4.090909090909092,1.262626262626263 4.191919191919193,1.1616161616161622 4.191919191919193,1.0606060606060617 4.191919191919193,0.9595959595959602 4.191919191919193,0.8585858585858596 4.191919191919193,0.7575757575757579 4.191919191919193,0.6565656565656574 4.191919191919193,0.5555555555555567 4.191919191919193,0.4545454545454551 4.191919191919193,0.3535353535353544 4.191919191919193,0.2525252525252529 4.191919191919193,0.1515151515151522 4.191919191919193,0.050505050505051545 4.191919191919193,-0.05050505050505001 4.191919191919193,-0.15151515151515066 4.191919191919193,-0.2525252525252522 4.191919191919193,-0.35353535353535287 4.191919191919193,-0.4545454545454544 4.191919191919193,-0.555555555555555 4.191919191919193,-0.6565656565656557 4.191919191919193,-0.7575757575757572 4.191919191919193,-0.8585858585858579 4.191919191919193,-0.9595959595959596 4.191919191919193,-1.0606060606060603 4.191919191919193,-1.1616161616161613 4.191919191919193,-1.2626262626262625 4.191919191919193,-1.363636363636363 4.191919191919193,-1.4646464646464643 4.090909090909092,-1.5656565656565653 3.989898989898992,-1.6666666666666665 3.8888888888888893,-1.7676767676767675 3.7878787878787885,-1.8686868686868683 3.6868686868686877,-1.9696969696969693 3.5858585858585874,-2.07070707070707 3.4848484848484866,-2.1717171717171713 3.383838383838384,-2.2727272727272725 3.2828282828282833,-2.3737373737373733 3.181818181818183,-2.474747474747474 3.080808080808082,-2.5757575757575752 2.9797979797979806,-2.6767676767676765 2.87878787878788,-2.7777777777777777 2.7777777777777786,-2.8787878787878785 2.676767676767678,-2.9797979797979792 2.575757575757577,-3.0808080808080804 2.4747474747474754,-3.1818181818181817 2.373737373737375,-3.2828282828282824 2.2727272727272734,-3.383838383838383 2.1717171717171726,-3.484848484848485 2.070707070707072,-3.5858585858585856 1.9696969696969702,-3.6868686868686864 1.8686868686868696,-3.7878787878787876 1.767676767676768,-3.6868686868686864 1.6666666666666674,-3.6868686868686864 1.5656565656565666,-3.6868686868686864 1.4646464646464652,-3.6868686868686864 1.3636363636363644,-3.6868686868686864 1.262626262626263,-3.6868686868686864 1.1616161616161622,-3.6868686868686864 1.0606060606060617,-3.6868686868686864 0.9595959595959602,-3.6868686868686864 0.8585858585858596,-3.6868686868686864 0.7575757575757579,-3.6868686868686864 0.6565656565656574,-3.6868686868686864 0.5555555555555567,-3.6868686868686864 0.4545454545454551,-3.6868686868686864 0.3535353535353544,-3.6868686868686864 0.2525252525252529,-3.6868686868686864 0.1515151515151522,-3.6868686868686864 0.050505050505051545,-3.6868686868686864 -0.05050505050505001,-3.6868686868686864 -0.15151515151515066,-3.6868686868686864 -0.2525252525252522,-3.6868686868686864 -0.35353535353535287,-3.6868686868686864 -0.4545454545454544,-3.6868686868686864 -0.555555555555555,-3.6868686868686864 -0.6565656565656557,-3.6868686868686864 -0.7575757575757572,-3.5858585858585856 -0.8585858585858579,-3.5858585858585856 -0.9595959595959596,-3.5858585858585856 -1.0606060606060603,-3.5858585858585856 -1.1616161616161613,-3.5858585858585856 -1.2626262626262625,-3.5858585858585856 -1.363636363636363,-3.5858585858585856 -1.4646464646464643,-3.5858585858585856 -1.5656565656565653,-3.5858585858585856 -1.6666666666666665,-3.5858585858585856 -1.7676767676767675,-3.5858585858585856 -1.8686868686868683,-3.5858585858585856 -1.9696969696969693,-3.5858585858585856 -2.07070707070707,-3.5858585858585856 -2.1717171717171713,-3.5858585858585856 -2.2727272727272725,-3.5858585858585856 -2.3737373737373733,-3.5858585858585856 -2.474747474747474,-3.5858585858585856 -2.5757575757575752,-3.5858585858585856 -2.6767676767676765,-3.5858585858585856 -2.7777777777777777,-3.5858585858585856 -2.8787878787878785,-3.5858585858585856 -2.9797979797979792,-3.5858585858585856 -3.0808080808080804,-3.5858585858585856 -3.1818181818181817,-3.5858585858585856 -3.2828282828282824,-3.5858585858585856 -3.383838383838383,-3.5858585858585856 -3.484848484848485,-3.6868686868686864 -3.5858585858585856,-3.7878787878787876 -3.6868686868686864,-3.8888888888888884 -3.7878787878787876,-3.98989898989899 -3.8888888888888884,-4.090909090909091 -3.98989898989899,-4.191919191919193 -4.090909090909091,-4.292929292929293 -4.191919191919193,-4.393939393939394 -4.292929292929293,-4.494949494949496 -4.393939393939394,-4.595959595959596 -4.393939393939394,-4.696969696969697 -4.393939393939394,-4.7979797979797985 -4.393939393939394,-4.898989898989899 -4.292929292929293,-5.000000000000001" data-type="line" data-label="" points="984,316.5252525252526 974.4646464646464,316.5252525252526 964.9292929292927,326.06060606060623 955.3939393939393,335.5959595959597 945.8585858585857,345.1313131313133 936.3232323232323,354.66666666666674 926.7878787878785,364.2020202020203 917.2525252525251,373.73737373737384 907.7171717171716,383.27272727272737 898.181818181818,392.80808080808094 907.7171717171716,402.3434343434344 907.7171717171716,411.87878787878793 907.7171717171716,421.4141414141415 907.7171717171716,430.94949494949503 907.7171717171716,440.4848484848486 907.7171717171716,450.0202020202021 907.7171717171716,459.5555555555556 907.7171717171716,469.0909090909092 907.7171717171716,478.6262626262627 907.7171717171716,488.1616161616163 907.7171717171716,497.69696969696975 907.7171717171716,507.23232323232327 907.7171717171716,516.7676767676768 907.7171717171716,526.3030303030304 907.7171717171716,535.838383838384 907.7171717171716,545.3737373737374 907.7171717171716,554.909090909091 907.7171717171716,564.4444444444445 907.7171717171716,573.979797979798 907.7171717171716,583.5151515151516 907.7171717171716,593.0505050505051 907.7171717171716,602.5858585858587 907.7171717171716,612.1212121212121 907.7171717171716,621.6565656565657 907.7171717171716,631.1919191919193 907.7171717171716,640.7272727272727 907.7171717171716,650.2626262626263 898.181818181818,659.7979797979798 888.6464646464647,669.3333333333334 879.111111111111,678.8686868686868 869.5757575757575,688.4040404040404 860.0404040404039,697.939393939394 850.5050505050505,707.4747474747475 840.969696969697,717.010101010101 831.4343434343433,726.5454545454545 821.8989898989898,736.0808080808081 812.3636363636363,745.6161616161615 802.8282828282828,755.1515151515151 793.2929292929292,764.6868686868687 783.7575757575758,774.2222222222222 774.2222222222222,783.7575757575758 764.6868686868686,793.2929292929292 755.1515151515151,802.8282828282828 745.6161616161615,812.3636363636363 736.0808080808081,821.8989898989898 726.5454545454545,831.4343434343434 717.0101010101009,840.969696969697 707.4747474747475,850.5050505050505 697.9393939393939,860.0404040404039 688.4040404040404,869.5757575757575 678.8686868686868,860.0404040404039 669.3333333333333,860.0404040404039 659.7979797979798,860.0404040404039 650.2626262626262,860.0404040404039 640.7272727272727,860.0404040404039 631.1919191919192,860.0404040404039 621.6565656565656,860.0404040404039 612.1212121212121,860.0404040404039 602.5858585858585,860.0404040404039 593.0505050505051,860.0404040404039 583.5151515151515,860.0404040404039 573.9797979797979,860.0404040404039 564.4444444444445,860.0404040404039 554.9090909090909,860.0404040404039 545.3737373737374,860.0404040404039 535.8383838383838,860.0404040404039 526.3030303030303,860.0404040404039 516.7676767676768,860.0404040404039 507.2323232323232,860.0404040404039 497.69696969696975,860.0404040404039 488.16161616161617,860.0404040404039 478.62626262626264,860.0404040404039 469.09090909090907,860.0404040404039 459.55555555555554,860.0404040404039 450.0202020202021,860.0404040404039 440.4848484848485,850.5050505050505 430.949494949495,850.5050505050505 421.4141414141414,850.5050505050505 411.8787878787879,850.5050505050505 402.34343434343435,850.5050505050505 392.80808080808083,850.5050505050505 383.2727272727273,850.5050505050505 373.7373737373738,850.5050505050505 364.2020202020202,850.5050505050505 354.6666666666667,850.5050505050505 345.13131313131316,850.5050505050505 335.59595959595964,850.5050505050505 326.0606060606061,850.5050505050505 316.5252525252526,850.5050505050505 306.9898989898991,850.5050505050505 297.4545454545455,850.5050505050505 287.91919191919203,850.5050505050505 278.38383838383845,850.5050505050505 268.84848484848493,850.5050505050505 259.3131313131314,850.5050505050505 249.77777777777783,850.5050505050505 240.2424242424243,850.5050505050505 230.70707070707084,850.5050505050505 221.17171717171726,850.5050505050505 211.63636363636374,850.5050505050505 202.10101010101022,850.5050505050505 192.5656565656567,850.5050505050505 183.03030303030312,860.0404040404039 173.4949494949496,869.5757575757575 163.95959595959607,879.1111111111111 154.42424242424255,888.6464646464647 144.88888888888903,898.1818181818181 135.35353535353545,907.7171717171718 125.81818181818193,917.2525252525252 116.28282828282829,926.7878787878788 106.74747474747483,936.3232323232323 97.21212121212136,945.8585858585858 97.21212121212136,955.3939393939394 97.21212121212136,964.9292929292928 97.21212121212136,974.4646464646464 106.74747474747483,984" fill="none" stroke="rgba(0,0,255,0.75)" stroke-width="11.327999999999996"/></g><g><rect data-type="rect" data-label="" data-x="0" data-y="0" x="40.000000000000114" y="40.000000000000284" width="943.9999999999997" height="943.9999999999998" fill="none" stroke="gray" stroke-width="0.010593220338983056"/></g><g><rect data-type="rect" data-label="" data-x="0" data-y="0" x="40.000000000000114" y="40.000000000000284" width="943.9999999999997" height="943.9999999999998" fill="none" stroke="rgba(15, 23, 42, 0.8)" stroke-width="0.010593220338983056"/></g><circle data-type="circle" data-label="" data-x="-3.383838383838383" data-y="-3.98989898989899" cx="192.5656565656567" cy="888.6464646464647" r="14.159999999999995" fill="rgba(0,0,0,0.3)" stroke="black" stroke-width="0.010593220338983056"/><circle data-type="circle" data-label="" data-x="-2.07070707070707" data-y="-0.6565656565656557" cx="316.5252525252526" cy="573.979797979798" r="14.159999999999995" fill="rgba(0,0,0,0.3)" stroke="black" stroke-width="0.010593220338983056"/><circle data-type="circle" data-label="" data-x="2.87878787878788" data-y="-2.1717171717171713" cx="783.7575757575758" cy="717.010101010101" r="14.159999999999995" fill="rgba(0,0,0,0.3)" stroke="black" stroke-width="0.010593220338983056"/><circle data-type="circle" data-label="" data-x="3.989898989898992" data-y="-2.1717171717171713" cx="888.6464646464647" cy="717.010101010101" r="14.159999999999995" fill="rgba(0,0,0,0.3)" stroke="black" stroke-width="0.010593220338983056"/><circle data-type="circle" data-label="" data-x="1.6666666666666674" data-y="1.5656565656565666" cx="669.3333333333333" cy="364.2020202020203" r="14.159999999999995" fill="rgba(0,0,0,0.3)" stroke="black" stroke-width="0.010593220338983056"/><circle data-type="circle" data-label="" data-x="3.5858585858585874" data-y="3.181818181818183" cx="850.5050505050505" cy="211.63636363636374" r="14.159999999999995" fill="rgba(0,0,0,0.3)" stroke="black" stroke-width="0.010593220338983056"/><circle data-type="circle" data-label="" data-x="0.8585858585858596" data-y="2.2727272727272734" cx="593.0505050505051" cy="297.4545454545456" r="14.159999999999995" fill="rgba(0,0,0,0.3)" stroke="black" stroke-width="0.010593220338983056"/><circle data-type="circle" data-label="" data-x="1.767676767676768" data-y="1.9696969696969702" cx="678.8686868686868" cy="326.06060606060623" r="14.159999999999995" fill="rgba(0,0,0,0.3)" stroke="black" stroke-width="0.010593220338983056"/><circle data-type="circle" data-label="" data-x="2.2727272727272734" data-y="-3.98989898989899" cx="726.5454545454545" cy="888.6464646464647" r="14.159999999999995" fill="rgba(0,0,0,0.3)" stroke="black" stroke-width="0.010593220338983056"/><circle data-type="circle" data-label="" data-x="0.050505050505051545" data-y="0.3535353535353544" cx="516.7676767676768" cy="478.6262626262627" r="14.159999999999995" fill="rgba(0,0,0,0.3)" stroke="black" stroke-width="0.010593220338983056"/><circle data-type="circle" data-label="" data-x="1.3636363636363644" data-y="-3.98989898989899" cx="640.7272727272727" cy="888.6464646464647" r="14.159999999999995" fill="rgba(0,0,0,0.3)" stroke="black" stroke-width="0.010593220338983056"/><circle data-type="circle" data-label="" data-x="1.8686868686868696" data-y="-1.5656565656565653" cx="688.4040404040404" cy="659.7979797979798" r="14.159999999999995" fill="rgba(0,0,0,0.3)" stroke="black" stroke-width="0.010593220338983056"/><circle data-type="circle" data-label="" data-x="3.2828282828282833" data-y="1.4646464646464652" cx="821.8989898989898" cy="373.73737373737384" r="14.159999999999995" fill="rgba(0,0,0,0.3)" stroke="black" stroke-width="0.010593220338983056"/><circle data-type="circle" data-label="" data-x="3.2828282828282833" data-y="2.9797979797979806" cx="821.8989898989898" cy="230.70707070707084" r="14.159999999999995" fill="rgba(0,0,0,0.3)" stroke="black" stroke-width="0.010593220338983056"/><g id="crosshair" style="display: none"><line id="crosshair-h" y1="0" y2="1024" stroke="#666" stroke-width="0.5"/><line id="crosshair-v" x1="0" x2="1024" stroke="#666" stroke-width="0.5"/><text id="coordinates" font-family="monospace" font-size="12" fill="#666"></text></g><script><![CDATA[
              document.currentScript.parentElement.addEventListener('mousemove', (e) => {
                const svg = e.currentTarget;
                const rect = svg.getBoundingClientRect();
                const x = e.clientX - rect.left;
                const y = e.clientY - rect.top;
                const crosshair = svg.getElementById('crosshair');
                const h = svg.getElementById('crosshair-h');
                const v = svg.getElementById('crosshair-v');
                const coords = svg.getElementById('coordinates');
                
                crosshair.style.display = 'block';
                h.setAttribute('x1', '0');
                h.setAttribute('x2', '1024');
                h.setAttribute('y1', y);
                h.setAttribute('y2', y);
                v.setAttribute('x1', x);
                v.setAttribute('x2', x);
                v.setAttribute('y1', '0');
                v.setAttribute('y2', '1024');

                // Calculate real coordinates using inverse transformation
                const matrix = {"a":94.39999999999996,"c":0,"e":511.99999999999994,"b":0,"d":-94.39999999999996,"f":512.0000000000001};
                // Manually invert and apply the affine transform
                // Since we only use translate and scale, we can directly compute:
                // x' = (x - tx) / sx
                // y' = (y - ty) / sy
                const sx = matrix.a;
                const sy = matrix.d;
                const tx = matrix.e; 
                const ty = matrix.f;
                const realPoint = {
                  x: (x - tx) / sx,
                  y: (y - ty) / sy // Flip y back since we used negative scale
                }
                
                coords.textContent = `(${realPoint.x.toFixed(2)}, ${realPoint.y.toFixed(2)})`;
                coords.setAttribute('x', (x + 5).toString());
                coords.setAttribute('y', (y - 5).toString());
              });
              document.currentScript.parentElement.addEventListener('mouseleave', () => {
                document.currentScript.parentElement.getElementById('crosshair').style.display = 'none';
              });
            ]]></script></svg>