<svg width="1024" height="1024" viewBox="0 0 1024 1024" xmlns="http://www.w3.org/2000/svg"><rect width="100%" height="100%" fill="white"/><g><circle data-type="point" data-label="conn_000" data-x="-1.56" data-y="5" cx="364.73600000000005" cy="40.000000000000284" r="14.16" fill="blue"/></g><g><circle data-type="point" data-label="conn_000" data-x="-3.2800000000000002" data-y="-5" cx="202.3680000000001" cy="984" r="14.16" fill="blue"/></g><g><circle data-type="point" data-label="conn_001" data-x="0.5" data-y="5" cx="559.1999999999999" cy="40.000000000000284" r="14.16" fill="red"/></g><g><circle data-type="point" data-label="conn_001" data-x="1.3800000000000001" data-y="-5" cx="642.2719999999999" cy="984" r="14.16" fill="red"/></g><g><circle data-type="point" data-label="conn_002" data-x="-1.46" data-y="-5" cx="374.17600000000004" cy="984" r="14.16" fill="blue"/></g><g><circle data-type="point" data-label="conn_002" data-x="-4.0200000000000005" data-y="5" cx="132.5120000000001" cy="40.000000000000284" r="14.16" fill="red"/></g><g><circle data-type="point" data-label="conn_003" data-x="-4.78" data-y="-5" cx="60.76800000000014" cy="984" r="14.16" fill="red"/></g><g><circle data-type="point" data-label="conn_003" data-x="2.54" data-y="5" cx="751.7759999999998" cy="40.000000000000284" r="14.16" fill="blue"/></g><g><polyline data-points="0.5555555555555567,5.000000000000002 0.6565656565656574,4.898989898989901 0.7575757575757579,4.7979797979797985 0.8585858585858596,4.696969696969697 0.9595959595959602,4.595959595959597 1.0606060606060617,4.494949494949497 1.1616161616161622,4.393939393939394 1.262626262626263,4.292929292929293 1.3636363636363644,4.191919191919193 1.3636363636363644,4.090909090909092 1.3636363636363644,3.989898989898992 1.3636363636363644,3.8888888888888893 1.3636363636363644,3.7878787878787885 1.3636363636363644,3.6868686868686877 1.3636363636363644,3.5858585858585874 1.3636363636363644,3.4848484848484866 1.3636363636363644,3.383838383838384 1.3636363636363644,3.2828282828282833 1.3636363636363644,3.181818181818183 1.3636363636363644,3.080808080808082 1.3636363636363644,2.9797979797979806 1.3636363636363644,2.87878787878788 1.3636363636363644,2.7777777777777786 1.3636363636363644,2.676767676767678 1.3636363636363644,2.575757575757577 1.3636363636363644,2.4747474747474754 1.3636363636363644,2.373737373737375 1.3636363636363644,2.2727272727272734 1.3636363636363644,2.1717171717171726 1.3636363636363644,2.070707070707072 1.3636363636363644,1.9696969696969702 1.3636363636363644,1.8686868686868696 1.3636363636363644,1.767676767676768 1.3636363636363644,1.6666666666666674 1.3636363636363644,1.5656565656565666 1.3636363636363644,1.4646464646464652 1.3636363636363644,1.3636363636363644 1.3636363636363644,1.262626262626263 1.3636363636363644,1.1616161616161622 1.3636363636363644,1.0606060606060617 1.3636363636363644,0.9595959595959602 1.3636363636363644,0.8585858585858596 1.3636363636363644,0.7575757575757579 1.3636363636363644,0.6565656565656574 1.3636363636363644,0.5555555555555567 1.3636363636363644,0.4545454545454551 1.3636363636363644,0.3535353535353544 1.3636363636363644,0.2525252525252529 1.3636363636363644,0.1515151515151522 1.3636363636363644,0.050505050505051545 1.3636363636363644,-0.05050505050505001 1.3636363636363644,-0.15151515151515066 1.3636363636363644,-0.2525252525252522 1.3636363636363644,-0.35353535353535287 1.3636363636363644,-0.4545454545454544 1.3636363636363644,-0.555555555555555 1.3636363636363644,-0.6565656565656557 1.3636363636363644,-0.7575757575757572 1.3636363636363644,-0.8585858585858579 1.3636363636363644,-0.9595959595959596 1.3636363636363644,-1.0606060606060603 1.3636363636363644,-1.1616161616161613 1.3636363636363644,-1.2626262626262625 1.3636363636363644,-1.363636363636363 1.3636363636363644,-1.4646464646464643 1.3636363636363644,-1.5656565656565653 1.3636363636363644,-1.6666666666666665 1.3636363636363644,-1.7676767676767675 1.3636363636363644,-1.8686868686868683 1.3636363636363644,-1.9696969696969693 1.3636363636363644,-2.07070707070707 1.3636363636363644,-2.1717171717171713 1.3636363636363644,-2.2727272727272725 1.3636363636363644,-2.3737373737373733 1.3636363636363644,-2.474747474747474 1.3636363636363644,-2.5757575757575752 1.3636363636363644,-2.6767676767676765 1.3636363636363644,-2.7777777777777777 1.3636363636363644,-2.8787878787878785 1.3636363636363644,-2.9797979797979792 1.3636363636363644,-3.0808080808080804 1.3636363636363644,-3.1818181818181817 1.3636363636363644,-3.2828282828282824 1.3636363636363644,-3.383838383838383 1.3636363636363644,-3.484848484848485 1.3636363636363644,-3.5858585858585856 1.3636363636363644,-3.6868686868686864 1.3636363636363644,-3.7878787878787876 1.3636363636363644,-3.8888888888888884 1.3636363636363644,-3.98989898989899 1.3636363636363644,-4.090909090909091 1.3636363636363644,-4.191919191919193 1.3636363636363644,-4.292929292929293 1.3636363636363644,-4.393939393939394 1.3636363636363644,-4.494949494949496 1.3636363636363644,-4.595959595959596 1.3636363636363644,-4.696969696969697 1.3636363636363644,-4.7979797979797985 1.3636363636363644,-4.898989898989899 1.3636363636363644,-5.000000000000001" data-type="line" data-label="" points="564.4444444444446,40.000000000000114 573.979797979798,49.53535353535369 583.5151515151515,59.07070707070733 593.0505050505051,68.60606060606085 602.5858585858587,78.14141414141432 612.1212121212122,87.67676767676778 621.6565656565657,97.21212121212153 631.1919191919192,106.747474747475 640.7272727272727,116.28282828282846 640.7272727272727,125.81818181818198 640.7272727272727,135.35353535353545 640.7272727272727,144.88888888888908 640.7272727272727,154.4242424242426 640.7272727272727,163.95959595959613 640.7272727272727,173.4949494949496 640.7272727272727,183.03030303030312 640.7272727272727,192.56565656565675 640.7272727272727,202.10101010101027 640.7272727272727,211.63636363636374 640.7272727272727,221.17171717171726 640.7272727272727,230.70707070707084 640.7272727272727,240.24242424242436 640.7272727272727,249.77777777777794 640.7272727272727,259.3131313131314 640.7272727272727,268.84848484848493 640.7272727272727,278.38383838383857 640.7272727272727,287.91919191919203 640.7272727272727,297.4545454545456 640.7272727272727,306.9898989898991 640.7272727272727,316.5252525252526 640.7272727272727,326.06060606060623 640.7272727272727,335.5959595959597 640.7272727272727,345.1313131313133 640.7272727272727,354.66666666666674 640.7272727272727,364.2020202020203 640.7272727272727,373.73737373737384 640.7272727272727,383.27272727272737 640.7272727272727,392.80808080808094 640.7272727272727,402.3434343434344 640.7272727272727,411.87878787878793 640.7272727272727,421.4141414141415 640.7272727272727,430.94949494949503 640.7272727272727,440.4848484848486 640.7272727272727,450.0202020202021 640.7272727272727,459.5555555555556 640.7272727272727,469.0909090909092 640.7272727272727,478.6262626262627 640.7272727272727,488.1616161616163 640.7272727272727,497.69696969696975 640.7272727272727,507.23232323232327 640.7272727272727,516.7676767676768 640.7272727272727,526.3030303030304 640.7272727272727,535.838383838384 640.7272727272727,545.3737373737374 640.7272727272727,554.909090909091 640.7272727272727,564.4444444444445 640.7272727272727,573.979797979798 640.7272727272727,583.5151515151516 640.7272727272727,593.0505050505051 640.7272727272727,602.5858585858587 640.7272727272727,612.1212121212121 640.7272727272727,621.6565656565657 640.7272727272727,631.1919191919193 640.7272727272727,640.7272727272727 640.7272727272727,650.2626262626263 640.7272727272727,659.7979797979798 640.7272727272727,669.3333333333334 640.7272727272727,678.8686868686868 640.7272727272727,688.4040404040404 640.7272727272727,697.939393939394 640.7272727272727,707.4747474747475 640.7272727272727,717.010101010101 640.7272727272727,726.5454545454545 640.7272727272727,736.0808080808081 640.7272727272727,745.6161616161615 640.7272727272727,755.1515151515151 640.7272727272727,764.6868686868687 640.7272727272727,774.2222222222222 640.7272727272727,783.7575757575758 640.7272727272727,793.2929292929292 640.7272727272727,802.8282828282828 640.7272727272727,812.3636363636363 640.7272727272727,821.8989898989898 640.7272727272727,831.4343434343434 640.7272727272727,840.969696969697 640.7272727272727,850.5050505050505 640.7272727272727,860.0404040404039 640.7272727272727,869.5757575757575 640.7272727272727,879.1111111111111 640.7272727272727,888.6464646464647 640.7272727272727,898.1818181818181 640.7272727272727,907.7171717171718 640.7272727272727,917.2525252525252 640.7272727272727,926.7878787878788 640.7272727272727,936.3232323232323 640.7272727272727,945.8585858585858 640.7272727272727,955.3939393939394 640.7272727272727,964.9292929292928 640.7272727272727,974.4646464646464 640.7272727272727,984" fill="none" stroke="rgba(255,0,0,0.75)" stroke-width="11.327999999999996"/></g><g><polyline data-points="-4.7979797979797985,-5.000000000000001 -4.696969696969697,-4.898989898989899 -4.595959595959596,-4.7979797979797985 -4.494949494949496,-4.696969696969697 -4.393939393939394,-4.595959595959596 -4.292929292929293,-4.494949494949496 -4.191919191919193,-4.393939393939394 -4.090909090909091,-4.292929292929293 -3.98989898989899,-4.191919191919193 -3.8888888888888884,-4.090909090909091 -3.7878787878787876,-3.98989898989899 -3.6868686868686864,-3.8888888888888884 -3.5858585858585856,-3.7878787878787876 -3.484848484848485,-3.6868686868686864 -3.383838383838383,-3.5858585858585856 -3.2828282828282824,-3.484848484848485 -3.1818181818181817,-3.383838383838383 -3.0808080808080804,-3.2828282828282824 -2.9797979797979792,-3.1818181818181817 -2.8787878787878785,-3.0808080808080804 -2.7777777777777777,-2.9797979797979792 -2.6767676767676765,-2.8787878787878785 -2.5757575757575752,-2.7777777777777777 -2.474747474747474,-2.6767676767676765 -2.3737373737373733,-2.5757575757575752 -2.2727272727272725,-2.474747474747474 -2.1717171717171713,-2.3737373737373733 -2.07070707070707,-2.2727272727272725 -1.9696969696969693,-2.1717171717171713 -1.8686868686868683,-2.07070707070707 -1.7676767676767675,-1.9696969696969693 -1.6666666666666665,-1.8686868686868683 -1.5656565656565653,-1.7676767676767675 -1.4646464646464643,-1.6666666666666665 -1.363636363636363,-1.5656565656565653 -1.2626262626262625,-1.4646464646464643 -1.1616161616161613,-1.363636363636363 -1.0606060606060603,-1.2626262626262625 -0.9595959595959596,-1.1616161616161613 -0.8585858585858579,-1.0606060606060603 -0.7575757575757572,-0.9595959595959596 -0.6565656565656557,-0.8585858585858579 -0.555555555555555,-0.7575757575757572 -0.4545454545454544,-0.6565656565656557 -0.35353535353535287,-0.555555555555555 -0.2525252525252522,-0.4545454545454544 -0.15151515151515066,-0.35353535353535287 -0.05050505050505001,-0.2525252525252522 0.050505050505051545,-0.15151515151515066 0.1515151515151522,-0.05050505050505001 0.2525252525252529,0.050505050505051545 0.3535353535353544,0.1515151515151522 0.4545454545454551,0.2525252525252529 0.5555555555555567,0.3535353535353544 0.6565656565656574,0.4545454545454551 0.7575757575757579,0.5555555555555567 0.8585858585858596,0.6565656565656574 0.9595959595959602,0.7575757575757579 0.9595959595959602,0.8585858585858596 0.9595959595959602,0.9595959595959602 0.9595959595959602,1.0606060606060617 0.9595959595959602,1.1616161616161622 0.9595959595959602,1.262626262626263 0.9595959595959602,1.3636363636363644 0.9595959595959602,1.4646464646464652 0.9595959595959602,1.5656565656565666 0.9595959595959602,1.6666666666666674 0.9595959595959602,1.767676767676768 0.9595959595959602,1.8686868686868696 0.9595959595959602,1.9696969696969702 0.9595959595959602,2.070707070707072 0.9595959595959602,2.1717171717171726 0.9595959595959602,2.2727272727272734 0.9595959595959602,2.373737373737375 0.9595959595959602,2.4747474747474754 0.9595959595959602,2.575757575757577 0.9595959595959602,2.676767676767678 0.9595959595959602,2.7777777777777786 0.9595959595959602,2.87878787878788 0.9595959595959602,2.9797979797979806 0.9595959595959602,3.080808080808082 0.9595959595959602,3.181818181818183 0.9595959595959602,3.2828282828282833 0.9595959595959602,3.383838383838384 0.9595959595959602,3.4848484848484866 0.9595959595959602,3.5858585858585874 0.9595959595959602,3.6868686868686877 0.9595959595959602,3.7878787878787885 0.9595959595959602,3.8888888888888893" data-type="line" data-label="" points="59.070707070707215,984 68.60606060606074,974.4646464646464 78.14141414141432,964.9292929292928 87.67676767676778,955.3939393939394 97.21212121212142,945.8585858585858 106.74747474747488,936.3232323232323 116.28282828282835,926.7878787878788 125.81818181818198,917.2525252525252 135.3535353535355,907.7171717171718 144.88888888888908,898.1818181818181 154.4242424242426,888.6464646464647 163.95959595959613,879.1111111111111 173.49494949494965,869.5757575757575 183.03030303030317,860.0404040404039 192.56565656565675,850.5050505050505 202.10101010101027,840.969696969697 211.6363636363638,831.4343434343434 221.17171717171732,821.8989898989898 230.7070707070709,812.3636363636363 240.24242424242436,802.8282828282828 249.77777777777789,793.2929292929292 259.3131313131314,783.7575757575758 268.848484848485,774.2222222222222 278.38383838383857,764.6868686868687 287.91919191919203,755.1515151515151 297.45454545454555,745.6161616161615 306.9898989898991,736.0808080808081 316.52525252525265,726.5454545454545 326.0606060606062,717.010101010101 335.5959595959597,707.4747474747475 345.1313131313132,697.939393939394 354.66666666666674,688.4040404040404 364.2020202020203,678.8686868686868 373.7373737373738,669.3333333333334 383.27272727272737,659.7979797979798 392.80808080808083,650.2626262626263 402.3434343434344,640.7272727272727 411.87878787878793,631.1919191919193 421.41414141414145,621.6565656565657 430.94949494949503,612.1212121212121 440.48484848484856,602.5858585858587 450.02020202020213,593.0505050505051 459.55555555555566,583.5151515151516 469.0909090909091,573.979797979798 478.6262626262627,564.4444444444445 488.1616161616162,554.909090909091 497.6969696969698,545.3737373737374 507.23232323232327,535.838383838384 516.7676767676769,526.3030303030304 526.3030303030304,516.7676767676768 535.8383838383838,507.23232323232327 545.3737373737374,497.69696969696975 554.909090909091,488.1616161616163 564.4444444444446,478.6262626262627 573.979797979798,469.0909090909092 583.5151515151515,459.5555555555556 593.0505050505051,450.0202020202021 602.5858585858587,440.4848484848486 602.5858585858587,430.94949494949503 602.5858585858587,421.4141414141415 602.5858585858587,411.87878787878793 602.5858585858587,402.3434343434344 602.5858585858587,392.80808080808094 602.5858585858587,383.27272727272737 602.5858585858587,373.73737373737384 602.5858585858587,364.2020202020203 602.5858585858587,354.66666666666674 602.5858585858587,345.1313131313133 602.5858585858587,335.5959595959597 602.5858585858587,326.06060606060623 602.5858585858587,316.5252525252526 602.5858585858587,306.9898989898991 602.5858585858587,297.4545454545456 602.5858585858587,287.91919191919203 602.5858585858587,278.38383838383857 602.5858585858587,268.84848484848493 602.5858585858587,259.3131313131314 602.5858585858587,249.77777777777794 602.5858585858587,240.24242424242436 602.5858585858587,230.70707070707084 602.5858585858587,221.17171717171726 602.5858585858587,211.63636363636374 602.5858585858587,202.10101010101027 602.5858585858587,192.56565656565675 602.5858585858587,183.03030303030312 602.5858585858587,173.4949494949496 602.5858585858587,163.95959595959613 602.5858585858587,154.4242424242426 602.5858585858587,144.88888888888908" fill="none" stroke="rgba(255,0,0,0.75)" stroke-width="11.327999999999996"/></g><g><polyline data-points="0.9595959595959602,3.8888888888888893 1.0606060606060617,3.989898989898992 1.1616161616161622,4.090909090909092 1.262626262626263,4.191919191919193 1.3636363636363644,4.292929292929293 1.4646464646464652,4.393939393939394 1.5656565656565666,4.494949494949497 1.6666666666666674,4.595959595959597 1.767676767676768,4.696969696969697 1.8686868686868696,4.7979797979797985 1.9696969696969702,4.898989898989901 2.070707070707072,5.000000000000002 2.1717171717171726,5.000000000000002 2.2727272727272734,5.000000000000002 2.373737373737375,5.000000000000002 2.4747474747474754,5.000000000000002 2.575757575757577,5.000000000000002" data-type="line" data-label="" points="602.5858585858587,144.88888888888908 612.1212121212122,135.35353535353545 621.6565656565657,125.81818181818198 631.1919191919192,116.28282828282846 640.7272727272727,106.747474747475 650.2626262626263,97.21212121212153 659.7979797979798,87.67676767676778 669.3333333333334,78.14141414141432 678.8686868686868,68.60606060606085 688.4040404040404,59.07070707070733 697.9393939393939,49.53535353535369 707.4747474747476,40.000000000000114 717.010101010101,40.000000000000114 726.5454545454545,40.000000000000114 736.0808080808081,40.000000000000114 745.6161616161615,40.000000000000114 755.1515151515152,40.000000000000114" fill="none" stroke="rgba(0,0,255,0.75)" stroke-width="11.327999999999996"/></g><g><polyline data-points="-1.5656565656565653,5.000000000000002 -1.6666666666666665,4.898989898989901 -1.7676767676767675,4.7979797979797985 -1.8686868686868683,4.696969696969697 -1.9696969696969693,4.595959595959597 -2.07070707070707,4.494949494949497 -2.1717171717171713,4.393939393939394 -2.2727272727272725,4.292929292929293 -2.3737373737373733,4.191919191919193 -2.474747474747474,4.090909090909092 -2.5757575757575752,3.989898989898992 -2.6767676767676765,3.8888888888888893 -2.7777777777777777,3.7878787878787885 -2.8787878787878785,3.6868686868686877 -2.9797979797979792,3.5858585858585874 -3.0808080808080804,3.4848484848484866 -3.1818181818181817,3.383838383838384 -3.2828282828282824,3.2828282828282833 -3.2828282828282824,3.181818181818183 -3.2828282828282824,3.080808080808082 -3.2828282828282824,2.9797979797979806 -3.2828282828282824,2.87878787878788 -3.2828282828282824,2.7777777777777786 -3.2828282828282824,2.676767676767678 -3.2828282828282824,2.575757575757577 -3.2828282828282824,2.4747474747474754 -3.2828282828282824,2.373737373737375 -3.2828282828282824,2.2727272727272734 -3.2828282828282824,2.1717171717171726 -3.2828282828282824,2.070707070707072 -3.2828282828282824,1.9696969696969702 -3.2828282828282824,1.8686868686868696 -3.2828282828282824,1.767676767676768 -3.2828282828282824,1.6666666666666674 -3.2828282828282824,1.5656565656565666 -3.2828282828282824,1.4646464646464652 -3.2828282828282824,1.3636363636363644 -3.2828282828282824,1.262626262626263 -3.2828282828282824,1.1616161616161622 -3.2828282828282824,1.0606060606060617 -3.2828282828282824,0.9595959595959602 -3.2828282828282824,0.8585858585858596 -3.2828282828282824,0.7575757575757579 -3.2828282828282824,0.6565656565656574 -3.2828282828282824,0.5555555555555567 -3.2828282828282824,0.4545454545454551 -3.2828282828282824,0.3535353535353544 -3.2828282828282824,0.2525252525252529 -3.2828282828282824,0.1515151515151522 -3.2828282828282824,0.050505050505051545 -3.2828282828282824,-0.05050505050505001 -3.2828282828282824,-0.15151515151515066 -3.2828282828282824,-0.2525252525252522 -3.2828282828282824,-0.35353535353535287 -3.2828282828282824,-0.4545454545454544 -3.2828282828282824,-0.555555555555555 -3.2828282828282824,-0.6565656565656557 -3.2828282828282824,-0.7575757575757572 -3.2828282828282824,-0.8585858585858579 -3.2828282828282824,-0.9595959595959596 -3.2828282828282824,-1.0606060606060603 -3.2828282828282824,-1.1616161616161613 -3.2828282828282824,-1.2626262626262625 -3.2828282828282824,-1.363636363636363 -3.2828282828282824,-1.4646464646464643 -3.2828282828282824,-1.5656565656565653 -3.2828282828282824,-1.6666666666666665 -3.2828282828282824,-1.7676767676767675 -3.2828282828282824,-1.8686868686868683 -3.2828282828282824,-1.9696969696969693 -3.2828282828282824,-2.07070707070707 -3.2828282828282824,-2.1717171717171713 -3.2828282828282824,-2.2727272727272725 -3.2828282828282824,-2.3737373737373733 -3.2828282828282824,-2.474747474747474 -3.2828282828282824,-2.5757575757575752 -3.2828282828282824,-2.6767676767676765 -3.2828282828282824,-2.7777777777777777 -3.2828282828282824,-2.8787878787878785 -3.2828282828282824,-2.9797979797979792 -3.2828282828282824,-3.0808080808080804 -3.2828282828282824,-3.1818181818181817 -3.2828282828282824,-3.2828282828282824 -3.2828282828282824,-3.383838383838383 -3.2828282828282824,-3.484848484848485 -3.2828282828282824,-3.5858585858585856 -3.2828282828282824,-3.6868686868686864 -3.2828282828282824,-3.7878787878787876 -3.2828282828282824,-3.8888888888888884 -3.2828282828282824,-3.98989898989899 -3.2828282828282824,-4.090909090909091 -3.2828282828282824,-4.191919191919193 -3.2828282828282824,-4.292929292929293 -3.2828282828282824,-4.393939393939394 -3.2828282828282824,-4.494949494949496 -3.2828282828282824,-4.595959595959596 -3.2828282828282824,-4.696969696969697 -3.2828282828282824,-4.7979797979797985 -3.2828282828282824,-4.898989898989899 -3.2828282828282824,-5.000000000000001" data-type="line" data-label="" points="364.2020202020203,40.000000000000114 354.66666666666674,49.53535353535369 345.1313131313132,59.07070707070733 335.5959595959597,68.60606060606085 326.0606060606062,78.14141414141432 316.52525252525265,87.67676767676778 306.9898989898991,97.21212121212153 297.45454545454555,106.747474747475 287.91919191919203,116.28282828282846 278.38383838383857,125.81818181818198 268.848484848485,135.35353535353545 259.3131313131314,144.88888888888908 249.77777777777789,154.4242424242426 240.24242424242436,163.95959595959613 230.7070707070709,173.4949494949496 221.17171717171732,183.03030303030312 211.6363636363638,192.56565656565675 202.10101010101027,202.10101010101027 202.10101010101027,211.63636363636374 202.10101010101027,221.17171717171726 202.10101010101027,230.70707070707084 202.10101010101027,240.24242424242436 202.10101010101027,249.77777777777794 202.10101010101027,259.3131313131314 202.10101010101027,268.84848484848493 202.10101010101027,278.38383838383857 202.10101010101027,287.91919191919203 202.10101010101027,297.4545454545456 202.10101010101027,306.9898989898991 202.10101010101027,316.5252525252526 202.10101010101027,326.06060606060623 202.10101010101027,335.5959595959597 202.10101010101027,345.1313131313133 202.10101010101027,354.66666666666674 202.10101010101027,364.2020202020203 202.10101010101027,373.73737373737384 202.10101010101027,383.27272727272737 202.10101010101027,392.80808080808094 202.10101010101027,402.3434343434344 202.10101010101027,411.87878787878793 202.10101010101027,421.4141414141415 202.10101010101027,430.94949494949503 202.10101010101027,440.4848484848486 202.10101010101027,450.0202020202021 202.10101010101027,459.5555555555556 202.10101010101027,469.0909090909092 202.10101010101027,478.6262626262627 202.10101010101027,488.1616161616163 202.10101010101027,497.69696969696975 202.10101010101027,507.23232323232327 202.10101010101027,516.7676767676768 202.10101010101027,526.3030303030304 202.10101010101027,535.838383838384 202.10101010101027,545.3737373737374 202.10101010101027,554.909090909091 202.10101010101027,564.4444444444445 202.10101010101027,573.979797979798 202.10101010101027,583.5151515151516 202.10101010101027,593.0505050505051 202.10101010101027,602.5858585858587 202.10101010101027,612.1212121212121 202.10101010101027,621.6565656565657 202.10101010101027,631.1919191919193 202.10101010101027,640.7272727272727 202.10101010101027,650.2626262626263 202.10101010101027,659.7979797979798 202.10101010101027,669.3333333333334 202.10101010101027,678.8686868686868 202.10101010101027,688.4040404040404 202.10101010101027,697.939393939394 202.10101010101027,707.4747474747475 202.10101010101027,717.010101010101 202.10101010101027,726.5454545454545 202.10101010101027,736.0808080808081 202.10101010101027,745.6161616161615 202.10101010101027,755.1515151515151 202.10101010101027,764.6868686868687 202.10101010101027,774.2222222222222 202.10101010101027,783.7575757575758 202.10101010101027,793.2929292929292 202.10101010101027,802.8282828282828 202.10101010101027,812.3636363636363 202.10101010101027,821.8989898989898 202.10101010101027,831.4343434343434 202.10101010101027,840.969696969697 202.10101010101027,850.5050505050505 202.10101010101027,860.0404040404039 202.10101010101027,869.5757575757575 202.10101010101027,879.1111111111111 202.10101010101027,888.6464646464647 202.10101010101027,898.1818181818181 202.10101010101027,907.7171717171718 202.10101010101027,917.2525252525252 202.10101010101027,926.7878787878788 202.10101010101027,936.3232323232323 202.10101010101027,945.8585858585858 202.10101010101027,955.3939393939394 202.10101010101027,964.9292929292928 202.10101010101027,974.4646464646464 202.10101010101027,984" fill="none" stroke="rgba(0,0,255,0.75)" stroke-width="11.327999999999996"/></g><g><polyline data-points="-1.4646464646464643,-5.000000000000001 -1.5656565656565653,-4.898989898989899 -1.6666666666666665,-4.7979797979797985 -1.7676767676767675,-4.696969696969697 -1.8686868686868683,-4.595959595959596 -1.9696969696969693,-4.494949494949496 -2.07070707070707,-4.393939393939394 -2.1717171717171713,-4.292929292929293 -2.2727272727272725,-4.191919191919193 -2.3737373737373733,-4.090909090909091 -2.474747474747474,-3.98989898989899 -2.5757575757575752,-3.8888888888888884 -2.6767676767676765,-3.7878787878787876 -2.7777777777777777,-3.6868686868686864 -2.8787878787878785,-3.5858585858585856 -2.8787878787878785,-3.484848484848485 -2.8787878787878785,-3.383838383838383 -2.8787878787878785,-3.2828282828282824 -2.8787878787878785,-3.1818181818181817 -2.8787878787878785,-3.0808080808080804 -2.8787878787878785,-2.9797979797979792 -2.8787878787878785,-2.8787878787878785 -2.8787878787878785,-2.7777777777777777 -2.8787878787878785,-2.6767676767676765 -2.8787878787878785,-2.5757575757575752 -2.8787878787878785,-2.474747474747474 -2.8787878787878785,-2.3737373737373733 -2.8787878787878785,-2.2727272727272725 -2.8787878787878785,-2.1717171717171713 -2.8787878787878785,-2.07070707070707 -2.8787878787878785,-1.9696969696969693 -2.8787878787878785,-1.8686868686868683 -2.8787878787878785,-1.7676767676767675 -2.8787878787878785,-1.6666666666666665 -2.8787878787878785,-1.5656565656565653 -2.8787878787878785,-1.4646464646464643 -2.8787878787878785,-1.363636363636363 -2.8787878787878785,-1.2626262626262625 -2.8787878787878785,-1.1616161616161613 -2.8787878787878785,-1.0606060606060603 -2.8787878787878785,-0.9595959595959596 -2.8787878787878785,-0.8585858585858579 -2.8787878787878785,-0.7575757575757572 -2.8787878787878785,-0.6565656565656557 -2.8787878787878785,-0.555555555555555 -2.8787878787878785,-0.4545454545454544 -2.8787878787878785,-0.35353535353535287 -2.8787878787878785,-0.2525252525252522 -2.8787878787878785,-0.15151515151515066 -2.8787878787878785,-0.05050505050505001 -2.8787878787878785,0.050505050505051545 -2.8787878787878785,0.1515151515151522 -2.8787878787878785,0.2525252525252529 -2.8787878787878785,0.3535353535353544 -2.8787878787878785,0.4545454545454551 -2.8787878787878785,0.5555555555555567 -2.8787878787878785,0.6565656565656574 -2.8787878787878785,0.7575757575757579 -2.8787878787878785,0.8585858585858596 -2.8787878787878785,0.9595959595959602 -2.8787878787878785,1.0606060606060617 -2.8787878787878785,1.1616161616161622 -2.8787878787878785,1.262626262626263 -2.8787878787878785,1.3636363636363644 -2.8787878787878785,1.4646464646464652 -2.8787878787878785,1.5656565656565666 -2.8787878787878785,1.6666666666666674 -2.8787878787878785,1.767676767676768 -2.8787878787878785,1.8686868686868696 -2.8787878787878785,1.9696969696969702 -2.8787878787878785,2.070707070707072 -2.8787878787878785,2.1717171717171726 -2.8787878787878785,2.2727272727272734 -2.8787878787878785,2.373737373737375 -2.8787878787878785,2.4747474747474754 -2.8787878787878785,2.575757575757577 -2.8787878787878785,2.676767676767678 -2.8787878787878785,2.7777777777777786 -2.8787878787878785,2.87878787878788 -2.8787878787878785,2.9797979797979806 -2.8787878787878785,3.080808080808082" data-type="line" data-label="" points="373.7373737373738,984 364.2020202020203,974.4646464646464 354.66666666666674,964.9292929292928 345.1313131313132,955.3939393939394 335.5959595959597,945.8585858585858 326.0606060606062,936.3232323232323 316.52525252525265,926.7878787878788 306.9898989898991,917.2525252525252 297.45454545454555,907.7171717171718 287.91919191919203,898.1818181818181 278.38383838383857,888.6464646464647 268.848484848485,879.1111111111111 259.3131313131314,869.5757575757575 249.77777777777789,860.0404040404039 240.24242424242436,850.5050505050505 240.24242424242436,840.969696969697 240.24242424242436,831.4343434343434 240.24242424242436,821.8989898989898 240.24242424242436,812.3636363636363 240.24242424242436,802.8282828282828 240.24242424242436,793.2929292929292 240.24242424242436,783.7575757575758 240.24242424242436,774.2222222222222 240.24242424242436,764.6868686868687 240.24242424242436,755.1515151515151 240.24242424242436,745.6161616161615 240.24242424242436,736.0808080808081 240.24242424242436,726.5454545454545 240.24242424242436,717.010101010101 240.24242424242436,707.4747474747475 240.24242424242436,697.939393939394 240.24242424242436,688.4040404040404 240.24242424242436,678.8686868686868 240.24242424242436,669.3333333333334 240.24242424242436,659.7979797979798 240.24242424242436,650.2626262626263 240.24242424242436,640.7272727272727 240.24242424242436,631.1919191919193 240.24242424242436,621.6565656565657 240.24242424242436,612.1212121212121 240.24242424242436,602.5858585858587 240.24242424242436,593.0505050505051 240.24242424242436,583.5151515151516 240.24242424242436,573.979797979798 240.24242424242436,564.4444444444445 240.24242424242436,554.909090909091 240.24242424242436,545.3737373737374 240.24242424242436,535.838383838384 240.24242424242436,526.3030303030304 240.24242424242436,516.7676767676768 240.24242424242436,507.23232323232327 240.24242424242436,497.69696969696975 240.24242424242436,488.1616161616163 240.24242424242436,478.6262626262627 240.24242424242436,469.0909090909092 240.24242424242436,459.5555555555556 240.24242424242436,450.0202020202021 240.24242424242436,440.4848484848486 240.24242424242436,430.94949494949503 240.24242424242436,421.4141414141415 240.24242424242436,411.87878787878793 240.24242424242436,402.3434343434344 240.24242424242436,392.80808080808094 240.24242424242436,383.27272727272737 240.24242424242436,373.73737373737384 240.24242424242436,364.2020202020203 240.24242424242436,354.66666666666674 240.24242424242436,345.1313131313133 240.24242424242436,335.5959595959597 240.24242424242436,326.06060606060623 240.24242424242436,316.5252525252526 240.24242424242436,306.9898989898991 240.24242424242436,297.4545454545456 240.24242424242436,287.91919191919203 240.24242424242436,278.38383838383857 240.24242424242436,268.84848484848493 240.24242424242436,259.3131313131314 240.24242424242436,249.77777777777794 240.24242424242436,240.24242424242436 240.24242424242436,230.70707070707084 240.24242424242436,221.17171717171726" fill="none" stroke="rgba(0,0,255,0.75)" stroke-width="11.327999999999996"/></g><g><polyline data-points="-2.8787878787878785,3.080808080808082 -2.9797979797979792,3.181818181818183 -3.0808080808080804,3.2828282828282833 -3.1818181818181817,3.383838383838384 -3.2828282828282824,3.4848484848484866 -3.383838383838383,3.5858585858585874 -3.484848484848485,3.6868686868686877 -3.5858585858585856,3.7878787878787885 -3.6868686868686864,3.8888888888888893 -3.7878787878787876,3.989898989898992 -3.8888888888888884,4.090909090909092 -3.98989898989899,4.191919191919193 -4.090909090909091,4.292929292929293 -4.090909090909091,4.393939393939394 -4.090909090909091,4.494949494949497 -4.090909090909091,4.595959595959597 -4.090909090909091,4.696969696969697 -4.090909090909091,4.7979797979797985 -4.090909090909091,4.898989898989901 -4.090909090909091,5.000000000000002" data-type="line" data-label="" points="240.24242424242436,221.17171717171726 230.7070707070709,211.63636363636374 221.17171717171732,202.10101010101027 211.6363636363638,192.56565656565675 202.10101010101027,183.03030303030312 192.56565656565675,173.4949494949496 183.03030303030317,163.95959595959613 173.49494949494965,154.4242424242426 163.95959595959613,144.88888888888908 154.4242424242426,135.35353535353545 144.88888888888908,125.81818181818198 135.3535353535355,116.28282828282846 125.81818181818198,106.747474747475 125.81818181818198,97.21212121212153 125.81818181818198,87.67676767676778 125.81818181818198,78.14141414141432 125.81818181818198,68.60606060606085 125.81818181818198,59.07070707070733 125.81818181818198,49.53535353535369 125.81818181818198,40.000000000000114" fill="none" stroke="rgba(255,0,0,0.75)" stroke-width="11.327999999999996"/></g><g><rect data-type="rect" data-label="" data-x="0" data-y="0" x="40.00000000000017" y="40.000000000000284" width="943.9999999999995" height="943.9999999999998" fill="none" stroke="gray" stroke-width="0.010593220338983056"/></g><g><rect data-type="rect" data-label="" data-x="0" data-y="0" x="40.00000000000017" y="40.000000000000284" width="943.9999999999995" height="943.9999999999998" fill="none" stroke="rgba(15, 23, 42, 0.8)" stroke-width="0.010593220338983056"/></g><circle data-type="circle" data-label="" data-x="0.9595959595959602" data-y="3.8888888888888893" cx="602.5858585858587" cy="144.88888888888908" r="14.159999999999995" fill="rgba(0,0,0,0.3)" stroke="black" stroke-width="0.010593220338983056"/><circle data-type="circle" data-label="" data-x="-2.8787878787878785" data-y="3.080808080808082" cx="240.24242424242436" cy="221.17171717171726" r="14.159999999999995" fill="rgba(0,0,0,0.3)" stroke="black" stroke-width="0.010593220338983056"/><g id="crosshair" style="display: none"><line id="crosshair-h" y1="0" y2="1024" stroke="#666" stroke-width="0.5"/><line id="crosshair-v" x1="0" x2="1024" stroke="#666" stroke-width="0.5"/><text id="coordinates" font-family="monospace" font-size="12" fill="#666"></text></g><script><![CDATA[
              document.currentScript.parentElement.addEventListener('mousemove', (e) => {
                const svg = e.currentTarget;
                const rect = svg.getBoundingClientRect();
                const x = e.clientX - rect.left;
                const y = e.clientY - rect.top;
                const crosshair = svg.getElementById('crosshair');
                const h = svg.getElementById('crosshair-h');
                const v = svg.getElementById('crosshair-v');
                const coords = svg.getElementById('coordinates');
                
                crosshair.style.display = 'block';
                h.setAttribute('x1', '0');
                h.setAttribute('x2', '1024');
                h.setAttribute('y1', y);
                h.setAttribute('y2', y);
                v.setAttribute('x1', x);
                v.setAttribute('x2', x);
                v.setAttribute('y1', '0');
                v.setAttribute('y2', '1024');

                // Calculate real coordinates using inverse transformation
                const matrix = {"a":94.39999999999996,"c":0,"e":512,"b":0,"d":-94.39999999999996,"f":512.0000000000001};
                // Manually invert and apply the affine transform
                // Since we only use translate and scale, we can directly compute:
                // x' = (x - tx) / sx
                // y' = (y - ty) / sy
                const sx = matrix.a;
                const sy = matrix.d;
                const tx = matrix.e; 
                const ty = matrix.f;
                const realPoint = {
                  x: (x - tx) / sx,
                  y: (y - ty) / sy // Flip y back since we used negative scale
                }
                
                coords.textContent = `(${realPoint.x.toFixed(2)}, ${realPoint.y.toFixed(2)})`;
                coords.setAttribute('x', (x + 5).toString());
                coords.setAttribute('y', (y - 5).toString());
              });
              document.currentScript.parentElement.addEventListener('mouseleave', () => {
                document.currentScript.parentElement.getElementById('crosshair').style.display = 'none';
              });
            ]]></script></svg>