<svg width="1024" height="1024" viewBox="0 0 1024 1024" xmlns="http://www.w3.org/2000/svg"><rect width="100%" height="100%" fill="white"/><g><circle data-type="point" data-label="conn_000" data-x="4.5200000000000005" data-y="5" cx="938.6879999999999" cy="40.000000000000284" r="14.16" fill="blue"/></g><g><circle data-type="point" data-label="conn_000" data-x="-0.06" data-y="-5" cx="506.33599999999996" cy="984" r="14.16" fill="blue"/></g><g><circle data-type="point" data-label="conn_001" data-x="5" data-y="4.76" cx="983.9999999999998" cy="62.65600000000029" r="14.16" fill="blue"/></g><g><circle data-type="point" data-label="conn_001" data-x="-5" data-y="1.44" cx="40.000000000000114" cy="376.0640000000002" r="14.16" fill="blue"/></g><g><circle data-type="point" data-label="conn_002" data-x="-0.5" data-y="-5" cx="464.79999999999995" cy="984" r="14.16" fill="red"/></g><g><circle data-type="point" data-label="conn_002" data-x="3.92" data-y="5" cx="882.0479999999998" cy="40.000000000000284" r="14.16" fill="blue"/></g><g><circle data-type="point" data-label="conn_003" data-x="3.22" data-y="-5" cx="815.9679999999998" cy="984" r="14.16" fill="blue"/></g><g><circle data-type="point" data-label="conn_003" data-x="2.7600000000000002" data-y="5" cx="772.5439999999999" cy="40.000000000000284" r="14.16" fill="red"/></g><g><circle data-type="point" data-label="conn_004" data-x="5" data-y="4.08" cx="983.9999999999998" cy="126.84800000000024" r="14.16" fill="blue"/></g><g><circle data-type="point" data-label="conn_004" data-x="-5" data-y="-2.2800000000000002" cx="40.000000000000114" cy="727.2320000000001" r="14.16" fill="red"/></g><g><circle data-type="point" data-label="conn_005" data-x="5" data-y="3.64" cx="983.9999999999998" cy="168.38400000000024" r="14.16" fill="blue"/></g><g><circle data-type="point" data-label="conn_005" data-x="-5" data-y="0.92" cx="40.000000000000114" cy="425.15200000000016" r="14.16" fill="red"/></g><g><polyline data-points="5.000000000000002,4.7979797979797985 4.898989898989901,4.696969696969697 4.7979797979797985,4.595959595959597 4.696969696969697,4.494949494949497 4.595959595959597,4.393939393939394 4.494949494949497,4.292929292929293 4.393939393939394,4.191919191919193 4.292929292929293,4.090909090909092 4.191919191919193,3.989898989898992 4.090909090909092,3.8888888888888893 3.989898989898992,3.7878787878787885 3.8888888888888893,3.6868686868686877 3.7878787878787885,3.5858585858585874 3.6868686868686877,3.4848484848484866 3.5858585858585874,3.383838383838384 3.4848484848484866,3.2828282828282833 3.383838383838384,3.181818181818183 3.2828282828282833,3.080808080808082 3.181818181818183,2.9797979797979806 3.080808080808082,2.87878787878788 2.9797979797979806,2.7777777777777786 2.87878787878788,2.676767676767678 2.7777777777777786,2.575757575757577 2.676767676767678,2.4747474747474754 2.575757575757577,2.373737373737375 2.4747474747474754,2.2727272727272734 2.373737373737375,2.1717171717171726 2.2727272727272734,2.070707070707072 2.1717171717171726,1.9696969696969702 2.070707070707072,1.8686868686868696 1.9696969696969702,1.767676767676768 1.8686868686868696,1.6666666666666674 1.767676767676768,1.5656565656565666 1.6666666666666674,1.4646464646464652 1.5656565656565666,1.4646464646464652 1.4646464646464652,1.4646464646464652 1.3636363636363644,1.4646464646464652 1.262626262626263,1.4646464646464652 1.1616161616161622,1.4646464646464652 1.0606060606060617,1.4646464646464652 0.9595959595959602,1.4646464646464652 0.8585858585858596,1.4646464646464652 0.7575757575757579,1.4646464646464652 0.6565656565656574,1.4646464646464652 0.5555555555555567,1.4646464646464652 0.4545454545454551,1.4646464646464652 0.3535353535353544,1.4646464646464652 0.2525252525252529,1.4646464646464652 0.1515151515151522,1.4646464646464652 0.050505050505051545,1.4646464646464652 -0.05050505050505001,1.4646464646464652 -0.15151515151515066,1.4646464646464652 -0.2525252525252522,1.4646464646464652 -0.35353535353535287,1.4646464646464652 -0.4545454545454544,1.4646464646464652 -0.555555555555555,1.4646464646464652 -0.6565656565656557,1.4646464646464652 -0.7575757575757572,1.4646464646464652 -0.8585858585858579,1.4646464646464652 -0.9595959595959596,1.4646464646464652 -1.0606060606060603,1.4646464646464652 -1.1616161616161613,1.4646464646464652 -1.2626262626262625,1.4646464646464652 -1.363636363636363,1.4646464646464652 -1.4646464646464643,1.4646464646464652 -1.5656565656565653,1.4646464646464652 -1.6666666666666665,1.4646464646464652 -1.7676767676767675,1.4646464646464652 -1.8686868686868683,1.4646464646464652 -1.9696969696969693,1.4646464646464652 -2.07070707070707,1.4646464646464652 -2.1717171717171713,1.4646464646464652 -2.2727272727272725,1.4646464646464652 -2.3737373737373733,1.4646464646464652 -2.474747474747474,1.4646464646464652 -2.5757575757575752,1.4646464646464652 -2.6767676767676765,1.4646464646464652 -2.7777777777777777,1.4646464646464652 -2.8787878787878785,1.4646464646464652 -2.9797979797979792,1.4646464646464652 -3.0808080808080804,1.4646464646464652 -3.1818181818181817,1.4646464646464652 -3.2828282828282824,1.4646464646464652 -3.383838383838383,1.4646464646464652 -3.484848484848485,1.4646464646464652 -3.5858585858585856,1.4646464646464652 -3.6868686868686864,1.4646464646464652 -3.7878787878787876,1.4646464646464652 -3.8888888888888884,1.4646464646464652 -3.98989898989899,1.4646464646464652 -4.090909090909091,1.4646464646464652 -4.191919191919193,1.4646464646464652 -4.292929292929293,1.4646464646464652 -4.393939393939394,1.4646464646464652 -4.494949494949496,1.4646464646464652 -4.595959595959596,1.4646464646464652 -4.696969696969697,1.4646464646464652 -4.7979797979797985,1.4646464646464652 -4.898989898989899,1.4646464646464652 -5.000000000000001,1.4646464646464652" data-type="line" data-label="" points="984,59.07070707070733 974.4646464646464,68.60606060606085 964.9292929292927,78.14141414141432 955.3939393939393,87.67676767676778 945.8585858585857,97.21212121212153 936.3232323232323,106.747474747475 926.7878787878785,116.28282828282846 917.2525252525251,125.81818181818198 907.7171717171716,135.35353535353545 898.181818181818,144.88888888888908 888.6464646464647,154.4242424242426 879.111111111111,163.95959595959613 869.5757575757575,173.4949494949496 860.0404040404039,183.03030303030312 850.5050505050505,192.56565656565675 840.969696969697,202.10101010101027 831.4343434343433,211.63636363636374 821.8989898989898,221.17171717171726 812.3636363636363,230.70707070707084 802.8282828282828,240.24242424242436 793.2929292929292,249.77777777777794 783.7575757575758,259.3131313131314 774.2222222222222,268.84848484848493 764.6868686868686,278.38383838383857 755.1515151515151,287.91919191919203 745.6161616161615,297.4545454545456 736.0808080808081,306.9898989898991 726.5454545454545,316.5252525252526 717.0101010101009,326.06060606060623 707.4747474747475,335.5959595959597 697.9393939393939,345.1313131313133 688.4040404040404,354.66666666666674 678.8686868686868,364.2020202020203 669.3333333333333,373.73737373737384 659.7979797979798,373.73737373737384 650.2626262626262,373.73737373737384 640.7272727272727,373.73737373737384 631.1919191919192,373.73737373737384 621.6565656565656,373.73737373737384 612.1212121212121,373.73737373737384 602.5858585858585,373.73737373737384 593.0505050505051,373.73737373737384 583.5151515151515,373.73737373737384 573.9797979797979,373.73737373737384 564.4444444444445,373.73737373737384 554.9090909090909,373.73737373737384 545.3737373737374,373.73737373737384 535.8383838383838,373.73737373737384 526.3030303030303,373.73737373737384 516.7676767676768,373.73737373737384 507.2323232323232,373.73737373737384 497.69696969696975,373.73737373737384 488.16161616161617,373.73737373737384 478.62626262626264,373.73737373737384 469.09090909090907,373.73737373737384 459.55555555555554,373.73737373737384 450.0202020202021,373.73737373737384 440.4848484848485,373.73737373737384 430.949494949495,373.73737373737384 421.4141414141414,373.73737373737384 411.8787878787879,373.73737373737384 402.34343434343435,373.73737373737384 392.80808080808083,373.73737373737384 383.2727272727273,373.73737373737384 373.7373737373738,373.73737373737384 364.2020202020202,373.73737373737384 354.6666666666667,373.73737373737384 345.13131313131316,373.73737373737384 335.59595959595964,373.73737373737384 326.0606060606061,373.73737373737384 316.5252525252526,373.73737373737384 306.9898989898991,373.73737373737384 297.4545454545455,373.73737373737384 287.91919191919203,373.73737373737384 278.38383838383845,373.73737373737384 268.84848484848493,373.73737373737384 259.3131313131314,373.73737373737384 249.77777777777783,373.73737373737384 240.2424242424243,373.73737373737384 230.70707070707084,373.73737373737384 221.17171717171726,373.73737373737384 211.63636363636374,373.73737373737384 202.10101010101022,373.73737373737384 192.5656565656567,373.73737373737384 183.03030303030312,373.73737373737384 173.4949494949496,373.73737373737384 163.95959595959607,373.73737373737384 154.42424242424255,373.73737373737384 144.88888888888903,373.73737373737384 135.35353535353545,373.73737373737384 125.81818181818193,373.73737373737384 116.28282828282829,373.73737373737384 106.74747474747483,373.73737373737384 97.21212121212136,373.73737373737384 87.67676767676772,373.73737373737384 78.14141414141426,373.73737373737384 68.60606060606068,373.73737373737384 59.07070707070716,373.73737373737384 49.53535353535369,373.73737373737384 40.00000000000006,373.73737373737384" fill="none" stroke="rgba(0,0,255,0.75)" stroke-width="11.327999999999996"/></g><g><polyline data-points="5.000000000000002,3.6868686868686877 4.898989898989901,3.5858585858585874 4.7979797979797985,3.4848484848484866 4.696969696969697,3.383838383838384 4.595959595959597,3.2828282828282833 4.494949494949497,3.181818181818183 4.393939393939394,3.080808080808082 4.292929292929293,2.9797979797979806 4.191919191919193,2.87878787878788 4.090909090909092,2.7777777777777786 3.989898989898992,2.676767676767678 3.8888888888888893,2.575757575757577 3.7878787878787885,2.4747474747474754 3.6868686868686877,2.373737373737375 3.5858585858585874,2.2727272727272734 3.4848484848484866,2.1717171717171726 3.383838383838384,2.070707070707072 3.2828282828282833,1.9696969696969702 3.181818181818183,1.8686868686868696 3.080808080808082,1.767676767676768 2.9797979797979806,1.6666666666666674 2.87878787878788,1.5656565656565666 2.7777777777777786,1.4646464646464652 2.676767676767678,1.3636363636363644 2.575757575757577,1.262626262626263 2.4747474747474754,1.1616161616161622 2.373737373737375,1.0606060606060617 2.2727272727272734,0.9595959595959602 2.1717171717171726,0.9595959595959602 2.070707070707072,0.9595959595959602 1.9696969696969702,0.9595959595959602 1.8686868686868696,0.9595959595959602 1.767676767676768,0.9595959595959602 1.6666666666666674,0.9595959595959602 1.5656565656565666,0.9595959595959602 1.4646464646464652,0.9595959595959602 1.3636363636363644,0.9595959595959602 1.262626262626263,0.9595959595959602 1.1616161616161622,0.9595959595959602 1.0606060606060617,0.9595959595959602 0.9595959595959602,0.9595959595959602 0.8585858585858596,0.9595959595959602 0.7575757575757579,0.9595959595959602 0.6565656565656574,0.9595959595959602 0.5555555555555567,0.9595959595959602 0.4545454545454551,0.9595959595959602 0.3535353535353544,0.9595959595959602 0.2525252525252529,0.9595959595959602 0.1515151515151522,0.9595959595959602 0.050505050505051545,0.9595959595959602 -0.05050505050505001,0.9595959595959602 -0.15151515151515066,0.9595959595959602 -0.2525252525252522,0.9595959595959602 -0.35353535353535287,0.9595959595959602 -0.4545454545454544,0.9595959595959602 -0.555555555555555,0.9595959595959602 -0.6565656565656557,0.9595959595959602 -0.7575757575757572,0.9595959595959602 -0.8585858585858579,0.9595959595959602 -0.9595959595959596,0.9595959595959602 -1.0606060606060603,0.9595959595959602 -1.1616161616161613,0.9595959595959602 -1.2626262626262625,0.9595959595959602 -1.363636363636363,0.9595959595959602 -1.4646464646464643,0.9595959595959602 -1.5656565656565653,0.9595959595959602 -1.6666666666666665,0.9595959595959602 -1.7676767676767675,0.9595959595959602 -1.8686868686868683,0.9595959595959602 -1.9696969696969693,0.9595959595959602 -2.07070707070707,0.9595959595959602 -2.1717171717171713,0.9595959595959602 -2.2727272727272725,0.9595959595959602 -2.3737373737373733,0.9595959595959602 -2.474747474747474,0.9595959595959602 -2.5757575757575752,0.9595959595959602 -2.6767676767676765,0.9595959595959602 -2.7777777777777777,0.9595959595959602 -2.8787878787878785,0.9595959595959602 -2.9797979797979792,0.9595959595959602 -3.0808080808080804,0.9595959595959602 -3.1818181818181817,0.9595959595959602 -3.2828282828282824,0.9595959595959602 -3.383838383838383,0.9595959595959602 -3.484848484848485,0.9595959595959602 -3.5858585858585856,0.9595959595959602 -3.6868686868686864,0.9595959595959602 -3.7878787878787876,0.9595959595959602 -3.8888888888888884,0.9595959595959602 -3.98989898989899,0.9595959595959602" data-type="line" data-label="" points="984,163.95959595959613 974.4646464646464,173.4949494949496 964.9292929292927,183.03030303030312 955.3939393939393,192.56565656565675 945.8585858585857,202.10101010101027 936.3232323232323,211.63636363636374 926.7878787878785,221.17171717171726 917.2525252525251,230.70707070707084 907.7171717171716,240.24242424242436 898.181818181818,249.77777777777794 888.6464646464647,259.3131313131314 879.111111111111,268.84848484848493 869.5757575757575,278.38383838383857 860.0404040404039,287.91919191919203 850.5050505050505,297.4545454545456 840.969696969697,306.9898989898991 831.4343434343433,316.5252525252526 821.8989898989898,326.06060606060623 812.3636363636363,335.5959595959597 802.8282828282828,345.1313131313133 793.2929292929292,354.66666666666674 783.7575757575758,364.2020202020203 774.2222222222222,373.73737373737384 764.6868686868686,383.27272727272737 755.1515151515151,392.80808080808094 745.6161616161615,402.3434343434344 736.0808080808081,411.87878787878793 726.5454545454545,421.4141414141415 717.0101010101009,421.4141414141415 707.4747474747475,421.4141414141415 697.9393939393939,421.4141414141415 688.4040404040404,421.4141414141415 678.8686868686868,421.4141414141415 669.3333333333333,421.4141414141415 659.7979797979798,421.4141414141415 650.2626262626262,421.4141414141415 640.7272727272727,421.4141414141415 631.1919191919192,421.4141414141415 621.6565656565656,421.4141414141415 612.1212121212121,421.4141414141415 602.5858585858585,421.4141414141415 593.0505050505051,421.4141414141415 583.5151515151515,421.4141414141415 573.9797979797979,421.4141414141415 564.4444444444445,421.4141414141415 554.9090909090909,421.4141414141415 545.3737373737374,421.4141414141415 535.8383838383838,421.4141414141415 526.3030303030303,421.4141414141415 516.7676767676768,421.4141414141415 507.2323232323232,421.4141414141415 497.69696969696975,421.4141414141415 488.16161616161617,421.4141414141415 478.62626262626264,421.4141414141415 469.09090909090907,421.4141414141415 459.55555555555554,421.4141414141415 450.0202020202021,421.4141414141415 440.4848484848485,421.4141414141415 430.949494949495,421.4141414141415 421.4141414141414,421.4141414141415 411.8787878787879,421.4141414141415 402.34343434343435,421.4141414141415 392.80808080808083,421.4141414141415 383.2727272727273,421.4141414141415 373.7373737373738,421.4141414141415 364.2020202020202,421.4141414141415 354.6666666666667,421.4141414141415 345.13131313131316,421.4141414141415 335.59595959595964,421.4141414141415 326.0606060606061,421.4141414141415 316.5252525252526,421.4141414141415 306.9898989898991,421.4141414141415 297.4545454545455,421.4141414141415 287.91919191919203,421.4141414141415 278.38383838383845,421.4141414141415 268.84848484848493,421.4141414141415 259.3131313131314,421.4141414141415 249.77777777777783,421.4141414141415 240.2424242424243,421.4141414141415 230.70707070707084,421.4141414141415 221.17171717171726,421.4141414141415 211.63636363636374,421.4141414141415 202.10101010101022,421.4141414141415 192.5656565656567,421.4141414141415 183.03030303030312,421.4141414141415 173.4949494949496,421.4141414141415 163.95959595959607,421.4141414141415 154.42424242424255,421.4141414141415 144.88888888888903,421.4141414141415 135.35353535353545,421.4141414141415" fill="none" stroke="rgba(0,0,255,0.75)" stroke-width="11.327999999999996"/></g><g><polyline data-points="-3.98989898989899,0.9595959595959602 -4.090909090909091,0.9595959595959602 -4.191919191919193,0.9595959595959602 -4.292929292929293,0.9595959595959602 -4.393939393939394,0.9595959595959602 -4.494949494949496,0.9595959595959602 -4.595959595959596,0.9595959595959602 -4.696969696969697,0.9595959595959602 -4.7979797979797985,0.9595959595959602 -4.898989898989899,0.9595959595959602 -5.000000000000001,0.9595959595959602" data-type="line" data-label="" points="135.35353535353545,421.4141414141415 125.81818181818193,421.4141414141415 116.28282828282829,421.4141414141415 106.74747474747483,421.4141414141415 97.21212121212136,421.4141414141415 87.67676767676772,421.4141414141415 78.14141414141426,421.4141414141415 68.60606060606068,421.4141414141415 59.07070707070716,421.4141414141415 49.53535353535369,421.4141414141415 40.00000000000006,421.4141414141415" fill="none" stroke="rgba(255,0,0,0.75)" stroke-width="11.327999999999996"/></g><g><polyline data-points="5.000000000000002,4.090909090909092 4.898989898989901,3.989898989898992 4.7979797979797985,3.8888888888888893 4.696969696969697,3.7878787878787885 4.595959595959597,3.6868686868686877 4.494949494949497,3.5858585858585874 4.393939393939394,3.4848484848484866 4.292929292929293,3.383838383838384 4.191919191919193,3.2828282828282833 4.090909090909092,3.181818181818183 3.989898989898992,3.080808080808082 3.8888888888888893,2.9797979797979806 3.7878787878787885,2.87878787878788 3.6868686868686877,2.7777777777777786 3.5858585858585874,2.676767676767678 3.4848484848484866,2.575757575757577 3.383838383838384,2.4747474747474754 3.2828282828282833,2.373737373737375 3.181818181818183,2.2727272727272734 3.080808080808082,2.1717171717171726 2.9797979797979806,2.070707070707072 2.87878787878788,1.9696969696969702 2.7777777777777786,1.8686868686868696 2.676767676767678,1.767676767676768 2.575757575757577,1.6666666666666674 2.4747474747474754,1.5656565656565666 2.373737373737375,1.4646464646464652 2.2727272727272734,1.3636363636363644 2.1717171717171726,1.3636363636363644" data-type="line" data-label="" points="984,125.81818181818198 974.4646464646464,135.35353535353545 964.9292929292927,144.88888888888908 955.3939393939393,154.4242424242426 945.8585858585857,163.95959595959613 936.3232323232323,173.4949494949496 926.7878787878785,183.03030303030312 917.2525252525251,192.56565656565675 907.7171717171716,202.10101010101027 898.181818181818,211.63636363636374 888.6464646464647,221.17171717171726 879.111111111111,230.70707070707084 869.5757575757575,240.24242424242436 860.0404040404039,249.77777777777794 850.5050505050505,259.3131313131314 840.969696969697,268.84848484848493 831.4343434343433,278.38383838383857 821.8989898989898,287.91919191919203 812.3636363636363,297.4545454545456 802.8282828282828,306.9898989898991 793.2929292929292,316.5252525252526 783.7575757575758,326.06060606060623 774.2222222222222,335.5959595959597 764.6868686868686,345.1313131313133 755.1515151515151,354.66666666666674 745.6161616161615,364.2020202020203 736.0808080808081,373.73737373737384 726.5454545454545,383.27272727272737 717.0101010101009,383.27272727272737" fill="none" stroke="rgba(0,0,255,0.75)" stroke-width="11.327999999999996"/></g><g><polyline data-points="2.1717171717171726,1.3636363636363644 2.070707070707072,1.262626262626263 1.9696969696969702,1.1616161616161622 1.8686868686868696,1.0606060606060617 1.767676767676768,0.9595959595959602 1.6666666666666674,0.8585858585858596 1.5656565656565666,0.7575757575757579 1.4646464646464652,0.6565656565656574 1.3636363636363644,0.5555555555555567 1.262626262626263,0.4545454545454551 1.1616161616161622,0.3535353535353544 1.0606060606060617,0.2525252525252529 0.9595959595959602,0.1515151515151522 0.8585858585858596,0.050505050505051545 0.7575757575757579,-0.05050505050505001 0.6565656565656574,-0.15151515151515066 0.5555555555555567,-0.2525252525252522 0.4545454545454551,-0.35353535353535287 0.3535353535353544,-0.4545454545454544 0.2525252525252529,-0.555555555555555 0.1515151515151522,-0.6565656565656557 0.050505050505051545,-0.7575757575757572 -0.05050505050505001,-0.8585858585858579 -0.15151515151515066,-0.9595959595959596 -0.2525252525252522,-1.0606060606060603 -0.35353535353535287,-1.1616161616161613 -0.4545454545454544,-1.2626262626262625 -0.555555555555555,-1.363636363636363 -0.6565656565656557,-1.4646464646464643 -0.7575757575757572,-1.5656565656565653 -0.8585858585858579,-1.6666666666666665 -0.9595959595959596,-1.7676767676767675 -1.0606060606060603,-1.8686868686868683 -1.1616161616161613,-1.9696969696969693 -1.2626262626262625,-2.07070707070707 -1.363636363636363,-2.1717171717171713 -1.4646464646464643,-2.2727272727272725 -1.5656565656565653,-2.2727272727272725 -1.6666666666666665,-2.2727272727272725 -1.7676767676767675,-2.2727272727272725 -1.8686868686868683,-2.2727272727272725 -1.9696969696969693,-2.2727272727272725 -2.07070707070707,-2.2727272727272725 -2.1717171717171713,-2.2727272727272725 -2.2727272727272725,-2.2727272727272725 -2.3737373737373733,-2.2727272727272725 -2.474747474747474,-2.2727272727272725 -2.5757575757575752,-2.2727272727272725 -2.6767676767676765,-2.2727272727272725 -2.7777777777777777,-2.2727272727272725 -2.8787878787878785,-2.2727272727272725 -2.9797979797979792,-2.2727272727272725 -3.0808080808080804,-2.2727272727272725 -3.1818181818181817,-2.2727272727272725 -3.2828282828282824,-2.2727272727272725 -3.383838383838383,-2.2727272727272725 -3.484848484848485,-2.2727272727272725 -3.5858585858585856,-2.2727272727272725 -3.6868686868686864,-2.2727272727272725 -3.7878787878787876,-2.2727272727272725 -3.8888888888888884,-2.2727272727272725 -3.98989898989899,-2.2727272727272725 -4.090909090909091,-2.2727272727272725 -4.191919191919193,-2.2727272727272725 -4.292929292929293,-2.2727272727272725 -4.393939393939394,-2.2727272727272725 -4.494949494949496,-2.2727272727272725 -4.595959595959596,-2.2727272727272725 -4.696969696969697,-2.2727272727272725 -4.7979797979797985,-2.2727272727272725 -4.898989898989899,-2.2727272727272725 -5.000000000000001,-2.2727272727272725" data-type="line" data-label="" points="717.0101010101009,383.27272727272737 707.4747474747475,392.80808080808094 697.9393939393939,402.3434343434344 688.4040404040404,411.87878787878793 678.8686868686868,421.4141414141415 669.3333333333333,430.94949494949503 659.7979797979798,440.4848484848486 650.2626262626262,450.0202020202021 640.7272727272727,459.5555555555556 631.1919191919192,469.0909090909092 621.6565656565656,478.6262626262627 612.1212121212121,488.1616161616163 602.5858585858585,497.69696969696975 593.0505050505051,507.23232323232327 583.5151515151515,516.7676767676768 573.9797979797979,526.3030303030304 564.4444444444445,535.838383838384 554.9090909090909,545.3737373737374 545.3737373737374,554.909090909091 535.8383838383838,564.4444444444445 526.3030303030303,573.979797979798 516.7676767676768,583.5151515151516 507.2323232323232,593.0505050505051 497.69696969696975,602.5858585858587 488.16161616161617,612.1212121212121 478.62626262626264,621.6565656565657 469.09090909090907,631.1919191919193 459.55555555555554,640.7272727272727 450.0202020202021,650.2626262626263 440.4848484848485,659.7979797979798 430.949494949495,669.3333333333334 421.4141414141414,678.8686868686868 411.8787878787879,688.4040404040404 402.34343434343435,697.939393939394 392.80808080808083,707.4747474747475 383.2727272727273,717.010101010101 373.7373737373738,726.5454545454545 364.2020202020202,726.5454545454545 354.6666666666667,726.5454545454545 345.13131313131316,726.5454545454545 335.59595959595964,726.5454545454545 326.0606060606061,726.5454545454545 316.5252525252526,726.5454545454545 306.9898989898991,726.5454545454545 297.4545454545455,726.5454545454545 287.91919191919203,726.5454545454545 278.38383838383845,726.5454545454545 268.84848484848493,726.5454545454545 259.3131313131314,726.5454545454545 249.77777777777783,726.5454545454545 240.2424242424243,726.5454545454545 230.70707070707084,726.5454545454545 221.17171717171726,726.5454545454545 211.63636363636374,726.5454545454545 202.10101010101022,726.5454545454545 192.5656565656567,726.5454545454545 183.03030303030312,726.5454545454545 173.4949494949496,726.5454545454545 163.95959595959607,726.5454545454545 154.42424242424255,726.5454545454545 144.88888888888903,726.5454545454545 135.35353535353545,726.5454545454545 125.81818181818193,726.5454545454545 116.28282828282829,726.5454545454545 106.74747474747483,726.5454545454545 97.21212121212136,726.5454545454545 87.67676767676772,726.5454545454545 78.14141414141426,726.5454545454545 68.60606060606068,726.5454545454545 59.07070707070716,726.5454545454545 49.53535353535369,726.5454545454545 40.00000000000006,726.5454545454545" fill="none" stroke="rgba(255,0,0,0.75)" stroke-width="11.327999999999996"/></g><g><polyline data-points="4.595959595959597,5.000000000000002 4.494949494949497,4.898989898989901 4.393939393939394,4.7979797979797985 4.292929292929293,4.696969696969697 4.191919191919193,4.595959595959597 4.090909090909092,4.494949494949497 3.989898989898992,4.393939393939394 3.8888888888888893,4.393939393939394 3.7878787878787885,4.393939393939394 3.6868686868686877,4.292929292929293 3.5858585858585874,4.191919191919193 3.4848484848484866,4.090909090909092 3.383838383838384,3.989898989898992 3.2828282828282833,3.8888888888888893 3.181818181818183,3.7878787878787885 3.080808080808082,3.6868686868686877 2.9797979797979806,3.5858585858585874 2.87878787878788,3.4848484848484866 2.7777777777777786,3.383838383838384 2.676767676767678,3.2828282828282833 2.575757575757577,3.181818181818183 2.4747474747474754,3.080808080808082 2.373737373737375,2.9797979797979806 2.2727272727272734,2.87878787878788 2.1717171717171726,2.7777777777777786 2.070707070707072,2.676767676767678 1.9696969696969702,2.575757575757577 1.8686868686868696,2.4747474747474754 1.767676767676768,2.373737373737375 1.6666666666666674,2.2727272727272734 1.5656565656565666,2.1717171717171726 1.4646464646464652,2.070707070707072 1.3636363636363644,1.9696969696969702 1.262626262626263,1.8686868686868696" data-type="line" data-label="" points="945.8585858585857,40.000000000000114 936.3232323232323,49.53535353535369 926.7878787878785,59.07070707070733 917.2525252525251,68.60606060606085 907.7171717171716,78.14141414141432 898.181818181818,87.67676767676778 888.6464646464647,97.21212121212153 879.111111111111,97.21212121212153 869.5757575757575,97.21212121212153 860.0404040404039,106.747474747475 850.5050505050505,116.28282828282846 840.969696969697,125.81818181818198 831.4343434343433,135.35353535353545 821.8989898989898,144.88888888888908 812.3636363636363,154.4242424242426 802.8282828282828,163.95959595959613 793.2929292929292,173.4949494949496 783.7575757575758,183.03030303030312 774.2222222222222,192.56565656565675 764.6868686868686,202.10101010101027 755.1515151515151,211.63636363636374 745.6161616161615,221.17171717171726 736.0808080808081,230.70707070707084 726.5454545454545,240.24242424242436 717.0101010101009,249.77777777777794 707.4747474747475,259.3131313131314 697.9393939393939,268.84848484848493 688.4040404040404,278.38383838383857 678.8686868686868,287.91919191919203 669.3333333333333,297.4545454545456 659.7979797979798,306.9898989898991 650.2626262626262,316.5252525252526 640.7272727272727,326.06060606060623 631.1919191919192,335.5959595959597" fill="none" stroke="rgba(0,0,255,0.75)" stroke-width="11.327999999999996"/></g><g><polyline data-points="1.262626262626263,1.8686868686868696 1.1616161616161622,1.767676767676768 1.0606060606060617,1.6666666666666674 0.9595959595959602,1.5656565656565666 0.8585858585858596,1.4646464646464652 0.7575757575757579,1.3636363636363644 0.6565656565656574,1.262626262626263 0.5555555555555567,1.1616161616161622 0.4545454545454551,1.0606060606060617 0.3535353535353544,0.9595959595959602 0.2525252525252529,0.8585858585858596 0.1515151515151522,0.7575757575757579 0.050505050505051545,0.6565656565656574 -0.05050505050505001,0.5555555555555567 -0.05050505050505001,0.4545454545454551 -0.05050505050505001,0.3535353535353544 -0.05050505050505001,0.2525252525252529 -0.05050505050505001,0.1515151515151522 -0.05050505050505001,0.050505050505051545 -0.05050505050505001,-0.05050505050505001 -0.05050505050505001,-0.15151515151515066 -0.05050505050505001,-0.2525252525252522 -0.05050505050505001,-0.35353535353535287" data-type="line" data-label="" points="631.1919191919192,335.5959595959597 621.6565656565656,345.1313131313133 612.1212121212121,354.66666666666674 602.5858585858585,364.2020202020203 593.0505050505051,373.73737373737384 583.5151515151515,383.27272727272737 573.9797979797979,392.80808080808094 564.4444444444445,402.3434343434344 554.9090909090909,411.87878787878793 545.3737373737374,421.4141414141415 535.8383838383838,430.94949494949503 526.3030303030303,440.4848484848486 516.7676767676768,450.0202020202021 507.2323232323232,459.5555555555556 507.2323232323232,469.0909090909092 507.2323232323232,478.6262626262627 507.2323232323232,488.1616161616163 507.2323232323232,497.69696969696975 507.2323232323232,507.23232323232327 507.2323232323232,516.7676767676768 507.2323232323232,526.3030303030304 507.2323232323232,535.838383838384 507.2323232323232,545.3737373737374" fill="none" stroke="rgba(255,0,0,0.75)" stroke-width="11.327999999999996"/></g><g><polyline data-points="-0.05050505050505001,-0.35353535353535287 -0.05050505050505001,-0.4545454545454544 -0.05050505050505001,-0.555555555555555 -0.05050505050505001,-0.6565656565656557 -0.05050505050505001,-0.7575757575757572 -0.05050505050505001,-0.8585858585858579 -0.05050505050505001,-0.9595959595959596 -0.05050505050505001,-1.0606060606060603 -0.05050505050505001,-1.1616161616161613 -0.05050505050505001,-1.2626262626262625 -0.05050505050505001,-1.363636363636363 -0.05050505050505001,-1.4646464646464643 -0.05050505050505001,-1.5656565656565653 -0.05050505050505001,-1.6666666666666665 -0.05050505050505001,-1.7676767676767675 -0.05050505050505001,-1.8686868686868683 -0.05050505050505001,-1.9696969696969693 -0.05050505050505001,-2.07070707070707 -0.05050505050505001,-2.1717171717171713 -0.05050505050505001,-2.2727272727272725 -0.05050505050505001,-2.3737373737373733 -0.05050505050505001,-2.474747474747474 -0.05050505050505001,-2.5757575757575752 -0.05050505050505001,-2.6767676767676765 -0.05050505050505001,-2.7777777777777777 -0.05050505050505001,-2.8787878787878785 -0.05050505050505001,-2.9797979797979792 -0.05050505050505001,-3.0808080808080804 -0.05050505050505001,-3.1818181818181817 -0.05050505050505001,-3.2828282828282824 -0.05050505050505001,-3.383838383838383 -0.05050505050505001,-3.484848484848485 -0.05050505050505001,-3.5858585858585856 -0.05050505050505001,-3.6868686868686864 -0.05050505050505001,-3.7878787878787876 -0.05050505050505001,-3.8888888888888884 -0.05050505050505001,-3.98989898989899 -0.05050505050505001,-4.090909090909091 -0.05050505050505001,-4.191919191919193 -0.05050505050505001,-4.292929292929293 -0.05050505050505001,-4.393939393939394 -0.05050505050505001,-4.494949494949496 -0.05050505050505001,-4.595959595959596 -0.05050505050505001,-4.696969696969697 -0.05050505050505001,-4.7979797979797985 -0.05050505050505001,-4.898989898989899 -0.05050505050505001,-5.000000000000001" data-type="line" data-label="" points="507.2323232323232,545.3737373737374 507.2323232323232,554.909090909091 507.2323232323232,564.4444444444445 507.2323232323232,573.979797979798 507.2323232323232,583.5151515151516 507.2323232323232,593.0505050505051 507.2323232323232,602.5858585858587 507.2323232323232,612.1212121212121 507.2323232323232,621.6565656565657 507.2323232323232,631.1919191919193 507.2323232323232,640.7272727272727 507.2323232323232,650.2626262626263 507.2323232323232,659.7979797979798 507.2323232323232,669.3333333333334 507.2323232323232,678.8686868686868 507.2323232323232,688.4040404040404 507.2323232323232,697.939393939394 507.2323232323232,707.4747474747475 507.2323232323232,717.010101010101 507.2323232323232,726.5454545454545 507.2323232323232,736.0808080808081 507.2323232323232,745.6161616161615 507.2323232323232,755.1515151515151 507.2323232323232,764.6868686868687 507.2323232323232,774.2222222222222 507.2323232323232,783.7575757575758 507.2323232323232,793.2929292929292 507.2323232323232,802.8282828282828 507.2323232323232,812.3636363636363 507.2323232323232,821.8989898989898 507.2323232323232,831.4343434343434 507.2323232323232,840.969696969697 507.2323232323232,850.5050505050505 507.2323232323232,860.0404040404039 507.2323232323232,869.5757575757575 507.2323232323232,879.1111111111111 507.2323232323232,888.6464646464647 507.2323232323232,898.1818181818181 507.2323232323232,907.7171717171718 507.2323232323232,917.2525252525252 507.2323232323232,926.7878787878788 507.2323232323232,936.3232323232323 507.2323232323232,945.8585858585858 507.2323232323232,955.3939393939394 507.2323232323232,964.9292929292928 507.2323232323232,974.4646464646464 507.2323232323232,984" fill="none" stroke="rgba(0,0,255,0.75)" stroke-width="11.327999999999996"/></g><g><polyline data-points="3.2828282828282833,-5.000000000000001 3.181818181818183,-4.898989898989899 3.080808080808082,-4.7979797979797985 2.9797979797979806,-4.696969696969697 2.87878787878788,-4.595959595959596 2.87878787878788,-4.494949494949496 2.87878787878788,-4.393939393939394 2.87878787878788,-4.292929292929293 2.87878787878788,-4.191919191919193 2.87878787878788,-4.090909090909091 2.87878787878788,-3.98989898989899 2.87878787878788,-3.8888888888888884 2.87878787878788,-3.7878787878787876 2.87878787878788,-3.6868686868686864 2.87878787878788,-3.5858585858585856 2.87878787878788,-3.484848484848485 2.87878787878788,-3.383838383838383 2.87878787878788,-3.2828282828282824 2.87878787878788,-3.1818181818181817 2.87878787878788,-3.0808080808080804 2.87878787878788,-2.9797979797979792 2.87878787878788,-2.8787878787878785 2.87878787878788,-2.7777777777777777 2.87878787878788,-2.6767676767676765 2.87878787878788,-2.5757575757575752 2.87878787878788,-2.474747474747474 2.87878787878788,-2.3737373737373733 2.87878787878788,-2.2727272727272725 2.87878787878788,-2.1717171717171713 2.87878787878788,-2.07070707070707 2.87878787878788,-1.9696969696969693 2.87878787878788,-1.8686868686868683 2.87878787878788,-1.7676767676767675 2.7777777777777786,-1.6666666666666665 2.7777777777777786,-1.5656565656565653 2.7777777777777786,-1.4646464646464643 2.7777777777777786,-1.363636363636363 2.7777777777777786,-1.2626262626262625 2.7777777777777786,-1.1616161616161613 2.7777777777777786,-1.0606060606060603 2.7777777777777786,-0.9595959595959596 2.7777777777777786,-0.8585858585858579 2.7777777777777786,-0.7575757575757572 2.7777777777777786,-0.6565656565656557 2.7777777777777786,-0.555555555555555 2.7777777777777786,-0.4545454545454544 2.7777777777777786,-0.35353535353535287 2.7777777777777786,-0.2525252525252522 2.7777777777777786,-0.15151515151515066 2.7777777777777786,-0.05050505050505001 2.7777777777777786,0.050505050505051545 2.7777777777777786,0.1515151515151522 2.7777777777777786,0.2525252525252529 2.7777777777777786,0.3535353535353544 2.7777777777777786,0.4545454545454551 2.7777777777777786,0.5555555555555567 2.7777777777777786,0.6565656565656574 2.7777777777777786,0.7575757575757579 2.7777777777777786,0.8585858585858596 2.7777777777777786,0.9595959595959602" data-type="line" data-label="" points="821.8989898989898,984 812.3636363636363,974.4646464646464 802.8282828282828,964.9292929292928 793.2929292929292,955.3939393939394 783.7575757575758,945.8585858585858 783.7575757575758,936.3232323232323 783.7575757575758,926.7878787878788 783.7575757575758,917.2525252525252 783.7575757575758,907.7171717171718 783.7575757575758,898.1818181818181 783.7575757575758,888.6464646464647 783.7575757575758,879.1111111111111 783.7575757575758,869.5757575757575 783.7575757575758,860.0404040404039 783.7575757575758,850.5050505050505 783.7575757575758,840.969696969697 783.7575757575758,831.4343434343434 783.7575757575758,821.8989898989898 783.7575757575758,812.3636363636363 783.7575757575758,802.8282828282828 783.7575757575758,793.2929292929292 783.7575757575758,783.7575757575758 783.7575757575758,774.2222222222222 783.7575757575758,764.6868686868687 783.7575757575758,755.1515151515151 783.7575757575758,745.6161616161615 783.7575757575758,736.0808080808081 783.7575757575758,726.5454545454545 783.7575757575758,717.010101010101 783.7575757575758,707.4747474747475 783.7575757575758,697.939393939394 783.7575757575758,688.4040404040404 783.7575757575758,678.8686868686868 774.2222222222222,669.3333333333334 774.2222222222222,659.7979797979798 774.2222222222222,650.2626262626263 774.2222222222222,640.7272727272727 774.2222222222222,631.1919191919193 774.2222222222222,621.6565656565657 774.2222222222222,612.1212121212121 774.2222222222222,602.5858585858587 774.2222222222222,593.0505050505051 774.2222222222222,583.5151515151516 774.2222222222222,573.979797979798 774.2222222222222,564.4444444444445 774.2222222222222,554.909090909091 774.2222222222222,545.3737373737374 774.2222222222222,535.838383838384 774.2222222222222,526.3030303030304 774.2222222222222,516.7676767676768 774.2222222222222,507.23232323232327 774.2222222222222,497.69696969696975 774.2222222222222,488.1616161616163 774.2222222222222,478.6262626262627 774.2222222222222,469.0909090909092 774.2222222222222,459.5555555555556 774.2222222222222,450.0202020202021 774.2222222222222,440.4848484848486 774.2222222222222,430.94949494949503 774.2222222222222,421.4141414141415" fill="none" stroke="rgba(0,0,255,0.75)" stroke-width="11.327999999999996"/></g><g><polyline data-points="2.7777777777777786,0.9595959595959602 2.7777777777777786,1.0606060606060617 2.7777777777777786,1.1616161616161622 2.7777777777777786,1.262626262626263 2.7777777777777786,1.3636363636363644 2.7777777777777786,1.4646464646464652 2.7777777777777786,1.5656565656565666 2.7777777777777786,1.6666666666666674 2.7777777777777786,1.767676767676768 2.7777777777777786,1.8686868686868696 2.7777777777777786,1.9696969696969702 2.7777777777777786,2.070707070707072 2.7777777777777786,2.1717171717171726 2.7777777777777786,2.2727272727272734 2.7777777777777786,2.373737373737375 2.7777777777777786,2.4747474747474754 2.7777777777777786,2.575757575757577 2.7777777777777786,2.676767676767678 2.7777777777777786,2.7777777777777786 2.7777777777777786,2.87878787878788 2.7777777777777786,2.9797979797979806 2.7777777777777786,3.080808080808082 2.7777777777777786,3.181818181818183 2.7777777777777786,3.2828282828282833 2.7777777777777786,3.383838383838384 2.7777777777777786,3.4848484848484866 2.7777777777777786,3.5858585858585874 2.7777777777777786,3.6868686868686877 2.7777777777777786,3.7878787878787885 2.7777777777777786,3.8888888888888893 2.7777777777777786,3.989898989898992 2.7777777777777786,4.090909090909092 2.7777777777777786,4.191919191919193 2.7777777777777786,4.292929292929293 2.7777777777777786,4.393939393939394 2.7777777777777786,4.494949494949497 2.7777777777777786,4.595959595959597 2.7777777777777786,4.696969696969697 2.7777777777777786,4.7979797979797985 2.7777777777777786,4.898989898989901 2.7777777777777786,5.000000000000002" data-type="line" data-label="" points="774.2222222222222,421.4141414141415 774.2222222222222,411.87878787878793 774.2222222222222,402.3434343434344 774.2222222222222,392.80808080808094 774.2222222222222,383.27272727272737 774.2222222222222,373.73737373737384 774.2222222222222,364.2020202020203 774.2222222222222,354.66666666666674 774.2222222222222,345.1313131313133 774.2222222222222,335.5959595959597 774.2222222222222,326.06060606060623 774.2222222222222,316.5252525252526 774.2222222222222,306.9898989898991 774.2222222222222,297.4545454545456 774.2222222222222,287.91919191919203 774.2222222222222,278.38383838383857 774.2222222222222,268.84848484848493 774.2222222222222,259.3131313131314 774.2222222222222,249.77777777777794 774.2222222222222,240.24242424242436 774.2222222222222,230.70707070707084 774.2222222222222,221.17171717171726 774.2222222222222,211.63636363636374 774.2222222222222,202.10101010101027 774.2222222222222,192.56565656565675 774.2222222222222,183.03030303030312 774.2222222222222,173.4949494949496 774.2222222222222,163.95959595959613 774.2222222222222,154.4242424242426 774.2222222222222,144.88888888888908 774.2222222222222,135.35353535353545 774.2222222222222,125.81818181818198 774.2222222222222,116.28282828282846 774.2222222222222,106.747474747475 774.2222222222222,97.21212121212153 774.2222222222222,87.67676767676778 774.2222222222222,78.14141414141432 774.2222222222222,68.60606060606085 774.2222222222222,59.07070707070733 774.2222222222222,49.53535353535369 774.2222222222222,40.000000000000114" fill="none" stroke="rgba(255,0,0,0.75)" stroke-width="11.327999999999996"/></g><g><polyline data-points="-0.4545454545454544,-5.000000000000001 -0.35353535353535287,-5.000000000000001 -0.2525252525252522,-4.898989898989899 -0.15151515151515066,-4.7979797979797985 -0.05050505050505001,-4.696969696969697 0.050505050505051545,-4.595959595959596 0.1515151515151522,-4.494949494949496 0.2525252525252529,-4.393939393939394 0.3535353535353544,-4.292929292929293 0.4545454545454551,-4.191919191919193 0.5555555555555567,-4.090909090909091 0.6565656565656574,-3.98989898989899 0.7575757575757579,-3.8888888888888884 0.8585858585858596,-3.7878787878787876 0.9595959595959602,-3.6868686868686864 1.0606060606060617,-3.5858585858585856 1.1616161616161622,-3.484848484848485 1.262626262626263,-3.383838383838383 1.3636363636363644,-3.2828282828282824 1.4646464646464652,-3.1818181818181817 1.5656565656565666,-3.0808080808080804 1.6666666666666674,-2.9797979797979792 1.767676767676768,-2.8787878787878785 1.8686868686868696,-2.7777777777777777 1.9696969696969702,-2.6767676767676765 2.070707070707072,-2.5757575757575752 2.1717171717171726,-2.474747474747474 2.2727272727272734,-2.3737373737373733 2.373737373737375,-2.2727272727272725 2.4747474747474754,-2.1717171717171713 2.575757575757577,-2.07070707070707 2.4747474747474754,-1.9696969696969693 2.4747474747474754,-1.8686868686868683 2.4747474747474754,-1.7676767676767675 2.4747474747474754,-1.6666666666666665 2.4747474747474754,-1.5656565656565653 2.4747474747474754,-1.4646464646464643 2.4747474747474754,-1.363636363636363 2.4747474747474754,-1.2626262626262625 2.4747474747474754,-1.1616161616161613 2.4747474747474754,-1.0606060606060603 2.4747474747474754,-0.9595959595959596 2.4747474747474754,-0.8585858585858579 2.4747474747474754,-0.7575757575757572 2.4747474747474754,-0.6565656565656557 2.4747474747474754,-0.555555555555555 2.4747474747474754,-0.4545454545454544 2.4747474747474754,-0.35353535353535287 2.4747474747474754,-0.2525252525252522 2.4747474747474754,-0.15151515151515066 2.4747474747474754,-0.05050505050505001 2.4747474747474754,0.050505050505051545 2.4747474747474754,0.1515151515151522 2.4747474747474754,0.2525252525252529 2.4747474747474754,0.3535353535353544 2.4747474747474754,0.4545454545454551 2.4747474747474754,0.5555555555555567 2.4747474747474754,0.6565656565656574 2.4747474747474754,0.7575757575757579 2.4747474747474754,0.8585858585858596 2.4747474747474754,0.9595959595959602 2.4747474747474754,1.0606060606060617 2.4747474747474754,1.1616161616161622 2.4747474747474754,1.262626262626263 2.4747474747474754,1.3636363636363644 2.4747474747474754,1.4646464646464652 2.4747474747474754,1.5656565656565666 2.4747474747474754,1.6666666666666674 2.4747474747474754,1.767676767676768 2.4747474747474754,1.8686868686868696 2.4747474747474754,1.9696969696969702 2.4747474747474754,2.070707070707072 2.4747474747474754,2.1717171717171726 2.4747474747474754,2.2727272727272734 2.4747474747474754,2.373737373737375 2.4747474747474754,2.4747474747474754 2.4747474747474754,2.575757575757577 2.4747474747474754,2.676767676767678 2.4747474747474754,2.7777777777777786 2.4747474747474754,2.87878787878788 2.4747474747474754,2.9797979797979806 2.4747474747474754,3.080808080808082 2.4747474747474754,3.181818181818183 2.4747474747474754,3.2828282828282833 2.4747474747474754,3.383838383838384 2.4747474747474754,3.4848484848484866 2.4747474747474754,3.5858585858585874 2.4747474747474754,3.6868686868686877 2.4747474747474754,3.7878787878787885 2.4747474747474754,3.8888888888888893 2.373737373737375,3.989898989898992" data-type="line" data-label="" points="469.09090909090907,984 478.62626262626264,984 488.16161616161617,974.4646464646464 497.69696969696975,964.9292929292928 507.2323232323232,955.3939393939394 516.7676767676768,945.8585858585858 526.3030303030303,936.3232323232323 535.8383838383838,926.7878787878788 545.3737373737374,917.2525252525252 554.9090909090909,907.7171717171718 564.4444444444445,898.1818181818181 573.9797979797979,888.6464646464647 583.5151515151515,879.1111111111111 593.0505050505051,869.5757575757575 602.5858585858585,860.0404040404039 612.1212121212121,850.5050505050505 621.6565656565656,840.969696969697 631.1919191919192,831.4343434343434 640.7272727272727,821.8989898989898 650.2626262626262,812.3636363636363 659.7979797979798,802.8282828282828 669.3333333333333,793.2929292929292 678.8686868686868,783.7575757575758 688.4040404040404,774.2222222222222 697.9393939393939,764.6868686868687 707.4747474747475,755.1515151515151 717.0101010101009,745.6161616161615 726.5454545454545,736.0808080808081 736.0808080808081,726.5454545454545 745.6161616161615,717.010101010101 755.1515151515151,707.4747474747475 745.6161616161615,697.939393939394 745.6161616161615,688.4040404040404 745.6161616161615,678.8686868686868 745.6161616161615,669.3333333333334 745.6161616161615,659.7979797979798 745.6161616161615,650.2626262626263 745.6161616161615,640.7272727272727 745.6161616161615,631.1919191919193 745.6161616161615,621.6565656565657 745.6161616161615,612.1212121212121 745.6161616161615,602.5858585858587 745.6161616161615,593.0505050505051 745.6161616161615,583.5151515151516 745.6161616161615,573.979797979798 745.6161616161615,564.4444444444445 745.6161616161615,554.909090909091 745.6161616161615,545.3737373737374 745.6161616161615,535.838383838384 745.6161616161615,526.3030303030304 745.6161616161615,516.7676767676768 745.6161616161615,507.23232323232327 745.6161616161615,497.69696969696975 745.6161616161615,488.1616161616163 745.6161616161615,478.6262626262627 745.6161616161615,469.0909090909092 745.6161616161615,459.5555555555556 745.6161616161615,450.0202020202021 745.6161616161615,440.4848484848486 745.6161616161615,430.94949494949503 745.6161616161615,421.4141414141415 745.6161616161615,411.87878787878793 745.6161616161615,402.3434343434344 745.6161616161615,392.80808080808094 745.6161616161615,383.27272727272737 745.6161616161615,373.73737373737384 745.6161616161615,364.2020202020203 745.6161616161615,354.66666666666674 745.6161616161615,345.1313131313133 745.6161616161615,335.5959595959597 745.6161616161615,326.06060606060623 745.6161616161615,316.5252525252526 745.6161616161615,306.9898989898991 745.6161616161615,297.4545454545456 745.6161616161615,287.91919191919203 745.6161616161615,278.38383838383857 745.6161616161615,268.84848484848493 745.6161616161615,259.3131313131314 745.6161616161615,249.77777777777794 745.6161616161615,240.24242424242436 745.6161616161615,230.70707070707084 745.6161616161615,221.17171717171726 745.6161616161615,211.63636363636374 745.6161616161615,202.10101010101027 745.6161616161615,192.56565656565675 745.6161616161615,183.03030303030312 745.6161616161615,173.4949494949496 745.6161616161615,163.95959595959613 745.6161616161615,154.4242424242426 745.6161616161615,144.88888888888908 736.0808080808081,135.35353535353545" fill="none" stroke="rgba(255,0,0,0.75)" stroke-width="11.327999999999996"/></g><g><polyline data-points="2.373737373737375,3.989898989898992 2.4747474747474754,4.090909090909092 2.575757575757577,4.191919191919193 2.676767676767678,4.292929292929293 2.7777777777777786,4.393939393939394 2.87878787878788,4.494949494949497 2.9797979797979806,4.595959595959597 3.080808080808082,4.696969696969697 3.181818181818183,4.7979797979797985 3.2828282828282833,4.898989898989901 3.383838383838384,5.000000000000002 3.4848484848484866,5.000000000000002 3.5858585858585874,5.000000000000002 3.6868686868686877,5.000000000000002 3.7878787878787885,5.000000000000002 3.8888888888888893,5.000000000000002 3.989898989898992,5.000000000000002" data-type="line" data-label="" points="736.0808080808081,135.35353535353545 745.6161616161615,125.81818181818198 755.1515151515151,116.28282828282846 764.6868686868686,106.747474747475 774.2222222222222,97.21212121212153 783.7575757575758,87.67676767676778 793.2929292929292,78.14141414141432 802.8282828282828,68.60606060606085 812.3636363636363,59.07070707070733 821.8989898989898,49.53535353535369 831.4343434343433,40.000000000000114 840.969696969697,40.000000000000114 850.5050505050505,40.000000000000114 860.0404040404039,40.000000000000114 869.5757575757575,40.000000000000114 879.111111111111,40.000000000000114 888.6464646464647,40.000000000000114" fill="none" stroke="rgba(0,0,255,0.75)" stroke-width="11.327999999999996"/></g><g><rect data-type="rect" data-label="" data-x="0" data-y="0" x="40.000000000000114" y="40.000000000000284" width="943.9999999999997" height="943.9999999999998" fill="none" stroke="gray" stroke-width="0.010593220338983056"/></g><g><rect data-type="rect" data-label="" data-x="0" data-y="0" x="40.000000000000114" y="40.000000000000284" width="943.9999999999997" height="943.9999999999998" fill="none" stroke="rgba(15, 23, 42, 0.8)" stroke-width="0.010593220338983056"/></g><circle data-type="circle" data-label="" data-x="-3.98989898989899" data-y="0.9595959595959602" cx="135.35353535353545" cy="421.4141414141415" r="14.159999999999995" fill="rgba(0,0,0,0.3)" stroke="black" stroke-width="0.010593220338983056"/><circle data-type="circle" data-label="" data-x="2.1717171717171726" data-y="1.3636363636363644" cx="717.0101010101009" cy="383.27272727272737" r="14.159999999999995" fill="rgba(0,0,0,0.3)" stroke="black" stroke-width="0.010593220338983056"/><circle data-type="circle" data-label="" data-x="1.262626262626263" data-y="1.8686868686868696" cx="631.1919191919192" cy="335.5959595959597" r="14.159999999999995" fill="rgba(0,0,0,0.3)" stroke="black" stroke-width="0.010593220338983056"/><circle data-type="circle" data-label="" data-x="-0.05050505050505001" data-y="-0.35353535353535287" cx="507.2323232323232" cy="545.3737373737374" r="14.159999999999995" fill="rgba(0,0,0,0.3)" stroke="black" stroke-width="0.010593220338983056"/><circle data-type="circle" data-label="" data-x="2.7777777777777786" data-y="0.9595959595959602" cx="774.2222222222222" cy="421.4141414141415" r="14.159999999999995" fill="rgba(0,0,0,0.3)" stroke="black" stroke-width="0.010593220338983056"/><circle data-type="circle" data-label="" data-x="2.373737373737375" data-y="3.989898989898992" cx="736.0808080808081" cy="135.35353535353545" r="14.159999999999995" fill="rgba(0,0,0,0.3)" stroke="black" stroke-width="0.010593220338983056"/><g id="crosshair" style="display: none"><line id="crosshair-h" y1="0" y2="1024" stroke="#666" stroke-width="0.5"/><line id="crosshair-v" x1="0" x2="1024" stroke="#666" stroke-width="0.5"/><text id="coordinates" font-family="monospace" font-size="12" fill="#666"></text></g><script><![CDATA[
              document.currentScript.parentElement.addEventListener('mousemove', (e) => {
                const svg = e.currentTarget;
                const rect = svg.getBoundingClientRect();
                const x = e.clientX - rect.left;
                const y = e.clientY - rect.top;
                const crosshair = svg.getElementById('crosshair');
                const h = svg.getElementById('crosshair-h');
                const v = svg.getElementById('crosshair-v');
                const coords = svg.getElementById('coordinates');
                
                crosshair.style.display = 'block';
                h.setAttribute('x1', '0');
                h.setAttribute('x2', '1024');
                h.setAttribute('y1', y);
                h.setAttribute('y2', y);
                v.setAttribute('x1', x);
                v.setAttribute('x2', x);
                v.setAttribute('y1', '0');
                v.setAttribute('y2', '1024');

                // Calculate real coordinates using inverse transformation
                const matrix = {"a":94.39999999999996,"c":0,"e":511.99999999999994,"b":0,"d":-94.39999999999996,"f":512.0000000000001};
                // Manually invert and apply the affine transform
                // Since we only use translate and scale, we can directly compute:
                // x' = (x - tx) / sx
                // y' = (y - ty) / sy
                const sx = matrix.a;
                const sy = matrix.d;
                const tx = matrix.e; 
                const ty = matrix.f;
                const realPoint = {
                  x: (x - tx) / sx,
                  y: (y - ty) / sy // Flip y back since we used negative scale
                }
                
                coords.textContent = `(${realPoint.x.toFixed(2)}, ${realPoint.y.toFixed(2)})`;
                coords.setAttribute('x', (x + 5).toString());
                coords.setAttribute('y', (y - 5).toString());
              });
              document.currentScript.parentElement.addEventListener('mouseleave', () => {
                document.currentScript.parentElement.getElementById('crosshair').style.display = 'none';
              });
            ]]></script></svg>