<svg width="1024" height="1024" viewBox="0 0 1024 1024" xmlns="http://www.w3.org/2000/svg"><rect width="100%" height="100%" fill="white"/><g><circle data-type="point" data-label="conn_000" data-x="-5" data-y="3.88" cx="40.000000000000284" cy="145.7280000000003" r="14.16" fill="red"/></g><g><circle data-type="point" data-label="conn_000" data-x="4.82" data-y="5" cx="967.008" cy="40.000000000000284" r="14.16" fill="red"/></g><g><circle data-type="point" data-label="conn_001" data-x="-2.34" data-y="5" cx="291.1040000000002" cy="40.000000000000284" r="14.16" fill="blue"/></g><g><circle data-type="point" data-label="conn_001" data-x="1.96" data-y="-5" cx="697.024" cy="984" r="14.16" fill="blue"/></g><g><polyline data-points="-5.000000000000001,3.8888888888888893 -4.898989898989899,3.989898989898992 -4.7979797979797985,4.090909090909092 -4.696969696969697,4.191919191919193 -4.595959595959596,4.292929292929293 -4.494949494949496,4.393939393939394 -4.393939393939394,4.494949494949497 -4.292929292929293,4.595959595959597 -4.191919191919193,4.696969696969697 -4.090909090909091,4.7979797979797985 -3.98989898989899,4.898989898989901 -3.8888888888888884,5.000000000000002 -3.7878787878787876,5.000000000000002 -3.6868686868686864,5.000000000000002 -3.5858585858585856,5.000000000000002 -3.484848484848485,5.000000000000002 -3.383838383838383,5.000000000000002 -3.2828282828282824,5.000000000000002 -3.1818181818181817,5.000000000000002 -3.0808080808080804,5.000000000000002 -2.9797979797979792,5.000000000000002 -2.8787878787878785,5.000000000000002 -2.7777777777777777,5.000000000000002 -2.6767676767676765,5.000000000000002 -2.5757575757575752,5.000000000000002 -2.474747474747474,5.000000000000002 -2.3737373737373733,5.000000000000002 -2.2727272727272725,5.000000000000002 -2.1717171717171713,5.000000000000002 -2.07070707070707,5.000000000000002 -1.9696969696969693,5.000000000000002 -1.8686868686868683,5.000000000000002 -1.7676767676767675,5.000000000000002 -1.6666666666666665,5.000000000000002 -1.5656565656565653,5.000000000000002 -1.4646464646464643,5.000000000000002 -1.363636363636363,5.000000000000002 -1.2626262626262625,5.000000000000002 -1.1616161616161613,5.000000000000002 -1.0606060606060603,5.000000000000002 -0.9595959595959596,5.000000000000002 -0.8585858585858579,5.000000000000002 -0.7575757575757572,5.000000000000002 -0.6565656565656557,5.000000000000002 -0.555555555555555,5.000000000000002 -0.4545454545454544,5.000000000000002 -0.35353535353535287,5.000000000000002 -0.2525252525252522,5.000000000000002 -0.15151515151515066,5.000000000000002 -0.05050505050505001,5.000000000000002 0.050505050505051545,5.000000000000002 0.1515151515151522,5.000000000000002 0.2525252525252529,5.000000000000002 0.3535353535353544,5.000000000000002 0.4545454545454551,5.000000000000002 0.5555555555555567,5.000000000000002 0.6565656565656574,5.000000000000002 0.7575757575757579,5.000000000000002 0.8585858585858596,5.000000000000002 0.9595959595959602,5.000000000000002 1.0606060606060617,5.000000000000002 1.1616161616161622,5.000000000000002 1.262626262626263,5.000000000000002 1.3636363636363644,5.000000000000002 1.4646464646464652,5.000000000000002 1.5656565656565666,5.000000000000002 1.6666666666666674,5.000000000000002 1.767676767676768,5.000000000000002 1.8686868686868696,5.000000000000002 1.9696969696969702,5.000000000000002 2.070707070707072,5.000000000000002 2.1717171717171726,5.000000000000002 2.2727272727272734,5.000000000000002 2.373737373737375,5.000000000000002 2.4747474747474754,5.000000000000002 2.575757575757577,5.000000000000002 2.676767676767678,5.000000000000002 2.7777777777777786,5.000000000000002 2.87878787878788,5.000000000000002 2.9797979797979806,5.000000000000002 3.080808080808082,5.000000000000002 3.181818181818183,5.000000000000002 3.2828282828282833,5.000000000000002 3.383838383838384,5.000000000000002 3.4848484848484866,5.000000000000002 3.5858585858585874,5.000000000000002 3.6868686868686877,5.000000000000002 3.7878787878787885,5.000000000000002 3.8888888888888893,5.000000000000002 3.989898989898992,5.000000000000002 4.090909090909092,5.000000000000002 4.191919191919193,5.000000000000002 4.292929292929293,5.000000000000002 4.393939393939394,5.000000000000002 4.494949494949497,5.000000000000002 4.595959595959597,5.000000000000002 4.696969696969697,5.000000000000002 4.7979797979797985,5.000000000000002 4.898989898989901,5.000000000000002" data-type="line" data-label="" points="40.00000000000023,144.88888888888908 49.53535353535386,135.35353535353545 59.07070707070733,125.81818181818198 68.60606060606085,116.28282828282846 78.14141414141443,106.747474747475 87.6767676767679,97.21212121212153 97.21212121212153,87.67676767676778 106.747474747475,78.14141414141432 116.28282828282846,68.60606060606085 125.8181818181821,59.07070707070733 135.35353535353562,49.53535353535369 144.8888888888892,40.000000000000114 154.42424242424272,40.000000000000114 163.95959595959624,40.000000000000114 173.49494949494976,40.000000000000114 183.0303030303033,40.000000000000114 192.56565656565687,40.000000000000114 202.1010101010104,40.000000000000114 211.6363636363639,40.000000000000114 221.17171717171743,40.000000000000114 230.707070707071,40.000000000000114 240.24242424242448,40.000000000000114 249.777777777778,40.000000000000114 259.3131313131315,40.000000000000114 268.8484848484851,40.000000000000114 278.3838383838387,40.000000000000114 287.91919191919214,40.000000000000114 297.45454545454567,40.000000000000114 306.9898989898992,40.000000000000114 316.52525252525277,40.000000000000114 326.0606060606063,40.000000000000114 335.5959595959598,40.000000000000114 345.13131313131333,40.000000000000114 354.66666666666686,40.000000000000114 364.20202020202044,40.000000000000114 373.7373737373739,40.000000000000114 383.2727272727275,40.000000000000114 392.80808080808094,40.000000000000114 402.3434343434345,40.000000000000114 411.87878787878805,40.000000000000114 421.41414141414157,40.000000000000114 430.94949494949515,40.000000000000114 440.48484848484867,40.000000000000114 450.02020202020225,40.000000000000114 459.55555555555577,40.000000000000114 469.09090909090924,40.000000000000114 478.6262626262628,40.000000000000114 488.16161616161634,40.000000000000114 497.6969696969699,40.000000000000114 507.2323232323234,40.000000000000114 516.767676767677,40.000000000000114 526.3030303030305,40.000000000000114 535.838383838384,40.000000000000114 545.3737373737375,40.000000000000114 554.9090909090911,40.000000000000114 564.4444444444447,40.000000000000114 573.9797979797981,40.000000000000114 583.5151515151516,40.000000000000114 593.0505050505052,40.000000000000114 602.5858585858588,40.000000000000114 612.1212121212122,40.000000000000114 621.6565656565658,40.000000000000114 631.1919191919193,40.000000000000114 640.7272727272729,40.000000000000114 650.2626262626263,40.000000000000114 659.7979797979799,40.000000000000114 669.3333333333335,40.000000000000114 678.868686868687,40.000000000000114 688.4040404040405,40.000000000000114 697.939393939394,40.000000000000114 707.4747474747476,40.000000000000114 717.0101010101012,40.000000000000114 726.5454545454546,40.000000000000114 736.0808080808082,40.000000000000114 745.6161616161617,40.000000000000114 755.1515151515152,40.000000000000114 764.6868686868688,40.000000000000114 774.2222222222223,40.000000000000114 783.7575757575759,40.000000000000114 793.2929292929293,40.000000000000114 802.8282828282829,40.000000000000114 812.3636363636365,40.000000000000114 821.89898989899,40.000000000000114 831.4343434343434,40.000000000000114 840.9696969696971,40.000000000000114 850.5050505050506,40.000000000000114 860.0404040404042,40.000000000000114 869.5757575757576,40.000000000000114 879.1111111111111,40.000000000000114 888.6464646464648,40.000000000000114 898.1818181818182,40.000000000000114 907.7171717171718,40.000000000000114 917.2525252525252,40.000000000000114 926.7878787878788,40.000000000000114 936.3232323232324,40.000000000000114 945.8585858585859,40.000000000000114 955.3939393939394,40.000000000000114 964.9292929292928,40.000000000000114 974.4646464646465,40.000000000000114" fill="none" stroke="rgba(255,0,0,0.75)" stroke-width="11.327999999999996"/></g><g><polyline data-points="-2.3737373737373733,5.000000000000002 -2.2727272727272725,4.898989898989901 -2.1717171717171713,4.7979797979797985 -2.07070707070707,4.696969696969697 -1.9696969696969693,4.595959595959597 -1.8686868686868683,4.494949494949497 -1.7676767676767675,4.393939393939394 -1.6666666666666665,4.292929292929293 -1.5656565656565653,4.191919191919193 -1.4646464646464643,4.090909090909092 -1.363636363636363,3.989898989898992 -1.2626262626262625,3.8888888888888893 -1.1616161616161613,3.7878787878787885 -1.0606060606060603,3.6868686868686877 -0.9595959595959596,3.5858585858585874 -0.8585858585858579,3.4848484848484866 -0.7575757575757572,3.383838383838384 -0.6565656565656557,3.2828282828282833 -0.555555555555555,3.181818181818183 -0.4545454545454544,3.080808080808082 -0.35353535353535287,2.9797979797979806 -0.2525252525252522,2.87878787878788 -0.15151515151515066,2.7777777777777786 -0.05050505050505001,2.676767676767678 0.050505050505051545,2.575757575757577 0.1515151515151522,2.4747474747474754 0.2525252525252529,2.373737373737375 0.3535353535353544,2.2727272727272734 0.4545454545454551,2.1717171717171726 0.5555555555555567,2.070707070707072 0.6565656565656574,1.9696969696969702 0.7575757575757579,1.8686868686868696 0.8585858585858596,1.767676767676768 0.9595959595959602,1.6666666666666674 1.0606060606060617,1.5656565656565666 1.1616161616161622,1.4646464646464652 1.262626262626263,1.3636363636363644 1.3636363636363644,1.262626262626263 1.4646464646464652,1.1616161616161622 1.5656565656565666,1.0606060606060617 1.6666666666666674,0.9595959595959602 1.767676767676768,0.8585858585858596 1.8686868686868696,0.7575757575757579 1.9696969696969702,0.6565656565656574 1.9696969696969702,0.5555555555555567 1.9696969696969702,0.4545454545454551 1.9696969696969702,0.3535353535353544 1.9696969696969702,0.2525252525252529 1.9696969696969702,0.1515151515151522 1.9696969696969702,0.050505050505051545 1.9696969696969702,-0.05050505050505001 1.9696969696969702,-0.15151515151515066 1.9696969696969702,-0.2525252525252522 1.9696969696969702,-0.35353535353535287 1.9696969696969702,-0.4545454545454544 1.9696969696969702,-0.555555555555555 1.9696969696969702,-0.6565656565656557 1.9696969696969702,-0.7575757575757572 1.9696969696969702,-0.8585858585858579 1.9696969696969702,-0.9595959595959596 1.9696969696969702,-1.0606060606060603 1.9696969696969702,-1.1616161616161613 1.9696969696969702,-1.2626262626262625 1.9696969696969702,-1.363636363636363 1.9696969696969702,-1.4646464646464643 1.9696969696969702,-1.5656565656565653 1.9696969696969702,-1.6666666666666665 1.9696969696969702,-1.7676767676767675 1.9696969696969702,-1.8686868686868683 1.9696969696969702,-1.9696969696969693 1.9696969696969702,-2.07070707070707 1.9696969696969702,-2.1717171717171713 1.9696969696969702,-2.2727272727272725 1.9696969696969702,-2.3737373737373733 1.9696969696969702,-2.474747474747474 1.9696969696969702,-2.5757575757575752 1.9696969696969702,-2.6767676767676765 1.9696969696969702,-2.7777777777777777 1.9696969696969702,-2.8787878787878785 1.9696969696969702,-2.9797979797979792 1.9696969696969702,-3.0808080808080804 1.9696969696969702,-3.1818181818181817 1.9696969696969702,-3.2828282828282824 1.9696969696969702,-3.383838383838383 1.9696969696969702,-3.484848484848485 1.9696969696969702,-3.5858585858585856 1.9696969696969702,-3.6868686868686864 1.9696969696969702,-3.7878787878787876 1.9696969696969702,-3.8888888888888884 1.9696969696969702,-3.98989898989899 1.9696969696969702,-4.090909090909091 1.9696969696969702,-4.191919191919193 1.9696969696969702,-4.292929292929293 1.9696969696969702,-4.393939393939394 1.9696969696969702,-4.494949494949496 1.9696969696969702,-4.595959595959596 1.9696969696969702,-4.696969696969697 1.9696969696969702,-4.7979797979797985 1.9696969696969702,-4.898989898989899 1.9696969696969702,-5.000000000000001" data-type="line" data-label="" points="287.91919191919214,40.000000000000114 297.45454545454567,49.53535353535369 306.9898989898992,59.07070707070733 316.52525252525277,68.60606060606085 326.0606060606063,78.14141414141432 335.5959595959598,87.67676767676778 345.13131313131333,97.21212121212153 354.66666666666686,106.747474747475 364.20202020202044,116.28282828282846 373.7373737373739,125.81818181818198 383.2727272727275,135.35353535353545 392.80808080808094,144.88888888888908 402.3434343434345,154.4242424242426 411.87878787878805,163.95959595959613 421.41414141414157,173.4949494949496 430.94949494949515,183.03030303030312 440.48484848484867,192.56565656565675 450.02020202020225,202.10101010101027 459.55555555555577,211.63636363636374 469.09090909090924,221.17171717171726 478.6262626262628,230.70707070707084 488.16161616161634,240.24242424242436 497.6969696969699,249.77777777777794 507.2323232323234,259.3131313131314 516.767676767677,268.84848484848493 526.3030303030305,278.38383838383857 535.838383838384,287.91919191919203 545.3737373737375,297.4545454545456 554.9090909090911,306.9898989898991 564.4444444444447,316.5252525252526 573.9797979797981,326.06060606060623 583.5151515151516,335.5959595959597 593.0505050505052,345.1313131313133 602.5858585858588,354.66666666666674 612.1212121212122,364.2020202020203 621.6565656565658,373.73737373737384 631.1919191919193,383.27272727272737 640.7272727272729,392.80808080808094 650.2626262626263,402.3434343434344 659.7979797979799,411.87878787878793 669.3333333333335,421.4141414141415 678.868686868687,430.94949494949503 688.4040404040405,440.4848484848486 697.939393939394,450.0202020202021 697.939393939394,459.5555555555556 697.939393939394,469.0909090909092 697.939393939394,478.6262626262627 697.939393939394,488.1616161616163 697.939393939394,497.69696969696975 697.939393939394,507.23232323232327 697.939393939394,516.7676767676768 697.939393939394,526.3030303030304 697.939393939394,535.838383838384 697.939393939394,545.3737373737374 697.939393939394,554.909090909091 697.939393939394,564.4444444444445 697.939393939394,573.979797979798 697.939393939394,583.5151515151516 697.939393939394,593.0505050505051 697.939393939394,602.5858585858587 697.939393939394,612.1212121212121 697.939393939394,621.6565656565657 697.939393939394,631.1919191919193 697.939393939394,640.7272727272727 697.939393939394,650.2626262626263 697.939393939394,659.7979797979798 697.939393939394,669.3333333333334 697.939393939394,678.8686868686868 697.939393939394,688.4040404040404 697.939393939394,697.939393939394 697.939393939394,707.4747474747475 697.939393939394,717.010101010101 697.939393939394,726.5454545454545 697.939393939394,736.0808080808081 697.939393939394,745.6161616161615 697.939393939394,755.1515151515151 697.939393939394,764.6868686868687 697.939393939394,774.2222222222222 697.939393939394,783.7575757575758 697.939393939394,793.2929292929292 697.939393939394,802.8282828282828 697.939393939394,812.3636363636363 697.939393939394,821.8989898989898 697.939393939394,831.4343434343434 697.939393939394,840.969696969697 697.939393939394,850.5050505050505 697.939393939394,860.0404040404039 697.939393939394,869.5757575757575 697.939393939394,879.1111111111111 697.939393939394,888.6464646464647 697.939393939394,898.1818181818181 697.939393939394,907.7171717171718 697.939393939394,917.2525252525252 697.939393939394,926.7878787878788 697.939393939394,936.3232323232323 697.939393939394,945.8585858585858 697.939393939394,955.3939393939394 697.939393939394,964.9292929292928 697.939393939394,974.4646464646464 697.939393939394,984" fill="none" stroke="rgba(0,0,255,0.75)" stroke-width="11.327999999999996"/></g><g><rect data-type="rect" data-label="" data-x="0" data-y="0" x="40.000000000000284" y="40.000000000000284" width="943.9999999999998" height="943.9999999999998" fill="none" stroke="gray" stroke-width="0.010593220338983056"/></g><g><rect data-type="rect" data-label="" data-x="0" data-y="0" x="40.000000000000284" y="40.000000000000284" width="943.9999999999998" height="943.9999999999998" fill="none" stroke="rgba(15, 23, 42, 0.8)" stroke-width="0.010593220338983056"/></g><g id="crosshair" style="display: none"><line id="crosshair-h" y1="0" y2="1024" stroke="#666" stroke-width="0.5"/><line id="crosshair-v" x1="0" x2="1024" stroke="#666" stroke-width="0.5"/><text id="coordinates" font-family="monospace" font-size="12" fill="#666"></text></g><script><![CDATA[
              document.currentScript.parentElement.addEventListener('mousemove', (e) => {
                const svg = e.currentTarget;
                const rect = svg.getBoundingClientRect();
                const x = e.clientX - rect.left;
                const y = e.clientY - rect.top;
                const crosshair = svg.getElementById('crosshair');
                const h = svg.getElementById('crosshair-h');
                const v = svg.getElementById('crosshair-v');
                const coords = svg.getElementById('coordinates');
                
                crosshair.style.display = 'block';
                h.setAttribute('x1', '0');
                h.setAttribute('x2', '1024');
                h.setAttribute('y1', y);
                h.setAttribute('y2', y);
                v.setAttribute('x1', x);
                v.setAttribute('x2', x);
                v.setAttribute('y1', '0');
                v.setAttribute('y2', '1024');

                // Calculate real coordinates using inverse transformation
                const matrix = {"a":94.39999999999996,"c":0,"e":512.0000000000001,"b":0,"d":-94.39999999999996,"f":512.0000000000001};
                // Manually invert and apply the affine transform
                // Since we only use translate and scale, we can directly compute:
                // x' = (x - tx) / sx
                // y' = (y - ty) / sy
                const sx = matrix.a;
                const sy = matrix.d;
                const tx = matrix.e; 
                const ty = matrix.f;
                const realPoint = {
                  x: (x - tx) / sx,
                  y: (y - ty) / sy // Flip y back since we used negative scale
                }
                
                coords.textContent = `(${realPoint.x.toFixed(2)}, ${realPoint.y.toFixed(2)})`;
                coords.setAttribute('x', (x + 5).toString());
                coords.setAttribute('y', (y - 5).toString());
              });
              document.currentScript.parentElement.addEventListener('mouseleave', () => {
                document.currentScript.parentElement.getElementById('crosshair').style.display = 'none';
              });
            ]]></script></svg>