<svg width="1024" height="1024" viewBox="0 0 1024 1024" xmlns="http://www.w3.org/2000/svg"><rect width="100%" height="100%" fill="white"/><g><circle data-type="point" data-label="conn_000" data-x="0.16" data-y="5" cx="527.1039999999999" cy="40.000000000000284" r="14.16" fill="blue"/></g><g><circle data-type="point" data-label="conn_000" data-x="5" data-y="2.24" cx="983.9999999999998" cy="300.5440000000002" r="14.16" fill="red"/></g><g><circle data-type="point" data-label="conn_001" data-x="-5" data-y="2.16" cx="40.000000000000114" cy="308.0960000000002" r="14.16" fill="blue"/></g><g><circle data-type="point" data-label="conn_001" data-x="5" data-y="-0.28" cx="983.9999999999998" cy="538.4320000000001" r="14.16" fill="red"/></g><g><circle data-type="point" data-label="conn_002" data-x="3.92" data-y="5" cx="882.0479999999998" cy="40.000000000000284" r="14.16" fill="red"/></g><g><circle data-type="point" data-label="conn_002" data-x="-2.84" data-y="-5" cx="243.90400000000005" cy="984" r="14.16" fill="red"/></g><g><circle data-type="point" data-label="conn_003" data-x="-5" data-y="0.62" cx="40.000000000000114" cy="453.47200000000015" r="14.16" fill="blue"/></g><g><circle data-type="point" data-label="conn_003" data-x="5" data-y="0.56" cx="983.9999999999998" cy="459.13600000000014" r="14.16" fill="blue"/></g><g><circle data-type="point" data-label="conn_004" data-x="-1.24" data-y="-5" cx="394.94399999999996" cy="984" r="14.16" fill="red"/></g><g><circle data-type="point" data-label="conn_004" data-x="-4.66" data-y="5" cx="72.09600000000012" cy="40.000000000000284" r="14.16" fill="red"/></g><g><circle data-type="point" data-label="conn_005" data-x="0.76" data-y="-5" cx="583.7439999999999" cy="984" r="14.16" fill="red"/></g><g><circle data-type="point" data-label="conn_005" data-x="1.3800000000000001" data-y="5" cx="642.2719999999999" cy="40.000000000000284" r="14.16" fill="blue"/></g><g><polyline data-points="0.7575757575757579,-5.000000000000001 0.8585858585858596,-4.898989898989899 0.9595959595959602,-4.7979797979797985 1.0606060606060617,-4.696969696969697 1.1616161616161622,-4.595959595959596 1.262626262626263,-4.494949494949496 1.3636363636363644,-4.393939393939394 1.3636363636363644,-4.292929292929293 1.3636363636363644,-4.191919191919193 1.3636363636363644,-4.090909090909091 1.3636363636363644,-3.98989898989899 1.3636363636363644,-3.8888888888888884 1.3636363636363644,-3.7878787878787876 1.3636363636363644,-3.6868686868686864 1.3636363636363644,-3.5858585858585856 1.3636363636363644,-3.484848484848485 1.3636363636363644,-3.383838383838383 1.3636363636363644,-3.2828282828282824 1.3636363636363644,-3.1818181818181817 1.3636363636363644,-3.0808080808080804 1.3636363636363644,-2.9797979797979792 1.3636363636363644,-2.8787878787878785 1.3636363636363644,-2.7777777777777777 1.3636363636363644,-2.6767676767676765 1.3636363636363644,-2.5757575757575752 1.3636363636363644,-2.474747474747474 1.3636363636363644,-2.3737373737373733 1.3636363636363644,-2.2727272727272725 1.3636363636363644,-2.1717171717171713 1.3636363636363644,-2.07070707070707 1.3636363636363644,-1.9696969696969693 1.3636363636363644,-1.8686868686868683 1.3636363636363644,-1.7676767676767675 1.3636363636363644,-1.6666666666666665 1.3636363636363644,-1.5656565656565653 1.3636363636363644,-1.4646464646464643 1.3636363636363644,-1.363636363636363 1.3636363636363644,-1.2626262626262625 1.3636363636363644,-1.1616161616161613 1.3636363636363644,-1.0606060606060603 1.3636363636363644,-0.9595959595959596 1.3636363636363644,-0.8585858585858579 1.3636363636363644,-0.7575757575757572 1.3636363636363644,-0.6565656565656557 1.3636363636363644,-0.555555555555555 1.3636363636363644,-0.4545454545454544 1.3636363636363644,-0.35353535353535287 1.3636363636363644,-0.2525252525252522 1.3636363636363644,-0.15151515151515066 1.3636363636363644,-0.05050505050505001 1.3636363636363644,0.050505050505051545 1.3636363636363644,0.1515151515151522 1.3636363636363644,0.2525252525252529 1.3636363636363644,0.3535353535353544 1.3636363636363644,0.4545454545454551 1.3636363636363644,0.5555555555555567 1.3636363636363644,0.6565656565656574 1.3636363636363644,0.7575757575757579 1.3636363636363644,0.8585858585858596 1.3636363636363644,0.9595959595959602 1.3636363636363644,1.0606060606060617 1.3636363636363644,1.1616161616161622 1.3636363636363644,1.262626262626263 1.3636363636363644,1.3636363636363644 1.3636363636363644,1.4646464646464652 1.3636363636363644,1.5656565656565666 1.3636363636363644,1.6666666666666674 1.3636363636363644,1.767676767676768 1.3636363636363644,1.8686868686868696 1.3636363636363644,1.9696969696969702 1.3636363636363644,2.070707070707072 1.3636363636363644,2.1717171717171726 1.3636363636363644,2.2727272727272734 1.3636363636363644,2.373737373737375 1.3636363636363644,2.4747474747474754 1.3636363636363644,2.575757575757577 1.3636363636363644,2.676767676767678 1.3636363636363644,2.7777777777777786 1.3636363636363644,2.87878787878788 1.3636363636363644,2.9797979797979806 1.3636363636363644,3.080808080808082 1.3636363636363644,3.181818181818183 1.3636363636363644,3.2828282828282833 1.3636363636363644,3.383838383838384 1.3636363636363644,3.4848484848484866 1.3636363636363644,3.5858585858585874 1.3636363636363644,3.6868686868686877 1.3636363636363644,3.7878787878787885 1.3636363636363644,3.8888888888888893 1.3636363636363644,3.989898989898992" data-type="line" data-label="" points="583.5151515151515,984 593.0505050505051,974.4646464646464 602.5858585858585,964.9292929292928 612.1212121212121,955.3939393939394 621.6565656565656,945.8585858585858 631.1919191919192,936.3232323232323 640.7272727272727,926.7878787878788 640.7272727272727,917.2525252525252 640.7272727272727,907.7171717171718 640.7272727272727,898.1818181818181 640.7272727272727,888.6464646464647 640.7272727272727,879.1111111111111 640.7272727272727,869.5757575757575 640.7272727272727,860.0404040404039 640.7272727272727,850.5050505050505 640.7272727272727,840.969696969697 640.7272727272727,831.4343434343434 640.7272727272727,821.8989898989898 640.7272727272727,812.3636363636363 640.7272727272727,802.8282828282828 640.7272727272727,793.2929292929292 640.7272727272727,783.7575757575758 640.7272727272727,774.2222222222222 640.7272727272727,764.6868686868687 640.7272727272727,755.1515151515151 640.7272727272727,745.6161616161615 640.7272727272727,736.0808080808081 640.7272727272727,726.5454545454545 640.7272727272727,717.010101010101 640.7272727272727,707.4747474747475 640.7272727272727,697.939393939394 640.7272727272727,688.4040404040404 640.7272727272727,678.8686868686868 640.7272727272727,669.3333333333334 640.7272727272727,659.7979797979798 640.7272727272727,650.2626262626263 640.7272727272727,640.7272727272727 640.7272727272727,631.1919191919193 640.7272727272727,621.6565656565657 640.7272727272727,612.1212121212121 640.7272727272727,602.5858585858587 640.7272727272727,593.0505050505051 640.7272727272727,583.5151515151516 640.7272727272727,573.979797979798 640.7272727272727,564.4444444444445 640.7272727272727,554.909090909091 640.7272727272727,545.3737373737374 640.7272727272727,535.838383838384 640.7272727272727,526.3030303030304 640.7272727272727,516.7676767676768 640.7272727272727,507.23232323232327 640.7272727272727,497.69696969696975 640.7272727272727,488.1616161616163 640.7272727272727,478.6262626262627 640.7272727272727,469.0909090909092 640.7272727272727,459.5555555555556 640.7272727272727,450.0202020202021 640.7272727272727,440.4848484848486 640.7272727272727,430.94949494949503 640.7272727272727,421.4141414141415 640.7272727272727,411.87878787878793 640.7272727272727,402.3434343434344 640.7272727272727,392.80808080808094 640.7272727272727,383.27272727272737 640.7272727272727,373.73737373737384 640.7272727272727,364.2020202020203 640.7272727272727,354.66666666666674 640.7272727272727,345.1313131313133 640.7272727272727,335.5959595959597 640.7272727272727,326.06060606060623 640.7272727272727,316.5252525252526 640.7272727272727,306.9898989898991 640.7272727272727,297.4545454545456 640.7272727272727,287.91919191919203 640.7272727272727,278.38383838383857 640.7272727272727,268.84848484848493 640.7272727272727,259.3131313131314 640.7272727272727,249.77777777777794 640.7272727272727,240.24242424242436 640.7272727272727,230.70707070707084 640.7272727272727,221.17171717171726 640.7272727272727,211.63636363636374 640.7272727272727,202.10101010101027 640.7272727272727,192.56565656565675 640.7272727272727,183.03030303030312 640.7272727272727,173.4949494949496 640.7272727272727,163.95959595959613 640.7272727272727,154.4242424242426 640.7272727272727,144.88888888888908 640.7272727272727,135.35353535353545" fill="none" stroke="rgba(255,0,0,0.75)" stroke-width="11.327999999999996"/></g><g><polyline data-points="1.3636363636363644,3.989898989898992 1.3636363636363644,4.090909090909092 1.3636363636363644,4.191919191919193 1.3636363636363644,4.292929292929293 1.3636363636363644,4.393939393939394 1.3636363636363644,4.494949494949497 1.3636363636363644,4.595959595959597 1.3636363636363644,4.696969696969697 1.3636363636363644,4.7979797979797985 1.3636363636363644,4.898989898989901 1.3636363636363644,5.000000000000002" data-type="line" data-label="" points="640.7272727272727,135.35353535353545 640.7272727272727,125.81818181818198 640.7272727272727,116.28282828282846 640.7272727272727,106.747474747475 640.7272727272727,97.21212121212153 640.7272727272727,87.67676767676778 640.7272727272727,78.14141414141432 640.7272727272727,68.60606060606085 640.7272727272727,59.07070707070733 640.7272727272727,49.53535353535369 640.7272727272727,40.000000000000114" fill="none" stroke="rgba(0,0,255,0.75)" stroke-width="11.327999999999996"/></g><g><polyline data-points="-5.000000000000001,2.1717171717171726 -4.898989898989899,2.070707070707072 -4.7979797979797985,1.9696969696969702 -4.696969696969697,1.8686868686868696 -4.595959595959596,1.767676767676768 -4.494949494949496,1.6666666666666674 -4.393939393939394,1.5656565656565666 -4.292929292929293,1.4646464646464652 -4.191919191919193,1.3636363636363644 -4.090909090909091,1.262626262626263 -3.98989898989899,1.1616161616161622 -3.8888888888888884,1.0606060606060617 -3.7878787878787876,0.9595959595959602 -3.6868686868686864,0.8585858585858596 -3.5858585858585856,0.7575757575757579 -3.484848484848485,0.6565656565656574 -3.383838383838383,0.5555555555555567 -3.2828282828282824,0.4545454545454551 -3.1818181818181817,0.3535353535353544 -3.0808080808080804,0.2525252525252529 -2.9797979797979792,0.1515151515151522 -2.8787878787878785,0.050505050505051545 -2.7777777777777777,-0.05050505050505001 -2.6767676767676765,-0.15151515151515066 -2.5757575757575752,-0.2525252525252522 -2.474747474747474,-0.2525252525252522 -2.3737373737373733,-0.2525252525252522 -2.2727272727272725,-0.2525252525252522 -2.1717171717171713,-0.2525252525252522 -2.07070707070707,-0.2525252525252522 -1.9696969696969693,-0.2525252525252522 -1.8686868686868683,-0.2525252525252522 -1.7676767676767675,-0.2525252525252522 -1.6666666666666665,-0.2525252525252522 -1.5656565656565653,-0.2525252525252522 -1.4646464646464643,-0.2525252525252522 -1.363636363636363,-0.2525252525252522 -1.2626262626262625,-0.2525252525252522 -1.1616161616161613,-0.2525252525252522 -1.0606060606060603,-0.2525252525252522 -0.9595959595959596,-0.2525252525252522 -0.8585858585858579,-0.2525252525252522 -0.7575757575757572,-0.2525252525252522 -0.6565656565656557,-0.2525252525252522 -0.555555555555555,-0.2525252525252522 -0.4545454545454544,-0.2525252525252522 -0.35353535353535287,-0.2525252525252522 -0.2525252525252522,-0.2525252525252522 -0.15151515151515066,-0.2525252525252522 -0.05050505050505001,-0.2525252525252522 0.050505050505051545,-0.2525252525252522 0.1515151515151522,-0.2525252525252522 0.2525252525252529,-0.2525252525252522 0.3535353535353544,-0.2525252525252522 0.4545454545454551,-0.2525252525252522 0.5555555555555567,-0.2525252525252522 0.6565656565656574,-0.2525252525252522 0.7575757575757579,-0.2525252525252522 0.8585858585858596,-0.2525252525252522 0.9595959595959602,-0.2525252525252522 1.0606060606060617,-0.2525252525252522 1.1616161616161622,-0.2525252525252522 1.262626262626263,-0.2525252525252522 1.3636363636363644,-0.2525252525252522 1.4646464646464652,-0.2525252525252522 1.5656565656565666,-0.2525252525252522 1.6666666666666674,-0.2525252525252522 1.767676767676768,-0.2525252525252522 1.8686868686868696,-0.2525252525252522 1.9696969696969702,-0.2525252525252522 2.070707070707072,-0.2525252525252522 2.1717171717171726,-0.2525252525252522 2.2727272727272734,-0.2525252525252522 2.373737373737375,-0.2525252525252522 2.4747474747474754,-0.2525252525252522 2.575757575757577,-0.2525252525252522 2.676767676767678,-0.2525252525252522 2.7777777777777786,-0.2525252525252522 2.87878787878788,-0.2525252525252522 2.9797979797979806,-0.2525252525252522 3.080808080808082,-0.2525252525252522 3.181818181818183,-0.2525252525252522 3.2828282828282833,-0.2525252525252522 3.383838383838384,-0.2525252525252522 3.4848484848484866,-0.2525252525252522 3.5858585858585874,-0.2525252525252522 3.6868686868686877,-0.2525252525252522 3.7878787878787885,-0.2525252525252522 3.8888888888888893,-0.2525252525252522 3.989898989898992,-0.2525252525252522" data-type="line" data-label="" points="40.00000000000006,306.9898989898991 49.53535353535369,316.5252525252526 59.07070707070716,326.06060606060623 68.60606060606068,335.5959595959597 78.14141414141426,345.1313131313133 87.67676767676772,354.66666666666674 97.21212121212136,364.2020202020203 106.74747474747483,373.73737373737384 116.28282828282829,383.27272727272737 125.81818181818193,392.80808080808094 135.35353535353545,402.3434343434344 144.88888888888903,411.87878787878793 154.42424242424255,421.4141414141415 163.95959595959607,430.94949494949503 173.4949494949496,440.4848484848486 183.03030303030312,450.0202020202021 192.5656565656567,459.5555555555556 202.10101010101022,469.0909090909092 211.63636363636374,478.6262626262627 221.17171717171726,488.1616161616163 230.70707070707084,497.69696969696975 240.2424242424243,507.23232323232327 249.77777777777783,516.7676767676768 259.3131313131314,526.3030303030304 268.84848484848493,535.838383838384 278.38383838383845,535.838383838384 287.91919191919203,535.838383838384 297.4545454545455,535.838383838384 306.9898989898991,535.838383838384 316.5252525252526,535.838383838384 326.0606060606061,535.838383838384 335.59595959595964,535.838383838384 345.13131313131316,535.838383838384 354.6666666666667,535.838383838384 364.2020202020202,535.838383838384 373.7373737373738,535.838383838384 383.2727272727273,535.838383838384 392.80808080808083,535.838383838384 402.34343434343435,535.838383838384 411.8787878787879,535.838383838384 421.4141414141414,535.838383838384 430.949494949495,535.838383838384 440.4848484848485,535.838383838384 450.0202020202021,535.838383838384 459.55555555555554,535.838383838384 469.09090909090907,535.838383838384 478.62626262626264,535.838383838384 488.16161616161617,535.838383838384 497.69696969696975,535.838383838384 507.2323232323232,535.838383838384 516.7676767676768,535.838383838384 526.3030303030303,535.838383838384 535.8383838383838,535.838383838384 545.3737373737374,535.838383838384 554.9090909090909,535.838383838384 564.4444444444445,535.838383838384 573.9797979797979,535.838383838384 583.5151515151515,535.838383838384 593.0505050505051,535.838383838384 602.5858585858585,535.838383838384 612.1212121212121,535.838383838384 621.6565656565656,535.838383838384 631.1919191919192,535.838383838384 640.7272727272727,535.838383838384 650.2626262626262,535.838383838384 659.7979797979798,535.838383838384 669.3333333333333,535.838383838384 678.8686868686868,535.838383838384 688.4040404040404,535.838383838384 697.9393939393939,535.838383838384 707.4747474747475,535.838383838384 717.0101010101009,535.838383838384 726.5454545454545,535.838383838384 736.0808080808081,535.838383838384 745.6161616161615,535.838383838384 755.1515151515151,535.838383838384 764.6868686868686,535.838383838384 774.2222222222222,535.838383838384 783.7575757575758,535.838383838384 793.2929292929292,535.838383838384 802.8282828282828,535.838383838384 812.3636363636363,535.838383838384 821.8989898989898,535.838383838384 831.4343434343433,535.838383838384 840.969696969697,535.838383838384 850.5050505050505,535.838383838384 860.0404040404039,535.838383838384 869.5757575757575,535.838383838384 879.111111111111,535.838383838384 888.6464646464647,535.838383838384" fill="none" stroke="rgba(0,0,255,0.75)" stroke-width="11.327999999999996"/></g><g><polyline data-points="3.989898989898992,-0.2525252525252522 4.090909090909092,-0.2525252525252522 4.191919191919193,-0.2525252525252522 4.292929292929293,-0.2525252525252522 4.393939393939394,-0.2525252525252522 4.494949494949497,-0.2525252525252522 4.595959595959597,-0.2525252525252522 4.696969696969697,-0.2525252525252522 4.7979797979797985,-0.2525252525252522 4.898989898989901,-0.2525252525252522 5.000000000000002,-0.2525252525252522" data-type="line" data-label="" points="888.6464646464647,535.838383838384 898.181818181818,535.838383838384 907.7171717171716,535.838383838384 917.2525252525251,535.838383838384 926.7878787878785,535.838383838384 936.3232323232323,535.838383838384 945.8585858585857,535.838383838384 955.3939393939393,535.838383838384 964.9292929292927,535.838383838384 974.4646464646464,535.838383838384 984,535.838383838384" fill="none" stroke="rgba(255,0,0,0.75)" stroke-width="11.327999999999996"/></g><g><polyline data-points="3.989898989898992,5.000000000000002 3.8888888888888893,4.898989898989901 3.7878787878787885,4.7979797979797985 3.6868686868686877,4.696969696969697 3.5858585858585874,4.595959595959597 3.4848484848484866,4.494949494949497 3.383838383838384,4.393939393939394 3.2828282828282833,4.292929292929293 3.181818181818183,4.191919191919193 3.080808080808082,4.090909090909092 2.9797979797979806,3.989898989898992 2.87878787878788,3.8888888888888893 2.7777777777777786,3.7878787878787885 2.676767676767678,3.6868686868686877 2.575757575757577,3.5858585858585874 2.4747474747474754,3.4848484848484866 2.373737373737375,3.383838383838384 2.2727272727272734,3.2828282828282833 2.1717171717171726,3.181818181818183 2.070707070707072,3.080808080808082 1.9696969696969702,2.9797979797979806 1.8686868686868696,2.87878787878788 1.767676767676768,2.7777777777777786 1.767676767676768,2.676767676767678 1.767676767676768,2.575757575757577 1.767676767676768,2.4747474747474754 1.767676767676768,2.373737373737375 1.767676767676768,2.2727272727272734 1.767676767676768,2.1717171717171726 1.767676767676768,2.070707070707072 1.767676767676768,1.9696969696969702 1.767676767676768,1.8686868686868696 1.767676767676768,1.767676767676768 1.767676767676768,1.6666666666666674 1.767676767676768,1.5656565656565666 1.767676767676768,1.4646464646464652 1.767676767676768,1.3636363636363644 1.767676767676768,1.262626262626263 1.767676767676768,1.1616161616161622 1.767676767676768,1.0606060606060617 1.767676767676768,0.9595959595959602 1.767676767676768,0.8585858585858596 1.767676767676768,0.7575757575757579 1.767676767676768,0.6565656565656574 1.767676767676768,0.5555555555555567 1.767676767676768,0.4545454545454551 1.767676767676768,0.3535353535353544 1.767676767676768,0.2525252525252529 1.767676767676768,0.1515151515151522 1.767676767676768,0.050505050505051545 1.767676767676768,-0.05050505050505001 1.767676767676768,-0.15151515151515066 1.767676767676768,-0.2525252525252522 1.767676767676768,-0.35353535353535287 1.767676767676768,-0.4545454545454544 1.767676767676768,-0.555555555555555 1.767676767676768,-0.6565656565656557 1.767676767676768,-0.7575757575757572 1.767676767676768,-0.8585858585858579 1.767676767676768,-0.9595959595959596 1.767676767676768,-1.0606060606060603 1.767676767676768,-1.1616161616161613 1.767676767676768,-1.2626262626262625 1.767676767676768,-1.363636363636363 1.767676767676768,-1.4646464646464643 1.767676767676768,-1.5656565656565653 1.767676767676768,-1.6666666666666665 1.767676767676768,-1.7676767676767675 1.767676767676768,-1.8686868686868683 1.767676767676768,-1.9696969696969693 1.767676767676768,-2.07070707070707 1.767676767676768,-2.1717171717171713 1.767676767676768,-2.2727272727272725 1.767676767676768,-2.3737373737373733 1.767676767676768,-2.474747474747474 1.767676767676768,-2.5757575757575752 1.767676767676768,-2.6767676767676765 1.767676767676768,-2.7777777777777777 1.767676767676768,-2.8787878787878785 1.767676767676768,-2.9797979797979792 1.767676767676768,-3.0808080808080804 1.767676767676768,-3.1818181818181817 1.767676767676768,-3.2828282828282824 1.767676767676768,-3.383838383838383" data-type="line" data-label="" points="888.6464646464647,40.000000000000114 879.111111111111,49.53535353535369 869.5757575757575,59.07070707070733 860.0404040404039,68.60606060606085 850.5050505050505,78.14141414141432 840.969696969697,87.67676767676778 831.4343434343433,97.21212121212153 821.8989898989898,106.747474747475 812.3636363636363,116.28282828282846 802.8282828282828,125.81818181818198 793.2929292929292,135.35353535353545 783.7575757575758,144.88888888888908 774.2222222222222,154.4242424242426 764.6868686868686,163.95959595959613 755.1515151515151,173.4949494949496 745.6161616161615,183.03030303030312 736.0808080808081,192.56565656565675 726.5454545454545,202.10101010101027 717.0101010101009,211.63636363636374 707.4747474747475,221.17171717171726 697.9393939393939,230.70707070707084 688.4040404040404,240.24242424242436 678.8686868686868,249.77777777777794 678.8686868686868,259.3131313131314 678.8686868686868,268.84848484848493 678.8686868686868,278.38383838383857 678.8686868686868,287.91919191919203 678.8686868686868,297.4545454545456 678.8686868686868,306.9898989898991 678.8686868686868,316.5252525252526 678.8686868686868,326.06060606060623 678.8686868686868,335.5959595959597 678.8686868686868,345.1313131313133 678.8686868686868,354.66666666666674 678.8686868686868,364.2020202020203 678.8686868686868,373.73737373737384 678.8686868686868,383.27272727272737 678.8686868686868,392.80808080808094 678.8686868686868,402.3434343434344 678.8686868686868,411.87878787878793 678.8686868686868,421.4141414141415 678.8686868686868,430.94949494949503 678.8686868686868,440.4848484848486 678.8686868686868,450.0202020202021 678.8686868686868,459.5555555555556 678.8686868686868,469.0909090909092 678.8686868686868,478.6262626262627 678.8686868686868,488.1616161616163 678.8686868686868,497.69696969696975 678.8686868686868,507.23232323232327 678.8686868686868,516.7676767676768 678.8686868686868,526.3030303030304 678.8686868686868,535.838383838384 678.8686868686868,545.3737373737374 678.8686868686868,554.909090909091 678.8686868686868,564.4444444444445 678.8686868686868,573.979797979798 678.8686868686868,583.5151515151516 678.8686868686868,593.0505050505051 678.8686868686868,602.5858585858587 678.8686868686868,612.1212121212121 678.8686868686868,621.6565656565657 678.8686868686868,631.1919191919193 678.8686868686868,640.7272727272727 678.8686868686868,650.2626262626263 678.8686868686868,659.7979797979798 678.8686868686868,669.3333333333334 678.8686868686868,678.8686868686868 678.8686868686868,688.4040404040404 678.8686868686868,697.939393939394 678.8686868686868,707.4747474747475 678.8686868686868,717.010101010101 678.8686868686868,726.5454545454545 678.8686868686868,736.0808080808081 678.8686868686868,745.6161616161615 678.8686868686868,755.1515151515151 678.8686868686868,764.6868686868687 678.8686868686868,774.2222222222222 678.8686868686868,783.7575757575758 678.8686868686868,793.2929292929292 678.8686868686868,802.8282828282828 678.8686868686868,812.3636363636363 678.8686868686868,821.8989898989898 678.8686868686868,831.4343434343434" fill="none" stroke="rgba(255,0,0,0.75)" stroke-width="11.327999999999996"/></g><g><polyline data-points="1.767676767676768,-3.383838383838383 1.6666666666666674,-3.484848484848485 1.5656565656565666,-3.5858585858585856 1.4646464646464652,-3.6868686868686864 1.3636363636363644,-3.7878787878787876 1.262626262626263,-3.8888888888888884 1.1616161616161622,-3.98989898989899 1.0606060606060617,-3.98989898989899 0.9595959595959602,-3.98989898989899 0.8585858585858596,-3.98989898989899 0.7575757575757579,-3.98989898989899 0.6565656565656574,-3.98989898989899 0.5555555555555567,-3.98989898989899 0.4545454545454551,-3.98989898989899 0.3535353535353544,-3.98989898989899 0.2525252525252529,-3.98989898989899 0.1515151515151522,-3.98989898989899 0.050505050505051545,-3.98989898989899 -0.05050505050505001,-3.98989898989899 -0.15151515151515066,-3.98989898989899 -0.2525252525252522,-3.98989898989899 -0.35353535353535287,-3.98989898989899 -0.4545454545454544,-3.98989898989899 -0.555555555555555,-3.98989898989899 -0.6565656565656557,-3.98989898989899 -0.7575757575757572,-3.98989898989899 -0.8585858585858579,-3.98989898989899 -0.9595959595959596,-3.98989898989899 -1.0606060606060603,-3.98989898989899 -1.1616161616161613,-3.98989898989899 -1.2626262626262625,-3.98989898989899 -1.363636363636363,-3.98989898989899 -1.4646464646464643,-3.98989898989899 -1.5656565656565653,-3.98989898989899 -1.6666666666666665,-3.98989898989899 -1.7676767676767675,-3.98989898989899 -1.8686868686868683,-3.98989898989899 -1.9696969696969693,-3.98989898989899 -2.07070707070707,-3.98989898989899 -2.1717171717171713,-3.98989898989899 -2.2727272727272725,-3.98989898989899 -2.3737373737373733,-3.98989898989899 -2.474747474747474,-3.98989898989899 -2.5757575757575752,-3.98989898989899 -2.6767676767676765,-3.98989898989899 -2.7777777777777777,-3.98989898989899" data-type="line" data-label="" points="678.8686868686868,831.4343434343434 669.3333333333333,840.969696969697 659.7979797979798,850.5050505050505 650.2626262626262,860.0404040404039 640.7272727272727,869.5757575757575 631.1919191919192,879.1111111111111 621.6565656565656,888.6464646464647 612.1212121212121,888.6464646464647 602.5858585858585,888.6464646464647 593.0505050505051,888.6464646464647 583.5151515151515,888.6464646464647 573.9797979797979,888.6464646464647 564.4444444444445,888.6464646464647 554.9090909090909,888.6464646464647 545.3737373737374,888.6464646464647 535.8383838383838,888.6464646464647 526.3030303030303,888.6464646464647 516.7676767676768,888.6464646464647 507.2323232323232,888.6464646464647 497.69696969696975,888.6464646464647 488.16161616161617,888.6464646464647 478.62626262626264,888.6464646464647 469.09090909090907,888.6464646464647 459.55555555555554,888.6464646464647 450.0202020202021,888.6464646464647 440.4848484848485,888.6464646464647 430.949494949495,888.6464646464647 421.4141414141414,888.6464646464647 411.8787878787879,888.6464646464647 402.34343434343435,888.6464646464647 392.80808080808083,888.6464646464647 383.2727272727273,888.6464646464647 373.7373737373738,888.6464646464647 364.2020202020202,888.6464646464647 354.6666666666667,888.6464646464647 345.13131313131316,888.6464646464647 335.59595959595964,888.6464646464647 326.0606060606061,888.6464646464647 316.5252525252526,888.6464646464647 306.9898989898991,888.6464646464647 297.4545454545455,888.6464646464647 287.91919191919203,888.6464646464647 278.38383838383845,888.6464646464647 268.84848484848493,888.6464646464647 259.3131313131314,888.6464646464647 249.77777777777783,888.6464646464647" fill="none" stroke="rgba(0,0,255,0.75)" stroke-width="11.327999999999996"/></g><g><polyline data-points="-2.7777777777777777,-3.98989898989899 -2.8787878787878785,-4.090909090909091 -2.8787878787878785,-4.191919191919193 -2.8787878787878785,-4.292929292929293 -2.8787878787878785,-4.393939393939394 -2.8787878787878785,-4.494949494949496 -2.8787878787878785,-4.595959595959596 -2.8787878787878785,-4.696969696969697 -2.8787878787878785,-4.7979797979797985 -2.8787878787878785,-4.898989898989899 -2.8787878787878785,-5.000000000000001" data-type="line" data-label="" points="249.77777777777783,888.6464646464647 240.2424242424243,898.1818181818181 240.2424242424243,907.7171717171718 240.2424242424243,917.2525252525252 240.2424242424243,926.7878787878788 240.2424242424243,936.3232323232323 240.2424242424243,945.8585858585858 240.2424242424243,955.3939393939394 240.2424242424243,964.9292929292928 240.2424242424243,974.4646464646464 240.2424242424243,984" fill="none" stroke="rgba(255,0,0,0.75)" stroke-width="11.327999999999996"/></g><g><polyline data-points="-1.2626262626262625,-5.000000000000001 -1.363636363636363,-4.898989898989899 -1.4646464646464643,-4.7979797979797985 -1.5656565656565653,-4.696969696969697 -1.6666666666666665,-4.595959595959596 -1.7676767676767675,-4.494949494949496 -1.8686868686868683,-4.393939393939394 -1.9696969696969693,-4.292929292929293 -2.07070707070707,-4.191919191919193 -2.1717171717171713,-4.090909090909091 -2.2727272727272725,-3.98989898989899 -2.3737373737373733,-3.8888888888888884 -2.474747474747474,-3.7878787878787876 -2.5757575757575752,-3.6868686868686864 -2.6767676767676765,-3.5858585858585856 -2.7777777777777777,-3.484848484848485 -2.8787878787878785,-3.383838383838383 -2.9797979797979792,-3.2828282828282824 -3.0808080808080804,-3.1818181818181817 -3.1818181818181817,-3.0808080808080804 -3.2828282828282824,-2.9797979797979792 -3.383838383838383,-2.8787878787878785 -3.484848484848485,-2.7777777777777777 -3.5858585858585856,-2.6767676767676765 -3.6868686868686864,-2.5757575757575752 -3.7878787878787876,-2.474747474747474 -3.8888888888888884,-2.3737373737373733 -3.98989898989899,-2.2727272727272725 -4.090909090909091,-2.1717171717171713 -4.191919191919193,-2.07070707070707 -4.292929292929293,-1.9696969696969693 -4.393939393939394,-1.8686868686868683 -4.494949494949496,-1.7676767676767675 -4.595959595959596,-1.6666666666666665 -4.696969696969697,-1.5656565656565653 -4.696969696969697,-1.4646464646464643 -4.696969696969697,-1.363636363636363 -4.696969696969697,-1.2626262626262625 -4.696969696969697,-1.1616161616161613 -4.696969696969697,-1.0606060606060603 -4.696969696969697,-0.9595959595959596 -4.696969696969697,-0.8585858585858579 -4.696969696969697,-0.7575757575757572 -4.696969696969697,-0.6565656565656557 -4.696969696969697,-0.555555555555555 -4.696969696969697,-0.4545454545454544 -4.696969696969697,-0.35353535353535287 -4.696969696969697,-0.2525252525252522 -4.696969696969697,-0.15151515151515066 -4.696969696969697,-0.05050505050505001 -4.696969696969697,0.050505050505051545 -4.696969696969697,0.1515151515151522 -4.696969696969697,0.2525252525252529 -4.696969696969697,0.3535353535353544 -4.696969696969697,0.4545454545454551 -4.696969696969697,0.5555555555555567 -4.696969696969697,0.6565656565656574 -4.696969696969697,0.7575757575757579 -4.696969696969697,0.8585858585858596 -4.696969696969697,0.9595959595959602 -4.696969696969697,1.0606060606060617 -4.696969696969697,1.1616161616161622 -4.696969696969697,1.262626262626263 -4.696969696969697,1.3636363636363644 -4.696969696969697,1.4646464646464652 -4.696969696969697,1.5656565656565666 -4.696969696969697,1.6666666666666674 -4.696969696969697,1.767676767676768 -4.696969696969697,1.8686868686868696 -4.696969696969697,1.9696969696969702 -4.696969696969697,2.070707070707072 -4.696969696969697,2.1717171717171726 -4.696969696969697,2.2727272727272734 -4.696969696969697,2.373737373737375 -4.696969696969697,2.4747474747474754 -4.696969696969697,2.575757575757577 -4.696969696969697,2.676767676767678 -4.696969696969697,2.7777777777777786 -4.696969696969697,2.87878787878788 -4.696969696969697,2.9797979797979806 -4.696969696969697,3.080808080808082 -4.696969696969697,3.181818181818183 -4.696969696969697,3.2828282828282833 -4.696969696969697,3.383838383838384 -4.696969696969697,3.4848484848484866 -4.696969696969697,3.5858585858585874 -4.696969696969697,3.6868686868686877 -4.696969696969697,3.7878787878787885 -4.696969696969697,3.8888888888888893 -4.696969696969697,3.989898989898992 -4.696969696969697,4.090909090909092 -4.696969696969697,4.191919191919193 -4.696969696969697,4.292929292929293 -4.696969696969697,4.393939393939394 -4.696969696969697,4.494949494949497 -4.696969696969697,4.595959595959597 -4.696969696969697,4.696969696969697 -4.696969696969697,4.7979797979797985 -4.696969696969697,4.898989898989901 -4.696969696969697,5.000000000000002" data-type="line" data-label="" points="392.80808080808083,984 383.2727272727273,974.4646464646464 373.7373737373738,964.9292929292928 364.2020202020202,955.3939393939394 354.6666666666667,945.8585858585858 345.13131313131316,936.3232323232323 335.59595959595964,926.7878787878788 326.0606060606061,917.2525252525252 316.5252525252526,907.7171717171718 306.9898989898991,898.1818181818181 297.4545454545455,888.6464646464647 287.91919191919203,879.1111111111111 278.38383838383845,869.5757575757575 268.84848484848493,860.0404040404039 259.3131313131314,850.5050505050505 249.77777777777783,840.969696969697 240.2424242424243,831.4343434343434 230.70707070707084,821.8989898989898 221.17171717171726,812.3636363636363 211.63636363636374,802.8282828282828 202.10101010101022,793.2929292929292 192.5656565656567,783.7575757575758 183.03030303030312,774.2222222222222 173.4949494949496,764.6868686868687 163.95959595959607,755.1515151515151 154.42424242424255,745.6161616161615 144.88888888888903,736.0808080808081 135.35353535353545,726.5454545454545 125.81818181818193,717.010101010101 116.28282828282829,707.4747474747475 106.74747474747483,697.939393939394 97.21212121212136,688.4040404040404 87.67676767676772,678.8686868686868 78.14141414141426,669.3333333333334 68.60606060606068,659.7979797979798 68.60606060606068,650.2626262626263 68.60606060606068,640.7272727272727 68.60606060606068,631.1919191919193 68.60606060606068,621.6565656565657 68.60606060606068,612.1212121212121 68.60606060606068,602.5858585858587 68.60606060606068,593.0505050505051 68.60606060606068,583.5151515151516 68.60606060606068,573.979797979798 68.60606060606068,564.4444444444445 68.60606060606068,554.909090909091 68.60606060606068,545.3737373737374 68.60606060606068,535.838383838384 68.60606060606068,526.3030303030304 68.60606060606068,516.7676767676768 68.60606060606068,507.23232323232327 68.60606060606068,497.69696969696975 68.60606060606068,488.1616161616163 68.60606060606068,478.6262626262627 68.60606060606068,469.0909090909092 68.60606060606068,459.5555555555556 68.60606060606068,450.0202020202021 68.60606060606068,440.4848484848486 68.60606060606068,430.94949494949503 68.60606060606068,421.4141414141415 68.60606060606068,411.87878787878793 68.60606060606068,402.3434343434344 68.60606060606068,392.80808080808094 68.60606060606068,383.27272727272737 68.60606060606068,373.73737373737384 68.60606060606068,364.2020202020203 68.60606060606068,354.66666666666674 68.60606060606068,345.1313131313133 68.60606060606068,335.5959595959597 68.60606060606068,326.06060606060623 68.60606060606068,316.5252525252526 68.60606060606068,306.9898989898991 68.60606060606068,297.4545454545456 68.60606060606068,287.91919191919203 68.60606060606068,278.38383838383857 68.60606060606068,268.84848484848493 68.60606060606068,259.3131313131314 68.60606060606068,249.77777777777794 68.60606060606068,240.24242424242436 68.60606060606068,230.70707070707084 68.60606060606068,221.17171717171726 68.60606060606068,211.63636363636374 68.60606060606068,202.10101010101027 68.60606060606068,192.56565656565675 68.60606060606068,183.03030303030312 68.60606060606068,173.4949494949496 68.60606060606068,163.95959595959613 68.60606060606068,154.4242424242426 68.60606060606068,144.88888888888908 68.60606060606068,135.35353535353545 68.60606060606068,125.81818181818198 68.60606060606068,116.28282828282846 68.60606060606068,106.747474747475 68.60606060606068,97.21212121212153 68.60606060606068,87.67676767676778 68.60606060606068,78.14141414141432 68.60606060606068,68.60606060606085 68.60606060606068,59.07070707070733 68.60606060606068,49.53535353535369 68.60606060606068,40.000000000000114" fill="none" stroke="rgba(255,0,0,0.75)" stroke-width="11.327999999999996"/></g><g><polyline data-points="-5.000000000000001,0.6565656565656574 -4.898989898989899,0.5555555555555567 -4.7979797979797985,0.5555555555555567 -4.696969696969697,0.5555555555555567 -4.595959595959596,0.5555555555555567 -4.494949494949496,0.5555555555555567 -4.393939393939394,0.5555555555555567 -4.292929292929293,0.5555555555555567 -4.191919191919193,0.5555555555555567 -4.090909090909091,0.5555555555555567 -3.98989898989899,0.5555555555555567 -3.8888888888888884,0.5555555555555567" data-type="line" data-label="" points="40.00000000000006,450.0202020202021 49.53535353535369,459.5555555555556 59.07070707070716,459.5555555555556 68.60606060606068,459.5555555555556 78.14141414141426,459.5555555555556 87.67676767676772,459.5555555555556 97.21212121212136,459.5555555555556 106.74747474747483,459.5555555555556 116.28282828282829,459.5555555555556 125.81818181818193,459.5555555555556 135.35353535353545,459.5555555555556 144.88888888888903,459.5555555555556" fill="none" stroke="rgba(0,0,255,0.75)" stroke-width="11.327999999999996"/></g><g><polyline data-points="-3.8888888888888884,0.5555555555555567 -3.7878787878787876,0.5555555555555567 -3.6868686868686864,0.5555555555555567 -3.5858585858585856,0.5555555555555567 -3.484848484848485,0.5555555555555567 -3.383838383838383,0.5555555555555567 -3.2828282828282824,0.5555555555555567 -3.1818181818181817,0.5555555555555567 -3.0808080808080804,0.5555555555555567 -2.9797979797979792,0.5555555555555567 -2.8787878787878785,0.5555555555555567 -2.7777777777777777,0.5555555555555567 -2.6767676767676765,0.5555555555555567 -2.5757575757575752,0.5555555555555567 -2.474747474747474,0.5555555555555567 -2.3737373737373733,0.5555555555555567 -2.2727272727272725,0.5555555555555567 -2.1717171717171713,0.5555555555555567 -2.07070707070707,0.5555555555555567 -1.9696969696969693,0.5555555555555567 -1.8686868686868683,0.5555555555555567 -1.7676767676767675,0.5555555555555567 -1.6666666666666665,0.5555555555555567 -1.5656565656565653,0.5555555555555567 -1.4646464646464643,0.5555555555555567 -1.363636363636363,0.5555555555555567 -1.2626262626262625,0.5555555555555567 -1.1616161616161613,0.5555555555555567 -1.0606060606060603,0.5555555555555567 -0.9595959595959596,0.5555555555555567 -0.8585858585858579,0.5555555555555567 -0.7575757575757572,0.5555555555555567 -0.6565656565656557,0.5555555555555567 -0.555555555555555,0.5555555555555567 -0.4545454545454544,0.5555555555555567 -0.35353535353535287,0.5555555555555567 -0.2525252525252522,0.5555555555555567 -0.15151515151515066,0.5555555555555567 -0.05050505050505001,0.5555555555555567 0.050505050505051545,0.5555555555555567 0.1515151515151522,0.5555555555555567 0.2525252525252529,0.5555555555555567 0.3535353535353544,0.5555555555555567 0.4545454545454551,0.5555555555555567 0.5555555555555567,0.5555555555555567 0.6565656565656574,0.5555555555555567 0.7575757575757579,0.5555555555555567 0.8585858585858596,0.5555555555555567 0.9595959595959602,0.5555555555555567" data-type="line" data-label="" points="144.88888888888903,459.5555555555556 154.42424242424255,459.5555555555556 163.95959595959607,459.5555555555556 173.4949494949496,459.5555555555556 183.03030303030312,459.5555555555556 192.5656565656567,459.5555555555556 202.10101010101022,459.5555555555556 211.63636363636374,459.5555555555556 221.17171717171726,459.5555555555556 230.70707070707084,459.5555555555556 240.2424242424243,459.5555555555556 249.77777777777783,459.5555555555556 259.3131313131314,459.5555555555556 268.84848484848493,459.5555555555556 278.38383838383845,459.5555555555556 287.91919191919203,459.5555555555556 297.4545454545455,459.5555555555556 306.9898989898991,459.5555555555556 316.5252525252526,459.5555555555556 326.0606060606061,459.5555555555556 335.59595959595964,459.5555555555556 345.13131313131316,459.5555555555556 354.6666666666667,459.5555555555556 364.2020202020202,459.5555555555556 373.7373737373738,459.5555555555556 383.2727272727273,459.5555555555556 392.80808080808083,459.5555555555556 402.34343434343435,459.5555555555556 411.8787878787879,459.5555555555556 421.4141414141414,459.5555555555556 430.949494949495,459.5555555555556 440.4848484848485,459.5555555555556 450.0202020202021,459.5555555555556 459.55555555555554,459.5555555555556 469.09090909090907,459.5555555555556 478.62626262626264,459.5555555555556 488.16161616161617,459.5555555555556 497.69696969696975,459.5555555555556 507.2323232323232,459.5555555555556 516.7676767676768,459.5555555555556 526.3030303030303,459.5555555555556 535.8383838383838,459.5555555555556 545.3737373737374,459.5555555555556 554.9090909090909,459.5555555555556 564.4444444444445,459.5555555555556 573.9797979797979,459.5555555555556 583.5151515151515,459.5555555555556 593.0505050505051,459.5555555555556 602.5858585858585,459.5555555555556" fill="none" stroke="rgba(255,0,0,0.75)" stroke-width="11.327999999999996"/></g><g><polyline data-points="0.9595959595959602,0.5555555555555567 1.0606060606060617,0.5555555555555567 1.1616161616161622,0.5555555555555567 1.262626262626263,0.5555555555555567 1.3636363636363644,0.5555555555555567 1.4646464646464652,0.5555555555555567 1.5656565656565666,0.5555555555555567 1.6666666666666674,0.5555555555555567 1.767676767676768,0.5555555555555567 1.8686868686868696,0.5555555555555567 1.9696969696969702,0.5555555555555567 2.070707070707072,0.5555555555555567 2.1717171717171726,0.5555555555555567 2.2727272727272734,0.5555555555555567 2.373737373737375,0.5555555555555567 2.4747474747474754,0.5555555555555567 2.575757575757577,0.5555555555555567 2.676767676767678,0.5555555555555567 2.7777777777777786,0.5555555555555567 2.87878787878788,0.5555555555555567 2.9797979797979806,0.5555555555555567 3.080808080808082,0.5555555555555567 3.181818181818183,0.5555555555555567 3.2828282828282833,0.5555555555555567 3.383838383838384,0.5555555555555567 3.4848484848484866,0.5555555555555567 3.5858585858585874,0.5555555555555567 3.6868686868686877,0.5555555555555567 3.7878787878787885,0.5555555555555567 3.8888888888888893,0.5555555555555567 3.989898989898992,0.5555555555555567 4.090909090909092,0.5555555555555567 4.191919191919193,0.5555555555555567 4.292929292929293,0.5555555555555567 4.393939393939394,0.5555555555555567 4.494949494949497,0.5555555555555567 4.595959595959597,0.5555555555555567 4.696969696969697,0.5555555555555567 4.7979797979797985,0.5555555555555567 4.898989898989901,0.5555555555555567 5.000000000000002,0.5555555555555567" data-type="line" data-label="" points="602.5858585858585,459.5555555555556 612.1212121212121,459.5555555555556 621.6565656565656,459.5555555555556 631.1919191919192,459.5555555555556 640.7272727272727,459.5555555555556 650.2626262626262,459.5555555555556 659.7979797979798,459.5555555555556 669.3333333333333,459.5555555555556 678.8686868686868,459.5555555555556 688.4040404040404,459.5555555555556 697.9393939393939,459.5555555555556 707.4747474747475,459.5555555555556 717.0101010101009,459.5555555555556 726.5454545454545,459.5555555555556 736.0808080808081,459.5555555555556 745.6161616161615,459.5555555555556 755.1515151515151,459.5555555555556 764.6868686868686,459.5555555555556 774.2222222222222,459.5555555555556 783.7575757575758,459.5555555555556 793.2929292929292,459.5555555555556 802.8282828282828,459.5555555555556 812.3636363636363,459.5555555555556 821.8989898989898,459.5555555555556 831.4343434343433,459.5555555555556 840.969696969697,459.5555555555556 850.5050505050505,459.5555555555556 860.0404040404039,459.5555555555556 869.5757575757575,459.5555555555556 879.111111111111,459.5555555555556 888.6464646464647,459.5555555555556 898.181818181818,459.5555555555556 907.7171717171716,459.5555555555556 917.2525252525251,459.5555555555556 926.7878787878785,459.5555555555556 936.3232323232323,459.5555555555556 945.8585858585857,459.5555555555556 955.3939393939393,459.5555555555556 964.9292929292927,459.5555555555556 974.4646464646464,459.5555555555556 984,459.5555555555556" fill="none" stroke="rgba(0,0,255,0.75)" stroke-width="11.327999999999996"/></g><g><polyline data-points="0.1515151515151522,5.000000000000002 0.2525252525252529,4.898989898989901 0.3535353535353544,4.7979797979797985 0.4545454545454551,4.696969696969697 0.5555555555555567,4.595959595959597 0.6565656565656574,4.494949494949497 0.7575757575757579,4.393939393939394 0.8585858585858596,4.292929292929293 0.9595959595959602,4.191919191919193 1.0606060606060617,4.090909090909092 1.0606060606060617,3.989898989898992 1.1616161616161622,3.8888888888888893 1.262626262626263,3.7878787878787885 1.3636363636363644,3.6868686868686877 1.4646464646464652,3.5858585858585874 1.5656565656565666,3.4848484848484866 1.6666666666666674,3.383838383838384 1.767676767676768,3.2828282828282833 1.8686868686868696,3.181818181818183 1.9696969696969702,3.080808080808082 2.070707070707072,2.9797979797979806 2.1717171717171726,2.87878787878788 2.2727272727272734,2.7777777777777786 2.373737373737375,2.676767676767678 2.4747474747474754,2.575757575757577 2.575757575757577,2.4747474747474754 2.676767676767678,2.373737373737375 2.7777777777777786,2.2727272727272734 2.87878787878788,2.2727272727272734 2.9797979797979806,2.2727272727272734 3.080808080808082,2.2727272727272734 3.181818181818183,2.2727272727272734 3.2828282828282833,2.2727272727272734 3.383838383838384,2.2727272727272734 3.4848484848484866,2.2727272727272734 3.5858585858585874,2.2727272727272734 3.6868686868686877,2.2727272727272734 3.7878787878787885,2.2727272727272734 3.8888888888888893,2.2727272727272734 3.989898989898992,2.2727272727272734" data-type="line" data-label="" points="526.3030303030303,40.000000000000114 535.8383838383838,49.53535353535369 545.3737373737374,59.07070707070733 554.9090909090909,68.60606060606085 564.4444444444445,78.14141414141432 573.9797979797979,87.67676767676778 583.5151515151515,97.21212121212153 593.0505050505051,106.747474747475 602.5858585858585,116.28282828282846 612.1212121212121,125.81818181818198 612.1212121212121,135.35353535353545 621.6565656565656,144.88888888888908 631.1919191919192,154.4242424242426 640.7272727272727,163.95959595959613 650.2626262626262,173.4949494949496 659.7979797979798,183.03030303030312 669.3333333333333,192.56565656565675 678.8686868686868,202.10101010101027 688.4040404040404,211.63636363636374 697.9393939393939,221.17171717171726 707.4747474747475,230.70707070707084 717.0101010101009,240.24242424242436 726.5454545454545,249.77777777777794 736.0808080808081,259.3131313131314 745.6161616161615,268.84848484848493 755.1515151515151,278.38383838383857 764.6868686868686,287.91919191919203 774.2222222222222,297.4545454545456 783.7575757575758,297.4545454545456 793.2929292929292,297.4545454545456 802.8282828282828,297.4545454545456 812.3636363636363,297.4545454545456 821.8989898989898,297.4545454545456 831.4343434343433,297.4545454545456 840.969696969697,297.4545454545456 850.5050505050505,297.4545454545456 860.0404040404039,297.4545454545456 869.5757575757575,297.4545454545456 879.111111111111,297.4545454545456 888.6464646464647,297.4545454545456" fill="none" stroke="rgba(0,0,255,0.75)" stroke-width="11.327999999999996"/></g><g><polyline data-points="3.989898989898992,2.2727272727272734 4.090909090909092,2.2727272727272734 4.191919191919193,2.2727272727272734 4.292929292929293,2.2727272727272734 4.393939393939394,2.2727272727272734 4.494949494949497,2.2727272727272734 4.595959595959597,2.2727272727272734 4.696969696969697,2.2727272727272734 4.7979797979797985,2.2727272727272734 4.898989898989901,2.2727272727272734 5.000000000000002,2.2727272727272734" data-type="line" data-label="" points="888.6464646464647,297.4545454545456 898.181818181818,297.4545454545456 907.7171717171716,297.4545454545456 917.2525252525251,297.4545454545456 926.7878787878785,297.4545454545456 936.3232323232323,297.4545454545456 945.8585858585857,297.4545454545456 955.3939393939393,297.4545454545456 964.9292929292927,297.4545454545456 974.4646464646464,297.4545454545456 984,297.4545454545456" fill="none" stroke="rgba(255,0,0,0.75)" stroke-width="11.327999999999996"/></g><g><rect data-type="rect" data-label="" data-x="0" data-y="0" x="40.000000000000114" y="40.000000000000284" width="943.9999999999997" height="943.9999999999998" fill="none" stroke="gray" stroke-width="0.010593220338983056"/></g><g><rect data-type="rect" data-label="" data-x="0" data-y="0" x="40.000000000000114" y="40.000000000000284" width="943.9999999999997" height="943.9999999999998" fill="none" stroke="rgba(15, 23, 42, 0.8)" stroke-width="0.010593220338983056"/></g><circle data-type="circle" data-label="" data-x="1.3636363636363644" data-y="3.989898989898992" cx="640.7272727272727" cy="135.35353535353545" r="14.159999999999995" fill="rgba(0,0,0,0.3)" stroke="black" stroke-width="0.010593220338983056"/><circle data-type="circle" data-label="" data-x="3.989898989898992" data-y="-0.2525252525252522" cx="888.6464646464647" cy="535.838383838384" r="14.159999999999995" fill="rgba(0,0,0,0.3)" stroke="black" stroke-width="0.010593220338983056"/><circle data-type="circle" data-label="" data-x="1.767676767676768" data-y="-3.383838383838383" cx="678.8686868686868" cy="831.4343434343434" r="14.159999999999995" fill="rgba(0,0,0,0.3)" stroke="black" stroke-width="0.010593220338983056"/><circle data-type="circle" data-label="" data-x="-2.7777777777777777" data-y="-3.98989898989899" cx="249.77777777777783" cy="888.6464646464647" r="14.159999999999995" fill="rgba(0,0,0,0.3)" stroke="black" stroke-width="0.010593220338983056"/><circle data-type="circle" data-label="" data-x="-3.8888888888888884" data-y="0.5555555555555567" cx="144.88888888888903" cy="459.5555555555556" r="14.159999999999995" fill="rgba(0,0,0,0.3)" stroke="black" stroke-width="0.010593220338983056"/><circle data-type="circle" data-label="" data-x="0.9595959595959602" data-y="0.5555555555555567" cx="602.5858585858585" cy="459.5555555555556" r="14.159999999999995" fill="rgba(0,0,0,0.3)" stroke="black" stroke-width="0.010593220338983056"/><circle data-type="circle" data-label="" data-x="3.989898989898992" data-y="2.2727272727272734" cx="888.6464646464647" cy="297.4545454545456" r="14.159999999999995" fill="rgba(0,0,0,0.3)" stroke="black" stroke-width="0.010593220338983056"/><g id="crosshair" style="display: none"><line id="crosshair-h" y1="0" y2="1024" stroke="#666" stroke-width="0.5"/><line id="crosshair-v" x1="0" x2="1024" stroke="#666" stroke-width="0.5"/><text id="coordinates" font-family="monospace" font-size="12" fill="#666"></text></g><script><![CDATA[
              document.currentScript.parentElement.addEventListener('mousemove', (e) => {
                const svg = e.currentTarget;
                const rect = svg.getBoundingClientRect();
                const x = e.clientX - rect.left;
                const y = e.clientY - rect.top;
                const crosshair = svg.getElementById('crosshair');
                const h = svg.getElementById('crosshair-h');
                const v = svg.getElementById('crosshair-v');
                const coords = svg.getElementById('coordinates');
                
                crosshair.style.display = 'block';
                h.setAttribute('x1', '0');
                h.setAttribute('x2', '1024');
                h.setAttribute('y1', y);
                h.setAttribute('y2', y);
                v.setAttribute('x1', x);
                v.setAttribute('x2', x);
                v.setAttribute('y1', '0');
                v.setAttribute('y2', '1024');

                // Calculate real coordinates using inverse transformation
                const matrix = {"a":94.39999999999996,"c":0,"e":511.99999999999994,"b":0,"d":-94.39999999999996,"f":512.0000000000001};
                // Manually invert and apply the affine transform
                // Since we only use translate and scale, we can directly compute:
                // x' = (x - tx) / sx
                // y' = (y - ty) / sy
                const sx = matrix.a;
                const sy = matrix.d;
                const tx = matrix.e; 
                const ty = matrix.f;
                const realPoint = {
                  x: (x - tx) / sx,
                  y: (y - ty) / sy // Flip y back since we used negative scale
                }
                
                coords.textContent = `(${realPoint.x.toFixed(2)}, ${realPoint.y.toFixed(2)})`;
                coords.setAttribute('x', (x + 5).toString());
                coords.setAttribute('y', (y - 5).toString());
              });
              document.currentScript.parentElement.addEventListener('mouseleave', () => {
                document.currentScript.parentElement.getElementById('crosshair').style.display = 'none';
              });
            ]]></script></svg>