<svg width="1024" height="1024" viewBox="0 0 1024 1024" xmlns="http://www.w3.org/2000/svg"><rect width="100%" height="100%" fill="white"/><g><circle data-type="point" data-label="conn_000" data-x="-2.34" data-y="-5" cx="291.1040000000001" cy="984" r="14.16" fill="red"/></g><g><circle data-type="point" data-label="conn_000" data-x="2.36" data-y="5" cx="734.7839999999999" cy="40.000000000000284" r="14.16" fill="red"/></g><g><circle data-type="point" data-label="conn_001" data-x="1.42" data-y="-5" cx="646.048" cy="984" r="14.16" fill="red"/></g><g><circle data-type="point" data-label="conn_001" data-x="2.7600000000000002" data-y="5" cx="772.5439999999999" cy="40.000000000000284" r="14.16" fill="blue"/></g><g><circle data-type="point" data-label="conn_002" data-x="3.64" data-y="-5" cx="855.6159999999999" cy="984" r="14.16" fill="red"/></g><g><circle data-type="point" data-label="conn_002" data-x="3.68" data-y="5" cx="859.3919999999998" cy="40.000000000000284" r="14.16" fill="red"/></g><g><circle data-type="point" data-label="conn_003" data-x="2.68" data-y="-5" cx="764.992" cy="984" r="14.16" fill="blue"/></g><g><circle data-type="point" data-label="conn_003" data-x="1.78" data-y="5" cx="680.0319999999999" cy="40.000000000000284" r="14.16" fill="red"/></g><g><polyline data-points="-2.3737373737373733,-5.000000000000001 -2.2727272727272725,-4.898989898989899 -2.1717171717171713,-4.7979797979797985 -2.07070707070707,-4.696969696969697 -1.9696969696969693,-4.595959595959596 -1.8686868686868683,-4.494949494949496 -1.7676767676767675,-4.393939393939394 -1.6666666666666665,-4.292929292929293 -1.5656565656565653,-4.191919191919193 -1.4646464646464643,-4.090909090909091 -1.363636363636363,-3.98989898989899 -1.2626262626262625,-3.8888888888888884 -1.1616161616161613,-3.7878787878787876 -1.0606060606060603,-3.6868686868686864 -0.9595959595959596,-3.5858585858585856 -0.8585858585858579,-3.484848484848485 -0.7575757575757572,-3.383838383838383 -0.6565656565656557,-3.2828282828282824 -0.555555555555555,-3.1818181818181817 -0.4545454545454544,-3.0808080808080804 -0.35353535353535287,-2.9797979797979792 -0.2525252525252522,-2.8787878787878785 -0.15151515151515066,-2.7777777777777777 -0.05050505050505001,-2.6767676767676765 0.050505050505051545,-2.5757575757575752 0.1515151515151522,-2.474747474747474 0.2525252525252529,-2.3737373737373733 0.3535353535353544,-2.2727272727272725 0.4545454545454551,-2.1717171717171713 0.5555555555555567,-2.07070707070707 0.6565656565656574,-1.9696969696969693 0.7575757575757579,-1.8686868686868683 0.8585858585858596,-1.7676767676767675 0.9595959595959602,-1.6666666666666665 1.0606060606060617,-1.5656565656565653 1.1616161616161622,-1.4646464646464643 1.262626262626263,-1.363636363636363 1.3636363636363644,-1.2626262626262625 1.4646464646464652,-1.1616161616161613 1.5656565656565666,-1.0606060606060603 1.6666666666666674,-0.9595959595959596 1.767676767676768,-0.8585858585858579 1.8686868686868696,-0.7575757575757572 1.9696969696969702,-0.6565656565656557 2.070707070707072,-0.555555555555555 2.1717171717171726,-0.4545454545454544 2.2727272727272734,-0.35353535353535287 2.373737373737375,-0.2525252525252522 2.373737373737375,-0.15151515151515066 2.373737373737375,-0.05050505050505001 2.373737373737375,0.050505050505051545 2.373737373737375,0.1515151515151522 2.373737373737375,0.2525252525252529 2.373737373737375,0.3535353535353544 2.373737373737375,0.4545454545454551 2.373737373737375,0.5555555555555567 2.373737373737375,0.6565656565656574 2.373737373737375,0.7575757575757579 2.373737373737375,0.8585858585858596 2.373737373737375,0.9595959595959602 2.373737373737375,1.0606060606060617 2.373737373737375,1.1616161616161622 2.373737373737375,1.262626262626263 2.373737373737375,1.3636363636363644 2.373737373737375,1.4646464646464652 2.373737373737375,1.5656565656565666 2.373737373737375,1.6666666666666674 2.373737373737375,1.767676767676768 2.373737373737375,1.8686868686868696 2.373737373737375,1.9696969696969702 2.373737373737375,2.070707070707072 2.373737373737375,2.1717171717171726 2.373737373737375,2.2727272727272734 2.373737373737375,2.373737373737375 2.373737373737375,2.4747474747474754 2.373737373737375,2.575757575757577 2.373737373737375,2.676767676767678 2.373737373737375,2.7777777777777786 2.373737373737375,2.87878787878788 2.373737373737375,2.9797979797979806 2.373737373737375,3.080808080808082 2.373737373737375,3.181818181818183 2.373737373737375,3.2828282828282833 2.373737373737375,3.383838383838384 2.373737373737375,3.4848484848484866 2.373737373737375,3.5858585858585874 2.373737373737375,3.6868686868686877 2.373737373737375,3.7878787878787885 2.373737373737375,3.8888888888888893 2.373737373737375,3.989898989898992 2.373737373737375,4.090909090909092 2.373737373737375,4.191919191919193 2.373737373737375,4.292929292929293 2.373737373737375,4.393939393939394 2.373737373737375,4.494949494949497 2.373737373737375,4.595959595959597 2.373737373737375,4.696969696969697 2.373737373737375,4.7979797979797985 2.373737373737375,4.898989898989901 2.373737373737375,5.000000000000002" data-type="line" data-label="" points="287.91919191919203,984 297.45454545454555,974.4646464646464 306.9898989898991,964.9292929292928 316.52525252525265,955.3939393939394 326.0606060606062,945.8585858585858 335.5959595959597,936.3232323232323 345.1313131313132,926.7878787878788 354.66666666666674,917.2525252525252 364.2020202020203,907.7171717171718 373.7373737373738,898.1818181818181 383.27272727272737,888.6464646464647 392.80808080808083,879.1111111111111 402.3434343434344,869.5757575757575 411.87878787878793,860.0404040404039 421.41414141414145,850.5050505050505 430.94949494949503,840.969696969697 440.48484848484856,831.4343434343434 450.02020202020213,821.8989898989898 459.55555555555566,812.3636363636363 469.0909090909091,802.8282828282828 478.6262626262627,793.2929292929292 488.1616161616162,783.7575757575758 497.6969696969698,774.2222222222222 507.23232323232327,764.6868686868687 516.7676767676769,755.1515151515151 526.3030303030304,745.6161616161615 535.8383838383838,736.0808080808081 545.3737373737374,726.5454545454545 554.909090909091,717.010101010101 564.4444444444446,707.4747474747475 573.979797979798,697.939393939394 583.5151515151515,688.4040404040404 593.0505050505051,678.8686868686868 602.5858585858587,669.3333333333334 612.1212121212122,659.7979797979798 621.6565656565657,650.2626262626263 631.1919191919192,640.7272727272727 640.7272727272727,631.1919191919193 650.2626262626263,621.6565656565657 659.7979797979798,612.1212121212121 669.3333333333334,602.5858585858587 678.8686868686868,593.0505050505051 688.4040404040404,583.5151515151516 697.9393939393939,573.979797979798 707.4747474747476,564.4444444444445 717.010101010101,554.909090909091 726.5454545454545,545.3737373737374 736.0808080808081,535.838383838384 736.0808080808081,526.3030303030304 736.0808080808081,516.7676767676768 736.0808080808081,507.23232323232327 736.0808080808081,497.69696969696975 736.0808080808081,488.1616161616163 736.0808080808081,478.6262626262627 736.0808080808081,469.0909090909092 736.0808080808081,459.5555555555556 736.0808080808081,450.0202020202021 736.0808080808081,440.4848484848486 736.0808080808081,430.94949494949503 736.0808080808081,421.4141414141415 736.0808080808081,411.87878787878793 736.0808080808081,402.3434343434344 736.0808080808081,392.80808080808094 736.0808080808081,383.27272727272737 736.0808080808081,373.73737373737384 736.0808080808081,364.2020202020203 736.0808080808081,354.66666666666674 736.0808080808081,345.1313131313133 736.0808080808081,335.5959595959597 736.0808080808081,326.06060606060623 736.0808080808081,316.5252525252526 736.0808080808081,306.9898989898991 736.0808080808081,297.4545454545456 736.0808080808081,287.91919191919203 736.0808080808081,278.38383838383857 736.0808080808081,268.84848484848493 736.0808080808081,259.3131313131314 736.0808080808081,249.77777777777794 736.0808080808081,240.24242424242436 736.0808080808081,230.70707070707084 736.0808080808081,221.17171717171726 736.0808080808081,211.63636363636374 736.0808080808081,202.10101010101027 736.0808080808081,192.56565656565675 736.0808080808081,183.03030303030312 736.0808080808081,173.4949494949496 736.0808080808081,163.95959595959613 736.0808080808081,154.4242424242426 736.0808080808081,144.88888888888908 736.0808080808081,135.35353535353545 736.0808080808081,125.81818181818198 736.0808080808081,116.28282828282846 736.0808080808081,106.747474747475 736.0808080808081,97.21212121212153 736.0808080808081,87.67676767676778 736.0808080808081,78.14141414141432 736.0808080808081,68.60606060606085 736.0808080808081,59.07070707070733 736.0808080808081,49.53535353535369 736.0808080808081,40.000000000000114" fill="none" stroke="rgba(255,0,0,0.75)" stroke-width="11.327999999999996"/></g><g><polyline data-points="3.6868686868686877,-5.000000000000001 3.6868686868686877,-4.898989898989899 3.6868686868686877,-4.7979797979797985 3.6868686868686877,-4.696969696969697 3.6868686868686877,-4.595959595959596 3.6868686868686877,-4.494949494949496 3.6868686868686877,-4.393939393939394 3.6868686868686877,-4.292929292929293 3.6868686868686877,-4.191919191919193 3.6868686868686877,-4.090909090909091 3.6868686868686877,-3.98989898989899 3.6868686868686877,-3.8888888888888884 3.6868686868686877,-3.7878787878787876 3.6868686868686877,-3.6868686868686864 3.6868686868686877,-3.5858585858585856 3.6868686868686877,-3.484848484848485 3.6868686868686877,-3.383838383838383 3.6868686868686877,-3.2828282828282824 3.6868686868686877,-3.1818181818181817 3.6868686868686877,-3.0808080808080804 3.6868686868686877,-2.9797979797979792 3.6868686868686877,-2.8787878787878785 3.6868686868686877,-2.7777777777777777 3.6868686868686877,-2.6767676767676765 3.6868686868686877,-2.5757575757575752 3.6868686868686877,-2.474747474747474 3.6868686868686877,-2.3737373737373733 3.6868686868686877,-2.2727272727272725 3.6868686868686877,-2.1717171717171713 3.6868686868686877,-2.07070707070707 3.6868686868686877,-1.9696969696969693 3.6868686868686877,-1.8686868686868683 3.6868686868686877,-1.7676767676767675 3.6868686868686877,-1.6666666666666665 3.6868686868686877,-1.5656565656565653 3.6868686868686877,-1.4646464646464643 3.6868686868686877,-1.363636363636363 3.6868686868686877,-1.2626262626262625 3.6868686868686877,-1.1616161616161613 3.6868686868686877,-1.0606060606060603 3.6868686868686877,-0.9595959595959596 3.6868686868686877,-0.8585858585858579 3.6868686868686877,-0.7575757575757572 3.6868686868686877,-0.6565656565656557 3.6868686868686877,-0.555555555555555 3.6868686868686877,-0.4545454545454544 3.6868686868686877,-0.35353535353535287 3.6868686868686877,-0.2525252525252522 3.6868686868686877,-0.15151515151515066 3.6868686868686877,-0.05050505050505001 3.6868686868686877,0.050505050505051545 3.6868686868686877,0.1515151515151522 3.6868686868686877,0.2525252525252529 3.6868686868686877,0.3535353535353544 3.6868686868686877,0.4545454545454551 3.6868686868686877,0.5555555555555567 3.6868686868686877,0.6565656565656574 3.6868686868686877,0.7575757575757579 3.6868686868686877,0.8585858585858596 3.6868686868686877,0.9595959595959602 3.6868686868686877,1.0606060606060617 3.6868686868686877,1.1616161616161622 3.6868686868686877,1.262626262626263 3.6868686868686877,1.3636363636363644 3.6868686868686877,1.4646464646464652 3.6868686868686877,1.5656565656565666 3.6868686868686877,1.6666666666666674 3.6868686868686877,1.767676767676768 3.6868686868686877,1.8686868686868696 3.6868686868686877,1.9696969696969702 3.6868686868686877,2.070707070707072 3.6868686868686877,2.1717171717171726 3.6868686868686877,2.2727272727272734 3.6868686868686877,2.373737373737375 3.6868686868686877,2.4747474747474754 3.6868686868686877,2.575757575757577 3.6868686868686877,2.676767676767678 3.6868686868686877,2.7777777777777786 3.6868686868686877,2.87878787878788 3.6868686868686877,2.9797979797979806 3.6868686868686877,3.080808080808082 3.6868686868686877,3.181818181818183 3.6868686868686877,3.2828282828282833 3.6868686868686877,3.383838383838384 3.6868686868686877,3.4848484848484866 3.6868686868686877,3.5858585858585874 3.6868686868686877,3.6868686868686877 3.6868686868686877,3.7878787878787885 3.6868686868686877,3.8888888888888893 3.6868686868686877,3.989898989898992 3.6868686868686877,4.090909090909092 3.6868686868686877,4.191919191919193 3.6868686868686877,4.292929292929293 3.6868686868686877,4.393939393939394 3.6868686868686877,4.494949494949497 3.6868686868686877,4.595959595959597 3.6868686868686877,4.696969696969697 3.6868686868686877,4.7979797979797985 3.6868686868686877,4.898989898989901 3.6868686868686877,5.000000000000002" data-type="line" data-label="" points="860.0404040404039,984 860.0404040404039,974.4646464646464 860.0404040404039,964.9292929292928 860.0404040404039,955.3939393939394 860.0404040404039,945.8585858585858 860.0404040404039,936.3232323232323 860.0404040404039,926.7878787878788 860.0404040404039,917.2525252525252 860.0404040404039,907.7171717171718 860.0404040404039,898.1818181818181 860.0404040404039,888.6464646464647 860.0404040404039,879.1111111111111 860.0404040404039,869.5757575757575 860.0404040404039,860.0404040404039 860.0404040404039,850.5050505050505 860.0404040404039,840.969696969697 860.0404040404039,831.4343434343434 860.0404040404039,821.8989898989898 860.0404040404039,812.3636363636363 860.0404040404039,802.8282828282828 860.0404040404039,793.2929292929292 860.0404040404039,783.7575757575758 860.0404040404039,774.2222222222222 860.0404040404039,764.6868686868687 860.0404040404039,755.1515151515151 860.0404040404039,745.6161616161615 860.0404040404039,736.0808080808081 860.0404040404039,726.5454545454545 860.0404040404039,717.010101010101 860.0404040404039,707.4747474747475 860.0404040404039,697.939393939394 860.0404040404039,688.4040404040404 860.0404040404039,678.8686868686868 860.0404040404039,669.3333333333334 860.0404040404039,659.7979797979798 860.0404040404039,650.2626262626263 860.0404040404039,640.7272727272727 860.0404040404039,631.1919191919193 860.0404040404039,621.6565656565657 860.0404040404039,612.1212121212121 860.0404040404039,602.5858585858587 860.0404040404039,593.0505050505051 860.0404040404039,583.5151515151516 860.0404040404039,573.979797979798 860.0404040404039,564.4444444444445 860.0404040404039,554.909090909091 860.0404040404039,545.3737373737374 860.0404040404039,535.838383838384 860.0404040404039,526.3030303030304 860.0404040404039,516.7676767676768 860.0404040404039,507.23232323232327 860.0404040404039,497.69696969696975 860.0404040404039,488.1616161616163 860.0404040404039,478.6262626262627 860.0404040404039,469.0909090909092 860.0404040404039,459.5555555555556 860.0404040404039,450.0202020202021 860.0404040404039,440.4848484848486 860.0404040404039,430.94949494949503 860.0404040404039,421.4141414141415 860.0404040404039,411.87878787878793 860.0404040404039,402.3434343434344 860.0404040404039,392.80808080808094 860.0404040404039,383.27272727272737 860.0404040404039,373.73737373737384 860.0404040404039,364.2020202020203 860.0404040404039,354.66666666666674 860.0404040404039,345.1313131313133 860.0404040404039,335.5959595959597 860.0404040404039,326.06060606060623 860.0404040404039,316.5252525252526 860.0404040404039,306.9898989898991 860.0404040404039,297.4545454545456 860.0404040404039,287.91919191919203 860.0404040404039,278.38383838383857 860.0404040404039,268.84848484848493 860.0404040404039,259.3131313131314 860.0404040404039,249.77777777777794 860.0404040404039,240.24242424242436 860.0404040404039,230.70707070707084 860.0404040404039,221.17171717171726 860.0404040404039,211.63636363636374 860.0404040404039,202.10101010101027 860.0404040404039,192.56565656565675 860.0404040404039,183.03030303030312 860.0404040404039,173.4949494949496 860.0404040404039,163.95959595959613 860.0404040404039,154.4242424242426 860.0404040404039,144.88888888888908 860.0404040404039,135.35353535353545 860.0404040404039,125.81818181818198 860.0404040404039,116.28282828282846 860.0404040404039,106.747474747475 860.0404040404039,97.21212121212153 860.0404040404039,87.67676767676778 860.0404040404039,78.14141414141432 860.0404040404039,68.60606060606085 860.0404040404039,59.07070707070733 860.0404040404039,49.53535353535369 860.0404040404039,40.000000000000114" fill="none" stroke="rgba(255,0,0,0.75)" stroke-width="11.327999999999996"/></g><g><polyline data-points="1.4646464646464652,-5.000000000000001 1.5656565656565666,-4.898989898989899 1.6666666666666674,-4.7979797979797985 1.767676767676768,-4.696969696969697 1.8686868686868696,-4.595959595959596 1.9696969696969702,-4.494949494949496 2.070707070707072,-4.393939393939394 2.1717171717171726,-4.292929292929293 2.2727272727272734,-4.191919191919193 2.373737373737375,-4.090909090909091 2.4747474747474754,-3.98989898989899 2.575757575757577,-3.8888888888888884 2.676767676767678,-3.7878787878787876 2.7777777777777786,-3.6868686868686864 2.7777777777777786,-3.5858585858585856 2.7777777777777786,-3.484848484848485 2.7777777777777786,-3.383838383838383 2.7777777777777786,-3.2828282828282824 2.7777777777777786,-3.1818181818181817 2.7777777777777786,-3.0808080808080804 2.7777777777777786,-2.9797979797979792 2.7777777777777786,-2.8787878787878785 2.7777777777777786,-2.7777777777777777 2.7777777777777786,-2.6767676767676765 2.7777777777777786,-2.5757575757575752 2.7777777777777786,-2.474747474747474 2.7777777777777786,-2.3737373737373733 2.7777777777777786,-2.2727272727272725 2.7777777777777786,-2.1717171717171713 2.7777777777777786,-2.07070707070707 2.7777777777777786,-1.9696969696969693 2.7777777777777786,-1.8686868686868683 2.7777777777777786,-1.7676767676767675 2.7777777777777786,-1.6666666666666665 2.7777777777777786,-1.5656565656565653 2.7777777777777786,-1.4646464646464643 2.7777777777777786,-1.363636363636363 2.7777777777777786,-1.2626262626262625 2.7777777777777786,-1.1616161616161613 2.7777777777777786,-1.0606060606060603 2.7777777777777786,-0.9595959595959596 2.7777777777777786,-0.8585858585858579 2.7777777777777786,-0.7575757575757572 2.7777777777777786,-0.6565656565656557 2.7777777777777786,-0.555555555555555 2.7777777777777786,-0.4545454545454544 2.7777777777777786,-0.35353535353535287 2.7777777777777786,-0.2525252525252522 2.7777777777777786,-0.15151515151515066 2.7777777777777786,-0.05050505050505001 2.7777777777777786,0.050505050505051545 2.7777777777777786,0.1515151515151522 2.7777777777777786,0.2525252525252529 2.7777777777777786,0.3535353535353544 2.7777777777777786,0.4545454545454551 2.7777777777777786,0.5555555555555567 2.7777777777777786,0.6565656565656574 2.7777777777777786,0.7575757575757579 2.7777777777777786,0.8585858585858596 2.7777777777777786,0.9595959595959602 2.7777777777777786,1.0606060606060617 2.7777777777777786,1.1616161616161622 2.7777777777777786,1.262626262626263 2.7777777777777786,1.3636363636363644 2.7777777777777786,1.4646464646464652 2.7777777777777786,1.5656565656565666 2.7777777777777786,1.6666666666666674 2.7777777777777786,1.767676767676768 2.7777777777777786,1.8686868686868696 2.7777777777777786,1.9696969696969702 2.7777777777777786,2.070707070707072 2.7777777777777786,2.1717171717171726 2.7777777777777786,2.2727272727272734 2.7777777777777786,2.373737373737375 2.7777777777777786,2.4747474747474754 2.7777777777777786,2.575757575757577 2.7777777777777786,2.676767676767678 2.7777777777777786,2.7777777777777786 2.7777777777777786,2.87878787878788 2.7777777777777786,2.9797979797979806 2.7777777777777786,3.080808080808082 2.7777777777777786,3.181818181818183 2.7777777777777786,3.2828282828282833 2.7777777777777786,3.383838383838384 2.7777777777777786,3.4848484848484866 2.7777777777777786,3.5858585858585874 2.7777777777777786,3.6868686868686877 2.7777777777777786,3.7878787878787885 2.7777777777777786,3.8888888888888893 2.7777777777777786,3.989898989898992" data-type="line" data-label="" points="650.2626262626263,984 659.7979797979798,974.4646464646464 669.3333333333334,964.9292929292928 678.8686868686868,955.3939393939394 688.4040404040404,945.8585858585858 697.9393939393939,936.3232323232323 707.4747474747476,926.7878787878788 717.010101010101,917.2525252525252 726.5454545454545,907.7171717171718 736.0808080808081,898.1818181818181 745.6161616161615,888.6464646464647 755.1515151515152,879.1111111111111 764.6868686868687,869.5757575757575 774.2222222222222,860.0404040404039 774.2222222222222,850.5050505050505 774.2222222222222,840.969696969697 774.2222222222222,831.4343434343434 774.2222222222222,821.8989898989898 774.2222222222222,812.3636363636363 774.2222222222222,802.8282828282828 774.2222222222222,793.2929292929292 774.2222222222222,783.7575757575758 774.2222222222222,774.2222222222222 774.2222222222222,764.6868686868687 774.2222222222222,755.1515151515151 774.2222222222222,745.6161616161615 774.2222222222222,736.0808080808081 774.2222222222222,726.5454545454545 774.2222222222222,717.010101010101 774.2222222222222,707.4747474747475 774.2222222222222,697.939393939394 774.2222222222222,688.4040404040404 774.2222222222222,678.8686868686868 774.2222222222222,669.3333333333334 774.2222222222222,659.7979797979798 774.2222222222222,650.2626262626263 774.2222222222222,640.7272727272727 774.2222222222222,631.1919191919193 774.2222222222222,621.6565656565657 774.2222222222222,612.1212121212121 774.2222222222222,602.5858585858587 774.2222222222222,593.0505050505051 774.2222222222222,583.5151515151516 774.2222222222222,573.979797979798 774.2222222222222,564.4444444444445 774.2222222222222,554.909090909091 774.2222222222222,545.3737373737374 774.2222222222222,535.838383838384 774.2222222222222,526.3030303030304 774.2222222222222,516.7676767676768 774.2222222222222,507.23232323232327 774.2222222222222,497.69696969696975 774.2222222222222,488.1616161616163 774.2222222222222,478.6262626262627 774.2222222222222,469.0909090909092 774.2222222222222,459.5555555555556 774.2222222222222,450.0202020202021 774.2222222222222,440.4848484848486 774.2222222222222,430.94949494949503 774.2222222222222,421.4141414141415 774.2222222222222,411.87878787878793 774.2222222222222,402.3434343434344 774.2222222222222,392.80808080808094 774.2222222222222,383.27272727272737 774.2222222222222,373.73737373737384 774.2222222222222,364.2020202020203 774.2222222222222,354.66666666666674 774.2222222222222,345.1313131313133 774.2222222222222,335.5959595959597 774.2222222222222,326.06060606060623 774.2222222222222,316.5252525252526 774.2222222222222,306.9898989898991 774.2222222222222,297.4545454545456 774.2222222222222,287.91919191919203 774.2222222222222,278.38383838383857 774.2222222222222,268.84848484848493 774.2222222222222,259.3131313131314 774.2222222222222,249.77777777777794 774.2222222222222,240.24242424242436 774.2222222222222,230.70707070707084 774.2222222222222,221.17171717171726 774.2222222222222,211.63636363636374 774.2222222222222,202.10101010101027 774.2222222222222,192.56565656565675 774.2222222222222,183.03030303030312 774.2222222222222,173.4949494949496 774.2222222222222,163.95959595959613 774.2222222222222,154.4242424242426 774.2222222222222,144.88888888888908 774.2222222222222,135.35353535353545" fill="none" stroke="rgba(255,0,0,0.75)" stroke-width="11.327999999999996"/></g><g><polyline data-points="2.7777777777777786,3.989898989898992 2.7777777777777786,4.090909090909092 2.7777777777777786,4.191919191919193 2.7777777777777786,4.292929292929293 2.7777777777777786,4.393939393939394 2.7777777777777786,4.494949494949497 2.7777777777777786,4.595959595959597 2.7777777777777786,4.696969696969697 2.7777777777777786,4.7979797979797985 2.7777777777777786,4.898989898989901 2.7777777777777786,5.000000000000002" data-type="line" data-label="" points="774.2222222222222,135.35353535353545 774.2222222222222,125.81818181818198 774.2222222222222,116.28282828282846 774.2222222222222,106.747474747475 774.2222222222222,97.21212121212153 774.2222222222222,87.67676767676778 774.2222222222222,78.14141414141432 774.2222222222222,68.60606060606085 774.2222222222222,59.07070707070733 774.2222222222222,49.53535353535369 774.2222222222222,40.000000000000114" fill="none" stroke="rgba(0,0,255,0.75)" stroke-width="11.327999999999996"/></g><g><polyline data-points="2.676767676767678,-5.000000000000001 2.575757575757577,-4.898989898989899 2.4747474747474754,-4.7979797979797985 2.373737373737375,-4.696969696969697 2.2727272727272734,-4.595959595959596 2.1717171717171726,-4.494949494949496 2.070707070707072,-4.393939393939394 1.9696969696969702,-4.292929292929293 1.8686868686868696,-4.191919191919193 1.767676767676768,-4.090909090909091 1.767676767676768,-3.98989898989899 1.767676767676768,-3.8888888888888884 1.767676767676768,-3.7878787878787876 1.767676767676768,-3.6868686868686864 1.767676767676768,-3.5858585858585856 1.767676767676768,-3.484848484848485 1.767676767676768,-3.383838383838383 1.767676767676768,-3.2828282828282824 1.767676767676768,-3.1818181818181817 1.767676767676768,-3.0808080808080804 1.767676767676768,-2.9797979797979792 1.767676767676768,-2.8787878787878785 1.767676767676768,-2.7777777777777777 1.767676767676768,-2.6767676767676765 1.767676767676768,-2.5757575757575752 1.767676767676768,-2.474747474747474 1.767676767676768,-2.3737373737373733 1.767676767676768,-2.2727272727272725 1.767676767676768,-2.1717171717171713 1.767676767676768,-2.07070707070707 1.767676767676768,-1.9696969696969693 1.767676767676768,-1.8686868686868683 1.767676767676768,-1.7676767676767675 1.767676767676768,-1.6666666666666665 1.767676767676768,-1.5656565656565653 1.767676767676768,-1.4646464646464643 1.767676767676768,-1.363636363636363 1.767676767676768,-1.2626262626262625 1.767676767676768,-1.1616161616161613 1.767676767676768,-1.0606060606060603 1.767676767676768,-0.9595959595959596 1.767676767676768,-0.8585858585858579 1.767676767676768,-0.7575757575757572 1.767676767676768,-0.6565656565656557 1.767676767676768,-0.555555555555555 1.767676767676768,-0.4545454545454544 1.767676767676768,-0.35353535353535287 1.767676767676768,-0.2525252525252522 1.767676767676768,-0.15151515151515066 1.767676767676768,-0.05050505050505001 1.767676767676768,0.050505050505051545 1.767676767676768,0.1515151515151522 1.767676767676768,0.2525252525252529 1.767676767676768,0.3535353535353544 1.767676767676768,0.4545454545454551 1.767676767676768,0.5555555555555567 1.767676767676768,0.6565656565656574 1.767676767676768,0.7575757575757579 1.767676767676768,0.8585858585858596 1.767676767676768,0.9595959595959602 1.767676767676768,1.0606060606060617 1.767676767676768,1.1616161616161622 1.767676767676768,1.262626262626263 1.767676767676768,1.3636363636363644 1.767676767676768,1.4646464646464652 1.767676767676768,1.5656565656565666 1.767676767676768,1.6666666666666674 1.767676767676768,1.767676767676768 1.767676767676768,1.8686868686868696 1.767676767676768,1.9696969696969702 1.767676767676768,2.070707070707072 1.767676767676768,2.1717171717171726 1.767676767676768,2.2727272727272734 1.767676767676768,2.373737373737375 1.767676767676768,2.4747474747474754 1.767676767676768,2.575757575757577 1.767676767676768,2.676767676767678 1.767676767676768,2.7777777777777786 1.767676767676768,2.87878787878788 1.767676767676768,2.9797979797979806 1.767676767676768,3.080808080808082 1.767676767676768,3.181818181818183 1.767676767676768,3.2828282828282833 1.767676767676768,3.383838383838384 1.767676767676768,3.4848484848484866 1.767676767676768,3.5858585858585874 1.767676767676768,3.6868686868686877 1.767676767676768,3.7878787878787885 1.767676767676768,3.8888888888888893 1.767676767676768,3.989898989898992" data-type="line" data-label="" points="764.6868686868687,984 755.1515151515152,974.4646464646464 745.6161616161615,964.9292929292928 736.0808080808081,955.3939393939394 726.5454545454545,945.8585858585858 717.010101010101,936.3232323232323 707.4747474747476,926.7878787878788 697.9393939393939,917.2525252525252 688.4040404040404,907.7171717171718 678.8686868686868,898.1818181818181 678.8686868686868,888.6464646464647 678.8686868686868,879.1111111111111 678.8686868686868,869.5757575757575 678.8686868686868,860.0404040404039 678.8686868686868,850.5050505050505 678.8686868686868,840.969696969697 678.8686868686868,831.4343434343434 678.8686868686868,821.8989898989898 678.8686868686868,812.3636363636363 678.8686868686868,802.8282828282828 678.8686868686868,793.2929292929292 678.8686868686868,783.7575757575758 678.8686868686868,774.2222222222222 678.8686868686868,764.6868686868687 678.8686868686868,755.1515151515151 678.8686868686868,745.6161616161615 678.8686868686868,736.0808080808081 678.8686868686868,726.5454545454545 678.8686868686868,717.010101010101 678.8686868686868,707.4747474747475 678.8686868686868,697.939393939394 678.8686868686868,688.4040404040404 678.8686868686868,678.8686868686868 678.8686868686868,669.3333333333334 678.8686868686868,659.7979797979798 678.8686868686868,650.2626262626263 678.8686868686868,640.7272727272727 678.8686868686868,631.1919191919193 678.8686868686868,621.6565656565657 678.8686868686868,612.1212121212121 678.8686868686868,602.5858585858587 678.8686868686868,593.0505050505051 678.8686868686868,583.5151515151516 678.8686868686868,573.979797979798 678.8686868686868,564.4444444444445 678.8686868686868,554.909090909091 678.8686868686868,545.3737373737374 678.8686868686868,535.838383838384 678.8686868686868,526.3030303030304 678.8686868686868,516.7676767676768 678.8686868686868,507.23232323232327 678.8686868686868,497.69696969696975 678.8686868686868,488.1616161616163 678.8686868686868,478.6262626262627 678.8686868686868,469.0909090909092 678.8686868686868,459.5555555555556 678.8686868686868,450.0202020202021 678.8686868686868,440.4848484848486 678.8686868686868,430.94949494949503 678.8686868686868,421.4141414141415 678.8686868686868,411.87878787878793 678.8686868686868,402.3434343434344 678.8686868686868,392.80808080808094 678.8686868686868,383.27272727272737 678.8686868686868,373.73737373737384 678.8686868686868,364.2020202020203 678.8686868686868,354.66666666666674 678.8686868686868,345.1313131313133 678.8686868686868,335.5959595959597 678.8686868686868,326.06060606060623 678.8686868686868,316.5252525252526 678.8686868686868,306.9898989898991 678.8686868686868,297.4545454545456 678.8686868686868,287.91919191919203 678.8686868686868,278.38383838383857 678.8686868686868,268.84848484848493 678.8686868686868,259.3131313131314 678.8686868686868,249.77777777777794 678.8686868686868,240.24242424242436 678.8686868686868,230.70707070707084 678.8686868686868,221.17171717171726 678.8686868686868,211.63636363636374 678.8686868686868,202.10101010101027 678.8686868686868,192.56565656565675 678.8686868686868,183.03030303030312 678.8686868686868,173.4949494949496 678.8686868686868,163.95959595959613 678.8686868686868,154.4242424242426 678.8686868686868,144.88888888888908 678.8686868686868,135.35353535353545" fill="none" stroke="rgba(0,0,255,0.75)" stroke-width="11.327999999999996"/></g><g><polyline data-points="1.767676767676768,3.989898989898992 1.767676767676768,4.090909090909092 1.767676767676768,4.191919191919193 1.767676767676768,4.292929292929293 1.767676767676768,4.393939393939394 1.767676767676768,4.494949494949497 1.767676767676768,4.595959595959597 1.767676767676768,4.696969696969697 1.767676767676768,4.7979797979797985 1.767676767676768,4.898989898989901 1.767676767676768,5.000000000000002" data-type="line" data-label="" points="678.8686868686868,135.35353535353545 678.8686868686868,125.81818181818198 678.8686868686868,116.28282828282846 678.8686868686868,106.747474747475 678.8686868686868,97.21212121212153 678.8686868686868,87.67676767676778 678.8686868686868,78.14141414141432 678.8686868686868,68.60606060606085 678.8686868686868,59.07070707070733 678.8686868686868,49.53535353535369 678.8686868686868,40.000000000000114" fill="none" stroke="rgba(255,0,0,0.75)" stroke-width="11.327999999999996"/></g><g><rect data-type="rect" data-label="" data-x="0" data-y="0" x="40.00000000000017" y="40.000000000000284" width="943.9999999999995" height="943.9999999999998" fill="none" stroke="gray" stroke-width="0.010593220338983056"/></g><g><rect data-type="rect" data-label="" data-x="0" data-y="0" x="40.00000000000017" y="40.000000000000284" width="943.9999999999995" height="943.9999999999998" fill="none" stroke="rgba(15, 23, 42, 0.8)" stroke-width="0.010593220338983056"/></g><circle data-type="circle" data-label="" data-x="2.7777777777777786" data-y="3.989898989898992" cx="774.2222222222222" cy="135.35353535353545" r="14.159999999999995" fill="rgba(0,0,0,0.3)" stroke="black" stroke-width="0.010593220338983056"/><circle data-type="circle" data-label="" data-x="1.767676767676768" data-y="3.989898989898992" cx="678.8686868686868" cy="135.35353535353545" r="14.159999999999995" fill="rgba(0,0,0,0.3)" stroke="black" stroke-width="0.010593220338983056"/><g id="crosshair" style="display: none"><line id="crosshair-h" y1="0" y2="1024" stroke="#666" stroke-width="0.5"/><line id="crosshair-v" x1="0" x2="1024" stroke="#666" stroke-width="0.5"/><text id="coordinates" font-family="monospace" font-size="12" fill="#666"></text></g><script><![CDATA[
              document.currentScript.parentElement.addEventListener('mousemove', (e) => {
                const svg = e.currentTarget;
                const rect = svg.getBoundingClientRect();
                const x = e.clientX - rect.left;
                const y = e.clientY - rect.top;
                const crosshair = svg.getElementById('crosshair');
                const h = svg.getElementById('crosshair-h');
                const v = svg.getElementById('crosshair-v');
                const coords = svg.getElementById('coordinates');
                
                crosshair.style.display = 'block';
                h.setAttribute('x1', '0');
                h.setAttribute('x2', '1024');
                h.setAttribute('y1', y);
                h.setAttribute('y2', y);
                v.setAttribute('x1', x);
                v.setAttribute('x2', x);
                v.setAttribute('y1', '0');
                v.setAttribute('y2', '1024');

                // Calculate real coordinates using inverse transformation
                const matrix = {"a":94.39999999999996,"c":0,"e":512,"b":0,"d":-94.39999999999996,"f":512.0000000000001};
                // Manually invert and apply the affine transform
                // Since we only use translate and scale, we can directly compute:
                // x' = (x - tx) / sx
                // y' = (y - ty) / sy
                const sx = matrix.a;
                const sy = matrix.d;
                const tx = matrix.e; 
                const ty = matrix.f;
                const realPoint = {
                  x: (x - tx) / sx,
                  y: (y - ty) / sy // Flip y back since we used negative scale
                }
                
                coords.textContent = `(${realPoint.x.toFixed(2)}, ${realPoint.y.toFixed(2)})`;
                coords.setAttribute('x', (x + 5).toString());
                coords.setAttribute('y', (y - 5).toString());
              });
              document.currentScript.parentElement.addEventListener('mouseleave', () => {
                document.currentScript.parentElement.getElementById('crosshair').style.display = 'none';
              });
            ]]></script></svg>