<svg width="1024" height="1024" viewBox="0 0 1024 1024" xmlns="http://www.w3.org/2000/svg"><rect width="100%" height="100%" fill="white"/><g><circle data-type="point" data-label="conn_000" data-x="4.4" data-y="-5" cx="927.3599999999998" cy="984" r="14.16" fill="red"/></g><g><circle data-type="point" data-label="conn_000" data-x="-0.88" data-y="5" cx="428.928" cy="40.000000000000284" r="14.16" fill="red"/></g><g><circle data-type="point" data-label="conn_001" data-x="-3.7800000000000002" data-y="5" cx="155.16800000000006" cy="40.000000000000284" r="14.16" fill="blue"/></g><g><circle data-type="point" data-label="conn_001" data-x="3.8000000000000003" data-y="5" cx="870.7199999999998" cy="40.000000000000284" r="14.16" fill="blue"/></g><g><circle data-type="point" data-label="conn_002" data-x="-2.04" data-y="5" cx="319.424" cy="40.000000000000284" r="14.16" fill="red"/></g><g><circle data-type="point" data-label="conn_002" data-x="2.36" data-y="5" cx="734.7839999999999" cy="40.000000000000284" r="14.16" fill="red"/></g><g><circle data-type="point" data-label="conn_003" data-x="-4.46" data-y="5" cx="90.97600000000011" cy="40.000000000000284" r="14.16" fill="blue"/></g><g><circle data-type="point" data-label="conn_003" data-x="1.32" data-y="5" cx="636.608" cy="40.000000000000284" r="14.16" fill="red"/></g><g><circle data-type="point" data-label="conn_004" data-x="-5" data-y="-3.7" cx="40.000000000000114" cy="861.28" r="14.16" fill="blue"/></g><g><circle data-type="point" data-label="conn_004" data-x="5" data-y="-2.48" cx="983.9999999999998" cy="746.1120000000001" r="14.16" fill="blue"/></g><g><circle data-type="point" data-label="conn_005" data-x="2" data-y="-5" cx="700.7999999999998" cy="984" r="14.16" fill="blue"/></g><g><circle data-type="point" data-label="conn_005" data-x="4.96" data-y="5" cx="980.2239999999997" cy="40.000000000000284" r="14.16" fill="red"/></g><g><circle data-type="point" data-label="conn_006" data-x="5" data-y="-0.26" cx="983.9999999999998" cy="536.5440000000001" r="14.16" fill="blue"/></g><g><circle data-type="point" data-label="conn_006" data-x="-5" data-y="-1.8800000000000001" cx="40.000000000000114" cy="689.4720000000001" r="14.16" fill="blue"/></g><g><circle data-type="point" data-label="conn_007" data-x="-2.34" data-y="-5" cx="291.10400000000004" cy="984" r="14.16" fill="blue"/></g><g><circle data-type="point" data-label="conn_007" data-x="2.66" data-y="5" cx="763.1039999999998" cy="40.000000000000284" r="14.16" fill="blue"/></g><g><circle data-type="point" data-label="conn_008" data-x="3" data-y="-5" cx="795.1999999999998" cy="984" r="14.16" fill="blue"/></g><g><circle data-type="point" data-label="conn_008" data-x="-4.74" data-y="-5" cx="64.5440000000001" cy="984" r="14.16" fill="red"/></g><g><circle data-type="point" data-label="conn_009" data-x="-5" data-y="-0.7000000000000001" cx="40.000000000000114" cy="578.0800000000002" r="14.16" fill="blue"/></g><g><circle data-type="point" data-label="conn_009" data-x="5" data-y="2.8000000000000003" cx="983.9999999999998" cy="247.68000000000018" r="14.16" fill="blue"/></g><g><polyline data-points="-2.3737373737373733,-5.000000000000001 -2.2727272727272725,-4.898989898989899 -2.1717171717171713,-4.7979797979797985 -2.07070707070707,-4.696969696969697 -1.9696969696969693,-4.595959595959596 -1.8686868686868683,-4.494949494949496 -1.7676767676767675,-4.393939393939394 -1.6666666666666665,-4.292929292929293 -1.5656565656565653,-4.191919191919193 -1.4646464646464643,-4.090909090909091 -1.363636363636363,-3.98989898989899 -1.2626262626262625,-3.8888888888888884 -1.1616161616161613,-3.7878787878787876 -1.0606060606060603,-3.6868686868686864 -0.9595959595959596,-3.5858585858585856 -0.8585858585858579,-3.484848484848485 -0.7575757575757572,-3.383838383838383 -0.6565656565656557,-3.2828282828282824 -0.555555555555555,-3.1818181818181817 -0.4545454545454544,-3.0808080808080804 -0.35353535353535287,-2.9797979797979792 -0.2525252525252522,-2.8787878787878785 -0.15151515151515066,-2.7777777777777777 -0.05050505050505001,-2.6767676767676765 0.050505050505051545,-2.5757575757575752 0.1515151515151522,-2.474747474747474 0.2525252525252529,-2.3737373737373733 0.3535353535353544,-2.2727272727272725 0.4545454545454551,-2.1717171717171713 0.5555555555555567,-2.07070707070707 0.6565656565656574,-1.9696969696969693 0.7575757575757579,-1.8686868686868683 0.8585858585858596,-1.7676767676767675 0.9595959595959602,-1.6666666666666665 1.0606060606060617,-1.5656565656565653 1.1616161616161622,-1.4646464646464643 1.262626262626263,-1.363636363636363 1.3636363636363644,-1.2626262626262625 1.4646464646464652,-1.1616161616161613 1.5656565656565666,-1.0606060606060603 1.6666666666666674,-0.9595959595959596 1.767676767676768,-0.8585858585858579 1.8686868686868696,-0.7575757575757572 1.9696969696969702,-0.6565656565656557 2.070707070707072,-0.555555555555555 2.1717171717171726,-0.4545454545454544 2.2727272727272734,-0.35353535353535287 2.373737373737375,-0.2525252525252522 2.4747474747474754,-0.15151515151515066 2.575757575757577,-0.05050505050505001 2.676767676767678,0.050505050505051545 2.676767676767678,0.1515151515151522 2.676767676767678,0.2525252525252529 2.676767676767678,0.3535353535353544 2.676767676767678,0.4545454545454551 2.676767676767678,0.5555555555555567 2.676767676767678,0.6565656565656574 2.676767676767678,0.7575757575757579 2.676767676767678,0.8585858585858596 2.676767676767678,0.9595959595959602 2.676767676767678,1.0606060606060617 2.676767676767678,1.1616161616161622 2.676767676767678,1.262626262626263 2.676767676767678,1.3636363636363644 2.676767676767678,1.4646464646464652 2.676767676767678,1.5656565656565666 2.676767676767678,1.6666666666666674 2.676767676767678,1.767676767676768 2.676767676767678,1.8686868686868696 2.676767676767678,1.9696969696969702 2.676767676767678,2.070707070707072 2.676767676767678,2.1717171717171726 2.676767676767678,2.2727272727272734 2.676767676767678,2.373737373737375 2.676767676767678,2.4747474747474754 2.676767676767678,2.575757575757577 2.676767676767678,2.676767676767678 2.676767676767678,2.7777777777777786 2.676767676767678,2.87878787878788 2.676767676767678,2.9797979797979806 2.676767676767678,3.080808080808082 2.676767676767678,3.181818181818183 2.676767676767678,3.2828282828282833 2.676767676767678,3.383838383838384 2.676767676767678,3.4848484848484866 2.676767676767678,3.5858585858585874 2.676767676767678,3.6868686868686877 2.676767676767678,3.7878787878787885 2.676767676767678,3.8888888888888893 2.676767676767678,3.989898989898992 2.676767676767678,4.090909090909092 2.676767676767678,4.191919191919193 2.676767676767678,4.292929292929293 2.676767676767678,4.393939393939394 2.676767676767678,4.494949494949497 2.676767676767678,4.595959595959597 2.676767676767678,4.696969696969697 2.676767676767678,4.7979797979797985 2.676767676767678,4.898989898989901 2.676767676767678,5.000000000000002" data-type="line" data-label="" points="287.91919191919203,984 297.4545454545455,974.4646464646464 306.9898989898991,964.9292929292928 316.5252525252526,955.3939393939394 326.0606060606061,945.8585858585858 335.59595959595964,936.3232323232323 345.13131313131316,926.7878787878788 354.6666666666667,917.2525252525252 364.2020202020202,907.7171717171718 373.7373737373738,898.1818181818181 383.2727272727273,888.6464646464647 392.80808080808083,879.1111111111111 402.34343434343435,869.5757575757575 411.8787878787879,860.0404040404039 421.4141414141414,850.5050505050505 430.949494949495,840.969696969697 440.4848484848485,831.4343434343434 450.0202020202021,821.8989898989898 459.55555555555554,812.3636363636363 469.09090909090907,802.8282828282828 478.62626262626264,793.2929292929292 488.16161616161617,783.7575757575758 497.69696969696975,774.2222222222222 507.2323232323232,764.6868686868687 516.7676767676768,755.1515151515151 526.3030303030303,745.6161616161615 535.8383838383838,736.0808080808081 545.3737373737374,726.5454545454545 554.9090909090909,717.010101010101 564.4444444444445,707.4747474747475 573.9797979797979,697.939393939394 583.5151515151515,688.4040404040404 593.0505050505051,678.8686868686868 602.5858585858585,669.3333333333334 612.1212121212121,659.7979797979798 621.6565656565656,650.2626262626263 631.1919191919192,640.7272727272727 640.7272727272727,631.1919191919193 650.2626262626262,621.6565656565657 659.7979797979798,612.1212121212121 669.3333333333333,602.5858585858587 678.8686868686868,593.0505050505051 688.4040404040404,583.5151515151516 697.9393939393939,573.979797979798 707.4747474747475,564.4444444444445 717.0101010101009,554.909090909091 726.5454545454545,545.3737373737374 736.0808080808081,535.838383838384 745.6161616161615,526.3030303030304 755.1515151515151,516.7676767676768 764.6868686868686,507.23232323232327 764.6868686868686,497.69696969696975 764.6868686868686,488.1616161616163 764.6868686868686,478.6262626262627 764.6868686868686,469.0909090909092 764.6868686868686,459.5555555555556 764.6868686868686,450.0202020202021 764.6868686868686,440.4848484848486 764.6868686868686,430.94949494949503 764.6868686868686,421.4141414141415 764.6868686868686,411.87878787878793 764.6868686868686,402.3434343434344 764.6868686868686,392.80808080808094 764.6868686868686,383.27272727272737 764.6868686868686,373.73737373737384 764.6868686868686,364.2020202020203 764.6868686868686,354.66666666666674 764.6868686868686,345.1313131313133 764.6868686868686,335.5959595959597 764.6868686868686,326.06060606060623 764.6868686868686,316.5252525252526 764.6868686868686,306.9898989898991 764.6868686868686,297.4545454545456 764.6868686868686,287.91919191919203 764.6868686868686,278.38383838383857 764.6868686868686,268.84848484848493 764.6868686868686,259.3131313131314 764.6868686868686,249.77777777777794 764.6868686868686,240.24242424242436 764.6868686868686,230.70707070707084 764.6868686868686,221.17171717171726 764.6868686868686,211.63636363636374 764.6868686868686,202.10101010101027 764.6868686868686,192.56565656565675 764.6868686868686,183.03030303030312 764.6868686868686,173.4949494949496 764.6868686868686,163.95959595959613 764.6868686868686,154.4242424242426 764.6868686868686,144.88888888888908 764.6868686868686,135.35353535353545 764.6868686868686,125.81818181818198 764.6868686868686,116.28282828282846 764.6868686868686,106.747474747475 764.6868686868686,97.21212121212153 764.6868686868686,87.67676767676778 764.6868686868686,78.14141414141432 764.6868686868686,68.60606060606085 764.6868686868686,59.07070707070733 764.6868686868686,49.53535353535369 764.6868686868686,40.000000000000114" fill="none" stroke="rgba(0,0,255,0.75)" stroke-width="11.327999999999996"/></g><g><polyline data-points="3.080808080808082,-5.000000000000001 3.080808080808082,-4.898989898989899 3.080808080808082,-4.7979797979797985 3.080808080808082,-4.696969696969697 3.080808080808082,-4.595959595959596 3.080808080808082,-4.494949494949496 3.181818181818183,-4.393939393939394 3.2828282828282833,-4.292929292929293 3.383838383838384,-4.191919191919193 3.4848484848484866,-4.090909090909091 3.5858585858585874,-3.98989898989899" data-type="line" data-label="" points="802.8282828282828,984 802.8282828282828,974.4646464646464 802.8282828282828,964.9292929292928 802.8282828282828,955.3939393939394 802.8282828282828,945.8585858585858 802.8282828282828,936.3232323232323 812.3636363636363,926.7878787878788 821.8989898989898,917.2525252525252 831.4343434343433,907.7171717171718 840.969696969697,898.1818181818181 850.5050505050505,888.6464646464647" fill="none" stroke="rgba(0,0,255,0.75)" stroke-width="11.327999999999996"/></g><g><polyline data-points="3.5858585858585874,-3.98989898989899 3.4848484848484866,-4.090909090909091 3.383838383838384,-4.191919191919193 3.2828282828282833,-4.292929292929293 3.181818181818183,-4.393939393939394 3.080808080808082,-4.494949494949496 2.9797979797979806,-4.595959595959596 2.87878787878788,-4.696969696969697 2.7777777777777786,-4.7979797979797985 2.676767676767678,-4.898989898989899 2.575757575757577,-5.000000000000001 2.4747474747474754,-5.000000000000001 2.373737373737375,-5.000000000000001 2.2727272727272734,-5.000000000000001 2.1717171717171726,-5.000000000000001 2.070707070707072,-5.000000000000001 1.9696969696969702,-5.000000000000001 1.8686868686868696,-5.000000000000001 1.767676767676768,-5.000000000000001 1.6666666666666674,-5.000000000000001 1.5656565656565666,-5.000000000000001 1.4646464646464652,-5.000000000000001 1.3636363636363644,-5.000000000000001 1.262626262626263,-5.000000000000001 1.1616161616161622,-5.000000000000001 1.0606060606060617,-5.000000000000001 0.9595959595959602,-5.000000000000001 0.8585858585858596,-5.000000000000001 0.7575757575757579,-5.000000000000001 0.6565656565656574,-5.000000000000001 0.5555555555555567,-5.000000000000001 0.4545454545454551,-5.000000000000001 0.3535353535353544,-5.000000000000001 0.2525252525252529,-5.000000000000001 0.1515151515151522,-5.000000000000001 0.050505050505051545,-5.000000000000001 -0.05050505050505001,-5.000000000000001 -0.15151515151515066,-5.000000000000001 -0.2525252525252522,-5.000000000000001 -0.35353535353535287,-5.000000000000001 -0.4545454545454544,-5.000000000000001 -0.555555555555555,-5.000000000000001 -0.6565656565656557,-5.000000000000001 -0.7575757575757572,-5.000000000000001 -0.8585858585858579,-5.000000000000001 -0.9595959595959596,-5.000000000000001 -1.0606060606060603,-5.000000000000001 -1.1616161616161613,-5.000000000000001 -1.2626262626262625,-5.000000000000001 -1.363636363636363,-5.000000000000001 -1.4646464646464643,-5.000000000000001 -1.5656565656565653,-5.000000000000001 -1.6666666666666665,-5.000000000000001 -1.7676767676767675,-5.000000000000001 -1.8686868686868683,-5.000000000000001 -1.9696969696969693,-5.000000000000001 -2.07070707070707,-5.000000000000001 -2.1717171717171713,-5.000000000000001 -2.2727272727272725,-5.000000000000001 -2.3737373737373733,-5.000000000000001 -2.474747474747474,-5.000000000000001 -2.5757575757575752,-5.000000000000001 -2.6767676767676765,-5.000000000000001 -2.7777777777777777,-5.000000000000001 -2.8787878787878785,-5.000000000000001 -2.9797979797979792,-5.000000000000001 -3.0808080808080804,-5.000000000000001 -3.1818181818181817,-5.000000000000001 -3.2828282828282824,-5.000000000000001 -3.383838383838383,-5.000000000000001 -3.484848484848485,-5.000000000000001 -3.5858585858585856,-5.000000000000001 -3.6868686868686864,-5.000000000000001 -3.7878787878787876,-5.000000000000001 -3.8888888888888884,-5.000000000000001 -3.98989898989899,-5.000000000000001 -4.090909090909091,-5.000000000000001 -4.191919191919193,-5.000000000000001 -4.292929292929293,-5.000000000000001 -4.393939393939394,-5.000000000000001 -4.494949494949496,-5.000000000000001 -4.595959595959596,-5.000000000000001 -4.696969696969697,-5.000000000000001 -4.7979797979797985,-5.000000000000001" data-type="line" data-label="" points="850.5050505050505,888.6464646464647 840.969696969697,898.1818181818181 831.4343434343433,907.7171717171718 821.8989898989898,917.2525252525252 812.3636363636363,926.7878787878788 802.8282828282828,936.3232323232323 793.2929292929292,945.8585858585858 783.7575757575758,955.3939393939394 774.2222222222222,964.9292929292928 764.6868686868686,974.4646464646464 755.1515151515151,984 745.6161616161615,984 736.0808080808081,984 726.5454545454545,984 717.0101010101009,984 707.4747474747475,984 697.9393939393939,984 688.4040404040404,984 678.8686868686868,984 669.3333333333333,984 659.7979797979798,984 650.2626262626262,984 640.7272727272727,984 631.1919191919192,984 621.6565656565656,984 612.1212121212121,984 602.5858585858585,984 593.0505050505051,984 583.5151515151515,984 573.9797979797979,984 564.4444444444445,984 554.9090909090909,984 545.3737373737374,984 535.8383838383838,984 526.3030303030303,984 516.7676767676768,984 507.2323232323232,984 497.69696969696975,984 488.16161616161617,984 478.62626262626264,984 469.09090909090907,984 459.55555555555554,984 450.0202020202021,984 440.4848484848485,984 430.949494949495,984 421.4141414141414,984 411.8787878787879,984 402.34343434343435,984 392.80808080808083,984 383.2727272727273,984 373.7373737373738,984 364.2020202020202,984 354.6666666666667,984 345.13131313131316,984 335.59595959595964,984 326.0606060606061,984 316.5252525252526,984 306.9898989898991,984 297.4545454545455,984 287.91919191919203,984 278.38383838383845,984 268.84848484848493,984 259.3131313131314,984 249.77777777777783,984 240.2424242424243,984 230.70707070707084,984 221.17171717171726,984 211.63636363636374,984 202.10101010101022,984 192.5656565656567,984 183.03030303030312,984 173.4949494949496,984 163.95959595959607,984 154.42424242424255,984 144.88888888888903,984 135.35353535353545,984 125.81818181818193,984 116.28282828282829,984 106.74747474747483,984 97.21212121212136,984 87.67676767676772,984 78.14141414141426,984 68.60606060606068,984 59.07070707070716,984" fill="none" stroke="rgba(255,0,0,0.75)" stroke-width="11.327999999999996"/></g><g><polyline data-points="5.000000000000002,-0.2525252525252522 4.898989898989901,-0.35353535353535287 4.7979797979797985,-0.4545454545454544 4.696969696969697,-0.555555555555555 4.595959595959597,-0.6565656565656557 4.494949494949497,-0.7575757575757572 4.393939393939394,-0.8585858585858579 4.292929292929293,-0.9595959595959596 4.191919191919193,-1.0606060606060603 4.191919191919193,-1.1616161616161613 4.191919191919193,-1.2626262626262625 4.191919191919193,-1.363636363636363 4.191919191919193,-1.4646464646464643 4.191919191919193,-1.5656565656565653 4.191919191919193,-1.6666666666666665 4.191919191919193,-1.7676767676767675 4.191919191919193,-1.8686868686868683 4.191919191919193,-1.9696969696969693 4.191919191919193,-2.07070707070707 4.191919191919193,-2.1717171717171713 4.191919191919193,-2.2727272727272725 4.191919191919193,-2.3737373737373733 4.191919191919193,-2.474747474747474 4.191919191919193,-2.5757575757575752 4.191919191919193,-2.6767676767676765 4.191919191919193,-2.7777777777777777 4.191919191919193,-2.8787878787878785 4.191919191919193,-2.9797979797979792 4.191919191919193,-3.0808080808080804 4.191919191919193,-3.1818181818181817 4.090909090909092,-3.2828282828282824 3.989898989898992,-3.383838383838383 3.989898989898992,-3.484848484848485 3.989898989898992,-3.5858585858585856" data-type="line" data-label="" points="984,535.838383838384 974.4646464646464,545.3737373737374 964.9292929292927,554.909090909091 955.3939393939393,564.4444444444445 945.8585858585857,573.979797979798 936.3232323232323,583.5151515151516 926.7878787878785,593.0505050505051 917.2525252525251,602.5858585858587 907.7171717171716,612.1212121212121 907.7171717171716,621.6565656565657 907.7171717171716,631.1919191919193 907.7171717171716,640.7272727272727 907.7171717171716,650.2626262626263 907.7171717171716,659.7979797979798 907.7171717171716,669.3333333333334 907.7171717171716,678.8686868686868 907.7171717171716,688.4040404040404 907.7171717171716,697.939393939394 907.7171717171716,707.4747474747475 907.7171717171716,717.010101010101 907.7171717171716,726.5454545454545 907.7171717171716,736.0808080808081 907.7171717171716,745.6161616161615 907.7171717171716,755.1515151515151 907.7171717171716,764.6868686868687 907.7171717171716,774.2222222222222 907.7171717171716,783.7575757575758 907.7171717171716,793.2929292929292 907.7171717171716,802.8282828282828 907.7171717171716,812.3636363636363 898.181818181818,821.8989898989898 888.6464646464647,831.4343434343434 888.6464646464647,840.969696969697 888.6464646464647,850.5050505050505" fill="none" stroke="rgba(0,0,255,0.75)" stroke-width="11.327999999999996"/></g><g><polyline data-points="3.989898989898992,-3.5858585858585856 3.8888888888888893,-3.484848484848485 3.7878787878787885,-3.383838383838383 3.6868686868686877,-3.2828282828282824 3.5858585858585874,-3.1818181818181817 3.4848484848484866,-3.0808080808080804 3.383838383838384,-2.9797979797979792 3.2828282828282833,-2.8787878787878785 3.181818181818183,-2.7777777777777777 3.080808080808082,-2.6767676767676765 2.9797979797979806,-2.5757575757575752 2.87878787878788,-2.474747474747474 2.7777777777777786,-2.3737373737373733 2.676767676767678,-2.2727272727272725 2.575757575757577,-2.1717171717171713 2.4747474747474754,-2.07070707070707 2.373737373737375,-1.9696969696969693 2.2727272727272734,-1.8686868686868683 2.1717171717171726,-1.8686868686868683 2.070707070707072,-1.8686868686868683 1.9696969696969702,-1.8686868686868683 1.8686868686868696,-1.8686868686868683 1.767676767676768,-1.8686868686868683 1.6666666666666674,-1.8686868686868683 1.5656565656565666,-1.8686868686868683 1.4646464646464652,-1.8686868686868683 1.3636363636363644,-1.8686868686868683 1.262626262626263,-1.8686868686868683 1.1616161616161622,-1.8686868686868683 1.0606060606060617,-1.8686868686868683 0.9595959595959602,-1.8686868686868683 0.8585858585858596,-1.8686868686868683 0.7575757575757579,-1.8686868686868683 0.6565656565656574,-1.8686868686868683 0.5555555555555567,-1.8686868686868683 0.4545454545454551,-1.8686868686868683 0.3535353535353544,-1.8686868686868683 0.2525252525252529,-1.8686868686868683 0.1515151515151522,-1.8686868686868683 0.050505050505051545,-1.8686868686868683 -0.05050505050505001,-1.8686868686868683 -0.15151515151515066,-1.8686868686868683 -0.2525252525252522,-1.8686868686868683 -0.35353535353535287,-1.8686868686868683 -0.4545454545454544,-1.8686868686868683 -0.555555555555555,-1.8686868686868683 -0.6565656565656557,-1.8686868686868683 -0.7575757575757572,-1.8686868686868683 -0.8585858585858579,-1.8686868686868683 -0.9595959595959596,-1.8686868686868683 -1.0606060606060603,-1.8686868686868683 -1.1616161616161613,-1.8686868686868683 -1.2626262626262625,-1.8686868686868683 -1.363636363636363,-1.8686868686868683 -1.4646464646464643,-1.8686868686868683 -1.5656565656565653,-1.8686868686868683 -1.6666666666666665,-1.8686868686868683 -1.7676767676767675,-1.8686868686868683 -1.8686868686868683,-1.8686868686868683 -1.9696969696969693,-1.8686868686868683 -2.07070707070707,-1.8686868686868683 -2.1717171717171713,-1.8686868686868683 -2.2727272727272725,-1.8686868686868683 -2.3737373737373733,-1.8686868686868683 -2.474747474747474,-1.8686868686868683 -2.5757575757575752,-1.8686868686868683 -2.6767676767676765,-1.8686868686868683 -2.7777777777777777,-1.8686868686868683 -2.8787878787878785,-1.8686868686868683 -2.9797979797979792,-1.8686868686868683 -3.0808080808080804,-1.8686868686868683 -3.1818181818181817,-1.8686868686868683 -3.2828282828282824,-1.8686868686868683 -3.383838383838383,-1.8686868686868683 -3.484848484848485,-1.8686868686868683 -3.5858585858585856,-1.8686868686868683 -3.6868686868686864,-1.8686868686868683 -3.7878787878787876,-1.8686868686868683 -3.8888888888888884,-1.8686868686868683 -3.98989898989899,-1.8686868686868683" data-type="line" data-label="" points="888.6464646464647,850.5050505050505 879.111111111111,840.969696969697 869.5757575757575,831.4343434343434 860.0404040404039,821.8989898989898 850.5050505050505,812.3636363636363 840.969696969697,802.8282828282828 831.4343434343433,793.2929292929292 821.8989898989898,783.7575757575758 812.3636363636363,774.2222222222222 802.8282828282828,764.6868686868687 793.2929292929292,755.1515151515151 783.7575757575758,745.6161616161615 774.2222222222222,736.0808080808081 764.6868686868686,726.5454545454545 755.1515151515151,717.010101010101 745.6161616161615,707.4747474747475 736.0808080808081,697.939393939394 726.5454545454545,688.4040404040404 717.0101010101009,688.4040404040404 707.4747474747475,688.4040404040404 697.9393939393939,688.4040404040404 688.4040404040404,688.4040404040404 678.8686868686868,688.4040404040404 669.3333333333333,688.4040404040404 659.7979797979798,688.4040404040404 650.2626262626262,688.4040404040404 640.7272727272727,688.4040404040404 631.1919191919192,688.4040404040404 621.6565656565656,688.4040404040404 612.1212121212121,688.4040404040404 602.5858585858585,688.4040404040404 593.0505050505051,688.4040404040404 583.5151515151515,688.4040404040404 573.9797979797979,688.4040404040404 564.4444444444445,688.4040404040404 554.9090909090909,688.4040404040404 545.3737373737374,688.4040404040404 535.8383838383838,688.4040404040404 526.3030303030303,688.4040404040404 516.7676767676768,688.4040404040404 507.2323232323232,688.4040404040404 497.69696969696975,688.4040404040404 488.16161616161617,688.4040404040404 478.62626262626264,688.4040404040404 469.09090909090907,688.4040404040404 459.55555555555554,688.4040404040404 450.0202020202021,688.4040404040404 440.4848484848485,688.4040404040404 430.949494949495,688.4040404040404 421.4141414141414,688.4040404040404 411.8787878787879,688.4040404040404 402.34343434343435,688.4040404040404 392.80808080808083,688.4040404040404 383.2727272727273,688.4040404040404 373.7373737373738,688.4040404040404 364.2020202020202,688.4040404040404 354.6666666666667,688.4040404040404 345.13131313131316,688.4040404040404 335.59595959595964,688.4040404040404 326.0606060606061,688.4040404040404 316.5252525252526,688.4040404040404 306.9898989898991,688.4040404040404 297.4545454545455,688.4040404040404 287.91919191919203,688.4040404040404 278.38383838383845,688.4040404040404 268.84848484848493,688.4040404040404 259.3131313131314,688.4040404040404 249.77777777777783,688.4040404040404 240.2424242424243,688.4040404040404 230.70707070707084,688.4040404040404 221.17171717171726,688.4040404040404 211.63636363636374,688.4040404040404 202.10101010101022,688.4040404040404 192.5656565656567,688.4040404040404 183.03030303030312,688.4040404040404 173.4949494949496,688.4040404040404 163.95959595959607,688.4040404040404 154.42424242424255,688.4040404040404 144.88888888888903,688.4040404040404 135.35353535353545,688.4040404040404" fill="none" stroke="rgba(255,0,0,0.75)" stroke-width="11.327999999999996"/></g><g><polyline data-points="-3.98989898989899,-1.8686868686868683 -4.090909090909091,-1.8686868686868683 -4.191919191919193,-1.8686868686868683 -4.292929292929293,-1.8686868686868683 -4.393939393939394,-1.8686868686868683 -4.494949494949496,-1.8686868686868683 -4.595959595959596,-1.8686868686868683 -4.696969696969697,-1.8686868686868683 -4.7979797979797985,-1.8686868686868683 -4.898989898989899,-1.8686868686868683 -5.000000000000001,-1.8686868686868683" data-type="line" data-label="" points="135.35353535353545,688.4040404040404 125.81818181818193,688.4040404040404 116.28282828282829,688.4040404040404 106.74747474747483,688.4040404040404 97.21212121212136,688.4040404040404 87.67676767676772,688.4040404040404 78.14141414141426,688.4040404040404 68.60606060606068,688.4040404040404 59.07070707070716,688.4040404040404 49.53535353535369,688.4040404040404 40.00000000000006,688.4040404040404" fill="none" stroke="rgba(0,0,255,0.75)" stroke-width="11.327999999999996"/></g><g><polyline data-points="-3.7878787878787876,5.000000000000002 -3.6868686868686864,4.898989898989901 -3.5858585858585856,4.7979797979797985 -3.484848484848485,4.7979797979797985 -3.383838383838383,4.7979797979797985 -3.2828282828282824,4.7979797979797985 -3.1818181818181817,4.7979797979797985 -3.0808080808080804,4.7979797979797985 -2.9797979797979792,4.7979797979797985 -2.8787878787878785,4.7979797979797985 -2.7777777777777777,4.7979797979797985 -2.6767676767676765,4.7979797979797985 -2.5757575757575752,4.7979797979797985 -2.474747474747474,4.7979797979797985 -2.3737373737373733,4.7979797979797985 -2.2727272727272725,4.7979797979797985 -2.1717171717171713,4.7979797979797985 -2.07070707070707,4.7979797979797985 -1.9696969696969693,4.7979797979797985 -1.8686868686868683,4.7979797979797985 -1.7676767676767675,4.7979797979797985 -1.6666666666666665,4.7979797979797985 -1.5656565656565653,4.7979797979797985 -1.4646464646464643,4.7979797979797985 -1.363636363636363,4.7979797979797985 -1.2626262626262625,4.7979797979797985 -1.1616161616161613,4.7979797979797985 -1.0606060606060603,4.7979797979797985 -0.9595959595959596,4.7979797979797985 -0.8585858585858579,4.7979797979797985 -0.7575757575757572,4.7979797979797985 -0.6565656565656557,4.7979797979797985 -0.555555555555555,4.7979797979797985 -0.4545454545454544,4.7979797979797985 -0.35353535353535287,4.7979797979797985 -0.2525252525252522,4.7979797979797985 -0.15151515151515066,4.7979797979797985 -0.05050505050505001,4.7979797979797985 0.050505050505051545,4.7979797979797985 0.1515151515151522,4.7979797979797985 0.2525252525252529,4.696969696969697 0.3535353535353544,4.595959595959597 0.4545454545454551,4.494949494949497 0.5555555555555567,4.393939393939394 0.6565656565656574,4.292929292929293 0.7575757575757579,4.191919191919193 0.8585858585858596,4.090909090909092 0.9595959595959602,3.989898989898992 1.0606060606060617,3.8888888888888893 1.1616161616161622,3.7878787878787885 1.262626262626263,3.6868686868686877 1.3636363636363644,3.7878787878787885 1.4646464646464652,3.8888888888888893 1.5656565656565666,3.989898989898992 1.6666666666666674,3.989898989898992 1.767676767676768,3.989898989898992 1.8686868686868696,3.989898989898992 1.9696969696969702,3.989898989898992 2.070707070707072,3.989898989898992 2.1717171717171726,3.989898989898992 2.2727272727272734,3.989898989898992" data-type="line" data-label="" points="154.42424242424255,40.000000000000114 163.95959595959607,49.53535353535369 173.4949494949496,59.07070707070733 183.03030303030312,59.07070707070733 192.5656565656567,59.07070707070733 202.10101010101022,59.07070707070733 211.63636363636374,59.07070707070733 221.17171717171726,59.07070707070733 230.70707070707084,59.07070707070733 240.2424242424243,59.07070707070733 249.77777777777783,59.07070707070733 259.3131313131314,59.07070707070733 268.84848484848493,59.07070707070733 278.38383838383845,59.07070707070733 287.91919191919203,59.07070707070733 297.4545454545455,59.07070707070733 306.9898989898991,59.07070707070733 316.5252525252526,59.07070707070733 326.0606060606061,59.07070707070733 335.59595959595964,59.07070707070733 345.13131313131316,59.07070707070733 354.6666666666667,59.07070707070733 364.2020202020202,59.07070707070733 373.7373737373738,59.07070707070733 383.2727272727273,59.07070707070733 392.80808080808083,59.07070707070733 402.34343434343435,59.07070707070733 411.8787878787879,59.07070707070733 421.4141414141414,59.07070707070733 430.949494949495,59.07070707070733 440.4848484848485,59.07070707070733 450.0202020202021,59.07070707070733 459.55555555555554,59.07070707070733 469.09090909090907,59.07070707070733 478.62626262626264,59.07070707070733 488.16161616161617,59.07070707070733 497.69696969696975,59.07070707070733 507.2323232323232,59.07070707070733 516.7676767676768,59.07070707070733 526.3030303030303,59.07070707070733 535.8383838383838,68.60606060606085 545.3737373737374,78.14141414141432 554.9090909090909,87.67676767676778 564.4444444444445,97.21212121212153 573.9797979797979,106.747474747475 583.5151515151515,116.28282828282846 593.0505050505051,125.81818181818198 602.5858585858585,135.35353535353545 612.1212121212121,144.88888888888908 621.6565656565656,154.4242424242426 631.1919191919192,163.95959595959613 640.7272727272727,154.4242424242426 650.2626262626262,144.88888888888908 659.7979797979798,135.35353535353545 669.3333333333333,135.35353535353545 678.8686868686868,135.35353535353545 688.4040404040404,135.35353535353545 697.9393939393939,135.35353535353545 707.4747474747475,135.35353535353545 717.0101010101009,135.35353535353545 726.5454545454545,135.35353535353545" fill="none" stroke="rgba(0,0,255,0.75)" stroke-width="11.327999999999996"/></g><g><polyline data-points="2.2727272727272734,3.989898989898992 2.373737373737375,3.989898989898992 2.4747474747474754,3.989898989898992 2.575757575757577,3.989898989898992 2.676767676767678,3.989898989898992 2.7777777777777786,3.989898989898992 2.87878787878788,3.989898989898992 2.9797979797979806,3.989898989898992 3.080808080808082,3.989898989898992" data-type="line" data-label="" points="726.5454545454545,135.35353535353545 736.0808080808081,135.35353535353545 745.6161616161615,135.35353535353545 755.1515151515151,135.35353535353545 764.6868686868686,135.35353535353545 774.2222222222222,135.35353535353545 783.7575757575758,135.35353535353545 793.2929292929292,135.35353535353545 802.8282828282828,135.35353535353545" fill="none" stroke="rgba(255,0,0,0.75)" stroke-width="11.327999999999996"/></g><g><polyline data-points="3.080808080808082,3.989898989898992 3.181818181818183,4.090909090909092 3.2828282828282833,4.191919191919193 3.383838383838384,4.292929292929293 3.4848484848484866,4.393939393939394 3.5858585858585874,4.494949494949497 3.6868686868686877,4.595959595959597 3.7878787878787885,4.696969696969697 3.8888888888888893,4.7979797979797985 3.8888888888888893,4.898989898989901 3.8888888888888893,5.000000000000002" data-type="line" data-label="" points="802.8282828282828,135.35353535353545 812.3636363636363,125.81818181818198 821.8989898989898,116.28282828282846 831.4343434343433,106.747474747475 840.969696969697,97.21212121212153 850.5050505050505,87.67676767676778 860.0404040404039,78.14141414141432 869.5757575757575,68.60606060606085 879.111111111111,59.07070707070733 879.111111111111,49.53535353535369 879.111111111111,40.000000000000114" fill="none" stroke="rgba(0,0,255,0.75)" stroke-width="11.327999999999996"/></g><g><polyline data-points="4.494949494949497,-5.000000000000001 4.393939393939394,-4.898989898989899 4.292929292929293,-4.7979797979797985 4.191919191919193,-4.696969696969697 4.090909090909092,-4.595959595959596 3.989898989898992,-4.494949494949496 3.8888888888888893,-4.393939393939394 3.8888888888888893,-4.292929292929293 3.8888888888888893,-4.191919191919193 3.8888888888888893,-4.090909090909091 3.8888888888888893,-3.98989898989899 3.7878787878787885,-3.8888888888888884 3.6868686868686877,-3.7878787878787876 3.5858585858585874,-3.6868686868686864 3.4848484848484866,-3.5858585858585856 3.383838383838384,-3.484848484848485 3.2828282828282833,-3.383838383838383 3.181818181818183,-3.2828282828282824 3.080808080808082,-3.1818181818181817 2.9797979797979806,-3.0808080808080804 2.87878787878788,-2.9797979797979792 2.7777777777777786,-2.8787878787878785 2.676767676767678,-2.7777777777777777 2.575757575757577,-2.6767676767676765 2.4747474747474754,-2.5757575757575752 2.373737373737375,-2.474747474747474 2.2727272727272734,-2.3737373737373733 2.1717171717171726,-2.2727272727272725 2.070707070707072,-2.2727272727272725 1.9696969696969702,-2.2727272727272725 1.8686868686868696,-2.2727272727272725 1.767676767676768,-2.2727272727272725 1.6666666666666674,-2.2727272727272725 1.5656565656565666,-2.2727272727272725 1.4646464646464652,-2.2727272727272725 1.3636363636363644,-2.2727272727272725 1.262626262626263,-2.2727272727272725 1.1616161616161622,-2.2727272727272725 1.0606060606060617,-2.2727272727272725 0.9595959595959602,-2.2727272727272725 0.8585858585858596,-2.2727272727272725 0.7575757575757579,-2.2727272727272725 0.6565656565656574,-2.2727272727272725 0.5555555555555567,-2.2727272727272725 0.4545454545454551,-2.2727272727272725 0.3535353535353544,-2.2727272727272725 0.2525252525252529,-2.2727272727272725 0.1515151515151522,-2.2727272727272725 0.050505050505051545,-2.2727272727272725 -0.05050505050505001,-2.2727272727272725 -0.15151515151515066,-2.2727272727272725 -0.2525252525252522,-2.2727272727272725 -0.35353535353535287,-2.2727272727272725 -0.4545454545454544,-2.2727272727272725 -0.555555555555555,-2.2727272727272725" data-type="line" data-label="" points="936.3232323232323,984 926.7878787878785,974.4646464646464 917.2525252525251,964.9292929292928 907.7171717171716,955.3939393939394 898.181818181818,945.8585858585858 888.6464646464647,936.3232323232323 879.111111111111,926.7878787878788 879.111111111111,917.2525252525252 879.111111111111,907.7171717171718 879.111111111111,898.1818181818181 879.111111111111,888.6464646464647 869.5757575757575,879.1111111111111 860.0404040404039,869.5757575757575 850.5050505050505,860.0404040404039 840.969696969697,850.5050505050505 831.4343434343433,840.969696969697 821.8989898989898,831.4343434343434 812.3636363636363,821.8989898989898 802.8282828282828,812.3636363636363 793.2929292929292,802.8282828282828 783.7575757575758,793.2929292929292 774.2222222222222,783.7575757575758 764.6868686868686,774.2222222222222 755.1515151515151,764.6868686868687 745.6161616161615,755.1515151515151 736.0808080808081,745.6161616161615 726.5454545454545,736.0808080808081 717.0101010101009,726.5454545454545 707.4747474747475,726.5454545454545 697.9393939393939,726.5454545454545 688.4040404040404,726.5454545454545 678.8686868686868,726.5454545454545 669.3333333333333,726.5454545454545 659.7979797979798,726.5454545454545 650.2626262626262,726.5454545454545 640.7272727272727,726.5454545454545 631.1919191919192,726.5454545454545 621.6565656565656,726.5454545454545 612.1212121212121,726.5454545454545 602.5858585858585,726.5454545454545 593.0505050505051,726.5454545454545 583.5151515151515,726.5454545454545 573.9797979797979,726.5454545454545 564.4444444444445,726.5454545454545 554.9090909090909,726.5454545454545 545.3737373737374,726.5454545454545 535.8383838383838,726.5454545454545 526.3030303030303,726.5454545454545 516.7676767676768,726.5454545454545 507.2323232323232,726.5454545454545 497.69696969696975,726.5454545454545 488.16161616161617,726.5454545454545 478.62626262626264,726.5454545454545 469.09090909090907,726.5454545454545 459.55555555555554,726.5454545454545" fill="none" stroke="rgba(255,0,0,0.75)" stroke-width="11.327999999999996"/></g><g><polyline data-points="-0.555555555555555,-2.2727272727272725 -0.6565656565656557,-2.1717171717171713 -0.7575757575757572,-2.07070707070707 -0.8585858585858579,-1.9696969696969693 -0.8585858585858579,-1.8686868686868683 -0.8585858585858579,-1.7676767676767675 -0.8585858585858579,-1.6666666666666665 -0.8585858585858579,-1.5656565656565653 -0.8585858585858579,-1.4646464646464643 -0.8585858585858579,-1.363636363636363 -0.8585858585858579,-1.2626262626262625 -0.8585858585858579,-1.1616161616161613 -0.8585858585858579,-1.0606060606060603 -0.8585858585858579,-0.9595959595959596 -0.8585858585858579,-0.8585858585858579 -0.8585858585858579,-0.7575757575757572 -0.8585858585858579,-0.6565656565656557 -0.8585858585858579,-0.555555555555555 -0.8585858585858579,-0.4545454545454544 -0.8585858585858579,-0.35353535353535287 -0.8585858585858579,-0.2525252525252522 -0.8585858585858579,-0.15151515151515066 -0.8585858585858579,-0.05050505050505001 -0.8585858585858579,0.050505050505051545 -0.8585858585858579,0.1515151515151522 -0.8585858585858579,0.2525252525252529 -0.8585858585858579,0.3535353535353544 -0.8585858585858579,0.4545454545454551 -0.8585858585858579,0.5555555555555567 -0.8585858585858579,0.6565656565656574 -0.8585858585858579,0.7575757575757579 -0.8585858585858579,0.8585858585858596 -0.8585858585858579,0.9595959595959602 -0.8585858585858579,1.0606060606060617 -0.8585858585858579,1.1616161616161622 -0.8585858585858579,1.262626262626263 -0.8585858585858579,1.3636363636363644 -0.8585858585858579,1.4646464646464652 -0.8585858585858579,1.5656565656565666 -0.8585858585858579,1.6666666666666674 -0.8585858585858579,1.767676767676768 -0.8585858585858579,1.8686868686868696 -0.8585858585858579,1.9696969696969702 -0.8585858585858579,2.070707070707072 -0.8585858585858579,2.1717171717171726 -0.8585858585858579,2.2727272727272734 -0.8585858585858579,2.373737373737375 -0.8585858585858579,2.4747474747474754 -0.8585858585858579,2.575757575757577 -0.8585858585858579,2.676767676767678 -0.8585858585858579,2.7777777777777786 -0.8585858585858579,2.87878787878788 -0.8585858585858579,2.9797979797979806 -0.8585858585858579,3.080808080808082 -0.8585858585858579,3.181818181818183 -0.8585858585858579,3.2828282828282833 -0.8585858585858579,3.383838383838384 -0.8585858585858579,3.4848484848484866 -0.8585858585858579,3.5858585858585874 -0.8585858585858579,3.6868686868686877 -0.8585858585858579,3.7878787878787885 -0.8585858585858579,3.8888888888888893 -0.8585858585858579,3.989898989898992" data-type="line" data-label="" points="459.55555555555554,726.5454545454545 450.0202020202021,717.010101010101 440.4848484848485,707.4747474747475 430.949494949495,697.939393939394 430.949494949495,688.4040404040404 430.949494949495,678.8686868686868 430.949494949495,669.3333333333334 430.949494949495,659.7979797979798 430.949494949495,650.2626262626263 430.949494949495,640.7272727272727 430.949494949495,631.1919191919193 430.949494949495,621.6565656565657 430.949494949495,612.1212121212121 430.949494949495,602.5858585858587 430.949494949495,593.0505050505051 430.949494949495,583.5151515151516 430.949494949495,573.979797979798 430.949494949495,564.4444444444445 430.949494949495,554.909090909091 430.949494949495,545.3737373737374 430.949494949495,535.838383838384 430.949494949495,526.3030303030304 430.949494949495,516.7676767676768 430.949494949495,507.23232323232327 430.949494949495,497.69696969696975 430.949494949495,488.1616161616163 430.949494949495,478.6262626262627 430.949494949495,469.0909090909092 430.949494949495,459.5555555555556 430.949494949495,450.0202020202021 430.949494949495,440.4848484848486 430.949494949495,430.94949494949503 430.949494949495,421.4141414141415 430.949494949495,411.87878787878793 430.949494949495,402.3434343434344 430.949494949495,392.80808080808094 430.949494949495,383.27272727272737 430.949494949495,373.73737373737384 430.949494949495,364.2020202020203 430.949494949495,354.66666666666674 430.949494949495,345.1313131313133 430.949494949495,335.5959595959597 430.949494949495,326.06060606060623 430.949494949495,316.5252525252526 430.949494949495,306.9898989898991 430.949494949495,297.4545454545456 430.949494949495,287.91919191919203 430.949494949495,278.38383838383857 430.949494949495,268.84848484848493 430.949494949495,259.3131313131314 430.949494949495,249.77777777777794 430.949494949495,240.24242424242436 430.949494949495,230.70707070707084 430.949494949495,221.17171717171726 430.949494949495,211.63636363636374 430.949494949495,202.10101010101027 430.949494949495,192.56565656565675 430.949494949495,183.03030303030312 430.949494949495,173.4949494949496 430.949494949495,163.95959595959613 430.949494949495,154.4242424242426 430.949494949495,144.88888888888908 430.949494949495,135.35353535353545" fill="none" stroke="rgba(0,0,255,0.75)" stroke-width="11.327999999999996"/></g><g><polyline data-points="-0.8585858585858579,3.989898989898992 -0.8585858585858579,4.090909090909092 -0.8585858585858579,4.191919191919193 -0.8585858585858579,4.292929292929293 -0.8585858585858579,4.393939393939394 -0.8585858585858579,4.494949494949497 -0.8585858585858579,4.595959595959597 -0.9595959595959596,4.696969696969697 -1.0606060606060603,4.7979797979797985 -0.9595959595959596,4.898989898989901 -0.8585858585858579,5.000000000000002" data-type="line" data-label="" points="430.949494949495,135.35353535353545 430.949494949495,125.81818181818198 430.949494949495,116.28282828282846 430.949494949495,106.747474747475 430.949494949495,97.21212121212153 430.949494949495,87.67676767676778 430.949494949495,78.14141414141432 421.4141414141414,68.60606060606085 411.8787878787879,59.07070707070733 421.4141414141414,49.53535353535369 430.949494949495,40.000000000000114" fill="none" stroke="rgba(255,0,0,0.75)" stroke-width="11.327999999999996"/></g><g><polyline data-points="-5.000000000000001,-3.7878787878787876 -4.898989898989899,-3.6868686868686864 -4.7979797979797985,-3.5858585858585856 -4.696969696969697,-3.484848484848485 -4.595959595959596,-3.383838383838383 -4.494949494949496,-3.383838383838383 -4.393939393939394,-3.383838383838383 -4.292929292929293,-3.383838383838383 -4.191919191919193,-3.383838383838383 -4.090909090909091,-3.383838383838383 -3.98989898989899,-3.383838383838383 -3.8888888888888884,-3.383838383838383 -3.7878787878787876,-3.383838383838383 -3.6868686868686864,-3.383838383838383 -3.5858585858585856,-3.383838383838383 -3.484848484848485,-3.383838383838383 -3.383838383838383,-3.383838383838383 -3.2828282828282824,-3.383838383838383 -3.1818181818181817,-3.383838383838383 -3.0808080808080804,-3.383838383838383 -2.9797979797979792,-3.383838383838383 -2.8787878787878785,-3.383838383838383 -2.7777777777777777,-3.383838383838383 -2.6767676767676765,-3.383838383838383 -2.5757575757575752,-3.383838383838383 -2.474747474747474,-3.383838383838383 -2.3737373737373733,-3.383838383838383 -2.2727272727272725,-3.383838383838383 -2.1717171717171713,-3.383838383838383 -2.07070707070707,-3.383838383838383 -1.9696969696969693,-3.383838383838383 -1.8686868686868683,-3.383838383838383 -1.7676767676767675,-3.383838383838383 -1.6666666666666665,-3.383838383838383 -1.5656565656565653,-3.383838383838383 -1.4646464646464643,-3.383838383838383 -1.363636363636363,-3.383838383838383 -1.2626262626262625,-3.383838383838383" data-type="line" data-label="" points="40.00000000000006,869.5757575757575 49.53535353535369,860.0404040404039 59.07070707070716,850.5050505050505 68.60606060606068,840.969696969697 78.14141414141426,831.4343434343434 87.67676767676772,831.4343434343434 97.21212121212136,831.4343434343434 106.74747474747483,831.4343434343434 116.28282828282829,831.4343434343434 125.81818181818193,831.4343434343434 135.35353535353545,831.4343434343434 144.88888888888903,831.4343434343434 154.42424242424255,831.4343434343434 163.95959595959607,831.4343434343434 173.4949494949496,831.4343434343434 183.03030303030312,831.4343434343434 192.5656565656567,831.4343434343434 202.10101010101022,831.4343434343434 211.63636363636374,831.4343434343434 221.17171717171726,831.4343434343434 230.70707070707084,831.4343434343434 240.2424242424243,831.4343434343434 249.77777777777783,831.4343434343434 259.3131313131314,831.4343434343434 268.84848484848493,831.4343434343434 278.38383838383845,831.4343434343434 287.91919191919203,831.4343434343434 297.4545454545455,831.4343434343434 306.9898989898991,831.4343434343434 316.5252525252526,831.4343434343434 326.0606060606061,831.4343434343434 335.59595959595964,831.4343434343434 345.13131313131316,831.4343434343434 354.6666666666667,831.4343434343434 364.2020202020202,831.4343434343434 373.7373737373738,831.4343434343434 383.2727272727273,831.4343434343434 392.80808080808083,831.4343434343434" fill="none" stroke="rgba(0,0,255,0.75)" stroke-width="11.327999999999996"/></g><g><polyline data-points="-1.2626262626262625,-3.383838383838383 -1.1616161616161613,-3.383838383838383 -1.0606060606060603,-3.383838383838383 -0.9595959595959596,-3.383838383838383 -0.8585858585858579,-3.383838383838383 -0.7575757575757572,-3.383838383838383 -0.6565656565656557,-3.383838383838383 -0.555555555555555,-3.383838383838383 -0.4545454545454544,-3.383838383838383 -0.35353535353535287,-3.383838383838383 -0.2525252525252522,-3.383838383838383 -0.15151515151515066,-3.383838383838383 -0.05050505050505001,-3.383838383838383 0.050505050505051545,-3.383838383838383 0.1515151515151522,-3.383838383838383 0.2525252525252529,-3.383838383838383 0.3535353535353544,-3.383838383838383 0.4545454545454551,-3.383838383838383 0.5555555555555567,-3.383838383838383 0.6565656565656574,-3.383838383838383 0.7575757575757579,-3.383838383838383 0.8585858585858596,-3.383838383838383 0.9595959595959602,-3.383838383838383 1.0606060606060617,-3.383838383838383 1.1616161616161622,-3.383838383838383 1.262626262626263,-3.383838383838383 1.3636363636363644,-3.383838383838383 1.4646464646464652,-3.383838383838383 1.5656565656565666,-3.383838383838383 1.6666666666666674,-3.383838383838383 1.767676767676768,-3.383838383838383 1.8686868686868696,-3.383838383838383 1.9696969696969702,-3.383838383838383 2.070707070707072,-3.383838383838383 2.1717171717171726,-3.383838383838383 2.2727272727272734,-3.383838383838383 2.373737373737375,-3.383838383838383 2.4747474747474754,-3.383838383838383 2.575757575757577,-3.383838383838383 2.676767676767678,-3.383838383838383 2.7777777777777786,-3.383838383838383" data-type="line" data-label="" points="392.80808080808083,831.4343434343434 402.34343434343435,831.4343434343434 411.8787878787879,831.4343434343434 421.4141414141414,831.4343434343434 430.949494949495,831.4343434343434 440.4848484848485,831.4343434343434 450.0202020202021,831.4343434343434 459.55555555555554,831.4343434343434 469.09090909090907,831.4343434343434 478.62626262626264,831.4343434343434 488.16161616161617,831.4343434343434 497.69696969696975,831.4343434343434 507.2323232323232,831.4343434343434 516.7676767676768,831.4343434343434 526.3030303030303,831.4343434343434 535.8383838383838,831.4343434343434 545.3737373737374,831.4343434343434 554.9090909090909,831.4343434343434 564.4444444444445,831.4343434343434 573.9797979797979,831.4343434343434 583.5151515151515,831.4343434343434 593.0505050505051,831.4343434343434 602.5858585858585,831.4343434343434 612.1212121212121,831.4343434343434 621.6565656565656,831.4343434343434 631.1919191919192,831.4343434343434 640.7272727272727,831.4343434343434 650.2626262626262,831.4343434343434 659.7979797979798,831.4343434343434 669.3333333333333,831.4343434343434 678.8686868686868,831.4343434343434 688.4040404040404,831.4343434343434 697.9393939393939,831.4343434343434 707.4747474747475,831.4343434343434 717.0101010101009,831.4343434343434 726.5454545454545,831.4343434343434 736.0808080808081,831.4343434343434 745.6161616161615,831.4343434343434 755.1515151515151,831.4343434343434 764.6868686868686,831.4343434343434 774.2222222222222,831.4343434343434" fill="none" stroke="rgba(255,0,0,0.75)" stroke-width="11.327999999999996"/></g><g><polyline data-points="2.7777777777777786,-3.383838383838383 2.87878787878788,-3.383838383838383 2.9797979797979806,-3.383838383838383 3.080808080808082,-3.383838383838383 3.181818181818183,-3.383838383838383 3.2828282828282833,-3.383838383838383 3.383838383838384,-3.383838383838383 3.4848484848484866,-3.484848484848485 3.5858585858585874,-3.5858585858585856 3.6868686868686877,-3.6868686868686864 3.7878787878787885,-3.6868686868686864 3.8888888888888893,-3.7878787878787876 3.989898989898992,-3.8888888888888884 4.090909090909092,-3.7878787878787876 4.191919191919193,-3.6868686868686864 4.292929292929293,-3.5858585858585856 4.393939393939394,-3.484848484848485 4.494949494949497,-3.383838383838383 4.595959595959597,-3.2828282828282824 4.696969696969697,-3.1818181818181817 4.7979797979797985,-3.0808080808080804 4.898989898989901,-2.9797979797979792 5.000000000000002,-2.8787878787878785 5.000000000000002,-2.7777777777777777 5.000000000000002,-2.6767676767676765 5.000000000000002,-2.5757575757575752 5.000000000000002,-2.474747474747474" data-type="line" data-label="" points="774.2222222222222,831.4343434343434 783.7575757575758,831.4343434343434 793.2929292929292,831.4343434343434 802.8282828282828,831.4343434343434 812.3636363636363,831.4343434343434 821.8989898989898,831.4343434343434 831.4343434343433,831.4343434343434 840.969696969697,840.969696969697 850.5050505050505,850.5050505050505 860.0404040404039,860.0404040404039 869.5757575757575,860.0404040404039 879.111111111111,869.5757575757575 888.6464646464647,879.1111111111111 898.181818181818,869.5757575757575 907.7171717171716,860.0404040404039 917.2525252525251,850.5050505050505 926.7878787878785,840.969696969697 936.3232323232323,831.4343434343434 945.8585858585857,821.8989898989898 955.3939393939393,812.3636363636363 964.9292929292927,802.8282828282828 974.4646464646464,793.2929292929292 984,783.7575757575758 984,774.2222222222222 984,764.6868686868687 984,755.1515151515151 984,745.6161616161615" fill="none" stroke="rgba(0,0,255,0.75)" stroke-width="11.327999999999996"/></g><g><polyline data-points="-5.000000000000001,-0.7575757575757572 -4.898989898989899,-0.6565656565656557 -4.7979797979797985,-0.555555555555555 -4.696969696969697,-0.4545454545454544 -4.595959595959596,-0.35353535353535287 -4.494949494949496,-0.2525252525252522 -4.393939393939394,-0.15151515151515066 -4.292929292929293,-0.05050505050505001 -4.191919191919193,0.050505050505051545 -4.090909090909091,0.1515151515151522 -3.98989898989899,0.2525252525252529 -3.8888888888888884,0.3535353535353544 -3.7878787878787876,0.4545454545454551 -3.6868686868686864,0.5555555555555567 -3.5858585858585856,0.6565656565656574 -3.484848484848485,0.7575757575757579 -3.383838383838383,0.8585858585858596 -3.2828282828282824,0.9595959595959602 -3.1818181818181817,1.0606060606060617 -3.0808080808080804,1.1616161616161622 -2.9797979797979792,1.262626262626263 -2.8787878787878785,1.3636363636363644 -2.7777777777777777,1.4646464646464652 -2.6767676767676765,1.5656565656565666 -2.5757575757575752,1.6666666666666674 -2.474747474747474,1.767676767676768 -2.3737373737373733,1.8686868686868696 -2.2727272727272725,1.9696969696969702 -2.1717171717171713,2.070707070707072 -2.07070707070707,2.1717171717171726 -1.9696969696969693,2.2727272727272734 -1.8686868686868683,2.373737373737375 -1.7676767676767675,2.4747474747474754 -1.6666666666666665,2.575757575757577 -1.5656565656565653,2.676767676767678 -1.4646464646464643,2.7777777777777786 -1.363636363636363,2.87878787878788 -1.2626262626262625,2.87878787878788" data-type="line" data-label="" points="40.00000000000006,583.5151515151516 49.53535353535369,573.979797979798 59.07070707070716,564.4444444444445 68.60606060606068,554.909090909091 78.14141414141426,545.3737373737374 87.67676767676772,535.838383838384 97.21212121212136,526.3030303030304 106.74747474747483,516.7676767676768 116.28282828282829,507.23232323232327 125.81818181818193,497.69696969696975 135.35353535353545,488.1616161616163 144.88888888888903,478.6262626262627 154.42424242424255,469.0909090909092 163.95959595959607,459.5555555555556 173.4949494949496,450.0202020202021 183.03030303030312,440.4848484848486 192.5656565656567,430.94949494949503 202.10101010101022,421.4141414141415 211.63636363636374,411.87878787878793 221.17171717171726,402.3434343434344 230.70707070707084,392.80808080808094 240.2424242424243,383.27272727272737 249.77777777777783,373.73737373737384 259.3131313131314,364.2020202020203 268.84848484848493,354.66666666666674 278.38383838383845,345.1313131313133 287.91919191919203,335.5959595959597 297.4545454545455,326.06060606060623 306.9898989898991,316.5252525252526 316.5252525252526,306.9898989898991 326.0606060606061,297.4545454545456 335.59595959595964,287.91919191919203 345.13131313131316,278.38383838383857 354.6666666666667,268.84848484848493 364.2020202020202,259.3131313131314 373.7373737373738,249.77777777777794 383.2727272727273,240.24242424242436 392.80808080808083,240.24242424242436" fill="none" stroke="rgba(0,0,255,0.75)" stroke-width="11.327999999999996"/></g><g><polyline data-points="-1.2626262626262625,2.87878787878788 -1.1616161616161613,2.87878787878788 -1.0606060606060603,2.87878787878788 -0.9595959595959596,2.87878787878788 -0.8585858585858579,2.87878787878788 -0.7575757575757572,2.87878787878788 -0.6565656565656557,2.87878787878788 -0.555555555555555,2.87878787878788 -0.4545454545454544,2.87878787878788 -0.35353535353535287,2.87878787878788 -0.2525252525252522,2.87878787878788 -0.15151515151515066,2.87878787878788 -0.05050505050505001,2.87878787878788 0.050505050505051545,2.87878787878788 0.1515151515151522,2.87878787878788 0.2525252525252529,2.87878787878788 0.3535353535353544,2.87878787878788 0.4545454545454551,2.87878787878788 0.5555555555555567,2.87878787878788 0.6565656565656574,2.87878787878788 0.7575757575757579,2.87878787878788 0.8585858585858596,2.87878787878788 0.9595959595959602,2.87878787878788 1.0606060606060617,2.87878787878788 1.1616161616161622,2.87878787878788 1.262626262626263,2.87878787878788 1.3636363636363644,2.87878787878788 1.4646464646464652,2.87878787878788 1.5656565656565666,2.87878787878788 1.6666666666666674,2.87878787878788 1.767676767676768,2.87878787878788 1.8686868686868696,2.87878787878788 1.9696969696969702,2.87878787878788 2.070707070707072,2.87878787878788 2.1717171717171726,2.87878787878788 2.2727272727272734,2.87878787878788 2.373737373737375,2.87878787878788 2.4747474747474754,2.87878787878788 2.575757575757577,2.87878787878788 2.676767676767678,2.87878787878788 2.7777777777777786,2.87878787878788 2.87878787878788,2.87878787878788 2.9797979797979806,2.87878787878788 3.080808080808082,2.87878787878788 3.181818181818183,2.87878787878788 3.2828282828282833,2.87878787878788 3.383838383838384,2.87878787878788 3.4848484848484866,2.87878787878788 3.5858585858585874,2.87878787878788 3.6868686868686877,2.87878787878788 3.7878787878787885,2.87878787878788 3.8888888888888893,2.87878787878788" data-type="line" data-label="" points="392.80808080808083,240.24242424242436 402.34343434343435,240.24242424242436 411.8787878787879,240.24242424242436 421.4141414141414,240.24242424242436 430.949494949495,240.24242424242436 440.4848484848485,240.24242424242436 450.0202020202021,240.24242424242436 459.55555555555554,240.24242424242436 469.09090909090907,240.24242424242436 478.62626262626264,240.24242424242436 488.16161616161617,240.24242424242436 497.69696969696975,240.24242424242436 507.2323232323232,240.24242424242436 516.7676767676768,240.24242424242436 526.3030303030303,240.24242424242436 535.8383838383838,240.24242424242436 545.3737373737374,240.24242424242436 554.9090909090909,240.24242424242436 564.4444444444445,240.24242424242436 573.9797979797979,240.24242424242436 583.5151515151515,240.24242424242436 593.0505050505051,240.24242424242436 602.5858585858585,240.24242424242436 612.1212121212121,240.24242424242436 621.6565656565656,240.24242424242436 631.1919191919192,240.24242424242436 640.7272727272727,240.24242424242436 650.2626262626262,240.24242424242436 659.7979797979798,240.24242424242436 669.3333333333333,240.24242424242436 678.8686868686868,240.24242424242436 688.4040404040404,240.24242424242436 697.9393939393939,240.24242424242436 707.4747474747475,240.24242424242436 717.0101010101009,240.24242424242436 726.5454545454545,240.24242424242436 736.0808080808081,240.24242424242436 745.6161616161615,240.24242424242436 755.1515151515151,240.24242424242436 764.6868686868686,240.24242424242436 774.2222222222222,240.24242424242436 783.7575757575758,240.24242424242436 793.2929292929292,240.24242424242436 802.8282828282828,240.24242424242436 812.3636363636363,240.24242424242436 821.8989898989898,240.24242424242436 831.4343434343433,240.24242424242436 840.969696969697,240.24242424242436 850.5050505050505,240.24242424242436 860.0404040404039,240.24242424242436 869.5757575757575,240.24242424242436 879.111111111111,240.24242424242436" fill="none" stroke="rgba(255,0,0,0.75)" stroke-width="11.327999999999996"/></g><g><polyline data-points="3.8888888888888893,2.87878787878788 3.989898989898992,2.87878787878788 4.090909090909092,2.87878787878788 4.191919191919193,2.87878787878788 4.292929292929293,2.87878787878788 4.393939393939394,2.87878787878788 4.494949494949497,2.87878787878788 4.595959595959597,2.87878787878788 4.696969696969697,2.87878787878788 4.7979797979797985,2.87878787878788 4.898989898989901,2.87878787878788 5.000000000000002,2.87878787878788" data-type="line" data-label="" points="879.111111111111,240.24242424242436 888.6464646464647,240.24242424242436 898.181818181818,240.24242424242436 907.7171717171716,240.24242424242436 917.2525252525251,240.24242424242436 926.7878787878785,240.24242424242436 936.3232323232323,240.24242424242436 945.8585858585857,240.24242424242436 955.3939393939393,240.24242424242436 964.9292929292927,240.24242424242436 974.4646464646464,240.24242424242436 984,240.24242424242436" fill="none" stroke="rgba(0,0,255,0.75)" stroke-width="11.327999999999996"/></g><g><polyline data-points="-4.494949494949496,5.000000000000002 -4.393939393939394,4.898989898989901 -4.292929292929293,4.898989898989901 -4.191919191919193,4.898989898989901 -4.090909090909091,4.898989898989901 -3.98989898989899,4.898989898989901 -3.8888888888888884,4.7979797979797985 -3.7878787878787876,4.696969696969697 -3.6868686868686864,4.595959595959597 -3.5858585858585856,4.595959595959597 -3.484848484848485,4.595959595959597 -3.383838383838383,4.595959595959597 -3.2828282828282824,4.595959595959597 -3.1818181818181817,4.595959595959597 -3.0808080808080804,4.595959595959597 -2.9797979797979792,4.595959595959597 -2.8787878787878785,4.595959595959597 -2.7777777777777777,4.595959595959597 -2.6767676767676765,4.595959595959597 -2.5757575757575752,4.595959595959597 -2.474747474747474,4.595959595959597 -2.3737373737373733,4.595959595959597 -2.2727272727272725,4.595959595959597 -2.1717171717171713,4.595959595959597 -2.07070707070707,4.595959595959597 -1.9696969696969693,4.595959595959597 -1.8686868686868683,4.595959595959597 -1.7676767676767675,4.595959595959597 -1.6666666666666665,4.595959595959597 -1.5656565656565653,4.595959595959597 -1.4646464646464643,4.595959595959597 -1.363636363636363,4.595959595959597 -1.2626262626262625,4.595959595959597 -1.1616161616161613,4.595959595959597 -1.0606060606060603,4.595959595959597 -0.9595959595959596,4.595959595959597 -0.8585858585858579,4.595959595959597 -0.7575757575757572,4.595959595959597 -0.6565656565656557,4.595959595959597 -0.555555555555555,4.494949494949497 -0.4545454545454544,4.393939393939394 -0.35353535353535287,4.292929292929293 -0.2525252525252522,4.292929292929293 -0.15151515151515066,4.292929292929293 -0.05050505050505001,4.292929292929293 0.050505050505051545,4.191919191919193 0.1515151515151522,4.090909090909092 0.2525252525252529,3.989898989898992" data-type="line" data-label="" points="87.67676767676772,40.000000000000114 97.21212121212136,49.53535353535369 106.74747474747483,49.53535353535369 116.28282828282829,49.53535353535369 125.81818181818193,49.53535353535369 135.35353535353545,49.53535353535369 144.88888888888903,59.07070707070733 154.42424242424255,68.60606060606085 163.95959595959607,78.14141414141432 173.4949494949496,78.14141414141432 183.03030303030312,78.14141414141432 192.5656565656567,78.14141414141432 202.10101010101022,78.14141414141432 211.63636363636374,78.14141414141432 221.17171717171726,78.14141414141432 230.70707070707084,78.14141414141432 240.2424242424243,78.14141414141432 249.77777777777783,78.14141414141432 259.3131313131314,78.14141414141432 268.84848484848493,78.14141414141432 278.38383838383845,78.14141414141432 287.91919191919203,78.14141414141432 297.4545454545455,78.14141414141432 306.9898989898991,78.14141414141432 316.5252525252526,78.14141414141432 326.0606060606061,78.14141414141432 335.59595959595964,78.14141414141432 345.13131313131316,78.14141414141432 354.6666666666667,78.14141414141432 364.2020202020202,78.14141414141432 373.7373737373738,78.14141414141432 383.2727272727273,78.14141414141432 392.80808080808083,78.14141414141432 402.34343434343435,78.14141414141432 411.8787878787879,78.14141414141432 421.4141414141414,78.14141414141432 430.949494949495,78.14141414141432 440.4848484848485,78.14141414141432 450.0202020202021,78.14141414141432 459.55555555555554,87.67676767676778 469.09090909090907,97.21212121212153 478.62626262626264,106.747474747475 488.16161616161617,106.747474747475 497.69696969696975,106.747474747475 507.2323232323232,106.747474747475 516.7676767676768,116.28282828282846 526.3030303030303,125.81818181818198 535.8383838383838,135.35353535353545" fill="none" stroke="rgba(0,0,255,0.75)" stroke-width="11.327999999999996"/></g><g><polyline data-points="0.2525252525252529,3.989898989898992 0.3535353535353544,4.090909090909092 0.4545454545454551,4.090909090909092 0.5555555555555567,4.090909090909092 0.6565656565656574,4.090909090909092 0.7575757575757579,4.090909090909092 0.8585858585858596,4.191919191919193 0.9595959595959602,4.191919191919193 1.0606060606060617,4.292929292929293 1.1616161616161622,4.393939393939394 1.262626262626263,4.494949494949497 1.262626262626263,4.595959595959597 1.262626262626263,4.696969696969697 1.262626262626263,4.7979797979797985 1.262626262626263,4.898989898989901 1.3636363636363644,5.000000000000002" data-type="line" data-label="" points="535.8383838383838,135.35353535353545 545.3737373737374,125.81818181818198 554.9090909090909,125.81818181818198 564.4444444444445,125.81818181818198 573.9797979797979,125.81818181818198 583.5151515151515,125.81818181818198 593.0505050505051,116.28282828282846 602.5858585858585,116.28282828282846 612.1212121212121,106.747474747475 621.6565656565656,97.21212121212153 631.1919191919192,87.67676767676778 631.1919191919192,78.14141414141432 631.1919191919192,68.60606060606085 631.1919191919192,59.07070707070733 631.1919191919192,49.53535353535369 640.7272727272727,40.000000000000114" fill="none" stroke="rgba(255,0,0,0.75)" stroke-width="11.327999999999996"/></g><g><polyline data-points="-2.07070707070707,5.000000000000002 -1.9696969696969693,4.898989898989901 -1.8686868686868683,4.7979797979797985 -1.7676767676767675,4.696969696969697 -1.6666666666666665,4.595959595959597 -1.5656565656565653,4.494949494949497 -1.4646464646464643,4.393939393939394 -1.363636363636363,4.292929292929293 -1.2626262626262625,4.191919191919193 -1.1616161616161613,4.090909090909092 -1.1616161616161613,3.989898989898992 -1.0606060606060603,3.8888888888888893 -0.9595959595959596,3.7878787878787885 -0.8585858585858579,3.6868686868686877 -0.7575757575757572,3.6868686868686877 -0.6565656565656557,3.6868686868686877 -0.555555555555555,3.6868686868686877 -0.4545454545454544,3.6868686868686877 -0.35353535353535287,3.6868686868686877 -0.2525252525252522,3.6868686868686877 -0.15151515151515066,3.6868686868686877 -0.05050505050505001,3.6868686868686877 0.050505050505051545,3.6868686868686877 0.1515151515151522,3.6868686868686877 0.2525252525252529,3.6868686868686877 0.3535353535353544,3.7878787878787885 0.4545454545454551,3.8888888888888893 0.5555555555555567,3.8888888888888893 0.6565656565656574,3.8888888888888893 0.7575757575757579,3.8888888888888893 0.8585858585858596,3.8888888888888893 0.9595959595959602,3.8888888888888893 1.0606060606060617,3.989898989898992 1.1616161616161622,3.989898989898992 1.262626262626263,4.090909090909092 1.3636363636363644,3.989898989898992 1.4646464646464652,4.090909090909092 1.5656565656565666,4.191919191919193 1.6666666666666674,4.292929292929293 1.767676767676768,4.393939393939394 1.8686868686868696,4.494949494949497 1.9696969696969702,4.595959595959597 2.070707070707072,4.696969696969697 2.1717171717171726,4.7979797979797985 2.2727272727272734,4.898989898989901 2.373737373737375,5.000000000000002" data-type="line" data-label="" points="316.5252525252526,40.000000000000114 326.0606060606061,49.53535353535369 335.59595959595964,59.07070707070733 345.13131313131316,68.60606060606085 354.6666666666667,78.14141414141432 364.2020202020202,87.67676767676778 373.7373737373738,97.21212121212153 383.2727272727273,106.747474747475 392.80808080808083,116.28282828282846 402.34343434343435,125.81818181818198 402.34343434343435,135.35353535353545 411.8787878787879,144.88888888888908 421.4141414141414,154.4242424242426 430.949494949495,163.95959595959613 440.4848484848485,163.95959595959613 450.0202020202021,163.95959595959613 459.55555555555554,163.95959595959613 469.09090909090907,163.95959595959613 478.62626262626264,163.95959595959613 488.16161616161617,163.95959595959613 497.69696969696975,163.95959595959613 507.2323232323232,163.95959595959613 516.7676767676768,163.95959595959613 526.3030303030303,163.95959595959613 535.8383838383838,163.95959595959613 545.3737373737374,154.4242424242426 554.9090909090909,144.88888888888908 564.4444444444445,144.88888888888908 573.9797979797979,144.88888888888908 583.5151515151515,144.88888888888908 593.0505050505051,144.88888888888908 602.5858585858585,144.88888888888908 612.1212121212121,135.35353535353545 621.6565656565656,135.35353535353545 631.1919191919192,125.81818181818198 640.7272727272727,135.35353535353545 650.2626262626262,125.81818181818198 659.7979797979798,116.28282828282846 669.3333333333333,106.747474747475 678.8686868686868,97.21212121212153 688.4040404040404,87.67676767676778 697.9393939393939,78.14141414141432 707.4747474747475,68.60606060606085 717.0101010101009,59.07070707070733 726.5454545454545,49.53535353535369 736.0808080808081,40.000000000000114" fill="none" stroke="rgba(255,0,0,0.75)" stroke-width="11.327999999999996"/></g><g><polyline data-points="2.070707070707072,-5.000000000000001 2.1717171717171726,-5.000000000000001 2.2727272727272734,-4.898989898989899 2.373737373737375,-4.7979797979797985 2.4747474747474754,-4.696969696969697 2.575757575757577,-4.595959595959596 2.4747474747474754,-4.494949494949496 2.4747474747474754,-4.393939393939394 2.4747474747474754,-4.292929292929293 2.4747474747474754,-4.191919191919193 2.4747474747474754,-4.090909090909091 2.4747474747474754,-3.98989898989899 2.4747474747474754,-3.8888888888888884 2.4747474747474754,-3.7878787878787876 2.4747474747474754,-3.6868686868686864 2.4747474747474754,-3.5858585858585856 2.4747474747474754,-3.484848484848485 2.4747474747474754,-3.383838383838383 2.575757575757577,-3.2828282828282824 2.676767676767678,-3.1818181818181817 2.7777777777777786,-3.0808080808080804 2.87878787878788,-2.9797979797979792 2.9797979797979806,-2.8787878787878785 3.080808080808082,-2.7777777777777777 3.181818181818183,-2.6767676767676765 3.2828282828282833,-2.5757575757575752 3.383838383838384,-2.474747474747474 3.4848484848484866,-2.3737373737373733 3.5858585858585874,-2.2727272727272725 3.5858585858585874,-2.1717171717171713 3.5858585858585874,-2.07070707070707 3.5858585858585874,-1.9696969696969693 3.5858585858585874,-1.8686868686868683 3.5858585858585874,-1.7676767676767675 3.5858585858585874,-1.6666666666666665 3.5858585858585874,-1.5656565656565653 3.5858585858585874,-1.4646464646464643 3.5858585858585874,-1.363636363636363 3.5858585858585874,-1.2626262626262625 3.5858585858585874,-1.1616161616161613 3.5858585858585874,-1.0606060606060603 3.5858585858585874,-0.9595959595959596 3.5858585858585874,-0.8585858585858579 3.5858585858585874,-0.7575757575757572 3.5858585858585874,-0.6565656565656557 3.5858585858585874,-0.555555555555555 3.5858585858585874,-0.4545454545454544 3.5858585858585874,-0.35353535353535287 3.5858585858585874,-0.2525252525252522 3.5858585858585874,-0.15151515151515066 3.5858585858585874,-0.05050505050505001 3.5858585858585874,0.050505050505051545 3.5858585858585874,0.1515151515151522 3.5858585858585874,0.2525252525252529 3.5858585858585874,0.3535353535353544 3.5858585858585874,0.4545454545454551 3.5858585858585874,0.5555555555555567 3.5858585858585874,0.6565656565656574 3.5858585858585874,0.7575757575757579 3.5858585858585874,0.8585858585858596 3.5858585858585874,0.9595959595959602 3.5858585858585874,1.0606060606060617 3.5858585858585874,1.1616161616161622 3.5858585858585874,1.262626262626263 3.5858585858585874,1.3636363636363644 3.5858585858585874,1.4646464646464652 3.5858585858585874,1.5656565656565666 3.5858585858585874,1.6666666666666674 3.5858585858585874,1.767676767676768 3.5858585858585874,1.8686868686868696 3.5858585858585874,1.9696969696969702 3.5858585858585874,2.070707070707072 3.5858585858585874,2.1717171717171726 3.5858585858585874,2.2727272727272734 3.5858585858585874,2.373737373737375 3.5858585858585874,2.4747474747474754 3.5858585858585874,2.575757575757577 3.5858585858585874,2.676767676767678 3.5858585858585874,2.7777777777777786 3.5858585858585874,2.87878787878788 3.6868686868686877,2.9797979797979806 3.7878787878787885,3.080808080808082 3.8888888888888893,3.181818181818183 3.8888888888888893,3.2828282828282833 3.8888888888888893,3.383838383838384 3.8888888888888893,3.4848484848484866 3.8888888888888893,3.5858585858585874 3.8888888888888893,3.6868686868686877 3.8888888888888893,3.7878787878787885 3.989898989898992,3.8888888888888893" data-type="line" data-label="" points="707.4747474747475,984 717.0101010101009,984 726.5454545454545,974.4646464646464 736.0808080808081,964.9292929292928 745.6161616161615,955.3939393939394 755.1515151515151,945.8585858585858 745.6161616161615,936.3232323232323 745.6161616161615,926.7878787878788 745.6161616161615,917.2525252525252 745.6161616161615,907.7171717171718 745.6161616161615,898.1818181818181 745.6161616161615,888.6464646464647 745.6161616161615,879.1111111111111 745.6161616161615,869.5757575757575 745.6161616161615,860.0404040404039 745.6161616161615,850.5050505050505 745.6161616161615,840.969696969697 745.6161616161615,831.4343434343434 755.1515151515151,821.8989898989898 764.6868686868686,812.3636363636363 774.2222222222222,802.8282828282828 783.7575757575758,793.2929292929292 793.2929292929292,783.7575757575758 802.8282828282828,774.2222222222222 812.3636363636363,764.6868686868687 821.8989898989898,755.1515151515151 831.4343434343433,745.6161616161615 840.969696969697,736.0808080808081 850.5050505050505,726.5454545454545 850.5050505050505,717.010101010101 850.5050505050505,707.4747474747475 850.5050505050505,697.939393939394 850.5050505050505,688.4040404040404 850.5050505050505,678.8686868686868 850.5050505050505,669.3333333333334 850.5050505050505,659.7979797979798 850.5050505050505,650.2626262626263 850.5050505050505,640.7272727272727 850.5050505050505,631.1919191919193 850.5050505050505,621.6565656565657 850.5050505050505,612.1212121212121 850.5050505050505,602.5858585858587 850.5050505050505,593.0505050505051 850.5050505050505,583.5151515151516 850.5050505050505,573.979797979798 850.5050505050505,564.4444444444445 850.5050505050505,554.909090909091 850.5050505050505,545.3737373737374 850.5050505050505,535.838383838384 850.5050505050505,526.3030303030304 850.5050505050505,516.7676767676768 850.5050505050505,507.23232323232327 850.5050505050505,497.69696969696975 850.5050505050505,488.1616161616163 850.5050505050505,478.6262626262627 850.5050505050505,469.0909090909092 850.5050505050505,459.5555555555556 850.5050505050505,450.0202020202021 850.5050505050505,440.4848484848486 850.5050505050505,430.94949494949503 850.5050505050505,421.4141414141415 850.5050505050505,411.87878787878793 850.5050505050505,402.3434343434344 850.5050505050505,392.80808080808094 850.5050505050505,383.27272727272737 850.5050505050505,373.73737373737384 850.5050505050505,364.2020202020203 850.5050505050505,354.66666666666674 850.5050505050505,345.1313131313133 850.5050505050505,335.5959595959597 850.5050505050505,326.06060606060623 850.5050505050505,316.5252525252526 850.5050505050505,306.9898989898991 850.5050505050505,297.4545454545456 850.5050505050505,287.91919191919203 850.5050505050505,278.38383838383857 850.5050505050505,268.84848484848493 850.5050505050505,259.3131313131314 850.5050505050505,249.77777777777794 850.5050505050505,240.24242424242436 860.0404040404039,230.70707070707084 869.5757575757575,221.17171717171726 879.111111111111,211.63636363636374 879.111111111111,202.10101010101027 879.111111111111,192.56565656565675 879.111111111111,183.03030303030312 879.111111111111,173.4949494949496 879.111111111111,163.95959595959613 879.111111111111,154.4242424242426 888.6464646464647,144.88888888888908" fill="none" stroke="rgba(0,0,255,0.75)" stroke-width="11.327999999999996"/></g><g><polyline data-points="3.989898989898992,3.8888888888888893 4.090909090909092,3.989898989898992 4.191919191919193,4.090909090909092 4.292929292929293,4.191919191919193 4.393939393939394,4.292929292929293 4.494949494949497,4.393939393939394 4.595959595959597,4.494949494949497 4.696969696969697,4.595959595959597 4.7979797979797985,4.696969696969697 4.898989898989901,4.7979797979797985 4.898989898989901,4.898989898989901 5.000000000000002,5.000000000000002" data-type="line" data-label="" points="888.6464646464647,144.88888888888908 898.181818181818,135.35353535353545 907.7171717171716,125.81818181818198 917.2525252525251,116.28282828282846 926.7878787878785,106.747474747475 936.3232323232323,97.21212121212153 945.8585858585857,87.67676767676778 955.3939393939393,78.14141414141432 964.9292929292927,68.60606060606085 974.4646464646464,59.07070707070733 974.4646464646464,49.53535353535369 984,40.000000000000114" fill="none" stroke="rgba(255,0,0,0.75)" stroke-width="11.327999999999996"/></g><g><rect data-type="rect" data-label="" data-x="0" data-y="0" x="40.000000000000114" y="40.000000000000284" width="943.9999999999997" height="943.9999999999998" fill="none" stroke="gray" stroke-width="0.010593220338983056"/></g><g><rect data-type="rect" data-label="" data-x="0" data-y="0" x="40.000000000000114" y="40.000000000000284" width="943.9999999999997" height="943.9999999999998" fill="none" stroke="rgba(15, 23, 42, 0.8)" stroke-width="0.010593220338983056"/></g><circle data-type="circle" data-label="" data-x="3.5858585858585874" data-y="-3.98989898989899" cx="850.5050505050505" cy="888.6464646464647" r="14.159999999999995" fill="rgba(0,0,0,0.3)" stroke="black" stroke-width="0.010593220338983056"/><circle data-type="circle" data-label="" data-x="3.989898989898992" data-y="-3.5858585858585856" cx="888.6464646464647" cy="850.5050505050505" r="14.159999999999995" fill="rgba(0,0,0,0.3)" stroke="black" stroke-width="0.010593220338983056"/><circle data-type="circle" data-label="" data-x="-3.98989898989899" data-y="-1.8686868686868683" cx="135.35353535353545" cy="688.4040404040404" r="14.159999999999995" fill="rgba(0,0,0,0.3)" stroke="black" stroke-width="0.010593220338983056"/><circle data-type="circle" data-label="" data-x="2.2727272727272734" data-y="3.989898989898992" cx="726.5454545454545" cy="135.35353535353545" r="14.159999999999995" fill="rgba(0,0,0,0.3)" stroke="black" stroke-width="0.010593220338983056"/><circle data-type="circle" data-label="" data-x="3.080808080808082" data-y="3.989898989898992" cx="802.8282828282828" cy="135.35353535353545" r="14.159999999999995" fill="rgba(0,0,0,0.3)" stroke="black" stroke-width="0.010593220338983056"/><circle data-type="circle" data-label="" data-x="-0.555555555555555" data-y="-2.2727272727272725" cx="459.55555555555554" cy="726.5454545454545" r="14.159999999999995" fill="rgba(0,0,0,0.3)" stroke="black" stroke-width="0.010593220338983056"/><circle data-type="circle" data-label="" data-x="-0.8585858585858579" data-y="3.989898989898992" cx="430.949494949495" cy="135.35353535353545" r="14.159999999999995" fill="rgba(0,0,0,0.3)" stroke="black" stroke-width="0.010593220338983056"/><circle data-type="circle" data-label="" data-x="-1.2626262626262625" data-y="-3.383838383838383" cx="392.80808080808083" cy="831.4343434343434" r="14.159999999999995" fill="rgba(0,0,0,0.3)" stroke="black" stroke-width="0.010593220338983056"/><circle data-type="circle" data-label="" data-x="2.7777777777777786" data-y="-3.383838383838383" cx="774.2222222222222" cy="831.4343434343434" r="14.159999999999995" fill="rgba(0,0,0,0.3)" stroke="black" stroke-width="0.010593220338983056"/><circle data-type="circle" data-label="" data-x="-1.2626262626262625" data-y="2.87878787878788" cx="392.80808080808083" cy="240.24242424242436" r="14.159999999999995" fill="rgba(0,0,0,0.3)" stroke="black" stroke-width="0.010593220338983056"/><circle data-type="circle" data-label="" data-x="3.8888888888888893" data-y="2.87878787878788" cx="879.111111111111" cy="240.24242424242436" r="14.159999999999995" fill="rgba(0,0,0,0.3)" stroke="black" stroke-width="0.010593220338983056"/><circle data-type="circle" data-label="" data-x="0.2525252525252529" data-y="3.989898989898992" cx="535.8383838383838" cy="135.35353535353545" r="14.159999999999995" fill="rgba(0,0,0,0.3)" stroke="black" stroke-width="0.010593220338983056"/><circle data-type="circle" data-label="" data-x="3.989898989898992" data-y="3.8888888888888893" cx="888.6464646464647" cy="144.88888888888908" r="14.159999999999995" fill="rgba(0,0,0,0.3)" stroke="black" stroke-width="0.010593220338983056"/><g id="crosshair" style="display: none"><line id="crosshair-h" y1="0" y2="1024" stroke="#666" stroke-width="0.5"/><line id="crosshair-v" x1="0" x2="1024" stroke="#666" stroke-width="0.5"/><text id="coordinates" font-family="monospace" font-size="12" fill="#666"></text></g><script><![CDATA[
              document.currentScript.parentElement.addEventListener('mousemove', (e) => {
                const svg = e.currentTarget;
                const rect = svg.getBoundingClientRect();
                const x = e.clientX - rect.left;
                const y = e.clientY - rect.top;
                const crosshair = svg.getElementById('crosshair');
                const h = svg.getElementById('crosshair-h');
                const v = svg.getElementById('crosshair-v');
                const coords = svg.getElementById('coordinates');
                
                crosshair.style.display = 'block';
                h.setAttribute('x1', '0');
                h.setAttribute('x2', '1024');
                h.setAttribute('y1', y);
                h.setAttribute('y2', y);
                v.setAttribute('x1', x);
                v.setAttribute('x2', x);
                v.setAttribute('y1', '0');
                v.setAttribute('y2', '1024');

                // Calculate real coordinates using inverse transformation
                const matrix = {"a":94.39999999999996,"c":0,"e":511.99999999999994,"b":0,"d":-94.39999999999996,"f":512.0000000000001};
                // Manually invert and apply the affine transform
                // Since we only use translate and scale, we can directly compute:
                // x' = (x - tx) / sx
                // y' = (y - ty) / sy
                const sx = matrix.a;
                const sy = matrix.d;
                const tx = matrix.e; 
                const ty = matrix.f;
                const realPoint = {
                  x: (x - tx) / sx,
                  y: (y - ty) / sy // Flip y back since we used negative scale
                }
                
                coords.textContent = `(${realPoint.x.toFixed(2)}, ${realPoint.y.toFixed(2)})`;
                coords.setAttribute('x', (x + 5).toString());
                coords.setAttribute('y', (y - 5).toString());
              });
              document.currentScript.parentElement.addEventListener('mouseleave', () => {
                document.currentScript.parentElement.getElementById('crosshair').style.display = 'none';
              });
            ]]></script></svg>