<svg width="1024" height="1024" viewBox="0 0 1024 1024" xmlns="http://www.w3.org/2000/svg"><rect width="100%" height="100%" fill="white"/><g><circle data-type="point" data-label="conn_000" data-x="2.3000000000000003" data-y="5" cx="729.1199999999999" cy="40.000000000000284" r="14.16" fill="red"/></g><g><circle data-type="point" data-label="conn_000" data-x="-1.82" data-y="-5" cx="340.192" cy="984" r="14.16" fill="blue"/></g><g><circle data-type="point" data-label="conn_001" data-x="-5" data-y="-1.3" cx="40.000000000000114" cy="634.72" r="14.16" fill="blue"/></g><g><circle data-type="point" data-label="conn_001" data-x="5" data-y="3.62" cx="983.9999999999998" cy="170.27200000000022" r="14.16" fill="red"/></g><g><circle data-type="point" data-label="conn_002" data-x="-5" data-y="-1.32" cx="40.000000000000114" cy="636.6080000000001" r="14.16" fill="blue"/></g><g><circle data-type="point" data-label="conn_002" data-x="5" data-y="1.86" cx="983.9999999999998" cy="336.41600000000017" r="14.16" fill="red"/></g><g><circle data-type="point" data-label="conn_003" data-x="-4.12" data-y="5" cx="123.07200000000006" cy="40.000000000000284" r="14.16" fill="blue"/></g><g><circle data-type="point" data-label="conn_003" data-x="5" data-y="-3.56" cx="983.9999999999998" cy="848.064" r="14.16" fill="blue"/></g><g><circle data-type="point" data-label="conn_004" data-x="5" data-y="0.62" cx="983.9999999999998" cy="453.47200000000015" r="14.16" fill="red"/></g><g><circle data-type="point" data-label="conn_004" data-x="-5" data-y="2.32" cx="40.000000000000114" cy="292.9920000000002" r="14.16" fill="red"/></g><g><polyline data-points="5.000000000000002,0.6565656565656574 4.898989898989901,0.7575757575757579 4.7979797979797985,0.8585858585858596 4.696969696969697,0.9595959595959602 4.595959595959597,1.0606060606060617 4.494949494949497,1.1616161616161622 4.393939393939394,1.262626262626263 4.292929292929293,1.3636363636363644 4.191919191919193,1.4646464646464652 4.090909090909092,1.5656565656565666 3.989898989898992,1.5656565656565666 3.8888888888888893,1.6666666666666674 3.7878787878787885,1.767676767676768 3.6868686868686877,1.8686868686868696 3.5858585858585874,1.9696969696969702 3.4848484848484866,2.070707070707072 3.383838383838384,2.1717171717171726 3.2828282828282833,2.2727272727272734 3.181818181818183,2.373737373737375 3.080808080808082,2.373737373737375 2.9797979797979806,2.373737373737375 2.87878787878788,2.373737373737375 2.7777777777777786,2.373737373737375 2.676767676767678,2.373737373737375 2.575757575757577,2.373737373737375 2.4747474747474754,2.373737373737375 2.373737373737375,2.373737373737375 2.2727272727272734,2.373737373737375 2.1717171717171726,2.373737373737375 2.070707070707072,2.373737373737375 1.9696969696969702,2.373737373737375 1.8686868686868696,2.373737373737375 1.767676767676768,2.373737373737375 1.6666666666666674,2.373737373737375 1.5656565656565666,2.373737373737375 1.4646464646464652,2.373737373737375 1.3636363636363644,2.373737373737375 1.262626262626263,2.373737373737375 1.1616161616161622,2.373737373737375 1.0606060606060617,2.373737373737375 0.9595959595959602,2.373737373737375 0.8585858585858596,2.373737373737375 0.7575757575757579,2.373737373737375 0.6565656565656574,2.373737373737375 0.5555555555555567,2.373737373737375 0.4545454545454551,2.373737373737375 0.3535353535353544,2.373737373737375 0.2525252525252529,2.373737373737375 0.1515151515151522,2.373737373737375 0.050505050505051545,2.373737373737375 -0.05050505050505001,2.373737373737375 -0.15151515151515066,2.373737373737375 -0.2525252525252522,2.373737373737375 -0.35353535353535287,2.373737373737375 -0.4545454545454544,2.373737373737375 -0.555555555555555,2.373737373737375 -0.6565656565656557,2.373737373737375 -0.7575757575757572,2.373737373737375 -0.8585858585858579,2.373737373737375 -0.9595959595959596,2.373737373737375 -1.0606060606060603,2.373737373737375 -1.1616161616161613,2.373737373737375 -1.2626262626262625,2.373737373737375 -1.363636363636363,2.373737373737375 -1.4646464646464643,2.373737373737375 -1.5656565656565653,2.373737373737375 -1.6666666666666665,2.373737373737375 -1.7676767676767675,2.373737373737375 -1.8686868686868683,2.373737373737375 -1.9696969696969693,2.373737373737375 -2.07070707070707,2.373737373737375 -2.1717171717171713,2.373737373737375 -2.2727272727272725,2.373737373737375 -2.3737373737373733,2.373737373737375 -2.474747474747474,2.373737373737375 -2.5757575757575752,2.373737373737375 -2.6767676767676765,2.373737373737375 -2.7777777777777777,2.373737373737375 -2.8787878787878785,2.373737373737375 -2.9797979797979792,2.373737373737375 -3.0808080808080804,2.373737373737375 -3.1818181818181817,2.373737373737375 -3.2828282828282824,2.373737373737375 -3.383838383838383,2.373737373737375 -3.484848484848485,2.373737373737375 -3.5858585858585856,2.373737373737375 -3.6868686868686864,2.373737373737375 -3.7878787878787876,2.373737373737375 -3.8888888888888884,2.373737373737375 -3.98989898989899,2.373737373737375 -4.090909090909091,2.373737373737375 -4.191919191919193,2.373737373737375 -4.292929292929293,2.373737373737375 -4.393939393939394,2.373737373737375 -4.494949494949496,2.373737373737375 -4.595959595959596,2.373737373737375 -4.696969696969697,2.373737373737375 -4.7979797979797985,2.373737373737375 -4.898989898989899,2.373737373737375 -5.000000000000001,2.373737373737375" data-type="line" data-label="" points="984,450.0202020202021 974.4646464646464,440.4848484848486 964.9292929292927,430.94949494949503 955.3939393939393,421.4141414141415 945.8585858585857,411.87878787878793 936.3232323232323,402.3434343434344 926.7878787878785,392.80808080808094 917.2525252525251,383.27272727272737 907.7171717171716,373.73737373737384 898.181818181818,364.2020202020203 888.6464646464647,364.2020202020203 879.111111111111,354.66666666666674 869.5757575757575,345.1313131313133 860.0404040404039,335.5959595959597 850.5050505050505,326.06060606060623 840.969696969697,316.5252525252526 831.4343434343433,306.9898989898991 821.8989898989898,297.4545454545456 812.3636363636363,287.91919191919203 802.8282828282828,287.91919191919203 793.2929292929292,287.91919191919203 783.7575757575758,287.91919191919203 774.2222222222222,287.91919191919203 764.6868686868686,287.91919191919203 755.1515151515151,287.91919191919203 745.6161616161615,287.91919191919203 736.0808080808081,287.91919191919203 726.5454545454545,287.91919191919203 717.0101010101009,287.91919191919203 707.4747474747475,287.91919191919203 697.9393939393939,287.91919191919203 688.4040404040404,287.91919191919203 678.8686868686868,287.91919191919203 669.3333333333333,287.91919191919203 659.7979797979798,287.91919191919203 650.2626262626262,287.91919191919203 640.7272727272727,287.91919191919203 631.1919191919192,287.91919191919203 621.6565656565656,287.91919191919203 612.1212121212121,287.91919191919203 602.5858585858585,287.91919191919203 593.0505050505051,287.91919191919203 583.5151515151515,287.91919191919203 573.9797979797979,287.91919191919203 564.4444444444445,287.91919191919203 554.9090909090909,287.91919191919203 545.3737373737374,287.91919191919203 535.8383838383838,287.91919191919203 526.3030303030303,287.91919191919203 516.7676767676768,287.91919191919203 507.2323232323232,287.91919191919203 497.69696969696975,287.91919191919203 488.16161616161617,287.91919191919203 478.62626262626264,287.91919191919203 469.09090909090907,287.91919191919203 459.55555555555554,287.91919191919203 450.0202020202021,287.91919191919203 440.4848484848485,287.91919191919203 430.949494949495,287.91919191919203 421.4141414141414,287.91919191919203 411.8787878787879,287.91919191919203 402.34343434343435,287.91919191919203 392.80808080808083,287.91919191919203 383.2727272727273,287.91919191919203 373.7373737373738,287.91919191919203 364.2020202020202,287.91919191919203 354.6666666666667,287.91919191919203 345.13131313131316,287.91919191919203 335.59595959595964,287.91919191919203 326.0606060606061,287.91919191919203 316.5252525252526,287.91919191919203 306.9898989898991,287.91919191919203 297.4545454545455,287.91919191919203 287.91919191919203,287.91919191919203 278.38383838383845,287.91919191919203 268.84848484848493,287.91919191919203 259.3131313131314,287.91919191919203 249.77777777777783,287.91919191919203 240.2424242424243,287.91919191919203 230.70707070707084,287.91919191919203 221.17171717171726,287.91919191919203 211.63636363636374,287.91919191919203 202.10101010101022,287.91919191919203 192.5656565656567,287.91919191919203 183.03030303030312,287.91919191919203 173.4949494949496,287.91919191919203 163.95959595959607,287.91919191919203 154.42424242424255,287.91919191919203 144.88888888888903,287.91919191919203 135.35353535353545,287.91919191919203 125.81818181818193,287.91919191919203 116.28282828282829,287.91919191919203 106.74747474747483,287.91919191919203 97.21212121212136,287.91919191919203 87.67676767676772,287.91919191919203 78.14141414141426,287.91919191919203 68.60606060606068,287.91919191919203 59.07070707070716,287.91919191919203 49.53535353535369,287.91919191919203 40.00000000000006,287.91919191919203" fill="none" stroke="rgba(255,0,0,0.75)" stroke-width="11.327999999999996"/></g><g><polyline data-points="2.373737373737375,5.000000000000002 2.2727272727272734,4.898989898989901 2.1717171717171726,4.7979797979797985 2.070707070707072,4.696969696969697 1.9696969696969702,4.595959595959597 1.8686868686868696,4.494949494949497 1.767676767676768,4.393939393939394 1.6666666666666674,4.292929292929293 1.5656565656565666,4.191919191919193 1.4646464646464652,4.090909090909092 1.3636363636363644,3.989898989898992 1.262626262626263,3.8888888888888893 1.1616161616161622,3.7878787878787885 1.0606060606060617,3.6868686868686877 0.9595959595959602,3.5858585858585874 0.8585858585858596,3.4848484848484866 0.7575757575757579,3.383838383838384 0.6565656565656574,3.2828282828282833 0.5555555555555567,3.181818181818183 0.4545454545454551,3.080808080808082 0.3535353535353544,2.9797979797979806 0.2525252525252529,2.87878787878788 0.1515151515151522,2.7777777777777786 0.050505050505051545,2.7777777777777786 -0.05050505050505001,2.7777777777777786 -0.15151515151515066,2.7777777777777786 -0.2525252525252522,2.7777777777777786 -0.35353535353535287,2.7777777777777786 -0.4545454545454544,2.7777777777777786 -0.555555555555555,2.7777777777777786 -0.6565656565656557,2.7777777777777786 -0.7575757575757572,2.7777777777777786 -0.8585858585858579,2.7777777777777786 -0.9595959595959596,2.7777777777777786 -1.0606060606060603,2.7777777777777786 -1.1616161616161613,2.7777777777777786 -1.2626262626262625,2.7777777777777786 -1.363636363636363,2.7777777777777786 -1.4646464646464643,2.7777777777777786" data-type="line" data-label="" points="736.0808080808081,40.000000000000114 726.5454545454545,49.53535353535369 717.0101010101009,59.07070707070733 707.4747474747475,68.60606060606085 697.9393939393939,78.14141414141432 688.4040404040404,87.67676767676778 678.8686868686868,97.21212121212153 669.3333333333333,106.747474747475 659.7979797979798,116.28282828282846 650.2626262626262,125.81818181818198 640.7272727272727,135.35353535353545 631.1919191919192,144.88888888888908 621.6565656565656,154.4242424242426 612.1212121212121,163.95959595959613 602.5858585858585,173.4949494949496 593.0505050505051,183.03030303030312 583.5151515151515,192.56565656565675 573.9797979797979,202.10101010101027 564.4444444444445,211.63636363636374 554.9090909090909,221.17171717171726 545.3737373737374,230.70707070707084 535.8383838383838,240.24242424242436 526.3030303030303,249.77777777777794 516.7676767676768,249.77777777777794 507.2323232323232,249.77777777777794 497.69696969696975,249.77777777777794 488.16161616161617,249.77777777777794 478.62626262626264,249.77777777777794 469.09090909090907,249.77777777777794 459.55555555555554,249.77777777777794 450.0202020202021,249.77777777777794 440.4848484848485,249.77777777777794 430.949494949495,249.77777777777794 421.4141414141414,249.77777777777794 411.8787878787879,249.77777777777794 402.34343434343435,249.77777777777794 392.80808080808083,249.77777777777794 383.2727272727273,249.77777777777794 373.7373737373738,249.77777777777794" fill="none" stroke="rgba(255,0,0,0.75)" stroke-width="11.327999999999996"/></g><g><polyline data-points="-1.4646464646464643,2.7777777777777786 -1.5656565656565653,2.676767676767678 -1.6666666666666665,2.575757575757577 -1.7676767676767675,2.4747474747474754 -1.8686868686868683,2.373737373737375 -1.8686868686868683,2.2727272727272734 -1.9696969696969693,2.1717171717171726 -2.07070707070707,2.070707070707072 -2.1717171717171713,1.9696969696969702" data-type="line" data-label="" points="373.7373737373738,249.77777777777794 364.2020202020202,259.3131313131314 354.6666666666667,268.84848484848493 345.13131313131316,278.38383838383857 335.59595959595964,287.91919191919203 335.59595959595964,297.4545454545456 326.0606060606061,306.9898989898991 316.5252525252526,316.5252525252526 306.9898989898991,326.06060606060623" fill="none" stroke="rgba(0,0,255,0.75)" stroke-width="11.327999999999996"/></g><g><polyline data-points="-2.1717171717171713,1.9696969696969702 -2.07070707070707,1.8686868686868696 -1.9696969696969693,1.767676767676768 -1.8686868686868683,1.6666666666666674 -1.8686868686868683,1.5656565656565666 -1.8686868686868683,1.4646464646464652 -1.8686868686868683,1.3636363636363644 -1.8686868686868683,1.262626262626263 -1.8686868686868683,1.1616161616161622 -1.8686868686868683,1.0606060606060617 -1.8686868686868683,0.9595959595959602 -1.8686868686868683,0.8585858585858596 -1.8686868686868683,0.7575757575757579 -1.8686868686868683,0.6565656565656574 -1.8686868686868683,0.5555555555555567 -1.8686868686868683,0.4545454545454551 -1.8686868686868683,0.3535353535353544 -1.8686868686868683,0.2525252525252529 -1.8686868686868683,0.1515151515151522 -1.8686868686868683,0.050505050505051545 -1.8686868686868683,-0.05050505050505001 -1.8686868686868683,-0.15151515151515066 -1.8686868686868683,-0.2525252525252522 -1.8686868686868683,-0.35353535353535287 -1.8686868686868683,-0.4545454545454544 -1.8686868686868683,-0.555555555555555 -1.8686868686868683,-0.6565656565656557 -1.8686868686868683,-0.7575757575757572 -1.8686868686868683,-0.8585858585858579 -1.8686868686868683,-0.9595959595959596 -1.8686868686868683,-1.0606060606060603 -1.8686868686868683,-1.1616161616161613 -1.8686868686868683,-1.2626262626262625 -1.8686868686868683,-1.363636363636363 -1.8686868686868683,-1.4646464646464643 -1.8686868686868683,-1.5656565656565653 -1.8686868686868683,-1.6666666666666665 -1.8686868686868683,-1.7676767676767675 -1.8686868686868683,-1.8686868686868683 -1.8686868686868683,-1.9696969696969693 -1.8686868686868683,-2.07070707070707 -1.8686868686868683,-2.1717171717171713 -1.8686868686868683,-2.2727272727272725 -1.8686868686868683,-2.3737373737373733 -1.8686868686868683,-2.474747474747474 -1.8686868686868683,-2.5757575757575752 -1.8686868686868683,-2.6767676767676765 -1.8686868686868683,-2.7777777777777777 -1.8686868686868683,-2.8787878787878785 -1.8686868686868683,-2.9797979797979792 -1.8686868686868683,-3.0808080808080804 -1.8686868686868683,-3.1818181818181817 -1.8686868686868683,-3.2828282828282824 -1.8686868686868683,-3.383838383838383 -1.8686868686868683,-3.484848484848485 -1.8686868686868683,-3.5858585858585856 -1.8686868686868683,-3.6868686868686864 -1.8686868686868683,-3.7878787878787876 -1.8686868686868683,-3.8888888888888884 -1.8686868686868683,-3.98989898989899" data-type="line" data-label="" points="306.9898989898991,326.06060606060623 316.5252525252526,335.5959595959597 326.0606060606061,345.1313131313133 335.59595959595964,354.66666666666674 335.59595959595964,364.2020202020203 335.59595959595964,373.73737373737384 335.59595959595964,383.27272727272737 335.59595959595964,392.80808080808094 335.59595959595964,402.3434343434344 335.59595959595964,411.87878787878793 335.59595959595964,421.4141414141415 335.59595959595964,430.94949494949503 335.59595959595964,440.4848484848486 335.59595959595964,450.0202020202021 335.59595959595964,459.5555555555556 335.59595959595964,469.0909090909092 335.59595959595964,478.6262626262627 335.59595959595964,488.1616161616163 335.59595959595964,497.69696969696975 335.59595959595964,507.23232323232327 335.59595959595964,516.7676767676768 335.59595959595964,526.3030303030304 335.59595959595964,535.838383838384 335.59595959595964,545.3737373737374 335.59595959595964,554.909090909091 335.59595959595964,564.4444444444445 335.59595959595964,573.979797979798 335.59595959595964,583.5151515151516 335.59595959595964,593.0505050505051 335.59595959595964,602.5858585858587 335.59595959595964,612.1212121212121 335.59595959595964,621.6565656565657 335.59595959595964,631.1919191919193 335.59595959595964,640.7272727272727 335.59595959595964,650.2626262626263 335.59595959595964,659.7979797979798 335.59595959595964,669.3333333333334 335.59595959595964,678.8686868686868 335.59595959595964,688.4040404040404 335.59595959595964,697.939393939394 335.59595959595964,707.4747474747475 335.59595959595964,717.010101010101 335.59595959595964,726.5454545454545 335.59595959595964,736.0808080808081 335.59595959595964,745.6161616161615 335.59595959595964,755.1515151515151 335.59595959595964,764.6868686868687 335.59595959595964,774.2222222222222 335.59595959595964,783.7575757575758 335.59595959595964,793.2929292929292 335.59595959595964,802.8282828282828 335.59595959595964,812.3636363636363 335.59595959595964,821.8989898989898 335.59595959595964,831.4343434343434 335.59595959595964,840.969696969697 335.59595959595964,850.5050505050505 335.59595959595964,860.0404040404039 335.59595959595964,869.5757575757575 335.59595959595964,879.1111111111111 335.59595959595964,888.6464646464647" fill="none" stroke="rgba(255,0,0,0.75)" stroke-width="11.327999999999996"/></g><g><polyline data-points="-1.8686868686868683,-3.98989898989899 -1.8686868686868683,-4.090909090909091 -1.8686868686868683,-4.191919191919193 -1.8686868686868683,-4.292929292929293 -1.8686868686868683,-4.393939393939394 -1.8686868686868683,-4.494949494949496 -1.8686868686868683,-4.595959595959596 -1.8686868686868683,-4.696969696969697 -1.8686868686868683,-4.7979797979797985 -1.8686868686868683,-4.898989898989899 -1.8686868686868683,-5.000000000000001" data-type="line" data-label="" points="335.59595959595964,888.6464646464647 335.59595959595964,898.1818181818181 335.59595959595964,907.7171717171718 335.59595959595964,917.2525252525252 335.59595959595964,926.7878787878788 335.59595959595964,936.3232323232323 335.59595959595964,945.8585858585858 335.59595959595964,955.3939393939394 335.59595959595964,964.9292929292928 335.59595959595964,974.4646464646464 335.59595959595964,984" fill="none" stroke="rgba(0,0,255,0.75)" stroke-width="11.327999999999996"/></g><g><polyline data-points="-4.191919191919193,5.000000000000002 -4.090909090909091,4.898989898989901 -3.98989898989899,4.7979797979797985 -3.8888888888888884,4.696969696969697 -3.7878787878787876,4.595959595959597 -3.6868686868686864,4.494949494949497 -3.5858585858585856,4.393939393939394 -3.484848484848485,4.292929292929293 -3.383838383838383,4.191919191919193 -3.2828282828282824,4.090909090909092 -3.1818181818181817,3.989898989898992 -3.0808080808080804,3.8888888888888893 -2.9797979797979792,3.7878787878787885 -2.8787878787878785,3.6868686868686877 -2.7777777777777777,3.5858585858585874 -2.6767676767676765,3.4848484848484866 -2.5757575757575752,3.383838383838384 -2.474747474747474,3.2828282828282833 -2.3737373737373733,3.181818181818183 -2.2727272727272725,3.080808080808082 -2.1717171717171713,3.080808080808082 -2.07070707070707,3.080808080808082 -1.9696969696969693,3.080808080808082 -1.8686868686868683,3.080808080808082 -1.7676767676767675,3.080808080808082 -1.6666666666666665,3.080808080808082 -1.5656565656565653,3.080808080808082 -1.4646464646464643,3.080808080808082 -1.363636363636363,2.9797979797979806 -1.2626262626262625,2.87878787878788 -1.1616161616161613,2.7777777777777786 -1.0606060606060603,2.676767676767678 -0.9595959595959596,2.575757575757577 -0.8585858585858579,2.4747474747474754 -0.7575757575757572,2.373737373737375 -0.6565656565656557,2.2727272727272734 -0.555555555555555,2.1717171717171726 -0.4545454545454544,2.1717171717171726 -0.35353535353535287,2.1717171717171726 -0.2525252525252522,2.1717171717171726 -0.15151515151515066,2.1717171717171726 -0.05050505050505001,2.1717171717171726 0.050505050505051545,2.1717171717171726 0.1515151515151522,2.1717171717171726 0.2525252525252529,2.1717171717171726 0.3535353535353544,2.1717171717171726 0.4545454545454551,2.1717171717171726 0.5555555555555567,2.1717171717171726 0.6565656565656574,2.1717171717171726 0.7575757575757579,2.1717171717171726 0.8585858585858596,2.1717171717171726 0.9595959595959602,2.1717171717171726 1.0606060606060617,2.1717171717171726 1.1616161616161622,2.1717171717171726 1.262626262626263,2.1717171717171726 1.3636363636363644,2.1717171717171726 1.4646464646464652,2.1717171717171726 1.5656565656565666,2.1717171717171726 1.6666666666666674,2.1717171717171726 1.767676767676768,2.1717171717171726 1.8686868686868696,2.1717171717171726 1.9696969696969702,2.1717171717171726 2.070707070707072,2.1717171717171726 2.1717171717171726,2.1717171717171726 2.2727272727272734,2.1717171717171726 2.373737373737375,2.1717171717171726 2.4747474747474754,2.1717171717171726 2.575757575757577,2.1717171717171726 2.676767676767678,2.1717171717171726 2.7777777777777786,2.1717171717171726 2.87878787878788,2.1717171717171726 2.9797979797979806,2.1717171717171726 3.080808080808082,2.1717171717171726 3.181818181818183,2.1717171717171726 3.2828282828282833,2.1717171717171726 3.383838383838384,2.1717171717171726 3.4848484848484866,2.1717171717171726 3.5858585858585874,2.1717171717171726 3.6868686868686877,2.1717171717171726 3.7878787878787885,2.1717171717171726 3.8888888888888893,2.1717171717171726 3.989898989898992,2.1717171717171726 4.090909090909092,2.070707070707072 4.191919191919193,1.9696969696969702 4.292929292929293,1.8686868686868696 4.393939393939394,1.767676767676768 4.494949494949497,1.6666666666666674 4.595959595959597,1.5656565656565666 4.696969696969697,1.4646464646464652 4.7979797979797985,1.3636363636363644 4.898989898989901,1.262626262626263 5.000000000000002,1.1616161616161622 5.000000000000002,1.0606060606060617 5.000000000000002,0.9595959595959602 5.000000000000002,0.8585858585858596 5.000000000000002,0.7575757575757579 5.000000000000002,0.6565656565656574 5.000000000000002,0.5555555555555567 5.000000000000002,0.4545454545454551 5.000000000000002,0.3535353535353544 5.000000000000002,0.2525252525252529 5.000000000000002,0.1515151515151522 5.000000000000002,0.050505050505051545 5.000000000000002,-0.05050505050505001 5.000000000000002,-0.15151515151515066 5.000000000000002,-0.2525252525252522 5.000000000000002,-0.35353535353535287 5.000000000000002,-0.4545454545454544 5.000000000000002,-0.555555555555555 5.000000000000002,-0.6565656565656557 5.000000000000002,-0.7575757575757572 5.000000000000002,-0.8585858585858579 5.000000000000002,-0.9595959595959596 5.000000000000002,-1.0606060606060603 5.000000000000002,-1.1616161616161613 5.000000000000002,-1.2626262626262625 5.000000000000002,-1.363636363636363 5.000000000000002,-1.4646464646464643 5.000000000000002,-1.5656565656565653 5.000000000000002,-1.6666666666666665 5.000000000000002,-1.7676767676767675 5.000000000000002,-1.8686868686868683 5.000000000000002,-1.9696969696969693 5.000000000000002,-2.07070707070707 5.000000000000002,-2.1717171717171713 5.000000000000002,-2.2727272727272725 5.000000000000002,-2.3737373737373733 5.000000000000002,-2.474747474747474 5.000000000000002,-2.5757575757575752 5.000000000000002,-2.6767676767676765 5.000000000000002,-2.7777777777777777 5.000000000000002,-2.8787878787878785 5.000000000000002,-2.9797979797979792 5.000000000000002,-3.0808080808080804 5.000000000000002,-3.1818181818181817 5.000000000000002,-3.2828282828282824 5.000000000000002,-3.383838383838383 5.000000000000002,-3.484848484848485 5.000000000000002,-3.5858585858585856" data-type="line" data-label="" points="116.28282828282829,40.000000000000114 125.81818181818193,49.53535353535369 135.35353535353545,59.07070707070733 144.88888888888903,68.60606060606085 154.42424242424255,78.14141414141432 163.95959595959607,87.67676767676778 173.4949494949496,97.21212121212153 183.03030303030312,106.747474747475 192.5656565656567,116.28282828282846 202.10101010101022,125.81818181818198 211.63636363636374,135.35353535353545 221.17171717171726,144.88888888888908 230.70707070707084,154.4242424242426 240.2424242424243,163.95959595959613 249.77777777777783,173.4949494949496 259.3131313131314,183.03030303030312 268.84848484848493,192.56565656565675 278.38383838383845,202.10101010101027 287.91919191919203,211.63636363636374 297.4545454545455,221.17171717171726 306.9898989898991,221.17171717171726 316.5252525252526,221.17171717171726 326.0606060606061,221.17171717171726 335.59595959595964,221.17171717171726 345.13131313131316,221.17171717171726 354.6666666666667,221.17171717171726 364.2020202020202,221.17171717171726 373.7373737373738,221.17171717171726 383.2727272727273,230.70707070707084 392.80808080808083,240.24242424242436 402.34343434343435,249.77777777777794 411.8787878787879,259.3131313131314 421.4141414141414,268.84848484848493 430.949494949495,278.38383838383857 440.4848484848485,287.91919191919203 450.0202020202021,297.4545454545456 459.55555555555554,306.9898989898991 469.09090909090907,306.9898989898991 478.62626262626264,306.9898989898991 488.16161616161617,306.9898989898991 497.69696969696975,306.9898989898991 507.2323232323232,306.9898989898991 516.7676767676768,306.9898989898991 526.3030303030303,306.9898989898991 535.8383838383838,306.9898989898991 545.3737373737374,306.9898989898991 554.9090909090909,306.9898989898991 564.4444444444445,306.9898989898991 573.9797979797979,306.9898989898991 583.5151515151515,306.9898989898991 593.0505050505051,306.9898989898991 602.5858585858585,306.9898989898991 612.1212121212121,306.9898989898991 621.6565656565656,306.9898989898991 631.1919191919192,306.9898989898991 640.7272727272727,306.9898989898991 650.2626262626262,306.9898989898991 659.7979797979798,306.9898989898991 669.3333333333333,306.9898989898991 678.8686868686868,306.9898989898991 688.4040404040404,306.9898989898991 697.9393939393939,306.9898989898991 707.4747474747475,306.9898989898991 717.0101010101009,306.9898989898991 726.5454545454545,306.9898989898991 736.0808080808081,306.9898989898991 745.6161616161615,306.9898989898991 755.1515151515151,306.9898989898991 764.6868686868686,306.9898989898991 774.2222222222222,306.9898989898991 783.7575757575758,306.9898989898991 793.2929292929292,306.9898989898991 802.8282828282828,306.9898989898991 812.3636363636363,306.9898989898991 821.8989898989898,306.9898989898991 831.4343434343433,306.9898989898991 840.969696969697,306.9898989898991 850.5050505050505,306.9898989898991 860.0404040404039,306.9898989898991 869.5757575757575,306.9898989898991 879.111111111111,306.9898989898991 888.6464646464647,306.9898989898991 898.181818181818,316.5252525252526 907.7171717171716,326.06060606060623 917.2525252525251,335.5959595959597 926.7878787878785,345.1313131313133 936.3232323232323,354.66666666666674 945.8585858585857,364.2020202020203 955.3939393939393,373.73737373737384 964.9292929292927,383.27272727272737 974.4646464646464,392.80808080808094 984,402.3434343434344 984,411.87878787878793 984,421.4141414141415 984,430.94949494949503 984,440.4848484848486 984,450.0202020202021 984,459.5555555555556 984,469.0909090909092 984,478.6262626262627 984,488.1616161616163 984,497.69696969696975 984,507.23232323232327 984,516.7676767676768 984,526.3030303030304 984,535.838383838384 984,545.3737373737374 984,554.909090909091 984,564.4444444444445 984,573.979797979798 984,583.5151515151516 984,593.0505050505051 984,602.5858585858587 984,612.1212121212121 984,621.6565656565657 984,631.1919191919193 984,640.7272727272727 984,650.2626262626263 984,659.7979797979798 984,669.3333333333334 984,678.8686868686868 984,688.4040404040404 984,697.939393939394 984,707.4747474747475 984,717.010101010101 984,726.5454545454545 984,736.0808080808081 984,745.6161616161615 984,755.1515151515151 984,764.6868686868687 984,774.2222222222222 984,783.7575757575758 984,793.2929292929292 984,802.8282828282828 984,812.3636363636363 984,821.8989898989898 984,831.4343434343434 984,840.969696969697 984,850.5050505050505" fill="none" stroke="rgba(0,0,255,0.75)" stroke-width="11.327999999999996"/></g><g><polyline data-points="-5.000000000000001,-1.2626262626262625 -5.000000000000001,-1.1616161616161613 -5.000000000000001,-1.0606060606060603 -4.898989898989899,-0.9595959595959596 -4.7979797979797985,-0.8585858585858579 -4.696969696969697,-0.7575757575757572 -4.595959595959596,-0.6565656565656557 -4.494949494949496,-0.555555555555555 -4.393939393939394,-0.4545454545454544 -4.292929292929293,-0.35353535353535287 -4.191919191919193,-0.2525252525252522 -4.090909090909091,-0.15151515151515066 -3.98989898989899,-0.05050505050505001 -3.8888888888888884,0.050505050505051545 -3.7878787878787876,0.1515151515151522 -3.6868686868686864,0.2525252525252529 -3.5858585858585856,0.3535353535353544 -3.484848484848485,0.4545454545454551 -3.383838383838383,0.5555555555555567 -3.2828282828282824,0.6565656565656574 -3.1818181818181817,0.7575757575757579 -3.0808080808080804,0.8585858585858596 -2.9797979797979792,0.9595959595959602 -2.8787878787878785,1.0606060606060617 -2.7777777777777777,1.1616161616161622 -2.6767676767676765,1.262626262626263 -2.5757575757575752,1.3636363636363644 -2.474747474747474,1.4646464646464652 -2.474747474747474,1.5656565656565666 -2.474747474747474,1.6666666666666674 -2.474747474747474,1.767676767676768 -2.474747474747474,1.8686868686868696 -2.474747474747474,1.9696969696969702 -2.474747474747474,2.070707070707072 -2.474747474747474,2.1717171717171726 -2.474747474747474,2.2727272727272734 -2.474747474747474,2.373737373737375 -2.474747474747474,2.4747474747474754 -2.474747474747474,2.575757575757577 -2.474747474747474,2.676767676767678 -2.474747474747474,2.7777777777777786" data-type="line" data-label="" points="40.00000000000006,631.1919191919193 40.00000000000006,621.6565656565657 40.00000000000006,612.1212121212121 49.53535353535369,602.5858585858587 59.07070707070716,593.0505050505051 68.60606060606068,583.5151515151516 78.14141414141426,573.979797979798 87.67676767676772,564.4444444444445 97.21212121212136,554.909090909091 106.74747474747483,545.3737373737374 116.28282828282829,535.838383838384 125.81818181818193,526.3030303030304 135.35353535353545,516.7676767676768 144.88888888888903,507.23232323232327 154.42424242424255,497.69696969696975 163.95959595959607,488.1616161616163 173.4949494949496,478.6262626262627 183.03030303030312,469.0909090909092 192.5656565656567,459.5555555555556 202.10101010101022,450.0202020202021 211.63636363636374,440.4848484848486 221.17171717171726,430.94949494949503 230.70707070707084,421.4141414141415 240.2424242424243,411.87878787878793 249.77777777777783,402.3434343434344 259.3131313131314,392.80808080808094 268.84848484848493,383.27272727272737 278.38383838383845,373.73737373737384 278.38383838383845,364.2020202020203 278.38383838383845,354.66666666666674 278.38383838383845,345.1313131313133 278.38383838383845,335.5959595959597 278.38383838383845,326.06060606060623 278.38383838383845,316.5252525252526 278.38383838383845,306.9898989898991 278.38383838383845,297.4545454545456 278.38383838383845,287.91919191919203 278.38383838383845,278.38383838383857 278.38383838383845,268.84848484848493 278.38383838383845,259.3131313131314 278.38383838383845,249.77777777777794" fill="none" stroke="rgba(0,0,255,0.75)" stroke-width="11.327999999999996"/></g><g><polyline data-points="-2.474747474747474,2.7777777777777786 -2.3737373737373733,2.87878787878788 -2.2727272727272725,2.9797979797979806 -2.1717171717171713,3.080808080808082 -2.07070707070707,3.181818181818183 -1.9696969696969693,3.2828282828282833 -1.8686868686868683,3.383838383838384 -1.7676767676767675,3.4848484848484866 -1.6666666666666665,3.5858585858585874 -1.5656565656565653,3.6868686868686877 -1.4646464646464643,3.6868686868686877 -1.363636363636363,3.6868686868686877 -1.2626262626262625,3.6868686868686877 -1.1616161616161613,3.6868686868686877 -1.0606060606060603,3.6868686868686877 -0.9595959595959596,3.6868686868686877 -0.8585858585858579,3.6868686868686877 -0.7575757575757572,3.6868686868686877 -0.6565656565656557,3.6868686868686877 -0.555555555555555,3.6868686868686877 -0.4545454545454544,3.6868686868686877 -0.35353535353535287,3.6868686868686877 -0.2525252525252522,3.6868686868686877 -0.15151515151515066,3.6868686868686877 -0.05050505050505001,3.6868686868686877 0.050505050505051545,3.6868686868686877 0.1515151515151522,3.6868686868686877 0.2525252525252529,3.6868686868686877 0.3535353535353544,3.6868686868686877 0.4545454545454551,3.6868686868686877 0.5555555555555567,3.6868686868686877" data-type="line" data-label="" points="278.38383838383845,249.77777777777794 287.91919191919203,240.24242424242436 297.4545454545455,230.70707070707084 306.9898989898991,221.17171717171726 316.5252525252526,211.63636363636374 326.0606060606061,202.10101010101027 335.59595959595964,192.56565656565675 345.13131313131316,183.03030303030312 354.6666666666667,173.4949494949496 364.2020202020202,163.95959595959613 373.7373737373738,163.95959595959613 383.2727272727273,163.95959595959613 392.80808080808083,163.95959595959613 402.34343434343435,163.95959595959613 411.8787878787879,163.95959595959613 421.4141414141414,163.95959595959613 430.949494949495,163.95959595959613 440.4848484848485,163.95959595959613 450.0202020202021,163.95959595959613 459.55555555555554,163.95959595959613 469.09090909090907,163.95959595959613 478.62626262626264,163.95959595959613 488.16161616161617,163.95959595959613 497.69696969696975,163.95959595959613 507.2323232323232,163.95959595959613 516.7676767676768,163.95959595959613 526.3030303030303,163.95959595959613 535.8383838383838,163.95959595959613 545.3737373737374,163.95959595959613 554.9090909090909,163.95959595959613 564.4444444444445,163.95959595959613" fill="none" stroke="rgba(255,0,0,0.75)" stroke-width="11.327999999999996"/></g><g><polyline data-points="0.5555555555555567,3.6868686868686877 0.6565656565656574,3.6868686868686877 0.7575757575757579,3.6868686868686877 0.8585858585858596,3.6868686868686877 0.9595959595959602,3.6868686868686877 1.0606060606060617,3.6868686868686877 1.1616161616161622,3.6868686868686877 1.262626262626263,3.6868686868686877 1.3636363636363644,3.6868686868686877 1.4646464646464652,3.6868686868686877 1.5656565656565666,3.6868686868686877 1.6666666666666674,3.6868686868686877 1.767676767676768,3.6868686868686877 1.8686868686868696,3.6868686868686877 1.9696969696969702,3.6868686868686877 2.070707070707072,3.6868686868686877 2.1717171717171726,3.6868686868686877 2.2727272727272734,3.6868686868686877 2.373737373737375,3.6868686868686877 2.4747474747474754,3.6868686868686877 2.575757575757577,3.6868686868686877 2.676767676767678,3.6868686868686877 2.7777777777777786,3.6868686868686877 2.87878787878788,3.6868686868686877 2.9797979797979806,3.6868686868686877 3.080808080808082,3.6868686868686877 3.181818181818183,3.6868686868686877 3.2828282828282833,3.6868686868686877 3.383838383838384,3.6868686868686877 3.4848484848484866,3.6868686868686877 3.5858585858585874,3.6868686868686877 3.6868686868686877,3.6868686868686877 3.7878787878787885,3.6868686868686877 3.8888888888888893,3.6868686868686877 3.989898989898992,3.6868686868686877" data-type="line" data-label="" points="564.4444444444445,163.95959595959613 573.9797979797979,163.95959595959613 583.5151515151515,163.95959595959613 593.0505050505051,163.95959595959613 602.5858585858585,163.95959595959613 612.1212121212121,163.95959595959613 621.6565656565656,163.95959595959613 631.1919191919192,163.95959595959613 640.7272727272727,163.95959595959613 650.2626262626262,163.95959595959613 659.7979797979798,163.95959595959613 669.3333333333333,163.95959595959613 678.8686868686868,163.95959595959613 688.4040404040404,163.95959595959613 697.9393939393939,163.95959595959613 707.4747474747475,163.95959595959613 717.0101010101009,163.95959595959613 726.5454545454545,163.95959595959613 736.0808080808081,163.95959595959613 745.6161616161615,163.95959595959613 755.1515151515151,163.95959595959613 764.6868686868686,163.95959595959613 774.2222222222222,163.95959595959613 783.7575757575758,163.95959595959613 793.2929292929292,163.95959595959613 802.8282828282828,163.95959595959613 812.3636363636363,163.95959595959613 821.8989898989898,163.95959595959613 831.4343434343433,163.95959595959613 840.969696969697,163.95959595959613 850.5050505050505,163.95959595959613 860.0404040404039,163.95959595959613 869.5757575757575,163.95959595959613 879.111111111111,163.95959595959613 888.6464646464647,163.95959595959613" fill="none" stroke="rgba(0,0,255,0.75)" stroke-width="11.327999999999996"/></g><g><polyline data-points="3.989898989898992,3.6868686868686877 4.090909090909092,3.6868686868686877 4.191919191919193,3.6868686868686877 4.292929292929293,3.6868686868686877 4.393939393939394,3.6868686868686877 4.494949494949497,3.6868686868686877 4.595959595959597,3.6868686868686877 4.696969696969697,3.6868686868686877 4.7979797979797985,3.6868686868686877 4.898989898989901,3.6868686868686877 5.000000000000002,3.6868686868686877" data-type="line" data-label="" points="888.6464646464647,163.95959595959613 898.181818181818,163.95959595959613 907.7171717171716,163.95959595959613 917.2525252525251,163.95959595959613 926.7878787878785,163.95959595959613 936.3232323232323,163.95959595959613 945.8585858585857,163.95959595959613 955.3939393939393,163.95959595959613 964.9292929292927,163.95959595959613 974.4646464646464,163.95959595959613 984,163.95959595959613" fill="none" stroke="rgba(255,0,0,0.75)" stroke-width="11.327999999999996"/></g><g><polyline data-points="-5.000000000000001,-1.363636363636363 -4.898989898989899,-1.4646464646464643 -4.7979797979797985,-1.363636363636363 -4.696969696969697,-1.2626262626262625 -4.595959595959596,-1.1616161616161613 -4.494949494949496,-1.0606060606060603 -4.393939393939394,-0.9595959595959596 -4.292929292929293,-0.8585858585858579 -4.191919191919193,-0.7575757575757572 -4.090909090909091,-0.6565656565656557 -3.98989898989899,-0.555555555555555 -3.8888888888888884,-0.4545454545454544 -3.7878787878787876,-0.35353535353535287 -3.6868686868686864,-0.2525252525252522 -3.5858585858585856,-0.15151515151515066 -3.484848484848485,-0.05050505050505001 -3.383838383838383,0.050505050505051545 -3.2828282828282824,0.1515151515151522 -3.1818181818181817,0.2525252525252529 -3.0808080808080804,0.3535353535353544 -2.9797979797979792,0.4545454545454551 -2.8787878787878785,0.5555555555555567 -2.7777777777777777,0.6565656565656574 -2.6767676767676765,0.7575757575757579 -2.5757575757575752,0.8585858585858596 -2.474747474747474,0.9595959595959602 -2.3737373737373733,1.0606060606060617 -2.2727272727272725,1.1616161616161622 -2.1717171717171713,1.262626262626263 -2.07070707070707,1.3636363636363644 -1.9696969696969693,1.4646464646464652 -1.8686868686868683,1.5656565656565666 -1.7676767676767675,1.6666666666666674 -1.6666666666666665,1.767676767676768 -1.5656565656565653,1.767676767676768 -1.4646464646464643,1.767676767676768 -1.363636363636363,1.767676767676768 -1.2626262626262625,1.767676767676768 -1.1616161616161613,1.767676767676768 -1.0606060606060603,1.767676767676768 -0.9595959595959596,1.767676767676768 -0.8585858585858579,1.767676767676768 -0.7575757575757572,1.767676767676768 -0.6565656565656557,1.767676767676768 -0.555555555555555,1.767676767676768 -0.4545454545454544,1.767676767676768 -0.35353535353535287,1.767676767676768 -0.2525252525252522,1.767676767676768 -0.15151515151515066,1.767676767676768 -0.05050505050505001,1.767676767676768 0.050505050505051545,1.767676767676768 0.1515151515151522,1.767676767676768 0.2525252525252529,1.767676767676768 0.3535353535353544,1.767676767676768 0.4545454545454551,1.767676767676768 0.5555555555555567,1.767676767676768 0.6565656565656574,1.767676767676768 0.7575757575757579,1.767676767676768 0.8585858585858596,1.767676767676768 0.9595959595959602,1.767676767676768 1.0606060606060617,1.767676767676768 1.1616161616161622,1.767676767676768 1.262626262626263,1.767676767676768 1.3636363636363644,1.767676767676768 1.4646464646464652,1.767676767676768 1.5656565656565666,1.767676767676768 1.6666666666666674,1.767676767676768 1.767676767676768,1.767676767676768 1.8686868686868696,1.767676767676768 1.9696969696969702,1.767676767676768 2.070707070707072,1.767676767676768 2.1717171717171726,1.767676767676768 2.2727272727272734,1.767676767676768 2.373737373737375,1.767676767676768 2.4747474747474754,1.767676767676768 2.575757575757577,1.767676767676768 2.676767676767678,1.767676767676768 2.7777777777777786,1.767676767676768 2.87878787878788,1.767676767676768 2.9797979797979806,1.767676767676768 3.080808080808082,1.767676767676768 3.181818181818183,1.767676767676768 3.2828282828282833,1.767676767676768 3.383838383838384,1.767676767676768 3.4848484848484866,1.767676767676768 3.5858585858585874,1.767676767676768 3.6868686868686877,1.767676767676768 3.7878787878787885,1.767676767676768 3.8888888888888893,1.767676767676768 3.989898989898992,1.8686868686868696" data-type="line" data-label="" points="40.00000000000006,640.7272727272727 49.53535353535369,650.2626262626263 59.07070707070716,640.7272727272727 68.60606060606068,631.1919191919193 78.14141414141426,621.6565656565657 87.67676767676772,612.1212121212121 97.21212121212136,602.5858585858587 106.74747474747483,593.0505050505051 116.28282828282829,583.5151515151516 125.81818181818193,573.979797979798 135.35353535353545,564.4444444444445 144.88888888888903,554.909090909091 154.42424242424255,545.3737373737374 163.95959595959607,535.838383838384 173.4949494949496,526.3030303030304 183.03030303030312,516.7676767676768 192.5656565656567,507.23232323232327 202.10101010101022,497.69696969696975 211.63636363636374,488.1616161616163 221.17171717171726,478.6262626262627 230.70707070707084,469.0909090909092 240.2424242424243,459.5555555555556 249.77777777777783,450.0202020202021 259.3131313131314,440.4848484848486 268.84848484848493,430.94949494949503 278.38383838383845,421.4141414141415 287.91919191919203,411.87878787878793 297.4545454545455,402.3434343434344 306.9898989898991,392.80808080808094 316.5252525252526,383.27272727272737 326.0606060606061,373.73737373737384 335.59595959595964,364.2020202020203 345.13131313131316,354.66666666666674 354.6666666666667,345.1313131313133 364.2020202020202,345.1313131313133 373.7373737373738,345.1313131313133 383.2727272727273,345.1313131313133 392.80808080808083,345.1313131313133 402.34343434343435,345.1313131313133 411.8787878787879,345.1313131313133 421.4141414141414,345.1313131313133 430.949494949495,345.1313131313133 440.4848484848485,345.1313131313133 450.0202020202021,345.1313131313133 459.55555555555554,345.1313131313133 469.09090909090907,345.1313131313133 478.62626262626264,345.1313131313133 488.16161616161617,345.1313131313133 497.69696969696975,345.1313131313133 507.2323232323232,345.1313131313133 516.7676767676768,345.1313131313133 526.3030303030303,345.1313131313133 535.8383838383838,345.1313131313133 545.3737373737374,345.1313131313133 554.9090909090909,345.1313131313133 564.4444444444445,345.1313131313133 573.9797979797979,345.1313131313133 583.5151515151515,345.1313131313133 593.0505050505051,345.1313131313133 602.5858585858585,345.1313131313133 612.1212121212121,345.1313131313133 621.6565656565656,345.1313131313133 631.1919191919192,345.1313131313133 640.7272727272727,345.1313131313133 650.2626262626262,345.1313131313133 659.7979797979798,345.1313131313133 669.3333333333333,345.1313131313133 678.8686868686868,345.1313131313133 688.4040404040404,345.1313131313133 697.9393939393939,345.1313131313133 707.4747474747475,345.1313131313133 717.0101010101009,345.1313131313133 726.5454545454545,345.1313131313133 736.0808080808081,345.1313131313133 745.6161616161615,345.1313131313133 755.1515151515151,345.1313131313133 764.6868686868686,345.1313131313133 774.2222222222222,345.1313131313133 783.7575757575758,345.1313131313133 793.2929292929292,345.1313131313133 802.8282828282828,345.1313131313133 812.3636363636363,345.1313131313133 821.8989898989898,345.1313131313133 831.4343434343433,345.1313131313133 840.969696969697,345.1313131313133 850.5050505050505,345.1313131313133 860.0404040404039,345.1313131313133 869.5757575757575,345.1313131313133 879.111111111111,345.1313131313133 888.6464646464647,335.5959595959597" fill="none" stroke="rgba(0,0,255,0.75)" stroke-width="11.327999999999996"/></g><g><polyline data-points="3.989898989898992,1.8686868686868696 4.090909090909092,1.767676767676768 4.191919191919193,1.767676767676768 4.292929292929293,1.767676767676768 4.393939393939394,1.767676767676768 4.494949494949497,1.767676767676768 4.595959595959597,1.767676767676768 4.696969696969697,1.767676767676768 4.7979797979797985,1.767676767676768 4.898989898989901,1.767676767676768 5.000000000000002,1.8686868686868696" data-type="line" data-label="" points="888.6464646464647,335.5959595959597 898.181818181818,345.1313131313133 907.7171717171716,345.1313131313133 917.2525252525251,345.1313131313133 926.7878787878785,345.1313131313133 936.3232323232323,345.1313131313133 945.8585858585857,345.1313131313133 955.3939393939393,345.1313131313133 964.9292929292927,345.1313131313133 974.4646464646464,345.1313131313133 984,335.5959595959597" fill="none" stroke="rgba(255,0,0,0.75)" stroke-width="11.327999999999996"/></g><g><rect data-type="rect" data-label="" data-x="0" data-y="0" x="40.000000000000114" y="40.000000000000284" width="943.9999999999997" height="943.9999999999998" fill="none" stroke="gray" stroke-width="0.010593220338983056"/></g><g><rect data-type="rect" data-label="" data-x="0" data-y="0" x="40.000000000000114" y="40.000000000000284" width="943.9999999999997" height="943.9999999999998" fill="none" stroke="rgba(15, 23, 42, 0.8)" stroke-width="0.010593220338983056"/></g><circle data-type="circle" data-label="" data-x="-1.4646464646464643" data-y="2.7777777777777786" cx="373.7373737373738" cy="249.77777777777794" r="14.159999999999995" fill="rgba(0,0,0,0.3)" stroke="black" stroke-width="0.010593220338983056"/><circle data-type="circle" data-label="" data-x="-2.1717171717171713" data-y="1.9696969696969702" cx="306.9898989898991" cy="326.06060606060623" r="14.159999999999995" fill="rgba(0,0,0,0.3)" stroke="black" stroke-width="0.010593220338983056"/><circle data-type="circle" data-label="" data-x="-1.8686868686868683" data-y="-3.98989898989899" cx="335.59595959595964" cy="888.6464646464647" r="14.159999999999995" fill="rgba(0,0,0,0.3)" stroke="black" stroke-width="0.010593220338983056"/><circle data-type="circle" data-label="" data-x="-2.474747474747474" data-y="2.7777777777777786" cx="278.38383838383845" cy="249.77777777777794" r="14.159999999999995" fill="rgba(0,0,0,0.3)" stroke="black" stroke-width="0.010593220338983056"/><circle data-type="circle" data-label="" data-x="0.5555555555555567" data-y="3.6868686868686877" cx="564.4444444444445" cy="163.95959595959613" r="14.159999999999995" fill="rgba(0,0,0,0.3)" stroke="black" stroke-width="0.010593220338983056"/><circle data-type="circle" data-label="" data-x="3.989898989898992" data-y="3.6868686868686877" cx="888.6464646464647" cy="163.95959595959613" r="14.159999999999995" fill="rgba(0,0,0,0.3)" stroke="black" stroke-width="0.010593220338983056"/><circle data-type="circle" data-label="" data-x="3.989898989898992" data-y="1.8686868686868696" cx="888.6464646464647" cy="335.5959595959597" r="14.159999999999995" fill="rgba(0,0,0,0.3)" stroke="black" stroke-width="0.010593220338983056"/><g id="crosshair" style="display: none"><line id="crosshair-h" y1="0" y2="1024" stroke="#666" stroke-width="0.5"/><line id="crosshair-v" x1="0" x2="1024" stroke="#666" stroke-width="0.5"/><text id="coordinates" font-family="monospace" font-size="12" fill="#666"></text></g><script><![CDATA[
              document.currentScript.parentElement.addEventListener('mousemove', (e) => {
                const svg = e.currentTarget;
                const rect = svg.getBoundingClientRect();
                const x = e.clientX - rect.left;
                const y = e.clientY - rect.top;
                const crosshair = svg.getElementById('crosshair');
                const h = svg.getElementById('crosshair-h');
                const v = svg.getElementById('crosshair-v');
                const coords = svg.getElementById('coordinates');
                
                crosshair.style.display = 'block';
                h.setAttribute('x1', '0');
                h.setAttribute('x2', '1024');
                h.setAttribute('y1', y);
                h.setAttribute('y2', y);
                v.setAttribute('x1', x);
                v.setAttribute('x2', x);
                v.setAttribute('y1', '0');
                v.setAttribute('y2', '1024');

                // Calculate real coordinates using inverse transformation
                const matrix = {"a":94.39999999999996,"c":0,"e":511.99999999999994,"b":0,"d":-94.39999999999996,"f":512.0000000000001};
                // Manually invert and apply the affine transform
                // Since we only use translate and scale, we can directly compute:
                // x' = (x - tx) / sx
                // y' = (y - ty) / sy
                const sx = matrix.a;
                const sy = matrix.d;
                const tx = matrix.e; 
                const ty = matrix.f;
                const realPoint = {
                  x: (x - tx) / sx,
                  y: (y - ty) / sy // Flip y back since we used negative scale
                }
                
                coords.textContent = `(${realPoint.x.toFixed(2)}, ${realPoint.y.toFixed(2)})`;
                coords.setAttribute('x', (x + 5).toString());
                coords.setAttribute('y', (y - 5).toString());
              });
              document.currentScript.parentElement.addEventListener('mouseleave', () => {
                document.currentScript.parentElement.getElementById('crosshair').style.display = 'none';
              });
            ]]></script></svg>