<svg width="1024" height="1024" viewBox="0 0 1024 1024" xmlns="http://www.w3.org/2000/svg"><rect width="100%" height="100%" fill="white"/><g><circle data-type="point" data-label="conn_000" data-x="5" data-y="3.74" cx="983.9999999999998" cy="158.94400000000024" r="14.16" fill="red"/></g><g><circle data-type="point" data-label="conn_000" data-x="-5" data-y="-0.24" cx="40.000000000000114" cy="534.6560000000001" r="14.16" fill="red"/></g><g><circle data-type="point" data-label="conn_001" data-x="5" data-y="-2.72" cx="983.9999999999998" cy="768.768" r="14.16" fill="blue"/></g><g><circle data-type="point" data-label="conn_001" data-x="-5" data-y="-1.7" cx="40.000000000000114" cy="672.48" r="14.16" fill="red"/></g><g><circle data-type="point" data-label="conn_002" data-x="3.88" data-y="-5" cx="878.2719999999997" cy="984" r="14.16" fill="blue"/></g><g><circle data-type="point" data-label="conn_002" data-x="4.46" data-y="5" cx="933.0239999999998" cy="40.000000000000284" r="14.16" fill="red"/></g><g><circle data-type="point" data-label="conn_003" data-x="3.88" data-y="5" cx="878.2719999999997" cy="40.000000000000284" r="14.16" fill="red"/></g><g><circle data-type="point" data-label="conn_003" data-x="-3.66" data-y="-5" cx="166.49600000000004" cy="984" r="14.16" fill="blue"/></g><g><circle data-type="point" data-label="conn_004" data-x="5" data-y="-1.86" cx="983.9999999999998" cy="687.5840000000001" r="14.16" fill="red"/></g><g><circle data-type="point" data-label="conn_004" data-x="-5" data-y="3.5" cx="40.000000000000114" cy="181.60000000000025" r="14.16" fill="blue"/></g><g><circle data-type="point" data-label="conn_005" data-x="-1.18" data-y="-5" cx="400.608" cy="984" r="14.16" fill="red"/></g><g><circle data-type="point" data-label="conn_005" data-x="5" data-y="-0.62" cx="983.9999999999998" cy="570.5280000000001" r="14.16" fill="red"/></g><g><polyline data-points="-1.1616161616161613,-5.000000000000001 -1.0606060606060603,-4.898989898989899 -0.9595959595959596,-4.7979797979797985 -0.8585858585858579,-4.696969696969697 -0.7575757575757572,-4.595959595959596 -0.6565656565656557,-4.494949494949496 -0.555555555555555,-4.393939393939394 -0.4545454545454544,-4.292929292929293 -0.35353535353535287,-4.191919191919193 -0.2525252525252522,-4.090909090909091 -0.15151515151515066,-3.98989898989899 -0.05050505050505001,-3.8888888888888884 0.050505050505051545,-3.7878787878787876 0.1515151515151522,-3.6868686868686864 0.2525252525252529,-3.5858585858585856 0.3535353535353544,-3.484848484848485 0.4545454545454551,-3.383838383838383 0.5555555555555567,-3.2828282828282824 0.6565656565656574,-3.1818181818181817 0.7575757575757579,-3.0808080808080804 0.8585858585858596,-2.9797979797979792 0.9595959595959602,-2.8787878787878785 1.0606060606060617,-2.7777777777777777 1.1616161616161622,-2.6767676767676765 1.262626262626263,-2.5757575757575752 1.3636363636363644,-2.474747474747474 1.4646464646464652,-2.3737373737373733 1.5656565656565666,-2.2727272727272725 1.6666666666666674,-2.1717171717171713 1.767676767676768,-2.07070707070707 1.8686868686868696,-1.9696969696969693 1.9696969696969702,-1.8686868686868683 2.070707070707072,-1.7676767676767675 2.1717171717171726,-1.6666666666666665 2.2727272727272734,-1.5656565656565653 2.373737373737375,-1.4646464646464643 2.4747474747474754,-1.363636363636363 2.575757575757577,-1.2626262626262625 2.676767676767678,-1.1616161616161613 2.7777777777777786,-1.0606060606060603 2.87878787878788,-0.9595959595959596 2.9797979797979806,-0.8585858585858579 3.080808080808082,-0.7575757575757572 3.181818181818183,-0.6565656565656557 3.2828282828282833,-0.6565656565656557 3.383838383838384,-0.6565656565656557 3.4848484848484866,-0.6565656565656557 3.5858585858585874,-0.6565656565656557 3.6868686868686877,-0.6565656565656557 3.7878787878787885,-0.6565656565656557 3.8888888888888893,-0.6565656565656557 3.989898989898992,-0.6565656565656557 4.090909090909092,-0.6565656565656557 4.191919191919193,-0.6565656565656557 4.292929292929293,-0.6565656565656557 4.393939393939394,-0.6565656565656557 4.494949494949497,-0.6565656565656557 4.595959595959597,-0.6565656565656557 4.696969696969697,-0.6565656565656557 4.7979797979797985,-0.6565656565656557 4.898989898989901,-0.6565656565656557 5.000000000000002,-0.6565656565656557" data-type="line" data-label="" points="402.34343434343435,984 411.8787878787879,974.4646464646464 421.4141414141414,964.9292929292928 430.949494949495,955.3939393939394 440.4848484848485,945.8585858585858 450.0202020202021,936.3232323232323 459.55555555555554,926.7878787878788 469.09090909090907,917.2525252525252 478.62626262626264,907.7171717171718 488.16161616161617,898.1818181818181 497.69696969696975,888.6464646464647 507.2323232323232,879.1111111111111 516.7676767676768,869.5757575757575 526.3030303030303,860.0404040404039 535.8383838383838,850.5050505050505 545.3737373737374,840.969696969697 554.9090909090909,831.4343434343434 564.4444444444445,821.8989898989898 573.9797979797979,812.3636363636363 583.5151515151515,802.8282828282828 593.0505050505051,793.2929292929292 602.5858585858585,783.7575757575758 612.1212121212121,774.2222222222222 621.6565656565656,764.6868686868687 631.1919191919192,755.1515151515151 640.7272727272727,745.6161616161615 650.2626262626262,736.0808080808081 659.7979797979798,726.5454545454545 669.3333333333333,717.010101010101 678.8686868686868,707.4747474747475 688.4040404040404,697.939393939394 697.9393939393939,688.4040404040404 707.4747474747475,678.8686868686868 717.0101010101009,669.3333333333334 726.5454545454545,659.7979797979798 736.0808080808081,650.2626262626263 745.6161616161615,640.7272727272727 755.1515151515151,631.1919191919193 764.6868686868686,621.6565656565657 774.2222222222222,612.1212121212121 783.7575757575758,602.5858585858587 793.2929292929292,593.0505050505051 802.8282828282828,583.5151515151516 812.3636363636363,573.979797979798 821.8989898989898,573.979797979798 831.4343434343433,573.979797979798 840.969696969697,573.979797979798 850.5050505050505,573.979797979798 860.0404040404039,573.979797979798 869.5757575757575,573.979797979798 879.111111111111,573.979797979798 888.6464646464647,573.979797979798 898.181818181818,573.979797979798 907.7171717171716,573.979797979798 917.2525252525251,573.979797979798 926.7878787878785,573.979797979798 936.3232323232323,573.979797979798 945.8585858585857,573.979797979798 955.3939393939393,573.979797979798 964.9292929292927,573.979797979798 974.4646464646464,573.979797979798 984,573.979797979798" fill="none" stroke="rgba(255,0,0,0.75)" stroke-width="11.327999999999996"/></g><g><polyline data-points="5.000000000000002,-1.8686868686868683 4.898989898989901,-1.7676767676767675 4.7979797979797985,-1.6666666666666665 4.696969696969697,-1.5656565656565653 4.595959595959597,-1.4646464646464643 4.494949494949497,-1.363636363636363 4.393939393939394,-1.2626262626262625 4.292929292929293,-1.1616161616161613 4.191919191919193,-1.0606060606060603 4.090909090909092,-1.0606060606060603 3.989898989898992,-1.0606060606060603" data-type="line" data-label="" points="984,688.4040404040404 974.4646464646464,678.8686868686868 964.9292929292927,669.3333333333334 955.3939393939393,659.7979797979798 945.8585858585857,650.2626262626263 936.3232323232323,640.7272727272727 926.7878787878785,631.1919191919193 917.2525252525251,621.6565656565657 907.7171717171716,612.1212121212121 898.181818181818,612.1212121212121 888.6464646464647,612.1212121212121" fill="none" stroke="rgba(255,0,0,0.75)" stroke-width="11.327999999999996"/></g><g><polyline data-points="3.989898989898992,-1.0606060606060603 3.8888888888888893,-0.9595959595959596 3.7878787878787885,-0.8585858585858579 3.6868686868686877,-0.7575757575757572 3.5858585858585874,-0.6565656565656557 3.4848484848484866,-0.555555555555555 3.383838383838384,-0.4545454545454544 3.2828282828282833,-0.35353535353535287 3.181818181818183,-0.2525252525252522 3.080808080808082,-0.15151515151515066 2.9797979797979806,-0.05050505050505001 2.87878787878788,0.050505050505051545 2.7777777777777786,0.1515151515151522 2.676767676767678,0.2525252525252529 2.575757575757577,0.3535353535353544 2.4747474747474754,0.4545454545454551 2.373737373737375,0.5555555555555567 2.2727272727272734,0.6565656565656574 2.1717171717171726,0.7575757575757579 2.070707070707072,0.8585858585858596 1.9696969696969702,0.9595959595959602 1.8686868686868696,1.0606060606060617 1.767676767676768,1.1616161616161622 1.6666666666666674,1.262626262626263 1.5656565656565666,1.3636363636363644 1.4646464646464652,1.4646464646464652 1.3636363636363644,1.5656565656565666 1.262626262626263,1.6666666666666674 1.1616161616161622,1.767676767676768 1.0606060606060617,1.8686868686868696 0.9595959595959602,1.9696969696969702 0.8585858585858596,2.070707070707072 0.7575757575757579,2.1717171717171726 0.6565656565656574,2.2727272727272734 0.5555555555555567,2.373737373737375 0.4545454545454551,2.4747474747474754 0.3535353535353544,2.575757575757577 0.2525252525252529,2.676767676767678 0.1515151515151522,2.7777777777777786 0.050505050505051545,2.87878787878788 -0.05050505050505001,2.9797979797979806 -0.15151515151515066,3.080808080808082 -0.2525252525252522,3.181818181818183 -0.35353535353535287,3.2828282828282833 -0.4545454545454544,3.383838383838384 -0.555555555555555,3.4848484848484866 -0.6565656565656557,3.5858585858585874 -0.7575757575757572,3.5858585858585874 -0.8585858585858579,3.5858585858585874 -0.9595959595959596,3.5858585858585874 -1.0606060606060603,3.5858585858585874 -1.1616161616161613,3.5858585858585874 -1.2626262626262625,3.5858585858585874 -1.363636363636363,3.5858585858585874 -1.4646464646464643,3.5858585858585874 -1.5656565656565653,3.5858585858585874 -1.6666666666666665,3.5858585858585874 -1.7676767676767675,3.5858585858585874 -1.8686868686868683,3.5858585858585874 -1.9696969696969693,3.5858585858585874 -2.07070707070707,3.5858585858585874 -2.1717171717171713,3.5858585858585874 -2.2727272727272725,3.5858585858585874 -2.3737373737373733,3.5858585858585874 -2.474747474747474,3.5858585858585874 -2.5757575757575752,3.5858585858585874 -2.6767676767676765,3.5858585858585874 -2.7777777777777777,3.5858585858585874 -2.8787878787878785,3.5858585858585874 -2.9797979797979792,3.5858585858585874 -3.0808080808080804,3.5858585858585874 -3.1818181818181817,3.5858585858585874 -3.2828282828282824,3.5858585858585874 -3.383838383838383,3.5858585858585874 -3.484848484848485,3.5858585858585874 -3.5858585858585856,3.5858585858585874 -3.6868686868686864,3.5858585858585874 -3.7878787878787876,3.5858585858585874 -3.8888888888888884,3.5858585858585874 -3.98989898989899,3.5858585858585874 -4.090909090909091,3.5858585858585874 -4.191919191919193,3.5858585858585874 -4.292929292929293,3.5858585858585874 -4.393939393939394,3.5858585858585874 -4.494949494949496,3.5858585858585874 -4.595959595959596,3.5858585858585874 -4.696969696969697,3.5858585858585874 -4.7979797979797985,3.5858585858585874 -4.898989898989899,3.5858585858585874 -5.000000000000001,3.5858585858585874" data-type="line" data-label="" points="888.6464646464647,612.1212121212121 879.111111111111,602.5858585858587 869.5757575757575,593.0505050505051 860.0404040404039,583.5151515151516 850.5050505050505,573.979797979798 840.969696969697,564.4444444444445 831.4343434343433,554.909090909091 821.8989898989898,545.3737373737374 812.3636363636363,535.838383838384 802.8282828282828,526.3030303030304 793.2929292929292,516.7676767676768 783.7575757575758,507.23232323232327 774.2222222222222,497.69696969696975 764.6868686868686,488.1616161616163 755.1515151515151,478.6262626262627 745.6161616161615,469.0909090909092 736.0808080808081,459.5555555555556 726.5454545454545,450.0202020202021 717.0101010101009,440.4848484848486 707.4747474747475,430.94949494949503 697.9393939393939,421.4141414141415 688.4040404040404,411.87878787878793 678.8686868686868,402.3434343434344 669.3333333333333,392.80808080808094 659.7979797979798,383.27272727272737 650.2626262626262,373.73737373737384 640.7272727272727,364.2020202020203 631.1919191919192,354.66666666666674 621.6565656565656,345.1313131313133 612.1212121212121,335.5959595959597 602.5858585858585,326.06060606060623 593.0505050505051,316.5252525252526 583.5151515151515,306.9898989898991 573.9797979797979,297.4545454545456 564.4444444444445,287.91919191919203 554.9090909090909,278.38383838383857 545.3737373737374,268.84848484848493 535.8383838383838,259.3131313131314 526.3030303030303,249.77777777777794 516.7676767676768,240.24242424242436 507.2323232323232,230.70707070707084 497.69696969696975,221.17171717171726 488.16161616161617,211.63636363636374 478.62626262626264,202.10101010101027 469.09090909090907,192.56565656565675 459.55555555555554,183.03030303030312 450.0202020202021,173.4949494949496 440.4848484848485,173.4949494949496 430.949494949495,173.4949494949496 421.4141414141414,173.4949494949496 411.8787878787879,173.4949494949496 402.34343434343435,173.4949494949496 392.80808080808083,173.4949494949496 383.2727272727273,173.4949494949496 373.7373737373738,173.4949494949496 364.2020202020202,173.4949494949496 354.6666666666667,173.4949494949496 345.13131313131316,173.4949494949496 335.59595959595964,173.4949494949496 326.0606060606061,173.4949494949496 316.5252525252526,173.4949494949496 306.9898989898991,173.4949494949496 297.4545454545455,173.4949494949496 287.91919191919203,173.4949494949496 278.38383838383845,173.4949494949496 268.84848484848493,173.4949494949496 259.3131313131314,173.4949494949496 249.77777777777783,173.4949494949496 240.2424242424243,173.4949494949496 230.70707070707084,173.4949494949496 221.17171717171726,173.4949494949496 211.63636363636374,173.4949494949496 202.10101010101022,173.4949494949496 192.5656565656567,173.4949494949496 183.03030303030312,173.4949494949496 173.4949494949496,173.4949494949496 163.95959595959607,173.4949494949496 154.42424242424255,173.4949494949496 144.88888888888903,173.4949494949496 135.35353535353545,173.4949494949496 125.81818181818193,173.4949494949496 116.28282828282829,173.4949494949496 106.74747474747483,173.4949494949496 97.21212121212136,173.4949494949496 87.67676767676772,173.4949494949496 78.14141414141426,173.4949494949496 68.60606060606068,173.4949494949496 59.07070707070716,173.4949494949496 49.53535353535369,173.4949494949496 40.00000000000006,173.4949494949496" fill="none" stroke="rgba(0,0,255,0.75)" stroke-width="11.327999999999996"/></g><g><polyline data-points="3.8888888888888893,5.000000000000002 3.7878787878787885,4.898989898989901 3.6868686868686877,4.7979797979797985 3.5858585858585874,4.696969696969697 3.4848484848484866,4.595959595959597 3.383838383838384,4.494949494949497 3.2828282828282833,4.393939393939394 3.181818181818183,4.292929292929293 3.080808080808082,4.191919191919193 2.9797979797979806,4.090909090909092 2.87878787878788,3.989898989898992 2.7777777777777786,3.8888888888888893 2.676767676767678,3.7878787878787885 2.575757575757577,3.6868686868686877 2.4747474747474754,3.5858585858585874 2.373737373737375,3.4848484848484866 2.2727272727272734,3.383838383838384 2.1717171717171726,3.2828282828282833 2.070707070707072,3.181818181818183 1.9696969696969702,3.080808080808082 1.8686868686868696,2.9797979797979806 1.767676767676768,2.87878787878788 1.6666666666666674,2.7777777777777786 1.5656565656565666,2.676767676767678 1.4646464646464652,2.575757575757577 1.3636363636363644,2.4747474747474754 1.262626262626263,2.373737373737375 1.1616161616161622,2.2727272727272734 1.0606060606060617,2.1717171717171726 0.9595959595959602,2.070707070707072 0.8585858585858596,1.9696969696969702 0.7575757575757579,1.8686868686868696 0.6565656565656574,1.767676767676768 0.5555555555555567,1.6666666666666674 0.4545454545454551,1.5656565656565666 0.3535353535353544,1.4646464646464652 0.2525252525252529,1.3636363636363644 0.1515151515151522,1.262626262626263 0.050505050505051545,1.1616161616161622 -0.05050505050505001,1.0606060606060617 -0.15151515151515066,0.9595959595959602 -0.2525252525252522,0.8585858585858596 -0.35353535353535287,0.7575757575757579 -0.4545454545454544,0.6565656565656574 -0.555555555555555,0.5555555555555567 -0.6565656565656557,0.4545454545454551 -0.7575757575757572,0.3535353535353544 -0.8585858585858579,0.2525252525252529 -0.9595959595959596,0.1515151515151522 -1.0606060606060603,0.050505050505051545 -1.1616161616161613,-0.05050505050505001 -1.2626262626262625,-0.15151515151515066 -1.363636363636363,-0.2525252525252522 -1.4646464646464643,-0.35353535353535287 -1.5656565656565653,-0.4545454545454544 -1.6666666666666665,-0.555555555555555 -1.7676767676767675,-0.6565656565656557 -1.8686868686868683,-0.7575757575757572 -1.9696969696969693,-0.8585858585858579 -2.07070707070707,-0.9595959595959596 -2.1717171717171713,-1.0606060606060603 -2.2727272727272725,-1.1616161616161613 -2.3737373737373733,-1.2626262626262625 -2.474747474747474,-1.363636363636363 -2.5757575757575752,-1.4646464646464643 -2.6767676767676765,-1.5656565656565653 -2.7777777777777777,-1.6666666666666665 -2.8787878787878785,-1.7676767676767675 -2.9797979797979792,-1.8686868686868683 -3.0808080808080804,-1.9696969696969693 -3.1818181818181817,-2.07070707070707 -3.2828282828282824,-2.1717171717171713 -3.383838383838383,-2.2727272727272725 -3.484848484848485,-2.3737373737373733 -3.5858585858585856,-2.474747474747474 -3.6868686868686864,-2.5757575757575752 -3.6868686868686864,-2.6767676767676765 -3.6868686868686864,-2.7777777777777777 -3.6868686868686864,-2.8787878787878785 -3.6868686868686864,-2.9797979797979792 -3.6868686868686864,-3.0808080808080804 -3.6868686868686864,-3.1818181818181817 -3.6868686868686864,-3.2828282828282824 -3.6868686868686864,-3.383838383838383 -3.6868686868686864,-3.484848484848485 -3.6868686868686864,-3.5858585858585856 -3.6868686868686864,-3.6868686868686864 -3.6868686868686864,-3.7878787878787876 -3.6868686868686864,-3.8888888888888884 -3.6868686868686864,-3.98989898989899" data-type="line" data-label="" points="879.111111111111,40.000000000000114 869.5757575757575,49.53535353535369 860.0404040404039,59.07070707070733 850.5050505050505,68.60606060606085 840.969696969697,78.14141414141432 831.4343434343433,87.67676767676778 821.8989898989898,97.21212121212153 812.3636363636363,106.747474747475 802.8282828282828,116.28282828282846 793.2929292929292,125.81818181818198 783.7575757575758,135.35353535353545 774.2222222222222,144.88888888888908 764.6868686868686,154.4242424242426 755.1515151515151,163.95959595959613 745.6161616161615,173.4949494949496 736.0808080808081,183.03030303030312 726.5454545454545,192.56565656565675 717.0101010101009,202.10101010101027 707.4747474747475,211.63636363636374 697.9393939393939,221.17171717171726 688.4040404040404,230.70707070707084 678.8686868686868,240.24242424242436 669.3333333333333,249.77777777777794 659.7979797979798,259.3131313131314 650.2626262626262,268.84848484848493 640.7272727272727,278.38383838383857 631.1919191919192,287.91919191919203 621.6565656565656,297.4545454545456 612.1212121212121,306.9898989898991 602.5858585858585,316.5252525252526 593.0505050505051,326.06060606060623 583.5151515151515,335.5959595959597 573.9797979797979,345.1313131313133 564.4444444444445,354.66666666666674 554.9090909090909,364.2020202020203 545.3737373737374,373.73737373737384 535.8383838383838,383.27272727272737 526.3030303030303,392.80808080808094 516.7676767676768,402.3434343434344 507.2323232323232,411.87878787878793 497.69696969696975,421.4141414141415 488.16161616161617,430.94949494949503 478.62626262626264,440.4848484848486 469.09090909090907,450.0202020202021 459.55555555555554,459.5555555555556 450.0202020202021,469.0909090909092 440.4848484848485,478.6262626262627 430.949494949495,488.1616161616163 421.4141414141414,497.69696969696975 411.8787878787879,507.23232323232327 402.34343434343435,516.7676767676768 392.80808080808083,526.3030303030304 383.2727272727273,535.838383838384 373.7373737373738,545.3737373737374 364.2020202020202,554.909090909091 354.6666666666667,564.4444444444445 345.13131313131316,573.979797979798 335.59595959595964,583.5151515151516 326.0606060606061,593.0505050505051 316.5252525252526,602.5858585858587 306.9898989898991,612.1212121212121 297.4545454545455,621.6565656565657 287.91919191919203,631.1919191919193 278.38383838383845,640.7272727272727 268.84848484848493,650.2626262626263 259.3131313131314,659.7979797979798 249.77777777777783,669.3333333333334 240.2424242424243,678.8686868686868 230.70707070707084,688.4040404040404 221.17171717171726,697.939393939394 211.63636363636374,707.4747474747475 202.10101010101022,717.010101010101 192.5656565656567,726.5454545454545 183.03030303030312,736.0808080808081 173.4949494949496,745.6161616161615 163.95959595959607,755.1515151515151 163.95959595959607,764.6868686868687 163.95959595959607,774.2222222222222 163.95959595959607,783.7575757575758 163.95959595959607,793.2929292929292 163.95959595959607,802.8282828282828 163.95959595959607,812.3636363636363 163.95959595959607,821.8989898989898 163.95959595959607,831.4343434343434 163.95959595959607,840.969696969697 163.95959595959607,850.5050505050505 163.95959595959607,860.0404040404039 163.95959595959607,869.5757575757575 163.95959595959607,879.1111111111111 163.95959595959607,888.6464646464647" fill="none" stroke="rgba(255,0,0,0.75)" stroke-width="11.327999999999996"/></g><g><polyline data-points="-3.6868686868686864,-3.98989898989899 -3.6868686868686864,-4.090909090909091 -3.6868686868686864,-4.191919191919193 -3.6868686868686864,-4.292929292929293 -3.6868686868686864,-4.393939393939394 -3.6868686868686864,-4.494949494949496 -3.6868686868686864,-4.595959595959596 -3.6868686868686864,-4.696969696969697 -3.6868686868686864,-4.7979797979797985 -3.6868686868686864,-4.898989898989899 -3.6868686868686864,-5.000000000000001" data-type="line" data-label="" points="163.95959595959607,888.6464646464647 163.95959595959607,898.1818181818181 163.95959595959607,907.7171717171718 163.95959595959607,917.2525252525252 163.95959595959607,926.7878787878788 163.95959595959607,936.3232323232323 163.95959595959607,945.8585858585858 163.95959595959607,955.3939393939394 163.95959595959607,964.9292929292928 163.95959595959607,974.4646464646464 163.95959595959607,984" fill="none" stroke="rgba(0,0,255,0.75)" stroke-width="11.327999999999996"/></g><g><polyline data-points="5.000000000000002,3.7878787878787885 4.898989898989901,3.6868686868686877 4.7979797979797985,3.5858585858585874 4.696969696969697,3.4848484848484866 4.595959595959597,3.383838383838384 4.494949494949497,3.2828282828282833 4.393939393939394,3.181818181818183 4.292929292929293,3.080808080808082 4.191919191919193,2.9797979797979806 4.090909090909092,2.87878787878788 3.989898989898992,2.7777777777777786 3.8888888888888893,2.676767676767678 3.7878787878787885,2.575757575757577 3.6868686868686877,2.4747474747474754 3.5858585858585874,2.373737373737375 3.4848484848484866,2.2727272727272734 3.383838383838384,2.1717171717171726 3.2828282828282833,2.070707070707072 3.181818181818183,1.9696969696969702 3.080808080808082,1.8686868686868696 2.9797979797979806,1.767676767676768 2.87878787878788,1.6666666666666674 2.7777777777777786,1.5656565656565666 2.676767676767678,1.4646464646464652 2.575757575757577,1.3636363636363644 2.4747474747474754,1.262626262626263 2.373737373737375,1.1616161616161622 2.2727272727272734,1.0606060606060617 2.1717171717171726,0.9595959595959602 2.070707070707072,0.8585858585858596 1.9696969696969702,0.7575757575757579 1.8686868686868696,0.6565656565656574 1.767676767676768,0.5555555555555567 1.6666666666666674,0.4545454545454551 1.5656565656565666,0.3535353535353544 1.4646464646464652,0.2525252525252529 1.3636363636363644,0.1515151515151522 1.262626262626263,0.050505050505051545 1.1616161616161622,-0.05050505050505001 1.0606060606060617,-0.15151515151515066 0.9595959595959602,-0.2525252525252522 0.8585858585858596,-0.2525252525252522 0.7575757575757579,-0.2525252525252522 0.6565656565656574,-0.2525252525252522 0.5555555555555567,-0.2525252525252522 0.4545454545454551,-0.2525252525252522 0.3535353535353544,-0.2525252525252522 0.2525252525252529,-0.2525252525252522 0.1515151515151522,-0.2525252525252522 0.050505050505051545,-0.2525252525252522 -0.05050505050505001,-0.2525252525252522 -0.15151515151515066,-0.2525252525252522 -0.2525252525252522,-0.2525252525252522 -0.35353535353535287,-0.2525252525252522 -0.4545454545454544,-0.2525252525252522 -0.555555555555555,-0.2525252525252522 -0.6565656565656557,-0.2525252525252522 -0.7575757575757572,-0.2525252525252522 -0.8585858585858579,-0.2525252525252522" data-type="line" data-label="" points="984,154.4242424242426 974.4646464646464,163.95959595959613 964.9292929292927,173.4949494949496 955.3939393939393,183.03030303030312 945.8585858585857,192.56565656565675 936.3232323232323,202.10101010101027 926.7878787878785,211.63636363636374 917.2525252525251,221.17171717171726 907.7171717171716,230.70707070707084 898.181818181818,240.24242424242436 888.6464646464647,249.77777777777794 879.111111111111,259.3131313131314 869.5757575757575,268.84848484848493 860.0404040404039,278.38383838383857 850.5050505050505,287.91919191919203 840.969696969697,297.4545454545456 831.4343434343433,306.9898989898991 821.8989898989898,316.5252525252526 812.3636363636363,326.06060606060623 802.8282828282828,335.5959595959597 793.2929292929292,345.1313131313133 783.7575757575758,354.66666666666674 774.2222222222222,364.2020202020203 764.6868686868686,373.73737373737384 755.1515151515151,383.27272727272737 745.6161616161615,392.80808080808094 736.0808080808081,402.3434343434344 726.5454545454545,411.87878787878793 717.0101010101009,421.4141414141415 707.4747474747475,430.94949494949503 697.9393939393939,440.4848484848486 688.4040404040404,450.0202020202021 678.8686868686868,459.5555555555556 669.3333333333333,469.0909090909092 659.7979797979798,478.6262626262627 650.2626262626262,488.1616161616163 640.7272727272727,497.69696969696975 631.1919191919192,507.23232323232327 621.6565656565656,516.7676767676768 612.1212121212121,526.3030303030304 602.5858585858585,535.838383838384 593.0505050505051,535.838383838384 583.5151515151515,535.838383838384 573.9797979797979,535.838383838384 564.4444444444445,535.838383838384 554.9090909090909,535.838383838384 545.3737373737374,535.838383838384 535.8383838383838,535.838383838384 526.3030303030303,535.838383838384 516.7676767676768,535.838383838384 507.2323232323232,535.838383838384 497.69696969696975,535.838383838384 488.16161616161617,535.838383838384 478.62626262626264,535.838383838384 469.09090909090907,535.838383838384 459.55555555555554,535.838383838384 450.0202020202021,535.838383838384 440.4848484848485,535.838383838384 430.949494949495,535.838383838384" fill="none" stroke="rgba(255,0,0,0.75)" stroke-width="11.327999999999996"/></g><g><polyline data-points="-0.8585858585858579,-0.2525252525252522 -0.9595959595959596,-0.2525252525252522 -1.0606060606060603,-0.2525252525252522 -1.1616161616161613,-0.2525252525252522 -1.2626262626262625,-0.2525252525252522 -1.363636363636363,-0.2525252525252522 -1.4646464646464643,-0.2525252525252522 -1.5656565656565653,-0.2525252525252522 -1.6666666666666665,-0.2525252525252522 -1.7676767676767675,-0.2525252525252522 -1.8686868686868683,-0.2525252525252522 -1.9696969696969693,-0.2525252525252522 -2.07070707070707,-0.2525252525252522 -2.1717171717171713,-0.2525252525252522 -2.2727272727272725,-0.2525252525252522 -2.3737373737373733,-0.2525252525252522 -2.474747474747474,-0.2525252525252522 -2.5757575757575752,-0.2525252525252522 -2.6767676767676765,-0.2525252525252522 -2.7777777777777777,-0.2525252525252522 -2.8787878787878785,-0.2525252525252522 -2.9797979797979792,-0.2525252525252522 -3.0808080808080804,-0.2525252525252522 -3.1818181818181817,-0.2525252525252522 -3.2828282828282824,-0.2525252525252522 -3.383838383838383,-0.2525252525252522 -3.484848484848485,-0.2525252525252522 -3.5858585858585856,-0.2525252525252522 -3.6868686868686864,-0.2525252525252522 -3.7878787878787876,-0.2525252525252522 -3.8888888888888884,-0.2525252525252522 -3.98989898989899,-0.2525252525252522" data-type="line" data-label="" points="430.949494949495,535.838383838384 421.4141414141414,535.838383838384 411.8787878787879,535.838383838384 402.34343434343435,535.838383838384 392.80808080808083,535.838383838384 383.2727272727273,535.838383838384 373.7373737373738,535.838383838384 364.2020202020202,535.838383838384 354.6666666666667,535.838383838384 345.13131313131316,535.838383838384 335.59595959595964,535.838383838384 326.0606060606061,535.838383838384 316.5252525252526,535.838383838384 306.9898989898991,535.838383838384 297.4545454545455,535.838383838384 287.91919191919203,535.838383838384 278.38383838383845,535.838383838384 268.84848484848493,535.838383838384 259.3131313131314,535.838383838384 249.77777777777783,535.838383838384 240.2424242424243,535.838383838384 230.70707070707084,535.838383838384 221.17171717171726,535.838383838384 211.63636363636374,535.838383838384 202.10101010101022,535.838383838384 192.5656565656567,535.838383838384 183.03030303030312,535.838383838384 173.4949494949496,535.838383838384 163.95959595959607,535.838383838384 154.42424242424255,535.838383838384 144.88888888888903,535.838383838384 135.35353535353545,535.838383838384" fill="none" stroke="rgba(0,0,255,0.75)" stroke-width="11.327999999999996"/></g><g><polyline data-points="-3.98989898989899,-0.2525252525252522 -4.090909090909091,-0.2525252525252522 -4.191919191919193,-0.2525252525252522 -4.292929292929293,-0.2525252525252522 -4.393939393939394,-0.2525252525252522 -4.494949494949496,-0.2525252525252522 -4.595959595959596,-0.2525252525252522 -4.696969696969697,-0.2525252525252522 -4.7979797979797985,-0.2525252525252522 -4.898989898989899,-0.2525252525252522 -5.000000000000001,-0.2525252525252522" data-type="line" data-label="" points="135.35353535353545,535.838383838384 125.81818181818193,535.838383838384 116.28282828282829,535.838383838384 106.74747474747483,535.838383838384 97.21212121212136,535.838383838384 87.67676767676772,535.838383838384 78.14141414141426,535.838383838384 68.60606060606068,535.838383838384 59.07070707070716,535.838383838384 49.53535353535369,535.838383838384 40.00000000000006,535.838383838384" fill="none" stroke="rgba(255,0,0,0.75)" stroke-width="11.327999999999996"/></g><g><polyline data-points="5.000000000000002,-2.7777777777777777 4.898989898989901,-2.6767676767676765 4.7979797979797985,-2.5757575757575752 4.696969696969697,-2.474747474747474 4.595959595959597,-2.3737373737373733 4.494949494949497,-2.2727272727272725 4.393939393939394,-2.1717171717171713 4.292929292929293,-2.07070707070707 4.191919191919193,-1.9696969696969693 4.090909090909092,-1.8686868686868683 3.989898989898992,-1.8686868686868683 3.8888888888888893,-1.8686868686868683 3.7878787878787885,-1.8686868686868683 3.6868686868686877,-1.8686868686868683 3.5858585858585874,-1.8686868686868683 3.4848484848484866,-1.8686868686868683 3.383838383838384,-1.8686868686868683 3.2828282828282833,-1.8686868686868683 3.181818181818183,-1.8686868686868683 3.080808080808082,-1.8686868686868683 2.9797979797979806,-1.8686868686868683 2.87878787878788,-1.8686868686868683 2.7777777777777786,-1.8686868686868683 2.676767676767678,-1.8686868686868683 2.575757575757577,-1.8686868686868683 2.4747474747474754,-1.8686868686868683 2.373737373737375,-1.8686868686868683 2.2727272727272734,-1.8686868686868683 2.1717171717171726,-1.8686868686868683 2.070707070707072,-1.8686868686868683 1.9696969696969702,-1.8686868686868683 1.8686868686868696,-1.8686868686868683 1.767676767676768,-1.8686868686868683 1.6666666666666674,-1.8686868686868683 1.5656565656565666,-1.8686868686868683 1.4646464646464652,-1.8686868686868683 1.3636363636363644,-1.8686868686868683 1.262626262626263,-1.8686868686868683 1.1616161616161622,-1.8686868686868683 1.0606060606060617,-1.8686868686868683 0.9595959595959602,-1.8686868686868683 0.8585858585858596,-1.8686868686868683 0.7575757575757579,-1.8686868686868683 0.6565656565656574,-1.8686868686868683 0.5555555555555567,-1.8686868686868683 0.4545454545454551,-1.8686868686868683 0.3535353535353544,-1.8686868686868683 0.2525252525252529,-1.8686868686868683 0.1515151515151522,-1.7676767676767675 0.050505050505051545,-1.7676767676767675 -0.05050505050505001,-1.7676767676767675 -0.15151515151515066,-1.7676767676767675 -0.2525252525252522,-1.7676767676767675 -0.35353535353535287,-1.7676767676767675 -0.4545454545454544,-1.7676767676767675 -0.555555555555555,-1.7676767676767675 -0.6565656565656557,-1.7676767676767675 -0.7575757575757572,-1.7676767676767675 -0.8585858585858579,-1.7676767676767675 -0.9595959595959596,-1.7676767676767675 -1.0606060606060603,-1.7676767676767675 -1.1616161616161613,-1.7676767676767675 -1.2626262626262625,-1.7676767676767675 -1.363636363636363,-1.7676767676767675 -1.4646464646464643,-1.7676767676767675 -1.5656565656565653,-1.7676767676767675 -1.6666666666666665,-1.7676767676767675 -1.7676767676767675,-1.7676767676767675 -1.8686868686868683,-1.7676767676767675 -1.9696969696969693,-1.7676767676767675 -2.07070707070707,-1.7676767676767675 -2.1717171717171713,-1.7676767676767675 -2.2727272727272725,-1.7676767676767675 -2.3737373737373733,-1.7676767676767675 -2.474747474747474,-1.7676767676767675 -2.5757575757575752,-1.7676767676767675 -2.6767676767676765,-1.7676767676767675 -2.7777777777777777,-1.7676767676767675 -2.8787878787878785,-1.7676767676767675 -2.9797979797979792,-1.7676767676767675 -3.0808080808080804,-1.7676767676767675 -3.1818181818181817,-1.7676767676767675 -3.2828282828282824,-1.7676767676767675 -3.383838383838383,-1.7676767676767675 -3.484848484848485,-1.7676767676767675 -3.5858585858585856,-1.7676767676767675 -3.6868686868686864,-1.7676767676767675 -3.7878787878787876,-1.7676767676767675 -3.8888888888888884,-1.7676767676767675 -3.98989898989899,-1.7676767676767675" data-type="line" data-label="" points="984,774.2222222222222 974.4646464646464,764.6868686868687 964.9292929292927,755.1515151515151 955.3939393939393,745.6161616161615 945.8585858585857,736.0808080808081 936.3232323232323,726.5454545454545 926.7878787878785,717.010101010101 917.2525252525251,707.4747474747475 907.7171717171716,697.939393939394 898.181818181818,688.4040404040404 888.6464646464647,688.4040404040404 879.111111111111,688.4040404040404 869.5757575757575,688.4040404040404 860.0404040404039,688.4040404040404 850.5050505050505,688.4040404040404 840.969696969697,688.4040404040404 831.4343434343433,688.4040404040404 821.8989898989898,688.4040404040404 812.3636363636363,688.4040404040404 802.8282828282828,688.4040404040404 793.2929292929292,688.4040404040404 783.7575757575758,688.4040404040404 774.2222222222222,688.4040404040404 764.6868686868686,688.4040404040404 755.1515151515151,688.4040404040404 745.6161616161615,688.4040404040404 736.0808080808081,688.4040404040404 726.5454545454545,688.4040404040404 717.0101010101009,688.4040404040404 707.4747474747475,688.4040404040404 697.9393939393939,688.4040404040404 688.4040404040404,688.4040404040404 678.8686868686868,688.4040404040404 669.3333333333333,688.4040404040404 659.7979797979798,688.4040404040404 650.2626262626262,688.4040404040404 640.7272727272727,688.4040404040404 631.1919191919192,688.4040404040404 621.6565656565656,688.4040404040404 612.1212121212121,688.4040404040404 602.5858585858585,688.4040404040404 593.0505050505051,688.4040404040404 583.5151515151515,688.4040404040404 573.9797979797979,688.4040404040404 564.4444444444445,688.4040404040404 554.9090909090909,688.4040404040404 545.3737373737374,688.4040404040404 535.8383838383838,688.4040404040404 526.3030303030303,678.8686868686868 516.7676767676768,678.8686868686868 507.2323232323232,678.8686868686868 497.69696969696975,678.8686868686868 488.16161616161617,678.8686868686868 478.62626262626264,678.8686868686868 469.09090909090907,678.8686868686868 459.55555555555554,678.8686868686868 450.0202020202021,678.8686868686868 440.4848484848485,678.8686868686868 430.949494949495,678.8686868686868 421.4141414141414,678.8686868686868 411.8787878787879,678.8686868686868 402.34343434343435,678.8686868686868 392.80808080808083,678.8686868686868 383.2727272727273,678.8686868686868 373.7373737373738,678.8686868686868 364.2020202020202,678.8686868686868 354.6666666666667,678.8686868686868 345.13131313131316,678.8686868686868 335.59595959595964,678.8686868686868 326.0606060606061,678.8686868686868 316.5252525252526,678.8686868686868 306.9898989898991,678.8686868686868 297.4545454545455,678.8686868686868 287.91919191919203,678.8686868686868 278.38383838383845,678.8686868686868 268.84848484848493,678.8686868686868 259.3131313131314,678.8686868686868 249.77777777777783,678.8686868686868 240.2424242424243,678.8686868686868 230.70707070707084,678.8686868686868 221.17171717171726,678.8686868686868 211.63636363636374,678.8686868686868 202.10101010101022,678.8686868686868 192.5656565656567,678.8686868686868 183.03030303030312,678.8686868686868 173.4949494949496,678.8686868686868 163.95959595959607,678.8686868686868 154.42424242424255,678.8686868686868 144.88888888888903,678.8686868686868 135.35353535353545,678.8686868686868" fill="none" stroke="rgba(0,0,255,0.75)" stroke-width="11.327999999999996"/></g><g><polyline data-points="-3.98989898989899,-1.7676767676767675 -4.090909090909091,-1.7676767676767675 -4.191919191919193,-1.7676767676767675 -4.292929292929293,-1.7676767676767675 -4.393939393939394,-1.7676767676767675 -4.494949494949496,-1.7676767676767675 -4.595959595959596,-1.7676767676767675 -4.696969696969697,-1.7676767676767675 -4.7979797979797985,-1.7676767676767675 -4.898989898989899,-1.7676767676767675 -5.000000000000001,-1.7676767676767675" data-type="line" data-label="" points="135.35353535353545,678.8686868686868 125.81818181818193,678.8686868686868 116.28282828282829,678.8686868686868 106.74747474747483,678.8686868686868 97.21212121212136,678.8686868686868 87.67676767676772,678.8686868686868 78.14141414141426,678.8686868686868 68.60606060606068,678.8686868686868 59.07070707070716,678.8686868686868 49.53535353535369,678.8686868686868 40.00000000000006,678.8686868686868" fill="none" stroke="rgba(255,0,0,0.75)" stroke-width="11.327999999999996"/></g><g><polyline data-points="3.8888888888888893,-5.000000000000001 3.8888888888888893,-4.898989898989899 3.8888888888888893,-4.7979797979797985 3.8888888888888893,-4.696969696969697 3.8888888888888893,-4.595959595959596 3.8888888888888893,-4.494949494949496 3.8888888888888893,-4.393939393939394 3.8888888888888893,-4.292929292929293 3.8888888888888893,-4.191919191919193 3.8888888888888893,-4.090909090909091 3.8888888888888893,-3.98989898989899 3.8888888888888893,-3.8888888888888884 3.8888888888888893,-3.7878787878787876 3.8888888888888893,-3.6868686868686864 3.8888888888888893,-3.5858585858585856 3.8888888888888893,-3.484848484848485 3.8888888888888893,-3.383838383838383 3.8888888888888893,-3.2828282828282824 3.8888888888888893,-3.1818181818181817 3.8888888888888893,-3.0808080808080804 3.8888888888888893,-2.9797979797979792 3.8888888888888893,-2.8787878787878785 3.8888888888888893,-2.7777777777777777 3.8888888888888893,-2.6767676767676765 3.8888888888888893,-2.5757575757575752 3.8888888888888893,-2.474747474747474 3.8888888888888893,-2.3737373737373733 3.8888888888888893,-2.2727272727272725" data-type="line" data-label="" points="879.111111111111,984 879.111111111111,974.4646464646464 879.111111111111,964.9292929292928 879.111111111111,955.3939393939394 879.111111111111,945.8585858585858 879.111111111111,936.3232323232323 879.111111111111,926.7878787878788 879.111111111111,917.2525252525252 879.111111111111,907.7171717171718 879.111111111111,898.1818181818181 879.111111111111,888.6464646464647 879.111111111111,879.1111111111111 879.111111111111,869.5757575757575 879.111111111111,860.0404040404039 879.111111111111,850.5050505050505 879.111111111111,840.969696969697 879.111111111111,831.4343434343434 879.111111111111,821.8989898989898 879.111111111111,812.3636363636363 879.111111111111,802.8282828282828 879.111111111111,793.2929292929292 879.111111111111,783.7575757575758 879.111111111111,774.2222222222222 879.111111111111,764.6868686868687 879.111111111111,755.1515151515151 879.111111111111,745.6161616161615 879.111111111111,736.0808080808081 879.111111111111,726.5454545454545" fill="none" stroke="rgba(0,0,255,0.75)" stroke-width="11.327999999999996"/></g><g><polyline data-points="3.8888888888888893,-2.2727272727272725 3.8888888888888893,-2.1717171717171713 3.8888888888888893,-2.07070707070707 3.8888888888888893,-1.9696969696969693 3.8888888888888893,-1.8686868686868683 3.8888888888888893,-1.7676767676767675 3.8888888888888893,-1.6666666666666665 3.8888888888888893,-1.5656565656565653 3.8888888888888893,-1.4646464646464643" data-type="line" data-label="" points="879.111111111111,726.5454545454545 879.111111111111,717.010101010101 879.111111111111,707.4747474747475 879.111111111111,697.939393939394 879.111111111111,688.4040404040404 879.111111111111,678.8686868686868 879.111111111111,669.3333333333334 879.111111111111,659.7979797979798 879.111111111111,650.2626262626263" fill="none" stroke="rgba(255,0,0,0.75)" stroke-width="11.327999999999996"/></g><g><polyline data-points="3.8888888888888893,-1.4646464646464643 3.989898989898992,-1.363636363636363 4.090909090909092,-1.2626262626262625 4.191919191919193,-1.1616161616161613 4.292929292929293,-1.0606060606060603 4.191919191919193,-0.9595959595959596 4.191919191919193,-0.8585858585858579 4.191919191919193,-0.7575757575757572 4.191919191919193,-0.6565656565656557 4.191919191919193,-0.555555555555555 4.191919191919193,-0.4545454545454544 4.191919191919193,-0.35353535353535287 4.191919191919193,-0.2525252525252522 4.191919191919193,-0.15151515151515066 4.191919191919193,-0.05050505050505001 4.191919191919193,0.050505050505051545 4.191919191919193,0.1515151515151522 4.191919191919193,0.2525252525252529 4.191919191919193,0.3535353535353544 4.191919191919193,0.4545454545454551 4.191919191919193,0.5555555555555567 4.191919191919193,0.6565656565656574 4.191919191919193,0.7575757575757579 4.191919191919193,0.8585858585858596 4.191919191919193,0.9595959595959602 4.191919191919193,1.0606060606060617 4.191919191919193,1.1616161616161622 4.191919191919193,1.262626262626263 4.191919191919193,1.3636363636363644 4.191919191919193,1.4646464646464652 4.191919191919193,1.5656565656565666 4.191919191919193,1.6666666666666674 4.191919191919193,1.767676767676768 4.191919191919193,1.8686868686868696 4.191919191919193,1.9696969696969702 4.191919191919193,2.070707070707072 4.191919191919193,2.1717171717171726 4.191919191919193,2.2727272727272734 4.191919191919193,2.373737373737375 4.191919191919193,2.4747474747474754 4.191919191919193,2.575757575757577 4.191919191919193,2.676767676767678 4.191919191919193,2.7777777777777786 4.191919191919193,2.87878787878788 4.191919191919193,2.9797979797979806 4.191919191919193,3.080808080808082 4.191919191919193,3.181818181818183 4.191919191919193,3.2828282828282833 4.191919191919193,3.383838383838384 4.191919191919193,3.4848484848484866 4.191919191919193,3.5858585858585874 4.090909090909092,3.6868686868686877 3.989898989898992,3.7878787878787885" data-type="line" data-label="" points="879.111111111111,650.2626262626263 888.6464646464647,640.7272727272727 898.181818181818,631.1919191919193 907.7171717171716,621.6565656565657 917.2525252525251,612.1212121212121 907.7171717171716,602.5858585858587 907.7171717171716,593.0505050505051 907.7171717171716,583.5151515151516 907.7171717171716,573.979797979798 907.7171717171716,564.4444444444445 907.7171717171716,554.909090909091 907.7171717171716,545.3737373737374 907.7171717171716,535.838383838384 907.7171717171716,526.3030303030304 907.7171717171716,516.7676767676768 907.7171717171716,507.23232323232327 907.7171717171716,497.69696969696975 907.7171717171716,488.1616161616163 907.7171717171716,478.6262626262627 907.7171717171716,469.0909090909092 907.7171717171716,459.5555555555556 907.7171717171716,450.0202020202021 907.7171717171716,440.4848484848486 907.7171717171716,430.94949494949503 907.7171717171716,421.4141414141415 907.7171717171716,411.87878787878793 907.7171717171716,402.3434343434344 907.7171717171716,392.80808080808094 907.7171717171716,383.27272727272737 907.7171717171716,373.73737373737384 907.7171717171716,364.2020202020203 907.7171717171716,354.66666666666674 907.7171717171716,345.1313131313133 907.7171717171716,335.5959595959597 907.7171717171716,326.06060606060623 907.7171717171716,316.5252525252526 907.7171717171716,306.9898989898991 907.7171717171716,297.4545454545456 907.7171717171716,287.91919191919203 907.7171717171716,278.38383838383857 907.7171717171716,268.84848484848493 907.7171717171716,259.3131313131314 907.7171717171716,249.77777777777794 907.7171717171716,240.24242424242436 907.7171717171716,230.70707070707084 907.7171717171716,221.17171717171726 907.7171717171716,211.63636363636374 907.7171717171716,202.10101010101027 907.7171717171716,192.56565656565675 907.7171717171716,183.03030303030312 907.7171717171716,173.4949494949496 898.181818181818,163.95959595959613 888.6464646464647,154.4242424242426" fill="none" stroke="rgba(0,0,255,0.75)" stroke-width="11.327999999999996"/></g><g><polyline data-points="3.989898989898992,3.7878787878787885 4.090909090909092,3.8888888888888893 4.191919191919193,3.989898989898992 4.292929292929293,4.090909090909092 4.393939393939394,4.191919191919193 4.494949494949497,4.292929292929293 4.393939393939394,4.393939393939394 4.393939393939394,4.494949494949497 4.393939393939394,4.595959595959597 4.393939393939394,4.696969696969697 4.393939393939394,4.7979797979797985 4.393939393939394,4.898989898989901 4.494949494949497,5.000000000000002" data-type="line" data-label="" points="888.6464646464647,154.4242424242426 898.181818181818,144.88888888888908 907.7171717171716,135.35353535353545 917.2525252525251,125.81818181818198 926.7878787878785,116.28282828282846 936.3232323232323,106.747474747475 926.7878787878785,97.21212121212153 926.7878787878785,87.67676767676778 926.7878787878785,78.14141414141432 926.7878787878785,68.60606060606085 926.7878787878785,59.07070707070733 926.7878787878785,49.53535353535369 936.3232323232323,40.000000000000114" fill="none" stroke="rgba(255,0,0,0.75)" stroke-width="11.327999999999996"/></g><g><rect data-type="rect" data-label="" data-x="0" data-y="0" x="40.000000000000114" y="40.000000000000284" width="943.9999999999997" height="943.9999999999998" fill="none" stroke="gray" stroke-width="0.010593220338983056"/></g><g><rect data-type="rect" data-label="" data-x="0" data-y="0" x="40.000000000000114" y="40.000000000000284" width="943.9999999999997" height="943.9999999999998" fill="none" stroke="rgba(15, 23, 42, 0.8)" stroke-width="0.010593220338983056"/></g><circle data-type="circle" data-label="" data-x="3.989898989898992" data-y="-1.0606060606060603" cx="888.6464646464647" cy="612.1212121212121" r="14.159999999999995" fill="rgba(0,0,0,0.3)" stroke="black" stroke-width="0.010593220338983056"/><circle data-type="circle" data-label="" data-x="-3.6868686868686864" data-y="-3.98989898989899" cx="163.95959595959607" cy="888.6464646464647" r="14.159999999999995" fill="rgba(0,0,0,0.3)" stroke="black" stroke-width="0.010593220338983056"/><circle data-type="circle" data-label="" data-x="-0.8585858585858579" data-y="-0.2525252525252522" cx="430.949494949495" cy="535.838383838384" r="14.159999999999995" fill="rgba(0,0,0,0.3)" stroke="black" stroke-width="0.010593220338983056"/><circle data-type="circle" data-label="" data-x="-3.98989898989899" data-y="-0.2525252525252522" cx="135.35353535353545" cy="535.838383838384" r="14.159999999999995" fill="rgba(0,0,0,0.3)" stroke="black" stroke-width="0.010593220338983056"/><circle data-type="circle" data-label="" data-x="-3.98989898989899" data-y="-1.7676767676767675" cx="135.35353535353545" cy="678.8686868686868" r="14.159999999999995" fill="rgba(0,0,0,0.3)" stroke="black" stroke-width="0.010593220338983056"/><circle data-type="circle" data-label="" data-x="3.8888888888888893" data-y="-2.2727272727272725" cx="879.111111111111" cy="726.5454545454545" r="14.159999999999995" fill="rgba(0,0,0,0.3)" stroke="black" stroke-width="0.010593220338983056"/><circle data-type="circle" data-label="" data-x="3.8888888888888893" data-y="-1.4646464646464643" cx="879.111111111111" cy="650.2626262626263" r="14.159999999999995" fill="rgba(0,0,0,0.3)" stroke="black" stroke-width="0.010593220338983056"/><circle data-type="circle" data-label="" data-x="3.989898989898992" data-y="3.7878787878787885" cx="888.6464646464647" cy="154.4242424242426" r="14.159999999999995" fill="rgba(0,0,0,0.3)" stroke="black" stroke-width="0.010593220338983056"/><g id="crosshair" style="display: none"><line id="crosshair-h" y1="0" y2="1024" stroke="#666" stroke-width="0.5"/><line id="crosshair-v" x1="0" x2="1024" stroke="#666" stroke-width="0.5"/><text id="coordinates" font-family="monospace" font-size="12" fill="#666"></text></g><script><![CDATA[
              document.currentScript.parentElement.addEventListener('mousemove', (e) => {
                const svg = e.currentTarget;
                const rect = svg.getBoundingClientRect();
                const x = e.clientX - rect.left;
                const y = e.clientY - rect.top;
                const crosshair = svg.getElementById('crosshair');
                const h = svg.getElementById('crosshair-h');
                const v = svg.getElementById('crosshair-v');
                const coords = svg.getElementById('coordinates');
                
                crosshair.style.display = 'block';
                h.setAttribute('x1', '0');
                h.setAttribute('x2', '1024');
                h.setAttribute('y1', y);
                h.setAttribute('y2', y);
                v.setAttribute('x1', x);
                v.setAttribute('x2', x);
                v.setAttribute('y1', '0');
                v.setAttribute('y2', '1024');

                // Calculate real coordinates using inverse transformation
                const matrix = {"a":94.39999999999996,"c":0,"e":511.99999999999994,"b":0,"d":-94.39999999999996,"f":512.0000000000001};
                // Manually invert and apply the affine transform
                // Since we only use translate and scale, we can directly compute:
                // x' = (x - tx) / sx
                // y' = (y - ty) / sy
                const sx = matrix.a;
                const sy = matrix.d;
                const tx = matrix.e; 
                const ty = matrix.f;
                const realPoint = {
                  x: (x - tx) / sx,
                  y: (y - ty) / sy // Flip y back since we used negative scale
                }
                
                coords.textContent = `(${realPoint.x.toFixed(2)}, ${realPoint.y.toFixed(2)})`;
                coords.setAttribute('x', (x + 5).toString());
                coords.setAttribute('y', (y - 5).toString());
              });
              document.currentScript.parentElement.addEventListener('mouseleave', () => {
                document.currentScript.parentElement.getElementById('crosshair').style.display = 'none';
              });
            ]]></script></svg>