<svg width="1024" height="1024" viewBox="0 0 1024 1024" xmlns="http://www.w3.org/2000/svg"><rect width="100%" height="100%" fill="white"/><g><circle data-type="point" data-label="conn_000" data-x="5" data-y="0.8" cx="983.9999999999998" cy="436.48000000000013" r="14.16" fill="blue"/></g><g><circle data-type="point" data-label="conn_000" data-x="-5" data-y="1.04" cx="40.000000000000114" cy="413.8240000000002" r="14.16" fill="blue"/></g><g><circle data-type="point" data-label="conn_001" data-x="-5" data-y="0.7000000000000001" cx="40.000000000000114" cy="445.92000000000013" r="14.16" fill="blue"/></g><g><circle data-type="point" data-label="conn_001" data-x="-0.26" data-y="5" cx="487.45599999999996" cy="40.000000000000284" r="14.16" fill="blue"/></g><g><circle data-type="point" data-label="conn_002" data-x="3.3000000000000003" data-y="5" cx="823.5199999999999" cy="40.000000000000284" r="14.16" fill="red"/></g><g><circle data-type="point" data-label="conn_002" data-x="2.84" data-y="-5" cx="780.0959999999998" cy="984" r="14.16" fill="blue"/></g><g><polyline data-points="-5.000000000000001,0.7575757575757579 -4.898989898989899,0.8585858585858596 -4.7979797979797985,0.9595959595959602 -4.696969696969697,1.0606060606060617 -4.595959595959596,1.1616161616161622 -4.494949494949496,1.262626262626263 -4.393939393939394,1.3636363636363644 -4.292929292929293,1.4646464646464652 -4.191919191919193,1.5656565656565666 -4.090909090909091,1.6666666666666674 -3.98989898989899,1.767676767676768 -3.8888888888888884,1.8686868686868696 -3.7878787878787876,1.9696969696969702 -3.6868686868686864,2.070707070707072 -3.5858585858585856,2.1717171717171726 -3.484848484848485,2.2727272727272734 -3.383838383838383,2.373737373737375 -3.2828282828282824,2.4747474747474754 -3.1818181818181817,2.575757575757577 -3.0808080808080804,2.676767676767678 -2.9797979797979792,2.7777777777777786 -2.8787878787878785,2.87878787878788 -2.7777777777777777,2.9797979797979806 -2.6767676767676765,3.080808080808082 -2.5757575757575752,3.181818181818183 -2.474747474747474,3.2828282828282833 -2.3737373737373733,3.383838383838384 -2.2727272727272725,3.4848484848484866 -2.1717171717171713,3.5858585858585874 -2.07070707070707,3.6868686868686877 -1.9696969696969693,3.7878787878787885 -1.8686868686868683,3.8888888888888893 -1.7676767676767675,3.989898989898992 -1.6666666666666665,4.090909090909092 -1.5656565656565653,4.191919191919193 -1.4646464646464643,4.292929292929293 -1.363636363636363,4.393939393939394 -1.2626262626262625,4.494949494949497 -1.1616161616161613,4.595959595959597 -1.0606060606060603,4.696969696969697 -0.9595959595959596,4.7979797979797985 -0.8585858585858579,4.898989898989901 -0.7575757575757572,5.000000000000002 -0.6565656565656557,5.000000000000002 -0.555555555555555,5.000000000000002 -0.4545454545454544,5.000000000000002 -0.35353535353535287,5.000000000000002 -0.2525252525252522,5.000000000000002" data-type="line" data-label="" points="40.00000000000006,440.4848484848486 49.53535353535369,430.94949494949503 59.07070707070716,421.4141414141415 68.60606060606068,411.87878787878793 78.14141414141426,402.3434343434344 87.67676767676772,392.80808080808094 97.21212121212136,383.27272727272737 106.74747474747483,373.73737373737384 116.28282828282829,364.2020202020203 125.81818181818193,354.66666666666674 135.35353535353545,345.1313131313133 144.88888888888903,335.5959595959597 154.42424242424255,326.06060606060623 163.95959595959607,316.5252525252526 173.4949494949496,306.9898989898991 183.03030303030312,297.4545454545456 192.5656565656567,287.91919191919203 202.10101010101022,278.38383838383857 211.63636363636374,268.84848484848493 221.17171717171726,259.3131313131314 230.70707070707084,249.77777777777794 240.2424242424243,240.24242424242436 249.77777777777783,230.70707070707084 259.3131313131314,221.17171717171726 268.84848484848493,211.63636363636374 278.38383838383845,202.10101010101027 287.91919191919203,192.56565656565675 297.4545454545455,183.03030303030312 306.9898989898991,173.4949494949496 316.5252525252526,163.95959595959613 326.0606060606061,154.4242424242426 335.59595959595964,144.88888888888908 345.13131313131316,135.35353535353545 354.6666666666667,125.81818181818198 364.2020202020202,116.28282828282846 373.7373737373738,106.747474747475 383.2727272727273,97.21212121212153 392.80808080808083,87.67676767676778 402.34343434343435,78.14141414141432 411.8787878787879,68.60606060606085 421.4141414141414,59.07070707070733 430.949494949495,49.53535353535369 440.4848484848485,40.000000000000114 450.0202020202021,40.000000000000114 459.55555555555554,40.000000000000114 469.09090909090907,40.000000000000114 478.62626262626264,40.000000000000114 488.16161616161617,40.000000000000114" fill="none" stroke="rgba(0,0,255,0.75)" stroke-width="11.327999999999996"/></g><g><polyline data-points="5.000000000000002,0.7575757575757579 4.898989898989901,0.8585858585858596 4.7979797979797985,0.9595959595959602 4.696969696969697,1.0606060606060617 4.595959595959597,1.0606060606060617 4.494949494949497,1.0606060606060617 4.393939393939394,1.0606060606060617 4.292929292929293,1.0606060606060617 4.191919191919193,1.0606060606060617 4.090909090909092,1.0606060606060617 3.989898989898992,1.0606060606060617 3.8888888888888893,1.0606060606060617 3.7878787878787885,1.0606060606060617 3.6868686868686877,1.0606060606060617 3.5858585858585874,1.0606060606060617 3.4848484848484866,1.0606060606060617 3.383838383838384,1.0606060606060617 3.2828282828282833,1.0606060606060617 3.181818181818183,1.0606060606060617 3.080808080808082,1.0606060606060617 2.9797979797979806,1.0606060606060617 2.87878787878788,1.0606060606060617 2.7777777777777786,1.0606060606060617 2.676767676767678,1.0606060606060617 2.575757575757577,1.0606060606060617 2.4747474747474754,1.0606060606060617 2.373737373737375,1.0606060606060617 2.2727272727272734,1.0606060606060617 2.1717171717171726,1.0606060606060617 2.070707070707072,1.0606060606060617 1.9696969696969702,1.0606060606060617 1.8686868686868696,1.0606060606060617 1.767676767676768,1.0606060606060617 1.6666666666666674,1.0606060606060617 1.5656565656565666,1.0606060606060617 1.4646464646464652,1.0606060606060617 1.3636363636363644,1.0606060606060617 1.262626262626263,1.0606060606060617 1.1616161616161622,1.0606060606060617 1.0606060606060617,1.0606060606060617 0.9595959595959602,1.0606060606060617 0.8585858585858596,1.0606060606060617 0.7575757575757579,1.0606060606060617 0.6565656565656574,1.0606060606060617 0.5555555555555567,1.0606060606060617 0.4545454545454551,1.0606060606060617 0.3535353535353544,1.0606060606060617 0.2525252525252529,1.0606060606060617 0.1515151515151522,1.0606060606060617 0.050505050505051545,1.0606060606060617 -0.05050505050505001,1.0606060606060617 -0.15151515151515066,1.0606060606060617 -0.2525252525252522,1.0606060606060617 -0.35353535353535287,1.0606060606060617 -0.4545454545454544,1.0606060606060617 -0.555555555555555,1.0606060606060617 -0.6565656565656557,1.0606060606060617 -0.7575757575757572,1.0606060606060617 -0.8585858585858579,1.0606060606060617 -0.9595959595959596,1.0606060606060617 -1.0606060606060603,1.0606060606060617 -1.1616161616161613,1.0606060606060617 -1.2626262626262625,1.0606060606060617 -1.363636363636363,1.0606060606060617 -1.4646464646464643,1.0606060606060617 -1.5656565656565653,1.0606060606060617 -1.6666666666666665,1.0606060606060617 -1.7676767676767675,1.0606060606060617 -1.8686868686868683,1.0606060606060617 -1.9696969696969693,1.0606060606060617 -2.07070707070707,1.0606060606060617 -2.1717171717171713,1.0606060606060617 -2.2727272727272725,1.0606060606060617 -2.3737373737373733,1.0606060606060617 -2.474747474747474,1.0606060606060617 -2.5757575757575752,1.0606060606060617 -2.6767676767676765,1.0606060606060617 -2.7777777777777777,1.0606060606060617" data-type="line" data-label="" points="984,440.4848484848486 974.4646464646464,430.94949494949503 964.9292929292927,421.4141414141415 955.3939393939393,411.87878787878793 945.8585858585857,411.87878787878793 936.3232323232323,411.87878787878793 926.7878787878785,411.87878787878793 917.2525252525251,411.87878787878793 907.7171717171716,411.87878787878793 898.181818181818,411.87878787878793 888.6464646464647,411.87878787878793 879.111111111111,411.87878787878793 869.5757575757575,411.87878787878793 860.0404040404039,411.87878787878793 850.5050505050505,411.87878787878793 840.969696969697,411.87878787878793 831.4343434343433,411.87878787878793 821.8989898989898,411.87878787878793 812.3636363636363,411.87878787878793 802.8282828282828,411.87878787878793 793.2929292929292,411.87878787878793 783.7575757575758,411.87878787878793 774.2222222222222,411.87878787878793 764.6868686868686,411.87878787878793 755.1515151515151,411.87878787878793 745.6161616161615,411.87878787878793 736.0808080808081,411.87878787878793 726.5454545454545,411.87878787878793 717.0101010101009,411.87878787878793 707.4747474747475,411.87878787878793 697.9393939393939,411.87878787878793 688.4040404040404,411.87878787878793 678.8686868686868,411.87878787878793 669.3333333333333,411.87878787878793 659.7979797979798,411.87878787878793 650.2626262626262,411.87878787878793 640.7272727272727,411.87878787878793 631.1919191919192,411.87878787878793 621.6565656565656,411.87878787878793 612.1212121212121,411.87878787878793 602.5858585858585,411.87878787878793 593.0505050505051,411.87878787878793 583.5151515151515,411.87878787878793 573.9797979797979,411.87878787878793 564.4444444444445,411.87878787878793 554.9090909090909,411.87878787878793 545.3737373737374,411.87878787878793 535.8383838383838,411.87878787878793 526.3030303030303,411.87878787878793 516.7676767676768,411.87878787878793 507.2323232323232,411.87878787878793 497.69696969696975,411.87878787878793 488.16161616161617,411.87878787878793 478.62626262626264,411.87878787878793 469.09090909090907,411.87878787878793 459.55555555555554,411.87878787878793 450.0202020202021,411.87878787878793 440.4848484848485,411.87878787878793 430.949494949495,411.87878787878793 421.4141414141414,411.87878787878793 411.8787878787879,411.87878787878793 402.34343434343435,411.87878787878793 392.80808080808083,411.87878787878793 383.2727272727273,411.87878787878793 373.7373737373738,411.87878787878793 364.2020202020202,411.87878787878793 354.6666666666667,411.87878787878793 345.13131313131316,411.87878787878793 335.59595959595964,411.87878787878793 326.0606060606061,411.87878787878793 316.5252525252526,411.87878787878793 306.9898989898991,411.87878787878793 297.4545454545455,411.87878787878793 287.91919191919203,411.87878787878793 278.38383838383845,411.87878787878793 268.84848484848493,411.87878787878793 259.3131313131314,411.87878787878793 249.77777777777783,411.87878787878793" fill="none" stroke="rgba(0,0,255,0.75)" stroke-width="11.327999999999996"/></g><g><polyline data-points="-2.7777777777777777,1.0606060606060617 -2.8787878787878785,1.1616161616161622 -2.9797979797979792,1.262626262626263 -3.0808080808080804,1.3636363636363644 -3.1818181818181817,1.4646464646464652 -3.2828282828282824,1.5656565656565666 -3.383838383838383,1.6666666666666674 -3.484848484848485,1.767676767676768 -3.5858585858585856,1.8686868686868696 -3.6868686868686864,1.9696969696969702 -3.7878787878787876,2.070707070707072 -3.8888888888888884,2.1717171717171726 -3.98989898989899,2.2727272727272734" data-type="line" data-label="" points="249.77777777777783,411.87878787878793 240.2424242424243,402.3434343434344 230.70707070707084,392.80808080808094 221.17171717171726,383.27272727272737 211.63636363636374,373.73737373737384 202.10101010101022,364.2020202020203 192.5656565656567,354.66666666666674 183.03030303030312,345.1313131313133 173.4949494949496,335.5959595959597 163.95959595959607,326.06060606060623 154.42424242424255,316.5252525252526 144.88888888888903,306.9898989898991 135.35353535353545,297.4545454545456" fill="none" stroke="rgba(255,0,0,0.75)" stroke-width="11.327999999999996"/></g><g><polyline data-points="-3.98989898989899,2.2727272727272734 -4.090909090909091,2.1717171717171726 -4.191919191919193,2.070707070707072 -4.292929292929293,1.9696969696969702 -4.393939393939394,1.8686868686868696 -4.494949494949496,1.767676767676768 -4.595959595959596,1.6666666666666674 -4.696969696969697,1.5656565656565666 -4.7979797979797985,1.4646464646464652 -4.898989898989899,1.3636363636363644 -5.000000000000001,1.262626262626263 -5.000000000000001,1.1616161616161622 -5.000000000000001,1.0606060606060617" data-type="line" data-label="" points="135.35353535353545,297.4545454545456 125.81818181818193,306.9898989898991 116.28282828282829,316.5252525252526 106.74747474747483,326.06060606060623 97.21212121212136,335.5959595959597 87.67676767676772,345.1313131313133 78.14141414141426,354.66666666666674 68.60606060606068,364.2020202020203 59.07070707070716,373.73737373737384 49.53535353535369,383.27272727272737 40.00000000000006,392.80808080808094 40.00000000000006,402.3434343434344 40.00000000000006,411.87878787878793" fill="none" stroke="rgba(0,0,255,0.75)" stroke-width="11.327999999999996"/></g><g><polyline data-points="3.383838383838384,5.000000000000002 3.2828282828282833,4.898989898989901 3.181818181818183,4.7979797979797985 3.080808080808082,4.696969696969697 2.9797979797979806,4.595959595959597 2.87878787878788,4.494949494949497 2.87878787878788,4.393939393939394 2.87878787878788,4.292929292929293 2.87878787878788,4.191919191919193 2.87878787878788,4.090909090909092 2.87878787878788,3.989898989898992 2.87878787878788,3.8888888888888893 2.87878787878788,3.7878787878787885 2.87878787878788,3.6868686868686877 2.87878787878788,3.5858585858585874 2.87878787878788,3.4848484848484866 2.87878787878788,3.383838383838384 2.87878787878788,3.2828282828282833 2.87878787878788,3.181818181818183 2.87878787878788,3.080808080808082 2.87878787878788,2.9797979797979806 2.87878787878788,2.87878787878788 2.87878787878788,2.7777777777777786 2.87878787878788,2.676767676767678 2.87878787878788,2.575757575757577 2.87878787878788,2.4747474747474754 2.87878787878788,2.373737373737375 2.87878787878788,2.2727272727272734 2.87878787878788,2.1717171717171726 2.87878787878788,2.070707070707072 2.87878787878788,1.9696969696969702 2.87878787878788,1.8686868686868696 2.87878787878788,1.767676767676768 2.87878787878788,1.6666666666666674 2.87878787878788,1.5656565656565666 2.87878787878788,1.4646464646464652 2.87878787878788,1.3636363636363644 2.87878787878788,1.262626262626263 2.87878787878788,1.1616161616161622 2.87878787878788,1.0606060606060617 2.87878787878788,0.9595959595959602 2.87878787878788,0.8585858585858596 2.87878787878788,0.7575757575757579 2.87878787878788,0.6565656565656574 2.87878787878788,0.5555555555555567 2.87878787878788,0.4545454545454551 2.87878787878788,0.3535353535353544 2.87878787878788,0.2525252525252529 2.87878787878788,0.1515151515151522 2.87878787878788,0.050505050505051545 2.87878787878788,-0.05050505050505001 2.87878787878788,-0.15151515151515066 2.87878787878788,-0.2525252525252522 2.87878787878788,-0.35353535353535287 2.87878787878788,-0.4545454545454544 2.87878787878788,-0.555555555555555 2.87878787878788,-0.6565656565656557 2.87878787878788,-0.7575757575757572 2.87878787878788,-0.8585858585858579 2.87878787878788,-0.9595959595959596 2.87878787878788,-1.0606060606060603 2.87878787878788,-1.1616161616161613 2.87878787878788,-1.2626262626262625 2.87878787878788,-1.363636363636363 2.87878787878788,-1.4646464646464643 2.87878787878788,-1.5656565656565653 2.87878787878788,-1.6666666666666665 2.87878787878788,-1.7676767676767675 2.87878787878788,-1.8686868686868683 2.87878787878788,-1.9696969696969693 2.87878787878788,-2.07070707070707 2.87878787878788,-2.1717171717171713 2.87878787878788,-2.2727272727272725 2.87878787878788,-2.3737373737373733 2.87878787878788,-2.474747474747474 2.87878787878788,-2.5757575757575752 2.87878787878788,-2.6767676767676765 2.87878787878788,-2.7777777777777777 2.87878787878788,-2.8787878787878785 2.87878787878788,-2.9797979797979792 2.87878787878788,-3.0808080808080804 2.87878787878788,-3.1818181818181817 2.87878787878788,-3.2828282828282824 2.87878787878788,-3.383838383838383 2.87878787878788,-3.484848484848485 2.87878787878788,-3.5858585858585856 2.87878787878788,-3.6868686868686864 2.87878787878788,-3.7878787878787876 2.87878787878788,-3.8888888888888884 2.87878787878788,-3.98989898989899" data-type="line" data-label="" points="831.4343434343433,40.000000000000114 821.8989898989898,49.53535353535369 812.3636363636363,59.07070707070733 802.8282828282828,68.60606060606085 793.2929292929292,78.14141414141432 783.7575757575758,87.67676767676778 783.7575757575758,97.21212121212153 783.7575757575758,106.747474747475 783.7575757575758,116.28282828282846 783.7575757575758,125.81818181818198 783.7575757575758,135.35353535353545 783.7575757575758,144.88888888888908 783.7575757575758,154.4242424242426 783.7575757575758,163.95959595959613 783.7575757575758,173.4949494949496 783.7575757575758,183.03030303030312 783.7575757575758,192.56565656565675 783.7575757575758,202.10101010101027 783.7575757575758,211.63636363636374 783.7575757575758,221.17171717171726 783.7575757575758,230.70707070707084 783.7575757575758,240.24242424242436 783.7575757575758,249.77777777777794 783.7575757575758,259.3131313131314 783.7575757575758,268.84848484848493 783.7575757575758,278.38383838383857 783.7575757575758,287.91919191919203 783.7575757575758,297.4545454545456 783.7575757575758,306.9898989898991 783.7575757575758,316.5252525252526 783.7575757575758,326.06060606060623 783.7575757575758,335.5959595959597 783.7575757575758,345.1313131313133 783.7575757575758,354.66666666666674 783.7575757575758,364.2020202020203 783.7575757575758,373.73737373737384 783.7575757575758,383.27272727272737 783.7575757575758,392.80808080808094 783.7575757575758,402.3434343434344 783.7575757575758,411.87878787878793 783.7575757575758,421.4141414141415 783.7575757575758,430.94949494949503 783.7575757575758,440.4848484848486 783.7575757575758,450.0202020202021 783.7575757575758,459.5555555555556 783.7575757575758,469.0909090909092 783.7575757575758,478.6262626262627 783.7575757575758,488.1616161616163 783.7575757575758,497.69696969696975 783.7575757575758,507.23232323232327 783.7575757575758,516.7676767676768 783.7575757575758,526.3030303030304 783.7575757575758,535.838383838384 783.7575757575758,545.3737373737374 783.7575757575758,554.909090909091 783.7575757575758,564.4444444444445 783.7575757575758,573.979797979798 783.7575757575758,583.5151515151516 783.7575757575758,593.0505050505051 783.7575757575758,602.5858585858587 783.7575757575758,612.1212121212121 783.7575757575758,621.6565656565657 783.7575757575758,631.1919191919193 783.7575757575758,640.7272727272727 783.7575757575758,650.2626262626263 783.7575757575758,659.7979797979798 783.7575757575758,669.3333333333334 783.7575757575758,678.8686868686868 783.7575757575758,688.4040404040404 783.7575757575758,697.939393939394 783.7575757575758,707.4747474747475 783.7575757575758,717.010101010101 783.7575757575758,726.5454545454545 783.7575757575758,736.0808080808081 783.7575757575758,745.6161616161615 783.7575757575758,755.1515151515151 783.7575757575758,764.6868686868687 783.7575757575758,774.2222222222222 783.7575757575758,783.7575757575758 783.7575757575758,793.2929292929292 783.7575757575758,802.8282828282828 783.7575757575758,812.3636363636363 783.7575757575758,821.8989898989898 783.7575757575758,831.4343434343434 783.7575757575758,840.969696969697 783.7575757575758,850.5050505050505 783.7575757575758,860.0404040404039 783.7575757575758,869.5757575757575 783.7575757575758,879.1111111111111 783.7575757575758,888.6464646464647" fill="none" stroke="rgba(255,0,0,0.75)" stroke-width="11.327999999999996"/></g><g><polyline data-points="2.87878787878788,-3.98989898989899 2.87878787878788,-4.090909090909091 2.87878787878788,-4.191919191919193 2.87878787878788,-4.292929292929293 2.87878787878788,-4.393939393939394 2.87878787878788,-4.494949494949496 2.87878787878788,-4.595959595959596 2.87878787878788,-4.696969696969697 2.87878787878788,-4.7979797979797985 2.87878787878788,-4.898989898989899 2.87878787878788,-5.000000000000001" data-type="line" data-label="" points="783.7575757575758,888.6464646464647 783.7575757575758,898.1818181818181 783.7575757575758,907.7171717171718 783.7575757575758,917.2525252525252 783.7575757575758,926.7878787878788 783.7575757575758,936.3232323232323 783.7575757575758,945.8585858585858 783.7575757575758,955.3939393939394 783.7575757575758,964.9292929292928 783.7575757575758,974.4646464646464 783.7575757575758,984" fill="none" stroke="rgba(0,0,255,0.75)" stroke-width="11.327999999999996"/></g><g><rect data-type="rect" data-label="" data-x="0" data-y="0" x="40.000000000000114" y="40.000000000000284" width="943.9999999999997" height="943.9999999999998" fill="none" stroke="gray" stroke-width="0.010593220338983056"/></g><g><rect data-type="rect" data-label="" data-x="0" data-y="0" x="40.000000000000114" y="40.000000000000284" width="943.9999999999997" height="943.9999999999998" fill="none" stroke="rgba(15, 23, 42, 0.8)" stroke-width="0.010593220338983056"/></g><circle data-type="circle" data-label="" data-x="-2.7777777777777777" data-y="1.0606060606060617" cx="249.77777777777783" cy="411.87878787878793" r="14.159999999999995" fill="rgba(0,0,0,0.3)" stroke="black" stroke-width="0.010593220338983056"/><circle data-type="circle" data-label="" data-x="-3.98989898989899" data-y="2.2727272727272734" cx="135.35353535353545" cy="297.4545454545456" r="14.159999999999995" fill="rgba(0,0,0,0.3)" stroke="black" stroke-width="0.010593220338983056"/><circle data-type="circle" data-label="" data-x="2.87878787878788" data-y="-3.98989898989899" cx="783.7575757575758" cy="888.6464646464647" r="14.159999999999995" fill="rgba(0,0,0,0.3)" stroke="black" stroke-width="0.010593220338983056"/><g id="crosshair" style="display: none"><line id="crosshair-h" y1="0" y2="1024" stroke="#666" stroke-width="0.5"/><line id="crosshair-v" x1="0" x2="1024" stroke="#666" stroke-width="0.5"/><text id="coordinates" font-family="monospace" font-size="12" fill="#666"></text></g><script><![CDATA[
              document.currentScript.parentElement.addEventListener('mousemove', (e) => {
                const svg = e.currentTarget;
                const rect = svg.getBoundingClientRect();
                const x = e.clientX - rect.left;
                const y = e.clientY - rect.top;
                const crosshair = svg.getElementById('crosshair');
                const h = svg.getElementById('crosshair-h');
                const v = svg.getElementById('crosshair-v');
                const coords = svg.getElementById('coordinates');
                
                crosshair.style.display = 'block';
                h.setAttribute('x1', '0');
                h.setAttribute('x2', '1024');
                h.setAttribute('y1', y);
                h.setAttribute('y2', y);
                v.setAttribute('x1', x);
                v.setAttribute('x2', x);
                v.setAttribute('y1', '0');
                v.setAttribute('y2', '1024');

                // Calculate real coordinates using inverse transformation
                const matrix = {"a":94.39999999999996,"c":0,"e":511.99999999999994,"b":0,"d":-94.39999999999996,"f":512.0000000000001};
                // Manually invert and apply the affine transform
                // Since we only use translate and scale, we can directly compute:
                // x' = (x - tx) / sx
                // y' = (y - ty) / sy
                const sx = matrix.a;
                const sy = matrix.d;
                const tx = matrix.e; 
                const ty = matrix.f;
                const realPoint = {
                  x: (x - tx) / sx,
                  y: (y - ty) / sy // Flip y back since we used negative scale
                }
                
                coords.textContent = `(${realPoint.x.toFixed(2)}, ${realPoint.y.toFixed(2)})`;
                coords.setAttribute('x', (x + 5).toString());
                coords.setAttribute('y', (y - 5).toString());
              });
              document.currentScript.parentElement.addEventListener('mouseleave', () => {
                document.currentScript.parentElement.getElementById('crosshair').style.display = 'none';
              });
            ]]></script></svg>