<svg width="1024" height="1024" viewBox="0 0 1024 1024" xmlns="http://www.w3.org/2000/svg"><rect width="100%" height="100%" fill="white"/><g><circle data-type="point" data-label="conn_000" data-x="1.6400000000000001" data-y="-5" cx="666.8159999999999" cy="984" r="14.16" fill="blue"/></g><g><circle data-type="point" data-label="conn_000" data-x="2.84" data-y="5" cx="780.0959999999998" cy="40.000000000000284" r="14.16" fill="red"/></g><g><circle data-type="point" data-label="conn_001" data-x="5" data-y="3.3000000000000003" cx="983.9999999999998" cy="200.4800000000002" r="14.16" fill="red"/></g><g><circle data-type="point" data-label="conn_001" data-x="-5" data-y="4.26" cx="40.000000000000114" cy="109.85600000000028" r="14.16" fill="red"/></g><g><circle data-type="point" data-label="conn_002" data-x="3.2" data-y="5" cx="814.0799999999998" cy="40.000000000000284" r="14.16" fill="blue"/></g><g><circle data-type="point" data-label="conn_002" data-x="-2.14" data-y="-5" cx="309.98400000000004" cy="984" r="14.16" fill="red"/></g><g><circle data-type="point" data-label="conn_003" data-x="-3.7600000000000002" data-y="-5" cx="157.05600000000004" cy="984" r="14.16" fill="red"/></g><g><circle data-type="point" data-label="conn_003" data-x="-5" data-y="-0.92" cx="40.000000000000114" cy="598.8480000000001" r="14.16" fill="red"/></g><g><circle data-type="point" data-label="conn_004" data-x="-5" data-y="2.24" cx="40.000000000000114" cy="300.5440000000002" r="14.16" fill="red"/></g><g><circle data-type="point" data-label="conn_004" data-x="5" data-y="-1.12" cx="983.9999999999998" cy="617.7280000000001" r="14.16" fill="red"/></g><g><circle data-type="point" data-label="conn_005" data-x="-5" data-y="-3.6" cx="40.000000000000114" cy="851.8399999999999" r="14.16" fill="red"/></g><g><circle data-type="point" data-label="conn_005" data-x="5" data-y="1.76" cx="983.9999999999998" cy="345.85600000000017" r="14.16" fill="blue"/></g><g><polyline data-points="-5.000000000000001,2.2727272727272734 -4.898989898989899,2.1717171717171726 -4.7979797979797985,2.070707070707072 -4.696969696969697,1.9696969696969702 -4.595959595959596,1.8686868686868696 -4.494949494949496,1.767676767676768 -4.393939393939394,1.6666666666666674 -4.292929292929293,1.5656565656565666 -4.191919191919193,1.4646464646464652 -4.090909090909091,1.3636363636363644 -3.98989898989899,1.262626262626263 -3.8888888888888884,1.1616161616161622 -3.7878787878787876,1.0606060606060617 -3.6868686868686864,0.9595959595959602 -3.5858585858585856,0.8585858585858596 -3.484848484848485,0.7575757575757579 -3.383838383838383,0.6565656565656574 -3.2828282828282824,0.5555555555555567 -3.1818181818181817,0.4545454545454551 -3.0808080808080804,0.3535353535353544 -2.9797979797979792,0.2525252525252529 -2.8787878787878785,0.1515151515151522 -2.7777777777777777,0.050505050505051545 -2.6767676767676765,-0.05050505050505001 -2.5757575757575752,-0.15151515151515066 -2.474747474747474,-0.2525252525252522 -2.3737373737373733,-0.35353535353535287 -2.2727272727272725,-0.4545454545454544 -2.1717171717171713,-0.555555555555555 -2.07070707070707,-0.6565656565656557 -1.9696969696969693,-0.7575757575757572 -1.8686868686868683,-0.8585858585858579 -1.7676767676767675,-0.9595959595959596 -1.6666666666666665,-1.0606060606060603 -1.5656565656565653,-1.1616161616161613 -1.4646464646464643,-1.1616161616161613 -1.363636363636363,-1.1616161616161613 -1.2626262626262625,-1.1616161616161613 -1.1616161616161613,-1.1616161616161613 -1.0606060606060603,-1.1616161616161613 -0.9595959595959596,-1.1616161616161613 -0.8585858585858579,-1.1616161616161613 -0.7575757575757572,-1.1616161616161613 -0.6565656565656557,-1.1616161616161613 -0.555555555555555,-1.1616161616161613 -0.4545454545454544,-1.1616161616161613 -0.35353535353535287,-1.1616161616161613 -0.2525252525252522,-1.1616161616161613 -0.15151515151515066,-1.1616161616161613 -0.05050505050505001,-1.1616161616161613 0.050505050505051545,-1.1616161616161613 0.1515151515151522,-1.1616161616161613 0.2525252525252529,-1.1616161616161613 0.3535353535353544,-1.1616161616161613 0.4545454545454551,-1.1616161616161613 0.5555555555555567,-1.1616161616161613 0.6565656565656574,-1.1616161616161613 0.7575757575757579,-1.1616161616161613 0.8585858585858596,-1.1616161616161613 0.9595959595959602,-1.1616161616161613 1.0606060606060617,-1.1616161616161613 1.1616161616161622,-1.1616161616161613 1.262626262626263,-1.1616161616161613 1.3636363636363644,-1.1616161616161613 1.4646464646464652,-1.1616161616161613 1.5656565656565666,-1.1616161616161613 1.6666666666666674,-1.1616161616161613 1.767676767676768,-1.1616161616161613 1.8686868686868696,-1.1616161616161613 1.9696969696969702,-1.1616161616161613 2.070707070707072,-1.1616161616161613 2.1717171717171726,-1.1616161616161613 2.2727272727272734,-1.1616161616161613 2.373737373737375,-1.1616161616161613 2.4747474747474754,-1.1616161616161613 2.575757575757577,-1.1616161616161613 2.676767676767678,-1.1616161616161613 2.7777777777777786,-1.1616161616161613 2.87878787878788,-1.1616161616161613 2.9797979797979806,-1.1616161616161613 3.080808080808082,-1.1616161616161613 3.181818181818183,-1.1616161616161613 3.2828282828282833,-1.1616161616161613 3.383838383838384,-1.1616161616161613 3.4848484848484866,-1.1616161616161613 3.5858585858585874,-1.1616161616161613 3.6868686868686877,-1.1616161616161613 3.7878787878787885,-1.1616161616161613 3.8888888888888893,-1.1616161616161613 3.989898989898992,-1.1616161616161613 4.090909090909092,-1.1616161616161613 4.191919191919193,-1.1616161616161613 4.292929292929293,-1.1616161616161613 4.393939393939394,-1.1616161616161613 4.494949494949497,-1.1616161616161613 4.595959595959597,-1.1616161616161613 4.696969696969697,-1.1616161616161613 4.7979797979797985,-1.1616161616161613 4.898989898989901,-1.1616161616161613 5.000000000000002,-1.1616161616161613" data-type="line" data-label="" points="40.00000000000006,297.4545454545456 49.53535353535369,306.9898989898991 59.07070707070716,316.5252525252526 68.60606060606068,326.06060606060623 78.14141414141426,335.5959595959597 87.67676767676772,345.1313131313133 97.21212121212136,354.66666666666674 106.74747474747483,364.2020202020203 116.28282828282829,373.73737373737384 125.81818181818193,383.27272727272737 135.35353535353545,392.80808080808094 144.88888888888903,402.3434343434344 154.42424242424255,411.87878787878793 163.95959595959607,421.4141414141415 173.4949494949496,430.94949494949503 183.03030303030312,440.4848484848486 192.5656565656567,450.0202020202021 202.10101010101022,459.5555555555556 211.63636363636374,469.0909090909092 221.17171717171726,478.6262626262627 230.70707070707084,488.1616161616163 240.2424242424243,497.69696969696975 249.77777777777783,507.23232323232327 259.3131313131314,516.7676767676768 268.84848484848493,526.3030303030304 278.38383838383845,535.838383838384 287.91919191919203,545.3737373737374 297.4545454545455,554.909090909091 306.9898989898991,564.4444444444445 316.5252525252526,573.979797979798 326.0606060606061,583.5151515151516 335.59595959595964,593.0505050505051 345.13131313131316,602.5858585858587 354.6666666666667,612.1212121212121 364.2020202020202,621.6565656565657 373.7373737373738,621.6565656565657 383.2727272727273,621.6565656565657 392.80808080808083,621.6565656565657 402.34343434343435,621.6565656565657 411.8787878787879,621.6565656565657 421.4141414141414,621.6565656565657 430.949494949495,621.6565656565657 440.4848484848485,621.6565656565657 450.0202020202021,621.6565656565657 459.55555555555554,621.6565656565657 469.09090909090907,621.6565656565657 478.62626262626264,621.6565656565657 488.16161616161617,621.6565656565657 497.69696969696975,621.6565656565657 507.2323232323232,621.6565656565657 516.7676767676768,621.6565656565657 526.3030303030303,621.6565656565657 535.8383838383838,621.6565656565657 545.3737373737374,621.6565656565657 554.9090909090909,621.6565656565657 564.4444444444445,621.6565656565657 573.9797979797979,621.6565656565657 583.5151515151515,621.6565656565657 593.0505050505051,621.6565656565657 602.5858585858585,621.6565656565657 612.1212121212121,621.6565656565657 621.6565656565656,621.6565656565657 631.1919191919192,621.6565656565657 640.7272727272727,621.6565656565657 650.2626262626262,621.6565656565657 659.7979797979798,621.6565656565657 669.3333333333333,621.6565656565657 678.8686868686868,621.6565656565657 688.4040404040404,621.6565656565657 697.9393939393939,621.6565656565657 707.4747474747475,621.6565656565657 717.0101010101009,621.6565656565657 726.5454545454545,621.6565656565657 736.0808080808081,621.6565656565657 745.6161616161615,621.6565656565657 755.1515151515151,621.6565656565657 764.6868686868686,621.6565656565657 774.2222222222222,621.6565656565657 783.7575757575758,621.6565656565657 793.2929292929292,621.6565656565657 802.8282828282828,621.6565656565657 812.3636363636363,621.6565656565657 821.8989898989898,621.6565656565657 831.4343434343433,621.6565656565657 840.969696969697,621.6565656565657 850.5050505050505,621.6565656565657 860.0404040404039,621.6565656565657 869.5757575757575,621.6565656565657 879.111111111111,621.6565656565657 888.6464646464647,621.6565656565657 898.181818181818,621.6565656565657 907.7171717171716,621.6565656565657 917.2525252525251,621.6565656565657 926.7878787878785,621.6565656565657 936.3232323232323,621.6565656565657 945.8585858585857,621.6565656565657 955.3939393939393,621.6565656565657 964.9292929292927,621.6565656565657 974.4646464646464,621.6565656565657 984,621.6565656565657" fill="none" stroke="rgba(255,0,0,0.75)" stroke-width="11.327999999999996"/></g><g><polyline data-points="1.6666666666666674,-5.000000000000001 1.767676767676768,-4.898989898989899 1.8686868686868696,-4.7979797979797985 1.9696969696969702,-4.696969696969697 2.070707070707072,-4.595959595959596 2.1717171717171726,-4.494949494949496 2.2727272727272734,-4.393939393939394 2.373737373737375,-4.292929292929293 2.4747474747474754,-4.191919191919193 2.575757575757577,-4.090909090909091 2.676767676767678,-3.98989898989899 2.676767676767678,-3.8888888888888884 2.676767676767678,-3.7878787878787876 2.676767676767678,-3.6868686868686864 2.676767676767678,-3.5858585858585856 2.676767676767678,-3.484848484848485 2.676767676767678,-3.383838383838383 2.676767676767678,-3.2828282828282824 2.676767676767678,-3.1818181818181817 2.676767676767678,-3.0808080808080804 2.676767676767678,-2.9797979797979792 2.676767676767678,-2.8787878787878785 2.676767676767678,-2.7777777777777777 2.676767676767678,-2.6767676767676765 2.676767676767678,-2.5757575757575752 2.676767676767678,-2.474747474747474 2.676767676767678,-2.3737373737373733 2.676767676767678,-2.2727272727272725 2.676767676767678,-2.1717171717171713 2.676767676767678,-2.07070707070707 2.676767676767678,-1.9696969696969693 2.676767676767678,-1.8686868686868683 2.676767676767678,-1.7676767676767675 2.676767676767678,-1.6666666666666665 2.676767676767678,-1.5656565656565653 2.676767676767678,-1.4646464646464643 2.676767676767678,-1.363636363636363 2.676767676767678,-1.2626262626262625 2.676767676767678,-1.1616161616161613 2.676767676767678,-1.0606060606060603 2.676767676767678,-0.9595959595959596 2.676767676767678,-0.8585858585858579 2.676767676767678,-0.7575757575757572 2.676767676767678,-0.6565656565656557 2.676767676767678,-0.555555555555555 2.676767676767678,-0.4545454545454544 2.676767676767678,-0.35353535353535287 2.676767676767678,-0.2525252525252522 2.676767676767678,-0.15151515151515066 2.676767676767678,-0.05050505050505001 2.676767676767678,0.050505050505051545 2.676767676767678,0.1515151515151522 2.676767676767678,0.2525252525252529 2.676767676767678,0.3535353535353544 2.676767676767678,0.4545454545454551 2.676767676767678,0.5555555555555567 2.676767676767678,0.6565656565656574 2.676767676767678,0.7575757575757579 2.676767676767678,0.8585858585858596 2.676767676767678,0.9595959595959602 2.676767676767678,1.0606060606060617 2.676767676767678,1.1616161616161622 2.676767676767678,1.262626262626263 2.676767676767678,1.3636363636363644 2.676767676767678,1.4646464646464652 2.676767676767678,1.5656565656565666 2.676767676767678,1.6666666666666674 2.676767676767678,1.767676767676768 2.676767676767678,1.8686868686868696 2.676767676767678,1.9696969696969702 2.676767676767678,2.070707070707072 2.676767676767678,2.1717171717171726 2.676767676767678,2.2727272727272734 2.676767676767678,2.373737373737375 2.676767676767678,2.4747474747474754 2.676767676767678,2.575757575757577 2.676767676767678,2.676767676767678 2.676767676767678,2.7777777777777786 2.676767676767678,2.87878787878788 2.676767676767678,2.9797979797979806 2.676767676767678,3.080808080808082 2.676767676767678,3.181818181818183 2.676767676767678,3.2828282828282833 2.676767676767678,3.383838383838384 2.676767676767678,3.4848484848484866 2.676767676767678,3.5858585858585874 2.676767676767678,3.6868686868686877 2.676767676767678,3.7878787878787885 2.676767676767678,3.8888888888888893" data-type="line" data-label="" points="669.3333333333333,984 678.8686868686868,974.4646464646464 688.4040404040404,964.9292929292928 697.9393939393939,955.3939393939394 707.4747474747475,945.8585858585858 717.0101010101009,936.3232323232323 726.5454545454545,926.7878787878788 736.0808080808081,917.2525252525252 745.6161616161615,907.7171717171718 755.1515151515151,898.1818181818181 764.6868686868686,888.6464646464647 764.6868686868686,879.1111111111111 764.6868686868686,869.5757575757575 764.6868686868686,860.0404040404039 764.6868686868686,850.5050505050505 764.6868686868686,840.969696969697 764.6868686868686,831.4343434343434 764.6868686868686,821.8989898989898 764.6868686868686,812.3636363636363 764.6868686868686,802.8282828282828 764.6868686868686,793.2929292929292 764.6868686868686,783.7575757575758 764.6868686868686,774.2222222222222 764.6868686868686,764.6868686868687 764.6868686868686,755.1515151515151 764.6868686868686,745.6161616161615 764.6868686868686,736.0808080808081 764.6868686868686,726.5454545454545 764.6868686868686,717.010101010101 764.6868686868686,707.4747474747475 764.6868686868686,697.939393939394 764.6868686868686,688.4040404040404 764.6868686868686,678.8686868686868 764.6868686868686,669.3333333333334 764.6868686868686,659.7979797979798 764.6868686868686,650.2626262626263 764.6868686868686,640.7272727272727 764.6868686868686,631.1919191919193 764.6868686868686,621.6565656565657 764.6868686868686,612.1212121212121 764.6868686868686,602.5858585858587 764.6868686868686,593.0505050505051 764.6868686868686,583.5151515151516 764.6868686868686,573.979797979798 764.6868686868686,564.4444444444445 764.6868686868686,554.909090909091 764.6868686868686,545.3737373737374 764.6868686868686,535.838383838384 764.6868686868686,526.3030303030304 764.6868686868686,516.7676767676768 764.6868686868686,507.23232323232327 764.6868686868686,497.69696969696975 764.6868686868686,488.1616161616163 764.6868686868686,478.6262626262627 764.6868686868686,469.0909090909092 764.6868686868686,459.5555555555556 764.6868686868686,450.0202020202021 764.6868686868686,440.4848484848486 764.6868686868686,430.94949494949503 764.6868686868686,421.4141414141415 764.6868686868686,411.87878787878793 764.6868686868686,402.3434343434344 764.6868686868686,392.80808080808094 764.6868686868686,383.27272727272737 764.6868686868686,373.73737373737384 764.6868686868686,364.2020202020203 764.6868686868686,354.66666666666674 764.6868686868686,345.1313131313133 764.6868686868686,335.5959595959597 764.6868686868686,326.06060606060623 764.6868686868686,316.5252525252526 764.6868686868686,306.9898989898991 764.6868686868686,297.4545454545456 764.6868686868686,287.91919191919203 764.6868686868686,278.38383838383857 764.6868686868686,268.84848484848493 764.6868686868686,259.3131313131314 764.6868686868686,249.77777777777794 764.6868686868686,240.24242424242436 764.6868686868686,230.70707070707084 764.6868686868686,221.17171717171726 764.6868686868686,211.63636363636374 764.6868686868686,202.10101010101027 764.6868686868686,192.56565656565675 764.6868686868686,183.03030303030312 764.6868686868686,173.4949494949496 764.6868686868686,163.95959595959613 764.6868686868686,154.4242424242426 764.6868686868686,144.88888888888908" fill="none" stroke="rgba(0,0,255,0.75)" stroke-width="11.327999999999996"/></g><g><polyline data-points="2.676767676767678,3.8888888888888893 2.676767676767678,3.989898989898992 2.676767676767678,4.090909090909092 2.676767676767678,4.191919191919193 2.7777777777777786,4.292929292929293 2.87878787878788,4.393939393939394 2.87878787878788,4.494949494949497 2.87878787878788,4.595959595959597 2.87878787878788,4.696969696969697 2.87878787878788,4.7979797979797985 2.87878787878788,4.898989898989901 2.87878787878788,5.000000000000002" data-type="line" data-label="" points="764.6868686868686,144.88888888888908 764.6868686868686,135.35353535353545 764.6868686868686,125.81818181818198 764.6868686868686,116.28282828282846 774.2222222222222,106.747474747475 783.7575757575758,97.21212121212153 783.7575757575758,87.67676767676778 783.7575757575758,78.14141414141432 783.7575757575758,68.60606060606085 783.7575757575758,59.07070707070733 783.7575757575758,49.53535353535369 783.7575757575758,40.000000000000114" fill="none" stroke="rgba(255,0,0,0.75)" stroke-width="11.327999999999996"/></g><g><polyline data-points="3.181818181818183,5.000000000000002 3.080808080808082,4.898989898989901 2.9797979797979806,4.7979797979797985 2.87878787878788,4.696969696969697 2.7777777777777786,4.595959595959597 2.676767676767678,4.494949494949497 2.575757575757577,4.393939393939394 2.4747474747474754,4.393939393939394 2.373737373737375,4.393939393939394 2.2727272727272734,4.393939393939394 2.1717171717171726,4.393939393939394 2.070707070707072,4.393939393939394 1.9696969696969702,4.393939393939394 1.8686868686868696,4.393939393939394 1.767676767676768,4.393939393939394 1.6666666666666674,4.393939393939394 1.5656565656565666,4.393939393939394 1.4646464646464652,4.393939393939394 1.3636363636363644,4.393939393939394 1.262626262626263,4.393939393939394 1.1616161616161622,4.393939393939394 1.0606060606060617,4.393939393939394 0.9595959595959602,4.393939393939394 0.8585858585858596,4.393939393939394 0.7575757575757579,4.393939393939394 0.6565656565656574,4.393939393939394 0.5555555555555567,4.393939393939394 0.4545454545454551,4.393939393939394 0.3535353535353544,4.393939393939394 0.2525252525252529,4.393939393939394 0.1515151515151522,4.393939393939394 0.050505050505051545,4.393939393939394 -0.05050505050505001,4.393939393939394 -0.15151515151515066,4.393939393939394 -0.2525252525252522,4.393939393939394 -0.35353535353535287,4.393939393939394 -0.4545454545454544,4.393939393939394 -0.555555555555555,4.393939393939394 -0.6565656565656557,4.393939393939394 -0.7575757575757572,4.393939393939394 -0.8585858585858579,4.393939393939394 -0.9595959595959596,4.393939393939394 -1.0606060606060603,4.393939393939394 -1.1616161616161613,4.393939393939394 -1.2626262626262625,4.393939393939394 -1.363636363636363,4.393939393939394 -1.4646464646464643,4.393939393939394 -1.5656565656565653,4.393939393939394 -1.6666666666666665,4.393939393939394 -1.7676767676767675,4.393939393939394 -1.8686868686868683,4.292929292929293 -1.9696969696969693,4.191919191919193 -2.07070707070707,4.090909090909092 -2.1717171717171713,3.989898989898992 -2.1717171717171713,3.8888888888888893 -2.1717171717171713,3.7878787878787885 -2.1717171717171713,3.6868686868686877 -2.1717171717171713,3.5858585858585874 -2.1717171717171713,3.4848484848484866 -2.1717171717171713,3.383838383838384 -2.1717171717171713,3.2828282828282833 -2.1717171717171713,3.181818181818183 -2.1717171717171713,3.080808080808082 -2.1717171717171713,2.9797979797979806 -2.1717171717171713,2.87878787878788 -2.1717171717171713,2.7777777777777786 -2.1717171717171713,2.676767676767678 -2.1717171717171713,2.575757575757577 -2.1717171717171713,2.4747474747474754 -2.1717171717171713,2.373737373737375 -2.1717171717171713,2.2727272727272734 -2.1717171717171713,2.1717171717171726 -2.1717171717171713,2.070707070707072 -2.1717171717171713,1.9696969696969702 -2.1717171717171713,1.8686868686868696 -2.1717171717171713,1.767676767676768 -2.1717171717171713,1.6666666666666674 -2.1717171717171713,1.5656565656565666 -2.1717171717171713,1.4646464646464652 -2.1717171717171713,1.3636363636363644 -2.1717171717171713,1.262626262626263 -2.1717171717171713,1.1616161616161622 -2.1717171717171713,1.0606060606060617 -2.1717171717171713,0.9595959595959602 -2.1717171717171713,0.8585858585858596 -2.1717171717171713,0.7575757575757579 -2.1717171717171713,0.6565656565656574 -2.1717171717171713,0.5555555555555567 -2.1717171717171713,0.4545454545454551 -2.1717171717171713,0.3535353535353544 -2.1717171717171713,0.2525252525252529 -2.1717171717171713,0.1515151515151522 -2.1717171717171713,0.050505050505051545 -2.1717171717171713,-0.05050505050505001 -2.1717171717171713,-0.15151515151515066 -2.1717171717171713,-0.2525252525252522 -2.1717171717171713,-0.35353535353535287 -2.1717171717171713,-0.4545454545454544 -2.1717171717171713,-0.555555555555555 -2.1717171717171713,-0.6565656565656557 -2.1717171717171713,-0.7575757575757572 -2.1717171717171713,-0.8585858585858579 -2.1717171717171713,-0.9595959595959596 -2.1717171717171713,-1.0606060606060603 -2.1717171717171713,-1.1616161616161613 -2.1717171717171713,-1.2626262626262625 -2.1717171717171713,-1.363636363636363 -2.1717171717171713,-1.4646464646464643 -2.1717171717171713,-1.5656565656565653 -2.1717171717171713,-1.6666666666666665 -2.1717171717171713,-1.7676767676767675 -2.1717171717171713,-1.8686868686868683 -2.1717171717171713,-1.9696969696969693 -2.1717171717171713,-2.07070707070707 -2.1717171717171713,-2.1717171717171713 -2.1717171717171713,-2.2727272727272725 -2.1717171717171713,-2.3737373737373733 -2.1717171717171713,-2.474747474747474 -2.1717171717171713,-2.5757575757575752 -2.1717171717171713,-2.6767676767676765 -2.1717171717171713,-2.7777777777777777 -2.1717171717171713,-2.8787878787878785 -2.1717171717171713,-2.9797979797979792 -2.1717171717171713,-3.0808080808080804 -2.1717171717171713,-3.1818181818181817 -2.1717171717171713,-3.2828282828282824 -2.1717171717171713,-3.383838383838383 -2.1717171717171713,-3.484848484848485 -2.1717171717171713,-3.5858585858585856 -2.1717171717171713,-3.6868686868686864 -2.1717171717171713,-3.7878787878787876 -2.1717171717171713,-3.8888888888888884 -2.1717171717171713,-3.98989898989899" data-type="line" data-label="" points="812.3636363636363,40.000000000000114 802.8282828282828,49.53535353535369 793.2929292929292,59.07070707070733 783.7575757575758,68.60606060606085 774.2222222222222,78.14141414141432 764.6868686868686,87.67676767676778 755.1515151515151,97.21212121212153 745.6161616161615,97.21212121212153 736.0808080808081,97.21212121212153 726.5454545454545,97.21212121212153 717.0101010101009,97.21212121212153 707.4747474747475,97.21212121212153 697.9393939393939,97.21212121212153 688.4040404040404,97.21212121212153 678.8686868686868,97.21212121212153 669.3333333333333,97.21212121212153 659.7979797979798,97.21212121212153 650.2626262626262,97.21212121212153 640.7272727272727,97.21212121212153 631.1919191919192,97.21212121212153 621.6565656565656,97.21212121212153 612.1212121212121,97.21212121212153 602.5858585858585,97.21212121212153 593.0505050505051,97.21212121212153 583.5151515151515,97.21212121212153 573.9797979797979,97.21212121212153 564.4444444444445,97.21212121212153 554.9090909090909,97.21212121212153 545.3737373737374,97.21212121212153 535.8383838383838,97.21212121212153 526.3030303030303,97.21212121212153 516.7676767676768,97.21212121212153 507.2323232323232,97.21212121212153 497.69696969696975,97.21212121212153 488.16161616161617,97.21212121212153 478.62626262626264,97.21212121212153 469.09090909090907,97.21212121212153 459.55555555555554,97.21212121212153 450.0202020202021,97.21212121212153 440.4848484848485,97.21212121212153 430.949494949495,97.21212121212153 421.4141414141414,97.21212121212153 411.8787878787879,97.21212121212153 402.34343434343435,97.21212121212153 392.80808080808083,97.21212121212153 383.2727272727273,97.21212121212153 373.7373737373738,97.21212121212153 364.2020202020202,97.21212121212153 354.6666666666667,97.21212121212153 345.13131313131316,97.21212121212153 335.59595959595964,106.747474747475 326.0606060606061,116.28282828282846 316.5252525252526,125.81818181818198 306.9898989898991,135.35353535353545 306.9898989898991,144.88888888888908 306.9898989898991,154.4242424242426 306.9898989898991,163.95959595959613 306.9898989898991,173.4949494949496 306.9898989898991,183.03030303030312 306.9898989898991,192.56565656565675 306.9898989898991,202.10101010101027 306.9898989898991,211.63636363636374 306.9898989898991,221.17171717171726 306.9898989898991,230.70707070707084 306.9898989898991,240.24242424242436 306.9898989898991,249.77777777777794 306.9898989898991,259.3131313131314 306.9898989898991,268.84848484848493 306.9898989898991,278.38383838383857 306.9898989898991,287.91919191919203 306.9898989898991,297.4545454545456 306.9898989898991,306.9898989898991 306.9898989898991,316.5252525252526 306.9898989898991,326.06060606060623 306.9898989898991,335.5959595959597 306.9898989898991,345.1313131313133 306.9898989898991,354.66666666666674 306.9898989898991,364.2020202020203 306.9898989898991,373.73737373737384 306.9898989898991,383.27272727272737 306.9898989898991,392.80808080808094 306.9898989898991,402.3434343434344 306.9898989898991,411.87878787878793 306.9898989898991,421.4141414141415 306.9898989898991,430.94949494949503 306.9898989898991,440.4848484848486 306.9898989898991,450.0202020202021 306.9898989898991,459.5555555555556 306.9898989898991,469.0909090909092 306.9898989898991,478.6262626262627 306.9898989898991,488.1616161616163 306.9898989898991,497.69696969696975 306.9898989898991,507.23232323232327 306.9898989898991,516.7676767676768 306.9898989898991,526.3030303030304 306.9898989898991,535.838383838384 306.9898989898991,545.3737373737374 306.9898989898991,554.909090909091 306.9898989898991,564.4444444444445 306.9898989898991,573.979797979798 306.9898989898991,583.5151515151516 306.9898989898991,593.0505050505051 306.9898989898991,602.5858585858587 306.9898989898991,612.1212121212121 306.9898989898991,621.6565656565657 306.9898989898991,631.1919191919193 306.9898989898991,640.7272727272727 306.9898989898991,650.2626262626263 306.9898989898991,659.7979797979798 306.9898989898991,669.3333333333334 306.9898989898991,678.8686868686868 306.9898989898991,688.4040404040404 306.9898989898991,697.939393939394 306.9898989898991,707.4747474747475 306.9898989898991,717.010101010101 306.9898989898991,726.5454545454545 306.9898989898991,736.0808080808081 306.9898989898991,745.6161616161615 306.9898989898991,755.1515151515151 306.9898989898991,764.6868686868687 306.9898989898991,774.2222222222222 306.9898989898991,783.7575757575758 306.9898989898991,793.2929292929292 306.9898989898991,802.8282828282828 306.9898989898991,812.3636363636363 306.9898989898991,821.8989898989898 306.9898989898991,831.4343434343434 306.9898989898991,840.969696969697 306.9898989898991,850.5050505050505 306.9898989898991,860.0404040404039 306.9898989898991,869.5757575757575 306.9898989898991,879.1111111111111 306.9898989898991,888.6464646464647" fill="none" stroke="rgba(0,0,255,0.75)" stroke-width="11.327999999999996"/></g><g><polyline data-points="-2.1717171717171713,-3.98989898989899 -2.1717171717171713,-4.090909090909091 -2.1717171717171713,-4.191919191919193 -2.1717171717171713,-4.292929292929293 -2.1717171717171713,-4.393939393939394 -2.1717171717171713,-4.494949494949496 -2.1717171717171713,-4.595959595959596 -2.1717171717171713,-4.696969696969697 -2.1717171717171713,-4.7979797979797985 -2.1717171717171713,-4.898989898989899 -2.1717171717171713,-5.000000000000001" data-type="line" data-label="" points="306.9898989898991,888.6464646464647 306.9898989898991,898.1818181818181 306.9898989898991,907.7171717171718 306.9898989898991,917.2525252525252 306.9898989898991,926.7878787878788 306.9898989898991,936.3232323232323 306.9898989898991,945.8585858585858 306.9898989898991,955.3939393939394 306.9898989898991,964.9292929292928 306.9898989898991,974.4646464646464 306.9898989898991,984" fill="none" stroke="rgba(255,0,0,0.75)" stroke-width="11.327999999999996"/></g><g><polyline data-points="-5.000000000000001,-3.6868686868686864 -4.898989898989899,-3.5858585858585856 -4.7979797979797985,-3.484848484848485 -4.696969696969697,-3.383838383838383 -4.595959595959596,-3.2828282828282824 -4.494949494949496,-3.1818181818181817 -4.393939393939394,-3.0808080808080804 -4.292929292929293,-2.9797979797979792 -4.191919191919193,-2.8787878787878785 -4.090909090909091,-2.7777777777777777 -3.98989898989899,-2.6767676767676765 -3.8888888888888884,-2.5757575757575752 -3.7878787878787876,-2.474747474747474 -3.6868686868686864,-2.3737373737373733 -3.5858585858585856,-2.2727272727272725 -3.484848484848485,-2.1717171717171713 -3.383838383838383,-2.07070707070707 -3.2828282828282824,-1.9696969696969693 -3.1818181818181817,-1.8686868686868683 -3.0808080808080804,-1.7676767676767675 -2.9797979797979792,-1.6666666666666665 -2.8787878787878785,-1.5656565656565653 -2.7777777777777777,-1.4646464646464643 -2.6767676767676765,-1.363636363636363 -2.5757575757575752,-1.2626262626262625 -2.5757575757575752,-1.1616161616161613 -2.5757575757575752,-1.0606060606060603 -2.5757575757575752,-0.9595959595959596 -2.5757575757575752,-0.8585858585858579 -2.5757575757575752,-0.7575757575757572 -2.5757575757575752,-0.6565656565656557" data-type="line" data-label="" points="40.00000000000006,860.0404040404039 49.53535353535369,850.5050505050505 59.07070707070716,840.969696969697 68.60606060606068,831.4343434343434 78.14141414141426,821.8989898989898 87.67676767676772,812.3636363636363 97.21212121212136,802.8282828282828 106.74747474747483,793.2929292929292 116.28282828282829,783.7575757575758 125.81818181818193,774.2222222222222 135.35353535353545,764.6868686868687 144.88888888888903,755.1515151515151 154.42424242424255,745.6161616161615 163.95959595959607,736.0808080808081 173.4949494949496,726.5454545454545 183.03030303030312,717.010101010101 192.5656565656567,707.4747474747475 202.10101010101022,697.939393939394 211.63636363636374,688.4040404040404 221.17171717171726,678.8686868686868 230.70707070707084,669.3333333333334 240.2424242424243,659.7979797979798 249.77777777777783,650.2626262626263 259.3131313131314,640.7272727272727 268.84848484848493,631.1919191919193 268.84848484848493,621.6565656565657 268.84848484848493,612.1212121212121 268.84848484848493,602.5858585858587 268.84848484848493,593.0505050505051 268.84848484848493,583.5151515151516 268.84848484848493,573.979797979798" fill="none" stroke="rgba(255,0,0,0.75)" stroke-width="11.327999999999996"/></g><g><polyline data-points="-2.5757575757575752,-0.6565656565656557 -2.5757575757575752,-0.555555555555555 -2.5757575757575752,-0.4545454545454544 -2.5757575757575752,-0.35353535353535287 -2.5757575757575752,-0.2525252525252522 -2.5757575757575752,-0.15151515151515066 -2.5757575757575752,-0.05050505050505001 -2.5757575757575752,0.050505050505051545 -2.5757575757575752,0.1515151515151522 -2.5757575757575752,0.2525252525252529 -2.5757575757575752,0.3535353535353544 -2.5757575757575752,0.4545454545454551 -2.5757575757575752,0.5555555555555567 -2.5757575757575752,0.6565656565656574" data-type="line" data-label="" points="268.84848484848493,573.979797979798 268.84848484848493,564.4444444444445 268.84848484848493,554.909090909091 268.84848484848493,545.3737373737374 268.84848484848493,535.838383838384 268.84848484848493,526.3030303030304 268.84848484848493,516.7676767676768 268.84848484848493,507.23232323232327 268.84848484848493,497.69696969696975 268.84848484848493,488.1616161616163 268.84848484848493,478.6262626262627 268.84848484848493,469.0909090909092 268.84848484848493,459.5555555555556 268.84848484848493,450.0202020202021" fill="none" stroke="rgba(0,0,255,0.75)" stroke-width="11.327999999999996"/></g><g><polyline data-points="-2.5757575757575752,0.6565656565656574 -2.474747474747474,0.7575757575757579 -2.3737373737373733,0.8585858585858596 -2.2727272727272725,0.9595959595959602 -2.1717171717171713,1.0606060606060617 -2.07070707070707,1.1616161616161622 -1.9696969696969693,1.262626262626263 -1.8686868686868683,1.3636363636363644 -1.7676767676767675,1.4646464646464652 -1.6666666666666665,1.5656565656565666 -1.5656565656565653,1.6666666666666674 -1.4646464646464643,1.767676767676768 -1.363636363636363,1.767676767676768 -1.2626262626262625,1.767676767676768 -1.1616161616161613,1.767676767676768 -1.0606060606060603,1.767676767676768 -0.9595959595959596,1.767676767676768 -0.8585858585858579,1.767676767676768 -0.7575757575757572,1.767676767676768 -0.6565656565656557,1.767676767676768 -0.555555555555555,1.767676767676768 -0.4545454545454544,1.767676767676768 -0.35353535353535287,1.767676767676768 -0.2525252525252522,1.767676767676768 -0.15151515151515066,1.767676767676768 -0.05050505050505001,1.767676767676768 0.050505050505051545,1.767676767676768 0.1515151515151522,1.767676767676768 0.2525252525252529,1.767676767676768 0.3535353535353544,1.767676767676768 0.4545454545454551,1.767676767676768 0.5555555555555567,1.767676767676768 0.6565656565656574,1.767676767676768 0.7575757575757579,1.767676767676768 0.8585858585858596,1.767676767676768 0.9595959595959602,1.767676767676768 1.0606060606060617,1.767676767676768 1.1616161616161622,1.767676767676768 1.262626262626263,1.767676767676768 1.3636363636363644,1.767676767676768 1.4646464646464652,1.767676767676768 1.5656565656565666,1.767676767676768 1.6666666666666674,1.767676767676768 1.767676767676768,1.767676767676768 1.8686868686868696,1.767676767676768 1.9696969696969702,1.767676767676768 2.070707070707072,1.767676767676768 2.1717171717171726,1.767676767676768 2.2727272727272734,1.767676767676768 2.373737373737375,1.767676767676768 2.4747474747474754,1.767676767676768 2.575757575757577,1.767676767676768 2.676767676767678,1.767676767676768 2.7777777777777786,1.767676767676768 2.87878787878788,1.767676767676768 2.9797979797979806,1.767676767676768 3.080808080808082,1.767676767676768 3.181818181818183,1.767676767676768 3.2828282828282833,1.767676767676768 3.383838383838384,1.767676767676768 3.4848484848484866,1.767676767676768 3.5858585858585874,1.767676767676768 3.6868686868686877,1.767676767676768 3.7878787878787885,1.767676767676768 3.8888888888888893,1.767676767676768 3.989898989898992,1.767676767676768" data-type="line" data-label="" points="268.84848484848493,450.0202020202021 278.38383838383845,440.4848484848486 287.91919191919203,430.94949494949503 297.4545454545455,421.4141414141415 306.9898989898991,411.87878787878793 316.5252525252526,402.3434343434344 326.0606060606061,392.80808080808094 335.59595959595964,383.27272727272737 345.13131313131316,373.73737373737384 354.6666666666667,364.2020202020203 364.2020202020202,354.66666666666674 373.7373737373738,345.1313131313133 383.2727272727273,345.1313131313133 392.80808080808083,345.1313131313133 402.34343434343435,345.1313131313133 411.8787878787879,345.1313131313133 421.4141414141414,345.1313131313133 430.949494949495,345.1313131313133 440.4848484848485,345.1313131313133 450.0202020202021,345.1313131313133 459.55555555555554,345.1313131313133 469.09090909090907,345.1313131313133 478.62626262626264,345.1313131313133 488.16161616161617,345.1313131313133 497.69696969696975,345.1313131313133 507.2323232323232,345.1313131313133 516.7676767676768,345.1313131313133 526.3030303030303,345.1313131313133 535.8383838383838,345.1313131313133 545.3737373737374,345.1313131313133 554.9090909090909,345.1313131313133 564.4444444444445,345.1313131313133 573.9797979797979,345.1313131313133 583.5151515151515,345.1313131313133 593.0505050505051,345.1313131313133 602.5858585858585,345.1313131313133 612.1212121212121,345.1313131313133 621.6565656565656,345.1313131313133 631.1919191919192,345.1313131313133 640.7272727272727,345.1313131313133 650.2626262626262,345.1313131313133 659.7979797979798,345.1313131313133 669.3333333333333,345.1313131313133 678.8686868686868,345.1313131313133 688.4040404040404,345.1313131313133 697.9393939393939,345.1313131313133 707.4747474747475,345.1313131313133 717.0101010101009,345.1313131313133 726.5454545454545,345.1313131313133 736.0808080808081,345.1313131313133 745.6161616161615,345.1313131313133 755.1515151515151,345.1313131313133 764.6868686868686,345.1313131313133 774.2222222222222,345.1313131313133 783.7575757575758,345.1313131313133 793.2929292929292,345.1313131313133 802.8282828282828,345.1313131313133 812.3636363636363,345.1313131313133 821.8989898989898,345.1313131313133 831.4343434343433,345.1313131313133 840.969696969697,345.1313131313133 850.5050505050505,345.1313131313133 860.0404040404039,345.1313131313133 869.5757575757575,345.1313131313133 879.111111111111,345.1313131313133 888.6464646464647,345.1313131313133" fill="none" stroke="rgba(255,0,0,0.75)" stroke-width="11.327999999999996"/></g><g><polyline data-points="3.989898989898992,1.767676767676768 4.090909090909092,1.767676767676768 4.191919191919193,1.767676767676768 4.292929292929293,1.767676767676768 4.393939393939394,1.767676767676768 4.494949494949497,1.767676767676768 4.595959595959597,1.767676767676768 4.696969696969697,1.767676767676768 4.7979797979797985,1.767676767676768 4.898989898989901,1.767676767676768 5.000000000000002,1.767676767676768" data-type="line" data-label="" points="888.6464646464647,345.1313131313133 898.181818181818,345.1313131313133 907.7171717171716,345.1313131313133 917.2525252525251,345.1313131313133 926.7878787878785,345.1313131313133 936.3232323232323,345.1313131313133 945.8585858585857,345.1313131313133 955.3939393939393,345.1313131313133 964.9292929292927,345.1313131313133 974.4646464646464,345.1313131313133 984,345.1313131313133" fill="none" stroke="rgba(0,0,255,0.75)" stroke-width="11.327999999999996"/></g><g><polyline data-points="5.000000000000002,3.383838383838384 4.898989898989901,3.383838383838384 4.7979797979797985,3.4848484848484866 4.696969696969697,3.5858585858585874 4.595959595959597,3.5858585858585874 4.494949494949497,3.5858585858585874 4.393939393939394,3.5858585858585874 4.292929292929293,3.5858585858585874 4.191919191919193,3.5858585858585874 4.090909090909092,3.5858585858585874 3.989898989898992,3.5858585858585874 3.8888888888888893,3.5858585858585874 3.7878787878787885,3.5858585858585874 3.6868686868686877,3.5858585858585874 3.5858585858585874,3.5858585858585874 3.4848484848484866,3.5858585858585874 3.383838383838384,3.5858585858585874 3.2828282828282833,3.5858585858585874 3.181818181818183,3.5858585858585874 3.080808080808082,3.5858585858585874 2.9797979797979806,3.5858585858585874 2.87878787878788,3.5858585858585874 2.7777777777777786,3.5858585858585874 2.676767676767678,3.5858585858585874 2.575757575757577,3.6868686868686877 2.4747474747474754,3.7878787878787885 2.373737373737375,3.8888888888888893 2.2727272727272734,3.989898989898992 2.1717171717171726,4.090909090909092 2.070707070707072,4.191919191919193 1.9696969696969702,4.191919191919193 1.8686868686868696,4.191919191919193 1.767676767676768,4.191919191919193 1.6666666666666674,4.191919191919193 1.5656565656565666,4.191919191919193 1.4646464646464652,4.191919191919193 1.3636363636363644,4.191919191919193 1.262626262626263,4.191919191919193 1.1616161616161622,4.191919191919193 1.0606060606060617,4.191919191919193 0.9595959595959602,4.191919191919193 0.8585858585858596,4.191919191919193 0.7575757575757579,4.191919191919193 0.6565656565656574,4.191919191919193 0.5555555555555567,4.191919191919193 0.4545454545454551,4.191919191919193 0.3535353535353544,4.191919191919193 0.2525252525252529,4.191919191919193 0.1515151515151522,4.191919191919193 0.050505050505051545,4.191919191919193 -0.05050505050505001,4.191919191919193 -0.15151515151515066,4.191919191919193 -0.2525252525252522,4.191919191919193 -0.35353535353535287,4.191919191919193 -0.4545454545454544,4.191919191919193 -0.555555555555555,4.191919191919193 -0.6565656565656557,4.191919191919193 -0.7575757575757572,4.191919191919193 -0.8585858585858579,4.191919191919193 -0.9595959595959596,4.191919191919193 -1.0606060606060603,4.191919191919193 -1.1616161616161613,4.191919191919193 -1.2626262626262625,4.191919191919193 -1.363636363636363,4.191919191919193 -1.4646464646464643,4.191919191919193 -1.5656565656565653,4.191919191919193 -1.6666666666666665,4.191919191919193 -1.7676767676767675,4.191919191919193 -1.8686868686868683,4.191919191919193 -1.9696969696969693,4.191919191919193 -2.07070707070707,4.191919191919193 -2.1717171717171713,4.191919191919193 -2.2727272727272725,4.191919191919193 -2.3737373737373733,4.191919191919193 -2.474747474747474,4.191919191919193 -2.5757575757575752,4.191919191919193 -2.6767676767676765,4.191919191919193 -2.7777777777777777,4.191919191919193 -2.8787878787878785,4.191919191919193 -2.9797979797979792,4.191919191919193 -3.0808080808080804,4.191919191919193 -3.1818181818181817,4.191919191919193 -3.2828282828282824,4.191919191919193 -3.383838383838383,4.191919191919193 -3.484848484848485,4.191919191919193 -3.5858585858585856,4.191919191919193 -3.6868686868686864,4.191919191919193 -3.7878787878787876,4.191919191919193 -3.8888888888888884,4.191919191919193 -3.98989898989899,4.191919191919193 -4.090909090909091,4.191919191919193 -4.191919191919193,4.191919191919193 -4.292929292929293,4.191919191919193 -4.393939393939394,4.191919191919193 -4.494949494949496,4.191919191919193 -4.595959595959596,4.191919191919193 -4.696969696969697,4.191919191919193 -4.7979797979797985,4.191919191919193 -4.898989898989899,4.191919191919193 -5.000000000000001,4.292929292929293" data-type="line" data-label="" points="984,192.56565656565675 974.4646464646464,192.56565656565675 964.9292929292927,183.03030303030312 955.3939393939393,173.4949494949496 945.8585858585857,173.4949494949496 936.3232323232323,173.4949494949496 926.7878787878785,173.4949494949496 917.2525252525251,173.4949494949496 907.7171717171716,173.4949494949496 898.181818181818,173.4949494949496 888.6464646464647,173.4949494949496 879.111111111111,173.4949494949496 869.5757575757575,173.4949494949496 860.0404040404039,173.4949494949496 850.5050505050505,173.4949494949496 840.969696969697,173.4949494949496 831.4343434343433,173.4949494949496 821.8989898989898,173.4949494949496 812.3636363636363,173.4949494949496 802.8282828282828,173.4949494949496 793.2929292929292,173.4949494949496 783.7575757575758,173.4949494949496 774.2222222222222,173.4949494949496 764.6868686868686,173.4949494949496 755.1515151515151,163.95959595959613 745.6161616161615,154.4242424242426 736.0808080808081,144.88888888888908 726.5454545454545,135.35353535353545 717.0101010101009,125.81818181818198 707.4747474747475,116.28282828282846 697.9393939393939,116.28282828282846 688.4040404040404,116.28282828282846 678.8686868686868,116.28282828282846 669.3333333333333,116.28282828282846 659.7979797979798,116.28282828282846 650.2626262626262,116.28282828282846 640.7272727272727,116.28282828282846 631.1919191919192,116.28282828282846 621.6565656565656,116.28282828282846 612.1212121212121,116.28282828282846 602.5858585858585,116.28282828282846 593.0505050505051,116.28282828282846 583.5151515151515,116.28282828282846 573.9797979797979,116.28282828282846 564.4444444444445,116.28282828282846 554.9090909090909,116.28282828282846 545.3737373737374,116.28282828282846 535.8383838383838,116.28282828282846 526.3030303030303,116.28282828282846 516.7676767676768,116.28282828282846 507.2323232323232,116.28282828282846 497.69696969696975,116.28282828282846 488.16161616161617,116.28282828282846 478.62626262626264,116.28282828282846 469.09090909090907,116.28282828282846 459.55555555555554,116.28282828282846 450.0202020202021,116.28282828282846 440.4848484848485,116.28282828282846 430.949494949495,116.28282828282846 421.4141414141414,116.28282828282846 411.8787878787879,116.28282828282846 402.34343434343435,116.28282828282846 392.80808080808083,116.28282828282846 383.2727272727273,116.28282828282846 373.7373737373738,116.28282828282846 364.2020202020202,116.28282828282846 354.6666666666667,116.28282828282846 345.13131313131316,116.28282828282846 335.59595959595964,116.28282828282846 326.0606060606061,116.28282828282846 316.5252525252526,116.28282828282846 306.9898989898991,116.28282828282846 297.4545454545455,116.28282828282846 287.91919191919203,116.28282828282846 278.38383838383845,116.28282828282846 268.84848484848493,116.28282828282846 259.3131313131314,116.28282828282846 249.77777777777783,116.28282828282846 240.2424242424243,116.28282828282846 230.70707070707084,116.28282828282846 221.17171717171726,116.28282828282846 211.63636363636374,116.28282828282846 202.10101010101022,116.28282828282846 192.5656565656567,116.28282828282846 183.03030303030312,116.28282828282846 173.4949494949496,116.28282828282846 163.95959595959607,116.28282828282846 154.42424242424255,116.28282828282846 144.88888888888903,116.28282828282846 135.35353535353545,116.28282828282846 125.81818181818193,116.28282828282846 116.28282828282829,116.28282828282846 106.74747474747483,116.28282828282846 97.21212121212136,116.28282828282846 87.67676767676772,116.28282828282846 78.14141414141426,116.28282828282846 68.60606060606068,116.28282828282846 59.07070707070716,116.28282828282846 49.53535353535369,116.28282828282846 40.00000000000006,106.747474747475" fill="none" stroke="rgba(255,0,0,0.75)" stroke-width="11.327999999999996"/></g><g><polyline data-points="-3.7878787878787876,-5.000000000000001 -3.7878787878787876,-4.898989898989899 -3.8888888888888884,-4.7979797979797985 -3.98989898989899,-4.696969696969697 -3.98989898989899,-4.595959595959596 -3.98989898989899,-4.494949494949496 -3.98989898989899,-4.393939393939394 -3.98989898989899,-4.292929292929293 -3.98989898989899,-4.191919191919193 -3.98989898989899,-4.090909090909091 -3.98989898989899,-3.98989898989899 -3.98989898989899,-3.8888888888888884 -3.98989898989899,-3.7878787878787876 -3.98989898989899,-3.6868686868686864 -3.98989898989899,-3.5858585858585856 -3.98989898989899,-3.484848484848485 -3.98989898989899,-3.383838383838383 -3.98989898989899,-3.2828282828282824 -3.98989898989899,-3.1818181818181817" data-type="line" data-label="" points="154.42424242424255,984 154.42424242424255,974.4646464646464 144.88888888888903,964.9292929292928 135.35353535353545,955.3939393939394 135.35353535353545,945.8585858585858 135.35353535353545,936.3232323232323 135.35353535353545,926.7878787878788 135.35353535353545,917.2525252525252 135.35353535353545,907.7171717171718 135.35353535353545,898.1818181818181 135.35353535353545,888.6464646464647 135.35353535353545,879.1111111111111 135.35353535353545,869.5757575757575 135.35353535353545,860.0404040404039 135.35353535353545,850.5050505050505 135.35353535353545,840.969696969697 135.35353535353545,831.4343434343434 135.35353535353545,821.8989898989898 135.35353535353545,812.3636363636363" fill="none" stroke="rgba(255,0,0,0.75)" stroke-width="11.327999999999996"/></g><g><polyline data-points="-3.98989898989899,-3.1818181818181817 -3.98989898989899,-3.0808080808080804 -3.98989898989899,-2.9797979797979792 -3.98989898989899,-2.8787878787878785 -3.98989898989899,-2.7777777777777777 -3.98989898989899,-2.6767676767676765 -3.98989898989899,-2.5757575757575752 -3.98989898989899,-2.474747474747474 -3.98989898989899,-2.3737373737373733 -3.98989898989899,-2.2727272727272725 -3.98989898989899,-2.1717171717171713" data-type="line" data-label="" points="135.35353535353545,812.3636363636363 135.35353535353545,802.8282828282828 135.35353535353545,793.2929292929292 135.35353535353545,783.7575757575758 135.35353535353545,774.2222222222222 135.35353535353545,764.6868686868687 135.35353535353545,755.1515151515151 135.35353535353545,745.6161616161615 135.35353535353545,736.0808080808081 135.35353535353545,726.5454545454545 135.35353535353545,717.010101010101" fill="none" stroke="rgba(0,0,255,0.75)" stroke-width="11.327999999999996"/></g><g><polyline data-points="-3.98989898989899,-2.1717171717171713 -4.090909090909091,-2.07070707070707 -4.191919191919193,-1.9696969696969693 -4.292929292929293,-1.8686868686868683 -4.393939393939394,-1.7676767676767675 -4.494949494949496,-1.6666666666666665 -4.595959595959596,-1.5656565656565653 -4.696969696969697,-1.4646464646464643 -4.7979797979797985,-1.363636363636363 -4.898989898989899,-1.2626262626262625 -4.898989898989899,-1.1616161616161613 -4.898989898989899,-1.0606060606060603 -5.000000000000001,-0.9595959595959596" data-type="line" data-label="" points="135.35353535353545,717.010101010101 125.81818181818193,707.4747474747475 116.28282828282829,697.939393939394 106.74747474747483,688.4040404040404 97.21212121212136,678.8686868686868 87.67676767676772,669.3333333333334 78.14141414141426,659.7979797979798 68.60606060606068,650.2626262626263 59.07070707070716,640.7272727272727 49.53535353535369,631.1919191919193 49.53535353535369,621.6565656565657 49.53535353535369,612.1212121212121 40.00000000000006,602.5858585858587" fill="none" stroke="rgba(255,0,0,0.75)" stroke-width="11.327999999999996"/></g><g><rect data-type="rect" data-label="" data-x="0" data-y="0" x="40.000000000000114" y="40.000000000000284" width="943.9999999999997" height="943.9999999999998" fill="none" stroke="gray" stroke-width="0.010593220338983056"/></g><g><rect data-type="rect" data-label="" data-x="0" data-y="0" x="40.000000000000114" y="40.000000000000284" width="943.9999999999997" height="943.9999999999998" fill="none" stroke="rgba(15, 23, 42, 0.8)" stroke-width="0.010593220338983056"/></g><circle data-type="circle" data-label="" data-x="2.676767676767678" data-y="3.8888888888888893" cx="764.6868686868686" cy="144.88888888888908" r="14.159999999999995" fill="rgba(0,0,0,0.3)" stroke="black" stroke-width="0.010593220338983056"/><circle data-type="circle" data-label="" data-x="-2.1717171717171713" data-y="-3.98989898989899" cx="306.9898989898991" cy="888.6464646464647" r="14.159999999999995" fill="rgba(0,0,0,0.3)" stroke="black" stroke-width="0.010593220338983056"/><circle data-type="circle" data-label="" data-x="-2.5757575757575752" data-y="-0.6565656565656557" cx="268.84848484848493" cy="573.979797979798" r="14.159999999999995" fill="rgba(0,0,0,0.3)" stroke="black" stroke-width="0.010593220338983056"/><circle data-type="circle" data-label="" data-x="-2.5757575757575752" data-y="0.6565656565656574" cx="268.84848484848493" cy="450.0202020202021" r="14.159999999999995" fill="rgba(0,0,0,0.3)" stroke="black" stroke-width="0.010593220338983056"/><circle data-type="circle" data-label="" data-x="3.989898989898992" data-y="1.767676767676768" cx="888.6464646464647" cy="345.1313131313133" r="14.159999999999995" fill="rgba(0,0,0,0.3)" stroke="black" stroke-width="0.010593220338983056"/><circle data-type="circle" data-label="" data-x="-3.98989898989899" data-y="-3.1818181818181817" cx="135.35353535353545" cy="812.3636363636363" r="14.159999999999995" fill="rgba(0,0,0,0.3)" stroke="black" stroke-width="0.010593220338983056"/><circle data-type="circle" data-label="" data-x="-3.98989898989899" data-y="-2.1717171717171713" cx="135.35353535353545" cy="717.010101010101" r="14.159999999999995" fill="rgba(0,0,0,0.3)" stroke="black" stroke-width="0.010593220338983056"/><g id="crosshair" style="display: none"><line id="crosshair-h" y1="0" y2="1024" stroke="#666" stroke-width="0.5"/><line id="crosshair-v" x1="0" x2="1024" stroke="#666" stroke-width="0.5"/><text id="coordinates" font-family="monospace" font-size="12" fill="#666"></text></g><script><![CDATA[
              document.currentScript.parentElement.addEventListener('mousemove', (e) => {
                const svg = e.currentTarget;
                const rect = svg.getBoundingClientRect();
                const x = e.clientX - rect.left;
                const y = e.clientY - rect.top;
                const crosshair = svg.getElementById('crosshair');
                const h = svg.getElementById('crosshair-h');
                const v = svg.getElementById('crosshair-v');
                const coords = svg.getElementById('coordinates');
                
                crosshair.style.display = 'block';
                h.setAttribute('x1', '0');
                h.setAttribute('x2', '1024');
                h.setAttribute('y1', y);
                h.setAttribute('y2', y);
                v.setAttribute('x1', x);
                v.setAttribute('x2', x);
                v.setAttribute('y1', '0');
                v.setAttribute('y2', '1024');

                // Calculate real coordinates using inverse transformation
                const matrix = {"a":94.39999999999996,"c":0,"e":511.99999999999994,"b":0,"d":-94.39999999999996,"f":512.0000000000001};
                // Manually invert and apply the affine transform
                // Since we only use translate and scale, we can directly compute:
                // x' = (x - tx) / sx
                // y' = (y - ty) / sy
                const sx = matrix.a;
                const sy = matrix.d;
                const tx = matrix.e; 
                const ty = matrix.f;
                const realPoint = {
                  x: (x - tx) / sx,
                  y: (y - ty) / sy // Flip y back since we used negative scale
                }
                
                coords.textContent = `(${realPoint.x.toFixed(2)}, ${realPoint.y.toFixed(2)})`;
                coords.setAttribute('x', (x + 5).toString());
                coords.setAttribute('y', (y - 5).toString());
              });
              document.currentScript.parentElement.addEventListener('mouseleave', () => {
                document.currentScript.parentElement.getElementById('crosshair').style.display = 'none';
              });
            ]]></script></svg>