<svg width="1024" height="1024" viewBox="0 0 1024 1024" xmlns="http://www.w3.org/2000/svg"><rect width="100%" height="100%" fill="white"/><g><circle data-type="point" data-label="conn_000" data-x="-4.08" data-y="-5" cx="126.84800000000007" cy="984" r="14.16" fill="red"/></g><g><circle data-type="point" data-label="conn_000" data-x="2.88" data-y="5" cx="783.8719999999998" cy="40.000000000000284" r="14.16" fill="red"/></g><g><circle data-type="point" data-label="conn_001" data-x="-5" data-y="2.46" cx="40.000000000000114" cy="279.7760000000002" r="14.16" fill="blue"/></g><g><circle data-type="point" data-label="conn_001" data-x="5" data-y="3.42" cx="983.9999999999998" cy="189.15200000000027" r="14.16" fill="red"/></g><g><circle data-type="point" data-label="conn_002" data-x="-5" data-y="-3.92" cx="40.000000000000114" cy="882.048" r="14.16" fill="blue"/></g><g><circle data-type="point" data-label="conn_002" data-x="5" data-y="-0.84" cx="983.9999999999998" cy="591.296" r="14.16" fill="blue"/></g><g><circle data-type="point" data-label="conn_003" data-x="-1.82" data-y="-5" cx="340.192" cy="984" r="14.16" fill="red"/></g><g><circle data-type="point" data-label="conn_003" data-x="3.5" data-y="5" cx="842.3999999999999" cy="40.000000000000284" r="14.16" fill="red"/></g><g><circle data-type="point" data-label="conn_004" data-x="5" data-y="-1.92" cx="983.9999999999998" cy="693.248" r="14.16" fill="blue"/></g><g><circle data-type="point" data-label="conn_004" data-x="-5" data-y="3.24" cx="40.000000000000114" cy="206.14400000000023" r="14.16" fill="blue"/></g><g><circle data-type="point" data-label="conn_005" data-x="5" data-y="0.8200000000000001" cx="983.9999999999998" cy="434.59200000000016" r="14.16" fill="blue"/></g><g><circle data-type="point" data-label="conn_005" data-x="-3.88" data-y="5" cx="145.72800000000012" cy="40.000000000000284" r="14.16" fill="blue"/></g><g><circle data-type="point" data-label="conn_006" data-x="-5" data-y="-3.34" cx="40.000000000000114" cy="827.296" r="14.16" fill="blue"/></g><g><circle data-type="point" data-label="conn_006" data-x="5" data-y="-0.86" cx="983.9999999999998" cy="593.1840000000001" r="14.16" fill="red"/></g><g><circle data-type="point" data-label="conn_007" data-x="5" data-y="-2.86" cx="983.9999999999998" cy="781.9839999999999" r="14.16" fill="blue"/></g><g><circle data-type="point" data-label="conn_007" data-x="5" data-y="-1.8" cx="983.9999999999998" cy="681.9200000000001" r="14.16" fill="blue"/></g><g><circle data-type="point" data-label="conn_008" data-x="3.84" data-y="5" cx="874.4959999999999" cy="40.000000000000284" r="14.16" fill="blue"/></g><g><circle data-type="point" data-label="conn_008" data-x="-4.66" data-y="-5" cx="72.09600000000012" cy="984" r="14.16" fill="blue"/></g><g><circle data-type="point" data-label="conn_009" data-x="5" data-y="-4.34" cx="983.9999999999998" cy="921.6959999999999" r="14.16" fill="red"/></g><g><circle data-type="point" data-label="conn_009" data-x="-5" data-y="-1.2" cx="40.000000000000114" cy="625.2800000000001" r="14.16" fill="red"/></g><g><polyline data-points="5.000000000000002,0.8585858585858596 4.898989898989901,0.9595959595959602 4.7979797979797985,1.0606060606060617 4.696969696969697,1.1616161616161622 4.595959595959597,1.262626262626263 4.494949494949497,1.3636363636363644 4.393939393939394,1.4646464646464652 4.292929292929293,1.5656565656565666 4.191919191919193,1.6666666666666674 4.090909090909092,1.767676767676768 3.989898989898992,1.8686868686868696 3.8888888888888893,1.9696969696969702 3.7878787878787885,2.070707070707072 3.6868686868686877,2.1717171717171726 3.5858585858585874,2.2727272727272734 3.4848484848484866,2.373737373737375 3.383838383838384,2.4747474747474754 3.2828282828282833,2.575757575757577 3.181818181818183,2.676767676767678 3.080808080808082,2.7777777777777786 2.9797979797979806,2.87878787878788 2.87878787878788,2.9797979797979806 2.7777777777777786,3.080808080808082 2.676767676767678,3.181818181818183 2.575757575757577,3.2828282828282833 2.4747474747474754,3.383838383838384 2.373737373737375,3.4848484848484866 2.2727272727272734,3.5858585858585874 2.1717171717171726,3.6868686868686877 2.070707070707072,3.7878787878787885 1.9696969696969702,3.8888888888888893 1.8686868686868696,3.989898989898992 1.767676767676768,4.090909090909092 1.6666666666666674,4.191919191919193 1.5656565656565666,4.292929292929293 1.4646464646464652,4.393939393939394 1.3636363636363644,4.494949494949497 1.262626262626263,4.595959595959597 1.1616161616161622,4.696969696969697 1.0606060606060617,4.7979797979797985 0.9595959595959602,4.898989898989901 0.8585858585858596,5.000000000000002 0.7575757575757579,5.000000000000002 0.6565656565656574,5.000000000000002 0.5555555555555567,5.000000000000002 0.4545454545454551,5.000000000000002 0.3535353535353544,5.000000000000002 0.2525252525252529,5.000000000000002 0.1515151515151522,5.000000000000002 0.050505050505051545,5.000000000000002 -0.05050505050505001,5.000000000000002 -0.15151515151515066,5.000000000000002 -0.2525252525252522,5.000000000000002 -0.35353535353535287,5.000000000000002 -0.4545454545454544,5.000000000000002 -0.555555555555555,5.000000000000002 -0.6565656565656557,5.000000000000002 -0.7575757575757572,5.000000000000002 -0.8585858585858579,5.000000000000002 -0.9595959595959596,5.000000000000002 -1.0606060606060603,5.000000000000002 -1.1616161616161613,5.000000000000002 -1.2626262626262625,5.000000000000002 -1.363636363636363,5.000000000000002 -1.4646464646464643,5.000000000000002 -1.5656565656565653,5.000000000000002 -1.6666666666666665,5.000000000000002 -1.7676767676767675,5.000000000000002 -1.8686868686868683,5.000000000000002 -1.9696969696969693,5.000000000000002 -2.07070707070707,5.000000000000002 -2.1717171717171713,5.000000000000002 -2.2727272727272725,5.000000000000002 -2.3737373737373733,5.000000000000002 -2.474747474747474,5.000000000000002 -2.5757575757575752,5.000000000000002 -2.6767676767676765,5.000000000000002 -2.7777777777777777,5.000000000000002 -2.8787878787878785,5.000000000000002 -2.9797979797979792,5.000000000000002 -3.0808080808080804,5.000000000000002 -3.1818181818181817,5.000000000000002 -3.2828282828282824,5.000000000000002 -3.383838383838383,5.000000000000002 -3.484848484848485,5.000000000000002 -3.5858585858585856,5.000000000000002 -3.6868686868686864,5.000000000000002 -3.7878787878787876,5.000000000000002 -3.8888888888888884,5.000000000000002" data-type="line" data-label="" points="984,430.94949494949503 974.4646464646464,421.4141414141415 964.9292929292927,411.87878787878793 955.3939393939393,402.3434343434344 945.8585858585857,392.80808080808094 936.3232323232323,383.27272727272737 926.7878787878785,373.73737373737384 917.2525252525251,364.2020202020203 907.7171717171716,354.66666666666674 898.181818181818,345.1313131313133 888.6464646464647,335.5959595959597 879.111111111111,326.06060606060623 869.5757575757575,316.5252525252526 860.0404040404039,306.9898989898991 850.5050505050505,297.4545454545456 840.969696969697,287.91919191919203 831.4343434343433,278.38383838383857 821.8989898989898,268.84848484848493 812.3636363636363,259.3131313131314 802.8282828282828,249.77777777777794 793.2929292929292,240.24242424242436 783.7575757575758,230.70707070707084 774.2222222222222,221.17171717171726 764.6868686868686,211.63636363636374 755.1515151515151,202.10101010101027 745.6161616161615,192.56565656565675 736.0808080808081,183.03030303030312 726.5454545454545,173.4949494949496 717.0101010101009,163.95959595959613 707.4747474747475,154.4242424242426 697.9393939393939,144.88888888888908 688.4040404040404,135.35353535353545 678.8686868686868,125.81818181818198 669.3333333333333,116.28282828282846 659.7979797979798,106.747474747475 650.2626262626262,97.21212121212153 640.7272727272727,87.67676767676778 631.1919191919192,78.14141414141432 621.6565656565656,68.60606060606085 612.1212121212121,59.07070707070733 602.5858585858585,49.53535353535369 593.0505050505051,40.000000000000114 583.5151515151515,40.000000000000114 573.9797979797979,40.000000000000114 564.4444444444445,40.000000000000114 554.9090909090909,40.000000000000114 545.3737373737374,40.000000000000114 535.8383838383838,40.000000000000114 526.3030303030303,40.000000000000114 516.7676767676768,40.000000000000114 507.2323232323232,40.000000000000114 497.69696969696975,40.000000000000114 488.16161616161617,40.000000000000114 478.62626262626264,40.000000000000114 469.09090909090907,40.000000000000114 459.55555555555554,40.000000000000114 450.0202020202021,40.000000000000114 440.4848484848485,40.000000000000114 430.949494949495,40.000000000000114 421.4141414141414,40.000000000000114 411.8787878787879,40.000000000000114 402.34343434343435,40.000000000000114 392.80808080808083,40.000000000000114 383.2727272727273,40.000000000000114 373.7373737373738,40.000000000000114 364.2020202020202,40.000000000000114 354.6666666666667,40.000000000000114 345.13131313131316,40.000000000000114 335.59595959595964,40.000000000000114 326.0606060606061,40.000000000000114 316.5252525252526,40.000000000000114 306.9898989898991,40.000000000000114 297.4545454545455,40.000000000000114 287.91919191919203,40.000000000000114 278.38383838383845,40.000000000000114 268.84848484848493,40.000000000000114 259.3131313131314,40.000000000000114 249.77777777777783,40.000000000000114 240.2424242424243,40.000000000000114 230.70707070707084,40.000000000000114 221.17171717171726,40.000000000000114 211.63636363636374,40.000000000000114 202.10101010101022,40.000000000000114 192.5656565656567,40.000000000000114 183.03030303030312,40.000000000000114 173.4949494949496,40.000000000000114 163.95959595959607,40.000000000000114 154.42424242424255,40.000000000000114 144.88888888888903,40.000000000000114" fill="none" stroke="rgba(0,0,255,0.75)" stroke-width="11.327999999999996"/></g><g><polyline data-points="-1.8686868686868683,-5.000000000000001 -1.7676767676767675,-4.898989898989899 -1.6666666666666665,-4.7979797979797985 -1.5656565656565653,-4.696969696969697 -1.4646464646464643,-4.595959595959596 -1.363636363636363,-4.494949494949496 -1.2626262626262625,-4.393939393939394 -1.1616161616161613,-4.292929292929293 -1.0606060606060603,-4.191919191919193 -0.9595959595959596,-4.090909090909091 -0.8585858585858579,-3.98989898989899 -0.7575757575757572,-3.8888888888888884 -0.6565656565656557,-3.7878787878787876 -0.555555555555555,-3.6868686868686864 -0.4545454545454544,-3.5858585858585856 -0.35353535353535287,-3.484848484848485 -0.2525252525252522,-3.383838383838383 -0.15151515151515066,-3.2828282828282824 -0.05050505050505001,-3.1818181818181817 0.050505050505051545,-3.0808080808080804 0.1515151515151522,-2.9797979797979792 0.2525252525252529,-2.8787878787878785 0.3535353535353544,-2.7777777777777777 0.4545454545454551,-2.6767676767676765 0.5555555555555567,-2.5757575757575752 0.6565656565656574,-2.474747474747474 0.7575757575757579,-2.3737373737373733 0.8585858585858596,-2.2727272727272725 0.9595959595959602,-2.1717171717171713 1.0606060606060617,-2.07070707070707 1.1616161616161622,-1.9696969696969693 1.262626262626263,-1.8686868686868683 1.3636363636363644,-1.7676767676767675 1.4646464646464652,-1.6666666666666665 1.5656565656565666,-1.5656565656565653 1.6666666666666674,-1.4646464646464643 1.767676767676768,-1.363636363636363 1.8686868686868696,-1.2626262626262625 1.9696969696969702,-1.1616161616161613 2.070707070707072,-1.0606060606060603 2.1717171717171726,-0.9595959595959596 2.2727272727272734,-0.8585858585858579 2.373737373737375,-0.7575757575757572 2.4747474747474754,-0.6565656565656557 2.575757575757577,-0.555555555555555 2.676767676767678,-0.4545454545454544 2.7777777777777786,-0.35353535353535287 2.87878787878788,-0.2525252525252522 2.9797979797979806,-0.15151515151515066 3.080808080808082,-0.05050505050505001 3.181818181818183,0.050505050505051545 3.2828282828282833,0.1515151515151522 3.383838383838384,0.2525252525252529 3.4848484848484866,0.3535353535353544 3.5858585858585874,0.4545454545454551 3.5858585858585874,0.5555555555555567 3.5858585858585874,0.6565656565656574 3.5858585858585874,0.7575757575757579 3.5858585858585874,0.8585858585858596 3.5858585858585874,0.9595959595959602 3.5858585858585874,1.0606060606060617 3.5858585858585874,1.1616161616161622 3.5858585858585874,1.262626262626263 3.5858585858585874,1.3636363636363644 3.5858585858585874,1.4646464646464652 3.5858585858585874,1.5656565656565666 3.5858585858585874,1.6666666666666674 3.5858585858585874,1.767676767676768 3.5858585858585874,1.8686868686868696 3.5858585858585874,1.9696969696969702 3.5858585858585874,2.070707070707072 3.5858585858585874,2.1717171717171726 3.5858585858585874,2.2727272727272734 3.5858585858585874,2.373737373737375 3.5858585858585874,2.4747474747474754 3.5858585858585874,2.575757575757577 3.5858585858585874,2.676767676767678 3.5858585858585874,2.7777777777777786 3.5858585858585874,2.87878787878788 3.5858585858585874,2.9797979797979806 3.5858585858585874,3.080808080808082 3.5858585858585874,3.181818181818183 3.5858585858585874,3.2828282828282833 3.5858585858585874,3.383838383838384 3.5858585858585874,3.4848484848484866 3.5858585858585874,3.5858585858585874 3.5858585858585874,3.6868686868686877 3.5858585858585874,3.7878787878787885 3.5858585858585874,3.8888888888888893 3.5858585858585874,3.989898989898992 3.5858585858585874,4.090909090909092 3.5858585858585874,4.191919191919193 3.5858585858585874,4.292929292929293 3.5858585858585874,4.393939393939394 3.5858585858585874,4.494949494949497 3.5858585858585874,4.595959595959597 3.5858585858585874,4.696969696969697 3.5858585858585874,4.7979797979797985 3.5858585858585874,4.898989898989901 3.5858585858585874,5.000000000000002" data-type="line" data-label="" points="335.59595959595964,984 345.13131313131316,974.4646464646464 354.6666666666667,964.9292929292928 364.2020202020202,955.3939393939394 373.7373737373738,945.8585858585858 383.2727272727273,936.3232323232323 392.80808080808083,926.7878787878788 402.34343434343435,917.2525252525252 411.8787878787879,907.7171717171718 421.4141414141414,898.1818181818181 430.949494949495,888.6464646464647 440.4848484848485,879.1111111111111 450.0202020202021,869.5757575757575 459.55555555555554,860.0404040404039 469.09090909090907,850.5050505050505 478.62626262626264,840.969696969697 488.16161616161617,831.4343434343434 497.69696969696975,821.8989898989898 507.2323232323232,812.3636363636363 516.7676767676768,802.8282828282828 526.3030303030303,793.2929292929292 535.8383838383838,783.7575757575758 545.3737373737374,774.2222222222222 554.9090909090909,764.6868686868687 564.4444444444445,755.1515151515151 573.9797979797979,745.6161616161615 583.5151515151515,736.0808080808081 593.0505050505051,726.5454545454545 602.5858585858585,717.010101010101 612.1212121212121,707.4747474747475 621.6565656565656,697.939393939394 631.1919191919192,688.4040404040404 640.7272727272727,678.8686868686868 650.2626262626262,669.3333333333334 659.7979797979798,659.7979797979798 669.3333333333333,650.2626262626263 678.8686868686868,640.7272727272727 688.4040404040404,631.1919191919193 697.9393939393939,621.6565656565657 707.4747474747475,612.1212121212121 717.0101010101009,602.5858585858587 726.5454545454545,593.0505050505051 736.0808080808081,583.5151515151516 745.6161616161615,573.979797979798 755.1515151515151,564.4444444444445 764.6868686868686,554.909090909091 774.2222222222222,545.3737373737374 783.7575757575758,535.838383838384 793.2929292929292,526.3030303030304 802.8282828282828,516.7676767676768 812.3636363636363,507.23232323232327 821.8989898989898,497.69696969696975 831.4343434343433,488.1616161616163 840.969696969697,478.6262626262627 850.5050505050505,469.0909090909092 850.5050505050505,459.5555555555556 850.5050505050505,450.0202020202021 850.5050505050505,440.4848484848486 850.5050505050505,430.94949494949503 850.5050505050505,421.4141414141415 850.5050505050505,411.87878787878793 850.5050505050505,402.3434343434344 850.5050505050505,392.80808080808094 850.5050505050505,383.27272727272737 850.5050505050505,373.73737373737384 850.5050505050505,364.2020202020203 850.5050505050505,354.66666666666674 850.5050505050505,345.1313131313133 850.5050505050505,335.5959595959597 850.5050505050505,326.06060606060623 850.5050505050505,316.5252525252526 850.5050505050505,306.9898989898991 850.5050505050505,297.4545454545456 850.5050505050505,287.91919191919203 850.5050505050505,278.38383838383857 850.5050505050505,268.84848484848493 850.5050505050505,259.3131313131314 850.5050505050505,249.77777777777794 850.5050505050505,240.24242424242436 850.5050505050505,230.70707070707084 850.5050505050505,221.17171717171726 850.5050505050505,211.63636363636374 850.5050505050505,202.10101010101027 850.5050505050505,192.56565656565675 850.5050505050505,183.03030303030312 850.5050505050505,173.4949494949496 850.5050505050505,163.95959595959613 850.5050505050505,154.4242424242426 850.5050505050505,144.88888888888908 850.5050505050505,135.35353535353545 850.5050505050505,125.81818181818198 850.5050505050505,116.28282828282846 850.5050505050505,106.747474747475 850.5050505050505,97.21212121212153 850.5050505050505,87.67676767676778 850.5050505050505,78.14141414141432 850.5050505050505,68.60606060606085 850.5050505050505,59.07070707070733 850.5050505050505,49.53535353535369 850.5050505050505,40.000000000000114" fill="none" stroke="rgba(255,0,0,0.75)" stroke-width="11.327999999999996"/></g><g><polyline data-points="-5.000000000000001,2.4747474747474754 -4.898989898989899,2.575757575757577 -4.7979797979797985,2.676767676767678 -4.696969696969697,2.7777777777777786 -4.595959595959596,2.87878787878788 -4.494949494949496,2.9797979797979806 -4.393939393939394,3.080808080808082 -4.292929292929293,3.181818181818183 -4.191919191919193,3.2828282828282833 -4.090909090909091,3.383838383838384 -3.98989898989899,3.4848484848484866 -3.8888888888888884,3.4848484848484866 -3.7878787878787876,3.4848484848484866 -3.6868686868686864,3.4848484848484866 -3.5858585858585856,3.4848484848484866 -3.484848484848485,3.4848484848484866 -3.383838383838383,3.4848484848484866 -3.2828282828282824,3.4848484848484866 -3.1818181818181817,3.4848484848484866 -3.0808080808080804,3.4848484848484866 -2.9797979797979792,3.4848484848484866 -2.8787878787878785,3.4848484848484866 -2.7777777777777777,3.4848484848484866 -2.6767676767676765,3.4848484848484866 -2.5757575757575752,3.4848484848484866 -2.474747474747474,3.4848484848484866 -2.3737373737373733,3.4848484848484866 -2.2727272727272725,3.4848484848484866 -2.1717171717171713,3.4848484848484866 -2.07070707070707,3.4848484848484866 -1.9696969696969693,3.4848484848484866 -1.8686868686868683,3.4848484848484866 -1.7676767676767675,3.4848484848484866 -1.6666666666666665,3.4848484848484866 -1.5656565656565653,3.4848484848484866 -1.4646464646464643,3.4848484848484866 -1.363636363636363,3.4848484848484866 -1.2626262626262625,3.4848484848484866 -1.1616161616161613,3.4848484848484866 -1.0606060606060603,3.4848484848484866 -0.9595959595959596,3.4848484848484866 -0.8585858585858579,3.4848484848484866 -0.7575757575757572,3.4848484848484866 -0.6565656565656557,3.4848484848484866 -0.555555555555555,3.4848484848484866 -0.4545454545454544,3.4848484848484866 -0.35353535353535287,3.4848484848484866 -0.2525252525252522,3.4848484848484866 -0.15151515151515066,3.4848484848484866 -0.05050505050505001,3.4848484848484866 0.050505050505051545,3.4848484848484866 0.1515151515151522,3.4848484848484866 0.2525252525252529,3.4848484848484866 0.3535353535353544,3.4848484848484866 0.4545454545454551,3.4848484848484866 0.5555555555555567,3.4848484848484866 0.6565656565656574,3.4848484848484866 0.7575757575757579,3.4848484848484866 0.8585858585858596,3.4848484848484866 0.9595959595959602,3.4848484848484866 1.0606060606060617,3.4848484848484866 1.1616161616161622,3.4848484848484866 1.262626262626263,3.4848484848484866 1.3636363636363644,3.4848484848484866 1.4646464646464652,3.4848484848484866 1.5656565656565666,3.4848484848484866 1.6666666666666674,3.4848484848484866 1.767676767676768,3.4848484848484866 1.8686868686868696,3.4848484848484866" data-type="line" data-label="" points="40.00000000000006,278.38383838383857 49.53535353535369,268.84848484848493 59.07070707070716,259.3131313131314 68.60606060606068,249.77777777777794 78.14141414141426,240.24242424242436 87.67676767676772,230.70707070707084 97.21212121212136,221.17171717171726 106.74747474747483,211.63636363636374 116.28282828282829,202.10101010101027 125.81818181818193,192.56565656565675 135.35353535353545,183.03030303030312 144.88888888888903,183.03030303030312 154.42424242424255,183.03030303030312 163.95959595959607,183.03030303030312 173.4949494949496,183.03030303030312 183.03030303030312,183.03030303030312 192.5656565656567,183.03030303030312 202.10101010101022,183.03030303030312 211.63636363636374,183.03030303030312 221.17171717171726,183.03030303030312 230.70707070707084,183.03030303030312 240.2424242424243,183.03030303030312 249.77777777777783,183.03030303030312 259.3131313131314,183.03030303030312 268.84848484848493,183.03030303030312 278.38383838383845,183.03030303030312 287.91919191919203,183.03030303030312 297.4545454545455,183.03030303030312 306.9898989898991,183.03030303030312 316.5252525252526,183.03030303030312 326.0606060606061,183.03030303030312 335.59595959595964,183.03030303030312 345.13131313131316,183.03030303030312 354.6666666666667,183.03030303030312 364.2020202020202,183.03030303030312 373.7373737373738,183.03030303030312 383.2727272727273,183.03030303030312 392.80808080808083,183.03030303030312 402.34343434343435,183.03030303030312 411.8787878787879,183.03030303030312 421.4141414141414,183.03030303030312 430.949494949495,183.03030303030312 440.4848484848485,183.03030303030312 450.0202020202021,183.03030303030312 459.55555555555554,183.03030303030312 469.09090909090907,183.03030303030312 478.62626262626264,183.03030303030312 488.16161616161617,183.03030303030312 497.69696969696975,183.03030303030312 507.2323232323232,183.03030303030312 516.7676767676768,183.03030303030312 526.3030303030303,183.03030303030312 535.8383838383838,183.03030303030312 545.3737373737374,183.03030303030312 554.9090909090909,183.03030303030312 564.4444444444445,183.03030303030312 573.9797979797979,183.03030303030312 583.5151515151515,183.03030303030312 593.0505050505051,183.03030303030312 602.5858585858585,183.03030303030312 612.1212121212121,183.03030303030312 621.6565656565656,183.03030303030312 631.1919191919192,183.03030303030312 640.7272727272727,183.03030303030312 650.2626262626262,183.03030303030312 659.7979797979798,183.03030303030312 669.3333333333333,183.03030303030312 678.8686868686868,183.03030303030312 688.4040404040404,183.03030303030312" fill="none" stroke="rgba(0,0,255,0.75)" stroke-width="11.327999999999996"/></g><g><polyline data-points="1.8686868686868696,3.4848484848484866 1.9696969696969702,3.4848484848484866 2.070707070707072,3.4848484848484866 2.1717171717171726,3.4848484848484866 2.2727272727272734,3.4848484848484866 2.373737373737375,3.4848484848484866 2.4747474747474754,3.4848484848484866 2.575757575757577,3.4848484848484866 2.676767676767678,3.4848484848484866 2.7777777777777786,3.4848484848484866 2.87878787878788,3.4848484848484866 2.9797979797979806,3.4848484848484866 3.080808080808082,3.4848484848484866 3.181818181818183,3.4848484848484866" data-type="line" data-label="" points="688.4040404040404,183.03030303030312 697.9393939393939,183.03030303030312 707.4747474747475,183.03030303030312 717.0101010101009,183.03030303030312 726.5454545454545,183.03030303030312 736.0808080808081,183.03030303030312 745.6161616161615,183.03030303030312 755.1515151515151,183.03030303030312 764.6868686868686,183.03030303030312 774.2222222222222,183.03030303030312 783.7575757575758,183.03030303030312 793.2929292929292,183.03030303030312 802.8282828282828,183.03030303030312 812.3636363636363,183.03030303030312" fill="none" stroke="rgba(255,0,0,0.75)" stroke-width="11.327999999999996"/></g><g><polyline data-points="3.181818181818183,3.4848484848484866 3.2828282828282833,3.4848484848484866 3.383838383838384,3.4848484848484866 3.4848484848484866,3.4848484848484866 3.5858585858585874,3.4848484848484866 3.6868686868686877,3.4848484848484866 3.7878787878787885,3.4848484848484866 3.8888888888888893,3.4848484848484866 3.989898989898992,3.4848484848484866" data-type="line" data-label="" points="812.3636363636363,183.03030303030312 821.8989898989898,183.03030303030312 831.4343434343433,183.03030303030312 840.969696969697,183.03030303030312 850.5050505050505,183.03030303030312 860.0404040404039,183.03030303030312 869.5757575757575,183.03030303030312 879.111111111111,183.03030303030312 888.6464646464647,183.03030303030312" fill="none" stroke="rgba(0,0,255,0.75)" stroke-width="11.327999999999996"/></g><g><polyline data-points="3.989898989898992,3.4848484848484866 4.090909090909092,3.4848484848484866 4.191919191919193,3.4848484848484866 4.292929292929293,3.4848484848484866 4.393939393939394,3.4848484848484866 4.494949494949497,3.4848484848484866 4.595959595959597,3.4848484848484866 4.696969696969697,3.4848484848484866 4.7979797979797985,3.4848484848484866 4.898989898989901,3.4848484848484866 5.000000000000002,3.4848484848484866" data-type="line" data-label="" points="888.6464646464647,183.03030303030312 898.181818181818,183.03030303030312 907.7171717171716,183.03030303030312 917.2525252525251,183.03030303030312 926.7878787878785,183.03030303030312 936.3232323232323,183.03030303030312 945.8585858585857,183.03030303030312 955.3939393939393,183.03030303030312 964.9292929292927,183.03030303030312 974.4646464646464,183.03030303030312 984,183.03030303030312" fill="none" stroke="rgba(255,0,0,0.75)" stroke-width="11.327999999999996"/></g><g><polyline data-points="-5.000000000000001,-3.383838383838383 -4.898989898989899,-3.2828282828282824 -4.7979797979797985,-3.1818181818181817 -4.696969696969697,-3.0808080808080804 -4.595959595959596,-2.9797979797979792 -4.494949494949496,-2.8787878787878785 -4.393939393939394,-2.7777777777777777 -4.292929292929293,-2.6767676767676765 -4.191919191919193,-2.5757575757575752 -4.090909090909091,-2.474747474747474 -3.98989898989899,-2.3737373737373733 -3.8888888888888884,-2.2727272727272725 -3.7878787878787876,-2.1717171717171713 -3.6868686868686864,-2.07070707070707 -3.5858585858585856,-1.9696969696969693 -3.484848484848485,-1.8686868686868683 -3.383838383838383,-1.7676767676767675 -3.2828282828282824,-1.6666666666666665 -3.1818181818181817,-1.5656565656565653 -3.0808080808080804,-1.4646464646464643 -2.9797979797979792,-1.363636363636363 -2.8787878787878785,-1.2626262626262625 -2.7777777777777777,-1.1616161616161613 -2.6767676767676765,-1.0606060606060603 -2.5757575757575752,-0.9595959595959596 -2.474747474747474,-0.8585858585858579 -2.3737373737373733,-0.8585858585858579 -2.2727272727272725,-0.8585858585858579 -2.1717171717171713,-0.8585858585858579 -2.07070707070707,-0.8585858585858579 -1.9696969696969693,-0.8585858585858579 -1.8686868686868683,-0.8585858585858579 -1.7676767676767675,-0.8585858585858579 -1.6666666666666665,-0.8585858585858579 -1.5656565656565653,-0.8585858585858579 -1.4646464646464643,-0.8585858585858579 -1.363636363636363,-0.8585858585858579 -1.2626262626262625,-0.8585858585858579 -1.1616161616161613,-0.8585858585858579 -1.0606060606060603,-0.8585858585858579 -0.9595959595959596,-0.8585858585858579 -0.8585858585858579,-0.8585858585858579 -0.7575757575757572,-0.8585858585858579 -0.6565656565656557,-0.8585858585858579 -0.555555555555555,-0.8585858585858579 -0.4545454545454544,-0.8585858585858579 -0.35353535353535287,-0.8585858585858579 -0.2525252525252522,-0.8585858585858579 -0.15151515151515066,-0.8585858585858579 -0.05050505050505001,-0.8585858585858579 0.050505050505051545,-0.8585858585858579 0.1515151515151522,-0.8585858585858579 0.2525252525252529,-0.8585858585858579 0.3535353535353544,-0.8585858585858579 0.4545454545454551,-0.8585858585858579 0.5555555555555567,-0.8585858585858579 0.6565656565656574,-0.8585858585858579 0.7575757575757579,-0.8585858585858579 0.8585858585858596,-0.8585858585858579 0.9595959595959602,-0.8585858585858579 1.0606060606060617,-0.8585858585858579 1.1616161616161622,-0.8585858585858579 1.262626262626263,-0.8585858585858579 1.3636363636363644,-0.8585858585858579 1.4646464646464652,-0.8585858585858579 1.5656565656565666,-0.8585858585858579 1.6666666666666674,-0.8585858585858579 1.767676767676768,-0.8585858585858579 1.8686868686868696,-0.8585858585858579 1.9696969696969702,-0.8585858585858579 2.070707070707072,-0.8585858585858579 2.1717171717171726,-0.8585858585858579 2.2727272727272734,-0.8585858585858579 2.373737373737375,-0.8585858585858579 2.4747474747474754,-0.8585858585858579 2.575757575757577,-0.8585858585858579 2.676767676767678,-0.8585858585858579 2.7777777777777786,-0.8585858585858579 2.87878787878788,-0.8585858585858579 2.9797979797979806,-0.8585858585858579 3.080808080808082,-0.8585858585858579 3.181818181818183,-0.8585858585858579 3.2828282828282833,-0.8585858585858579 3.383838383838384,-0.8585858585858579 3.4848484848484866,-0.8585858585858579 3.5858585858585874,-0.8585858585858579 3.6868686868686877,-0.8585858585858579 3.7878787878787885,-0.8585858585858579 3.8888888888888893,-0.8585858585858579 3.989898989898992,-0.8585858585858579" data-type="line" data-label="" points="40.00000000000006,831.4343434343434 49.53535353535369,821.8989898989898 59.07070707070716,812.3636363636363 68.60606060606068,802.8282828282828 78.14141414141426,793.2929292929292 87.67676767676772,783.7575757575758 97.21212121212136,774.2222222222222 106.74747474747483,764.6868686868687 116.28282828282829,755.1515151515151 125.81818181818193,745.6161616161615 135.35353535353545,736.0808080808081 144.88888888888903,726.5454545454545 154.42424242424255,717.010101010101 163.95959595959607,707.4747474747475 173.4949494949496,697.939393939394 183.03030303030312,688.4040404040404 192.5656565656567,678.8686868686868 202.10101010101022,669.3333333333334 211.63636363636374,659.7979797979798 221.17171717171726,650.2626262626263 230.70707070707084,640.7272727272727 240.2424242424243,631.1919191919193 249.77777777777783,621.6565656565657 259.3131313131314,612.1212121212121 268.84848484848493,602.5858585858587 278.38383838383845,593.0505050505051 287.91919191919203,593.0505050505051 297.4545454545455,593.0505050505051 306.9898989898991,593.0505050505051 316.5252525252526,593.0505050505051 326.0606060606061,593.0505050505051 335.59595959595964,593.0505050505051 345.13131313131316,593.0505050505051 354.6666666666667,593.0505050505051 364.2020202020202,593.0505050505051 373.7373737373738,593.0505050505051 383.2727272727273,593.0505050505051 392.80808080808083,593.0505050505051 402.34343434343435,593.0505050505051 411.8787878787879,593.0505050505051 421.4141414141414,593.0505050505051 430.949494949495,593.0505050505051 440.4848484848485,593.0505050505051 450.0202020202021,593.0505050505051 459.55555555555554,593.0505050505051 469.09090909090907,593.0505050505051 478.62626262626264,593.0505050505051 488.16161616161617,593.0505050505051 497.69696969696975,593.0505050505051 507.2323232323232,593.0505050505051 516.7676767676768,593.0505050505051 526.3030303030303,593.0505050505051 535.8383838383838,593.0505050505051 545.3737373737374,593.0505050505051 554.9090909090909,593.0505050505051 564.4444444444445,593.0505050505051 573.9797979797979,593.0505050505051 583.5151515151515,593.0505050505051 593.0505050505051,593.0505050505051 602.5858585858585,593.0505050505051 612.1212121212121,593.0505050505051 621.6565656565656,593.0505050505051 631.1919191919192,593.0505050505051 640.7272727272727,593.0505050505051 650.2626262626262,593.0505050505051 659.7979797979798,593.0505050505051 669.3333333333333,593.0505050505051 678.8686868686868,593.0505050505051 688.4040404040404,593.0505050505051 697.9393939393939,593.0505050505051 707.4747474747475,593.0505050505051 717.0101010101009,593.0505050505051 726.5454545454545,593.0505050505051 736.0808080808081,593.0505050505051 745.6161616161615,593.0505050505051 755.1515151515151,593.0505050505051 764.6868686868686,593.0505050505051 774.2222222222222,593.0505050505051 783.7575757575758,593.0505050505051 793.2929292929292,593.0505050505051 802.8282828282828,593.0505050505051 812.3636363636363,593.0505050505051 821.8989898989898,593.0505050505051 831.4343434343433,593.0505050505051 840.969696969697,593.0505050505051 850.5050505050505,593.0505050505051 860.0404040404039,593.0505050505051 869.5757575757575,593.0505050505051 879.111111111111,593.0505050505051 888.6464646464647,593.0505050505051" fill="none" stroke="rgba(0,0,255,0.75)" stroke-width="11.327999999999996"/></g><g><polyline data-points="3.989898989898992,-0.8585858585858579 4.090909090909092,-0.8585858585858579 4.191919191919193,-0.8585858585858579 4.292929292929293,-0.8585858585858579 4.393939393939394,-0.8585858585858579 4.494949494949497,-0.8585858585858579 4.595959595959597,-0.8585858585858579 4.696969696969697,-0.8585858585858579 4.7979797979797985,-0.8585858585858579 4.898989898989901,-0.8585858585858579 5.000000000000002,-0.8585858585858579" data-type="line" data-label="" points="888.6464646464647,593.0505050505051 898.181818181818,593.0505050505051 907.7171717171716,593.0505050505051 917.2525252525251,593.0505050505051 926.7878787878785,593.0505050505051 936.3232323232323,593.0505050505051 945.8585858585857,593.0505050505051 955.3939393939393,593.0505050505051 964.9292929292927,593.0505050505051 974.4646464646464,593.0505050505051 984,593.0505050505051" fill="none" stroke="rgba(255,0,0,0.75)" stroke-width="11.327999999999996"/></g><g><polyline data-points="-5.000000000000001,-3.98989898989899 -4.898989898989899,-3.8888888888888884 -4.7979797979797985,-3.7878787878787876 -4.696969696969697,-3.6868686868686864 -4.595959595959596,-3.5858585858585856 -4.494949494949496,-3.484848484848485 -4.393939393939394,-3.383838383838383 -4.292929292929293,-3.2828282828282824 -4.191919191919193,-3.1818181818181817 -4.090909090909091,-3.0808080808080804 -3.98989898989899,-2.9797979797979792 -3.8888888888888884,-2.8787878787878785 -3.7878787878787876,-2.7777777777777777 -3.6868686868686864,-2.6767676767676765 -3.5858585858585856,-2.5757575757575752 -3.484848484848485,-2.474747474747474 -3.383838383838383,-2.3737373737373733 -3.2828282828282824,-2.2727272727272725 -3.1818181818181817,-2.1717171717171713 -3.0808080808080804,-2.07070707070707 -2.9797979797979792,-1.9696969696969693 -2.8787878787878785,-1.8686868686868683 -2.7777777777777777,-1.7676767676767675 -2.6767676767676765,-1.6666666666666665 -2.5757575757575752,-1.5656565656565653 -2.474747474747474,-1.4646464646464643 -2.3737373737373733,-1.363636363636363 -2.2727272727272725,-1.2626262626262625 -2.1717171717171713,-1.1616161616161613 -2.07070707070707,-1.1616161616161613 -1.9696969696969693,-1.1616161616161613 -1.8686868686868683,-1.1616161616161613 -1.7676767676767675,-1.1616161616161613 -1.6666666666666665,-1.1616161616161613 -1.5656565656565653,-1.1616161616161613 -1.4646464646464643,-1.1616161616161613 -1.363636363636363,-1.1616161616161613 -1.2626262626262625,-1.1616161616161613 -1.1616161616161613,-1.1616161616161613 -1.0606060606060603,-1.1616161616161613 -0.9595959595959596,-1.1616161616161613 -0.8585858585858579,-1.1616161616161613 -0.7575757575757572,-1.1616161616161613 -0.6565656565656557,-1.1616161616161613 -0.555555555555555,-1.1616161616161613 -0.4545454545454544,-1.1616161616161613 -0.35353535353535287,-1.1616161616161613 -0.2525252525252522,-1.1616161616161613 -0.15151515151515066,-1.1616161616161613 -0.05050505050505001,-1.1616161616161613 0.050505050505051545,-1.1616161616161613 0.1515151515151522,-1.1616161616161613 0.2525252525252529,-1.1616161616161613 0.3535353535353544,-1.1616161616161613 0.4545454545454551,-1.1616161616161613 0.5555555555555567,-1.1616161616161613 0.6565656565656574,-1.1616161616161613 0.7575757575757579,-1.1616161616161613 0.8585858585858596,-1.1616161616161613 0.9595959595959602,-1.1616161616161613 1.0606060606060617,-1.1616161616161613 1.1616161616161622,-1.1616161616161613 1.262626262626263,-1.1616161616161613 1.3636363636363644,-1.1616161616161613 1.4646464646464652,-1.1616161616161613 1.5656565656565666,-1.1616161616161613 1.6666666666666674,-1.1616161616161613 1.767676767676768,-1.1616161616161613 1.8686868686868696,-1.1616161616161613 1.9696969696969702,-1.1616161616161613 2.070707070707072,-1.1616161616161613 2.1717171717171726,-1.1616161616161613 2.2727272727272734,-1.1616161616161613 2.373737373737375,-1.1616161616161613 2.4747474747474754,-1.1616161616161613 2.575757575757577,-1.1616161616161613 2.676767676767678,-1.1616161616161613 2.7777777777777786,-1.1616161616161613 2.87878787878788,-1.1616161616161613 2.9797979797979806,-1.1616161616161613 3.080808080808082,-1.1616161616161613 3.181818181818183,-1.1616161616161613 3.2828282828282833,-1.1616161616161613 3.383838383838384,-1.1616161616161613 3.4848484848484866,-1.1616161616161613 3.5858585858585874,-1.1616161616161613 3.6868686868686877,-1.1616161616161613 3.7878787878787885,-1.1616161616161613 3.8888888888888893,-1.1616161616161613 3.989898989898992,-1.1616161616161613 4.090909090909092,-1.0606060606060603 4.191919191919193,-0.9595959595959596 4.292929292929293,-0.8585858585858579 4.393939393939394,-0.8585858585858579 4.494949494949497,-0.8585858585858579 4.595959595959597,-0.8585858585858579 4.696969696969697,-0.8585858585858579 4.7979797979797985,-0.8585858585858579 4.898989898989901,-0.8585858585858579 5.000000000000002,-0.8585858585858579" data-type="line" data-label="" points="40.00000000000006,888.6464646464647 49.53535353535369,879.1111111111111 59.07070707070716,869.5757575757575 68.60606060606068,860.0404040404039 78.14141414141426,850.5050505050505 87.67676767676772,840.969696969697 97.21212121212136,831.4343434343434 106.74747474747483,821.8989898989898 116.28282828282829,812.3636363636363 125.81818181818193,802.8282828282828 135.35353535353545,793.2929292929292 144.88888888888903,783.7575757575758 154.42424242424255,774.2222222222222 163.95959595959607,764.6868686868687 173.4949494949496,755.1515151515151 183.03030303030312,745.6161616161615 192.5656565656567,736.0808080808081 202.10101010101022,726.5454545454545 211.63636363636374,717.010101010101 221.17171717171726,707.4747474747475 230.70707070707084,697.939393939394 240.2424242424243,688.4040404040404 249.77777777777783,678.8686868686868 259.3131313131314,669.3333333333334 268.84848484848493,659.7979797979798 278.38383838383845,650.2626262626263 287.91919191919203,640.7272727272727 297.4545454545455,631.1919191919193 306.9898989898991,621.6565656565657 316.5252525252526,621.6565656565657 326.0606060606061,621.6565656565657 335.59595959595964,621.6565656565657 345.13131313131316,621.6565656565657 354.6666666666667,621.6565656565657 364.2020202020202,621.6565656565657 373.7373737373738,621.6565656565657 383.2727272727273,621.6565656565657 392.80808080808083,621.6565656565657 402.34343434343435,621.6565656565657 411.8787878787879,621.6565656565657 421.4141414141414,621.6565656565657 430.949494949495,621.6565656565657 440.4848484848485,621.6565656565657 450.0202020202021,621.6565656565657 459.55555555555554,621.6565656565657 469.09090909090907,621.6565656565657 478.62626262626264,621.6565656565657 488.16161616161617,621.6565656565657 497.69696969696975,621.6565656565657 507.2323232323232,621.6565656565657 516.7676767676768,621.6565656565657 526.3030303030303,621.6565656565657 535.8383838383838,621.6565656565657 545.3737373737374,621.6565656565657 554.9090909090909,621.6565656565657 564.4444444444445,621.6565656565657 573.9797979797979,621.6565656565657 583.5151515151515,621.6565656565657 593.0505050505051,621.6565656565657 602.5858585858585,621.6565656565657 612.1212121212121,621.6565656565657 621.6565656565656,621.6565656565657 631.1919191919192,621.6565656565657 640.7272727272727,621.6565656565657 650.2626262626262,621.6565656565657 659.7979797979798,621.6565656565657 669.3333333333333,621.6565656565657 678.8686868686868,621.6565656565657 688.4040404040404,621.6565656565657 697.9393939393939,621.6565656565657 707.4747474747475,621.6565656565657 717.0101010101009,621.6565656565657 726.5454545454545,621.6565656565657 736.0808080808081,621.6565656565657 745.6161616161615,621.6565656565657 755.1515151515151,621.6565656565657 764.6868686868686,621.6565656565657 774.2222222222222,621.6565656565657 783.7575757575758,621.6565656565657 793.2929292929292,621.6565656565657 802.8282828282828,621.6565656565657 812.3636363636363,621.6565656565657 821.8989898989898,621.6565656565657 831.4343434343433,621.6565656565657 840.969696969697,621.6565656565657 850.5050505050505,621.6565656565657 860.0404040404039,621.6565656565657 869.5757575757575,621.6565656565657 879.111111111111,621.6565656565657 888.6464646464647,621.6565656565657 898.181818181818,612.1212121212121 907.7171717171716,602.5858585858587 917.2525252525251,593.0505050505051 926.7878787878785,593.0505050505051 936.3232323232323,593.0505050505051 945.8585858585857,593.0505050505051 955.3939393939393,593.0505050505051 964.9292929292927,593.0505050505051 974.4646464646464,593.0505050505051 984,593.0505050505051" fill="none" stroke="rgba(0,0,255,0.75)" stroke-width="11.327999999999996"/></g><g><polyline data-points="-4.090909090909091,-5.000000000000001 -3.98989898989899,-4.898989898989899 -3.8888888888888884,-4.7979797979797985 -3.7878787878787876,-4.696969696969697 -3.6868686868686864,-4.595959595959596 -3.5858585858585856,-4.494949494949496 -3.484848484848485,-4.393939393939394 -3.383838383838383,-4.292929292929293 -3.2828282828282824,-4.191919191919193 -3.1818181818181817,-4.090909090909091 -3.0808080808080804,-3.98989898989899 -2.9797979797979792,-3.8888888888888884 -2.8787878787878785,-3.7878787878787876 -2.7777777777777777,-3.6868686868686864 -2.6767676767676765,-3.5858585858585856 -2.5757575757575752,-3.484848484848485 -2.474747474747474,-3.383838383838383 -2.3737373737373733,-3.2828282828282824 -2.2727272727272725,-3.1818181818181817 -2.1717171717171713,-3.0808080808080804 -2.07070707070707,-2.9797979797979792 -1.9696969696969693,-2.8787878787878785 -1.8686868686868683,-2.7777777777777777 -1.7676767676767675,-2.6767676767676765 -1.6666666666666665,-2.5757575757575752 -1.5656565656565653,-2.474747474747474 -1.4646464646464643,-2.3737373737373733 -1.363636363636363,-2.2727272727272725 -1.2626262626262625,-2.1717171717171713 -1.1616161616161613,-2.07070707070707 -1.0606060606060603,-1.9696969696969693 -0.9595959595959596,-1.8686868686868683 -0.8585858585858579,-1.7676767676767675 -0.7575757575757572,-1.6666666666666665 -0.6565656565656557,-1.5656565656565653 -0.555555555555555,-1.4646464646464643 -0.4545454545454544,-1.363636363636363 -0.35353535353535287,-1.2626262626262625 -0.2525252525252522,-1.1616161616161613 -0.15151515151515066,-1.0606060606060603 -0.05050505050505001,-0.9595959595959596 0.050505050505051545,-0.8585858585858579 0.1515151515151522,-0.7575757575757572 0.2525252525252529,-0.6565656565656557 0.3535353535353544,-0.555555555555555 0.4545454545454551,-0.4545454545454544 0.5555555555555567,-0.35353535353535287 0.6565656565656574,-0.2525252525252522 0.7575757575757579,-0.15151515151515066 0.8585858585858596,-0.05050505050505001 0.9595959595959602,0.050505050505051545 1.0606060606060617,0.1515151515151522 1.1616161616161622,0.2525252525252529 1.262626262626263,0.3535353535353544 1.3636363636363644,0.4545454545454551 1.4646464646464652,0.5555555555555567 1.5656565656565666,0.6565656565656574 1.5656565656565666,0.7575757575757579 1.5656565656565666,0.8585858585858596 1.5656565656565666,0.9595959595959602 1.5656565656565666,1.0606060606060617 1.5656565656565666,1.1616161616161622 1.5656565656565666,1.262626262626263 1.5656565656565666,1.3636363636363644 1.5656565656565666,1.4646464646464652 1.5656565656565666,1.5656565656565666 1.5656565656565666,1.6666666666666674 1.5656565656565666,1.767676767676768 1.5656565656565666,1.8686868686868696 1.5656565656565666,1.9696969696969702 1.5656565656565666,2.070707070707072 1.5656565656565666,2.1717171717171726 1.5656565656565666,2.2727272727272734 1.5656565656565666,2.373737373737375 1.5656565656565666,2.4747474747474754 1.5656565656565666,2.575757575757577 1.5656565656565666,2.676767676767678 1.5656565656565666,2.7777777777777786 1.5656565656565666,2.87878787878788 1.5656565656565666,2.9797979797979806 1.5656565656565666,3.080808080808082 1.5656565656565666,3.181818181818183 1.5656565656565666,3.2828282828282833 1.5656565656565666,3.383838383838384 1.5656565656565666,3.4848484848484866 1.6666666666666674,3.5858585858585874 1.767676767676768,3.6868686868686877 1.8686868686868696,3.7878787878787885 1.9696969696969702,3.8888888888888893 2.070707070707072,3.989898989898992 2.1717171717171726,4.090909090909092 2.2727272727272734,4.191919191919193 2.373737373737375,4.292929292929293 2.4747474747474754,4.393939393939394 2.575757575757577,4.494949494949497 2.676767676767678,4.595959595959597 2.7777777777777786,4.696969696969697 2.87878787878788,4.7979797979797985 2.87878787878788,4.898989898989901 2.87878787878788,5.000000000000002" data-type="line" data-label="" points="125.81818181818193,984 135.35353535353545,974.4646464646464 144.88888888888903,964.9292929292928 154.42424242424255,955.3939393939394 163.95959595959607,945.8585858585858 173.4949494949496,936.3232323232323 183.03030303030312,926.7878787878788 192.5656565656567,917.2525252525252 202.10101010101022,907.7171717171718 211.63636363636374,898.1818181818181 221.17171717171726,888.6464646464647 230.70707070707084,879.1111111111111 240.2424242424243,869.5757575757575 249.77777777777783,860.0404040404039 259.3131313131314,850.5050505050505 268.84848484848493,840.969696969697 278.38383838383845,831.4343434343434 287.91919191919203,821.8989898989898 297.4545454545455,812.3636363636363 306.9898989898991,802.8282828282828 316.5252525252526,793.2929292929292 326.0606060606061,783.7575757575758 335.59595959595964,774.2222222222222 345.13131313131316,764.6868686868687 354.6666666666667,755.1515151515151 364.2020202020202,745.6161616161615 373.7373737373738,736.0808080808081 383.2727272727273,726.5454545454545 392.80808080808083,717.010101010101 402.34343434343435,707.4747474747475 411.8787878787879,697.939393939394 421.4141414141414,688.4040404040404 430.949494949495,678.8686868686868 440.4848484848485,669.3333333333334 450.0202020202021,659.7979797979798 459.55555555555554,650.2626262626263 469.09090909090907,640.7272727272727 478.62626262626264,631.1919191919193 488.16161616161617,621.6565656565657 497.69696969696975,612.1212121212121 507.2323232323232,602.5858585858587 516.7676767676768,593.0505050505051 526.3030303030303,583.5151515151516 535.8383838383838,573.979797979798 545.3737373737374,564.4444444444445 554.9090909090909,554.909090909091 564.4444444444445,545.3737373737374 573.9797979797979,535.838383838384 583.5151515151515,526.3030303030304 593.0505050505051,516.7676767676768 602.5858585858585,507.23232323232327 612.1212121212121,497.69696969696975 621.6565656565656,488.1616161616163 631.1919191919192,478.6262626262627 640.7272727272727,469.0909090909092 650.2626262626262,459.5555555555556 659.7979797979798,450.0202020202021 659.7979797979798,440.4848484848486 659.7979797979798,430.94949494949503 659.7979797979798,421.4141414141415 659.7979797979798,411.87878787878793 659.7979797979798,402.3434343434344 659.7979797979798,392.80808080808094 659.7979797979798,383.27272727272737 659.7979797979798,373.73737373737384 659.7979797979798,364.2020202020203 659.7979797979798,354.66666666666674 659.7979797979798,345.1313131313133 659.7979797979798,335.5959595959597 659.7979797979798,326.06060606060623 659.7979797979798,316.5252525252526 659.7979797979798,306.9898989898991 659.7979797979798,297.4545454545456 659.7979797979798,287.91919191919203 659.7979797979798,278.38383838383857 659.7979797979798,268.84848484848493 659.7979797979798,259.3131313131314 659.7979797979798,249.77777777777794 659.7979797979798,240.24242424242436 659.7979797979798,230.70707070707084 659.7979797979798,221.17171717171726 659.7979797979798,211.63636363636374 659.7979797979798,202.10101010101027 659.7979797979798,192.56565656565675 659.7979797979798,183.03030303030312 669.3333333333333,173.4949494949496 678.8686868686868,163.95959595959613 688.4040404040404,154.4242424242426 697.9393939393939,144.88888888888908 707.4747474747475,135.35353535353545 717.0101010101009,125.81818181818198 726.5454545454545,116.28282828282846 736.0808080808081,106.747474747475 745.6161616161615,97.21212121212153 755.1515151515151,87.67676767676778 764.6868686868686,78.14141414141432 774.2222222222222,68.60606060606085 783.7575757575758,59.07070707070733 783.7575757575758,49.53535353535369 783.7575757575758,40.000000000000114" fill="none" stroke="rgba(255,0,0,0.75)" stroke-width="11.327999999999996"/></g><g><polyline data-points="5.000000000000002,-4.393939393939394 4.898989898989901,-4.292929292929293 4.7979797979797985,-4.191919191919193 4.696969696969697,-4.090909090909091 4.595959595959597,-3.98989898989899 4.494949494949497,-3.8888888888888884 4.393939393939394,-3.7878787878787876 4.292929292929293,-3.6868686868686864 4.191919191919193,-3.5858585858585856 4.090909090909092,-3.484848484848485 3.989898989898992,-3.383838383838383 3.8888888888888893,-3.2828282828282824 3.7878787878787885,-3.1818181818181817 3.6868686868686877,-3.0808080808080804 3.5858585858585874,-2.9797979797979792 3.4848484848484866,-2.8787878787878785 3.383838383838384,-2.7777777777777777 3.2828282828282833,-2.6767676767676765 3.181818181818183,-2.5757575757575752 3.080808080808082,-2.474747474747474 2.9797979797979806,-2.3737373737373733 2.87878787878788,-2.2727272727272725 2.7777777777777786,-2.1717171717171713 2.676767676767678,-2.07070707070707 2.575757575757577,-1.9696969696969693 2.4747474747474754,-1.8686868686868683 2.373737373737375,-1.7676767676767675 2.2727272727272734,-1.6666666666666665 2.1717171717171726,-1.5656565656565653 2.070707070707072,-1.5656565656565653" data-type="line" data-label="" points="984,926.7878787878788 974.4646464646464,917.2525252525252 964.9292929292927,907.7171717171718 955.3939393939393,898.1818181818181 945.8585858585857,888.6464646464647 936.3232323232323,879.1111111111111 926.7878787878785,869.5757575757575 917.2525252525251,860.0404040404039 907.7171717171716,850.5050505050505 898.181818181818,840.969696969697 888.6464646464647,831.4343434343434 879.111111111111,821.8989898989898 869.5757575757575,812.3636363636363 860.0404040404039,802.8282828282828 850.5050505050505,793.2929292929292 840.969696969697,783.7575757575758 831.4343434343433,774.2222222222222 821.8989898989898,764.6868686868687 812.3636363636363,755.1515151515151 802.8282828282828,745.6161616161615 793.2929292929292,736.0808080808081 783.7575757575758,726.5454545454545 774.2222222222222,717.010101010101 764.6868686868686,707.4747474747475 755.1515151515151,697.939393939394 745.6161616161615,688.4040404040404 736.0808080808081,678.8686868686868 726.5454545454545,669.3333333333334 717.0101010101009,659.7979797979798 707.4747474747475,659.7979797979798" fill="none" stroke="rgba(255,0,0,0.75)" stroke-width="11.327999999999996"/></g><g><polyline data-points="2.070707070707072,-1.5656565656565653 1.9696969696969702,-1.5656565656565653 1.8686868686868696,-1.5656565656565653 1.767676767676768,-1.5656565656565653 1.6666666666666674,-1.5656565656565653 1.5656565656565666,-1.5656565656565653 1.4646464646464652,-1.5656565656565653 1.3636363636363644,-1.5656565656565653 1.262626262626263,-1.5656565656565653 1.1616161616161622,-1.5656565656565653 1.0606060606060617,-1.5656565656565653 0.9595959595959602,-1.5656565656565653 0.8585858585858596,-1.5656565656565653 0.7575757575757579,-1.5656565656565653 0.6565656565656574,-1.5656565656565653 0.5555555555555567,-1.5656565656565653 0.4545454545454551,-1.5656565656565653 0.3535353535353544,-1.5656565656565653 0.2525252525252529,-1.5656565656565653 0.1515151515151522,-1.5656565656565653 0.050505050505051545,-1.5656565656565653 -0.05050505050505001,-1.5656565656565653 -0.15151515151515066,-1.5656565656565653 -0.2525252525252522,-1.5656565656565653 -0.35353535353535287,-1.5656565656565653 -0.4545454545454544,-1.5656565656565653 -0.555555555555555,-1.5656565656565653 -0.6565656565656557,-1.5656565656565653 -0.7575757575757572,-1.5656565656565653 -0.8585858585858579,-1.5656565656565653 -0.9595959595959596,-1.5656565656565653 -1.0606060606060603,-1.5656565656565653 -1.1616161616161613,-1.5656565656565653 -1.2626262626262625,-1.5656565656565653 -1.363636363636363,-1.5656565656565653 -1.4646464646464643,-1.5656565656565653 -1.5656565656565653,-1.5656565656565653 -1.6666666666666665,-1.5656565656565653 -1.7676767676767675,-1.5656565656565653 -1.8686868686868683,-1.5656565656565653 -1.9696969696969693,-1.5656565656565653 -2.07070707070707,-1.5656565656565653" data-type="line" data-label="" points="707.4747474747475,659.7979797979798 697.9393939393939,659.7979797979798 688.4040404040404,659.7979797979798 678.8686868686868,659.7979797979798 669.3333333333333,659.7979797979798 659.7979797979798,659.7979797979798 650.2626262626262,659.7979797979798 640.7272727272727,659.7979797979798 631.1919191919192,659.7979797979798 621.6565656565656,659.7979797979798 612.1212121212121,659.7979797979798 602.5858585858585,659.7979797979798 593.0505050505051,659.7979797979798 583.5151515151515,659.7979797979798 573.9797979797979,659.7979797979798 564.4444444444445,659.7979797979798 554.9090909090909,659.7979797979798 545.3737373737374,659.7979797979798 535.8383838383838,659.7979797979798 526.3030303030303,659.7979797979798 516.7676767676768,659.7979797979798 507.2323232323232,659.7979797979798 497.69696969696975,659.7979797979798 488.16161616161617,659.7979797979798 478.62626262626264,659.7979797979798 469.09090909090907,659.7979797979798 459.55555555555554,659.7979797979798 450.0202020202021,659.7979797979798 440.4848484848485,659.7979797979798 430.949494949495,659.7979797979798 421.4141414141414,659.7979797979798 411.8787878787879,659.7979797979798 402.34343434343435,659.7979797979798 392.80808080808083,659.7979797979798 383.2727272727273,659.7979797979798 373.7373737373738,659.7979797979798 364.2020202020202,659.7979797979798 354.6666666666667,659.7979797979798 345.13131313131316,659.7979797979798 335.59595959595964,659.7979797979798 326.0606060606061,659.7979797979798 316.5252525252526,659.7979797979798" fill="none" stroke="rgba(0,0,255,0.75)" stroke-width="11.327999999999996"/></g><g><polyline data-points="-2.07070707070707,-1.5656565656565653 -2.1717171717171713,-1.4646464646464643 -2.2727272727272725,-1.363636363636363 -2.3737373737373733,-1.2626262626262625 -2.474747474747474,-1.2626262626262625 -2.5757575757575752,-1.2626262626262625 -2.6767676767676765,-1.2626262626262625 -2.7777777777777777,-1.2626262626262625 -2.8787878787878785,-1.2626262626262625 -2.9797979797979792,-1.2626262626262625 -3.0808080808080804,-1.2626262626262625 -3.1818181818181817,-1.2626262626262625 -3.2828282828282824,-1.2626262626262625 -3.383838383838383,-1.2626262626262625 -3.484848484848485,-1.2626262626262625 -3.5858585858585856,-1.2626262626262625 -3.6868686868686864,-1.2626262626262625 -3.7878787878787876,-1.2626262626262625 -3.8888888888888884,-1.2626262626262625 -3.98989898989899,-1.2626262626262625 -4.090909090909091,-1.2626262626262625 -4.191919191919193,-1.2626262626262625 -4.292929292929293,-1.2626262626262625 -4.393939393939394,-1.2626262626262625 -4.494949494949496,-1.2626262626262625 -4.595959595959596,-1.2626262626262625 -4.696969696969697,-1.2626262626262625 -4.7979797979797985,-1.2626262626262625 -4.898989898989899,-1.2626262626262625 -5.000000000000001,-1.2626262626262625" data-type="line" data-label="" points="316.5252525252526,659.7979797979798 306.9898989898991,650.2626262626263 297.4545454545455,640.7272727272727 287.91919191919203,631.1919191919193 278.38383838383845,631.1919191919193 268.84848484848493,631.1919191919193 259.3131313131314,631.1919191919193 249.77777777777783,631.1919191919193 240.2424242424243,631.1919191919193 230.70707070707084,631.1919191919193 221.17171717171726,631.1919191919193 211.63636363636374,631.1919191919193 202.10101010101022,631.1919191919193 192.5656565656567,631.1919191919193 183.03030303030312,631.1919191919193 173.4949494949496,631.1919191919193 163.95959595959607,631.1919191919193 154.42424242424255,631.1919191919193 144.88888888888903,631.1919191919193 135.35353535353545,631.1919191919193 125.81818181818193,631.1919191919193 116.28282828282829,631.1919191919193 106.74747474747483,631.1919191919193 97.21212121212136,631.1919191919193 87.67676767676772,631.1919191919193 78.14141414141426,631.1919191919193 68.60606060606068,631.1919191919193 59.07070707070716,631.1919191919193 49.53535353535369,631.1919191919193 40.00000000000006,631.1919191919193" fill="none" stroke="rgba(255,0,0,0.75)" stroke-width="11.327999999999996"/></g><g><polyline data-points="3.8888888888888893,5.000000000000002 3.8888888888888893,4.898989898989901 3.8888888888888893,4.7979797979797985 3.8888888888888893,4.696969696969697 3.8888888888888893,4.595959595959597 3.8888888888888893,4.494949494949497 3.8888888888888893,4.393939393939394 3.8888888888888893,4.292929292929293 3.8888888888888893,4.191919191919193 3.8888888888888893,4.090909090909092 3.8888888888888893,3.989898989898992 3.8888888888888893,3.8888888888888893 3.989898989898992,3.7878787878787885 4.090909090909092,3.6868686868686877 4.191919191919193,3.5858585858585874 4.292929292929293,3.4848484848484866 4.191919191919193,3.383838383838384 4.090909090909092,3.2828282828282833 3.989898989898992,3.181818181818183 3.989898989898992,3.080808080808082 3.989898989898992,2.9797979797979806" data-type="line" data-label="" points="879.111111111111,40.000000000000114 879.111111111111,49.53535353535369 879.111111111111,59.07070707070733 879.111111111111,68.60606060606085 879.111111111111,78.14141414141432 879.111111111111,87.67676767676778 879.111111111111,97.21212121212153 879.111111111111,106.747474747475 879.111111111111,116.28282828282846 879.111111111111,125.81818181818198 879.111111111111,135.35353535353545 879.111111111111,144.88888888888908 888.6464646464647,154.4242424242426 898.181818181818,163.95959595959613 907.7171717171716,173.4949494949496 917.2525252525251,183.03030303030312 907.7171717171716,192.56565656565675 898.181818181818,202.10101010101027 888.6464646464647,211.63636363636374 888.6464646464647,221.17171717171726 888.6464646464647,230.70707070707084" fill="none" stroke="rgba(0,0,255,0.75)" stroke-width="11.327999999999996"/></g><g><polyline data-points="3.989898989898992,2.9797979797979806 3.8888888888888893,2.87878787878788 3.7878787878787885,2.7777777777777786 3.7878787878787885,2.676767676767678 3.7878787878787885,2.575757575757577 3.7878787878787885,2.4747474747474754 3.7878787878787885,2.373737373737375 3.7878787878787885,2.2727272727272734 3.7878787878787885,2.1717171717171726 3.7878787878787885,2.070707070707072 3.7878787878787885,1.9696969696969702 3.7878787878787885,1.8686868686868696 3.7878787878787885,1.767676767676768 3.7878787878787885,1.6666666666666674 3.7878787878787885,1.5656565656565666 3.7878787878787885,1.4646464646464652 3.7878787878787885,1.3636363636363644 3.7878787878787885,1.262626262626263 3.7878787878787885,1.1616161616161622 3.7878787878787885,1.0606060606060617 3.7878787878787885,0.9595959595959602 3.7878787878787885,0.8585858585858596 3.7878787878787885,0.7575757575757579 3.7878787878787885,0.6565656565656574 3.7878787878787885,0.5555555555555567 3.7878787878787885,0.4545454545454551 3.7878787878787885,0.3535353535353544 3.6868686868686877,0.2525252525252529 3.5858585858585874,0.1515151515151522 3.4848484848484866,0.050505050505051545 3.383838383838384,-0.05050505050505001 3.2828282828282833,-0.15151515151515066 3.181818181818183,-0.2525252525252522 3.080808080808082,-0.35353535353535287 2.9797979797979806,-0.4545454545454544 2.87878787878788,-0.555555555555555 2.7777777777777786,-0.6565656565656557 2.676767676767678,-0.7575757575757572 2.676767676767678,-0.8585858585858579 2.676767676767678,-0.9595959595959596 2.676767676767678,-1.0606060606060603 2.676767676767678,-1.1616161616161613 2.676767676767678,-1.2626262626262625 2.676767676767678,-1.363636363636363 2.676767676767678,-1.4646464646464643 2.676767676767678,-1.5656565656565653" data-type="line" data-label="" points="888.6464646464647,230.70707070707084 879.111111111111,240.24242424242436 869.5757575757575,249.77777777777794 869.5757575757575,259.3131313131314 869.5757575757575,268.84848484848493 869.5757575757575,278.38383838383857 869.5757575757575,287.91919191919203 869.5757575757575,297.4545454545456 869.5757575757575,306.9898989898991 869.5757575757575,316.5252525252526 869.5757575757575,326.06060606060623 869.5757575757575,335.5959595959597 869.5757575757575,345.1313131313133 869.5757575757575,354.66666666666674 869.5757575757575,364.2020202020203 869.5757575757575,373.73737373737384 869.5757575757575,383.27272727272737 869.5757575757575,392.80808080808094 869.5757575757575,402.3434343434344 869.5757575757575,411.87878787878793 869.5757575757575,421.4141414141415 869.5757575757575,430.94949494949503 869.5757575757575,440.4848484848486 869.5757575757575,450.0202020202021 869.5757575757575,459.5555555555556 869.5757575757575,469.0909090909092 869.5757575757575,478.6262626262627 860.0404040404039,488.1616161616163 850.5050505050505,497.69696969696975 840.969696969697,507.23232323232327 831.4343434343433,516.7676767676768 821.8989898989898,526.3030303030304 812.3636363636363,535.838383838384 802.8282828282828,545.3737373737374 793.2929292929292,554.909090909091 783.7575757575758,564.4444444444445 774.2222222222222,573.979797979798 764.6868686868686,583.5151515151516 764.6868686868686,593.0505050505051 764.6868686868686,602.5858585858587 764.6868686868686,612.1212121212121 764.6868686868686,621.6565656565657 764.6868686868686,631.1919191919193 764.6868686868686,640.7272727272727 764.6868686868686,650.2626262626263 764.6868686868686,659.7979797979798" fill="none" stroke="rgba(255,0,0,0.75)" stroke-width="11.327999999999996"/></g><g><polyline data-points="2.676767676767678,-1.5656565656565653 2.575757575757577,-1.6666666666666665 2.4747474747474754,-1.7676767676767675 2.373737373737375,-1.8686868686868683 2.2727272727272734,-1.9696969696969693 2.1717171717171726,-2.07070707070707 2.070707070707072,-2.1717171717171713 1.9696969696969702,-2.2727272727272725 1.8686868686868696,-2.3737373737373733 1.767676767676768,-2.474747474747474 1.6666666666666674,-2.5757575757575752 1.5656565656565666,-2.6767676767676765 1.4646464646464652,-2.7777777777777777 1.3636363636363644,-2.8787878787878785 1.262626262626263,-2.9797979797979792 1.1616161616161622,-3.0808080808080804 1.0606060606060617,-3.1818181818181817 0.9595959595959602,-3.2828282828282824 0.8585858585858596,-3.383838383838383 0.7575757575757579,-3.484848484848485 0.6565656565656574,-3.5858585858585856 0.5555555555555567,-3.6868686868686864 0.4545454545454551,-3.7878787878787876 0.3535353535353544,-3.8888888888888884 0.2525252525252529,-3.98989898989899 0.1515151515151522,-4.090909090909091 0.050505050505051545,-4.191919191919193 -0.05050505050505001,-4.292929292929293 -0.15151515151515066,-4.393939393939394 -0.2525252525252522,-4.494949494949496 -0.35353535353535287,-4.595959595959596 -0.4545454545454544,-4.696969696969697 -0.555555555555555,-4.7979797979797985 -0.6565656565656557,-4.898989898989899 -0.7575757575757572,-5.000000000000001 -0.8585858585858579,-5.000000000000001 -0.9595959595959596,-5.000000000000001 -1.0606060606060603,-5.000000000000001 -1.1616161616161613,-5.000000000000001 -1.2626262626262625,-5.000000000000001 -1.363636363636363,-5.000000000000001 -1.4646464646464643,-5.000000000000001 -1.5656565656565653,-5.000000000000001 -1.6666666666666665,-5.000000000000001 -1.7676767676767675,-5.000000000000001 -1.8686868686868683,-5.000000000000001 -1.9696969696969693,-5.000000000000001 -2.07070707070707,-5.000000000000001 -2.1717171717171713,-5.000000000000001 -2.2727272727272725,-5.000000000000001 -2.3737373737373733,-5.000000000000001 -2.474747474747474,-5.000000000000001 -2.5757575757575752,-5.000000000000001 -2.6767676767676765,-5.000000000000001 -2.7777777777777777,-5.000000000000001 -2.8787878787878785,-5.000000000000001 -2.9797979797979792,-5.000000000000001 -3.0808080808080804,-5.000000000000001 -3.1818181818181817,-5.000000000000001 -3.2828282828282824,-5.000000000000001 -3.383838383838383,-5.000000000000001 -3.484848484848485,-5.000000000000001 -3.5858585858585856,-5.000000000000001 -3.6868686868686864,-5.000000000000001 -3.7878787878787876,-5.000000000000001 -3.8888888888888884,-5.000000000000001 -3.98989898989899,-5.000000000000001 -4.090909090909091,-5.000000000000001 -4.191919191919193,-5.000000000000001 -4.292929292929293,-5.000000000000001 -4.393939393939394,-5.000000000000001 -4.494949494949496,-5.000000000000001 -4.595959595959596,-5.000000000000001 -4.696969696969697,-5.000000000000001" data-type="line" data-label="" points="764.6868686868686,659.7979797979798 755.1515151515151,669.3333333333334 745.6161616161615,678.8686868686868 736.0808080808081,688.4040404040404 726.5454545454545,697.939393939394 717.0101010101009,707.4747474747475 707.4747474747475,717.010101010101 697.9393939393939,726.5454545454545 688.4040404040404,736.0808080808081 678.8686868686868,745.6161616161615 669.3333333333333,755.1515151515151 659.7979797979798,764.6868686868687 650.2626262626262,774.2222222222222 640.7272727272727,783.7575757575758 631.1919191919192,793.2929292929292 621.6565656565656,802.8282828282828 612.1212121212121,812.3636363636363 602.5858585858585,821.8989898989898 593.0505050505051,831.4343434343434 583.5151515151515,840.969696969697 573.9797979797979,850.5050505050505 564.4444444444445,860.0404040404039 554.9090909090909,869.5757575757575 545.3737373737374,879.1111111111111 535.8383838383838,888.6464646464647 526.3030303030303,898.1818181818181 516.7676767676768,907.7171717171718 507.2323232323232,917.2525252525252 497.69696969696975,926.7878787878788 488.16161616161617,936.3232323232323 478.62626262626264,945.8585858585858 469.09090909090907,955.3939393939394 459.55555555555554,964.9292929292928 450.0202020202021,974.4646464646464 440.4848484848485,984 430.949494949495,984 421.4141414141414,984 411.8787878787879,984 402.34343434343435,984 392.80808080808083,984 383.2727272727273,984 373.7373737373738,984 364.2020202020202,984 354.6666666666667,984 345.13131313131316,984 335.59595959595964,984 326.0606060606061,984 316.5252525252526,984 306.9898989898991,984 297.4545454545455,984 287.91919191919203,984 278.38383838383845,984 268.84848484848493,984 259.3131313131314,984 249.77777777777783,984 240.2424242424243,984 230.70707070707084,984 221.17171717171726,984 211.63636363636374,984 202.10101010101022,984 192.5656565656567,984 183.03030303030312,984 173.4949494949496,984 163.95959595959607,984 154.42424242424255,984 144.88888888888903,984 135.35353535353545,984 125.81818181818193,984 116.28282828282829,984 106.74747474747483,984 97.21212121212136,984 87.67676767676772,984 78.14141414141426,984 68.60606060606068,984" fill="none" stroke="rgba(0,0,255,0.75)" stroke-width="11.327999999999996"/></g><g><polyline data-points="5.000000000000002,-1.9696969696969693 4.898989898989901,-2.07070707070707 4.7979797979797985,-2.07070707070707 4.696969696969697,-2.07070707070707 4.595959595959597,-2.1717171717171713 4.494949494949497,-2.2727272727272725 4.393939393939394,-2.2727272727272725 4.292929292929293,-2.3737373737373733 4.191919191919193,-2.3737373737373733 4.090909090909092,-2.3737373737373733 3.989898989898992,-2.3737373737373733 3.8888888888888893,-2.3737373737373733 3.7878787878787885,-2.3737373737373733 3.6868686868686877,-2.3737373737373733 3.5858585858585874,-2.3737373737373733 3.4848484848484866,-2.3737373737373733 3.383838383838384,-2.3737373737373733 3.2828282828282833,-2.3737373737373733 3.181818181818183,-2.3737373737373733 3.080808080808082,-2.3737373737373733 2.9797979797979806,-2.3737373737373733 2.87878787878788,-2.3737373737373733 2.7777777777777786,-2.3737373737373733 2.676767676767678,-2.3737373737373733 2.575757575757577,-2.3737373737373733 2.4747474747474754,-2.3737373737373733" data-type="line" data-label="" points="984,697.939393939394 974.4646464646464,707.4747474747475 964.9292929292927,707.4747474747475 955.3939393939393,707.4747474747475 945.8585858585857,717.010101010101 936.3232323232323,726.5454545454545 926.7878787878785,726.5454545454545 917.2525252525251,736.0808080808081 907.7171717171716,736.0808080808081 898.181818181818,736.0808080808081 888.6464646464647,736.0808080808081 879.111111111111,736.0808080808081 869.5757575757575,736.0808080808081 860.0404040404039,736.0808080808081 850.5050505050505,736.0808080808081 840.969696969697,736.0808080808081 831.4343434343433,736.0808080808081 821.8989898989898,736.0808080808081 812.3636363636363,736.0808080808081 802.8282828282828,736.0808080808081 793.2929292929292,736.0808080808081 783.7575757575758,736.0808080808081 774.2222222222222,736.0808080808081 764.6868686868686,736.0808080808081 755.1515151515151,736.0808080808081 745.6161616161615,736.0808080808081" fill="none" stroke="rgba(0,0,255,0.75)" stroke-width="11.327999999999996"/></g><g><polyline data-points="2.4747474747474754,-2.3737373737373733 2.373737373737375,-2.2727272727272725 2.2727272727272734,-2.1717171717171713 2.1717171717171726,-2.07070707070707 2.070707070707072,-1.9696969696969693 1.9696969696969702,-1.9696969696969693 1.8686868686868696,-1.9696969696969693 1.767676767676768,-1.9696969696969693 1.6666666666666674,-1.9696969696969693" data-type="line" data-label="" points="745.6161616161615,736.0808080808081 736.0808080808081,726.5454545454545 726.5454545454545,717.010101010101 717.0101010101009,707.4747474747475 707.4747474747475,697.939393939394 697.9393939393939,697.939393939394 688.4040404040404,697.939393939394 678.8686868686868,697.939393939394 669.3333333333333,697.939393939394" fill="none" stroke="rgba(255,0,0,0.75)" stroke-width="11.327999999999996"/></g><g><polyline data-points="1.6666666666666674,-1.9696969696969693 1.5656565656565666,-1.9696969696969693 1.4646464646464652,-1.9696969696969693 1.3636363636363644,-1.9696969696969693 1.262626262626263,-1.9696969696969693 1.1616161616161622,-1.9696969696969693 1.0606060606060617,-1.9696969696969693 0.9595959595959602,-1.9696969696969693 0.8585858585858596,-1.9696969696969693 0.7575757575757579,-1.9696969696969693 0.6565656565656574,-1.9696969696969693" data-type="line" data-label="" points="669.3333333333333,697.939393939394 659.7979797979798,697.939393939394 650.2626262626262,697.939393939394 640.7272727272727,697.939393939394 631.1919191919192,697.939393939394 621.6565656565656,697.939393939394 612.1212121212121,697.939393939394 602.5858585858585,697.939393939394 593.0505050505051,697.939393939394 583.5151515151515,697.939393939394 573.9797979797979,697.939393939394" fill="none" stroke="rgba(0,0,255,0.75)" stroke-width="11.327999999999996"/></g><g><polyline data-points="0.6565656565656574,-1.9696969696969693 0.6565656565656574,-1.8686868686868683 0.6565656565656574,-1.7676767676767675 0.6565656565656574,-1.6666666666666665 0.6565656565656574,-1.5656565656565653 0.6565656565656574,-1.4646464646464643 0.6565656565656574,-1.363636363636363 0.6565656565656574,-1.2626262626262625 0.6565656565656574,-1.1616161616161613 0.6565656565656574,-1.0606060606060603 0.6565656565656574,-0.9595959595959596 0.6565656565656574,-0.8585858585858579 0.6565656565656574,-0.7575757575757572 0.7575757575757579,-0.6565656565656557 0.8585858585858596,-0.555555555555555 0.9595959595959602,-0.4545454545454544" data-type="line" data-label="" points="573.9797979797979,697.939393939394 573.9797979797979,688.4040404040404 573.9797979797979,678.8686868686868 573.9797979797979,669.3333333333334 573.9797979797979,659.7979797979798 573.9797979797979,650.2626262626263 573.9797979797979,640.7272727272727 573.9797979797979,631.1919191919193 573.9797979797979,621.6565656565657 573.9797979797979,612.1212121212121 573.9797979797979,602.5858585858587 573.9797979797979,593.0505050505051 573.9797979797979,583.5151515151516 583.5151515151515,573.979797979798 593.0505050505051,564.4444444444445 602.5858585858585,554.909090909091" fill="none" stroke="rgba(255,0,0,0.75)" stroke-width="11.327999999999996"/></g><g><polyline data-points="0.9595959595959602,-0.4545454545454544 0.8585858585858596,-0.35353535353535287 0.7575757575757579,-0.2525252525252522 0.6565656565656574,-0.15151515151515066 0.5555555555555567,-0.05050505050505001 0.4545454545454551,0.050505050505051545 0.3535353535353544,0.1515151515151522 0.2525252525252529,0.2525252525252529 0.1515151515151522,0.3535353535353544 0.050505050505051545,0.4545454545454551 0.050505050505051545,0.5555555555555567 0.050505050505051545,0.6565656565656574 0.050505050505051545,0.7575757575757579 0.050505050505051545,0.8585858585858596 0.050505050505051545,0.9595959595959602 0.050505050505051545,1.0606060606060617 0.050505050505051545,1.1616161616161622 0.050505050505051545,1.262626262626263 0.050505050505051545,1.3636363636363644 0.050505050505051545,1.4646464646464652 0.050505050505051545,1.5656565656565666 0.050505050505051545,1.6666666666666674 0.050505050505051545,1.767676767676768 0.050505050505051545,1.8686868686868696 0.050505050505051545,1.9696969696969702 0.050505050505051545,2.070707070707072 0.050505050505051545,2.1717171717171726 0.050505050505051545,2.2727272727272734 0.050505050505051545,2.373737373737375 0.050505050505051545,2.4747474747474754 0.050505050505051545,2.575757575757577 0.050505050505051545,2.676767676767678 0.050505050505051545,2.7777777777777786 0.050505050505051545,2.87878787878788" data-type="line" data-label="" points="602.5858585858585,554.909090909091 593.0505050505051,545.3737373737374 583.5151515151515,535.838383838384 573.9797979797979,526.3030303030304 564.4444444444445,516.7676767676768 554.9090909090909,507.23232323232327 545.3737373737374,497.69696969696975 535.8383838383838,488.1616161616163 526.3030303030303,478.6262626262627 516.7676767676768,469.0909090909092 516.7676767676768,459.5555555555556 516.7676767676768,450.0202020202021 516.7676767676768,440.4848484848486 516.7676767676768,430.94949494949503 516.7676767676768,421.4141414141415 516.7676767676768,411.87878787878793 516.7676767676768,402.3434343434344 516.7676767676768,392.80808080808094 516.7676767676768,383.27272727272737 516.7676767676768,373.73737373737384 516.7676767676768,364.2020202020203 516.7676767676768,354.66666666666674 516.7676767676768,345.1313131313133 516.7676767676768,335.5959595959597 516.7676767676768,326.06060606060623 516.7676767676768,316.5252525252526 516.7676767676768,306.9898989898991 516.7676767676768,297.4545454545456 516.7676767676768,287.91919191919203 516.7676767676768,278.38383838383857 516.7676767676768,268.84848484848493 516.7676767676768,259.3131313131314 516.7676767676768,249.77777777777794 516.7676767676768,240.24242424242436" fill="none" stroke="rgba(0,0,255,0.75)" stroke-width="11.327999999999996"/></g><g><polyline data-points="0.050505050505051545,2.87878787878788 0.1515151515151522,2.9797979797979806 0.2525252525252529,3.080808080808082 0.1515151515151522,3.181818181818183 0.2525252525252529,3.2828282828282833 0.1515151515151522,3.383838383838384 0.050505050505051545,3.383838383838384 -0.05050505050505001,3.4848484848484866 -0.15151515151515066,3.5858585858585874 -0.2525252525252522,3.6868686868686877 -0.35353535353535287,3.7878787878787885 -0.4545454545454544,3.8888888888888893" data-type="line" data-label="" points="516.7676767676768,240.24242424242436 526.3030303030303,230.70707070707084 535.8383838383838,221.17171717171726 526.3030303030303,211.63636363636374 535.8383838383838,202.10101010101027 526.3030303030303,192.56565656565675 516.7676767676768,192.56565656565675 507.2323232323232,183.03030303030312 497.69696969696975,173.4949494949496 488.16161616161617,163.95959595959613 478.62626262626264,154.4242424242426 469.09090909090907,144.88888888888908" fill="none" stroke="rgba(255,0,0,0.75)" stroke-width="11.327999999999996"/></g><g><polyline data-points="-0.4545454545454544,3.8888888888888893 -0.555555555555555,3.989898989898992 -0.6565656565656557,4.090909090909092 -0.7575757575757572,4.191919191919193 -0.8585858585858579,4.191919191919193 -0.9595959595959596,4.090909090909092 -1.0606060606060603,4.090909090909092 -1.1616161616161613,4.090909090909092 -1.2626262626262625,4.090909090909092 -1.363636363636363,4.090909090909092 -1.4646464646464643,4.090909090909092 -1.5656565656565653,4.090909090909092 -1.6666666666666665,4.090909090909092 -1.7676767676767675,4.090909090909092 -1.8686868686868683,4.090909090909092 -1.9696969696969693,4.090909090909092 -2.07070707070707,4.090909090909092 -2.1717171717171713,4.090909090909092 -2.2727272727272725,4.090909090909092 -2.3737373737373733,4.090909090909092 -2.474747474747474,4.090909090909092 -2.5757575757575752,4.090909090909092 -2.6767676767676765,4.090909090909092 -2.7777777777777777,4.090909090909092 -2.8787878787878785,4.090909090909092 -2.9797979797979792,4.090909090909092 -3.0808080808080804,4.090909090909092 -3.1818181818181817,4.090909090909092 -3.2828282828282824,4.090909090909092 -3.383838383838383,4.090909090909092 -3.484848484848485,4.090909090909092 -3.5858585858585856,4.090909090909092 -3.6868686868686864,4.090909090909092 -3.7878787878787876,4.090909090909092 -3.8888888888888884,4.090909090909092 -3.98989898989899,4.090909090909092 -4.090909090909091,4.090909090909092 -4.191919191919193,3.989898989898992 -4.292929292929293,3.8888888888888893 -4.393939393939394,3.7878787878787885 -4.494949494949496,3.6868686868686877 -4.595959595959596,3.6868686868686877 -4.696969696969697,3.6868686868686877 -4.7979797979797985,3.6868686868686877 -4.898989898989899,3.6868686868686877 -5.000000000000001,3.5858585858585874 -5.000000000000001,3.4848484848484866 -4.898989898989899,3.383838383838384 -5.000000000000001,3.2828282828282833" data-type="line" data-label="" points="469.09090909090907,144.88888888888908 459.55555555555554,135.35353535353545 450.0202020202021,125.81818181818198 440.4848484848485,116.28282828282846 430.949494949495,116.28282828282846 421.4141414141414,125.81818181818198 411.8787878787879,125.81818181818198 402.34343434343435,125.81818181818198 392.80808080808083,125.81818181818198 383.2727272727273,125.81818181818198 373.7373737373738,125.81818181818198 364.2020202020202,125.81818181818198 354.6666666666667,125.81818181818198 345.13131313131316,125.81818181818198 335.59595959595964,125.81818181818198 326.0606060606061,125.81818181818198 316.5252525252526,125.81818181818198 306.9898989898991,125.81818181818198 297.4545454545455,125.81818181818198 287.91919191919203,125.81818181818198 278.38383838383845,125.81818181818198 268.84848484848493,125.81818181818198 259.3131313131314,125.81818181818198 249.77777777777783,125.81818181818198 240.2424242424243,125.81818181818198 230.70707070707084,125.81818181818198 221.17171717171726,125.81818181818198 211.63636363636374,125.81818181818198 202.10101010101022,125.81818181818198 192.5656565656567,125.81818181818198 183.03030303030312,125.81818181818198 173.4949494949496,125.81818181818198 163.95959595959607,125.81818181818198 154.42424242424255,125.81818181818198 144.88888888888903,125.81818181818198 135.35353535353545,125.81818181818198 125.81818181818193,125.81818181818198 116.28282828282829,135.35353535353545 106.74747474747483,144.88888888888908 97.21212121212136,154.4242424242426 87.67676767676772,163.95959595959613 78.14141414141426,163.95959595959613 68.60606060606068,163.95959595959613 59.07070707070716,163.95959595959613 49.53535353535369,163.95959595959613 40.00000000000006,173.4949494949496 40.00000000000006,183.03030303030312 49.53535353535369,192.56565656565675 40.00000000000006,202.10101010101027" fill="none" stroke="rgba(0,0,255,0.75)" stroke-width="11.327999999999996"/></g><g><polyline data-points="5.000000000000002,-2.8787878787878785 4.898989898989901,-2.9797979797979792 4.7979797979797985,-3.0808080808080804 4.696969696969697,-2.9797979797979792 4.595959595959597,-2.9797979797979792 4.494949494949497,-2.8787878787878785 4.393939393939394,-2.7777777777777777 4.292929292929293,-2.7777777777777777 4.191919191919193,-2.7777777777777777 4.090909090909092,-2.7777777777777777 3.989898989898992,-2.7777777777777777" data-type="line" data-label="" points="984,783.7575757575758 974.4646464646464,793.2929292929292 964.9292929292927,802.8282828282828 955.3939393939393,793.2929292929292 945.8585858585857,793.2929292929292 936.3232323232323,783.7575757575758 926.7878787878785,774.2222222222222 917.2525252525251,774.2222222222222 907.7171717171716,774.2222222222222 898.181818181818,774.2222222222222 888.6464646464647,774.2222222222222" fill="none" stroke="rgba(0,0,255,0.75)" stroke-width="11.327999999999996"/></g><g><polyline data-points="3.989898989898992,-2.7777777777777777 3.989898989898992,-2.6767676767676765 3.989898989898992,-2.5757575757575752 3.989898989898992,-2.474747474747474 3.989898989898992,-2.3737373737373733 3.989898989898992,-2.2727272727272725 3.989898989898992,-2.1717171717171713 3.989898989898992,-2.07070707070707 3.989898989898992,-1.9696969696969693" data-type="line" data-label="" points="888.6464646464647,774.2222222222222 888.6464646464647,764.6868686868687 888.6464646464647,755.1515151515151 888.6464646464647,745.6161616161615 888.6464646464647,736.0808080808081 888.6464646464647,726.5454545454545 888.6464646464647,717.010101010101 888.6464646464647,707.4747474747475 888.6464646464647,697.939393939394" fill="none" stroke="rgba(255,0,0,0.75)" stroke-width="11.327999999999996"/></g><g><polyline data-points="3.989898989898992,-1.9696969696969693 4.090909090909092,-1.9696969696969693 4.191919191919193,-1.9696969696969693 4.292929292929293,-1.8686868686868683 4.393939393939394,-1.8686868686868683 4.494949494949497,-1.8686868686868683 4.595959595959597,-1.7676767676767675 4.696969696969697,-1.6666666666666665 4.7979797979797985,-1.5656565656565653 4.898989898989901,-1.6666666666666665 5.000000000000002,-1.7676767676767675" data-type="line" data-label="" points="888.6464646464647,697.939393939394 898.181818181818,697.939393939394 907.7171717171716,697.939393939394 917.2525252525251,688.4040404040404 926.7878787878785,688.4040404040404 936.3232323232323,688.4040404040404 945.8585858585857,678.8686868686868 955.3939393939393,669.3333333333334 964.9292929292927,659.7979797979798 974.4646464646464,669.3333333333334 984,678.8686868686868" fill="none" stroke="rgba(0,0,255,0.75)" stroke-width="11.327999999999996"/></g><g><rect data-type="rect" data-label="" data-x="0" data-y="0" x="40.000000000000114" y="40.000000000000284" width="943.9999999999997" height="943.9999999999998" fill="none" stroke="gray" stroke-width="0.010593220338983056"/></g><g><rect data-type="rect" data-label="" data-x="0" data-y="0" x="40.000000000000114" y="40.000000000000284" width="943.9999999999997" height="943.9999999999998" fill="none" stroke="rgba(15, 23, 42, 0.8)" stroke-width="0.010593220338983056"/></g><circle data-type="circle" data-label="" data-x="1.8686868686868696" data-y="3.4848484848484866" cx="688.4040404040404" cy="183.03030303030312" r="14.159999999999995" fill="rgba(0,0,0,0.3)" stroke="black" stroke-width="0.010593220338983056"/><circle data-type="circle" data-label="" data-x="3.181818181818183" data-y="3.4848484848484866" cx="812.3636363636363" cy="183.03030303030312" r="14.159999999999995" fill="rgba(0,0,0,0.3)" stroke="black" stroke-width="0.010593220338983056"/><circle data-type="circle" data-label="" data-x="3.989898989898992" data-y="3.4848484848484866" cx="888.6464646464647" cy="183.03030303030312" r="14.159999999999995" fill="rgba(0,0,0,0.3)" stroke="black" stroke-width="0.010593220338983056"/><circle data-type="circle" data-label="" data-x="3.989898989898992" data-y="-0.8585858585858579" cx="888.6464646464647" cy="593.0505050505051" r="14.159999999999995" fill="rgba(0,0,0,0.3)" stroke="black" stroke-width="0.010593220338983056"/><circle data-type="circle" data-label="" data-x="2.070707070707072" data-y="-1.5656565656565653" cx="707.4747474747475" cy="659.7979797979798" r="14.159999999999995" fill="rgba(0,0,0,0.3)" stroke="black" stroke-width="0.010593220338983056"/><circle data-type="circle" data-label="" data-x="-2.07070707070707" data-y="-1.5656565656565653" cx="316.5252525252526" cy="659.7979797979798" r="14.159999999999995" fill="rgba(0,0,0,0.3)" stroke="black" stroke-width="0.010593220338983056"/><circle data-type="circle" data-label="" data-x="3.989898989898992" data-y="2.9797979797979806" cx="888.6464646464647" cy="230.70707070707084" r="14.159999999999995" fill="rgba(0,0,0,0.3)" stroke="black" stroke-width="0.010593220338983056"/><circle data-type="circle" data-label="" data-x="2.676767676767678" data-y="-1.5656565656565653" cx="764.6868686868686" cy="659.7979797979798" r="14.159999999999995" fill="rgba(0,0,0,0.3)" stroke="black" stroke-width="0.010593220338983056"/><circle data-type="circle" data-label="" data-x="2.4747474747474754" data-y="-2.3737373737373733" cx="745.6161616161615" cy="736.0808080808081" r="14.159999999999995" fill="rgba(0,0,0,0.3)" stroke="black" stroke-width="0.010593220338983056"/><circle data-type="circle" data-label="" data-x="1.6666666666666674" data-y="-1.9696969696969693" cx="669.3333333333333" cy="697.939393939394" r="14.159999999999995" fill="rgba(0,0,0,0.3)" stroke="black" stroke-width="0.010593220338983056"/><circle data-type="circle" data-label="" data-x="0.6565656565656574" data-y="-1.9696969696969693" cx="573.9797979797979" cy="697.939393939394" r="14.159999999999995" fill="rgba(0,0,0,0.3)" stroke="black" stroke-width="0.010593220338983056"/><circle data-type="circle" data-label="" data-x="0.9595959595959602" data-y="-0.4545454545454544" cx="602.5858585858585" cy="554.909090909091" r="14.159999999999995" fill="rgba(0,0,0,0.3)" stroke="black" stroke-width="0.010593220338983056"/><circle data-type="circle" data-label="" data-x="0.050505050505051545" data-y="2.87878787878788" cx="516.7676767676768" cy="240.24242424242436" r="14.159999999999995" fill="rgba(0,0,0,0.3)" stroke="black" stroke-width="0.010593220338983056"/><circle data-type="circle" data-label="" data-x="-0.4545454545454544" data-y="3.8888888888888893" cx="469.09090909090907" cy="144.88888888888908" r="14.159999999999995" fill="rgba(0,0,0,0.3)" stroke="black" stroke-width="0.010593220338983056"/><circle data-type="circle" data-label="" data-x="3.989898989898992" data-y="-2.7777777777777777" cx="888.6464646464647" cy="774.2222222222222" r="14.159999999999995" fill="rgba(0,0,0,0.3)" stroke="black" stroke-width="0.010593220338983056"/><circle data-type="circle" data-label="" data-x="3.989898989898992" data-y="-1.9696969696969693" cx="888.6464646464647" cy="697.939393939394" r="14.159999999999995" fill="rgba(0,0,0,0.3)" stroke="black" stroke-width="0.010593220338983056"/><g id="crosshair" style="display: none"><line id="crosshair-h" y1="0" y2="1024" stroke="#666" stroke-width="0.5"/><line id="crosshair-v" x1="0" x2="1024" stroke="#666" stroke-width="0.5"/><text id="coordinates" font-family="monospace" font-size="12" fill="#666"></text></g><script><![CDATA[
              document.currentScript.parentElement.addEventListener('mousemove', (e) => {
                const svg = e.currentTarget;
                const rect = svg.getBoundingClientRect();
                const x = e.clientX - rect.left;
                const y = e.clientY - rect.top;
                const crosshair = svg.getElementById('crosshair');
                const h = svg.getElementById('crosshair-h');
                const v = svg.getElementById('crosshair-v');
                const coords = svg.getElementById('coordinates');
                
                crosshair.style.display = 'block';
                h.setAttribute('x1', '0');
                h.setAttribute('x2', '1024');
                h.setAttribute('y1', y);
                h.setAttribute('y2', y);
                v.setAttribute('x1', x);
                v.setAttribute('x2', x);
                v.setAttribute('y1', '0');
                v.setAttribute('y2', '1024');

                // Calculate real coordinates using inverse transformation
                const matrix = {"a":94.39999999999996,"c":0,"e":511.99999999999994,"b":0,"d":-94.39999999999996,"f":512.0000000000001};
                // Manually invert and apply the affine transform
                // Since we only use translate and scale, we can directly compute:
                // x' = (x - tx) / sx
                // y' = (y - ty) / sy
                const sx = matrix.a;
                const sy = matrix.d;
                const tx = matrix.e; 
                const ty = matrix.f;
                const realPoint = {
                  x: (x - tx) / sx,
                  y: (y - ty) / sy // Flip y back since we used negative scale
                }
                
                coords.textContent = `(${realPoint.x.toFixed(2)}, ${realPoint.y.toFixed(2)})`;
                coords.setAttribute('x', (x + 5).toString());
                coords.setAttribute('y', (y - 5).toString());
              });
              document.currentScript.parentElement.addEventListener('mouseleave', () => {
                document.currentScript.parentElement.getElementById('crosshair').style.display = 'none';
              });
            ]]></script></svg>