<svg width="1024" height="1024" viewBox="0 0 1024 1024" xmlns="http://www.w3.org/2000/svg"><rect width="100%" height="100%" fill="white"/><g><circle data-type="point" data-label="conn_000" data-x="-0.98" data-y="5" cx="419.488" cy="40.000000000000284" r="14.16" fill="red"/></g><g><circle data-type="point" data-label="conn_000" data-x="4.22" data-y="-5" cx="910.3679999999997" cy="984" r="14.16" fill="red"/></g><g><circle data-type="point" data-label="conn_001" data-x="5" data-y="-2.62" cx="983.9999999999998" cy="759.328" r="14.16" fill="red"/></g><g><circle data-type="point" data-label="conn_001" data-x="2.7600000000000002" data-y="-5" cx="772.5439999999999" cy="984" r="14.16" fill="blue"/></g><g><circle data-type="point" data-label="conn_002" data-x="-5" data-y="-4.68" cx="40.000000000000114" cy="953.7919999999999" r="14.16" fill="red"/></g><g><circle data-type="point" data-label="conn_002" data-x="5" data-y="4.28" cx="983.9999999999998" cy="107.96800000000025" r="14.16" fill="red"/></g><g><circle data-type="point" data-label="conn_003" data-x="-3.84" data-y="-5" cx="149.50400000000008" cy="984" r="14.16" fill="red"/></g><g><circle data-type="point" data-label="conn_003" data-x="4.58" data-y="5" cx="944.3519999999999" cy="40.000000000000284" r="14.16" fill="red"/></g><g><polyline data-points="-5.000000000000001,-4.696969696969697 -4.898989898989899,-4.595959595959596 -4.7979797979797985,-4.494949494949496 -4.696969696969697,-4.393939393939394 -4.595959595959596,-4.292929292929293 -4.494949494949496,-4.191919191919193 -4.393939393939394,-4.090909090909091 -4.292929292929293,-3.98989898989899 -4.191919191919193,-3.8888888888888884 -4.090909090909091,-3.7878787878787876 -3.98989898989899,-3.6868686868686864 -3.8888888888888884,-3.5858585858585856 -3.7878787878787876,-3.484848484848485 -3.6868686868686864,-3.383838383838383 -3.5858585858585856,-3.2828282828282824 -3.484848484848485,-3.1818181818181817 -3.383838383838383,-3.0808080808080804 -3.2828282828282824,-2.9797979797979792 -3.1818181818181817,-2.8787878787878785 -3.0808080808080804,-2.7777777777777777 -2.9797979797979792,-2.6767676767676765 -2.8787878787878785,-2.5757575757575752 -2.7777777777777777,-2.474747474747474 -2.6767676767676765,-2.3737373737373733 -2.5757575757575752,-2.2727272727272725 -2.474747474747474,-2.1717171717171713 -2.3737373737373733,-2.07070707070707 -2.2727272727272725,-1.9696969696969693 -2.1717171717171713,-1.8686868686868683 -2.07070707070707,-1.7676767676767675 -1.9696969696969693,-1.6666666666666665 -1.8686868686868683,-1.5656565656565653 -1.7676767676767675,-1.4646464646464643 -1.6666666666666665,-1.363636363636363 -1.5656565656565653,-1.2626262626262625 -1.4646464646464643,-1.1616161616161613 -1.363636363636363,-1.0606060606060603 -1.2626262626262625,-0.9595959595959596 -1.1616161616161613,-0.8585858585858579 -1.0606060606060603,-0.7575757575757572 -0.9595959595959596,-0.6565656565656557 -0.8585858585858579,-0.555555555555555 -0.7575757575757572,-0.4545454545454544 -0.6565656565656557,-0.35353535353535287 -0.555555555555555,-0.2525252525252522 -0.4545454545454544,-0.15151515151515066 -0.35353535353535287,-0.05050505050505001 -0.2525252525252522,0.050505050505051545 -0.15151515151515066,0.1515151515151522 -0.05050505050505001,0.2525252525252529 0.050505050505051545,0.3535353535353544 0.1515151515151522,0.4545454545454551 0.2525252525252529,0.5555555555555567 0.3535353535353544,0.6565656565656574 0.4545454545454551,0.7575757575757579 0.5555555555555567,0.8585858585858596 0.6565656565656574,0.9595959595959602 0.7575757575757579,1.0606060606060617 0.8585858585858596,1.1616161616161622 0.9595959595959602,1.262626262626263 1.0606060606060617,1.3636363636363644 1.1616161616161622,1.4646464646464652 1.262626262626263,1.5656565656565666 1.3636363636363644,1.6666666666666674 1.4646464646464652,1.767676767676768 1.5656565656565666,1.8686868686868696 1.6666666666666674,1.9696969696969702 1.767676767676768,2.070707070707072 1.8686868686868696,2.1717171717171726 1.9696969696969702,2.2727272727272734 2.070707070707072,2.373737373737375 2.1717171717171726,2.4747474747474754 2.2727272727272734,2.575757575757577 2.373737373737375,2.676767676767678 2.4747474747474754,2.7777777777777786 2.575757575757577,2.87878787878788 2.676767676767678,2.9797979797979806 2.7777777777777786,3.080808080808082 2.87878787878788,3.181818181818183 2.9797979797979806,3.2828282828282833 3.080808080808082,3.383838383838384 3.181818181818183,3.4848484848484866 3.2828282828282833,3.5858585858585874 3.383838383838384,3.6868686868686877 3.4848484848484866,3.7878787878787885 3.5858585858585874,3.8888888888888893 3.6868686868686877,3.989898989898992 3.7878787878787885,4.090909090909092 3.8888888888888893,4.191919191919193 3.989898989898992,4.292929292929293 4.090909090909092,4.292929292929293 4.191919191919193,4.292929292929293 4.292929292929293,4.292929292929293 4.393939393939394,4.292929292929293 4.494949494949497,4.292929292929293 4.595959595959597,4.292929292929293 4.696969696969697,4.292929292929293 4.7979797979797985,4.292929292929293 4.898989898989901,4.292929292929293 5.000000000000002,4.292929292929293" data-type="line" data-label="" points="40.00000000000006,955.3939393939394 49.53535353535369,945.8585858585858 59.07070707070716,936.3232323232323 68.60606060606068,926.7878787878788 78.14141414141426,917.2525252525252 87.67676767676772,907.7171717171718 97.21212121212136,898.1818181818181 106.74747474747483,888.6464646464647 116.28282828282829,879.1111111111111 125.81818181818193,869.5757575757575 135.35353535353545,860.0404040404039 144.88888888888903,850.5050505050505 154.42424242424255,840.969696969697 163.95959595959607,831.4343434343434 173.4949494949496,821.8989898989898 183.03030303030312,812.3636363636363 192.5656565656567,802.8282828282828 202.10101010101022,793.2929292929292 211.63636363636374,783.7575757575758 221.17171717171726,774.2222222222222 230.70707070707084,764.6868686868687 240.2424242424243,755.1515151515151 249.77777777777783,745.6161616161615 259.3131313131314,736.0808080808081 268.84848484848493,726.5454545454545 278.38383838383845,717.010101010101 287.91919191919203,707.4747474747475 297.4545454545455,697.939393939394 306.9898989898991,688.4040404040404 316.5252525252526,678.8686868686868 326.0606060606061,669.3333333333334 335.59595959595964,659.7979797979798 345.13131313131316,650.2626262626263 354.6666666666667,640.7272727272727 364.2020202020202,631.1919191919193 373.7373737373738,621.6565656565657 383.2727272727273,612.1212121212121 392.80808080808083,602.5858585858587 402.34343434343435,593.0505050505051 411.8787878787879,583.5151515151516 421.4141414141414,573.979797979798 430.949494949495,564.4444444444445 440.4848484848485,554.909090909091 450.0202020202021,545.3737373737374 459.55555555555554,535.838383838384 469.09090909090907,526.3030303030304 478.62626262626264,516.7676767676768 488.16161616161617,507.23232323232327 497.69696969696975,497.69696969696975 507.2323232323232,488.1616161616163 516.7676767676768,478.6262626262627 526.3030303030303,469.0909090909092 535.8383838383838,459.5555555555556 545.3737373737374,450.0202020202021 554.9090909090909,440.4848484848486 564.4444444444445,430.94949494949503 573.9797979797979,421.4141414141415 583.5151515151515,411.87878787878793 593.0505050505051,402.3434343434344 602.5858585858585,392.80808080808094 612.1212121212121,383.27272727272737 621.6565656565656,373.73737373737384 631.1919191919192,364.2020202020203 640.7272727272727,354.66666666666674 650.2626262626262,345.1313131313133 659.7979797979798,335.5959595959597 669.3333333333333,326.06060606060623 678.8686868686868,316.5252525252526 688.4040404040404,306.9898989898991 697.9393939393939,297.4545454545456 707.4747474747475,287.91919191919203 717.0101010101009,278.38383838383857 726.5454545454545,268.84848484848493 736.0808080808081,259.3131313131314 745.6161616161615,249.77777777777794 755.1515151515151,240.24242424242436 764.6868686868686,230.70707070707084 774.2222222222222,221.17171717171726 783.7575757575758,211.63636363636374 793.2929292929292,202.10101010101027 802.8282828282828,192.56565656565675 812.3636363636363,183.03030303030312 821.8989898989898,173.4949494949496 831.4343434343433,163.95959595959613 840.969696969697,154.4242424242426 850.5050505050505,144.88888888888908 860.0404040404039,135.35353535353545 869.5757575757575,125.81818181818198 879.111111111111,116.28282828282846 888.6464646464647,106.747474747475 898.181818181818,106.747474747475 907.7171717171716,106.747474747475 917.2525252525251,106.747474747475 926.7878787878785,106.747474747475 936.3232323232323,106.747474747475 945.8585858585857,106.747474747475 955.3939393939393,106.747474747475 964.9292929292927,106.747474747475 974.4646464646464,106.747474747475 984,106.747474747475" fill="none" stroke="rgba(255,0,0,0.75)" stroke-width="11.327999999999996"/></g><g><polyline data-points="-0.9595959595959596,5.000000000000002 -0.8585858585858579,4.898989898989901 -0.7575757575757572,4.7979797979797985 -0.6565656565656557,4.696969696969697 -0.555555555555555,4.595959595959597 -0.4545454545454544,4.494949494949497 -0.35353535353535287,4.393939393939394 -0.2525252525252522,4.292929292929293 -0.15151515151515066,4.191919191919193 -0.05050505050505001,4.090909090909092 0.050505050505051545,3.989898989898992 0.1515151515151522,3.8888888888888893 0.2525252525252529,3.7878787878787885 0.3535353535353544,3.6868686868686877 0.4545454545454551,3.5858585858585874 0.5555555555555567,3.4848484848484866 0.6565656565656574,3.383838383838384 0.7575757575757579,3.2828282828282833 0.8585858585858596,3.181818181818183 0.9595959595959602,3.080808080808082 1.0606060606060617,2.9797979797979806 1.1616161616161622,2.87878787878788 1.262626262626263,2.7777777777777786 1.3636363636363644,2.676767676767678 1.4646464646464652,2.575757575757577 1.5656565656565666,2.4747474747474754 1.5656565656565666,2.373737373737375" data-type="line" data-label="" points="421.4141414141414,40.000000000000114 430.949494949495,49.53535353535369 440.4848484848485,59.07070707070733 450.0202020202021,68.60606060606085 459.55555555555554,78.14141414141432 469.09090909090907,87.67676767676778 478.62626262626264,97.21212121212153 488.16161616161617,106.747474747475 497.69696969696975,116.28282828282846 507.2323232323232,125.81818181818198 516.7676767676768,135.35353535353545 526.3030303030303,144.88888888888908 535.8383838383838,154.4242424242426 545.3737373737374,163.95959595959613 554.9090909090909,173.4949494949496 564.4444444444445,183.03030303030312 573.9797979797979,192.56565656565675 583.5151515151515,202.10101010101027 593.0505050505051,211.63636363636374 602.5858585858585,221.17171717171726 612.1212121212121,230.70707070707084 621.6565656565656,240.24242424242436 631.1919191919192,249.77777777777794 640.7272727272727,259.3131313131314 650.2626262626262,268.84848484848493 659.7979797979798,278.38383838383857 659.7979797979798,287.91919191919203" fill="none" stroke="rgba(255,0,0,0.75)" stroke-width="11.327999999999996"/></g><g><polyline data-points="1.5656565656565666,2.373737373737375 1.6666666666666674,2.2727272727272734 1.767676767676768,2.1717171717171726 1.8686868686868696,2.070707070707072 1.9696969696969702,1.9696969696969702 2.070707070707072,1.8686868686868696 2.1717171717171726,1.767676767676768 2.2727272727272734,1.6666666666666674 2.373737373737375,1.5656565656565666 2.4747474747474754,1.4646464646464652 2.575757575757577,1.3636363636363644 2.676767676767678,1.262626262626263 2.7777777777777786,1.1616161616161622 2.87878787878788,1.0606060606060617 2.9797979797979806,0.9595959595959602 3.080808080808082,0.8585858585858596 3.181818181818183,0.7575757575757579 3.2828282828282833,0.6565656565656574 3.383838383838384,0.5555555555555567 3.4848484848484866,0.4545454545454551 3.5858585858585874,0.3535353535353544 3.6868686868686877,0.2525252525252529 3.7878787878787885,0.1515151515151522 3.8888888888888893,0.050505050505051545 3.989898989898992,-0.05050505050505001 3.989898989898992,-0.15151515151515066 3.989898989898992,-0.2525252525252522 3.989898989898992,-0.35353535353535287 3.989898989898992,-0.4545454545454544 3.989898989898992,-0.555555555555555 3.989898989898992,-0.6565656565656557 3.989898989898992,-0.7575757575757572 3.989898989898992,-0.8585858585858579 3.989898989898992,-0.9595959595959596 3.989898989898992,-1.0606060606060603 3.989898989898992,-1.1616161616161613 3.989898989898992,-1.2626262626262625 3.989898989898992,-1.363636363636363 3.989898989898992,-1.4646464646464643 3.989898989898992,-1.5656565656565653 3.989898989898992,-1.6666666666666665 3.989898989898992,-1.7676767676767675 3.989898989898992,-1.8686868686868683 3.989898989898992,-1.9696969696969693 3.989898989898992,-2.07070707070707 3.989898989898992,-2.1717171717171713 3.989898989898992,-2.2727272727272725 3.989898989898992,-2.3737373737373733 3.989898989898992,-2.474747474747474 3.989898989898992,-2.5757575757575752 3.989898989898992,-2.6767676767676765 3.989898989898992,-2.7777777777777777 3.989898989898992,-2.8787878787878785 3.989898989898992,-2.9797979797979792 3.989898989898992,-3.0808080808080804 3.989898989898992,-3.1818181818181817 3.989898989898992,-3.2828282828282824 3.989898989898992,-3.383838383838383 3.989898989898992,-3.484848484848485 3.989898989898992,-3.5858585858585856" data-type="line" data-label="" points="659.7979797979798,287.91919191919203 669.3333333333333,297.4545454545456 678.8686868686868,306.9898989898991 688.4040404040404,316.5252525252526 697.9393939393939,326.06060606060623 707.4747474747475,335.5959595959597 717.0101010101009,345.1313131313133 726.5454545454545,354.66666666666674 736.0808080808081,364.2020202020203 745.6161616161615,373.73737373737384 755.1515151515151,383.27272727272737 764.6868686868686,392.80808080808094 774.2222222222222,402.3434343434344 783.7575757575758,411.87878787878793 793.2929292929292,421.4141414141415 802.8282828282828,430.94949494949503 812.3636363636363,440.4848484848486 821.8989898989898,450.0202020202021 831.4343434343433,459.5555555555556 840.969696969697,469.0909090909092 850.5050505050505,478.6262626262627 860.0404040404039,488.1616161616163 869.5757575757575,497.69696969696975 879.111111111111,507.23232323232327 888.6464646464647,516.7676767676768 888.6464646464647,526.3030303030304 888.6464646464647,535.838383838384 888.6464646464647,545.3737373737374 888.6464646464647,554.909090909091 888.6464646464647,564.4444444444445 888.6464646464647,573.979797979798 888.6464646464647,583.5151515151516 888.6464646464647,593.0505050505051 888.6464646464647,602.5858585858587 888.6464646464647,612.1212121212121 888.6464646464647,621.6565656565657 888.6464646464647,631.1919191919193 888.6464646464647,640.7272727272727 888.6464646464647,650.2626262626263 888.6464646464647,659.7979797979798 888.6464646464647,669.3333333333334 888.6464646464647,678.8686868686868 888.6464646464647,688.4040404040404 888.6464646464647,697.939393939394 888.6464646464647,707.4747474747475 888.6464646464647,717.010101010101 888.6464646464647,726.5454545454545 888.6464646464647,736.0808080808081 888.6464646464647,745.6161616161615 888.6464646464647,755.1515151515151 888.6464646464647,764.6868686868687 888.6464646464647,774.2222222222222 888.6464646464647,783.7575757575758 888.6464646464647,793.2929292929292 888.6464646464647,802.8282828282828 888.6464646464647,812.3636363636363 888.6464646464647,821.8989898989898 888.6464646464647,831.4343434343434 888.6464646464647,840.969696969697 888.6464646464647,850.5050505050505" fill="none" stroke="rgba(0,0,255,0.75)" stroke-width="11.327999999999996"/></g><g><polyline data-points="3.989898989898992,-3.5858585858585856 4.090909090909092,-3.6868686868686864 4.191919191919193,-3.7878787878787876 4.292929292929293,-3.8888888888888884 4.292929292929293,-3.98989898989899 4.292929292929293,-4.090909090909091 4.292929292929293,-4.191919191919193 4.292929292929293,-4.292929292929293 4.292929292929293,-4.393939393939394 4.292929292929293,-4.494949494949496 4.292929292929293,-4.595959595959596 4.292929292929293,-4.696969696969697 4.292929292929293,-4.7979797979797985 4.292929292929293,-4.898989898989899 4.292929292929293,-5.000000000000001" data-type="line" data-label="" points="888.6464646464647,850.5050505050505 898.181818181818,860.0404040404039 907.7171717171716,869.5757575757575 917.2525252525251,879.1111111111111 917.2525252525251,888.6464646464647 917.2525252525251,898.1818181818181 917.2525252525251,907.7171717171718 917.2525252525251,917.2525252525252 917.2525252525251,926.7878787878788 917.2525252525251,936.3232323232323 917.2525252525251,945.8585858585858 917.2525252525251,955.3939393939394 917.2525252525251,964.9292929292928 917.2525252525251,974.4646464646464 917.2525252525251,984" fill="none" stroke="rgba(255,0,0,0.75)" stroke-width="11.327999999999996"/></g><g><polyline data-points="5.000000000000002,-2.6767676767676765 4.898989898989901,-2.7777777777777777 4.7979797979797985,-2.8787878787878785 4.696969696969697,-2.9797979797979792 4.595959595959597,-3.0808080808080804 4.494949494949497,-3.1818181818181817 4.393939393939394,-3.2828282828282824 4.292929292929293,-3.2828282828282824 4.191919191919193,-3.2828282828282824 4.090909090909092,-3.2828282828282824 3.989898989898992,-3.2828282828282824 3.8888888888888893,-3.383838383838383 3.7878787878787885,-3.484848484848485 3.6868686868686877,-3.5858585858585856 3.5858585858585874,-3.6868686868686864 3.4848484848484866,-3.7878787878787876 3.383838383838384,-3.8888888888888884 3.2828282828282833,-3.98989898989899" data-type="line" data-label="" points="984,764.6868686868687 974.4646464646464,774.2222222222222 964.9292929292927,783.7575757575758 955.3939393939393,793.2929292929292 945.8585858585857,802.8282828282828 936.3232323232323,812.3636363636363 926.7878787878785,821.8989898989898 917.2525252525251,821.8989898989898 907.7171717171716,821.8989898989898 898.181818181818,821.8989898989898 888.6464646464647,821.8989898989898 879.111111111111,831.4343434343434 869.5757575757575,840.969696969697 860.0404040404039,850.5050505050505 850.5050505050505,860.0404040404039 840.969696969697,869.5757575757575 831.4343434343433,879.1111111111111 821.8989898989898,888.6464646464647" fill="none" stroke="rgba(255,0,0,0.75)" stroke-width="11.327999999999996"/></g><g><polyline data-points="3.2828282828282833,-3.98989898989899 3.181818181818183,-4.090909090909091 3.080808080808082,-4.191919191919193 2.9797979797979806,-4.292929292929293 2.87878787878788,-4.393939393939394 2.7777777777777786,-4.494949494949496 2.7777777777777786,-4.595959595959596 2.7777777777777786,-4.696969696969697 2.7777777777777786,-4.7979797979797985 2.7777777777777786,-4.898989898989899 2.7777777777777786,-5.000000000000001" data-type="line" data-label="" points="821.8989898989898,888.6464646464647 812.3636363636363,898.1818181818181 802.8282828282828,907.7171717171718 793.2929292929292,917.2525252525252 783.7575757575758,926.7878787878788 774.2222222222222,936.3232323232323 774.2222222222222,945.8585858585858 774.2222222222222,955.3939393939394 774.2222222222222,964.9292929292928 774.2222222222222,974.4646464646464 774.2222222222222,984" fill="none" stroke="rgba(0,0,255,0.75)" stroke-width="11.327999999999996"/></g><g><polyline data-points="-3.8888888888888884,-5.000000000000001 -3.7878787878787876,-4.898989898989899 -3.6868686868686864,-4.7979797979797985 -3.5858585858585856,-4.696969696969697 -3.484848484848485,-4.595959595959596 -3.383838383838383,-4.494949494949496 -3.2828282828282824,-4.393939393939394 -3.1818181818181817,-4.292929292929293 -3.0808080808080804,-4.191919191919193 -2.9797979797979792,-4.090909090909091 -2.8787878787878785,-3.98989898989899 -2.7777777777777777,-3.8888888888888884 -2.6767676767676765,-3.7878787878787876 -2.5757575757575752,-3.6868686868686864 -2.474747474747474,-3.5858585858585856 -2.3737373737373733,-3.484848484848485 -2.2727272727272725,-3.383838383838383 -2.1717171717171713,-3.2828282828282824 -2.07070707070707,-3.1818181818181817 -1.9696969696969693,-3.0808080808080804 -1.8686868686868683,-2.9797979797979792 -1.7676767676767675,-2.8787878787878785 -1.6666666666666665,-2.7777777777777777 -1.5656565656565653,-2.6767676767676765 -1.4646464646464643,-2.5757575757575752 -1.363636363636363,-2.474747474747474 -1.2626262626262625,-2.3737373737373733 -1.1616161616161613,-2.2727272727272725 -1.0606060606060603,-2.1717171717171713 -0.9595959595959596,-2.07070707070707 -0.8585858585858579,-1.9696969696969693 -0.7575757575757572,-1.8686868686868683 -0.6565656565656557,-1.7676767676767675 -0.555555555555555,-1.6666666666666665 -0.4545454545454544,-1.5656565656565653 -0.35353535353535287,-1.4646464646464643 -0.2525252525252522,-1.363636363636363 -0.15151515151515066,-1.2626262626262625 -0.05050505050505001,-1.1616161616161613 0.050505050505051545,-1.0606060606060603 0.1515151515151522,-0.9595959595959596 0.2525252525252529,-0.8585858585858579 0.3535353535353544,-0.7575757575757572 0.4545454545454551,-0.6565656565656557 0.5555555555555567,-0.555555555555555 0.6565656565656574,-0.4545454545454544 0.7575757575757579,-0.35353535353535287 0.8585858585858596,-0.2525252525252522 0.9595959595959602,-0.15151515151515066 1.0606060606060617,-0.05050505050505001 1.1616161616161622,0.050505050505051545 1.262626262626263,0.1515151515151522 1.3636363636363644,0.2525252525252529 1.4646464646464652,0.3535353535353544 1.5656565656565666,0.4545454545454551 1.6666666666666674,0.5555555555555567 1.767676767676768,0.6565656565656574 1.8686868686868696,0.7575757575757579 1.9696969696969702,0.8585858585858596 2.070707070707072,0.9595959595959602 2.1717171717171726,1.0606060606060617 2.2727272727272734,1.1616161616161622 2.373737373737375,1.262626262626263 2.4747474747474754,1.3636363636363644 2.575757575757577,1.4646464646464652 2.676767676767678,1.5656565656565666 2.7777777777777786,1.6666666666666674 2.87878787878788,1.767676767676768 2.9797979797979806,1.8686868686868696 3.080808080808082,1.9696969696969702 3.181818181818183,2.070707070707072 3.181818181818183,2.1717171717171726 3.181818181818183,2.2727272727272734 3.181818181818183,2.373737373737375 3.181818181818183,2.4747474747474754 3.181818181818183,2.575757575757577 3.181818181818183,2.676767676767678 3.181818181818183,2.7777777777777786 3.181818181818183,2.87878787878788 3.181818181818183,2.9797979797979806" data-type="line" data-label="" points="144.88888888888903,984 154.42424242424255,974.4646464646464 163.95959595959607,964.9292929292928 173.4949494949496,955.3939393939394 183.03030303030312,945.8585858585858 192.5656565656567,936.3232323232323 202.10101010101022,926.7878787878788 211.63636363636374,917.2525252525252 221.17171717171726,907.7171717171718 230.70707070707084,898.1818181818181 240.2424242424243,888.6464646464647 249.77777777777783,879.1111111111111 259.3131313131314,869.5757575757575 268.84848484848493,860.0404040404039 278.38383838383845,850.5050505050505 287.91919191919203,840.969696969697 297.4545454545455,831.4343434343434 306.9898989898991,821.8989898989898 316.5252525252526,812.3636363636363 326.0606060606061,802.8282828282828 335.59595959595964,793.2929292929292 345.13131313131316,783.7575757575758 354.6666666666667,774.2222222222222 364.2020202020202,764.6868686868687 373.7373737373738,755.1515151515151 383.2727272727273,745.6161616161615 392.80808080808083,736.0808080808081 402.34343434343435,726.5454545454545 411.8787878787879,717.010101010101 421.4141414141414,707.4747474747475 430.949494949495,697.939393939394 440.4848484848485,688.4040404040404 450.0202020202021,678.8686868686868 459.55555555555554,669.3333333333334 469.09090909090907,659.7979797979798 478.62626262626264,650.2626262626263 488.16161616161617,640.7272727272727 497.69696969696975,631.1919191919193 507.2323232323232,621.6565656565657 516.7676767676768,612.1212121212121 526.3030303030303,602.5858585858587 535.8383838383838,593.0505050505051 545.3737373737374,583.5151515151516 554.9090909090909,573.979797979798 564.4444444444445,564.4444444444445 573.9797979797979,554.909090909091 583.5151515151515,545.3737373737374 593.0505050505051,535.838383838384 602.5858585858585,526.3030303030304 612.1212121212121,516.7676767676768 621.6565656565656,507.23232323232327 631.1919191919192,497.69696969696975 640.7272727272727,488.1616161616163 650.2626262626262,478.6262626262627 659.7979797979798,469.0909090909092 669.3333333333333,459.5555555555556 678.8686868686868,450.0202020202021 688.4040404040404,440.4848484848486 697.9393939393939,430.94949494949503 707.4747474747475,421.4141414141415 717.0101010101009,411.87878787878793 726.5454545454545,402.3434343434344 736.0808080808081,392.80808080808094 745.6161616161615,383.27272727272737 755.1515151515151,373.73737373737384 764.6868686868686,364.2020202020203 774.2222222222222,354.66666666666674 783.7575757575758,345.1313131313133 793.2929292929292,335.5959595959597 802.8282828282828,326.06060606060623 812.3636363636363,316.5252525252526 812.3636363636363,306.9898989898991 812.3636363636363,297.4545454545456 812.3636363636363,287.91919191919203 812.3636363636363,278.38383838383857 812.3636363636363,268.84848484848493 812.3636363636363,259.3131313131314 812.3636363636363,249.77777777777794 812.3636363636363,240.24242424242436 812.3636363636363,230.70707070707084" fill="none" stroke="rgba(255,0,0,0.75)" stroke-width="11.327999999999996"/></g><g><polyline data-points="3.181818181818183,2.9797979797979806 3.181818181818183,3.080808080808082 3.181818181818183,3.181818181818183 3.181818181818183,3.2828282828282833 3.181818181818183,3.383838383838384 3.181818181818183,3.4848484848484866 3.181818181818183,3.5858585858585874 3.181818181818183,3.6868686868686877 3.181818181818183,3.7878787878787885 3.181818181818183,3.8888888888888893 3.181818181818183,3.989898989898992" data-type="line" data-label="" points="812.3636363636363,230.70707070707084 812.3636363636363,221.17171717171726 812.3636363636363,211.63636363636374 812.3636363636363,202.10101010101027 812.3636363636363,192.56565656565675 812.3636363636363,183.03030303030312 812.3636363636363,173.4949494949496 812.3636363636363,163.95959595959613 812.3636363636363,154.4242424242426 812.3636363636363,144.88888888888908 812.3636363636363,135.35353535353545" fill="none" stroke="rgba(0,0,255,0.75)" stroke-width="11.327999999999996"/></g><g><polyline data-points="3.181818181818183,3.989898989898992 3.2828282828282833,4.090909090909092 3.383838383838384,4.191919191919193 3.4848484848484866,4.292929292929293 3.5858585858585874,4.393939393939394 3.6868686868686877,4.494949494949497 3.7878787878787885,4.595959595959597 3.8888888888888893,4.696969696969697 3.989898989898992,4.7979797979797985 4.090909090909092,4.898989898989901 4.191919191919193,5.000000000000002 4.292929292929293,5.000000000000002 4.393939393939394,5.000000000000002 4.494949494949497,5.000000000000002 4.595959595959597,5.000000000000002" data-type="line" data-label="" points="812.3636363636363,135.35353535353545 821.8989898989898,125.81818181818198 831.4343434343433,116.28282828282846 840.969696969697,106.747474747475 850.5050505050505,97.21212121212153 860.0404040404039,87.67676767676778 869.5757575757575,78.14141414141432 879.111111111111,68.60606060606085 888.6464646464647,59.07070707070733 898.181818181818,49.53535353535369 907.7171717171716,40.000000000000114 917.2525252525251,40.000000000000114 926.7878787878785,40.000000000000114 936.3232323232323,40.000000000000114 945.8585858585857,40.000000000000114" fill="none" stroke="rgba(255,0,0,0.75)" stroke-width="11.327999999999996"/></g><g><rect data-type="rect" data-label="" data-x="0" data-y="0" x="40.000000000000114" y="40.000000000000284" width="943.9999999999997" height="943.9999999999998" fill="none" stroke="gray" stroke-width="0.010593220338983056"/></g><g><rect data-type="rect" data-label="" data-x="0" data-y="0" x="40.000000000000114" y="40.000000000000284" width="943.9999999999997" height="943.9999999999998" fill="none" stroke="rgba(15, 23, 42, 0.8)" stroke-width="0.010593220338983056"/></g><circle data-type="circle" data-label="" data-x="1.5656565656565666" data-y="2.373737373737375" cx="659.7979797979798" cy="287.91919191919203" r="14.159999999999995" fill="rgba(0,0,0,0.3)" stroke="black" stroke-width="0.010593220338983056"/><circle data-type="circle" data-label="" data-x="3.989898989898992" data-y="-3.5858585858585856" cx="888.6464646464647" cy="850.5050505050505" r="14.159999999999995" fill="rgba(0,0,0,0.3)" stroke="black" stroke-width="0.010593220338983056"/><circle data-type="circle" data-label="" data-x="3.2828282828282833" data-y="-3.98989898989899" cx="821.8989898989898" cy="888.6464646464647" r="14.159999999999995" fill="rgba(0,0,0,0.3)" stroke="black" stroke-width="0.010593220338983056"/><circle data-type="circle" data-label="" data-x="3.181818181818183" data-y="2.9797979797979806" cx="812.3636363636363" cy="230.70707070707084" r="14.159999999999995" fill="rgba(0,0,0,0.3)" stroke="black" stroke-width="0.010593220338983056"/><circle data-type="circle" data-label="" data-x="3.181818181818183" data-y="3.989898989898992" cx="812.3636363636363" cy="135.35353535353545" r="14.159999999999995" fill="rgba(0,0,0,0.3)" stroke="black" stroke-width="0.010593220338983056"/><g id="crosshair" style="display: none"><line id="crosshair-h" y1="0" y2="1024" stroke="#666" stroke-width="0.5"/><line id="crosshair-v" x1="0" x2="1024" stroke="#666" stroke-width="0.5"/><text id="coordinates" font-family="monospace" font-size="12" fill="#666"></text></g><script><![CDATA[
              document.currentScript.parentElement.addEventListener('mousemove', (e) => {
                const svg = e.currentTarget;
                const rect = svg.getBoundingClientRect();
                const x = e.clientX - rect.left;
                const y = e.clientY - rect.top;
                const crosshair = svg.getElementById('crosshair');
                const h = svg.getElementById('crosshair-h');
                const v = svg.getElementById('crosshair-v');
                const coords = svg.getElementById('coordinates');
                
                crosshair.style.display = 'block';
                h.setAttribute('x1', '0');
                h.setAttribute('x2', '1024');
                h.setAttribute('y1', y);
                h.setAttribute('y2', y);
                v.setAttribute('x1', x);
                v.setAttribute('x2', x);
                v.setAttribute('y1', '0');
                v.setAttribute('y2', '1024');

                // Calculate real coordinates using inverse transformation
                const matrix = {"a":94.39999999999996,"c":0,"e":511.99999999999994,"b":0,"d":-94.39999999999996,"f":512.0000000000001};
                // Manually invert and apply the affine transform
                // Since we only use translate and scale, we can directly compute:
                // x' = (x - tx) / sx
                // y' = (y - ty) / sy
                const sx = matrix.a;
                const sy = matrix.d;
                const tx = matrix.e; 
                const ty = matrix.f;
                const realPoint = {
                  x: (x - tx) / sx,
                  y: (y - ty) / sy // Flip y back since we used negative scale
                }
                
                coords.textContent = `(${realPoint.x.toFixed(2)}, ${realPoint.y.toFixed(2)})`;
                coords.setAttribute('x', (x + 5).toString());
                coords.setAttribute('y', (y - 5).toString());
              });
              document.currentScript.parentElement.addEventListener('mouseleave', () => {
                document.currentScript.parentElement.getElementById('crosshair').style.display = 'none';
              });
            ]]></script></svg>