<svg width="1024" height="1024" viewBox="0 0 1024 1024" xmlns="http://www.w3.org/2000/svg"><rect width="100%" height="100%" fill="white"/><g><circle data-type="point" data-label="conn_000" data-x="5" data-y="-0.72" cx="983.9999999999998" cy="579.9680000000001" r="14.16" fill="blue"/></g><g><circle data-type="point" data-label="conn_000" data-x="-5" data-y="1.72" cx="40.000000000000114" cy="349.6320000000002" r="14.16" fill="red"/></g><g><circle data-type="point" data-label="conn_001" data-x="3.84" data-y="5" cx="874.4959999999999" cy="40.000000000000284" r="14.16" fill="blue"/></g><g><circle data-type="point" data-label="conn_001" data-x="-1.6" data-y="-5" cx="360.96000000000004" cy="984" r="14.16" fill="blue"/></g><g><circle data-type="point" data-label="conn_002" data-x="3.74" data-y="-5" cx="865.0559999999998" cy="984" r="14.16" fill="blue"/></g><g><circle data-type="point" data-label="conn_002" data-x="2.86" data-y="5" cx="781.9839999999998" cy="40.000000000000284" r="14.16" fill="blue"/></g><g><circle data-type="point" data-label="conn_003" data-x="5" data-y="3.98" cx="983.9999999999998" cy="136.28800000000024" r="14.16" fill="blue"/></g><g><circle data-type="point" data-label="conn_003" data-x="-5" data-y="-4.08" cx="40.000000000000114" cy="897.152" r="14.16" fill="red"/></g><g><circle data-type="point" data-label="conn_004" data-x="-3.24" data-y="-5" cx="206.14400000000006" cy="984" r="14.16" fill="blue"/></g><g><circle data-type="point" data-label="conn_004" data-x="2.64" data-y="-5" cx="761.2159999999999" cy="984" r="14.16" fill="blue"/></g><g><circle data-type="point" data-label="conn_005" data-x="-4.54" data-y="-5" cx="83.42400000000009" cy="984" r="14.16" fill="blue"/></g><g><circle data-type="point" data-label="conn_005" data-x="2.54" data-y="-5" cx="751.7759999999998" cy="984" r="14.16" fill="red"/></g><g><circle data-type="point" data-label="conn_006" data-x="-3.04" data-y="5" cx="225.02400000000006" cy="40.000000000000284" r="14.16" fill="red"/></g><g><circle data-type="point" data-label="conn_006" data-x="2.16" data-y="-5" cx="715.9039999999999" cy="984" r="14.16" fill="red"/></g><g><circle data-type="point" data-label="conn_007" data-x="0.8" data-y="5" cx="587.5199999999999" cy="40.000000000000284" r="14.16" fill="red"/></g><g><circle data-type="point" data-label="conn_007" data-x="-1.6600000000000001" data-y="-5" cx="355.296" cy="984" r="14.16" fill="red"/></g><g><polyline data-points="3.8888888888888893,5.000000000000002 3.7878787878787885,4.898989898989901 3.6868686868686877,4.7979797979797985 3.5858585858585874,4.696969696969697 3.4848484848484866,4.595959595959597 3.383838383838384,4.494949494949497 3.2828282828282833,4.393939393939394 3.181818181818183,4.292929292929293 3.080808080808082,4.191919191919193 2.9797979797979806,4.090909090909092 2.87878787878788,3.989898989898992 2.7777777777777786,3.8888888888888893 2.676767676767678,3.7878787878787885 2.575757575757577,3.6868686868686877 2.4747474747474754,3.5858585858585874 2.373737373737375,3.4848484848484866 2.2727272727272734,3.383838383838384 2.1717171717171726,3.2828282828282833 2.070707070707072,3.181818181818183 1.9696969696969702,3.080808080808082 1.8686868686868696,2.9797979797979806 1.767676767676768,2.87878787878788 1.6666666666666674,2.7777777777777786 1.5656565656565666,2.676767676767678 1.4646464646464652,2.575757575757577 1.3636363636363644,2.4747474747474754 1.262626262626263,2.373737373737375 1.1616161616161622,2.2727272727272734 1.0606060606060617,2.1717171717171726 0.9595959595959602,2.070707070707072 0.8585858585858596,1.9696969696969702 0.7575757575757579,1.8686868686868696 0.6565656565656574,1.767676767676768 0.5555555555555567,1.6666666666666674 0.4545454545454551,1.5656565656565666 0.3535353535353544,1.4646464646464652 0.2525252525252529,1.3636363636363644 0.1515151515151522,1.262626262626263 0.050505050505051545,1.1616161616161622 -0.05050505050505001,1.0606060606060617 -0.15151515151515066,0.9595959595959602 -0.2525252525252522,0.8585858585858596 -0.35353535353535287,0.7575757575757579 -0.4545454545454544,0.6565656565656574 -0.555555555555555,0.5555555555555567 -0.6565656565656557,0.4545454545454551 -0.7575757575757572,0.3535353535353544 -0.8585858585858579,0.2525252525252529 -0.9595959595959596,0.1515151515151522 -1.0606060606060603,0.050505050505051545 -1.1616161616161613,-0.05050505050505001 -1.2626262626262625,-0.15151515151515066 -1.363636363636363,-0.2525252525252522 -1.4646464646464643,-0.35353535353535287 -1.4646464646464643,-0.4545454545454544 -1.4646464646464643,-0.555555555555555 -1.4646464646464643,-0.6565656565656557 -1.4646464646464643,-0.7575757575757572 -1.4646464646464643,-0.8585858585858579 -1.4646464646464643,-0.9595959595959596 -1.4646464646464643,-1.0606060606060603 -1.4646464646464643,-1.1616161616161613 -1.4646464646464643,-1.2626262626262625 -1.4646464646464643,-1.363636363636363 -1.4646464646464643,-1.4646464646464643 -1.4646464646464643,-1.5656565656565653 -1.4646464646464643,-1.6666666666666665 -1.4646464646464643,-1.7676767676767675 -1.4646464646464643,-1.8686868686868683 -1.4646464646464643,-1.9696969696969693 -1.4646464646464643,-2.07070707070707 -1.4646464646464643,-2.1717171717171713 -1.4646464646464643,-2.2727272727272725 -1.4646464646464643,-2.3737373737373733 -1.4646464646464643,-2.474747474747474 -1.4646464646464643,-2.5757575757575752 -1.4646464646464643,-2.6767676767676765 -1.4646464646464643,-2.7777777777777777 -1.4646464646464643,-2.8787878787878785 -1.4646464646464643,-2.9797979797979792 -1.4646464646464643,-3.0808080808080804 -1.4646464646464643,-3.1818181818181817 -1.4646464646464643,-3.2828282828282824 -1.4646464646464643,-3.383838383838383 -1.4646464646464643,-3.484848484848485 -1.4646464646464643,-3.5858585858585856 -1.4646464646464643,-3.6868686868686864 -1.4646464646464643,-3.7878787878787876 -1.4646464646464643,-3.8888888888888884 -1.4646464646464643,-3.98989898989899 -1.4646464646464643,-4.090909090909091 -1.4646464646464643,-4.191919191919193 -1.4646464646464643,-4.292929292929293 -1.4646464646464643,-4.393939393939394 -1.4646464646464643,-4.494949494949496 -1.4646464646464643,-4.595959595959596 -1.4646464646464643,-4.696969696969697 -1.4646464646464643,-4.7979797979797985 -1.4646464646464643,-4.898989898989899 -1.5656565656565653,-5.000000000000001" data-type="line" data-label="" points="879.111111111111,40.000000000000114 869.5757575757575,49.53535353535369 860.0404040404039,59.07070707070733 850.5050505050505,68.60606060606085 840.969696969697,78.14141414141432 831.4343434343433,87.67676767676778 821.8989898989898,97.21212121212153 812.3636363636363,106.747474747475 802.8282828282828,116.28282828282846 793.2929292929292,125.81818181818198 783.7575757575758,135.35353535353545 774.2222222222222,144.88888888888908 764.6868686868686,154.4242424242426 755.1515151515151,163.95959595959613 745.6161616161615,173.4949494949496 736.0808080808081,183.03030303030312 726.5454545454545,192.56565656565675 717.0101010101009,202.10101010101027 707.4747474747475,211.63636363636374 697.9393939393939,221.17171717171726 688.4040404040404,230.70707070707084 678.8686868686868,240.24242424242436 669.3333333333333,249.77777777777794 659.7979797979798,259.3131313131314 650.2626262626262,268.84848484848493 640.7272727272727,278.38383838383857 631.1919191919192,287.91919191919203 621.6565656565656,297.4545454545456 612.1212121212121,306.9898989898991 602.5858585858585,316.5252525252526 593.0505050505051,326.06060606060623 583.5151515151515,335.5959595959597 573.9797979797979,345.1313131313133 564.4444444444445,354.66666666666674 554.9090909090909,364.2020202020203 545.3737373737374,373.73737373737384 535.8383838383838,383.27272727272737 526.3030303030303,392.80808080808094 516.7676767676768,402.3434343434344 507.2323232323232,411.87878787878793 497.69696969696975,421.4141414141415 488.16161616161617,430.94949494949503 478.62626262626264,440.4848484848486 469.09090909090907,450.0202020202021 459.55555555555554,459.5555555555556 450.0202020202021,469.0909090909092 440.4848484848485,478.6262626262627 430.949494949495,488.1616161616163 421.4141414141414,497.69696969696975 411.8787878787879,507.23232323232327 402.34343434343435,516.7676767676768 392.80808080808083,526.3030303030304 383.2727272727273,535.838383838384 373.7373737373738,545.3737373737374 373.7373737373738,554.909090909091 373.7373737373738,564.4444444444445 373.7373737373738,573.979797979798 373.7373737373738,583.5151515151516 373.7373737373738,593.0505050505051 373.7373737373738,602.5858585858587 373.7373737373738,612.1212121212121 373.7373737373738,621.6565656565657 373.7373737373738,631.1919191919193 373.7373737373738,640.7272727272727 373.7373737373738,650.2626262626263 373.7373737373738,659.7979797979798 373.7373737373738,669.3333333333334 373.7373737373738,678.8686868686868 373.7373737373738,688.4040404040404 373.7373737373738,697.939393939394 373.7373737373738,707.4747474747475 373.7373737373738,717.010101010101 373.7373737373738,726.5454545454545 373.7373737373738,736.0808080808081 373.7373737373738,745.6161616161615 373.7373737373738,755.1515151515151 373.7373737373738,764.6868686868687 373.7373737373738,774.2222222222222 373.7373737373738,783.7575757575758 373.7373737373738,793.2929292929292 373.7373737373738,802.8282828282828 373.7373737373738,812.3636363636363 373.7373737373738,821.8989898989898 373.7373737373738,831.4343434343434 373.7373737373738,840.969696969697 373.7373737373738,850.5050505050505 373.7373737373738,860.0404040404039 373.7373737373738,869.5757575757575 373.7373737373738,879.1111111111111 373.7373737373738,888.6464646464647 373.7373737373738,898.1818181818181 373.7373737373738,907.7171717171718 373.7373737373738,917.2525252525252 373.7373737373738,926.7878787878788 373.7373737373738,936.3232323232323 373.7373737373738,945.8585858585858 373.7373737373738,955.3939393939394 373.7373737373738,964.9292929292928 373.7373737373738,974.4646464646464 364.2020202020202,984" fill="none" stroke="rgba(0,0,255,0.75)" stroke-width="11.327999999999996"/></g><g><polyline data-points="3.7878787878787885,-5.000000000000001 3.6868686868686877,-4.898989898989899 3.5858585858585874,-4.7979797979797985 3.4848484848484866,-4.696969696969697 3.383838383838384,-4.595959595959596 3.2828282828282833,-4.494949494949496 3.181818181818183,-4.393939393939394 3.080808080808082,-4.292929292929293 2.9797979797979806,-4.191919191919193 2.87878787878788,-4.090909090909091 2.87878787878788,-3.98989898989899 2.87878787878788,-3.8888888888888884 2.87878787878788,-3.7878787878787876 2.87878787878788,-3.6868686868686864 2.87878787878788,-3.5858585858585856 2.87878787878788,-3.484848484848485 2.87878787878788,-3.383838383838383 2.87878787878788,-3.2828282828282824 2.87878787878788,-3.1818181818181817 2.87878787878788,-3.0808080808080804 2.87878787878788,-2.9797979797979792 2.87878787878788,-2.8787878787878785 2.87878787878788,-2.7777777777777777 2.87878787878788,-2.6767676767676765 2.87878787878788,-2.5757575757575752 2.87878787878788,-2.474747474747474 2.87878787878788,-2.3737373737373733 2.87878787878788,-2.2727272727272725 2.87878787878788,-2.1717171717171713 2.87878787878788,-2.07070707070707 2.87878787878788,-1.9696969696969693 2.87878787878788,-1.8686868686868683 2.87878787878788,-1.7676767676767675 2.87878787878788,-1.6666666666666665 2.87878787878788,-1.5656565656565653 2.87878787878788,-1.4646464646464643 2.87878787878788,-1.363636363636363 2.87878787878788,-1.2626262626262625 2.87878787878788,-1.1616161616161613 2.87878787878788,-1.0606060606060603 2.87878787878788,-0.9595959595959596 2.87878787878788,-0.8585858585858579 2.87878787878788,-0.7575757575757572 2.87878787878788,-0.6565656565656557 2.87878787878788,-0.555555555555555 2.87878787878788,-0.4545454545454544 2.87878787878788,-0.35353535353535287 2.87878787878788,-0.2525252525252522 2.87878787878788,-0.15151515151515066 2.87878787878788,-0.05050505050505001 2.87878787878788,0.050505050505051545 2.87878787878788,0.1515151515151522 2.87878787878788,0.2525252525252529 2.87878787878788,0.3535353535353544 2.87878787878788,0.4545454545454551 2.87878787878788,0.5555555555555567 2.87878787878788,0.6565656565656574 2.87878787878788,0.7575757575757579 2.87878787878788,0.8585858585858596 2.87878787878788,0.9595959595959602 2.87878787878788,1.0606060606060617 2.87878787878788,1.1616161616161622 2.87878787878788,1.262626262626263 2.87878787878788,1.3636363636363644 2.87878787878788,1.4646464646464652 2.87878787878788,1.5656565656565666 2.87878787878788,1.6666666666666674 2.87878787878788,1.767676767676768 2.87878787878788,1.8686868686868696 2.87878787878788,1.9696969696969702 2.87878787878788,2.070707070707072 2.87878787878788,2.1717171717171726 2.87878787878788,2.2727272727272734 2.87878787878788,2.373737373737375 2.87878787878788,2.4747474747474754 2.87878787878788,2.575757575757577 2.87878787878788,2.676767676767678 2.87878787878788,2.7777777777777786 2.87878787878788,2.87878787878788 2.87878787878788,2.9797979797979806 2.87878787878788,3.080808080808082 2.87878787878788,3.181818181818183 2.87878787878788,3.2828282828282833 2.87878787878788,3.383838383838384 2.87878787878788,3.4848484848484866" data-type="line" data-label="" points="869.5757575757575,984 860.0404040404039,974.4646464646464 850.5050505050505,964.9292929292928 840.969696969697,955.3939393939394 831.4343434343433,945.8585858585858 821.8989898989898,936.3232323232323 812.3636363636363,926.7878787878788 802.8282828282828,917.2525252525252 793.2929292929292,907.7171717171718 783.7575757575758,898.1818181818181 783.7575757575758,888.6464646464647 783.7575757575758,879.1111111111111 783.7575757575758,869.5757575757575 783.7575757575758,860.0404040404039 783.7575757575758,850.5050505050505 783.7575757575758,840.969696969697 783.7575757575758,831.4343434343434 783.7575757575758,821.8989898989898 783.7575757575758,812.3636363636363 783.7575757575758,802.8282828282828 783.7575757575758,793.2929292929292 783.7575757575758,783.7575757575758 783.7575757575758,774.2222222222222 783.7575757575758,764.6868686868687 783.7575757575758,755.1515151515151 783.7575757575758,745.6161616161615 783.7575757575758,736.0808080808081 783.7575757575758,726.5454545454545 783.7575757575758,717.010101010101 783.7575757575758,707.4747474747475 783.7575757575758,697.939393939394 783.7575757575758,688.4040404040404 783.7575757575758,678.8686868686868 783.7575757575758,669.3333333333334 783.7575757575758,659.7979797979798 783.7575757575758,650.2626262626263 783.7575757575758,640.7272727272727 783.7575757575758,631.1919191919193 783.7575757575758,621.6565656565657 783.7575757575758,612.1212121212121 783.7575757575758,602.5858585858587 783.7575757575758,593.0505050505051 783.7575757575758,583.5151515151516 783.7575757575758,573.979797979798 783.7575757575758,564.4444444444445 783.7575757575758,554.909090909091 783.7575757575758,545.3737373737374 783.7575757575758,535.838383838384 783.7575757575758,526.3030303030304 783.7575757575758,516.7676767676768 783.7575757575758,507.23232323232327 783.7575757575758,497.69696969696975 783.7575757575758,488.1616161616163 783.7575757575758,478.6262626262627 783.7575757575758,469.0909090909092 783.7575757575758,459.5555555555556 783.7575757575758,450.0202020202021 783.7575757575758,440.4848484848486 783.7575757575758,430.94949494949503 783.7575757575758,421.4141414141415 783.7575757575758,411.87878787878793 783.7575757575758,402.3434343434344 783.7575757575758,392.80808080808094 783.7575757575758,383.27272727272737 783.7575757575758,373.73737373737384 783.7575757575758,364.2020202020203 783.7575757575758,354.66666666666674 783.7575757575758,345.1313131313133 783.7575757575758,335.5959595959597 783.7575757575758,326.06060606060623 783.7575757575758,316.5252525252526 783.7575757575758,306.9898989898991 783.7575757575758,297.4545454545456 783.7575757575758,287.91919191919203 783.7575757575758,278.38383838383857 783.7575757575758,268.84848484848493 783.7575757575758,259.3131313131314 783.7575757575758,249.77777777777794 783.7575757575758,240.24242424242436 783.7575757575758,230.70707070707084 783.7575757575758,221.17171717171726 783.7575757575758,211.63636363636374 783.7575757575758,202.10101010101027 783.7575757575758,192.56565656565675 783.7575757575758,183.03030303030312" fill="none" stroke="rgba(0,0,255,0.75)" stroke-width="11.327999999999996"/></g><g><polyline data-points="2.87878787878788,3.4848484848484866 2.7777777777777786,3.5858585858585874 2.676767676767678,3.6868686868686877 2.575757575757577,3.7878787878787885 2.4747474747474754,3.8888888888888893 2.373737373737375,3.989898989898992" data-type="line" data-label="" points="783.7575757575758,183.03030303030312 774.2222222222222,173.4949494949496 764.6868686868686,163.95959595959613 755.1515151515151,154.4242424242426 745.6161616161615,144.88888888888908 736.0808080808081,135.35353535353545" fill="none" stroke="rgba(255,0,0,0.75)" stroke-width="11.327999999999996"/></g><g><polyline data-points="2.373737373737375,3.989898989898992 2.4747474747474754,4.090909090909092 2.575757575757577,4.191919191919193 2.676767676767678,4.292929292929293 2.7777777777777786,4.393939393939394 2.87878787878788,4.494949494949497 2.87878787878788,4.595959595959597 2.87878787878788,4.696969696969697 2.87878787878788,4.7979797979797985 2.87878787878788,4.898989898989901 2.87878787878788,5.000000000000002" data-type="line" data-label="" points="736.0808080808081,135.35353535353545 745.6161616161615,125.81818181818198 755.1515151515151,116.28282828282846 764.6868686868686,106.747474747475 774.2222222222222,97.21212121212153 783.7575757575758,87.67676767676778 783.7575757575758,78.14141414141432 783.7575757575758,68.60606060606085 783.7575757575758,59.07070707070733 783.7575757575758,49.53535353535369 783.7575757575758,40.000000000000114" fill="none" stroke="rgba(0,0,255,0.75)" stroke-width="11.327999999999996"/></g><g><polyline data-points="5.000000000000002,-0.7575757575757572 4.898989898989901,-0.6565656565656557 4.7979797979797985,-0.555555555555555 4.696969696969697,-0.4545454545454544 4.595959595959597,-0.35353535353535287 4.494949494949497,-0.2525252525252522 4.393939393939394,-0.15151515151515066 4.292929292929293,-0.05050505050505001 4.191919191919193,0.050505050505051545 4.090909090909092,0.1515151515151522 3.989898989898992,0.2525252525252529 3.8888888888888893,0.3535353535353544 3.7878787878787885,0.4545454545454551 3.6868686868686877,0.5555555555555567 3.5858585858585874,0.6565656565656574 3.4848484848484866,0.7575757575757579 3.383838383838384,0.8585858585858596 3.2828282828282833,0.9595959595959602" data-type="line" data-label="" points="984,583.5151515151516 974.4646464646464,573.979797979798 964.9292929292927,564.4444444444445 955.3939393939393,554.909090909091 945.8585858585857,545.3737373737374 936.3232323232323,535.838383838384 926.7878787878785,526.3030303030304 917.2525252525251,516.7676767676768 907.7171717171716,507.23232323232327 898.181818181818,497.69696969696975 888.6464646464647,488.1616161616163 879.111111111111,478.6262626262627 869.5757575757575,469.0909090909092 860.0404040404039,459.5555555555556 850.5050505050505,450.0202020202021 840.969696969697,440.4848484848486 831.4343434343433,430.94949494949503 821.8989898989898,421.4141414141415" fill="none" stroke="rgba(0,0,255,0.75)" stroke-width="11.327999999999996"/></g><g><polyline data-points="3.2828282828282833,0.9595959595959602 3.181818181818183,1.0606060606060617 3.080808080808082,1.1616161616161622 2.9797979797979806,1.262626262626263 2.87878787878788,1.3636363636363644 2.7777777777777786,1.4646464646464652 2.676767676767678,1.5656565656565666 2.575757575757577,1.6666666666666674 2.4747474747474754,1.767676767676768 2.373737373737375,1.767676767676768 2.2727272727272734,1.767676767676768 2.1717171717171726,1.767676767676768 2.070707070707072,1.767676767676768 1.9696969696969702,1.767676767676768 1.8686868686868696,1.767676767676768 1.767676767676768,1.767676767676768 1.6666666666666674,1.767676767676768 1.5656565656565666,1.767676767676768 1.4646464646464652,1.767676767676768 1.3636363636363644,1.767676767676768 1.262626262626263,1.767676767676768 1.1616161616161622,1.767676767676768 1.0606060606060617,1.767676767676768 0.9595959595959602,1.767676767676768 0.8585858585858596,1.767676767676768 0.7575757575757579,1.767676767676768 0.6565656565656574,1.767676767676768 0.5555555555555567,1.767676767676768 0.4545454545454551,1.767676767676768 0.3535353535353544,1.767676767676768 0.2525252525252529,1.767676767676768 0.1515151515151522,1.767676767676768 0.050505050505051545,1.767676767676768 -0.05050505050505001,1.767676767676768 -0.15151515151515066,1.767676767676768 -0.2525252525252522,1.767676767676768 -0.35353535353535287,1.767676767676768 -0.4545454545454544,1.767676767676768 -0.555555555555555,1.767676767676768 -0.6565656565656557,1.767676767676768 -0.7575757575757572,1.767676767676768 -0.8585858585858579,1.767676767676768 -0.9595959595959596,1.767676767676768 -1.0606060606060603,1.767676767676768 -1.1616161616161613,1.767676767676768 -1.2626262626262625,1.767676767676768 -1.363636363636363,1.767676767676768 -1.4646464646464643,1.767676767676768 -1.5656565656565653,1.767676767676768 -1.6666666666666665,1.767676767676768 -1.7676767676767675,1.767676767676768 -1.8686868686868683,1.767676767676768 -1.9696969696969693,1.767676767676768 -2.07070707070707,1.767676767676768 -2.1717171717171713,1.767676767676768 -2.2727272727272725,1.767676767676768 -2.3737373737373733,1.767676767676768 -2.474747474747474,1.767676767676768 -2.5757575757575752,1.767676767676768 -2.6767676767676765,1.767676767676768 -2.7777777777777777,1.767676767676768 -2.8787878787878785,1.767676767676768 -2.9797979797979792,1.767676767676768 -3.0808080808080804,1.767676767676768 -3.1818181818181817,1.767676767676768 -3.2828282828282824,1.767676767676768 -3.383838383838383,1.767676767676768 -3.484848484848485,1.767676767676768 -3.5858585858585856,1.767676767676768 -3.6868686868686864,1.767676767676768 -3.7878787878787876,1.767676767676768 -3.8888888888888884,1.767676767676768 -3.98989898989899,1.767676767676768 -4.090909090909091,1.767676767676768 -4.191919191919193,1.767676767676768 -4.292929292929293,1.767676767676768 -4.393939393939394,1.767676767676768 -4.494949494949496,1.767676767676768 -4.595959595959596,1.767676767676768 -4.696969696969697,1.767676767676768 -4.7979797979797985,1.767676767676768 -4.898989898989899,1.767676767676768 -5.000000000000001,1.767676767676768" data-type="line" data-label="" points="821.8989898989898,421.4141414141415 812.3636363636363,411.87878787878793 802.8282828282828,402.3434343434344 793.2929292929292,392.80808080808094 783.7575757575758,383.27272727272737 774.2222222222222,373.73737373737384 764.6868686868686,364.2020202020203 755.1515151515151,354.66666666666674 745.6161616161615,345.1313131313133 736.0808080808081,345.1313131313133 726.5454545454545,345.1313131313133 717.0101010101009,345.1313131313133 707.4747474747475,345.1313131313133 697.9393939393939,345.1313131313133 688.4040404040404,345.1313131313133 678.8686868686868,345.1313131313133 669.3333333333333,345.1313131313133 659.7979797979798,345.1313131313133 650.2626262626262,345.1313131313133 640.7272727272727,345.1313131313133 631.1919191919192,345.1313131313133 621.6565656565656,345.1313131313133 612.1212121212121,345.1313131313133 602.5858585858585,345.1313131313133 593.0505050505051,345.1313131313133 583.5151515151515,345.1313131313133 573.9797979797979,345.1313131313133 564.4444444444445,345.1313131313133 554.9090909090909,345.1313131313133 545.3737373737374,345.1313131313133 535.8383838383838,345.1313131313133 526.3030303030303,345.1313131313133 516.7676767676768,345.1313131313133 507.2323232323232,345.1313131313133 497.69696969696975,345.1313131313133 488.16161616161617,345.1313131313133 478.62626262626264,345.1313131313133 469.09090909090907,345.1313131313133 459.55555555555554,345.1313131313133 450.0202020202021,345.1313131313133 440.4848484848485,345.1313131313133 430.949494949495,345.1313131313133 421.4141414141414,345.1313131313133 411.8787878787879,345.1313131313133 402.34343434343435,345.1313131313133 392.80808080808083,345.1313131313133 383.2727272727273,345.1313131313133 373.7373737373738,345.1313131313133 364.2020202020202,345.1313131313133 354.6666666666667,345.1313131313133 345.13131313131316,345.1313131313133 335.59595959595964,345.1313131313133 326.0606060606061,345.1313131313133 316.5252525252526,345.1313131313133 306.9898989898991,345.1313131313133 297.4545454545455,345.1313131313133 287.91919191919203,345.1313131313133 278.38383838383845,345.1313131313133 268.84848484848493,345.1313131313133 259.3131313131314,345.1313131313133 249.77777777777783,345.1313131313133 240.2424242424243,345.1313131313133 230.70707070707084,345.1313131313133 221.17171717171726,345.1313131313133 211.63636363636374,345.1313131313133 202.10101010101022,345.1313131313133 192.5656565656567,345.1313131313133 183.03030303030312,345.1313131313133 173.4949494949496,345.1313131313133 163.95959595959607,345.1313131313133 154.42424242424255,345.1313131313133 144.88888888888903,345.1313131313133 135.35353535353545,345.1313131313133 125.81818181818193,345.1313131313133 116.28282828282829,345.1313131313133 106.74747474747483,345.1313131313133 97.21212121212136,345.1313131313133 87.67676767676772,345.1313131313133 78.14141414141426,345.1313131313133 68.60606060606068,345.1313131313133 59.07070707070716,345.1313131313133 49.53535353535369,345.1313131313133 40.00000000000006,345.1313131313133" fill="none" stroke="rgba(255,0,0,0.75)" stroke-width="11.327999999999996"/></g><g><polyline data-points="0.7575757575757579,5.000000000000002 0.6565656565656574,4.898989898989901 0.5555555555555567,4.7979797979797985 0.4545454545454551,4.696969696969697 0.3535353535353544,4.595959595959597 0.2525252525252529,4.494949494949497 0.1515151515151522,4.393939393939394 0.050505050505051545,4.292929292929293 -0.05050505050505001,4.191919191919193 -0.15151515151515066,4.090909090909092 -0.2525252525252522,3.989898989898992 -0.35353535353535287,3.8888888888888893 -0.4545454545454544,3.7878787878787885 -0.555555555555555,3.6868686868686877 -0.6565656565656557,3.5858585858585874 -0.7575757575757572,3.4848484848484866 -0.8585858585858579,3.383838383838384 -0.9595959595959596,3.2828282828282833 -1.0606060606060603,3.181818181818183 -1.1616161616161613,3.080808080808082 -1.2626262626262625,2.9797979797979806 -1.363636363636363,2.87878787878788 -1.4646464646464643,2.7777777777777786 -1.5656565656565653,2.676767676767678 -1.6666666666666665,2.575757575757577 -1.6666666666666665,2.4747474747474754 -1.6666666666666665,2.373737373737375 -1.6666666666666665,2.2727272727272734 -1.6666666666666665,2.1717171717171726" data-type="line" data-label="" points="583.5151515151515,40.000000000000114 573.9797979797979,49.53535353535369 564.4444444444445,59.07070707070733 554.9090909090909,68.60606060606085 545.3737373737374,78.14141414141432 535.8383838383838,87.67676767676778 526.3030303030303,97.21212121212153 516.7676767676768,106.747474747475 507.2323232323232,116.28282828282846 497.69696969696975,125.81818181818198 488.16161616161617,135.35353535353545 478.62626262626264,144.88888888888908 469.09090909090907,154.4242424242426 459.55555555555554,163.95959595959613 450.0202020202021,173.4949494949496 440.4848484848485,183.03030303030312 430.949494949495,192.56565656565675 421.4141414141414,202.10101010101027 411.8787878787879,211.63636363636374 402.34343434343435,221.17171717171726 392.80808080808083,230.70707070707084 383.2727272727273,240.24242424242436 373.7373737373738,249.77777777777794 364.2020202020202,259.3131313131314 354.6666666666667,268.84848484848493 354.6666666666667,278.38383838383857 354.6666666666667,287.91919191919203 354.6666666666667,297.4545454545456 354.6666666666667,306.9898989898991" fill="none" stroke="rgba(255,0,0,0.75)" stroke-width="11.327999999999996"/></g><g><polyline data-points="-1.6666666666666665,2.1717171717171726 -1.6666666666666665,2.070707070707072 -1.6666666666666665,1.9696969696969702 -1.6666666666666665,1.8686868686868696 -1.6666666666666665,1.767676767676768 -1.6666666666666665,1.6666666666666674 -1.6666666666666665,1.5656565656565666 -1.6666666666666665,1.4646464646464652 -1.6666666666666665,1.3636363636363644 -1.6666666666666665,1.262626262626263 -1.6666666666666665,1.1616161616161622 -1.6666666666666665,1.0606060606060617 -1.6666666666666665,0.9595959595959602 -1.6666666666666665,0.8585858585858596 -1.6666666666666665,0.7575757575757579 -1.6666666666666665,0.6565656565656574 -1.6666666666666665,0.5555555555555567 -1.6666666666666665,0.4545454545454551 -1.6666666666666665,0.3535353535353544 -1.6666666666666665,0.2525252525252529 -1.6666666666666665,0.1515151515151522 -1.6666666666666665,0.050505050505051545 -1.6666666666666665,-0.05050505050505001" data-type="line" data-label="" points="354.6666666666667,306.9898989898991 354.6666666666667,316.5252525252526 354.6666666666667,326.06060606060623 354.6666666666667,335.5959595959597 354.6666666666667,345.1313131313133 354.6666666666667,354.66666666666674 354.6666666666667,364.2020202020203 354.6666666666667,373.73737373737384 354.6666666666667,383.27272727272737 354.6666666666667,392.80808080808094 354.6666666666667,402.3434343434344 354.6666666666667,411.87878787878793 354.6666666666667,421.4141414141415 354.6666666666667,430.94949494949503 354.6666666666667,440.4848484848486 354.6666666666667,450.0202020202021 354.6666666666667,459.5555555555556 354.6666666666667,469.0909090909092 354.6666666666667,478.6262626262627 354.6666666666667,488.1616161616163 354.6666666666667,497.69696969696975 354.6666666666667,507.23232323232327 354.6666666666667,516.7676767676768" fill="none" stroke="rgba(0,0,255,0.75)" stroke-width="11.327999999999996"/></g><g><polyline data-points="-1.6666666666666665,-0.05050505050505001 -1.6666666666666665,-0.15151515151515066 -1.6666666666666665,-0.2525252525252522 -1.6666666666666665,-0.35353535353535287 -1.6666666666666665,-0.4545454545454544 -1.6666666666666665,-0.555555555555555 -1.6666666666666665,-0.6565656565656557 -1.6666666666666665,-0.7575757575757572 -1.6666666666666665,-0.8585858585858579 -1.6666666666666665,-0.9595959595959596 -1.6666666666666665,-1.0606060606060603 -1.6666666666666665,-1.1616161616161613 -1.6666666666666665,-1.2626262626262625 -1.6666666666666665,-1.363636363636363 -1.6666666666666665,-1.4646464646464643 -1.6666666666666665,-1.5656565656565653 -1.6666666666666665,-1.6666666666666665 -1.6666666666666665,-1.7676767676767675 -1.6666666666666665,-1.8686868686868683 -1.6666666666666665,-1.9696969696969693 -1.6666666666666665,-2.07070707070707 -1.6666666666666665,-2.1717171717171713 -1.6666666666666665,-2.2727272727272725 -1.6666666666666665,-2.3737373737373733 -1.6666666666666665,-2.474747474747474 -1.6666666666666665,-2.5757575757575752 -1.6666666666666665,-2.6767676767676765 -1.6666666666666665,-2.7777777777777777 -1.6666666666666665,-2.8787878787878785 -1.6666666666666665,-2.9797979797979792 -1.6666666666666665,-3.0808080808080804 -1.6666666666666665,-3.1818181818181817 -1.6666666666666665,-3.2828282828282824 -1.6666666666666665,-3.383838383838383 -1.6666666666666665,-3.484848484848485 -1.6666666666666665,-3.5858585858585856 -1.6666666666666665,-3.6868686868686864 -1.6666666666666665,-3.7878787878787876 -1.6666666666666665,-3.8888888888888884 -1.6666666666666665,-3.98989898989899 -1.6666666666666665,-4.090909090909091 -1.6666666666666665,-4.191919191919193 -1.6666666666666665,-4.292929292929293 -1.6666666666666665,-4.393939393939394 -1.6666666666666665,-4.494949494949496 -1.6666666666666665,-4.595959595959596 -1.6666666666666665,-4.696969696969697 -1.6666666666666665,-4.7979797979797985 -1.6666666666666665,-4.898989898989899 -1.6666666666666665,-5.000000000000001" data-type="line" data-label="" points="354.6666666666667,516.7676767676768 354.6666666666667,526.3030303030304 354.6666666666667,535.838383838384 354.6666666666667,545.3737373737374 354.6666666666667,554.909090909091 354.6666666666667,564.4444444444445 354.6666666666667,573.979797979798 354.6666666666667,583.5151515151516 354.6666666666667,593.0505050505051 354.6666666666667,602.5858585858587 354.6666666666667,612.1212121212121 354.6666666666667,621.6565656565657 354.6666666666667,631.1919191919193 354.6666666666667,640.7272727272727 354.6666666666667,650.2626262626263 354.6666666666667,659.7979797979798 354.6666666666667,669.3333333333334 354.6666666666667,678.8686868686868 354.6666666666667,688.4040404040404 354.6666666666667,697.939393939394 354.6666666666667,707.4747474747475 354.6666666666667,717.010101010101 354.6666666666667,726.5454545454545 354.6666666666667,736.0808080808081 354.6666666666667,745.6161616161615 354.6666666666667,755.1515151515151 354.6666666666667,764.6868686868687 354.6666666666667,774.2222222222222 354.6666666666667,783.7575757575758 354.6666666666667,793.2929292929292 354.6666666666667,802.8282828282828 354.6666666666667,812.3636363636363 354.6666666666667,821.8989898989898 354.6666666666667,831.4343434343434 354.6666666666667,840.969696969697 354.6666666666667,850.5050505050505 354.6666666666667,860.0404040404039 354.6666666666667,869.5757575757575 354.6666666666667,879.1111111111111 354.6666666666667,888.6464646464647 354.6666666666667,898.1818181818181 354.6666666666667,907.7171717171718 354.6666666666667,917.2525252525252 354.6666666666667,926.7878787878788 354.6666666666667,936.3232323232323 354.6666666666667,945.8585858585858 354.6666666666667,955.3939393939394 354.6666666666667,964.9292929292928 354.6666666666667,974.4646464646464 354.6666666666667,984" fill="none" stroke="rgba(255,0,0,0.75)" stroke-width="11.327999999999996"/></g><g><polyline data-points="-4.595959595959596,-5.000000000000001 -4.494949494949496,-4.898989898989899 -4.393939393939394,-4.7979797979797985 -4.292929292929293,-4.696969696969697 -4.191919191919193,-4.595959595959596 -4.090909090909091,-4.494949494949496 -3.98989898989899,-4.393939393939394 -3.8888888888888884,-4.292929292929293 -3.7878787878787876,-4.191919191919193 -3.6868686868686864,-4.090909090909091 -3.5858585858585856,-3.98989898989899 -3.484848484848485,-3.8888888888888884 -3.383838383838383,-3.7878787878787876 -3.2828282828282824,-3.6868686868686864 -3.1818181818181817,-3.5858585858585856 -3.0808080808080804,-3.484848484848485 -2.9797979797979792,-3.383838383838383" data-type="line" data-label="" points="78.14141414141426,984 87.67676767676772,974.4646464646464 97.21212121212136,964.9292929292928 106.74747474747483,955.3939393939394 116.28282828282829,945.8585858585858 125.81818181818193,936.3232323232323 135.35353535353545,926.7878787878788 144.88888888888903,917.2525252525252 154.42424242424255,907.7171717171718 163.95959595959607,898.1818181818181 173.4949494949496,888.6464646464647 183.03030303030312,879.1111111111111 192.5656565656567,869.5757575757575 202.10101010101022,860.0404040404039 211.63636363636374,850.5050505050505 221.17171717171726,840.969696969697 230.70707070707084,831.4343434343434" fill="none" stroke="rgba(0,0,255,0.75)" stroke-width="11.327999999999996"/></g><g><polyline data-points="-2.9797979797979792,-3.383838383838383 -2.8787878787878785,-3.2828282828282824 -2.7777777777777777,-3.1818181818181817 -2.6767676767676765,-3.0808080808080804 -2.5757575757575752,-2.9797979797979792 -2.474747474747474,-2.8787878787878785 -2.3737373737373733,-2.7777777777777777 -2.2727272727272725,-2.6767676767676765 -2.1717171717171713,-2.5757575757575752 -2.07070707070707,-2.474747474747474 -1.9696969696969693,-2.3737373737373733 -1.9696969696969693,-2.2727272727272725 -1.9696969696969693,-2.1717171717171713 -1.9696969696969693,-2.07070707070707 -1.9696969696969693,-1.9696969696969693 -1.9696969696969693,-1.8686868686868683 -1.9696969696969693,-1.7676767676767675 -1.9696969696969693,-1.6666666666666665 -1.9696969696969693,-1.5656565656565653 -1.9696969696969693,-1.4646464646464643 -1.9696969696969693,-1.363636363636363 -1.9696969696969693,-1.2626262626262625 -1.9696969696969693,-1.1616161616161613 -1.9696969696969693,-1.0606060606060603 -1.9696969696969693,-0.9595959595959596 -1.9696969696969693,-0.8585858585858579 -1.9696969696969693,-0.7575757575757572 -1.9696969696969693,-0.6565656565656557 -1.9696969696969693,-0.555555555555555 -1.9696969696969693,-0.4545454545454544 -1.9696969696969693,-0.35353535353535287 -1.9696969696969693,-0.2525252525252522 -1.9696969696969693,-0.15151515151515066 -1.9696969696969693,-0.05050505050505001 -1.8686868686868683,0.050505050505051545 -1.7676767676767675,0.1515151515151522 -1.6666666666666665,0.2525252525252529 -1.5656565656565653,0.1515151515151522 -1.4646464646464643,0.050505050505051545 -1.363636363636363,-0.05050505050505001 -1.2626262626262625,-0.15151515151515066 -1.1616161616161613,-0.2525252525252522 -1.0606060606060603,-0.35353535353535287 -0.9595959595959596,-0.4545454545454544 -0.8585858585858579,-0.555555555555555 -0.7575757575757572,-0.6565656565656557 -0.6565656565656557,-0.7575757575757572 -0.555555555555555,-0.8585858585858579 -0.4545454545454544,-0.9595959595959596 -0.35353535353535287,-1.0606060606060603 -0.2525252525252522,-1.1616161616161613 -0.15151515151515066,-1.2626262626262625 -0.05050505050505001,-1.363636363636363 0.050505050505051545,-1.4646464646464643 0.1515151515151522,-1.5656565656565653 0.2525252525252529,-1.6666666666666665 0.3535353535353544,-1.7676767676767675 0.4545454545454551,-1.8686868686868683 0.5555555555555567,-1.9696969696969693 0.6565656565656574,-2.07070707070707 0.7575757575757579,-2.1717171717171713 0.8585858585858596,-2.2727272727272725 0.9595959595959602,-2.3737373737373733 1.0606060606060617,-2.474747474747474 1.1616161616161622,-2.5757575757575752 1.262626262626263,-2.6767676767676765 1.3636363636363644,-2.7777777777777777 1.4646464646464652,-2.8787878787878785 1.5656565656565666,-2.9797979797979792 1.6666666666666674,-3.0808080808080804 1.767676767676768,-3.1818181818181817 1.8686868686868696,-3.2828282828282824 1.9696969696969702,-3.383838383838383 2.070707070707072,-3.484848484848485 2.1717171717171726,-3.5858585858585856 2.2727272727272734,-3.6868686868686864 2.373737373737375,-3.7878787878787876 2.4747474747474754,-3.8888888888888884 2.575757575757577,-3.98989898989899 2.575757575757577,-4.090909090909091 2.575757575757577,-4.191919191919193 2.575757575757577,-4.292929292929293 2.575757575757577,-4.393939393939394 2.575757575757577,-4.494949494949496 2.575757575757577,-4.595959595959596 2.575757575757577,-4.696969696969697 2.575757575757577,-4.7979797979797985 2.575757575757577,-4.898989898989899 2.575757575757577,-5.000000000000001" data-type="line" data-label="" points="230.70707070707084,831.4343434343434 240.2424242424243,821.8989898989898 249.77777777777783,812.3636363636363 259.3131313131314,802.8282828282828 268.84848484848493,793.2929292929292 278.38383838383845,783.7575757575758 287.91919191919203,774.2222222222222 297.4545454545455,764.6868686868687 306.9898989898991,755.1515151515151 316.5252525252526,745.6161616161615 326.0606060606061,736.0808080808081 326.0606060606061,726.5454545454545 326.0606060606061,717.010101010101 326.0606060606061,707.4747474747475 326.0606060606061,697.939393939394 326.0606060606061,688.4040404040404 326.0606060606061,678.8686868686868 326.0606060606061,669.3333333333334 326.0606060606061,659.7979797979798 326.0606060606061,650.2626262626263 326.0606060606061,640.7272727272727 326.0606060606061,631.1919191919193 326.0606060606061,621.6565656565657 326.0606060606061,612.1212121212121 326.0606060606061,602.5858585858587 326.0606060606061,593.0505050505051 326.0606060606061,583.5151515151516 326.0606060606061,573.979797979798 326.0606060606061,564.4444444444445 326.0606060606061,554.909090909091 326.0606060606061,545.3737373737374 326.0606060606061,535.838383838384 326.0606060606061,526.3030303030304 326.0606060606061,516.7676767676768 335.59595959595964,507.23232323232327 345.13131313131316,497.69696969696975 354.6666666666667,488.1616161616163 364.2020202020202,497.69696969696975 373.7373737373738,507.23232323232327 383.2727272727273,516.7676767676768 392.80808080808083,526.3030303030304 402.34343434343435,535.838383838384 411.8787878787879,545.3737373737374 421.4141414141414,554.909090909091 430.949494949495,564.4444444444445 440.4848484848485,573.979797979798 450.0202020202021,583.5151515151516 459.55555555555554,593.0505050505051 469.09090909090907,602.5858585858587 478.62626262626264,612.1212121212121 488.16161616161617,621.6565656565657 497.69696969696975,631.1919191919193 507.2323232323232,640.7272727272727 516.7676767676768,650.2626262626263 526.3030303030303,659.7979797979798 535.8383838383838,669.3333333333334 545.3737373737374,678.8686868686868 554.9090909090909,688.4040404040404 564.4444444444445,697.939393939394 573.9797979797979,707.4747474747475 583.5151515151515,717.010101010101 593.0505050505051,726.5454545454545 602.5858585858585,736.0808080808081 612.1212121212121,745.6161616161615 621.6565656565656,755.1515151515151 631.1919191919192,764.6868686868687 640.7272727272727,774.2222222222222 650.2626262626262,783.7575757575758 659.7979797979798,793.2929292929292 669.3333333333333,802.8282828282828 678.8686868686868,812.3636363636363 688.4040404040404,821.8989898989898 697.9393939393939,831.4343434343434 707.4747474747475,840.969696969697 717.0101010101009,850.5050505050505 726.5454545454545,860.0404040404039 736.0808080808081,869.5757575757575 745.6161616161615,879.1111111111111 755.1515151515151,888.6464646464647 755.1515151515151,898.1818181818181 755.1515151515151,907.7171717171718 755.1515151515151,917.2525252525252 755.1515151515151,926.7878787878788 755.1515151515151,936.3232323232323 755.1515151515151,945.8585858585858 755.1515151515151,955.3939393939394 755.1515151515151,964.9292929292928 755.1515151515151,974.4646464646464 755.1515151515151,984" fill="none" stroke="rgba(255,0,0,0.75)" stroke-width="11.327999999999996"/></g><g><polyline data-points="5.000000000000002,3.989898989898992 4.898989898989901,3.8888888888888893 4.7979797979797985,3.7878787878787885 4.696969696969697,3.6868686868686877 4.595959595959597,3.5858585858585874 4.494949494949497,3.4848484848484866 4.393939393939394,3.383838383838384 4.292929292929293,3.2828282828282833 4.191919191919193,3.181818181818183 4.090909090909092,3.080808080808082 3.989898989898992,2.9797979797979806 3.8888888888888893,2.87878787878788 3.7878787878787885,2.7777777777777786 3.6868686868686877,2.676767676767678 3.5858585858585874,2.575757575757577 3.4848484848484866,2.4747474747474754 3.383838383838384,2.373737373737375 3.2828282828282833,2.2727272727272734" data-type="line" data-label="" points="984,135.35353535353545 974.4646464646464,144.88888888888908 964.9292929292927,154.4242424242426 955.3939393939393,163.95959595959613 945.8585858585857,173.4949494949496 936.3232323232323,183.03030303030312 926.7878787878785,192.56565656565675 917.2525252525251,202.10101010101027 907.7171717171716,211.63636363636374 898.181818181818,221.17171717171726 888.6464646464647,230.70707070707084 879.111111111111,240.24242424242436 869.5757575757575,249.77777777777794 860.0404040404039,259.3131313131314 850.5050505050505,268.84848484848493 840.969696969697,278.38383838383857 831.4343434343433,287.91919191919203 821.8989898989898,297.4545454545456" fill="none" stroke="rgba(0,0,255,0.75)" stroke-width="11.327999999999996"/></g><g><polyline data-points="3.2828282828282833,2.2727272727272734 3.181818181818183,2.1717171717171726 3.080808080808082,2.1717171717171726 2.9797979797979806,2.1717171717171726 2.87878787878788,2.1717171717171726 2.7777777777777786,2.1717171717171726 2.676767676767678,2.1717171717171726 2.575757575757577,2.1717171717171726 2.4747474747474754,2.1717171717171726 2.373737373737375,2.1717171717171726 2.2727272727272734,2.1717171717171726 2.1717171717171726,2.1717171717171726 2.070707070707072,2.1717171717171726 1.9696969696969702,2.1717171717171726 1.8686868686868696,2.1717171717171726 1.767676767676768,2.1717171717171726 1.6666666666666674,2.1717171717171726 1.5656565656565666,2.1717171717171726 1.4646464646464652,2.1717171717171726 1.3636363636363644,2.1717171717171726 1.262626262626263,2.1717171717171726 1.1616161616161622,2.1717171717171726 1.0606060606060617,2.1717171717171726 0.9595959595959602,2.1717171717171726 0.8585858585858596,2.1717171717171726 0.7575757575757579,2.1717171717171726 0.6565656565656574,2.1717171717171726 0.5555555555555567,2.1717171717171726 0.4545454545454551,2.1717171717171726 0.3535353535353544,2.1717171717171726 0.2525252525252529,2.1717171717171726 0.1515151515151522,2.1717171717171726 0.050505050505051545,2.1717171717171726 -0.05050505050505001,2.1717171717171726 -0.15151515151515066,2.1717171717171726 -0.2525252525252522,2.1717171717171726 -0.35353535353535287,2.1717171717171726 -0.4545454545454544,2.1717171717171726 -0.555555555555555,2.1717171717171726 -0.6565656565656557,2.1717171717171726" data-type="line" data-label="" points="821.8989898989898,297.4545454545456 812.3636363636363,306.9898989898991 802.8282828282828,306.9898989898991 793.2929292929292,306.9898989898991 783.7575757575758,306.9898989898991 774.2222222222222,306.9898989898991 764.6868686868686,306.9898989898991 755.1515151515151,306.9898989898991 745.6161616161615,306.9898989898991 736.0808080808081,306.9898989898991 726.5454545454545,306.9898989898991 717.0101010101009,306.9898989898991 707.4747474747475,306.9898989898991 697.9393939393939,306.9898989898991 688.4040404040404,306.9898989898991 678.8686868686868,306.9898989898991 669.3333333333333,306.9898989898991 659.7979797979798,306.9898989898991 650.2626262626262,306.9898989898991 640.7272727272727,306.9898989898991 631.1919191919192,306.9898989898991 621.6565656565656,306.9898989898991 612.1212121212121,306.9898989898991 602.5858585858585,306.9898989898991 593.0505050505051,306.9898989898991 583.5151515151515,306.9898989898991 573.9797979797979,306.9898989898991 564.4444444444445,306.9898989898991 554.9090909090909,306.9898989898991 545.3737373737374,306.9898989898991 535.8383838383838,306.9898989898991 526.3030303030303,306.9898989898991 516.7676767676768,306.9898989898991 507.2323232323232,306.9898989898991 497.69696969696975,306.9898989898991 488.16161616161617,306.9898989898991 478.62626262626264,306.9898989898991 469.09090909090907,306.9898989898991 459.55555555555554,306.9898989898991 450.0202020202021,306.9898989898991" fill="none" stroke="rgba(255,0,0,0.75)" stroke-width="11.327999999999996"/></g><g><polyline data-points="-0.6565656565656557,2.1717171717171726 -0.7575757575757572,2.070707070707072 -0.8585858585858579,1.9696969696969702 -0.9595959595959596,1.8686868686868696 -1.0606060606060603,1.767676767676768 -1.1616161616161613,1.6666666666666674 -1.2626262626262625,1.5656565656565666 -1.2626262626262625,1.4646464646464652 -1.2626262626262625,1.3636363636363644" data-type="line" data-label="" points="450.0202020202021,306.9898989898991 440.4848484848485,316.5252525252526 430.949494949495,326.06060606060623 421.4141414141414,335.5959595959597 411.8787878787879,345.1313131313133 402.34343434343435,354.66666666666674 392.80808080808083,364.2020202020203 392.80808080808083,373.73737373737384 392.80808080808083,383.27272727272737" fill="none" stroke="rgba(0,0,255,0.75)" stroke-width="11.327999999999996"/></g><g><polyline data-points="-1.2626262626262625,1.3636363636363644 -1.363636363636363,1.262626262626263 -1.4646464646464643,1.1616161616161622 -1.5656565656565653,1.0606060606060617 -1.6666666666666665,0.9595959595959602 -1.7676767676767675,0.8585858585858596 -1.8686868686868683,0.7575757575757579 -1.9696969696969693,0.6565656565656574 -2.07070707070707,0.5555555555555567 -2.1717171717171713,0.4545454545454551 -2.2727272727272725,0.3535353535353544 -2.3737373737373733,0.2525252525252529 -2.474747474747474,0.1515151515151522 -2.5757575757575752,0.050505050505051545 -2.6767676767676765,-0.05050505050505001 -2.7777777777777777,-0.15151515151515066 -2.8787878787878785,-0.2525252525252522 -2.9797979797979792,-0.35353535353535287 -3.0808080808080804,-0.4545454545454544 -3.1818181818181817,-0.555555555555555 -3.2828282828282824,-0.6565656565656557 -3.383838383838383,-0.7575757575757572 -3.484848484848485,-0.8585858585858579 -3.5858585858585856,-0.9595959595959596 -3.6868686868686864,-1.0606060606060603 -3.7878787878787876,-1.1616161616161613 -3.8888888888888884,-1.2626262626262625 -3.98989898989899,-1.363636363636363 -4.090909090909091,-1.4646464646464643 -4.191919191919193,-1.5656565656565653 -4.292929292929293,-1.6666666666666665 -4.393939393939394,-1.7676767676767675 -4.494949494949496,-1.8686868686868683 -4.595959595959596,-1.9696969696969693 -4.696969696969697,-2.07070707070707 -4.7979797979797985,-2.1717171717171713 -4.898989898989899,-2.2727272727272725 -5.000000000000001,-2.3737373737373733 -5.000000000000001,-2.474747474747474 -5.000000000000001,-2.5757575757575752 -5.000000000000001,-2.6767676767676765 -5.000000000000001,-2.7777777777777777 -5.000000000000001,-2.8787878787878785 -5.000000000000001,-2.9797979797979792 -5.000000000000001,-3.0808080808080804 -5.000000000000001,-3.1818181818181817 -5.000000000000001,-3.2828282828282824 -5.000000000000001,-3.383838383838383 -5.000000000000001,-3.484848484848485 -5.000000000000001,-3.5858585858585856 -5.000000000000001,-3.6868686868686864 -5.000000000000001,-3.7878787878787876 -5.000000000000001,-3.8888888888888884 -5.000000000000001,-3.98989898989899 -5.000000000000001,-4.090909090909091" data-type="line" data-label="" points="392.80808080808083,383.27272727272737 383.2727272727273,392.80808080808094 373.7373737373738,402.3434343434344 364.2020202020202,411.87878787878793 354.6666666666667,421.4141414141415 345.13131313131316,430.94949494949503 335.59595959595964,440.4848484848486 326.0606060606061,450.0202020202021 316.5252525252526,459.5555555555556 306.9898989898991,469.0909090909092 297.4545454545455,478.6262626262627 287.91919191919203,488.1616161616163 278.38383838383845,497.69696969696975 268.84848484848493,507.23232323232327 259.3131313131314,516.7676767676768 249.77777777777783,526.3030303030304 240.2424242424243,535.838383838384 230.70707070707084,545.3737373737374 221.17171717171726,554.909090909091 211.63636363636374,564.4444444444445 202.10101010101022,573.979797979798 192.5656565656567,583.5151515151516 183.03030303030312,593.0505050505051 173.4949494949496,602.5858585858587 163.95959595959607,612.1212121212121 154.42424242424255,621.6565656565657 144.88888888888903,631.1919191919193 135.35353535353545,640.7272727272727 125.81818181818193,650.2626262626263 116.28282828282829,659.7979797979798 106.74747474747483,669.3333333333334 97.21212121212136,678.8686868686868 87.67676767676772,688.4040404040404 78.14141414141426,697.939393939394 68.60606060606068,707.4747474747475 59.07070707070716,717.010101010101 49.53535353535369,726.5454545454545 40.00000000000006,736.0808080808081 40.00000000000006,745.6161616161615 40.00000000000006,755.1515151515151 40.00000000000006,764.6868686868687 40.00000000000006,774.2222222222222 40.00000000000006,783.7575757575758 40.00000000000006,793.2929292929292 40.00000000000006,802.8282828282828 40.00000000000006,812.3636363636363 40.00000000000006,821.8989898989898 40.00000000000006,831.4343434343434 40.00000000000006,840.969696969697 40.00000000000006,850.5050505050505 40.00000000000006,860.0404040404039 40.00000000000006,869.5757575757575 40.00000000000006,879.1111111111111 40.00000000000006,888.6464646464647 40.00000000000006,898.1818181818181" fill="none" stroke="rgba(255,0,0,0.75)" stroke-width="11.327999999999996"/></g><g><polyline data-points="-3.0808080808080804,5.000000000000002 -2.9797979797979792,4.898989898989901 -2.8787878787878785,4.7979797979797985 -2.7777777777777777,4.696969696969697 -2.6767676767676765,4.595959595959597 -2.5757575757575752,4.494949494949497 -2.474747474747474,4.393939393939394 -2.3737373737373733,4.292929292929293 -2.2727272727272725,4.191919191919193 -2.1717171717171713,4.090909090909092 -2.07070707070707,3.989898989898992 -1.9696969696969693,3.8888888888888893 -1.8686868686868683,3.7878787878787885 -1.7676767676767675,3.6868686868686877 -1.6666666666666665,3.5858585858585874 -1.5656565656565653,3.4848484848484866 -1.4646464646464643,3.383838383838384" data-type="line" data-label="" points="221.17171717171726,40.000000000000114 230.70707070707084,49.53535353535369 240.2424242424243,59.07070707070733 249.77777777777783,68.60606060606085 259.3131313131314,78.14141414141432 268.84848484848493,87.67676767676778 278.38383838383845,97.21212121212153 287.91919191919203,106.747474747475 297.4545454545455,116.28282828282846 306.9898989898991,125.81818181818198 316.5252525252526,135.35353535353545 326.0606060606061,144.88888888888908 335.59595959595964,154.4242424242426 345.13131313131316,163.95959595959613 354.6666666666667,173.4949494949496 364.2020202020202,183.03030303030312 373.7373737373738,192.56565656565675" fill="none" stroke="rgba(255,0,0,0.75)" stroke-width="11.327999999999996"/></g><g><polyline data-points="-1.4646464646464643,3.383838383838384 -1.363636363636363,3.2828282828282833 -1.2626262626262625,3.181818181818183 -1.1616161616161613,3.080808080808082 -1.0606060606060603,2.9797979797979806 -0.9595959595959596,2.87878787878788 -0.8585858585858579,2.7777777777777786 -0.7575757575757572,2.676767676767678 -0.6565656565656557,2.575757575757577 -0.555555555555555,2.4747474747474754 -0.4545454545454544,2.373737373737375 -0.35353535353535287,2.2727272727272734 -0.2525252525252522,2.1717171717171726 -0.2525252525252522,2.070707070707072 -0.2525252525252522,1.9696969696969702 -0.2525252525252522,1.8686868686868696 -0.2525252525252522,1.767676767676768 -0.2525252525252522,1.6666666666666674 -0.2525252525252522,1.5656565656565666 -0.2525252525252522,1.4646464646464652 -0.2525252525252522,1.3636363636363644" data-type="line" data-label="" points="373.7373737373738,192.56565656565675 383.2727272727273,202.10101010101027 392.80808080808083,211.63636363636374 402.34343434343435,221.17171717171726 411.8787878787879,230.70707070707084 421.4141414141414,240.24242424242436 430.949494949495,249.77777777777794 440.4848484848485,259.3131313131314 450.0202020202021,268.84848484848493 459.55555555555554,278.38383838383857 469.09090909090907,287.91919191919203 478.62626262626264,297.4545454545456 488.16161616161617,306.9898989898991 488.16161616161617,316.5252525252526 488.16161616161617,326.06060606060623 488.16161616161617,335.5959595959597 488.16161616161617,345.1313131313133 488.16161616161617,354.66666666666674 488.16161616161617,364.2020202020203 488.16161616161617,373.73737373737384 488.16161616161617,383.27272727272737" fill="none" stroke="rgba(0,0,255,0.75)" stroke-width="11.327999999999996"/></g><g><polyline data-points="-0.2525252525252522,1.3636363636363644 -0.15151515151515066,1.262626262626263 -0.05050505050505001,1.1616161616161622 0.050505050505051545,1.0606060606060617 0.1515151515151522,0.9595959595959602 0.2525252525252529,0.8585858585858596 0.3535353535353544,0.7575757575757579 0.4545454545454551,0.6565656565656574 0.5555555555555567,0.5555555555555567 0.6565656565656574,0.4545454545454551 0.7575757575757579,0.3535353535353544 0.8585858585858596,0.2525252525252529 0.9595959595959602,0.1515151515151522 1.0606060606060617,0.050505050505051545 1.1616161616161622,-0.05050505050505001 1.262626262626263,-0.15151515151515066 1.3636363636363644,-0.2525252525252522 1.4646464646464652,-0.35353535353535287 1.5656565656565666,-0.4545454545454544 1.6666666666666674,-0.555555555555555 1.767676767676768,-0.6565656565656557 1.8686868686868696,-0.7575757575757572 1.9696969696969702,-0.8585858585858579 2.070707070707072,-0.9595959595959596 2.070707070707072,-1.0606060606060603 2.070707070707072,-1.1616161616161613 2.070707070707072,-1.2626262626262625 2.070707070707072,-1.363636363636363 2.070707070707072,-1.4646464646464643 2.070707070707072,-1.5656565656565653 2.070707070707072,-1.6666666666666665 2.070707070707072,-1.7676767676767675 2.070707070707072,-1.8686868686868683 2.070707070707072,-1.9696969696969693 2.070707070707072,-2.07070707070707 2.070707070707072,-2.1717171717171713 2.070707070707072,-2.2727272727272725 2.070707070707072,-2.3737373737373733 2.070707070707072,-2.474747474747474 2.070707070707072,-2.5757575757575752 2.070707070707072,-2.6767676767676765 2.070707070707072,-2.7777777777777777 2.070707070707072,-2.8787878787878785 2.070707070707072,-2.9797979797979792" data-type="line" data-label="" points="488.16161616161617,383.27272727272737 497.69696969696975,392.80808080808094 507.2323232323232,402.3434343434344 516.7676767676768,411.87878787878793 526.3030303030303,421.4141414141415 535.8383838383838,430.94949494949503 545.3737373737374,440.4848484848486 554.9090909090909,450.0202020202021 564.4444444444445,459.5555555555556 573.9797979797979,469.0909090909092 583.5151515151515,478.6262626262627 593.0505050505051,488.1616161616163 602.5858585858585,497.69696969696975 612.1212121212121,507.23232323232327 621.6565656565656,516.7676767676768 631.1919191919192,526.3030303030304 640.7272727272727,535.838383838384 650.2626262626262,545.3737373737374 659.7979797979798,554.909090909091 669.3333333333333,564.4444444444445 678.8686868686868,573.979797979798 688.4040404040404,583.5151515151516 697.9393939393939,593.0505050505051 707.4747474747475,602.5858585858587 707.4747474747475,612.1212121212121 707.4747474747475,621.6565656565657 707.4747474747475,631.1919191919193 707.4747474747475,640.7272727272727 707.4747474747475,650.2626262626263 707.4747474747475,659.7979797979798 707.4747474747475,669.3333333333334 707.4747474747475,678.8686868686868 707.4747474747475,688.4040404040404 707.4747474747475,697.939393939394 707.4747474747475,707.4747474747475 707.4747474747475,717.010101010101 707.4747474747475,726.5454545454545 707.4747474747475,736.0808080808081 707.4747474747475,745.6161616161615 707.4747474747475,755.1515151515151 707.4747474747475,764.6868686868687 707.4747474747475,774.2222222222222 707.4747474747475,783.7575757575758 707.4747474747475,793.2929292929292" fill="none" stroke="rgba(255,0,0,0.75)" stroke-width="11.327999999999996"/></g><g><polyline data-points="2.070707070707072,-2.9797979797979792 2.070707070707072,-3.0808080808080804 2.070707070707072,-3.1818181818181817 2.070707070707072,-3.2828282828282824 2.070707070707072,-3.383838383838383 2.070707070707072,-3.484848484848485 2.070707070707072,-3.5858585858585856 2.070707070707072,-3.6868686868686864 2.070707070707072,-3.7878787878787876 2.070707070707072,-3.8888888888888884 2.070707070707072,-3.98989898989899" data-type="line" data-label="" points="707.4747474747475,793.2929292929292 707.4747474747475,802.8282828282828 707.4747474747475,812.3636363636363 707.4747474747475,821.8989898989898 707.4747474747475,831.4343434343434 707.4747474747475,840.969696969697 707.4747474747475,850.5050505050505 707.4747474747475,860.0404040404039 707.4747474747475,869.5757575757575 707.4747474747475,879.1111111111111 707.4747474747475,888.6464646464647" fill="none" stroke="rgba(0,0,255,0.75)" stroke-width="11.327999999999996"/></g><g><polyline data-points="2.070707070707072,-3.98989898989899 2.1717171717171726,-4.090909090909091 2.1717171717171726,-4.191919191919193 2.1717171717171726,-4.292929292929293 2.1717171717171726,-4.393939393939394 2.1717171717171726,-4.494949494949496 2.1717171717171726,-4.595959595959596 2.1717171717171726,-4.696969696969697 2.1717171717171726,-4.7979797979797985 2.1717171717171726,-4.898989898989899 2.1717171717171726,-5.000000000000001" data-type="line" data-label="" points="707.4747474747475,888.6464646464647 717.0101010101009,898.1818181818181 717.0101010101009,907.7171717171718 717.0101010101009,917.2525252525252 717.0101010101009,926.7878787878788 717.0101010101009,936.3232323232323 717.0101010101009,945.8585858585858 717.0101010101009,955.3939393939394 717.0101010101009,964.9292929292928 717.0101010101009,974.4646464646464 717.0101010101009,984" fill="none" stroke="rgba(255,0,0,0.75)" stroke-width="11.327999999999996"/></g><g><polyline data-points="-3.2828282828282824,-5.000000000000001 -3.1818181818181817,-4.898989898989899 -3.0808080808080804,-4.7979797979797985 -2.9797979797979792,-4.696969696969697 -2.8787878787878785,-4.595959595959596 -2.8787878787878785,-4.494949494949496 -2.8787878787878785,-4.393939393939394 -2.8787878787878785,-4.292929292929293 -2.8787878787878785,-4.191919191919193 -2.7777777777777777,-4.090909090909091 -2.7777777777777777,-3.98989898989899 -2.7777777777777777,-3.8888888888888884 -2.6767676767676765,-3.7878787878787876 -2.5757575757575752,-3.6868686868686864 -2.474747474747474,-3.5858585858585856 -2.474747474747474,-3.484848484848485 -2.3737373737373733,-3.383838383838383 -2.3737373737373733,-3.2828282828282824 -2.3737373737373733,-3.1818181818181817 -2.3737373737373733,-3.0808080808080804 -2.3737373737373733,-2.9797979797979792 -2.3737373737373733,-2.8787878787878785 -2.3737373737373733,-2.7777777777777777 -2.3737373737373733,-2.6767676767676765 -2.3737373737373733,-2.5757575757575752 -2.3737373737373733,-2.474747474747474 -2.3737373737373733,-2.3737373737373733 -2.3737373737373733,-2.2727272727272725" data-type="line" data-label="" points="202.10101010101022,984 211.63636363636374,974.4646464646464 221.17171717171726,964.9292929292928 230.70707070707084,955.3939393939394 240.2424242424243,945.8585858585858 240.2424242424243,936.3232323232323 240.2424242424243,926.7878787878788 240.2424242424243,917.2525252525252 240.2424242424243,907.7171717171718 249.77777777777783,898.1818181818181 249.77777777777783,888.6464646464647 249.77777777777783,879.1111111111111 259.3131313131314,869.5757575757575 268.84848484848493,860.0404040404039 278.38383838383845,850.5050505050505 278.38383838383845,840.969696969697 287.91919191919203,831.4343434343434 287.91919191919203,821.8989898989898 287.91919191919203,812.3636363636363 287.91919191919203,802.8282828282828 287.91919191919203,793.2929292929292 287.91919191919203,783.7575757575758 287.91919191919203,774.2222222222222 287.91919191919203,764.6868686868687 287.91919191919203,755.1515151515151 287.91919191919203,745.6161616161615 287.91919191919203,736.0808080808081 287.91919191919203,726.5454545454545" fill="none" stroke="rgba(0,0,255,0.75)" stroke-width="11.327999999999996"/></g><g><polyline data-points="-2.3737373737373733,-2.2727272727272725 -2.2727272727272725,-2.1717171717171713 -2.1717171717171713,-2.07070707070707 -2.1717171717171713,-1.9696969696969693 -2.1717171717171713,-1.8686868686868683 -2.1717171717171713,-1.7676767676767675 -2.1717171717171713,-1.6666666666666665 -2.1717171717171713,-1.5656565656565653 -2.1717171717171713,-1.4646464646464643 -2.1717171717171713,-1.363636363636363 -2.1717171717171713,-1.2626262626262625 -2.1717171717171713,-1.1616161616161613 -2.1717171717171713,-1.0606060606060603 -2.1717171717171713,-0.9595959595959596 -2.1717171717171713,-0.8585858585858579 -2.1717171717171713,-0.7575757575757572 -2.1717171717171713,-0.6565656565656557 -2.1717171717171713,-0.555555555555555 -2.1717171717171713,-0.4545454545454544 -2.1717171717171713,-0.35353535353535287 -2.1717171717171713,-0.2525252525252522 -2.1717171717171713,-0.15151515151515066 -2.1717171717171713,-0.05050505050505001 -2.1717171717171713,0.050505050505051545 -2.07070707070707,0.1515151515151522 -1.9696969696969693,0.2525252525252529 -1.8686868686868683,0.3535353535353544 -1.7676767676767675,0.4545454545454551 -1.6666666666666665,0.4545454545454551 -1.5656565656565653,0.4545454545454551 -1.4646464646464643,0.3535353535353544 -1.363636363636363,0.2525252525252529 -1.2626262626262625,0.1515151515151522 -1.1616161616161613,0.050505050505051545 -1.0606060606060603,-0.05050505050505001 -0.9595959595959596,-0.15151515151515066 -0.8585858585858579,-0.2525252525252522 -0.7575757575757572,-0.35353535353535287 -0.6565656565656557,-0.4545454545454544 -0.555555555555555,-0.555555555555555 -0.4545454545454544,-0.6565656565656557 -0.35353535353535287,-0.7575757575757572 -0.2525252525252522,-0.8585858585858579 -0.15151515151515066,-0.9595959595959596 -0.05050505050505001,-1.0606060606060603 0.050505050505051545,-1.1616161616161613 0.1515151515151522,-1.2626262626262625 0.2525252525252529,-1.363636363636363 0.3535353535353544,-1.4646464646464643 0.4545454545454551,-1.5656565656565653 0.5555555555555567,-1.6666666666666665 0.6565656565656574,-1.7676767676767675 0.7575757575757579,-1.8686868686868683 0.8585858585858596,-1.9696969696969693 0.9595959595959602,-2.07070707070707 1.0606060606060617,-2.1717171717171713 1.1616161616161622,-2.2727272727272725 1.262626262626263,-2.3737373737373733 1.3636363636363644,-2.474747474747474 1.4646464646464652,-2.5757575757575752 1.5656565656565666,-2.5757575757575752 1.6666666666666674,-2.5757575757575752" data-type="line" data-label="" points="287.91919191919203,726.5454545454545 297.4545454545455,717.010101010101 306.9898989898991,707.4747474747475 306.9898989898991,697.939393939394 306.9898989898991,688.4040404040404 306.9898989898991,678.8686868686868 306.9898989898991,669.3333333333334 306.9898989898991,659.7979797979798 306.9898989898991,650.2626262626263 306.9898989898991,640.7272727272727 306.9898989898991,631.1919191919193 306.9898989898991,621.6565656565657 306.9898989898991,612.1212121212121 306.9898989898991,602.5858585858587 306.9898989898991,593.0505050505051 306.9898989898991,583.5151515151516 306.9898989898991,573.979797979798 306.9898989898991,564.4444444444445 306.9898989898991,554.909090909091 306.9898989898991,545.3737373737374 306.9898989898991,535.838383838384 306.9898989898991,526.3030303030304 306.9898989898991,516.7676767676768 306.9898989898991,507.23232323232327 316.5252525252526,497.69696969696975 326.0606060606061,488.1616161616163 335.59595959595964,478.6262626262627 345.13131313131316,469.0909090909092 354.6666666666667,469.0909090909092 364.2020202020202,469.0909090909092 373.7373737373738,478.6262626262627 383.2727272727273,488.1616161616163 392.80808080808083,497.69696969696975 402.34343434343435,507.23232323232327 411.8787878787879,516.7676767676768 421.4141414141414,526.3030303030304 430.949494949495,535.838383838384 440.4848484848485,545.3737373737374 450.0202020202021,554.909090909091 459.55555555555554,564.4444444444445 469.09090909090907,573.979797979798 478.62626262626264,583.5151515151516 488.16161616161617,593.0505050505051 497.69696969696975,602.5858585858587 507.2323232323232,612.1212121212121 516.7676767676768,621.6565656565657 526.3030303030303,631.1919191919193 535.8383838383838,640.7272727272727 545.3737373737374,650.2626262626263 554.9090909090909,659.7979797979798 564.4444444444445,669.3333333333334 573.9797979797979,678.8686868686868 583.5151515151515,688.4040404040404 593.0505050505051,697.939393939394 602.5858585858585,707.4747474747475 612.1212121212121,717.010101010101 621.6565656565656,726.5454545454545 631.1919191919192,736.0808080808081 640.7272727272727,745.6161616161615 650.2626262626262,755.1515151515151 659.7979797979798,755.1515151515151 669.3333333333333,755.1515151515151" fill="none" stroke="rgba(255,0,0,0.75)" stroke-width="11.327999999999996"/></g><g><polyline data-points="1.6666666666666674,-2.5757575757575752 1.767676767676768,-2.6767676767676765 1.8686868686868696,-2.6767676767676765 1.9696969696969702,-2.6767676767676765 2.070707070707072,-2.6767676767676765 2.1717171717171726,-2.7777777777777777 2.2727272727272734,-2.8787878787878785 2.373737373737375,-2.9797979797979792 2.4747474747474754,-3.0808080808080804 2.575757575757577,-3.1818181818181817 2.676767676767678,-3.2828282828282824 2.676767676767678,-3.383838383838383 2.676767676767678,-3.484848484848485 2.676767676767678,-3.5858585858585856 2.676767676767678,-3.6868686868686864 2.676767676767678,-3.7878787878787876 2.676767676767678,-3.8888888888888884 2.676767676767678,-3.98989898989899 2.676767676767678,-4.090909090909091 2.676767676767678,-4.191919191919193 2.676767676767678,-4.292929292929293 2.676767676767678,-4.393939393939394 2.676767676767678,-4.494949494949496 2.676767676767678,-4.595959595959596 2.676767676767678,-4.696969696969697 2.676767676767678,-4.7979797979797985 2.676767676767678,-4.898989898989899 2.676767676767678,-5.000000000000001" data-type="line" data-label="" points="669.3333333333333,755.1515151515151 678.8686868686868,764.6868686868687 688.4040404040404,764.6868686868687 697.9393939393939,764.6868686868687 707.4747474747475,764.6868686868687 717.0101010101009,774.2222222222222 726.5454545454545,783.7575757575758 736.0808080808081,793.2929292929292 745.6161616161615,802.8282828282828 755.1515151515151,812.3636363636363 764.6868686868686,821.8989898989898 764.6868686868686,831.4343434343434 764.6868686868686,840.969696969697 764.6868686868686,850.5050505050505 764.6868686868686,860.0404040404039 764.6868686868686,869.5757575757575 764.6868686868686,879.1111111111111 764.6868686868686,888.6464646464647 764.6868686868686,898.1818181818181 764.6868686868686,907.7171717171718 764.6868686868686,917.2525252525252 764.6868686868686,926.7878787878788 764.6868686868686,936.3232323232323 764.6868686868686,945.8585858585858 764.6868686868686,955.3939393939394 764.6868686868686,964.9292929292928 764.6868686868686,974.4646464646464 764.6868686868686,984" fill="none" stroke="rgba(0,0,255,0.75)" stroke-width="11.327999999999996"/></g><g><rect data-type="rect" data-label="" data-x="0" data-y="0" x="40.000000000000114" y="40.000000000000284" width="943.9999999999997" height="943.9999999999998" fill="none" stroke="gray" stroke-width="0.010593220338983056"/></g><g><rect data-type="rect" data-label="" data-x="0" data-y="0" x="40.000000000000114" y="40.000000000000284" width="943.9999999999997" height="943.9999999999998" fill="none" stroke="rgba(15, 23, 42, 0.8)" stroke-width="0.010593220338983056"/></g><circle data-type="circle" data-label="" data-x="2.87878787878788" data-y="3.4848484848484866" cx="783.7575757575758" cy="183.03030303030312" r="14.159999999999995" fill="rgba(0,0,0,0.3)" stroke="black" stroke-width="0.010593220338983056"/><circle data-type="circle" data-label="" data-x="2.373737373737375" data-y="3.989898989898992" cx="736.0808080808081" cy="135.35353535353545" r="14.159999999999995" fill="rgba(0,0,0,0.3)" stroke="black" stroke-width="0.010593220338983056"/><circle data-type="circle" data-label="" data-x="3.2828282828282833" data-y="0.9595959595959602" cx="821.8989898989898" cy="421.4141414141415" r="14.159999999999995" fill="rgba(0,0,0,0.3)" stroke="black" stroke-width="0.010593220338983056"/><circle data-type="circle" data-label="" data-x="-1.6666666666666665" data-y="2.1717171717171726" cx="354.6666666666667" cy="306.9898989898991" r="14.159999999999995" fill="rgba(0,0,0,0.3)" stroke="black" stroke-width="0.010593220338983056"/><circle data-type="circle" data-label="" data-x="-1.6666666666666665" data-y="-0.05050505050505001" cx="354.6666666666667" cy="516.7676767676768" r="14.159999999999995" fill="rgba(0,0,0,0.3)" stroke="black" stroke-width="0.010593220338983056"/><circle data-type="circle" data-label="" data-x="-2.9797979797979792" data-y="-3.383838383838383" cx="230.70707070707084" cy="831.4343434343434" r="14.159999999999995" fill="rgba(0,0,0,0.3)" stroke="black" stroke-width="0.010593220338983056"/><circle data-type="circle" data-label="" data-x="3.2828282828282833" data-y="2.2727272727272734" cx="821.8989898989898" cy="297.4545454545456" r="14.159999999999995" fill="rgba(0,0,0,0.3)" stroke="black" stroke-width="0.010593220338983056"/><circle data-type="circle" data-label="" data-x="-0.6565656565656557" data-y="2.1717171717171726" cx="450.0202020202021" cy="306.9898989898991" r="14.159999999999995" fill="rgba(0,0,0,0.3)" stroke="black" stroke-width="0.010593220338983056"/><circle data-type="circle" data-label="" data-x="-1.2626262626262625" data-y="1.3636363636363644" cx="392.80808080808083" cy="383.27272727272737" r="14.159999999999995" fill="rgba(0,0,0,0.3)" stroke="black" stroke-width="0.010593220338983056"/><circle data-type="circle" data-label="" data-x="-1.4646464646464643" data-y="3.383838383838384" cx="373.7373737373738" cy="192.56565656565675" r="14.159999999999995" fill="rgba(0,0,0,0.3)" stroke="black" stroke-width="0.010593220338983056"/><circle data-type="circle" data-label="" data-x="-0.2525252525252522" data-y="1.3636363636363644" cx="488.16161616161617" cy="383.27272727272737" r="14.159999999999995" fill="rgba(0,0,0,0.3)" stroke="black" stroke-width="0.010593220338983056"/><circle data-type="circle" data-label="" data-x="2.070707070707072" data-y="-2.9797979797979792" cx="707.4747474747475" cy="793.2929292929292" r="14.159999999999995" fill="rgba(0,0,0,0.3)" stroke="black" stroke-width="0.010593220338983056"/><circle data-type="circle" data-label="" data-x="2.070707070707072" data-y="-3.98989898989899" cx="707.4747474747475" cy="888.6464646464647" r="14.159999999999995" fill="rgba(0,0,0,0.3)" stroke="black" stroke-width="0.010593220338983056"/><circle data-type="circle" data-label="" data-x="-2.3737373737373733" data-y="-2.2727272727272725" cx="287.91919191919203" cy="726.5454545454545" r="14.159999999999995" fill="rgba(0,0,0,0.3)" stroke="black" stroke-width="0.010593220338983056"/><circle data-type="circle" data-label="" data-x="1.6666666666666674" data-y="-2.5757575757575752" cx="669.3333333333333" cy="755.1515151515151" r="14.159999999999995" fill="rgba(0,0,0,0.3)" stroke="black" stroke-width="0.010593220338983056"/><g id="crosshair" style="display: none"><line id="crosshair-h" y1="0" y2="1024" stroke="#666" stroke-width="0.5"/><line id="crosshair-v" x1="0" x2="1024" stroke="#666" stroke-width="0.5"/><text id="coordinates" font-family="monospace" font-size="12" fill="#666"></text></g><script><![CDATA[
              document.currentScript.parentElement.addEventListener('mousemove', (e) => {
                const svg = e.currentTarget;
                const rect = svg.getBoundingClientRect();
                const x = e.clientX - rect.left;
                const y = e.clientY - rect.top;
                const crosshair = svg.getElementById('crosshair');
                const h = svg.getElementById('crosshair-h');
                const v = svg.getElementById('crosshair-v');
                const coords = svg.getElementById('coordinates');
                
                crosshair.style.display = 'block';
                h.setAttribute('x1', '0');
                h.setAttribute('x2', '1024');
                h.setAttribute('y1', y);
                h.setAttribute('y2', y);
                v.setAttribute('x1', x);
                v.setAttribute('x2', x);
                v.setAttribute('y1', '0');
                v.setAttribute('y2', '1024');

                // Calculate real coordinates using inverse transformation
                const matrix = {"a":94.39999999999996,"c":0,"e":511.99999999999994,"b":0,"d":-94.39999999999996,"f":512.0000000000001};
                // Manually invert and apply the affine transform
                // Since we only use translate and scale, we can directly compute:
                // x' = (x - tx) / sx
                // y' = (y - ty) / sy
                const sx = matrix.a;
                const sy = matrix.d;
                const tx = matrix.e; 
                const ty = matrix.f;
                const realPoint = {
                  x: (x - tx) / sx,
                  y: (y - ty) / sy // Flip y back since we used negative scale
                }
                
                coords.textContent = `(${realPoint.x.toFixed(2)}, ${realPoint.y.toFixed(2)})`;
                coords.setAttribute('x', (x + 5).toString());
                coords.setAttribute('y', (y - 5).toString());
              });
              document.currentScript.parentElement.addEventListener('mouseleave', () => {
                document.currentScript.parentElement.getElementById('crosshair').style.display = 'none';
              });
            ]]></script></svg>