<svg width="1024" height="1024" viewBox="0 0 1024 1024" xmlns="http://www.w3.org/2000/svg"><rect width="100%" height="100%" fill="white"/><g><circle data-type="point" data-label="conn_000" data-x="-5" data-y="-0.78" cx="40.000000000000114" cy="585.6320000000001" r="14.16" fill="red"/></g><g><circle data-type="point" data-label="conn_000" data-x="5" data-y="0.24" cx="983.9999999999998" cy="489.3440000000001" r="14.16" fill="blue"/></g><g><circle data-type="point" data-label="conn_001" data-x="-1.5" data-y="5" cx="370.4" cy="40.000000000000284" r="14.16" fill="red"/></g><g><circle data-type="point" data-label="conn_001" data-x="2.56" data-y="-5" cx="753.6639999999999" cy="984" r="14.16" fill="red"/></g><g><circle data-type="point" data-label="conn_002" data-x="-5" data-y="-0.38" cx="40.000000000000114" cy="547.8720000000001" r="14.16" fill="blue"/></g><g><circle data-type="point" data-label="conn_002" data-x="-5" data-y="-4.36" cx="40.000000000000114" cy="923.5840000000001" r="14.16" fill="blue"/></g><g><circle data-type="point" data-label="conn_003" data-x="-2.46" data-y="-5" cx="279.77600000000007" cy="984" r="14.16" fill="blue"/></g><g><circle data-type="point" data-label="conn_003" data-x="-5" data-y="3.68" cx="40.000000000000114" cy="164.60800000000023" r="14.16" fill="blue"/></g><g><circle data-type="point" data-label="conn_004" data-x="5" data-y="0.32" cx="983.9999999999998" cy="481.79200000000014" r="14.16" fill="red"/></g><g><circle data-type="point" data-label="conn_004" data-x="5" data-y="-3.46" cx="983.9999999999998" cy="838.624" r="14.16" fill="red"/></g><g><circle data-type="point" data-label="conn_005" data-x="-5" data-y="2.62" cx="40.000000000000114" cy="264.6720000000002" r="14.16" fill="blue"/></g><g><circle data-type="point" data-label="conn_005" data-x="-0.72" data-y="5" cx="444.032" cy="40.000000000000284" r="14.16" fill="red"/></g><g><polyline data-points="-5.000000000000001,2.676767676767678 -4.898989898989899,2.7777777777777786 -4.7979797979797985,2.87878787878788 -4.696969696969697,2.9797979797979806 -4.595959595959596,3.080808080808082 -4.494949494949496,3.181818181818183 -4.393939393939394,3.2828282828282833 -4.292929292929293,3.383838383838384 -4.191919191919193,3.4848484848484866 -4.090909090909091,3.5858585858585874 -3.98989898989899,3.6868686868686877 -3.8888888888888884,3.7878787878787885 -3.7878787878787876,3.8888888888888893 -3.6868686868686864,3.989898989898992 -3.5858585858585856,3.989898989898992 -3.484848484848485,3.989898989898992 -3.383838383838383,3.989898989898992 -3.2828282828282824,3.989898989898992 -3.1818181818181817,3.989898989898992 -3.0808080808080804,3.989898989898992 -2.9797979797979792,3.989898989898992 -2.8787878787878785,3.989898989898992 -2.7777777777777777,3.989898989898992 -2.6767676767676765,3.989898989898992 -2.5757575757575752,3.989898989898992 -2.474747474747474,3.989898989898992 -2.3737373737373733,3.989898989898992 -2.2727272727272725,3.989898989898992 -2.1717171717171713,3.989898989898992 -2.07070707070707,3.989898989898992 -1.9696969696969693,3.989898989898992 -1.8686868686868683,3.989898989898992 -1.7676767676767675,3.989898989898992 -1.6666666666666665,3.989898989898992 -1.5656565656565653,3.989898989898992 -1.4646464646464643,3.989898989898992 -1.363636363636363,3.989898989898992 -1.2626262626262625,3.989898989898992 -1.1616161616161613,3.989898989898992" data-type="line" data-label="" points="40.00000000000006,259.3131313131314 49.53535353535369,249.77777777777794 59.07070707070716,240.24242424242436 68.60606060606068,230.70707070707084 78.14141414141426,221.17171717171726 87.67676767676772,211.63636363636374 97.21212121212136,202.10101010101027 106.74747474747483,192.56565656565675 116.28282828282829,183.03030303030312 125.81818181818193,173.4949494949496 135.35353535353545,163.95959595959613 144.88888888888903,154.4242424242426 154.42424242424255,144.88888888888908 163.95959595959607,135.35353535353545 173.4949494949496,135.35353535353545 183.03030303030312,135.35353535353545 192.5656565656567,135.35353535353545 202.10101010101022,135.35353535353545 211.63636363636374,135.35353535353545 221.17171717171726,135.35353535353545 230.70707070707084,135.35353535353545 240.2424242424243,135.35353535353545 249.77777777777783,135.35353535353545 259.3131313131314,135.35353535353545 268.84848484848493,135.35353535353545 278.38383838383845,135.35353535353545 287.91919191919203,135.35353535353545 297.4545454545455,135.35353535353545 306.9898989898991,135.35353535353545 316.5252525252526,135.35353535353545 326.0606060606061,135.35353535353545 335.59595959595964,135.35353535353545 345.13131313131316,135.35353535353545 354.6666666666667,135.35353535353545 364.2020202020202,135.35353535353545 373.7373737373738,135.35353535353545 383.2727272727273,135.35353535353545 392.80808080808083,135.35353535353545 402.34343434343435,135.35353535353545" fill="none" stroke="rgba(0,0,255,0.75)" stroke-width="11.327999999999996"/></g><g><polyline data-points="-1.1616161616161613,3.989898989898992 -1.0606060606060603,4.090909090909092 -0.9595959595959596,4.191919191919193 -0.8585858585858579,4.292929292929293 -0.7575757575757572,4.393939393939394 -0.7575757575757572,4.494949494949497 -0.7575757575757572,4.595959595959597 -0.7575757575757572,4.696969696969697 -0.7575757575757572,4.7979797979797985 -0.7575757575757572,4.898989898989901 -0.7575757575757572,5.000000000000002" data-type="line" data-label="" points="402.34343434343435,135.35353535353545 411.8787878787879,125.81818181818198 421.4141414141414,116.28282828282846 430.949494949495,106.747474747475 440.4848484848485,97.21212121212153 440.4848484848485,87.67676767676778 440.4848484848485,78.14141414141432 440.4848484848485,68.60606060606085 440.4848484848485,59.07070707070733 440.4848484848485,49.53535353535369 440.4848484848485,40.000000000000114" fill="none" stroke="rgba(255,0,0,0.75)" stroke-width="11.327999999999996"/></g><g><polyline data-points="-5.000000000000001,-0.7575757575757572 -4.898989898989899,-0.6565656565656557 -4.7979797979797985,-0.555555555555555 -4.696969696969697,-0.4545454545454544 -4.595959595959596,-0.35353535353535287 -4.494949494949496,-0.2525252525252522 -4.393939393939394,-0.15151515151515066 -4.292929292929293,-0.05050505050505001 -4.191919191919193,0.050505050505051545 -4.090909090909091,0.1515151515151522 -3.98989898989899,0.2525252525252529 -3.8888888888888884,0.2525252525252529 -3.7878787878787876,0.2525252525252529 -3.6868686868686864,0.2525252525252529 -3.5858585858585856,0.2525252525252529 -3.484848484848485,0.2525252525252529 -3.383838383838383,0.2525252525252529 -3.2828282828282824,0.2525252525252529 -3.1818181818181817,0.2525252525252529 -3.0808080808080804,0.2525252525252529 -2.9797979797979792,0.2525252525252529 -2.8787878787878785,0.2525252525252529 -2.7777777777777777,0.2525252525252529 -2.6767676767676765,0.2525252525252529 -2.5757575757575752,0.2525252525252529 -2.474747474747474,0.2525252525252529 -2.3737373737373733,0.2525252525252529 -2.2727272727272725,0.2525252525252529 -2.1717171717171713,0.2525252525252529 -2.07070707070707,0.2525252525252529 -1.9696969696969693,0.2525252525252529 -1.8686868686868683,0.2525252525252529 -1.7676767676767675,0.2525252525252529 -1.6666666666666665,0.2525252525252529 -1.5656565656565653,0.2525252525252529 -1.4646464646464643,0.2525252525252529 -1.363636363636363,0.2525252525252529 -1.2626262626262625,0.2525252525252529 -1.1616161616161613,0.2525252525252529 -1.0606060606060603,0.2525252525252529 -0.9595959595959596,0.2525252525252529 -0.8585858585858579,0.2525252525252529 -0.7575757575757572,0.2525252525252529 -0.6565656565656557,0.2525252525252529 -0.555555555555555,0.2525252525252529 -0.4545454545454544,0.2525252525252529 -0.35353535353535287,0.2525252525252529 -0.2525252525252522,0.2525252525252529 -0.15151515151515066,0.2525252525252529 -0.05050505050505001,0.2525252525252529 0.050505050505051545,0.2525252525252529 0.1515151515151522,0.2525252525252529 0.2525252525252529,0.2525252525252529 0.3535353535353544,0.2525252525252529 0.4545454545454551,0.2525252525252529 0.5555555555555567,0.2525252525252529 0.6565656565656574,0.2525252525252529 0.7575757575757579,0.2525252525252529 0.8585858585858596,0.2525252525252529 0.9595959595959602,0.2525252525252529 1.0606060606060617,0.2525252525252529 1.1616161616161622,0.2525252525252529 1.262626262626263,0.2525252525252529 1.3636363636363644,0.2525252525252529 1.4646464646464652,0.2525252525252529 1.5656565656565666,0.2525252525252529 1.6666666666666674,0.2525252525252529 1.767676767676768,0.2525252525252529 1.8686868686868696,0.2525252525252529 1.9696969696969702,0.2525252525252529 2.070707070707072,0.2525252525252529 2.1717171717171726,0.2525252525252529 2.2727272727272734,0.2525252525252529 2.373737373737375,0.2525252525252529 2.4747474747474754,0.2525252525252529 2.575757575757577,0.2525252525252529 2.676767676767678,0.2525252525252529 2.7777777777777786,0.2525252525252529 2.87878787878788,0.2525252525252529 2.9797979797979806,0.2525252525252529 3.080808080808082,0.2525252525252529 3.181818181818183,0.2525252525252529 3.2828282828282833,0.2525252525252529 3.383838383838384,0.2525252525252529 3.4848484848484866,0.2525252525252529 3.5858585858585874,0.2525252525252529 3.6868686868686877,0.2525252525252529 3.7878787878787885,0.2525252525252529 3.8888888888888893,0.2525252525252529 3.989898989898992,0.2525252525252529" data-type="line" data-label="" points="40.00000000000006,583.5151515151516 49.53535353535369,573.979797979798 59.07070707070716,564.4444444444445 68.60606060606068,554.909090909091 78.14141414141426,545.3737373737374 87.67676767676772,535.838383838384 97.21212121212136,526.3030303030304 106.74747474747483,516.7676767676768 116.28282828282829,507.23232323232327 125.81818181818193,497.69696969696975 135.35353535353545,488.1616161616163 144.88888888888903,488.1616161616163 154.42424242424255,488.1616161616163 163.95959595959607,488.1616161616163 173.4949494949496,488.1616161616163 183.03030303030312,488.1616161616163 192.5656565656567,488.1616161616163 202.10101010101022,488.1616161616163 211.63636363636374,488.1616161616163 221.17171717171726,488.1616161616163 230.70707070707084,488.1616161616163 240.2424242424243,488.1616161616163 249.77777777777783,488.1616161616163 259.3131313131314,488.1616161616163 268.84848484848493,488.1616161616163 278.38383838383845,488.1616161616163 287.91919191919203,488.1616161616163 297.4545454545455,488.1616161616163 306.9898989898991,488.1616161616163 316.5252525252526,488.1616161616163 326.0606060606061,488.1616161616163 335.59595959595964,488.1616161616163 345.13131313131316,488.1616161616163 354.6666666666667,488.1616161616163 364.2020202020202,488.1616161616163 373.7373737373738,488.1616161616163 383.2727272727273,488.1616161616163 392.80808080808083,488.1616161616163 402.34343434343435,488.1616161616163 411.8787878787879,488.1616161616163 421.4141414141414,488.1616161616163 430.949494949495,488.1616161616163 440.4848484848485,488.1616161616163 450.0202020202021,488.1616161616163 459.55555555555554,488.1616161616163 469.09090909090907,488.1616161616163 478.62626262626264,488.1616161616163 488.16161616161617,488.1616161616163 497.69696969696975,488.1616161616163 507.2323232323232,488.1616161616163 516.7676767676768,488.1616161616163 526.3030303030303,488.1616161616163 535.8383838383838,488.1616161616163 545.3737373737374,488.1616161616163 554.9090909090909,488.1616161616163 564.4444444444445,488.1616161616163 573.9797979797979,488.1616161616163 583.5151515151515,488.1616161616163 593.0505050505051,488.1616161616163 602.5858585858585,488.1616161616163 612.1212121212121,488.1616161616163 621.6565656565656,488.1616161616163 631.1919191919192,488.1616161616163 640.7272727272727,488.1616161616163 650.2626262626262,488.1616161616163 659.7979797979798,488.1616161616163 669.3333333333333,488.1616161616163 678.8686868686868,488.1616161616163 688.4040404040404,488.1616161616163 697.9393939393939,488.1616161616163 707.4747474747475,488.1616161616163 717.0101010101009,488.1616161616163 726.5454545454545,488.1616161616163 736.0808080808081,488.1616161616163 745.6161616161615,488.1616161616163 755.1515151515151,488.1616161616163 764.6868686868686,488.1616161616163 774.2222222222222,488.1616161616163 783.7575757575758,488.1616161616163 793.2929292929292,488.1616161616163 802.8282828282828,488.1616161616163 812.3636363636363,488.1616161616163 821.8989898989898,488.1616161616163 831.4343434343433,488.1616161616163 840.969696969697,488.1616161616163 850.5050505050505,488.1616161616163 860.0404040404039,488.1616161616163 869.5757575757575,488.1616161616163 879.111111111111,488.1616161616163 888.6464646464647,488.1616161616163" fill="none" stroke="rgba(255,0,0,0.75)" stroke-width="11.327999999999996"/></g><g><polyline data-points="3.989898989898992,0.2525252525252529 4.090909090909092,0.2525252525252529 4.191919191919193,0.2525252525252529 4.292929292929293,0.2525252525252529 4.393939393939394,0.2525252525252529 4.494949494949497,0.2525252525252529 4.595959595959597,0.2525252525252529 4.696969696969697,0.2525252525252529 4.7979797979797985,0.2525252525252529 4.898989898989901,0.2525252525252529 5.000000000000002,0.2525252525252529" data-type="line" data-label="" points="888.6464646464647,488.1616161616163 898.181818181818,488.1616161616163 907.7171717171716,488.1616161616163 917.2525252525251,488.1616161616163 926.7878787878785,488.1616161616163 936.3232323232323,488.1616161616163 945.8585858585857,488.1616161616163 955.3939393939393,488.1616161616163 964.9292929292927,488.1616161616163 974.4646464646464,488.1616161616163 984,488.1616161616163" fill="none" stroke="rgba(0,0,255,0.75)" stroke-width="11.327999999999996"/></g><g><polyline data-points="-1.4646464646464643,5.000000000000002 -1.4646464646464643,4.898989898989901 -1.4646464646464643,4.7979797979797985 -1.4646464646464643,4.696969696969697 -1.4646464646464643,4.595959595959597 -1.4646464646464643,4.494949494949497 -1.4646464646464643,4.393939393939394 -1.4646464646464643,4.292929292929293 -1.4646464646464643,4.191919191919193 -1.4646464646464643,4.090909090909092 -1.4646464646464643,3.989898989898992 -1.363636363636363,3.8888888888888893 -1.2626262626262625,3.7878787878787885 -1.1616161616161613,3.6868686868686877 -1.0606060606060603,3.5858585858585874 -0.9595959595959596,3.4848484848484866 -0.8585858585858579,3.383838383838384 -0.7575757575757572,3.2828282828282833 -0.6565656565656557,3.181818181818183 -0.555555555555555,3.080808080808082 -0.4545454545454544,2.9797979797979806 -0.35353535353535287,2.87878787878788 -0.2525252525252522,2.7777777777777786 -0.15151515151515066,2.676767676767678 -0.05050505050505001,2.575757575757577 0.050505050505051545,2.4747474747474754 0.1515151515151522,2.373737373737375 0.2525252525252529,2.2727272727272734 0.3535353535353544,2.1717171717171726 0.4545454545454551,2.070707070707072 0.5555555555555567,1.9696969696969702 0.6565656565656574,1.8686868686868696 0.7575757575757579,1.767676767676768 0.8585858585858596,1.6666666666666674 0.9595959595959602,1.5656565656565666 1.0606060606060617,1.4646464646464652 1.1616161616161622,1.3636363636363644 1.262626262626263,1.262626262626263 1.3636363636363644,1.1616161616161622 1.4646464646464652,1.0606060606060617 1.5656565656565666,0.9595959595959602 1.6666666666666674,0.8585858585858596 1.767676767676768,0.7575757575757579 1.8686868686868696,0.6565656565656574 1.9696969696969702,0.6565656565656574 2.070707070707072,0.6565656565656574 2.1717171717171726,0.6565656565656574" data-type="line" data-label="" points="373.7373737373738,40.000000000000114 373.7373737373738,49.53535353535369 373.7373737373738,59.07070707070733 373.7373737373738,68.60606060606085 373.7373737373738,78.14141414141432 373.7373737373738,87.67676767676778 373.7373737373738,97.21212121212153 373.7373737373738,106.747474747475 373.7373737373738,116.28282828282846 373.7373737373738,125.81818181818198 373.7373737373738,135.35353535353545 383.2727272727273,144.88888888888908 392.80808080808083,154.4242424242426 402.34343434343435,163.95959595959613 411.8787878787879,173.4949494949496 421.4141414141414,183.03030303030312 430.949494949495,192.56565656565675 440.4848484848485,202.10101010101027 450.0202020202021,211.63636363636374 459.55555555555554,221.17171717171726 469.09090909090907,230.70707070707084 478.62626262626264,240.24242424242436 488.16161616161617,249.77777777777794 497.69696969696975,259.3131313131314 507.2323232323232,268.84848484848493 516.7676767676768,278.38383838383857 526.3030303030303,287.91919191919203 535.8383838383838,297.4545454545456 545.3737373737374,306.9898989898991 554.9090909090909,316.5252525252526 564.4444444444445,326.06060606060623 573.9797979797979,335.5959595959597 583.5151515151515,345.1313131313133 593.0505050505051,354.66666666666674 602.5858585858585,364.2020202020203 612.1212121212121,373.73737373737384 621.6565656565656,383.27272727272737 631.1919191919192,392.80808080808094 640.7272727272727,402.3434343434344 650.2626262626262,411.87878787878793 659.7979797979798,421.4141414141415 669.3333333333333,430.94949494949503 678.8686868686868,440.4848484848486 688.4040404040404,450.0202020202021 697.9393939393939,450.0202020202021 707.4747474747475,450.0202020202021 717.0101010101009,450.0202020202021" fill="none" stroke="rgba(255,0,0,0.75)" stroke-width="11.327999999999996"/></g><g><polyline data-points="2.1717171717171726,0.6565656565656574 2.2727272727272734,0.5555555555555567 2.373737373737375,0.4545454545454551 2.4747474747474754,0.3535353535353544 2.575757575757577,0.2525252525252529 2.575757575757577,0.1515151515151522 2.575757575757577,0.050505050505051545 2.575757575757577,-0.05050505050505001 2.575757575757577,-0.15151515151515066 2.575757575757577,-0.2525252525252522 2.575757575757577,-0.35353535353535287 2.575757575757577,-0.4545454545454544 2.575757575757577,-0.555555555555555 2.575757575757577,-0.6565656565656557 2.575757575757577,-0.7575757575757572 2.575757575757577,-0.8585858585858579 2.575757575757577,-0.9595959595959596 2.575757575757577,-1.0606060606060603 2.575757575757577,-1.1616161616161613 2.575757575757577,-1.2626262626262625 2.575757575757577,-1.363636363636363 2.575757575757577,-1.4646464646464643 2.575757575757577,-1.5656565656565653 2.575757575757577,-1.6666666666666665 2.575757575757577,-1.7676767676767675 2.575757575757577,-1.8686868686868683 2.575757575757577,-1.9696969696969693 2.575757575757577,-2.07070707070707 2.575757575757577,-2.1717171717171713 2.575757575757577,-2.2727272727272725 2.575757575757577,-2.3737373737373733 2.575757575757577,-2.474747474747474 2.575757575757577,-2.5757575757575752 2.575757575757577,-2.6767676767676765 2.575757575757577,-2.7777777777777777 2.575757575757577,-2.8787878787878785 2.575757575757577,-2.9797979797979792 2.575757575757577,-3.0808080808080804 2.575757575757577,-3.1818181818181817 2.575757575757577,-3.2828282828282824 2.575757575757577,-3.383838383838383 2.575757575757577,-3.484848484848485 2.575757575757577,-3.5858585858585856 2.575757575757577,-3.6868686868686864 2.575757575757577,-3.7878787878787876 2.575757575757577,-3.8888888888888884 2.575757575757577,-3.98989898989899" data-type="line" data-label="" points="717.0101010101009,450.0202020202021 726.5454545454545,459.5555555555556 736.0808080808081,469.0909090909092 745.6161616161615,478.6262626262627 755.1515151515151,488.1616161616163 755.1515151515151,497.69696969696975 755.1515151515151,507.23232323232327 755.1515151515151,516.7676767676768 755.1515151515151,526.3030303030304 755.1515151515151,535.838383838384 755.1515151515151,545.3737373737374 755.1515151515151,554.909090909091 755.1515151515151,564.4444444444445 755.1515151515151,573.979797979798 755.1515151515151,583.5151515151516 755.1515151515151,593.0505050505051 755.1515151515151,602.5858585858587 755.1515151515151,612.1212121212121 755.1515151515151,621.6565656565657 755.1515151515151,631.1919191919193 755.1515151515151,640.7272727272727 755.1515151515151,650.2626262626263 755.1515151515151,659.7979797979798 755.1515151515151,669.3333333333334 755.1515151515151,678.8686868686868 755.1515151515151,688.4040404040404 755.1515151515151,697.939393939394 755.1515151515151,707.4747474747475 755.1515151515151,717.010101010101 755.1515151515151,726.5454545454545 755.1515151515151,736.0808080808081 755.1515151515151,745.6161616161615 755.1515151515151,755.1515151515151 755.1515151515151,764.6868686868687 755.1515151515151,774.2222222222222 755.1515151515151,783.7575757575758 755.1515151515151,793.2929292929292 755.1515151515151,802.8282828282828 755.1515151515151,812.3636363636363 755.1515151515151,821.8989898989898 755.1515151515151,831.4343434343434 755.1515151515151,840.969696969697 755.1515151515151,850.5050505050505 755.1515151515151,860.0404040404039 755.1515151515151,869.5757575757575 755.1515151515151,879.1111111111111 755.1515151515151,888.6464646464647" fill="none" stroke="rgba(0,0,255,0.75)" stroke-width="11.327999999999996"/></g><g><polyline data-points="2.575757575757577,-3.98989898989899 2.575757575757577,-4.090909090909091 2.575757575757577,-4.191919191919193 2.575757575757577,-4.292929292929293 2.575757575757577,-4.393939393939394 2.575757575757577,-4.494949494949496 2.575757575757577,-4.595959595959596 2.575757575757577,-4.696969696969697 2.575757575757577,-4.7979797979797985 2.575757575757577,-4.898989898989899 2.575757575757577,-5.000000000000001" data-type="line" data-label="" points="755.1515151515151,888.6464646464647 755.1515151515151,898.1818181818181 755.1515151515151,907.7171717171718 755.1515151515151,917.2525252525252 755.1515151515151,926.7878787878788 755.1515151515151,936.3232323232323 755.1515151515151,945.8585858585858 755.1515151515151,955.3939393939394 755.1515151515151,964.9292929292928 755.1515151515151,974.4646464646464 755.1515151515151,984" fill="none" stroke="rgba(255,0,0,0.75)" stroke-width="11.327999999999996"/></g><g><polyline data-points="-5.000000000000001,-0.35353535353535287 -4.898989898989899,-0.4545454545454544 -4.898989898989899,-0.555555555555555 -4.898989898989899,-0.6565656565656557 -4.898989898989899,-0.7575757575757572 -4.898989898989899,-0.8585858585858579 -4.898989898989899,-0.9595959595959596 -4.898989898989899,-1.0606060606060603 -4.898989898989899,-1.1616161616161613 -4.898989898989899,-1.2626262626262625 -4.898989898989899,-1.363636363636363 -4.898989898989899,-1.4646464646464643 -4.898989898989899,-1.5656565656565653 -4.898989898989899,-1.6666666666666665 -4.898989898989899,-1.7676767676767675 -4.898989898989899,-1.8686868686868683 -4.898989898989899,-1.9696969696969693 -4.898989898989899,-2.07070707070707 -4.898989898989899,-2.1717171717171713 -4.898989898989899,-2.2727272727272725 -4.898989898989899,-2.3737373737373733 -4.898989898989899,-2.474747474747474 -5.000000000000001,-2.5757575757575752 -5.000000000000001,-2.6767676767676765 -5.000000000000001,-2.7777777777777777 -5.000000000000001,-2.8787878787878785 -5.000000000000001,-2.9797979797979792 -5.000000000000001,-3.0808080808080804 -5.000000000000001,-3.1818181818181817 -5.000000000000001,-3.2828282828282824 -5.000000000000001,-3.383838383838383 -5.000000000000001,-3.484848484848485 -5.000000000000001,-3.5858585858585856 -5.000000000000001,-3.6868686868686864 -5.000000000000001,-3.7878787878787876 -5.000000000000001,-3.8888888888888884 -5.000000000000001,-3.98989898989899 -5.000000000000001,-4.090909090909091 -5.000000000000001,-4.191919191919193 -5.000000000000001,-4.292929292929293 -5.000000000000001,-4.393939393939394" data-type="line" data-label="" points="40.00000000000006,545.3737373737374 49.53535353535369,554.909090909091 49.53535353535369,564.4444444444445 49.53535353535369,573.979797979798 49.53535353535369,583.5151515151516 49.53535353535369,593.0505050505051 49.53535353535369,602.5858585858587 49.53535353535369,612.1212121212121 49.53535353535369,621.6565656565657 49.53535353535369,631.1919191919193 49.53535353535369,640.7272727272727 49.53535353535369,650.2626262626263 49.53535353535369,659.7979797979798 49.53535353535369,669.3333333333334 49.53535353535369,678.8686868686868 49.53535353535369,688.4040404040404 49.53535353535369,697.939393939394 49.53535353535369,707.4747474747475 49.53535353535369,717.010101010101 49.53535353535369,726.5454545454545 49.53535353535369,736.0808080808081 49.53535353535369,745.6161616161615 40.00000000000006,755.1515151515151 40.00000000000006,764.6868686868687 40.00000000000006,774.2222222222222 40.00000000000006,783.7575757575758 40.00000000000006,793.2929292929292 40.00000000000006,802.8282828282828 40.00000000000006,812.3636363636363 40.00000000000006,821.8989898989898 40.00000000000006,831.4343434343434 40.00000000000006,840.969696969697 40.00000000000006,850.5050505050505 40.00000000000006,860.0404040404039 40.00000000000006,869.5757575757575 40.00000000000006,879.1111111111111 40.00000000000006,888.6464646464647 40.00000000000006,898.1818181818181 40.00000000000006,907.7171717171718 40.00000000000006,917.2525252525252 40.00000000000006,926.7878787878788" fill="none" stroke="rgba(0,0,255,0.75)" stroke-width="11.327999999999996"/></g><g><polyline data-points="5.000000000000002,0.3535353535353544 5.000000000000002,0.2525252525252529 5.000000000000002,0.1515151515151522 5.000000000000002,0.050505050505051545 5.000000000000002,-0.05050505050505001 5.000000000000002,-0.15151515151515066 5.000000000000002,-0.2525252525252522 5.000000000000002,-0.35353535353535287 5.000000000000002,-0.4545454545454544 5.000000000000002,-0.555555555555555 5.000000000000002,-0.6565656565656557 5.000000000000002,-0.7575757575757572 5.000000000000002,-0.8585858585858579 5.000000000000002,-0.9595959595959596 5.000000000000002,-1.0606060606060603 5.000000000000002,-1.1616161616161613 5.000000000000002,-1.2626262626262625 5.000000000000002,-1.363636363636363 5.000000000000002,-1.4646464646464643 5.000000000000002,-1.5656565656565653 5.000000000000002,-1.6666666666666665 5.000000000000002,-1.7676767676767675 5.000000000000002,-1.8686868686868683 5.000000000000002,-1.9696969696969693 5.000000000000002,-2.07070707070707 5.000000000000002,-2.1717171717171713 5.000000000000002,-2.2727272727272725 5.000000000000002,-2.3737373737373733 5.000000000000002,-2.474747474747474 5.000000000000002,-2.5757575757575752 5.000000000000002,-2.6767676767676765 5.000000000000002,-2.7777777777777777 5.000000000000002,-2.8787878787878785 5.000000000000002,-2.9797979797979792 5.000000000000002,-3.0808080808080804 5.000000000000002,-3.1818181818181817 5.000000000000002,-3.2828282828282824 5.000000000000002,-3.383838383838383 5.000000000000002,-3.484848484848485" data-type="line" data-label="" points="984,478.6262626262627 984,488.1616161616163 984,497.69696969696975 984,507.23232323232327 984,516.7676767676768 984,526.3030303030304 984,535.838383838384 984,545.3737373737374 984,554.909090909091 984,564.4444444444445 984,573.979797979798 984,583.5151515151516 984,593.0505050505051 984,602.5858585858587 984,612.1212121212121 984,621.6565656565657 984,631.1919191919193 984,640.7272727272727 984,650.2626262626263 984,659.7979797979798 984,669.3333333333334 984,678.8686868686868 984,688.4040404040404 984,697.939393939394 984,707.4747474747475 984,717.010101010101 984,726.5454545454545 984,736.0808080808081 984,745.6161616161615 984,755.1515151515151 984,764.6868686868687 984,774.2222222222222 984,783.7575757575758 984,793.2929292929292 984,802.8282828282828 984,812.3636363636363 984,821.8989898989898 984,831.4343434343434 984,840.969696969697" fill="none" stroke="rgba(255,0,0,0.75)" stroke-width="11.327999999999996"/></g><g><polyline data-points="-2.474747474747474,-5.000000000000001 -2.474747474747474,-4.898989898989899 -2.474747474747474,-4.7979797979797985 -2.474747474747474,-4.696969696969697 -2.474747474747474,-4.595959595959596 -2.474747474747474,-4.494949494949496 -2.474747474747474,-4.393939393939394 -2.474747474747474,-4.292929292929293 -2.474747474747474,-4.191919191919193 -2.474747474747474,-4.090909090909091 -2.474747474747474,-3.98989898989899 -2.474747474747474,-3.8888888888888884 -2.474747474747474,-3.7878787878787876 -2.474747474747474,-3.6868686868686864 -2.474747474747474,-3.5858585858585856 -2.474747474747474,-3.484848484848485 -2.474747474747474,-3.383838383838383 -2.474747474747474,-3.2828282828282824 -2.474747474747474,-3.1818181818181817 -2.474747474747474,-3.0808080808080804 -2.474747474747474,-2.9797979797979792 -2.474747474747474,-2.8787878787878785 -2.474747474747474,-2.7777777777777777 -2.474747474747474,-2.6767676767676765 -2.474747474747474,-2.5757575757575752 -2.474747474747474,-2.474747474747474 -2.474747474747474,-2.3737373737373733 -2.474747474747474,-2.2727272727272725 -2.474747474747474,-2.1717171717171713 -2.474747474747474,-2.07070707070707 -2.474747474747474,-1.9696969696969693 -2.474747474747474,-1.8686868686868683 -2.474747474747474,-1.7676767676767675 -2.474747474747474,-1.6666666666666665 -2.474747474747474,-1.5656565656565653 -2.474747474747474,-1.4646464646464643 -2.474747474747474,-1.363636363636363 -2.474747474747474,-1.2626262626262625 -2.474747474747474,-1.1616161616161613 -2.474747474747474,-1.0606060606060603 -2.474747474747474,-0.9595959595959596 -2.474747474747474,-0.8585858585858579 -2.474747474747474,-0.7575757575757572 -2.474747474747474,-0.6565656565656557 -2.474747474747474,-0.555555555555555 -2.474747474747474,-0.4545454545454544 -2.474747474747474,-0.35353535353535287 -2.474747474747474,-0.2525252525252522 -2.474747474747474,-0.15151515151515066 -2.474747474747474,-0.05050505050505001 -2.474747474747474,0.050505050505051545 -2.474747474747474,0.1515151515151522 -2.474747474747474,0.2525252525252529 -2.474747474747474,0.3535353535353544 -2.474747474747474,0.4545454545454551 -2.474747474747474,0.5555555555555567 -2.474747474747474,0.6565656565656574 -2.474747474747474,0.7575757575757579 -2.474747474747474,0.8585858585858596 -2.474747474747474,0.9595959595959602 -2.474747474747474,1.0606060606060617 -2.474747474747474,1.1616161616161622 -2.474747474747474,1.262626262626263 -2.474747474747474,1.3636363636363644 -2.474747474747474,1.4646464646464652 -2.474747474747474,1.5656565656565666 -2.474747474747474,1.6666666666666674 -2.474747474747474,1.767676767676768 -2.474747474747474,1.8686868686868696 -2.474747474747474,1.9696969696969702 -2.474747474747474,2.070707070707072 -2.474747474747474,2.1717171717171726 -2.474747474747474,2.2727272727272734 -2.474747474747474,2.373737373737375 -2.3737373737373733,2.4747474747474754 -2.2727272727272725,2.575757575757577 -2.1717171717171713,2.676767676767678 -2.07070707070707,2.7777777777777786 -1.9696969696969693,2.87878787878788 -1.8686868686868683,2.9797979797979806 -1.7676767676767675,3.080808080808082 -1.6666666666666665,3.181818181818183 -1.5656565656565653,3.2828282828282833 -1.4646464646464643,3.383838383838384 -1.363636363636363,3.4848484848484866 -1.2626262626262625,3.5858585858585874 -1.1616161616161613,3.6868686868686877 -1.0606060606060603,3.7878787878787885 -0.9595959595959596,3.8888888888888893 -0.8585858585858579,3.989898989898992 -0.9595959595959596,4.090909090909092 -1.0606060606060603,4.191919191919193 -1.1616161616161613,4.292929292929293 -1.2626262626262625,4.191919191919193 -1.363636363636363,4.191919191919193 -1.4646464646464643,4.191919191919193 -1.5656565656565653,4.191919191919193 -1.6666666666666665,4.191919191919193 -1.7676767676767675,4.191919191919193 -1.8686868686868683,4.191919191919193 -1.9696969696969693,4.191919191919193 -2.07070707070707,4.191919191919193 -2.1717171717171713,4.191919191919193 -2.2727272727272725,4.191919191919193 -2.3737373737373733,4.191919191919193 -2.474747474747474,4.191919191919193 -2.5757575757575752,4.191919191919193 -2.6767676767676765,4.191919191919193 -2.7777777777777777,4.191919191919193 -2.8787878787878785,4.191919191919193 -2.9797979797979792,4.191919191919193 -3.0808080808080804,4.191919191919193 -3.1818181818181817,4.191919191919193 -3.2828282828282824,4.191919191919193 -3.383838383838383,4.191919191919193 -3.484848484848485,4.191919191919193 -3.5858585858585856,4.191919191919193 -3.6868686868686864,4.191919191919193 -3.7878787878787876,4.191919191919193 -3.8888888888888884,4.090909090909092 -3.98989898989899,3.989898989898992 -4.090909090909091,3.8888888888888893 -4.191919191919193,3.7878787878787885 -4.292929292929293,3.6868686868686877 -4.393939393939394,3.6868686868686877 -4.494949494949496,3.6868686868686877 -4.595959595959596,3.6868686868686877 -4.696969696969697,3.6868686868686877 -4.7979797979797985,3.6868686868686877 -4.898989898989899,3.6868686868686877 -5.000000000000001,3.6868686868686877" data-type="line" data-label="" points="278.38383838383845,984 278.38383838383845,974.4646464646464 278.38383838383845,964.9292929292928 278.38383838383845,955.3939393939394 278.38383838383845,945.8585858585858 278.38383838383845,936.3232323232323 278.38383838383845,926.7878787878788 278.38383838383845,917.2525252525252 278.38383838383845,907.7171717171718 278.38383838383845,898.1818181818181 278.38383838383845,888.6464646464647 278.38383838383845,879.1111111111111 278.38383838383845,869.5757575757575 278.38383838383845,860.0404040404039 278.38383838383845,850.5050505050505 278.38383838383845,840.969696969697 278.38383838383845,831.4343434343434 278.38383838383845,821.8989898989898 278.38383838383845,812.3636363636363 278.38383838383845,802.8282828282828 278.38383838383845,793.2929292929292 278.38383838383845,783.7575757575758 278.38383838383845,774.2222222222222 278.38383838383845,764.6868686868687 278.38383838383845,755.1515151515151 278.38383838383845,745.6161616161615 278.38383838383845,736.0808080808081 278.38383838383845,726.5454545454545 278.38383838383845,717.010101010101 278.38383838383845,707.4747474747475 278.38383838383845,697.939393939394 278.38383838383845,688.4040404040404 278.38383838383845,678.8686868686868 278.38383838383845,669.3333333333334 278.38383838383845,659.7979797979798 278.38383838383845,650.2626262626263 278.38383838383845,640.7272727272727 278.38383838383845,631.1919191919193 278.38383838383845,621.6565656565657 278.38383838383845,612.1212121212121 278.38383838383845,602.5858585858587 278.38383838383845,593.0505050505051 278.38383838383845,583.5151515151516 278.38383838383845,573.979797979798 278.38383838383845,564.4444444444445 278.38383838383845,554.909090909091 278.38383838383845,545.3737373737374 278.38383838383845,535.838383838384 278.38383838383845,526.3030303030304 278.38383838383845,516.7676767676768 278.38383838383845,507.23232323232327 278.38383838383845,497.69696969696975 278.38383838383845,488.1616161616163 278.38383838383845,478.6262626262627 278.38383838383845,469.0909090909092 278.38383838383845,459.5555555555556 278.38383838383845,450.0202020202021 278.38383838383845,440.4848484848486 278.38383838383845,430.94949494949503 278.38383838383845,421.4141414141415 278.38383838383845,411.87878787878793 278.38383838383845,402.3434343434344 278.38383838383845,392.80808080808094 278.38383838383845,383.27272727272737 278.38383838383845,373.73737373737384 278.38383838383845,364.2020202020203 278.38383838383845,354.66666666666674 278.38383838383845,345.1313131313133 278.38383838383845,335.5959595959597 278.38383838383845,326.06060606060623 278.38383838383845,316.5252525252526 278.38383838383845,306.9898989898991 278.38383838383845,297.4545454545456 278.38383838383845,287.91919191919203 287.91919191919203,278.38383838383857 297.4545454545455,268.84848484848493 306.9898989898991,259.3131313131314 316.5252525252526,249.77777777777794 326.0606060606061,240.24242424242436 335.59595959595964,230.70707070707084 345.13131313131316,221.17171717171726 354.6666666666667,211.63636363636374 364.2020202020202,202.10101010101027 373.7373737373738,192.56565656565675 383.2727272727273,183.03030303030312 392.80808080808083,173.4949494949496 402.34343434343435,163.95959595959613 411.8787878787879,154.4242424242426 421.4141414141414,144.88888888888908 430.949494949495,135.35353535353545 421.4141414141414,125.81818181818198 411.8787878787879,116.28282828282846 402.34343434343435,106.747474747475 392.80808080808083,116.28282828282846 383.2727272727273,116.28282828282846 373.7373737373738,116.28282828282846 364.2020202020202,116.28282828282846 354.6666666666667,116.28282828282846 345.13131313131316,116.28282828282846 335.59595959595964,116.28282828282846 326.0606060606061,116.28282828282846 316.5252525252526,116.28282828282846 306.9898989898991,116.28282828282846 297.4545454545455,116.28282828282846 287.91919191919203,116.28282828282846 278.38383838383845,116.28282828282846 268.84848484848493,116.28282828282846 259.3131313131314,116.28282828282846 249.77777777777783,116.28282828282846 240.2424242424243,116.28282828282846 230.70707070707084,116.28282828282846 221.17171717171726,116.28282828282846 211.63636363636374,116.28282828282846 202.10101010101022,116.28282828282846 192.5656565656567,116.28282828282846 183.03030303030312,116.28282828282846 173.4949494949496,116.28282828282846 163.95959595959607,116.28282828282846 154.42424242424255,116.28282828282846 144.88888888888903,125.81818181818198 135.35353535353545,135.35353535353545 125.81818181818193,144.88888888888908 116.28282828282829,154.4242424242426 106.74747474747483,163.95959595959613 97.21212121212136,163.95959595959613 87.67676767676772,163.95959595959613 78.14141414141426,163.95959595959613 68.60606060606068,163.95959595959613 59.07070707070716,163.95959595959613 49.53535353535369,163.95959595959613 40.00000000000006,163.95959595959613" fill="none" stroke="rgba(0,0,255,0.75)" stroke-width="11.327999999999996"/></g><g><rect data-type="rect" data-label="" data-x="0" data-y="0" x="40.000000000000114" y="40.000000000000284" width="943.9999999999997" height="943.9999999999998" fill="none" stroke="gray" stroke-width="0.010593220338983056"/></g><g><rect data-type="rect" data-label="" data-x="0" data-y="0" x="40.000000000000114" y="40.000000000000284" width="943.9999999999997" height="943.9999999999998" fill="none" stroke="rgba(15, 23, 42, 0.8)" stroke-width="0.010593220338983056"/></g><circle data-type="circle" data-label="" data-x="-1.1616161616161613" data-y="3.989898989898992" cx="402.34343434343435" cy="135.35353535353545" r="14.159999999999995" fill="rgba(0,0,0,0.3)" stroke="black" stroke-width="0.010593220338983056"/><circle data-type="circle" data-label="" data-x="3.989898989898992" data-y="0.2525252525252529" cx="888.6464646464647" cy="488.1616161616163" r="14.159999999999995" fill="rgba(0,0,0,0.3)" stroke="black" stroke-width="0.010593220338983056"/><circle data-type="circle" data-label="" data-x="2.1717171717171726" data-y="0.6565656565656574" cx="717.0101010101009" cy="450.0202020202021" r="14.159999999999995" fill="rgba(0,0,0,0.3)" stroke="black" stroke-width="0.010593220338983056"/><circle data-type="circle" data-label="" data-x="2.575757575757577" data-y="-3.98989898989899" cx="755.1515151515151" cy="888.6464646464647" r="14.159999999999995" fill="rgba(0,0,0,0.3)" stroke="black" stroke-width="0.010593220338983056"/><g id="crosshair" style="display: none"><line id="crosshair-h" y1="0" y2="1024" stroke="#666" stroke-width="0.5"/><line id="crosshair-v" x1="0" x2="1024" stroke="#666" stroke-width="0.5"/><text id="coordinates" font-family="monospace" font-size="12" fill="#666"></text></g><script><![CDATA[
              document.currentScript.parentElement.addEventListener('mousemove', (e) => {
                const svg = e.currentTarget;
                const rect = svg.getBoundingClientRect();
                const x = e.clientX - rect.left;
                const y = e.clientY - rect.top;
                const crosshair = svg.getElementById('crosshair');
                const h = svg.getElementById('crosshair-h');
                const v = svg.getElementById('crosshair-v');
                const coords = svg.getElementById('coordinates');
                
                crosshair.style.display = 'block';
                h.setAttribute('x1', '0');
                h.setAttribute('x2', '1024');
                h.setAttribute('y1', y);
                h.setAttribute('y2', y);
                v.setAttribute('x1', x);
                v.setAttribute('x2', x);
                v.setAttribute('y1', '0');
                v.setAttribute('y2', '1024');

                // Calculate real coordinates using inverse transformation
                const matrix = {"a":94.39999999999996,"c":0,"e":511.99999999999994,"b":0,"d":-94.39999999999996,"f":512.0000000000001};
                // Manually invert and apply the affine transform
                // Since we only use translate and scale, we can directly compute:
                // x' = (x - tx) / sx
                // y' = (y - ty) / sy
                const sx = matrix.a;
                const sy = matrix.d;
                const tx = matrix.e; 
                const ty = matrix.f;
                const realPoint = {
                  x: (x - tx) / sx,
                  y: (y - ty) / sy // Flip y back since we used negative scale
                }
                
                coords.textContent = `(${realPoint.x.toFixed(2)}, ${realPoint.y.toFixed(2)})`;
                coords.setAttribute('x', (x + 5).toString());
                coords.setAttribute('y', (y - 5).toString());
              });
              document.currentScript.parentElement.addEventListener('mouseleave', () => {
                document.currentScript.parentElement.getElementById('crosshair').style.display = 'none';
              });
            ]]></script></svg>