<svg width="1024" height="1024" viewBox="0 0 1024 1024" xmlns="http://www.w3.org/2000/svg"><rect width="100%" height="100%" fill="white"/><g><circle data-type="point" data-label="conn_000" data-x="-5" data-y="-1.84" cx="40.000000000000114" cy="685.696" r="14.16" fill="red"/></g><g><circle data-type="point" data-label="conn_000" data-x="0.56" data-y="5" cx="564.8639999999999" cy="40.000000000000284" r="14.16" fill="blue"/></g><g><circle data-type="point" data-label="conn_001" data-x="0.76" data-y="5" cx="583.7439999999999" cy="40.000000000000284" r="14.16" fill="blue"/></g><g><circle data-type="point" data-label="conn_001" data-x="0.06" data-y="-5" cx="517.664" cy="984" r="14.16" fill="red"/></g><g><circle data-type="point" data-label="conn_002" data-x="-5" data-y="3.46" cx="40.000000000000114" cy="185.37600000000026" r="14.16" fill="blue"/></g><g><circle data-type="point" data-label="conn_002" data-x="2.3000000000000003" data-y="-5" cx="729.1199999999999" cy="984" r="14.16" fill="blue"/></g><g><circle data-type="point" data-label="conn_003" data-x="5" data-y="2.3000000000000003" cx="983.9999999999998" cy="294.88000000000017" r="14.16" fill="red"/></g><g><circle data-type="point" data-label="conn_003" data-x="5" data-y="0.1" cx="983.9999999999998" cy="502.5600000000001" r="14.16" fill="red"/></g><g><circle data-type="point" data-label="conn_004" data-x="-1.94" data-y="-5" cx="328.86400000000003" cy="984" r="14.16" fill="blue"/></g><g><circle data-type="point" data-label="conn_004" data-x="1.8" data-y="5" cx="681.9199999999998" cy="40.000000000000284" r="14.16" fill="blue"/></g><g><circle data-type="point" data-label="conn_005" data-x="5" data-y="-2.7" cx="983.9999999999998" cy="766.88" r="14.16" fill="blue"/></g><g><circle data-type="point" data-label="conn_005" data-x="-5" data-y="-1.7" cx="40.000000000000114" cy="672.48" r="14.16" fill="red"/></g><g><circle data-type="point" data-label="conn_006" data-x="2.68" data-y="-5" cx="764.9919999999998" cy="984" r="14.16" fill="red"/></g><g><circle data-type="point" data-label="conn_006" data-x="1.32" data-y="5" cx="636.608" cy="40.000000000000284" r="14.16" fill="blue"/></g><g><circle data-type="point" data-label="conn_007" data-x="-5" data-y="3.04" cx="40.000000000000114" cy="225.02400000000023" r="14.16" fill="blue"/></g><g><circle data-type="point" data-label="conn_007" data-x="5" data-y="4.84" cx="983.9999999999998" cy="55.104000000000326" r="14.16" fill="blue"/></g><g><circle data-type="point" data-label="conn_008" data-x="-5" data-y="-3.18" cx="40.000000000000114" cy="812.192" r="14.16" fill="blue"/></g><g><circle data-type="point" data-label="conn_008" data-x="5" data-y="4.0200000000000005" cx="983.9999999999998" cy="132.51200000000023" r="14.16" fill="blue"/></g><g><polyline data-points="-1.9696969696969693,-5.000000000000001 -1.8686868686868683,-4.898989898989899 -1.7676767676767675,-4.7979797979797985 -1.6666666666666665,-4.696969696969697 -1.5656565656565653,-4.595959595959596 -1.4646464646464643,-4.494949494949496 -1.363636363636363,-4.393939393939394 -1.2626262626262625,-4.292929292929293 -1.1616161616161613,-4.191919191919193 -1.0606060606060603,-4.090909090909091 -0.9595959595959596,-3.98989898989899 -0.8585858585858579,-3.8888888888888884 -0.7575757575757572,-3.7878787878787876 -0.6565656565656557,-3.6868686868686864 -0.555555555555555,-3.5858585858585856 -0.4545454545454544,-3.484848484848485 -0.35353535353535287,-3.383838383838383 -0.2525252525252522,-3.2828282828282824 -0.15151515151515066,-3.1818181818181817 -0.05050505050505001,-3.0808080808080804 0.050505050505051545,-2.9797979797979792 0.1515151515151522,-2.8787878787878785 0.2525252525252529,-2.7777777777777777 0.3535353535353544,-2.6767676767676765 0.4545454545454551,-2.5757575757575752 0.5555555555555567,-2.474747474747474 0.6565656565656574,-2.3737373737373733 0.7575757575757579,-2.2727272727272725 0.8585858585858596,-2.1717171717171713 0.9595959595959602,-2.07070707070707 1.0606060606060617,-1.9696969696969693 1.1616161616161622,-1.8686868686868683 1.262626262626263,-1.7676767676767675 1.3636363636363644,-1.6666666666666665 1.4646464646464652,-1.5656565656565653 1.5656565656565666,-1.4646464646464643 1.6666666666666674,-1.363636363636363 1.767676767676768,-1.2626262626262625 1.8686868686868696,-1.1616161616161613 1.8686868686868696,-1.0606060606060603 1.8686868686868696,-0.9595959595959596 1.8686868686868696,-0.8585858585858579 1.8686868686868696,-0.7575757575757572 1.8686868686868696,-0.6565656565656557 1.8686868686868696,-0.555555555555555 1.8686868686868696,-0.4545454545454544 1.8686868686868696,-0.35353535353535287 1.8686868686868696,-0.2525252525252522 1.8686868686868696,-0.15151515151515066 1.8686868686868696,-0.05050505050505001 1.8686868686868696,0.050505050505051545 1.8686868686868696,0.1515151515151522 1.8686868686868696,0.2525252525252529 1.8686868686868696,0.3535353535353544 1.8686868686868696,0.4545454545454551 1.8686868686868696,0.5555555555555567 1.8686868686868696,0.6565656565656574 1.8686868686868696,0.7575757575757579 1.8686868686868696,0.8585858585858596 1.8686868686868696,0.9595959595959602 1.8686868686868696,1.0606060606060617 1.8686868686868696,1.1616161616161622 1.8686868686868696,1.262626262626263 1.8686868686868696,1.3636363636363644 1.8686868686868696,1.4646464646464652 1.8686868686868696,1.5656565656565666 1.8686868686868696,1.6666666666666674 1.8686868686868696,1.767676767676768 1.8686868686868696,1.8686868686868696 1.8686868686868696,1.9696969696969702 1.8686868686868696,2.070707070707072 1.8686868686868696,2.1717171717171726 1.8686868686868696,2.2727272727272734 1.8686868686868696,2.373737373737375 1.8686868686868696,2.4747474747474754 1.8686868686868696,2.575757575757577 1.8686868686868696,2.676767676767678 1.8686868686868696,2.7777777777777786 1.8686868686868696,2.87878787878788 1.8686868686868696,2.9797979797979806 1.8686868686868696,3.080808080808082 1.8686868686868696,3.181818181818183 1.8686868686868696,3.2828282828282833 1.8686868686868696,3.383838383838384 1.8686868686868696,3.4848484848484866 1.8686868686868696,3.5858585858585874 1.8686868686868696,3.6868686868686877 1.8686868686868696,3.7878787878787885 1.8686868686868696,3.8888888888888893 1.8686868686868696,3.989898989898992 1.8686868686868696,4.090909090909092 1.8686868686868696,4.191919191919193 1.8686868686868696,4.292929292929293 1.8686868686868696,4.393939393939394 1.8686868686868696,4.494949494949497 1.8686868686868696,4.595959595959597 1.8686868686868696,4.696969696969697 1.8686868686868696,4.7979797979797985 1.8686868686868696,4.898989898989901 1.8686868686868696,5.000000000000002" data-type="line" data-label="" points="326.0606060606061,984 335.59595959595964,974.4646464646464 345.13131313131316,964.9292929292928 354.6666666666667,955.3939393939394 364.2020202020202,945.8585858585858 373.7373737373738,936.3232323232323 383.2727272727273,926.7878787878788 392.80808080808083,917.2525252525252 402.34343434343435,907.7171717171718 411.8787878787879,898.1818181818181 421.4141414141414,888.6464646464647 430.949494949495,879.1111111111111 440.4848484848485,869.5757575757575 450.0202020202021,860.0404040404039 459.55555555555554,850.5050505050505 469.09090909090907,840.969696969697 478.62626262626264,831.4343434343434 488.16161616161617,821.8989898989898 497.69696969696975,812.3636363636363 507.2323232323232,802.8282828282828 516.7676767676768,793.2929292929292 526.3030303030303,783.7575757575758 535.8383838383838,774.2222222222222 545.3737373737374,764.6868686868687 554.9090909090909,755.1515151515151 564.4444444444445,745.6161616161615 573.9797979797979,736.0808080808081 583.5151515151515,726.5454545454545 593.0505050505051,717.010101010101 602.5858585858585,707.4747474747475 612.1212121212121,697.939393939394 621.6565656565656,688.4040404040404 631.1919191919192,678.8686868686868 640.7272727272727,669.3333333333334 650.2626262626262,659.7979797979798 659.7979797979798,650.2626262626263 669.3333333333333,640.7272727272727 678.8686868686868,631.1919191919193 688.4040404040404,621.6565656565657 688.4040404040404,612.1212121212121 688.4040404040404,602.5858585858587 688.4040404040404,593.0505050505051 688.4040404040404,583.5151515151516 688.4040404040404,573.979797979798 688.4040404040404,564.4444444444445 688.4040404040404,554.909090909091 688.4040404040404,545.3737373737374 688.4040404040404,535.838383838384 688.4040404040404,526.3030303030304 688.4040404040404,516.7676767676768 688.4040404040404,507.23232323232327 688.4040404040404,497.69696969696975 688.4040404040404,488.1616161616163 688.4040404040404,478.6262626262627 688.4040404040404,469.0909090909092 688.4040404040404,459.5555555555556 688.4040404040404,450.0202020202021 688.4040404040404,440.4848484848486 688.4040404040404,430.94949494949503 688.4040404040404,421.4141414141415 688.4040404040404,411.87878787878793 688.4040404040404,402.3434343434344 688.4040404040404,392.80808080808094 688.4040404040404,383.27272727272737 688.4040404040404,373.73737373737384 688.4040404040404,364.2020202020203 688.4040404040404,354.66666666666674 688.4040404040404,345.1313131313133 688.4040404040404,335.5959595959597 688.4040404040404,326.06060606060623 688.4040404040404,316.5252525252526 688.4040404040404,306.9898989898991 688.4040404040404,297.4545454545456 688.4040404040404,287.91919191919203 688.4040404040404,278.38383838383857 688.4040404040404,268.84848484848493 688.4040404040404,259.3131313131314 688.4040404040404,249.77777777777794 688.4040404040404,240.24242424242436 688.4040404040404,230.70707070707084 688.4040404040404,221.17171717171726 688.4040404040404,211.63636363636374 688.4040404040404,202.10101010101027 688.4040404040404,192.56565656565675 688.4040404040404,183.03030303030312 688.4040404040404,173.4949494949496 688.4040404040404,163.95959595959613 688.4040404040404,154.4242424242426 688.4040404040404,144.88888888888908 688.4040404040404,135.35353535353545 688.4040404040404,125.81818181818198 688.4040404040404,116.28282828282846 688.4040404040404,106.747474747475 688.4040404040404,97.21212121212153 688.4040404040404,87.67676767676778 688.4040404040404,78.14141414141432 688.4040404040404,68.60606060606085 688.4040404040404,59.07070707070733 688.4040404040404,49.53535353535369 688.4040404040404,40.000000000000114" fill="none" stroke="rgba(0,0,255,0.75)" stroke-width="11.327999999999996"/></g><g><polyline data-points="5.000000000000002,2.373737373737375 5.000000000000002,2.2727272727272734 5.000000000000002,2.1717171717171726 5.000000000000002,2.070707070707072 5.000000000000002,1.9696969696969702 5.000000000000002,1.8686868686868696 5.000000000000002,1.767676767676768 5.000000000000002,1.6666666666666674 5.000000000000002,1.5656565656565666 5.000000000000002,1.4646464646464652 5.000000000000002,1.3636363636363644 5.000000000000002,1.262626262626263 5.000000000000002,1.1616161616161622 5.000000000000002,1.0606060606060617 5.000000000000002,0.9595959595959602 5.000000000000002,0.8585858585858596 5.000000000000002,0.7575757575757579 5.000000000000002,0.6565656565656574 5.000000000000002,0.5555555555555567 5.000000000000002,0.4545454545454551 5.000000000000002,0.3535353535353544 5.000000000000002,0.2525252525252529 5.000000000000002,0.1515151515151522 5.000000000000002,0.050505050505051545" data-type="line" data-label="" points="984,287.91919191919203 984,297.4545454545456 984,306.9898989898991 984,316.5252525252526 984,326.06060606060623 984,335.5959595959597 984,345.1313131313133 984,354.66666666666674 984,364.2020202020203 984,373.73737373737384 984,383.27272727272737 984,392.80808080808094 984,402.3434343434344 984,411.87878787878793 984,421.4141414141415 984,430.94949494949503 984,440.4848484848486 984,450.0202020202021 984,459.5555555555556 984,469.0909090909092 984,478.6262626262627 984,488.1616161616163 984,497.69696969696975 984,507.23232323232327" fill="none" stroke="rgba(255,0,0,0.75)" stroke-width="11.327999999999996"/></g><g><polyline data-points="-5.000000000000001,3.4848484848484866 -4.898989898989899,3.383838383838384 -4.898989898989899,3.2828282828282833 -4.7979797979797985,3.181818181818183 -4.696969696969697,3.080808080808082 -4.595959595959596,2.9797979797979806 -4.494949494949496,2.87878787878788 -4.393939393939394,2.7777777777777786 -4.292929292929293,2.676767676767678 -4.191919191919193,2.575757575757577 -4.090909090909091,2.4747474747474754 -3.98989898989899,2.373737373737375 -3.8888888888888884,2.2727272727272734 -3.7878787878787876,2.1717171717171726 -3.6868686868686864,2.070707070707072 -3.5858585858585856,1.9696969696969702 -3.484848484848485,1.8686868686868696 -3.383838383838383,1.767676767676768 -3.2828282828282824,1.6666666666666674 -3.1818181818181817,1.5656565656565666 -3.0808080808080804,1.4646464646464652 -2.9797979797979792,1.3636363636363644 -2.8787878787878785,1.262626262626263 -2.7777777777777777,1.1616161616161622 -2.6767676767676765,1.0606060606060617 -2.5757575757575752,0.9595959595959602 -2.474747474747474,0.8585858585858596 -2.474747474747474,0.7575757575757579 -2.3737373737373733,0.6565656565656574 -2.2727272727272725,0.5555555555555567 -2.1717171717171713,0.4545454545454551 -2.07070707070707,0.3535353535353544" data-type="line" data-label="" points="40.00000000000006,183.03030303030312 49.53535353535369,192.56565656565675 49.53535353535369,202.10101010101027 59.07070707070716,211.63636363636374 68.60606060606068,221.17171717171726 78.14141414141426,230.70707070707084 87.67676767676772,240.24242424242436 97.21212121212136,249.77777777777794 106.74747474747483,259.3131313131314 116.28282828282829,268.84848484848493 125.81818181818193,278.38383838383857 135.35353535353545,287.91919191919203 144.88888888888903,297.4545454545456 154.42424242424255,306.9898989898991 163.95959595959607,316.5252525252526 173.4949494949496,326.06060606060623 183.03030303030312,335.5959595959597 192.5656565656567,345.1313131313133 202.10101010101022,354.66666666666674 211.63636363636374,364.2020202020203 221.17171717171726,373.73737373737384 230.70707070707084,383.27272727272737 240.2424242424243,392.80808080808094 249.77777777777783,402.3434343434344 259.3131313131314,411.87878787878793 268.84848484848493,421.4141414141415 278.38383838383845,430.94949494949503 278.38383838383845,440.4848484848486 287.91919191919203,450.0202020202021 297.4545454545455,459.5555555555556 306.9898989898991,469.0909090909092 316.5252525252526,478.6262626262627" fill="none" stroke="rgba(0,0,255,0.75)" stroke-width="11.327999999999996"/></g><g><polyline data-points="-2.07070707070707,0.3535353535353544 -1.9696969696969693,0.2525252525252529 -1.8686868686868683,0.1515151515151522 -1.7676767676767675,0.050505050505051545 -1.6666666666666665,-0.05050505050505001 -1.5656565656565653,-0.15151515151515066 -1.4646464646464643,-0.2525252525252522 -1.363636363636363,-0.35353535353535287 -1.2626262626262625,-0.4545454545454544 -1.1616161616161613,-0.555555555555555 -1.0606060606060603,-0.6565656565656557 -0.9595959595959596,-0.7575757575757572 -0.8585858585858579,-0.8585858585858579 -0.7575757575757572,-0.9595959595959596 -0.6565656565656557,-1.0606060606060603 -0.555555555555555,-1.1616161616161613 -0.4545454545454544,-1.2626262626262625 -0.35353535353535287,-1.363636363636363 -0.35353535353535287,-1.4646464646464643" data-type="line" data-label="" points="316.5252525252526,478.6262626262627 326.0606060606061,488.1616161616163 335.59595959595964,497.69696969696975 345.13131313131316,507.23232323232327 354.6666666666667,516.7676767676768 364.2020202020202,526.3030303030304 373.7373737373738,535.838383838384 383.2727272727273,545.3737373737374 392.80808080808083,554.909090909091 402.34343434343435,564.4444444444445 411.8787878787879,573.979797979798 421.4141414141414,583.5151515151516 430.949494949495,593.0505050505051 440.4848484848485,602.5858585858587 450.0202020202021,612.1212121212121 459.55555555555554,621.6565656565657 469.09090909090907,631.1919191919193 478.62626262626264,640.7272727272727 478.62626262626264,650.2626262626263" fill="none" stroke="rgba(255,0,0,0.75)" stroke-width="11.327999999999996"/></g><g><polyline data-points="-0.35353535353535287,-1.4646464646464643 -0.35353535353535287,-1.5656565656565653 -0.35353535353535287,-1.6666666666666665 -0.35353535353535287,-1.7676767676767675 -0.35353535353535287,-1.8686868686868683 -0.35353535353535287,-1.9696969696969693 -0.35353535353535287,-2.07070707070707 -0.35353535353535287,-2.1717171717171713 -0.35353535353535287,-2.2727272727272725 -0.35353535353535287,-2.3737373737373733 -0.35353535353535287,-2.474747474747474 -0.35353535353535287,-2.5757575757575752 -0.35353535353535287,-2.6767676767676765 -0.35353535353535287,-2.7777777777777777 -0.35353535353535287,-2.8787878787878785" data-type="line" data-label="" points="478.62626262626264,650.2626262626263 478.62626262626264,659.7979797979798 478.62626262626264,669.3333333333334 478.62626262626264,678.8686868686868 478.62626262626264,688.4040404040404 478.62626262626264,697.939393939394 478.62626262626264,707.4747474747475 478.62626262626264,717.010101010101 478.62626262626264,726.5454545454545 478.62626262626264,736.0808080808081 478.62626262626264,745.6161616161615 478.62626262626264,755.1515151515151 478.62626262626264,764.6868686868687 478.62626262626264,774.2222222222222 478.62626262626264,783.7575757575758" fill="none" stroke="rgba(0,0,255,0.75)" stroke-width="11.327999999999996"/></g><g><polyline data-points="-0.35353535353535287,-2.8787878787878785 -0.35353535353535287,-2.9797979797979792 -0.35353535353535287,-3.0808080808080804 -0.35353535353535287,-3.1818181818181817 -0.35353535353535287,-3.2828282828282824 -0.35353535353535287,-3.383838383838383 -0.35353535353535287,-3.484848484848485 -0.35353535353535287,-3.5858585858585856 -0.35353535353535287,-3.6868686868686864 -0.35353535353535287,-3.7878787878787876 -0.35353535353535287,-3.8888888888888884 -0.35353535353535287,-3.98989898989899" data-type="line" data-label="" points="478.62626262626264,783.7575757575758 478.62626262626264,793.2929292929292 478.62626262626264,802.8282828282828 478.62626262626264,812.3636363636363 478.62626262626264,821.8989898989898 478.62626262626264,831.4343434343434 478.62626262626264,840.969696969697 478.62626262626264,850.5050505050505 478.62626262626264,860.0404040404039 478.62626262626264,869.5757575757575 478.62626262626264,879.1111111111111 478.62626262626264,888.6464646464647" fill="none" stroke="rgba(255,0,0,0.75)" stroke-width="11.327999999999996"/></g><g><polyline data-points="-0.35353535353535287,-3.98989898989899 -0.2525252525252522,-4.090909090909091 -0.15151515151515066,-4.191919191919193 -0.05050505050505001,-4.292929292929293 0.050505050505051545,-4.393939393939394 0.1515151515151522,-4.494949494949496 0.2525252525252529,-4.595959595959596 0.3535353535353544,-4.696969696969697 0.4545454545454551,-4.7979797979797985 0.5555555555555567,-4.898989898989899 0.6565656565656574,-5.000000000000001 0.7575757575757579,-5.000000000000001 0.8585858585858596,-5.000000000000001 0.9595959595959602,-5.000000000000001 1.0606060606060617,-5.000000000000001 1.1616161616161622,-5.000000000000001 1.262626262626263,-5.000000000000001 1.3636363636363644,-5.000000000000001 1.4646464646464652,-5.000000000000001 1.5656565656565666,-5.000000000000001 1.6666666666666674,-5.000000000000001 1.767676767676768,-5.000000000000001 1.8686868686868696,-5.000000000000001 1.9696969696969702,-5.000000000000001 2.070707070707072,-5.000000000000001 2.1717171717171726,-5.000000000000001 2.2727272727272734,-5.000000000000001 2.373737373737375,-5.000000000000001" data-type="line" data-label="" points="478.62626262626264,888.6464646464647 488.16161616161617,898.1818181818181 497.69696969696975,907.7171717171718 507.2323232323232,917.2525252525252 516.7676767676768,926.7878787878788 526.3030303030303,936.3232323232323 535.8383838383838,945.8585858585858 545.3737373737374,955.3939393939394 554.9090909090909,964.9292929292928 564.4444444444445,974.4646464646464 573.9797979797979,984 583.5151515151515,984 593.0505050505051,984 602.5858585858585,984 612.1212121212121,984 621.6565656565656,984 631.1919191919192,984 640.7272727272727,984 650.2626262626262,984 659.7979797979798,984 669.3333333333333,984 678.8686868686868,984 688.4040404040404,984 697.9393939393939,984 707.4747474747475,984 717.0101010101009,984 726.5454545454545,984 736.0808080808081,984" fill="none" stroke="rgba(0,0,255,0.75)" stroke-width="11.327999999999996"/></g><g><polyline data-points="-5.000000000000001,3.080808080808082 -4.898989898989899,2.9797979797979806 -4.7979797979797985,2.87878787878788 -4.696969696969697,2.7777777777777786 -4.595959595959596,2.676767676767678 -4.494949494949496,2.575757575757577 -4.393939393939394,2.4747474747474754 -4.292929292929293,2.373737373737375 -4.191919191919193,2.2727272727272734 -4.090909090909091,2.1717171717171726 -3.98989898989899,2.070707070707072 -3.98989898989899,1.9696969696969702 -3.98989898989899,1.8686868686868696" data-type="line" data-label="" points="40.00000000000006,221.17171717171726 49.53535353535369,230.70707070707084 59.07070707070716,240.24242424242436 68.60606060606068,249.77777777777794 78.14141414141426,259.3131313131314 87.67676767676772,268.84848484848493 97.21212121212136,278.38383838383857 106.74747474747483,287.91919191919203 116.28282828282829,297.4545454545456 125.81818181818193,306.9898989898991 135.35353535353545,316.5252525252526 135.35353535353545,326.06060606060623 135.35353535353545,335.5959595959597" fill="none" stroke="rgba(0,0,255,0.75)" stroke-width="11.327999999999996"/></g><g><polyline data-points="-3.98989898989899,1.8686868686868696 -3.8888888888888884,1.9696969696969702 -3.7878787878787876,2.070707070707072 -3.6868686868686864,2.1717171717171726 -3.5858585858585856,2.2727272727272734 -3.484848484848485,2.373737373737375 -3.383838383838383,2.4747474747474754 -3.2828282828282824,2.575757575757577 -3.1818181818181817,2.676767676767678 -3.0808080808080804,2.7777777777777786 -2.9797979797979792,2.87878787878788 -2.8787878787878785,2.9797979797979806 -2.7777777777777777,3.080808080808082 -2.6767676767676765,3.181818181818183 -2.5757575757575752,3.2828282828282833 -2.474747474747474,3.383838383838384 -2.3737373737373733,3.4848484848484866 -2.2727272727272725,3.4848484848484866 -2.1717171717171713,3.4848484848484866 -2.07070707070707,3.4848484848484866 -1.9696969696969693,3.4848484848484866 -1.8686868686868683,3.4848484848484866 -1.7676767676767675,3.4848484848484866 -1.6666666666666665,3.4848484848484866 -1.5656565656565653,3.4848484848484866 -1.4646464646464643,3.4848484848484866 -1.363636363636363,3.4848484848484866 -1.2626262626262625,3.4848484848484866 -1.1616161616161613,3.4848484848484866 -1.0606060606060603,3.4848484848484866 -0.9595959595959596,3.4848484848484866 -0.8585858585858579,3.4848484848484866 -0.7575757575757572,3.4848484848484866 -0.6565656565656557,3.4848484848484866 -0.555555555555555,3.4848484848484866 -0.4545454545454544,3.4848484848484866 -0.35353535353535287,3.4848484848484866" data-type="line" data-label="" points="135.35353535353545,335.5959595959597 144.88888888888903,326.06060606060623 154.42424242424255,316.5252525252526 163.95959595959607,306.9898989898991 173.4949494949496,297.4545454545456 183.03030303030312,287.91919191919203 192.5656565656567,278.38383838383857 202.10101010101022,268.84848484848493 211.63636363636374,259.3131313131314 221.17171717171726,249.77777777777794 230.70707070707084,240.24242424242436 240.2424242424243,230.70707070707084 249.77777777777783,221.17171717171726 259.3131313131314,211.63636363636374 268.84848484848493,202.10101010101027 278.38383838383845,192.56565656565675 287.91919191919203,183.03030303030312 297.4545454545455,183.03030303030312 306.9898989898991,183.03030303030312 316.5252525252526,183.03030303030312 326.0606060606061,183.03030303030312 335.59595959595964,183.03030303030312 345.13131313131316,183.03030303030312 354.6666666666667,183.03030303030312 364.2020202020202,183.03030303030312 373.7373737373738,183.03030303030312 383.2727272727273,183.03030303030312 392.80808080808083,183.03030303030312 402.34343434343435,183.03030303030312 411.8787878787879,183.03030303030312 421.4141414141414,183.03030303030312 430.949494949495,183.03030303030312 440.4848484848485,183.03030303030312 450.0202020202021,183.03030303030312 459.55555555555554,183.03030303030312 469.09090909090907,183.03030303030312 478.62626262626264,183.03030303030312" fill="none" stroke="rgba(255,0,0,0.75)" stroke-width="11.327999999999996"/></g><g><polyline data-points="-0.35353535353535287,3.4848484848484866 -0.2525252525252522,3.4848484848484866 -0.15151515151515066,3.4848484848484866 -0.05050505050505001,3.4848484848484866 0.050505050505051545,3.4848484848484866 0.1515151515151522,3.4848484848484866 0.2525252525252529,3.4848484848484866 0.3535353535353544,3.5858585858585874 0.4545454545454551,3.5858585858585874 0.5555555555555567,3.4848484848484866 0.6565656565656574,3.5858585858585874 0.7575757575757579,3.6868686868686877 0.8585858585858596,3.7878787878787885 0.9595959595959602,3.8888888888888893 0.8585858585858596,3.989898989898992" data-type="line" data-label="" points="478.62626262626264,183.03030303030312 488.16161616161617,183.03030303030312 497.69696969696975,183.03030303030312 507.2323232323232,183.03030303030312 516.7676767676768,183.03030303030312 526.3030303030303,183.03030303030312 535.8383838383838,183.03030303030312 545.3737373737374,173.4949494949496 554.9090909090909,173.4949494949496 564.4444444444445,183.03030303030312 573.9797979797979,173.4949494949496 583.5151515151515,163.95959595959613 593.0505050505051,154.4242424242426 602.5858585858585,144.88888888888908 593.0505050505051,135.35353535353545" fill="none" stroke="rgba(0,0,255,0.75)" stroke-width="11.327999999999996"/></g><g><polyline data-points="0.8585858585858596,3.989898989898992 0.9595959595959602,4.090909090909092 1.0606060606060617,4.191919191919193 1.1616161616161622,4.292929292929293 1.262626262626263,4.393939393939394 1.3636363636363644,4.393939393939394 1.4646464646464652,4.393939393939394 1.5656565656565666,4.393939393939394 1.6666666666666674,4.393939393939394 1.767676767676768,4.393939393939394 1.8686868686868696,4.393939393939394 1.9696969696969702,4.393939393939394 2.070707070707072,4.393939393939394 2.1717171717171726,4.393939393939394 2.2727272727272734,4.393939393939394 2.373737373737375,4.393939393939394 2.4747474747474754,4.393939393939394 2.575757575757577,4.393939393939394 2.676767676767678,4.393939393939394 2.7777777777777786,4.393939393939394 2.87878787878788,4.393939393939394 2.9797979797979806,4.393939393939394 3.080808080808082,4.393939393939394 3.181818181818183,4.393939393939394 3.2828282828282833,4.393939393939394 3.383838383838384,4.393939393939394 3.4848484848484866,4.393939393939394 3.5858585858585874,4.393939393939394 3.6868686868686877,4.393939393939394 3.7878787878787885,4.393939393939394 3.8888888888888893,4.393939393939394 3.989898989898992,4.393939393939394 4.090909090909092,4.292929292929293 4.191919191919193,4.191919191919193 4.292929292929293,4.090909090909092 4.292929292929293,3.989898989898992 4.191919191919193,3.8888888888888893 4.090909090909092,3.7878787878787885 3.989898989898992,3.6868686868686877 3.8888888888888893,3.5858585858585874" data-type="line" data-label="" points="593.0505050505051,135.35353535353545 602.5858585858585,125.81818181818198 612.1212121212121,116.28282828282846 621.6565656565656,106.747474747475 631.1919191919192,97.21212121212153 640.7272727272727,97.21212121212153 650.2626262626262,97.21212121212153 659.7979797979798,97.21212121212153 669.3333333333333,97.21212121212153 678.8686868686868,97.21212121212153 688.4040404040404,97.21212121212153 697.9393939393939,97.21212121212153 707.4747474747475,97.21212121212153 717.0101010101009,97.21212121212153 726.5454545454545,97.21212121212153 736.0808080808081,97.21212121212153 745.6161616161615,97.21212121212153 755.1515151515151,97.21212121212153 764.6868686868686,97.21212121212153 774.2222222222222,97.21212121212153 783.7575757575758,97.21212121212153 793.2929292929292,97.21212121212153 802.8282828282828,97.21212121212153 812.3636363636363,97.21212121212153 821.8989898989898,97.21212121212153 831.4343434343433,97.21212121212153 840.969696969697,97.21212121212153 850.5050505050505,97.21212121212153 860.0404040404039,97.21212121212153 869.5757575757575,97.21212121212153 879.111111111111,97.21212121212153 888.6464646464647,97.21212121212153 898.181818181818,106.747474747475 907.7171717171716,116.28282828282846 917.2525252525251,125.81818181818198 917.2525252525251,135.35353535353545 907.7171717171716,144.88888888888908 898.181818181818,154.4242424242426 888.6464646464647,163.95959595959613 879.111111111111,173.4949494949496" fill="none" stroke="rgba(255,0,0,0.75)" stroke-width="11.327999999999996"/></g><g><polyline data-points="3.8888888888888893,3.5858585858585874 3.8888888888888893,3.6868686868686877 3.7878787878787885,3.7878787878787885 3.6868686868686877,3.8888888888888893 3.5858585858585874,3.989898989898992 3.6868686868686877,4.090909090909092 3.7878787878787885,4.191919191919193 3.8888888888888893,4.292929292929293 3.989898989898992,4.393939393939394 4.090909090909092,4.494949494949497 4.191919191919193,4.595959595959597 4.292929292929293,4.696969696969697 4.393939393939394,4.7979797979797985 4.494949494949497,4.898989898989901 4.595959595959597,4.7979797979797985 4.696969696969697,4.7979797979797985 4.7979797979797985,4.7979797979797985 4.898989898989901,4.7979797979797985 5.000000000000002,4.898989898989901" data-type="line" data-label="" points="879.111111111111,173.4949494949496 879.111111111111,163.95959595959613 869.5757575757575,154.4242424242426 860.0404040404039,144.88888888888908 850.5050505050505,135.35353535353545 860.0404040404039,125.81818181818198 869.5757575757575,116.28282828282846 879.111111111111,106.747474747475 888.6464646464647,97.21212121212153 898.181818181818,87.67676767676778 907.7171717171716,78.14141414141432 917.2525252525251,68.60606060606085 926.7878787878785,59.07070707070733 936.3232323232323,49.53535353535369 945.8585858585857,59.07070707070733 955.3939393939393,59.07070707070733 964.9292929292927,59.07070707070733 974.4646464646464,59.07070707070733 984,49.53535353535369" fill="none" stroke="rgba(0,0,255,0.75)" stroke-width="11.327999999999996"/></g><g><polyline data-points="0.7575757575757579,5.000000000000002 0.7575757575757579,4.898989898989901 0.7575757575757579,4.7979797979797985 0.7575757575757579,4.696969696969697 0.7575757575757579,4.595959595959597 0.7575757575757579,4.494949494949497 0.7575757575757579,4.393939393939394 0.8585858585858596,4.292929292929293 0.9595959595959602,4.191919191919193 1.0606060606060617,4.090909090909092 1.1616161616161622,3.989898989898992 1.1616161616161622,3.8888888888888893 1.1616161616161622,3.7878787878787885 1.0606060606060617,3.6868686868686877 0.9595959595959602,3.5858585858585874 0.8585858585858596,3.4848484848484866 0.7575757575757579,3.383838383838384 0.6565656565656574,3.2828282828282833 0.5555555555555567,3.181818181818183 0.4545454545454551,3.080808080808082 0.3535353535353544,2.9797979797979806 0.2525252525252529,2.87878787878788 0.2525252525252529,2.7777777777777786 0.2525252525252529,2.676767676767678 0.2525252525252529,2.575757575757577" data-type="line" data-label="" points="583.5151515151515,40.000000000000114 583.5151515151515,49.53535353535369 583.5151515151515,59.07070707070733 583.5151515151515,68.60606060606085 583.5151515151515,78.14141414141432 583.5151515151515,87.67676767676778 583.5151515151515,97.21212121212153 593.0505050505051,106.747474747475 602.5858585858585,116.28282828282846 612.1212121212121,125.81818181818198 621.6565656565656,135.35353535353545 621.6565656565656,144.88888888888908 621.6565656565656,154.4242424242426 612.1212121212121,163.95959595959613 602.5858585858585,173.4949494949496 593.0505050505051,183.03030303030312 583.5151515151515,192.56565656565675 573.9797979797979,202.10101010101027 564.4444444444445,211.63636363636374 554.9090909090909,221.17171717171726 545.3737373737374,230.70707070707084 535.8383838383838,240.24242424242436 535.8383838383838,249.77777777777794 535.8383838383838,259.3131313131314 535.8383838383838,268.84848484848493" fill="none" stroke="rgba(0,0,255,0.75)" stroke-width="11.327999999999996"/></g><g><polyline data-points="0.2525252525252529,2.575757575757577 0.2525252525252529,2.4747474747474754 0.2525252525252529,2.373737373737375 0.2525252525252529,2.2727272727272734 0.2525252525252529,2.1717171717171726 0.2525252525252529,2.070707070707072 0.2525252525252529,1.9696969696969702 0.2525252525252529,1.8686868686868696 0.2525252525252529,1.767676767676768 0.2525252525252529,1.6666666666666674 0.2525252525252529,1.5656565656565666 0.2525252525252529,1.4646464646464652 0.2525252525252529,1.3636363636363644 0.2525252525252529,1.262626262626263 0.2525252525252529,1.1616161616161622 0.2525252525252529,1.0606060606060617 0.2525252525252529,0.9595959595959602 0.2525252525252529,0.8585858585858596 0.2525252525252529,0.7575757575757579 0.2525252525252529,0.6565656565656574 0.2525252525252529,0.5555555555555567 0.2525252525252529,0.4545454545454551 0.2525252525252529,0.3535353535353544 0.2525252525252529,0.2525252525252529 0.2525252525252529,0.1515151515151522 0.2525252525252529,0.050505050505051545 0.2525252525252529,-0.05050505050505001 0.2525252525252529,-0.15151515151515066 0.2525252525252529,-0.2525252525252522 0.2525252525252529,-0.35353535353535287 0.2525252525252529,-0.4545454545454544 0.2525252525252529,-0.555555555555555 0.2525252525252529,-0.6565656565656557 0.2525252525252529,-0.7575757575757572 0.2525252525252529,-0.8585858585858579 0.2525252525252529,-0.9595959595959596 0.2525252525252529,-1.0606060606060603 0.2525252525252529,-1.1616161616161613 0.2525252525252529,-1.2626262626262625 0.2525252525252529,-1.363636363636363 0.2525252525252529,-1.4646464646464643 0.2525252525252529,-1.5656565656565653 0.2525252525252529,-1.6666666666666665 0.2525252525252529,-1.7676767676767675 0.2525252525252529,-1.8686868686868683 0.1515151515151522,-1.9696969696969693 0.1515151515151522,-2.07070707070707 0.1515151515151522,-2.1717171717171713 0.1515151515151522,-2.2727272727272725 0.1515151515151522,-2.3737373737373733 0.1515151515151522,-2.474747474747474 0.1515151515151522,-2.5757575757575752 0.1515151515151522,-2.6767676767676765 0.1515151515151522,-2.7777777777777777 0.1515151515151522,-2.8787878787878785 0.1515151515151522,-2.9797979797979792 0.1515151515151522,-3.0808080808080804 0.1515151515151522,-3.1818181818181817 0.1515151515151522,-3.2828282828282824 0.1515151515151522,-3.383838383838383 0.1515151515151522,-3.484848484848485 0.1515151515151522,-3.5858585858585856 0.1515151515151522,-3.6868686868686864 0.1515151515151522,-3.7878787878787876 0.1515151515151522,-3.8888888888888884 0.1515151515151522,-3.98989898989899 0.1515151515151522,-4.090909090909091 0.1515151515151522,-4.191919191919193 0.1515151515151522,-4.292929292929293 0.1515151515151522,-4.393939393939394 0.1515151515151522,-4.494949494949496 0.1515151515151522,-4.595959595959596 0.1515151515151522,-4.696969696969697 0.1515151515151522,-4.7979797979797985 0.1515151515151522,-4.898989898989899 0.050505050505051545,-5.000000000000001" data-type="line" data-label="" points="535.8383838383838,268.84848484848493 535.8383838383838,278.38383838383857 535.8383838383838,287.91919191919203 535.8383838383838,297.4545454545456 535.8383838383838,306.9898989898991 535.8383838383838,316.5252525252526 535.8383838383838,326.06060606060623 535.8383838383838,335.5959595959597 535.8383838383838,345.1313131313133 535.8383838383838,354.66666666666674 535.8383838383838,364.2020202020203 535.8383838383838,373.73737373737384 535.8383838383838,383.27272727272737 535.8383838383838,392.80808080808094 535.8383838383838,402.3434343434344 535.8383838383838,411.87878787878793 535.8383838383838,421.4141414141415 535.8383838383838,430.94949494949503 535.8383838383838,440.4848484848486 535.8383838383838,450.0202020202021 535.8383838383838,459.5555555555556 535.8383838383838,469.0909090909092 535.8383838383838,478.6262626262627 535.8383838383838,488.1616161616163 535.8383838383838,497.69696969696975 535.8383838383838,507.23232323232327 535.8383838383838,516.7676767676768 535.8383838383838,526.3030303030304 535.8383838383838,535.838383838384 535.8383838383838,545.3737373737374 535.8383838383838,554.909090909091 535.8383838383838,564.4444444444445 535.8383838383838,573.979797979798 535.8383838383838,583.5151515151516 535.8383838383838,593.0505050505051 535.8383838383838,602.5858585858587 535.8383838383838,612.1212121212121 535.8383838383838,621.6565656565657 535.8383838383838,631.1919191919193 535.8383838383838,640.7272727272727 535.8383838383838,650.2626262626263 535.8383838383838,659.7979797979798 535.8383838383838,669.3333333333334 535.8383838383838,678.8686868686868 535.8383838383838,688.4040404040404 526.3030303030303,697.939393939394 526.3030303030303,707.4747474747475 526.3030303030303,717.010101010101 526.3030303030303,726.5454545454545 526.3030303030303,736.0808080808081 526.3030303030303,745.6161616161615 526.3030303030303,755.1515151515151 526.3030303030303,764.6868686868687 526.3030303030303,774.2222222222222 526.3030303030303,783.7575757575758 526.3030303030303,793.2929292929292 526.3030303030303,802.8282828282828 526.3030303030303,812.3636363636363 526.3030303030303,821.8989898989898 526.3030303030303,831.4343434343434 526.3030303030303,840.969696969697 526.3030303030303,850.5050505050505 526.3030303030303,860.0404040404039 526.3030303030303,869.5757575757575 526.3030303030303,879.1111111111111 526.3030303030303,888.6464646464647 526.3030303030303,898.1818181818181 526.3030303030303,907.7171717171718 526.3030303030303,917.2525252525252 526.3030303030303,926.7878787878788 526.3030303030303,936.3232323232323 526.3030303030303,945.8585858585858 526.3030303030303,955.3939393939394 526.3030303030303,964.9292929292928 526.3030303030303,974.4646464646464 516.7676767676768,984" fill="none" stroke="rgba(255,0,0,0.75)" stroke-width="11.327999999999996"/></g><g><polyline data-points="5.000000000000002,-2.7777777777777777 4.898989898989901,-2.7777777777777777 4.7979797979797985,-2.6767676767676765 4.696969696969697,-2.5757575757575752 4.595959595959597,-2.474747474747474 4.494949494949497,-2.3737373737373733 4.393939393939394,-2.2727272727272725 4.292929292929293,-2.1717171717171713 4.191919191919193,-2.07070707070707 4.292929292929293,-1.9696969696969693 4.191919191919193,-1.8686868686868683 4.090909090909092,-1.7676767676767675 3.989898989898992,-1.7676767676767675 3.8888888888888893,-1.7676767676767675 3.7878787878787885,-1.7676767676767675 3.6868686868686877,-1.7676767676767675 3.5858585858585874,-1.7676767676767675 3.4848484848484866,-1.7676767676767675 3.383838383838384,-1.7676767676767675 3.2828282828282833,-1.7676767676767675 3.181818181818183,-1.7676767676767675 3.080808080808082,-1.7676767676767675 2.9797979797979806,-1.7676767676767675 2.87878787878788,-1.7676767676767675 2.7777777777777786,-1.7676767676767675 2.676767676767678,-1.7676767676767675 2.575757575757577,-1.7676767676767675 2.4747474747474754,-1.7676767676767675 2.373737373737375,-1.7676767676767675 2.2727272727272734,-1.7676767676767675 2.1717171717171726,-1.7676767676767675 2.070707070707072,-1.7676767676767675 1.9696969696969702,-1.7676767676767675 1.8686868686868696,-1.7676767676767675 1.767676767676768,-1.7676767676767675" data-type="line" data-label="" points="984,774.2222222222222 974.4646464646464,774.2222222222222 964.9292929292927,764.6868686868687 955.3939393939393,755.1515151515151 945.8585858585857,745.6161616161615 936.3232323232323,736.0808080808081 926.7878787878785,726.5454545454545 917.2525252525251,717.010101010101 907.7171717171716,707.4747474747475 917.2525252525251,697.939393939394 907.7171717171716,688.4040404040404 898.181818181818,678.8686868686868 888.6464646464647,678.8686868686868 879.111111111111,678.8686868686868 869.5757575757575,678.8686868686868 860.0404040404039,678.8686868686868 850.5050505050505,678.8686868686868 840.969696969697,678.8686868686868 831.4343434343433,678.8686868686868 821.8989898989898,678.8686868686868 812.3636363636363,678.8686868686868 802.8282828282828,678.8686868686868 793.2929292929292,678.8686868686868 783.7575757575758,678.8686868686868 774.2222222222222,678.8686868686868 764.6868686868686,678.8686868686868 755.1515151515151,678.8686868686868 745.6161616161615,678.8686868686868 736.0808080808081,678.8686868686868 726.5454545454545,678.8686868686868 717.0101010101009,678.8686868686868 707.4747474747475,678.8686868686868 697.9393939393939,678.8686868686868 688.4040404040404,678.8686868686868 678.8686868686868,678.8686868686868" fill="none" stroke="rgba(0,0,255,0.75)" stroke-width="11.327999999999996"/></g><g><polyline data-points="1.767676767676768,-1.7676767676767675 1.6666666666666674,-1.8686868686868683 1.5656565656565666,-1.7676767676767675 1.4646464646464652,-1.7676767676767675 1.3636363636363644,-1.7676767676767675 1.262626262626263,-1.7676767676767675 1.1616161616161622,-1.7676767676767675 1.0606060606060617,-1.7676767676767675 0.9595959595959602,-1.7676767676767675 0.8585858585858596,-1.7676767676767675 0.7575757575757579,-1.7676767676767675 0.6565656565656574,-1.7676767676767675" data-type="line" data-label="" points="678.8686868686868,678.8686868686868 669.3333333333333,688.4040404040404 659.7979797979798,678.8686868686868 650.2626262626262,678.8686868686868 640.7272727272727,678.8686868686868 631.1919191919192,678.8686868686868 621.6565656565656,678.8686868686868 612.1212121212121,678.8686868686868 602.5858585858585,678.8686868686868 593.0505050505051,678.8686868686868 583.5151515151515,678.8686868686868 573.9797979797979,678.8686868686868" fill="none" stroke="rgba(255,0,0,0.75)" stroke-width="11.327999999999996"/></g><g><polyline data-points="0.6565656565656574,-1.7676767676767675 0.5555555555555567,-1.7676767676767675 0.4545454545454551,-1.7676767676767675 0.3535353535353544,-1.7676767676767675 0.2525252525252529,-1.6666666666666665 0.1515151515151522,-1.5656565656565653 0.050505050505051545,-1.4646464646464643 -0.05050505050505001,-1.4646464646464643 -0.15151515151515066,-1.363636363636363 -0.2525252525252522,-1.2626262626262625 -0.35353535353535287,-1.1616161616161613 -0.4545454545454544,-1.1616161616161613 -0.555555555555555,-1.1616161616161613 -0.6565656565656557,-1.1616161616161613 -0.7575757575757572,-1.1616161616161613 -0.8585858585858579,-1.1616161616161613 -0.9595959595959596,-1.1616161616161613 -1.0606060606060603,-1.1616161616161613 -1.1616161616161613,-1.1616161616161613 -1.2626262626262625,-1.1616161616161613 -1.363636363636363,-1.1616161616161613 -1.4646464646464643,-1.1616161616161613 -1.5656565656565653,-1.1616161616161613 -1.6666666666666665,-1.1616161616161613 -1.7676767676767675,-1.1616161616161613 -1.8686868686868683,-1.1616161616161613 -1.9696969696969693,-1.1616161616161613 -2.07070707070707,-1.1616161616161613 -2.1717171717171713,-1.1616161616161613 -2.2727272727272725,-1.1616161616161613 -2.3737373737373733,-1.1616161616161613 -2.474747474747474,-1.1616161616161613" data-type="line" data-label="" points="573.9797979797979,678.8686868686868 564.4444444444445,678.8686868686868 554.9090909090909,678.8686868686868 545.3737373737374,678.8686868686868 535.8383838383838,669.3333333333334 526.3030303030303,659.7979797979798 516.7676767676768,650.2626262626263 507.2323232323232,650.2626262626263 497.69696969696975,640.7272727272727 488.16161616161617,631.1919191919193 478.62626262626264,621.6565656565657 469.09090909090907,621.6565656565657 459.55555555555554,621.6565656565657 450.0202020202021,621.6565656565657 440.4848484848485,621.6565656565657 430.949494949495,621.6565656565657 421.4141414141414,621.6565656565657 411.8787878787879,621.6565656565657 402.34343434343435,621.6565656565657 392.80808080808083,621.6565656565657 383.2727272727273,621.6565656565657 373.7373737373738,621.6565656565657 364.2020202020202,621.6565656565657 354.6666666666667,621.6565656565657 345.13131313131316,621.6565656565657 335.59595959595964,621.6565656565657 326.0606060606061,621.6565656565657 316.5252525252526,621.6565656565657 306.9898989898991,621.6565656565657 297.4545454545455,621.6565656565657 287.91919191919203,621.6565656565657 278.38383838383845,621.6565656565657" fill="none" stroke="rgba(0,0,255,0.75)" stroke-width="11.327999999999996"/></g><g><polyline data-points="-2.474747474747474,-1.1616161616161613 -2.5757575757575752,-1.1616161616161613 -2.6767676767676765,-1.1616161616161613 -2.7777777777777777,-1.1616161616161613 -2.8787878787878785,-1.1616161616161613 -2.9797979797979792,-1.1616161616161613 -3.0808080808080804,-1.1616161616161613 -3.1818181818181817,-1.1616161616161613 -3.2828282828282824,-1.0606060606060603 -3.383838383838383,-0.9595959595959596" data-type="line" data-label="" points="278.38383838383845,621.6565656565657 268.84848484848493,621.6565656565657 259.3131313131314,621.6565656565657 249.77777777777783,621.6565656565657 240.2424242424243,621.6565656565657 230.70707070707084,621.6565656565657 221.17171717171726,621.6565656565657 211.63636363636374,621.6565656565657 202.10101010101022,612.1212121212121 192.5656565656567,602.5858585858587" fill="none" stroke="rgba(255,0,0,0.75)" stroke-width="11.327999999999996"/></g><g><polyline data-points="-3.383838383838383,-0.9595959595959596 -3.484848484848485,-0.8585858585858579 -3.5858585858585856,-0.7575757575757572 -3.6868686868686864,-0.6565656565656557 -3.7878787878787876,-0.555555555555555 -3.8888888888888884,-0.555555555555555 -3.98989898989899,-0.4545454545454544" data-type="line" data-label="" points="192.5656565656567,602.5858585858587 183.03030303030312,593.0505050505051 173.4949494949496,583.5151515151516 163.95959595959607,573.979797979798 154.42424242424255,564.4444444444445 144.88888888888903,564.4444444444445 135.35353535353545,554.909090909091" fill="none" stroke="rgba(0,0,255,0.75)" stroke-width="11.327999999999996"/></g><g><polyline data-points="-3.98989898989899,-0.4545454545454544 -4.090909090909091,-0.555555555555555 -4.191919191919193,-0.6565656565656557 -4.292929292929293,-0.7575757575757572 -4.393939393939394,-0.8585858585858579 -4.494949494949496,-0.9595959595959596 -4.595959595959596,-1.0606060606060603 -4.696969696969697,-1.1616161616161613 -4.7979797979797985,-1.2626262626262625 -4.898989898989899,-1.363636363636363 -5.000000000000001,-1.4646464646464643 -5.000000000000001,-1.5656565656565653 -5.000000000000001,-1.6666666666666665 -5.000000000000001,-1.7676767676767675" data-type="line" data-label="" points="135.35353535353545,554.909090909091 125.81818181818193,564.4444444444445 116.28282828282829,573.979797979798 106.74747474747483,583.5151515151516 97.21212121212136,593.0505050505051 87.67676767676772,602.5858585858587 78.14141414141426,612.1212121212121 68.60606060606068,621.6565656565657 59.07070707070716,631.1919191919193 49.53535353535369,640.7272727272727 40.00000000000006,650.2626262626263 40.00000000000006,659.7979797979798 40.00000000000006,669.3333333333334 40.00000000000006,678.8686868686868" fill="none" stroke="rgba(255,0,0,0.75)" stroke-width="11.327999999999996"/></g><g><polyline data-points="2.676767676767678,-5.000000000000001 2.575757575757577,-5.000000000000001 2.4747474747474754,-4.898989898989899 2.373737373737375,-4.7979797979797985 2.2727272727272734,-4.696969696969697 2.1717171717171726,-4.595959595959596 2.070707070707072,-4.494949494949496 1.9696969696969702,-4.393939393939394 2.070707070707072,-4.292929292929293 2.070707070707072,-4.191919191919193 2.070707070707072,-4.090909090909091 2.070707070707072,-3.98989898989899 2.070707070707072,-3.8888888888888884 2.070707070707072,-3.7878787878787876 2.070707070707072,-3.6868686868686864 2.070707070707072,-3.5858585858585856 2.070707070707072,-3.484848484848485 2.070707070707072,-3.383838383838383 2.070707070707072,-3.2828282828282824 2.070707070707072,-3.1818181818181817 2.070707070707072,-3.0808080808080804 2.070707070707072,-2.9797979797979792 2.070707070707072,-2.8787878787878785 2.070707070707072,-2.7777777777777777 2.070707070707072,-2.6767676767676765 2.070707070707072,-2.5757575757575752 2.070707070707072,-2.474747474747474 2.070707070707072,-2.3737373737373733 2.070707070707072,-2.2727272727272725 2.070707070707072,-2.1717171717171713 2.070707070707072,-2.07070707070707 2.070707070707072,-1.9696969696969693 2.070707070707072,-1.8686868686868683 2.070707070707072,-1.7676767676767675 1.9696969696969702,-1.6666666666666665 1.8686868686868696,-1.5656565656565653 1.767676767676768,-1.4646464646464643 1.6666666666666674,-1.363636363636363 1.5656565656565666,-1.2626262626262625 1.4646464646464652,-1.1616161616161613 1.4646464646464652,-1.0606060606060603 1.4646464646464652,-0.9595959595959596 1.4646464646464652,-0.8585858585858579 1.4646464646464652,-0.7575757575757572 1.4646464646464652,-0.6565656565656557 1.4646464646464652,-0.555555555555555 1.4646464646464652,-0.4545454545454544 1.4646464646464652,-0.35353535353535287 1.4646464646464652,-0.2525252525252522 1.4646464646464652,-0.15151515151515066 1.4646464646464652,-0.05050505050505001 1.4646464646464652,0.050505050505051545 1.4646464646464652,0.1515151515151522 1.4646464646464652,0.2525252525252529 1.4646464646464652,0.3535353535353544 1.4646464646464652,0.4545454545454551 1.4646464646464652,0.5555555555555567 1.4646464646464652,0.6565656565656574 1.4646464646464652,0.7575757575757579 1.4646464646464652,0.8585858585858596 1.4646464646464652,0.9595959595959602 1.4646464646464652,1.0606060606060617 1.4646464646464652,1.1616161616161622 1.4646464646464652,1.262626262626263 1.4646464646464652,1.3636363636363644 1.4646464646464652,1.4646464646464652 1.4646464646464652,1.5656565656565666 1.4646464646464652,1.6666666666666674 1.4646464646464652,1.767676767676768 1.4646464646464652,1.8686868686868696 1.4646464646464652,1.9696969696969702 1.4646464646464652,2.070707070707072 1.4646464646464652,2.1717171717171726 1.4646464646464652,2.2727272727272734 1.4646464646464652,2.373737373737375 1.4646464646464652,2.4747474747474754 1.4646464646464652,2.575757575757577 1.4646464646464652,2.676767676767678 1.4646464646464652,2.7777777777777786" data-type="line" data-label="" points="764.6868686868686,984 755.1515151515151,984 745.6161616161615,974.4646464646464 736.0808080808081,964.9292929292928 726.5454545454545,955.3939393939394 717.0101010101009,945.8585858585858 707.4747474747475,936.3232323232323 697.9393939393939,926.7878787878788 707.4747474747475,917.2525252525252 707.4747474747475,907.7171717171718 707.4747474747475,898.1818181818181 707.4747474747475,888.6464646464647 707.4747474747475,879.1111111111111 707.4747474747475,869.5757575757575 707.4747474747475,860.0404040404039 707.4747474747475,850.5050505050505 707.4747474747475,840.969696969697 707.4747474747475,831.4343434343434 707.4747474747475,821.8989898989898 707.4747474747475,812.3636363636363 707.4747474747475,802.8282828282828 707.4747474747475,793.2929292929292 707.4747474747475,783.7575757575758 707.4747474747475,774.2222222222222 707.4747474747475,764.6868686868687 707.4747474747475,755.1515151515151 707.4747474747475,745.6161616161615 707.4747474747475,736.0808080808081 707.4747474747475,726.5454545454545 707.4747474747475,717.010101010101 707.4747474747475,707.4747474747475 707.4747474747475,697.939393939394 707.4747474747475,688.4040404040404 707.4747474747475,678.8686868686868 697.9393939393939,669.3333333333334 688.4040404040404,659.7979797979798 678.8686868686868,650.2626262626263 669.3333333333333,640.7272727272727 659.7979797979798,631.1919191919193 650.2626262626262,621.6565656565657 650.2626262626262,612.1212121212121 650.2626262626262,602.5858585858587 650.2626262626262,593.0505050505051 650.2626262626262,583.5151515151516 650.2626262626262,573.979797979798 650.2626262626262,564.4444444444445 650.2626262626262,554.909090909091 650.2626262626262,545.3737373737374 650.2626262626262,535.838383838384 650.2626262626262,526.3030303030304 650.2626262626262,516.7676767676768 650.2626262626262,507.23232323232327 650.2626262626262,497.69696969696975 650.2626262626262,488.1616161616163 650.2626262626262,478.6262626262627 650.2626262626262,469.0909090909092 650.2626262626262,459.5555555555556 650.2626262626262,450.0202020202021 650.2626262626262,440.4848484848486 650.2626262626262,430.94949494949503 650.2626262626262,421.4141414141415 650.2626262626262,411.87878787878793 650.2626262626262,402.3434343434344 650.2626262626262,392.80808080808094 650.2626262626262,383.27272727272737 650.2626262626262,373.73737373737384 650.2626262626262,364.2020202020203 650.2626262626262,354.66666666666674 650.2626262626262,345.1313131313133 650.2626262626262,335.5959595959597 650.2626262626262,326.06060606060623 650.2626262626262,316.5252525252526 650.2626262626262,306.9898989898991 650.2626262626262,297.4545454545456 650.2626262626262,287.91919191919203 650.2626262626262,278.38383838383857 650.2626262626262,268.84848484848493 650.2626262626262,259.3131313131314 650.2626262626262,249.77777777777794" fill="none" stroke="rgba(255,0,0,0.75)" stroke-width="11.327999999999996"/></g><g><polyline data-points="1.4646464646464652,2.7777777777777786 1.4646464646464652,2.87878787878788 1.4646464646464652,2.9797979797979806 1.5656565656565666,3.080808080808082 1.6666666666666674,3.181818181818183 1.6666666666666674,3.2828282828282833 1.6666666666666674,3.383838383838384 1.5656565656565666,3.4848484848484866 1.5656565656565666,3.5858585858585874 1.5656565656565666,3.6868686868686877 1.5656565656565666,3.7878787878787885 1.5656565656565666,3.8888888888888893 1.5656565656565666,3.989898989898992 1.4646464646464652,4.090909090909092 1.4646464646464652,4.191919191919193 1.4646464646464652,4.292929292929293 1.4646464646464652,4.393939393939394 1.4646464646464652,4.494949494949497 1.4646464646464652,4.595959595959597 1.4646464646464652,4.696969696969697 1.4646464646464652,4.7979797979797985 1.4646464646464652,4.898989898989901 1.3636363636363644,5.000000000000002" data-type="line" data-label="" points="650.2626262626262,249.77777777777794 650.2626262626262,240.24242424242436 650.2626262626262,230.70707070707084 659.7979797979798,221.17171717171726 669.3333333333333,211.63636363636374 669.3333333333333,202.10101010101027 669.3333333333333,192.56565656565675 659.7979797979798,183.03030303030312 659.7979797979798,173.4949494949496 659.7979797979798,163.95959595959613 659.7979797979798,154.4242424242426 659.7979797979798,144.88888888888908 659.7979797979798,135.35353535353545 650.2626262626262,125.81818181818198 650.2626262626262,116.28282828282846 650.2626262626262,106.747474747475 650.2626262626262,97.21212121212153 650.2626262626262,87.67676767676778 650.2626262626262,78.14141414141432 650.2626262626262,68.60606060606085 650.2626262626262,59.07070707070733 650.2626262626262,49.53535353535369 640.7272727272727,40.000000000000114" fill="none" stroke="rgba(0,0,255,0.75)" stroke-width="11.327999999999996"/></g><g><polyline data-points="-5.000000000000001,-1.8686868686868683 -4.898989898989899,-1.9696969696969693 -4.7979797979797985,-1.8686868686868683 -4.696969696969697,-1.7676767676767675 -4.595959595959596,-1.6666666666666665 -4.494949494949496,-1.5656565656565653 -4.393939393939394,-1.4646464646464643 -4.292929292929293,-1.363636363636363 -4.191919191919193,-1.2626262626262625 -4.090909090909091,-1.1616161616161613 -3.98989898989899,-1.0606060606060603 -3.8888888888888884,-0.9595959595959596 -3.7878787878787876,-0.8585858585858579 -3.6868686868686864,-0.7575757575757572 -3.5858585858585856,-0.6565656565656557 -3.484848484848485,-0.555555555555555 -3.383838383838383,-0.4545454545454544 -3.2828282828282824,-0.35353535353535287 -3.1818181818181817,-0.2525252525252522 -3.0808080808080804,-0.15151515151515066 -2.9797979797979792,-0.05050505050505001 -2.8787878787878785,0.050505050505051545 -2.7777777777777777,0.1515151515151522 -2.6767676767676765,0.2525252525252529 -2.5757575757575752,0.3535353535353544 -2.474747474747474,0.4545454545454551 -2.3737373737373733,0.5555555555555567 -2.2727272727272725,0.6565656565656574 -2.1717171717171713,0.7575757575757579 -2.07070707070707,0.8585858585858596 -1.9696969696969693,0.9595959595959602 -1.8686868686868683,1.0606060606060617 -1.7676767676767675,1.1616161616161622 -1.6666666666666665,1.262626262626263 -1.5656565656565653,1.3636363636363644 -1.4646464646464643,1.4646464646464652 -1.363636363636363,1.5656565656565666 -1.2626262626262625,1.6666666666666674 -1.1616161616161613,1.767676767676768 -1.0606060606060603,1.8686868686868696 -0.9595959595959596,1.9696969696969702 -0.8585858585858579,2.070707070707072 -0.7575757575757572,2.1717171717171726 -0.6565656565656557,2.2727272727272734 -0.555555555555555,2.373737373737375 -0.4545454545454544,2.4747474747474754 -0.35353535353535287,2.575757575757577 -0.2525252525252522,2.676767676767678 -0.15151515151515066,2.7777777777777786 -0.05050505050505001,2.87878787878788 -0.05050505050505001,2.9797979797979806 -0.05050505050505001,3.080808080808082 -0.05050505050505001,3.181818181818183 0.050505050505051545,3.2828282828282833 0.1515151515151522,3.383838383838384 0.2525252525252529,3.4848484848484866 0.3535353535353544,3.5858585858585874 0.3535353535353544,3.6868686868686877 0.3535353535353544,3.7878787878787885 0.2525252525252529,3.8888888888888893 0.2525252525252529,3.989898989898992" data-type="line" data-label="" points="40.00000000000006,688.4040404040404 49.53535353535369,697.939393939394 59.07070707070716,688.4040404040404 68.60606060606068,678.8686868686868 78.14141414141426,669.3333333333334 87.67676767676772,659.7979797979798 97.21212121212136,650.2626262626263 106.74747474747483,640.7272727272727 116.28282828282829,631.1919191919193 125.81818181818193,621.6565656565657 135.35353535353545,612.1212121212121 144.88888888888903,602.5858585858587 154.42424242424255,593.0505050505051 163.95959595959607,583.5151515151516 173.4949494949496,573.979797979798 183.03030303030312,564.4444444444445 192.5656565656567,554.909090909091 202.10101010101022,545.3737373737374 211.63636363636374,535.838383838384 221.17171717171726,526.3030303030304 230.70707070707084,516.7676767676768 240.2424242424243,507.23232323232327 249.77777777777783,497.69696969696975 259.3131313131314,488.1616161616163 268.84848484848493,478.6262626262627 278.38383838383845,469.0909090909092 287.91919191919203,459.5555555555556 297.4545454545455,450.0202020202021 306.9898989898991,440.4848484848486 316.5252525252526,430.94949494949503 326.0606060606061,421.4141414141415 335.59595959595964,411.87878787878793 345.13131313131316,402.3434343434344 354.6666666666667,392.80808080808094 364.2020202020202,383.27272727272737 373.7373737373738,373.73737373737384 383.2727272727273,364.2020202020203 392.80808080808083,354.66666666666674 402.34343434343435,345.1313131313133 411.8787878787879,335.5959595959597 421.4141414141414,326.06060606060623 430.949494949495,316.5252525252526 440.4848484848485,306.9898989898991 450.0202020202021,297.4545454545456 459.55555555555554,287.91919191919203 469.09090909090907,278.38383838383857 478.62626262626264,268.84848484848493 488.16161616161617,259.3131313131314 497.69696969696975,249.77777777777794 507.2323232323232,240.24242424242436 507.2323232323232,230.70707070707084 507.2323232323232,221.17171717171726 507.2323232323232,211.63636363636374 516.7676767676768,202.10101010101027 526.3030303030303,192.56565656565675 535.8383838383838,183.03030303030312 545.3737373737374,173.4949494949496 545.3737373737374,163.95959595959613 545.3737373737374,154.4242424242426 535.8383838383838,144.88888888888908 535.8383838383838,135.35353535353545" fill="none" stroke="rgba(255,0,0,0.75)" stroke-width="11.327999999999996"/></g><g><polyline data-points="0.2525252525252529,3.989898989898992 0.3535353535353544,4.090909090909092 0.3535353535353544,4.191919191919193 0.3535353535353544,4.292929292929293 0.3535353535353544,4.393939393939394 0.3535353535353544,4.494949494949497 0.3535353535353544,4.595959595959597 0.3535353535353544,4.696969696969697 0.3535353535353544,4.7979797979797985 0.3535353535353544,4.898989898989901 0.4545454545454551,5.000000000000002 0.5555555555555567,5.000000000000002" data-type="line" data-label="" points="535.8383838383838,135.35353535353545 545.3737373737374,125.81818181818198 545.3737373737374,116.28282828282846 545.3737373737374,106.747474747475 545.3737373737374,97.21212121212153 545.3737373737374,87.67676767676778 545.3737373737374,78.14141414141432 545.3737373737374,68.60606060606085 545.3737373737374,59.07070707070733 545.3737373737374,49.53535353535369 554.9090909090909,40.000000000000114 564.4444444444445,40.000000000000114" fill="none" stroke="rgba(0,0,255,0.75)" stroke-width="11.327999999999996"/></g><g><polyline data-points="-5.000000000000001,-3.1818181818181817 -4.898989898989899,-3.1818181818181817 -4.7979797979797985,-3.0808080808080804 -4.696969696969697,-2.9797979797979792 -4.595959595959596,-2.8787878787878785 -4.494949494949496,-2.7777777777777777 -4.393939393939394,-2.6767676767676765 -4.292929292929293,-2.5757575757575752 -4.191919191919193,-2.474747474747474 -4.090909090909091,-2.3737373737373733 -3.98989898989899,-2.2727272727272725 -3.8888888888888884,-2.1717171717171713 -3.7878787878787876,-2.07070707070707 -3.6868686868686864,-2.07070707070707 -3.5858585858585856,-1.9696969696969693 -3.484848484848485,-1.8686868686868683 -3.383838383838383,-1.7676767676767675 -3.2828282828282824,-1.6666666666666665 -3.1818181818181817,-1.5656565656565653 -3.0808080808080804,-1.4646464646464643 -2.9797979797979792,-1.363636363636363 -2.8787878787878785,-1.2626262626262625 -2.7777777777777777,-1.1616161616161613 -2.6767676767676765,-1.0606060606060603 -2.5757575757575752,-0.9595959595959596 -2.474747474747474,-0.8585858585858579 -2.3737373737373733,-0.7575757575757572 -2.2727272727272725,-0.6565656565656557 -2.1717171717171713,-0.555555555555555 -2.07070707070707,-0.4545454545454544 -1.9696969696969693,-0.35353535353535287 -1.8686868686868683,-0.2525252525252522 -1.7676767676767675,-0.15151515151515066 -1.6666666666666665,-0.05050505050505001 -1.5656565656565653,0.050505050505051545 -1.4646464646464643,0.1515151515151522 -1.363636363636363,0.2525252525252529 -1.2626262626262625,0.3535353535353544 -1.1616161616161613,0.4545454545454551 -1.0606060606060603,0.5555555555555567 -0.9595959595959596,0.6565656565656574 -0.8585858585858579,0.7575757575757579 -0.7575757575757572,0.8585858585858596 -0.6565656565656557,0.9595959595959602 -0.555555555555555,1.0606060606060617 -0.4545454545454544,1.1616161616161622 -0.35353535353535287,1.262626262626263 -0.2525252525252522,1.3636363636363644 -0.15151515151515066,1.4646464646464652 -0.05050505050505001,1.5656565656565666 0.050505050505051545,1.6666666666666674 0.1515151515151522,1.767676767676768 0.2525252525252529,1.8686868686868696 0.3535353535353544,1.9696969696969702 0.4545454545454551,2.070707070707072 0.5555555555555567,2.1717171717171726 0.6565656565656574,2.2727272727272734 0.7575757575757579,2.373737373737375 0.8585858585858596,2.4747474747474754 0.9595959595959602,2.575757575757577 1.0606060606060617,2.676767676767678 1.1616161616161622,2.7777777777777786 1.262626262626263,2.87878787878788 1.262626262626263,2.9797979797979806 1.1616161616161622,3.080808080808082 1.1616161616161622,3.181818181818183 1.262626262626263,3.2828282828282833" data-type="line" data-label="" points="40.00000000000006,812.3636363636363 49.53535353535369,812.3636363636363 59.07070707070716,802.8282828282828 68.60606060606068,793.2929292929292 78.14141414141426,783.7575757575758 87.67676767676772,774.2222222222222 97.21212121212136,764.6868686868687 106.74747474747483,755.1515151515151 116.28282828282829,745.6161616161615 125.81818181818193,736.0808080808081 135.35353535353545,726.5454545454545 144.88888888888903,717.010101010101 154.42424242424255,707.4747474747475 163.95959595959607,707.4747474747475 173.4949494949496,697.939393939394 183.03030303030312,688.4040404040404 192.5656565656567,678.8686868686868 202.10101010101022,669.3333333333334 211.63636363636374,659.7979797979798 221.17171717171726,650.2626262626263 230.70707070707084,640.7272727272727 240.2424242424243,631.1919191919193 249.77777777777783,621.6565656565657 259.3131313131314,612.1212121212121 268.84848484848493,602.5858585858587 278.38383838383845,593.0505050505051 287.91919191919203,583.5151515151516 297.4545454545455,573.979797979798 306.9898989898991,564.4444444444445 316.5252525252526,554.909090909091 326.0606060606061,545.3737373737374 335.59595959595964,535.838383838384 345.13131313131316,526.3030303030304 354.6666666666667,516.7676767676768 364.2020202020202,507.23232323232327 373.7373737373738,497.69696969696975 383.2727272727273,488.1616161616163 392.80808080808083,478.6262626262627 402.34343434343435,469.0909090909092 411.8787878787879,459.5555555555556 421.4141414141414,450.0202020202021 430.949494949495,440.4848484848486 440.4848484848485,430.94949494949503 450.0202020202021,421.4141414141415 459.55555555555554,411.87878787878793 469.09090909090907,402.3434343434344 478.62626262626264,392.80808080808094 488.16161616161617,383.27272727272737 497.69696969696975,373.73737373737384 507.2323232323232,364.2020202020203 516.7676767676768,354.66666666666674 526.3030303030303,345.1313131313133 535.8383838383838,335.5959595959597 545.3737373737374,326.06060606060623 554.9090909090909,316.5252525252526 564.4444444444445,306.9898989898991 573.9797979797979,297.4545454545456 583.5151515151515,287.91919191919203 593.0505050505051,278.38383838383857 602.5858585858585,268.84848484848493 612.1212121212121,259.3131313131314 621.6565656565656,249.77777777777794 631.1919191919192,240.24242424242436 631.1919191919192,230.70707070707084 621.6565656565656,221.17171717171726 621.6565656565656,211.63636363636374 631.1919191919192,202.10101010101027" fill="none" stroke="rgba(0,0,255,0.75)" stroke-width="11.327999999999996"/></g><g><polyline data-points="1.262626262626263,3.2828282828282833 1.3636363636363644,3.383838383838384 1.4646464646464652,3.383838383838384 1.5656565656565666,3.2828282828282833 1.6666666666666674,3.2828282828282833 1.767676767676768,3.2828282828282833 1.8686868686868696,3.2828282828282833 1.9696969696969702,3.2828282828282833 2.070707070707072,3.2828282828282833 2.1717171717171726,3.2828282828282833 2.2727272727272734,3.2828282828282833 2.373737373737375,3.2828282828282833 2.4747474747474754,3.2828282828282833 2.575757575757577,3.2828282828282833 2.676767676767678,3.2828282828282833 2.7777777777777786,3.2828282828282833 2.87878787878788,3.2828282828282833 2.9797979797979806,3.2828282828282833 3.080808080808082,3.2828282828282833 3.181818181818183,3.2828282828282833 3.2828282828282833,3.2828282828282833 3.383838383838384,3.2828282828282833 3.4848484848484866,3.2828282828282833 3.5858585858585874,3.2828282828282833 3.6868686868686877,3.2828282828282833" data-type="line" data-label="" points="631.1919191919192,202.10101010101027 640.7272727272727,192.56565656565675 650.2626262626262,192.56565656565675 659.7979797979798,202.10101010101027 669.3333333333333,202.10101010101027 678.8686868686868,202.10101010101027 688.4040404040404,202.10101010101027 697.9393939393939,202.10101010101027 707.4747474747475,202.10101010101027 717.0101010101009,202.10101010101027 726.5454545454545,202.10101010101027 736.0808080808081,202.10101010101027 745.6161616161615,202.10101010101027 755.1515151515151,202.10101010101027 764.6868686868686,202.10101010101027 774.2222222222222,202.10101010101027 783.7575757575758,202.10101010101027 793.2929292929292,202.10101010101027 802.8282828282828,202.10101010101027 812.3636363636363,202.10101010101027 821.8989898989898,202.10101010101027 831.4343434343433,202.10101010101027 840.969696969697,202.10101010101027 850.5050505050505,202.10101010101027 860.0404040404039,202.10101010101027" fill="none" stroke="rgba(255,0,0,0.75)" stroke-width="11.327999999999996"/></g><g><polyline data-points="3.6868686868686877,3.2828282828282833 3.7878787878787885,3.2828282828282833 3.8888888888888893,3.2828282828282833 3.989898989898992,3.383838383838384 4.090909090909092,3.4848484848484866 4.191919191919193,3.5858585858585874 4.292929292929293,3.6868686868686877 4.393939393939394,3.7878787878787885 4.494949494949497,3.8888888888888893 4.595959595959597,3.989898989898992 4.696969696969697,3.989898989898992 4.7979797979797985,3.989898989898992 4.898989898989901,3.989898989898992 5.000000000000002,4.090909090909092" data-type="line" data-label="" points="860.0404040404039,202.10101010101027 869.5757575757575,202.10101010101027 879.111111111111,202.10101010101027 888.6464646464647,192.56565656565675 898.181818181818,183.03030303030312 907.7171717171716,173.4949494949496 917.2525252525251,163.95959595959613 926.7878787878785,154.4242424242426 936.3232323232323,144.88888888888908 945.8585858585857,135.35353535353545 955.3939393939393,135.35353535353545 964.9292929292927,135.35353535353545 974.4646464646464,135.35353535353545 984,125.81818181818198" fill="none" stroke="rgba(0,0,255,0.75)" stroke-width="11.327999999999996"/></g><g><rect data-type="rect" data-label="" data-x="0" data-y="0" x="40.000000000000114" y="40.000000000000284" width="943.9999999999997" height="943.9999999999998" fill="none" stroke="gray" stroke-width="0.010593220338983056"/></g><g><rect data-type="rect" data-label="" data-x="0" data-y="0" x="40.000000000000114" y="40.000000000000284" width="943.9999999999997" height="943.9999999999998" fill="none" stroke="rgba(15, 23, 42, 0.8)" stroke-width="0.010593220338983056"/></g><circle data-type="circle" data-label="" data-x="-2.07070707070707" data-y="0.3535353535353544" cx="316.5252525252526" cy="478.6262626262627" r="14.159999999999995" fill="rgba(0,0,0,0.3)" stroke="black" stroke-width="0.010593220338983056"/><circle data-type="circle" data-label="" data-x="-0.35353535353535287" data-y="-1.4646464646464643" cx="478.62626262626264" cy="650.2626262626263" r="14.159999999999995" fill="rgba(0,0,0,0.3)" stroke="black" stroke-width="0.010593220338983056"/><circle data-type="circle" data-label="" data-x="-0.35353535353535287" data-y="-2.8787878787878785" cx="478.62626262626264" cy="783.7575757575758" r="14.159999999999995" fill="rgba(0,0,0,0.3)" stroke="black" stroke-width="0.010593220338983056"/><circle data-type="circle" data-label="" data-x="-0.35353535353535287" data-y="-3.98989898989899" cx="478.62626262626264" cy="888.6464646464647" r="14.159999999999995" fill="rgba(0,0,0,0.3)" stroke="black" stroke-width="0.010593220338983056"/><circle data-type="circle" data-label="" data-x="-3.98989898989899" data-y="1.8686868686868696" cx="135.35353535353545" cy="335.5959595959597" r="14.159999999999995" fill="rgba(0,0,0,0.3)" stroke="black" stroke-width="0.010593220338983056"/><circle data-type="circle" data-label="" data-x="-0.35353535353535287" data-y="3.4848484848484866" cx="478.62626262626264" cy="183.03030303030312" r="14.159999999999995" fill="rgba(0,0,0,0.3)" stroke="black" stroke-width="0.010593220338983056"/><circle data-type="circle" data-label="" data-x="0.8585858585858596" data-y="3.989898989898992" cx="593.0505050505051" cy="135.35353535353545" r="14.159999999999995" fill="rgba(0,0,0,0.3)" stroke="black" stroke-width="0.010593220338983056"/><circle data-type="circle" data-label="" data-x="3.8888888888888893" data-y="3.5858585858585874" cx="879.111111111111" cy="173.4949494949496" r="14.159999999999995" fill="rgba(0,0,0,0.3)" stroke="black" stroke-width="0.010593220338983056"/><circle data-type="circle" data-label="" data-x="0.2525252525252529" data-y="2.575757575757577" cx="535.8383838383838" cy="268.84848484848493" r="14.159999999999995" fill="rgba(0,0,0,0.3)" stroke="black" stroke-width="0.010593220338983056"/><circle data-type="circle" data-label="" data-x="1.767676767676768" data-y="-1.7676767676767675" cx="678.8686868686868" cy="678.8686868686868" r="14.159999999999995" fill="rgba(0,0,0,0.3)" stroke="black" stroke-width="0.010593220338983056"/><circle data-type="circle" data-label="" data-x="0.6565656565656574" data-y="-1.7676767676767675" cx="573.9797979797979" cy="678.8686868686868" r="14.159999999999995" fill="rgba(0,0,0,0.3)" stroke="black" stroke-width="0.010593220338983056"/><circle data-type="circle" data-label="" data-x="-2.474747474747474" data-y="-1.1616161616161613" cx="278.38383838383845" cy="621.6565656565657" r="14.159999999999995" fill="rgba(0,0,0,0.3)" stroke="black" stroke-width="0.010593220338983056"/><circle data-type="circle" data-label="" data-x="-3.383838383838383" data-y="-0.9595959595959596" cx="192.5656565656567" cy="602.5858585858587" r="14.159999999999995" fill="rgba(0,0,0,0.3)" stroke="black" stroke-width="0.010593220338983056"/><circle data-type="circle" data-label="" data-x="-3.98989898989899" data-y="-0.4545454545454544" cx="135.35353535353545" cy="554.909090909091" r="14.159999999999995" fill="rgba(0,0,0,0.3)" stroke="black" stroke-width="0.010593220338983056"/><circle data-type="circle" data-label="" data-x="1.4646464646464652" data-y="2.7777777777777786" cx="650.2626262626262" cy="249.77777777777794" r="14.159999999999995" fill="rgba(0,0,0,0.3)" stroke="black" stroke-width="0.010593220338983056"/><circle data-type="circle" data-label="" data-x="0.2525252525252529" data-y="3.989898989898992" cx="535.8383838383838" cy="135.35353535353545" r="14.159999999999995" fill="rgba(0,0,0,0.3)" stroke="black" stroke-width="0.010593220338983056"/><circle data-type="circle" data-label="" data-x="1.262626262626263" data-y="3.2828282828282833" cx="631.1919191919192" cy="202.10101010101027" r="14.159999999999995" fill="rgba(0,0,0,0.3)" stroke="black" stroke-width="0.010593220338983056"/><circle data-type="circle" data-label="" data-x="3.6868686868686877" data-y="3.2828282828282833" cx="860.0404040404039" cy="202.10101010101027" r="14.159999999999995" fill="rgba(0,0,0,0.3)" stroke="black" stroke-width="0.010593220338983056"/><g id="crosshair" style="display: none"><line id="crosshair-h" y1="0" y2="1024" stroke="#666" stroke-width="0.5"/><line id="crosshair-v" x1="0" x2="1024" stroke="#666" stroke-width="0.5"/><text id="coordinates" font-family="monospace" font-size="12" fill="#666"></text></g><script><![CDATA[
              document.currentScript.parentElement.addEventListener('mousemove', (e) => {
                const svg = e.currentTarget;
                const rect = svg.getBoundingClientRect();
                const x = e.clientX - rect.left;
                const y = e.clientY - rect.top;
                const crosshair = svg.getElementById('crosshair');
                const h = svg.getElementById('crosshair-h');
                const v = svg.getElementById('crosshair-v');
                const coords = svg.getElementById('coordinates');
                
                crosshair.style.display = 'block';
                h.setAttribute('x1', '0');
                h.setAttribute('x2', '1024');
                h.setAttribute('y1', y);
                h.setAttribute('y2', y);
                v.setAttribute('x1', x);
                v.setAttribute('x2', x);
                v.setAttribute('y1', '0');
                v.setAttribute('y2', '1024');

                // Calculate real coordinates using inverse transformation
                const matrix = {"a":94.39999999999996,"c":0,"e":511.99999999999994,"b":0,"d":-94.39999999999996,"f":512.0000000000001};
                // Manually invert and apply the affine transform
                // Since we only use translate and scale, we can directly compute:
                // x' = (x - tx) / sx
                // y' = (y - ty) / sy
                const sx = matrix.a;
                const sy = matrix.d;
                const tx = matrix.e; 
                const ty = matrix.f;
                const realPoint = {
                  x: (x - tx) / sx,
                  y: (y - ty) / sy // Flip y back since we used negative scale
                }
                
                coords.textContent = `(${realPoint.x.toFixed(2)}, ${realPoint.y.toFixed(2)})`;
                coords.setAttribute('x', (x + 5).toString());
                coords.setAttribute('y', (y - 5).toString());
              });
              document.currentScript.parentElement.addEventListener('mouseleave', () => {
                document.currentScript.parentElement.getElementById('crosshair').style.display = 'none';
              });
            ]]></script></svg>