<svg width="1024" height="1024" viewBox="0 0 1024 1024" xmlns="http://www.w3.org/2000/svg"><rect width="100%" height="100%" fill="white"/><g><circle data-type="point" data-label="conn_000" data-x="5" data-y="-4.68" cx="983.9999999999998" cy="953.7919999999999" r="14.16" fill="blue"/></g><g><circle data-type="point" data-label="conn_000" data-x="-5" data-y="-1.6" cx="40.000000000000114" cy="663.0400000000001" r="14.16" fill="blue"/></g><g><circle data-type="point" data-label="conn_001" data-x="-3.12" data-y="-5" cx="217.47200000000004" cy="984" r="14.16" fill="blue"/></g><g><circle data-type="point" data-label="conn_001" data-x="-3" data-y="5" cx="228.80000000000007" cy="40.000000000000284" r="14.16" fill="red"/></g><g><circle data-type="point" data-label="conn_002" data-x="-5" data-y="-4.18" cx="40.000000000000114" cy="906.5919999999999" r="14.16" fill="red"/></g><g><circle data-type="point" data-label="conn_002" data-x="5" data-y="0.04" cx="983.9999999999998" cy="508.2240000000001" r="14.16" fill="red"/></g><g><polyline data-points="-3.1818181818181817,-5.000000000000001 -3.0808080808080804,-4.898989898989899 -2.9797979797979792,-4.7979797979797985 -2.9797979797979792,-4.696969696969697 -2.9797979797979792,-4.595959595959596 -2.9797979797979792,-4.494949494949496 -2.9797979797979792,-4.393939393939394 -2.9797979797979792,-4.292929292929293 -2.9797979797979792,-4.191919191919193 -2.9797979797979792,-4.090909090909091 -2.9797979797979792,-3.98989898989899 -2.9797979797979792,-3.8888888888888884 -2.9797979797979792,-3.7878787878787876 -2.9797979797979792,-3.6868686868686864 -2.9797979797979792,-3.5858585858585856 -2.9797979797979792,-3.484848484848485 -2.9797979797979792,-3.383838383838383 -2.9797979797979792,-3.2828282828282824 -2.9797979797979792,-3.1818181818181817 -2.9797979797979792,-3.0808080808080804 -2.9797979797979792,-2.9797979797979792 -2.9797979797979792,-2.8787878787878785 -2.9797979797979792,-2.7777777777777777 -2.9797979797979792,-2.6767676767676765 -2.9797979797979792,-2.5757575757575752 -2.9797979797979792,-2.474747474747474 -2.9797979797979792,-2.3737373737373733 -2.9797979797979792,-2.2727272727272725 -2.9797979797979792,-2.1717171717171713 -2.9797979797979792,-2.07070707070707 -2.9797979797979792,-1.9696969696969693 -2.9797979797979792,-1.8686868686868683 -2.9797979797979792,-1.7676767676767675 -2.9797979797979792,-1.6666666666666665 -2.9797979797979792,-1.5656565656565653 -2.9797979797979792,-1.4646464646464643 -2.9797979797979792,-1.363636363636363 -2.9797979797979792,-1.2626262626262625 -2.9797979797979792,-1.1616161616161613 -2.9797979797979792,-1.0606060606060603 -2.9797979797979792,-0.9595959595959596 -2.9797979797979792,-0.8585858585858579 -2.9797979797979792,-0.7575757575757572 -2.9797979797979792,-0.6565656565656557 -2.9797979797979792,-0.555555555555555 -2.9797979797979792,-0.4545454545454544 -2.9797979797979792,-0.35353535353535287 -2.9797979797979792,-0.2525252525252522 -2.9797979797979792,-0.15151515151515066 -2.9797979797979792,-0.05050505050505001 -2.9797979797979792,0.050505050505051545 -2.9797979797979792,0.1515151515151522 -2.9797979797979792,0.2525252525252529 -2.9797979797979792,0.3535353535353544 -2.9797979797979792,0.4545454545454551 -2.9797979797979792,0.5555555555555567 -2.9797979797979792,0.6565656565656574 -2.9797979797979792,0.7575757575757579 -2.9797979797979792,0.8585858585858596 -2.9797979797979792,0.9595959595959602 -2.9797979797979792,1.0606060606060617 -2.9797979797979792,1.1616161616161622 -2.9797979797979792,1.262626262626263 -2.9797979797979792,1.3636363636363644 -2.9797979797979792,1.4646464646464652 -2.9797979797979792,1.5656565656565666 -2.9797979797979792,1.6666666666666674 -2.9797979797979792,1.767676767676768 -2.9797979797979792,1.8686868686868696 -2.9797979797979792,1.9696969696969702 -2.9797979797979792,2.070707070707072 -2.9797979797979792,2.1717171717171726 -2.9797979797979792,2.2727272727272734 -2.9797979797979792,2.373737373737375 -2.9797979797979792,2.4747474747474754 -2.9797979797979792,2.575757575757577 -2.9797979797979792,2.676767676767678 -2.9797979797979792,2.7777777777777786 -2.9797979797979792,2.87878787878788 -2.9797979797979792,2.9797979797979806 -2.9797979797979792,3.080808080808082 -2.9797979797979792,3.181818181818183 -2.9797979797979792,3.2828282828282833 -2.9797979797979792,3.383838383838384 -2.9797979797979792,3.4848484848484866 -2.9797979797979792,3.5858585858585874 -2.9797979797979792,3.6868686868686877 -2.9797979797979792,3.7878787878787885 -2.9797979797979792,3.8888888888888893 -2.9797979797979792,3.989898989898992" data-type="line" data-label="" points="211.63636363636374,984 221.17171717171726,974.4646464646464 230.70707070707084,964.9292929292928 230.70707070707084,955.3939393939394 230.70707070707084,945.8585858585858 230.70707070707084,936.3232323232323 230.70707070707084,926.7878787878788 230.70707070707084,917.2525252525252 230.70707070707084,907.7171717171718 230.70707070707084,898.1818181818181 230.70707070707084,888.6464646464647 230.70707070707084,879.1111111111111 230.70707070707084,869.5757575757575 230.70707070707084,860.0404040404039 230.70707070707084,850.5050505050505 230.70707070707084,840.969696969697 230.70707070707084,831.4343434343434 230.70707070707084,821.8989898989898 230.70707070707084,812.3636363636363 230.70707070707084,802.8282828282828 230.70707070707084,793.2929292929292 230.70707070707084,783.7575757575758 230.70707070707084,774.2222222222222 230.70707070707084,764.6868686868687 230.70707070707084,755.1515151515151 230.70707070707084,745.6161616161615 230.70707070707084,736.0808080808081 230.70707070707084,726.5454545454545 230.70707070707084,717.010101010101 230.70707070707084,707.4747474747475 230.70707070707084,697.939393939394 230.70707070707084,688.4040404040404 230.70707070707084,678.8686868686868 230.70707070707084,669.3333333333334 230.70707070707084,659.7979797979798 230.70707070707084,650.2626262626263 230.70707070707084,640.7272727272727 230.70707070707084,631.1919191919193 230.70707070707084,621.6565656565657 230.70707070707084,612.1212121212121 230.70707070707084,602.5858585858587 230.70707070707084,593.0505050505051 230.70707070707084,583.5151515151516 230.70707070707084,573.979797979798 230.70707070707084,564.4444444444445 230.70707070707084,554.909090909091 230.70707070707084,545.3737373737374 230.70707070707084,535.838383838384 230.70707070707084,526.3030303030304 230.70707070707084,516.7676767676768 230.70707070707084,507.23232323232327 230.70707070707084,497.69696969696975 230.70707070707084,488.1616161616163 230.70707070707084,478.6262626262627 230.70707070707084,469.0909090909092 230.70707070707084,459.5555555555556 230.70707070707084,450.0202020202021 230.70707070707084,440.4848484848486 230.70707070707084,430.94949494949503 230.70707070707084,421.4141414141415 230.70707070707084,411.87878787878793 230.70707070707084,402.3434343434344 230.70707070707084,392.80808080808094 230.70707070707084,383.27272727272737 230.70707070707084,373.73737373737384 230.70707070707084,364.2020202020203 230.70707070707084,354.66666666666674 230.70707070707084,345.1313131313133 230.70707070707084,335.5959595959597 230.70707070707084,326.06060606060623 230.70707070707084,316.5252525252526 230.70707070707084,306.9898989898991 230.70707070707084,297.4545454545456 230.70707070707084,287.91919191919203 230.70707070707084,278.38383838383857 230.70707070707084,268.84848484848493 230.70707070707084,259.3131313131314 230.70707070707084,249.77777777777794 230.70707070707084,240.24242424242436 230.70707070707084,230.70707070707084 230.70707070707084,221.17171717171726 230.70707070707084,211.63636363636374 230.70707070707084,202.10101010101027 230.70707070707084,192.56565656565675 230.70707070707084,183.03030303030312 230.70707070707084,173.4949494949496 230.70707070707084,163.95959595959613 230.70707070707084,154.4242424242426 230.70707070707084,144.88888888888908 230.70707070707084,135.35353535353545" fill="none" stroke="rgba(0,0,255,0.75)" stroke-width="11.327999999999996"/></g><g><polyline data-points="-2.9797979797979792,3.989898989898992 -2.9797979797979792,4.090909090909092 -2.9797979797979792,4.191919191919193 -2.9797979797979792,4.292929292929293 -2.9797979797979792,4.393939393939394 -2.9797979797979792,4.494949494949497 -2.9797979797979792,4.595959595959597 -2.9797979797979792,4.696969696969697 -2.9797979797979792,4.7979797979797985 -2.9797979797979792,4.898989898989901 -2.9797979797979792,5.000000000000002" data-type="line" data-label="" points="230.70707070707084,135.35353535353545 230.70707070707084,125.81818181818198 230.70707070707084,116.28282828282846 230.70707070707084,106.747474747475 230.70707070707084,97.21212121212153 230.70707070707084,87.67676767676778 230.70707070707084,78.14141414141432 230.70707070707084,68.60606060606085 230.70707070707084,59.07070707070733 230.70707070707084,49.53535353535369 230.70707070707084,40.000000000000114" fill="none" stroke="rgba(255,0,0,0.75)" stroke-width="11.327999999999996"/></g><g><polyline data-points="5.000000000000002,-4.696969696969697 4.898989898989901,-4.595959595959596 4.7979797979797985,-4.494949494949496 4.696969696969697,-4.393939393939394 4.595959595959597,-4.292929292929293 4.494949494949497,-4.191919191919193 4.393939393939394,-4.090909090909091 4.292929292929293,-3.98989898989899 4.191919191919193,-3.8888888888888884 4.090909090909092,-3.7878787878787876 3.989898989898992,-3.6868686868686864 3.8888888888888893,-3.5858585858585856 3.7878787878787885,-3.484848484848485 3.6868686868686877,-3.383838383838383 3.5858585858585874,-3.2828282828282824 3.4848484848484866,-3.1818181818181817 3.383838383838384,-3.0808080808080804 3.2828282828282833,-2.9797979797979792 3.181818181818183,-2.8787878787878785 3.080808080808082,-2.7777777777777777 2.9797979797979806,-2.6767676767676765 2.87878787878788,-2.5757575757575752 2.7777777777777786,-2.474747474747474 2.676767676767678,-2.3737373737373733 2.575757575757577,-2.2727272727272725 2.4747474747474754,-2.1717171717171713 2.373737373737375,-2.07070707070707 2.2727272727272734,-1.9696969696969693 2.1717171717171726,-1.8686868686868683 2.070707070707072,-1.7676767676767675 1.9696969696969702,-1.6666666666666665 1.8686868686868696,-1.5656565656565653 1.767676767676768,-1.5656565656565653 1.6666666666666674,-1.5656565656565653 1.5656565656565666,-1.5656565656565653 1.4646464646464652,-1.5656565656565653 1.3636363636363644,-1.5656565656565653 1.262626262626263,-1.5656565656565653 1.1616161616161622,-1.5656565656565653 1.0606060606060617,-1.5656565656565653 0.9595959595959602,-1.5656565656565653 0.8585858585858596,-1.5656565656565653 0.7575757575757579,-1.5656565656565653 0.6565656565656574,-1.5656565656565653 0.5555555555555567,-1.5656565656565653 0.4545454545454551,-1.5656565656565653 0.3535353535353544,-1.5656565656565653 0.2525252525252529,-1.5656565656565653 0.1515151515151522,-1.5656565656565653 0.050505050505051545,-1.5656565656565653 -0.05050505050505001,-1.5656565656565653 -0.15151515151515066,-1.5656565656565653 -0.2525252525252522,-1.5656565656565653 -0.35353535353535287,-1.5656565656565653 -0.4545454545454544,-1.5656565656565653 -0.555555555555555,-1.5656565656565653 -0.6565656565656557,-1.5656565656565653 -0.7575757575757572,-1.5656565656565653 -0.8585858585858579,-1.5656565656565653 -0.9595959595959596,-1.5656565656565653 -1.0606060606060603,-1.5656565656565653 -1.1616161616161613,-1.5656565656565653 -1.2626262626262625,-1.5656565656565653 -1.363636363636363,-1.5656565656565653 -1.4646464646464643,-1.5656565656565653 -1.5656565656565653,-1.5656565656565653 -1.6666666666666665,-1.5656565656565653 -1.7676767676767675,-1.5656565656565653 -1.8686868686868683,-1.5656565656565653 -1.9696969696969693,-1.5656565656565653 -2.07070707070707,-1.5656565656565653 -2.1717171717171713,-1.5656565656565653 -2.2727272727272725,-1.5656565656565653 -2.3737373737373733,-1.5656565656565653 -2.474747474747474,-1.5656565656565653 -2.5757575757575752,-1.5656565656565653" data-type="line" data-label="" points="984,955.3939393939394 974.4646464646464,945.8585858585858 964.9292929292927,936.3232323232323 955.3939393939393,926.7878787878788 945.8585858585857,917.2525252525252 936.3232323232323,907.7171717171718 926.7878787878785,898.1818181818181 917.2525252525251,888.6464646464647 907.7171717171716,879.1111111111111 898.181818181818,869.5757575757575 888.6464646464647,860.0404040404039 879.111111111111,850.5050505050505 869.5757575757575,840.969696969697 860.0404040404039,831.4343434343434 850.5050505050505,821.8989898989898 840.969696969697,812.3636363636363 831.4343434343433,802.8282828282828 821.8989898989898,793.2929292929292 812.3636363636363,783.7575757575758 802.8282828282828,774.2222222222222 793.2929292929292,764.6868686868687 783.7575757575758,755.1515151515151 774.2222222222222,745.6161616161615 764.6868686868686,736.0808080808081 755.1515151515151,726.5454545454545 745.6161616161615,717.010101010101 736.0808080808081,707.4747474747475 726.5454545454545,697.939393939394 717.0101010101009,688.4040404040404 707.4747474747475,678.8686868686868 697.9393939393939,669.3333333333334 688.4040404040404,659.7979797979798 678.8686868686868,659.7979797979798 669.3333333333333,659.7979797979798 659.7979797979798,659.7979797979798 650.2626262626262,659.7979797979798 640.7272727272727,659.7979797979798 631.1919191919192,659.7979797979798 621.6565656565656,659.7979797979798 612.1212121212121,659.7979797979798 602.5858585858585,659.7979797979798 593.0505050505051,659.7979797979798 583.5151515151515,659.7979797979798 573.9797979797979,659.7979797979798 564.4444444444445,659.7979797979798 554.9090909090909,659.7979797979798 545.3737373737374,659.7979797979798 535.8383838383838,659.7979797979798 526.3030303030303,659.7979797979798 516.7676767676768,659.7979797979798 507.2323232323232,659.7979797979798 497.69696969696975,659.7979797979798 488.16161616161617,659.7979797979798 478.62626262626264,659.7979797979798 469.09090909090907,659.7979797979798 459.55555555555554,659.7979797979798 450.0202020202021,659.7979797979798 440.4848484848485,659.7979797979798 430.949494949495,659.7979797979798 421.4141414141414,659.7979797979798 411.8787878787879,659.7979797979798 402.34343434343435,659.7979797979798 392.80808080808083,659.7979797979798 383.2727272727273,659.7979797979798 373.7373737373738,659.7979797979798 364.2020202020202,659.7979797979798 354.6666666666667,659.7979797979798 345.13131313131316,659.7979797979798 335.59595959595964,659.7979797979798 326.0606060606061,659.7979797979798 316.5252525252526,659.7979797979798 306.9898989898991,659.7979797979798 297.4545454545455,659.7979797979798 287.91919191919203,659.7979797979798 278.38383838383845,659.7979797979798 268.84848484848493,659.7979797979798" fill="none" stroke="rgba(0,0,255,0.75)" stroke-width="11.327999999999996"/></g><g><polyline data-points="-2.5757575757575752,-1.5656565656565653 -2.6767676767676765,-1.5656565656565653 -2.7777777777777777,-1.5656565656565653 -2.8787878787878785,-1.5656565656565653 -2.9797979797979792,-1.5656565656565653 -3.0808080808080804,-1.5656565656565653 -3.1818181818181817,-1.5656565656565653 -3.2828282828282824,-1.5656565656565653 -3.383838383838383,-1.5656565656565653 -3.484848484848485,-1.5656565656565653 -3.5858585858585856,-1.5656565656565653 -3.6868686868686864,-1.5656565656565653 -3.7878787878787876,-1.5656565656565653 -3.8888888888888884,-1.5656565656565653 -3.98989898989899,-1.5656565656565653" data-type="line" data-label="" points="268.84848484848493,659.7979797979798 259.3131313131314,659.7979797979798 249.77777777777783,659.7979797979798 240.2424242424243,659.7979797979798 230.70707070707084,659.7979797979798 221.17171717171726,659.7979797979798 211.63636363636374,659.7979797979798 202.10101010101022,659.7979797979798 192.5656565656567,659.7979797979798 183.03030303030312,659.7979797979798 173.4949494949496,659.7979797979798 163.95959595959607,659.7979797979798 154.42424242424255,659.7979797979798 144.88888888888903,659.7979797979798 135.35353535353545,659.7979797979798" fill="none" stroke="rgba(255,0,0,0.75)" stroke-width="11.327999999999996"/></g><g><polyline data-points="-3.98989898989899,-1.5656565656565653 -4.090909090909091,-1.5656565656565653 -4.191919191919193,-1.5656565656565653 -4.292929292929293,-1.5656565656565653 -4.393939393939394,-1.5656565656565653 -4.494949494949496,-1.5656565656565653 -4.595959595959596,-1.5656565656565653 -4.696969696969697,-1.5656565656565653 -4.7979797979797985,-1.5656565656565653 -4.898989898989899,-1.5656565656565653 -5.000000000000001,-1.5656565656565653" data-type="line" data-label="" points="135.35353535353545,659.7979797979798 125.81818181818193,659.7979797979798 116.28282828282829,659.7979797979798 106.74747474747483,659.7979797979798 97.21212121212136,659.7979797979798 87.67676767676772,659.7979797979798 78.14141414141426,659.7979797979798 68.60606060606068,659.7979797979798 59.07070707070716,659.7979797979798 49.53535353535369,659.7979797979798 40.00000000000006,659.7979797979798" fill="none" stroke="rgba(0,0,255,0.75)" stroke-width="11.327999999999996"/></g><g><polyline data-points="-5.000000000000001,-4.191919191919193 -4.898989898989899,-4.090909090909091 -4.7979797979797985,-3.98989898989899 -4.696969696969697,-3.8888888888888884 -4.595959595959596,-3.7878787878787876 -4.494949494949496,-3.6868686868686864 -4.393939393939394,-3.5858585858585856 -4.292929292929293,-3.484848484848485 -4.191919191919193,-3.383838383838383 -4.090909090909091,-3.2828282828282824 -3.98989898989899,-3.1818181818181817 -3.8888888888888884,-3.0808080808080804 -3.7878787878787876,-2.9797979797979792 -3.6868686868686864,-2.8787878787878785 -3.5858585858585856,-2.7777777777777777 -3.484848484848485,-2.6767676767676765 -3.383838383838383,-2.5757575757575752 -3.2828282828282824,-2.474747474747474 -3.1818181818181817,-2.3737373737373733 -3.0808080808080804,-2.2727272727272725 -2.9797979797979792,-2.1717171717171713 -2.8787878787878785,-2.07070707070707 -2.7777777777777777,-1.9696969696969693 -2.6767676767676765,-1.8686868686868683 -2.5757575757575752,-1.8686868686868683 -2.474747474747474,-1.7676767676767675 -2.3737373737373733,-1.6666666666666665 -2.2727272727272725,-1.5656565656565653 -2.1717171717171713,-1.4646464646464643 -2.07070707070707,-1.363636363636363 -1.9696969696969693,-1.2626262626262625 -1.8686868686868683,-1.1616161616161613 -1.7676767676767675,-1.0606060606060603 -1.6666666666666665,-0.9595959595959596 -1.5656565656565653,-0.8585858585858579 -1.4646464646464643,-0.7575757575757572 -1.363636363636363,-0.6565656565656557 -1.2626262626262625,-0.555555555555555 -1.1616161616161613,-0.4545454545454544 -1.0606060606060603,-0.35353535353535287 -0.9595959595959596,-0.2525252525252522 -0.8585858585858579,-0.15151515151515066 -0.7575757575757572,-0.05050505050505001 -0.6565656565656557,0.050505050505051545 -0.555555555555555,0.050505050505051545 -0.4545454545454544,0.050505050505051545 -0.35353535353535287,0.050505050505051545 -0.2525252525252522,0.050505050505051545 -0.15151515151515066,0.050505050505051545 -0.05050505050505001,0.050505050505051545 0.050505050505051545,0.050505050505051545 0.1515151515151522,0.050505050505051545 0.2525252525252529,0.050505050505051545 0.3535353535353544,0.050505050505051545 0.4545454545454551,0.050505050505051545 0.5555555555555567,0.050505050505051545 0.6565656565656574,0.050505050505051545 0.7575757575757579,0.050505050505051545 0.8585858585858596,0.050505050505051545 0.9595959595959602,0.050505050505051545 1.0606060606060617,0.050505050505051545 1.1616161616161622,0.050505050505051545 1.262626262626263,0.050505050505051545 1.3636363636363644,0.050505050505051545 1.4646464646464652,0.050505050505051545 1.5656565656565666,0.050505050505051545 1.6666666666666674,0.050505050505051545 1.767676767676768,0.050505050505051545 1.8686868686868696,0.050505050505051545 1.9696969696969702,0.050505050505051545 2.070707070707072,0.050505050505051545 2.1717171717171726,0.050505050505051545 2.2727272727272734,0.050505050505051545 2.373737373737375,0.050505050505051545 2.4747474747474754,0.050505050505051545 2.575757575757577,0.050505050505051545 2.676767676767678,0.050505050505051545 2.7777777777777786,0.050505050505051545 2.87878787878788,0.050505050505051545 2.9797979797979806,0.050505050505051545 3.080808080808082,0.050505050505051545 3.181818181818183,0.050505050505051545 3.2828282828282833,0.050505050505051545 3.383838383838384,0.050505050505051545 3.4848484848484866,0.050505050505051545 3.5858585858585874,0.050505050505051545 3.6868686868686877,0.050505050505051545 3.7878787878787885,0.050505050505051545 3.8888888888888893,0.050505050505051545 3.989898989898992,0.050505050505051545 4.090909090909092,0.050505050505051545 4.191919191919193,0.050505050505051545 4.292929292929293,0.050505050505051545 4.393939393939394,0.050505050505051545 4.494949494949497,0.050505050505051545 4.595959595959597,0.050505050505051545 4.696969696969697,0.050505050505051545 4.7979797979797985,0.050505050505051545 4.898989898989901,0.050505050505051545 5.000000000000002,0.050505050505051545" data-type="line" data-label="" points="40.00000000000006,907.7171717171718 49.53535353535369,898.1818181818181 59.07070707070716,888.6464646464647 68.60606060606068,879.1111111111111 78.14141414141426,869.5757575757575 87.67676767676772,860.0404040404039 97.21212121212136,850.5050505050505 106.74747474747483,840.969696969697 116.28282828282829,831.4343434343434 125.81818181818193,821.8989898989898 135.35353535353545,812.3636363636363 144.88888888888903,802.8282828282828 154.42424242424255,793.2929292929292 163.95959595959607,783.7575757575758 173.4949494949496,774.2222222222222 183.03030303030312,764.6868686868687 192.5656565656567,755.1515151515151 202.10101010101022,745.6161616161615 211.63636363636374,736.0808080808081 221.17171717171726,726.5454545454545 230.70707070707084,717.010101010101 240.2424242424243,707.4747474747475 249.77777777777783,697.939393939394 259.3131313131314,688.4040404040404 268.84848484848493,688.4040404040404 278.38383838383845,678.8686868686868 287.91919191919203,669.3333333333334 297.4545454545455,659.7979797979798 306.9898989898991,650.2626262626263 316.5252525252526,640.7272727272727 326.0606060606061,631.1919191919193 335.59595959595964,621.6565656565657 345.13131313131316,612.1212121212121 354.6666666666667,602.5858585858587 364.2020202020202,593.0505050505051 373.7373737373738,583.5151515151516 383.2727272727273,573.979797979798 392.80808080808083,564.4444444444445 402.34343434343435,554.909090909091 411.8787878787879,545.3737373737374 421.4141414141414,535.838383838384 430.949494949495,526.3030303030304 440.4848484848485,516.7676767676768 450.0202020202021,507.23232323232327 459.55555555555554,507.23232323232327 469.09090909090907,507.23232323232327 478.62626262626264,507.23232323232327 488.16161616161617,507.23232323232327 497.69696969696975,507.23232323232327 507.2323232323232,507.23232323232327 516.7676767676768,507.23232323232327 526.3030303030303,507.23232323232327 535.8383838383838,507.23232323232327 545.3737373737374,507.23232323232327 554.9090909090909,507.23232323232327 564.4444444444445,507.23232323232327 573.9797979797979,507.23232323232327 583.5151515151515,507.23232323232327 593.0505050505051,507.23232323232327 602.5858585858585,507.23232323232327 612.1212121212121,507.23232323232327 621.6565656565656,507.23232323232327 631.1919191919192,507.23232323232327 640.7272727272727,507.23232323232327 650.2626262626262,507.23232323232327 659.7979797979798,507.23232323232327 669.3333333333333,507.23232323232327 678.8686868686868,507.23232323232327 688.4040404040404,507.23232323232327 697.9393939393939,507.23232323232327 707.4747474747475,507.23232323232327 717.0101010101009,507.23232323232327 726.5454545454545,507.23232323232327 736.0808080808081,507.23232323232327 745.6161616161615,507.23232323232327 755.1515151515151,507.23232323232327 764.6868686868686,507.23232323232327 774.2222222222222,507.23232323232327 783.7575757575758,507.23232323232327 793.2929292929292,507.23232323232327 802.8282828282828,507.23232323232327 812.3636363636363,507.23232323232327 821.8989898989898,507.23232323232327 831.4343434343433,507.23232323232327 840.969696969697,507.23232323232327 850.5050505050505,507.23232323232327 860.0404040404039,507.23232323232327 869.5757575757575,507.23232323232327 879.111111111111,507.23232323232327 888.6464646464647,507.23232323232327 898.181818181818,507.23232323232327 907.7171717171716,507.23232323232327 917.2525252525251,507.23232323232327 926.7878787878785,507.23232323232327 936.3232323232323,507.23232323232327 945.8585858585857,507.23232323232327 955.3939393939393,507.23232323232327 964.9292929292927,507.23232323232327 974.4646464646464,507.23232323232327 984,507.23232323232327" fill="none" stroke="rgba(255,0,0,0.75)" stroke-width="11.327999999999996"/></g><g><rect data-type="rect" data-label="" data-x="0" data-y="0" x="40.000000000000114" y="40.000000000000284" width="943.9999999999997" height="943.9999999999998" fill="none" stroke="gray" stroke-width="0.010593220338983056"/></g><g><rect data-type="rect" data-label="" data-x="0" data-y="0" x="40.000000000000114" y="40.000000000000284" width="943.9999999999997" height="943.9999999999998" fill="none" stroke="rgba(15, 23, 42, 0.8)" stroke-width="0.010593220338983056"/></g><circle data-type="circle" data-label="" data-x="-2.9797979797979792" data-y="3.989898989898992" cx="230.70707070707084" cy="135.35353535353545" r="14.159999999999995" fill="rgba(0,0,0,0.3)" stroke="black" stroke-width="0.010593220338983056"/><circle data-type="circle" data-label="" data-x="-2.5757575757575752" data-y="-1.5656565656565653" cx="268.84848484848493" cy="659.7979797979798" r="14.159999999999995" fill="rgba(0,0,0,0.3)" stroke="black" stroke-width="0.010593220338983056"/><circle data-type="circle" data-label="" data-x="-3.98989898989899" data-y="-1.5656565656565653" cx="135.35353535353545" cy="659.7979797979798" r="14.159999999999995" fill="rgba(0,0,0,0.3)" stroke="black" stroke-width="0.010593220338983056"/><g id="crosshair" style="display: none"><line id="crosshair-h" y1="0" y2="1024" stroke="#666" stroke-width="0.5"/><line id="crosshair-v" x1="0" x2="1024" stroke="#666" stroke-width="0.5"/><text id="coordinates" font-family="monospace" font-size="12" fill="#666"></text></g><script><![CDATA[
              document.currentScript.parentElement.addEventListener('mousemove', (e) => {
                const svg = e.currentTarget;
                const rect = svg.getBoundingClientRect();
                const x = e.clientX - rect.left;
                const y = e.clientY - rect.top;
                const crosshair = svg.getElementById('crosshair');
                const h = svg.getElementById('crosshair-h');
                const v = svg.getElementById('crosshair-v');
                const coords = svg.getElementById('coordinates');
                
                crosshair.style.display = 'block';
                h.setAttribute('x1', '0');
                h.setAttribute('x2', '1024');
                h.setAttribute('y1', y);
                h.setAttribute('y2', y);
                v.setAttribute('x1', x);
                v.setAttribute('x2', x);
                v.setAttribute('y1', '0');
                v.setAttribute('y2', '1024');

                // Calculate real coordinates using inverse transformation
                const matrix = {"a":94.39999999999996,"c":0,"e":511.99999999999994,"b":0,"d":-94.39999999999996,"f":512.0000000000001};
                // Manually invert and apply the affine transform
                // Since we only use translate and scale, we can directly compute:
                // x' = (x - tx) / sx
                // y' = (y - ty) / sy
                const sx = matrix.a;
                const sy = matrix.d;
                const tx = matrix.e; 
                const ty = matrix.f;
                const realPoint = {
                  x: (x - tx) / sx,
                  y: (y - ty) / sy // Flip y back since we used negative scale
                }
                
                coords.textContent = `(${realPoint.x.toFixed(2)}, ${realPoint.y.toFixed(2)})`;
                coords.setAttribute('x', (x + 5).toString());
                coords.setAttribute('y', (y - 5).toString());
              });
              document.currentScript.parentElement.addEventListener('mouseleave', () => {
                document.currentScript.parentElement.getElementById('crosshair').style.display = 'none';
              });
            ]]></script></svg>