<svg width="1024" height="1024" viewBox="0 0 1024 1024" xmlns="http://www.w3.org/2000/svg"><rect width="100%" height="100%" fill="white"/><g><circle data-type="point" data-label="conn_000" data-x="4.74" data-y="5" cx="959.4559999999998" cy="40.000000000000284" r="14.16" fill="blue"/></g><g><circle data-type="point" data-label="conn_000" data-x="-5" data-y="0.48" cx="40.000000000000114" cy="466.6880000000001" r="14.16" fill="blue"/></g><g><circle data-type="point" data-label="conn_001" data-x="5" data-y="-3.1" cx="983.9999999999998" cy="804.64" r="14.16" fill="blue"/></g><g><circle data-type="point" data-label="conn_001" data-x="-5" data-y="-3.46" cx="40.000000000000114" cy="838.624" r="14.16" fill="red"/></g><g><circle data-type="point" data-label="conn_002" data-x="-5" data-y="1.86" cx="40.000000000000114" cy="336.41600000000017" r="14.16" fill="blue"/></g><g><circle data-type="point" data-label="conn_002" data-x="1.42" data-y="-5" cx="646.0479999999999" cy="984" r="14.16" fill="blue"/></g><g><circle data-type="point" data-label="conn_003" data-x="-5" data-y="-1.36" cx="40.000000000000114" cy="640.384" r="14.16" fill="red"/></g><g><circle data-type="point" data-label="conn_003" data-x="5" data-y="-0.24" cx="983.9999999999998" cy="534.6560000000001" r="14.16" fill="red"/></g><g><polyline data-points="-5.000000000000001,-1.363636363636363 -4.898989898989899,-1.2626262626262625 -4.7979797979797985,-1.1616161616161613 -4.696969696969697,-1.0606060606060603 -4.595959595959596,-0.9595959595959596 -4.494949494949496,-0.8585858585858579 -4.393939393939394,-0.7575757575757572 -4.292929292929293,-0.6565656565656557 -4.191919191919193,-0.555555555555555 -4.090909090909091,-0.4545454545454544 -3.98989898989899,-0.35353535353535287 -3.8888888888888884,-0.2525252525252522 -3.7878787878787876,-0.2525252525252522 -3.6868686868686864,-0.2525252525252522 -3.5858585858585856,-0.2525252525252522 -3.484848484848485,-0.2525252525252522 -3.383838383838383,-0.2525252525252522 -3.2828282828282824,-0.2525252525252522 -3.1818181818181817,-0.2525252525252522 -3.0808080808080804,-0.2525252525252522 -2.9797979797979792,-0.2525252525252522 -2.8787878787878785,-0.2525252525252522 -2.7777777777777777,-0.2525252525252522 -2.6767676767676765,-0.2525252525252522 -2.5757575757575752,-0.2525252525252522 -2.474747474747474,-0.2525252525252522 -2.3737373737373733,-0.2525252525252522 -2.2727272727272725,-0.2525252525252522 -2.1717171717171713,-0.2525252525252522 -2.07070707070707,-0.2525252525252522 -1.9696969696969693,-0.2525252525252522 -1.8686868686868683,-0.2525252525252522 -1.7676767676767675,-0.2525252525252522 -1.6666666666666665,-0.2525252525252522 -1.5656565656565653,-0.2525252525252522 -1.4646464646464643,-0.2525252525252522 -1.363636363636363,-0.2525252525252522 -1.2626262626262625,-0.2525252525252522 -1.1616161616161613,-0.2525252525252522 -1.0606060606060603,-0.2525252525252522 -0.9595959595959596,-0.2525252525252522 -0.8585858585858579,-0.2525252525252522 -0.7575757575757572,-0.2525252525252522 -0.6565656565656557,-0.2525252525252522 -0.555555555555555,-0.2525252525252522 -0.4545454545454544,-0.2525252525252522 -0.35353535353535287,-0.2525252525252522 -0.2525252525252522,-0.2525252525252522 -0.15151515151515066,-0.2525252525252522 -0.05050505050505001,-0.2525252525252522 0.050505050505051545,-0.2525252525252522 0.1515151515151522,-0.2525252525252522 0.2525252525252529,-0.2525252525252522 0.3535353535353544,-0.2525252525252522 0.4545454545454551,-0.2525252525252522 0.5555555555555567,-0.2525252525252522 0.6565656565656574,-0.2525252525252522 0.7575757575757579,-0.2525252525252522 0.8585858585858596,-0.2525252525252522 0.9595959595959602,-0.2525252525252522 1.0606060606060617,-0.2525252525252522 1.1616161616161622,-0.2525252525252522 1.262626262626263,-0.2525252525252522 1.3636363636363644,-0.2525252525252522 1.4646464646464652,-0.2525252525252522 1.5656565656565666,-0.2525252525252522 1.6666666666666674,-0.2525252525252522 1.767676767676768,-0.2525252525252522 1.8686868686868696,-0.2525252525252522 1.9696969696969702,-0.2525252525252522 2.070707070707072,-0.2525252525252522 2.1717171717171726,-0.2525252525252522 2.2727272727272734,-0.2525252525252522 2.373737373737375,-0.2525252525252522 2.4747474747474754,-0.2525252525252522 2.575757575757577,-0.2525252525252522 2.676767676767678,-0.2525252525252522 2.7777777777777786,-0.2525252525252522 2.87878787878788,-0.2525252525252522 2.9797979797979806,-0.2525252525252522 3.080808080808082,-0.2525252525252522 3.181818181818183,-0.2525252525252522 3.2828282828282833,-0.2525252525252522 3.383838383838384,-0.2525252525252522 3.4848484848484866,-0.2525252525252522 3.5858585858585874,-0.2525252525252522 3.6868686868686877,-0.2525252525252522 3.7878787878787885,-0.2525252525252522 3.8888888888888893,-0.2525252525252522 3.989898989898992,-0.2525252525252522 4.090909090909092,-0.2525252525252522 4.191919191919193,-0.2525252525252522 4.292929292929293,-0.2525252525252522 4.393939393939394,-0.2525252525252522 4.494949494949497,-0.2525252525252522 4.595959595959597,-0.2525252525252522 4.696969696969697,-0.2525252525252522 4.7979797979797985,-0.2525252525252522 4.898989898989901,-0.2525252525252522 5.000000000000002,-0.2525252525252522" data-type="line" data-label="" points="40.00000000000006,640.7272727272727 49.53535353535369,631.1919191919193 59.07070707070716,621.6565656565657 68.60606060606068,612.1212121212121 78.14141414141426,602.5858585858587 87.67676767676772,593.0505050505051 97.21212121212136,583.5151515151516 106.74747474747483,573.979797979798 116.28282828282829,564.4444444444445 125.81818181818193,554.909090909091 135.35353535353545,545.3737373737374 144.88888888888903,535.838383838384 154.42424242424255,535.838383838384 163.95959595959607,535.838383838384 173.4949494949496,535.838383838384 183.03030303030312,535.838383838384 192.5656565656567,535.838383838384 202.10101010101022,535.838383838384 211.63636363636374,535.838383838384 221.17171717171726,535.838383838384 230.70707070707084,535.838383838384 240.2424242424243,535.838383838384 249.77777777777783,535.838383838384 259.3131313131314,535.838383838384 268.84848484848493,535.838383838384 278.38383838383845,535.838383838384 287.91919191919203,535.838383838384 297.4545454545455,535.838383838384 306.9898989898991,535.838383838384 316.5252525252526,535.838383838384 326.0606060606061,535.838383838384 335.59595959595964,535.838383838384 345.13131313131316,535.838383838384 354.6666666666667,535.838383838384 364.2020202020202,535.838383838384 373.7373737373738,535.838383838384 383.2727272727273,535.838383838384 392.80808080808083,535.838383838384 402.34343434343435,535.838383838384 411.8787878787879,535.838383838384 421.4141414141414,535.838383838384 430.949494949495,535.838383838384 440.4848484848485,535.838383838384 450.0202020202021,535.838383838384 459.55555555555554,535.838383838384 469.09090909090907,535.838383838384 478.62626262626264,535.838383838384 488.16161616161617,535.838383838384 497.69696969696975,535.838383838384 507.2323232323232,535.838383838384 516.7676767676768,535.838383838384 526.3030303030303,535.838383838384 535.8383838383838,535.838383838384 545.3737373737374,535.838383838384 554.9090909090909,535.838383838384 564.4444444444445,535.838383838384 573.9797979797979,535.838383838384 583.5151515151515,535.838383838384 593.0505050505051,535.838383838384 602.5858585858585,535.838383838384 612.1212121212121,535.838383838384 621.6565656565656,535.838383838384 631.1919191919192,535.838383838384 640.7272727272727,535.838383838384 650.2626262626262,535.838383838384 659.7979797979798,535.838383838384 669.3333333333333,535.838383838384 678.8686868686868,535.838383838384 688.4040404040404,535.838383838384 697.9393939393939,535.838383838384 707.4747474747475,535.838383838384 717.0101010101009,535.838383838384 726.5454545454545,535.838383838384 736.0808080808081,535.838383838384 745.6161616161615,535.838383838384 755.1515151515151,535.838383838384 764.6868686868686,535.838383838384 774.2222222222222,535.838383838384 783.7575757575758,535.838383838384 793.2929292929292,535.838383838384 802.8282828282828,535.838383838384 812.3636363636363,535.838383838384 821.8989898989898,535.838383838384 831.4343434343433,535.838383838384 840.969696969697,535.838383838384 850.5050505050505,535.838383838384 860.0404040404039,535.838383838384 869.5757575757575,535.838383838384 879.111111111111,535.838383838384 888.6464646464647,535.838383838384 898.181818181818,535.838383838384 907.7171717171716,535.838383838384 917.2525252525251,535.838383838384 926.7878787878785,535.838383838384 936.3232323232323,535.838383838384 945.8585858585857,535.838383838384 955.3939393939393,535.838383838384 964.9292929292927,535.838383838384 974.4646464646464,535.838383838384 984,535.838383838384" fill="none" stroke="rgba(255,0,0,0.75)" stroke-width="11.327999999999996"/></g><g><polyline data-points="4.7979797979797985,5.000000000000002 4.696969696969697,4.898989898989901 4.595959595959597,4.7979797979797985 4.494949494949497,4.696969696969697 4.393939393939394,4.595959595959597 4.292929292929293,4.494949494949497 4.191919191919193,4.393939393939394 4.090909090909092,4.292929292929293 3.989898989898992,4.191919191919193 3.8888888888888893,4.090909090909092 3.7878787878787885,3.989898989898992 3.6868686868686877,3.8888888888888893 3.5858585858585874,3.7878787878787885 3.4848484848484866,3.6868686868686877 3.383838383838384,3.5858585858585874 3.2828282828282833,3.4848484848484866 3.181818181818183,3.383838383838384 3.080808080808082,3.2828282828282833 2.9797979797979806,3.181818181818183 2.87878787878788,3.080808080808082 2.7777777777777786,2.9797979797979806 2.676767676767678,2.87878787878788 2.575757575757577,2.7777777777777786 2.4747474747474754,2.676767676767678 2.373737373737375,2.575757575757577 2.2727272727272734,2.4747474747474754 2.1717171717171726,2.373737373737375 2.070707070707072,2.2727272727272734 1.9696969696969702,2.1717171717171726 1.8686868686868696,2.070707070707072 1.767676767676768,1.9696969696969702 1.6666666666666674,1.8686868686868696 1.5656565656565666,1.767676767676768 1.4646464646464652,1.6666666666666674 1.3636363636363644,1.5656565656565666 1.262626262626263,1.4646464646464652 1.1616161616161622,1.3636363636363644 1.0606060606060617,1.262626262626263 0.9595959595959602,1.1616161616161622 0.8585858585858596,1.0606060606060617 0.7575757575757579,0.9595959595959602 0.6565656565656574,0.8585858585858596 0.5555555555555567,0.7575757575757579 0.4545454545454551,0.6565656565656574 0.3535353535353544,0.5555555555555567 0.2525252525252529,0.4545454545454551 0.1515151515151522,0.4545454545454551 0.050505050505051545,0.4545454545454551 -0.05050505050505001,0.4545454545454551 -0.15151515151515066,0.4545454545454551 -0.2525252525252522,0.4545454545454551 -0.35353535353535287,0.4545454545454551 -0.4545454545454544,0.4545454545454551 -0.555555555555555,0.4545454545454551 -0.6565656565656557,0.4545454545454551 -0.7575757575757572,0.4545454545454551 -0.8585858585858579,0.4545454545454551 -0.9595959595959596,0.4545454545454551 -1.0606060606060603,0.4545454545454551 -1.1616161616161613,0.4545454545454551 -1.2626262626262625,0.4545454545454551 -1.363636363636363,0.4545454545454551 -1.4646464646464643,0.4545454545454551 -1.5656565656565653,0.4545454545454551 -1.6666666666666665,0.4545454545454551 -1.7676767676767675,0.4545454545454551 -1.8686868686868683,0.4545454545454551 -1.9696969696969693,0.4545454545454551 -2.07070707070707,0.4545454545454551 -2.1717171717171713,0.4545454545454551 -2.2727272727272725,0.4545454545454551 -2.3737373737373733,0.4545454545454551 -2.474747474747474,0.4545454545454551 -2.5757575757575752,0.4545454545454551 -2.6767676767676765,0.4545454545454551 -2.7777777777777777,0.4545454545454551 -2.8787878787878785,0.4545454545454551 -2.9797979797979792,0.4545454545454551 -3.0808080808080804,0.4545454545454551 -3.1818181818181817,0.4545454545454551 -3.2828282828282824,0.4545454545454551 -3.383838383838383,0.4545454545454551 -3.484848484848485,0.4545454545454551 -3.5858585858585856,0.4545454545454551 -3.6868686868686864,0.4545454545454551 -3.7878787878787876,0.4545454545454551 -3.8888888888888884,0.4545454545454551 -3.98989898989899,0.4545454545454551 -4.090909090909091,0.4545454545454551 -4.191919191919193,0.4545454545454551 -4.292929292929293,0.4545454545454551 -4.393939393939394,0.4545454545454551 -4.494949494949496,0.4545454545454551 -4.595959595959596,0.4545454545454551 -4.696969696969697,0.4545454545454551 -4.7979797979797985,0.4545454545454551 -4.898989898989899,0.4545454545454551 -5.000000000000001,0.4545454545454551" data-type="line" data-label="" points="964.9292929292927,40.000000000000114 955.3939393939393,49.53535353535369 945.8585858585857,59.07070707070733 936.3232323232323,68.60606060606085 926.7878787878785,78.14141414141432 917.2525252525251,87.67676767676778 907.7171717171716,97.21212121212153 898.181818181818,106.747474747475 888.6464646464647,116.28282828282846 879.111111111111,125.81818181818198 869.5757575757575,135.35353535353545 860.0404040404039,144.88888888888908 850.5050505050505,154.4242424242426 840.969696969697,163.95959595959613 831.4343434343433,173.4949494949496 821.8989898989898,183.03030303030312 812.3636363636363,192.56565656565675 802.8282828282828,202.10101010101027 793.2929292929292,211.63636363636374 783.7575757575758,221.17171717171726 774.2222222222222,230.70707070707084 764.6868686868686,240.24242424242436 755.1515151515151,249.77777777777794 745.6161616161615,259.3131313131314 736.0808080808081,268.84848484848493 726.5454545454545,278.38383838383857 717.0101010101009,287.91919191919203 707.4747474747475,297.4545454545456 697.9393939393939,306.9898989898991 688.4040404040404,316.5252525252526 678.8686868686868,326.06060606060623 669.3333333333333,335.5959595959597 659.7979797979798,345.1313131313133 650.2626262626262,354.66666666666674 640.7272727272727,364.2020202020203 631.1919191919192,373.73737373737384 621.6565656565656,383.27272727272737 612.1212121212121,392.80808080808094 602.5858585858585,402.3434343434344 593.0505050505051,411.87878787878793 583.5151515151515,421.4141414141415 573.9797979797979,430.94949494949503 564.4444444444445,440.4848484848486 554.9090909090909,450.0202020202021 545.3737373737374,459.5555555555556 535.8383838383838,469.0909090909092 526.3030303030303,469.0909090909092 516.7676767676768,469.0909090909092 507.2323232323232,469.0909090909092 497.69696969696975,469.0909090909092 488.16161616161617,469.0909090909092 478.62626262626264,469.0909090909092 469.09090909090907,469.0909090909092 459.55555555555554,469.0909090909092 450.0202020202021,469.0909090909092 440.4848484848485,469.0909090909092 430.949494949495,469.0909090909092 421.4141414141414,469.0909090909092 411.8787878787879,469.0909090909092 402.34343434343435,469.0909090909092 392.80808080808083,469.0909090909092 383.2727272727273,469.0909090909092 373.7373737373738,469.0909090909092 364.2020202020202,469.0909090909092 354.6666666666667,469.0909090909092 345.13131313131316,469.0909090909092 335.59595959595964,469.0909090909092 326.0606060606061,469.0909090909092 316.5252525252526,469.0909090909092 306.9898989898991,469.0909090909092 297.4545454545455,469.0909090909092 287.91919191919203,469.0909090909092 278.38383838383845,469.0909090909092 268.84848484848493,469.0909090909092 259.3131313131314,469.0909090909092 249.77777777777783,469.0909090909092 240.2424242424243,469.0909090909092 230.70707070707084,469.0909090909092 221.17171717171726,469.0909090909092 211.63636363636374,469.0909090909092 202.10101010101022,469.0909090909092 192.5656565656567,469.0909090909092 183.03030303030312,469.0909090909092 173.4949494949496,469.0909090909092 163.95959595959607,469.0909090909092 154.42424242424255,469.0909090909092 144.88888888888903,469.0909090909092 135.35353535353545,469.0909090909092 125.81818181818193,469.0909090909092 116.28282828282829,469.0909090909092 106.74747474747483,469.0909090909092 97.21212121212136,469.0909090909092 87.67676767676772,469.0909090909092 78.14141414141426,469.0909090909092 68.60606060606068,469.0909090909092 59.07070707070716,469.0909090909092 49.53535353535369,469.0909090909092 40.00000000000006,469.0909090909092" fill="none" stroke="rgba(0,0,255,0.75)" stroke-width="11.327999999999996"/></g><g><polyline data-points="-5.000000000000001,1.8686868686868696 -4.898989898989899,1.767676767676768 -4.7979797979797985,1.6666666666666674 -4.696969696969697,1.5656565656565666 -4.595959595959596,1.4646464646464652 -4.494949494949496,1.3636363636363644 -4.393939393939394,1.262626262626263 -4.292929292929293,1.1616161616161622 -4.191919191919193,1.0606060606060617 -4.090909090909091,0.9595959595959602 -3.98989898989899,0.8585858585858596 -3.8888888888888884,0.8585858585858596 -3.7878787878787876,0.8585858585858596 -3.6868686868686864,0.8585858585858596 -3.5858585858585856,0.8585858585858596 -3.484848484848485,0.8585858585858596 -3.383838383838383,0.8585858585858596 -3.2828282828282824,0.8585858585858596 -3.1818181818181817,0.8585858585858596 -3.0808080808080804,0.8585858585858596 -2.9797979797979792,0.8585858585858596 -2.8787878787878785,0.8585858585858596 -2.7777777777777777,0.8585858585858596 -2.6767676767676765,0.8585858585858596 -2.5757575757575752,0.8585858585858596 -2.474747474747474,0.8585858585858596 -2.3737373737373733,0.8585858585858596 -2.2727272727272725,0.8585858585858596 -2.1717171717171713,0.8585858585858596 -2.07070707070707,0.8585858585858596 -1.9696969696969693,0.8585858585858596 -1.8686868686868683,0.8585858585858596 -1.7676767676767675,0.8585858585858596 -1.6666666666666665,0.8585858585858596 -1.5656565656565653,0.8585858585858596 -1.4646464646464643,0.8585858585858596 -1.363636363636363,0.8585858585858596 -1.2626262626262625,0.8585858585858596 -1.1616161616161613,0.8585858585858596 -1.0606060606060603,0.8585858585858596 -0.9595959595959596,0.8585858585858596 -0.8585858585858579,0.8585858585858596 -0.7575757575757572,0.8585858585858596 -0.6565656565656557,0.8585858585858596 -0.555555555555555,0.8585858585858596 -0.4545454545454544,0.8585858585858596" data-type="line" data-label="" points="40.00000000000006,335.5959595959597 49.53535353535369,345.1313131313133 59.07070707070716,354.66666666666674 68.60606060606068,364.2020202020203 78.14141414141426,373.73737373737384 87.67676767676772,383.27272727272737 97.21212121212136,392.80808080808094 106.74747474747483,402.3434343434344 116.28282828282829,411.87878787878793 125.81818181818193,421.4141414141415 135.35353535353545,430.94949494949503 144.88888888888903,430.94949494949503 154.42424242424255,430.94949494949503 163.95959595959607,430.94949494949503 173.4949494949496,430.94949494949503 183.03030303030312,430.94949494949503 192.5656565656567,430.94949494949503 202.10101010101022,430.94949494949503 211.63636363636374,430.94949494949503 221.17171717171726,430.94949494949503 230.70707070707084,430.94949494949503 240.2424242424243,430.94949494949503 249.77777777777783,430.94949494949503 259.3131313131314,430.94949494949503 268.84848484848493,430.94949494949503 278.38383838383845,430.94949494949503 287.91919191919203,430.94949494949503 297.4545454545455,430.94949494949503 306.9898989898991,430.94949494949503 316.5252525252526,430.94949494949503 326.0606060606061,430.94949494949503 335.59595959595964,430.94949494949503 345.13131313131316,430.94949494949503 354.6666666666667,430.94949494949503 364.2020202020202,430.94949494949503 373.7373737373738,430.94949494949503 383.2727272727273,430.94949494949503 392.80808080808083,430.94949494949503 402.34343434343435,430.94949494949503 411.8787878787879,430.94949494949503 421.4141414141414,430.94949494949503 430.949494949495,430.94949494949503 440.4848484848485,430.94949494949503 450.0202020202021,430.94949494949503 459.55555555555554,430.94949494949503 469.09090909090907,430.94949494949503" fill="none" stroke="rgba(0,0,255,0.75)" stroke-width="11.327999999999996"/></g><g><polyline data-points="-0.4545454545454544,0.8585858585858596 -0.35353535353535287,0.7575757575757579 -0.2525252525252522,0.6565656565656574 -0.15151515151515066,0.5555555555555567 -0.05050505050505001,0.4545454545454551 0.050505050505051545,0.3535353535353544 0.1515151515151522,0.2525252525252529 0.2525252525252529,0.1515151515151522 0.3535353535353544,0.1515151515151522 0.4545454545454551,0.1515151515151522 0.5555555555555567,0.1515151515151522 0.6565656565656574,0.1515151515151522 0.7575757575757579,0.1515151515151522 0.8585858585858596,0.1515151515151522 0.9595959595959602,0.1515151515151522 1.0606060606060617,0.1515151515151522 1.1616161616161622,0.1515151515151522 1.262626262626263,0.1515151515151522 1.3636363636363644,0.1515151515151522" data-type="line" data-label="" points="469.09090909090907,430.94949494949503 478.62626262626264,440.4848484848486 488.16161616161617,450.0202020202021 497.69696969696975,459.5555555555556 507.2323232323232,469.0909090909092 516.7676767676768,478.6262626262627 526.3030303030303,488.1616161616163 535.8383838383838,497.69696969696975 545.3737373737374,497.69696969696975 554.9090909090909,497.69696969696975 564.4444444444445,497.69696969696975 573.9797979797979,497.69696969696975 583.5151515151515,497.69696969696975 593.0505050505051,497.69696969696975 602.5858585858585,497.69696969696975 612.1212121212121,497.69696969696975 621.6565656565656,497.69696969696975 631.1919191919192,497.69696969696975 640.7272727272727,497.69696969696975" fill="none" stroke="rgba(255,0,0,0.75)" stroke-width="11.327999999999996"/></g><g><polyline data-points="1.3636363636363644,0.1515151515151522 1.4646464646464652,0.050505050505051545 1.4646464646464652,-0.05050505050505001 1.4646464646464652,-0.15151515151515066 1.4646464646464652,-0.2525252525252522 1.4646464646464652,-0.35353535353535287 1.4646464646464652,-0.4545454545454544 1.4646464646464652,-0.555555555555555 1.4646464646464652,-0.6565656565656557 1.4646464646464652,-0.7575757575757572 1.4646464646464652,-0.8585858585858579 1.4646464646464652,-0.9595959595959596 1.4646464646464652,-1.0606060606060603 1.4646464646464652,-1.1616161616161613 1.4646464646464652,-1.2626262626262625 1.4646464646464652,-1.363636363636363 1.4646464646464652,-1.4646464646464643 1.4646464646464652,-1.5656565656565653 1.4646464646464652,-1.6666666666666665 1.4646464646464652,-1.7676767676767675 1.4646464646464652,-1.8686868686868683 1.4646464646464652,-1.9696969696969693 1.4646464646464652,-2.07070707070707 1.4646464646464652,-2.1717171717171713 1.4646464646464652,-2.2727272727272725 1.4646464646464652,-2.3737373737373733 1.4646464646464652,-2.474747474747474 1.4646464646464652,-2.5757575757575752 1.4646464646464652,-2.6767676767676765 1.4646464646464652,-2.7777777777777777 1.4646464646464652,-2.8787878787878785 1.4646464646464652,-2.9797979797979792 1.4646464646464652,-3.0808080808080804 1.4646464646464652,-3.1818181818181817 1.4646464646464652,-3.2828282828282824 1.4646464646464652,-3.383838383838383 1.4646464646464652,-3.484848484848485 1.4646464646464652,-3.5858585858585856 1.4646464646464652,-3.6868686868686864 1.4646464646464652,-3.7878787878787876 1.4646464646464652,-3.8888888888888884 1.4646464646464652,-3.98989898989899 1.4646464646464652,-4.090909090909091 1.4646464646464652,-4.191919191919193 1.4646464646464652,-4.292929292929293 1.4646464646464652,-4.393939393939394 1.4646464646464652,-4.494949494949496 1.4646464646464652,-4.595959595959596 1.4646464646464652,-4.696969696969697 1.4646464646464652,-4.7979797979797985 1.4646464646464652,-4.898989898989899 1.4646464646464652,-5.000000000000001" data-type="line" data-label="" points="640.7272727272727,497.69696969696975 650.2626262626262,507.23232323232327 650.2626262626262,516.7676767676768 650.2626262626262,526.3030303030304 650.2626262626262,535.838383838384 650.2626262626262,545.3737373737374 650.2626262626262,554.909090909091 650.2626262626262,564.4444444444445 650.2626262626262,573.979797979798 650.2626262626262,583.5151515151516 650.2626262626262,593.0505050505051 650.2626262626262,602.5858585858587 650.2626262626262,612.1212121212121 650.2626262626262,621.6565656565657 650.2626262626262,631.1919191919193 650.2626262626262,640.7272727272727 650.2626262626262,650.2626262626263 650.2626262626262,659.7979797979798 650.2626262626262,669.3333333333334 650.2626262626262,678.8686868686868 650.2626262626262,688.4040404040404 650.2626262626262,697.939393939394 650.2626262626262,707.4747474747475 650.2626262626262,717.010101010101 650.2626262626262,726.5454545454545 650.2626262626262,736.0808080808081 650.2626262626262,745.6161616161615 650.2626262626262,755.1515151515151 650.2626262626262,764.6868686868687 650.2626262626262,774.2222222222222 650.2626262626262,783.7575757575758 650.2626262626262,793.2929292929292 650.2626262626262,802.8282828282828 650.2626262626262,812.3636363636363 650.2626262626262,821.8989898989898 650.2626262626262,831.4343434343434 650.2626262626262,840.969696969697 650.2626262626262,850.5050505050505 650.2626262626262,860.0404040404039 650.2626262626262,869.5757575757575 650.2626262626262,879.1111111111111 650.2626262626262,888.6464646464647 650.2626262626262,898.1818181818181 650.2626262626262,907.7171717171718 650.2626262626262,917.2525252525252 650.2626262626262,926.7878787878788 650.2626262626262,936.3232323232323 650.2626262626262,945.8585858585858 650.2626262626262,955.3939393939394 650.2626262626262,964.9292929292928 650.2626262626262,974.4646464646464 650.2626262626262,984" fill="none" stroke="rgba(0,0,255,0.75)" stroke-width="11.327999999999996"/></g><g><polyline data-points="5.000000000000002,-3.1818181818181817 4.898989898989901,-3.2828282828282824 4.7979797979797985,-3.383838383838383 4.696969696969697,-3.484848484848485 4.595959595959597,-3.484848484848485 4.494949494949497,-3.484848484848485 4.393939393939394,-3.484848484848485 4.292929292929293,-3.484848484848485 4.191919191919193,-3.484848484848485 4.090909090909092,-3.484848484848485 3.989898989898992,-3.484848484848485 3.8888888888888893,-3.484848484848485 3.7878787878787885,-3.484848484848485 3.6868686868686877,-3.484848484848485 3.5858585858585874,-3.484848484848485 3.4848484848484866,-3.484848484848485 3.383838383838384,-3.484848484848485 3.2828282828282833,-3.484848484848485 3.181818181818183,-3.484848484848485 3.080808080808082,-3.484848484848485 2.9797979797979806,-3.484848484848485 2.87878787878788,-3.484848484848485 2.7777777777777786,-3.484848484848485 2.676767676767678,-3.484848484848485 2.575757575757577,-3.484848484848485 2.4747474747474754,-3.484848484848485 2.373737373737375,-3.484848484848485 2.2727272727272734,-3.484848484848485 2.1717171717171726,-3.484848484848485 2.070707070707072,-3.484848484848485 1.9696969696969702,-3.484848484848485 1.8686868686868696,-3.484848484848485" data-type="line" data-label="" points="984,812.3636363636363 974.4646464646464,821.8989898989898 964.9292929292927,831.4343434343434 955.3939393939393,840.969696969697 945.8585858585857,840.969696969697 936.3232323232323,840.969696969697 926.7878787878785,840.969696969697 917.2525252525251,840.969696969697 907.7171717171716,840.969696969697 898.181818181818,840.969696969697 888.6464646464647,840.969696969697 879.111111111111,840.969696969697 869.5757575757575,840.969696969697 860.0404040404039,840.969696969697 850.5050505050505,840.969696969697 840.969696969697,840.969696969697 831.4343434343433,840.969696969697 821.8989898989898,840.969696969697 812.3636363636363,840.969696969697 802.8282828282828,840.969696969697 793.2929292929292,840.969696969697 783.7575757575758,840.969696969697 774.2222222222222,840.969696969697 764.6868686868686,840.969696969697 755.1515151515151,840.969696969697 745.6161616161615,840.969696969697 736.0808080808081,840.969696969697 726.5454545454545,840.969696969697 717.0101010101009,840.969696969697 707.4747474747475,840.969696969697 697.9393939393939,840.969696969697 688.4040404040404,840.969696969697" fill="none" stroke="rgba(0,0,255,0.75)" stroke-width="11.327999999999996"/></g><g><polyline data-points="1.8686868686868696,-3.484848484848485 1.767676767676768,-3.484848484848485 1.6666666666666674,-3.484848484848485 1.5656565656565666,-3.484848484848485 1.4646464646464652,-3.484848484848485 1.3636363636363644,-3.484848484848485 1.262626262626263,-3.484848484848485 1.1616161616161622,-3.484848484848485 1.0606060606060617,-3.484848484848485 0.9595959595959602,-3.484848484848485 0.8585858585858596,-3.484848484848485 0.7575757575757579,-3.484848484848485 0.6565656565656574,-3.484848484848485 0.5555555555555567,-3.484848484848485 0.4545454545454551,-3.484848484848485 0.3535353535353544,-3.484848484848485 0.2525252525252529,-3.484848484848485 0.1515151515151522,-3.484848484848485 0.050505050505051545,-3.484848484848485 -0.05050505050505001,-3.484848484848485 -0.15151515151515066,-3.484848484848485 -0.2525252525252522,-3.484848484848485 -0.35353535353535287,-3.484848484848485 -0.4545454545454544,-3.484848484848485 -0.555555555555555,-3.484848484848485 -0.6565656565656557,-3.484848484848485 -0.7575757575757572,-3.484848484848485 -0.8585858585858579,-3.484848484848485 -0.9595959595959596,-3.484848484848485 -1.0606060606060603,-3.484848484848485 -1.1616161616161613,-3.484848484848485 -1.2626262626262625,-3.484848484848485 -1.363636363636363,-3.484848484848485 -1.4646464646464643,-3.484848484848485 -1.5656565656565653,-3.484848484848485 -1.6666666666666665,-3.484848484848485 -1.7676767676767675,-3.484848484848485 -1.8686868686868683,-3.484848484848485 -1.9696969696969693,-3.484848484848485 -2.07070707070707,-3.484848484848485 -2.1717171717171713,-3.484848484848485 -2.2727272727272725,-3.484848484848485 -2.3737373737373733,-3.484848484848485 -2.474747474747474,-3.484848484848485 -2.5757575757575752,-3.484848484848485 -2.6767676767676765,-3.484848484848485 -2.7777777777777777,-3.484848484848485 -2.8787878787878785,-3.484848484848485 -2.9797979797979792,-3.484848484848485 -3.0808080808080804,-3.484848484848485 -3.1818181818181817,-3.484848484848485 -3.2828282828282824,-3.484848484848485 -3.383838383838383,-3.484848484848485 -3.484848484848485,-3.484848484848485 -3.5858585858585856,-3.484848484848485 -3.6868686868686864,-3.484848484848485 -3.7878787878787876,-3.484848484848485 -3.8888888888888884,-3.484848484848485 -3.98989898989899,-3.484848484848485 -4.090909090909091,-3.484848484848485 -4.191919191919193,-3.484848484848485 -4.292929292929293,-3.484848484848485 -4.393939393939394,-3.484848484848485 -4.494949494949496,-3.484848484848485 -4.595959595959596,-3.484848484848485 -4.696969696969697,-3.484848484848485 -4.7979797979797985,-3.484848484848485 -4.898989898989899,-3.484848484848485 -5.000000000000001,-3.484848484848485" data-type="line" data-label="" points="688.4040404040404,840.969696969697 678.8686868686868,840.969696969697 669.3333333333333,840.969696969697 659.7979797979798,840.969696969697 650.2626262626262,840.969696969697 640.7272727272727,840.969696969697 631.1919191919192,840.969696969697 621.6565656565656,840.969696969697 612.1212121212121,840.969696969697 602.5858585858585,840.969696969697 593.0505050505051,840.969696969697 583.5151515151515,840.969696969697 573.9797979797979,840.969696969697 564.4444444444445,840.969696969697 554.9090909090909,840.969696969697 545.3737373737374,840.969696969697 535.8383838383838,840.969696969697 526.3030303030303,840.969696969697 516.7676767676768,840.969696969697 507.2323232323232,840.969696969697 497.69696969696975,840.969696969697 488.16161616161617,840.969696969697 478.62626262626264,840.969696969697 469.09090909090907,840.969696969697 459.55555555555554,840.969696969697 450.0202020202021,840.969696969697 440.4848484848485,840.969696969697 430.949494949495,840.969696969697 421.4141414141414,840.969696969697 411.8787878787879,840.969696969697 402.34343434343435,840.969696969697 392.80808080808083,840.969696969697 383.2727272727273,840.969696969697 373.7373737373738,840.969696969697 364.2020202020202,840.969696969697 354.6666666666667,840.969696969697 345.13131313131316,840.969696969697 335.59595959595964,840.969696969697 326.0606060606061,840.969696969697 316.5252525252526,840.969696969697 306.9898989898991,840.969696969697 297.4545454545455,840.969696969697 287.91919191919203,840.969696969697 278.38383838383845,840.969696969697 268.84848484848493,840.969696969697 259.3131313131314,840.969696969697 249.77777777777783,840.969696969697 240.2424242424243,840.969696969697 230.70707070707084,840.969696969697 221.17171717171726,840.969696969697 211.63636363636374,840.969696969697 202.10101010101022,840.969696969697 192.5656565656567,840.969696969697 183.03030303030312,840.969696969697 173.4949494949496,840.969696969697 163.95959595959607,840.969696969697 154.42424242424255,840.969696969697 144.88888888888903,840.969696969697 135.35353535353545,840.969696969697 125.81818181818193,840.969696969697 116.28282828282829,840.969696969697 106.74747474747483,840.969696969697 97.21212121212136,840.969696969697 87.67676767676772,840.969696969697 78.14141414141426,840.969696969697 68.60606060606068,840.969696969697 59.07070707070716,840.969696969697 49.53535353535369,840.969696969697 40.00000000000006,840.969696969697" fill="none" stroke="rgba(255,0,0,0.75)" stroke-width="11.327999999999996"/></g><g><rect data-type="rect" data-label="" data-x="0" data-y="0" x="40.000000000000114" y="40.000000000000284" width="943.9999999999997" height="943.9999999999998" fill="none" stroke="gray" stroke-width="0.010593220338983056"/></g><g><rect data-type="rect" data-label="" data-x="0" data-y="0" x="40.000000000000114" y="40.000000000000284" width="943.9999999999997" height="943.9999999999998" fill="none" stroke="rgba(15, 23, 42, 0.8)" stroke-width="0.010593220338983056"/></g><circle data-type="circle" data-label="" data-x="-0.4545454545454544" data-y="0.8585858585858596" cx="469.09090909090907" cy="430.94949494949503" r="14.159999999999995" fill="rgba(0,0,0,0.3)" stroke="black" stroke-width="0.010593220338983056"/><circle data-type="circle" data-label="" data-x="1.3636363636363644" data-y="0.1515151515151522" cx="640.7272727272727" cy="497.69696969696975" r="14.159999999999995" fill="rgba(0,0,0,0.3)" stroke="black" stroke-width="0.010593220338983056"/><circle data-type="circle" data-label="" data-x="1.8686868686868696" data-y="-3.484848484848485" cx="688.4040404040404" cy="840.969696969697" r="14.159999999999995" fill="rgba(0,0,0,0.3)" stroke="black" stroke-width="0.010593220338983056"/><g id="crosshair" style="display: none"><line id="crosshair-h" y1="0" y2="1024" stroke="#666" stroke-width="0.5"/><line id="crosshair-v" x1="0" x2="1024" stroke="#666" stroke-width="0.5"/><text id="coordinates" font-family="monospace" font-size="12" fill="#666"></text></g><script><![CDATA[
              document.currentScript.parentElement.addEventListener('mousemove', (e) => {
                const svg = e.currentTarget;
                const rect = svg.getBoundingClientRect();
                const x = e.clientX - rect.left;
                const y = e.clientY - rect.top;
                const crosshair = svg.getElementById('crosshair');
                const h = svg.getElementById('crosshair-h');
                const v = svg.getElementById('crosshair-v');
                const coords = svg.getElementById('coordinates');
                
                crosshair.style.display = 'block';
                h.setAttribute('x1', '0');
                h.setAttribute('x2', '1024');
                h.setAttribute('y1', y);
                h.setAttribute('y2', y);
                v.setAttribute('x1', x);
                v.setAttribute('x2', x);
                v.setAttribute('y1', '0');
                v.setAttribute('y2', '1024');

                // Calculate real coordinates using inverse transformation
                const matrix = {"a":94.39999999999996,"c":0,"e":511.99999999999994,"b":0,"d":-94.39999999999996,"f":512.0000000000001};
                // Manually invert and apply the affine transform
                // Since we only use translate and scale, we can directly compute:
                // x' = (x - tx) / sx
                // y' = (y - ty) / sy
                const sx = matrix.a;
                const sy = matrix.d;
                const tx = matrix.e; 
                const ty = matrix.f;
                const realPoint = {
                  x: (x - tx) / sx,
                  y: (y - ty) / sy // Flip y back since we used negative scale
                }
                
                coords.textContent = `(${realPoint.x.toFixed(2)}, ${realPoint.y.toFixed(2)})`;
                coords.setAttribute('x', (x + 5).toString());
                coords.setAttribute('y', (y - 5).toString());
              });
              document.currentScript.parentElement.addEventListener('mouseleave', () => {
                document.currentScript.parentElement.getElementById('crosshair').style.display = 'none';
              });
            ]]></script></svg>