<svg width="1024" height="1024" viewBox="0 0 1024 1024" xmlns="http://www.w3.org/2000/svg"><rect width="100%" height="100%" fill="white"/><g><circle data-type="point" data-label="conn_000" data-x="-5" data-y="-4.86" cx="40.000000000000114" cy="970.7839999999999" r="14.16" fill="red"/></g><g><circle data-type="point" data-label="conn_000" data-x="4.94" data-y="-5" cx="978.3359999999998" cy="983.9999999999998" r="14.16" fill="red"/></g><g><circle data-type="point" data-label="conn_001" data-x="-5" data-y="4.7" cx="40.000000000000114" cy="68.3200000000001" r="14.16" fill="blue"/></g><g><circle data-type="point" data-label="conn_001" data-x="5" data-y="3.68" cx="983.9999999999998" cy="164.60800000000006" r="14.16" fill="blue"/></g><g><polyline data-points="-5.000000000000001,-4.898989898989899 -4.898989898989899,-5.000000000000001 -4.7979797979797985,-5.000000000000001 -4.696969696969697,-5.000000000000001 -4.595959595959596,-5.000000000000001 -4.494949494949496,-5.000000000000001 -4.393939393939394,-5.000000000000001 -4.292929292929293,-5.000000000000001 -4.191919191919193,-5.000000000000001 -4.090909090909091,-5.000000000000001 -3.98989898989899,-5.000000000000001 -3.8888888888888884,-5.000000000000001 -3.7878787878787876,-5.000000000000001 -3.6868686868686864,-5.000000000000001 -3.5858585858585856,-5.000000000000001 -3.484848484848485,-5.000000000000001 -3.383838383838383,-5.000000000000001 -3.2828282828282824,-5.000000000000001 -3.1818181818181817,-5.000000000000001 -3.0808080808080804,-5.000000000000001 -2.9797979797979792,-5.000000000000001 -2.8787878787878785,-5.000000000000001 -2.7777777777777777,-5.000000000000001 -2.6767676767676765,-5.000000000000001 -2.5757575757575752,-5.000000000000001 -2.474747474747474,-5.000000000000001 -2.3737373737373733,-5.000000000000001 -2.2727272727272725,-5.000000000000001 -2.1717171717171713,-5.000000000000001 -2.07070707070707,-5.000000000000001 -1.9696969696969693,-5.000000000000001 -1.8686868686868683,-5.000000000000001 -1.7676767676767675,-5.000000000000001 -1.6666666666666665,-5.000000000000001 -1.5656565656565653,-5.000000000000001 -1.4646464646464643,-5.000000000000001 -1.363636363636363,-5.000000000000001 -1.2626262626262625,-5.000000000000001 -1.1616161616161613,-5.000000000000001 -1.0606060606060603,-5.000000000000001 -0.9595959595959596,-5.000000000000001 -0.8585858585858579,-5.000000000000001 -0.7575757575757572,-5.000000000000001 -0.6565656565656557,-5.000000000000001 -0.555555555555555,-5.000000000000001 -0.4545454545454544,-5.000000000000001 -0.35353535353535287,-5.000000000000001 -0.2525252525252522,-5.000000000000001 -0.15151515151515066,-5.000000000000001 -0.05050505050505001,-5.000000000000001 0.050505050505051545,-5.000000000000001 0.1515151515151522,-5.000000000000001 0.2525252525252529,-5.000000000000001 0.3535353535353544,-5.000000000000001 0.4545454545454551,-5.000000000000001 0.5555555555555567,-5.000000000000001 0.6565656565656574,-5.000000000000001 0.7575757575757579,-5.000000000000001 0.8585858585858596,-5.000000000000001 0.9595959595959602,-5.000000000000001 1.0606060606060617,-5.000000000000001 1.1616161616161622,-5.000000000000001 1.262626262626263,-5.000000000000001 1.3636363636363644,-5.000000000000001 1.4646464646464652,-5.000000000000001 1.5656565656565666,-5.000000000000001 1.6666666666666674,-5.000000000000001 1.767676767676768,-5.000000000000001 1.8686868686868696,-5.000000000000001 1.9696969696969702,-5.000000000000001 2.070707070707072,-5.000000000000001 2.1717171717171726,-5.000000000000001 2.2727272727272734,-5.000000000000001 2.373737373737375,-5.000000000000001 2.4747474747474754,-5.000000000000001 2.575757575757577,-5.000000000000001 2.676767676767678,-5.000000000000001 2.7777777777777786,-5.000000000000001 2.87878787878788,-5.000000000000001 2.9797979797979806,-5.000000000000001 3.080808080808082,-5.000000000000001 3.181818181818183,-5.000000000000001 3.2828282828282833,-5.000000000000001 3.383838383838384,-5.000000000000001 3.4848484848484866,-5.000000000000001 3.5858585858585874,-5.000000000000001 3.6868686868686877,-5.000000000000001 3.7878787878787885,-5.000000000000001 3.8888888888888893,-5.000000000000001 3.989898989898992,-5.000000000000001 4.090909090909092,-5.000000000000001 4.191919191919193,-5.000000000000001 4.292929292929293,-5.000000000000001 4.393939393939394,-5.000000000000001 4.494949494949497,-5.000000000000001 4.595959595959597,-5.000000000000001 4.696969696969697,-5.000000000000001 4.7979797979797985,-5.000000000000001 4.898989898989901,-5.000000000000001 5.000000000000002,-5.000000000000001" data-type="line" data-label="" points="40.00000000000006,974.4646464646462 49.53535353535369,983.9999999999998 59.07070707070716,983.9999999999998 68.60606060606068,983.9999999999998 78.14141414141426,983.9999999999998 87.67676767676772,983.9999999999998 97.21212121212136,983.9999999999998 106.74747474747483,983.9999999999998 116.28282828282829,983.9999999999998 125.81818181818193,983.9999999999998 135.35353535353545,983.9999999999998 144.88888888888903,983.9999999999998 154.42424242424255,983.9999999999998 163.95959595959607,983.9999999999998 173.4949494949496,983.9999999999998 183.03030303030312,983.9999999999998 192.5656565656567,983.9999999999998 202.10101010101022,983.9999999999998 211.63636363636374,983.9999999999998 221.17171717171726,983.9999999999998 230.70707070707084,983.9999999999998 240.2424242424243,983.9999999999998 249.77777777777783,983.9999999999998 259.3131313131314,983.9999999999998 268.84848484848493,983.9999999999998 278.38383838383845,983.9999999999998 287.91919191919203,983.9999999999998 297.4545454545455,983.9999999999998 306.9898989898991,983.9999999999998 316.5252525252526,983.9999999999998 326.0606060606061,983.9999999999998 335.59595959595964,983.9999999999998 345.13131313131316,983.9999999999998 354.6666666666667,983.9999999999998 364.2020202020202,983.9999999999998 373.7373737373738,983.9999999999998 383.2727272727273,983.9999999999998 392.80808080808083,983.9999999999998 402.34343434343435,983.9999999999998 411.8787878787879,983.9999999999998 421.4141414141414,983.9999999999998 430.949494949495,983.9999999999998 440.4848484848485,983.9999999999998 450.0202020202021,983.9999999999998 459.55555555555554,983.9999999999998 469.09090909090907,983.9999999999998 478.62626262626264,983.9999999999998 488.16161616161617,983.9999999999998 497.69696969696975,983.9999999999998 507.2323232323232,983.9999999999998 516.7676767676768,983.9999999999998 526.3030303030303,983.9999999999998 535.8383838383838,983.9999999999998 545.3737373737374,983.9999999999998 554.9090909090909,983.9999999999998 564.4444444444445,983.9999999999998 573.9797979797979,983.9999999999998 583.5151515151515,983.9999999999998 593.0505050505051,983.9999999999998 602.5858585858585,983.9999999999998 612.1212121212121,983.9999999999998 621.6565656565656,983.9999999999998 631.1919191919192,983.9999999999998 640.7272727272727,983.9999999999998 650.2626262626262,983.9999999999998 659.7979797979798,983.9999999999998 669.3333333333333,983.9999999999998 678.8686868686868,983.9999999999998 688.4040404040404,983.9999999999998 697.9393939393939,983.9999999999998 707.4747474747475,983.9999999999998 717.0101010101009,983.9999999999998 726.5454545454545,983.9999999999998 736.0808080808081,983.9999999999998 745.6161616161615,983.9999999999998 755.1515151515151,983.9999999999998 764.6868686868686,983.9999999999998 774.2222222222222,983.9999999999998 783.7575757575758,983.9999999999998 793.2929292929292,983.9999999999998 802.8282828282828,983.9999999999998 812.3636363636363,983.9999999999998 821.8989898989898,983.9999999999998 831.4343434343433,983.9999999999998 840.969696969697,983.9999999999998 850.5050505050505,983.9999999999998 860.0404040404039,983.9999999999998 869.5757575757575,983.9999999999998 879.111111111111,983.9999999999998 888.6464646464647,983.9999999999998 898.181818181818,983.9999999999998 907.7171717171716,983.9999999999998 917.2525252525251,983.9999999999998 926.7878787878785,983.9999999999998 936.3232323232323,983.9999999999998 945.8585858585857,983.9999999999998 955.3939393939393,983.9999999999998 964.9292929292927,983.9999999999998 974.4646464646464,983.9999999999998 984,983.9999999999998" fill="none" stroke="rgba(255,0,0,0.75)" stroke-width="11.327999999999996"/></g><g><polyline data-points="-5.000000000000001,4.696969696969697 -4.898989898989899,4.595959595959597 -4.7979797979797985,4.494949494949497 -4.696969696969697,4.393939393939394 -4.595959595959596,4.292929292929293 -4.494949494949496,4.191919191919193 -4.393939393939394,4.090909090909092 -4.292929292929293,3.989898989898992 -4.191919191919193,3.8888888888888893 -4.090909090909091,3.7878787878787885 -3.98989898989899,3.6868686868686877 -3.8888888888888884,3.6868686868686877 -3.7878787878787876,3.6868686868686877 -3.6868686868686864,3.6868686868686877 -3.5858585858585856,3.6868686868686877 -3.484848484848485,3.6868686868686877 -3.383838383838383,3.6868686868686877 -3.2828282828282824,3.6868686868686877 -3.1818181818181817,3.6868686868686877 -3.0808080808080804,3.6868686868686877 -2.9797979797979792,3.6868686868686877 -2.8787878787878785,3.6868686868686877 -2.7777777777777777,3.6868686868686877 -2.6767676767676765,3.6868686868686877 -2.5757575757575752,3.6868686868686877 -2.474747474747474,3.6868686868686877 -2.3737373737373733,3.6868686868686877 -2.2727272727272725,3.6868686868686877 -2.1717171717171713,3.6868686868686877 -2.07070707070707,3.6868686868686877 -1.9696969696969693,3.6868686868686877 -1.8686868686868683,3.6868686868686877 -1.7676767676767675,3.6868686868686877 -1.6666666666666665,3.6868686868686877 -1.5656565656565653,3.6868686868686877 -1.4646464646464643,3.6868686868686877 -1.363636363636363,3.6868686868686877 -1.2626262626262625,3.6868686868686877 -1.1616161616161613,3.6868686868686877 -1.0606060606060603,3.6868686868686877 -0.9595959595959596,3.6868686868686877 -0.8585858585858579,3.6868686868686877 -0.7575757575757572,3.6868686868686877 -0.6565656565656557,3.6868686868686877 -0.555555555555555,3.6868686868686877 -0.4545454545454544,3.6868686868686877 -0.35353535353535287,3.6868686868686877 -0.2525252525252522,3.6868686868686877 -0.15151515151515066,3.6868686868686877 -0.05050505050505001,3.6868686868686877 0.050505050505051545,3.6868686868686877 0.1515151515151522,3.6868686868686877 0.2525252525252529,3.6868686868686877 0.3535353535353544,3.6868686868686877 0.4545454545454551,3.6868686868686877 0.5555555555555567,3.6868686868686877 0.6565656565656574,3.6868686868686877 0.7575757575757579,3.6868686868686877 0.8585858585858596,3.6868686868686877 0.9595959595959602,3.6868686868686877 1.0606060606060617,3.6868686868686877 1.1616161616161622,3.6868686868686877 1.262626262626263,3.6868686868686877 1.3636363636363644,3.6868686868686877 1.4646464646464652,3.6868686868686877 1.5656565656565666,3.6868686868686877 1.6666666666666674,3.6868686868686877 1.767676767676768,3.6868686868686877 1.8686868686868696,3.6868686868686877 1.9696969696969702,3.6868686868686877 2.070707070707072,3.6868686868686877 2.1717171717171726,3.6868686868686877 2.2727272727272734,3.6868686868686877 2.373737373737375,3.6868686868686877 2.4747474747474754,3.6868686868686877 2.575757575757577,3.6868686868686877 2.676767676767678,3.6868686868686877 2.7777777777777786,3.6868686868686877 2.87878787878788,3.6868686868686877 2.9797979797979806,3.6868686868686877 3.080808080808082,3.6868686868686877 3.181818181818183,3.6868686868686877 3.2828282828282833,3.6868686868686877 3.383838383838384,3.6868686868686877 3.4848484848484866,3.6868686868686877 3.5858585858585874,3.6868686868686877 3.6868686868686877,3.6868686868686877 3.7878787878787885,3.6868686868686877 3.8888888888888893,3.6868686868686877 3.989898989898992,3.6868686868686877 4.090909090909092,3.6868686868686877 4.191919191919193,3.6868686868686877 4.292929292929293,3.6868686868686877 4.393939393939394,3.6868686868686877 4.494949494949497,3.6868686868686877 4.595959595959597,3.6868686868686877 4.696969696969697,3.6868686868686877 4.7979797979797985,3.6868686868686877 4.898989898989901,3.6868686868686877 5.000000000000002,3.6868686868686877" data-type="line" data-label="" points="40.00000000000006,68.60606060606068 49.53535353535369,78.14141414141415 59.07070707070716,87.67676767676761 68.60606060606068,97.21212121212136 78.14141414141426,106.74747474747483 87.67676767676772,116.28282828282829 97.21212121212136,125.81818181818181 106.74747474747483,135.35353535353528 116.28282828282829,144.8888888888889 125.81818181818193,154.42424242424244 135.35353535353545,163.95959595959596 144.88888888888903,163.95959595959596 154.42424242424255,163.95959595959596 163.95959595959607,163.95959595959596 173.4949494949496,163.95959595959596 183.03030303030312,163.95959595959596 192.5656565656567,163.95959595959596 202.10101010101022,163.95959595959596 211.63636363636374,163.95959595959596 221.17171717171726,163.95959595959596 230.70707070707084,163.95959595959596 240.2424242424243,163.95959595959596 249.77777777777783,163.95959595959596 259.3131313131314,163.95959595959596 268.84848484848493,163.95959595959596 278.38383838383845,163.95959595959596 287.91919191919203,163.95959595959596 297.4545454545455,163.95959595959596 306.9898989898991,163.95959595959596 316.5252525252526,163.95959595959596 326.0606060606061,163.95959595959596 335.59595959595964,163.95959595959596 345.13131313131316,163.95959595959596 354.6666666666667,163.95959595959596 364.2020202020202,163.95959595959596 373.7373737373738,163.95959595959596 383.2727272727273,163.95959595959596 392.80808080808083,163.95959595959596 402.34343434343435,163.95959595959596 411.8787878787879,163.95959595959596 421.4141414141414,163.95959595959596 430.949494949495,163.95959595959596 440.4848484848485,163.95959595959596 450.0202020202021,163.95959595959596 459.55555555555554,163.95959595959596 469.09090909090907,163.95959595959596 478.62626262626264,163.95959595959596 488.16161616161617,163.95959595959596 497.69696969696975,163.95959595959596 507.2323232323232,163.95959595959596 516.7676767676768,163.95959595959596 526.3030303030303,163.95959595959596 535.8383838383838,163.95959595959596 545.3737373737374,163.95959595959596 554.9090909090909,163.95959595959596 564.4444444444445,163.95959595959596 573.9797979797979,163.95959595959596 583.5151515151515,163.95959595959596 593.0505050505051,163.95959595959596 602.5858585858585,163.95959595959596 612.1212121212121,163.95959595959596 621.6565656565656,163.95959595959596 631.1919191919192,163.95959595959596 640.7272727272727,163.95959595959596 650.2626262626262,163.95959595959596 659.7979797979798,163.95959595959596 669.3333333333333,163.95959595959596 678.8686868686868,163.95959595959596 688.4040404040404,163.95959595959596 697.9393939393939,163.95959595959596 707.4747474747475,163.95959595959596 717.0101010101009,163.95959595959596 726.5454545454545,163.95959595959596 736.0808080808081,163.95959595959596 745.6161616161615,163.95959595959596 755.1515151515151,163.95959595959596 764.6868686868686,163.95959595959596 774.2222222222222,163.95959595959596 783.7575757575758,163.95959595959596 793.2929292929292,163.95959595959596 802.8282828282828,163.95959595959596 812.3636363636363,163.95959595959596 821.8989898989898,163.95959595959596 831.4343434343433,163.95959595959596 840.969696969697,163.95959595959596 850.5050505050505,163.95959595959596 860.0404040404039,163.95959595959596 869.5757575757575,163.95959595959596 879.111111111111,163.95959595959596 888.6464646464647,163.95959595959596 898.181818181818,163.95959595959596 907.7171717171716,163.95959595959596 917.2525252525251,163.95959595959596 926.7878787878785,163.95959595959596 936.3232323232323,163.95959595959596 945.8585858585857,163.95959595959596 955.3939393939393,163.95959595959596 964.9292929292927,163.95959595959596 974.4646464646464,163.95959595959596 984,163.95959595959596" fill="none" stroke="rgba(0,0,255,0.75)" stroke-width="11.327999999999996"/></g><g><rect data-type="rect" data-label="" data-x="0" data-y="0" x="40.000000000000114" y="40.000000000000114" width="943.9999999999997" height="943.9999999999997" fill="none" stroke="gray" stroke-width="0.010593220338983056"/></g><g><rect data-type="rect" data-label="" data-x="0" data-y="0" x="40.000000000000114" y="40.000000000000114" width="943.9999999999997" height="943.9999999999997" fill="none" stroke="rgba(15, 23, 42, 0.8)" stroke-width="0.010593220338983056"/></g><g id="crosshair" style="display: none"><line id="crosshair-h" y1="0" y2="1024" stroke="#666" stroke-width="0.5"/><line id="crosshair-v" x1="0" x2="1024" stroke="#666" stroke-width="0.5"/><text id="coordinates" font-family="monospace" font-size="12" fill="#666"></text></g><script><![CDATA[
              document.currentScript.parentElement.addEventListener('mousemove', (e) => {
                const svg = e.currentTarget;
                const rect = svg.getBoundingClientRect();
                const x = e.clientX - rect.left;
                const y = e.clientY - rect.top;
                const crosshair = svg.getElementById('crosshair');
                const h = svg.getElementById('crosshair-h');
                const v = svg.getElementById('crosshair-v');
                const coords = svg.getElementById('coordinates');
                
                crosshair.style.display = 'block';
                h.setAttribute('x1', '0');
                h.setAttribute('x2', '1024');
                h.setAttribute('y1', y);
                h.setAttribute('y2', y);
                v.setAttribute('x1', x);
                v.setAttribute('x2', x);
                v.setAttribute('y1', '0');
                v.setAttribute('y2', '1024');

                // Calculate real coordinates using inverse transformation
                const matrix = {"a":94.39999999999996,"c":0,"e":511.99999999999994,"b":0,"d":-94.39999999999996,"f":511.99999999999994};
                // Manually invert and apply the affine transform
                // Since we only use translate and scale, we can directly compute:
                // x' = (x - tx) / sx
                // y' = (y - ty) / sy
                const sx = matrix.a;
                const sy = matrix.d;
                const tx = matrix.e; 
                const ty = matrix.f;
                const realPoint = {
                  x: (x - tx) / sx,
                  y: (y - ty) / sy // Flip y back since we used negative scale
                }
                
                coords.textContent = `(${realPoint.x.toFixed(2)}, ${realPoint.y.toFixed(2)})`;
                coords.setAttribute('x', (x + 5).toString());
                coords.setAttribute('y', (y - 5).toString());
              });
              document.currentScript.parentElement.addEventListener('mouseleave', () => {
                document.currentScript.parentElement.getElementById('crosshair').style.display = 'none';
              });
            ]]></script></svg>