<svg width="1024" height="1024" viewBox="0 0 1024 1024" xmlns="http://www.w3.org/2000/svg"><rect width="100%" height="100%" fill="white"/><g><circle data-type="point" data-label="conn_000" data-x="-5" data-y="-4.68" cx="40.000000000000114" cy="953.7919999999999" r="14.16" fill="blue"/></g><g><circle data-type="point" data-label="conn_000" data-x="5" data-y="-5" cx="983.9999999999998" cy="984" r="14.16" fill="blue"/></g><g><circle data-type="point" data-label="conn_001" data-x="-0.88" data-y="-5" cx="428.928" cy="984" r="14.16" fill="blue"/></g><g><circle data-type="point" data-label="conn_001" data-x="-1.86" data-y="5" cx="336.416" cy="40.000000000000284" r="14.16" fill="blue"/></g><g><circle data-type="point" data-label="conn_002" data-x="-1.4000000000000001" data-y="5" cx="379.84" cy="40.000000000000284" r="14.16" fill="red"/></g><g><circle data-type="point" data-label="conn_002" data-x="-5" data-y="-4.9" cx="40.000000000000114" cy="974.56" r="14.16" fill="blue"/></g><g><circle data-type="point" data-label="conn_003" data-x="-2.36" data-y="5" cx="289.216" cy="40.000000000000284" r="14.16" fill="blue"/></g><g><circle data-type="point" data-label="conn_003" data-x="0.9" data-y="-5" cx="596.9599999999999" cy="984" r="14.16" fill="red"/></g><g><circle data-type="point" data-label="conn_004" data-x="5" data-y="2.98" cx="983.9999999999998" cy="230.68800000000022" r="14.16" fill="blue"/></g><g><circle data-type="point" data-label="conn_004" data-x="0.14" data-y="-5" cx="525.2159999999999" cy="984" r="14.16" fill="red"/></g><g><circle data-type="point" data-label="conn_005" data-x="5" data-y="-1.74" cx="983.9999999999998" cy="676.2560000000001" r="14.16" fill="blue"/></g><g><circle data-type="point" data-label="conn_005" data-x="-5" data-y="-2.56" cx="40.000000000000114" cy="753.664" r="14.16" fill="red"/></g><g><circle data-type="point" data-label="conn_006" data-x="-4.4" data-y="5" cx="96.6400000000001" cy="40.000000000000284" r="14.16" fill="red"/></g><g><circle data-type="point" data-label="conn_006" data-x="1.22" data-y="-5" cx="627.1679999999999" cy="984" r="14.16" fill="blue"/></g><g><circle data-type="point" data-label="conn_007" data-x="4.94" data-y="5" cx="978.3359999999998" cy="40.000000000000284" r="14.16" fill="blue"/></g><g><circle data-type="point" data-label="conn_007" data-x="1.62" data-y="-5" cx="664.9279999999999" cy="984" r="14.16" fill="blue"/></g><g><polyline data-points="5.000000000000002,-1.7676767676767675 4.898989898989901,-1.8686868686868683 4.7979797979797985,-1.9696969696969693 4.696969696969697,-2.07070707070707 4.595959595959597,-2.1717171717171713 4.494949494949497,-2.2727272727272725 4.393939393939394,-2.3737373737373733 4.292929292929293,-2.474747474747474 4.191919191919193,-2.5757575757575752 4.090909090909092,-2.5757575757575752 3.989898989898992,-2.5757575757575752 3.8888888888888893,-2.5757575757575752 3.7878787878787885,-2.5757575757575752 3.6868686868686877,-2.5757575757575752 3.5858585858585874,-2.5757575757575752 3.4848484848484866,-2.5757575757575752 3.383838383838384,-2.5757575757575752 3.2828282828282833,-2.5757575757575752 3.181818181818183,-2.5757575757575752 3.080808080808082,-2.5757575757575752 2.9797979797979806,-2.5757575757575752 2.87878787878788,-2.5757575757575752 2.7777777777777786,-2.5757575757575752 2.676767676767678,-2.5757575757575752 2.575757575757577,-2.5757575757575752 2.4747474747474754,-2.5757575757575752 2.373737373737375,-2.5757575757575752 2.2727272727272734,-2.5757575757575752 2.1717171717171726,-2.5757575757575752 2.070707070707072,-2.5757575757575752 1.9696969696969702,-2.5757575757575752 1.8686868686868696,-2.5757575757575752 1.767676767676768,-2.5757575757575752 1.6666666666666674,-2.5757575757575752 1.5656565656565666,-2.5757575757575752 1.4646464646464652,-2.5757575757575752 1.3636363636363644,-2.5757575757575752 1.262626262626263,-2.5757575757575752 1.1616161616161622,-2.5757575757575752 1.0606060606060617,-2.5757575757575752 0.9595959595959602,-2.5757575757575752 0.8585858585858596,-2.5757575757575752 0.7575757575757579,-2.5757575757575752 0.6565656565656574,-2.5757575757575752 0.5555555555555567,-2.5757575757575752 0.4545454545454551,-2.5757575757575752 0.3535353535353544,-2.5757575757575752 0.2525252525252529,-2.5757575757575752 0.1515151515151522,-2.5757575757575752 0.050505050505051545,-2.5757575757575752 -0.05050505050505001,-2.5757575757575752 -0.15151515151515066,-2.5757575757575752 -0.2525252525252522,-2.5757575757575752 -0.35353535353535287,-2.5757575757575752 -0.4545454545454544,-2.5757575757575752 -0.555555555555555,-2.5757575757575752 -0.6565656565656557,-2.5757575757575752 -0.7575757575757572,-2.5757575757575752 -0.8585858585858579,-2.5757575757575752 -0.9595959595959596,-2.5757575757575752 -1.0606060606060603,-2.5757575757575752 -1.1616161616161613,-2.5757575757575752 -1.2626262626262625,-2.5757575757575752 -1.363636363636363,-2.5757575757575752 -1.4646464646464643,-2.5757575757575752 -1.5656565656565653,-2.5757575757575752 -1.6666666666666665,-2.5757575757575752 -1.7676767676767675,-2.5757575757575752 -1.8686868686868683,-2.5757575757575752 -1.9696969696969693,-2.5757575757575752 -2.07070707070707,-2.5757575757575752 -2.1717171717171713,-2.5757575757575752 -2.2727272727272725,-2.5757575757575752 -2.3737373737373733,-2.5757575757575752 -2.474747474747474,-2.5757575757575752 -2.5757575757575752,-2.5757575757575752 -2.6767676767676765,-2.5757575757575752 -2.7777777777777777,-2.5757575757575752 -2.8787878787878785,-2.5757575757575752 -2.9797979797979792,-2.5757575757575752 -3.0808080808080804,-2.5757575757575752 -3.1818181818181817,-2.5757575757575752 -3.2828282828282824,-2.5757575757575752 -3.383838383838383,-2.5757575757575752 -3.484848484848485,-2.5757575757575752 -3.5858585858585856,-2.5757575757575752 -3.6868686868686864,-2.5757575757575752 -3.7878787878787876,-2.5757575757575752 -3.8888888888888884,-2.5757575757575752 -3.98989898989899,-2.5757575757575752" data-type="line" data-label="" points="984,678.8686868686868 974.4646464646464,688.4040404040404 964.9292929292927,697.939393939394 955.3939393939393,707.4747474747475 945.8585858585857,717.010101010101 936.3232323232323,726.5454545454545 926.7878787878785,736.0808080808081 917.2525252525251,745.6161616161615 907.7171717171716,755.1515151515151 898.181818181818,755.1515151515151 888.6464646464647,755.1515151515151 879.111111111111,755.1515151515151 869.5757575757575,755.1515151515151 860.0404040404039,755.1515151515151 850.5050505050505,755.1515151515151 840.969696969697,755.1515151515151 831.4343434343433,755.1515151515151 821.8989898989898,755.1515151515151 812.3636363636363,755.1515151515151 802.8282828282828,755.1515151515151 793.2929292929292,755.1515151515151 783.7575757575758,755.1515151515151 774.2222222222222,755.1515151515151 764.6868686868686,755.1515151515151 755.1515151515151,755.1515151515151 745.6161616161615,755.1515151515151 736.0808080808081,755.1515151515151 726.5454545454545,755.1515151515151 717.0101010101009,755.1515151515151 707.4747474747475,755.1515151515151 697.9393939393939,755.1515151515151 688.4040404040404,755.1515151515151 678.8686868686868,755.1515151515151 669.3333333333333,755.1515151515151 659.7979797979798,755.1515151515151 650.2626262626262,755.1515151515151 640.7272727272727,755.1515151515151 631.1919191919192,755.1515151515151 621.6565656565656,755.1515151515151 612.1212121212121,755.1515151515151 602.5858585858585,755.1515151515151 593.0505050505051,755.1515151515151 583.5151515151515,755.1515151515151 573.9797979797979,755.1515151515151 564.4444444444445,755.1515151515151 554.9090909090909,755.1515151515151 545.3737373737374,755.1515151515151 535.8383838383838,755.1515151515151 526.3030303030303,755.1515151515151 516.7676767676768,755.1515151515151 507.2323232323232,755.1515151515151 497.69696969696975,755.1515151515151 488.16161616161617,755.1515151515151 478.62626262626264,755.1515151515151 469.09090909090907,755.1515151515151 459.55555555555554,755.1515151515151 450.0202020202021,755.1515151515151 440.4848484848485,755.1515151515151 430.949494949495,755.1515151515151 421.4141414141414,755.1515151515151 411.8787878787879,755.1515151515151 402.34343434343435,755.1515151515151 392.80808080808083,755.1515151515151 383.2727272727273,755.1515151515151 373.7373737373738,755.1515151515151 364.2020202020202,755.1515151515151 354.6666666666667,755.1515151515151 345.13131313131316,755.1515151515151 335.59595959595964,755.1515151515151 326.0606060606061,755.1515151515151 316.5252525252526,755.1515151515151 306.9898989898991,755.1515151515151 297.4545454545455,755.1515151515151 287.91919191919203,755.1515151515151 278.38383838383845,755.1515151515151 268.84848484848493,755.1515151515151 259.3131313131314,755.1515151515151 249.77777777777783,755.1515151515151 240.2424242424243,755.1515151515151 230.70707070707084,755.1515151515151 221.17171717171726,755.1515151515151 211.63636363636374,755.1515151515151 202.10101010101022,755.1515151515151 192.5656565656567,755.1515151515151 183.03030303030312,755.1515151515151 173.4949494949496,755.1515151515151 163.95959595959607,755.1515151515151 154.42424242424255,755.1515151515151 144.88888888888903,755.1515151515151 135.35353535353545,755.1515151515151" fill="none" stroke="rgba(0,0,255,0.75)" stroke-width="11.327999999999996"/></g><g><polyline data-points="-3.98989898989899,-2.5757575757575752 -4.090909090909091,-2.5757575757575752 -4.191919191919193,-2.5757575757575752 -4.292929292929293,-2.5757575757575752 -4.393939393939394,-2.5757575757575752 -4.494949494949496,-2.5757575757575752 -4.595959595959596,-2.5757575757575752 -4.696969696969697,-2.5757575757575752 -4.7979797979797985,-2.5757575757575752 -4.898989898989899,-2.5757575757575752 -5.000000000000001,-2.5757575757575752" data-type="line" data-label="" points="135.35353535353545,755.1515151515151 125.81818181818193,755.1515151515151 116.28282828282829,755.1515151515151 106.74747474747483,755.1515151515151 97.21212121212136,755.1515151515151 87.67676767676772,755.1515151515151 78.14141414141426,755.1515151515151 68.60606060606068,755.1515151515151 59.07070707070716,755.1515151515151 49.53535353535369,755.1515151515151 40.00000000000006,755.1515151515151" fill="none" stroke="rgba(255,0,0,0.75)" stroke-width="11.327999999999996"/></g><g><polyline data-points="5.000000000000002,5.000000000000002 4.898989898989901,4.898989898989901 4.7979797979797985,4.7979797979797985 4.696969696969697,4.696969696969697 4.595959595959597,4.595959595959597 4.494949494949497,4.494949494949497 4.393939393939394,4.393939393939394 4.292929292929293,4.292929292929293 4.191919191919193,4.191919191919193 4.090909090909092,4.090909090909092 3.989898989898992,3.989898989898992 3.8888888888888893,3.8888888888888893 3.7878787878787885,3.7878787878787885 3.6868686868686877,3.6868686868686877 3.5858585858585874,3.5858585858585874 3.4848484848484866,3.4848484848484866 3.383838383838384,3.383838383838384 3.2828282828282833,3.2828282828282833 3.181818181818183,3.181818181818183 3.080808080808082,3.080808080808082 2.9797979797979806,2.9797979797979806 2.87878787878788,2.87878787878788 2.7777777777777786,2.7777777777777786 2.676767676767678,2.676767676767678 2.575757575757577,2.575757575757577 2.4747474747474754,2.4747474747474754 2.373737373737375,2.373737373737375 2.2727272727272734,2.2727272727272734 2.1717171717171726,2.1717171717171726 2.070707070707072,2.070707070707072 1.9696969696969702,1.9696969696969702 1.8686868686868696,1.8686868686868696 1.767676767676768,1.767676767676768 1.6666666666666674,1.6666666666666674 1.6666666666666674,1.5656565656565666 1.6666666666666674,1.4646464646464652 1.6666666666666674,1.3636363636363644 1.6666666666666674,1.262626262626263 1.6666666666666674,1.1616161616161622 1.6666666666666674,1.0606060606060617 1.6666666666666674,0.9595959595959602 1.6666666666666674,0.8585858585858596 1.6666666666666674,0.7575757575757579 1.6666666666666674,0.6565656565656574 1.6666666666666674,0.5555555555555567 1.6666666666666674,0.4545454545454551 1.6666666666666674,0.3535353535353544 1.6666666666666674,0.2525252525252529 1.6666666666666674,0.1515151515151522 1.6666666666666674,0.050505050505051545 1.6666666666666674,-0.05050505050505001 1.6666666666666674,-0.15151515151515066 1.6666666666666674,-0.2525252525252522 1.6666666666666674,-0.35353535353535287 1.6666666666666674,-0.4545454545454544 1.6666666666666674,-0.555555555555555 1.6666666666666674,-0.6565656565656557 1.6666666666666674,-0.7575757575757572 1.6666666666666674,-0.8585858585858579 1.6666666666666674,-0.9595959595959596 1.6666666666666674,-1.0606060606060603 1.6666666666666674,-1.1616161616161613 1.6666666666666674,-1.2626262626262625 1.6666666666666674,-1.363636363636363 1.6666666666666674,-1.4646464646464643 1.6666666666666674,-1.5656565656565653 1.6666666666666674,-1.6666666666666665 1.6666666666666674,-1.7676767676767675 1.6666666666666674,-1.8686868686868683 1.6666666666666674,-1.9696969696969693 1.6666666666666674,-2.07070707070707 1.6666666666666674,-2.1717171717171713" data-type="line" data-label="" points="984,40.000000000000114 974.4646464646464,49.53535353535369 964.9292929292927,59.07070707070733 955.3939393939393,68.60606060606085 945.8585858585857,78.14141414141432 936.3232323232323,87.67676767676778 926.7878787878785,97.21212121212153 917.2525252525251,106.747474747475 907.7171717171716,116.28282828282846 898.181818181818,125.81818181818198 888.6464646464647,135.35353535353545 879.111111111111,144.88888888888908 869.5757575757575,154.4242424242426 860.0404040404039,163.95959595959613 850.5050505050505,173.4949494949496 840.969696969697,183.03030303030312 831.4343434343433,192.56565656565675 821.8989898989898,202.10101010101027 812.3636363636363,211.63636363636374 802.8282828282828,221.17171717171726 793.2929292929292,230.70707070707084 783.7575757575758,240.24242424242436 774.2222222222222,249.77777777777794 764.6868686868686,259.3131313131314 755.1515151515151,268.84848484848493 745.6161616161615,278.38383838383857 736.0808080808081,287.91919191919203 726.5454545454545,297.4545454545456 717.0101010101009,306.9898989898991 707.4747474747475,316.5252525252526 697.9393939393939,326.06060606060623 688.4040404040404,335.5959595959597 678.8686868686868,345.1313131313133 669.3333333333333,354.66666666666674 669.3333333333333,364.2020202020203 669.3333333333333,373.73737373737384 669.3333333333333,383.27272727272737 669.3333333333333,392.80808080808094 669.3333333333333,402.3434343434344 669.3333333333333,411.87878787878793 669.3333333333333,421.4141414141415 669.3333333333333,430.94949494949503 669.3333333333333,440.4848484848486 669.3333333333333,450.0202020202021 669.3333333333333,459.5555555555556 669.3333333333333,469.0909090909092 669.3333333333333,478.6262626262627 669.3333333333333,488.1616161616163 669.3333333333333,497.69696969696975 669.3333333333333,507.23232323232327 669.3333333333333,516.7676767676768 669.3333333333333,526.3030303030304 669.3333333333333,535.838383838384 669.3333333333333,545.3737373737374 669.3333333333333,554.909090909091 669.3333333333333,564.4444444444445 669.3333333333333,573.979797979798 669.3333333333333,583.5151515151516 669.3333333333333,593.0505050505051 669.3333333333333,602.5858585858587 669.3333333333333,612.1212121212121 669.3333333333333,621.6565656565657 669.3333333333333,631.1919191919193 669.3333333333333,640.7272727272727 669.3333333333333,650.2626262626263 669.3333333333333,659.7979797979798 669.3333333333333,669.3333333333334 669.3333333333333,678.8686868686868 669.3333333333333,688.4040404040404 669.3333333333333,697.939393939394 669.3333333333333,707.4747474747475 669.3333333333333,717.010101010101" fill="none" stroke="rgba(0,0,255,0.75)" stroke-width="11.327999999999996"/></g><g><polyline data-points="1.6666666666666674,-2.1717171717171713 1.6666666666666674,-2.2727272727272725 1.6666666666666674,-2.3737373737373733 1.6666666666666674,-2.474747474747474 1.6666666666666674,-2.5757575757575752 1.6666666666666674,-2.6767676767676765 1.6666666666666674,-2.7777777777777777 1.6666666666666674,-2.8787878787878785 1.6666666666666674,-2.9797979797979792 1.6666666666666674,-3.0808080808080804 1.6666666666666674,-3.1818181818181817 1.6666666666666674,-3.2828282828282824 1.6666666666666674,-3.383838383838383 1.6666666666666674,-3.484848484848485 1.6666666666666674,-3.5858585858585856 1.6666666666666674,-3.6868686868686864 1.6666666666666674,-3.7878787878787876 1.6666666666666674,-3.8888888888888884 1.6666666666666674,-3.98989898989899" data-type="line" data-label="" points="669.3333333333333,717.010101010101 669.3333333333333,726.5454545454545 669.3333333333333,736.0808080808081 669.3333333333333,745.6161616161615 669.3333333333333,755.1515151515151 669.3333333333333,764.6868686868687 669.3333333333333,774.2222222222222 669.3333333333333,783.7575757575758 669.3333333333333,793.2929292929292 669.3333333333333,802.8282828282828 669.3333333333333,812.3636363636363 669.3333333333333,821.8989898989898 669.3333333333333,831.4343434343434 669.3333333333333,840.969696969697 669.3333333333333,850.5050505050505 669.3333333333333,860.0404040404039 669.3333333333333,869.5757575757575 669.3333333333333,879.1111111111111 669.3333333333333,888.6464646464647" fill="none" stroke="rgba(255,0,0,0.75)" stroke-width="11.327999999999996"/></g><g><polyline data-points="1.6666666666666674,-3.98989898989899 1.6666666666666674,-4.090909090909091 1.6666666666666674,-4.191919191919193 1.6666666666666674,-4.292929292929293 1.6666666666666674,-4.393939393939394 1.6666666666666674,-4.494949494949496 1.6666666666666674,-4.595959595959596 1.6666666666666674,-4.696969696969697 1.6666666666666674,-4.7979797979797985 1.6666666666666674,-4.898989898989899 1.6666666666666674,-5.000000000000001" data-type="line" data-label="" points="669.3333333333333,888.6464646464647 669.3333333333333,898.1818181818181 669.3333333333333,907.7171717171718 669.3333333333333,917.2525252525252 669.3333333333333,926.7878787878788 669.3333333333333,936.3232323232323 669.3333333333333,945.8585858585858 669.3333333333333,955.3939393939394 669.3333333333333,964.9292929292928 669.3333333333333,974.4646464646464 669.3333333333333,984" fill="none" stroke="rgba(0,0,255,0.75)" stroke-width="11.327999999999996"/></g><g><polyline data-points="5.000000000000002,2.9797979797979806 4.898989898989901,2.87878787878788 4.7979797979797985,2.7777777777777786 4.696969696969697,2.676767676767678 4.595959595959597,2.575757575757577 4.494949494949497,2.4747474747474754 4.393939393939394,2.373737373737375 4.292929292929293,2.2727272727272734 4.191919191919193,2.1717171717171726 4.090909090909092,2.070707070707072 3.989898989898992,1.9696969696969702 3.8888888888888893,1.8686868686868696 3.7878787878787885,1.767676767676768 3.6868686868686877,1.6666666666666674 3.5858585858585874,1.5656565656565666 3.4848484848484866,1.4646464646464652 3.383838383838384,1.3636363636363644 3.2828282828282833,1.262626262626263 3.181818181818183,1.1616161616161622 3.080808080808082,1.0606060606060617 2.9797979797979806,0.9595959595959602 2.87878787878788,0.8585858585858596 2.7777777777777786,0.7575757575757579 2.676767676767678,0.6565656565656574 2.575757575757577,0.5555555555555567 2.4747474747474754,0.4545454545454551 2.373737373737375,0.3535353535353544 2.2727272727272734,0.2525252525252529 2.1717171717171726,0.1515151515151522 2.070707070707072,0.050505050505051545 2.070707070707072,-0.05050505050505001 2.070707070707072,-0.15151515151515066 2.070707070707072,-0.2525252525252522 2.070707070707072,-0.35353535353535287 2.070707070707072,-0.4545454545454544 2.070707070707072,-0.555555555555555 2.070707070707072,-0.6565656565656557 2.070707070707072,-0.7575757575757572 2.070707070707072,-0.8585858585858579 2.070707070707072,-0.9595959595959596 2.070707070707072,-1.0606060606060603 2.070707070707072,-1.1616161616161613 2.070707070707072,-1.2626262626262625 2.070707070707072,-1.363636363636363" data-type="line" data-label="" points="984,230.70707070707084 974.4646464646464,240.24242424242436 964.9292929292927,249.77777777777794 955.3939393939393,259.3131313131314 945.8585858585857,268.84848484848493 936.3232323232323,278.38383838383857 926.7878787878785,287.91919191919203 917.2525252525251,297.4545454545456 907.7171717171716,306.9898989898991 898.181818181818,316.5252525252526 888.6464646464647,326.06060606060623 879.111111111111,335.5959595959597 869.5757575757575,345.1313131313133 860.0404040404039,354.66666666666674 850.5050505050505,364.2020202020203 840.969696969697,373.73737373737384 831.4343434343433,383.27272727272737 821.8989898989898,392.80808080808094 812.3636363636363,402.3434343434344 802.8282828282828,411.87878787878793 793.2929292929292,421.4141414141415 783.7575757575758,430.94949494949503 774.2222222222222,440.4848484848486 764.6868686868686,450.0202020202021 755.1515151515151,459.5555555555556 745.6161616161615,469.0909090909092 736.0808080808081,478.6262626262627 726.5454545454545,488.1616161616163 717.0101010101009,497.69696969696975 707.4747474747475,507.23232323232327 707.4747474747475,516.7676767676768 707.4747474747475,526.3030303030304 707.4747474747475,535.838383838384 707.4747474747475,545.3737373737374 707.4747474747475,554.909090909091 707.4747474747475,564.4444444444445 707.4747474747475,573.979797979798 707.4747474747475,583.5151515151516 707.4747474747475,593.0505050505051 707.4747474747475,602.5858585858587 707.4747474747475,612.1212121212121 707.4747474747475,621.6565656565657 707.4747474747475,631.1919191919193 707.4747474747475,640.7272727272727" fill="none" stroke="rgba(0,0,255,0.75)" stroke-width="11.327999999999996"/></g><g><polyline data-points="2.070707070707072,-1.363636363636363 1.9696969696969702,-1.4646464646464643 1.8686868686868696,-1.5656565656565653 1.767676767676768,-1.6666666666666665 1.6666666666666674,-1.7676767676767675 1.5656565656565666,-1.8686868686868683 1.4646464646464652,-1.9696969696969693 1.3636363636363644,-2.07070707070707 1.262626262626263,-2.1717171717171713 1.1616161616161622,-2.2727272727272725 1.0606060606060617,-2.3737373737373733 0.9595959595959602,-2.474747474747474 0.8585858585858596,-2.5757575757575752 0.7575757575757579,-2.6767676767676765 0.6565656565656574,-2.7777777777777777 0.5555555555555567,-2.8787878787878785 0.4545454545454551,-2.9797979797979792 0.3535353535353544,-3.0808080808080804 0.2525252525252529,-3.1818181818181817 0.1515151515151522,-3.2828282828282824 0.1515151515151522,-3.383838383838383 0.1515151515151522,-3.484848484848485 0.1515151515151522,-3.5858585858585856 0.1515151515151522,-3.6868686868686864 0.1515151515151522,-3.7878787878787876 0.1515151515151522,-3.8888888888888884 0.1515151515151522,-3.98989898989899 0.1515151515151522,-4.090909090909091 0.1515151515151522,-4.191919191919193 0.1515151515151522,-4.292929292929293 0.1515151515151522,-4.393939393939394 0.1515151515151522,-4.494949494949496 0.1515151515151522,-4.595959595959596 0.1515151515151522,-4.696969696969697 0.1515151515151522,-4.7979797979797985 0.1515151515151522,-4.898989898989899 0.1515151515151522,-5.000000000000001" data-type="line" data-label="" points="707.4747474747475,640.7272727272727 697.9393939393939,650.2626262626263 688.4040404040404,659.7979797979798 678.8686868686868,669.3333333333334 669.3333333333333,678.8686868686868 659.7979797979798,688.4040404040404 650.2626262626262,697.939393939394 640.7272727272727,707.4747474747475 631.1919191919192,717.010101010101 621.6565656565656,726.5454545454545 612.1212121212121,736.0808080808081 602.5858585858585,745.6161616161615 593.0505050505051,755.1515151515151 583.5151515151515,764.6868686868687 573.9797979797979,774.2222222222222 564.4444444444445,783.7575757575758 554.9090909090909,793.2929292929292 545.3737373737374,802.8282828282828 535.8383838383838,812.3636363636363 526.3030303030303,821.8989898989898 526.3030303030303,831.4343434343434 526.3030303030303,840.969696969697 526.3030303030303,850.5050505050505 526.3030303030303,860.0404040404039 526.3030303030303,869.5757575757575 526.3030303030303,879.1111111111111 526.3030303030303,888.6464646464647 526.3030303030303,898.1818181818181 526.3030303030303,907.7171717171718 526.3030303030303,917.2525252525252 526.3030303030303,926.7878787878788 526.3030303030303,936.3232323232323 526.3030303030303,945.8585858585858 526.3030303030303,955.3939393939394 526.3030303030303,964.9292929292928 526.3030303030303,974.4646464646464 526.3030303030303,984" fill="none" stroke="rgba(255,0,0,0.75)" stroke-width="11.327999999999996"/></g><g><polyline data-points="-0.8585858585858579,-5.000000000000001 -0.9595959595959596,-4.898989898989899 -1.0606060606060603,-4.7979797979797985 -1.1616161616161613,-4.696969696969697 -1.2626262626262625,-4.595959595959596 -1.363636363636363,-4.494949494949496 -1.4646464646464643,-4.393939393939394 -1.5656565656565653,-4.292929292929293 -1.6666666666666665,-4.191919191919193 -1.7676767676767675,-4.090909090909091 -1.8686868686868683,-3.98989898989899 -1.8686868686868683,-3.8888888888888884 -1.8686868686868683,-3.7878787878787876 -1.8686868686868683,-3.6868686868686864 -1.8686868686868683,-3.5858585858585856 -1.8686868686868683,-3.484848484848485 -1.8686868686868683,-3.383838383838383 -1.8686868686868683,-3.2828282828282824 -1.8686868686868683,-3.1818181818181817 -1.8686868686868683,-3.0808080808080804 -1.8686868686868683,-2.9797979797979792" data-type="line" data-label="" points="430.949494949495,984 421.4141414141414,974.4646464646464 411.8787878787879,964.9292929292928 402.34343434343435,955.3939393939394 392.80808080808083,945.8585858585858 383.2727272727273,936.3232323232323 373.7373737373738,926.7878787878788 364.2020202020202,917.2525252525252 354.6666666666667,907.7171717171718 345.13131313131316,898.1818181818181 335.59595959595964,888.6464646464647 335.59595959595964,879.1111111111111 335.59595959595964,869.5757575757575 335.59595959595964,860.0404040404039 335.59595959595964,850.5050505050505 335.59595959595964,840.969696969697 335.59595959595964,831.4343434343434 335.59595959595964,821.8989898989898 335.59595959595964,812.3636363636363 335.59595959595964,802.8282828282828 335.59595959595964,793.2929292929292" fill="none" stroke="rgba(0,0,255,0.75)" stroke-width="11.327999999999996"/></g><g><polyline data-points="-1.8686868686868683,-2.9797979797979792 -1.8686868686868683,-2.8787878787878785 -1.8686868686868683,-2.7777777777777777 -1.8686868686868683,-2.6767676767676765 -1.8686868686868683,-2.5757575757575752 -1.8686868686868683,-2.474747474747474 -1.8686868686868683,-2.3737373737373733 -1.8686868686868683,-2.2727272727272725 -1.8686868686868683,-2.1717171717171713 -1.8686868686868683,-2.07070707070707 -1.8686868686868683,-1.9696969696969693 -1.8686868686868683,-1.8686868686868683 -1.8686868686868683,-1.7676767676767675 -1.8686868686868683,-1.6666666666666665 -1.8686868686868683,-1.5656565656565653 -1.8686868686868683,-1.4646464646464643 -1.8686868686868683,-1.363636363636363 -1.8686868686868683,-1.2626262626262625 -1.8686868686868683,-1.1616161616161613 -1.8686868686868683,-1.0606060606060603 -1.8686868686868683,-0.9595959595959596 -1.8686868686868683,-0.8585858585858579 -1.8686868686868683,-0.7575757575757572 -1.8686868686868683,-0.6565656565656557 -1.8686868686868683,-0.555555555555555 -1.8686868686868683,-0.4545454545454544 -1.8686868686868683,-0.35353535353535287 -1.8686868686868683,-0.2525252525252522 -1.8686868686868683,-0.15151515151515066 -1.8686868686868683,-0.05050505050505001 -1.8686868686868683,0.050505050505051545 -1.8686868686868683,0.1515151515151522 -1.8686868686868683,0.2525252525252529 -1.8686868686868683,0.3535353535353544 -1.8686868686868683,0.4545454545454551 -1.8686868686868683,0.5555555555555567 -1.8686868686868683,0.6565656565656574 -1.8686868686868683,0.7575757575757579 -1.8686868686868683,0.8585858585858596 -1.8686868686868683,0.9595959595959602 -1.8686868686868683,1.0606060606060617 -1.8686868686868683,1.1616161616161622 -1.8686868686868683,1.262626262626263 -1.8686868686868683,1.3636363636363644 -1.8686868686868683,1.4646464646464652 -1.8686868686868683,1.5656565656565666 -1.8686868686868683,1.6666666666666674 -1.8686868686868683,1.767676767676768 -1.8686868686868683,1.8686868686868696 -1.8686868686868683,1.9696969696969702 -1.8686868686868683,2.070707070707072 -1.8686868686868683,2.1717171717171726 -1.8686868686868683,2.2727272727272734 -1.8686868686868683,2.373737373737375 -1.8686868686868683,2.4747474747474754 -1.8686868686868683,2.575757575757577 -1.8686868686868683,2.676767676767678 -1.8686868686868683,2.7777777777777786 -1.8686868686868683,2.87878787878788 -1.8686868686868683,2.9797979797979806 -1.8686868686868683,3.080808080808082 -1.8686868686868683,3.181818181818183 -1.8686868686868683,3.2828282828282833 -1.8686868686868683,3.383838383838384 -1.8686868686868683,3.4848484848484866 -1.8686868686868683,3.5858585858585874 -1.8686868686868683,3.6868686868686877 -1.8686868686868683,3.7878787878787885 -1.8686868686868683,3.8888888888888893 -1.8686868686868683,3.989898989898992" data-type="line" data-label="" points="335.59595959595964,793.2929292929292 335.59595959595964,783.7575757575758 335.59595959595964,774.2222222222222 335.59595959595964,764.6868686868687 335.59595959595964,755.1515151515151 335.59595959595964,745.6161616161615 335.59595959595964,736.0808080808081 335.59595959595964,726.5454545454545 335.59595959595964,717.010101010101 335.59595959595964,707.4747474747475 335.59595959595964,697.939393939394 335.59595959595964,688.4040404040404 335.59595959595964,678.8686868686868 335.59595959595964,669.3333333333334 335.59595959595964,659.7979797979798 335.59595959595964,650.2626262626263 335.59595959595964,640.7272727272727 335.59595959595964,631.1919191919193 335.59595959595964,621.6565656565657 335.59595959595964,612.1212121212121 335.59595959595964,602.5858585858587 335.59595959595964,593.0505050505051 335.59595959595964,583.5151515151516 335.59595959595964,573.979797979798 335.59595959595964,564.4444444444445 335.59595959595964,554.909090909091 335.59595959595964,545.3737373737374 335.59595959595964,535.838383838384 335.59595959595964,526.3030303030304 335.59595959595964,516.7676767676768 335.59595959595964,507.23232323232327 335.59595959595964,497.69696969696975 335.59595959595964,488.1616161616163 335.59595959595964,478.6262626262627 335.59595959595964,469.0909090909092 335.59595959595964,459.5555555555556 335.59595959595964,450.0202020202021 335.59595959595964,440.4848484848486 335.59595959595964,430.94949494949503 335.59595959595964,421.4141414141415 335.59595959595964,411.87878787878793 335.59595959595964,402.3434343434344 335.59595959595964,392.80808080808094 335.59595959595964,383.27272727272737 335.59595959595964,373.73737373737384 335.59595959595964,364.2020202020203 335.59595959595964,354.66666666666674 335.59595959595964,345.1313131313133 335.59595959595964,335.5959595959597 335.59595959595964,326.06060606060623 335.59595959595964,316.5252525252526 335.59595959595964,306.9898989898991 335.59595959595964,297.4545454545456 335.59595959595964,287.91919191919203 335.59595959595964,278.38383838383857 335.59595959595964,268.84848484848493 335.59595959595964,259.3131313131314 335.59595959595964,249.77777777777794 335.59595959595964,240.24242424242436 335.59595959595964,230.70707070707084 335.59595959595964,221.17171717171726 335.59595959595964,211.63636363636374 335.59595959595964,202.10101010101027 335.59595959595964,192.56565656565675 335.59595959595964,183.03030303030312 335.59595959595964,173.4949494949496 335.59595959595964,163.95959595959613 335.59595959595964,154.4242424242426 335.59595959595964,144.88888888888908 335.59595959595964,135.35353535353545" fill="none" stroke="rgba(255,0,0,0.75)" stroke-width="11.327999999999996"/></g><g><polyline data-points="-1.8686868686868683,3.989898989898992 -1.8686868686868683,4.090909090909092 -1.8686868686868683,4.191919191919193 -1.8686868686868683,4.292929292929293 -1.8686868686868683,4.393939393939394 -1.8686868686868683,4.494949494949497 -1.8686868686868683,4.595959595959597 -1.8686868686868683,4.696969696969697 -1.8686868686868683,4.7979797979797985 -1.8686868686868683,4.898989898989901 -1.8686868686868683,5.000000000000002" data-type="line" data-label="" points="335.59595959595964,135.35353535353545 335.59595959595964,125.81818181818198 335.59595959595964,116.28282828282846 335.59595959595964,106.747474747475 335.59595959595964,97.21212121212153 335.59595959595964,87.67676767676778 335.59595959595964,78.14141414141432 335.59595959595964,68.60606060606085 335.59595959595964,59.07070707070733 335.59595959595964,49.53535353535369 335.59595959595964,40.000000000000114" fill="none" stroke="rgba(0,0,255,0.75)" stroke-width="11.327999999999996"/></g><g><polyline data-points="-2.3737373737373733,5.000000000000002 -2.2727272727272725,4.898989898989901 -2.1717171717171713,4.7979797979797985 -2.1717171717171713,4.696969696969697 -2.1717171717171713,4.595959595959597 -2.1717171717171713,4.494949494949497 -2.1717171717171713,4.393939393939394 -2.1717171717171713,4.292929292929293 -2.1717171717171713,4.191919191919193 -2.1717171717171713,4.090909090909092 -2.1717171717171713,3.989898989898992 -2.07070707070707,3.8888888888888893 -1.9696969696969693,3.7878787878787885 -1.8686868686868683,3.6868686868686877 -1.7676767676767675,3.5858585858585874 -1.6666666666666665,3.4848484848484866 -1.5656565656565653,3.383838383838384 -1.4646464646464643,3.2828282828282833 -1.363636363636363,3.181818181818183 -1.2626262626262625,3.080808080808082 -1.1616161616161613,2.9797979797979806 -1.0606060606060603,2.87878787878788 -0.9595959595959596,2.7777777777777786 -0.8585858585858579,2.676767676767678 -0.7575757575757572,2.575757575757577 -0.6565656565656557,2.4747474747474754 -0.555555555555555,2.373737373737375 -0.4545454545454544,2.2727272727272734 -0.35353535353535287,2.1717171717171726 -0.2525252525252522,2.070707070707072 -0.15151515151515066,1.9696969696969702 -0.05050505050505001,1.8686868686868696 -0.05050505050505001,1.767676767676768 -0.05050505050505001,1.6666666666666674 -0.05050505050505001,1.5656565656565666 -0.05050505050505001,1.4646464646464652 -0.05050505050505001,1.3636363636363644 -0.05050505050505001,1.262626262626263 -0.05050505050505001,1.1616161616161622 -0.05050505050505001,1.0606060606060617 -0.05050505050505001,0.9595959595959602 -0.05050505050505001,0.8585858585858596 -0.05050505050505001,0.7575757575757579 -0.05050505050505001,0.6565656565656574 -0.05050505050505001,0.5555555555555567 -0.05050505050505001,0.4545454545454551 -0.05050505050505001,0.3535353535353544 -0.05050505050505001,0.2525252525252529 -0.05050505050505001,0.1515151515151522 -0.05050505050505001,0.050505050505051545 -0.05050505050505001,-0.05050505050505001 -0.05050505050505001,-0.15151515151515066 -0.05050505050505001,-0.2525252525252522 -0.05050505050505001,-0.35353535353535287 -0.05050505050505001,-0.4545454545454544 -0.05050505050505001,-0.555555555555555 -0.05050505050505001,-0.6565656565656557 -0.05050505050505001,-0.7575757575757572 -0.05050505050505001,-0.8585858585858579 -0.05050505050505001,-0.9595959595959596 -0.05050505050505001,-1.0606060606060603 -0.05050505050505001,-1.1616161616161613 -0.05050505050505001,-1.2626262626262625 -0.05050505050505001,-1.363636363636363 -0.05050505050505001,-1.4646464646464643 -0.05050505050505001,-1.5656565656565653 -0.05050505050505001,-1.6666666666666665 -0.05050505050505001,-1.7676767676767675 -0.05050505050505001,-1.8686868686868683 -0.05050505050505001,-1.9696969696969693 -0.05050505050505001,-2.07070707070707 -0.05050505050505001,-2.1717171717171713" data-type="line" data-label="" points="287.91919191919203,40.000000000000114 297.4545454545455,49.53535353535369 306.9898989898991,59.07070707070733 306.9898989898991,68.60606060606085 306.9898989898991,78.14141414141432 306.9898989898991,87.67676767676778 306.9898989898991,97.21212121212153 306.9898989898991,106.747474747475 306.9898989898991,116.28282828282846 306.9898989898991,125.81818181818198 306.9898989898991,135.35353535353545 316.5252525252526,144.88888888888908 326.0606060606061,154.4242424242426 335.59595959595964,163.95959595959613 345.13131313131316,173.4949494949496 354.6666666666667,183.03030303030312 364.2020202020202,192.56565656565675 373.7373737373738,202.10101010101027 383.2727272727273,211.63636363636374 392.80808080808083,221.17171717171726 402.34343434343435,230.70707070707084 411.8787878787879,240.24242424242436 421.4141414141414,249.77777777777794 430.949494949495,259.3131313131314 440.4848484848485,268.84848484848493 450.0202020202021,278.38383838383857 459.55555555555554,287.91919191919203 469.09090909090907,297.4545454545456 478.62626262626264,306.9898989898991 488.16161616161617,316.5252525252526 497.69696969696975,326.06060606060623 507.2323232323232,335.5959595959597 507.2323232323232,345.1313131313133 507.2323232323232,354.66666666666674 507.2323232323232,364.2020202020203 507.2323232323232,373.73737373737384 507.2323232323232,383.27272727272737 507.2323232323232,392.80808080808094 507.2323232323232,402.3434343434344 507.2323232323232,411.87878787878793 507.2323232323232,421.4141414141415 507.2323232323232,430.94949494949503 507.2323232323232,440.4848484848486 507.2323232323232,450.0202020202021 507.2323232323232,459.5555555555556 507.2323232323232,469.0909090909092 507.2323232323232,478.6262626262627 507.2323232323232,488.1616161616163 507.2323232323232,497.69696969696975 507.2323232323232,507.23232323232327 507.2323232323232,516.7676767676768 507.2323232323232,526.3030303030304 507.2323232323232,535.838383838384 507.2323232323232,545.3737373737374 507.2323232323232,554.909090909091 507.2323232323232,564.4444444444445 507.2323232323232,573.979797979798 507.2323232323232,583.5151515151516 507.2323232323232,593.0505050505051 507.2323232323232,602.5858585858587 507.2323232323232,612.1212121212121 507.2323232323232,621.6565656565657 507.2323232323232,631.1919191919193 507.2323232323232,640.7272727272727 507.2323232323232,650.2626262626263 507.2323232323232,659.7979797979798 507.2323232323232,669.3333333333334 507.2323232323232,678.8686868686868 507.2323232323232,688.4040404040404 507.2323232323232,697.939393939394 507.2323232323232,707.4747474747475 507.2323232323232,717.010101010101" fill="none" stroke="rgba(0,0,255,0.75)" stroke-width="11.327999999999996"/></g><g><polyline data-points="-0.05050505050505001,-2.1717171717171713 -0.05050505050505001,-2.2727272727272725 -0.05050505050505001,-2.3737373737373733 -0.05050505050505001,-2.474747474747474 -0.05050505050505001,-2.5757575757575752 -0.05050505050505001,-2.6767676767676765 -0.05050505050505001,-2.7777777777777777 -0.05050505050505001,-2.8787878787878785 -0.05050505050505001,-2.9797979797979792" data-type="line" data-label="" points="507.2323232323232,717.010101010101 507.2323232323232,726.5454545454545 507.2323232323232,736.0808080808081 507.2323232323232,745.6161616161615 507.2323232323232,755.1515151515151 507.2323232323232,764.6868686868687 507.2323232323232,774.2222222222222 507.2323232323232,783.7575757575758 507.2323232323232,793.2929292929292" fill="none" stroke="rgba(255,0,0,0.75)" stroke-width="11.327999999999996"/></g><g><polyline data-points="-0.05050505050505001,-2.9797979797979792 0.050505050505051545,-3.0808080808080804 0.1515151515151522,-3.1818181818181817 0.2525252525252529,-3.2828282828282824 0.3535353535353544,-3.383838383838383 0.4545454545454551,-3.484848484848485 0.5555555555555567,-3.5858585858585856 0.6565656565656574,-3.5858585858585856" data-type="line" data-label="" points="507.2323232323232,793.2929292929292 516.7676767676768,802.8282828282828 526.3030303030303,812.3636363636363 535.8383838383838,821.8989898989898 545.3737373737374,831.4343434343434 554.9090909090909,840.969696969697 564.4444444444445,850.5050505050505 573.9797979797979,850.5050505050505" fill="none" stroke="rgba(0,0,255,0.75)" stroke-width="11.327999999999996"/></g><g><polyline data-points="0.6565656565656574,-3.5858585858585856 0.7575757575757579,-3.6868686868686864 0.8585858585858596,-3.7878787878787876 0.9595959595959602,-3.8888888888888884 0.9595959595959602,-3.98989898989899 0.9595959595959602,-4.090909090909091 0.9595959595959602,-4.191919191919193 0.9595959595959602,-4.292929292929293 0.9595959595959602,-4.393939393939394 0.9595959595959602,-4.494949494949496 0.9595959595959602,-4.595959595959596 0.9595959595959602,-4.696969696969697 0.9595959595959602,-4.7979797979797985 0.9595959595959602,-4.898989898989899 0.9595959595959602,-5.000000000000001" data-type="line" data-label="" points="573.9797979797979,850.5050505050505 583.5151515151515,860.0404040404039 593.0505050505051,869.5757575757575 602.5858585858585,879.1111111111111 602.5858585858585,888.6464646464647 602.5858585858585,898.1818181818181 602.5858585858585,907.7171717171718 602.5858585858585,917.2525252525252 602.5858585858585,926.7878787878788 602.5858585858585,936.3232323232323 602.5858585858585,945.8585858585858 602.5858585858585,955.3939393939394 602.5858585858585,964.9292929292928 602.5858585858585,974.4646464646464 602.5858585858585,984" fill="none" stroke="rgba(255,0,0,0.75)" stroke-width="11.327999999999996"/></g><g><polyline data-points="-4.494949494949496,5.000000000000002 -4.393939393939394,4.898989898989901 -4.292929292929293,4.7979797979797985 -4.191919191919193,4.696969696969697 -4.090909090909091,4.595959595959597 -3.98989898989899,4.494949494949497 -3.8888888888888884,4.393939393939394 -3.7878787878787876,4.292929292929293 -3.6868686868686864,4.191919191919193 -3.5858585858585856,4.090909090909092 -3.484848484848485,3.989898989898992 -3.383838383838383,3.8888888888888893 -3.2828282828282824,3.7878787878787885" data-type="line" data-label="" points="87.67676767676772,40.000000000000114 97.21212121212136,49.53535353535369 106.74747474747483,59.07070707070733 116.28282828282829,68.60606060606085 125.81818181818193,78.14141414141432 135.35353535353545,87.67676767676778 144.88888888888903,97.21212121212153 154.42424242424255,106.747474747475 163.95959595959607,116.28282828282846 173.4949494949496,125.81818181818198 183.03030303030312,135.35353535353545 192.5656565656567,144.88888888888908 202.10101010101022,154.4242424242426" fill="none" stroke="rgba(255,0,0,0.75)" stroke-width="11.327999999999996"/></g><g><polyline data-points="-3.2828282828282824,3.7878787878787885 -3.1818181818181817,3.6868686868686877 -3.0808080808080804,3.5858585858585874 -2.9797979797979792,3.4848484848484866 -2.8787878787878785,3.383838383838384 -2.7777777777777777,3.2828282828282833 -2.6767676767676765,3.181818181818183 -2.5757575757575752,3.080808080808082 -2.474747474747474,2.9797979797979806 -2.3737373737373733,2.87878787878788 -2.2727272727272725,2.7777777777777786 -2.1717171717171713,2.676767676767678 -2.07070707070707,2.575757575757577 -1.9696969696969693,2.4747474747474754 -1.8686868686868683,2.373737373737375 -1.7676767676767675,2.2727272727272734 -1.6666666666666665,2.1717171717171726 -1.5656565656565653,2.070707070707072 -1.4646464646464643,1.9696969696969702 -1.363636363636363,1.8686868686868696 -1.2626262626262625,1.767676767676768 -1.1616161616161613,1.6666666666666674 -1.0606060606060603,1.5656565656565666 -0.9595959595959596,1.4646464646464652 -0.8585858585858579,1.3636363636363644 -0.7575757575757572,1.262626262626263 -0.6565656565656557,1.1616161616161622 -0.555555555555555,1.0606060606060617 -0.4545454545454544,0.9595959595959602 -0.4545454545454544,0.8585858585858596 -0.4545454545454544,0.7575757575757579 -0.4545454545454544,0.6565656565656574 -0.4545454545454544,0.5555555555555567 -0.4545454545454544,0.4545454545454551 -0.4545454545454544,0.3535353535353544 -0.4545454545454544,0.2525252525252529 -0.4545454545454544,0.1515151515151522 -0.4545454545454544,0.050505050505051545 -0.4545454545454544,-0.05050505050505001 -0.4545454545454544,-0.15151515151515066 -0.4545454545454544,-0.2525252525252522 -0.4545454545454544,-0.35353535353535287 -0.4545454545454544,-0.4545454545454544 -0.4545454545454544,-0.555555555555555 -0.4545454545454544,-0.6565656565656557 -0.4545454545454544,-0.7575757575757572 -0.4545454545454544,-0.8585858585858579 -0.4545454545454544,-0.9595959595959596 -0.4545454545454544,-1.0606060606060603 -0.4545454545454544,-1.1616161616161613 -0.4545454545454544,-1.2626262626262625 -0.4545454545454544,-1.363636363636363 -0.4545454545454544,-1.4646464646464643" data-type="line" data-label="" points="202.10101010101022,154.4242424242426 211.63636363636374,163.95959595959613 221.17171717171726,173.4949494949496 230.70707070707084,183.03030303030312 240.2424242424243,192.56565656565675 249.77777777777783,202.10101010101027 259.3131313131314,211.63636363636374 268.84848484848493,221.17171717171726 278.38383838383845,230.70707070707084 287.91919191919203,240.24242424242436 297.4545454545455,249.77777777777794 306.9898989898991,259.3131313131314 316.5252525252526,268.84848484848493 326.0606060606061,278.38383838383857 335.59595959595964,287.91919191919203 345.13131313131316,297.4545454545456 354.6666666666667,306.9898989898991 364.2020202020202,316.5252525252526 373.7373737373738,326.06060606060623 383.2727272727273,335.5959595959597 392.80808080808083,345.1313131313133 402.34343434343435,354.66666666666674 411.8787878787879,364.2020202020203 421.4141414141414,373.73737373737384 430.949494949495,383.27272727272737 440.4848484848485,392.80808080808094 450.0202020202021,402.3434343434344 459.55555555555554,411.87878787878793 469.09090909090907,421.4141414141415 469.09090909090907,430.94949494949503 469.09090909090907,440.4848484848486 469.09090909090907,450.0202020202021 469.09090909090907,459.5555555555556 469.09090909090907,469.0909090909092 469.09090909090907,478.6262626262627 469.09090909090907,488.1616161616163 469.09090909090907,497.69696969696975 469.09090909090907,507.23232323232327 469.09090909090907,516.7676767676768 469.09090909090907,526.3030303030304 469.09090909090907,535.838383838384 469.09090909090907,545.3737373737374 469.09090909090907,554.909090909091 469.09090909090907,564.4444444444445 469.09090909090907,573.979797979798 469.09090909090907,583.5151515151516 469.09090909090907,593.0505050505051 469.09090909090907,602.5858585858587 469.09090909090907,612.1212121212121 469.09090909090907,621.6565656565657 469.09090909090907,631.1919191919193 469.09090909090907,640.7272727272727 469.09090909090907,650.2626262626263" fill="none" stroke="rgba(0,0,255,0.75)" stroke-width="11.327999999999996"/></g><g><polyline data-points="-0.4545454545454544,-1.4646464646464643 -0.35353535353535287,-1.5656565656565653 -0.35353535353535287,-1.6666666666666665 -0.35353535353535287,-1.7676767676767675 -0.35353535353535287,-1.8686868686868683 -0.35353535353535287,-1.9696969696969693 -0.35353535353535287,-2.07070707070707 -0.35353535353535287,-2.1717171717171713 -0.35353535353535287,-2.2727272727272725 -0.35353535353535287,-2.3737373737373733 -0.35353535353535287,-2.474747474747474 -0.35353535353535287,-2.5757575757575752 -0.35353535353535287,-2.6767676767676765 -0.35353535353535287,-2.7777777777777777 -0.35353535353535287,-2.8787878787878785 -0.35353535353535287,-2.9797979797979792 -0.2525252525252522,-3.0808080808080804 -0.2525252525252522,-3.1818181818181817 -0.2525252525252522,-3.2828282828282824 -0.2525252525252522,-3.383838383838383 -0.2525252525252522,-3.484848484848485 -0.2525252525252522,-3.5858585858585856 -0.2525252525252522,-3.6868686868686864 -0.2525252525252522,-3.7878787878787876" data-type="line" data-label="" points="469.09090909090907,650.2626262626263 478.62626262626264,659.7979797979798 478.62626262626264,669.3333333333334 478.62626262626264,678.8686868686868 478.62626262626264,688.4040404040404 478.62626262626264,697.939393939394 478.62626262626264,707.4747474747475 478.62626262626264,717.010101010101 478.62626262626264,726.5454545454545 478.62626262626264,736.0808080808081 478.62626262626264,745.6161616161615 478.62626262626264,755.1515151515151 478.62626262626264,764.6868686868687 478.62626262626264,774.2222222222222 478.62626262626264,783.7575757575758 478.62626262626264,793.2929292929292 488.16161616161617,802.8282828282828 488.16161616161617,812.3636363636363 488.16161616161617,821.8989898989898 488.16161616161617,831.4343434343434 488.16161616161617,840.969696969697 488.16161616161617,850.5050505050505 488.16161616161617,860.0404040404039 488.16161616161617,869.5757575757575" fill="none" stroke="rgba(255,0,0,0.75)" stroke-width="11.327999999999996"/></g><g><polyline data-points="-0.2525252525252522,-3.7878787878787876 -0.15151515151515066,-3.8888888888888884 -0.05050505050505001,-3.8888888888888884 0.050505050505051545,-3.8888888888888884 0.1515151515151522,-3.8888888888888884 0.2525252525252529,-3.8888888888888884 0.3535353535353544,-3.8888888888888884 0.4545454545454551,-3.8888888888888884 0.5555555555555567,-3.8888888888888884 0.6565656565656574,-3.8888888888888884 0.7575757575757579,-3.8888888888888884 0.8585858585858596,-3.8888888888888884 0.9595959595959602,-3.8888888888888884 1.0606060606060617,-3.8888888888888884 1.1616161616161622,-3.98989898989899 1.262626262626263,-4.090909090909091 1.262626262626263,-4.191919191919193 1.262626262626263,-4.292929292929293 1.262626262626263,-4.393939393939394 1.262626262626263,-4.494949494949496 1.262626262626263,-4.595959595959596 1.262626262626263,-4.696969696969697 1.262626262626263,-4.7979797979797985 1.262626262626263,-4.898989898989899 1.262626262626263,-5.000000000000001" data-type="line" data-label="" points="488.16161616161617,869.5757575757575 497.69696969696975,879.1111111111111 507.2323232323232,879.1111111111111 516.7676767676768,879.1111111111111 526.3030303030303,879.1111111111111 535.8383838383838,879.1111111111111 545.3737373737374,879.1111111111111 554.9090909090909,879.1111111111111 564.4444444444445,879.1111111111111 573.9797979797979,879.1111111111111 583.5151515151515,879.1111111111111 593.0505050505051,879.1111111111111 602.5858585858585,879.1111111111111 612.1212121212121,879.1111111111111 621.6565656565656,888.6464646464647 631.1919191919192,898.1818181818181 631.1919191919192,907.7171717171718 631.1919191919192,917.2525252525252 631.1919191919192,926.7878787878788 631.1919191919192,936.3232323232323 631.1919191919192,945.8585858585858 631.1919191919192,955.3939393939394 631.1919191919192,964.9292929292928 631.1919191919192,974.4646464646464 631.1919191919192,984" fill="none" stroke="rgba(0,0,255,0.75)" stroke-width="11.327999999999996"/></g><g><polyline data-points="-5.000000000000001,-4.696969696969697 -4.898989898989899,-4.595959595959596 -4.7979797979797985,-4.595959595959596 -4.696969696969697,-4.595959595959596 -4.595959595959596,-4.494949494949496 -4.494949494949496,-4.393939393939394 -4.393939393939394,-4.292929292929293 -4.292929292929293,-4.191919191919193 -4.191919191919193,-4.090909090909091 -4.090909090909091,-3.98989898989899 -3.98989898989899,-3.8888888888888884" data-type="line" data-label="" points="40.00000000000006,955.3939393939394 49.53535353535369,945.8585858585858 59.07070707070716,945.8585858585858 68.60606060606068,945.8585858585858 78.14141414141426,936.3232323232323 87.67676767676772,926.7878787878788 97.21212121212136,917.2525252525252 106.74747474747483,907.7171717171718 116.28282828282829,898.1818181818181 125.81818181818193,888.6464646464647 135.35353535353545,879.1111111111111" fill="none" stroke="rgba(0,0,255,0.75)" stroke-width="11.327999999999996"/></g><g><polyline data-points="-3.98989898989899,-3.8888888888888884 -3.8888888888888884,-3.7878787878787876 -3.7878787878787876,-3.6868686868686864 -3.6868686868686864,-3.5858585858585856 -3.5858585858585856,-3.484848484848485 -3.484848484848485,-3.383838383838383 -3.383838383838383,-3.2828282828282824 -3.2828282828282824,-3.1818181818181817 -3.1818181818181817,-3.0808080808080804 -3.0808080808080804,-2.9797979797979792 -2.9797979797979792,-2.8787878787878785 -2.8787878787878785,-2.7777777777777777 -2.7777777777777777,-2.6767676767676765 -2.6767676767676765,-2.5757575757575752 -2.5757575757575752,-2.474747474747474 -2.474747474747474,-2.3737373737373733 -2.3737373737373733,-2.2727272727272725 -2.2727272727272725,-2.1717171717171713" data-type="line" data-label="" points="135.35353535353545,879.1111111111111 144.88888888888903,869.5757575757575 154.42424242424255,860.0404040404039 163.95959595959607,850.5050505050505 173.4949494949496,840.969696969697 183.03030303030312,831.4343434343434 192.5656565656567,821.8989898989898 202.10101010101022,812.3636363636363 211.63636363636374,802.8282828282828 221.17171717171726,793.2929292929292 230.70707070707084,783.7575757575758 240.2424242424243,774.2222222222222 249.77777777777783,764.6868686868687 259.3131313131314,755.1515151515151 268.84848484848493,745.6161616161615 278.38383838383845,736.0808080808081 287.91919191919203,726.5454545454545 297.4545454545455,717.010101010101" fill="none" stroke="rgba(255,0,0,0.75)" stroke-width="11.327999999999996"/></g><g><polyline data-points="-2.2727272727272725,-2.1717171717171713 -2.1717171717171713,-2.1717171717171713 -2.07070707070707,-2.1717171717171713 -1.9696969696969693,-2.1717171717171713 -1.8686868686868683,-2.1717171717171713 -1.7676767676767675,-2.1717171717171713 -1.6666666666666665,-2.1717171717171713 -1.5656565656565653,-2.1717171717171713 -1.4646464646464643,-2.1717171717171713" data-type="line" data-label="" points="297.4545454545455,717.010101010101 306.9898989898991,717.010101010101 316.5252525252526,717.010101010101 326.0606060606061,717.010101010101 335.59595959595964,717.010101010101 345.13131313131316,717.010101010101 354.6666666666667,717.010101010101 364.2020202020202,717.010101010101 373.7373737373738,717.010101010101" fill="none" stroke="rgba(0,0,255,0.75)" stroke-width="11.327999999999996"/></g><g><polyline data-points="-1.4646464646464643,-2.1717171717171713 -1.363636363636363,-2.07070707070707 -1.2626262626262625,-1.9696969696969693 -1.1616161616161613,-1.8686868686868683 -1.0606060606060603,-1.7676767676767675 -0.9595959595959596,-1.6666666666666665 -0.8585858585858579,-1.5656565656565653 -0.7575757575757572,-1.4646464646464643 -0.6565656565656557,-1.363636363636363 -0.555555555555555,-1.2626262626262625 -0.4545454545454544,-1.1616161616161613 -0.35353535353535287,-1.1616161616161613 -0.2525252525252522,-1.1616161616161613 -0.15151515151515066,-1.1616161616161613 -0.05050505050505001,-1.1616161616161613 0.050505050505051545,-1.1616161616161613 0.1515151515151522,-1.1616161616161613 0.2525252525252529,-1.1616161616161613 0.3535353535353544,-1.1616161616161613 0.4545454545454551,-1.1616161616161613 0.5555555555555567,-1.1616161616161613 0.6565656565656574,-1.1616161616161613 0.7575757575757579,-1.1616161616161613 0.8585858585858596,-1.1616161616161613 0.9595959595959602,-1.1616161616161613 1.0606060606060617,-1.1616161616161613 1.1616161616161622,-1.1616161616161613 1.262626262626263,-1.1616161616161613 1.3636363636363644,-1.1616161616161613 1.4646464646464652,-1.1616161616161613 1.5656565656565666,-1.1616161616161613 1.6666666666666674,-1.1616161616161613 1.767676767676768,-1.1616161616161613 1.8686868686868696,-1.1616161616161613 1.9696969696969702,-1.1616161616161613 2.070707070707072,-1.0606060606060603 2.1717171717171726,-1.1616161616161613 2.2727272727272734,-1.2626262626262625 2.373737373737375,-1.363636363636363 2.4747474747474754,-1.4646464646464643 2.575757575757577,-1.5656565656565653 2.676767676767678,-1.6666666666666665 2.7777777777777786,-1.7676767676767675 2.87878787878788,-1.8686868686868683 2.9797979797979806,-1.9696969696969693 3.080808080808082,-2.07070707070707 3.181818181818183,-2.1717171717171713 3.2828282828282833,-2.2727272727272725 3.383838383838384,-2.3737373737373733 3.4848484848484866,-2.474747474747474 3.5858585858585874,-2.5757575757575752 3.6868686868686877,-2.6767676767676765 3.7878787878787885,-2.7777777777777777 3.8888888888888893,-2.8787878787878785 3.989898989898992,-2.9797979797979792" data-type="line" data-label="" points="373.7373737373738,717.010101010101 383.2727272727273,707.4747474747475 392.80808080808083,697.939393939394 402.34343434343435,688.4040404040404 411.8787878787879,678.8686868686868 421.4141414141414,669.3333333333334 430.949494949495,659.7979797979798 440.4848484848485,650.2626262626263 450.0202020202021,640.7272727272727 459.55555555555554,631.1919191919193 469.09090909090907,621.6565656565657 478.62626262626264,621.6565656565657 488.16161616161617,621.6565656565657 497.69696969696975,621.6565656565657 507.2323232323232,621.6565656565657 516.7676767676768,621.6565656565657 526.3030303030303,621.6565656565657 535.8383838383838,621.6565656565657 545.3737373737374,621.6565656565657 554.9090909090909,621.6565656565657 564.4444444444445,621.6565656565657 573.9797979797979,621.6565656565657 583.5151515151515,621.6565656565657 593.0505050505051,621.6565656565657 602.5858585858585,621.6565656565657 612.1212121212121,621.6565656565657 621.6565656565656,621.6565656565657 631.1919191919192,621.6565656565657 640.7272727272727,621.6565656565657 650.2626262626262,621.6565656565657 659.7979797979798,621.6565656565657 669.3333333333333,621.6565656565657 678.8686868686868,621.6565656565657 688.4040404040404,621.6565656565657 697.9393939393939,621.6565656565657 707.4747474747475,612.1212121212121 717.0101010101009,621.6565656565657 726.5454545454545,631.1919191919193 736.0808080808081,640.7272727272727 745.6161616161615,650.2626262626263 755.1515151515151,659.7979797979798 764.6868686868686,669.3333333333334 774.2222222222222,678.8686868686868 783.7575757575758,688.4040404040404 793.2929292929292,697.939393939394 802.8282828282828,707.4747474747475 812.3636363636363,717.010101010101 821.8989898989898,726.5454545454545 831.4343434343433,736.0808080808081 840.969696969697,745.6161616161615 850.5050505050505,755.1515151515151 860.0404040404039,764.6868686868687 869.5757575757575,774.2222222222222 879.111111111111,783.7575757575758 888.6464646464647,793.2929292929292" fill="none" stroke="rgba(255,0,0,0.75)" stroke-width="11.327999999999996"/></g><g><polyline data-points="3.989898989898992,-2.9797979797979792 4.090909090909092,-3.0808080808080804 4.191919191919193,-3.1818181818181817 4.292929292929293,-3.2828282828282824 4.393939393939394,-3.383838383838383 4.494949494949497,-3.484848484848485 4.595959595959597,-3.5858585858585856 4.696969696969697,-3.6868686868686864 4.7979797979797985,-3.7878787878787876 4.898989898989901,-3.8888888888888884 5.000000000000002,-3.98989898989899 5.000000000000002,-4.090909090909091 5.000000000000002,-4.191919191919193 5.000000000000002,-4.292929292929293 5.000000000000002,-4.393939393939394 5.000000000000002,-4.494949494949496 5.000000000000002,-4.595959595959596 5.000000000000002,-4.696969696969697 5.000000000000002,-4.7979797979797985 5.000000000000002,-4.898989898989899 5.000000000000002,-5.000000000000001" data-type="line" data-label="" points="888.6464646464647,793.2929292929292 898.181818181818,802.8282828282828 907.7171717171716,812.3636363636363 917.2525252525251,821.8989898989898 926.7878787878785,831.4343434343434 936.3232323232323,840.969696969697 945.8585858585857,850.5050505050505 955.3939393939393,860.0404040404039 964.9292929292927,869.5757575757575 974.4646464646464,879.1111111111111 984,888.6464646464647 984,898.1818181818181 984,907.7171717171718 984,917.2525252525252 984,926.7878787878788 984,936.3232323232323 984,945.8585858585858 984,955.3939393939394 984,964.9292929292928 984,974.4646464646464 984,984" fill="none" stroke="rgba(0,0,255,0.75)" stroke-width="11.327999999999996"/></g><g><polyline data-points="-1.4646464646464643,5.000000000000002 -1.4646464646464643,4.898989898989901 -1.5656565656565653,4.7979797979797985 -1.6666666666666665,4.696969696969697 -1.7676767676767675,4.595959595959597 -1.8686868686868683,4.494949494949497 -1.9696969696969693,4.393939393939394 -2.07070707070707,4.292929292929293 -2.1717171717171713,4.191919191919193 -2.2727272727272725,4.090909090909092 -2.3737373737373733,3.989898989898992 -2.474747474747474,3.8888888888888893 -2.5757575757575752,3.7878787878787885 -2.6767676767676765,3.6868686868686877 -2.7777777777777777,3.5858585858585874 -2.8787878787878785,3.4848484848484866 -2.9797979797979792,3.383838383838384 -3.0808080808080804,3.2828282828282833 -3.1818181818181817,3.181818181818183 -3.2828282828282824,3.080808080808082 -3.383838383838383,2.9797979797979806 -3.484848484848485,2.87878787878788 -3.5858585858585856,2.7777777777777786 -3.6868686868686864,2.676767676767678 -3.6868686868686864,2.575757575757577 -3.6868686868686864,2.4747474747474754 -3.6868686868686864,2.373737373737375 -3.6868686868686864,2.2727272727272734 -3.6868686868686864,2.1717171717171726 -3.6868686868686864,2.070707070707072 -3.6868686868686864,1.9696969696969702 -3.6868686868686864,1.8686868686868696 -3.6868686868686864,1.767676767676768 -3.6868686868686864,1.6666666666666674 -3.6868686868686864,1.5656565656565666 -3.6868686868686864,1.4646464646464652 -3.6868686868686864,1.3636363636363644 -3.6868686868686864,1.262626262626263 -3.6868686868686864,1.1616161616161622 -3.6868686868686864,1.0606060606060617 -3.6868686868686864,0.9595959595959602 -3.6868686868686864,0.8585858585858596 -3.6868686868686864,0.7575757575757579 -3.6868686868686864,0.6565656565656574 -3.6868686868686864,0.5555555555555567 -3.6868686868686864,0.4545454545454551 -3.6868686868686864,0.3535353535353544 -3.6868686868686864,0.2525252525252529 -3.6868686868686864,0.1515151515151522 -3.6868686868686864,0.050505050505051545 -3.6868686868686864,-0.05050505050505001 -3.6868686868686864,-0.15151515151515066 -3.6868686868686864,-0.2525252525252522 -3.6868686868686864,-0.35353535353535287 -3.6868686868686864,-0.4545454545454544 -3.6868686868686864,-0.555555555555555 -3.6868686868686864,-0.6565656565656557 -3.6868686868686864,-0.7575757575757572 -3.6868686868686864,-0.8585858585858579 -3.6868686868686864,-0.9595959595959596 -3.6868686868686864,-1.0606060606060603 -3.6868686868686864,-1.1616161616161613 -3.6868686868686864,-1.2626262626262625 -3.6868686868686864,-1.363636363636363 -3.6868686868686864,-1.4646464646464643 -3.6868686868686864,-1.5656565656565653 -3.6868686868686864,-1.6666666666666665 -3.6868686868686864,-1.7676767676767675 -3.6868686868686864,-1.8686868686868683 -3.6868686868686864,-1.9696969696969693 -3.6868686868686864,-2.07070707070707 -3.6868686868686864,-2.1717171717171713 -3.6868686868686864,-2.2727272727272725 -3.6868686868686864,-2.3737373737373733 -3.6868686868686864,-2.474747474747474 -3.6868686868686864,-2.5757575757575752 -3.6868686868686864,-2.6767676767676765 -3.6868686868686864,-2.7777777777777777 -3.6868686868686864,-2.8787878787878785 -3.6868686868686864,-2.9797979797979792 -3.6868686868686864,-3.0808080808080804" data-type="line" data-label="" points="373.7373737373738,40.000000000000114 373.7373737373738,49.53535353535369 364.2020202020202,59.07070707070733 354.6666666666667,68.60606060606085 345.13131313131316,78.14141414141432 335.59595959595964,87.67676767676778 326.0606060606061,97.21212121212153 316.5252525252526,106.747474747475 306.9898989898991,116.28282828282846 297.4545454545455,125.81818181818198 287.91919191919203,135.35353535353545 278.38383838383845,144.88888888888908 268.84848484848493,154.4242424242426 259.3131313131314,163.95959595959613 249.77777777777783,173.4949494949496 240.2424242424243,183.03030303030312 230.70707070707084,192.56565656565675 221.17171717171726,202.10101010101027 211.63636363636374,211.63636363636374 202.10101010101022,221.17171717171726 192.5656565656567,230.70707070707084 183.03030303030312,240.24242424242436 173.4949494949496,249.77777777777794 163.95959595959607,259.3131313131314 163.95959595959607,268.84848484848493 163.95959595959607,278.38383838383857 163.95959595959607,287.91919191919203 163.95959595959607,297.4545454545456 163.95959595959607,306.9898989898991 163.95959595959607,316.5252525252526 163.95959595959607,326.06060606060623 163.95959595959607,335.5959595959597 163.95959595959607,345.1313131313133 163.95959595959607,354.66666666666674 163.95959595959607,364.2020202020203 163.95959595959607,373.73737373737384 163.95959595959607,383.27272727272737 163.95959595959607,392.80808080808094 163.95959595959607,402.3434343434344 163.95959595959607,411.87878787878793 163.95959595959607,421.4141414141415 163.95959595959607,430.94949494949503 163.95959595959607,440.4848484848486 163.95959595959607,450.0202020202021 163.95959595959607,459.5555555555556 163.95959595959607,469.0909090909092 163.95959595959607,478.6262626262627 163.95959595959607,488.1616161616163 163.95959595959607,497.69696969696975 163.95959595959607,507.23232323232327 163.95959595959607,516.7676767676768 163.95959595959607,526.3030303030304 163.95959595959607,535.838383838384 163.95959595959607,545.3737373737374 163.95959595959607,554.909090909091 163.95959595959607,564.4444444444445 163.95959595959607,573.979797979798 163.95959595959607,583.5151515151516 163.95959595959607,593.0505050505051 163.95959595959607,602.5858585858587 163.95959595959607,612.1212121212121 163.95959595959607,621.6565656565657 163.95959595959607,631.1919191919193 163.95959595959607,640.7272727272727 163.95959595959607,650.2626262626263 163.95959595959607,659.7979797979798 163.95959595959607,669.3333333333334 163.95959595959607,678.8686868686868 163.95959595959607,688.4040404040404 163.95959595959607,697.939393939394 163.95959595959607,707.4747474747475 163.95959595959607,717.010101010101 163.95959595959607,726.5454545454545 163.95959595959607,736.0808080808081 163.95959595959607,745.6161616161615 163.95959595959607,755.1515151515151 163.95959595959607,764.6868686868687 163.95959595959607,774.2222222222222 163.95959595959607,783.7575757575758 163.95959595959607,793.2929292929292 163.95959595959607,802.8282828282828" fill="none" stroke="rgba(255,0,0,0.75)" stroke-width="11.327999999999996"/></g><g><polyline data-points="-3.6868686868686864,-3.0808080808080804 -3.6868686868686864,-3.1818181818181817 -3.6868686868686864,-3.2828282828282824 -3.6868686868686864,-3.383838383838383 -3.6868686868686864,-3.484848484848485 -3.6868686868686864,-3.5858585858585856 -3.6868686868686864,-3.6868686868686864 -3.6868686868686864,-3.7878787878787876 -3.6868686868686864,-3.8888888888888884 -3.7878787878787876,-3.98989898989899 -3.8888888888888884,-4.090909090909091 -3.98989898989899,-4.191919191919193 -4.090909090909091,-4.292929292929293 -4.191919191919193,-4.393939393939394 -4.292929292929293,-4.494949494949496 -4.393939393939394,-4.595959595959596 -4.494949494949496,-4.696969696969697 -4.595959595959596,-4.7979797979797985 -4.696969696969697,-4.898989898989899 -4.7979797979797985,-5.000000000000001 -4.898989898989899,-5.000000000000001 -5.000000000000001,-5.000000000000001" data-type="line" data-label="" points="163.95959595959607,802.8282828282828 163.95959595959607,812.3636363636363 163.95959595959607,821.8989898989898 163.95959595959607,831.4343434343434 163.95959595959607,840.969696969697 163.95959595959607,850.5050505050505 163.95959595959607,860.0404040404039 163.95959595959607,869.5757575757575 163.95959595959607,879.1111111111111 154.42424242424255,888.6464646464647 144.88888888888903,898.1818181818181 135.35353535353545,907.7171717171718 125.81818181818193,917.2525252525252 116.28282828282829,926.7878787878788 106.74747474747483,936.3232323232323 97.21212121212136,945.8585858585858 87.67676767676772,955.3939393939394 78.14141414141426,964.9292929292928 68.60606060606068,974.4646464646464 59.07070707070716,984 49.53535353535369,984 40.00000000000006,984" fill="none" stroke="rgba(0,0,255,0.75)" stroke-width="11.327999999999996"/></g><g><rect data-type="rect" data-label="" data-x="0" data-y="0" x="40.000000000000114" y="40.000000000000284" width="943.9999999999997" height="943.9999999999998" fill="none" stroke="gray" stroke-width="0.010593220338983056"/></g><g><rect data-type="rect" data-label="" data-x="0" data-y="0" x="40.000000000000114" y="40.000000000000284" width="943.9999999999997" height="943.9999999999998" fill="none" stroke="rgba(15, 23, 42, 0.8)" stroke-width="0.010593220338983056"/></g><circle data-type="circle" data-label="" data-x="-3.98989898989899" data-y="-2.5757575757575752" cx="135.35353535353545" cy="755.1515151515151" r="14.159999999999995" fill="rgba(0,0,0,0.3)" stroke="black" stroke-width="0.010593220338983056"/><circle data-type="circle" data-label="" data-x="1.6666666666666674" data-y="-2.1717171717171713" cx="669.3333333333333" cy="717.010101010101" r="14.159999999999995" fill="rgba(0,0,0,0.3)" stroke="black" stroke-width="0.010593220338983056"/><circle data-type="circle" data-label="" data-x="1.6666666666666674" data-y="-3.98989898989899" cx="669.3333333333333" cy="888.6464646464647" r="14.159999999999995" fill="rgba(0,0,0,0.3)" stroke="black" stroke-width="0.010593220338983056"/><circle data-type="circle" data-label="" data-x="2.070707070707072" data-y="-1.363636363636363" cx="707.4747474747475" cy="640.7272727272727" r="14.159999999999995" fill="rgba(0,0,0,0.3)" stroke="black" stroke-width="0.010593220338983056"/><circle data-type="circle" data-label="" data-x="-1.8686868686868683" data-y="-2.9797979797979792" cx="335.59595959595964" cy="793.2929292929292" r="14.159999999999995" fill="rgba(0,0,0,0.3)" stroke="black" stroke-width="0.010593220338983056"/><circle data-type="circle" data-label="" data-x="-1.8686868686868683" data-y="3.989898989898992" cx="335.59595959595964" cy="135.35353535353545" r="14.159999999999995" fill="rgba(0,0,0,0.3)" stroke="black" stroke-width="0.010593220338983056"/><circle data-type="circle" data-label="" data-x="-0.05050505050505001" data-y="-2.1717171717171713" cx="507.2323232323232" cy="717.010101010101" r="14.159999999999995" fill="rgba(0,0,0,0.3)" stroke="black" stroke-width="0.010593220338983056"/><circle data-type="circle" data-label="" data-x="-0.05050505050505001" data-y="-2.9797979797979792" cx="507.2323232323232" cy="793.2929292929292" r="14.159999999999995" fill="rgba(0,0,0,0.3)" stroke="black" stroke-width="0.010593220338983056"/><circle data-type="circle" data-label="" data-x="0.6565656565656574" data-y="-3.5858585858585856" cx="573.9797979797979" cy="850.5050505050505" r="14.159999999999995" fill="rgba(0,0,0,0.3)" stroke="black" stroke-width="0.010593220338983056"/><circle data-type="circle" data-label="" data-x="-3.2828282828282824" data-y="3.7878787878787885" cx="202.10101010101022" cy="154.4242424242426" r="14.159999999999995" fill="rgba(0,0,0,0.3)" stroke="black" stroke-width="0.010593220338983056"/><circle data-type="circle" data-label="" data-x="-0.4545454545454544" data-y="-1.4646464646464643" cx="469.09090909090907" cy="650.2626262626263" r="14.159999999999995" fill="rgba(0,0,0,0.3)" stroke="black" stroke-width="0.010593220338983056"/><circle data-type="circle" data-label="" data-x="-0.2525252525252522" data-y="-3.7878787878787876" cx="488.16161616161617" cy="869.5757575757575" r="14.159999999999995" fill="rgba(0,0,0,0.3)" stroke="black" stroke-width="0.010593220338983056"/><circle data-type="circle" data-label="" data-x="-3.98989898989899" data-y="-3.8888888888888884" cx="135.35353535353545" cy="879.1111111111111" r="14.159999999999995" fill="rgba(0,0,0,0.3)" stroke="black" stroke-width="0.010593220338983056"/><circle data-type="circle" data-label="" data-x="-2.2727272727272725" data-y="-2.1717171717171713" cx="297.4545454545455" cy="717.010101010101" r="14.159999999999995" fill="rgba(0,0,0,0.3)" stroke="black" stroke-width="0.010593220338983056"/><circle data-type="circle" data-label="" data-x="-1.4646464646464643" data-y="-2.1717171717171713" cx="373.7373737373738" cy="717.010101010101" r="14.159999999999995" fill="rgba(0,0,0,0.3)" stroke="black" stroke-width="0.010593220338983056"/><circle data-type="circle" data-label="" data-x="3.989898989898992" data-y="-2.9797979797979792" cx="888.6464646464647" cy="793.2929292929292" r="14.159999999999995" fill="rgba(0,0,0,0.3)" stroke="black" stroke-width="0.010593220338983056"/><circle data-type="circle" data-label="" data-x="-3.6868686868686864" data-y="-3.0808080808080804" cx="163.95959595959607" cy="802.8282828282828" r="14.159999999999995" fill="rgba(0,0,0,0.3)" stroke="black" stroke-width="0.010593220338983056"/><g id="crosshair" style="display: none"><line id="crosshair-h" y1="0" y2="1024" stroke="#666" stroke-width="0.5"/><line id="crosshair-v" x1="0" x2="1024" stroke="#666" stroke-width="0.5"/><text id="coordinates" font-family="monospace" font-size="12" fill="#666"></text></g><script><![CDATA[
              document.currentScript.parentElement.addEventListener('mousemove', (e) => {
                const svg = e.currentTarget;
                const rect = svg.getBoundingClientRect();
                const x = e.clientX - rect.left;
                const y = e.clientY - rect.top;
                const crosshair = svg.getElementById('crosshair');
                const h = svg.getElementById('crosshair-h');
                const v = svg.getElementById('crosshair-v');
                const coords = svg.getElementById('coordinates');
                
                crosshair.style.display = 'block';
                h.setAttribute('x1', '0');
                h.setAttribute('x2', '1024');
                h.setAttribute('y1', y);
                h.setAttribute('y2', y);
                v.setAttribute('x1', x);
                v.setAttribute('x2', x);
                v.setAttribute('y1', '0');
                v.setAttribute('y2', '1024');

                // Calculate real coordinates using inverse transformation
                const matrix = {"a":94.39999999999996,"c":0,"e":511.99999999999994,"b":0,"d":-94.39999999999996,"f":512.0000000000001};
                // Manually invert and apply the affine transform
                // Since we only use translate and scale, we can directly compute:
                // x' = (x - tx) / sx
                // y' = (y - ty) / sy
                const sx = matrix.a;
                const sy = matrix.d;
                const tx = matrix.e; 
                const ty = matrix.f;
                const realPoint = {
                  x: (x - tx) / sx,
                  y: (y - ty) / sy // Flip y back since we used negative scale
                }
                
                coords.textContent = `(${realPoint.x.toFixed(2)}, ${realPoint.y.toFixed(2)})`;
                coords.setAttribute('x', (x + 5).toString());
                coords.setAttribute('y', (y - 5).toString());
              });
              document.currentScript.parentElement.addEventListener('mouseleave', () => {
                document.currentScript.parentElement.getElementById('crosshair').style.display = 'none';
              });
            ]]></script></svg>