<svg width="1024" height="1024" viewBox="0 0 1024 1024" xmlns="http://www.w3.org/2000/svg"><rect width="100%" height="100%" fill="white"/><g><circle data-type="point" data-label="conn_000" data-x="-1.04" data-y="-5" cx="413.82399999999996" cy="984" r="14.16" fill="blue"/></g><g><circle data-type="point" data-label="conn_000" data-x="-2.2600000000000002" data-y="5" cx="298.656" cy="40.000000000000284" r="14.16" fill="red"/></g><g><circle data-type="point" data-label="conn_001" data-x="5" data-y="1.74" cx="983.9999999999998" cy="347.74400000000014" r="14.16" fill="blue"/></g><g><circle data-type="point" data-label="conn_001" data-x="-5" data-y="1.58" cx="40.000000000000114" cy="362.8480000000002" r="14.16" fill="red"/></g><g><circle data-type="point" data-label="conn_002" data-x="5" data-y="-0.1" cx="983.9999999999998" cy="521.44" r="14.16" fill="red"/></g><g><circle data-type="point" data-label="conn_002" data-x="-5" data-y="4.74" cx="40.000000000000114" cy="64.54400000000027" r="14.16" fill="blue"/></g><g><circle data-type="point" data-label="conn_003" data-x="-5" data-y="0.2" cx="40.000000000000114" cy="493.1200000000001" r="14.16" fill="blue"/></g><g><circle data-type="point" data-label="conn_003" data-x="5" data-y="3.54" cx="983.9999999999998" cy="177.82400000000024" r="14.16" fill="blue"/></g><g><circle data-type="point" data-label="conn_004" data-x="-4.34" data-y="-5" cx="102.30400000000014" cy="984" r="14.16" fill="red"/></g><g><circle data-type="point" data-label="conn_004" data-x="-1.92" data-y="5" cx="330.752" cy="40.000000000000284" r="14.16" fill="blue"/></g><g><circle data-type="point" data-label="conn_005" data-x="3.24" data-y="-5" cx="817.8559999999998" cy="984" r="14.16" fill="blue"/></g><g><circle data-type="point" data-label="conn_005" data-x="1.26" data-y="5" cx="630.944" cy="40.000000000000284" r="14.16" fill="blue"/></g><g><polyline data-points="3.2828282828282833,-5.000000000000001 3.181818181818183,-4.898989898989899 3.080808080808082,-4.7979797979797985 2.9797979797979806,-4.696969696969697 2.87878787878788,-4.595959595959596 2.7777777777777786,-4.494949494949496 2.676767676767678,-4.393939393939394 2.575757575757577,-4.292929292929293 2.4747474747474754,-4.191919191919193 2.373737373737375,-4.090909090909091 2.2727272727272734,-3.98989898989899 2.1717171717171726,-3.8888888888888884 2.070707070707072,-3.7878787878787876 1.9696969696969702,-3.6868686868686864 1.8686868686868696,-3.5858585858585856 1.767676767676768,-3.484848484848485 1.6666666666666674,-3.383838383838383 1.5656565656565666,-3.2828282828282824 1.4646464646464652,-3.1818181818181817 1.3636363636363644,-3.0808080808080804 1.262626262626263,-2.9797979797979792 1.262626262626263,-2.8787878787878785 1.262626262626263,-2.7777777777777777 1.262626262626263,-2.6767676767676765 1.262626262626263,-2.5757575757575752 1.262626262626263,-2.474747474747474 1.262626262626263,-2.3737373737373733 1.262626262626263,-2.2727272727272725 1.262626262626263,-2.1717171717171713 1.262626262626263,-2.07070707070707 1.262626262626263,-1.9696969696969693 1.262626262626263,-1.8686868686868683 1.262626262626263,-1.7676767676767675 1.262626262626263,-1.6666666666666665 1.262626262626263,-1.5656565656565653 1.262626262626263,-1.4646464646464643 1.262626262626263,-1.363636363636363 1.262626262626263,-1.2626262626262625 1.262626262626263,-1.1616161616161613 1.262626262626263,-1.0606060606060603 1.262626262626263,-0.9595959595959596 1.262626262626263,-0.8585858585858579 1.262626262626263,-0.7575757575757572 1.262626262626263,-0.6565656565656557 1.262626262626263,-0.555555555555555 1.262626262626263,-0.4545454545454544 1.262626262626263,-0.35353535353535287 1.262626262626263,-0.2525252525252522 1.262626262626263,-0.15151515151515066 1.262626262626263,-0.05050505050505001 1.262626262626263,0.050505050505051545 1.262626262626263,0.1515151515151522 1.262626262626263,0.2525252525252529 1.262626262626263,0.3535353535353544 1.262626262626263,0.4545454545454551 1.262626262626263,0.5555555555555567 1.262626262626263,0.6565656565656574 1.262626262626263,0.7575757575757579 1.262626262626263,0.8585858585858596 1.262626262626263,0.9595959595959602 1.262626262626263,1.0606060606060617 1.262626262626263,1.1616161616161622 1.262626262626263,1.262626262626263 1.262626262626263,1.3636363636363644 1.262626262626263,1.4646464646464652 1.262626262626263,1.5656565656565666 1.262626262626263,1.6666666666666674 1.262626262626263,1.767676767676768 1.262626262626263,1.8686868686868696 1.262626262626263,1.9696969696969702 1.262626262626263,2.070707070707072 1.262626262626263,2.1717171717171726 1.262626262626263,2.2727272727272734 1.262626262626263,2.373737373737375 1.262626262626263,2.4747474747474754 1.262626262626263,2.575757575757577 1.262626262626263,2.676767676767678 1.262626262626263,2.7777777777777786 1.262626262626263,2.87878787878788 1.262626262626263,2.9797979797979806 1.262626262626263,3.080808080808082 1.262626262626263,3.181818181818183 1.262626262626263,3.2828282828282833 1.262626262626263,3.383838383838384 1.262626262626263,3.4848484848484866 1.262626262626263,3.5858585858585874 1.262626262626263,3.6868686868686877 1.262626262626263,3.7878787878787885 1.262626262626263,3.8888888888888893 1.262626262626263,3.989898989898992 1.262626262626263,4.090909090909092 1.262626262626263,4.191919191919193 1.262626262626263,4.292929292929293 1.262626262626263,4.393939393939394 1.262626262626263,4.494949494949497 1.262626262626263,4.595959595959597 1.262626262626263,4.696969696969697 1.262626262626263,4.7979797979797985 1.262626262626263,4.898989898989901 1.262626262626263,5.000000000000002" data-type="line" data-label="" points="821.8989898989898,984 812.3636363636363,974.4646464646464 802.8282828282828,964.9292929292928 793.2929292929292,955.3939393939394 783.7575757575758,945.8585858585858 774.2222222222222,936.3232323232323 764.6868686868686,926.7878787878788 755.1515151515151,917.2525252525252 745.6161616161615,907.7171717171718 736.0808080808081,898.1818181818181 726.5454545454545,888.6464646464647 717.0101010101009,879.1111111111111 707.4747474747475,869.5757575757575 697.9393939393939,860.0404040404039 688.4040404040404,850.5050505050505 678.8686868686868,840.969696969697 669.3333333333333,831.4343434343434 659.7979797979798,821.8989898989898 650.2626262626262,812.3636363636363 640.7272727272727,802.8282828282828 631.1919191919192,793.2929292929292 631.1919191919192,783.7575757575758 631.1919191919192,774.2222222222222 631.1919191919192,764.6868686868687 631.1919191919192,755.1515151515151 631.1919191919192,745.6161616161615 631.1919191919192,736.0808080808081 631.1919191919192,726.5454545454545 631.1919191919192,717.010101010101 631.1919191919192,707.4747474747475 631.1919191919192,697.939393939394 631.1919191919192,688.4040404040404 631.1919191919192,678.8686868686868 631.1919191919192,669.3333333333334 631.1919191919192,659.7979797979798 631.1919191919192,650.2626262626263 631.1919191919192,640.7272727272727 631.1919191919192,631.1919191919193 631.1919191919192,621.6565656565657 631.1919191919192,612.1212121212121 631.1919191919192,602.5858585858587 631.1919191919192,593.0505050505051 631.1919191919192,583.5151515151516 631.1919191919192,573.979797979798 631.1919191919192,564.4444444444445 631.1919191919192,554.909090909091 631.1919191919192,545.3737373737374 631.1919191919192,535.838383838384 631.1919191919192,526.3030303030304 631.1919191919192,516.7676767676768 631.1919191919192,507.23232323232327 631.1919191919192,497.69696969696975 631.1919191919192,488.1616161616163 631.1919191919192,478.6262626262627 631.1919191919192,469.0909090909092 631.1919191919192,459.5555555555556 631.1919191919192,450.0202020202021 631.1919191919192,440.4848484848486 631.1919191919192,430.94949494949503 631.1919191919192,421.4141414141415 631.1919191919192,411.87878787878793 631.1919191919192,402.3434343434344 631.1919191919192,392.80808080808094 631.1919191919192,383.27272727272737 631.1919191919192,373.73737373737384 631.1919191919192,364.2020202020203 631.1919191919192,354.66666666666674 631.1919191919192,345.1313131313133 631.1919191919192,335.5959595959597 631.1919191919192,326.06060606060623 631.1919191919192,316.5252525252526 631.1919191919192,306.9898989898991 631.1919191919192,297.4545454545456 631.1919191919192,287.91919191919203 631.1919191919192,278.38383838383857 631.1919191919192,268.84848484848493 631.1919191919192,259.3131313131314 631.1919191919192,249.77777777777794 631.1919191919192,240.24242424242436 631.1919191919192,230.70707070707084 631.1919191919192,221.17171717171726 631.1919191919192,211.63636363636374 631.1919191919192,202.10101010101027 631.1919191919192,192.56565656565675 631.1919191919192,183.03030303030312 631.1919191919192,173.4949494949496 631.1919191919192,163.95959595959613 631.1919191919192,154.4242424242426 631.1919191919192,144.88888888888908 631.1919191919192,135.35353535353545 631.1919191919192,125.81818181818198 631.1919191919192,116.28282828282846 631.1919191919192,106.747474747475 631.1919191919192,97.21212121212153 631.1919191919192,87.67676767676778 631.1919191919192,78.14141414141432 631.1919191919192,68.60606060606085 631.1919191919192,59.07070707070733 631.1919191919192,49.53535353535369 631.1919191919192,40.000000000000114" fill="none" stroke="rgba(0,0,255,0.75)" stroke-width="11.327999999999996"/></g><g><polyline data-points="-4.393939393939394,-5.000000000000001 -4.292929292929293,-4.898989898989899 -4.191919191919193,-4.7979797979797985 -4.090909090909091,-4.696969696969697 -3.98989898989899,-4.595959595959596 -3.8888888888888884,-4.494949494949496 -3.7878787878787876,-4.393939393939394 -3.6868686868686864,-4.292929292929293 -3.5858585858585856,-4.191919191919193 -3.484848484848485,-4.090909090909091 -3.383838383838383,-3.98989898989899 -3.2828282828282824,-3.8888888888888884 -3.1818181818181817,-3.7878787878787876 -3.0808080808080804,-3.6868686868686864 -2.9797979797979792,-3.5858585858585856 -2.8787878787878785,-3.484848484848485 -2.7777777777777777,-3.383838383838383 -2.6767676767676765,-3.2828282828282824 -2.5757575757575752,-3.1818181818181817 -2.474747474747474,-3.0808080808080804 -2.3737373737373733,-2.9797979797979792 -2.2727272727272725,-2.8787878787878785 -2.1717171717171713,-2.7777777777777777 -2.07070707070707,-2.6767676767676765 -1.9696969696969693,-2.5757575757575752 -1.9696969696969693,-2.474747474747474 -1.9696969696969693,-2.3737373737373733 -1.9696969696969693,-2.2727272727272725 -1.9696969696969693,-2.1717171717171713 -1.9696969696969693,-2.07070707070707 -1.9696969696969693,-1.9696969696969693 -1.9696969696969693,-1.8686868686868683 -1.9696969696969693,-1.7676767676767675 -1.9696969696969693,-1.6666666666666665 -1.9696969696969693,-1.5656565656565653 -1.9696969696969693,-1.4646464646464643 -1.9696969696969693,-1.363636363636363 -1.9696969696969693,-1.2626262626262625 -1.9696969696969693,-1.1616161616161613 -1.9696969696969693,-1.0606060606060603 -1.9696969696969693,-0.9595959595959596 -1.9696969696969693,-0.8585858585858579 -1.9696969696969693,-0.7575757575757572 -1.9696969696969693,-0.6565656565656557 -1.9696969696969693,-0.555555555555555 -1.9696969696969693,-0.4545454545454544 -1.9696969696969693,-0.35353535353535287 -1.9696969696969693,-0.2525252525252522 -1.9696969696969693,-0.15151515151515066 -1.9696969696969693,-0.05050505050505001 -1.9696969696969693,0.050505050505051545 -1.9696969696969693,0.1515151515151522 -1.9696969696969693,0.2525252525252529 -1.9696969696969693,0.3535353535353544 -1.9696969696969693,0.4545454545454551 -1.9696969696969693,0.5555555555555567 -1.9696969696969693,0.6565656565656574 -1.9696969696969693,0.7575757575757579 -1.9696969696969693,0.8585858585858596 -1.9696969696969693,0.9595959595959602 -1.9696969696969693,1.0606060606060617 -1.9696969696969693,1.1616161616161622 -1.9696969696969693,1.262626262626263 -1.9696969696969693,1.3636363636363644 -1.9696969696969693,1.4646464646464652 -1.9696969696969693,1.5656565656565666 -1.9696969696969693,1.6666666666666674 -1.9696969696969693,1.767676767676768 -1.9696969696969693,1.8686868686868696 -1.9696969696969693,1.9696969696969702 -1.9696969696969693,2.070707070707072 -1.9696969696969693,2.1717171717171726 -1.9696969696969693,2.2727272727272734 -1.9696969696969693,2.373737373737375 -1.9696969696969693,2.4747474747474754 -1.9696969696969693,2.575757575757577 -1.9696969696969693,2.676767676767678 -1.9696969696969693,2.7777777777777786 -1.9696969696969693,2.87878787878788 -1.9696969696969693,2.9797979797979806 -1.9696969696969693,3.080808080808082 -1.9696969696969693,3.181818181818183 -1.9696969696969693,3.2828282828282833 -1.9696969696969693,3.383838383838384 -1.9696969696969693,3.4848484848484866 -1.9696969696969693,3.5858585858585874 -1.9696969696969693,3.6868686868686877 -1.9696969696969693,3.7878787878787885 -1.9696969696969693,3.8888888888888893 -1.9696969696969693,3.989898989898992" data-type="line" data-label="" points="97.21212121212136,984 106.74747474747483,974.4646464646464 116.28282828282829,964.9292929292928 125.81818181818193,955.3939393939394 135.35353535353545,945.8585858585858 144.88888888888903,936.3232323232323 154.42424242424255,926.7878787878788 163.95959595959607,917.2525252525252 173.4949494949496,907.7171717171718 183.03030303030312,898.1818181818181 192.5656565656567,888.6464646464647 202.10101010101022,879.1111111111111 211.63636363636374,869.5757575757575 221.17171717171726,860.0404040404039 230.70707070707084,850.5050505050505 240.2424242424243,840.969696969697 249.77777777777783,831.4343434343434 259.3131313131314,821.8989898989898 268.84848484848493,812.3636363636363 278.38383838383845,802.8282828282828 287.91919191919203,793.2929292929292 297.4545454545455,783.7575757575758 306.9898989898991,774.2222222222222 316.5252525252526,764.6868686868687 326.0606060606061,755.1515151515151 326.0606060606061,745.6161616161615 326.0606060606061,736.0808080808081 326.0606060606061,726.5454545454545 326.0606060606061,717.010101010101 326.0606060606061,707.4747474747475 326.0606060606061,697.939393939394 326.0606060606061,688.4040404040404 326.0606060606061,678.8686868686868 326.0606060606061,669.3333333333334 326.0606060606061,659.7979797979798 326.0606060606061,650.2626262626263 326.0606060606061,640.7272727272727 326.0606060606061,631.1919191919193 326.0606060606061,621.6565656565657 326.0606060606061,612.1212121212121 326.0606060606061,602.5858585858587 326.0606060606061,593.0505050505051 326.0606060606061,583.5151515151516 326.0606060606061,573.979797979798 326.0606060606061,564.4444444444445 326.0606060606061,554.909090909091 326.0606060606061,545.3737373737374 326.0606060606061,535.838383838384 326.0606060606061,526.3030303030304 326.0606060606061,516.7676767676768 326.0606060606061,507.23232323232327 326.0606060606061,497.69696969696975 326.0606060606061,488.1616161616163 326.0606060606061,478.6262626262627 326.0606060606061,469.0909090909092 326.0606060606061,459.5555555555556 326.0606060606061,450.0202020202021 326.0606060606061,440.4848484848486 326.0606060606061,430.94949494949503 326.0606060606061,421.4141414141415 326.0606060606061,411.87878787878793 326.0606060606061,402.3434343434344 326.0606060606061,392.80808080808094 326.0606060606061,383.27272727272737 326.0606060606061,373.73737373737384 326.0606060606061,364.2020202020203 326.0606060606061,354.66666666666674 326.0606060606061,345.1313131313133 326.0606060606061,335.5959595959597 326.0606060606061,326.06060606060623 326.0606060606061,316.5252525252526 326.0606060606061,306.9898989898991 326.0606060606061,297.4545454545456 326.0606060606061,287.91919191919203 326.0606060606061,278.38383838383857 326.0606060606061,268.84848484848493 326.0606060606061,259.3131313131314 326.0606060606061,249.77777777777794 326.0606060606061,240.24242424242436 326.0606060606061,230.70707070707084 326.0606060606061,221.17171717171726 326.0606060606061,211.63636363636374 326.0606060606061,202.10101010101027 326.0606060606061,192.56565656565675 326.0606060606061,183.03030303030312 326.0606060606061,173.4949494949496 326.0606060606061,163.95959595959613 326.0606060606061,154.4242424242426 326.0606060606061,144.88888888888908 326.0606060606061,135.35353535353545" fill="none" stroke="rgba(255,0,0,0.75)" stroke-width="11.327999999999996"/></g><g><polyline data-points="-1.9696969696969693,3.989898989898992 -1.9696969696969693,4.090909090909092 -1.9696969696969693,4.191919191919193 -1.9696969696969693,4.292929292929293 -1.9696969696969693,4.393939393939394 -1.9696969696969693,4.494949494949497 -1.9696969696969693,4.595959595959597 -1.9696969696969693,4.696969696969697 -1.9696969696969693,4.7979797979797985 -1.9696969696969693,4.898989898989901 -1.9696969696969693,5.000000000000002" data-type="line" data-label="" points="326.0606060606061,135.35353535353545 326.0606060606061,125.81818181818198 326.0606060606061,116.28282828282846 326.0606060606061,106.747474747475 326.0606060606061,97.21212121212153 326.0606060606061,87.67676767676778 326.0606060606061,78.14141414141432 326.0606060606061,68.60606060606085 326.0606060606061,59.07070707070733 326.0606060606061,49.53535353535369 326.0606060606061,40.000000000000114" fill="none" stroke="rgba(0,0,255,0.75)" stroke-width="11.327999999999996"/></g><g><polyline data-points="-5.000000000000001,0.2525252525252529 -4.898989898989899,0.3535353535353544 -4.7979797979797985,0.4545454545454551 -4.696969696969697,0.5555555555555567 -4.595959595959596,0.6565656565656574 -4.494949494949496,0.7575757575757579 -4.393939393939394,0.8585858585858596 -4.292929292929293,0.9595959595959602 -4.191919191919193,1.0606060606060617 -4.090909090909091,1.1616161616161622 -3.98989898989899,1.262626262626263 -3.8888888888888884,1.3636363636363644 -3.7878787878787876,1.4646464646464652 -3.6868686868686864,1.5656565656565666 -3.5858585858585856,1.6666666666666674 -3.484848484848485,1.767676767676768 -3.383838383838383,1.8686868686868696 -3.2828282828282824,1.9696969696969702 -3.1818181818181817,2.070707070707072 -3.0808080808080804,2.1717171717171726 -2.9797979797979792,2.2727272727272734 -2.8787878787878785,2.373737373737375 -2.7777777777777777,2.4747474747474754 -2.6767676767676765,2.575757575757577 -2.5757575757575752,2.676767676767678 -2.474747474747474,2.7777777777777786 -2.3737373737373733,2.87878787878788 -2.2727272727272725,2.9797979797979806 -2.1717171717171713,3.080808080808082 -2.07070707070707,3.181818181818183 -1.9696969696969693,3.2828282828282833 -1.8686868686868683,3.383838383838384 -1.7676767676767675,3.4848484848484866 -1.6666666666666665,3.5858585858585874 -1.5656565656565653,3.5858585858585874 -1.4646464646464643,3.5858585858585874 -1.363636363636363,3.5858585858585874 -1.2626262626262625,3.5858585858585874 -1.1616161616161613,3.5858585858585874 -1.0606060606060603,3.5858585858585874 -0.9595959595959596,3.5858585858585874 -0.8585858585858579,3.5858585858585874 -0.7575757575757572,3.5858585858585874 -0.6565656565656557,3.5858585858585874 -0.555555555555555,3.5858585858585874 -0.4545454545454544,3.5858585858585874 -0.35353535353535287,3.5858585858585874 -0.2525252525252522,3.5858585858585874 -0.15151515151515066,3.5858585858585874 -0.05050505050505001,3.5858585858585874 0.050505050505051545,3.5858585858585874 0.1515151515151522,3.5858585858585874 0.2525252525252529,3.5858585858585874 0.3535353535353544,3.5858585858585874 0.4545454545454551,3.5858585858585874 0.5555555555555567,3.5858585858585874 0.6565656565656574,3.5858585858585874 0.7575757575757579,3.5858585858585874 0.8585858585858596,3.5858585858585874" data-type="line" data-label="" points="40.00000000000006,488.1616161616163 49.53535353535369,478.6262626262627 59.07070707070716,469.0909090909092 68.60606060606068,459.5555555555556 78.14141414141426,450.0202020202021 87.67676767676772,440.4848484848486 97.21212121212136,430.94949494949503 106.74747474747483,421.4141414141415 116.28282828282829,411.87878787878793 125.81818181818193,402.3434343434344 135.35353535353545,392.80808080808094 144.88888888888903,383.27272727272737 154.42424242424255,373.73737373737384 163.95959595959607,364.2020202020203 173.4949494949496,354.66666666666674 183.03030303030312,345.1313131313133 192.5656565656567,335.5959595959597 202.10101010101022,326.06060606060623 211.63636363636374,316.5252525252526 221.17171717171726,306.9898989898991 230.70707070707084,297.4545454545456 240.2424242424243,287.91919191919203 249.77777777777783,278.38383838383857 259.3131313131314,268.84848484848493 268.84848484848493,259.3131313131314 278.38383838383845,249.77777777777794 287.91919191919203,240.24242424242436 297.4545454545455,230.70707070707084 306.9898989898991,221.17171717171726 316.5252525252526,211.63636363636374 326.0606060606061,202.10101010101027 335.59595959595964,192.56565656565675 345.13131313131316,183.03030303030312 354.6666666666667,173.4949494949496 364.2020202020202,173.4949494949496 373.7373737373738,173.4949494949496 383.2727272727273,173.4949494949496 392.80808080808083,173.4949494949496 402.34343434343435,173.4949494949496 411.8787878787879,173.4949494949496 421.4141414141414,173.4949494949496 430.949494949495,173.4949494949496 440.4848484848485,173.4949494949496 450.0202020202021,173.4949494949496 459.55555555555554,173.4949494949496 469.09090909090907,173.4949494949496 478.62626262626264,173.4949494949496 488.16161616161617,173.4949494949496 497.69696969696975,173.4949494949496 507.2323232323232,173.4949494949496 516.7676767676768,173.4949494949496 526.3030303030303,173.4949494949496 535.8383838383838,173.4949494949496 545.3737373737374,173.4949494949496 554.9090909090909,173.4949494949496 564.4444444444445,173.4949494949496 573.9797979797979,173.4949494949496 583.5151515151515,173.4949494949496 593.0505050505051,173.4949494949496" fill="none" stroke="rgba(0,0,255,0.75)" stroke-width="11.327999999999996"/></g><g><polyline data-points="0.8585858585858596,3.5858585858585874 0.9595959595959602,3.5858585858585874 1.0606060606060617,3.5858585858585874 1.1616161616161622,3.5858585858585874 1.262626262626263,3.5858585858585874 1.3636363636363644,3.5858585858585874 1.4646464646464652,3.5858585858585874 1.5656565656565666,3.5858585858585874 1.6666666666666674,3.5858585858585874 1.767676767676768,3.5858585858585874 1.8686868686868696,3.5858585858585874 1.9696969696969702,3.5858585858585874 2.070707070707072,3.5858585858585874 2.1717171717171726,3.5858585858585874 2.2727272727272734,3.5858585858585874 2.373737373737375,3.5858585858585874 2.4747474747474754,3.5858585858585874 2.575757575757577,3.5858585858585874 2.676767676767678,3.5858585858585874 2.7777777777777786,3.5858585858585874 2.87878787878788,3.5858585858585874 2.9797979797979806,3.5858585858585874 3.080808080808082,3.5858585858585874 3.181818181818183,3.5858585858585874 3.2828282828282833,3.5858585858585874 3.383838383838384,3.5858585858585874 3.4848484848484866,3.5858585858585874 3.5858585858585874,3.5858585858585874 3.6868686868686877,3.5858585858585874 3.7878787878787885,3.5858585858585874 3.8888888888888893,3.5858585858585874 3.989898989898992,3.5858585858585874" data-type="line" data-label="" points="593.0505050505051,173.4949494949496 602.5858585858585,173.4949494949496 612.1212121212121,173.4949494949496 621.6565656565656,173.4949494949496 631.1919191919192,173.4949494949496 640.7272727272727,173.4949494949496 650.2626262626262,173.4949494949496 659.7979797979798,173.4949494949496 669.3333333333333,173.4949494949496 678.8686868686868,173.4949494949496 688.4040404040404,173.4949494949496 697.9393939393939,173.4949494949496 707.4747474747475,173.4949494949496 717.0101010101009,173.4949494949496 726.5454545454545,173.4949494949496 736.0808080808081,173.4949494949496 745.6161616161615,173.4949494949496 755.1515151515151,173.4949494949496 764.6868686868686,173.4949494949496 774.2222222222222,173.4949494949496 783.7575757575758,173.4949494949496 793.2929292929292,173.4949494949496 802.8282828282828,173.4949494949496 812.3636363636363,173.4949494949496 821.8989898989898,173.4949494949496 831.4343434343433,173.4949494949496 840.969696969697,173.4949494949496 850.5050505050505,173.4949494949496 860.0404040404039,173.4949494949496 869.5757575757575,173.4949494949496 879.111111111111,173.4949494949496 888.6464646464647,173.4949494949496" fill="none" stroke="rgba(255,0,0,0.75)" stroke-width="11.327999999999996"/></g><g><polyline data-points="3.989898989898992,3.5858585858585874 4.090909090909092,3.5858585858585874 4.191919191919193,3.5858585858585874 4.292929292929293,3.5858585858585874 4.393939393939394,3.5858585858585874 4.494949494949497,3.5858585858585874 4.595959595959597,3.5858585858585874 4.696969696969697,3.5858585858585874 4.7979797979797985,3.5858585858585874 4.898989898989901,3.5858585858585874 5.000000000000002,3.5858585858585874" data-type="line" data-label="" points="888.6464646464647,173.4949494949496 898.181818181818,173.4949494949496 907.7171717171716,173.4949494949496 917.2525252525251,173.4949494949496 926.7878787878785,173.4949494949496 936.3232323232323,173.4949494949496 945.8585858585857,173.4949494949496 955.3939393939393,173.4949494949496 964.9292929292927,173.4949494949496 974.4646464646464,173.4949494949496 984,173.4949494949496" fill="none" stroke="rgba(0,0,255,0.75)" stroke-width="11.327999999999996"/></g><g><polyline data-points="5.000000000000002,-0.05050505050505001 4.898989898989901,0.050505050505051545 4.7979797979797985,0.1515151515151522 4.696969696969697,0.2525252525252529 4.595959595959597,0.3535353535353544 4.494949494949497,0.4545454545454551 4.393939393939394,0.5555555555555567 4.292929292929293,0.6565656565656574 4.191919191919193,0.7575757575757579 4.090909090909092,0.8585858585858596 3.989898989898992,0.9595959595959602 3.8888888888888893,1.0606060606060617 3.7878787878787885,1.1616161616161622 3.6868686868686877,1.262626262626263 3.5858585858585874,1.3636363636363644 3.4848484848484866,1.4646464646464652 3.383838383838384,1.5656565656565666 3.2828282828282833,1.6666666666666674 3.181818181818183,1.767676767676768 3.080808080808082,1.8686868686868696 2.9797979797979806,1.9696969696969702 2.87878787878788,2.070707070707072 2.7777777777777786,2.1717171717171726 2.676767676767678,2.2727272727272734 2.575757575757577,2.373737373737375 2.4747474747474754,2.4747474747474754 2.373737373737375,2.575757575757577 2.2727272727272734,2.676767676767678 2.1717171717171726,2.7777777777777786 2.070707070707072,2.87878787878788 1.9696969696969702,2.9797979797979806 1.8686868686868696,3.080808080808082 1.767676767676768,3.181818181818183 1.6666666666666674,3.2828282828282833 1.5656565656565666,3.2828282828282833 1.4646464646464652,3.2828282828282833 1.3636363636363644,3.2828282828282833 1.262626262626263,3.2828282828282833 1.1616161616161622,3.2828282828282833 1.0606060606060617,3.2828282828282833 0.9595959595959602,3.2828282828282833 0.8585858585858596,3.2828282828282833 0.7575757575757579,3.383838383838384 0.6565656565656574,3.4848484848484866 0.5555555555555567,3.5858585858585874 0.4545454545454551,3.6868686868686877 0.3535353535353544,3.7878787878787885 0.2525252525252529,3.8888888888888893 0.1515151515151522,3.989898989898992 0.050505050505051545,4.090909090909092 -0.05050505050505001,4.191919191919193 -0.15151515151515066,4.292929292929293 -0.2525252525252522,4.292929292929293 -0.35353535353535287,4.292929292929293 -0.4545454545454544,4.292929292929293 -0.555555555555555,4.292929292929293 -0.6565656565656557,4.292929292929293 -0.7575757575757572,4.292929292929293 -0.8585858585858579,4.292929292929293 -0.9595959595959596,4.292929292929293 -1.0606060606060603,4.292929292929293 -1.1616161616161613,4.292929292929293 -1.2626262626262625,4.292929292929293 -1.363636363636363,4.292929292929293 -1.4646464646464643,4.292929292929293 -1.5656565656565653,4.292929292929293 -1.6666666666666665,4.292929292929293 -1.7676767676767675,4.292929292929293 -1.8686868686868683,4.292929292929293 -1.9696969696969693,4.292929292929293 -2.07070707070707,4.292929292929293 -2.1717171717171713,4.292929292929293 -2.2727272727272725,4.292929292929293 -2.3737373737373733,4.292929292929293 -2.474747474747474,4.292929292929293 -2.5757575757575752,4.292929292929293 -2.6767676767676765,4.292929292929293 -2.7777777777777777,4.292929292929293 -2.8787878787878785,4.292929292929293 -2.9797979797979792,4.292929292929293 -3.0808080808080804,4.292929292929293 -3.1818181818181817,4.292929292929293 -3.2828282828282824,4.292929292929293 -3.383838383838383,4.292929292929293 -3.484848484848485,4.191919191919193 -3.5858585858585856,4.090909090909092 -3.6868686868686864,3.989898989898992" data-type="line" data-label="" points="984,516.7676767676768 974.4646464646464,507.23232323232327 964.9292929292927,497.69696969696975 955.3939393939393,488.1616161616163 945.8585858585857,478.6262626262627 936.3232323232323,469.0909090909092 926.7878787878785,459.5555555555556 917.2525252525251,450.0202020202021 907.7171717171716,440.4848484848486 898.181818181818,430.94949494949503 888.6464646464647,421.4141414141415 879.111111111111,411.87878787878793 869.5757575757575,402.3434343434344 860.0404040404039,392.80808080808094 850.5050505050505,383.27272727272737 840.969696969697,373.73737373737384 831.4343434343433,364.2020202020203 821.8989898989898,354.66666666666674 812.3636363636363,345.1313131313133 802.8282828282828,335.5959595959597 793.2929292929292,326.06060606060623 783.7575757575758,316.5252525252526 774.2222222222222,306.9898989898991 764.6868686868686,297.4545454545456 755.1515151515151,287.91919191919203 745.6161616161615,278.38383838383857 736.0808080808081,268.84848484848493 726.5454545454545,259.3131313131314 717.0101010101009,249.77777777777794 707.4747474747475,240.24242424242436 697.9393939393939,230.70707070707084 688.4040404040404,221.17171717171726 678.8686868686868,211.63636363636374 669.3333333333333,202.10101010101027 659.7979797979798,202.10101010101027 650.2626262626262,202.10101010101027 640.7272727272727,202.10101010101027 631.1919191919192,202.10101010101027 621.6565656565656,202.10101010101027 612.1212121212121,202.10101010101027 602.5858585858585,202.10101010101027 593.0505050505051,202.10101010101027 583.5151515151515,192.56565656565675 573.9797979797979,183.03030303030312 564.4444444444445,173.4949494949496 554.9090909090909,163.95959595959613 545.3737373737374,154.4242424242426 535.8383838383838,144.88888888888908 526.3030303030303,135.35353535353545 516.7676767676768,125.81818181818198 507.2323232323232,116.28282828282846 497.69696969696975,106.747474747475 488.16161616161617,106.747474747475 478.62626262626264,106.747474747475 469.09090909090907,106.747474747475 459.55555555555554,106.747474747475 450.0202020202021,106.747474747475 440.4848484848485,106.747474747475 430.949494949495,106.747474747475 421.4141414141414,106.747474747475 411.8787878787879,106.747474747475 402.34343434343435,106.747474747475 392.80808080808083,106.747474747475 383.2727272727273,106.747474747475 373.7373737373738,106.747474747475 364.2020202020202,106.747474747475 354.6666666666667,106.747474747475 345.13131313131316,106.747474747475 335.59595959595964,106.747474747475 326.0606060606061,106.747474747475 316.5252525252526,106.747474747475 306.9898989898991,106.747474747475 297.4545454545455,106.747474747475 287.91919191919203,106.747474747475 278.38383838383845,106.747474747475 268.84848484848493,106.747474747475 259.3131313131314,106.747474747475 249.77777777777783,106.747474747475 240.2424242424243,106.747474747475 230.70707070707084,106.747474747475 221.17171717171726,106.747474747475 211.63636363636374,106.747474747475 202.10101010101022,106.747474747475 192.5656565656567,106.747474747475 183.03030303030312,116.28282828282846 173.4949494949496,125.81818181818198 163.95959595959607,135.35353535353545" fill="none" stroke="rgba(255,0,0,0.75)" stroke-width="11.327999999999996"/></g><g><polyline data-points="-3.6868686868686864,3.989898989898992 -3.7878787878787876,4.090909090909092 -3.8888888888888884,4.191919191919193 -3.98989898989899,4.292929292929293 -4.090909090909091,4.393939393939394 -4.191919191919193,4.494949494949497 -4.292929292929293,4.595959595959597 -4.393939393939394,4.696969696969697 -4.494949494949496,4.7979797979797985 -4.595959595959596,4.7979797979797985 -4.696969696969697,4.7979797979797985 -4.7979797979797985,4.7979797979797985 -4.898989898989899,4.7979797979797985 -5.000000000000001,4.7979797979797985" data-type="line" data-label="" points="163.95959595959607,135.35353535353545 154.42424242424255,125.81818181818198 144.88888888888903,116.28282828282846 135.35353535353545,106.747474747475 125.81818181818193,97.21212121212153 116.28282828282829,87.67676767676778 106.74747474747483,78.14141414141432 97.21212121212136,68.60606060606085 87.67676767676772,59.07070707070733 78.14141414141426,59.07070707070733 68.60606060606068,59.07070707070733 59.07070707070716,59.07070707070733 49.53535353535369,59.07070707070733 40.00000000000006,59.07070707070733" fill="none" stroke="rgba(0,0,255,0.75)" stroke-width="11.327999999999996"/></g><g><polyline data-points="-1.0606060606060603,-5.000000000000001 -1.1616161616161613,-4.898989898989899 -1.2626262626262625,-4.7979797979797985 -1.363636363636363,-4.696969696969697 -1.4646464646464643,-4.595959595959596 -1.5656565656565653,-4.494949494949496 -1.6666666666666665,-4.393939393939394 -1.7676767676767675,-4.292929292929293 -1.8686868686868683,-4.191919191919193 -1.9696969696969693,-4.090909090909091 -2.07070707070707,-3.98989898989899 -2.1717171717171713,-3.8888888888888884 -2.2727272727272725,-3.7878787878787876 -2.2727272727272725,-3.6868686868686864 -2.2727272727272725,-3.5858585858585856 -2.2727272727272725,-3.484848484848485 -2.2727272727272725,-3.383838383838383 -2.2727272727272725,-3.2828282828282824 -2.2727272727272725,-3.1818181818181817 -2.2727272727272725,-3.0808080808080804 -2.2727272727272725,-2.9797979797979792 -2.2727272727272725,-2.8787878787878785 -2.2727272727272725,-2.7777777777777777 -2.2727272727272725,-2.6767676767676765 -2.2727272727272725,-2.5757575757575752 -2.2727272727272725,-2.474747474747474 -2.2727272727272725,-2.3737373737373733 -2.2727272727272725,-2.2727272727272725 -2.2727272727272725,-2.1717171717171713 -2.2727272727272725,-2.07070707070707 -2.2727272727272725,-1.9696969696969693 -2.2727272727272725,-1.8686868686868683 -2.2727272727272725,-1.7676767676767675 -2.2727272727272725,-1.6666666666666665 -2.2727272727272725,-1.5656565656565653 -2.2727272727272725,-1.4646464646464643 -2.2727272727272725,-1.363636363636363 -2.2727272727272725,-1.2626262626262625 -2.2727272727272725,-1.1616161616161613 -2.2727272727272725,-1.0606060606060603 -2.2727272727272725,-0.9595959595959596 -2.2727272727272725,-0.8585858585858579 -2.2727272727272725,-0.7575757575757572 -2.2727272727272725,-0.6565656565656557 -2.2727272727272725,-0.555555555555555 -2.2727272727272725,-0.4545454545454544 -2.2727272727272725,-0.35353535353535287 -2.2727272727272725,-0.2525252525252522 -2.2727272727272725,-0.15151515151515066 -2.2727272727272725,-0.05050505050505001 -2.2727272727272725,0.050505050505051545 -2.2727272727272725,0.1515151515151522 -2.2727272727272725,0.2525252525252529 -2.2727272727272725,0.3535353535353544 -2.2727272727272725,0.4545454545454551 -2.2727272727272725,0.5555555555555567 -2.2727272727272725,0.6565656565656574 -2.2727272727272725,0.7575757575757579 -2.2727272727272725,0.8585858585858596 -2.2727272727272725,0.9595959595959602 -2.2727272727272725,1.0606060606060617 -2.2727272727272725,1.1616161616161622 -2.2727272727272725,1.262626262626263 -2.2727272727272725,1.3636363636363644 -2.2727272727272725,1.4646464646464652 -2.2727272727272725,1.5656565656565666 -2.2727272727272725,1.6666666666666674 -2.2727272727272725,1.767676767676768 -2.2727272727272725,1.8686868686868696 -2.2727272727272725,1.9696969696969702 -2.2727272727272725,2.070707070707072 -2.2727272727272725,2.1717171717171726 -2.2727272727272725,2.2727272727272734 -2.3737373737373733,2.373737373737375" data-type="line" data-label="" points="411.8787878787879,984 402.34343434343435,974.4646464646464 392.80808080808083,964.9292929292928 383.2727272727273,955.3939393939394 373.7373737373738,945.8585858585858 364.2020202020202,936.3232323232323 354.6666666666667,926.7878787878788 345.13131313131316,917.2525252525252 335.59595959595964,907.7171717171718 326.0606060606061,898.1818181818181 316.5252525252526,888.6464646464647 306.9898989898991,879.1111111111111 297.4545454545455,869.5757575757575 297.4545454545455,860.0404040404039 297.4545454545455,850.5050505050505 297.4545454545455,840.969696969697 297.4545454545455,831.4343434343434 297.4545454545455,821.8989898989898 297.4545454545455,812.3636363636363 297.4545454545455,802.8282828282828 297.4545454545455,793.2929292929292 297.4545454545455,783.7575757575758 297.4545454545455,774.2222222222222 297.4545454545455,764.6868686868687 297.4545454545455,755.1515151515151 297.4545454545455,745.6161616161615 297.4545454545455,736.0808080808081 297.4545454545455,726.5454545454545 297.4545454545455,717.010101010101 297.4545454545455,707.4747474747475 297.4545454545455,697.939393939394 297.4545454545455,688.4040404040404 297.4545454545455,678.8686868686868 297.4545454545455,669.3333333333334 297.4545454545455,659.7979797979798 297.4545454545455,650.2626262626263 297.4545454545455,640.7272727272727 297.4545454545455,631.1919191919193 297.4545454545455,621.6565656565657 297.4545454545455,612.1212121212121 297.4545454545455,602.5858585858587 297.4545454545455,593.0505050505051 297.4545454545455,583.5151515151516 297.4545454545455,573.979797979798 297.4545454545455,564.4444444444445 297.4545454545455,554.909090909091 297.4545454545455,545.3737373737374 297.4545454545455,535.838383838384 297.4545454545455,526.3030303030304 297.4545454545455,516.7676767676768 297.4545454545455,507.23232323232327 297.4545454545455,497.69696969696975 297.4545454545455,488.1616161616163 297.4545454545455,478.6262626262627 297.4545454545455,469.0909090909092 297.4545454545455,459.5555555555556 297.4545454545455,450.0202020202021 297.4545454545455,440.4848484848486 297.4545454545455,430.94949494949503 297.4545454545455,421.4141414141415 297.4545454545455,411.87878787878793 297.4545454545455,402.3434343434344 297.4545454545455,392.80808080808094 297.4545454545455,383.27272727272737 297.4545454545455,373.73737373737384 297.4545454545455,364.2020202020203 297.4545454545455,354.66666666666674 297.4545454545455,345.1313131313133 297.4545454545455,335.5959595959597 297.4545454545455,326.06060606060623 297.4545454545455,316.5252525252526 297.4545454545455,306.9898989898991 297.4545454545455,297.4545454545456 287.91919191919203,287.91919191919203" fill="none" stroke="rgba(0,0,255,0.75)" stroke-width="11.327999999999996"/></g><g><polyline data-points="-2.3737373737373733,2.373737373737375 -2.474747474747474,2.4747474747474754 -2.5757575757575752,2.575757575757577 -2.6767676767676765,2.676767676767678 -2.7777777777777777,2.7777777777777786 -2.8787878787878785,2.87878787878788 -2.9797979797979792,2.9797979797979806 -3.0808080808080804,3.080808080808082 -3.1818181818181817,3.181818181818183 -3.2828282828282824,3.2828282828282833 -3.383838383838383,3.383838383838384 -3.484848484848485,3.4848484848484866 -3.5858585858585856,3.5858585858585874 -3.6868686868686864,3.6868686868686877 -3.7878787878787876,3.7878787878787885 -3.8888888888888884,3.8888888888888893 -3.98989898989899,3.989898989898992 -3.8888888888888884,4.090909090909092 -3.7878787878787876,4.191919191919193 -3.6868686868686864,4.292929292929293 -3.5858585858585856,4.393939393939394 -3.484848484848485,4.494949494949497 -3.383838383838383,4.595959595959597 -3.2828282828282824,4.696969696969697 -3.1818181818181817,4.7979797979797985 -3.0808080808080804,4.898989898989901 -2.9797979797979792,5.000000000000002 -2.8787878787878785,5.000000000000002 -2.7777777777777777,5.000000000000002 -2.6767676767676765,5.000000000000002 -2.5757575757575752,5.000000000000002 -2.474747474747474,5.000000000000002 -2.3737373737373733,5.000000000000002 -2.2727272727272725,5.000000000000002" data-type="line" data-label="" points="287.91919191919203,287.91919191919203 278.38383838383845,278.38383838383857 268.84848484848493,268.84848484848493 259.3131313131314,259.3131313131314 249.77777777777783,249.77777777777794 240.2424242424243,240.24242424242436 230.70707070707084,230.70707070707084 221.17171717171726,221.17171717171726 211.63636363636374,211.63636363636374 202.10101010101022,202.10101010101027 192.5656565656567,192.56565656565675 183.03030303030312,183.03030303030312 173.4949494949496,173.4949494949496 163.95959595959607,163.95959595959613 154.42424242424255,154.4242424242426 144.88888888888903,144.88888888888908 135.35353535353545,135.35353535353545 144.88888888888903,125.81818181818198 154.42424242424255,116.28282828282846 163.95959595959607,106.747474747475 173.4949494949496,97.21212121212153 183.03030303030312,87.67676767676778 192.5656565656567,78.14141414141432 202.10101010101022,68.60606060606085 211.63636363636374,59.07070707070733 221.17171717171726,49.53535353535369 230.70707070707084,40.000000000000114 240.2424242424243,40.000000000000114 249.77777777777783,40.000000000000114 259.3131313131314,40.000000000000114 268.84848484848493,40.000000000000114 278.38383838383845,40.000000000000114 287.91919191919203,40.000000000000114 297.4545454545455,40.000000000000114" fill="none" stroke="rgba(255,0,0,0.75)" stroke-width="11.327999999999996"/></g><g><polyline data-points="5.000000000000002,1.767676767676768 4.898989898989901,1.767676767676768 4.7979797979797985,1.767676767676768 4.696969696969697,1.767676767676768 4.595959595959597,1.767676767676768 4.494949494949497,1.767676767676768 4.393939393939394,1.767676767676768 4.292929292929293,1.767676767676768 4.191919191919193,1.767676767676768 4.090909090909092,1.767676767676768 3.989898989898992,1.767676767676768 3.8888888888888893,1.767676767676768 3.7878787878787885,1.8686868686868696 3.6868686868686877,1.9696969696969702 3.5858585858585874,2.070707070707072 3.4848484848484866,2.1717171717171726 3.383838383838384,2.2727272727272734 3.2828282828282833,2.373737373737375 3.181818181818183,2.4747474747474754 3.080808080808082,2.575757575757577 2.9797979797979806,2.676767676767678 2.87878787878788,2.7777777777777786 2.7777777777777786,2.87878787878788 2.676767676767678,2.9797979797979806 2.575757575757577,3.080808080808082 2.4747474747474754,3.181818181818183 2.373737373737375,3.2828282828282833 2.2727272727272734,3.383838383838384 2.1717171717171726,3.4848484848484866 2.070707070707072,3.5858585858585874 1.9696969696969702,3.6868686868686877 1.8686868686868696,3.7878787878787885 1.767676767676768,3.8888888888888893 1.6666666666666674,3.989898989898992" data-type="line" data-label="" points="984,345.1313131313133 974.4646464646464,345.1313131313133 964.9292929292927,345.1313131313133 955.3939393939393,345.1313131313133 945.8585858585857,345.1313131313133 936.3232323232323,345.1313131313133 926.7878787878785,345.1313131313133 917.2525252525251,345.1313131313133 907.7171717171716,345.1313131313133 898.181818181818,345.1313131313133 888.6464646464647,345.1313131313133 879.111111111111,345.1313131313133 869.5757575757575,335.5959595959597 860.0404040404039,326.06060606060623 850.5050505050505,316.5252525252526 840.969696969697,306.9898989898991 831.4343434343433,297.4545454545456 821.8989898989898,287.91919191919203 812.3636363636363,278.38383838383857 802.8282828282828,268.84848484848493 793.2929292929292,259.3131313131314 783.7575757575758,249.77777777777794 774.2222222222222,240.24242424242436 764.6868686868686,230.70707070707084 755.1515151515151,221.17171717171726 745.6161616161615,211.63636363636374 736.0808080808081,202.10101010101027 726.5454545454545,192.56565656565675 717.0101010101009,183.03030303030312 707.4747474747475,173.4949494949496 697.9393939393939,163.95959595959613 688.4040404040404,154.4242424242426 678.8686868686868,144.88888888888908 669.3333333333333,135.35353535353545" fill="none" stroke="rgba(0,0,255,0.75)" stroke-width="11.327999999999996"/></g><g><polyline data-points="1.6666666666666674,3.989898989898992 1.5656565656565666,3.989898989898992 1.4646464646464652,3.989898989898992 1.3636363636363644,3.989898989898992 1.262626262626263,3.989898989898992 1.1616161616161622,3.989898989898992 1.0606060606060617,3.989898989898992 0.9595959595959602,3.989898989898992 0.8585858585858596,3.989898989898992 0.7575757575757579,3.989898989898992" data-type="line" data-label="" points="669.3333333333333,135.35353535353545 659.7979797979798,135.35353535353545 650.2626262626262,135.35353535353545 640.7272727272727,135.35353535353545 631.1919191919192,135.35353535353545 621.6565656565656,135.35353535353545 612.1212121212121,135.35353535353545 602.5858585858585,135.35353535353545 593.0505050505051,135.35353535353545 583.5151515151515,135.35353535353545" fill="none" stroke="rgba(255,0,0,0.75)" stroke-width="11.327999999999996"/></g><g><polyline data-points="0.7575757575757579,3.989898989898992 0.6565656565656574,3.8888888888888893 0.5555555555555567,3.7878787878787885 0.4545454545454551,3.7878787878787885 0.3535353535353544,3.7878787878787885 0.2525252525252529,3.7878787878787885 0.1515151515151522,3.7878787878787885 0.050505050505051545,3.7878787878787885 -0.05050505050505001,3.7878787878787885 -0.15151515151515066,3.7878787878787885 -0.2525252525252522,3.7878787878787885 -0.35353535353535287,3.7878787878787885 -0.4545454545454544,3.7878787878787885 -0.555555555555555,3.7878787878787885 -0.6565656565656557,3.7878787878787885 -0.7575757575757572,3.7878787878787885 -0.8585858585858579,3.7878787878787885 -0.9595959595959596,3.7878787878787885 -1.0606060606060603,3.7878787878787885 -1.1616161616161613,3.7878787878787885 -1.2626262626262625,3.7878787878787885 -1.363636363636363,3.7878787878787885 -1.4646464646464643,3.7878787878787885 -1.5656565656565653,3.7878787878787885 -1.6666666666666665,3.7878787878787885 -1.7676767676767675,3.7878787878787885 -1.8686868686868683,3.6868686868686877 -1.9696969696969693,3.5858585858585874 -2.07070707070707,3.4848484848484866 -2.1717171717171713,3.383838383838384 -2.2727272727272725,3.2828282828282833 -2.3737373737373733,3.181818181818183 -2.474747474747474,3.080808080808082 -2.5757575757575752,2.9797979797979806 -2.6767676767676765,2.87878787878788 -2.7777777777777777,2.7777777777777786 -2.8787878787878785,2.676767676767678 -2.9797979797979792,2.575757575757577 -3.0808080808080804,2.4747474747474754 -3.1818181818181817,2.373737373737375 -3.2828282828282824,2.2727272727272734 -3.383838383838383,2.1717171717171726 -3.484848484848485,2.070707070707072 -3.5858585858585856,1.9696969696969702 -3.6868686868686864,1.8686868686868696 -3.7878787878787876,1.767676767676768 -3.8888888888888884,1.767676767676768 -3.98989898989899,1.767676767676768" data-type="line" data-label="" points="583.5151515151515,135.35353535353545 573.9797979797979,144.88888888888908 564.4444444444445,154.4242424242426 554.9090909090909,154.4242424242426 545.3737373737374,154.4242424242426 535.8383838383838,154.4242424242426 526.3030303030303,154.4242424242426 516.7676767676768,154.4242424242426 507.2323232323232,154.4242424242426 497.69696969696975,154.4242424242426 488.16161616161617,154.4242424242426 478.62626262626264,154.4242424242426 469.09090909090907,154.4242424242426 459.55555555555554,154.4242424242426 450.0202020202021,154.4242424242426 440.4848484848485,154.4242424242426 430.949494949495,154.4242424242426 421.4141414141414,154.4242424242426 411.8787878787879,154.4242424242426 402.34343434343435,154.4242424242426 392.80808080808083,154.4242424242426 383.2727272727273,154.4242424242426 373.7373737373738,154.4242424242426 364.2020202020202,154.4242424242426 354.6666666666667,154.4242424242426 345.13131313131316,154.4242424242426 335.59595959595964,163.95959595959613 326.0606060606061,173.4949494949496 316.5252525252526,183.03030303030312 306.9898989898991,192.56565656565675 297.4545454545455,202.10101010101027 287.91919191919203,211.63636363636374 278.38383838383845,221.17171717171726 268.84848484848493,230.70707070707084 259.3131313131314,240.24242424242436 249.77777777777783,249.77777777777794 240.2424242424243,259.3131313131314 230.70707070707084,268.84848484848493 221.17171717171726,278.38383838383857 211.63636363636374,287.91919191919203 202.10101010101022,297.4545454545456 192.5656565656567,306.9898989898991 183.03030303030312,316.5252525252526 173.4949494949496,326.06060606060623 163.95959595959607,335.5959595959597 154.42424242424255,345.1313131313133 144.88888888888903,345.1313131313133 135.35353535353545,345.1313131313133" fill="none" stroke="rgba(0,0,255,0.75)" stroke-width="11.327999999999996"/></g><g><polyline data-points="-3.98989898989899,1.767676767676768 -4.090909090909091,1.6666666666666674 -4.191919191919193,1.5656565656565666 -4.292929292929293,1.5656565656565666 -4.393939393939394,1.5656565656565666 -4.494949494949496,1.5656565656565666 -4.595959595959596,1.5656565656565666 -4.696969696969697,1.5656565656565666 -4.7979797979797985,1.5656565656565666 -4.898989898989899,1.5656565656565666 -5.000000000000001,1.5656565656565666" data-type="line" data-label="" points="135.35353535353545,345.1313131313133 125.81818181818193,354.66666666666674 116.28282828282829,364.2020202020203 106.74747474747483,364.2020202020203 97.21212121212136,364.2020202020203 87.67676767676772,364.2020202020203 78.14141414141426,364.2020202020203 68.60606060606068,364.2020202020203 59.07070707070716,364.2020202020203 49.53535353535369,364.2020202020203 40.00000000000006,364.2020202020203" fill="none" stroke="rgba(255,0,0,0.75)" stroke-width="11.327999999999996"/></g><g><rect data-type="rect" data-label="" data-x="0" data-y="0" x="40.000000000000114" y="40.000000000000284" width="943.9999999999997" height="943.9999999999998" fill="none" stroke="gray" stroke-width="0.010593220338983056"/></g><g><rect data-type="rect" data-label="" data-x="0" data-y="0" x="40.000000000000114" y="40.000000000000284" width="943.9999999999997" height="943.9999999999998" fill="none" stroke="rgba(15, 23, 42, 0.8)" stroke-width="0.010593220338983056"/></g><circle data-type="circle" data-label="" data-x="-1.9696969696969693" data-y="3.989898989898992" cx="326.0606060606061" cy="135.35353535353545" r="14.159999999999995" fill="rgba(0,0,0,0.3)" stroke="black" stroke-width="0.010593220338983056"/><circle data-type="circle" data-label="" data-x="0.8585858585858596" data-y="3.5858585858585874" cx="593.0505050505051" cy="173.4949494949496" r="14.159999999999995" fill="rgba(0,0,0,0.3)" stroke="black" stroke-width="0.010593220338983056"/><circle data-type="circle" data-label="" data-x="3.989898989898992" data-y="3.5858585858585874" cx="888.6464646464647" cy="173.4949494949496" r="14.159999999999995" fill="rgba(0,0,0,0.3)" stroke="black" stroke-width="0.010593220338983056"/><circle data-type="circle" data-label="" data-x="-3.6868686868686864" data-y="3.989898989898992" cx="163.95959595959607" cy="135.35353535353545" r="14.159999999999995" fill="rgba(0,0,0,0.3)" stroke="black" stroke-width="0.010593220338983056"/><circle data-type="circle" data-label="" data-x="-2.3737373737373733" data-y="2.373737373737375" cx="287.91919191919203" cy="287.91919191919203" r="14.159999999999995" fill="rgba(0,0,0,0.3)" stroke="black" stroke-width="0.010593220338983056"/><circle data-type="circle" data-label="" data-x="1.6666666666666674" data-y="3.989898989898992" cx="669.3333333333333" cy="135.35353535353545" r="14.159999999999995" fill="rgba(0,0,0,0.3)" stroke="black" stroke-width="0.010593220338983056"/><circle data-type="circle" data-label="" data-x="0.7575757575757579" data-y="3.989898989898992" cx="583.5151515151515" cy="135.35353535353545" r="14.159999999999995" fill="rgba(0,0,0,0.3)" stroke="black" stroke-width="0.010593220338983056"/><circle data-type="circle" data-label="" data-x="-3.98989898989899" data-y="1.767676767676768" cx="135.35353535353545" cy="345.1313131313133" r="14.159999999999995" fill="rgba(0,0,0,0.3)" stroke="black" stroke-width="0.010593220338983056"/><g id="crosshair" style="display: none"><line id="crosshair-h" y1="0" y2="1024" stroke="#666" stroke-width="0.5"/><line id="crosshair-v" x1="0" x2="1024" stroke="#666" stroke-width="0.5"/><text id="coordinates" font-family="monospace" font-size="12" fill="#666"></text></g><script><![CDATA[
              document.currentScript.parentElement.addEventListener('mousemove', (e) => {
                const svg = e.currentTarget;
                const rect = svg.getBoundingClientRect();
                const x = e.clientX - rect.left;
                const y = e.clientY - rect.top;
                const crosshair = svg.getElementById('crosshair');
                const h = svg.getElementById('crosshair-h');
                const v = svg.getElementById('crosshair-v');
                const coords = svg.getElementById('coordinates');
                
                crosshair.style.display = 'block';
                h.setAttribute('x1', '0');
                h.setAttribute('x2', '1024');
                h.setAttribute('y1', y);
                h.setAttribute('y2', y);
                v.setAttribute('x1', x);
                v.setAttribute('x2', x);
                v.setAttribute('y1', '0');
                v.setAttribute('y2', '1024');

                // Calculate real coordinates using inverse transformation
                const matrix = {"a":94.39999999999996,"c":0,"e":511.99999999999994,"b":0,"d":-94.39999999999996,"f":512.0000000000001};
                // Manually invert and apply the affine transform
                // Since we only use translate and scale, we can directly compute:
                // x' = (x - tx) / sx
                // y' = (y - ty) / sy
                const sx = matrix.a;
                const sy = matrix.d;
                const tx = matrix.e; 
                const ty = matrix.f;
                const realPoint = {
                  x: (x - tx) / sx,
                  y: (y - ty) / sy // Flip y back since we used negative scale
                }
                
                coords.textContent = `(${realPoint.x.toFixed(2)}, ${realPoint.y.toFixed(2)})`;
                coords.setAttribute('x', (x + 5).toString());
                coords.setAttribute('y', (y - 5).toString());
              });
              document.currentScript.parentElement.addEventListener('mouseleave', () => {
                document.currentScript.parentElement.getElementById('crosshair').style.display = 'none';
              });
            ]]></script></svg>