<svg width="1024" height="1024" viewBox="0 0 1024 1024" xmlns="http://www.w3.org/2000/svg"><rect width="100%" height="100%" fill="white"/><g><circle data-type="point" data-label="conn_000" data-x="-5" data-y="-3.08" cx="40.000000000000114" cy="802.752" r="14.16" fill="red"/></g><g><circle data-type="point" data-label="conn_000" data-x="5" data-y="-0.72" cx="983.9999999999998" cy="579.9680000000001" r="14.16" fill="blue"/></g><g><circle data-type="point" data-label="conn_001" data-x="5" data-y="0.5" cx="983.9999999999998" cy="464.8000000000001" r="14.16" fill="red"/></g><g><circle data-type="point" data-label="conn_001" data-x="-5" data-y="1.1400000000000001" cx="40.000000000000114" cy="404.3840000000001" r="14.16" fill="red"/></g><g><circle data-type="point" data-label="conn_002" data-x="-3.72" data-y="5" cx="160.83200000000005" cy="40.000000000000284" r="14.16" fill="blue"/></g><g><circle data-type="point" data-label="conn_002" data-x="2.42" data-y="-5" cx="740.4479999999999" cy="984" r="14.16" fill="red"/></g><g><circle data-type="point" data-label="conn_003" data-x="-5" data-y="-4.26" cx="40.000000000000114" cy="914.144" r="14.16" fill="blue"/></g><g><circle data-type="point" data-label="conn_003" data-x="5" data-y="-0.68" cx="983.9999999999998" cy="576.1920000000001" r="14.16" fill="red"/></g><g><polyline data-points="-5.000000000000001,-3.0808080808080804 -4.898989898989899,-2.9797979797979792 -4.7979797979797985,-2.8787878787878785 -4.696969696969697,-2.7777777777777777 -4.595959595959596,-2.6767676767676765 -4.494949494949496,-2.5757575757575752 -4.393939393939394,-2.474747474747474 -4.292929292929293,-2.3737373737373733 -4.191919191919193,-2.2727272727272725 -4.090909090909091,-2.1717171717171713 -3.98989898989899,-2.07070707070707 -3.8888888888888884,-1.9696969696969693 -3.7878787878787876,-1.8686868686868683 -3.6868686868686864,-1.7676767676767675 -3.5858585858585856,-1.6666666666666665 -3.484848484848485,-1.5656565656565653 -3.383838383838383,-1.4646464646464643 -3.2828282828282824,-1.363636363636363 -3.1818181818181817,-1.2626262626262625 -3.0808080808080804,-1.1616161616161613 -2.9797979797979792,-1.0606060606060603 -2.8787878787878785,-0.9595959595959596 -2.7777777777777777,-0.8585858585858579 -2.6767676767676765,-0.7575757575757572 -2.5757575757575752,-0.7575757575757572 -2.474747474747474,-0.7575757575757572 -2.3737373737373733,-0.7575757575757572 -2.2727272727272725,-0.7575757575757572 -2.1717171717171713,-0.7575757575757572 -2.07070707070707,-0.7575757575757572 -1.9696969696969693,-0.7575757575757572 -1.8686868686868683,-0.7575757575757572 -1.7676767676767675,-0.7575757575757572 -1.6666666666666665,-0.7575757575757572 -1.5656565656565653,-0.7575757575757572 -1.4646464646464643,-0.7575757575757572 -1.363636363636363,-0.7575757575757572 -1.2626262626262625,-0.7575757575757572 -1.1616161616161613,-0.7575757575757572 -1.0606060606060603,-0.7575757575757572 -0.9595959595959596,-0.7575757575757572 -0.8585858585858579,-0.7575757575757572 -0.7575757575757572,-0.7575757575757572 -0.6565656565656557,-0.7575757575757572 -0.555555555555555,-0.7575757575757572 -0.4545454545454544,-0.7575757575757572 -0.35353535353535287,-0.7575757575757572 -0.2525252525252522,-0.7575757575757572 -0.15151515151515066,-0.7575757575757572 -0.05050505050505001,-0.7575757575757572 0.050505050505051545,-0.7575757575757572 0.1515151515151522,-0.7575757575757572 0.2525252525252529,-0.7575757575757572 0.3535353535353544,-0.7575757575757572 0.4545454545454551,-0.7575757575757572 0.5555555555555567,-0.7575757575757572 0.6565656565656574,-0.7575757575757572 0.7575757575757579,-0.7575757575757572 0.8585858585858596,-0.7575757575757572 0.9595959595959602,-0.7575757575757572 1.0606060606060617,-0.7575757575757572 1.1616161616161622,-0.7575757575757572 1.262626262626263,-0.7575757575757572 1.3636363636363644,-0.7575757575757572 1.4646464646464652,-0.7575757575757572 1.5656565656565666,-0.7575757575757572 1.6666666666666674,-0.7575757575757572 1.767676767676768,-0.7575757575757572 1.8686868686868696,-0.7575757575757572 1.9696969696969702,-0.7575757575757572 2.070707070707072,-0.7575757575757572 2.1717171717171726,-0.7575757575757572 2.2727272727272734,-0.7575757575757572 2.373737373737375,-0.7575757575757572 2.4747474747474754,-0.7575757575757572 2.575757575757577,-0.7575757575757572 2.676767676767678,-0.7575757575757572 2.7777777777777786,-0.7575757575757572 2.87878787878788,-0.7575757575757572 2.9797979797979806,-0.7575757575757572 3.080808080808082,-0.7575757575757572 3.181818181818183,-0.7575757575757572 3.2828282828282833,-0.7575757575757572 3.383838383838384,-0.7575757575757572 3.4848484848484866,-0.7575757575757572 3.5858585858585874,-0.7575757575757572 3.6868686868686877,-0.7575757575757572 3.7878787878787885,-0.7575757575757572 3.8888888888888893,-0.7575757575757572 3.989898989898992,-0.7575757575757572" data-type="line" data-label="" points="40.00000000000006,802.8282828282828 49.53535353535369,793.2929292929292 59.07070707070716,783.7575757575758 68.60606060606068,774.2222222222222 78.14141414141426,764.6868686868687 87.67676767676772,755.1515151515151 97.21212121212136,745.6161616161615 106.74747474747483,736.0808080808081 116.28282828282829,726.5454545454545 125.81818181818193,717.010101010101 135.35353535353545,707.4747474747475 144.88888888888903,697.939393939394 154.42424242424255,688.4040404040404 163.95959595959607,678.8686868686868 173.4949494949496,669.3333333333334 183.03030303030312,659.7979797979798 192.5656565656567,650.2626262626263 202.10101010101022,640.7272727272727 211.63636363636374,631.1919191919193 221.17171717171726,621.6565656565657 230.70707070707084,612.1212121212121 240.2424242424243,602.5858585858587 249.77777777777783,593.0505050505051 259.3131313131314,583.5151515151516 268.84848484848493,583.5151515151516 278.38383838383845,583.5151515151516 287.91919191919203,583.5151515151516 297.4545454545455,583.5151515151516 306.9898989898991,583.5151515151516 316.5252525252526,583.5151515151516 326.0606060606061,583.5151515151516 335.59595959595964,583.5151515151516 345.13131313131316,583.5151515151516 354.6666666666667,583.5151515151516 364.2020202020202,583.5151515151516 373.7373737373738,583.5151515151516 383.2727272727273,583.5151515151516 392.80808080808083,583.5151515151516 402.34343434343435,583.5151515151516 411.8787878787879,583.5151515151516 421.4141414141414,583.5151515151516 430.949494949495,583.5151515151516 440.4848484848485,583.5151515151516 450.0202020202021,583.5151515151516 459.55555555555554,583.5151515151516 469.09090909090907,583.5151515151516 478.62626262626264,583.5151515151516 488.16161616161617,583.5151515151516 497.69696969696975,583.5151515151516 507.2323232323232,583.5151515151516 516.7676767676768,583.5151515151516 526.3030303030303,583.5151515151516 535.8383838383838,583.5151515151516 545.3737373737374,583.5151515151516 554.9090909090909,583.5151515151516 564.4444444444445,583.5151515151516 573.9797979797979,583.5151515151516 583.5151515151515,583.5151515151516 593.0505050505051,583.5151515151516 602.5858585858585,583.5151515151516 612.1212121212121,583.5151515151516 621.6565656565656,583.5151515151516 631.1919191919192,583.5151515151516 640.7272727272727,583.5151515151516 650.2626262626262,583.5151515151516 659.7979797979798,583.5151515151516 669.3333333333333,583.5151515151516 678.8686868686868,583.5151515151516 688.4040404040404,583.5151515151516 697.9393939393939,583.5151515151516 707.4747474747475,583.5151515151516 717.0101010101009,583.5151515151516 726.5454545454545,583.5151515151516 736.0808080808081,583.5151515151516 745.6161616161615,583.5151515151516 755.1515151515151,583.5151515151516 764.6868686868686,583.5151515151516 774.2222222222222,583.5151515151516 783.7575757575758,583.5151515151516 793.2929292929292,583.5151515151516 802.8282828282828,583.5151515151516 812.3636363636363,583.5151515151516 821.8989898989898,583.5151515151516 831.4343434343433,583.5151515151516 840.969696969697,583.5151515151516 850.5050505050505,583.5151515151516 860.0404040404039,583.5151515151516 869.5757575757575,583.5151515151516 879.111111111111,583.5151515151516 888.6464646464647,583.5151515151516" fill="none" stroke="rgba(255,0,0,0.75)" stroke-width="11.327999999999996"/></g><g><polyline data-points="3.989898989898992,-0.7575757575757572 4.090909090909092,-0.7575757575757572 4.191919191919193,-0.7575757575757572 4.292929292929293,-0.7575757575757572 4.393939393939394,-0.7575757575757572 4.494949494949497,-0.7575757575757572 4.595959595959597,-0.7575757575757572 4.696969696969697,-0.7575757575757572 4.7979797979797985,-0.7575757575757572 4.898989898989901,-0.7575757575757572 5.000000000000002,-0.7575757575757572" data-type="line" data-label="" points="888.6464646464647,583.5151515151516 898.181818181818,583.5151515151516 907.7171717171716,583.5151515151516 917.2525252525251,583.5151515151516 926.7878787878785,583.5151515151516 936.3232323232323,583.5151515151516 945.8585858585857,583.5151515151516 955.3939393939393,583.5151515151516 964.9292929292927,583.5151515151516 974.4646464646464,583.5151515151516 984,583.5151515151516" fill="none" stroke="rgba(0,0,255,0.75)" stroke-width="11.327999999999996"/></g><g><polyline data-points="-5.000000000000001,-4.292929292929293 -4.898989898989899,-4.191919191919193 -4.7979797979797985,-4.090909090909091 -4.696969696969697,-3.98989898989899 -4.595959595959596,-3.8888888888888884 -4.494949494949496,-3.7878787878787876 -4.393939393939394,-3.6868686868686864 -4.292929292929293,-3.5858585858585856 -4.191919191919193,-3.484848484848485 -4.090909090909091,-3.383838383838383 -3.98989898989899,-3.2828282828282824 -3.8888888888888884,-3.1818181818181817 -3.7878787878787876,-3.0808080808080804 -3.6868686868686864,-2.9797979797979792 -3.5858585858585856,-2.8787878787878785 -3.484848484848485,-2.7777777777777777 -3.383838383838383,-2.6767676767676765 -3.2828282828282824,-2.5757575757575752 -3.1818181818181817,-2.474747474747474 -3.0808080808080804,-2.3737373737373733 -2.9797979797979792,-2.2727272727272725 -2.8787878787878785,-2.1717171717171713 -2.7777777777777777,-2.07070707070707 -2.6767676767676765,-1.9696969696969693 -2.5757575757575752,-1.8686868686868683 -2.474747474747474,-1.7676767676767675 -2.3737373737373733,-1.6666666666666665 -2.2727272727272725,-1.5656565656565653 -2.1717171717171713,-1.4646464646464643 -2.07070707070707,-1.363636363636363 -1.9696969696969693,-1.2626262626262625 -1.8686868686868683,-1.1616161616161613 -1.7676767676767675,-1.1616161616161613 -1.6666666666666665,-1.1616161616161613 -1.5656565656565653,-1.1616161616161613 -1.4646464646464643,-1.1616161616161613 -1.363636363636363,-1.1616161616161613 -1.2626262626262625,-1.1616161616161613 -1.1616161616161613,-1.1616161616161613 -1.0606060606060603,-1.1616161616161613 -0.9595959595959596,-1.1616161616161613 -0.8585858585858579,-1.1616161616161613 -0.7575757575757572,-1.1616161616161613 -0.6565656565656557,-1.1616161616161613 -0.555555555555555,-1.1616161616161613 -0.4545454545454544,-1.1616161616161613 -0.35353535353535287,-1.1616161616161613 -0.2525252525252522,-1.1616161616161613 -0.15151515151515066,-1.1616161616161613 -0.05050505050505001,-1.1616161616161613 0.050505050505051545,-1.1616161616161613 0.1515151515151522,-1.1616161616161613 0.2525252525252529,-1.1616161616161613 0.3535353535353544,-1.1616161616161613 0.4545454545454551,-1.1616161616161613 0.5555555555555567,-1.1616161616161613 0.6565656565656574,-1.1616161616161613 0.7575757575757579,-1.1616161616161613 0.8585858585858596,-1.1616161616161613 0.9595959595959602,-1.1616161616161613 1.0606060606060617,-1.1616161616161613 1.1616161616161622,-1.1616161616161613 1.262626262626263,-1.1616161616161613 1.3636363636363644,-1.1616161616161613 1.4646464646464652,-1.1616161616161613 1.5656565656565666,-1.1616161616161613 1.6666666666666674,-1.1616161616161613 1.767676767676768,-1.1616161616161613 1.8686868686868696,-1.1616161616161613 1.9696969696969702,-1.1616161616161613 2.070707070707072,-1.1616161616161613 2.1717171717171726,-1.1616161616161613 2.2727272727272734,-1.1616161616161613 2.373737373737375,-1.1616161616161613 2.4747474747474754,-1.1616161616161613 2.575757575757577,-1.1616161616161613 2.676767676767678,-1.1616161616161613 2.7777777777777786,-1.1616161616161613 2.87878787878788,-1.1616161616161613 2.9797979797979806,-1.1616161616161613 3.080808080808082,-1.1616161616161613 3.181818181818183,-1.1616161616161613 3.2828282828282833,-1.1616161616161613 3.383838383838384,-1.1616161616161613 3.4848484848484866,-1.1616161616161613 3.5858585858585874,-1.1616161616161613 3.6868686868686877,-1.1616161616161613 3.7878787878787885,-1.1616161616161613 3.8888888888888893,-1.1616161616161613" data-type="line" data-label="" points="40.00000000000006,917.2525252525252 49.53535353535369,907.7171717171718 59.07070707070716,898.1818181818181 68.60606060606068,888.6464646464647 78.14141414141426,879.1111111111111 87.67676767676772,869.5757575757575 97.21212121212136,860.0404040404039 106.74747474747483,850.5050505050505 116.28282828282829,840.969696969697 125.81818181818193,831.4343434343434 135.35353535353545,821.8989898989898 144.88888888888903,812.3636363636363 154.42424242424255,802.8282828282828 163.95959595959607,793.2929292929292 173.4949494949496,783.7575757575758 183.03030303030312,774.2222222222222 192.5656565656567,764.6868686868687 202.10101010101022,755.1515151515151 211.63636363636374,745.6161616161615 221.17171717171726,736.0808080808081 230.70707070707084,726.5454545454545 240.2424242424243,717.010101010101 249.77777777777783,707.4747474747475 259.3131313131314,697.939393939394 268.84848484848493,688.4040404040404 278.38383838383845,678.8686868686868 287.91919191919203,669.3333333333334 297.4545454545455,659.7979797979798 306.9898989898991,650.2626262626263 316.5252525252526,640.7272727272727 326.0606060606061,631.1919191919193 335.59595959595964,621.6565656565657 345.13131313131316,621.6565656565657 354.6666666666667,621.6565656565657 364.2020202020202,621.6565656565657 373.7373737373738,621.6565656565657 383.2727272727273,621.6565656565657 392.80808080808083,621.6565656565657 402.34343434343435,621.6565656565657 411.8787878787879,621.6565656565657 421.4141414141414,621.6565656565657 430.949494949495,621.6565656565657 440.4848484848485,621.6565656565657 450.0202020202021,621.6565656565657 459.55555555555554,621.6565656565657 469.09090909090907,621.6565656565657 478.62626262626264,621.6565656565657 488.16161616161617,621.6565656565657 497.69696969696975,621.6565656565657 507.2323232323232,621.6565656565657 516.7676767676768,621.6565656565657 526.3030303030303,621.6565656565657 535.8383838383838,621.6565656565657 545.3737373737374,621.6565656565657 554.9090909090909,621.6565656565657 564.4444444444445,621.6565656565657 573.9797979797979,621.6565656565657 583.5151515151515,621.6565656565657 593.0505050505051,621.6565656565657 602.5858585858585,621.6565656565657 612.1212121212121,621.6565656565657 621.6565656565656,621.6565656565657 631.1919191919192,621.6565656565657 640.7272727272727,621.6565656565657 650.2626262626262,621.6565656565657 659.7979797979798,621.6565656565657 669.3333333333333,621.6565656565657 678.8686868686868,621.6565656565657 688.4040404040404,621.6565656565657 697.9393939393939,621.6565656565657 707.4747474747475,621.6565656565657 717.0101010101009,621.6565656565657 726.5454545454545,621.6565656565657 736.0808080808081,621.6565656565657 745.6161616161615,621.6565656565657 755.1515151515151,621.6565656565657 764.6868686868686,621.6565656565657 774.2222222222222,621.6565656565657 783.7575757575758,621.6565656565657 793.2929292929292,621.6565656565657 802.8282828282828,621.6565656565657 812.3636363636363,621.6565656565657 821.8989898989898,621.6565656565657 831.4343434343433,621.6565656565657 840.969696969697,621.6565656565657 850.5050505050505,621.6565656565657 860.0404040404039,621.6565656565657 869.5757575757575,621.6565656565657 879.111111111111,621.6565656565657" fill="none" stroke="rgba(0,0,255,0.75)" stroke-width="11.327999999999996"/></g><g><polyline data-points="3.8888888888888893,-1.1616161616161613 3.989898989898992,-1.0606060606060603 4.090909090909092,-0.9595959595959596 4.191919191919193,-0.8585858585858579 4.292929292929293,-0.7575757575757572 4.393939393939394,-0.6565656565656557 4.494949494949497,-0.6565656565656557 4.595959595959597,-0.6565656565656557 4.696969696969697,-0.6565656565656557 4.7979797979797985,-0.6565656565656557 4.898989898989901,-0.6565656565656557 5.000000000000002,-0.6565656565656557" data-type="line" data-label="" points="879.111111111111,621.6565656565657 888.6464646464647,612.1212121212121 898.181818181818,602.5858585858587 907.7171717171716,593.0505050505051 917.2525252525251,583.5151515151516 926.7878787878785,573.979797979798 936.3232323232323,573.979797979798 945.8585858585857,573.979797979798 955.3939393939393,573.979797979798 964.9292929292927,573.979797979798 974.4646464646464,573.979797979798 984,573.979797979798" fill="none" stroke="rgba(255,0,0,0.75)" stroke-width="11.327999999999996"/></g><g><polyline data-points="5.000000000000002,0.5555555555555567 4.898989898989901,0.6565656565656574 4.7979797979797985,0.7575757575757579 4.696969696969697,0.8585858585858596 4.595959595959597,0.9595959595959602 4.494949494949497,1.0606060606060617 4.393939393939394,1.1616161616161622 4.292929292929293,1.1616161616161622 4.191919191919193,1.1616161616161622 4.090909090909092,1.1616161616161622 3.989898989898992,1.1616161616161622 3.8888888888888893,1.1616161616161622 3.7878787878787885,1.1616161616161622 3.6868686868686877,1.1616161616161622 3.5858585858585874,1.1616161616161622 3.4848484848484866,1.1616161616161622 3.383838383838384,1.1616161616161622 3.2828282828282833,1.1616161616161622 3.181818181818183,1.1616161616161622 3.080808080808082,1.1616161616161622 2.9797979797979806,1.1616161616161622 2.87878787878788,1.1616161616161622 2.7777777777777786,1.1616161616161622 2.676767676767678,1.1616161616161622 2.575757575757577,1.1616161616161622 2.4747474747474754,1.1616161616161622 2.373737373737375,1.1616161616161622 2.2727272727272734,1.1616161616161622 2.1717171717171726,1.1616161616161622 2.070707070707072,1.1616161616161622 1.9696969696969702,1.1616161616161622 1.8686868686868696,1.1616161616161622 1.767676767676768,1.1616161616161622 1.6666666666666674,1.1616161616161622 1.5656565656565666,1.1616161616161622 1.4646464646464652,1.1616161616161622 1.3636363636363644,1.1616161616161622 1.262626262626263,1.1616161616161622 1.1616161616161622,1.1616161616161622 1.0606060606060617,1.1616161616161622 0.9595959595959602,1.1616161616161622 0.8585858585858596,1.1616161616161622 0.7575757575757579,1.1616161616161622 0.6565656565656574,1.1616161616161622 0.5555555555555567,1.1616161616161622 0.4545454545454551,1.1616161616161622 0.3535353535353544,1.1616161616161622 0.2525252525252529,1.1616161616161622 0.1515151515151522,1.1616161616161622 0.050505050505051545,1.1616161616161622 -0.05050505050505001,1.1616161616161622 -0.15151515151515066,1.1616161616161622 -0.2525252525252522,1.1616161616161622 -0.35353535353535287,1.1616161616161622 -0.4545454545454544,1.1616161616161622 -0.555555555555555,1.1616161616161622 -0.6565656565656557,1.1616161616161622 -0.7575757575757572,1.1616161616161622 -0.8585858585858579,1.1616161616161622 -0.9595959595959596,1.1616161616161622 -1.0606060606060603,1.1616161616161622 -1.1616161616161613,1.1616161616161622 -1.2626262626262625,1.1616161616161622 -1.363636363636363,1.1616161616161622 -1.4646464646464643,1.1616161616161622 -1.5656565656565653,1.1616161616161622 -1.6666666666666665,1.1616161616161622 -1.7676767676767675,1.1616161616161622 -1.8686868686868683,1.1616161616161622 -1.9696969696969693,1.1616161616161622 -2.07070707070707,1.1616161616161622 -2.1717171717171713,1.1616161616161622 -2.2727272727272725,1.1616161616161622 -2.3737373737373733,1.1616161616161622 -2.474747474747474,1.1616161616161622 -2.5757575757575752,1.1616161616161622 -2.6767676767676765,1.1616161616161622 -2.7777777777777777,1.1616161616161622 -2.8787878787878785,1.1616161616161622 -2.9797979797979792,1.1616161616161622 -3.0808080808080804,1.1616161616161622 -3.1818181818181817,1.1616161616161622 -3.2828282828282824,1.1616161616161622 -3.383838383838383,1.1616161616161622 -3.484848484848485,1.1616161616161622 -3.5858585858585856,1.1616161616161622 -3.6868686868686864,1.1616161616161622 -3.7878787878787876,1.1616161616161622 -3.8888888888888884,1.1616161616161622 -3.98989898989899,1.1616161616161622 -4.090909090909091,1.1616161616161622 -4.191919191919193,1.1616161616161622 -4.292929292929293,1.1616161616161622 -4.393939393939394,1.1616161616161622 -4.494949494949496,1.1616161616161622 -4.595959595959596,1.1616161616161622 -4.696969696969697,1.1616161616161622 -4.7979797979797985,1.1616161616161622 -4.898989898989899,1.1616161616161622 -5.000000000000001,1.1616161616161622" data-type="line" data-label="" points="984,459.5555555555556 974.4646464646464,450.0202020202021 964.9292929292927,440.4848484848486 955.3939393939393,430.94949494949503 945.8585858585857,421.4141414141415 936.3232323232323,411.87878787878793 926.7878787878785,402.3434343434344 917.2525252525251,402.3434343434344 907.7171717171716,402.3434343434344 898.181818181818,402.3434343434344 888.6464646464647,402.3434343434344 879.111111111111,402.3434343434344 869.5757575757575,402.3434343434344 860.0404040404039,402.3434343434344 850.5050505050505,402.3434343434344 840.969696969697,402.3434343434344 831.4343434343433,402.3434343434344 821.8989898989898,402.3434343434344 812.3636363636363,402.3434343434344 802.8282828282828,402.3434343434344 793.2929292929292,402.3434343434344 783.7575757575758,402.3434343434344 774.2222222222222,402.3434343434344 764.6868686868686,402.3434343434344 755.1515151515151,402.3434343434344 745.6161616161615,402.3434343434344 736.0808080808081,402.3434343434344 726.5454545454545,402.3434343434344 717.0101010101009,402.3434343434344 707.4747474747475,402.3434343434344 697.9393939393939,402.3434343434344 688.4040404040404,402.3434343434344 678.8686868686868,402.3434343434344 669.3333333333333,402.3434343434344 659.7979797979798,402.3434343434344 650.2626262626262,402.3434343434344 640.7272727272727,402.3434343434344 631.1919191919192,402.3434343434344 621.6565656565656,402.3434343434344 612.1212121212121,402.3434343434344 602.5858585858585,402.3434343434344 593.0505050505051,402.3434343434344 583.5151515151515,402.3434343434344 573.9797979797979,402.3434343434344 564.4444444444445,402.3434343434344 554.9090909090909,402.3434343434344 545.3737373737374,402.3434343434344 535.8383838383838,402.3434343434344 526.3030303030303,402.3434343434344 516.7676767676768,402.3434343434344 507.2323232323232,402.3434343434344 497.69696969696975,402.3434343434344 488.16161616161617,402.3434343434344 478.62626262626264,402.3434343434344 469.09090909090907,402.3434343434344 459.55555555555554,402.3434343434344 450.0202020202021,402.3434343434344 440.4848484848485,402.3434343434344 430.949494949495,402.3434343434344 421.4141414141414,402.3434343434344 411.8787878787879,402.3434343434344 402.34343434343435,402.3434343434344 392.80808080808083,402.3434343434344 383.2727272727273,402.3434343434344 373.7373737373738,402.3434343434344 364.2020202020202,402.3434343434344 354.6666666666667,402.3434343434344 345.13131313131316,402.3434343434344 335.59595959595964,402.3434343434344 326.0606060606061,402.3434343434344 316.5252525252526,402.3434343434344 306.9898989898991,402.3434343434344 297.4545454545455,402.3434343434344 287.91919191919203,402.3434343434344 278.38383838383845,402.3434343434344 268.84848484848493,402.3434343434344 259.3131313131314,402.3434343434344 249.77777777777783,402.3434343434344 240.2424242424243,402.3434343434344 230.70707070707084,402.3434343434344 221.17171717171726,402.3434343434344 211.63636363636374,402.3434343434344 202.10101010101022,402.3434343434344 192.5656565656567,402.3434343434344 183.03030303030312,402.3434343434344 173.4949494949496,402.3434343434344 163.95959595959607,402.3434343434344 154.42424242424255,402.3434343434344 144.88888888888903,402.3434343434344 135.35353535353545,402.3434343434344 125.81818181818193,402.3434343434344 116.28282828282829,402.3434343434344 106.74747474747483,402.3434343434344 97.21212121212136,402.3434343434344 87.67676767676772,402.3434343434344 78.14141414141426,402.3434343434344 68.60606060606068,402.3434343434344 59.07070707070716,402.3434343434344 49.53535353535369,402.3434343434344 40.00000000000006,402.3434343434344" fill="none" stroke="rgba(255,0,0,0.75)" stroke-width="11.327999999999996"/></g><g><polyline data-points="-3.7878787878787876,5.000000000000002 -3.6868686868686864,4.898989898989901 -3.5858585858585856,4.7979797979797985 -3.484848484848485,4.696969696969697 -3.383838383838383,4.595959595959597 -3.2828282828282824,4.494949494949497 -3.1818181818181817,4.393939393939394 -3.0808080808080804,4.292929292929293 -2.9797979797979792,4.191919191919193 -2.8787878787878785,4.090909090909092 -2.7777777777777777,3.989898989898992 -2.6767676767676765,3.8888888888888893 -2.5757575757575752,3.7878787878787885 -2.474747474747474,3.6868686868686877 -2.3737373737373733,3.5858585858585874 -2.3737373737373733,3.4848484848484866 -2.3737373737373733,3.383838383838384 -2.3737373737373733,3.2828282828282833 -2.3737373737373733,3.181818181818183 -2.3737373737373733,3.080808080808082 -2.3737373737373733,2.9797979797979806 -2.3737373737373733,2.87878787878788 -2.3737373737373733,2.7777777777777786 -2.3737373737373733,2.676767676767678 -2.3737373737373733,2.575757575757577 -2.3737373737373733,2.4747474747474754 -2.3737373737373733,2.373737373737375 -2.3737373737373733,2.2727272727272734 -2.3737373737373733,2.1717171717171726 -2.3737373737373733,2.070707070707072 -2.3737373737373733,1.9696969696969702 -2.3737373737373733,1.8686868686868696 -2.3737373737373733,1.767676767676768 -2.3737373737373733,1.6666666666666674 -2.3737373737373733,1.5656565656565666 -2.3737373737373733,1.4646464646464652 -2.3737373737373733,1.3636363636363644 -2.3737373737373733,1.262626262626263 -2.3737373737373733,1.1616161616161622 -2.3737373737373733,1.0606060606060617 -2.3737373737373733,0.9595959595959602 -2.3737373737373733,0.8585858585858596 -2.3737373737373733,0.7575757575757579 -2.3737373737373733,0.6565656565656574 -2.3737373737373733,0.5555555555555567 -2.3737373737373733,0.4545454545454551 -2.3737373737373733,0.3535353535353544 -2.3737373737373733,0.2525252525252529 -2.3737373737373733,0.1515151515151522 -2.3737373737373733,0.050505050505051545 -2.3737373737373733,-0.05050505050505001 -2.3737373737373733,-0.15151515151515066 -2.3737373737373733,-0.2525252525252522 -2.3737373737373733,-0.35353535353535287 -2.3737373737373733,-0.4545454545454544 -2.3737373737373733,-0.555555555555555 -2.3737373737373733,-0.6565656565656557 -2.3737373737373733,-0.7575757575757572 -2.3737373737373733,-0.8585858585858579 -2.3737373737373733,-0.9595959595959596 -2.3737373737373733,-1.0606060606060603 -2.3737373737373733,-1.1616161616161613" data-type="line" data-label="" points="154.42424242424255,40.000000000000114 163.95959595959607,49.53535353535369 173.4949494949496,59.07070707070733 183.03030303030312,68.60606060606085 192.5656565656567,78.14141414141432 202.10101010101022,87.67676767676778 211.63636363636374,97.21212121212153 221.17171717171726,106.747474747475 230.70707070707084,116.28282828282846 240.2424242424243,125.81818181818198 249.77777777777783,135.35353535353545 259.3131313131314,144.88888888888908 268.84848484848493,154.4242424242426 278.38383838383845,163.95959595959613 287.91919191919203,173.4949494949496 287.91919191919203,183.03030303030312 287.91919191919203,192.56565656565675 287.91919191919203,202.10101010101027 287.91919191919203,211.63636363636374 287.91919191919203,221.17171717171726 287.91919191919203,230.70707070707084 287.91919191919203,240.24242424242436 287.91919191919203,249.77777777777794 287.91919191919203,259.3131313131314 287.91919191919203,268.84848484848493 287.91919191919203,278.38383838383857 287.91919191919203,287.91919191919203 287.91919191919203,297.4545454545456 287.91919191919203,306.9898989898991 287.91919191919203,316.5252525252526 287.91919191919203,326.06060606060623 287.91919191919203,335.5959595959597 287.91919191919203,345.1313131313133 287.91919191919203,354.66666666666674 287.91919191919203,364.2020202020203 287.91919191919203,373.73737373737384 287.91919191919203,383.27272727272737 287.91919191919203,392.80808080808094 287.91919191919203,402.3434343434344 287.91919191919203,411.87878787878793 287.91919191919203,421.4141414141415 287.91919191919203,430.94949494949503 287.91919191919203,440.4848484848486 287.91919191919203,450.0202020202021 287.91919191919203,459.5555555555556 287.91919191919203,469.0909090909092 287.91919191919203,478.6262626262627 287.91919191919203,488.1616161616163 287.91919191919203,497.69696969696975 287.91919191919203,507.23232323232327 287.91919191919203,516.7676767676768 287.91919191919203,526.3030303030304 287.91919191919203,535.838383838384 287.91919191919203,545.3737373737374 287.91919191919203,554.909090909091 287.91919191919203,564.4444444444445 287.91919191919203,573.979797979798 287.91919191919203,583.5151515151516 287.91919191919203,593.0505050505051 287.91919191919203,602.5858585858587 287.91919191919203,612.1212121212121 287.91919191919203,621.6565656565657" fill="none" stroke="rgba(0,0,255,0.75)" stroke-width="11.327999999999996"/></g><g><polyline data-points="-2.3737373737373733,-1.1616161616161613 -2.2727272727272725,-1.2626262626262625 -2.1717171717171713,-1.363636363636363 -2.07070707070707,-1.4646464646464643 -1.9696969696969693,-1.5656565656565653 -1.8686868686868683,-1.6666666666666665 -1.7676767676767675,-1.7676767676767675 -1.6666666666666665,-1.8686868686868683 -1.5656565656565653,-1.9696969696969693 -1.4646464646464643,-2.07070707070707 -1.363636363636363,-2.1717171717171713 -1.2626262626262625,-2.2727272727272725 -1.1616161616161613,-2.3737373737373733 -1.0606060606060603,-2.474747474747474 -0.9595959595959596,-2.5757575757575752 -0.8585858585858579,-2.6767676767676765 -0.7575757575757572,-2.7777777777777777 -0.6565656565656557,-2.8787878787878785 -0.555555555555555,-2.9797979797979792 -0.4545454545454544,-3.0808080808080804 -0.35353535353535287,-3.1818181818181817 -0.2525252525252522,-3.2828282828282824 -0.15151515151515066,-3.383838383838383 -0.05050505050505001,-3.484848484848485 0.050505050505051545,-3.5858585858585856 0.1515151515151522,-3.6868686868686864 0.2525252525252529,-3.7878787878787876 0.3535353535353544,-3.8888888888888884 0.4545454545454551,-3.98989898989899 0.5555555555555567,-4.090909090909091 0.6565656565656574,-4.191919191919193 0.7575757575757579,-4.292929292929293 0.8585858585858596,-4.393939393939394 0.9595959595959602,-4.494949494949496 1.0606060606060617,-4.595959595959596 1.1616161616161622,-4.696969696969697 1.262626262626263,-4.7979797979797985 1.3636363636363644,-4.898989898989899 1.4646464646464652,-5.000000000000001 1.5656565656565666,-5.000000000000001 1.6666666666666674,-5.000000000000001 1.767676767676768,-5.000000000000001 1.8686868686868696,-5.000000000000001 1.9696969696969702,-5.000000000000001 2.070707070707072,-5.000000000000001 2.1717171717171726,-5.000000000000001 2.2727272727272734,-5.000000000000001 2.373737373737375,-5.000000000000001 2.4747474747474754,-5.000000000000001" data-type="line" data-label="" points="287.91919191919203,621.6565656565657 297.4545454545455,631.1919191919193 306.9898989898991,640.7272727272727 316.5252525252526,650.2626262626263 326.0606060606061,659.7979797979798 335.59595959595964,669.3333333333334 345.13131313131316,678.8686868686868 354.6666666666667,688.4040404040404 364.2020202020202,697.939393939394 373.7373737373738,707.4747474747475 383.2727272727273,717.010101010101 392.80808080808083,726.5454545454545 402.34343434343435,736.0808080808081 411.8787878787879,745.6161616161615 421.4141414141414,755.1515151515151 430.949494949495,764.6868686868687 440.4848484848485,774.2222222222222 450.0202020202021,783.7575757575758 459.55555555555554,793.2929292929292 469.09090909090907,802.8282828282828 478.62626262626264,812.3636363636363 488.16161616161617,821.8989898989898 497.69696969696975,831.4343434343434 507.2323232323232,840.969696969697 516.7676767676768,850.5050505050505 526.3030303030303,860.0404040404039 535.8383838383838,869.5757575757575 545.3737373737374,879.1111111111111 554.9090909090909,888.6464646464647 564.4444444444445,898.1818181818181 573.9797979797979,907.7171717171718 583.5151515151515,917.2525252525252 593.0505050505051,926.7878787878788 602.5858585858585,936.3232323232323 612.1212121212121,945.8585858585858 621.6565656565656,955.3939393939394 631.1919191919192,964.9292929292928 640.7272727272727,974.4646464646464 650.2626262626262,984 659.7979797979798,984 669.3333333333333,984 678.8686868686868,984 688.4040404040404,984 697.9393939393939,984 707.4747474747475,984 717.0101010101009,984 726.5454545454545,984 736.0808080808081,984 745.6161616161615,984" fill="none" stroke="rgba(255,0,0,0.75)" stroke-width="11.327999999999996"/></g><g><rect data-type="rect" data-label="" data-x="0" data-y="0" x="40.000000000000114" y="40.000000000000284" width="943.9999999999997" height="943.9999999999998" fill="none" stroke="gray" stroke-width="0.010593220338983056"/></g><g><rect data-type="rect" data-label="" data-x="0" data-y="0" x="40.000000000000114" y="40.000000000000284" width="943.9999999999997" height="943.9999999999998" fill="none" stroke="rgba(15, 23, 42, 0.8)" stroke-width="0.010593220338983056"/></g><circle data-type="circle" data-label="" data-x="3.989898989898992" data-y="-0.7575757575757572" cx="888.6464646464647" cy="583.5151515151516" r="14.159999999999995" fill="rgba(0,0,0,0.3)" stroke="black" stroke-width="0.010593220338983056"/><circle data-type="circle" data-label="" data-x="3.8888888888888893" data-y="-1.1616161616161613" cx="879.111111111111" cy="621.6565656565657" r="14.159999999999995" fill="rgba(0,0,0,0.3)" stroke="black" stroke-width="0.010593220338983056"/><circle data-type="circle" data-label="" data-x="-2.3737373737373733" data-y="-1.1616161616161613" cx="287.91919191919203" cy="621.6565656565657" r="14.159999999999995" fill="rgba(0,0,0,0.3)" stroke="black" stroke-width="0.010593220338983056"/><g id="crosshair" style="display: none"><line id="crosshair-h" y1="0" y2="1024" stroke="#666" stroke-width="0.5"/><line id="crosshair-v" x1="0" x2="1024" stroke="#666" stroke-width="0.5"/><text id="coordinates" font-family="monospace" font-size="12" fill="#666"></text></g><script><![CDATA[
              document.currentScript.parentElement.addEventListener('mousemove', (e) => {
                const svg = e.currentTarget;
                const rect = svg.getBoundingClientRect();
                const x = e.clientX - rect.left;
                const y = e.clientY - rect.top;
                const crosshair = svg.getElementById('crosshair');
                const h = svg.getElementById('crosshair-h');
                const v = svg.getElementById('crosshair-v');
                const coords = svg.getElementById('coordinates');
                
                crosshair.style.display = 'block';
                h.setAttribute('x1', '0');
                h.setAttribute('x2', '1024');
                h.setAttribute('y1', y);
                h.setAttribute('y2', y);
                v.setAttribute('x1', x);
                v.setAttribute('x2', x);
                v.setAttribute('y1', '0');
                v.setAttribute('y2', '1024');

                // Calculate real coordinates using inverse transformation
                const matrix = {"a":94.39999999999996,"c":0,"e":511.99999999999994,"b":0,"d":-94.39999999999996,"f":512.0000000000001};
                // Manually invert and apply the affine transform
                // Since we only use translate and scale, we can directly compute:
                // x' = (x - tx) / sx
                // y' = (y - ty) / sy
                const sx = matrix.a;
                const sy = matrix.d;
                const tx = matrix.e; 
                const ty = matrix.f;
                const realPoint = {
                  x: (x - tx) / sx,
                  y: (y - ty) / sy // Flip y back since we used negative scale
                }
                
                coords.textContent = `(${realPoint.x.toFixed(2)}, ${realPoint.y.toFixed(2)})`;
                coords.setAttribute('x', (x + 5).toString());
                coords.setAttribute('y', (y - 5).toString());
              });
              document.currentScript.parentElement.addEventListener('mouseleave', () => {
                document.currentScript.parentElement.getElementById('crosshair').style.display = 'none';
              });
            ]]></script></svg>