<svg width="1024" height="1024" viewBox="0 0 1024 1024" xmlns="http://www.w3.org/2000/svg"><rect width="100%" height="100%" fill="white"/><g><circle data-type="point" data-label="conn_000" data-x="-3.68" data-y="-5" cx="164.60800000000006" cy="984" r="14.16" fill="blue"/></g><g><circle data-type="point" data-label="conn_000" data-x="2.48" data-y="5" cx="746.1119999999999" cy="40.000000000000284" r="14.16" fill="red"/></g><g><circle data-type="point" data-label="conn_001" data-x="3.7600000000000002" data-y="-5" cx="866.9439999999998" cy="984" r="14.16" fill="blue"/></g><g><circle data-type="point" data-label="conn_001" data-x="-5" data-y="0.64" cx="40.000000000000114" cy="451.5840000000001" r="14.16" fill="red"/></g><g><circle data-type="point" data-label="conn_002" data-x="-5" data-y="-0.64" cx="40.000000000000114" cy="572.416" r="14.16" fill="blue"/></g><g><circle data-type="point" data-label="conn_002" data-x="5" data-y="-2.08" cx="983.9999999999998" cy="708.3520000000001" r="14.16" fill="blue"/></g><g><circle data-type="point" data-label="conn_003" data-x="5" data-y="-3.04" cx="983.9999999999998" cy="798.976" r="14.16" fill="blue"/></g><g><circle data-type="point" data-label="conn_003" data-x="3.62" data-y="5" cx="853.7279999999998" cy="40.000000000000284" r="14.16" fill="blue"/></g><g><circle data-type="point" data-label="conn_004" data-x="-5" data-y="-1.8" cx="40.000000000000114" cy="681.9200000000001" r="14.16" fill="red"/></g><g><circle data-type="point" data-label="conn_004" data-x="5" data-y="-1.3800000000000001" cx="983.9999999999998" cy="642.272" r="14.16" fill="blue"/></g><g><circle data-type="point" data-label="conn_005" data-x="5" data-y="-0.12" cx="983.9999999999998" cy="523.3280000000001" r="14.16" fill="blue"/></g><g><circle data-type="point" data-label="conn_005" data-x="-5" data-y="4.88" cx="40.000000000000114" cy="51.328000000000316" r="14.16" fill="red"/></g><g><circle data-type="point" data-label="conn_006" data-x="2.62" data-y="5" cx="759.3279999999999" cy="40.000000000000284" r="14.16" fill="red"/></g><g><circle data-type="point" data-label="conn_006" data-x="1.56" data-y="-5" cx="659.2639999999999" cy="984" r="14.16" fill="red"/></g><g><polyline data-points="5.000000000000002,-0.15151515151515066 4.898989898989901,-0.05050505050505001 4.7979797979797985,0.050505050505051545 4.696969696969697,0.1515151515151522 4.595959595959597,0.2525252525252529 4.494949494949497,0.3535353535353544 4.393939393939394,0.4545454545454551 4.292929292929293,0.5555555555555567 4.191919191919193,0.6565656565656574 4.090909090909092,0.7575757575757579 3.989898989898992,0.8585858585858596 3.8888888888888893,0.9595959595959602 3.7878787878787885,1.0606060606060617 3.6868686868686877,1.1616161616161622 3.5858585858585874,1.262626262626263 3.4848484848484866,1.3636363636363644 3.383838383838384,1.4646464646464652 3.2828282828282833,1.5656565656565666 3.181818181818183,1.6666666666666674 3.080808080808082,1.767676767676768 2.9797979797979806,1.8686868686868696 2.87878787878788,1.9696969696969702 2.7777777777777786,2.070707070707072 2.676767676767678,2.1717171717171726 2.575757575757577,2.2727272727272734 2.4747474747474754,2.373737373737375 2.373737373737375,2.4747474747474754 2.2727272727272734,2.575757575757577 2.1717171717171726,2.676767676767678 2.070707070707072,2.7777777777777786 1.9696969696969702,2.87878787878788 1.8686868686868696,2.9797979797979806 1.767676767676768,3.080808080808082 1.6666666666666674,3.181818181818183 1.5656565656565666,3.2828282828282833 1.4646464646464652,3.383838383838384 1.3636363636363644,3.4848484848484866 1.262626262626263,3.5858585858585874 1.1616161616161622,3.6868686868686877 1.0606060606060617,3.7878787878787885 0.9595959595959602,3.8888888888888893 0.8585858585858596,3.989898989898992 0.7575757575757579,3.989898989898992 0.6565656565656574,3.989898989898992 0.5555555555555567,3.989898989898992 0.4545454545454551,3.989898989898992 0.3535353535353544,3.989898989898992 0.2525252525252529,3.989898989898992 0.1515151515151522,3.989898989898992 0.050505050505051545,3.989898989898992 -0.05050505050505001,3.989898989898992 -0.15151515151515066,3.989898989898992 -0.2525252525252522,3.989898989898992 -0.35353535353535287,3.989898989898992 -0.4545454545454544,3.989898989898992 -0.555555555555555,3.989898989898992 -0.6565656565656557,3.989898989898992 -0.7575757575757572,3.989898989898992 -0.8585858585858579,3.989898989898992 -0.9595959595959596,3.989898989898992 -1.0606060606060603,3.989898989898992 -1.1616161616161613,3.989898989898992 -1.2626262626262625,3.989898989898992 -1.363636363636363,3.989898989898992 -1.4646464646464643,3.989898989898992 -1.5656565656565653,3.989898989898992 -1.6666666666666665,3.989898989898992 -1.7676767676767675,3.989898989898992 -1.8686868686868683,3.989898989898992 -1.9696969696969693,3.989898989898992 -2.07070707070707,3.989898989898992 -2.1717171717171713,3.989898989898992 -2.2727272727272725,3.989898989898992 -2.3737373737373733,3.989898989898992 -2.474747474747474,3.989898989898992 -2.5757575757575752,3.989898989898992 -2.6767676767676765,3.989898989898992 -2.7777777777777777,3.989898989898992 -2.8787878787878785,3.989898989898992 -2.9797979797979792,3.989898989898992 -3.0808080808080804,3.989898989898992 -3.1818181818181817,3.989898989898992 -3.2828282828282824,3.989898989898992 -3.383838383838383,3.989898989898992 -3.484848484848485,3.989898989898992 -3.5858585858585856,3.989898989898992 -3.6868686868686864,3.989898989898992" data-type="line" data-label="" points="984,526.3030303030304 974.4646464646464,516.7676767676768 964.9292929292927,507.23232323232327 955.3939393939393,497.69696969696975 945.8585858585857,488.1616161616163 936.3232323232323,478.6262626262627 926.7878787878785,469.0909090909092 917.2525252525251,459.5555555555556 907.7171717171716,450.0202020202021 898.181818181818,440.4848484848486 888.6464646464647,430.94949494949503 879.111111111111,421.4141414141415 869.5757575757575,411.87878787878793 860.0404040404039,402.3434343434344 850.5050505050505,392.80808080808094 840.969696969697,383.27272727272737 831.4343434343433,373.73737373737384 821.8989898989898,364.2020202020203 812.3636363636363,354.66666666666674 802.8282828282828,345.1313131313133 793.2929292929292,335.5959595959597 783.7575757575758,326.06060606060623 774.2222222222222,316.5252525252526 764.6868686868686,306.9898989898991 755.1515151515151,297.4545454545456 745.6161616161615,287.91919191919203 736.0808080808081,278.38383838383857 726.5454545454545,268.84848484848493 717.0101010101009,259.3131313131314 707.4747474747475,249.77777777777794 697.9393939393939,240.24242424242436 688.4040404040404,230.70707070707084 678.8686868686868,221.17171717171726 669.3333333333333,211.63636363636374 659.7979797979798,202.10101010101027 650.2626262626262,192.56565656565675 640.7272727272727,183.03030303030312 631.1919191919192,173.4949494949496 621.6565656565656,163.95959595959613 612.1212121212121,154.4242424242426 602.5858585858585,144.88888888888908 593.0505050505051,135.35353535353545 583.5151515151515,135.35353535353545 573.9797979797979,135.35353535353545 564.4444444444445,135.35353535353545 554.9090909090909,135.35353535353545 545.3737373737374,135.35353535353545 535.8383838383838,135.35353535353545 526.3030303030303,135.35353535353545 516.7676767676768,135.35353535353545 507.2323232323232,135.35353535353545 497.69696969696975,135.35353535353545 488.16161616161617,135.35353535353545 478.62626262626264,135.35353535353545 469.09090909090907,135.35353535353545 459.55555555555554,135.35353535353545 450.0202020202021,135.35353535353545 440.4848484848485,135.35353535353545 430.949494949495,135.35353535353545 421.4141414141414,135.35353535353545 411.8787878787879,135.35353535353545 402.34343434343435,135.35353535353545 392.80808080808083,135.35353535353545 383.2727272727273,135.35353535353545 373.7373737373738,135.35353535353545 364.2020202020202,135.35353535353545 354.6666666666667,135.35353535353545 345.13131313131316,135.35353535353545 335.59595959595964,135.35353535353545 326.0606060606061,135.35353535353545 316.5252525252526,135.35353535353545 306.9898989898991,135.35353535353545 297.4545454545455,135.35353535353545 287.91919191919203,135.35353535353545 278.38383838383845,135.35353535353545 268.84848484848493,135.35353535353545 259.3131313131314,135.35353535353545 249.77777777777783,135.35353535353545 240.2424242424243,135.35353535353545 230.70707070707084,135.35353535353545 221.17171717171726,135.35353535353545 211.63636363636374,135.35353535353545 202.10101010101022,135.35353535353545 192.5656565656567,135.35353535353545 183.03030303030312,135.35353535353545 173.4949494949496,135.35353535353545 163.95959595959607,135.35353535353545" fill="none" stroke="rgba(0,0,255,0.75)" stroke-width="11.327999999999996"/></g><g><polyline data-points="-3.6868686868686864,3.989898989898992 -3.7878787878787876,4.090909090909092 -3.8888888888888884,4.191919191919193 -3.98989898989899,4.292929292929293 -4.090909090909091,4.393939393939394 -4.191919191919193,4.494949494949497 -4.292929292929293,4.595959595959597 -4.393939393939394,4.696969696969697 -4.494949494949496,4.7979797979797985 -4.595959595959596,4.898989898989901 -4.696969696969697,4.898989898989901 -4.7979797979797985,4.898989898989901 -4.898989898989899,4.898989898989901 -5.000000000000001,4.898989898989901" data-type="line" data-label="" points="163.95959595959607,135.35353535353545 154.42424242424255,125.81818181818198 144.88888888888903,116.28282828282846 135.35353535353545,106.747474747475 125.81818181818193,97.21212121212153 116.28282828282829,87.67676767676778 106.74747474747483,78.14141414141432 97.21212121212136,68.60606060606085 87.67676767676772,59.07070707070733 78.14141414141426,49.53535353535369 68.60606060606068,49.53535353535369 59.07070707070716,49.53535353535369 49.53535353535369,49.53535353535369 40.00000000000006,49.53535353535369" fill="none" stroke="rgba(255,0,0,0.75)" stroke-width="11.327999999999996"/></g><g><polyline data-points="3.7878787878787885,-5.000000000000001 3.6868686868686877,-4.898989898989899 3.5858585858585874,-4.7979797979797985 3.4848484848484866,-4.696969696969697 3.383838383838384,-4.595959595959596 3.2828282828282833,-4.494949494949496 3.181818181818183,-4.393939393939394 3.080808080808082,-4.292929292929293 2.9797979797979806,-4.191919191919193 2.87878787878788,-4.090909090909091 2.7777777777777786,-3.98989898989899 2.676767676767678,-3.8888888888888884 2.575757575757577,-3.7878787878787876 2.4747474747474754,-3.6868686868686864 2.373737373737375,-3.5858585858585856 2.2727272727272734,-3.484848484848485 2.1717171717171726,-3.383838383838383 2.070707070707072,-3.2828282828282824 1.9696969696969702,-3.1818181818181817 1.8686868686868696,-3.0808080808080804 1.767676767676768,-2.9797979797979792 1.6666666666666674,-2.8787878787878785 1.5656565656565666,-2.7777777777777777 1.4646464646464652,-2.6767676767676765 1.3636363636363644,-2.5757575757575752 1.262626262626263,-2.474747474747474 1.1616161616161622,-2.3737373737373733 1.0606060606060617,-2.2727272727272725 0.9595959595959602,-2.1717171717171713 0.8585858585858596,-2.07070707070707 0.7575757575757579,-1.9696969696969693 0.6565656565656574,-1.8686868686868683 0.5555555555555567,-1.7676767676767675 0.4545454545454551,-1.6666666666666665 0.3535353535353544,-1.5656565656565653 0.2525252525252529,-1.4646464646464643 0.1515151515151522,-1.363636363636363 0.050505050505051545,-1.2626262626262625 -0.05050505050505001,-1.1616161616161613 -0.15151515151515066,-1.0606060606060603 -0.2525252525252522,-0.9595959595959596 -0.35353535353535287,-0.8585858585858579 -0.4545454545454544,-0.7575757575757572 -0.555555555555555,-0.6565656565656557 -0.6565656565656557,-0.555555555555555 -0.7575757575757572,-0.4545454545454544 -0.8585858585858579,-0.35353535353535287 -0.9595959595959596,-0.2525252525252522 -1.0606060606060603,-0.15151515151515066 -1.1616161616161613,-0.05050505050505001 -1.2626262626262625,0.050505050505051545 -1.363636363636363,0.1515151515151522 -1.4646464646464643,0.2525252525252529 -1.5656565656565653,0.3535353535353544 -1.6666666666666665,0.4545454545454551 -1.7676767676767675,0.5555555555555567 -1.8686868686868683,0.6565656565656574 -1.9696969696969693,0.6565656565656574 -2.07070707070707,0.6565656565656574 -2.1717171717171713,0.6565656565656574 -2.2727272727272725,0.6565656565656574 -2.3737373737373733,0.6565656565656574 -2.474747474747474,0.6565656565656574 -2.5757575757575752,0.6565656565656574 -2.6767676767676765,0.6565656565656574 -2.7777777777777777,0.6565656565656574 -2.8787878787878785,0.6565656565656574 -2.9797979797979792,0.6565656565656574 -3.0808080808080804,0.6565656565656574 -3.1818181818181817,0.6565656565656574 -3.2828282828282824,0.6565656565656574 -3.383838383838383,0.6565656565656574 -3.484848484848485,0.6565656565656574 -3.5858585858585856,0.6565656565656574 -3.6868686868686864,0.6565656565656574 -3.7878787878787876,0.6565656565656574 -3.8888888888888884,0.6565656565656574 -3.98989898989899,0.6565656565656574" data-type="line" data-label="" points="869.5757575757575,984 860.0404040404039,974.4646464646464 850.5050505050505,964.9292929292928 840.969696969697,955.3939393939394 831.4343434343433,945.8585858585858 821.8989898989898,936.3232323232323 812.3636363636363,926.7878787878788 802.8282828282828,917.2525252525252 793.2929292929292,907.7171717171718 783.7575757575758,898.1818181818181 774.2222222222222,888.6464646464647 764.6868686868686,879.1111111111111 755.1515151515151,869.5757575757575 745.6161616161615,860.0404040404039 736.0808080808081,850.5050505050505 726.5454545454545,840.969696969697 717.0101010101009,831.4343434343434 707.4747474747475,821.8989898989898 697.9393939393939,812.3636363636363 688.4040404040404,802.8282828282828 678.8686868686868,793.2929292929292 669.3333333333333,783.7575757575758 659.7979797979798,774.2222222222222 650.2626262626262,764.6868686868687 640.7272727272727,755.1515151515151 631.1919191919192,745.6161616161615 621.6565656565656,736.0808080808081 612.1212121212121,726.5454545454545 602.5858585858585,717.010101010101 593.0505050505051,707.4747474747475 583.5151515151515,697.939393939394 573.9797979797979,688.4040404040404 564.4444444444445,678.8686868686868 554.9090909090909,669.3333333333334 545.3737373737374,659.7979797979798 535.8383838383838,650.2626262626263 526.3030303030303,640.7272727272727 516.7676767676768,631.1919191919193 507.2323232323232,621.6565656565657 497.69696969696975,612.1212121212121 488.16161616161617,602.5858585858587 478.62626262626264,593.0505050505051 469.09090909090907,583.5151515151516 459.55555555555554,573.979797979798 450.0202020202021,564.4444444444445 440.4848484848485,554.909090909091 430.949494949495,545.3737373737374 421.4141414141414,535.838383838384 411.8787878787879,526.3030303030304 402.34343434343435,516.7676767676768 392.80808080808083,507.23232323232327 383.2727272727273,497.69696969696975 373.7373737373738,488.1616161616163 364.2020202020202,478.6262626262627 354.6666666666667,469.0909090909092 345.13131313131316,459.5555555555556 335.59595959595964,450.0202020202021 326.0606060606061,450.0202020202021 316.5252525252526,450.0202020202021 306.9898989898991,450.0202020202021 297.4545454545455,450.0202020202021 287.91919191919203,450.0202020202021 278.38383838383845,450.0202020202021 268.84848484848493,450.0202020202021 259.3131313131314,450.0202020202021 249.77777777777783,450.0202020202021 240.2424242424243,450.0202020202021 230.70707070707084,450.0202020202021 221.17171717171726,450.0202020202021 211.63636363636374,450.0202020202021 202.10101010101022,450.0202020202021 192.5656565656567,450.0202020202021 183.03030303030312,450.0202020202021 173.4949494949496,450.0202020202021 163.95959595959607,450.0202020202021 154.42424242424255,450.0202020202021 144.88888888888903,450.0202020202021 135.35353535353545,450.0202020202021" fill="none" stroke="rgba(0,0,255,0.75)" stroke-width="11.327999999999996"/></g><g><polyline data-points="-3.98989898989899,0.6565656565656574 -4.090909090909091,0.6565656565656574 -4.191919191919193,0.6565656565656574 -4.292929292929293,0.6565656565656574 -4.393939393939394,0.6565656565656574 -4.494949494949496,0.6565656565656574 -4.595959595959596,0.6565656565656574 -4.696969696969697,0.6565656565656574 -4.7979797979797985,0.6565656565656574 -4.898989898989899,0.6565656565656574 -5.000000000000001,0.6565656565656574" data-type="line" data-label="" points="135.35353535353545,450.0202020202021 125.81818181818193,450.0202020202021 116.28282828282829,450.0202020202021 106.74747474747483,450.0202020202021 97.21212121212136,450.0202020202021 87.67676767676772,450.0202020202021 78.14141414141426,450.0202020202021 68.60606060606068,450.0202020202021 59.07070707070716,450.0202020202021 49.53535353535369,450.0202020202021 40.00000000000006,450.0202020202021" fill="none" stroke="rgba(255,0,0,0.75)" stroke-width="11.327999999999996"/></g><g><polyline data-points="-3.6868686868686864,-5.000000000000001 -3.5858585858585856,-4.898989898989899 -3.484848484848485,-4.7979797979797985 -3.383838383838383,-4.696969696969697 -3.2828282828282824,-4.595959595959596 -3.1818181818181817,-4.494949494949496 -3.0808080808080804,-4.393939393939394 -2.9797979797979792,-4.292929292929293 -2.8787878787878785,-4.191919191919193 -2.7777777777777777,-4.090909090909091 -2.6767676767676765,-3.98989898989899 -2.5757575757575752,-3.8888888888888884 -2.474747474747474,-3.7878787878787876 -2.3737373737373733,-3.6868686868686864 -2.2727272727272725,-3.5858585858585856 -2.1717171717171713,-3.484848484848485 -2.07070707070707,-3.383838383838383 -1.9696969696969693,-3.2828282828282824 -1.8686868686868683,-3.1818181818181817 -1.7676767676767675,-3.0808080808080804 -1.6666666666666665,-2.9797979797979792 -1.5656565656565653,-2.8787878787878785 -1.4646464646464643,-2.7777777777777777 -1.363636363636363,-2.6767676767676765 -1.2626262626262625,-2.5757575757575752 -1.1616161616161613,-2.474747474747474 -1.0606060606060603,-2.3737373737373733 -0.9595959595959596,-2.2727272727272725 -0.8585858585858579,-2.1717171717171713 -0.7575757575757572,-2.07070707070707 -0.6565656565656557,-1.9696969696969693 -0.555555555555555,-1.8686868686868683 -0.4545454545454544,-1.7676767676767675 -0.35353535353535287,-1.6666666666666665 -0.2525252525252522,-1.5656565656565653 -0.15151515151515066,-1.5656565656565653" data-type="line" data-label="" points="163.95959595959607,984 173.4949494949496,974.4646464646464 183.03030303030312,964.9292929292928 192.5656565656567,955.3939393939394 202.10101010101022,945.8585858585858 211.63636363636374,936.3232323232323 221.17171717171726,926.7878787878788 230.70707070707084,917.2525252525252 240.2424242424243,907.7171717171718 249.77777777777783,898.1818181818181 259.3131313131314,888.6464646464647 268.84848484848493,879.1111111111111 278.38383838383845,869.5757575757575 287.91919191919203,860.0404040404039 297.4545454545455,850.5050505050505 306.9898989898991,840.969696969697 316.5252525252526,831.4343434343434 326.0606060606061,821.8989898989898 335.59595959595964,812.3636363636363 345.13131313131316,802.8282828282828 354.6666666666667,793.2929292929292 364.2020202020202,783.7575757575758 373.7373737373738,774.2222222222222 383.2727272727273,764.6868686868687 392.80808080808083,755.1515151515151 402.34343434343435,745.6161616161615 411.8787878787879,736.0808080808081 421.4141414141414,726.5454545454545 430.949494949495,717.010101010101 440.4848484848485,707.4747474747475 450.0202020202021,697.939393939394 459.55555555555554,688.4040404040404 469.09090909090907,678.8686868686868 478.62626262626264,669.3333333333334 488.16161616161617,659.7979797979798 497.69696969696975,659.7979797979798" fill="none" stroke="rgba(0,0,255,0.75)" stroke-width="11.327999999999996"/></g><g><polyline data-points="-0.15151515151515066,-1.5656565656565653 -0.05050505050505001,-1.4646464646464643 0.050505050505051545,-1.363636363636363 0.1515151515151522,-1.2626262626262625 0.2525252525252529,-1.1616161616161613 0.3535353535353544,-1.0606060606060603 0.4545454545454551,-0.9595959595959596 0.5555555555555567,-0.8585858585858579 0.6565656565656574,-0.7575757575757572 0.7575757575757579,-0.6565656565656557 0.8585858585858596,-0.555555555555555 0.9595959595959602,-0.4545454545454544 1.0606060606060617,-0.35353535353535287 1.1616161616161622,-0.2525252525252522 1.262626262626263,-0.15151515151515066 1.3636363636363644,-0.05050505050505001 1.3636363636363644,0.050505050505051545 1.3636363636363644,0.1515151515151522 1.3636363636363644,0.2525252525252529 1.3636363636363644,0.3535353535353544 1.3636363636363644,0.4545454545454551 1.3636363636363644,0.5555555555555567 1.3636363636363644,0.6565656565656574 1.3636363636363644,0.7575757575757579 1.3636363636363644,0.8585858585858596 1.3636363636363644,0.9595959595959602 1.3636363636363644,1.0606060606060617 1.3636363636363644,1.1616161616161622 1.3636363636363644,1.262626262626263 1.3636363636363644,1.3636363636363644 1.3636363636363644,1.4646464646464652 1.3636363636363644,1.5656565656565666 1.3636363636363644,1.6666666666666674 1.3636363636363644,1.767676767676768 1.3636363636363644,1.8686868686868696 1.3636363636363644,1.9696969696969702 1.3636363636363644,2.070707070707072 1.3636363636363644,2.1717171717171726 1.3636363636363644,2.2727272727272734 1.3636363636363644,2.373737373737375 1.3636363636363644,2.4747474747474754 1.3636363636363644,2.575757575757577 1.3636363636363644,2.676767676767678 1.3636363636363644,2.7777777777777786 1.3636363636363644,2.87878787878788 1.3636363636363644,2.9797979797979806 1.3636363636363644,3.080808080808082 1.3636363636363644,3.181818181818183 1.3636363636363644,3.2828282828282833 1.3636363636363644,3.383838383838384 1.3636363636363644,3.4848484848484866 1.3636363636363644,3.5858585858585874 1.3636363636363644,3.6868686868686877 1.3636363636363644,3.7878787878787885 1.3636363636363644,3.8888888888888893 1.3636363636363644,3.989898989898992 1.4646464646464652,4.090909090909092 1.5656565656565666,4.191919191919193 1.6666666666666674,4.292929292929293 1.767676767676768,4.393939393939394 1.8686868686868696,4.494949494949497 1.9696969696969702,4.595959595959597 2.070707070707072,4.696969696969697 2.1717171717171726,4.7979797979797985 2.2727272727272734,4.898989898989901 2.373737373737375,5.000000000000002 2.4747474747474754,5.000000000000002" data-type="line" data-label="" points="497.69696969696975,659.7979797979798 507.2323232323232,650.2626262626263 516.7676767676768,640.7272727272727 526.3030303030303,631.1919191919193 535.8383838383838,621.6565656565657 545.3737373737374,612.1212121212121 554.9090909090909,602.5858585858587 564.4444444444445,593.0505050505051 573.9797979797979,583.5151515151516 583.5151515151515,573.979797979798 593.0505050505051,564.4444444444445 602.5858585858585,554.909090909091 612.1212121212121,545.3737373737374 621.6565656565656,535.838383838384 631.1919191919192,526.3030303030304 640.7272727272727,516.7676767676768 640.7272727272727,507.23232323232327 640.7272727272727,497.69696969696975 640.7272727272727,488.1616161616163 640.7272727272727,478.6262626262627 640.7272727272727,469.0909090909092 640.7272727272727,459.5555555555556 640.7272727272727,450.0202020202021 640.7272727272727,440.4848484848486 640.7272727272727,430.94949494949503 640.7272727272727,421.4141414141415 640.7272727272727,411.87878787878793 640.7272727272727,402.3434343434344 640.7272727272727,392.80808080808094 640.7272727272727,383.27272727272737 640.7272727272727,373.73737373737384 640.7272727272727,364.2020202020203 640.7272727272727,354.66666666666674 640.7272727272727,345.1313131313133 640.7272727272727,335.5959595959597 640.7272727272727,326.06060606060623 640.7272727272727,316.5252525252526 640.7272727272727,306.9898989898991 640.7272727272727,297.4545454545456 640.7272727272727,287.91919191919203 640.7272727272727,278.38383838383857 640.7272727272727,268.84848484848493 640.7272727272727,259.3131313131314 640.7272727272727,249.77777777777794 640.7272727272727,240.24242424242436 640.7272727272727,230.70707070707084 640.7272727272727,221.17171717171726 640.7272727272727,211.63636363636374 640.7272727272727,202.10101010101027 640.7272727272727,192.56565656565675 640.7272727272727,183.03030303030312 640.7272727272727,173.4949494949496 640.7272727272727,163.95959595959613 640.7272727272727,154.4242424242426 640.7272727272727,144.88888888888908 640.7272727272727,135.35353535353545 650.2626262626262,125.81818181818198 659.7979797979798,116.28282828282846 669.3333333333333,106.747474747475 678.8686868686868,97.21212121212153 688.4040404040404,87.67676767676778 697.9393939393939,78.14141414141432 707.4747474747475,68.60606060606085 717.0101010101009,59.07070707070733 726.5454545454545,49.53535353535369 736.0808080808081,40.000000000000114 745.6161616161615,40.000000000000114" fill="none" stroke="rgba(255,0,0,0.75)" stroke-width="11.327999999999996"/></g><g><polyline data-points="-5.000000000000001,-0.6565656565656557 -4.898989898989899,-0.7575757575757572 -4.7979797979797985,-0.8585858585858579 -4.696969696969697,-0.9595959595959596 -4.595959595959596,-1.0606060606060603 -4.494949494949496,-1.1616161616161613 -4.393939393939394,-1.2626262626262625 -4.292929292929293,-1.363636363636363 -4.191919191919193,-1.4646464646464643 -4.090909090909091,-1.5656565656565653 -3.98989898989899,-1.6666666666666665 -3.8888888888888884,-1.7676767676767675 -3.7878787878787876,-1.8686868686868683 -3.6868686868686864,-1.8686868686868683 -3.5858585858585856,-1.8686868686868683 -3.484848484848485,-1.8686868686868683 -3.383838383838383,-1.8686868686868683 -3.2828282828282824,-1.8686868686868683 -3.1818181818181817,-1.8686868686868683 -3.0808080808080804,-1.8686868686868683 -2.9797979797979792,-1.8686868686868683 -2.8787878787878785,-1.8686868686868683 -2.7777777777777777,-1.8686868686868683 -2.6767676767676765,-1.8686868686868683 -2.5757575757575752,-1.8686868686868683 -2.474747474747474,-1.8686868686868683 -2.3737373737373733,-1.8686868686868683 -2.2727272727272725,-1.8686868686868683 -2.1717171717171713,-1.8686868686868683 -2.07070707070707,-1.8686868686868683 -1.9696969696969693,-1.8686868686868683 -1.8686868686868683,-1.8686868686868683 -1.7676767676767675,-1.8686868686868683 -1.6666666666666665,-1.8686868686868683 -1.5656565656565653,-1.8686868686868683 -1.4646464646464643,-1.8686868686868683 -1.363636363636363,-1.8686868686868683 -1.2626262626262625,-1.8686868686868683 -1.1616161616161613,-1.8686868686868683 -1.0606060606060603,-1.8686868686868683" data-type="line" data-label="" points="40.00000000000006,573.979797979798 49.53535353535369,583.5151515151516 59.07070707070716,593.0505050505051 68.60606060606068,602.5858585858587 78.14141414141426,612.1212121212121 87.67676767676772,621.6565656565657 97.21212121212136,631.1919191919193 106.74747474747483,640.7272727272727 116.28282828282829,650.2626262626263 125.81818181818193,659.7979797979798 135.35353535353545,669.3333333333334 144.88888888888903,678.8686868686868 154.42424242424255,688.4040404040404 163.95959595959607,688.4040404040404 173.4949494949496,688.4040404040404 183.03030303030312,688.4040404040404 192.5656565656567,688.4040404040404 202.10101010101022,688.4040404040404 211.63636363636374,688.4040404040404 221.17171717171726,688.4040404040404 230.70707070707084,688.4040404040404 240.2424242424243,688.4040404040404 249.77777777777783,688.4040404040404 259.3131313131314,688.4040404040404 268.84848484848493,688.4040404040404 278.38383838383845,688.4040404040404 287.91919191919203,688.4040404040404 297.4545454545455,688.4040404040404 306.9898989898991,688.4040404040404 316.5252525252526,688.4040404040404 326.0606060606061,688.4040404040404 335.59595959595964,688.4040404040404 345.13131313131316,688.4040404040404 354.6666666666667,688.4040404040404 364.2020202020202,688.4040404040404 373.7373737373738,688.4040404040404 383.2727272727273,688.4040404040404 392.80808080808083,688.4040404040404 402.34343434343435,688.4040404040404 411.8787878787879,688.4040404040404" fill="none" stroke="rgba(0,0,255,0.75)" stroke-width="11.327999999999996"/></g><g><polyline data-points="-1.0606060606060603,-1.8686868686868683 -0.9595959595959596,-1.8686868686868683 -0.8585858585858579,-1.8686868686868683 -0.7575757575757572,-1.8686868686868683 -0.6565656565656557,-1.8686868686868683 -0.555555555555555,-1.8686868686868683 -0.4545454545454544,-1.8686868686868683 -0.35353535353535287,-1.8686868686868683 -0.2525252525252522,-1.8686868686868683 -0.15151515151515066,-1.8686868686868683 -0.05050505050505001,-1.8686868686868683 0.050505050505051545,-1.8686868686868683 0.1515151515151522,-1.8686868686868683 0.2525252525252529,-1.8686868686868683 0.3535353535353544,-1.8686868686868683 0.4545454545454551,-1.8686868686868683 0.5555555555555567,-1.8686868686868683 0.6565656565656574,-1.8686868686868683 0.7575757575757579,-1.8686868686868683 0.8585858585858596,-1.8686868686868683 0.9595959595959602,-1.8686868686868683 1.0606060606060617,-1.8686868686868683 1.1616161616161622,-1.8686868686868683 1.262626262626263,-1.8686868686868683 1.3636363636363644,-1.8686868686868683 1.4646464646464652,-1.8686868686868683 1.5656565656565666,-1.8686868686868683 1.6666666666666674,-1.8686868686868683 1.767676767676768,-1.8686868686868683 1.8686868686868696,-1.8686868686868683 1.9696969696969702,-1.8686868686868683 2.070707070707072,-1.8686868686868683 2.1717171717171726,-1.8686868686868683 2.2727272727272734,-1.8686868686868683 2.373737373737375,-1.8686868686868683 2.4747474747474754,-1.8686868686868683 2.575757575757577,-1.8686868686868683 2.676767676767678,-1.8686868686868683 2.7777777777777786,-1.8686868686868683 2.87878787878788,-1.8686868686868683 2.9797979797979806,-1.8686868686868683 3.080808080808082,-1.8686868686868683 3.181818181818183,-1.8686868686868683 3.2828282828282833,-1.8686868686868683 3.383838383838384,-1.8686868686868683 3.4848484848484866,-1.8686868686868683 3.5858585858585874,-1.8686868686868683 3.6868686868686877,-1.8686868686868683 3.7878787878787885,-1.8686868686868683 3.8888888888888893,-1.8686868686868683 3.989898989898992,-1.8686868686868683" data-type="line" data-label="" points="411.8787878787879,688.4040404040404 421.4141414141414,688.4040404040404 430.949494949495,688.4040404040404 440.4848484848485,688.4040404040404 450.0202020202021,688.4040404040404 459.55555555555554,688.4040404040404 469.09090909090907,688.4040404040404 478.62626262626264,688.4040404040404 488.16161616161617,688.4040404040404 497.69696969696975,688.4040404040404 507.2323232323232,688.4040404040404 516.7676767676768,688.4040404040404 526.3030303030303,688.4040404040404 535.8383838383838,688.4040404040404 545.3737373737374,688.4040404040404 554.9090909090909,688.4040404040404 564.4444444444445,688.4040404040404 573.9797979797979,688.4040404040404 583.5151515151515,688.4040404040404 593.0505050505051,688.4040404040404 602.5858585858585,688.4040404040404 612.1212121212121,688.4040404040404 621.6565656565656,688.4040404040404 631.1919191919192,688.4040404040404 640.7272727272727,688.4040404040404 650.2626262626262,688.4040404040404 659.7979797979798,688.4040404040404 669.3333333333333,688.4040404040404 678.8686868686868,688.4040404040404 688.4040404040404,688.4040404040404 697.9393939393939,688.4040404040404 707.4747474747475,688.4040404040404 717.0101010101009,688.4040404040404 726.5454545454545,688.4040404040404 736.0808080808081,688.4040404040404 745.6161616161615,688.4040404040404 755.1515151515151,688.4040404040404 764.6868686868686,688.4040404040404 774.2222222222222,688.4040404040404 783.7575757575758,688.4040404040404 793.2929292929292,688.4040404040404 802.8282828282828,688.4040404040404 812.3636363636363,688.4040404040404 821.8989898989898,688.4040404040404 831.4343434343433,688.4040404040404 840.969696969697,688.4040404040404 850.5050505050505,688.4040404040404 860.0404040404039,688.4040404040404 869.5757575757575,688.4040404040404 879.111111111111,688.4040404040404 888.6464646464647,688.4040404040404" fill="none" stroke="rgba(255,0,0,0.75)" stroke-width="11.327999999999996"/></g><g><polyline data-points="3.989898989898992,-1.8686868686868683 4.090909090909092,-1.8686868686868683 4.191919191919193,-1.9696969696969693 4.292929292929293,-2.07070707070707 4.393939393939394,-2.07070707070707 4.494949494949497,-2.07070707070707 4.595959595959597,-2.07070707070707 4.696969696969697,-2.07070707070707 4.7979797979797985,-2.07070707070707 4.898989898989901,-2.07070707070707 5.000000000000002,-2.07070707070707" data-type="line" data-label="" points="888.6464646464647,688.4040404040404 898.181818181818,688.4040404040404 907.7171717171716,697.939393939394 917.2525252525251,707.4747474747475 926.7878787878785,707.4747474747475 936.3232323232323,707.4747474747475 945.8585858585857,707.4747474747475 955.3939393939393,707.4747474747475 964.9292929292927,707.4747474747475 974.4646464646464,707.4747474747475 984,707.4747474747475" fill="none" stroke="rgba(0,0,255,0.75)" stroke-width="11.327999999999996"/></g><g><polyline data-points="-5.000000000000001,-1.7676767676767675 -4.898989898989899,-1.7676767676767675 -4.7979797979797985,-1.7676767676767675 -4.696969696969697,-1.7676767676767675 -4.595959595959596,-1.7676767676767675 -4.494949494949496,-1.7676767676767675 -4.393939393939394,-1.7676767676767675 -4.292929292929293,-1.7676767676767675 -4.191919191919193,-1.7676767676767675 -4.090909090909091,-1.7676767676767675 -3.98989898989899,-1.7676767676767675 -3.8888888888888884,-1.7676767676767675 -3.7878787878787876,-1.7676767676767675 -3.6868686868686864,-1.7676767676767675 -3.5858585858585856,-1.7676767676767675 -3.484848484848485,-1.7676767676767675 -3.383838383838383,-1.7676767676767675 -3.2828282828282824,-1.7676767676767675 -3.1818181818181817,-1.7676767676767675 -3.0808080808080804,-1.7676767676767675 -2.9797979797979792,-1.7676767676767675 -2.8787878787878785,-1.7676767676767675 -2.7777777777777777,-1.7676767676767675 -2.6767676767676765,-1.7676767676767675 -2.5757575757575752,-1.7676767676767675 -2.474747474747474,-1.7676767676767675 -2.3737373737373733,-1.7676767676767675 -2.2727272727272725,-1.7676767676767675 -2.1717171717171713,-1.7676767676767675 -2.07070707070707,-1.7676767676767675 -1.9696969696969693,-1.7676767676767675 -1.8686868686868683,-1.7676767676767675 -1.7676767676767675,-1.7676767676767675 -1.6666666666666665,-1.7676767676767675 -1.5656565656565653,-1.7676767676767675 -1.4646464646464643,-1.7676767676767675 -1.363636363636363,-1.8686868686868683 -1.2626262626262625,-1.9696969696969693 -1.1616161616161613,-2.07070707070707 -1.0606060606060603,-2.1717171717171713 -0.9595959595959596,-2.1717171717171713 -0.8585858585858579,-2.1717171717171713 -0.7575757575757572,-2.1717171717171713 -0.6565656565656557,-2.1717171717171713 -0.555555555555555,-2.1717171717171713 -0.4545454545454544,-2.1717171717171713 -0.35353535353535287,-2.1717171717171713 -0.2525252525252522,-2.1717171717171713 -0.15151515151515066,-2.1717171717171713 -0.05050505050505001,-2.1717171717171713 0.050505050505051545,-2.1717171717171713 0.1515151515151522,-2.1717171717171713 0.2525252525252529,-2.1717171717171713 0.3535353535353544,-2.1717171717171713 0.4545454545454551,-2.1717171717171713 0.5555555555555567,-2.1717171717171713 0.6565656565656574,-2.1717171717171713 0.7575757575757579,-2.1717171717171713 0.8585858585858596,-2.1717171717171713 0.9595959595959602,-2.1717171717171713 1.0606060606060617,-2.1717171717171713 1.1616161616161622,-2.1717171717171713 1.262626262626263,-2.1717171717171713 1.3636363636363644,-2.1717171717171713 1.4646464646464652,-2.1717171717171713 1.5656565656565666,-2.1717171717171713 1.6666666666666674,-2.1717171717171713 1.767676767676768,-2.1717171717171713 1.8686868686868696,-2.1717171717171713 1.9696969696969702,-2.1717171717171713 2.070707070707072,-2.1717171717171713 2.1717171717171726,-2.1717171717171713 2.2727272727272734,-2.1717171717171713 2.373737373737375,-2.1717171717171713 2.4747474747474754,-2.1717171717171713 2.575757575757577,-2.1717171717171713 2.676767676767678,-2.1717171717171713 2.7777777777777786,-2.1717171717171713 2.87878787878788,-2.1717171717171713 2.9797979797979806,-2.1717171717171713 3.080808080808082,-2.1717171717171713 3.181818181818183,-2.1717171717171713 3.2828282828282833,-2.1717171717171713 3.383838383838384,-2.1717171717171713 3.4848484848484866,-2.1717171717171713 3.5858585858585874,-2.1717171717171713 3.6868686868686877,-2.2727272727272725" data-type="line" data-label="" points="40.00000000000006,678.8686868686868 49.53535353535369,678.8686868686868 59.07070707070716,678.8686868686868 68.60606060606068,678.8686868686868 78.14141414141426,678.8686868686868 87.67676767676772,678.8686868686868 97.21212121212136,678.8686868686868 106.74747474747483,678.8686868686868 116.28282828282829,678.8686868686868 125.81818181818193,678.8686868686868 135.35353535353545,678.8686868686868 144.88888888888903,678.8686868686868 154.42424242424255,678.8686868686868 163.95959595959607,678.8686868686868 173.4949494949496,678.8686868686868 183.03030303030312,678.8686868686868 192.5656565656567,678.8686868686868 202.10101010101022,678.8686868686868 211.63636363636374,678.8686868686868 221.17171717171726,678.8686868686868 230.70707070707084,678.8686868686868 240.2424242424243,678.8686868686868 249.77777777777783,678.8686868686868 259.3131313131314,678.8686868686868 268.84848484848493,678.8686868686868 278.38383838383845,678.8686868686868 287.91919191919203,678.8686868686868 297.4545454545455,678.8686868686868 306.9898989898991,678.8686868686868 316.5252525252526,678.8686868686868 326.0606060606061,678.8686868686868 335.59595959595964,678.8686868686868 345.13131313131316,678.8686868686868 354.6666666666667,678.8686868686868 364.2020202020202,678.8686868686868 373.7373737373738,678.8686868686868 383.2727272727273,688.4040404040404 392.80808080808083,697.939393939394 402.34343434343435,707.4747474747475 411.8787878787879,717.010101010101 421.4141414141414,717.010101010101 430.949494949495,717.010101010101 440.4848484848485,717.010101010101 450.0202020202021,717.010101010101 459.55555555555554,717.010101010101 469.09090909090907,717.010101010101 478.62626262626264,717.010101010101 488.16161616161617,717.010101010101 497.69696969696975,717.010101010101 507.2323232323232,717.010101010101 516.7676767676768,717.010101010101 526.3030303030303,717.010101010101 535.8383838383838,717.010101010101 545.3737373737374,717.010101010101 554.9090909090909,717.010101010101 564.4444444444445,717.010101010101 573.9797979797979,717.010101010101 583.5151515151515,717.010101010101 593.0505050505051,717.010101010101 602.5858585858585,717.010101010101 612.1212121212121,717.010101010101 621.6565656565656,717.010101010101 631.1919191919192,717.010101010101 640.7272727272727,717.010101010101 650.2626262626262,717.010101010101 659.7979797979798,717.010101010101 669.3333333333333,717.010101010101 678.8686868686868,717.010101010101 688.4040404040404,717.010101010101 697.9393939393939,717.010101010101 707.4747474747475,717.010101010101 717.0101010101009,717.010101010101 726.5454545454545,717.010101010101 736.0808080808081,717.010101010101 745.6161616161615,717.010101010101 755.1515151515151,717.010101010101 764.6868686868686,717.010101010101 774.2222222222222,717.010101010101 783.7575757575758,717.010101010101 793.2929292929292,717.010101010101 802.8282828282828,717.010101010101 812.3636363636363,717.010101010101 821.8989898989898,717.010101010101 831.4343434343433,717.010101010101 840.969696969697,717.010101010101 850.5050505050505,717.010101010101 860.0404040404039,726.5454545454545" fill="none" stroke="rgba(255,0,0,0.75)" stroke-width="11.327999999999996"/></g><g><polyline data-points="3.6868686868686877,-2.2727272727272725 3.6868686868686877,-2.1717171717171713 3.6868686868686877,-2.07070707070707 3.6868686868686877,-1.9696969696969693 3.6868686868686877,-1.8686868686868683 3.7878787878787885,-1.7676767676767675 3.8888888888888893,-1.6666666666666665 3.989898989898992,-1.5656565656565653 4.090909090909092,-1.4646464646464643 4.191919191919193,-1.363636363636363 4.292929292929293,-1.363636363636363 4.393939393939394,-1.363636363636363 4.494949494949497,-1.363636363636363 4.595959595959597,-1.363636363636363 4.696969696969697,-1.363636363636363 4.7979797979797985,-1.363636363636363 4.898989898989901,-1.363636363636363 5.000000000000002,-1.363636363636363" data-type="line" data-label="" points="860.0404040404039,726.5454545454545 860.0404040404039,717.010101010101 860.0404040404039,707.4747474747475 860.0404040404039,697.939393939394 860.0404040404039,688.4040404040404 869.5757575757575,678.8686868686868 879.111111111111,669.3333333333334 888.6464646464647,659.7979797979798 898.181818181818,650.2626262626263 907.7171717171716,640.7272727272727 917.2525252525251,640.7272727272727 926.7878787878785,640.7272727272727 936.3232323232323,640.7272727272727 945.8585858585857,640.7272727272727 955.3939393939393,640.7272727272727 964.9292929292927,640.7272727272727 974.4646464646464,640.7272727272727 984,640.7272727272727" fill="none" stroke="rgba(0,0,255,0.75)" stroke-width="11.327999999999996"/></g><g><polyline data-points="2.676767676767678,5.000000000000002 2.676767676767678,4.898989898989901 2.575757575757577,4.7979797979797985 2.4747474747474754,4.696969696969697 2.373737373737375,4.595959595959597 2.2727272727272734,4.494949494949497 2.1717171717171726,4.393939393939394 2.070707070707072,4.292929292929293 1.9696969696969702,4.191919191919193 1.8686868686868696,4.090909090909092 1.8686868686868696,3.989898989898992 1.8686868686868696,3.8888888888888893 1.8686868686868696,3.7878787878787885 1.8686868686868696,3.6868686868686877 1.8686868686868696,3.5858585858585874 1.8686868686868696,3.4848484848484866 1.8686868686868696,3.383838383838384 1.8686868686868696,3.2828282828282833 1.8686868686868696,3.181818181818183 1.8686868686868696,3.080808080808082 1.8686868686868696,2.9797979797979806 1.8686868686868696,2.87878787878788 1.8686868686868696,2.7777777777777786 1.8686868686868696,2.676767676767678 1.8686868686868696,2.575757575757577 1.8686868686868696,2.4747474747474754 1.8686868686868696,2.373737373737375 1.8686868686868696,2.2727272727272734 1.8686868686868696,2.1717171717171726 1.8686868686868696,2.070707070707072 1.8686868686868696,1.9696969696969702 1.8686868686868696,1.8686868686868696 1.8686868686868696,1.767676767676768 1.8686868686868696,1.6666666666666674 1.8686868686868696,1.5656565656565666 1.8686868686868696,1.4646464646464652 1.8686868686868696,1.3636363636363644 1.8686868686868696,1.262626262626263 1.8686868686868696,1.1616161616161622 1.8686868686868696,1.0606060606060617 1.8686868686868696,0.9595959595959602 1.8686868686868696,0.8585858585858596 1.8686868686868696,0.7575757575757579 1.8686868686868696,0.6565656565656574 1.8686868686868696,0.5555555555555567 1.8686868686868696,0.4545454545454551 1.8686868686868696,0.3535353535353544 1.8686868686868696,0.2525252525252529 1.8686868686868696,0.1515151515151522 1.8686868686868696,0.050505050505051545 1.8686868686868696,-0.05050505050505001 1.8686868686868696,-0.15151515151515066 1.8686868686868696,-0.2525252525252522 1.8686868686868696,-0.35353535353535287 1.8686868686868696,-0.4545454545454544 1.8686868686868696,-0.555555555555555 1.8686868686868696,-0.6565656565656557 1.8686868686868696,-0.7575757575757572 1.8686868686868696,-0.8585858585858579 1.8686868686868696,-0.9595959595959596 1.8686868686868696,-1.0606060606060603 1.8686868686868696,-1.1616161616161613 1.8686868686868696,-1.2626262626262625 1.8686868686868696,-1.363636363636363 1.8686868686868696,-1.4646464646464643" data-type="line" data-label="" points="764.6868686868686,40.000000000000114 764.6868686868686,49.53535353535369 755.1515151515151,59.07070707070733 745.6161616161615,68.60606060606085 736.0808080808081,78.14141414141432 726.5454545454545,87.67676767676778 717.0101010101009,97.21212121212153 707.4747474747475,106.747474747475 697.9393939393939,116.28282828282846 688.4040404040404,125.81818181818198 688.4040404040404,135.35353535353545 688.4040404040404,144.88888888888908 688.4040404040404,154.4242424242426 688.4040404040404,163.95959595959613 688.4040404040404,173.4949494949496 688.4040404040404,183.03030303030312 688.4040404040404,192.56565656565675 688.4040404040404,202.10101010101027 688.4040404040404,211.63636363636374 688.4040404040404,221.17171717171726 688.4040404040404,230.70707070707084 688.4040404040404,240.24242424242436 688.4040404040404,249.77777777777794 688.4040404040404,259.3131313131314 688.4040404040404,268.84848484848493 688.4040404040404,278.38383838383857 688.4040404040404,287.91919191919203 688.4040404040404,297.4545454545456 688.4040404040404,306.9898989898991 688.4040404040404,316.5252525252526 688.4040404040404,326.06060606060623 688.4040404040404,335.5959595959597 688.4040404040404,345.1313131313133 688.4040404040404,354.66666666666674 688.4040404040404,364.2020202020203 688.4040404040404,373.73737373737384 688.4040404040404,383.27272727272737 688.4040404040404,392.80808080808094 688.4040404040404,402.3434343434344 688.4040404040404,411.87878787878793 688.4040404040404,421.4141414141415 688.4040404040404,430.94949494949503 688.4040404040404,440.4848484848486 688.4040404040404,450.0202020202021 688.4040404040404,459.5555555555556 688.4040404040404,469.0909090909092 688.4040404040404,478.6262626262627 688.4040404040404,488.1616161616163 688.4040404040404,497.69696969696975 688.4040404040404,507.23232323232327 688.4040404040404,516.7676767676768 688.4040404040404,526.3030303030304 688.4040404040404,535.838383838384 688.4040404040404,545.3737373737374 688.4040404040404,554.909090909091 688.4040404040404,564.4444444444445 688.4040404040404,573.979797979798 688.4040404040404,583.5151515151516 688.4040404040404,593.0505050505051 688.4040404040404,602.5858585858587 688.4040404040404,612.1212121212121 688.4040404040404,621.6565656565657 688.4040404040404,631.1919191919193 688.4040404040404,640.7272727272727 688.4040404040404,650.2626262626263" fill="none" stroke="rgba(255,0,0,0.75)" stroke-width="11.327999999999996"/></g><g><polyline data-points="1.8686868686868696,-1.4646464646464643 1.8686868686868696,-1.5656565656565653 1.8686868686868696,-1.6666666666666665 1.8686868686868696,-1.7676767676767675 1.8686868686868696,-1.8686868686868683 1.8686868686868696,-1.9696969696969693 1.8686868686868696,-2.07070707070707 1.8686868686868696,-2.1717171717171713 1.8686868686868696,-2.2727272727272725 1.8686868686868696,-2.3737373737373733 1.8686868686868696,-2.474747474747474 1.8686868686868696,-2.5757575757575752" data-type="line" data-label="" points="688.4040404040404,650.2626262626263 688.4040404040404,659.7979797979798 688.4040404040404,669.3333333333334 688.4040404040404,678.8686868686868 688.4040404040404,688.4040404040404 688.4040404040404,697.939393939394 688.4040404040404,707.4747474747475 688.4040404040404,717.010101010101 688.4040404040404,726.5454545454545 688.4040404040404,736.0808080808081 688.4040404040404,745.6161616161615 688.4040404040404,755.1515151515151" fill="none" stroke="rgba(0,0,255,0.75)" stroke-width="11.327999999999996"/></g><g><polyline data-points="1.8686868686868696,-2.5757575757575752 1.767676767676768,-2.6767676767676765 1.6666666666666674,-2.7777777777777777 1.6666666666666674,-2.8787878787878785 1.6666666666666674,-2.9797979797979792 1.6666666666666674,-3.0808080808080804 1.6666666666666674,-3.1818181818181817 1.6666666666666674,-3.2828282828282824 1.6666666666666674,-3.383838383838383 1.6666666666666674,-3.484848484848485 1.6666666666666674,-3.5858585858585856 1.6666666666666674,-3.6868686868686864 1.6666666666666674,-3.7878787878787876 1.6666666666666674,-3.8888888888888884 1.6666666666666674,-3.98989898989899 1.6666666666666674,-4.090909090909091 1.6666666666666674,-4.191919191919193 1.6666666666666674,-4.292929292929293 1.6666666666666674,-4.393939393939394 1.6666666666666674,-4.494949494949496 1.6666666666666674,-4.595959595959596 1.6666666666666674,-4.696969696969697 1.6666666666666674,-4.7979797979797985 1.6666666666666674,-4.898989898989899 1.5656565656565666,-5.000000000000001" data-type="line" data-label="" points="688.4040404040404,755.1515151515151 678.8686868686868,764.6868686868687 669.3333333333333,774.2222222222222 669.3333333333333,783.7575757575758 669.3333333333333,793.2929292929292 669.3333333333333,802.8282828282828 669.3333333333333,812.3636363636363 669.3333333333333,821.8989898989898 669.3333333333333,831.4343434343434 669.3333333333333,840.969696969697 669.3333333333333,850.5050505050505 669.3333333333333,860.0404040404039 669.3333333333333,869.5757575757575 669.3333333333333,879.1111111111111 669.3333333333333,888.6464646464647 669.3333333333333,898.1818181818181 669.3333333333333,907.7171717171718 669.3333333333333,917.2525252525252 669.3333333333333,926.7878787878788 669.3333333333333,936.3232323232323 669.3333333333333,945.8585858585858 669.3333333333333,955.3939393939394 669.3333333333333,964.9292929292928 669.3333333333333,974.4646464646464 659.7979797979798,984" fill="none" stroke="rgba(255,0,0,0.75)" stroke-width="11.327999999999996"/></g><g><polyline data-points="5.000000000000002,-3.0808080808080804 4.898989898989901,-3.0808080808080804 4.7979797979797985,-2.9797979797979792 4.696969696969697,-2.8787878787878785 4.595959595959597,-2.7777777777777777 4.494949494949497,-2.6767676767676765 4.393939393939394,-2.5757575757575752 4.292929292929293,-2.474747474747474 4.191919191919193,-2.474747474747474 4.090909090909092,-2.474747474747474 3.989898989898992,-2.474747474747474" data-type="line" data-label="" points="984,802.8282828282828 974.4646464646464,802.8282828282828 964.9292929292927,793.2929292929292 955.3939393939393,783.7575757575758 945.8585858585857,774.2222222222222 936.3232323232323,764.6868686868687 926.7878787878785,755.1515151515151 917.2525252525251,745.6161616161615 907.7171717171716,745.6161616161615 898.181818181818,745.6161616161615 888.6464646464647,745.6161616161615" fill="none" stroke="rgba(0,0,255,0.75)" stroke-width="11.327999999999996"/></g><g><polyline data-points="3.989898989898992,-2.474747474747474 3.989898989898992,-2.3737373737373733 3.989898989898992,-2.2727272727272725 3.989898989898992,-2.1717171717171713 4.090909090909092,-2.07070707070707 4.191919191919193,-1.9696969696969693 4.292929292929293,-1.8686868686868683 4.191919191919193,-1.7676767676767675 4.090909090909092,-1.6666666666666665 3.989898989898992,-1.5656565656565653 3.8888888888888893,-1.4646464646464643 3.7878787878787885,-1.363636363636363 3.7878787878787885,-1.2626262626262625 3.7878787878787885,-1.1616161616161613 3.7878787878787885,-1.0606060606060603 3.7878787878787885,-0.9595959595959596 3.7878787878787885,-0.8585858585858579 3.7878787878787885,-0.7575757575757572 3.7878787878787885,-0.6565656565656557 3.7878787878787885,-0.555555555555555 3.7878787878787885,-0.4545454545454544 3.7878787878787885,-0.35353535353535287 3.7878787878787885,-0.2525252525252522 3.7878787878787885,-0.15151515151515066 3.7878787878787885,-0.05050505050505001 3.7878787878787885,0.050505050505051545 3.7878787878787885,0.1515151515151522 3.7878787878787885,0.2525252525252529 3.7878787878787885,0.3535353535353544 3.7878787878787885,0.4545454545454551 3.7878787878787885,0.5555555555555567 3.7878787878787885,0.6565656565656574 3.7878787878787885,0.7575757575757579 3.7878787878787885,0.8585858585858596 3.7878787878787885,0.9595959595959602 3.7878787878787885,1.0606060606060617 3.7878787878787885,1.1616161616161622 3.7878787878787885,1.262626262626263 3.7878787878787885,1.3636363636363644 3.7878787878787885,1.4646464646464652 3.7878787878787885,1.5656565656565666 3.7878787878787885,1.6666666666666674 3.7878787878787885,1.767676767676768 3.7878787878787885,1.8686868686868696 3.7878787878787885,1.9696969696969702 3.7878787878787885,2.070707070707072 3.7878787878787885,2.1717171717171726 3.7878787878787885,2.2727272727272734 3.7878787878787885,2.373737373737375 3.7878787878787885,2.4747474747474754 3.7878787878787885,2.575757575757577 3.7878787878787885,2.676767676767678 3.7878787878787885,2.7777777777777786 3.7878787878787885,2.87878787878788 3.7878787878787885,2.9797979797979806 3.7878787878787885,3.080808080808082 3.7878787878787885,3.181818181818183 3.7878787878787885,3.2828282828282833 3.7878787878787885,3.383838383838384 3.7878787878787885,3.4848484848484866 3.7878787878787885,3.5858585858585874 3.7878787878787885,3.6868686868686877 3.7878787878787885,3.7878787878787885 3.7878787878787885,3.8888888888888893 3.7878787878787885,3.989898989898992" data-type="line" data-label="" points="888.6464646464647,745.6161616161615 888.6464646464647,736.0808080808081 888.6464646464647,726.5454545454545 888.6464646464647,717.010101010101 898.181818181818,707.4747474747475 907.7171717171716,697.939393939394 917.2525252525251,688.4040404040404 907.7171717171716,678.8686868686868 898.181818181818,669.3333333333334 888.6464646464647,659.7979797979798 879.111111111111,650.2626262626263 869.5757575757575,640.7272727272727 869.5757575757575,631.1919191919193 869.5757575757575,621.6565656565657 869.5757575757575,612.1212121212121 869.5757575757575,602.5858585858587 869.5757575757575,593.0505050505051 869.5757575757575,583.5151515151516 869.5757575757575,573.979797979798 869.5757575757575,564.4444444444445 869.5757575757575,554.909090909091 869.5757575757575,545.3737373737374 869.5757575757575,535.838383838384 869.5757575757575,526.3030303030304 869.5757575757575,516.7676767676768 869.5757575757575,507.23232323232327 869.5757575757575,497.69696969696975 869.5757575757575,488.1616161616163 869.5757575757575,478.6262626262627 869.5757575757575,469.0909090909092 869.5757575757575,459.5555555555556 869.5757575757575,450.0202020202021 869.5757575757575,440.4848484848486 869.5757575757575,430.94949494949503 869.5757575757575,421.4141414141415 869.5757575757575,411.87878787878793 869.5757575757575,402.3434343434344 869.5757575757575,392.80808080808094 869.5757575757575,383.27272727272737 869.5757575757575,373.73737373737384 869.5757575757575,364.2020202020203 869.5757575757575,354.66666666666674 869.5757575757575,345.1313131313133 869.5757575757575,335.5959595959597 869.5757575757575,326.06060606060623 869.5757575757575,316.5252525252526 869.5757575757575,306.9898989898991 869.5757575757575,297.4545454545456 869.5757575757575,287.91919191919203 869.5757575757575,278.38383838383857 869.5757575757575,268.84848484848493 869.5757575757575,259.3131313131314 869.5757575757575,249.77777777777794 869.5757575757575,240.24242424242436 869.5757575757575,230.70707070707084 869.5757575757575,221.17171717171726 869.5757575757575,211.63636363636374 869.5757575757575,202.10101010101027 869.5757575757575,192.56565656565675 869.5757575757575,183.03030303030312 869.5757575757575,173.4949494949496 869.5757575757575,163.95959595959613 869.5757575757575,154.4242424242426 869.5757575757575,144.88888888888908 869.5757575757575,135.35353535353545" fill="none" stroke="rgba(255,0,0,0.75)" stroke-width="11.327999999999996"/></g><g><polyline data-points="3.7878787878787885,3.989898989898992 3.7878787878787885,4.090909090909092 3.7878787878787885,4.191919191919193 3.7878787878787885,4.292929292929293 3.7878787878787885,4.393939393939394 3.7878787878787885,4.494949494949497 3.7878787878787885,4.595959595959597 3.7878787878787885,4.696969696969697 3.7878787878787885,4.7979797979797985 3.7878787878787885,4.898989898989901 3.6868686868686877,5.000000000000002" data-type="line" data-label="" points="869.5757575757575,135.35353535353545 869.5757575757575,125.81818181818198 869.5757575757575,116.28282828282846 869.5757575757575,106.747474747475 869.5757575757575,97.21212121212153 869.5757575757575,87.67676767676778 869.5757575757575,78.14141414141432 869.5757575757575,68.60606060606085 869.5757575757575,59.07070707070733 869.5757575757575,49.53535353535369 860.0404040404039,40.000000000000114" fill="none" stroke="rgba(0,0,255,0.75)" stroke-width="11.327999999999996"/></g><g><rect data-type="rect" data-label="" data-x="0" data-y="0" x="40.000000000000114" y="40.000000000000284" width="943.9999999999997" height="943.9999999999998" fill="none" stroke="gray" stroke-width="0.010593220338983056"/></g><g><rect data-type="rect" data-label="" data-x="0" data-y="0" x="40.000000000000114" y="40.000000000000284" width="943.9999999999997" height="943.9999999999998" fill="none" stroke="rgba(15, 23, 42, 0.8)" stroke-width="0.010593220338983056"/></g><circle data-type="circle" data-label="" data-x="-3.6868686868686864" data-y="3.989898989898992" cx="163.95959595959607" cy="135.35353535353545" r="14.159999999999995" fill="rgba(0,0,0,0.3)" stroke="black" stroke-width="0.010593220338983056"/><circle data-type="circle" data-label="" data-x="-3.98989898989899" data-y="0.6565656565656574" cx="135.35353535353545" cy="450.0202020202021" r="14.159999999999995" fill="rgba(0,0,0,0.3)" stroke="black" stroke-width="0.010593220338983056"/><circle data-type="circle" data-label="" data-x="-0.15151515151515066" data-y="-1.5656565656565653" cx="497.69696969696975" cy="659.7979797979798" r="14.159999999999995" fill="rgba(0,0,0,0.3)" stroke="black" stroke-width="0.010593220338983056"/><circle data-type="circle" data-label="" data-x="-1.0606060606060603" data-y="-1.8686868686868683" cx="411.8787878787879" cy="688.4040404040404" r="14.159999999999995" fill="rgba(0,0,0,0.3)" stroke="black" stroke-width="0.010593220338983056"/><circle data-type="circle" data-label="" data-x="3.989898989898992" data-y="-1.8686868686868683" cx="888.6464646464647" cy="688.4040404040404" r="14.159999999999995" fill="rgba(0,0,0,0.3)" stroke="black" stroke-width="0.010593220338983056"/><circle data-type="circle" data-label="" data-x="3.6868686868686877" data-y="-2.2727272727272725" cx="860.0404040404039" cy="726.5454545454545" r="14.159999999999995" fill="rgba(0,0,0,0.3)" stroke="black" stroke-width="0.010593220338983056"/><circle data-type="circle" data-label="" data-x="1.8686868686868696" data-y="-1.4646464646464643" cx="688.4040404040404" cy="650.2626262626263" r="14.159999999999995" fill="rgba(0,0,0,0.3)" stroke="black" stroke-width="0.010593220338983056"/><circle data-type="circle" data-label="" data-x="1.8686868686868696" data-y="-2.5757575757575752" cx="688.4040404040404" cy="755.1515151515151" r="14.159999999999995" fill="rgba(0,0,0,0.3)" stroke="black" stroke-width="0.010593220338983056"/><circle data-type="circle" data-label="" data-x="3.989898989898992" data-y="-2.474747474747474" cx="888.6464646464647" cy="745.6161616161615" r="14.159999999999995" fill="rgba(0,0,0,0.3)" stroke="black" stroke-width="0.010593220338983056"/><circle data-type="circle" data-label="" data-x="3.7878787878787885" data-y="3.989898989898992" cx="869.5757575757575" cy="135.35353535353545" r="14.159999999999995" fill="rgba(0,0,0,0.3)" stroke="black" stroke-width="0.010593220338983056"/><g id="crosshair" style="display: none"><line id="crosshair-h" y1="0" y2="1024" stroke="#666" stroke-width="0.5"/><line id="crosshair-v" x1="0" x2="1024" stroke="#666" stroke-width="0.5"/><text id="coordinates" font-family="monospace" font-size="12" fill="#666"></text></g><script><![CDATA[
              document.currentScript.parentElement.addEventListener('mousemove', (e) => {
                const svg = e.currentTarget;
                const rect = svg.getBoundingClientRect();
                const x = e.clientX - rect.left;
                const y = e.clientY - rect.top;
                const crosshair = svg.getElementById('crosshair');
                const h = svg.getElementById('crosshair-h');
                const v = svg.getElementById('crosshair-v');
                const coords = svg.getElementById('coordinates');
                
                crosshair.style.display = 'block';
                h.setAttribute('x1', '0');
                h.setAttribute('x2', '1024');
                h.setAttribute('y1', y);
                h.setAttribute('y2', y);
                v.setAttribute('x1', x);
                v.setAttribute('x2', x);
                v.setAttribute('y1', '0');
                v.setAttribute('y2', '1024');

                // Calculate real coordinates using inverse transformation
                const matrix = {"a":94.39999999999996,"c":0,"e":511.99999999999994,"b":0,"d":-94.39999999999996,"f":512.0000000000001};
                // Manually invert and apply the affine transform
                // Since we only use translate and scale, we can directly compute:
                // x' = (x - tx) / sx
                // y' = (y - ty) / sy
                const sx = matrix.a;
                const sy = matrix.d;
                const tx = matrix.e; 
                const ty = matrix.f;
                const realPoint = {
                  x: (x - tx) / sx,
                  y: (y - ty) / sy // Flip y back since we used negative scale
                }
                
                coords.textContent = `(${realPoint.x.toFixed(2)}, ${realPoint.y.toFixed(2)})`;
                coords.setAttribute('x', (x + 5).toString());
                coords.setAttribute('y', (y - 5).toString());
              });
              document.currentScript.parentElement.addEventListener('mouseleave', () => {
                document.currentScript.parentElement.getElementById('crosshair').style.display = 'none';
              });
            ]]></script></svg>