<svg width="1024" height="1024" viewBox="0 0 1024 1024" xmlns="http://www.w3.org/2000/svg"><rect width="100%" height="100%" fill="white"/><g><circle data-type="point" data-label="conn_000" data-x="5" data-y="-0.92" cx="983.9999999999998" cy="598.8480000000001" r="14.16" fill="red"/></g><g><circle data-type="point" data-label="conn_000" data-x="-5" data-y="-0.54" cx="40.000000000000114" cy="562.9760000000001" r="14.16" fill="blue"/></g><g><circle data-type="point" data-label="conn_001" data-x="-5" data-y="1.72" cx="40.000000000000114" cy="349.6320000000002" r="14.16" fill="red"/></g><g><circle data-type="point" data-label="conn_001" data-x="1.4000000000000001" data-y="-5" cx="644.1599999999999" cy="984" r="14.16" fill="blue"/></g><g><circle data-type="point" data-label="conn_002" data-x="5" data-y="-0.1" cx="983.9999999999998" cy="521.44" r="14.16" fill="blue"/></g><g><circle data-type="point" data-label="conn_002" data-x="-5" data-y="-0.48" cx="40.000000000000114" cy="557.3120000000001" r="14.16" fill="red"/></g><g><circle data-type="point" data-label="conn_003" data-x="3.72" data-y="5" cx="863.1679999999999" cy="40.000000000000284" r="14.16" fill="blue"/></g><g><circle data-type="point" data-label="conn_003" data-x="-2.7800000000000002" data-y="-5" cx="249.56800000000004" cy="984" r="14.16" fill="red"/></g><g><circle data-type="point" data-label="conn_004" data-x="-1.28" data-y="-5" cx="391.168" cy="984" r="14.16" fill="blue"/></g><g><circle data-type="point" data-label="conn_004" data-x="2.42" data-y="5" cx="740.4479999999999" cy="40.000000000000284" r="14.16" fill="red"/></g><g><circle data-type="point" data-label="conn_005" data-x="0.74" data-y="-5" cx="581.8559999999999" cy="984" r="14.16" fill="blue"/></g><g><circle data-type="point" data-label="conn_005" data-x="3.88" data-y="5" cx="878.2719999999997" cy="40.000000000000284" r="14.16" fill="blue"/></g><g><circle data-type="point" data-label="conn_006" data-x="-0.88" data-y="-5" cx="428.928" cy="984" r="14.16" fill="red"/></g><g><circle data-type="point" data-label="conn_006" data-x="2.98" data-y="5" cx="793.3119999999999" cy="40.000000000000284" r="14.16" fill="blue"/></g><g><circle data-type="point" data-label="conn_007" data-x="5" data-y="2.2600000000000002" cx="983.9999999999998" cy="298.6560000000002" r="14.16" fill="red"/></g><g><circle data-type="point" data-label="conn_007" data-x="-5" data-y="-4.48" cx="40.000000000000114" cy="934.912" r="14.16" fill="blue"/></g><g><circle data-type="point" data-label="conn_008" data-x="-2.92" data-y="5" cx="236.35200000000003" cy="40.000000000000284" r="14.16" fill="blue"/></g><g><circle data-type="point" data-label="conn_008" data-x="5" data-y="-5" cx="983.9999999999998" cy="984" r="14.16" fill="red"/></g><g><circle data-type="point" data-label="conn_009" data-x="-1.6600000000000001" data-y="-5" cx="355.296" cy="984" r="14.16" fill="blue"/></g><g><circle data-type="point" data-label="conn_009" data-x="-4.48" data-y="5" cx="89.08800000000008" cy="40.000000000000284" r="14.16" fill="red"/></g><g><polyline data-points="-1.6666666666666665,-5.000000000000001 -1.7676767676767675,-4.898989898989899 -1.8686868686868683,-4.7979797979797985 -1.9696969696969693,-4.696969696969697 -2.07070707070707,-4.595959595959596 -2.1717171717171713,-4.494949494949496 -2.2727272727272725,-4.393939393939394 -2.3737373737373733,-4.292929292929293 -2.474747474747474,-4.191919191919193 -2.5757575757575752,-4.090909090909091 -2.6767676767676765,-3.98989898989899 -2.7777777777777777,-3.8888888888888884 -2.8787878787878785,-3.7878787878787876 -2.9797979797979792,-3.6868686868686864 -3.0808080808080804,-3.5858585858585856 -3.1818181818181817,-3.484848484848485 -3.2828282828282824,-3.383838383838383 -3.383838383838383,-3.2828282828282824 -3.484848484848485,-3.1818181818181817 -3.5858585858585856,-3.0808080808080804 -3.6868686868686864,-2.9797979797979792 -3.7878787878787876,-2.8787878787878785 -3.8888888888888884,-2.7777777777777777 -3.98989898989899,-2.6767676767676765 -3.98989898989899,-2.5757575757575752 -3.98989898989899,-2.474747474747474 -3.98989898989899,-2.3737373737373733 -3.98989898989899,-2.2727272727272725 -3.98989898989899,-2.1717171717171713 -3.98989898989899,-2.07070707070707 -3.98989898989899,-1.9696969696969693 -3.98989898989899,-1.8686868686868683 -3.98989898989899,-1.7676767676767675 -3.98989898989899,-1.6666666666666665 -3.98989898989899,-1.5656565656565653 -3.98989898989899,-1.4646464646464643 -3.98989898989899,-1.363636363636363 -3.98989898989899,-1.2626262626262625 -3.98989898989899,-1.1616161616161613 -3.98989898989899,-1.0606060606060603 -3.98989898989899,-0.9595959595959596 -3.98989898989899,-0.8585858585858579 -3.98989898989899,-0.7575757575757572 -3.98989898989899,-0.6565656565656557 -3.98989898989899,-0.555555555555555 -3.98989898989899,-0.4545454545454544 -3.98989898989899,-0.35353535353535287 -3.98989898989899,-0.2525252525252522 -3.98989898989899,-0.15151515151515066 -3.98989898989899,-0.05050505050505001 -3.98989898989899,0.050505050505051545 -3.98989898989899,0.1515151515151522 -3.98989898989899,0.2525252525252529 -3.98989898989899,0.3535353535353544 -3.98989898989899,0.4545454545454551 -3.98989898989899,0.5555555555555567 -3.98989898989899,0.6565656565656574 -3.98989898989899,0.7575757575757579 -3.98989898989899,0.8585858585858596 -3.98989898989899,0.9595959595959602 -3.98989898989899,1.0606060606060617 -3.98989898989899,1.1616161616161622 -3.98989898989899,1.262626262626263 -3.98989898989899,1.3636363636363644 -3.98989898989899,1.4646464646464652 -3.98989898989899,1.5656565656565666 -3.98989898989899,1.6666666666666674 -3.98989898989899,1.767676767676768 -3.98989898989899,1.8686868686868696 -3.98989898989899,1.9696969696969702 -3.98989898989899,2.070707070707072 -3.98989898989899,2.1717171717171726 -3.98989898989899,2.2727272727272734 -3.98989898989899,2.373737373737375 -3.98989898989899,2.4747474747474754 -3.98989898989899,2.575757575757577 -3.98989898989899,2.676767676767678 -3.98989898989899,2.7777777777777786 -3.98989898989899,2.87878787878788 -3.98989898989899,2.9797979797979806 -3.98989898989899,3.080808080808082 -3.98989898989899,3.181818181818183 -3.98989898989899,3.2828282828282833 -3.98989898989899,3.383838383838384 -3.98989898989899,3.4848484848484866 -3.98989898989899,3.5858585858585874 -3.98989898989899,3.6868686868686877 -3.98989898989899,3.7878787878787885 -3.98989898989899,3.8888888888888893" data-type="line" data-label="" points="354.6666666666667,984 345.13131313131316,974.4646464646464 335.59595959595964,964.9292929292928 326.0606060606061,955.3939393939394 316.5252525252526,945.8585858585858 306.9898989898991,936.3232323232323 297.4545454545455,926.7878787878788 287.91919191919203,917.2525252525252 278.38383838383845,907.7171717171718 268.84848484848493,898.1818181818181 259.3131313131314,888.6464646464647 249.77777777777783,879.1111111111111 240.2424242424243,869.5757575757575 230.70707070707084,860.0404040404039 221.17171717171726,850.5050505050505 211.63636363636374,840.969696969697 202.10101010101022,831.4343434343434 192.5656565656567,821.8989898989898 183.03030303030312,812.3636363636363 173.4949494949496,802.8282828282828 163.95959595959607,793.2929292929292 154.42424242424255,783.7575757575758 144.88888888888903,774.2222222222222 135.35353535353545,764.6868686868687 135.35353535353545,755.1515151515151 135.35353535353545,745.6161616161615 135.35353535353545,736.0808080808081 135.35353535353545,726.5454545454545 135.35353535353545,717.010101010101 135.35353535353545,707.4747474747475 135.35353535353545,697.939393939394 135.35353535353545,688.4040404040404 135.35353535353545,678.8686868686868 135.35353535353545,669.3333333333334 135.35353535353545,659.7979797979798 135.35353535353545,650.2626262626263 135.35353535353545,640.7272727272727 135.35353535353545,631.1919191919193 135.35353535353545,621.6565656565657 135.35353535353545,612.1212121212121 135.35353535353545,602.5858585858587 135.35353535353545,593.0505050505051 135.35353535353545,583.5151515151516 135.35353535353545,573.979797979798 135.35353535353545,564.4444444444445 135.35353535353545,554.909090909091 135.35353535353545,545.3737373737374 135.35353535353545,535.838383838384 135.35353535353545,526.3030303030304 135.35353535353545,516.7676767676768 135.35353535353545,507.23232323232327 135.35353535353545,497.69696969696975 135.35353535353545,488.1616161616163 135.35353535353545,478.6262626262627 135.35353535353545,469.0909090909092 135.35353535353545,459.5555555555556 135.35353535353545,450.0202020202021 135.35353535353545,440.4848484848486 135.35353535353545,430.94949494949503 135.35353535353545,421.4141414141415 135.35353535353545,411.87878787878793 135.35353535353545,402.3434343434344 135.35353535353545,392.80808080808094 135.35353535353545,383.27272727272737 135.35353535353545,373.73737373737384 135.35353535353545,364.2020202020203 135.35353535353545,354.66666666666674 135.35353535353545,345.1313131313133 135.35353535353545,335.5959595959597 135.35353535353545,326.06060606060623 135.35353535353545,316.5252525252526 135.35353535353545,306.9898989898991 135.35353535353545,297.4545454545456 135.35353535353545,287.91919191919203 135.35353535353545,278.38383838383857 135.35353535353545,268.84848484848493 135.35353535353545,259.3131313131314 135.35353535353545,249.77777777777794 135.35353535353545,240.24242424242436 135.35353535353545,230.70707070707084 135.35353535353545,221.17171717171726 135.35353535353545,211.63636363636374 135.35353535353545,202.10101010101027 135.35353535353545,192.56565656565675 135.35353535353545,183.03030303030312 135.35353535353545,173.4949494949496 135.35353535353545,163.95959595959613 135.35353535353545,154.4242424242426 135.35353535353545,144.88888888888908" fill="none" stroke="rgba(0,0,255,0.75)" stroke-width="11.327999999999996"/></g><g><polyline data-points="-3.98989898989899,3.8888888888888893 -4.090909090909091,3.989898989898992 -4.191919191919193,4.090909090909092 -4.292929292929293,4.191919191919193 -4.393939393939394,4.292929292929293 -4.494949494949496,4.393939393939394 -4.494949494949496,4.494949494949497 -4.494949494949496,4.595959595959597 -4.494949494949496,4.696969696969697 -4.494949494949496,4.7979797979797985 -4.494949494949496,4.898989898989901 -4.494949494949496,5.000000000000002" data-type="line" data-label="" points="135.35353535353545,144.88888888888908 125.81818181818193,135.35353535353545 116.28282828282829,125.81818181818198 106.74747474747483,116.28282828282846 97.21212121212136,106.747474747475 87.67676767676772,97.21212121212153 87.67676767676772,87.67676767676778 87.67676767676772,78.14141414141432 87.67676767676772,68.60606060606085 87.67676767676772,59.07070707070733 87.67676767676772,49.53535353535369 87.67676767676772,40.000000000000114" fill="none" stroke="rgba(255,0,0,0.75)" stroke-width="11.327999999999996"/></g><g><polyline data-points="-1.2626262626262625,-5.000000000000001 -1.1616161616161613,-4.898989898989899 -1.0606060606060603,-4.7979797979797985 -0.9595959595959596,-4.696969696969697 -0.8585858585858579,-4.595959595959596 -0.7575757575757572,-4.494949494949496 -0.6565656565656557,-4.393939393939394 -0.555555555555555,-4.292929292929293 -0.4545454545454544,-4.191919191919193 -0.35353535353535287,-4.090909090909091 -0.2525252525252522,-3.98989898989899 -0.15151515151515066,-3.8888888888888884 -0.05050505050505001,-3.7878787878787876 0.050505050505051545,-3.6868686868686864 0.1515151515151522,-3.5858585858585856 0.2525252525252529,-3.484848484848485 0.3535353535353544,-3.383838383838383 0.4545454545454551,-3.2828282828282824 0.5555555555555567,-3.1818181818181817 0.6565656565656574,-3.0808080808080804 0.7575757575757579,-2.9797979797979792 0.8585858585858596,-2.8787878787878785 0.9595959595959602,-2.7777777777777777 1.0606060606060617,-2.6767676767676765 1.1616161616161622,-2.5757575757575752 1.262626262626263,-2.474747474747474 1.3636363636363644,-2.3737373737373733 1.4646464646464652,-2.2727272727272725 1.5656565656565666,-2.1717171717171713 1.6666666666666674,-2.07070707070707 1.767676767676768,-1.9696969696969693 1.8686868686868696,-1.8686868686868683 1.9696969696969702,-1.7676767676767675 2.070707070707072,-1.6666666666666665 2.1717171717171726,-1.5656565656565653 2.2727272727272734,-1.4646464646464643 2.373737373737375,-1.363636363636363 2.4747474747474754,-1.2626262626262625 2.4747474747474754,-1.1616161616161613 2.4747474747474754,-1.0606060606060603 2.4747474747474754,-0.9595959595959596 2.4747474747474754,-0.8585858585858579 2.4747474747474754,-0.7575757575757572 2.4747474747474754,-0.6565656565656557 2.4747474747474754,-0.555555555555555 2.4747474747474754,-0.4545454545454544 2.4747474747474754,-0.35353535353535287 2.4747474747474754,-0.2525252525252522 2.4747474747474754,-0.15151515151515066 2.4747474747474754,-0.05050505050505001 2.4747474747474754,0.050505050505051545 2.4747474747474754,0.1515151515151522 2.4747474747474754,0.2525252525252529 2.4747474747474754,0.3535353535353544 2.4747474747474754,0.4545454545454551 2.4747474747474754,0.5555555555555567 2.4747474747474754,0.6565656565656574 2.4747474747474754,0.7575757575757579 2.4747474747474754,0.8585858585858596 2.4747474747474754,0.9595959595959602 2.4747474747474754,1.0606060606060617 2.4747474747474754,1.1616161616161622 2.4747474747474754,1.262626262626263 2.4747474747474754,1.3636363636363644 2.4747474747474754,1.4646464646464652 2.4747474747474754,1.5656565656565666 2.4747474747474754,1.6666666666666674 2.4747474747474754,1.767676767676768 2.4747474747474754,1.8686868686868696 2.4747474747474754,1.9696969696969702 2.4747474747474754,2.070707070707072 2.4747474747474754,2.1717171717171726 2.4747474747474754,2.2727272727272734 2.4747474747474754,2.373737373737375 2.4747474747474754,2.4747474747474754 2.4747474747474754,2.575757575757577 2.4747474747474754,2.676767676767678 2.4747474747474754,2.7777777777777786 2.4747474747474754,2.87878787878788 2.4747474747474754,2.9797979797979806 2.4747474747474754,3.080808080808082 2.4747474747474754,3.181818181818183 2.4747474747474754,3.2828282828282833 2.4747474747474754,3.383838383838384 2.4747474747474754,3.4848484848484866 2.4747474747474754,3.5858585858585874 2.4747474747474754,3.6868686868686877 2.4747474747474754,3.7878787878787885 2.4747474747474754,3.8888888888888893 2.4747474747474754,3.989898989898992" data-type="line" data-label="" points="392.80808080808083,984 402.34343434343435,974.4646464646464 411.8787878787879,964.9292929292928 421.4141414141414,955.3939393939394 430.949494949495,945.8585858585858 440.4848484848485,936.3232323232323 450.0202020202021,926.7878787878788 459.55555555555554,917.2525252525252 469.09090909090907,907.7171717171718 478.62626262626264,898.1818181818181 488.16161616161617,888.6464646464647 497.69696969696975,879.1111111111111 507.2323232323232,869.5757575757575 516.7676767676768,860.0404040404039 526.3030303030303,850.5050505050505 535.8383838383838,840.969696969697 545.3737373737374,831.4343434343434 554.9090909090909,821.8989898989898 564.4444444444445,812.3636363636363 573.9797979797979,802.8282828282828 583.5151515151515,793.2929292929292 593.0505050505051,783.7575757575758 602.5858585858585,774.2222222222222 612.1212121212121,764.6868686868687 621.6565656565656,755.1515151515151 631.1919191919192,745.6161616161615 640.7272727272727,736.0808080808081 650.2626262626262,726.5454545454545 659.7979797979798,717.010101010101 669.3333333333333,707.4747474747475 678.8686868686868,697.939393939394 688.4040404040404,688.4040404040404 697.9393939393939,678.8686868686868 707.4747474747475,669.3333333333334 717.0101010101009,659.7979797979798 726.5454545454545,650.2626262626263 736.0808080808081,640.7272727272727 745.6161616161615,631.1919191919193 745.6161616161615,621.6565656565657 745.6161616161615,612.1212121212121 745.6161616161615,602.5858585858587 745.6161616161615,593.0505050505051 745.6161616161615,583.5151515151516 745.6161616161615,573.979797979798 745.6161616161615,564.4444444444445 745.6161616161615,554.909090909091 745.6161616161615,545.3737373737374 745.6161616161615,535.838383838384 745.6161616161615,526.3030303030304 745.6161616161615,516.7676767676768 745.6161616161615,507.23232323232327 745.6161616161615,497.69696969696975 745.6161616161615,488.1616161616163 745.6161616161615,478.6262626262627 745.6161616161615,469.0909090909092 745.6161616161615,459.5555555555556 745.6161616161615,450.0202020202021 745.6161616161615,440.4848484848486 745.6161616161615,430.94949494949503 745.6161616161615,421.4141414141415 745.6161616161615,411.87878787878793 745.6161616161615,402.3434343434344 745.6161616161615,392.80808080808094 745.6161616161615,383.27272727272737 745.6161616161615,373.73737373737384 745.6161616161615,364.2020202020203 745.6161616161615,354.66666666666674 745.6161616161615,345.1313131313133 745.6161616161615,335.5959595959597 745.6161616161615,326.06060606060623 745.6161616161615,316.5252525252526 745.6161616161615,306.9898989898991 745.6161616161615,297.4545454545456 745.6161616161615,287.91919191919203 745.6161616161615,278.38383838383857 745.6161616161615,268.84848484848493 745.6161616161615,259.3131313131314 745.6161616161615,249.77777777777794 745.6161616161615,240.24242424242436 745.6161616161615,230.70707070707084 745.6161616161615,221.17171717171726 745.6161616161615,211.63636363636374 745.6161616161615,202.10101010101027 745.6161616161615,192.56565656565675 745.6161616161615,183.03030303030312 745.6161616161615,173.4949494949496 745.6161616161615,163.95959595959613 745.6161616161615,154.4242424242426 745.6161616161615,144.88888888888908 745.6161616161615,135.35353535353545" fill="none" stroke="rgba(0,0,255,0.75)" stroke-width="11.327999999999996"/></g><g><polyline data-points="2.4747474747474754,3.989898989898992 2.4747474747474754,4.090909090909092 2.4747474747474754,4.191919191919193 2.4747474747474754,4.292929292929293 2.4747474747474754,4.393939393939394 2.4747474747474754,4.494949494949497 2.4747474747474754,4.595959595959597 2.4747474747474754,4.696969696969697 2.4747474747474754,4.7979797979797985 2.4747474747474754,4.898989898989901 2.4747474747474754,5.000000000000002" data-type="line" data-label="" points="745.6161616161615,135.35353535353545 745.6161616161615,125.81818181818198 745.6161616161615,116.28282828282846 745.6161616161615,106.747474747475 745.6161616161615,97.21212121212153 745.6161616161615,87.67676767676778 745.6161616161615,78.14141414141432 745.6161616161615,68.60606060606085 745.6161616161615,59.07070707070733 745.6161616161615,49.53535353535369 745.6161616161615,40.000000000000114" fill="none" stroke="rgba(255,0,0,0.75)" stroke-width="11.327999999999996"/></g><g><polyline data-points="5.000000000000002,-0.9595959595959596 4.898989898989901,-0.9595959595959596 4.7979797979797985,-0.9595959595959596 4.696969696969697,-0.9595959595959596 4.595959595959597,-0.9595959595959596 4.494949494949497,-0.9595959595959596 4.393939393939394,-0.9595959595959596 4.292929292929293,-0.9595959595959596 4.191919191919193,-0.9595959595959596 4.090909090909092,-0.9595959595959596 3.989898989898992,-0.9595959595959596 3.8888888888888893,-0.9595959595959596 3.7878787878787885,-0.9595959595959596 3.6868686868686877,-0.9595959595959596 3.5858585858585874,-0.9595959595959596 3.4848484848484866,-0.9595959595959596 3.383838383838384,-0.9595959595959596" data-type="line" data-label="" points="984,602.5858585858587 974.4646464646464,602.5858585858587 964.9292929292927,602.5858585858587 955.3939393939393,602.5858585858587 945.8585858585857,602.5858585858587 936.3232323232323,602.5858585858587 926.7878787878785,602.5858585858587 917.2525252525251,602.5858585858587 907.7171717171716,602.5858585858587 898.181818181818,602.5858585858587 888.6464646464647,602.5858585858587 879.111111111111,602.5858585858587 869.5757575757575,602.5858585858587 860.0404040404039,602.5858585858587 850.5050505050505,602.5858585858587 840.969696969697,602.5858585858587 831.4343434343433,602.5858585858587" fill="none" stroke="rgba(255,0,0,0.75)" stroke-width="11.327999999999996"/></g><g><polyline data-points="3.383838383838384,-0.9595959595959596 3.2828282828282833,-0.9595959595959596 3.181818181818183,-0.9595959595959596 3.080808080808082,-0.9595959595959596 2.9797979797979806,-0.9595959595959596 2.87878787878788,-0.9595959595959596" data-type="line" data-label="" points="831.4343434343433,602.5858585858587 821.8989898989898,602.5858585858587 812.3636363636363,602.5858585858587 802.8282828282828,602.5858585858587 793.2929292929292,602.5858585858587 783.7575757575758,602.5858585858587" fill="none" stroke="rgba(0,0,255,0.75)" stroke-width="11.327999999999996"/></g><g><polyline data-points="2.87878787878788,-0.9595959595959596 2.7777777777777786,-0.9595959595959596 2.676767676767678,-0.9595959595959596 2.575757575757577,-0.9595959595959596 2.4747474747474754,-0.9595959595959596 2.373737373737375,-0.9595959595959596 2.2727272727272734,-0.9595959595959596 2.1717171717171726,-0.9595959595959596 2.070707070707072,-0.9595959595959596 1.9696969696969702,-0.9595959595959596 1.8686868686868696,-0.9595959595959596 1.767676767676768,-0.9595959595959596 1.6666666666666674,-0.9595959595959596 1.5656565656565666,-0.9595959595959596 1.4646464646464652,-0.9595959595959596 1.3636363636363644,-0.9595959595959596 1.262626262626263,-0.9595959595959596 1.1616161616161622,-0.9595959595959596 1.0606060606060617,-0.9595959595959596 0.9595959595959602,-0.9595959595959596 0.8585858585858596,-0.9595959595959596 0.7575757575757579,-0.9595959595959596 0.6565656565656574,-0.9595959595959596 0.5555555555555567,-0.9595959595959596 0.4545454545454551,-0.9595959595959596 0.3535353535353544,-0.9595959595959596 0.2525252525252529,-0.9595959595959596 0.1515151515151522,-0.9595959595959596 0.050505050505051545,-0.9595959595959596 -0.05050505050505001,-0.9595959595959596 -0.15151515151515066,-0.9595959595959596 -0.2525252525252522,-0.9595959595959596 -0.35353535353535287,-0.9595959595959596 -0.4545454545454544,-0.9595959595959596 -0.555555555555555,-0.9595959595959596 -0.6565656565656557,-0.9595959595959596 -0.7575757575757572,-0.9595959595959596 -0.8585858585858579,-0.9595959595959596 -0.9595959595959596,-0.9595959595959596 -1.0606060606060603,-0.9595959595959596 -1.1616161616161613,-0.9595959595959596 -1.2626262626262625,-0.9595959595959596 -1.363636363636363,-0.9595959595959596 -1.4646464646464643,-0.9595959595959596 -1.5656565656565653,-0.9595959595959596 -1.6666666666666665,-0.9595959595959596 -1.7676767676767675,-0.9595959595959596 -1.8686868686868683,-1.0606060606060603 -1.9696969696969693,-1.1616161616161613 -2.07070707070707,-1.2626262626262625 -2.1717171717171713,-1.363636363636363 -2.2727272727272725,-1.4646464646464643 -2.3737373737373733,-1.5656565656565653 -2.474747474747474,-1.6666666666666665 -2.5757575757575752,-1.7676767676767675 -2.6767676767676765,-1.8686868686868683 -2.7777777777777777,-1.9696969696969693 -2.8787878787878785,-2.07070707070707 -2.9797979797979792,-2.1717171717171713 -3.0808080808080804,-2.2727272727272725 -3.1818181818181817,-2.3737373737373733 -3.2828282828282824,-2.474747474747474 -3.383838383838383,-2.5757575757575752 -3.484848484848485,-2.6767676767676765 -3.5858585858585856,-2.7777777777777777 -3.6868686868686864,-2.8787878787878785 -3.7878787878787876,-2.9797979797979792 -3.8888888888888884,-3.0808080808080804 -3.98989898989899,-3.1818181818181817" data-type="line" data-label="" points="783.7575757575758,602.5858585858587 774.2222222222222,602.5858585858587 764.6868686868686,602.5858585858587 755.1515151515151,602.5858585858587 745.6161616161615,602.5858585858587 736.0808080808081,602.5858585858587 726.5454545454545,602.5858585858587 717.0101010101009,602.5858585858587 707.4747474747475,602.5858585858587 697.9393939393939,602.5858585858587 688.4040404040404,602.5858585858587 678.8686868686868,602.5858585858587 669.3333333333333,602.5858585858587 659.7979797979798,602.5858585858587 650.2626262626262,602.5858585858587 640.7272727272727,602.5858585858587 631.1919191919192,602.5858585858587 621.6565656565656,602.5858585858587 612.1212121212121,602.5858585858587 602.5858585858585,602.5858585858587 593.0505050505051,602.5858585858587 583.5151515151515,602.5858585858587 573.9797979797979,602.5858585858587 564.4444444444445,602.5858585858587 554.9090909090909,602.5858585858587 545.3737373737374,602.5858585858587 535.8383838383838,602.5858585858587 526.3030303030303,602.5858585858587 516.7676767676768,602.5858585858587 507.2323232323232,602.5858585858587 497.69696969696975,602.5858585858587 488.16161616161617,602.5858585858587 478.62626262626264,602.5858585858587 469.09090909090907,602.5858585858587 459.55555555555554,602.5858585858587 450.0202020202021,602.5858585858587 440.4848484848485,602.5858585858587 430.949494949495,602.5858585858587 421.4141414141414,602.5858585858587 411.8787878787879,602.5858585858587 402.34343434343435,602.5858585858587 392.80808080808083,602.5858585858587 383.2727272727273,602.5858585858587 373.7373737373738,602.5858585858587 364.2020202020202,602.5858585858587 354.6666666666667,602.5858585858587 345.13131313131316,602.5858585858587 335.59595959595964,612.1212121212121 326.0606060606061,621.6565656565657 316.5252525252526,631.1919191919193 306.9898989898991,640.7272727272727 297.4545454545455,650.2626262626263 287.91919191919203,659.7979797979798 278.38383838383845,669.3333333333334 268.84848484848493,678.8686868686868 259.3131313131314,688.4040404040404 249.77777777777783,697.939393939394 240.2424242424243,707.4747474747475 230.70707070707084,717.010101010101 221.17171717171726,726.5454545454545 211.63636363636374,736.0808080808081 202.10101010101022,745.6161616161615 192.5656565656567,755.1515151515151 183.03030303030312,764.6868686868687 173.4949494949496,774.2222222222222 163.95959595959607,783.7575757575758 154.42424242424255,793.2929292929292 144.88888888888903,802.8282828282828 135.35353535353545,812.3636363636363" fill="none" stroke="rgba(255,0,0,0.75)" stroke-width="11.327999999999996"/></g><g><polyline data-points="-3.98989898989899,-3.1818181818181817 -4.090909090909091,-3.0808080808080804 -4.191919191919193,-2.9797979797979792 -4.292929292929293,-2.8787878787878785 -4.393939393939394,-2.7777777777777777 -4.494949494949496,-2.6767676767676765 -4.595959595959596,-2.5757575757575752 -4.696969696969697,-2.474747474747474 -4.7979797979797985,-2.3737373737373733 -4.898989898989899,-2.2727272727272725 -5.000000000000001,-2.1717171717171713 -5.000000000000001,-2.07070707070707 -5.000000000000001,-1.9696969696969693 -5.000000000000001,-1.8686868686868683 -5.000000000000001,-1.7676767676767675 -5.000000000000001,-1.6666666666666665 -5.000000000000001,-1.5656565656565653 -5.000000000000001,-1.4646464646464643 -5.000000000000001,-1.363636363636363 -5.000000000000001,-1.2626262626262625 -5.000000000000001,-1.1616161616161613 -5.000000000000001,-1.0606060606060603 -5.000000000000001,-0.9595959595959596 -5.000000000000001,-0.8585858585858579 -5.000000000000001,-0.7575757575757572 -5.000000000000001,-0.6565656565656557 -5.000000000000001,-0.555555555555555" data-type="line" data-label="" points="135.35353535353545,812.3636363636363 125.81818181818193,802.8282828282828 116.28282828282829,793.2929292929292 106.74747474747483,783.7575757575758 97.21212121212136,774.2222222222222 87.67676767676772,764.6868686868687 78.14141414141426,755.1515151515151 68.60606060606068,745.6161616161615 59.07070707070716,736.0808080808081 49.53535353535369,726.5454545454545 40.00000000000006,717.010101010101 40.00000000000006,707.4747474747475 40.00000000000006,697.939393939394 40.00000000000006,688.4040404040404 40.00000000000006,678.8686868686868 40.00000000000006,669.3333333333334 40.00000000000006,659.7979797979798 40.00000000000006,650.2626262626263 40.00000000000006,640.7272727272727 40.00000000000006,631.1919191919193 40.00000000000006,621.6565656565657 40.00000000000006,612.1212121212121 40.00000000000006,602.5858585858587 40.00000000000006,593.0505050505051 40.00000000000006,583.5151515151516 40.00000000000006,573.979797979798 40.00000000000006,564.4444444444445" fill="none" stroke="rgba(0,0,255,0.75)" stroke-width="11.327999999999996"/></g><g><polyline data-points="-5.000000000000001,1.767676767676768 -4.898989898989899,1.6666666666666674 -4.7979797979797985,1.5656565656565666 -4.696969696969697,1.4646464646464652 -4.595959595959596,1.3636363636363644 -4.494949494949496,1.262626262626263 -4.393939393939394,1.1616161616161622 -4.292929292929293,1.0606060606060617 -4.191919191919193,0.9595959595959602 -4.090909090909091,0.8585858585858596 -3.98989898989899,0.7575757575757579 -3.8888888888888884,0.6565656565656574 -3.7878787878787876,0.5555555555555567 -3.6868686868686864,0.4545454545454551 -3.5858585858585856,0.3535353535353544 -3.484848484848485,0.2525252525252529 -3.383838383838383,0.1515151515151522 -3.2828282828282824,0.050505050505051545 -3.1818181818181817,-0.05050505050505001 -3.0808080808080804,-0.15151515151515066 -2.9797979797979792,-0.2525252525252522 -2.8787878787878785,-0.35353535353535287 -2.7777777777777777,-0.4545454545454544 -2.6767676767676765,-0.555555555555555 -2.5757575757575752,-0.6565656565656557 -2.474747474747474,-0.7575757575757572 -2.3737373737373733,-0.8585858585858579 -2.2727272727272725,-0.9595959595959596" data-type="line" data-label="" points="40.00000000000006,345.1313131313133 49.53535353535369,354.66666666666674 59.07070707070716,364.2020202020203 68.60606060606068,373.73737373737384 78.14141414141426,383.27272727272737 87.67676767676772,392.80808080808094 97.21212121212136,402.3434343434344 106.74747474747483,411.87878787878793 116.28282828282829,421.4141414141415 125.81818181818193,430.94949494949503 135.35353535353545,440.4848484848486 144.88888888888903,450.0202020202021 154.42424242424255,459.5555555555556 163.95959595959607,469.0909090909092 173.4949494949496,478.6262626262627 183.03030303030312,488.1616161616163 192.5656565656567,497.69696969696975 202.10101010101022,507.23232323232327 211.63636363636374,516.7676767676768 221.17171717171726,526.3030303030304 230.70707070707084,535.838383838384 240.2424242424243,545.3737373737374 249.77777777777783,554.909090909091 259.3131313131314,564.4444444444445 268.84848484848493,573.979797979798 278.38383838383845,583.5151515151516 287.91919191919203,593.0505050505051 297.4545454545455,602.5858585858587" fill="none" stroke="rgba(255,0,0,0.75)" stroke-width="11.327999999999996"/></g><g><polyline data-points="-2.2727272727272725,-0.9595959595959596 -2.1717171717171713,-1.0606060606060603 -2.07070707070707,-1.1616161616161613 -1.9696969696969693,-1.2626262626262625 -1.8686868686868683,-1.363636363636363 -1.7676767676767675,-1.4646464646464643 -1.6666666666666665,-1.5656565656565653 -1.5656565656565653,-1.6666666666666665 -1.4646464646464643,-1.7676767676767675 -1.363636363636363,-1.8686868686868683 -1.2626262626262625,-1.9696969696969693 -1.1616161616161613,-2.07070707070707 -1.0606060606060603,-2.1717171717171713 -0.9595959595959596,-2.2727272727272725 -0.8585858585858579,-2.3737373737373733 -0.7575757575757572,-2.474747474747474 -0.6565656565656557,-2.5757575757575752 -0.555555555555555,-2.6767676767676765 -0.4545454545454544,-2.7777777777777777 -0.35353535353535287,-2.8787878787878785 -0.2525252525252522,-2.9797979797979792 -0.15151515151515066,-3.0808080808080804 -0.05050505050505001,-3.1818181818181817" data-type="line" data-label="" points="297.4545454545455,602.5858585858587 306.9898989898991,612.1212121212121 316.5252525252526,621.6565656565657 326.0606060606061,631.1919191919193 335.59595959595964,640.7272727272727 345.13131313131316,650.2626262626263 354.6666666666667,659.7979797979798 364.2020202020202,669.3333333333334 373.7373737373738,678.8686868686868 383.2727272727273,688.4040404040404 392.80808080808083,697.939393939394 402.34343434343435,707.4747474747475 411.8787878787879,717.010101010101 421.4141414141414,726.5454545454545 430.949494949495,736.0808080808081 440.4848484848485,745.6161616161615 450.0202020202021,755.1515151515151 459.55555555555554,764.6868686868687 469.09090909090907,774.2222222222222 478.62626262626264,783.7575757575758 488.16161616161617,793.2929292929292 497.69696969696975,802.8282828282828 507.2323232323232,812.3636363636363" fill="none" stroke="rgba(0,0,255,0.75)" stroke-width="11.327999999999996"/></g><g><polyline data-points="-0.05050505050505001,-3.1818181818181817 0.050505050505051545,-3.2828282828282824 0.1515151515151522,-3.383838383838383 0.2525252525252529,-3.484848484848485 0.3535353535353544,-3.5858585858585856 0.3535353535353544,-3.6868686868686864 0.4545454545454551,-3.7878787878787876 0.5555555555555567,-3.8888888888888884 0.6565656565656574,-3.98989898989899 0.7575757575757579,-3.98989898989899 0.8585858585858596,-3.98989898989899 0.9595959595959602,-3.98989898989899 1.0606060606060617,-3.98989898989899 1.1616161616161622,-3.98989898989899 1.262626262626263,-3.98989898989899" data-type="line" data-label="" points="507.2323232323232,812.3636363636363 516.7676767676768,821.8989898989898 526.3030303030303,831.4343434343434 535.8383838383838,840.969696969697 545.3737373737374,850.5050505050505 545.3737373737374,860.0404040404039 554.9090909090909,869.5757575757575 564.4444444444445,879.1111111111111 573.9797979797979,888.6464646464647 583.5151515151515,888.6464646464647 593.0505050505051,888.6464646464647 602.5858585858585,888.6464646464647 612.1212121212121,888.6464646464647 621.6565656565656,888.6464646464647 631.1919191919192,888.6464646464647" fill="none" stroke="rgba(255,0,0,0.75)" stroke-width="11.327999999999996"/></g><g><polyline data-points="1.262626262626263,-3.98989898989899 1.3636363636363644,-4.090909090909091 1.4646464646464652,-4.191919191919193 1.4646464646464652,-4.292929292929293 1.4646464646464652,-4.393939393939394 1.4646464646464652,-4.494949494949496 1.4646464646464652,-4.595959595959596 1.4646464646464652,-4.696969696969697 1.4646464646464652,-4.7979797979797985 1.4646464646464652,-4.898989898989899 1.4646464646464652,-5.000000000000001" data-type="line" data-label="" points="631.1919191919192,888.6464646464647 640.7272727272727,898.1818181818181 650.2626262626262,907.7171717171718 650.2626262626262,917.2525252525252 650.2626262626262,926.7878787878788 650.2626262626262,936.3232323232323 650.2626262626262,945.8585858585858 650.2626262626262,955.3939393939394 650.2626262626262,964.9292929292928 650.2626262626262,974.4646464646464 650.2626262626262,984" fill="none" stroke="rgba(0,0,255,0.75)" stroke-width="11.327999999999996"/></g><g><polyline data-points="0.7575757575757579,-5.000000000000001 0.8585858585858596,-4.898989898989899 0.9595959595959602,-4.7979797979797985 0.9595959595959602,-4.696969696969697 0.9595959595959602,-4.595959595959596 0.9595959595959602,-4.494949494949496 0.9595959595959602,-4.393939393939394 0.9595959595959602,-4.292929292929293 0.9595959595959602,-4.191919191919193 0.9595959595959602,-4.090909090909091 0.9595959595959602,-3.98989898989899 1.0606060606060617,-3.8888888888888884 1.1616161616161622,-3.7878787878787876 1.1616161616161622,-3.6868686868686864 1.1616161616161622,-3.5858585858585856 1.1616161616161622,-3.484848484848485 1.1616161616161622,-3.383838383838383" data-type="line" data-label="" points="583.5151515151515,984 593.0505050505051,974.4646464646464 602.5858585858585,964.9292929292928 602.5858585858585,955.3939393939394 602.5858585858585,945.8585858585858 602.5858585858585,936.3232323232323 602.5858585858585,926.7878787878788 602.5858585858585,917.2525252525252 602.5858585858585,907.7171717171718 602.5858585858585,898.1818181818181 602.5858585858585,888.6464646464647 612.1212121212121,879.1111111111111 621.6565656565656,869.5757575757575 621.6565656565656,860.0404040404039 621.6565656565656,850.5050505050505 621.6565656565656,840.969696969697 621.6565656565656,831.4343434343434" fill="none" stroke="rgba(0,0,255,0.75)" stroke-width="11.327999999999996"/></g><g><polyline data-points="1.1616161616161622,-3.383838383838383 1.262626262626263,-3.2828282828282824 1.3636363636363644,-3.1818181818181817 1.4646464646464652,-3.0808080808080804 1.5656565656565666,-2.9797979797979792 1.6666666666666674,-2.8787878787878785 1.767676767676768,-2.7777777777777777 1.8686868686868696,-2.6767676767676765 1.9696969696969702,-2.5757575757575752 2.070707070707072,-2.474747474747474 2.1717171717171726,-2.3737373737373733 2.2727272727272734,-2.2727272727272725 2.373737373737375,-2.1717171717171713 2.4747474747474754,-2.07070707070707 2.575757575757577,-1.9696969696969693 2.676767676767678,-1.8686868686868683 2.7777777777777786,-1.7676767676767675 2.87878787878788,-1.6666666666666665 2.9797979797979806,-1.5656565656565653 3.080808080808082,-1.4646464646464643 3.181818181818183,-1.363636363636363 3.2828282828282833,-1.363636363636363 3.383838383838384,-1.363636363636363 3.4848484848484866,-1.363636363636363 3.5858585858585874,-1.363636363636363 3.6868686868686877,-1.363636363636363 3.7878787878787885,-1.363636363636363" data-type="line" data-label="" points="621.6565656565656,831.4343434343434 631.1919191919192,821.8989898989898 640.7272727272727,812.3636363636363 650.2626262626262,802.8282828282828 659.7979797979798,793.2929292929292 669.3333333333333,783.7575757575758 678.8686868686868,774.2222222222222 688.4040404040404,764.6868686868687 697.9393939393939,755.1515151515151 707.4747474747475,745.6161616161615 717.0101010101009,736.0808080808081 726.5454545454545,726.5454545454545 736.0808080808081,717.010101010101 745.6161616161615,707.4747474747475 755.1515151515151,697.939393939394 764.6868686868686,688.4040404040404 774.2222222222222,678.8686868686868 783.7575757575758,669.3333333333334 793.2929292929292,659.7979797979798 802.8282828282828,650.2626262626263 812.3636363636363,640.7272727272727 821.8989898989898,640.7272727272727 831.4343434343433,640.7272727272727 840.969696969697,640.7272727272727 850.5050505050505,640.7272727272727 860.0404040404039,640.7272727272727 869.5757575757575,640.7272727272727" fill="none" stroke="rgba(255,0,0,0.75)" stroke-width="11.327999999999996"/></g><g><polyline data-points="3.7878787878787885,-1.363636363636363 3.8888888888888893,-1.2626262626262625 3.8888888888888893,-1.1616161616161613 3.8888888888888893,-1.0606060606060603 3.8888888888888893,-0.9595959595959596 3.8888888888888893,-0.8585858585858579 3.8888888888888893,-0.7575757575757572 3.8888888888888893,-0.6565656565656557 3.8888888888888893,-0.555555555555555 3.8888888888888893,-0.4545454545454544 3.8888888888888893,-0.35353535353535287 3.8888888888888893,-0.2525252525252522 3.8888888888888893,-0.15151515151515066 3.8888888888888893,-0.05050505050505001 3.8888888888888893,0.050505050505051545 3.8888888888888893,0.1515151515151522 3.8888888888888893,0.2525252525252529 3.8888888888888893,0.3535353535353544 3.8888888888888893,0.4545454545454551 3.8888888888888893,0.5555555555555567 3.8888888888888893,0.6565656565656574 3.8888888888888893,0.7575757575757579 3.8888888888888893,0.8585858585858596 3.8888888888888893,0.9595959595959602 3.8888888888888893,1.0606060606060617 3.8888888888888893,1.1616161616161622 3.8888888888888893,1.262626262626263 3.8888888888888893,1.3636363636363644 3.8888888888888893,1.4646464646464652 3.8888888888888893,1.5656565656565666 3.8888888888888893,1.6666666666666674 3.8888888888888893,1.767676767676768 3.8888888888888893,1.8686868686868696 3.8888888888888893,1.9696969696969702 3.8888888888888893,2.070707070707072 3.8888888888888893,2.1717171717171726 3.8888888888888893,2.2727272727272734 3.8888888888888893,2.373737373737375 3.8888888888888893,2.4747474747474754 3.8888888888888893,2.575757575757577 3.8888888888888893,2.676767676767678 3.8888888888888893,2.7777777777777786 3.8888888888888893,2.87878787878788 3.8888888888888893,2.9797979797979806 3.8888888888888893,3.080808080808082 3.8888888888888893,3.181818181818183 3.8888888888888893,3.2828282828282833 3.8888888888888893,3.383838383838384 3.8888888888888893,3.4848484848484866 3.8888888888888893,3.5858585858585874 3.8888888888888893,3.6868686868686877 3.8888888888888893,3.7878787878787885 3.8888888888888893,3.8888888888888893 3.8888888888888893,3.989898989898992 3.8888888888888893,4.090909090909092 3.8888888888888893,4.191919191919193 3.8888888888888893,4.292929292929293 3.8888888888888893,4.393939393939394 3.8888888888888893,4.494949494949497 3.8888888888888893,4.595959595959597 3.8888888888888893,4.696969696969697 3.8888888888888893,4.7979797979797985 3.989898989898992,4.898989898989901 3.8888888888888893,5.000000000000002" data-type="line" data-label="" points="869.5757575757575,640.7272727272727 879.111111111111,631.1919191919193 879.111111111111,621.6565656565657 879.111111111111,612.1212121212121 879.111111111111,602.5858585858587 879.111111111111,593.0505050505051 879.111111111111,583.5151515151516 879.111111111111,573.979797979798 879.111111111111,564.4444444444445 879.111111111111,554.909090909091 879.111111111111,545.3737373737374 879.111111111111,535.838383838384 879.111111111111,526.3030303030304 879.111111111111,516.7676767676768 879.111111111111,507.23232323232327 879.111111111111,497.69696969696975 879.111111111111,488.1616161616163 879.111111111111,478.6262626262627 879.111111111111,469.0909090909092 879.111111111111,459.5555555555556 879.111111111111,450.0202020202021 879.111111111111,440.4848484848486 879.111111111111,430.94949494949503 879.111111111111,421.4141414141415 879.111111111111,411.87878787878793 879.111111111111,402.3434343434344 879.111111111111,392.80808080808094 879.111111111111,383.27272727272737 879.111111111111,373.73737373737384 879.111111111111,364.2020202020203 879.111111111111,354.66666666666674 879.111111111111,345.1313131313133 879.111111111111,335.5959595959597 879.111111111111,326.06060606060623 879.111111111111,316.5252525252526 879.111111111111,306.9898989898991 879.111111111111,297.4545454545456 879.111111111111,287.91919191919203 879.111111111111,278.38383838383857 879.111111111111,268.84848484848493 879.111111111111,259.3131313131314 879.111111111111,249.77777777777794 879.111111111111,240.24242424242436 879.111111111111,230.70707070707084 879.111111111111,221.17171717171726 879.111111111111,211.63636363636374 879.111111111111,202.10101010101027 879.111111111111,192.56565656565675 879.111111111111,183.03030303030312 879.111111111111,173.4949494949496 879.111111111111,163.95959595959613 879.111111111111,154.4242424242426 879.111111111111,144.88888888888908 879.111111111111,135.35353535353545 879.111111111111,125.81818181818198 879.111111111111,116.28282828282846 879.111111111111,106.747474747475 879.111111111111,97.21212121212153 879.111111111111,87.67676767676778 879.111111111111,78.14141414141432 879.111111111111,68.60606060606085 879.111111111111,59.07070707070733 888.6464646464647,49.53535353535369 879.111111111111,40.000000000000114" fill="none" stroke="rgba(0,0,255,0.75)" stroke-width="11.327999999999996"/></g><g><polyline data-points="-2.9797979797979792,5.000000000000002 -2.8787878787878785,4.898989898989901 -2.7777777777777777,4.7979797979797985 -2.6767676767676765,4.696969696969697 -2.5757575757575752,4.595959595959597 -2.474747474747474,4.494949494949497 -2.3737373737373733,4.393939393939394 -2.2727272727272725,4.292929292929293 -2.1717171717171713,4.191919191919193 -2.07070707070707,4.090909090909092 -1.9696969696969693,3.989898989898992 -1.8686868686868683,3.8888888888888893 -1.7676767676767675,3.7878787878787885 -1.6666666666666665,3.6868686868686877 -1.5656565656565653,3.5858585858585874 -1.4646464646464643,3.4848484848484866 -1.363636363636363,3.383838383838384 -1.2626262626262625,3.2828282828282833 -1.1616161616161613,3.181818181818183 -1.0606060606060603,3.080808080808082 -0.9595959595959596,2.9797979797979806 -0.8585858585858579,2.87878787878788 -0.7575757575757572,2.7777777777777786 -0.6565656565656557,2.676767676767678 -0.555555555555555,2.575757575757577 -0.4545454545454544,2.4747474747474754 -0.35353535353535287,2.373737373737375 -0.2525252525252522,2.2727272727272734 -0.15151515151515066,2.1717171717171726 -0.05050505050505001,2.070707070707072 0.050505050505051545,1.9696969696969702 0.1515151515151522,1.8686868686868696 0.2525252525252529,1.767676767676768 0.3535353535353544,1.6666666666666674 0.4545454545454551,1.5656565656565666 0.5555555555555567,1.4646464646464652 0.6565656565656574,1.3636363636363644 0.7575757575757579,1.262626262626263 0.7575757575757579,1.1616161616161622 0.7575757575757579,1.0606060606060617 0.7575757575757579,0.9595959595959602 0.7575757575757579,0.8585858585858596 0.7575757575757579,0.7575757575757579 0.7575757575757579,0.6565656565656574 0.7575757575757579,0.5555555555555567 0.7575757575757579,0.4545454545454551 0.7575757575757579,0.3535353535353544 0.7575757575757579,0.2525252525252529 0.7575757575757579,0.1515151515151522 0.7575757575757579,0.050505050505051545 0.7575757575757579,-0.05050505050505001 0.7575757575757579,-0.15151515151515066 0.7575757575757579,-0.2525252525252522 0.7575757575757579,-0.35353535353535287 0.7575757575757579,-0.4545454545454544 0.7575757575757579,-0.555555555555555 0.7575757575757579,-0.6565656565656557 0.7575757575757579,-0.7575757575757572 0.7575757575757579,-0.8585858585858579 0.7575757575757579,-0.9595959595959596 0.7575757575757579,-1.0606060606060603 0.7575757575757579,-1.1616161616161613 0.7575757575757579,-1.2626262626262625 0.7575757575757579,-1.363636363636363 0.7575757575757579,-1.4646464646464643 0.7575757575757579,-1.5656565656565653 0.7575757575757579,-1.6666666666666665 0.7575757575757579,-1.7676767676767675 0.7575757575757579,-1.8686868686868683 0.7575757575757579,-1.9696969696969693 0.7575757575757579,-2.07070707070707 0.7575757575757579,-2.1717171717171713 0.7575757575757579,-2.2727272727272725 0.7575757575757579,-2.3737373737373733 0.7575757575757579,-2.474747474747474" data-type="line" data-label="" points="230.70707070707084,40.000000000000114 240.2424242424243,49.53535353535369 249.77777777777783,59.07070707070733 259.3131313131314,68.60606060606085 268.84848484848493,78.14141414141432 278.38383838383845,87.67676767676778 287.91919191919203,97.21212121212153 297.4545454545455,106.747474747475 306.9898989898991,116.28282828282846 316.5252525252526,125.81818181818198 326.0606060606061,135.35353535353545 335.59595959595964,144.88888888888908 345.13131313131316,154.4242424242426 354.6666666666667,163.95959595959613 364.2020202020202,173.4949494949496 373.7373737373738,183.03030303030312 383.2727272727273,192.56565656565675 392.80808080808083,202.10101010101027 402.34343434343435,211.63636363636374 411.8787878787879,221.17171717171726 421.4141414141414,230.70707070707084 430.949494949495,240.24242424242436 440.4848484848485,249.77777777777794 450.0202020202021,259.3131313131314 459.55555555555554,268.84848484848493 469.09090909090907,278.38383838383857 478.62626262626264,287.91919191919203 488.16161616161617,297.4545454545456 497.69696969696975,306.9898989898991 507.2323232323232,316.5252525252526 516.7676767676768,326.06060606060623 526.3030303030303,335.5959595959597 535.8383838383838,345.1313131313133 545.3737373737374,354.66666666666674 554.9090909090909,364.2020202020203 564.4444444444445,373.73737373737384 573.9797979797979,383.27272727272737 583.5151515151515,392.80808080808094 583.5151515151515,402.3434343434344 583.5151515151515,411.87878787878793 583.5151515151515,421.4141414141415 583.5151515151515,430.94949494949503 583.5151515151515,440.4848484848486 583.5151515151515,450.0202020202021 583.5151515151515,459.5555555555556 583.5151515151515,469.0909090909092 583.5151515151515,478.6262626262627 583.5151515151515,488.1616161616163 583.5151515151515,497.69696969696975 583.5151515151515,507.23232323232327 583.5151515151515,516.7676767676768 583.5151515151515,526.3030303030304 583.5151515151515,535.838383838384 583.5151515151515,545.3737373737374 583.5151515151515,554.909090909091 583.5151515151515,564.4444444444445 583.5151515151515,573.979797979798 583.5151515151515,583.5151515151516 583.5151515151515,593.0505050505051 583.5151515151515,602.5858585858587 583.5151515151515,612.1212121212121 583.5151515151515,621.6565656565657 583.5151515151515,631.1919191919193 583.5151515151515,640.7272727272727 583.5151515151515,650.2626262626263 583.5151515151515,659.7979797979798 583.5151515151515,669.3333333333334 583.5151515151515,678.8686868686868 583.5151515151515,688.4040404040404 583.5151515151515,697.939393939394 583.5151515151515,707.4747474747475 583.5151515151515,717.010101010101 583.5151515151515,726.5454545454545 583.5151515151515,736.0808080808081 583.5151515151515,745.6161616161615" fill="none" stroke="rgba(0,0,255,0.75)" stroke-width="11.327999999999996"/></g><g><polyline data-points="0.7575757575757579,-2.474747474747474 0.7575757575757579,-2.5757575757575752 0.7575757575757579,-2.6767676767676765 0.7575757575757579,-2.7777777777777777 0.7575757575757579,-2.8787878787878785 0.7575757575757579,-2.9797979797979792 0.7575757575757579,-3.0808080808080804 0.7575757575757579,-3.1818181818181817 0.7575757575757579,-3.2828282828282824 0.8585858585858596,-3.383838383838383 0.9595959595959602,-3.484848484848485 1.0606060606060617,-3.5858585858585856 1.1616161616161622,-3.6868686868686864 1.262626262626263,-3.6868686868686864 1.3636363636363644,-3.7878787878787876 1.4646464646464652,-3.8888888888888884 1.5656565656565666,-3.98989898989899 1.6666666666666674,-4.090909090909091 1.767676767676768,-4.191919191919193 1.8686868686868696,-4.292929292929293 1.9696969696969702,-4.393939393939394 2.070707070707072,-4.494949494949496 2.1717171717171726,-4.595959595959596 2.2727272727272734,-4.696969696969697 2.373737373737375,-4.7979797979797985 2.4747474747474754,-4.898989898989899 2.575757575757577,-5.000000000000001 2.676767676767678,-5.000000000000001 2.7777777777777786,-5.000000000000001 2.87878787878788,-5.000000000000001 2.9797979797979806,-5.000000000000001 3.080808080808082,-5.000000000000001 3.181818181818183,-5.000000000000001 3.2828282828282833,-5.000000000000001 3.383838383838384,-5.000000000000001 3.4848484848484866,-5.000000000000001 3.5858585858585874,-5.000000000000001 3.6868686868686877,-5.000000000000001 3.7878787878787885,-5.000000000000001 3.8888888888888893,-5.000000000000001 3.989898989898992,-5.000000000000001 4.090909090909092,-5.000000000000001 4.191919191919193,-5.000000000000001 4.292929292929293,-5.000000000000001 4.393939393939394,-5.000000000000001 4.494949494949497,-5.000000000000001 4.595959595959597,-5.000000000000001 4.696969696969697,-5.000000000000001 4.7979797979797985,-5.000000000000001 4.898989898989901,-5.000000000000001 5.000000000000002,-5.000000000000001" data-type="line" data-label="" points="583.5151515151515,745.6161616161615 583.5151515151515,755.1515151515151 583.5151515151515,764.6868686868687 583.5151515151515,774.2222222222222 583.5151515151515,783.7575757575758 583.5151515151515,793.2929292929292 583.5151515151515,802.8282828282828 583.5151515151515,812.3636363636363 583.5151515151515,821.8989898989898 593.0505050505051,831.4343434343434 602.5858585858585,840.969696969697 612.1212121212121,850.5050505050505 621.6565656565656,860.0404040404039 631.1919191919192,860.0404040404039 640.7272727272727,869.5757575757575 650.2626262626262,879.1111111111111 659.7979797979798,888.6464646464647 669.3333333333333,898.1818181818181 678.8686868686868,907.7171717171718 688.4040404040404,917.2525252525252 697.9393939393939,926.7878787878788 707.4747474747475,936.3232323232323 717.0101010101009,945.8585858585858 726.5454545454545,955.3939393939394 736.0808080808081,964.9292929292928 745.6161616161615,974.4646464646464 755.1515151515151,984 764.6868686868686,984 774.2222222222222,984 783.7575757575758,984 793.2929292929292,984 802.8282828282828,984 812.3636363636363,984 821.8989898989898,984 831.4343434343433,984 840.969696969697,984 850.5050505050505,984 860.0404040404039,984 869.5757575757575,984 879.111111111111,984 888.6464646464647,984 898.181818181818,984 907.7171717171716,984 917.2525252525251,984 926.7878787878785,984 936.3232323232323,984 945.8585858585857,984 955.3939393939393,984 964.9292929292927,984 974.4646464646464,984 984,984" fill="none" stroke="rgba(255,0,0,0.75)" stroke-width="11.327999999999996"/></g><g><polyline data-points="5.000000000000002,-0.05050505050505001 4.898989898989901,-0.15151515151515066 4.7979797979797985,-0.2525252525252522 4.696969696969697,-0.35353535353535287 4.595959595959597,-0.4545454545454544 4.494949494949497,-0.555555555555555 4.393939393939394,-0.6565656565656557 4.292929292929293,-0.7575757575757572 4.191919191919193,-0.8585858585858579 4.090909090909092,-0.9595959595959596 4.090909090909092,-1.0606060606060603 4.090909090909092,-1.1616161616161613 4.090909090909092,-1.2626262626262625 4.090909090909092,-1.363636363636363 3.989898989898992,-1.4646464646464643 3.8888888888888893,-1.5656565656565653 3.7878787878787885,-1.6666666666666665 3.6868686868686877,-1.5656565656565653 3.5858585858585874,-1.4646464646464643 3.4848484848484866,-1.363636363636363 3.4848484848484866,-1.2626262626262625 3.5858585858585874,-1.1616161616161613 3.6868686868686877,-1.0606060606060603 3.6868686868686877,-0.9595959595959596 3.5858585858585874,-0.8585858585858579 3.4848484848484866,-0.7575757575757572 3.383838383838384,-0.6565656565656557 3.2828282828282833,-0.555555555555555 3.181818181818183,-0.4545454545454544 3.080808080808082,-0.4545454545454544 2.9797979797979806,-0.4545454545454544 2.87878787878788,-0.4545454545454544" data-type="line" data-label="" points="984,516.7676767676768 974.4646464646464,526.3030303030304 964.9292929292927,535.838383838384 955.3939393939393,545.3737373737374 945.8585858585857,554.909090909091 936.3232323232323,564.4444444444445 926.7878787878785,573.979797979798 917.2525252525251,583.5151515151516 907.7171717171716,593.0505050505051 898.181818181818,602.5858585858587 898.181818181818,612.1212121212121 898.181818181818,621.6565656565657 898.181818181818,631.1919191919193 898.181818181818,640.7272727272727 888.6464646464647,650.2626262626263 879.111111111111,659.7979797979798 869.5757575757575,669.3333333333334 860.0404040404039,659.7979797979798 850.5050505050505,650.2626262626263 840.969696969697,640.7272727272727 840.969696969697,631.1919191919193 850.5050505050505,621.6565656565657 860.0404040404039,612.1212121212121 860.0404040404039,602.5858585858587 850.5050505050505,593.0505050505051 840.969696969697,583.5151515151516 831.4343434343433,573.979797979798 821.8989898989898,564.4444444444445 812.3636363636363,554.909090909091 802.8282828282828,554.909090909091 793.2929292929292,554.909090909091 783.7575757575758,554.909090909091" fill="none" stroke="rgba(0,0,255,0.75)" stroke-width="11.327999999999996"/></g><g><polyline data-points="2.87878787878788,-0.4545454545454544 2.7777777777777786,-0.4545454545454544 2.676767676767678,-0.4545454545454544 2.575757575757577,-0.4545454545454544 2.4747474747474754,-0.4545454545454544 2.373737373737375,-0.4545454545454544 2.2727272727272734,-0.4545454545454544 2.1717171717171726,-0.4545454545454544 2.070707070707072,-0.4545454545454544 1.9696969696969702,-0.4545454545454544 1.8686868686868696,-0.4545454545454544 1.767676767676768,-0.4545454545454544 1.6666666666666674,-0.4545454545454544 1.5656565656565666,-0.4545454545454544 1.4646464646464652,-0.4545454545454544 1.3636363636363644,-0.4545454545454544 1.262626262626263,-0.4545454545454544 1.1616161616161622,-0.4545454545454544 1.0606060606060617,-0.4545454545454544 0.9595959595959602,-0.4545454545454544 0.8585858585858596,-0.4545454545454544 0.7575757575757579,-0.4545454545454544 0.6565656565656574,-0.4545454545454544 0.5555555555555567,-0.4545454545454544 0.4545454545454551,-0.4545454545454544 0.3535353535353544,-0.4545454545454544 0.2525252525252529,-0.4545454545454544 0.1515151515151522,-0.4545454545454544 0.050505050505051545,-0.4545454545454544 -0.05050505050505001,-0.4545454545454544 -0.15151515151515066,-0.4545454545454544 -0.2525252525252522,-0.4545454545454544 -0.35353535353535287,-0.4545454545454544 -0.4545454545454544,-0.4545454545454544 -0.555555555555555,-0.4545454545454544 -0.6565656565656557,-0.4545454545454544 -0.7575757575757572,-0.4545454545454544 -0.8585858585858579,-0.4545454545454544 -0.9595959595959596,-0.4545454545454544 -1.0606060606060603,-0.4545454545454544 -1.1616161616161613,-0.4545454545454544 -1.2626262626262625,-0.4545454545454544 -1.363636363636363,-0.4545454545454544 -1.4646464646464643,-0.4545454545454544 -1.5656565656565653,-0.4545454545454544 -1.6666666666666665,-0.4545454545454544 -1.7676767676767675,-0.4545454545454544 -1.8686868686868683,-0.4545454545454544 -1.9696969696969693,-0.4545454545454544 -2.07070707070707,-0.4545454545454544 -2.1717171717171713,-0.4545454545454544 -2.2727272727272725,-0.4545454545454544" data-type="line" data-label="" points="783.7575757575758,554.909090909091 774.2222222222222,554.909090909091 764.6868686868686,554.909090909091 755.1515151515151,554.909090909091 745.6161616161615,554.909090909091 736.0808080808081,554.909090909091 726.5454545454545,554.909090909091 717.0101010101009,554.909090909091 707.4747474747475,554.909090909091 697.9393939393939,554.909090909091 688.4040404040404,554.909090909091 678.8686868686868,554.909090909091 669.3333333333333,554.909090909091 659.7979797979798,554.909090909091 650.2626262626262,554.909090909091 640.7272727272727,554.909090909091 631.1919191919192,554.909090909091 621.6565656565656,554.909090909091 612.1212121212121,554.909090909091 602.5858585858585,554.909090909091 593.0505050505051,554.909090909091 583.5151515151515,554.909090909091 573.9797979797979,554.909090909091 564.4444444444445,554.909090909091 554.9090909090909,554.909090909091 545.3737373737374,554.909090909091 535.8383838383838,554.909090909091 526.3030303030303,554.909090909091 516.7676767676768,554.909090909091 507.2323232323232,554.909090909091 497.69696969696975,554.909090909091 488.16161616161617,554.909090909091 478.62626262626264,554.909090909091 469.09090909090907,554.909090909091 459.55555555555554,554.909090909091 450.0202020202021,554.909090909091 440.4848484848485,554.909090909091 430.949494949495,554.909090909091 421.4141414141414,554.909090909091 411.8787878787879,554.909090909091 402.34343434343435,554.909090909091 392.80808080808083,554.909090909091 383.2727272727273,554.909090909091 373.7373737373738,554.909090909091 364.2020202020202,554.909090909091 354.6666666666667,554.909090909091 345.13131313131316,554.909090909091 335.59595959595964,554.909090909091 326.0606060606061,554.909090909091 316.5252525252526,554.909090909091 306.9898989898991,554.909090909091 297.4545454545455,554.909090909091" fill="none" stroke="rgba(255,0,0,0.75)" stroke-width="11.327999999999996"/></g><g><polyline data-points="-2.2727272727272725,-0.4545454545454544 -2.3737373737373733,-0.4545454545454544 -2.474747474747474,-0.4545454545454544 -2.5757575757575752,-0.4545454545454544 -2.6767676767676765,-0.4545454545454544 -2.7777777777777777,-0.4545454545454544 -2.8787878787878785,-0.4545454545454544 -2.9797979797979792,-0.4545454545454544 -3.0808080808080804,-0.4545454545454544 -3.1818181818181817,-0.4545454545454544 -3.2828282828282824,-0.4545454545454544 -3.383838383838383,-0.4545454545454544 -3.484848484848485,-0.4545454545454544 -3.5858585858585856,-0.4545454545454544" data-type="line" data-label="" points="297.4545454545455,554.909090909091 287.91919191919203,554.909090909091 278.38383838383845,554.909090909091 268.84848484848493,554.909090909091 259.3131313131314,554.909090909091 249.77777777777783,554.909090909091 240.2424242424243,554.909090909091 230.70707070707084,554.909090909091 221.17171717171726,554.909090909091 211.63636363636374,554.909090909091 202.10101010101022,554.909090909091 192.5656565656567,554.909090909091 183.03030303030312,554.909090909091 173.4949494949496,554.909090909091" fill="none" stroke="rgba(0,0,255,0.75)" stroke-width="11.327999999999996"/></g><g><polyline data-points="-3.5858585858585856,-0.4545454545454544 -3.6868686868686864,-0.4545454545454544 -3.7878787878787876,-0.4545454545454544 -3.8888888888888884,-0.4545454545454544 -3.98989898989899,-0.4545454545454544 -4.090909090909091,-0.4545454545454544 -4.191919191919193,-0.4545454545454544 -4.292929292929293,-0.4545454545454544 -4.393939393939394,-0.4545454545454544 -4.494949494949496,-0.4545454545454544 -4.595959595959596,-0.4545454545454544 -4.696969696969697,-0.4545454545454544 -4.7979797979797985,-0.4545454545454544 -4.898989898989899,-0.4545454545454544 -5.000000000000001,-0.4545454545454544" data-type="line" data-label="" points="173.4949494949496,554.909090909091 163.95959595959607,554.909090909091 154.42424242424255,554.909090909091 144.88888888888903,554.909090909091 135.35353535353545,554.909090909091 125.81818181818193,554.909090909091 116.28282828282829,554.909090909091 106.74747474747483,554.909090909091 97.21212121212136,554.909090909091 87.67676767676772,554.909090909091 78.14141414141426,554.909090909091 68.60606060606068,554.909090909091 59.07070707070716,554.909090909091 49.53535353535369,554.909090909091 40.00000000000006,554.909090909091" fill="none" stroke="rgba(255,0,0,0.75)" stroke-width="11.327999999999996"/></g><g><polyline data-points="5.000000000000002,2.2727272727272734 4.898989898989901,2.1717171717171726 4.7979797979797985,2.070707070707072 4.696969696969697,1.9696969696969702 4.595959595959597,1.8686868686868696 4.494949494949497,1.767676767676768 4.393939393939394,1.6666666666666674 4.292929292929293,1.5656565656565666 4.191919191919193,1.4646464646464652 4.090909090909092,1.3636363636363644 3.989898989898992,1.262626262626263 3.8888888888888893,1.1616161616161622 3.7878787878787885,1.0606060606060617 3.6868686868686877,0.9595959595959602 3.5858585858585874,0.8585858585858596 3.4848484848484866,0.7575757575757579 3.383838383838384,0.6565656565656574 3.2828282828282833,0.5555555555555567 3.181818181818183,0.4545454545454551 3.080808080808082,0.3535353535353544 2.9797979797979806,0.2525252525252529 2.87878787878788,0.1515151515151522 2.7777777777777786,0.050505050505051545 2.676767676767678,-0.05050505050505001 2.575757575757577,-0.05050505050505001 2.4747474747474754,-0.05050505050505001 2.373737373737375,-0.05050505050505001 2.2727272727272734,-0.05050505050505001 2.1717171717171726,-0.05050505050505001 2.070707070707072,-0.05050505050505001 1.9696969696969702,-0.05050505050505001 1.8686868686868696,-0.05050505050505001 1.767676767676768,-0.05050505050505001 1.6666666666666674,-0.05050505050505001 1.5656565656565666,-0.05050505050505001 1.4646464646464652,-0.05050505050505001 1.3636363636363644,-0.05050505050505001 1.262626262626263,-0.05050505050505001 1.1616161616161622,-0.05050505050505001 1.0606060606060617,-0.05050505050505001 0.9595959595959602,-0.05050505050505001 0.8585858585858596,-0.05050505050505001 0.7575757575757579,-0.05050505050505001 0.6565656565656574,-0.05050505050505001 0.5555555555555567,-0.05050505050505001 0.4545454545454551,-0.05050505050505001 0.3535353535353544,-0.05050505050505001 0.2525252525252529,-0.05050505050505001 0.1515151515151522,-0.05050505050505001 0.050505050505051545,-0.05050505050505001 -0.05050505050505001,-0.05050505050505001 -0.15151515151515066,-0.05050505050505001 -0.2525252525252522,-0.05050505050505001" data-type="line" data-label="" points="984,297.4545454545456 974.4646464646464,306.9898989898991 964.9292929292927,316.5252525252526 955.3939393939393,326.06060606060623 945.8585858585857,335.5959595959597 936.3232323232323,345.1313131313133 926.7878787878785,354.66666666666674 917.2525252525251,364.2020202020203 907.7171717171716,373.73737373737384 898.181818181818,383.27272727272737 888.6464646464647,392.80808080808094 879.111111111111,402.3434343434344 869.5757575757575,411.87878787878793 860.0404040404039,421.4141414141415 850.5050505050505,430.94949494949503 840.969696969697,440.4848484848486 831.4343434343433,450.0202020202021 821.8989898989898,459.5555555555556 812.3636363636363,469.0909090909092 802.8282828282828,478.6262626262627 793.2929292929292,488.1616161616163 783.7575757575758,497.69696969696975 774.2222222222222,507.23232323232327 764.6868686868686,516.7676767676768 755.1515151515151,516.7676767676768 745.6161616161615,516.7676767676768 736.0808080808081,516.7676767676768 726.5454545454545,516.7676767676768 717.0101010101009,516.7676767676768 707.4747474747475,516.7676767676768 697.9393939393939,516.7676767676768 688.4040404040404,516.7676767676768 678.8686868686868,516.7676767676768 669.3333333333333,516.7676767676768 659.7979797979798,516.7676767676768 650.2626262626262,516.7676767676768 640.7272727272727,516.7676767676768 631.1919191919192,516.7676767676768 621.6565656565656,516.7676767676768 612.1212121212121,516.7676767676768 602.5858585858585,516.7676767676768 593.0505050505051,516.7676767676768 583.5151515151515,516.7676767676768 573.9797979797979,516.7676767676768 564.4444444444445,516.7676767676768 554.9090909090909,516.7676767676768 545.3737373737374,516.7676767676768 535.8383838383838,516.7676767676768 526.3030303030303,516.7676767676768 516.7676767676768,516.7676767676768 507.2323232323232,516.7676767676768 497.69696969696975,516.7676767676768 488.16161616161617,516.7676767676768" fill="none" stroke="rgba(255,0,0,0.75)" stroke-width="11.327999999999996"/></g><g><polyline data-points="-0.2525252525252522,-0.05050505050505001 -0.35353535353535287,-0.15151515151515066 -0.4545454545454544,-0.2525252525252522 -0.555555555555555,-0.35353535353535287 -0.6565656565656557,-0.4545454545454544 -0.7575757575757572,-0.555555555555555 -0.8585858585858579,-0.6565656565656557 -0.9595959595959596,-0.7575757575757572 -1.0606060606060603,-0.8585858585858579 -1.1616161616161613,-0.9595959595959596 -1.2626262626262625,-1.0606060606060603 -1.363636363636363,-1.1616161616161613 -1.363636363636363,-1.2626262626262625 -1.363636363636363,-1.363636363636363" data-type="line" data-label="" points="488.16161616161617,516.7676767676768 478.62626262626264,526.3030303030304 469.09090909090907,535.838383838384 459.55555555555554,545.3737373737374 450.0202020202021,554.909090909091 440.4848484848485,564.4444444444445 430.949494949495,573.979797979798 421.4141414141414,583.5151515151516 411.8787878787879,593.0505050505051 402.34343434343435,602.5858585858587 392.80808080808083,612.1212121212121 383.2727272727273,621.6565656565657 383.2727272727273,631.1919191919193 383.2727272727273,640.7272727272727" fill="none" stroke="rgba(0,0,255,0.75)" stroke-width="11.327999999999996"/></g><g><polyline data-points="-1.363636363636363,-1.363636363636363 -1.4646464646464643,-1.4646464646464643 -1.5656565656565653,-1.5656565656565653 -1.6666666666666665,-1.6666666666666665 -1.7676767676767675,-1.7676767676767675 -1.8686868686868683,-1.8686868686868683 -1.9696969696969693,-1.9696969696969693 -2.07070707070707,-2.07070707070707 -2.1717171717171713,-2.1717171717171713 -2.2727272727272725,-2.2727272727272725 -2.3737373737373733,-2.3737373737373733 -2.474747474747474,-2.474747474747474 -2.5757575757575752,-2.5757575757575752 -2.6767676767676765,-2.6767676767676765 -2.7777777777777777,-2.7777777777777777 -2.8787878787878785,-2.8787878787878785 -2.9797979797979792,-2.9797979797979792 -3.0808080808080804,-3.0808080808080804 -3.1818181818181817,-3.1818181818181817 -3.2828282828282824,-3.2828282828282824 -3.383838383838383,-3.383838383838383 -3.484848484848485,-3.484848484848485 -3.5858585858585856,-3.5858585858585856 -3.6868686868686864,-3.6868686868686864 -3.7878787878787876,-3.7878787878787876 -3.8888888888888884,-3.8888888888888884 -3.98989898989899,-3.98989898989899" data-type="line" data-label="" points="383.2727272727273,640.7272727272727 373.7373737373738,650.2626262626263 364.2020202020202,659.7979797979798 354.6666666666667,669.3333333333334 345.13131313131316,678.8686868686868 335.59595959595964,688.4040404040404 326.0606060606061,697.939393939394 316.5252525252526,707.4747474747475 306.9898989898991,717.010101010101 297.4545454545455,726.5454545454545 287.91919191919203,736.0808080808081 278.38383838383845,745.6161616161615 268.84848484848493,755.1515151515151 259.3131313131314,764.6868686868687 249.77777777777783,774.2222222222222 240.2424242424243,783.7575757575758 230.70707070707084,793.2929292929292 221.17171717171726,802.8282828282828 211.63636363636374,812.3636363636363 202.10101010101022,821.8989898989898 192.5656565656567,831.4343434343434 183.03030303030312,840.969696969697 173.4949494949496,850.5050505050505 163.95959595959607,860.0404040404039 154.42424242424255,869.5757575757575 144.88888888888903,879.1111111111111 135.35353535353545,888.6464646464647" fill="none" stroke="rgba(255,0,0,0.75)" stroke-width="11.327999999999996"/></g><g><polyline data-points="-3.98989898989899,-3.98989898989899 -4.090909090909091,-4.090909090909091 -4.191919191919193,-4.191919191919193 -4.292929292929293,-4.292929292929293 -4.393939393939394,-4.393939393939394 -4.494949494949496,-4.494949494949496 -4.595959595959596,-4.494949494949496 -4.696969696969697,-4.494949494949496 -4.7979797979797985,-4.494949494949496 -4.898989898989899,-4.494949494949496 -5.000000000000001,-4.494949494949496" data-type="line" data-label="" points="135.35353535353545,888.6464646464647 125.81818181818193,898.1818181818181 116.28282828282829,907.7171717171718 106.74747474747483,917.2525252525252 97.21212121212136,926.7878787878788 87.67676767676772,936.3232323232323 78.14141414141426,936.3232323232323 68.60606060606068,936.3232323232323 59.07070707070716,936.3232323232323 49.53535353535369,936.3232323232323 40.00000000000006,936.3232323232323" fill="none" stroke="rgba(0,0,255,0.75)" stroke-width="11.327999999999996"/></g><g><polyline data-points="-0.8585858585858579,-5.000000000000001 -0.9595959595959596,-4.898989898989899 -0.8585858585858579,-4.7979797979797985 -0.7575757575757572,-4.696969696969697 -0.6565656565656557,-4.595959595959596 -0.555555555555555,-4.494949494949496 -0.4545454545454544,-4.393939393939394 -0.35353535353535287,-4.292929292929293 -0.35353535353535287,-4.191919191919193 -0.35353535353535287,-4.090909090909091 -0.35353535353535287,-3.98989898989899 -0.35353535353535287,-3.8888888888888884 -0.35353535353535287,-3.7878787878787876 -0.35353535353535287,-3.6868686868686864 -0.35353535353535287,-3.5858585858585856 -0.35353535353535287,-3.484848484848485 -0.35353535353535287,-3.383838383838383 -0.35353535353535287,-3.2828282828282824 -0.35353535353535287,-3.1818181818181817 -0.2525252525252522,-3.0808080808080804 -0.15151515151515066,-2.9797979797979792 -0.05050505050505001,-2.8787878787878785 0.050505050505051545,-2.7777777777777777 0.1515151515151522,-2.6767676767676765 0.2525252525252529,-2.5757575757575752 0.3535353535353544,-2.474747474747474 0.4545454545454551,-2.3737373737373733 0.5555555555555567,-2.2727272727272725 0.6565656565656574,-2.1717171717171713 0.7575757575757579,-2.07070707070707 0.8585858585858596,-1.9696969696969693 0.9595959595959602,-1.8686868686868683 1.0606060606060617,-1.7676767676767675 1.1616161616161622,-1.6666666666666665 1.262626262626263,-1.5656565656565653 1.3636363636363644,-1.4646464646464643 1.4646464646464652,-1.363636363636363 1.5656565656565666,-1.363636363636363 1.6666666666666674,-1.363636363636363 1.767676767676768,-1.363636363636363" data-type="line" data-label="" points="430.949494949495,984 421.4141414141414,974.4646464646464 430.949494949495,964.9292929292928 440.4848484848485,955.3939393939394 450.0202020202021,945.8585858585858 459.55555555555554,936.3232323232323 469.09090909090907,926.7878787878788 478.62626262626264,917.2525252525252 478.62626262626264,907.7171717171718 478.62626262626264,898.1818181818181 478.62626262626264,888.6464646464647 478.62626262626264,879.1111111111111 478.62626262626264,869.5757575757575 478.62626262626264,860.0404040404039 478.62626262626264,850.5050505050505 478.62626262626264,840.969696969697 478.62626262626264,831.4343434343434 478.62626262626264,821.8989898989898 478.62626262626264,812.3636363636363 488.16161616161617,802.8282828282828 497.69696969696975,793.2929292929292 507.2323232323232,783.7575757575758 516.7676767676768,774.2222222222222 526.3030303030303,764.6868686868687 535.8383838383838,755.1515151515151 545.3737373737374,745.6161616161615 554.9090909090909,736.0808080808081 564.4444444444445,726.5454545454545 573.9797979797979,717.010101010101 583.5151515151515,707.4747474747475 593.0505050505051,697.939393939394 602.5858585858585,688.4040404040404 612.1212121212121,678.8686868686868 621.6565656565656,669.3333333333334 631.1919191919192,659.7979797979798 640.7272727272727,650.2626262626263 650.2626262626262,640.7272727272727 659.7979797979798,640.7272727272727 669.3333333333333,640.7272727272727 678.8686868686868,640.7272727272727" fill="none" stroke="rgba(255,0,0,0.75)" stroke-width="11.327999999999996"/></g><g><polyline data-points="1.767676767676768,-1.363636363636363 1.8686868686868696,-1.2626262626262625 1.9696969696969702,-1.1616161616161613 2.070707070707072,-1.0606060606060603 2.1717171717171726,-0.9595959595959596 2.1717171717171726,-0.8585858585858579 2.1717171717171726,-0.7575757575757572 2.1717171717171726,-0.6565656565656557 2.1717171717171726,-0.555555555555555 2.1717171717171726,-0.4545454545454544 2.1717171717171726,-0.35353535353535287 2.1717171717171726,-0.2525252525252522 2.1717171717171726,-0.15151515151515066 2.1717171717171726,-0.05050505050505001 2.1717171717171726,0.050505050505051545 2.1717171717171726,0.1515151515151522 2.1717171717171726,0.2525252525252529 2.1717171717171726,0.3535353535353544 2.1717171717171726,0.4545454545454551 2.1717171717171726,0.5555555555555567 2.1717171717171726,0.6565656565656574 2.1717171717171726,0.7575757575757579 2.1717171717171726,0.8585858585858596 2.1717171717171726,0.9595959595959602 2.1717171717171726,1.0606060606060617 2.1717171717171726,1.1616161616161622 2.1717171717171726,1.262626262626263 2.1717171717171726,1.3636363636363644 2.1717171717171726,1.4646464646464652 2.1717171717171726,1.5656565656565666 2.1717171717171726,1.6666666666666674 2.1717171717171726,1.767676767676768 2.1717171717171726,1.8686868686868696 2.1717171717171726,1.9696969696969702 2.1717171717171726,2.070707070707072 2.1717171717171726,2.1717171717171726 2.1717171717171726,2.2727272727272734 2.1717171717171726,2.373737373737375 2.1717171717171726,2.4747474747474754 2.1717171717171726,2.575757575757577 2.1717171717171726,2.676767676767678 2.1717171717171726,2.7777777777777786 2.1717171717171726,2.87878787878788 2.1717171717171726,2.9797979797979806 2.1717171717171726,3.080808080808082 2.1717171717171726,3.181818181818183 2.1717171717171726,3.2828282828282833 2.1717171717171726,3.383838383838384 2.1717171717171726,3.4848484848484866 2.1717171717171726,3.5858585858585874 2.1717171717171726,3.6868686868686877 2.1717171717171726,3.7878787878787885 2.1717171717171726,3.8888888888888893 2.1717171717171726,3.989898989898992 2.2727272727272734,4.090909090909092 2.373737373737375,4.191919191919193 2.4747474747474754,4.292929292929293 2.575757575757577,4.393939393939394 2.676767676767678,4.494949494949497 2.7777777777777786,4.595959595959597 2.87878787878788,4.696969696969697 2.87878787878788,4.7979797979797985 2.87878787878788,4.898989898989901 2.9797979797979806,5.000000000000002" data-type="line" data-label="" points="678.8686868686868,640.7272727272727 688.4040404040404,631.1919191919193 697.9393939393939,621.6565656565657 707.4747474747475,612.1212121212121 717.0101010101009,602.5858585858587 717.0101010101009,593.0505050505051 717.0101010101009,583.5151515151516 717.0101010101009,573.979797979798 717.0101010101009,564.4444444444445 717.0101010101009,554.909090909091 717.0101010101009,545.3737373737374 717.0101010101009,535.838383838384 717.0101010101009,526.3030303030304 717.0101010101009,516.7676767676768 717.0101010101009,507.23232323232327 717.0101010101009,497.69696969696975 717.0101010101009,488.1616161616163 717.0101010101009,478.6262626262627 717.0101010101009,469.0909090909092 717.0101010101009,459.5555555555556 717.0101010101009,450.0202020202021 717.0101010101009,440.4848484848486 717.0101010101009,430.94949494949503 717.0101010101009,421.4141414141415 717.0101010101009,411.87878787878793 717.0101010101009,402.3434343434344 717.0101010101009,392.80808080808094 717.0101010101009,383.27272727272737 717.0101010101009,373.73737373737384 717.0101010101009,364.2020202020203 717.0101010101009,354.66666666666674 717.0101010101009,345.1313131313133 717.0101010101009,335.5959595959597 717.0101010101009,326.06060606060623 717.0101010101009,316.5252525252526 717.0101010101009,306.9898989898991 717.0101010101009,297.4545454545456 717.0101010101009,287.91919191919203 717.0101010101009,278.38383838383857 717.0101010101009,268.84848484848493 717.0101010101009,259.3131313131314 717.0101010101009,249.77777777777794 717.0101010101009,240.24242424242436 717.0101010101009,230.70707070707084 717.0101010101009,221.17171717171726 717.0101010101009,211.63636363636374 717.0101010101009,202.10101010101027 717.0101010101009,192.56565656565675 717.0101010101009,183.03030303030312 717.0101010101009,173.4949494949496 717.0101010101009,163.95959595959613 717.0101010101009,154.4242424242426 717.0101010101009,144.88888888888908 717.0101010101009,135.35353535353545 726.5454545454545,125.81818181818198 736.0808080808081,116.28282828282846 745.6161616161615,106.747474747475 755.1515151515151,97.21212121212153 764.6868686868686,87.67676767676778 774.2222222222222,78.14141414141432 783.7575757575758,68.60606060606085 783.7575757575758,59.07070707070733 783.7575757575758,49.53535353535369 793.2929292929292,40.000000000000114" fill="none" stroke="rgba(0,0,255,0.75)" stroke-width="11.327999999999996"/></g><g><polyline data-points="3.7878787878787885,5.000000000000002 3.6868686868686877,5.000000000000002 3.5858585858585874,4.898989898989901 3.4848484848484866,4.7979797979797985 3.383838383838384,4.696969696969697 3.2828282828282833,4.595959595959597 3.181818181818183,4.494949494949497 3.080808080808082,4.393939393939394 2.9797979797979806,4.292929292929293 2.87878787878788,4.191919191919193 2.87878787878788,4.090909090909092 2.87878787878788,3.989898989898992 2.87878787878788,3.8888888888888893 2.87878787878788,3.7878787878787885 2.87878787878788,3.6868686868686877 2.87878787878788,3.5858585858585874 2.87878787878788,3.4848484848484866 2.87878787878788,3.383838383838384 2.87878787878788,3.2828282828282833 2.87878787878788,3.181818181818183 2.87878787878788,3.080808080808082 2.87878787878788,2.9797979797979806 2.87878787878788,2.87878787878788 2.87878787878788,2.7777777777777786 2.87878787878788,2.676767676767678 2.87878787878788,2.575757575757577 2.87878787878788,2.4747474747474754 2.87878787878788,2.373737373737375 2.87878787878788,2.2727272727272734 2.87878787878788,2.1717171717171726 2.87878787878788,2.070707070707072 2.87878787878788,1.9696969696969702 2.87878787878788,1.8686868686868696 2.87878787878788,1.767676767676768 2.87878787878788,1.6666666666666674 2.87878787878788,1.5656565656565666 2.87878787878788,1.4646464646464652 2.87878787878788,1.3636363636363644 2.87878787878788,1.262626262626263 2.87878787878788,1.1616161616161622 2.87878787878788,1.0606060606060617 2.87878787878788,0.9595959595959602" data-type="line" data-label="" points="869.5757575757575,40.000000000000114 860.0404040404039,40.000000000000114 850.5050505050505,49.53535353535369 840.969696969697,59.07070707070733 831.4343434343433,68.60606060606085 821.8989898989898,78.14141414141432 812.3636363636363,87.67676767676778 802.8282828282828,97.21212121212153 793.2929292929292,106.747474747475 783.7575757575758,116.28282828282846 783.7575757575758,125.81818181818198 783.7575757575758,135.35353535353545 783.7575757575758,144.88888888888908 783.7575757575758,154.4242424242426 783.7575757575758,163.95959595959613 783.7575757575758,173.4949494949496 783.7575757575758,183.03030303030312 783.7575757575758,192.56565656565675 783.7575757575758,202.10101010101027 783.7575757575758,211.63636363636374 783.7575757575758,221.17171717171726 783.7575757575758,230.70707070707084 783.7575757575758,240.24242424242436 783.7575757575758,249.77777777777794 783.7575757575758,259.3131313131314 783.7575757575758,268.84848484848493 783.7575757575758,278.38383838383857 783.7575757575758,287.91919191919203 783.7575757575758,297.4545454545456 783.7575757575758,306.9898989898991 783.7575757575758,316.5252525252526 783.7575757575758,326.06060606060623 783.7575757575758,335.5959595959597 783.7575757575758,345.1313131313133 783.7575757575758,354.66666666666674 783.7575757575758,364.2020202020203 783.7575757575758,373.73737373737384 783.7575757575758,383.27272727272737 783.7575757575758,392.80808080808094 783.7575757575758,402.3434343434344 783.7575757575758,411.87878787878793 783.7575757575758,421.4141414141415" fill="none" stroke="rgba(0,0,255,0.75)" stroke-width="11.327999999999996"/></g><g><polyline data-points="2.87878787878788,0.9595959595959602 2.7777777777777786,0.8585858585858596 2.676767676767678,0.7575757575757579 2.575757575757577,0.6565656565656574 2.4747474747474754,0.5555555555555567 2.373737373737375,0.4545454545454551 2.2727272727272734,0.3535353535353544 2.1717171717171726,0.3535353535353544 2.070707070707072,0.3535353535353544 1.9696969696969702,0.3535353535353544 1.8686868686868696,0.3535353535353544 1.767676767676768,0.3535353535353544 1.6666666666666674,0.3535353535353544 1.5656565656565666,0.3535353535353544 1.4646464646464652,0.3535353535353544 1.3636363636363644,0.3535353535353544 1.262626262626263,0.3535353535353544 1.1616161616161622,0.3535353535353544 1.0606060606060617,0.3535353535353544 0.9595959595959602,0.3535353535353544 0.8585858585858596,0.3535353535353544 0.7575757575757579,0.3535353535353544 0.6565656565656574,0.3535353535353544 0.5555555555555567,0.3535353535353544 0.4545454545454551,0.3535353535353544 0.3535353535353544,0.3535353535353544 0.2525252525252529,0.3535353535353544 0.1515151515151522,0.3535353535353544 0.050505050505051545,0.3535353535353544" data-type="line" data-label="" points="783.7575757575758,421.4141414141415 774.2222222222222,430.94949494949503 764.6868686868686,440.4848484848486 755.1515151515151,450.0202020202021 745.6161616161615,459.5555555555556 736.0808080808081,469.0909090909092 726.5454545454545,478.6262626262627 717.0101010101009,478.6262626262627 707.4747474747475,478.6262626262627 697.9393939393939,478.6262626262627 688.4040404040404,478.6262626262627 678.8686868686868,478.6262626262627 669.3333333333333,478.6262626262627 659.7979797979798,478.6262626262627 650.2626262626262,478.6262626262627 640.7272727272727,478.6262626262627 631.1919191919192,478.6262626262627 621.6565656565656,478.6262626262627 612.1212121212121,478.6262626262627 602.5858585858585,478.6262626262627 593.0505050505051,478.6262626262627 583.5151515151515,478.6262626262627 573.9797979797979,478.6262626262627 564.4444444444445,478.6262626262627 554.9090909090909,478.6262626262627 545.3737373737374,478.6262626262627 535.8383838383838,478.6262626262627 526.3030303030303,478.6262626262627 516.7676767676768,478.6262626262627" fill="none" stroke="rgba(255,0,0,0.75)" stroke-width="11.327999999999996"/></g><g><polyline data-points="0.050505050505051545,0.3535353535353544 0.050505050505051545,0.2525252525252529 0.050505050505051545,0.1515151515151522 0.050505050505051545,0.050505050505051545 0.050505050505051545,-0.05050505050505001 -0.05050505050505001,-0.15151515151515066 -0.15151515151515066,-0.2525252525252522 -0.2525252525252522,-0.35353535353535287 -0.35353535353535287,-0.4545454545454544 -0.4545454545454544,-0.555555555555555 -0.555555555555555,-0.6565656565656557 -0.6565656565656557,-0.7575757575757572 -0.7575757575757572,-0.8585858585858579 -0.8585858585858579,-0.9595959595959596 -0.9595959595959596,-1.0606060606060603 -1.0606060606060603,-1.1616161616161613 -1.0606060606060603,-1.2626262626262625 -1.0606060606060603,-1.363636363636363 -1.0606060606060603,-1.4646464646464643 -1.0606060606060603,-1.5656565656565653" data-type="line" data-label="" points="516.7676767676768,478.6262626262627 516.7676767676768,488.1616161616163 516.7676767676768,497.69696969696975 516.7676767676768,507.23232323232327 516.7676767676768,516.7676767676768 507.2323232323232,526.3030303030304 497.69696969696975,535.838383838384 488.16161616161617,545.3737373737374 478.62626262626264,554.909090909091 469.09090909090907,564.4444444444445 459.55555555555554,573.979797979798 450.0202020202021,583.5151515151516 440.4848484848485,593.0505050505051 430.949494949495,602.5858585858587 421.4141414141414,612.1212121212121 411.8787878787879,621.6565656565657 411.8787878787879,631.1919191919193 411.8787878787879,640.7272727272727 411.8787878787879,650.2626262626263 411.8787878787879,659.7979797979798" fill="none" stroke="rgba(0,0,255,0.75)" stroke-width="11.327999999999996"/></g><g><polyline data-points="-1.0606060606060603,-1.5656565656565653 -1.1616161616161613,-1.6666666666666665 -1.2626262626262625,-1.7676767676767675 -1.363636363636363,-1.8686868686868683 -1.4646464646464643,-1.9696969696969693 -1.5656565656565653,-2.07070707070707 -1.6666666666666665,-2.1717171717171713 -1.7676767676767675,-2.2727272727272725 -1.8686868686868683,-2.3737373737373733 -1.9696969696969693,-2.474747474747474 -2.07070707070707,-2.5757575757575752 -2.1717171717171713,-2.6767676767676765 -2.2727272727272725,-2.7777777777777777 -2.3737373737373733,-2.8787878787878785 -2.474747474747474,-2.9797979797979792 -2.5757575757575752,-3.0808080808080804 -2.6767676767676765,-3.1818181818181817 -2.7777777777777777,-3.2828282828282824 -2.7777777777777777,-3.383838383838383 -2.7777777777777777,-3.484848484848485 -2.7777777777777777,-3.5858585858585856 -2.7777777777777777,-3.6868686868686864 -2.7777777777777777,-3.7878787878787876 -2.7777777777777777,-3.8888888888888884 -2.7777777777777777,-3.98989898989899 -2.7777777777777777,-4.090909090909091 -2.7777777777777777,-4.191919191919193 -2.7777777777777777,-4.292929292929293 -2.7777777777777777,-4.393939393939394 -2.7777777777777777,-4.494949494949496 -2.7777777777777777,-4.595959595959596 -2.7777777777777777,-4.696969696969697 -2.7777777777777777,-4.7979797979797985 -2.7777777777777777,-4.898989898989899 -2.7777777777777777,-5.000000000000001" data-type="line" data-label="" points="411.8787878787879,659.7979797979798 402.34343434343435,669.3333333333334 392.80808080808083,678.8686868686868 383.2727272727273,688.4040404040404 373.7373737373738,697.939393939394 364.2020202020202,707.4747474747475 354.6666666666667,717.010101010101 345.13131313131316,726.5454545454545 335.59595959595964,736.0808080808081 326.0606060606061,745.6161616161615 316.5252525252526,755.1515151515151 306.9898989898991,764.6868686868687 297.4545454545455,774.2222222222222 287.91919191919203,783.7575757575758 278.38383838383845,793.2929292929292 268.84848484848493,802.8282828282828 259.3131313131314,812.3636363636363 249.77777777777783,821.8989898989898 249.77777777777783,831.4343434343434 249.77777777777783,840.969696969697 249.77777777777783,850.5050505050505 249.77777777777783,860.0404040404039 249.77777777777783,869.5757575757575 249.77777777777783,879.1111111111111 249.77777777777783,888.6464646464647 249.77777777777783,898.1818181818181 249.77777777777783,907.7171717171718 249.77777777777783,917.2525252525252 249.77777777777783,926.7878787878788 249.77777777777783,936.3232323232323 249.77777777777783,945.8585858585858 249.77777777777783,955.3939393939394 249.77777777777783,964.9292929292928 249.77777777777783,974.4646464646464 249.77777777777783,984" fill="none" stroke="rgba(255,0,0,0.75)" stroke-width="11.327999999999996"/></g><g><rect data-type="rect" data-label="" data-x="0" data-y="0" x="40.000000000000114" y="40.000000000000284" width="943.9999999999997" height="943.9999999999998" fill="none" stroke="gray" stroke-width="0.010593220338983056"/></g><g><rect data-type="rect" data-label="" data-x="0" data-y="0" x="40.000000000000114" y="40.000000000000284" width="943.9999999999997" height="943.9999999999998" fill="none" stroke="rgba(15, 23, 42, 0.8)" stroke-width="0.010593220338983056"/></g><circle data-type="circle" data-label="" data-x="-3.98989898989899" data-y="3.8888888888888893" cx="135.35353535353545" cy="144.88888888888908" r="14.159999999999995" fill="rgba(0,0,0,0.3)" stroke="black" stroke-width="0.010593220338983056"/><circle data-type="circle" data-label="" data-x="2.4747474747474754" data-y="3.989898989898992" cx="745.6161616161615" cy="135.35353535353545" r="14.159999999999995" fill="rgba(0,0,0,0.3)" stroke="black" stroke-width="0.010593220338983056"/><circle data-type="circle" data-label="" data-x="3.383838383838384" data-y="-0.9595959595959596" cx="831.4343434343433" cy="602.5858585858587" r="14.159999999999995" fill="rgba(0,0,0,0.3)" stroke="black" stroke-width="0.010593220338983056"/><circle data-type="circle" data-label="" data-x="2.87878787878788" data-y="-0.9595959595959596" cx="783.7575757575758" cy="602.5858585858587" r="14.159999999999995" fill="rgba(0,0,0,0.3)" stroke="black" stroke-width="0.010593220338983056"/><circle data-type="circle" data-label="" data-x="-3.98989898989899" data-y="-3.1818181818181817" cx="135.35353535353545" cy="812.3636363636363" r="14.159999999999995" fill="rgba(0,0,0,0.3)" stroke="black" stroke-width="0.010593220338983056"/><circle data-type="circle" data-label="" data-x="-2.2727272727272725" data-y="-0.9595959595959596" cx="297.4545454545455" cy="602.5858585858587" r="14.159999999999995" fill="rgba(0,0,0,0.3)" stroke="black" stroke-width="0.010593220338983056"/><circle data-type="circle" data-label="" data-x="-0.05050505050505001" data-y="-3.1818181818181817" cx="507.2323232323232" cy="812.3636363636363" r="14.159999999999995" fill="rgba(0,0,0,0.3)" stroke="black" stroke-width="0.010593220338983056"/><circle data-type="circle" data-label="" data-x="1.262626262626263" data-y="-3.98989898989899" cx="631.1919191919192" cy="888.6464646464647" r="14.159999999999995" fill="rgba(0,0,0,0.3)" stroke="black" stroke-width="0.010593220338983056"/><circle data-type="circle" data-label="" data-x="1.1616161616161622" data-y="-3.383838383838383" cx="621.6565656565656" cy="831.4343434343434" r="14.159999999999995" fill="rgba(0,0,0,0.3)" stroke="black" stroke-width="0.010593220338983056"/><circle data-type="circle" data-label="" data-x="3.7878787878787885" data-y="-1.363636363636363" cx="869.5757575757575" cy="640.7272727272727" r="14.159999999999995" fill="rgba(0,0,0,0.3)" stroke="black" stroke-width="0.010593220338983056"/><circle data-type="circle" data-label="" data-x="0.7575757575757579" data-y="-2.474747474747474" cx="583.5151515151515" cy="745.6161616161615" r="14.159999999999995" fill="rgba(0,0,0,0.3)" stroke="black" stroke-width="0.010593220338983056"/><circle data-type="circle" data-label="" data-x="2.87878787878788" data-y="-0.4545454545454544" cx="783.7575757575758" cy="554.909090909091" r="14.159999999999995" fill="rgba(0,0,0,0.3)" stroke="black" stroke-width="0.010593220338983056"/><circle data-type="circle" data-label="" data-x="-2.2727272727272725" data-y="-0.4545454545454544" cx="297.4545454545455" cy="554.909090909091" r="14.159999999999995" fill="rgba(0,0,0,0.3)" stroke="black" stroke-width="0.010593220338983056"/><circle data-type="circle" data-label="" data-x="-3.5858585858585856" data-y="-0.4545454545454544" cx="173.4949494949496" cy="554.909090909091" r="14.159999999999995" fill="rgba(0,0,0,0.3)" stroke="black" stroke-width="0.010593220338983056"/><circle data-type="circle" data-label="" data-x="-0.2525252525252522" data-y="-0.05050505050505001" cx="488.16161616161617" cy="516.7676767676768" r="14.159999999999995" fill="rgba(0,0,0,0.3)" stroke="black" stroke-width="0.010593220338983056"/><circle data-type="circle" data-label="" data-x="-1.363636363636363" data-y="-1.363636363636363" cx="383.2727272727273" cy="640.7272727272727" r="14.159999999999995" fill="rgba(0,0,0,0.3)" stroke="black" stroke-width="0.010593220338983056"/><circle data-type="circle" data-label="" data-x="-3.98989898989899" data-y="-3.98989898989899" cx="135.35353535353545" cy="888.6464646464647" r="14.159999999999995" fill="rgba(0,0,0,0.3)" stroke="black" stroke-width="0.010593220338983056"/><circle data-type="circle" data-label="" data-x="1.767676767676768" data-y="-1.363636363636363" cx="678.8686868686868" cy="640.7272727272727" r="14.159999999999995" fill="rgba(0,0,0,0.3)" stroke="black" stroke-width="0.010593220338983056"/><circle data-type="circle" data-label="" data-x="2.87878787878788" data-y="0.9595959595959602" cx="783.7575757575758" cy="421.4141414141415" r="14.159999999999995" fill="rgba(0,0,0,0.3)" stroke="black" stroke-width="0.010593220338983056"/><circle data-type="circle" data-label="" data-x="0.050505050505051545" data-y="0.3535353535353544" cx="516.7676767676768" cy="478.6262626262627" r="14.159999999999995" fill="rgba(0,0,0,0.3)" stroke="black" stroke-width="0.010593220338983056"/><circle data-type="circle" data-label="" data-x="-1.0606060606060603" data-y="-1.5656565656565653" cx="411.8787878787879" cy="659.7979797979798" r="14.159999999999995" fill="rgba(0,0,0,0.3)" stroke="black" stroke-width="0.010593220338983056"/><g id="crosshair" style="display: none"><line id="crosshair-h" y1="0" y2="1024" stroke="#666" stroke-width="0.5"/><line id="crosshair-v" x1="0" x2="1024" stroke="#666" stroke-width="0.5"/><text id="coordinates" font-family="monospace" font-size="12" fill="#666"></text></g><script><![CDATA[
              document.currentScript.parentElement.addEventListener('mousemove', (e) => {
                const svg = e.currentTarget;
                const rect = svg.getBoundingClientRect();
                const x = e.clientX - rect.left;
                const y = e.clientY - rect.top;
                const crosshair = svg.getElementById('crosshair');
                const h = svg.getElementById('crosshair-h');
                const v = svg.getElementById('crosshair-v');
                const coords = svg.getElementById('coordinates');
                
                crosshair.style.display = 'block';
                h.setAttribute('x1', '0');
                h.setAttribute('x2', '1024');
                h.setAttribute('y1', y);
                h.setAttribute('y2', y);
                v.setAttribute('x1', x);
                v.setAttribute('x2', x);
                v.setAttribute('y1', '0');
                v.setAttribute('y2', '1024');

                // Calculate real coordinates using inverse transformation
                const matrix = {"a":94.39999999999996,"c":0,"e":511.99999999999994,"b":0,"d":-94.39999999999996,"f":512.0000000000001};
                // Manually invert and apply the affine transform
                // Since we only use translate and scale, we can directly compute:
                // x' = (x - tx) / sx
                // y' = (y - ty) / sy
                const sx = matrix.a;
                const sy = matrix.d;
                const tx = matrix.e; 
                const ty = matrix.f;
                const realPoint = {
                  x: (x - tx) / sx,
                  y: (y - ty) / sy // Flip y back since we used negative scale
                }
                
                coords.textContent = `(${realPoint.x.toFixed(2)}, ${realPoint.y.toFixed(2)})`;
                coords.setAttribute('x', (x + 5).toString());
                coords.setAttribute('y', (y - 5).toString());
              });
              document.currentScript.parentElement.addEventListener('mouseleave', () => {
                document.currentScript.parentElement.getElementById('crosshair').style.display = 'none';
              });
            ]]></script></svg>