<svg width="1024" height="1024" viewBox="0 0 1024 1024" xmlns="http://www.w3.org/2000/svg"><rect width="100%" height="100%" fill="white"/><g><circle data-type="point" data-label="conn_000" data-x="5" data-y="-4.74" cx="983.9999999999998" cy="959.4559999999999" r="14.16" fill="blue"/></g><g><circle data-type="point" data-label="conn_000" data-x="-5" data-y="-3.86" cx="40.000000000000114" cy="876.384" r="14.16" fill="red"/></g><g><circle data-type="point" data-label="conn_001" data-x="5" data-y="1.48" cx="983.9999999999998" cy="372.2880000000002" r="14.16" fill="blue"/></g><g><circle data-type="point" data-label="conn_001" data-x="-0.14" data-y="-5" cx="498.78399999999993" cy="984" r="14.16" fill="red"/></g><g><circle data-type="point" data-label="conn_002" data-x="5" data-y="3.16" cx="983.9999999999998" cy="213.6960000000002" r="14.16" fill="red"/></g><g><circle data-type="point" data-label="conn_002" data-x="-5" data-y="4.32" cx="40.000000000000114" cy="104.19200000000023" r="14.16" fill="red"/></g><g><circle data-type="point" data-label="conn_003" data-x="-5" data-y="1.04" cx="40.000000000000114" cy="413.8240000000002" r="14.16" fill="red"/></g><g><circle data-type="point" data-label="conn_003" data-x="5" data-y="-0.1" cx="983.9999999999998" cy="521.44" r="14.16" fill="red"/></g><g><circle data-type="point" data-label="conn_004" data-x="1.6600000000000001" data-y="-5" cx="668.704" cy="984" r="14.16" fill="blue"/></g><g><circle data-type="point" data-label="conn_004" data-x="-2.74" data-y="5" cx="253.34400000000005" cy="40.000000000000284" r="14.16" fill="red"/></g><g><circle data-type="point" data-label="conn_005" data-x="5" data-y="2.7" cx="983.9999999999998" cy="257.12000000000023" r="14.16" fill="blue"/></g><g><circle data-type="point" data-label="conn_005" data-x="-5" data-y="1" cx="40.000000000000114" cy="417.60000000000014" r="14.16" fill="blue"/></g><g><circle data-type="point" data-label="conn_006" data-x="-5" data-y="-4.84" cx="40.000000000000114" cy="968.896" r="14.16" fill="blue"/></g><g><circle data-type="point" data-label="conn_006" data-x="2.94" data-y="-5" cx="789.5359999999998" cy="984" r="14.16" fill="blue"/></g><g><circle data-type="point" data-label="conn_007" data-x="-4.3" data-y="5" cx="106.0800000000001" cy="40.000000000000284" r="14.16" fill="red"/></g><g><circle data-type="point" data-label="conn_007" data-x="-2.2600000000000002" data-y="-5" cx="298.656" cy="984" r="14.16" fill="red"/></g><g><polyline data-points="-5.000000000000001,1.0606060606060617 -4.898989898989899,0.9595959595959602 -4.7979797979797985,0.8585858585858596 -4.696969696969697,0.7575757575757579 -4.595959595959596,0.6565656565656574 -4.494949494949496,0.5555555555555567 -4.393939393939394,0.4545454545454551 -4.292929292929293,0.3535353535353544 -4.191919191919193,0.2525252525252529 -4.090909090909091,0.1515151515151522 -3.98989898989899,0.050505050505051545 -3.8888888888888884,-0.05050505050505001 -3.7878787878787876,-0.05050505050505001 -3.6868686868686864,-0.05050505050505001 -3.5858585858585856,-0.05050505050505001 -3.484848484848485,-0.05050505050505001 -3.383838383838383,-0.05050505050505001 -3.2828282828282824,-0.05050505050505001 -3.1818181818181817,-0.05050505050505001 -3.0808080808080804,-0.05050505050505001 -2.9797979797979792,-0.05050505050505001 -2.8787878787878785,-0.05050505050505001 -2.7777777777777777,-0.05050505050505001 -2.6767676767676765,-0.05050505050505001 -2.5757575757575752,-0.05050505050505001 -2.474747474747474,-0.05050505050505001 -2.3737373737373733,-0.05050505050505001 -2.2727272727272725,-0.05050505050505001 -2.1717171717171713,-0.05050505050505001 -2.07070707070707,-0.05050505050505001 -1.9696969696969693,-0.05050505050505001 -1.8686868686868683,-0.05050505050505001 -1.7676767676767675,-0.05050505050505001 -1.6666666666666665,-0.05050505050505001 -1.5656565656565653,-0.05050505050505001 -1.4646464646464643,-0.05050505050505001 -1.363636363636363,-0.05050505050505001 -1.2626262626262625,-0.05050505050505001 -1.1616161616161613,-0.05050505050505001 -1.0606060606060603,-0.05050505050505001 -0.9595959595959596,-0.05050505050505001 -0.8585858585858579,-0.05050505050505001 -0.7575757575757572,-0.05050505050505001 -0.6565656565656557,-0.05050505050505001 -0.555555555555555,-0.05050505050505001 -0.4545454545454544,-0.05050505050505001 -0.35353535353535287,-0.05050505050505001 -0.2525252525252522,-0.05050505050505001 -0.15151515151515066,-0.05050505050505001 -0.05050505050505001,-0.05050505050505001 0.050505050505051545,-0.05050505050505001 0.1515151515151522,-0.05050505050505001 0.2525252525252529,-0.05050505050505001 0.3535353535353544,-0.05050505050505001 0.4545454545454551,-0.05050505050505001 0.5555555555555567,-0.05050505050505001 0.6565656565656574,-0.05050505050505001 0.7575757575757579,-0.05050505050505001 0.8585858585858596,-0.05050505050505001 0.9595959595959602,-0.05050505050505001 1.0606060606060617,-0.05050505050505001 1.1616161616161622,-0.05050505050505001 1.262626262626263,-0.05050505050505001 1.3636363636363644,-0.05050505050505001 1.4646464646464652,-0.05050505050505001 1.5656565656565666,-0.05050505050505001 1.6666666666666674,-0.05050505050505001 1.767676767676768,-0.05050505050505001 1.8686868686868696,-0.05050505050505001 1.9696969696969702,-0.05050505050505001 2.070707070707072,-0.05050505050505001 2.1717171717171726,-0.05050505050505001 2.2727272727272734,-0.05050505050505001 2.373737373737375,-0.05050505050505001 2.4747474747474754,-0.05050505050505001 2.575757575757577,-0.05050505050505001 2.676767676767678,-0.05050505050505001 2.7777777777777786,-0.05050505050505001 2.87878787878788,-0.05050505050505001 2.9797979797979806,-0.05050505050505001 3.080808080808082,-0.05050505050505001 3.181818181818183,-0.05050505050505001 3.2828282828282833,-0.05050505050505001 3.383838383838384,-0.05050505050505001 3.4848484848484866,-0.05050505050505001 3.5858585858585874,-0.05050505050505001 3.6868686868686877,-0.05050505050505001 3.7878787878787885,-0.05050505050505001 3.8888888888888893,-0.05050505050505001 3.989898989898992,-0.05050505050505001 4.090909090909092,-0.05050505050505001 4.191919191919193,-0.05050505050505001 4.292929292929293,-0.05050505050505001 4.393939393939394,-0.05050505050505001 4.494949494949497,-0.05050505050505001 4.595959595959597,-0.05050505050505001 4.696969696969697,-0.05050505050505001 4.7979797979797985,-0.05050505050505001 4.898989898989901,-0.05050505050505001 5.000000000000002,-0.05050505050505001" data-type="line" data-label="" points="40.00000000000006,411.87878787878793 49.53535353535369,421.4141414141415 59.07070707070716,430.94949494949503 68.60606060606068,440.4848484848486 78.14141414141426,450.0202020202021 87.67676767676772,459.5555555555556 97.21212121212136,469.0909090909092 106.74747474747483,478.6262626262627 116.28282828282829,488.1616161616163 125.81818181818193,497.69696969696975 135.35353535353545,507.23232323232327 144.88888888888903,516.7676767676768 154.42424242424255,516.7676767676768 163.95959595959607,516.7676767676768 173.4949494949496,516.7676767676768 183.03030303030312,516.7676767676768 192.5656565656567,516.7676767676768 202.10101010101022,516.7676767676768 211.63636363636374,516.7676767676768 221.17171717171726,516.7676767676768 230.70707070707084,516.7676767676768 240.2424242424243,516.7676767676768 249.77777777777783,516.7676767676768 259.3131313131314,516.7676767676768 268.84848484848493,516.7676767676768 278.38383838383845,516.7676767676768 287.91919191919203,516.7676767676768 297.4545454545455,516.7676767676768 306.9898989898991,516.7676767676768 316.5252525252526,516.7676767676768 326.0606060606061,516.7676767676768 335.59595959595964,516.7676767676768 345.13131313131316,516.7676767676768 354.6666666666667,516.7676767676768 364.2020202020202,516.7676767676768 373.7373737373738,516.7676767676768 383.2727272727273,516.7676767676768 392.80808080808083,516.7676767676768 402.34343434343435,516.7676767676768 411.8787878787879,516.7676767676768 421.4141414141414,516.7676767676768 430.949494949495,516.7676767676768 440.4848484848485,516.7676767676768 450.0202020202021,516.7676767676768 459.55555555555554,516.7676767676768 469.09090909090907,516.7676767676768 478.62626262626264,516.7676767676768 488.16161616161617,516.7676767676768 497.69696969696975,516.7676767676768 507.2323232323232,516.7676767676768 516.7676767676768,516.7676767676768 526.3030303030303,516.7676767676768 535.8383838383838,516.7676767676768 545.3737373737374,516.7676767676768 554.9090909090909,516.7676767676768 564.4444444444445,516.7676767676768 573.9797979797979,516.7676767676768 583.5151515151515,516.7676767676768 593.0505050505051,516.7676767676768 602.5858585858585,516.7676767676768 612.1212121212121,516.7676767676768 621.6565656565656,516.7676767676768 631.1919191919192,516.7676767676768 640.7272727272727,516.7676767676768 650.2626262626262,516.7676767676768 659.7979797979798,516.7676767676768 669.3333333333333,516.7676767676768 678.8686868686868,516.7676767676768 688.4040404040404,516.7676767676768 697.9393939393939,516.7676767676768 707.4747474747475,516.7676767676768 717.0101010101009,516.7676767676768 726.5454545454545,516.7676767676768 736.0808080808081,516.7676767676768 745.6161616161615,516.7676767676768 755.1515151515151,516.7676767676768 764.6868686868686,516.7676767676768 774.2222222222222,516.7676767676768 783.7575757575758,516.7676767676768 793.2929292929292,516.7676767676768 802.8282828282828,516.7676767676768 812.3636363636363,516.7676767676768 821.8989898989898,516.7676767676768 831.4343434343433,516.7676767676768 840.969696969697,516.7676767676768 850.5050505050505,516.7676767676768 860.0404040404039,516.7676767676768 869.5757575757575,516.7676767676768 879.111111111111,516.7676767676768 888.6464646464647,516.7676767676768 898.181818181818,516.7676767676768 907.7171717171716,516.7676767676768 917.2525252525251,516.7676767676768 926.7878787878785,516.7676767676768 936.3232323232323,516.7676767676768 945.8585858585857,516.7676767676768 955.3939393939393,516.7676767676768 964.9292929292927,516.7676767676768 974.4646464646464,516.7676767676768 984,516.7676767676768" fill="none" stroke="rgba(255,0,0,0.75)" stroke-width="11.327999999999996"/></g><g><polyline data-points="5.000000000000002,2.7777777777777786 4.898989898989901,2.676767676767678 4.7979797979797985,2.575757575757577 4.696969696969697,2.4747474747474754 4.595959595959597,2.373737373737375 4.494949494949497,2.2727272727272734 4.393939393939394,2.1717171717171726 4.292929292929293,2.070707070707072 4.191919191919193,1.9696969696969702 4.090909090909092,1.8686868686868696 3.989898989898992,1.767676767676768 3.8888888888888893,1.6666666666666674 3.7878787878787885,1.5656565656565666 3.6868686868686877,1.4646464646464652 3.5858585858585874,1.3636363636363644 3.4848484848484866,1.262626262626263 3.383838383838384,1.1616161616161622 3.2828282828282833,1.0606060606060617 3.181818181818183,1.0606060606060617 3.080808080808082,1.0606060606060617 2.9797979797979806,1.0606060606060617 2.87878787878788,1.0606060606060617 2.7777777777777786,1.0606060606060617 2.676767676767678,1.0606060606060617 2.575757575757577,1.0606060606060617 2.4747474747474754,1.0606060606060617 2.373737373737375,1.0606060606060617 2.2727272727272734,1.0606060606060617 2.1717171717171726,1.0606060606060617 2.070707070707072,1.0606060606060617 1.9696969696969702,1.0606060606060617 1.8686868686868696,1.0606060606060617 1.767676767676768,1.0606060606060617 1.6666666666666674,1.0606060606060617 1.5656565656565666,1.0606060606060617 1.4646464646464652,1.0606060606060617 1.3636363636363644,1.0606060606060617 1.262626262626263,1.0606060606060617 1.1616161616161622,1.0606060606060617 1.0606060606060617,1.0606060606060617 0.9595959595959602,1.0606060606060617 0.8585858585858596,1.0606060606060617 0.7575757575757579,1.0606060606060617 0.6565656565656574,1.0606060606060617 0.5555555555555567,1.0606060606060617 0.4545454545454551,1.0606060606060617 0.3535353535353544,1.0606060606060617 0.2525252525252529,1.0606060606060617 0.1515151515151522,1.0606060606060617 0.050505050505051545,1.0606060606060617 -0.05050505050505001,1.0606060606060617 -0.15151515151515066,1.0606060606060617 -0.2525252525252522,1.0606060606060617 -0.35353535353535287,1.0606060606060617 -0.4545454545454544,1.0606060606060617 -0.555555555555555,1.0606060606060617 -0.6565656565656557,1.0606060606060617 -0.7575757575757572,1.0606060606060617 -0.8585858585858579,1.0606060606060617 -0.9595959595959596,1.0606060606060617 -1.0606060606060603,1.0606060606060617 -1.1616161616161613,1.0606060606060617 -1.2626262626262625,1.0606060606060617 -1.363636363636363,1.0606060606060617 -1.4646464646464643,1.0606060606060617 -1.5656565656565653,1.0606060606060617 -1.6666666666666665,1.0606060606060617 -1.7676767676767675,1.0606060606060617 -1.8686868686868683,1.0606060606060617 -1.9696969696969693,1.0606060606060617 -2.07070707070707,1.0606060606060617 -2.1717171717171713,1.0606060606060617 -2.2727272727272725,1.0606060606060617 -2.3737373737373733,1.0606060606060617 -2.474747474747474,1.0606060606060617 -2.5757575757575752,1.0606060606060617 -2.6767676767676765,1.0606060606060617 -2.7777777777777777,1.0606060606060617 -2.8787878787878785,1.0606060606060617 -2.9797979797979792,1.0606060606060617 -3.0808080808080804,1.0606060606060617 -3.1818181818181817,1.0606060606060617 -3.2828282828282824,1.0606060606060617 -3.383838383838383,1.0606060606060617 -3.484848484848485,1.0606060606060617 -3.5858585858585856,1.0606060606060617 -3.6868686868686864,1.0606060606060617 -3.7878787878787876,1.0606060606060617 -3.8888888888888884,1.0606060606060617 -3.98989898989899,1.0606060606060617 -4.090909090909091,1.0606060606060617 -4.191919191919193,1.0606060606060617 -4.292929292929293,1.0606060606060617 -4.393939393939394,1.0606060606060617 -4.494949494949496,1.0606060606060617 -4.595959595959596,1.0606060606060617 -4.696969696969697,1.0606060606060617 -4.7979797979797985,1.0606060606060617 -4.898989898989899,1.0606060606060617 -5.000000000000001,1.0606060606060617" data-type="line" data-label="" points="984,249.77777777777794 974.4646464646464,259.3131313131314 964.9292929292927,268.84848484848493 955.3939393939393,278.38383838383857 945.8585858585857,287.91919191919203 936.3232323232323,297.4545454545456 926.7878787878785,306.9898989898991 917.2525252525251,316.5252525252526 907.7171717171716,326.06060606060623 898.181818181818,335.5959595959597 888.6464646464647,345.1313131313133 879.111111111111,354.66666666666674 869.5757575757575,364.2020202020203 860.0404040404039,373.73737373737384 850.5050505050505,383.27272727272737 840.969696969697,392.80808080808094 831.4343434343433,402.3434343434344 821.8989898989898,411.87878787878793 812.3636363636363,411.87878787878793 802.8282828282828,411.87878787878793 793.2929292929292,411.87878787878793 783.7575757575758,411.87878787878793 774.2222222222222,411.87878787878793 764.6868686868686,411.87878787878793 755.1515151515151,411.87878787878793 745.6161616161615,411.87878787878793 736.0808080808081,411.87878787878793 726.5454545454545,411.87878787878793 717.0101010101009,411.87878787878793 707.4747474747475,411.87878787878793 697.9393939393939,411.87878787878793 688.4040404040404,411.87878787878793 678.8686868686868,411.87878787878793 669.3333333333333,411.87878787878793 659.7979797979798,411.87878787878793 650.2626262626262,411.87878787878793 640.7272727272727,411.87878787878793 631.1919191919192,411.87878787878793 621.6565656565656,411.87878787878793 612.1212121212121,411.87878787878793 602.5858585858585,411.87878787878793 593.0505050505051,411.87878787878793 583.5151515151515,411.87878787878793 573.9797979797979,411.87878787878793 564.4444444444445,411.87878787878793 554.9090909090909,411.87878787878793 545.3737373737374,411.87878787878793 535.8383838383838,411.87878787878793 526.3030303030303,411.87878787878793 516.7676767676768,411.87878787878793 507.2323232323232,411.87878787878793 497.69696969696975,411.87878787878793 488.16161616161617,411.87878787878793 478.62626262626264,411.87878787878793 469.09090909090907,411.87878787878793 459.55555555555554,411.87878787878793 450.0202020202021,411.87878787878793 440.4848484848485,411.87878787878793 430.949494949495,411.87878787878793 421.4141414141414,411.87878787878793 411.8787878787879,411.87878787878793 402.34343434343435,411.87878787878793 392.80808080808083,411.87878787878793 383.2727272727273,411.87878787878793 373.7373737373738,411.87878787878793 364.2020202020202,411.87878787878793 354.6666666666667,411.87878787878793 345.13131313131316,411.87878787878793 335.59595959595964,411.87878787878793 326.0606060606061,411.87878787878793 316.5252525252526,411.87878787878793 306.9898989898991,411.87878787878793 297.4545454545455,411.87878787878793 287.91919191919203,411.87878787878793 278.38383838383845,411.87878787878793 268.84848484848493,411.87878787878793 259.3131313131314,411.87878787878793 249.77777777777783,411.87878787878793 240.2424242424243,411.87878787878793 230.70707070707084,411.87878787878793 221.17171717171726,411.87878787878793 211.63636363636374,411.87878787878793 202.10101010101022,411.87878787878793 192.5656565656567,411.87878787878793 183.03030303030312,411.87878787878793 173.4949494949496,411.87878787878793 163.95959595959607,411.87878787878793 154.42424242424255,411.87878787878793 144.88888888888903,411.87878787878793 135.35353535353545,411.87878787878793 125.81818181818193,411.87878787878793 116.28282828282829,411.87878787878793 106.74747474747483,411.87878787878793 97.21212121212136,411.87878787878793 87.67676767676772,411.87878787878793 78.14141414141426,411.87878787878793 68.60606060606068,411.87878787878793 59.07070707070716,411.87878787878793 49.53535353535369,411.87878787878793 40.00000000000006,411.87878787878793" fill="none" stroke="rgba(0,0,255,0.75)" stroke-width="11.327999999999996"/></g><g><polyline data-points="5.000000000000002,3.181818181818183 4.898989898989901,3.2828282828282833 4.7979797979797985,3.383838383838384 4.696969696969697,3.4848484848484866 4.595959595959597,3.5858585858585874 4.494949494949497,3.6868686868686877 4.393939393939394,3.7878787878787885 4.292929292929293,3.8888888888888893 4.191919191919193,3.989898989898992 4.090909090909092,3.989898989898992 3.989898989898992,3.989898989898992 3.8888888888888893,3.989898989898992 3.7878787878787885,3.989898989898992 3.6868686868686877,3.989898989898992 3.5858585858585874,3.989898989898992 3.4848484848484866,3.989898989898992 3.383838383838384,3.989898989898992 3.2828282828282833,3.989898989898992 3.181818181818183,3.989898989898992 3.080808080808082,3.989898989898992 2.9797979797979806,3.989898989898992 2.87878787878788,3.989898989898992 2.7777777777777786,3.989898989898992 2.676767676767678,3.989898989898992 2.575757575757577,3.989898989898992 2.4747474747474754,3.989898989898992 2.373737373737375,3.989898989898992 2.2727272727272734,3.989898989898992 2.1717171717171726,3.989898989898992 2.070707070707072,3.989898989898992 1.9696969696969702,3.989898989898992 1.8686868686868696,3.989898989898992 1.767676767676768,3.989898989898992 1.6666666666666674,3.989898989898992 1.5656565656565666,3.989898989898992 1.4646464646464652,3.989898989898992 1.3636363636363644,3.989898989898992 1.262626262626263,3.989898989898992 1.1616161616161622,3.989898989898992 1.0606060606060617,3.989898989898992 0.9595959595959602,3.989898989898992 0.8585858585858596,3.989898989898992 0.7575757575757579,3.989898989898992 0.6565656565656574,3.989898989898992 0.5555555555555567,3.989898989898992 0.4545454545454551,3.989898989898992 0.3535353535353544,3.989898989898992 0.2525252525252529,3.989898989898992 0.1515151515151522,3.989898989898992 0.050505050505051545,3.989898989898992 -0.05050505050505001,3.989898989898992 -0.15151515151515066,3.989898989898992 -0.2525252525252522,3.989898989898992 -0.35353535353535287,3.989898989898992 -0.4545454545454544,3.989898989898992 -0.555555555555555,3.989898989898992 -0.6565656565656557,3.989898989898992 -0.7575757575757572,3.989898989898992 -0.8585858585858579,3.989898989898992 -0.9595959595959596,3.989898989898992 -1.0606060606060603,3.989898989898992 -1.1616161616161613,3.989898989898992 -1.2626262626262625,3.989898989898992 -1.363636363636363,3.989898989898992 -1.4646464646464643,3.989898989898992 -1.5656565656565653,3.989898989898992 -1.6666666666666665,3.989898989898992 -1.7676767676767675,3.989898989898992 -1.8686868686868683,3.989898989898992 -1.9696969696969693,3.989898989898992 -2.07070707070707,3.989898989898992 -2.1717171717171713,3.989898989898992 -2.2727272727272725,3.989898989898992 -2.3737373737373733,3.989898989898992 -2.474747474747474,3.989898989898992 -2.5757575757575752,3.989898989898992 -2.6767676767676765,3.989898989898992 -2.7777777777777777,3.989898989898992" data-type="line" data-label="" points="984,211.63636363636374 974.4646464646464,202.10101010101027 964.9292929292927,192.56565656565675 955.3939393939393,183.03030303030312 945.8585858585857,173.4949494949496 936.3232323232323,163.95959595959613 926.7878787878785,154.4242424242426 917.2525252525251,144.88888888888908 907.7171717171716,135.35353535353545 898.181818181818,135.35353535353545 888.6464646464647,135.35353535353545 879.111111111111,135.35353535353545 869.5757575757575,135.35353535353545 860.0404040404039,135.35353535353545 850.5050505050505,135.35353535353545 840.969696969697,135.35353535353545 831.4343434343433,135.35353535353545 821.8989898989898,135.35353535353545 812.3636363636363,135.35353535353545 802.8282828282828,135.35353535353545 793.2929292929292,135.35353535353545 783.7575757575758,135.35353535353545 774.2222222222222,135.35353535353545 764.6868686868686,135.35353535353545 755.1515151515151,135.35353535353545 745.6161616161615,135.35353535353545 736.0808080808081,135.35353535353545 726.5454545454545,135.35353535353545 717.0101010101009,135.35353535353545 707.4747474747475,135.35353535353545 697.9393939393939,135.35353535353545 688.4040404040404,135.35353535353545 678.8686868686868,135.35353535353545 669.3333333333333,135.35353535353545 659.7979797979798,135.35353535353545 650.2626262626262,135.35353535353545 640.7272727272727,135.35353535353545 631.1919191919192,135.35353535353545 621.6565656565656,135.35353535353545 612.1212121212121,135.35353535353545 602.5858585858585,135.35353535353545 593.0505050505051,135.35353535353545 583.5151515151515,135.35353535353545 573.9797979797979,135.35353535353545 564.4444444444445,135.35353535353545 554.9090909090909,135.35353535353545 545.3737373737374,135.35353535353545 535.8383838383838,135.35353535353545 526.3030303030303,135.35353535353545 516.7676767676768,135.35353535353545 507.2323232323232,135.35353535353545 497.69696969696975,135.35353535353545 488.16161616161617,135.35353535353545 478.62626262626264,135.35353535353545 469.09090909090907,135.35353535353545 459.55555555555554,135.35353535353545 450.0202020202021,135.35353535353545 440.4848484848485,135.35353535353545 430.949494949495,135.35353535353545 421.4141414141414,135.35353535353545 411.8787878787879,135.35353535353545 402.34343434343435,135.35353535353545 392.80808080808083,135.35353535353545 383.2727272727273,135.35353535353545 373.7373737373738,135.35353535353545 364.2020202020202,135.35353535353545 354.6666666666667,135.35353535353545 345.13131313131316,135.35353535353545 335.59595959595964,135.35353535353545 326.0606060606061,135.35353535353545 316.5252525252526,135.35353535353545 306.9898989898991,135.35353535353545 297.4545454545455,135.35353535353545 287.91919191919203,135.35353535353545 278.38383838383845,135.35353535353545 268.84848484848493,135.35353535353545 259.3131313131314,135.35353535353545 249.77777777777783,135.35353535353545" fill="none" stroke="rgba(255,0,0,0.75)" stroke-width="11.327999999999996"/></g><g><polyline data-points="-2.7777777777777777,3.989898989898992 -2.8787878787878785,3.989898989898992 -2.9797979797979792,3.989898989898992 -3.0808080808080804,3.989898989898992 -3.1818181818181817,3.989898989898992 -3.2828282828282824,3.989898989898992 -3.383838383838383,3.989898989898992 -3.484848484848485,3.989898989898992 -3.5858585858585856,3.989898989898992 -3.6868686868686864,3.989898989898992 -3.7878787878787876,3.989898989898992" data-type="line" data-label="" points="249.77777777777783,135.35353535353545 240.2424242424243,135.35353535353545 230.70707070707084,135.35353535353545 221.17171717171726,135.35353535353545 211.63636363636374,135.35353535353545 202.10101010101022,135.35353535353545 192.5656565656567,135.35353535353545 183.03030303030312,135.35353535353545 173.4949494949496,135.35353535353545 163.95959595959607,135.35353535353545 154.42424242424255,135.35353535353545" fill="none" stroke="rgba(0,0,255,0.75)" stroke-width="11.327999999999996"/></g><g><polyline data-points="-3.7878787878787876,3.989898989898992 -3.8888888888888884,4.090909090909092 -3.98989898989899,4.191919191919193 -4.090909090909091,4.292929292929293 -4.191919191919193,4.393939393939394 -4.292929292929293,4.393939393939394 -4.393939393939394,4.393939393939394 -4.494949494949496,4.393939393939394 -4.595959595959596,4.393939393939394 -4.696969696969697,4.393939393939394 -4.7979797979797985,4.393939393939394 -4.898989898989899,4.393939393939394 -5.000000000000001,4.393939393939394" data-type="line" data-label="" points="154.42424242424255,135.35353535353545 144.88888888888903,125.81818181818198 135.35353535353545,116.28282828282846 125.81818181818193,106.747474747475 116.28282828282829,97.21212121212153 106.74747474747483,97.21212121212153 97.21212121212136,97.21212121212153 87.67676767676772,97.21212121212153 78.14141414141426,97.21212121212153 68.60606060606068,97.21212121212153 59.07070707070716,97.21212121212153 49.53535353535369,97.21212121212153 40.00000000000006,97.21212121212153" fill="none" stroke="rgba(255,0,0,0.75)" stroke-width="11.327999999999996"/></g><g><polyline data-points="5.000000000000002,1.4646464646464652 4.898989898989901,1.3636363636363644 4.7979797979797985,1.262626262626263 4.696969696969697,1.1616161616161622 4.595959595959597,1.0606060606060617 4.494949494949497,0.9595959595959602 4.393939393939394,0.8585858585858596 4.292929292929293,0.7575757575757579 4.191919191919193,0.6565656565656574 4.090909090909092,0.5555555555555567 3.989898989898992,0.4545454545454551 3.8888888888888893,0.3535353535353544 3.7878787878787885,0.2525252525252529 3.6868686868686877,0.1515151515151522 3.5858585858585874,0.050505050505051545 3.4848484848484866,-0.05050505050505001 3.383838383838384,-0.15151515151515066 3.2828282828282833,-0.2525252525252522 3.181818181818183,-0.35353535353535287 3.080808080808082,-0.4545454545454544 2.9797979797979806,-0.555555555555555 2.87878787878788,-0.6565656565656557 2.7777777777777786,-0.7575757575757572 2.676767676767678,-0.8585858585858579 2.575757575757577,-0.9595959595959596 2.4747474747474754,-1.0606060606060603 2.373737373737375,-1.1616161616161613 2.2727272727272734,-1.2626262626262625 2.1717171717171726,-1.363636363636363 2.070707070707072,-1.4646464646464643 1.9696969696969702,-1.5656565656565653 1.8686868686868696,-1.6666666666666665 1.767676767676768,-1.7676767676767675 1.6666666666666674,-1.8686868686868683 1.5656565656565666,-1.9696969696969693 1.4646464646464652,-2.07070707070707 1.3636363636363644,-2.1717171717171713 1.262626262626263,-2.2727272727272725 1.1616161616161622,-2.3737373737373733 1.0606060606060617,-2.474747474747474 0.9595959595959602,-2.5757575757575752 0.8585858585858596,-2.6767676767676765 0.7575757575757579,-2.7777777777777777 0.6565656565656574,-2.8787878787878785 0.5555555555555567,-2.9797979797979792 0.4545454545454551,-3.0808080808080804 0.3535353535353544,-3.1818181818181817 0.2525252525252529,-3.2828282828282824 0.1515151515151522,-3.383838383838383 0.050505050505051545,-3.484848484848485 -0.05050505050505001,-3.5858585858585856 -0.15151515151515066,-3.6868686868686864 -0.15151515151515066,-3.7878787878787876 -0.15151515151515066,-3.8888888888888884" data-type="line" data-label="" points="984,373.73737373737384 974.4646464646464,383.27272727272737 964.9292929292927,392.80808080808094 955.3939393939393,402.3434343434344 945.8585858585857,411.87878787878793 936.3232323232323,421.4141414141415 926.7878787878785,430.94949494949503 917.2525252525251,440.4848484848486 907.7171717171716,450.0202020202021 898.181818181818,459.5555555555556 888.6464646464647,469.0909090909092 879.111111111111,478.6262626262627 869.5757575757575,488.1616161616163 860.0404040404039,497.69696969696975 850.5050505050505,507.23232323232327 840.969696969697,516.7676767676768 831.4343434343433,526.3030303030304 821.8989898989898,535.838383838384 812.3636363636363,545.3737373737374 802.8282828282828,554.909090909091 793.2929292929292,564.4444444444445 783.7575757575758,573.979797979798 774.2222222222222,583.5151515151516 764.6868686868686,593.0505050505051 755.1515151515151,602.5858585858587 745.6161616161615,612.1212121212121 736.0808080808081,621.6565656565657 726.5454545454545,631.1919191919193 717.0101010101009,640.7272727272727 707.4747474747475,650.2626262626263 697.9393939393939,659.7979797979798 688.4040404040404,669.3333333333334 678.8686868686868,678.8686868686868 669.3333333333333,688.4040404040404 659.7979797979798,697.939393939394 650.2626262626262,707.4747474747475 640.7272727272727,717.010101010101 631.1919191919192,726.5454545454545 621.6565656565656,736.0808080808081 612.1212121212121,745.6161616161615 602.5858585858585,755.1515151515151 593.0505050505051,764.6868686868687 583.5151515151515,774.2222222222222 573.9797979797979,783.7575757575758 564.4444444444445,793.2929292929292 554.9090909090909,802.8282828282828 545.3737373737374,812.3636363636363 535.8383838383838,821.8989898989898 526.3030303030303,831.4343434343434 516.7676767676768,840.969696969697 507.2323232323232,850.5050505050505 497.69696969696975,860.0404040404039 497.69696969696975,869.5757575757575 497.69696969696975,879.1111111111111" fill="none" stroke="rgba(0,0,255,0.75)" stroke-width="11.327999999999996"/></g><g><polyline data-points="-0.15151515151515066,-3.8888888888888884 -0.15151515151515066,-3.98989898989899 -0.15151515151515066,-4.090909090909091 -0.15151515151515066,-4.191919191919193 -0.15151515151515066,-4.292929292929293 -0.15151515151515066,-4.393939393939394 -0.15151515151515066,-4.494949494949496 -0.15151515151515066,-4.595959595959596 -0.15151515151515066,-4.696969696969697 -0.15151515151515066,-4.7979797979797985 -0.15151515151515066,-4.898989898989899 -0.15151515151515066,-5.000000000000001" data-type="line" data-label="" points="497.69696969696975,879.1111111111111 497.69696969696975,888.6464646464647 497.69696969696975,898.1818181818181 497.69696969696975,907.7171717171718 497.69696969696975,917.2525252525252 497.69696969696975,926.7878787878788 497.69696969696975,936.3232323232323 497.69696969696975,945.8585858585858 497.69696969696975,955.3939393939394 497.69696969696975,964.9292929292928 497.69696969696975,974.4646464646464 497.69696969696975,984" fill="none" stroke="rgba(255,0,0,0.75)" stroke-width="11.327999999999996"/></g><g><polyline data-points="-4.292929292929293,5.000000000000002 -4.292929292929293,4.898989898989901 -4.191919191919193,4.7979797979797985 -4.090909090909091,4.696969696969697 -3.98989898989899,4.595959595959597 -3.8888888888888884,4.494949494949497 -3.7878787878787876,4.393939393939394 -3.6868686868686864,4.292929292929293 -3.5858585858585856,4.191919191919193 -3.484848484848485,4.090909090909092 -3.484848484848485,3.989898989898992 -3.5858585858585856,3.8888888888888893 -3.5858585858585856,3.7878787878787885 -3.5858585858585856,3.6868686868686877 -3.5858585858585856,3.5858585858585874 -3.5858585858585856,3.4848484848484866 -3.5858585858585856,3.383838383838384 -3.5858585858585856,3.2828282828282833 -3.5858585858585856,3.181818181818183 -3.5858585858585856,3.080808080808082 -3.5858585858585856,2.9797979797979806 -3.5858585858585856,2.87878787878788 -3.5858585858585856,2.7777777777777786 -3.5858585858585856,2.676767676767678 -3.5858585858585856,2.575757575757577 -3.5858585858585856,2.4747474747474754 -3.5858585858585856,2.373737373737375 -3.5858585858585856,2.2727272727272734 -3.5858585858585856,2.1717171717171726 -3.5858585858585856,2.070707070707072 -3.5858585858585856,1.9696969696969702 -3.5858585858585856,1.8686868686868696 -3.5858585858585856,1.767676767676768 -3.5858585858585856,1.6666666666666674 -3.5858585858585856,1.5656565656565666 -3.5858585858585856,1.4646464646464652 -3.5858585858585856,1.3636363636363644 -3.5858585858585856,1.262626262626263 -3.5858585858585856,1.1616161616161622 -3.5858585858585856,1.0606060606060617 -3.5858585858585856,0.9595959595959602 -3.5858585858585856,0.8585858585858596 -3.5858585858585856,0.7575757575757579 -3.6868686868686864,0.6565656565656574 -3.5858585858585856,0.5555555555555567 -3.484848484848485,0.4545454545454551 -3.383838383838383,0.3535353535353544 -3.2828282828282824,0.3535353535353544 -3.1818181818181817,0.3535353535353544 -3.0808080808080804,0.3535353535353544 -2.9797979797979792,0.3535353535353544" data-type="line" data-label="" points="106.74747474747483,40.000000000000114 106.74747474747483,49.53535353535369 116.28282828282829,59.07070707070733 125.81818181818193,68.60606060606085 135.35353535353545,78.14141414141432 144.88888888888903,87.67676767676778 154.42424242424255,97.21212121212153 163.95959595959607,106.747474747475 173.4949494949496,116.28282828282846 183.03030303030312,125.81818181818198 183.03030303030312,135.35353535353545 173.4949494949496,144.88888888888908 173.4949494949496,154.4242424242426 173.4949494949496,163.95959595959613 173.4949494949496,173.4949494949496 173.4949494949496,183.03030303030312 173.4949494949496,192.56565656565675 173.4949494949496,202.10101010101027 173.4949494949496,211.63636363636374 173.4949494949496,221.17171717171726 173.4949494949496,230.70707070707084 173.4949494949496,240.24242424242436 173.4949494949496,249.77777777777794 173.4949494949496,259.3131313131314 173.4949494949496,268.84848484848493 173.4949494949496,278.38383838383857 173.4949494949496,287.91919191919203 173.4949494949496,297.4545454545456 173.4949494949496,306.9898989898991 173.4949494949496,316.5252525252526 173.4949494949496,326.06060606060623 173.4949494949496,335.5959595959597 173.4949494949496,345.1313131313133 173.4949494949496,354.66666666666674 173.4949494949496,364.2020202020203 173.4949494949496,373.73737373737384 173.4949494949496,383.27272727272737 173.4949494949496,392.80808080808094 173.4949494949496,402.3434343434344 173.4949494949496,411.87878787878793 173.4949494949496,421.4141414141415 173.4949494949496,430.94949494949503 173.4949494949496,440.4848484848486 163.95959595959607,450.0202020202021 173.4949494949496,459.5555555555556 183.03030303030312,469.0909090909092 192.5656565656567,478.6262626262627 202.10101010101022,478.6262626262627 211.63636363636374,478.6262626262627 221.17171717171726,478.6262626262627 230.70707070707084,478.6262626262627" fill="none" stroke="rgba(255,0,0,0.75)" stroke-width="11.327999999999996"/></g><g><polyline data-points="-2.9797979797979792,0.3535353535353544 -2.8787878787878785,0.2525252525252529 -2.7777777777777777,0.1515151515151522 -2.6767676767676765,0.050505050505051545 -2.5757575757575752,-0.05050505050505001 -2.474747474747474,-0.15151515151515066 -2.3737373737373733,-0.2525252525252522 -2.3737373737373733,-0.35353535353535287 -2.3737373737373733,-0.4545454545454544 -2.3737373737373733,-0.555555555555555 -2.3737373737373733,-0.6565656565656557 -2.3737373737373733,-0.7575757575757572 -2.3737373737373733,-0.8585858585858579 -2.3737373737373733,-0.9595959595959596 -2.3737373737373733,-1.0606060606060603 -2.3737373737373733,-1.1616161616161613 -2.3737373737373733,-1.2626262626262625 -2.3737373737373733,-1.363636363636363 -2.3737373737373733,-1.4646464646464643 -2.3737373737373733,-1.5656565656565653 -2.3737373737373733,-1.6666666666666665 -2.3737373737373733,-1.7676767676767675 -2.3737373737373733,-1.8686868686868683 -2.3737373737373733,-1.9696969696969693 -2.3737373737373733,-2.07070707070707 -2.3737373737373733,-2.1717171717171713 -2.3737373737373733,-2.2727272727272725 -2.3737373737373733,-2.3737373737373733 -2.3737373737373733,-2.474747474747474 -2.3737373737373733,-2.5757575757575752 -2.3737373737373733,-2.6767676767676765 -2.3737373737373733,-2.7777777777777777 -2.3737373737373733,-2.8787878787878785 -2.3737373737373733,-2.9797979797979792 -2.3737373737373733,-3.0808080808080804 -2.3737373737373733,-3.1818181818181817 -2.3737373737373733,-3.2828282828282824 -2.3737373737373733,-3.383838383838383 -2.3737373737373733,-3.484848484848485 -2.3737373737373733,-3.5858585858585856 -2.3737373737373733,-3.6868686868686864" data-type="line" data-label="" points="230.70707070707084,478.6262626262627 240.2424242424243,488.1616161616163 249.77777777777783,497.69696969696975 259.3131313131314,507.23232323232327 268.84848484848493,516.7676767676768 278.38383838383845,526.3030303030304 287.91919191919203,535.838383838384 287.91919191919203,545.3737373737374 287.91919191919203,554.909090909091 287.91919191919203,564.4444444444445 287.91919191919203,573.979797979798 287.91919191919203,583.5151515151516 287.91919191919203,593.0505050505051 287.91919191919203,602.5858585858587 287.91919191919203,612.1212121212121 287.91919191919203,621.6565656565657 287.91919191919203,631.1919191919193 287.91919191919203,640.7272727272727 287.91919191919203,650.2626262626263 287.91919191919203,659.7979797979798 287.91919191919203,669.3333333333334 287.91919191919203,678.8686868686868 287.91919191919203,688.4040404040404 287.91919191919203,697.939393939394 287.91919191919203,707.4747474747475 287.91919191919203,717.010101010101 287.91919191919203,726.5454545454545 287.91919191919203,736.0808080808081 287.91919191919203,745.6161616161615 287.91919191919203,755.1515151515151 287.91919191919203,764.6868686868687 287.91919191919203,774.2222222222222 287.91919191919203,783.7575757575758 287.91919191919203,793.2929292929292 287.91919191919203,802.8282828282828 287.91919191919203,812.3636363636363 287.91919191919203,821.8989898989898 287.91919191919203,831.4343434343434 287.91919191919203,840.969696969697 287.91919191919203,850.5050505050505 287.91919191919203,860.0404040404039" fill="none" stroke="rgba(0,0,255,0.75)" stroke-width="11.327999999999996"/></g><g><polyline data-points="-2.3737373737373733,-3.6868686868686864 -2.3737373737373733,-3.7878787878787876 -2.3737373737373733,-3.8888888888888884 -2.3737373737373733,-3.98989898989899 -2.3737373737373733,-4.090909090909091 -2.3737373737373733,-4.191919191919193 -2.3737373737373733,-4.292929292929293 -2.3737373737373733,-4.393939393939394 -2.3737373737373733,-4.494949494949496 -2.3737373737373733,-4.595959595959596 -2.3737373737373733,-4.696969696969697 -2.3737373737373733,-4.7979797979797985 -2.3737373737373733,-4.898989898989899 -2.2727272727272725,-5.000000000000001" data-type="line" data-label="" points="287.91919191919203,860.0404040404039 287.91919191919203,869.5757575757575 287.91919191919203,879.1111111111111 287.91919191919203,888.6464646464647 287.91919191919203,898.1818181818181 287.91919191919203,907.7171717171718 287.91919191919203,917.2525252525252 287.91919191919203,926.7878787878788 287.91919191919203,936.3232323232323 287.91919191919203,945.8585858585858 287.91919191919203,955.3939393939394 287.91919191919203,964.9292929292928 287.91919191919203,974.4646464646464 297.4545454545455,984" fill="none" stroke="rgba(255,0,0,0.75)" stroke-width="11.327999999999996"/></g><g><polyline data-points="1.6666666666666674,-5.000000000000001 1.5656565656565666,-4.898989898989899 1.4646464646464652,-4.898989898989899 1.3636363636363644,-4.7979797979797985 1.262626262626263,-4.696969696969697 1.1616161616161622,-4.696969696969697 1.0606060606060617,-4.696969696969697 0.9595959595959602,-4.696969696969697 0.8585858585858596,-4.696969696969697 0.7575757575757579,-4.696969696969697 0.6565656565656574,-4.696969696969697 0.5555555555555567,-4.696969696969697 0.4545454545454551,-4.696969696969697 0.3535353535353544,-4.696969696969697 0.2525252525252529,-4.696969696969697 0.1515151515151522,-4.696969696969697 0.050505050505051545,-4.696969696969697 -0.05050505050505001,-4.696969696969697 -0.15151515151515066,-4.696969696969697 -0.2525252525252522,-4.696969696969697 -0.35353535353535287,-4.696969696969697 -0.4545454545454544,-4.696969696969697 -0.555555555555555,-4.696969696969697 -0.6565656565656557,-4.696969696969697 -0.7575757575757572,-4.696969696969697 -0.8585858585858579,-4.696969696969697 -0.9595959595959596,-4.696969696969697 -1.0606060606060603,-4.696969696969697 -1.1616161616161613,-4.696969696969697 -1.2626262626262625,-4.696969696969697 -1.363636363636363,-4.696969696969697 -1.4646464646464643,-4.696969696969697 -1.5656565656565653,-4.696969696969697 -1.6666666666666665,-4.696969696969697 -1.7676767676767675,-4.696969696969697 -1.8686868686868683,-4.696969696969697 -1.9696969696969693,-4.696969696969697 -2.07070707070707,-4.696969696969697 -2.1717171717171713,-4.696969696969697 -2.2727272727272725,-4.696969696969697 -2.3737373737373733,-4.696969696969697 -2.474747474747474,-4.696969696969697 -2.5757575757575752,-4.696969696969697 -2.6767676767676765,-4.696969696969697 -2.7777777777777777,-4.696969696969697 -2.8787878787878785,-4.595959595959596 -2.9797979797979792,-4.595959595959596 -3.0808080808080804,-4.595959595959596 -3.1818181818181817,-4.595959595959596 -3.2828282828282824,-4.595959595959596 -3.383838383838383,-4.595959595959596 -3.484848484848485,-4.595959595959596 -3.5858585858585856,-4.595959595959596 -3.6868686868686864,-4.595959595959596 -3.7878787878787876,-4.494949494949496 -3.8888888888888884,-4.393939393939394 -3.98989898989899,-4.292929292929293 -4.090909090909091,-4.191919191919193 -4.191919191919193,-4.090909090909091 -4.292929292929293,-3.98989898989899 -4.393939393939394,-3.8888888888888884 -4.292929292929293,-3.7878787878787876 -4.191919191919193,-3.6868686868686864 -4.090909090909091,-3.5858585858585856 -3.98989898989899,-3.484848484848485 -3.8888888888888884,-3.383838383838383 -3.7878787878787876,-3.2828282828282824 -3.6868686868686864,-3.1818181818181817 -3.5858585858585856,-3.0808080808080804 -3.484848484848485,-2.9797979797979792 -3.383838383838383,-3.0808080808080804 -3.2828282828282824,-2.9797979797979792 -3.2828282828282824,-2.8787878787878785 -3.2828282828282824,-2.7777777777777777 -3.2828282828282824,-2.6767676767676765 -3.2828282828282824,-2.5757575757575752 -3.2828282828282824,-2.474747474747474 -3.2828282828282824,-2.3737373737373733 -3.2828282828282824,-2.2727272727272725 -3.2828282828282824,-2.1717171717171713 -3.2828282828282824,-2.07070707070707 -3.2828282828282824,-1.9696969696969693 -3.2828282828282824,-1.8686868686868683 -3.2828282828282824,-1.7676767676767675 -3.2828282828282824,-1.6666666666666665 -3.2828282828282824,-1.5656565656565653 -3.2828282828282824,-1.4646464646464643 -3.2828282828282824,-1.363636363636363 -3.2828282828282824,-1.2626262626262625 -3.2828282828282824,-1.1616161616161613 -3.2828282828282824,-1.0606060606060603 -3.2828282828282824,-0.9595959595959596 -3.2828282828282824,-0.8585858585858579 -3.2828282828282824,-0.7575757575757572 -3.2828282828282824,-0.6565656565656557 -3.2828282828282824,-0.555555555555555 -3.2828282828282824,-0.4545454545454544 -3.2828282828282824,-0.35353535353535287 -3.2828282828282824,-0.2525252525252522 -3.2828282828282824,-0.15151515151515066 -3.2828282828282824,-0.05050505050505001 -3.2828282828282824,0.050505050505051545 -3.2828282828282824,0.1515151515151522 -3.2828282828282824,0.2525252525252529 -3.2828282828282824,0.3535353535353544 -3.1818181818181817,0.4545454545454551 -3.0808080808080804,0.5555555555555567 -2.9797979797979792,0.6565656565656574 -2.8787878787878785,0.6565656565656574 -2.7777777777777777,0.6565656565656574" data-type="line" data-label="" points="669.3333333333333,984 659.7979797979798,974.4646464646464 650.2626262626262,974.4646464646464 640.7272727272727,964.9292929292928 631.1919191919192,955.3939393939394 621.6565656565656,955.3939393939394 612.1212121212121,955.3939393939394 602.5858585858585,955.3939393939394 593.0505050505051,955.3939393939394 583.5151515151515,955.3939393939394 573.9797979797979,955.3939393939394 564.4444444444445,955.3939393939394 554.9090909090909,955.3939393939394 545.3737373737374,955.3939393939394 535.8383838383838,955.3939393939394 526.3030303030303,955.3939393939394 516.7676767676768,955.3939393939394 507.2323232323232,955.3939393939394 497.69696969696975,955.3939393939394 488.16161616161617,955.3939393939394 478.62626262626264,955.3939393939394 469.09090909090907,955.3939393939394 459.55555555555554,955.3939393939394 450.0202020202021,955.3939393939394 440.4848484848485,955.3939393939394 430.949494949495,955.3939393939394 421.4141414141414,955.3939393939394 411.8787878787879,955.3939393939394 402.34343434343435,955.3939393939394 392.80808080808083,955.3939393939394 383.2727272727273,955.3939393939394 373.7373737373738,955.3939393939394 364.2020202020202,955.3939393939394 354.6666666666667,955.3939393939394 345.13131313131316,955.3939393939394 335.59595959595964,955.3939393939394 326.0606060606061,955.3939393939394 316.5252525252526,955.3939393939394 306.9898989898991,955.3939393939394 297.4545454545455,955.3939393939394 287.91919191919203,955.3939393939394 278.38383838383845,955.3939393939394 268.84848484848493,955.3939393939394 259.3131313131314,955.3939393939394 249.77777777777783,955.3939393939394 240.2424242424243,945.8585858585858 230.70707070707084,945.8585858585858 221.17171717171726,945.8585858585858 211.63636363636374,945.8585858585858 202.10101010101022,945.8585858585858 192.5656565656567,945.8585858585858 183.03030303030312,945.8585858585858 173.4949494949496,945.8585858585858 163.95959595959607,945.8585858585858 154.42424242424255,936.3232323232323 144.88888888888903,926.7878787878788 135.35353535353545,917.2525252525252 125.81818181818193,907.7171717171718 116.28282828282829,898.1818181818181 106.74747474747483,888.6464646464647 97.21212121212136,879.1111111111111 106.74747474747483,869.5757575757575 116.28282828282829,860.0404040404039 125.81818181818193,850.5050505050505 135.35353535353545,840.969696969697 144.88888888888903,831.4343434343434 154.42424242424255,821.8989898989898 163.95959595959607,812.3636363636363 173.4949494949496,802.8282828282828 183.03030303030312,793.2929292929292 192.5656565656567,802.8282828282828 202.10101010101022,793.2929292929292 202.10101010101022,783.7575757575758 202.10101010101022,774.2222222222222 202.10101010101022,764.6868686868687 202.10101010101022,755.1515151515151 202.10101010101022,745.6161616161615 202.10101010101022,736.0808080808081 202.10101010101022,726.5454545454545 202.10101010101022,717.010101010101 202.10101010101022,707.4747474747475 202.10101010101022,697.939393939394 202.10101010101022,688.4040404040404 202.10101010101022,678.8686868686868 202.10101010101022,669.3333333333334 202.10101010101022,659.7979797979798 202.10101010101022,650.2626262626263 202.10101010101022,640.7272727272727 202.10101010101022,631.1919191919193 202.10101010101022,621.6565656565657 202.10101010101022,612.1212121212121 202.10101010101022,602.5858585858587 202.10101010101022,593.0505050505051 202.10101010101022,583.5151515151516 202.10101010101022,573.979797979798 202.10101010101022,564.4444444444445 202.10101010101022,554.909090909091 202.10101010101022,545.3737373737374 202.10101010101022,535.838383838384 202.10101010101022,526.3030303030304 202.10101010101022,516.7676767676768 202.10101010101022,507.23232323232327 202.10101010101022,497.69696969696975 202.10101010101022,488.1616161616163 202.10101010101022,478.6262626262627 211.63636363636374,469.0909090909092 221.17171717171726,459.5555555555556 230.70707070707084,450.0202020202021 240.2424242424243,450.0202020202021 249.77777777777783,450.0202020202021" fill="none" stroke="rgba(0,0,255,0.75)" stroke-width="11.327999999999996"/></g><g><polyline data-points="-2.7777777777777777,0.6565656565656574 -2.7777777777777777,0.7575757575757579 -2.7777777777777777,0.8585858585858596 -2.7777777777777777,0.9595959595959602 -2.7777777777777777,1.0606060606060617 -2.7777777777777777,1.1616161616161622 -2.7777777777777777,1.262626262626263 -2.7777777777777777,1.3636363636363644 -2.7777777777777777,1.4646464646464652 -2.7777777777777777,1.5656565656565666 -2.7777777777777777,1.6666666666666674 -2.7777777777777777,1.767676767676768 -2.7777777777777777,1.8686868686868696 -2.7777777777777777,1.9696969696969702 -2.7777777777777777,2.070707070707072 -2.7777777777777777,2.1717171717171726 -2.7777777777777777,2.2727272727272734 -2.7777777777777777,2.373737373737375 -2.7777777777777777,2.4747474747474754 -2.7777777777777777,2.575757575757577 -2.7777777777777777,2.676767676767678 -2.7777777777777777,2.7777777777777786 -2.7777777777777777,2.87878787878788 -2.7777777777777777,2.9797979797979806 -2.7777777777777777,3.080808080808082 -2.7777777777777777,3.181818181818183 -2.7777777777777777,3.2828282828282833 -2.7777777777777777,3.383838383838384 -2.8787878787878785,3.4848484848484866 -2.7777777777777777,3.5858585858585874 -2.7777777777777777,3.6868686868686877 -2.8787878787878785,3.7878787878787885 -2.9797979797979792,3.8888888888888893 -3.0808080808080804,3.989898989898992 -2.9797979797979792,4.090909090909092 -2.8787878787878785,4.191919191919193 -2.7777777777777777,4.292929292929293 -2.8787878787878785,4.393939393939394 -2.8787878787878785,4.494949494949497 -2.8787878787878785,4.595959595959597 -2.8787878787878785,4.696969696969697 -2.8787878787878785,4.7979797979797985 -2.8787878787878785,4.898989898989901 -2.7777777777777777,5.000000000000002" data-type="line" data-label="" points="249.77777777777783,450.0202020202021 249.77777777777783,440.4848484848486 249.77777777777783,430.94949494949503 249.77777777777783,421.4141414141415 249.77777777777783,411.87878787878793 249.77777777777783,402.3434343434344 249.77777777777783,392.80808080808094 249.77777777777783,383.27272727272737 249.77777777777783,373.73737373737384 249.77777777777783,364.2020202020203 249.77777777777783,354.66666666666674 249.77777777777783,345.1313131313133 249.77777777777783,335.5959595959597 249.77777777777783,326.06060606060623 249.77777777777783,316.5252525252526 249.77777777777783,306.9898989898991 249.77777777777783,297.4545454545456 249.77777777777783,287.91919191919203 249.77777777777783,278.38383838383857 249.77777777777783,268.84848484848493 249.77777777777783,259.3131313131314 249.77777777777783,249.77777777777794 249.77777777777783,240.24242424242436 249.77777777777783,230.70707070707084 249.77777777777783,221.17171717171726 249.77777777777783,211.63636363636374 249.77777777777783,202.10101010101027 249.77777777777783,192.56565656565675 240.2424242424243,183.03030303030312 249.77777777777783,173.4949494949496 249.77777777777783,163.95959595959613 240.2424242424243,154.4242424242426 230.70707070707084,144.88888888888908 221.17171717171726,135.35353535353545 230.70707070707084,125.81818181818198 240.2424242424243,116.28282828282846 249.77777777777783,106.747474747475 240.2424242424243,97.21212121212153 240.2424242424243,87.67676767676778 240.2424242424243,78.14141414141432 240.2424242424243,68.60606060606085 240.2424242424243,59.07070707070733 240.2424242424243,49.53535353535369 249.77777777777783,40.000000000000114" fill="none" stroke="rgba(255,0,0,0.75)" stroke-width="11.327999999999996"/></g><g><polyline data-points="-5.000000000000001,-4.898989898989899 -4.898989898989899,-4.7979797979797985 -4.7979797979797985,-4.696969696969697 -4.696969696969697,-4.595959595959596 -4.595959595959596,-4.494949494949496 -4.595959595959596,-4.393939393939394 -4.595959595959596,-4.292929292929293 -4.595959595959596,-4.191919191919193 -4.595959595959596,-4.090909090909091 -4.595959595959596,-3.98989898989899 -4.595959595959596,-3.8888888888888884 -4.595959595959596,-3.7878787878787876 -4.494949494949496,-3.6868686868686864 -4.393939393939394,-3.5858585858585856 -4.292929292929293,-3.484848484848485 -4.191919191919193,-3.383838383838383 -4.090909090909091,-3.2828282828282824 -3.98989898989899,-3.1818181818181817 -3.98989898989899,-3.0808080808080804 -3.98989898989899,-2.9797979797979792" data-type="line" data-label="" points="40.00000000000006,974.4646464646464 49.53535353535369,964.9292929292928 59.07070707070716,955.3939393939394 68.60606060606068,945.8585858585858 78.14141414141426,936.3232323232323 78.14141414141426,926.7878787878788 78.14141414141426,917.2525252525252 78.14141414141426,907.7171717171718 78.14141414141426,898.1818181818181 78.14141414141426,888.6464646464647 78.14141414141426,879.1111111111111 78.14141414141426,869.5757575757575 87.67676767676772,860.0404040404039 97.21212121212136,850.5050505050505 106.74747474747483,840.969696969697 116.28282828282829,831.4343434343434 125.81818181818193,821.8989898989898 135.35353535353545,812.3636363636363 135.35353535353545,802.8282828282828 135.35353535353545,793.2929292929292" fill="none" stroke="rgba(0,0,255,0.75)" stroke-width="11.327999999999996"/></g><g><polyline data-points="-3.98989898989899,-2.9797979797979792 -3.8888888888888884,-3.0808080808080804 -3.7878787878787876,-3.1818181818181817 -3.7878787878787876,-3.2828282828282824 -3.6868686868686864,-3.383838383838383 -3.5858585858585856,-3.383838383838383 -3.484848484848485,-3.383838383838383 -3.383838383838383,-3.383838383838383 -3.2828282828282824,-3.383838383838383 -3.1818181818181817,-3.383838383838383 -3.0808080808080804,-3.383838383838383 -2.9797979797979792,-3.383838383838383 -2.8787878787878785,-3.383838383838383 -2.7777777777777777,-3.383838383838383 -2.6767676767676765,-3.383838383838383 -2.5757575757575752,-3.383838383838383 -2.474747474747474,-3.383838383838383 -2.3737373737373733,-3.383838383838383 -2.2727272727272725,-3.484848484848485 -2.1717171717171713,-3.5858585858585856 -2.07070707070707,-3.5858585858585856 -1.9696969696969693,-3.5858585858585856 -1.8686868686868683,-3.5858585858585856 -1.7676767676767675,-3.5858585858585856 -1.6666666666666665,-3.5858585858585856 -1.5656565656565653,-3.5858585858585856 -1.4646464646464643,-3.5858585858585856 -1.363636363636363,-3.5858585858585856 -1.2626262626262625,-3.5858585858585856 -1.1616161616161613,-3.5858585858585856 -1.0606060606060603,-3.5858585858585856 -0.9595959595959596,-3.5858585858585856 -0.8585858585858579,-3.5858585858585856 -0.7575757575757572,-3.5858585858585856 -0.6565656565656557,-3.5858585858585856 -0.555555555555555,-3.5858585858585856 -0.4545454545454544,-3.5858585858585856 -0.35353535353535287,-3.5858585858585856 -0.2525252525252522,-3.5858585858585856 -0.15151515151515066,-3.5858585858585856 -0.05050505050505001,-3.6868686868686864 0.050505050505051545,-3.7878787878787876 0.1515151515151522,-3.8888888888888884 0.2525252525252529,-3.8888888888888884 0.3535353535353544,-3.8888888888888884 0.4545454545454551,-3.8888888888888884 0.5555555555555567,-3.8888888888888884 0.6565656565656574,-3.8888888888888884 0.7575757575757579,-3.8888888888888884 0.8585858585858596,-3.8888888888888884 0.9595959595959602,-3.8888888888888884 1.0606060606060617,-3.8888888888888884 1.1616161616161622,-3.8888888888888884 1.262626262626263,-3.8888888888888884 1.3636363636363644,-3.8888888888888884 1.4646464646464652,-3.8888888888888884 1.5656565656565666,-3.8888888888888884 1.6666666666666674,-3.8888888888888884 1.767676767676768,-3.8888888888888884 1.8686868686868696,-3.8888888888888884" data-type="line" data-label="" points="135.35353535353545,793.2929292929292 144.88888888888903,802.8282828282828 154.42424242424255,812.3636363636363 154.42424242424255,821.8989898989898 163.95959595959607,831.4343434343434 173.4949494949496,831.4343434343434 183.03030303030312,831.4343434343434 192.5656565656567,831.4343434343434 202.10101010101022,831.4343434343434 211.63636363636374,831.4343434343434 221.17171717171726,831.4343434343434 230.70707070707084,831.4343434343434 240.2424242424243,831.4343434343434 249.77777777777783,831.4343434343434 259.3131313131314,831.4343434343434 268.84848484848493,831.4343434343434 278.38383838383845,831.4343434343434 287.91919191919203,831.4343434343434 297.4545454545455,840.969696969697 306.9898989898991,850.5050505050505 316.5252525252526,850.5050505050505 326.0606060606061,850.5050505050505 335.59595959595964,850.5050505050505 345.13131313131316,850.5050505050505 354.6666666666667,850.5050505050505 364.2020202020202,850.5050505050505 373.7373737373738,850.5050505050505 383.2727272727273,850.5050505050505 392.80808080808083,850.5050505050505 402.34343434343435,850.5050505050505 411.8787878787879,850.5050505050505 421.4141414141414,850.5050505050505 430.949494949495,850.5050505050505 440.4848484848485,850.5050505050505 450.0202020202021,850.5050505050505 459.55555555555554,850.5050505050505 469.09090909090907,850.5050505050505 478.62626262626264,850.5050505050505 488.16161616161617,850.5050505050505 497.69696969696975,850.5050505050505 507.2323232323232,860.0404040404039 516.7676767676768,869.5757575757575 526.3030303030303,879.1111111111111 535.8383838383838,879.1111111111111 545.3737373737374,879.1111111111111 554.9090909090909,879.1111111111111 564.4444444444445,879.1111111111111 573.9797979797979,879.1111111111111 583.5151515151515,879.1111111111111 593.0505050505051,879.1111111111111 602.5858585858585,879.1111111111111 612.1212121212121,879.1111111111111 621.6565656565656,879.1111111111111 631.1919191919192,879.1111111111111 640.7272727272727,879.1111111111111 650.2626262626262,879.1111111111111 659.7979797979798,879.1111111111111 669.3333333333333,879.1111111111111 678.8686868686868,879.1111111111111 688.4040404040404,879.1111111111111" fill="none" stroke="rgba(255,0,0,0.75)" stroke-width="11.327999999999996"/></g><g><polyline data-points="1.8686868686868696,-3.8888888888888884 1.9696969696969702,-3.98989898989899 2.070707070707072,-4.090909090909091 2.1717171717171726,-4.090909090909091 2.2727272727272734,-4.191919191919193 2.373737373737375,-4.292929292929293 2.4747474747474754,-4.393939393939394 2.575757575757577,-4.494949494949496 2.676767676767678,-4.595959595959596 2.7777777777777786,-4.696969696969697 2.87878787878788,-4.7979797979797985 2.9797979797979806,-4.898989898989899 2.9797979797979806,-5.000000000000001" data-type="line" data-label="" points="688.4040404040404,879.1111111111111 697.9393939393939,888.6464646464647 707.4747474747475,898.1818181818181 717.0101010101009,898.1818181818181 726.5454545454545,907.7171717171718 736.0808080808081,917.2525252525252 745.6161616161615,926.7878787878788 755.1515151515151,936.3232323232323 764.6868686868686,945.8585858585858 774.2222222222222,955.3939393939394 783.7575757575758,964.9292929292928 793.2929292929292,974.4646464646464 793.2929292929292,984" fill="none" stroke="rgba(0,0,255,0.75)" stroke-width="11.327999999999996"/></g><g><polyline data-points="5.000000000000002,-4.7979797979797985 4.898989898989901,-4.7979797979797985 4.7979797979797985,-4.696969696969697 4.696969696969697,-4.595959595959596 4.595959595959597,-4.494949494949496 4.494949494949497,-4.393939393939394 4.595959595959597,-4.292929292929293 4.494949494949497,-4.191919191919193 4.393939393939394,-4.090909090909091 4.292929292929293,-3.98989898989899 4.191919191919193,-3.8888888888888884 4.090909090909092,-3.8888888888888884 3.989898989898992,-3.8888888888888884 3.8888888888888893,-3.8888888888888884 3.7878787878787885,-3.8888888888888884 3.6868686868686877,-3.8888888888888884 3.5858585858585874,-3.8888888888888884 3.4848484848484866,-3.8888888888888884 3.383838383838384,-3.8888888888888884 3.2828282828282833,-3.8888888888888884 3.181818181818183,-3.8888888888888884 3.080808080808082,-3.8888888888888884 2.9797979797979806,-3.8888888888888884 2.87878787878788,-3.8888888888888884 2.7777777777777786,-3.8888888888888884 2.676767676767678,-3.8888888888888884 2.575757575757577,-3.8888888888888884 2.4747474747474754,-3.8888888888888884 2.373737373737375,-3.8888888888888884 2.2727272727272734,-3.8888888888888884 2.1717171717171726,-3.8888888888888884 2.070707070707072,-3.7878787878787876 1.9696969696969702,-3.6868686868686864 1.8686868686868696,-3.5858585858585856 1.767676767676768,-3.6868686868686864 1.6666666666666674,-3.7878787878787876 1.5656565656565666,-3.8888888888888884 1.4646464646464652,-3.8888888888888884 1.3636363636363644,-3.8888888888888884 1.262626262626263,-3.8888888888888884 1.1616161616161622,-3.8888888888888884 1.0606060606060617,-3.8888888888888884 0.9595959595959602,-3.8888888888888884 0.8585858585858596,-3.8888888888888884 0.7575757575757579,-3.8888888888888884 0.6565656565656574,-3.8888888888888884 0.5555555555555567,-3.8888888888888884 0.4545454545454551,-3.8888888888888884 0.3535353535353544,-3.8888888888888884 0.2525252525252529,-3.8888888888888884 0.1515151515151522,-3.8888888888888884 0.050505050505051545,-3.98989898989899 -0.05050505050505001,-4.090909090909091 -0.15151515151515066,-4.191919191919193 -0.2525252525252522,-4.090909090909091 -0.35353535353535287,-4.090909090909091 -0.4545454545454544,-4.090909090909091 -0.555555555555555,-4.090909090909091 -0.6565656565656557,-4.090909090909091 -0.7575757575757572,-4.090909090909091 -0.8585858585858579,-4.090909090909091 -0.9595959595959596,-4.090909090909091 -1.0606060606060603,-4.090909090909091 -1.1616161616161613,-4.090909090909091 -1.2626262626262625,-4.090909090909091 -1.363636363636363,-4.090909090909091 -1.4646464646464643,-4.090909090909091 -1.5656565656565653,-4.090909090909091 -1.6666666666666665,-4.090909090909091 -1.7676767676767675,-4.090909090909091 -1.8686868686868683,-4.090909090909091 -1.9696969696969693,-4.090909090909091 -2.07070707070707,-4.090909090909091 -2.1717171717171713,-4.090909090909091 -2.2727272727272725,-4.090909090909091 -2.3737373737373733,-3.98989898989899 -2.474747474747474,-3.8888888888888884 -2.5757575757575752,-3.8888888888888884 -2.6767676767676765,-3.98989898989899 -2.7777777777777777,-3.98989898989899 -2.8787878787878785,-3.98989898989899 -2.9797979797979792,-3.98989898989899 -3.0808080808080804,-3.98989898989899 -3.1818181818181817,-3.98989898989899 -3.2828282828282824,-3.98989898989899 -3.383838383838383,-3.98989898989899 -3.484848484848485,-3.98989898989899 -3.5858585858585856,-3.98989898989899 -3.6868686868686864,-3.98989898989899 -3.7878787878787876,-3.98989898989899" data-type="line" data-label="" points="984,964.9292929292928 974.4646464646464,964.9292929292928 964.9292929292927,955.3939393939394 955.3939393939393,945.8585858585858 945.8585858585857,936.3232323232323 936.3232323232323,926.7878787878788 945.8585858585857,917.2525252525252 936.3232323232323,907.7171717171718 926.7878787878785,898.1818181818181 917.2525252525251,888.6464646464647 907.7171717171716,879.1111111111111 898.181818181818,879.1111111111111 888.6464646464647,879.1111111111111 879.111111111111,879.1111111111111 869.5757575757575,879.1111111111111 860.0404040404039,879.1111111111111 850.5050505050505,879.1111111111111 840.969696969697,879.1111111111111 831.4343434343433,879.1111111111111 821.8989898989898,879.1111111111111 812.3636363636363,879.1111111111111 802.8282828282828,879.1111111111111 793.2929292929292,879.1111111111111 783.7575757575758,879.1111111111111 774.2222222222222,879.1111111111111 764.6868686868686,879.1111111111111 755.1515151515151,879.1111111111111 745.6161616161615,879.1111111111111 736.0808080808081,879.1111111111111 726.5454545454545,879.1111111111111 717.0101010101009,879.1111111111111 707.4747474747475,869.5757575757575 697.9393939393939,860.0404040404039 688.4040404040404,850.5050505050505 678.8686868686868,860.0404040404039 669.3333333333333,869.5757575757575 659.7979797979798,879.1111111111111 650.2626262626262,879.1111111111111 640.7272727272727,879.1111111111111 631.1919191919192,879.1111111111111 621.6565656565656,879.1111111111111 612.1212121212121,879.1111111111111 602.5858585858585,879.1111111111111 593.0505050505051,879.1111111111111 583.5151515151515,879.1111111111111 573.9797979797979,879.1111111111111 564.4444444444445,879.1111111111111 554.9090909090909,879.1111111111111 545.3737373737374,879.1111111111111 535.8383838383838,879.1111111111111 526.3030303030303,879.1111111111111 516.7676767676768,888.6464646464647 507.2323232323232,898.1818181818181 497.69696969696975,907.7171717171718 488.16161616161617,898.1818181818181 478.62626262626264,898.1818181818181 469.09090909090907,898.1818181818181 459.55555555555554,898.1818181818181 450.0202020202021,898.1818181818181 440.4848484848485,898.1818181818181 430.949494949495,898.1818181818181 421.4141414141414,898.1818181818181 411.8787878787879,898.1818181818181 402.34343434343435,898.1818181818181 392.80808080808083,898.1818181818181 383.2727272727273,898.1818181818181 373.7373737373738,898.1818181818181 364.2020202020202,898.1818181818181 354.6666666666667,898.1818181818181 345.13131313131316,898.1818181818181 335.59595959595964,898.1818181818181 326.0606060606061,898.1818181818181 316.5252525252526,898.1818181818181 306.9898989898991,898.1818181818181 297.4545454545455,898.1818181818181 287.91919191919203,888.6464646464647 278.38383838383845,879.1111111111111 268.84848484848493,879.1111111111111 259.3131313131314,888.6464646464647 249.77777777777783,888.6464646464647 240.2424242424243,888.6464646464647 230.70707070707084,888.6464646464647 221.17171717171726,888.6464646464647 211.63636363636374,888.6464646464647 202.10101010101022,888.6464646464647 192.5656565656567,888.6464646464647 183.03030303030312,888.6464646464647 173.4949494949496,888.6464646464647 163.95959595959607,888.6464646464647 154.42424242424255,888.6464646464647" fill="none" stroke="rgba(0,0,255,0.75)" stroke-width="11.327999999999996"/></g><g><polyline data-points="-3.7878787878787876,-3.98989898989899 -3.8888888888888884,-3.98989898989899 -3.98989898989899,-3.98989898989899 -4.090909090909091,-3.98989898989899 -4.191919191919193,-4.090909090909091 -4.292929292929293,-3.98989898989899 -4.393939393939394,-3.98989898989899 -4.494949494949496,-3.98989898989899 -4.595959595959596,-3.98989898989899 -4.696969696969697,-3.98989898989899 -4.7979797979797985,-3.98989898989899 -4.898989898989899,-3.98989898989899 -5.000000000000001,-3.8888888888888884" data-type="line" data-label="" points="154.42424242424255,888.6464646464647 144.88888888888903,888.6464646464647 135.35353535353545,888.6464646464647 125.81818181818193,888.6464646464647 116.28282828282829,898.1818181818181 106.74747474747483,888.6464646464647 97.21212121212136,888.6464646464647 87.67676767676772,888.6464646464647 78.14141414141426,888.6464646464647 68.60606060606068,888.6464646464647 59.07070707070716,888.6464646464647 49.53535353535369,888.6464646464647 40.00000000000006,879.1111111111111" fill="none" stroke="rgba(255,0,0,0.75)" stroke-width="11.327999999999996"/></g><g><rect data-type="rect" data-label="" data-x="0" data-y="0" x="40.000000000000114" y="40.000000000000284" width="943.9999999999997" height="943.9999999999998" fill="none" stroke="gray" stroke-width="0.010593220338983056"/></g><g><rect data-type="rect" data-label="" data-x="0" data-y="0" x="40.000000000000114" y="40.000000000000284" width="943.9999999999997" height="943.9999999999998" fill="none" stroke="rgba(15, 23, 42, 0.8)" stroke-width="0.010593220338983056"/></g><circle data-type="circle" data-label="" data-x="-2.7777777777777777" data-y="3.989898989898992" cx="249.77777777777783" cy="135.35353535353545" r="14.159999999999995" fill="rgba(0,0,0,0.3)" stroke="black" stroke-width="0.010593220338983056"/><circle data-type="circle" data-label="" data-x="-3.7878787878787876" data-y="3.989898989898992" cx="154.42424242424255" cy="135.35353535353545" r="14.159999999999995" fill="rgba(0,0,0,0.3)" stroke="black" stroke-width="0.010593220338983056"/><circle data-type="circle" data-label="" data-x="-0.15151515151515066" data-y="-3.8888888888888884" cx="497.69696969696975" cy="879.1111111111111" r="14.159999999999995" fill="rgba(0,0,0,0.3)" stroke="black" stroke-width="0.010593220338983056"/><circle data-type="circle" data-label="" data-x="-2.9797979797979792" data-y="0.3535353535353544" cx="230.70707070707084" cy="478.6262626262627" r="14.159999999999995" fill="rgba(0,0,0,0.3)" stroke="black" stroke-width="0.010593220338983056"/><circle data-type="circle" data-label="" data-x="-2.3737373737373733" data-y="-3.6868686868686864" cx="287.91919191919203" cy="860.0404040404039" r="14.159999999999995" fill="rgba(0,0,0,0.3)" stroke="black" stroke-width="0.010593220338983056"/><circle data-type="circle" data-label="" data-x="-2.7777777777777777" data-y="0.6565656565656574" cx="249.77777777777783" cy="450.0202020202021" r="14.159999999999995" fill="rgba(0,0,0,0.3)" stroke="black" stroke-width="0.010593220338983056"/><circle data-type="circle" data-label="" data-x="-3.98989898989899" data-y="-2.9797979797979792" cx="135.35353535353545" cy="793.2929292929292" r="14.159999999999995" fill="rgba(0,0,0,0.3)" stroke="black" stroke-width="0.010593220338983056"/><circle data-type="circle" data-label="" data-x="1.8686868686868696" data-y="-3.8888888888888884" cx="688.4040404040404" cy="879.1111111111111" r="14.159999999999995" fill="rgba(0,0,0,0.3)" stroke="black" stroke-width="0.010593220338983056"/><circle data-type="circle" data-label="" data-x="-3.7878787878787876" data-y="-3.98989898989899" cx="154.42424242424255" cy="888.6464646464647" r="14.159999999999995" fill="rgba(0,0,0,0.3)" stroke="black" stroke-width="0.010593220338983056"/><g id="crosshair" style="display: none"><line id="crosshair-h" y1="0" y2="1024" stroke="#666" stroke-width="0.5"/><line id="crosshair-v" x1="0" x2="1024" stroke="#666" stroke-width="0.5"/><text id="coordinates" font-family="monospace" font-size="12" fill="#666"></text></g><script><![CDATA[
              document.currentScript.parentElement.addEventListener('mousemove', (e) => {
                const svg = e.currentTarget;
                const rect = svg.getBoundingClientRect();
                const x = e.clientX - rect.left;
                const y = e.clientY - rect.top;
                const crosshair = svg.getElementById('crosshair');
                const h = svg.getElementById('crosshair-h');
                const v = svg.getElementById('crosshair-v');
                const coords = svg.getElementById('coordinates');
                
                crosshair.style.display = 'block';
                h.setAttribute('x1', '0');
                h.setAttribute('x2', '1024');
                h.setAttribute('y1', y);
                h.setAttribute('y2', y);
                v.setAttribute('x1', x);
                v.setAttribute('x2', x);
                v.setAttribute('y1', '0');
                v.setAttribute('y2', '1024');

                // Calculate real coordinates using inverse transformation
                const matrix = {"a":94.39999999999996,"c":0,"e":511.99999999999994,"b":0,"d":-94.39999999999996,"f":512.0000000000001};
                // Manually invert and apply the affine transform
                // Since we only use translate and scale, we can directly compute:
                // x' = (x - tx) / sx
                // y' = (y - ty) / sy
                const sx = matrix.a;
                const sy = matrix.d;
                const tx = matrix.e; 
                const ty = matrix.f;
                const realPoint = {
                  x: (x - tx) / sx,
                  y: (y - ty) / sy // Flip y back since we used negative scale
                }
                
                coords.textContent = `(${realPoint.x.toFixed(2)}, ${realPoint.y.toFixed(2)})`;
                coords.setAttribute('x', (x + 5).toString());
                coords.setAttribute('y', (y - 5).toString());
              });
              document.currentScript.parentElement.addEventListener('mouseleave', () => {
                document.currentScript.parentElement.getElementById('crosshair').style.display = 'none';
              });
            ]]></script></svg>