<svg width="1024" height="1024" viewBox="0 0 1024 1024" xmlns="http://www.w3.org/2000/svg"><rect width="100%" height="100%" fill="white"/><g><circle data-type="point" data-label="conn_000" data-x="5" data-y="4.14" cx="983.9999999999998" cy="121.1840000000002" r="14.16" fill="blue"/></g><g><circle data-type="point" data-label="conn_000" data-x="5" data-y="3.4" cx="983.9999999999998" cy="191.04000000000013" r="14.16" fill="blue"/></g><g><circle data-type="point" data-label="conn_001" data-x="5" data-y="3.56" cx="983.9999999999998" cy="175.93600000000015" r="14.16" fill="red"/></g><g><circle data-type="point" data-label="conn_001" data-x="-5" data-y="-0.62" cx="40.000000000000114" cy="570.528" r="14.16" fill="red"/></g><g><circle data-type="point" data-label="conn_002" data-x="-5" data-y="-2.06" cx="40.000000000000114" cy="706.4639999999999" r="14.16" fill="red"/></g><g><circle data-type="point" data-label="conn_002" data-x="5" data-y="3.8200000000000003" cx="983.9999999999998" cy="151.3920000000001" r="14.16" fill="blue"/></g><g><circle data-type="point" data-label="conn_003" data-x="-5" data-y="4.6000000000000005" cx="40.000000000000114" cy="77.7600000000001" r="14.16" fill="red"/></g><g><circle data-type="point" data-label="conn_003" data-x="5" data-y="-4.18" cx="983.9999999999998" cy="906.5919999999999" r="14.16" fill="red"/></g><g><circle data-type="point" data-label="conn_004" data-x="5" data-y="-0.9" cx="983.9999999999998" cy="596.9599999999999" r="14.16" fill="red"/></g><g><circle data-type="point" data-label="conn_004" data-x="-5" data-y="2.2600000000000002" cx="40.000000000000114" cy="298.65600000000006" r="14.16" fill="blue"/></g><g><circle data-type="point" data-label="conn_005" data-x="-5" data-y="1.5" cx="40.000000000000114" cy="370.4000000000001" r="14.16" fill="red"/></g><g><circle data-type="point" data-label="conn_005" data-x="5" data-y="2.36" cx="983.9999999999998" cy="289.2160000000001" r="14.16" fill="blue"/></g><g><circle data-type="point" data-label="conn_006" data-x="-5" data-y="-3.9" cx="40.000000000000114" cy="880.1599999999999" r="14.16" fill="blue"/></g><g><circle data-type="point" data-label="conn_006" data-x="5" data-y="-4.46" cx="983.9999999999998" cy="933.0239999999999" r="14.16" fill="blue"/></g><g><circle data-type="point" data-label="conn_007" data-x="-5" data-y="-0.26" cx="40.000000000000114" cy="536.544" r="14.16" fill="blue"/></g><g><circle data-type="point" data-label="conn_007" data-x="5" data-y="-3.7600000000000002" cx="983.9999999999998" cy="866.944" r="14.16" fill="red"/></g><g><polyline data-points="-5.000000000000001,4.696969696969697 -4.898989898989899,4.595959595959597 -4.7979797979797985,4.494949494949497 -4.696969696969697,4.393939393939394 -4.595959595959596,4.292929292929293 -4.494949494949496,4.191919191919193 -4.393939393939394,4.090909090909092 -4.292929292929293,3.989898989898992 -4.191919191919193,3.8888888888888893 -4.090909090909091,3.7878787878787885 -3.98989898989899,3.6868686868686877 -3.8888888888888884,3.5858585858585874 -3.7878787878787876,3.4848484848484866 -3.6868686868686864,3.383838383838384 -3.5858585858585856,3.2828282828282833 -3.484848484848485,3.181818181818183 -3.383838383838383,3.080808080808082 -3.2828282828282824,2.9797979797979806 -3.1818181818181817,2.87878787878788 -3.0808080808080804,2.7777777777777786 -2.9797979797979792,2.676767676767678 -2.8787878787878785,2.575757575757577 -2.7777777777777777,2.4747474747474754 -2.6767676767676765,2.373737373737375 -2.5757575757575752,2.2727272727272734 -2.474747474747474,2.1717171717171726 -2.3737373737373733,2.070707070707072 -2.2727272727272725,1.9696969696969702 -2.1717171717171713,1.8686868686868696 -2.07070707070707,1.767676767676768 -1.9696969696969693,1.6666666666666674 -1.8686868686868683,1.5656565656565666 -1.7676767676767675,1.4646464646464652 -1.6666666666666665,1.3636363636363644 -1.5656565656565653,1.262626262626263 -1.4646464646464643,1.1616161616161622 -1.363636363636363,1.0606060606060617 -1.2626262626262625,0.9595959595959602 -1.1616161616161613,0.8585858585858596 -1.0606060606060603,0.7575757575757579 -0.9595959595959596,0.6565656565656574 -0.8585858585858579,0.5555555555555567 -0.7575757575757572,0.4545454545454551 -0.6565656565656557,0.3535353535353544 -0.555555555555555,0.2525252525252529 -0.4545454545454544,0.1515151515151522 -0.35353535353535287,0.050505050505051545 -0.2525252525252522,-0.05050505050505001 -0.15151515151515066,-0.15151515151515066 -0.05050505050505001,-0.2525252525252522 0.050505050505051545,-0.35353535353535287 0.1515151515151522,-0.4545454545454544 0.2525252525252529,-0.555555555555555 0.3535353535353544,-0.6565656565656557 0.4545454545454551,-0.7575757575757572 0.5555555555555567,-0.8585858585858579 0.6565656565656574,-0.9595959595959596 0.7575757575757579,-1.0606060606060603 0.8585858585858596,-1.1616161616161613 0.9595959595959602,-1.2626262626262625 1.0606060606060617,-1.363636363636363 1.1616161616161622,-1.4646464646464643 1.262626262626263,-1.5656565656565653 1.3636363636363644,-1.6666666666666665 1.4646464646464652,-1.7676767676767675 1.5656565656565666,-1.8686868686868683 1.6666666666666674,-1.9696969696969693 1.767676767676768,-2.07070707070707 1.8686868686868696,-2.1717171717171713 1.9696969696969702,-2.2727272727272725 2.070707070707072,-2.3737373737373733 2.1717171717171726,-2.474747474747474 2.2727272727272734,-2.5757575757575752 2.373737373737375,-2.6767676767676765 2.4747474747474754,-2.7777777777777777 2.575757575757577,-2.8787878787878785 2.676767676767678,-2.9797979797979792 2.7777777777777786,-3.0808080808080804 2.87878787878788,-3.1818181818181817 2.9797979797979806,-3.2828282828282824 3.080808080808082,-3.383838383838383 3.181818181818183,-3.484848484848485 3.2828282828282833,-3.5858585858585856 3.383838383838384,-3.6868686868686864 3.4848484848484866,-3.7878787878787876 3.5858585858585874,-3.8888888888888884 3.6868686868686877,-3.98989898989899 3.7878787878787885,-4.090909090909091 3.8888888888888893,-4.191919191919193 3.989898989898992,-4.191919191919193 4.090909090909092,-4.191919191919193 4.191919191919193,-4.191919191919193 4.292929292929293,-4.191919191919193 4.393939393939394,-4.191919191919193 4.494949494949497,-4.191919191919193 4.595959595959597,-4.191919191919193 4.696969696969697,-4.191919191919193 4.7979797979797985,-4.191919191919193 4.898989898989901,-4.191919191919193 5.000000000000002,-4.191919191919193" data-type="line" data-label="" points="40.00000000000006,68.60606060606074 49.53535353535369,78.1414141414142 59.07070707070716,87.67676767676767 68.60606060606068,97.21212121212142 78.14141414141426,106.74747474747488 87.67676767676772,116.28282828282835 97.21212121212136,125.81818181818187 106.74747474747483,135.35353535353534 116.28282828282829,144.88888888888897 125.81818181818193,154.4242424242425 135.35353535353545,163.95959595959602 144.88888888888903,173.49494949494948 154.42424242424255,183.030303030303 163.95959595959607,192.56565656565664 173.4949494949496,202.10101010101016 183.03030303030312,211.63636363636363 192.5656565656567,221.17171717171715 202.10101010101022,230.70707070707073 211.63636363636374,240.24242424242425 221.17171717171726,249.77777777777783 230.70707070707084,259.3131313131313 240.2424242424243,268.8484848484848 249.77777777777783,278.38383838383845 259.3131313131314,287.9191919191919 268.84848484848493,297.4545454545455 278.38383838383845,306.98989898989896 287.91919191919203,316.5252525252525 297.4545454545455,326.0606060606061 306.9898989898991,335.5959595959596 316.5252525252526,345.13131313131316 326.0606060606061,354.66666666666663 335.59595959595964,364.2020202020202 345.13131313131316,373.73737373737373 354.6666666666667,383.27272727272725 364.2020202020202,392.80808080808083 373.7373737373738,402.3434343434343 383.2727272727273,411.8787878787878 392.80808080808083,421.4141414141414 402.34343434343435,430.9494949494949 411.8787878787879,440.4848484848485 421.4141414141414,450.02020202020196 430.949494949495,459.5555555555555 440.4848484848485,469.09090909090907 450.0202020202021,478.6262626262626 459.55555555555554,488.16161616161617 469.09090909090907,497.69696969696963 478.62626262626264,507.23232323232315 488.16161616161617,516.7676767676767 497.69696969696975,526.3030303030303 507.2323232323232,535.8383838383838 516.7676767676768,545.3737373737373 526.3030303030303,554.9090909090909 535.8383838383838,564.4444444444443 545.3737373737374,573.9797979797979 554.9090909090909,583.5151515151515 564.4444444444445,593.050505050505 573.9797979797979,602.5858585858585 583.5151515151515,612.121212121212 593.0505050505051,621.6565656565656 602.5858585858585,631.1919191919192 612.1212121212121,640.7272727272726 621.6565656565656,650.2626262626262 631.1919191919192,659.7979797979797 640.7272727272727,669.3333333333333 650.2626262626262,678.8686868686868 659.7979797979798,688.4040404040403 669.3333333333333,697.9393939393938 678.8686868686868,707.4747474747473 688.4040404040404,717.0101010101009 697.9393939393939,726.5454545454545 707.4747474747475,736.080808080808 717.0101010101009,745.6161616161614 726.5454545454545,755.151515151515 736.0808080808081,764.6868686868686 745.6161616161615,774.2222222222222 755.1515151515151,783.7575757575756 764.6868686868686,793.2929292929291 774.2222222222222,802.8282828282827 783.7575757575758,812.3636363636363 793.2929292929292,821.8989898989897 802.8282828282828,831.4343434343432 812.3636363636363,840.9696969696968 821.8989898989898,850.5050505050503 831.4343434343433,860.0404040404039 840.969696969697,869.5757575757574 850.5050505050505,879.1111111111109 860.0404040404039,888.6464646464644 869.5757575757575,898.181818181818 879.111111111111,907.7171717171716 888.6464646464647,907.7171717171716 898.181818181818,907.7171717171716 907.7171717171716,907.7171717171716 917.2525252525251,907.7171717171716 926.7878787878785,907.7171717171716 936.3232323232323,907.7171717171716 945.8585858585857,907.7171717171716 955.3939393939393,907.7171717171716 964.9292929292927,907.7171717171716 974.4646464646464,907.7171717171716 984,907.7171717171716" fill="none" stroke="rgba(255,0,0,0.75)" stroke-width="11.327999999999996"/></g><g><polyline data-points="5.000000000000002,3.5858585858585874 4.898989898989901,3.4848484848484866 4.7979797979797985,3.383838383838384 4.696969696969697,3.2828282828282833 4.595959595959597,3.181818181818183 4.494949494949497,3.080808080808082 4.393939393939394,2.9797979797979806 4.292929292929293,2.87878787878788 4.191919191919193,2.7777777777777786 4.090909090909092,2.676767676767678 3.989898989898992,2.575757575757577 3.8888888888888893,2.4747474747474754 3.7878787878787885,2.373737373737375 3.6868686868686877,2.2727272727272734 3.5858585858585874,2.1717171717171726 3.4848484848484866,2.070707070707072 3.383838383838384,1.9696969696969702 3.2828282828282833,1.8686868686868696 3.181818181818183,1.767676767676768 3.080808080808082,1.6666666666666674 2.9797979797979806,1.5656565656565666 2.87878787878788,1.4646464646464652 2.7777777777777786,1.3636363636363644 2.676767676767678,1.262626262626263 2.575757575757577,1.1616161616161622 2.4747474747474754,1.0606060606060617 2.373737373737375,0.9595959595959602 2.2727272727272734,0.8585858585858596 2.1717171717171726,0.7575757575757579 2.070707070707072,0.6565656565656574 1.9696969696969702,0.5555555555555567 1.8686868686868696,0.4545454545454551 1.767676767676768,0.3535353535353544 1.6666666666666674,0.2525252525252529 1.5656565656565666,0.1515151515151522 1.4646464646464652,0.050505050505051545 1.3636363636363644,-0.05050505050505001 1.262626262626263,-0.15151515151515066 1.1616161616161622,-0.2525252525252522 1.0606060606060617,-0.35353535353535287 0.9595959595959602,-0.4545454545454544 0.8585858585858596,-0.555555555555555" data-type="line" data-label="" points="984,173.49494949494948 974.4646464646464,183.030303030303 964.9292929292927,192.56565656565664 955.3939393939393,202.10101010101016 945.8585858585857,211.63636363636363 936.3232323232323,221.17171717171715 926.7878787878785,230.70707070707073 917.2525252525251,240.24242424242425 907.7171717171716,249.77777777777783 898.181818181818,259.3131313131313 888.6464646464647,268.8484848484848 879.111111111111,278.38383838383845 869.5757575757575,287.9191919191919 860.0404040404039,297.4545454545455 850.5050505050505,306.98989898989896 840.969696969697,316.5252525252525 831.4343434343433,326.0606060606061 821.8989898989898,335.5959595959596 812.3636363636363,345.13131313131316 802.8282828282828,354.66666666666663 793.2929292929292,364.2020202020202 783.7575757575758,373.73737373737373 774.2222222222222,383.27272727272725 764.6868686868686,392.80808080808083 755.1515151515151,402.3434343434343 745.6161616161615,411.8787878787878 736.0808080808081,421.4141414141414 726.5454545454545,430.9494949494949 717.0101010101009,440.4848484848485 707.4747474747475,450.02020202020196 697.9393939393939,459.5555555555555 688.4040404040404,469.09090909090907 678.8686868686868,478.6262626262626 669.3333333333333,488.16161616161617 659.7979797979798,497.69696969696963 650.2626262626262,507.23232323232315 640.7272727272727,516.7676767676767 631.1919191919192,526.3030303030303 621.6565656565656,535.8383838383838 612.1212121212121,545.3737373737373 602.5858585858585,554.9090909090909 593.0505050505051,564.4444444444443" fill="none" stroke="rgba(255,0,0,0.75)" stroke-width="11.327999999999996"/></g><g><polyline data-points="0.8585858585858596,-0.555555555555555 0.7575757575757579,-0.6565656565656557 0.6565656565656574,-0.6565656565656557 0.5555555555555567,-0.6565656565656557 0.4545454545454551,-0.6565656565656557 0.3535353535353544,-0.6565656565656557 0.2525252525252529,-0.6565656565656557 0.1515151515151522,-0.6565656565656557 0.050505050505051545,-0.6565656565656557 -0.05050505050505001,-0.6565656565656557 -0.15151515151515066,-0.6565656565656557 -0.2525252525252522,-0.6565656565656557 -0.35353535353535287,-0.6565656565656557 -0.4545454545454544,-0.6565656565656557 -0.555555555555555,-0.6565656565656557 -0.6565656565656557,-0.6565656565656557 -0.7575757575757572,-0.6565656565656557 -0.8585858585858579,-0.6565656565656557 -0.9595959595959596,-0.6565656565656557 -1.0606060606060603,-0.6565656565656557 -1.1616161616161613,-0.6565656565656557 -1.2626262626262625,-0.6565656565656557 -1.363636363636363,-0.6565656565656557 -1.4646464646464643,-0.6565656565656557 -1.5656565656565653,-0.6565656565656557 -1.6666666666666665,-0.6565656565656557 -1.7676767676767675,-0.6565656565656557 -1.8686868686868683,-0.6565656565656557 -1.9696969696969693,-0.6565656565656557 -2.07070707070707,-0.6565656565656557 -2.1717171717171713,-0.6565656565656557 -2.2727272727272725,-0.6565656565656557 -2.3737373737373733,-0.6565656565656557 -2.474747474747474,-0.6565656565656557 -2.5757575757575752,-0.6565656565656557 -2.6767676767676765,-0.6565656565656557 -2.7777777777777777,-0.6565656565656557 -2.8787878787878785,-0.6565656565656557 -2.9797979797979792,-0.6565656565656557 -3.0808080808080804,-0.6565656565656557 -3.1818181818181817,-0.6565656565656557 -3.2828282828282824,-0.6565656565656557 -3.383838383838383,-0.6565656565656557 -3.484848484848485,-0.6565656565656557 -3.5858585858585856,-0.6565656565656557 -3.6868686868686864,-0.6565656565656557 -3.7878787878787876,-0.6565656565656557 -3.8888888888888884,-0.6565656565656557 -3.98989898989899,-0.6565656565656557" data-type="line" data-label="" points="593.0505050505051,564.4444444444443 583.5151515151515,573.9797979797979 573.9797979797979,573.9797979797979 564.4444444444445,573.9797979797979 554.9090909090909,573.9797979797979 545.3737373737374,573.9797979797979 535.8383838383838,573.9797979797979 526.3030303030303,573.9797979797979 516.7676767676768,573.9797979797979 507.2323232323232,573.9797979797979 497.69696969696975,573.9797979797979 488.16161616161617,573.9797979797979 478.62626262626264,573.9797979797979 469.09090909090907,573.9797979797979 459.55555555555554,573.9797979797979 450.0202020202021,573.9797979797979 440.4848484848485,573.9797979797979 430.949494949495,573.9797979797979 421.4141414141414,573.9797979797979 411.8787878787879,573.9797979797979 402.34343434343435,573.9797979797979 392.80808080808083,573.9797979797979 383.2727272727273,573.9797979797979 373.7373737373738,573.9797979797979 364.2020202020202,573.9797979797979 354.6666666666667,573.9797979797979 345.13131313131316,573.9797979797979 335.59595959595964,573.9797979797979 326.0606060606061,573.9797979797979 316.5252525252526,573.9797979797979 306.9898989898991,573.9797979797979 297.4545454545455,573.9797979797979 287.91919191919203,573.9797979797979 278.38383838383845,573.9797979797979 268.84848484848493,573.9797979797979 259.3131313131314,573.9797979797979 249.77777777777783,573.9797979797979 240.2424242424243,573.9797979797979 230.70707070707084,573.9797979797979 221.17171717171726,573.9797979797979 211.63636363636374,573.9797979797979 202.10101010101022,573.9797979797979 192.5656565656567,573.9797979797979 183.03030303030312,573.9797979797979 173.4949494949496,573.9797979797979 163.95959595959607,573.9797979797979 154.42424242424255,573.9797979797979 144.88888888888903,573.9797979797979 135.35353535353545,573.9797979797979" fill="none" stroke="rgba(0,0,255,0.75)" stroke-width="11.327999999999996"/></g><g><polyline data-points="-3.98989898989899,-0.6565656565656557 -4.090909090909091,-0.6565656565656557 -4.191919191919193,-0.6565656565656557 -4.292929292929293,-0.6565656565656557 -4.393939393939394,-0.6565656565656557 -4.494949494949496,-0.6565656565656557 -4.595959595959596,-0.6565656565656557 -4.696969696969697,-0.6565656565656557 -4.7979797979797985,-0.6565656565656557 -4.898989898989899,-0.6565656565656557 -5.000000000000001,-0.6565656565656557" data-type="line" data-label="" points="135.35353535353545,573.9797979797979 125.81818181818193,573.9797979797979 116.28282828282829,573.9797979797979 106.74747474747483,573.9797979797979 97.21212121212136,573.9797979797979 87.67676767676772,573.9797979797979 78.14141414141426,573.9797979797979 68.60606060606068,573.9797979797979 59.07070707070716,573.9797979797979 49.53535353535369,573.9797979797979 40.00000000000006,573.9797979797979" fill="none" stroke="rgba(255,0,0,0.75)" stroke-width="11.327999999999996"/></g><g><polyline data-points="-5.000000000000001,-0.2525252525252522 -4.898989898989899,-0.35353535353535287 -4.7979797979797985,-0.4545454545454544 -4.696969696969697,-0.555555555555555 -4.595959595959596,-0.6565656565656557 -4.494949494949496,-0.7575757575757572 -4.393939393939394,-0.8585858585858579 -4.292929292929293,-0.9595959595959596 -4.191919191919193,-1.0606060606060603 -4.090909090909091,-1.1616161616161613 -3.98989898989899,-1.2626262626262625 -3.8888888888888884,-1.363636363636363 -3.7878787878787876,-1.4646464646464643 -3.6868686868686864,-1.5656565656565653 -3.5858585858585856,-1.6666666666666665 -3.484848484848485,-1.7676767676767675 -3.383838383838383,-1.8686868686868683 -3.2828282828282824,-1.9696969696969693 -3.1818181818181817,-2.07070707070707 -3.0808080808080804,-2.1717171717171713 -2.9797979797979792,-2.2727272727272725 -2.8787878787878785,-2.3737373737373733 -2.7777777777777777,-2.474747474747474 -2.6767676767676765,-2.5757575757575752 -2.5757575757575752,-2.6767676767676765 -2.474747474747474,-2.7777777777777777 -2.3737373737373733,-2.8787878787878785 -2.2727272727272725,-2.9797979797979792 -2.1717171717171713,-3.0808080808080804 -2.07070707070707,-3.1818181818181817 -1.9696969696969693,-3.2828282828282824 -1.8686868686868683,-3.383838383838383 -1.7676767676767675,-3.484848484848485 -1.6666666666666665,-3.5858585858585856 -1.5656565656565653,-3.6868686868686864 -1.4646464646464643,-3.7878787878787876 -1.363636363636363,-3.7878787878787876 -1.2626262626262625,-3.7878787878787876 -1.1616161616161613,-3.7878787878787876 -1.0606060606060603,-3.7878787878787876 -0.9595959595959596,-3.7878787878787876 -0.8585858585858579,-3.7878787878787876 -0.7575757575757572,-3.7878787878787876 -0.6565656565656557,-3.7878787878787876 -0.555555555555555,-3.7878787878787876 -0.4545454545454544,-3.7878787878787876 -0.35353535353535287,-3.7878787878787876 -0.2525252525252522,-3.7878787878787876 -0.15151515151515066,-3.7878787878787876 -0.05050505050505001,-3.7878787878787876 0.050505050505051545,-3.7878787878787876 0.1515151515151522,-3.7878787878787876 0.2525252525252529,-3.7878787878787876 0.3535353535353544,-3.7878787878787876 0.4545454545454551,-3.7878787878787876 0.5555555555555567,-3.7878787878787876 0.6565656565656574,-3.7878787878787876 0.7575757575757579,-3.7878787878787876 0.8585858585858596,-3.7878787878787876 0.9595959595959602,-3.7878787878787876 1.0606060606060617,-3.7878787878787876 1.1616161616161622,-3.7878787878787876 1.262626262626263,-3.7878787878787876 1.3636363636363644,-3.7878787878787876 1.4646464646464652,-3.7878787878787876 1.5656565656565666,-3.7878787878787876 1.6666666666666674,-3.7878787878787876 1.767676767676768,-3.7878787878787876 1.8686868686868696,-3.7878787878787876 1.9696969696969702,-3.7878787878787876 2.070707070707072,-3.7878787878787876 2.1717171717171726,-3.7878787878787876 2.2727272727272734,-3.7878787878787876 2.373737373737375,-3.7878787878787876 2.4747474747474754,-3.7878787878787876 2.575757575757577,-3.7878787878787876 2.676767676767678,-3.7878787878787876 2.7777777777777786,-3.7878787878787876 2.87878787878788,-3.7878787878787876 2.9797979797979806,-3.7878787878787876 3.080808080808082,-3.7878787878787876 3.181818181818183,-3.7878787878787876 3.2828282828282833,-3.7878787878787876 3.383838383838384,-3.7878787878787876 3.4848484848484866,-3.7878787878787876 3.5858585858585874,-3.7878787878787876 3.6868686868686877,-3.7878787878787876 3.7878787878787885,-3.7878787878787876 3.8888888888888893,-3.7878787878787876 3.989898989898992,-3.7878787878787876" data-type="line" data-label="" points="40.00000000000006,535.8383838383838 49.53535353535369,545.3737373737373 59.07070707070716,554.9090909090909 68.60606060606068,564.4444444444443 78.14141414141426,573.9797979797979 87.67676767676772,583.5151515151515 97.21212121212136,593.050505050505 106.74747474747483,602.5858585858585 116.28282828282829,612.121212121212 125.81818181818193,621.6565656565656 135.35353535353545,631.1919191919192 144.88888888888903,640.7272727272726 154.42424242424255,650.2626262626262 163.95959595959607,659.7979797979797 173.4949494949496,669.3333333333333 183.03030303030312,678.8686868686868 192.5656565656567,688.4040404040403 202.10101010101022,697.9393939393938 211.63636363636374,707.4747474747473 221.17171717171726,717.0101010101009 230.70707070707084,726.5454545454545 240.2424242424243,736.080808080808 249.77777777777783,745.6161616161614 259.3131313131314,755.151515151515 268.84848484848493,764.6868686868686 278.38383838383845,774.2222222222222 287.91919191919203,783.7575757575756 297.4545454545455,793.2929292929291 306.9898989898991,802.8282828282827 316.5252525252526,812.3636363636363 326.0606060606061,821.8989898989897 335.59595959595964,831.4343434343432 345.13131313131316,840.9696969696968 354.6666666666667,850.5050505050503 364.2020202020202,860.0404040404039 373.7373737373738,869.5757575757574 383.2727272727273,869.5757575757574 392.80808080808083,869.5757575757574 402.34343434343435,869.5757575757574 411.8787878787879,869.5757575757574 421.4141414141414,869.5757575757574 430.949494949495,869.5757575757574 440.4848484848485,869.5757575757574 450.0202020202021,869.5757575757574 459.55555555555554,869.5757575757574 469.09090909090907,869.5757575757574 478.62626262626264,869.5757575757574 488.16161616161617,869.5757575757574 497.69696969696975,869.5757575757574 507.2323232323232,869.5757575757574 516.7676767676768,869.5757575757574 526.3030303030303,869.5757575757574 535.8383838383838,869.5757575757574 545.3737373737374,869.5757575757574 554.9090909090909,869.5757575757574 564.4444444444445,869.5757575757574 573.9797979797979,869.5757575757574 583.5151515151515,869.5757575757574 593.0505050505051,869.5757575757574 602.5858585858585,869.5757575757574 612.1212121212121,869.5757575757574 621.6565656565656,869.5757575757574 631.1919191919192,869.5757575757574 640.7272727272727,869.5757575757574 650.2626262626262,869.5757575757574 659.7979797979798,869.5757575757574 669.3333333333333,869.5757575757574 678.8686868686868,869.5757575757574 688.4040404040404,869.5757575757574 697.9393939393939,869.5757575757574 707.4747474747475,869.5757575757574 717.0101010101009,869.5757575757574 726.5454545454545,869.5757575757574 736.0808080808081,869.5757575757574 745.6161616161615,869.5757575757574 755.1515151515151,869.5757575757574 764.6868686868686,869.5757575757574 774.2222222222222,869.5757575757574 783.7575757575758,869.5757575757574 793.2929292929292,869.5757575757574 802.8282828282828,869.5757575757574 812.3636363636363,869.5757575757574 821.8989898989898,869.5757575757574 831.4343434343433,869.5757575757574 840.969696969697,869.5757575757574 850.5050505050505,869.5757575757574 860.0404040404039,869.5757575757574 869.5757575757575,869.5757575757574 879.111111111111,869.5757575757574 888.6464646464647,869.5757575757574" fill="none" stroke="rgba(0,0,255,0.75)" stroke-width="11.327999999999996"/></g><g><polyline data-points="3.989898989898992,-3.7878787878787876 4.090909090909092,-3.7878787878787876 4.191919191919193,-3.7878787878787876 4.292929292929293,-3.7878787878787876 4.393939393939394,-3.7878787878787876 4.494949494949497,-3.7878787878787876 4.595959595959597,-3.7878787878787876 4.696969696969697,-3.7878787878787876 4.7979797979797985,-3.7878787878787876 4.898989898989901,-3.7878787878787876 5.000000000000002,-3.7878787878787876" data-type="line" data-label="" points="888.6464646464647,869.5757575757574 898.181818181818,869.5757575757574 907.7171717171716,869.5757575757574 917.2525252525251,869.5757575757574 926.7878787878785,869.5757575757574 936.3232323232323,869.5757575757574 945.8585858585857,869.5757575757574 955.3939393939393,869.5757575757574 964.9292929292927,869.5757575757574 974.4646464646464,869.5757575757574 984,869.5757575757574" fill="none" stroke="rgba(255,0,0,0.75)" stroke-width="11.327999999999996"/></g><g><polyline data-points="-5.000000000000001,1.5656565656565666 -4.898989898989899,1.6666666666666674 -4.7979797979797985,1.767676767676768 -4.696969696969697,1.8686868686868696 -4.595959595959596,1.9696969696969702 -4.494949494949496,2.070707070707072 -4.393939393939394,2.1717171717171726 -4.292929292929293,2.2727272727272734 -4.191919191919193,2.373737373737375 -4.090909090909091,2.373737373737375 -3.98989898989899,2.373737373737375 -3.8888888888888884,2.373737373737375 -3.7878787878787876,2.373737373737375 -3.6868686868686864,2.373737373737375 -3.5858585858585856,2.373737373737375 -3.484848484848485,2.373737373737375 -3.383838383838383,2.373737373737375 -3.2828282828282824,2.373737373737375 -3.1818181818181817,2.373737373737375" data-type="line" data-label="" points="40.00000000000006,364.2020202020202 49.53535353535369,354.66666666666663 59.07070707070716,345.13131313131316 68.60606060606068,335.5959595959596 78.14141414141426,326.0606060606061 87.67676767676772,316.5252525252525 97.21212121212136,306.98989898989896 106.74747474747483,297.4545454545455 116.28282828282829,287.9191919191919 125.81818181818193,287.9191919191919 135.35353535353545,287.9191919191919 144.88888888888903,287.9191919191919 154.42424242424255,287.9191919191919 163.95959595959607,287.9191919191919 173.4949494949496,287.9191919191919 183.03030303030312,287.9191919191919 192.5656565656567,287.9191919191919 202.10101010101022,287.9191919191919 211.63636363636374,287.9191919191919" fill="none" stroke="rgba(255,0,0,0.75)" stroke-width="11.327999999999996"/></g><g><polyline data-points="-3.1818181818181817,2.373737373737375 -3.0808080808080804,2.373737373737375 -2.9797979797979792,2.373737373737375 -2.8787878787878785,2.373737373737375 -2.7777777777777777,2.373737373737375 -2.6767676767676765,2.373737373737375 -2.5757575757575752,2.373737373737375 -2.474747474747474,2.373737373737375 -2.3737373737373733,2.373737373737375 -2.2727272727272725,2.373737373737375 -2.1717171717171713,2.373737373737375 -2.07070707070707,2.373737373737375 -1.9696969696969693,2.373737373737375 -1.8686868686868683,2.373737373737375 -1.7676767676767675,2.373737373737375 -1.6666666666666665,2.373737373737375 -1.5656565656565653,2.373737373737375 -1.4646464646464643,2.373737373737375 -1.363636363636363,2.373737373737375 -1.2626262626262625,2.373737373737375 -1.1616161616161613,2.373737373737375 -1.0606060606060603,2.373737373737375 -0.9595959595959596,2.373737373737375 -0.8585858585858579,2.373737373737375 -0.7575757575757572,2.373737373737375 -0.6565656565656557,2.373737373737375 -0.555555555555555,2.373737373737375 -0.4545454545454544,2.373737373737375 -0.35353535353535287,2.373737373737375 -0.2525252525252522,2.373737373737375 -0.15151515151515066,2.373737373737375 -0.05050505050505001,2.373737373737375 0.050505050505051545,2.373737373737375 0.1515151515151522,2.373737373737375 0.2525252525252529,2.373737373737375 0.3535353535353544,2.373737373737375 0.4545454545454551,2.373737373737375 0.5555555555555567,2.373737373737375 0.6565656565656574,2.373737373737375 0.7575757575757579,2.373737373737375 0.8585858585858596,2.373737373737375 0.9595959595959602,2.373737373737375 1.0606060606060617,2.373737373737375 1.1616161616161622,2.373737373737375 1.262626262626263,2.373737373737375 1.3636363636363644,2.373737373737375 1.4646464646464652,2.373737373737375 1.5656565656565666,2.373737373737375 1.6666666666666674,2.373737373737375 1.767676767676768,2.373737373737375 1.8686868686868696,2.373737373737375 1.9696969696969702,2.373737373737375 2.070707070707072,2.373737373737375 2.1717171717171726,2.373737373737375 2.2727272727272734,2.373737373737375 2.373737373737375,2.373737373737375 2.4747474747474754,2.373737373737375 2.575757575757577,2.373737373737375 2.676767676767678,2.373737373737375 2.7777777777777786,2.373737373737375 2.87878787878788,2.373737373737375 2.9797979797979806,2.373737373737375 3.080808080808082,2.373737373737375 3.181818181818183,2.373737373737375 3.2828282828282833,2.373737373737375 3.383838383838384,2.373737373737375 3.4848484848484866,2.373737373737375 3.5858585858585874,2.373737373737375 3.6868686868686877,2.373737373737375 3.7878787878787885,2.373737373737375 3.8888888888888893,2.373737373737375 3.989898989898992,2.373737373737375 4.090909090909092,2.373737373737375 4.191919191919193,2.373737373737375 4.292929292929293,2.373737373737375 4.393939393939394,2.373737373737375 4.494949494949497,2.373737373737375 4.595959595959597,2.373737373737375 4.696969696969697,2.373737373737375 4.7979797979797985,2.373737373737375 4.898989898989901,2.373737373737375 5.000000000000002,2.373737373737375" data-type="line" data-label="" points="211.63636363636374,287.9191919191919 221.17171717171726,287.9191919191919 230.70707070707084,287.9191919191919 240.2424242424243,287.9191919191919 249.77777777777783,287.9191919191919 259.3131313131314,287.9191919191919 268.84848484848493,287.9191919191919 278.38383838383845,287.9191919191919 287.91919191919203,287.9191919191919 297.4545454545455,287.9191919191919 306.9898989898991,287.9191919191919 316.5252525252526,287.9191919191919 326.0606060606061,287.9191919191919 335.59595959595964,287.9191919191919 345.13131313131316,287.9191919191919 354.6666666666667,287.9191919191919 364.2020202020202,287.9191919191919 373.7373737373738,287.9191919191919 383.2727272727273,287.9191919191919 392.80808080808083,287.9191919191919 402.34343434343435,287.9191919191919 411.8787878787879,287.9191919191919 421.4141414141414,287.9191919191919 430.949494949495,287.9191919191919 440.4848484848485,287.9191919191919 450.0202020202021,287.9191919191919 459.55555555555554,287.9191919191919 469.09090909090907,287.9191919191919 478.62626262626264,287.9191919191919 488.16161616161617,287.9191919191919 497.69696969696975,287.9191919191919 507.2323232323232,287.9191919191919 516.7676767676768,287.9191919191919 526.3030303030303,287.9191919191919 535.8383838383838,287.9191919191919 545.3737373737374,287.9191919191919 554.9090909090909,287.9191919191919 564.4444444444445,287.9191919191919 573.9797979797979,287.9191919191919 583.5151515151515,287.9191919191919 593.0505050505051,287.9191919191919 602.5858585858585,287.9191919191919 612.1212121212121,287.9191919191919 621.6565656565656,287.9191919191919 631.1919191919192,287.9191919191919 640.7272727272727,287.9191919191919 650.2626262626262,287.9191919191919 659.7979797979798,287.9191919191919 669.3333333333333,287.9191919191919 678.8686868686868,287.9191919191919 688.4040404040404,287.9191919191919 697.9393939393939,287.9191919191919 707.4747474747475,287.9191919191919 717.0101010101009,287.9191919191919 726.5454545454545,287.9191919191919 736.0808080808081,287.9191919191919 745.6161616161615,287.9191919191919 755.1515151515151,287.9191919191919 764.6868686868686,287.9191919191919 774.2222222222222,287.9191919191919 783.7575757575758,287.9191919191919 793.2929292929292,287.9191919191919 802.8282828282828,287.9191919191919 812.3636363636363,287.9191919191919 821.8989898989898,287.9191919191919 831.4343434343433,287.9191919191919 840.969696969697,287.9191919191919 850.5050505050505,287.9191919191919 860.0404040404039,287.9191919191919 869.5757575757575,287.9191919191919 879.111111111111,287.9191919191919 888.6464646464647,287.9191919191919 898.181818181818,287.9191919191919 907.7171717171716,287.9191919191919 917.2525252525251,287.9191919191919 926.7878787878785,287.9191919191919 936.3232323232323,287.9191919191919 945.8585858585857,287.9191919191919 955.3939393939393,287.9191919191919 964.9292929292927,287.9191919191919 974.4646464646464,287.9191919191919 984,287.9191919191919" fill="none" stroke="rgba(0,0,255,0.75)" stroke-width="11.327999999999996"/></g><g><polyline data-points="-5.000000000000001,-2.07070707070707 -4.898989898989899,-1.9696969696969693 -4.7979797979797985,-1.8686868686868683 -4.696969696969697,-1.7676767676767675 -4.595959595959596,-1.6666666666666665 -4.494949494949496,-1.5656565656565653 -4.393939393939394,-1.4646464646464643 -4.292929292929293,-1.363636363636363 -4.191919191919193,-1.2626262626262625 -4.090909090909091,-1.1616161616161613 -3.98989898989899,-1.0606060606060603 -3.8888888888888884,-0.9595959595959596 -3.7878787878787876,-0.8585858585858579 -3.6868686868686864,-0.7575757575757572 -3.5858585858585856,-0.6565656565656557 -3.484848484848485,-0.555555555555555 -3.383838383838383,-0.4545454545454544 -3.2828282828282824,-0.35353535353535287 -3.1818181818181817,-0.2525252525252522 -3.0808080808080804,-0.15151515151515066 -2.9797979797979792,-0.05050505050505001 -2.8787878787878785,0.050505050505051545 -2.7777777777777777,0.1515151515151522 -2.6767676767676765,0.2525252525252529 -2.5757575757575752,0.3535353535353544 -2.474747474747474,0.4545454545454551 -2.3737373737373733,0.5555555555555567 -2.2727272727272725,0.6565656565656574 -2.1717171717171713,0.7575757575757579 -2.07070707070707,0.8585858585858596 -1.9696969696969693,0.9595959595959602 -1.8686868686868683,1.0606060606060617" data-type="line" data-label="" points="40.00000000000006,707.4747474747473 49.53535353535369,697.9393939393938 59.07070707070716,688.4040404040403 68.60606060606068,678.8686868686868 78.14141414141426,669.3333333333333 87.67676767676772,659.7979797979797 97.21212121212136,650.2626262626262 106.74747474747483,640.7272727272726 116.28282828282829,631.1919191919192 125.81818181818193,621.6565656565656 135.35353535353545,612.121212121212 144.88888888888903,602.5858585858585 154.42424242424255,593.050505050505 163.95959595959607,583.5151515151515 173.4949494949496,573.9797979797979 183.03030303030312,564.4444444444443 192.5656565656567,554.9090909090909 202.10101010101022,545.3737373737373 211.63636363636374,535.8383838383838 221.17171717171726,526.3030303030303 230.70707070707084,516.7676767676767 240.2424242424243,507.23232323232315 249.77777777777783,497.69696969696963 259.3131313131314,488.16161616161617 268.84848484848493,478.6262626262626 278.38383838383845,469.09090909090907 287.91919191919203,459.5555555555555 297.4545454545455,450.02020202020196 306.9898989898991,440.4848484848485 316.5252525252526,430.9494949494949 326.0606060606061,421.4141414141414 335.59595959595964,411.8787878787878" fill="none" stroke="rgba(255,0,0,0.75)" stroke-width="11.327999999999996"/></g><g><polyline data-points="-1.8686868686868683,1.0606060606060617 -1.7676767676767675,1.1616161616161622 -1.6666666666666665,1.262626262626263 -1.5656565656565653,1.3636363636363644 -1.4646464646464643,1.4646464646464652 -1.363636363636363,1.5656565656565666 -1.2626262626262625,1.6666666666666674 -1.1616161616161613,1.767676767676768 -1.0606060606060603,1.8686868686868696 -0.9595959595959596,1.9696969696969702 -0.8585858585858579,1.9696969696969702 -0.7575757575757572,1.9696969696969702 -0.6565656565656557,1.9696969696969702 -0.555555555555555,1.9696969696969702 -0.4545454545454544,1.9696969696969702 -0.35353535353535287,1.9696969696969702 -0.2525252525252522,1.9696969696969702 -0.15151515151515066,1.9696969696969702 -0.05050505050505001,1.9696969696969702 0.050505050505051545,1.9696969696969702 0.1515151515151522,1.9696969696969702 0.2525252525252529,1.9696969696969702 0.3535353535353544,1.9696969696969702 0.4545454545454551,1.9696969696969702 0.5555555555555567,1.9696969696969702 0.6565656565656574,1.9696969696969702 0.7575757575757579,1.9696969696969702 0.8585858585858596,1.9696969696969702 0.9595959595959602,1.9696969696969702 1.0606060606060617,1.9696969696969702 1.1616161616161622,1.9696969696969702 1.262626262626263,1.9696969696969702 1.3636363636363644,1.9696969696969702 1.4646464646464652,1.9696969696969702 1.5656565656565666,1.9696969696969702 1.6666666666666674,1.9696969696969702 1.767676767676768,1.9696969696969702 1.8686868686868696,1.9696969696969702 1.9696969696969702,1.9696969696969702 2.070707070707072,1.9696969696969702 2.1717171717171726,1.9696969696969702 2.2727272727272734,1.9696969696969702 2.373737373737375,1.9696969696969702 2.4747474747474754,1.9696969696969702 2.575757575757577,1.9696969696969702" data-type="line" data-label="" points="335.59595959595964,411.8787878787878 345.13131313131316,402.3434343434343 354.6666666666667,392.80808080808083 364.2020202020202,383.27272727272725 373.7373737373738,373.73737373737373 383.2727272727273,364.2020202020202 392.80808080808083,354.66666666666663 402.34343434343435,345.13131313131316 411.8787878787879,335.5959595959596 421.4141414141414,326.0606060606061 430.949494949495,326.0606060606061 440.4848484848485,326.0606060606061 450.0202020202021,326.0606060606061 459.55555555555554,326.0606060606061 469.09090909090907,326.0606060606061 478.62626262626264,326.0606060606061 488.16161616161617,326.0606060606061 497.69696969696975,326.0606060606061 507.2323232323232,326.0606060606061 516.7676767676768,326.0606060606061 526.3030303030303,326.0606060606061 535.8383838383838,326.0606060606061 545.3737373737374,326.0606060606061 554.9090909090909,326.0606060606061 564.4444444444445,326.0606060606061 573.9797979797979,326.0606060606061 583.5151515151515,326.0606060606061 593.0505050505051,326.0606060606061 602.5858585858585,326.0606060606061 612.1212121212121,326.0606060606061 621.6565656565656,326.0606060606061 631.1919191919192,326.0606060606061 640.7272727272727,326.0606060606061 650.2626262626262,326.0606060606061 659.7979797979798,326.0606060606061 669.3333333333333,326.0606060606061 678.8686868686868,326.0606060606061 688.4040404040404,326.0606060606061 697.9393939393939,326.0606060606061 707.4747474747475,326.0606060606061 717.0101010101009,326.0606060606061 726.5454545454545,326.0606060606061 736.0808080808081,326.0606060606061 745.6161616161615,326.0606060606061 755.1515151515151,326.0606060606061" fill="none" stroke="rgba(0,0,255,0.75)" stroke-width="11.327999999999996"/></g><g><polyline data-points="2.575757575757577,1.9696969696969702 2.676767676767678,2.070707070707072 2.7777777777777786,2.1717171717171726 2.87878787878788,2.2727272727272734 2.9797979797979806,2.373737373737375 3.080808080808082,2.4747474747474754 3.181818181818183,2.575757575757577 3.2828282828282833,2.676767676767678 3.383838383838384,2.7777777777777786 3.4848484848484866,2.87878787878788 3.5858585858585874,2.9797979797979806 3.6868686868686877,3.080808080808082 3.7878787878787885,3.181818181818183 3.8888888888888893,3.2828282828282833 3.989898989898992,3.383838383838384 3.989898989898992,3.4848484848484866 3.989898989898992,3.5858585858585874 3.989898989898992,3.6868686868686877 3.989898989898992,3.7878787878787885" data-type="line" data-label="" points="755.1515151515151,326.0606060606061 764.6868686868686,316.5252525252525 774.2222222222222,306.98989898989896 783.7575757575758,297.4545454545455 793.2929292929292,287.9191919191919 802.8282828282828,278.38383838383845 812.3636363636363,268.8484848484848 821.8989898989898,259.3131313131313 831.4343434343433,249.77777777777783 840.969696969697,240.24242424242425 850.5050505050505,230.70707070707073 860.0404040404039,221.17171717171715 869.5757575757575,211.63636363636363 879.111111111111,202.10101010101016 888.6464646464647,192.56565656565664 888.6464646464647,183.030303030303 888.6464646464647,173.49494949494948 888.6464646464647,163.95959595959602 888.6464646464647,154.4242424242425" fill="none" stroke="rgba(255,0,0,0.75)" stroke-width="11.327999999999996"/></g><g><polyline data-points="3.989898989898992,3.7878787878787885 4.090909090909092,3.8888888888888893 4.191919191919193,3.8888888888888893 4.292929292929293,3.8888888888888893 4.393939393939394,3.8888888888888893 4.494949494949497,3.8888888888888893 4.595959595959597,3.8888888888888893 4.696969696969697,3.8888888888888893 4.7979797979797985,3.8888888888888893 4.898989898989901,3.8888888888888893 5.000000000000002,3.8888888888888893" data-type="line" data-label="" points="888.6464646464647,154.4242424242425 898.181818181818,144.88888888888897 907.7171717171716,144.88888888888897 917.2525252525251,144.88888888888897 926.7878787878785,144.88888888888897 936.3232323232323,144.88888888888897 945.8585858585857,144.88888888888897 955.3939393939393,144.88888888888897 964.9292929292927,144.88888888888897 974.4646464646464,144.88888888888897 984,144.88888888888897" fill="none" stroke="rgba(0,0,255,0.75)" stroke-width="11.327999999999996"/></g><g><polyline data-points="-5.000000000000001,-3.8888888888888884 -4.898989898989899,-3.98989898989899 -4.7979797979797985,-4.090909090909091 -4.696969696969697,-4.191919191919193 -4.595959595959596,-4.292929292929293 -4.494949494949496,-4.393939393939394 -4.393939393939394,-4.494949494949496 -4.292929292929293,-4.494949494949496 -4.191919191919193,-4.494949494949496 -4.090909090909091,-4.494949494949496 -3.98989898989899,-4.494949494949496 -3.8888888888888884,-4.494949494949496 -3.7878787878787876,-4.494949494949496 -3.6868686868686864,-4.494949494949496 -3.5858585858585856,-4.494949494949496 -3.484848484848485,-4.494949494949496 -3.383838383838383,-4.494949494949496 -3.2828282828282824,-4.494949494949496 -3.1818181818181817,-4.494949494949496 -3.0808080808080804,-4.494949494949496 -2.9797979797979792,-4.494949494949496 -2.8787878787878785,-4.494949494949496 -2.7777777777777777,-4.494949494949496 -2.6767676767676765,-4.494949494949496 -2.5757575757575752,-4.494949494949496 -2.474747474747474,-4.494949494949496 -2.3737373737373733,-4.494949494949496 -2.2727272727272725,-4.494949494949496 -2.1717171717171713,-4.494949494949496 -2.07070707070707,-4.494949494949496 -1.9696969696969693,-4.494949494949496 -1.8686868686868683,-4.494949494949496 -1.7676767676767675,-4.494949494949496 -1.6666666666666665,-4.494949494949496 -1.5656565656565653,-4.494949494949496 -1.4646464646464643,-4.494949494949496 -1.363636363636363,-4.494949494949496 -1.2626262626262625,-4.494949494949496 -1.1616161616161613,-4.494949494949496 -1.0606060606060603,-4.494949494949496 -0.9595959595959596,-4.494949494949496 -0.8585858585858579,-4.494949494949496 -0.7575757575757572,-4.494949494949496 -0.6565656565656557,-4.494949494949496 -0.555555555555555,-4.494949494949496 -0.4545454545454544,-4.494949494949496 -0.35353535353535287,-4.494949494949496 -0.2525252525252522,-4.494949494949496 -0.15151515151515066,-4.494949494949496 -0.05050505050505001,-4.494949494949496 0.050505050505051545,-4.494949494949496 0.1515151515151522,-4.494949494949496 0.2525252525252529,-4.494949494949496 0.3535353535353544,-4.494949494949496 0.4545454545454551,-4.494949494949496 0.5555555555555567,-4.494949494949496 0.6565656565656574,-4.494949494949496 0.7575757575757579,-4.494949494949496 0.8585858585858596,-4.494949494949496 0.9595959595959602,-4.494949494949496 1.0606060606060617,-4.494949494949496 1.1616161616161622,-4.494949494949496 1.262626262626263,-4.494949494949496 1.3636363636363644,-4.494949494949496 1.4646464646464652,-4.494949494949496 1.5656565656565666,-4.494949494949496 1.6666666666666674,-4.494949494949496 1.767676767676768,-4.494949494949496 1.8686868686868696,-4.494949494949496 1.9696969696969702,-4.494949494949496 2.070707070707072,-4.494949494949496 2.1717171717171726,-4.494949494949496 2.2727272727272734,-4.494949494949496 2.373737373737375,-4.494949494949496 2.4747474747474754,-4.494949494949496 2.575757575757577,-4.494949494949496 2.676767676767678,-4.494949494949496 2.7777777777777786,-4.494949494949496 2.87878787878788,-4.494949494949496 2.9797979797979806,-4.494949494949496 3.080808080808082,-4.494949494949496 3.181818181818183,-4.494949494949496 3.2828282828282833,-4.494949494949496 3.383838383838384,-4.494949494949496 3.4848484848484866,-4.494949494949496 3.5858585858585874,-4.494949494949496 3.6868686868686877,-4.494949494949496 3.7878787878787885,-4.494949494949496 3.8888888888888893,-4.494949494949496 3.989898989898992,-4.494949494949496 4.090909090909092,-4.494949494949496 4.191919191919193,-4.494949494949496 4.292929292929293,-4.494949494949496 4.393939393939394,-4.494949494949496 4.494949494949497,-4.494949494949496 4.595959595959597,-4.494949494949496 4.696969696969697,-4.494949494949496 4.7979797979797985,-4.494949494949496 4.898989898989901,-4.494949494949496 5.000000000000002,-4.494949494949496" data-type="line" data-label="" points="40.00000000000006,879.1111111111109 49.53535353535369,888.6464646464644 59.07070707070716,898.181818181818 68.60606060606068,907.7171717171716 78.14141414141426,917.2525252525252 87.67676767676772,926.7878787878785 97.21212121212136,936.3232323232322 106.74747474747483,936.3232323232322 116.28282828282829,936.3232323232322 125.81818181818193,936.3232323232322 135.35353535353545,936.3232323232322 144.88888888888903,936.3232323232322 154.42424242424255,936.3232323232322 163.95959595959607,936.3232323232322 173.4949494949496,936.3232323232322 183.03030303030312,936.3232323232322 192.5656565656567,936.3232323232322 202.10101010101022,936.3232323232322 211.63636363636374,936.3232323232322 221.17171717171726,936.3232323232322 230.70707070707084,936.3232323232322 240.2424242424243,936.3232323232322 249.77777777777783,936.3232323232322 259.3131313131314,936.3232323232322 268.84848484848493,936.3232323232322 278.38383838383845,936.3232323232322 287.91919191919203,936.3232323232322 297.4545454545455,936.3232323232322 306.9898989898991,936.3232323232322 316.5252525252526,936.3232323232322 326.0606060606061,936.3232323232322 335.59595959595964,936.3232323232322 345.13131313131316,936.3232323232322 354.6666666666667,936.3232323232322 364.2020202020202,936.3232323232322 373.7373737373738,936.3232323232322 383.2727272727273,936.3232323232322 392.80808080808083,936.3232323232322 402.34343434343435,936.3232323232322 411.8787878787879,936.3232323232322 421.4141414141414,936.3232323232322 430.949494949495,936.3232323232322 440.4848484848485,936.3232323232322 450.0202020202021,936.3232323232322 459.55555555555554,936.3232323232322 469.09090909090907,936.3232323232322 478.62626262626264,936.3232323232322 488.16161616161617,936.3232323232322 497.69696969696975,936.3232323232322 507.2323232323232,936.3232323232322 516.7676767676768,936.3232323232322 526.3030303030303,936.3232323232322 535.8383838383838,936.3232323232322 545.3737373737374,936.3232323232322 554.9090909090909,936.3232323232322 564.4444444444445,936.3232323232322 573.9797979797979,936.3232323232322 583.5151515151515,936.3232323232322 593.0505050505051,936.3232323232322 602.5858585858585,936.3232323232322 612.1212121212121,936.3232323232322 621.6565656565656,936.3232323232322 631.1919191919192,936.3232323232322 640.7272727272727,936.3232323232322 650.2626262626262,936.3232323232322 659.7979797979798,936.3232323232322 669.3333333333333,936.3232323232322 678.8686868686868,936.3232323232322 688.4040404040404,936.3232323232322 697.9393939393939,936.3232323232322 707.4747474747475,936.3232323232322 717.0101010101009,936.3232323232322 726.5454545454545,936.3232323232322 736.0808080808081,936.3232323232322 745.6161616161615,936.3232323232322 755.1515151515151,936.3232323232322 764.6868686868686,936.3232323232322 774.2222222222222,936.3232323232322 783.7575757575758,936.3232323232322 793.2929292929292,936.3232323232322 802.8282828282828,936.3232323232322 812.3636363636363,936.3232323232322 821.8989898989898,936.3232323232322 831.4343434343433,936.3232323232322 840.969696969697,936.3232323232322 850.5050505050505,936.3232323232322 860.0404040404039,936.3232323232322 869.5757575757575,936.3232323232322 879.111111111111,936.3232323232322 888.6464646464647,936.3232323232322 898.181818181818,936.3232323232322 907.7171717171716,936.3232323232322 917.2525252525251,936.3232323232322 926.7878787878785,936.3232323232322 936.3232323232323,936.3232323232322 945.8585858585857,936.3232323232322 955.3939393939393,936.3232323232322 964.9292929292927,936.3232323232322 974.4646464646464,936.3232323232322 984,936.3232323232322" fill="none" stroke="rgba(0,0,255,0.75)" stroke-width="11.327999999999996"/></g><g><polyline data-points="5.000000000000002,-0.9595959595959596 4.898989898989901,-0.8585858585858579 4.7979797979797985,-0.7575757575757572 4.696969696969697,-0.6565656565656557 4.595959595959597,-0.555555555555555 4.494949494949497,-0.4545454545454544 4.393939393939394,-0.35353535353535287 4.292929292929293,-0.2525252525252522 4.191919191919193,-0.15151515151515066 4.090909090909092,-0.05050505050505001 3.989898989898992,0.050505050505051545 3.8888888888888893,0.1515151515151522 3.7878787878787885,0.2525252525252529 3.6868686868686877,0.3535353535353544 3.5858585858585874,0.4545454545454551 3.4848484848484866,0.5555555555555567 3.383838383838384,0.6565656565656574 3.2828282828282833,0.7575757575757579 3.181818181818183,0.8585858585858596 3.080808080808082,0.9595959595959602 2.9797979797979806,1.0606060606060617" data-type="line" data-label="" points="984,602.5858585858585 974.4646464646464,593.050505050505 964.9292929292927,583.5151515151515 955.3939393939393,573.9797979797979 945.8585858585857,564.4444444444443 936.3232323232323,554.9090909090909 926.7878787878785,545.3737373737373 917.2525252525251,535.8383838383838 907.7171717171716,526.3030303030303 898.181818181818,516.7676767676767 888.6464646464647,507.23232323232315 879.111111111111,497.69696969696963 869.5757575757575,488.16161616161617 860.0404040404039,478.6262626262626 850.5050505050505,469.09090909090907 840.969696969697,459.5555555555555 831.4343434343433,450.02020202020196 821.8989898989898,440.4848484848485 812.3636363636363,430.9494949494949 802.8282828282828,421.4141414141414 793.2929292929292,411.8787878787878" fill="none" stroke="rgba(255,0,0,0.75)" stroke-width="11.327999999999996"/></g><g><polyline data-points="2.9797979797979806,1.0606060606060617 2.87878787878788,1.1616161616161622 2.7777777777777786,1.262626262626263 2.676767676767678,1.3636363636363644 2.575757575757577,1.4646464646464652 2.4747474747474754,1.5656565656565666 2.373737373737375,1.5656565656565666 2.2727272727272734,1.5656565656565666 2.1717171717171726,1.5656565656565666 2.070707070707072,1.5656565656565666 1.9696969696969702,1.5656565656565666 1.8686868686868696,1.5656565656565666 1.767676767676768,1.5656565656565666 1.6666666666666674,1.5656565656565666 1.5656565656565666,1.5656565656565666 1.4646464646464652,1.5656565656565666 1.3636363636363644,1.5656565656565666 1.262626262626263,1.5656565656565666 1.1616161616161622,1.5656565656565666 1.0606060606060617,1.5656565656565666 0.9595959595959602,1.5656565656565666 0.8585858585858596,1.5656565656565666 0.7575757575757579,1.5656565656565666 0.6565656565656574,1.5656565656565666 0.5555555555555567,1.5656565656565666 0.4545454545454551,1.5656565656565666 0.3535353535353544,1.5656565656565666 0.2525252525252529,1.5656565656565666 0.1515151515151522,1.5656565656565666 0.050505050505051545,1.5656565656565666 -0.05050505050505001,1.5656565656565666 -0.15151515151515066,1.5656565656565666 -0.2525252525252522,1.5656565656565666 -0.35353535353535287,1.5656565656565666 -0.4545454545454544,1.5656565656565666 -0.555555555555555,1.5656565656565666 -0.6565656565656557,1.5656565656565666" data-type="line" data-label="" points="793.2929292929292,411.8787878787878 783.7575757575758,402.3434343434343 774.2222222222222,392.80808080808083 764.6868686868686,383.27272727272725 755.1515151515151,373.73737373737373 745.6161616161615,364.2020202020202 736.0808080808081,364.2020202020202 726.5454545454545,364.2020202020202 717.0101010101009,364.2020202020202 707.4747474747475,364.2020202020202 697.9393939393939,364.2020202020202 688.4040404040404,364.2020202020202 678.8686868686868,364.2020202020202 669.3333333333333,364.2020202020202 659.7979797979798,364.2020202020202 650.2626262626262,364.2020202020202 640.7272727272727,364.2020202020202 631.1919191919192,364.2020202020202 621.6565656565656,364.2020202020202 612.1212121212121,364.2020202020202 602.5858585858585,364.2020202020202 593.0505050505051,364.2020202020202 583.5151515151515,364.2020202020202 573.9797979797979,364.2020202020202 564.4444444444445,364.2020202020202 554.9090909090909,364.2020202020202 545.3737373737374,364.2020202020202 535.8383838383838,364.2020202020202 526.3030303030303,364.2020202020202 516.7676767676768,364.2020202020202 507.2323232323232,364.2020202020202 497.69696969696975,364.2020202020202 488.16161616161617,364.2020202020202 478.62626262626264,364.2020202020202 469.09090909090907,364.2020202020202 459.55555555555554,364.2020202020202 450.0202020202021,364.2020202020202" fill="none" stroke="rgba(0,0,255,0.75)" stroke-width="11.327999999999996"/></g><g><polyline data-points="-0.6565656565656557,1.5656565656565666 -0.7575757575757572,1.6666666666666674 -0.8585858585858579,1.767676767676768 -0.9595959595959596,1.8686868686868696 -1.0606060606060603,1.9696969696969702 -1.1616161616161613,1.9696969696969702 -1.2626262626262625,1.9696969696969702 -1.363636363636363,1.9696969696969702 -1.4646464646464643,1.9696969696969702 -1.5656565656565653,1.9696969696969702 -1.6666666666666665,1.9696969696969702" data-type="line" data-label="" points="450.0202020202021,364.2020202020202 440.4848484848485,354.66666666666663 430.949494949495,345.13131313131316 421.4141414141414,335.5959595959596 411.8787878787879,326.0606060606061 402.34343434343435,326.0606060606061 392.80808080808083,326.0606060606061 383.2727272727273,326.0606060606061 373.7373737373738,326.0606060606061 364.2020202020202,326.0606060606061 354.6666666666667,326.0606060606061" fill="none" stroke="rgba(255,0,0,0.75)" stroke-width="11.327999999999996"/></g><g><polyline data-points="-1.6666666666666665,1.9696969696969702 -1.7676767676767675,2.070707070707072 -1.8686868686868683,2.070707070707072 -1.9696969696969693,2.070707070707072 -2.07070707070707,2.070707070707072 -2.1717171717171713,2.070707070707072 -2.2727272727272725,2.070707070707072 -2.3737373737373733,2.070707070707072 -2.474747474747474,2.070707070707072 -2.5757575757575752,2.070707070707072 -2.6767676767676765,2.070707070707072 -2.7777777777777777,2.070707070707072 -2.8787878787878785,2.070707070707072 -2.9797979797979792,2.070707070707072 -3.0808080808080804,2.070707070707072 -3.1818181818181817,2.070707070707072 -3.2828282828282824,2.1717171717171726 -3.383838383838383,2.2727272727272734 -3.484848484848485,2.2727272727272734 -3.5858585858585856,2.2727272727272734 -3.6868686868686864,2.2727272727272734 -3.7878787878787876,2.2727272727272734 -3.8888888888888884,2.2727272727272734 -3.98989898989899,2.2727272727272734 -4.090909090909091,2.2727272727272734 -4.191919191919193,2.2727272727272734 -4.292929292929293,2.2727272727272734 -4.393939393939394,2.2727272727272734 -4.494949494949496,2.2727272727272734 -4.595959595959596,2.2727272727272734 -4.696969696969697,2.2727272727272734 -4.7979797979797985,2.2727272727272734 -4.898989898989899,2.2727272727272734 -5.000000000000001,2.2727272727272734" data-type="line" data-label="" points="354.6666666666667,326.0606060606061 345.13131313131316,316.5252525252525 335.59595959595964,316.5252525252525 326.0606060606061,316.5252525252525 316.5252525252526,316.5252525252525 306.9898989898991,316.5252525252525 297.4545454545455,316.5252525252525 287.91919191919203,316.5252525252525 278.38383838383845,316.5252525252525 268.84848484848493,316.5252525252525 259.3131313131314,316.5252525252525 249.77777777777783,316.5252525252525 240.2424242424243,316.5252525252525 230.70707070707084,316.5252525252525 221.17171717171726,316.5252525252525 211.63636363636374,316.5252525252525 202.10101010101022,306.98989898989896 192.5656565656567,297.4545454545455 183.03030303030312,297.4545454545455 173.4949494949496,297.4545454545455 163.95959595959607,297.4545454545455 154.42424242424255,297.4545454545455 144.88888888888903,297.4545454545455 135.35353535353545,297.4545454545455 125.81818181818193,297.4545454545455 116.28282828282829,297.4545454545455 106.74747474747483,297.4545454545455 97.21212121212136,297.4545454545455 87.67676767676772,297.4545454545455 78.14141414141426,297.4545454545455 68.60606060606068,297.4545454545455 59.07070707070716,297.4545454545455 49.53535353535369,297.4545454545455 40.00000000000006,297.4545454545455" fill="none" stroke="rgba(0,0,255,0.75)" stroke-width="11.327999999999996"/></g><g><polyline data-points="5.000000000000002,4.191919191919193 4.898989898989901,4.090909090909092 4.7979797979797985,4.090909090909092 4.696969696969697,4.090909090909092 4.595959595959597,4.090909090909092 4.494949494949497,4.090909090909092 4.393939393939394,4.090909090909092 4.292929292929293,4.090909090909092 4.191919191919193,4.090909090909092 4.090909090909092,4.090909090909092 3.989898989898992,4.090909090909092 3.8888888888888893,3.989898989898992 3.7878787878787885,3.8888888888888893 3.6868686868686877,3.7878787878787885 3.7878787878787885,3.6868686868686877 3.8888888888888893,3.5858585858585874 3.989898989898992,3.4848484848484866 4.090909090909092,3.4848484848484866 4.191919191919193,3.4848484848484866 4.292929292929293,3.4848484848484866 4.393939393939394,3.4848484848484866 4.494949494949497,3.4848484848484866 4.595959595959597,3.4848484848484866 4.696969696969697,3.4848484848484866 4.7979797979797985,3.4848484848484866 4.898989898989901,3.4848484848484866 5.000000000000002,3.4848484848484866" data-type="line" data-label="" points="984,116.28282828282835 974.4646464646464,125.81818181818187 964.9292929292927,125.81818181818187 955.3939393939393,125.81818181818187 945.8585858585857,125.81818181818187 936.3232323232323,125.81818181818187 926.7878787878785,125.81818181818187 917.2525252525251,125.81818181818187 907.7171717171716,125.81818181818187 898.181818181818,125.81818181818187 888.6464646464647,125.81818181818187 879.111111111111,135.35353535353534 869.5757575757575,144.88888888888897 860.0404040404039,154.4242424242425 869.5757575757575,163.95959595959602 879.111111111111,173.49494949494948 888.6464646464647,183.030303030303 898.181818181818,183.030303030303 907.7171717171716,183.030303030303 917.2525252525251,183.030303030303 926.7878787878785,183.030303030303 936.3232323232323,183.030303030303 945.8585858585857,183.030303030303 955.3939393939393,183.030303030303 964.9292929292927,183.030303030303 974.4646464646464,183.030303030303 984,183.030303030303" fill="none" stroke="rgba(0,0,255,0.75)" stroke-width="11.327999999999996"/></g><g><rect data-type="rect" data-label="" data-x="0" data-y="0" x="40.000000000000114" y="40.00000000000017" width="943.9999999999997" height="943.9999999999995" fill="none" stroke="gray" stroke-width="0.010593220338983056"/></g><g><rect data-type="rect" data-label="" data-x="0" data-y="0" x="40.000000000000114" y="40.00000000000017" width="943.9999999999997" height="943.9999999999995" fill="none" stroke="rgba(15, 23, 42, 0.8)" stroke-width="0.010593220338983056"/></g><circle data-type="circle" data-label="" data-x="0.8585858585858596" data-y="-0.555555555555555" cx="593.0505050505051" cy="564.4444444444443" r="14.159999999999995" fill="rgba(0,0,0,0.3)" stroke="black" stroke-width="0.010593220338983056"/><circle data-type="circle" data-label="" data-x="-3.98989898989899" data-y="-0.6565656565656557" cx="135.35353535353545" cy="573.9797979797979" r="14.159999999999995" fill="rgba(0,0,0,0.3)" stroke="black" stroke-width="0.010593220338983056"/><circle data-type="circle" data-label="" data-x="3.989898989898992" data-y="-3.7878787878787876" cx="888.6464646464647" cy="869.5757575757574" r="14.159999999999995" fill="rgba(0,0,0,0.3)" stroke="black" stroke-width="0.010593220338983056"/><circle data-type="circle" data-label="" data-x="-3.1818181818181817" data-y="2.373737373737375" cx="211.63636363636374" cy="287.9191919191919" r="14.159999999999995" fill="rgba(0,0,0,0.3)" stroke="black" stroke-width="0.010593220338983056"/><circle data-type="circle" data-label="" data-x="-1.8686868686868683" data-y="1.0606060606060617" cx="335.59595959595964" cy="411.8787878787878" r="14.159999999999995" fill="rgba(0,0,0,0.3)" stroke="black" stroke-width="0.010593220338983056"/><circle data-type="circle" data-label="" data-x="2.575757575757577" data-y="1.9696969696969702" cx="755.1515151515151" cy="326.0606060606061" r="14.159999999999995" fill="rgba(0,0,0,0.3)" stroke="black" stroke-width="0.010593220338983056"/><circle data-type="circle" data-label="" data-x="3.989898989898992" data-y="3.7878787878787885" cx="888.6464646464647" cy="154.4242424242425" r="14.159999999999995" fill="rgba(0,0,0,0.3)" stroke="black" stroke-width="0.010593220338983056"/><circle data-type="circle" data-label="" data-x="2.9797979797979806" data-y="1.0606060606060617" cx="793.2929292929292" cy="411.8787878787878" r="14.159999999999995" fill="rgba(0,0,0,0.3)" stroke="black" stroke-width="0.010593220338983056"/><circle data-type="circle" data-label="" data-x="-0.6565656565656557" data-y="1.5656565656565666" cx="450.0202020202021" cy="364.2020202020202" r="14.159999999999995" fill="rgba(0,0,0,0.3)" stroke="black" stroke-width="0.010593220338983056"/><circle data-type="circle" data-label="" data-x="-1.6666666666666665" data-y="1.9696969696969702" cx="354.6666666666667" cy="326.0606060606061" r="14.159999999999995" fill="rgba(0,0,0,0.3)" stroke="black" stroke-width="0.010593220338983056"/><g id="crosshair" style="display: none"><line id="crosshair-h" y1="0" y2="1024" stroke="#666" stroke-width="0.5"/><line id="crosshair-v" x1="0" x2="1024" stroke="#666" stroke-width="0.5"/><text id="coordinates" font-family="monospace" font-size="12" fill="#666"></text></g><script><![CDATA[
              document.currentScript.parentElement.addEventListener('mousemove', (e) => {
                const svg = e.currentTarget;
                const rect = svg.getBoundingClientRect();
                const x = e.clientX - rect.left;
                const y = e.clientY - rect.top;
                const crosshair = svg.getElementById('crosshair');
                const h = svg.getElementById('crosshair-h');
                const v = svg.getElementById('crosshair-v');
                const coords = svg.getElementById('coordinates');
                
                crosshair.style.display = 'block';
                h.setAttribute('x1', '0');
                h.setAttribute('x2', '1024');
                h.setAttribute('y1', y);
                h.setAttribute('y2', y);
                v.setAttribute('x1', x);
                v.setAttribute('x2', x);
                v.setAttribute('y1', '0');
                v.setAttribute('y2', '1024');

                // Calculate real coordinates using inverse transformation
                const matrix = {"a":94.39999999999996,"c":0,"e":511.99999999999994,"b":0,"d":-94.39999999999996,"f":512};
                // Manually invert and apply the affine transform
                // Since we only use translate and scale, we can directly compute:
                // x' = (x - tx) / sx
                // y' = (y - ty) / sy
                const sx = matrix.a;
                const sy = matrix.d;
                const tx = matrix.e; 
                const ty = matrix.f;
                const realPoint = {
                  x: (x - tx) / sx,
                  y: (y - ty) / sy // Flip y back since we used negative scale
                }
                
                coords.textContent = `(${realPoint.x.toFixed(2)}, ${realPoint.y.toFixed(2)})`;
                coords.setAttribute('x', (x + 5).toString());
                coords.setAttribute('y', (y - 5).toString());
              });
              document.currentScript.parentElement.addEventListener('mouseleave', () => {
                document.currentScript.parentElement.getElementById('crosshair').style.display = 'none';
              });
            ]]></script></svg>