<svg width="1024" height="1024" viewBox="0 0 1024 1024" xmlns="http://www.w3.org/2000/svg"><rect width="100%" height="100%" fill="white"/><g><circle data-type="point" data-label="conn_000" data-x="0.1" data-y="-5" cx="521.4399999999999" cy="984" r="14.16" fill="blue"/></g><g><circle data-type="point" data-label="conn_000" data-x="-1.84" data-y="5" cx="338.304" cy="40.000000000000284" r="14.16" fill="red"/></g><g><circle data-type="point" data-label="conn_001" data-x="-2.9" data-y="-5" cx="238.24000000000007" cy="984" r="14.16" fill="red"/></g><g><circle data-type="point" data-label="conn_001" data-x="4.74" data-y="5" cx="959.4559999999998" cy="40.000000000000284" r="14.16" fill="blue"/></g><g><circle data-type="point" data-label="conn_002" data-x="5" data-y="1.22" cx="983.9999999999998" cy="396.83200000000016" r="14.16" fill="red"/></g><g><circle data-type="point" data-label="conn_002" data-x="-5" data-y="2.68" cx="40.000000000000114" cy="259.0080000000002" r="14.16" fill="red"/></g><g><circle data-type="point" data-label="conn_003" data-x="-1.98" data-y="-5" cx="325.088" cy="984" r="14.16" fill="blue"/></g><g><circle data-type="point" data-label="conn_003" data-x="0.4" data-y="5" cx="549.7599999999999" cy="40.000000000000284" r="14.16" fill="blue"/></g><g><circle data-type="point" data-label="conn_004" data-x="5" data-y="-0.08" cx="983.9999999999998" cy="519.5520000000001" r="14.16" fill="blue"/></g><g><circle data-type="point" data-label="conn_004" data-x="-5" data-y="4.44" cx="40.000000000000114" cy="92.86400000000026" r="14.16" fill="red"/></g><g><polyline data-points="5.000000000000002,-0.05050505050505001 4.898989898989901,0.050505050505051545 4.7979797979797985,0.1515151515151522 4.696969696969697,0.2525252525252529 4.595959595959597,0.3535353535353544 4.494949494949497,0.4545454545454551 4.393939393939394,0.5555555555555567 4.292929292929293,0.6565656565656574 4.191919191919193,0.7575757575757579 4.090909090909092,0.8585858585858596 3.989898989898992,0.9595959595959602 3.8888888888888893,1.0606060606060617 3.7878787878787885,1.1616161616161622 3.6868686868686877,1.262626262626263 3.5858585858585874,1.3636363636363644 3.4848484848484866,1.4646464646464652 3.383838383838384,1.5656565656565666 3.2828282828282833,1.6666666666666674 3.181818181818183,1.767676767676768 3.080808080808082,1.8686868686868696 2.9797979797979806,1.9696969696969702 2.87878787878788,2.070707070707072 2.7777777777777786,2.1717171717171726 2.676767676767678,2.2727272727272734 2.575757575757577,2.373737373737375 2.4747474747474754,2.4747474747474754 2.373737373737375,2.575757575757577 2.2727272727272734,2.676767676767678 2.1717171717171726,2.7777777777777786 2.070707070707072,2.87878787878788 1.9696969696969702,2.9797979797979806 1.8686868686868696,3.080808080808082 1.767676767676768,3.181818181818183 1.6666666666666674,3.2828282828282833 1.5656565656565666,3.383838383838384 1.4646464646464652,3.4848484848484866 1.3636363636363644,3.5858585858585874 1.262626262626263,3.6868686868686877 1.1616161616161622,3.7878787878787885 1.0606060606060617,3.8888888888888893 0.9595959595959602,3.989898989898992 0.8585858585858596,3.989898989898992 0.7575757575757579,3.989898989898992 0.6565656565656574,3.989898989898992 0.5555555555555567,3.989898989898992 0.4545454545454551,3.989898989898992 0.3535353535353544,3.989898989898992 0.2525252525252529,3.989898989898992 0.1515151515151522,3.989898989898992 0.050505050505051545,3.989898989898992 -0.05050505050505001,3.989898989898992 -0.15151515151515066,3.989898989898992 -0.2525252525252522,3.989898989898992 -0.35353535353535287,3.989898989898992 -0.4545454545454544,3.989898989898992 -0.555555555555555,3.989898989898992 -0.6565656565656557,3.989898989898992 -0.7575757575757572,3.989898989898992 -0.8585858585858579,3.989898989898992 -0.9595959595959596,3.989898989898992 -1.0606060606060603,3.989898989898992 -1.1616161616161613,3.989898989898992 -1.2626262626262625,3.989898989898992 -1.363636363636363,3.989898989898992 -1.4646464646464643,3.989898989898992 -1.5656565656565653,3.989898989898992 -1.6666666666666665,3.989898989898992 -1.7676767676767675,3.989898989898992 -1.8686868686868683,3.989898989898992 -1.9696969696969693,3.989898989898992 -2.07070707070707,3.989898989898992 -2.1717171717171713,3.989898989898992 -2.2727272727272725,3.989898989898992 -2.3737373737373733,3.989898989898992 -2.474747474747474,3.989898989898992 -2.5757575757575752,3.989898989898992 -2.6767676767676765,3.989898989898992 -2.7777777777777777,3.989898989898992 -2.8787878787878785,3.989898989898992 -2.9797979797979792,3.989898989898992 -3.0808080808080804,3.989898989898992 -3.1818181818181817,3.989898989898992 -3.2828282828282824,3.989898989898992 -3.383838383838383,3.989898989898992 -3.484848484848485,3.989898989898992 -3.5858585858585856,3.989898989898992 -3.6868686868686864,3.989898989898992 -3.7878787878787876,3.989898989898992" data-type="line" data-label="" points="984,516.7676767676768 974.4646464646464,507.23232323232327 964.9292929292927,497.69696969696975 955.3939393939393,488.1616161616163 945.8585858585857,478.6262626262627 936.3232323232323,469.0909090909092 926.7878787878785,459.5555555555556 917.2525252525251,450.0202020202021 907.7171717171716,440.4848484848486 898.181818181818,430.94949494949503 888.6464646464647,421.4141414141415 879.111111111111,411.87878787878793 869.5757575757575,402.3434343434344 860.0404040404039,392.80808080808094 850.5050505050505,383.27272727272737 840.969696969697,373.73737373737384 831.4343434343433,364.2020202020203 821.8989898989898,354.66666666666674 812.3636363636363,345.1313131313133 802.8282828282828,335.5959595959597 793.2929292929292,326.06060606060623 783.7575757575758,316.5252525252526 774.2222222222222,306.9898989898991 764.6868686868686,297.4545454545456 755.1515151515151,287.91919191919203 745.6161616161615,278.38383838383857 736.0808080808081,268.84848484848493 726.5454545454545,259.3131313131314 717.0101010101009,249.77777777777794 707.4747474747475,240.24242424242436 697.9393939393939,230.70707070707084 688.4040404040404,221.17171717171726 678.8686868686868,211.63636363636374 669.3333333333333,202.10101010101027 659.7979797979798,192.56565656565675 650.2626262626262,183.03030303030312 640.7272727272727,173.4949494949496 631.1919191919192,163.95959595959613 621.6565656565656,154.4242424242426 612.1212121212121,144.88888888888908 602.5858585858585,135.35353535353545 593.0505050505051,135.35353535353545 583.5151515151515,135.35353535353545 573.9797979797979,135.35353535353545 564.4444444444445,135.35353535353545 554.9090909090909,135.35353535353545 545.3737373737374,135.35353535353545 535.8383838383838,135.35353535353545 526.3030303030303,135.35353535353545 516.7676767676768,135.35353535353545 507.2323232323232,135.35353535353545 497.69696969696975,135.35353535353545 488.16161616161617,135.35353535353545 478.62626262626264,135.35353535353545 469.09090909090907,135.35353535353545 459.55555555555554,135.35353535353545 450.0202020202021,135.35353535353545 440.4848484848485,135.35353535353545 430.949494949495,135.35353535353545 421.4141414141414,135.35353535353545 411.8787878787879,135.35353535353545 402.34343434343435,135.35353535353545 392.80808080808083,135.35353535353545 383.2727272727273,135.35353535353545 373.7373737373738,135.35353535353545 364.2020202020202,135.35353535353545 354.6666666666667,135.35353535353545 345.13131313131316,135.35353535353545 335.59595959595964,135.35353535353545 326.0606060606061,135.35353535353545 316.5252525252526,135.35353535353545 306.9898989898991,135.35353535353545 297.4545454545455,135.35353535353545 287.91919191919203,135.35353535353545 278.38383838383845,135.35353535353545 268.84848484848493,135.35353535353545 259.3131313131314,135.35353535353545 249.77777777777783,135.35353535353545 240.2424242424243,135.35353535353545 230.70707070707084,135.35353535353545 221.17171717171726,135.35353535353545 211.63636363636374,135.35353535353545 202.10101010101022,135.35353535353545 192.5656565656567,135.35353535353545 183.03030303030312,135.35353535353545 173.4949494949496,135.35353535353545 163.95959595959607,135.35353535353545 154.42424242424255,135.35353535353545" fill="none" stroke="rgba(0,0,255,0.75)" stroke-width="11.327999999999996"/></g><g><polyline data-points="-3.7878787878787876,3.989898989898992 -3.8888888888888884,4.090909090909092 -3.98989898989899,4.191919191919193 -4.090909090909091,4.292929292929293 -4.191919191919193,4.393939393939394 -4.292929292929293,4.494949494949497 -4.393939393939394,4.494949494949497 -4.494949494949496,4.494949494949497 -4.595959595959596,4.494949494949497 -4.696969696969697,4.494949494949497 -4.7979797979797985,4.494949494949497 -4.898989898989899,4.494949494949497 -5.000000000000001,4.494949494949497" data-type="line" data-label="" points="154.42424242424255,135.35353535353545 144.88888888888903,125.81818181818198 135.35353535353545,116.28282828282846 125.81818181818193,106.747474747475 116.28282828282829,97.21212121212153 106.74747474747483,87.67676767676778 97.21212121212136,87.67676767676778 87.67676767676772,87.67676767676778 78.14141414141426,87.67676767676778 68.60606060606068,87.67676767676778 59.07070707070716,87.67676767676778 49.53535353535369,87.67676767676778 40.00000000000006,87.67676767676778" fill="none" stroke="rgba(255,0,0,0.75)" stroke-width="11.327999999999996"/></g><g><polyline data-points="-2.8787878787878785,-5.000000000000001 -2.7777777777777777,-4.898989898989899 -2.6767676767676765,-4.7979797979797985 -2.5757575757575752,-4.696969696969697 -2.474747474747474,-4.595959595959596 -2.3737373737373733,-4.494949494949496 -2.2727272727272725,-4.393939393939394 -2.1717171717171713,-4.292929292929293 -2.07070707070707,-4.191919191919193 -1.9696969696969693,-4.090909090909091 -1.8686868686868683,-3.98989898989899 -1.7676767676767675,-3.8888888888888884 -1.6666666666666665,-3.7878787878787876 -1.5656565656565653,-3.6868686868686864 -1.4646464646464643,-3.5858585858585856 -1.363636363636363,-3.484848484848485 -1.2626262626262625,-3.383838383838383 -1.1616161616161613,-3.2828282828282824 -1.0606060606060603,-3.1818181818181817 -0.9595959595959596,-3.0808080808080804 -0.8585858585858579,-2.9797979797979792 -0.7575757575757572,-2.8787878787878785 -0.6565656565656557,-2.7777777777777777 -0.555555555555555,-2.6767676767676765 -0.4545454545454544,-2.5757575757575752 -0.35353535353535287,-2.474747474747474 -0.2525252525252522,-2.3737373737373733 -0.15151515151515066,-2.2727272727272725 -0.05050505050505001,-2.1717171717171713 0.050505050505051545,-2.07070707070707 0.1515151515151522,-1.9696969696969693 0.2525252525252529,-1.8686868686868683 0.3535353535353544,-1.7676767676767675 0.4545454545454551,-1.6666666666666665 0.5555555555555567,-1.5656565656565653 0.6565656565656574,-1.4646464646464643 0.7575757575757579,-1.363636363636363 0.8585858585858596,-1.2626262626262625 0.9595959595959602,-1.1616161616161613 1.0606060606060617,-1.0606060606060603 1.1616161616161622,-0.9595959595959596 1.262626262626263,-0.8585858585858579 1.3636363636363644,-0.7575757575757572 1.4646464646464652,-0.6565656565656557 1.5656565656565666,-0.555555555555555 1.6666666666666674,-0.4545454545454544 1.767676767676768,-0.35353535353535287 1.8686868686868696,-0.2525252525252522 1.9696969696969702,-0.15151515151515066 2.070707070707072,-0.05050505050505001 2.1717171717171726,0.050505050505051545 2.2727272727272734,0.1515151515151522 2.373737373737375,0.2525252525252529 2.4747474747474754,0.3535353535353544 2.575757575757577,0.4545454545454551 2.676767676767678,0.5555555555555567 2.7777777777777786,0.6565656565656574 2.87878787878788,0.7575757575757579 2.9797979797979806,0.8585858585858596 3.080808080808082,0.9595959595959602 3.181818181818183,1.0606060606060617 3.2828282828282833,1.1616161616161622 3.383838383838384,1.262626262626263 3.4848484848484866,1.3636363636363644 3.5858585858585874,1.4646464646464652 3.6868686868686877,1.5656565656565666 3.7878787878787885,1.6666666666666674 3.8888888888888893,1.767676767676768 3.989898989898992,1.8686868686868696 3.989898989898992,1.9696969696969702 3.989898989898992,2.070707070707072 3.989898989898992,2.1717171717171726 3.989898989898992,2.2727272727272734 3.989898989898992,2.373737373737375 3.989898989898992,2.4747474747474754 3.989898989898992,2.575757575757577 3.989898989898992,2.676767676767678 3.989898989898992,2.7777777777777786 3.989898989898992,2.87878787878788 3.989898989898992,2.9797979797979806 3.989898989898992,3.080808080808082 3.989898989898992,3.181818181818183 3.989898989898992,3.2828282828282833 3.989898989898992,3.383838383838384 3.989898989898992,3.4848484848484866 3.989898989898992,3.5858585858585874" data-type="line" data-label="" points="240.2424242424243,984 249.77777777777783,974.4646464646464 259.3131313131314,964.9292929292928 268.84848484848493,955.3939393939394 278.38383838383845,945.8585858585858 287.91919191919203,936.3232323232323 297.4545454545455,926.7878787878788 306.9898989898991,917.2525252525252 316.5252525252526,907.7171717171718 326.0606060606061,898.1818181818181 335.59595959595964,888.6464646464647 345.13131313131316,879.1111111111111 354.6666666666667,869.5757575757575 364.2020202020202,860.0404040404039 373.7373737373738,850.5050505050505 383.2727272727273,840.969696969697 392.80808080808083,831.4343434343434 402.34343434343435,821.8989898989898 411.8787878787879,812.3636363636363 421.4141414141414,802.8282828282828 430.949494949495,793.2929292929292 440.4848484848485,783.7575757575758 450.0202020202021,774.2222222222222 459.55555555555554,764.6868686868687 469.09090909090907,755.1515151515151 478.62626262626264,745.6161616161615 488.16161616161617,736.0808080808081 497.69696969696975,726.5454545454545 507.2323232323232,717.010101010101 516.7676767676768,707.4747474747475 526.3030303030303,697.939393939394 535.8383838383838,688.4040404040404 545.3737373737374,678.8686868686868 554.9090909090909,669.3333333333334 564.4444444444445,659.7979797979798 573.9797979797979,650.2626262626263 583.5151515151515,640.7272727272727 593.0505050505051,631.1919191919193 602.5858585858585,621.6565656565657 612.1212121212121,612.1212121212121 621.6565656565656,602.5858585858587 631.1919191919192,593.0505050505051 640.7272727272727,583.5151515151516 650.2626262626262,573.979797979798 659.7979797979798,564.4444444444445 669.3333333333333,554.909090909091 678.8686868686868,545.3737373737374 688.4040404040404,535.838383838384 697.9393939393939,526.3030303030304 707.4747474747475,516.7676767676768 717.0101010101009,507.23232323232327 726.5454545454545,497.69696969696975 736.0808080808081,488.1616161616163 745.6161616161615,478.6262626262627 755.1515151515151,469.0909090909092 764.6868686868686,459.5555555555556 774.2222222222222,450.0202020202021 783.7575757575758,440.4848484848486 793.2929292929292,430.94949494949503 802.8282828282828,421.4141414141415 812.3636363636363,411.87878787878793 821.8989898989898,402.3434343434344 831.4343434343433,392.80808080808094 840.969696969697,383.27272727272737 850.5050505050505,373.73737373737384 860.0404040404039,364.2020202020203 869.5757575757575,354.66666666666674 879.111111111111,345.1313131313133 888.6464646464647,335.5959595959597 888.6464646464647,326.06060606060623 888.6464646464647,316.5252525252526 888.6464646464647,306.9898989898991 888.6464646464647,297.4545454545456 888.6464646464647,287.91919191919203 888.6464646464647,278.38383838383857 888.6464646464647,268.84848484848493 888.6464646464647,259.3131313131314 888.6464646464647,249.77777777777794 888.6464646464647,240.24242424242436 888.6464646464647,230.70707070707084 888.6464646464647,221.17171717171726 888.6464646464647,211.63636363636374 888.6464646464647,202.10101010101027 888.6464646464647,192.56565656565675 888.6464646464647,183.03030303030312 888.6464646464647,173.4949494949496" fill="none" stroke="rgba(255,0,0,0.75)" stroke-width="11.327999999999996"/></g><g><polyline data-points="3.989898989898992,3.5858585858585874 4.090909090909092,3.6868686868686877 4.191919191919193,3.7878787878787885 4.292929292929293,3.8888888888888893 4.393939393939394,3.989898989898992 4.494949494949497,4.090909090909092 4.595959595959597,4.191919191919193 4.696969696969697,4.292929292929293 4.7979797979797985,4.393939393939394 4.7979797979797985,4.494949494949497 4.7979797979797985,4.595959595959597 4.7979797979797985,4.696969696969697 4.7979797979797985,4.7979797979797985 4.7979797979797985,4.898989898989901 4.7979797979797985,5.000000000000002" data-type="line" data-label="" points="888.6464646464647,173.4949494949496 898.181818181818,163.95959595959613 907.7171717171716,154.4242424242426 917.2525252525251,144.88888888888908 926.7878787878785,135.35353535353545 936.3232323232323,125.81818181818198 945.8585858585857,116.28282828282846 955.3939393939393,106.747474747475 964.9292929292927,97.21212121212153 964.9292929292927,87.67676767676778 964.9292929292927,78.14141414141432 964.9292929292927,68.60606060606085 964.9292929292927,59.07070707070733 964.9292929292927,49.53535353535369 964.9292929292927,40.000000000000114" fill="none" stroke="rgba(0,0,255,0.75)" stroke-width="11.327999999999996"/></g><g><polyline data-points="0.050505050505051545,-5.000000000000001 -0.05050505050505001,-4.898989898989899 -0.15151515151515066,-4.7979797979797985 -0.2525252525252522,-4.696969696969697 -0.35353535353535287,-4.595959595959596 -0.4545454545454544,-4.494949494949496 -0.555555555555555,-4.393939393939394 -0.6565656565656557,-4.292929292929293 -0.7575757575757572,-4.191919191919193 -0.8585858585858579,-4.090909090909091 -0.9595959595959596,-3.98989898989899 -1.0606060606060603,-3.8888888888888884 -1.1616161616161613,-3.7878787878787876 -1.2626262626262625,-3.6868686868686864 -1.363636363636363,-3.5858585858585856 -1.4646464646464643,-3.484848484848485 -1.5656565656565653,-3.383838383838383 -1.6666666666666665,-3.2828282828282824 -1.7676767676767675,-3.1818181818181817 -1.8686868686868683,-3.0808080808080804 -1.8686868686868683,-2.9797979797979792 -1.8686868686868683,-2.8787878787878785 -1.8686868686868683,-2.7777777777777777 -1.8686868686868683,-2.6767676767676765 -1.8686868686868683,-2.5757575757575752 -1.8686868686868683,-2.474747474747474 -1.8686868686868683,-2.3737373737373733 -1.8686868686868683,-2.2727272727272725 -1.8686868686868683,-2.1717171717171713 -1.8686868686868683,-2.07070707070707 -1.8686868686868683,-1.9696969696969693 -1.8686868686868683,-1.8686868686868683 -1.8686868686868683,-1.7676767676767675 -1.8686868686868683,-1.6666666666666665 -1.8686868686868683,-1.5656565656565653 -1.8686868686868683,-1.4646464646464643 -1.8686868686868683,-1.363636363636363 -1.8686868686868683,-1.2626262626262625 -1.8686868686868683,-1.1616161616161613 -1.8686868686868683,-1.0606060606060603 -1.8686868686868683,-0.9595959595959596 -1.8686868686868683,-0.8585858585858579 -1.8686868686868683,-0.7575757575757572 -1.8686868686868683,-0.6565656565656557 -1.8686868686868683,-0.555555555555555 -1.8686868686868683,-0.4545454545454544 -1.8686868686868683,-0.35353535353535287 -1.8686868686868683,-0.2525252525252522 -1.8686868686868683,-0.15151515151515066 -1.8686868686868683,-0.05050505050505001 -1.8686868686868683,0.050505050505051545 -1.8686868686868683,0.1515151515151522 -1.8686868686868683,0.2525252525252529 -1.8686868686868683,0.3535353535353544 -1.8686868686868683,0.4545454545454551 -1.8686868686868683,0.5555555555555567 -1.8686868686868683,0.6565656565656574 -1.8686868686868683,0.7575757575757579 -1.8686868686868683,0.8585858585858596 -1.8686868686868683,0.9595959595959602 -1.8686868686868683,1.0606060606060617 -1.8686868686868683,1.1616161616161622 -1.8686868686868683,1.262626262626263 -1.8686868686868683,1.3636363636363644 -1.8686868686868683,1.4646464646464652 -1.8686868686868683,1.5656565656565666 -1.8686868686868683,1.6666666666666674 -1.8686868686868683,1.767676767676768 -1.8686868686868683,1.8686868686868696 -1.8686868686868683,1.9696969696969702 -1.8686868686868683,2.070707070707072 -1.8686868686868683,2.1717171717171726 -1.8686868686868683,2.2727272727272734 -1.8686868686868683,2.373737373737375 -1.8686868686868683,2.4747474747474754 -1.8686868686868683,2.575757575757577 -1.8686868686868683,2.676767676767678 -1.8686868686868683,2.7777777777777786 -1.8686868686868683,2.87878787878788 -1.8686868686868683,2.9797979797979806 -1.8686868686868683,3.080808080808082 -1.8686868686868683,3.181818181818183 -1.8686868686868683,3.2828282828282833 -1.8686868686868683,3.383838383838384 -1.8686868686868683,3.4848484848484866 -1.8686868686868683,3.5858585858585874" data-type="line" data-label="" points="516.7676767676768,984 507.2323232323232,974.4646464646464 497.69696969696975,964.9292929292928 488.16161616161617,955.3939393939394 478.62626262626264,945.8585858585858 469.09090909090907,936.3232323232323 459.55555555555554,926.7878787878788 450.0202020202021,917.2525252525252 440.4848484848485,907.7171717171718 430.949494949495,898.1818181818181 421.4141414141414,888.6464646464647 411.8787878787879,879.1111111111111 402.34343434343435,869.5757575757575 392.80808080808083,860.0404040404039 383.2727272727273,850.5050505050505 373.7373737373738,840.969696969697 364.2020202020202,831.4343434343434 354.6666666666667,821.8989898989898 345.13131313131316,812.3636363636363 335.59595959595964,802.8282828282828 335.59595959595964,793.2929292929292 335.59595959595964,783.7575757575758 335.59595959595964,774.2222222222222 335.59595959595964,764.6868686868687 335.59595959595964,755.1515151515151 335.59595959595964,745.6161616161615 335.59595959595964,736.0808080808081 335.59595959595964,726.5454545454545 335.59595959595964,717.010101010101 335.59595959595964,707.4747474747475 335.59595959595964,697.939393939394 335.59595959595964,688.4040404040404 335.59595959595964,678.8686868686868 335.59595959595964,669.3333333333334 335.59595959595964,659.7979797979798 335.59595959595964,650.2626262626263 335.59595959595964,640.7272727272727 335.59595959595964,631.1919191919193 335.59595959595964,621.6565656565657 335.59595959595964,612.1212121212121 335.59595959595964,602.5858585858587 335.59595959595964,593.0505050505051 335.59595959595964,583.5151515151516 335.59595959595964,573.979797979798 335.59595959595964,564.4444444444445 335.59595959595964,554.909090909091 335.59595959595964,545.3737373737374 335.59595959595964,535.838383838384 335.59595959595964,526.3030303030304 335.59595959595964,516.7676767676768 335.59595959595964,507.23232323232327 335.59595959595964,497.69696969696975 335.59595959595964,488.1616161616163 335.59595959595964,478.6262626262627 335.59595959595964,469.0909090909092 335.59595959595964,459.5555555555556 335.59595959595964,450.0202020202021 335.59595959595964,440.4848484848486 335.59595959595964,430.94949494949503 335.59595959595964,421.4141414141415 335.59595959595964,411.87878787878793 335.59595959595964,402.3434343434344 335.59595959595964,392.80808080808094 335.59595959595964,383.27272727272737 335.59595959595964,373.73737373737384 335.59595959595964,364.2020202020203 335.59595959595964,354.66666666666674 335.59595959595964,345.1313131313133 335.59595959595964,335.5959595959597 335.59595959595964,326.06060606060623 335.59595959595964,316.5252525252526 335.59595959595964,306.9898989898991 335.59595959595964,297.4545454545456 335.59595959595964,287.91919191919203 335.59595959595964,278.38383838383857 335.59595959595964,268.84848484848493 335.59595959595964,259.3131313131314 335.59595959595964,249.77777777777794 335.59595959595964,240.24242424242436 335.59595959595964,230.70707070707084 335.59595959595964,221.17171717171726 335.59595959595964,211.63636363636374 335.59595959595964,202.10101010101027 335.59595959595964,192.56565656565675 335.59595959595964,183.03030303030312 335.59595959595964,173.4949494949496" fill="none" stroke="rgba(0,0,255,0.75)" stroke-width="11.327999999999996"/></g><g><polyline data-points="-1.8686868686868683,3.5858585858585874 -1.8686868686868683,3.6868686868686877 -1.8686868686868683,3.7878787878787885 -1.8686868686868683,3.8888888888888893 -1.8686868686868683,3.989898989898992 -1.8686868686868683,4.090909090909092 -1.8686868686868683,4.191919191919193 -1.8686868686868683,4.292929292929293 -1.8686868686868683,4.393939393939394 -1.8686868686868683,4.494949494949497 -1.8686868686868683,4.595959595959597 -1.8686868686868683,4.696969696969697 -1.8686868686868683,4.7979797979797985 -1.8686868686868683,4.898989898989901 -1.8686868686868683,5.000000000000002" data-type="line" data-label="" points="335.59595959595964,173.4949494949496 335.59595959595964,163.95959595959613 335.59595959595964,154.4242424242426 335.59595959595964,144.88888888888908 335.59595959595964,135.35353535353545 335.59595959595964,125.81818181818198 335.59595959595964,116.28282828282846 335.59595959595964,106.747474747475 335.59595959595964,97.21212121212153 335.59595959595964,87.67676767676778 335.59595959595964,78.14141414141432 335.59595959595964,68.60606060606085 335.59595959595964,59.07070707070733 335.59595959595964,49.53535353535369 335.59595959595964,40.000000000000114" fill="none" stroke="rgba(255,0,0,0.75)" stroke-width="11.327999999999996"/></g><g><polyline data-points="-1.9696969696969693,-5.000000000000001 -1.9696969696969693,-4.898989898989899 -1.9696969696969693,-4.7979797979797985 -1.9696969696969693,-4.696969696969697 -1.9696969696969693,-4.595959595959596 -1.9696969696969693,-4.494949494949496 -1.9696969696969693,-4.393939393939394 -1.9696969696969693,-4.292929292929293 -1.9696969696969693,-4.191919191919193 -1.9696969696969693,-4.090909090909091 -1.9696969696969693,-3.98989898989899 -1.9696969696969693,-3.8888888888888884 -1.9696969696969693,-3.7878787878787876 -1.9696969696969693,-3.6868686868686864 -1.9696969696969693,-3.5858585858585856" data-type="line" data-label="" points="326.0606060606061,984 326.0606060606061,974.4646464646464 326.0606060606061,964.9292929292928 326.0606060606061,955.3939393939394 326.0606060606061,945.8585858585858 326.0606060606061,936.3232323232323 326.0606060606061,926.7878787878788 326.0606060606061,917.2525252525252 326.0606060606061,907.7171717171718 326.0606060606061,898.1818181818181 326.0606060606061,888.6464646464647 326.0606060606061,879.1111111111111 326.0606060606061,869.5757575757575 326.0606060606061,860.0404040404039 326.0606060606061,850.5050505050505" fill="none" stroke="rgba(0,0,255,0.75)" stroke-width="11.327999999999996"/></g><g><polyline data-points="-1.9696969696969693,-3.5858585858585856 -1.8686868686868683,-3.484848484848485 -1.7676767676767675,-3.383838383838383 -1.6666666666666665,-3.2828282828282824 -1.5656565656565653,-3.1818181818181817 -1.4646464646464643,-3.0808080808080804 -1.363636363636363,-2.9797979797979792 -1.2626262626262625,-2.8787878787878785 -1.1616161616161613,-2.7777777777777777 -1.0606060606060603,-2.6767676767676765 -0.9595959595959596,-2.5757575757575752 -0.8585858585858579,-2.474747474747474 -0.7575757575757572,-2.3737373737373733 -0.6565656565656557,-2.2727272727272725 -0.555555555555555,-2.1717171717171713 -0.4545454545454544,-2.07070707070707 -0.35353535353535287,-1.9696969696969693 -0.2525252525252522,-1.8686868686868683 -0.15151515151515066,-1.7676767676767675 -0.05050505050505001,-1.6666666666666665 0.050505050505051545,-1.5656565656565653 0.1515151515151522,-1.4646464646464643 0.2525252525252529,-1.363636363636363 0.3535353535353544,-1.2626262626262625 0.4545454545454551,-1.1616161616161613 0.4545454545454551,-1.0606060606060603 0.4545454545454551,-0.9595959595959596 0.4545454545454551,-0.8585858585858579 0.4545454545454551,-0.7575757575757572 0.4545454545454551,-0.6565656565656557 0.4545454545454551,-0.555555555555555 0.4545454545454551,-0.4545454545454544 0.4545454545454551,-0.35353535353535287 0.4545454545454551,-0.2525252525252522 0.4545454545454551,-0.15151515151515066 0.4545454545454551,-0.05050505050505001 0.4545454545454551,0.050505050505051545 0.4545454545454551,0.1515151515151522 0.4545454545454551,0.2525252525252529 0.4545454545454551,0.3535353535353544 0.4545454545454551,0.4545454545454551 0.4545454545454551,0.5555555555555567 0.4545454545454551,0.6565656565656574 0.4545454545454551,0.7575757575757579 0.4545454545454551,0.8585858585858596 0.4545454545454551,0.9595959595959602 0.4545454545454551,1.0606060606060617 0.4545454545454551,1.1616161616161622 0.4545454545454551,1.262626262626263 0.4545454545454551,1.3636363636363644 0.4545454545454551,1.4646464646464652 0.4545454545454551,1.5656565656565666 0.4545454545454551,1.6666666666666674 0.4545454545454551,1.767676767676768 0.4545454545454551,1.8686868686868696 0.4545454545454551,1.9696969696969702 0.4545454545454551,2.070707070707072 0.4545454545454551,2.1717171717171726 0.4545454545454551,2.2727272727272734 0.4545454545454551,2.373737373737375 0.4545454545454551,2.4747474747474754 0.4545454545454551,2.575757575757577 0.4545454545454551,2.676767676767678 0.4545454545454551,2.7777777777777786 0.4545454545454551,2.87878787878788 0.4545454545454551,2.9797979797979806 0.5555555555555567,3.080808080808082 0.6565656565656574,3.181818181818183 0.7575757575757579,3.2828282828282833 0.8585858585858596,3.383838383838384 0.9595959595959602,3.4848484848484866 1.0606060606060617,3.5858585858585874 1.1616161616161622,3.6868686868686877 1.262626262626263,3.7878787878787885 1.3636363636363644,3.8888888888888893 1.4646464646464652,3.989898989898992" data-type="line" data-label="" points="326.0606060606061,850.5050505050505 335.59595959595964,840.969696969697 345.13131313131316,831.4343434343434 354.6666666666667,821.8989898989898 364.2020202020202,812.3636363636363 373.7373737373738,802.8282828282828 383.2727272727273,793.2929292929292 392.80808080808083,783.7575757575758 402.34343434343435,774.2222222222222 411.8787878787879,764.6868686868687 421.4141414141414,755.1515151515151 430.949494949495,745.6161616161615 440.4848484848485,736.0808080808081 450.0202020202021,726.5454545454545 459.55555555555554,717.010101010101 469.09090909090907,707.4747474747475 478.62626262626264,697.939393939394 488.16161616161617,688.4040404040404 497.69696969696975,678.8686868686868 507.2323232323232,669.3333333333334 516.7676767676768,659.7979797979798 526.3030303030303,650.2626262626263 535.8383838383838,640.7272727272727 545.3737373737374,631.1919191919193 554.9090909090909,621.6565656565657 554.9090909090909,612.1212121212121 554.9090909090909,602.5858585858587 554.9090909090909,593.0505050505051 554.9090909090909,583.5151515151516 554.9090909090909,573.979797979798 554.9090909090909,564.4444444444445 554.9090909090909,554.909090909091 554.9090909090909,545.3737373737374 554.9090909090909,535.838383838384 554.9090909090909,526.3030303030304 554.9090909090909,516.7676767676768 554.9090909090909,507.23232323232327 554.9090909090909,497.69696969696975 554.9090909090909,488.1616161616163 554.9090909090909,478.6262626262627 554.9090909090909,469.0909090909092 554.9090909090909,459.5555555555556 554.9090909090909,450.0202020202021 554.9090909090909,440.4848484848486 554.9090909090909,430.94949494949503 554.9090909090909,421.4141414141415 554.9090909090909,411.87878787878793 554.9090909090909,402.3434343434344 554.9090909090909,392.80808080808094 554.9090909090909,383.27272727272737 554.9090909090909,373.73737373737384 554.9090909090909,364.2020202020203 554.9090909090909,354.66666666666674 554.9090909090909,345.1313131313133 554.9090909090909,335.5959595959597 554.9090909090909,326.06060606060623 554.9090909090909,316.5252525252526 554.9090909090909,306.9898989898991 554.9090909090909,297.4545454545456 554.9090909090909,287.91919191919203 554.9090909090909,278.38383838383857 554.9090909090909,268.84848484848493 554.9090909090909,259.3131313131314 554.9090909090909,249.77777777777794 554.9090909090909,240.24242424242436 554.9090909090909,230.70707070707084 564.4444444444445,221.17171717171726 573.9797979797979,211.63636363636374 583.5151515151515,202.10101010101027 593.0505050505051,192.56565656565675 602.5858585858585,183.03030303030312 612.1212121212121,173.4949494949496 621.6565656565656,163.95959595959613 631.1919191919192,154.4242424242426 640.7272727272727,144.88888888888908 650.2626262626262,135.35353535353545" fill="none" stroke="rgba(255,0,0,0.75)" stroke-width="11.327999999999996"/></g><g><polyline data-points="1.4646464646464652,3.989898989898992 1.3636363636363644,4.090909090909092 1.262626262626263,4.191919191919193 1.1616161616161622,4.292929292929293 1.0606060606060617,4.393939393939394 0.9595959595959602,4.494949494949497 0.8585858585858596,4.595959595959597 0.7575757575757579,4.696969696969697 0.6565656565656574,4.7979797979797985 0.5555555555555567,4.898989898989901 0.4545454545454551,5.000000000000002" data-type="line" data-label="" points="650.2626262626262,135.35353535353545 640.7272727272727,125.81818181818198 631.1919191919192,116.28282828282846 621.6565656565656,106.747474747475 612.1212121212121,97.21212121212153 602.5858585858585,87.67676767676778 593.0505050505051,78.14141414141432 583.5151515151515,68.60606060606085 573.9797979797979,59.07070707070733 564.4444444444445,49.53535353535369 554.9090909090909,40.000000000000114" fill="none" stroke="rgba(0,0,255,0.75)" stroke-width="11.327999999999996"/></g><g><polyline data-points="5.000000000000002,1.262626262626263 4.898989898989901,1.262626262626263 4.7979797979797985,1.262626262626263 4.696969696969697,1.262626262626263 4.595959595959597,1.262626262626263 4.494949494949497,1.262626262626263 4.393939393939394,1.262626262626263 4.292929292929293,1.262626262626263 4.191919191919193,1.262626262626263 4.090909090909092,1.262626262626263 3.989898989898992,1.262626262626263 3.8888888888888893,1.1616161616161622 3.7878787878787885,1.0606060606060617 3.6868686868686877,0.9595959595959602 3.5858585858585874,0.8585858585858596" data-type="line" data-label="" points="984,392.80808080808094 974.4646464646464,392.80808080808094 964.9292929292927,392.80808080808094 955.3939393939393,392.80808080808094 945.8585858585857,392.80808080808094 936.3232323232323,392.80808080808094 926.7878787878785,392.80808080808094 917.2525252525251,392.80808080808094 907.7171717171716,392.80808080808094 898.181818181818,392.80808080808094 888.6464646464647,392.80808080808094 879.111111111111,402.3434343434344 869.5757575757575,411.87878787878793 860.0404040404039,421.4141414141415 850.5050505050505,430.94949494949503" fill="none" stroke="rgba(255,0,0,0.75)" stroke-width="11.327999999999996"/></g><g><polyline data-points="3.5858585858585874,0.8585858585858596 3.4848484848484866,0.9595959595959602 3.383838383838384,1.0606060606060617 3.2828282828282833,1.1616161616161622 3.181818181818183,1.262626262626263 3.080808080808082,1.3636363636363644 2.9797979797979806,1.4646464646464652 2.87878787878788,1.5656565656565666 2.7777777777777786,1.6666666666666674 2.676767676767678,1.767676767676768 2.575757575757577,1.8686868686868696 2.4747474747474754,1.9696969696969702 2.373737373737375,2.070707070707072 2.2727272727272734,2.1717171717171726 2.1717171717171726,2.2727272727272734 2.070707070707072,2.373737373737375 1.9696969696969702,2.4747474747474754 1.8686868686868696,2.575757575757577 1.767676767676768,2.676767676767678 1.6666666666666674,2.676767676767678 1.5656565656565666,2.676767676767678 1.4646464646464652,2.676767676767678 1.3636363636363644,2.676767676767678 1.262626262626263,2.676767676767678 1.1616161616161622,2.676767676767678 1.0606060606060617,2.676767676767678 0.9595959595959602,2.676767676767678 0.8585858585858596,2.676767676767678 0.7575757575757579,2.676767676767678 0.6565656565656574,2.676767676767678 0.5555555555555567,2.676767676767678 0.4545454545454551,2.676767676767678 0.3535353535353544,2.676767676767678 0.2525252525252529,2.676767676767678 0.1515151515151522,2.676767676767678 0.050505050505051545,2.676767676767678 -0.05050505050505001,2.676767676767678 -0.15151515151515066,2.676767676767678 -0.2525252525252522,2.676767676767678 -0.35353535353535287,2.676767676767678 -0.4545454545454544,2.676767676767678 -0.555555555555555,2.676767676767678 -0.6565656565656557,2.676767676767678 -0.7575757575757572,2.676767676767678 -0.8585858585858579,2.676767676767678 -0.9595959595959596,2.676767676767678 -1.0606060606060603,2.676767676767678 -1.1616161616161613,2.676767676767678 -1.2626262626262625,2.676767676767678 -1.363636363636363,2.676767676767678 -1.4646464646464643,2.676767676767678" data-type="line" data-label="" points="850.5050505050505,430.94949494949503 840.969696969697,421.4141414141415 831.4343434343433,411.87878787878793 821.8989898989898,402.3434343434344 812.3636363636363,392.80808080808094 802.8282828282828,383.27272727272737 793.2929292929292,373.73737373737384 783.7575757575758,364.2020202020203 774.2222222222222,354.66666666666674 764.6868686868686,345.1313131313133 755.1515151515151,335.5959595959597 745.6161616161615,326.06060606060623 736.0808080808081,316.5252525252526 726.5454545454545,306.9898989898991 717.0101010101009,297.4545454545456 707.4747474747475,287.91919191919203 697.9393939393939,278.38383838383857 688.4040404040404,268.84848484848493 678.8686868686868,259.3131313131314 669.3333333333333,259.3131313131314 659.7979797979798,259.3131313131314 650.2626262626262,259.3131313131314 640.7272727272727,259.3131313131314 631.1919191919192,259.3131313131314 621.6565656565656,259.3131313131314 612.1212121212121,259.3131313131314 602.5858585858585,259.3131313131314 593.0505050505051,259.3131313131314 583.5151515151515,259.3131313131314 573.9797979797979,259.3131313131314 564.4444444444445,259.3131313131314 554.9090909090909,259.3131313131314 545.3737373737374,259.3131313131314 535.8383838383838,259.3131313131314 526.3030303030303,259.3131313131314 516.7676767676768,259.3131313131314 507.2323232323232,259.3131313131314 497.69696969696975,259.3131313131314 488.16161616161617,259.3131313131314 478.62626262626264,259.3131313131314 469.09090909090907,259.3131313131314 459.55555555555554,259.3131313131314 450.0202020202021,259.3131313131314 440.4848484848485,259.3131313131314 430.949494949495,259.3131313131314 421.4141414141414,259.3131313131314 411.8787878787879,259.3131313131314 402.34343434343435,259.3131313131314 392.80808080808083,259.3131313131314 383.2727272727273,259.3131313131314 373.7373737373738,259.3131313131314" fill="none" stroke="rgba(0,0,255,0.75)" stroke-width="11.327999999999996"/></g><g><polyline data-points="-1.4646464646464643,2.676767676767678 -1.5656565656565653,2.676767676767678 -1.6666666666666665,2.676767676767678 -1.7676767676767675,2.676767676767678 -1.8686868686868683,2.676767676767678 -1.9696969696969693,2.676767676767678 -2.07070707070707,2.676767676767678 -2.1717171717171713,2.676767676767678 -2.2727272727272725,2.676767676767678 -2.3737373737373733,2.676767676767678 -2.474747474747474,2.676767676767678 -2.5757575757575752,2.676767676767678 -2.6767676767676765,2.676767676767678 -2.7777777777777777,2.676767676767678 -2.8787878787878785,2.676767676767678 -2.9797979797979792,2.676767676767678 -3.0808080808080804,2.676767676767678 -3.1818181818181817,2.676767676767678 -3.2828282828282824,2.676767676767678 -3.383838383838383,2.676767676767678 -3.484848484848485,2.676767676767678 -3.5858585858585856,2.676767676767678 -3.6868686868686864,2.676767676767678 -3.7878787878787876,2.676767676767678 -3.8888888888888884,2.676767676767678 -3.98989898989899,2.676767676767678 -4.090909090909091,2.676767676767678 -4.191919191919193,2.676767676767678 -4.292929292929293,2.676767676767678 -4.393939393939394,2.676767676767678 -4.494949494949496,2.676767676767678 -4.595959595959596,2.676767676767678 -4.696969696969697,2.676767676767678 -4.7979797979797985,2.676767676767678 -4.898989898989899,2.676767676767678 -5.000000000000001,2.676767676767678" data-type="line" data-label="" points="373.7373737373738,259.3131313131314 364.2020202020202,259.3131313131314 354.6666666666667,259.3131313131314 345.13131313131316,259.3131313131314 335.59595959595964,259.3131313131314 326.0606060606061,259.3131313131314 316.5252525252526,259.3131313131314 306.9898989898991,259.3131313131314 297.4545454545455,259.3131313131314 287.91919191919203,259.3131313131314 278.38383838383845,259.3131313131314 268.84848484848493,259.3131313131314 259.3131313131314,259.3131313131314 249.77777777777783,259.3131313131314 240.2424242424243,259.3131313131314 230.70707070707084,259.3131313131314 221.17171717171726,259.3131313131314 211.63636363636374,259.3131313131314 202.10101010101022,259.3131313131314 192.5656565656567,259.3131313131314 183.03030303030312,259.3131313131314 173.4949494949496,259.3131313131314 163.95959595959607,259.3131313131314 154.42424242424255,259.3131313131314 144.88888888888903,259.3131313131314 135.35353535353545,259.3131313131314 125.81818181818193,259.3131313131314 116.28282828282829,259.3131313131314 106.74747474747483,259.3131313131314 97.21212121212136,259.3131313131314 87.67676767676772,259.3131313131314 78.14141414141426,259.3131313131314 68.60606060606068,259.3131313131314 59.07070707070716,259.3131313131314 49.53535353535369,259.3131313131314 40.00000000000006,259.3131313131314" fill="none" stroke="rgba(255,0,0,0.75)" stroke-width="11.327999999999996"/></g><g><rect data-type="rect" data-label="" data-x="0" data-y="0" x="40.000000000000114" y="40.000000000000284" width="943.9999999999997" height="943.9999999999998" fill="none" stroke="gray" stroke-width="0.010593220338983056"/></g><g><rect data-type="rect" data-label="" data-x="0" data-y="0" x="40.000000000000114" y="40.000000000000284" width="943.9999999999997" height="943.9999999999998" fill="none" stroke="rgba(15, 23, 42, 0.8)" stroke-width="0.010593220338983056"/></g><circle data-type="circle" data-label="" data-x="-3.7878787878787876" data-y="3.989898989898992" cx="154.42424242424255" cy="135.35353535353545" r="14.159999999999995" fill="rgba(0,0,0,0.3)" stroke="black" stroke-width="0.010593220338983056"/><circle data-type="circle" data-label="" data-x="3.989898989898992" data-y="3.5858585858585874" cx="888.6464646464647" cy="173.4949494949496" r="14.159999999999995" fill="rgba(0,0,0,0.3)" stroke="black" stroke-width="0.010593220338983056"/><circle data-type="circle" data-label="" data-x="-1.8686868686868683" data-y="3.5858585858585874" cx="335.59595959595964" cy="173.4949494949496" r="14.159999999999995" fill="rgba(0,0,0,0.3)" stroke="black" stroke-width="0.010593220338983056"/><circle data-type="circle" data-label="" data-x="-1.9696969696969693" data-y="-3.5858585858585856" cx="326.0606060606061" cy="850.5050505050505" r="14.159999999999995" fill="rgba(0,0,0,0.3)" stroke="black" stroke-width="0.010593220338983056"/><circle data-type="circle" data-label="" data-x="1.4646464646464652" data-y="3.989898989898992" cx="650.2626262626262" cy="135.35353535353545" r="14.159999999999995" fill="rgba(0,0,0,0.3)" stroke="black" stroke-width="0.010593220338983056"/><circle data-type="circle" data-label="" data-x="3.5858585858585874" data-y="0.8585858585858596" cx="850.5050505050505" cy="430.94949494949503" r="14.159999999999995" fill="rgba(0,0,0,0.3)" stroke="black" stroke-width="0.010593220338983056"/><circle data-type="circle" data-label="" data-x="-1.4646464646464643" data-y="2.676767676767678" cx="373.7373737373738" cy="259.3131313131314" r="14.159999999999995" fill="rgba(0,0,0,0.3)" stroke="black" stroke-width="0.010593220338983056"/><g id="crosshair" style="display: none"><line id="crosshair-h" y1="0" y2="1024" stroke="#666" stroke-width="0.5"/><line id="crosshair-v" x1="0" x2="1024" stroke="#666" stroke-width="0.5"/><text id="coordinates" font-family="monospace" font-size="12" fill="#666"></text></g><script><![CDATA[
              document.currentScript.parentElement.addEventListener('mousemove', (e) => {
                const svg = e.currentTarget;
                const rect = svg.getBoundingClientRect();
                const x = e.clientX - rect.left;
                const y = e.clientY - rect.top;
                const crosshair = svg.getElementById('crosshair');
                const h = svg.getElementById('crosshair-h');
                const v = svg.getElementById('crosshair-v');
                const coords = svg.getElementById('coordinates');
                
                crosshair.style.display = 'block';
                h.setAttribute('x1', '0');
                h.setAttribute('x2', '1024');
                h.setAttribute('y1', y);
                h.setAttribute('y2', y);
                v.setAttribute('x1', x);
                v.setAttribute('x2', x);
                v.setAttribute('y1', '0');
                v.setAttribute('y2', '1024');

                // Calculate real coordinates using inverse transformation
                const matrix = {"a":94.39999999999996,"c":0,"e":511.99999999999994,"b":0,"d":-94.39999999999996,"f":512.0000000000001};
                // Manually invert and apply the affine transform
                // Since we only use translate and scale, we can directly compute:
                // x' = (x - tx) / sx
                // y' = (y - ty) / sy
                const sx = matrix.a;
                const sy = matrix.d;
                const tx = matrix.e; 
                const ty = matrix.f;
                const realPoint = {
                  x: (x - tx) / sx,
                  y: (y - ty) / sy // Flip y back since we used negative scale
                }
                
                coords.textContent = `(${realPoint.x.toFixed(2)}, ${realPoint.y.toFixed(2)})`;
                coords.setAttribute('x', (x + 5).toString());
                coords.setAttribute('y', (y - 5).toString());
              });
              document.currentScript.parentElement.addEventListener('mouseleave', () => {
                document.currentScript.parentElement.getElementById('crosshair').style.display = 'none';
              });
            ]]></script></svg>