<svg width="1024" height="1024" viewBox="0 0 1024 1024" xmlns="http://www.w3.org/2000/svg"><rect width="100%" height="100%" fill="white"/><g><circle data-type="point" data-label="conn_000" data-x="-2.94" data-y="-5" cx="234.46400000000006" cy="984" r="14.16" fill="blue"/></g><g><circle data-type="point" data-label="conn_000" data-x="-4" data-y="5" cx="134.4000000000001" cy="40.000000000000284" r="14.16" fill="blue"/></g><g><circle data-type="point" data-label="conn_001" data-x="2.06" data-y="-5" cx="706.4639999999999" cy="984" r="14.16" fill="red"/></g><g><circle data-type="point" data-label="conn_001" data-x="-1.42" data-y="5" cx="377.952" cy="40.000000000000284" r="14.16" fill="blue"/></g><g><circle data-type="point" data-label="conn_002" data-x="-3.86" data-y="5" cx="147.6160000000001" cy="40.000000000000284" r="14.16" fill="red"/></g><g><circle data-type="point" data-label="conn_002" data-x="0.38" data-y="-5" cx="547.872" cy="984" r="14.16" fill="red"/></g><g><circle data-type="point" data-label="conn_003" data-x="1.2" data-y="-5" cx="625.2799999999999" cy="984" r="14.16" fill="red"/></g><g><circle data-type="point" data-label="conn_003" data-x="5" data-y="-3.96" cx="983.9999999999998" cy="885.824" r="14.16" fill="red"/></g><g><circle data-type="point" data-label="conn_004" data-x="-0.46" data-y="-5" cx="468.57599999999996" cy="984" r="14.16" fill="red"/></g><g><circle data-type="point" data-label="conn_004" data-x="2.02" data-y="5" cx="702.6879999999999" cy="40.000000000000284" r="14.16" fill="blue"/></g><g><polyline data-points="-3.8888888888888884,5.000000000000002 -3.7878787878787876,4.898989898989901 -3.6868686868686864,4.7979797979797985 -3.5858585858585856,4.696969696969697 -3.484848484848485,4.595959595959597 -3.383838383838383,4.494949494949497 -3.2828282828282824,4.393939393939394 -3.1818181818181817,4.292929292929293 -3.0808080808080804,4.191919191919193 -2.9797979797979792,4.090909090909092 -2.8787878787878785,3.989898989898992 -2.7777777777777777,3.8888888888888893 -2.6767676767676765,3.7878787878787885 -2.5757575757575752,3.6868686868686877 -2.474747474747474,3.5858585858585874 -2.3737373737373733,3.4848484848484866 -2.2727272727272725,3.383838383838384 -2.1717171717171713,3.2828282828282833 -2.07070707070707,3.181818181818183 -1.9696969696969693,3.080808080808082 -1.8686868686868683,2.9797979797979806 -1.7676767676767675,2.87878787878788 -1.6666666666666665,2.7777777777777786 -1.5656565656565653,2.676767676767678 -1.4646464646464643,2.575757575757577 -1.363636363636363,2.4747474747474754 -1.2626262626262625,2.373737373737375 -1.1616161616161613,2.2727272727272734 -1.0606060606060603,2.1717171717171726 -0.9595959595959596,2.070707070707072 -0.8585858585858579,1.9696969696969702 -0.7575757575757572,1.8686868686868696 -0.6565656565656557,1.767676767676768 -0.555555555555555,1.6666666666666674 -0.4545454545454544,1.5656565656565666 -0.35353535353535287,1.4646464646464652 -0.2525252525252522,1.3636363636363644 -0.15151515151515066,1.262626262626263 -0.05050505050505001,1.1616161616161622 0.050505050505051545,1.0606060606060617 0.1515151515151522,0.9595959595959602 0.2525252525252529,0.8585858585858596 0.3535353535353544,0.7575757575757579 0.3535353535353544,0.6565656565656574 0.3535353535353544,0.5555555555555567 0.3535353535353544,0.4545454545454551 0.3535353535353544,0.3535353535353544 0.3535353535353544,0.2525252525252529 0.3535353535353544,0.1515151515151522 0.3535353535353544,0.050505050505051545 0.3535353535353544,-0.05050505050505001 0.3535353535353544,-0.15151515151515066 0.3535353535353544,-0.2525252525252522 0.3535353535353544,-0.35353535353535287 0.3535353535353544,-0.4545454545454544 0.3535353535353544,-0.555555555555555 0.3535353535353544,-0.6565656565656557 0.3535353535353544,-0.7575757575757572 0.3535353535353544,-0.8585858585858579 0.3535353535353544,-0.9595959595959596 0.3535353535353544,-1.0606060606060603 0.3535353535353544,-1.1616161616161613 0.3535353535353544,-1.2626262626262625 0.3535353535353544,-1.363636363636363 0.3535353535353544,-1.4646464646464643 0.3535353535353544,-1.5656565656565653 0.3535353535353544,-1.6666666666666665 0.3535353535353544,-1.7676767676767675 0.3535353535353544,-1.8686868686868683 0.3535353535353544,-1.9696969696969693 0.3535353535353544,-2.07070707070707 0.3535353535353544,-2.1717171717171713 0.3535353535353544,-2.2727272727272725 0.3535353535353544,-2.3737373737373733 0.3535353535353544,-2.474747474747474 0.3535353535353544,-2.5757575757575752 0.3535353535353544,-2.6767676767676765 0.3535353535353544,-2.7777777777777777 0.3535353535353544,-2.8787878787878785 0.3535353535353544,-2.9797979797979792 0.3535353535353544,-3.0808080808080804 0.3535353535353544,-3.1818181818181817 0.3535353535353544,-3.2828282828282824 0.3535353535353544,-3.383838383838383 0.3535353535353544,-3.484848484848485 0.3535353535353544,-3.5858585858585856 0.3535353535353544,-3.6868686868686864 0.3535353535353544,-3.7878787878787876 0.3535353535353544,-3.8888888888888884 0.3535353535353544,-3.98989898989899 0.3535353535353544,-4.090909090909091 0.3535353535353544,-4.191919191919193 0.3535353535353544,-4.292929292929293 0.3535353535353544,-4.393939393939394 0.3535353535353544,-4.494949494949496 0.3535353535353544,-4.595959595959596 0.3535353535353544,-4.696969696969697 0.3535353535353544,-4.7979797979797985 0.3535353535353544,-4.898989898989899 0.3535353535353544,-5.000000000000001" data-type="line" data-label="" points="144.88888888888903,40.000000000000114 154.42424242424255,49.53535353535369 163.95959595959607,59.07070707070733 173.4949494949496,68.60606060606085 183.03030303030312,78.14141414141432 192.5656565656567,87.67676767676778 202.10101010101022,97.21212121212153 211.63636363636374,106.747474747475 221.17171717171726,116.28282828282846 230.70707070707084,125.81818181818198 240.2424242424243,135.35353535353545 249.77777777777783,144.88888888888908 259.3131313131314,154.4242424242426 268.84848484848493,163.95959595959613 278.38383838383845,173.4949494949496 287.91919191919203,183.03030303030312 297.4545454545455,192.56565656565675 306.9898989898991,202.10101010101027 316.5252525252526,211.63636363636374 326.0606060606061,221.17171717171726 335.59595959595964,230.70707070707084 345.13131313131316,240.24242424242436 354.6666666666667,249.77777777777794 364.2020202020202,259.3131313131314 373.7373737373738,268.84848484848493 383.2727272727273,278.38383838383857 392.80808080808083,287.91919191919203 402.34343434343435,297.4545454545456 411.8787878787879,306.9898989898991 421.4141414141414,316.5252525252526 430.949494949495,326.06060606060623 440.4848484848485,335.5959595959597 450.0202020202021,345.1313131313133 459.55555555555554,354.66666666666674 469.09090909090907,364.2020202020203 478.62626262626264,373.73737373737384 488.16161616161617,383.27272727272737 497.69696969696975,392.80808080808094 507.2323232323232,402.3434343434344 516.7676767676768,411.87878787878793 526.3030303030303,421.4141414141415 535.8383838383838,430.94949494949503 545.3737373737374,440.4848484848486 545.3737373737374,450.0202020202021 545.3737373737374,459.5555555555556 545.3737373737374,469.0909090909092 545.3737373737374,478.6262626262627 545.3737373737374,488.1616161616163 545.3737373737374,497.69696969696975 545.3737373737374,507.23232323232327 545.3737373737374,516.7676767676768 545.3737373737374,526.3030303030304 545.3737373737374,535.838383838384 545.3737373737374,545.3737373737374 545.3737373737374,554.909090909091 545.3737373737374,564.4444444444445 545.3737373737374,573.979797979798 545.3737373737374,583.5151515151516 545.3737373737374,593.0505050505051 545.3737373737374,602.5858585858587 545.3737373737374,612.1212121212121 545.3737373737374,621.6565656565657 545.3737373737374,631.1919191919193 545.3737373737374,640.7272727272727 545.3737373737374,650.2626262626263 545.3737373737374,659.7979797979798 545.3737373737374,669.3333333333334 545.3737373737374,678.8686868686868 545.3737373737374,688.4040404040404 545.3737373737374,697.939393939394 545.3737373737374,707.4747474747475 545.3737373737374,717.010101010101 545.3737373737374,726.5454545454545 545.3737373737374,736.0808080808081 545.3737373737374,745.6161616161615 545.3737373737374,755.1515151515151 545.3737373737374,764.6868686868687 545.3737373737374,774.2222222222222 545.3737373737374,783.7575757575758 545.3737373737374,793.2929292929292 545.3737373737374,802.8282828282828 545.3737373737374,812.3636363636363 545.3737373737374,821.8989898989898 545.3737373737374,831.4343434343434 545.3737373737374,840.969696969697 545.3737373737374,850.5050505050505 545.3737373737374,860.0404040404039 545.3737373737374,869.5757575757575 545.3737373737374,879.1111111111111 545.3737373737374,888.6464646464647 545.3737373737374,898.1818181818181 545.3737373737374,907.7171717171718 545.3737373737374,917.2525252525252 545.3737373737374,926.7878787878788 545.3737373737374,936.3232323232323 545.3737373737374,945.8585858585858 545.3737373737374,955.3939393939394 545.3737373737374,964.9292929292928 545.3737373737374,974.4646464646464 545.3737373737374,984" fill="none" stroke="rgba(255,0,0,0.75)" stroke-width="11.327999999999996"/></g><g><polyline data-points="-0.4545454545454544,-5.000000000000001 -0.35353535353535287,-4.898989898989899 -0.2525252525252522,-4.7979797979797985 -0.15151515151515066,-4.696969696969697 -0.05050505050505001,-4.595959595959596 -0.05050505050505001,-4.494949494949496 -0.05050505050505001,-4.393939393939394 -0.05050505050505001,-4.292929292929293 -0.05050505050505001,-4.191919191919193 -0.05050505050505001,-4.090909090909091 -0.05050505050505001,-3.98989898989899 -0.05050505050505001,-3.8888888888888884 -0.05050505050505001,-3.7878787878787876 -0.05050505050505001,-3.6868686868686864 -0.05050505050505001,-3.5858585858585856 -0.05050505050505001,-3.484848484848485 -0.05050505050505001,-3.383838383838383 -0.05050505050505001,-3.2828282828282824 -0.05050505050505001,-3.1818181818181817 -0.05050505050505001,-3.0808080808080804 -0.05050505050505001,-2.9797979797979792 -0.05050505050505001,-2.8787878787878785 -0.05050505050505001,-2.7777777777777777 -0.05050505050505001,-2.6767676767676765 -0.05050505050505001,-2.5757575757575752 -0.05050505050505001,-2.474747474747474 -0.05050505050505001,-2.3737373737373733 -0.05050505050505001,-2.2727272727272725 -0.05050505050505001,-2.1717171717171713 -0.05050505050505001,-2.07070707070707 -0.05050505050505001,-1.9696969696969693 -0.05050505050505001,-1.8686868686868683 -0.05050505050505001,-1.7676767676767675 -0.05050505050505001,-1.6666666666666665 -0.05050505050505001,-1.5656565656565653 -0.05050505050505001,-1.4646464646464643 -0.05050505050505001,-1.363636363636363 -0.05050505050505001,-1.2626262626262625 -0.05050505050505001,-1.1616161616161613 -0.05050505050505001,-1.0606060606060603 -0.05050505050505001,-0.9595959595959596 -0.05050505050505001,-0.8585858585858579 -0.05050505050505001,-0.7575757575757572 -0.05050505050505001,-0.6565656565656557 -0.05050505050505001,-0.555555555555555 -0.05050505050505001,-0.4545454545454544 -0.05050505050505001,-0.35353535353535287 -0.05050505050505001,-0.2525252525252522 -0.05050505050505001,-0.15151515151515066 -0.05050505050505001,-0.05050505050505001 -0.05050505050505001,0.050505050505051545 -0.05050505050505001,0.1515151515151522 -0.05050505050505001,0.2525252525252529 -0.05050505050505001,0.3535353535353544 -0.05050505050505001,0.4545454545454551 -0.05050505050505001,0.5555555555555567" data-type="line" data-label="" points="469.09090909090907,984 478.62626262626264,974.4646464646464 488.16161616161617,964.9292929292928 497.69696969696975,955.3939393939394 507.2323232323232,945.8585858585858 507.2323232323232,936.3232323232323 507.2323232323232,926.7878787878788 507.2323232323232,917.2525252525252 507.2323232323232,907.7171717171718 507.2323232323232,898.1818181818181 507.2323232323232,888.6464646464647 507.2323232323232,879.1111111111111 507.2323232323232,869.5757575757575 507.2323232323232,860.0404040404039 507.2323232323232,850.5050505050505 507.2323232323232,840.969696969697 507.2323232323232,831.4343434343434 507.2323232323232,821.8989898989898 507.2323232323232,812.3636363636363 507.2323232323232,802.8282828282828 507.2323232323232,793.2929292929292 507.2323232323232,783.7575757575758 507.2323232323232,774.2222222222222 507.2323232323232,764.6868686868687 507.2323232323232,755.1515151515151 507.2323232323232,745.6161616161615 507.2323232323232,736.0808080808081 507.2323232323232,726.5454545454545 507.2323232323232,717.010101010101 507.2323232323232,707.4747474747475 507.2323232323232,697.939393939394 507.2323232323232,688.4040404040404 507.2323232323232,678.8686868686868 507.2323232323232,669.3333333333334 507.2323232323232,659.7979797979798 507.2323232323232,650.2626262626263 507.2323232323232,640.7272727272727 507.2323232323232,631.1919191919193 507.2323232323232,621.6565656565657 507.2323232323232,612.1212121212121 507.2323232323232,602.5858585858587 507.2323232323232,593.0505050505051 507.2323232323232,583.5151515151516 507.2323232323232,573.979797979798 507.2323232323232,564.4444444444445 507.2323232323232,554.909090909091 507.2323232323232,545.3737373737374 507.2323232323232,535.838383838384 507.2323232323232,526.3030303030304 507.2323232323232,516.7676767676768 507.2323232323232,507.23232323232327 507.2323232323232,497.69696969696975 507.2323232323232,488.1616161616163 507.2323232323232,478.6262626262627 507.2323232323232,469.0909090909092 507.2323232323232,459.5555555555556" fill="none" stroke="rgba(255,0,0,0.75)" stroke-width="11.327999999999996"/></g><g><polyline data-points="-0.05050505050505001,0.5555555555555567 0.050505050505051545,0.6565656565656574 0.1515151515151522,0.7575757575757579 0.2525252525252529,0.8585858585858596 0.3535353535353544,0.9595959595959602 0.4545454545454551,1.0606060606060617 0.5555555555555567,1.1616161616161622 0.6565656565656574,1.262626262626263 0.7575757575757579,1.3636363636363644 0.8585858585858596,1.4646464646464652 0.9595959595959602,1.5656565656565666 1.0606060606060617,1.6666666666666674 1.1616161616161622,1.767676767676768 1.262626262626263,1.8686868686868696 1.3636363636363644,1.9696969696969702 1.4646464646464652,2.070707070707072 1.5656565656565666,2.1717171717171726 1.6666666666666674,2.2727272727272734 1.767676767676768,2.373737373737375 1.8686868686868696,2.4747474747474754 1.9696969696969702,2.575757575757577 2.070707070707072,2.676767676767678 2.070707070707072,2.7777777777777786 2.070707070707072,2.87878787878788 2.070707070707072,2.9797979797979806 2.070707070707072,3.080808080808082 2.070707070707072,3.181818181818183 2.070707070707072,3.2828282828282833 2.070707070707072,3.383838383838384 2.070707070707072,3.4848484848484866 2.070707070707072,3.5858585858585874 2.070707070707072,3.6868686868686877 2.070707070707072,3.7878787878787885 2.070707070707072,3.8888888888888893 2.070707070707072,3.989898989898992 2.070707070707072,4.090909090909092 2.070707070707072,4.191919191919193 2.070707070707072,4.292929292929293 2.070707070707072,4.393939393939394 2.070707070707072,4.494949494949497 2.070707070707072,4.595959595959597 2.070707070707072,4.696969696969697 2.070707070707072,4.7979797979797985 2.070707070707072,4.898989898989901 2.070707070707072,5.000000000000002" data-type="line" data-label="" points="507.2323232323232,459.5555555555556 516.7676767676768,450.0202020202021 526.3030303030303,440.4848484848486 535.8383838383838,430.94949494949503 545.3737373737374,421.4141414141415 554.9090909090909,411.87878787878793 564.4444444444445,402.3434343434344 573.9797979797979,392.80808080808094 583.5151515151515,383.27272727272737 593.0505050505051,373.73737373737384 602.5858585858585,364.2020202020203 612.1212121212121,354.66666666666674 621.6565656565656,345.1313131313133 631.1919191919192,335.5959595959597 640.7272727272727,326.06060606060623 650.2626262626262,316.5252525252526 659.7979797979798,306.9898989898991 669.3333333333333,297.4545454545456 678.8686868686868,287.91919191919203 688.4040404040404,278.38383838383857 697.9393939393939,268.84848484848493 707.4747474747475,259.3131313131314 707.4747474747475,249.77777777777794 707.4747474747475,240.24242424242436 707.4747474747475,230.70707070707084 707.4747474747475,221.17171717171726 707.4747474747475,211.63636363636374 707.4747474747475,202.10101010101027 707.4747474747475,192.56565656565675 707.4747474747475,183.03030303030312 707.4747474747475,173.4949494949496 707.4747474747475,163.95959595959613 707.4747474747475,154.4242424242426 707.4747474747475,144.88888888888908 707.4747474747475,135.35353535353545 707.4747474747475,125.81818181818198 707.4747474747475,116.28282828282846 707.4747474747475,106.747474747475 707.4747474747475,97.21212121212153 707.4747474747475,87.67676767676778 707.4747474747475,78.14141414141432 707.4747474747475,68.60606060606085 707.4747474747475,59.07070707070733 707.4747474747475,49.53535353535369 707.4747474747475,40.000000000000114" fill="none" stroke="rgba(0,0,255,0.75)" stroke-width="11.327999999999996"/></g><g><polyline data-points="-2.9797979797979792,-5.000000000000001 -3.0808080808080804,-4.898989898989899 -3.1818181818181817,-4.7979797979797985 -3.2828282828282824,-4.696969696969697 -3.383838383838383,-4.595959595959596 -3.484848484848485,-4.494949494949496 -3.5858585858585856,-4.393939393939394 -3.6868686868686864,-4.292929292929293 -3.7878787878787876,-4.191919191919193 -3.8888888888888884,-4.090909090909091 -3.98989898989899,-3.98989898989899 -3.98989898989899,-3.8888888888888884 -3.98989898989899,-3.7878787878787876 -3.98989898989899,-3.6868686868686864 -3.98989898989899,-3.5858585858585856 -3.98989898989899,-3.484848484848485 -3.98989898989899,-3.383838383838383 -3.98989898989899,-3.2828282828282824 -3.98989898989899,-3.1818181818181817 -3.98989898989899,-3.0808080808080804 -3.98989898989899,-2.9797979797979792 -3.98989898989899,-2.8787878787878785 -3.98989898989899,-2.7777777777777777 -3.98989898989899,-2.6767676767676765 -3.98989898989899,-2.5757575757575752 -3.98989898989899,-2.474747474747474 -3.98989898989899,-2.3737373737373733 -3.98989898989899,-2.2727272727272725 -3.98989898989899,-2.1717171717171713 -3.98989898989899,-2.07070707070707 -3.98989898989899,-1.9696969696969693 -3.98989898989899,-1.8686868686868683 -3.98989898989899,-1.7676767676767675 -3.98989898989899,-1.6666666666666665 -3.98989898989899,-1.5656565656565653 -3.98989898989899,-1.4646464646464643 -3.98989898989899,-1.363636363636363 -3.98989898989899,-1.2626262626262625 -3.98989898989899,-1.1616161616161613 -3.98989898989899,-1.0606060606060603 -3.98989898989899,-0.9595959595959596 -3.98989898989899,-0.8585858585858579 -3.98989898989899,-0.7575757575757572 -3.98989898989899,-0.6565656565656557 -3.98989898989899,-0.555555555555555 -3.98989898989899,-0.4545454545454544 -3.98989898989899,-0.35353535353535287 -3.98989898989899,-0.2525252525252522 -3.98989898989899,-0.15151515151515066 -3.98989898989899,-0.05050505050505001 -3.98989898989899,0.050505050505051545 -3.98989898989899,0.1515151515151522 -3.98989898989899,0.2525252525252529 -3.98989898989899,0.3535353535353544 -3.98989898989899,0.4545454545454551 -3.98989898989899,0.5555555555555567 -3.98989898989899,0.6565656565656574 -3.98989898989899,0.7575757575757579 -3.98989898989899,0.8585858585858596 -3.98989898989899,0.9595959595959602 -3.98989898989899,1.0606060606060617 -3.98989898989899,1.1616161616161622 -3.98989898989899,1.262626262626263 -3.98989898989899,1.3636363636363644 -3.98989898989899,1.4646464646464652 -3.98989898989899,1.5656565656565666 -3.98989898989899,1.6666666666666674 -3.98989898989899,1.767676767676768 -3.98989898989899,1.8686868686868696 -3.98989898989899,1.9696969696969702 -3.98989898989899,2.070707070707072 -3.98989898989899,2.1717171717171726 -3.98989898989899,2.2727272727272734 -3.98989898989899,2.373737373737375 -3.98989898989899,2.4747474747474754 -3.98989898989899,2.575757575757577 -3.98989898989899,2.676767676767678 -3.98989898989899,2.7777777777777786 -3.98989898989899,2.87878787878788 -3.98989898989899,2.9797979797979806 -3.98989898989899,3.080808080808082 -3.98989898989899,3.181818181818183 -3.98989898989899,3.2828282828282833 -3.98989898989899,3.383838383838384 -3.98989898989899,3.4848484848484866 -3.98989898989899,3.5858585858585874 -3.98989898989899,3.6868686868686877 -3.98989898989899,3.7878787878787885 -3.98989898989899,3.8888888888888893 -3.98989898989899,3.989898989898992 -3.98989898989899,4.090909090909092 -3.98989898989899,4.191919191919193 -3.98989898989899,4.292929292929293 -3.98989898989899,4.393939393939394 -3.98989898989899,4.494949494949497 -3.98989898989899,4.595959595959597 -3.98989898989899,4.696969696969697 -3.98989898989899,4.7979797979797985 -3.98989898989899,4.898989898989901 -3.98989898989899,5.000000000000002" data-type="line" data-label="" points="230.70707070707084,984 221.17171717171726,974.4646464646464 211.63636363636374,964.9292929292928 202.10101010101022,955.3939393939394 192.5656565656567,945.8585858585858 183.03030303030312,936.3232323232323 173.4949494949496,926.7878787878788 163.95959595959607,917.2525252525252 154.42424242424255,907.7171717171718 144.88888888888903,898.1818181818181 135.35353535353545,888.6464646464647 135.35353535353545,879.1111111111111 135.35353535353545,869.5757575757575 135.35353535353545,860.0404040404039 135.35353535353545,850.5050505050505 135.35353535353545,840.969696969697 135.35353535353545,831.4343434343434 135.35353535353545,821.8989898989898 135.35353535353545,812.3636363636363 135.35353535353545,802.8282828282828 135.35353535353545,793.2929292929292 135.35353535353545,783.7575757575758 135.35353535353545,774.2222222222222 135.35353535353545,764.6868686868687 135.35353535353545,755.1515151515151 135.35353535353545,745.6161616161615 135.35353535353545,736.0808080808081 135.35353535353545,726.5454545454545 135.35353535353545,717.010101010101 135.35353535353545,707.4747474747475 135.35353535353545,697.939393939394 135.35353535353545,688.4040404040404 135.35353535353545,678.8686868686868 135.35353535353545,669.3333333333334 135.35353535353545,659.7979797979798 135.35353535353545,650.2626262626263 135.35353535353545,640.7272727272727 135.35353535353545,631.1919191919193 135.35353535353545,621.6565656565657 135.35353535353545,612.1212121212121 135.35353535353545,602.5858585858587 135.35353535353545,593.0505050505051 135.35353535353545,583.5151515151516 135.35353535353545,573.979797979798 135.35353535353545,564.4444444444445 135.35353535353545,554.909090909091 135.35353535353545,545.3737373737374 135.35353535353545,535.838383838384 135.35353535353545,526.3030303030304 135.35353535353545,516.7676767676768 135.35353535353545,507.23232323232327 135.35353535353545,497.69696969696975 135.35353535353545,488.1616161616163 135.35353535353545,478.6262626262627 135.35353535353545,469.0909090909092 135.35353535353545,459.5555555555556 135.35353535353545,450.0202020202021 135.35353535353545,440.4848484848486 135.35353535353545,430.94949494949503 135.35353535353545,421.4141414141415 135.35353535353545,411.87878787878793 135.35353535353545,402.3434343434344 135.35353535353545,392.80808080808094 135.35353535353545,383.27272727272737 135.35353535353545,373.73737373737384 135.35353535353545,364.2020202020203 135.35353535353545,354.66666666666674 135.35353535353545,345.1313131313133 135.35353535353545,335.5959595959597 135.35353535353545,326.06060606060623 135.35353535353545,316.5252525252526 135.35353535353545,306.9898989898991 135.35353535353545,297.4545454545456 135.35353535353545,287.91919191919203 135.35353535353545,278.38383838383857 135.35353535353545,268.84848484848493 135.35353535353545,259.3131313131314 135.35353535353545,249.77777777777794 135.35353535353545,240.24242424242436 135.35353535353545,230.70707070707084 135.35353535353545,221.17171717171726 135.35353535353545,211.63636363636374 135.35353535353545,202.10101010101027 135.35353535353545,192.56565656565675 135.35353535353545,183.03030303030312 135.35353535353545,173.4949494949496 135.35353535353545,163.95959595959613 135.35353535353545,154.4242424242426 135.35353535353545,144.88888888888908 135.35353535353545,135.35353535353545 135.35353535353545,125.81818181818198 135.35353535353545,116.28282828282846 135.35353535353545,106.747474747475 135.35353535353545,97.21212121212153 135.35353535353545,87.67676767676778 135.35353535353545,78.14141414141432 135.35353535353545,68.60606060606085 135.35353535353545,59.07070707070733 135.35353535353545,49.53535353535369 135.35353535353545,40.000000000000114" fill="none" stroke="rgba(0,0,255,0.75)" stroke-width="11.327999999999996"/></g><g><polyline data-points="2.070707070707072,-5.000000000000001 2.070707070707072,-4.898989898989899 1.9696969696969702,-4.7979797979797985 1.8686868686868696,-4.696969696969697 1.8686868686868696,-4.595959595959596 1.767676767676768,-4.494949494949496 1.6666666666666674,-4.393939393939394 1.5656565656565666,-4.292929292929293 1.4646464646464652,-4.191919191919193 1.3636363636363644,-4.090909090909091 1.262626262626263,-3.98989898989899 1.1616161616161622,-3.8888888888888884 1.0606060606060617,-3.7878787878787876 0.9595959595959602,-3.6868686868686864 0.8585858585858596,-3.5858585858585856 0.7575757575757579,-3.484848484848485 0.7575757575757579,-3.383838383838383 0.7575757575757579,-3.2828282828282824 0.7575757575757579,-3.1818181818181817 0.7575757575757579,-3.0808080808080804 0.7575757575757579,-2.9797979797979792 0.7575757575757579,-2.8787878787878785 0.7575757575757579,-2.7777777777777777 0.7575757575757579,-2.6767676767676765 0.7575757575757579,-2.5757575757575752 0.7575757575757579,-2.474747474747474 0.7575757575757579,-2.3737373737373733 0.7575757575757579,-2.2727272727272725 0.7575757575757579,-2.1717171717171713 0.7575757575757579,-2.07070707070707 0.7575757575757579,-1.9696969696969693 0.7575757575757579,-1.8686868686868683 0.7575757575757579,-1.7676767676767675 0.7575757575757579,-1.6666666666666665 0.7575757575757579,-1.5656565656565653 0.7575757575757579,-1.4646464646464643 0.7575757575757579,-1.363636363636363 0.7575757575757579,-1.2626262626262625 0.7575757575757579,-1.1616161616161613 0.7575757575757579,-1.0606060606060603 0.7575757575757579,-0.9595959595959596 0.7575757575757579,-0.8585858585858579 0.7575757575757579,-0.7575757575757572 0.7575757575757579,-0.6565656565656557 0.7575757575757579,-0.555555555555555 0.7575757575757579,-0.4545454545454544 0.7575757575757579,-0.35353535353535287 0.7575757575757579,-0.2525252525252522 0.7575757575757579,-0.15151515151515066 0.7575757575757579,-0.05050505050505001 0.7575757575757579,0.050505050505051545 0.7575757575757579,0.1515151515151522 0.7575757575757579,0.2525252525252529 0.7575757575757579,0.3535353535353544 0.7575757575757579,0.4545454545454551 0.7575757575757579,0.5555555555555567 0.7575757575757579,0.6565656565656574 0.7575757575757579,0.7575757575757579 0.7575757575757579,0.8585858585858596 0.6565656565656574,0.9595959595959602 0.5555555555555567,1.0606060606060617 0.4545454545454551,1.1616161616161622 0.3535353535353544,1.262626262626263 0.2525252525252529,1.3636363636363644 0.1515151515151522,1.4646464646464652 0.050505050505051545,1.5656565656565666 -0.05050505050505001,1.6666666666666674 -0.15151515151515066,1.767676767676768 -0.2525252525252522,1.8686868686868696 -0.35353535353535287,1.9696969696969702 -0.4545454545454544,2.070707070707072 -0.555555555555555,2.1717171717171726 -0.6565656565656557,2.2727272727272734 -0.7575757575757572,2.373737373737375 -0.8585858585858579,2.4747474747474754 -0.9595959595959596,2.575757575757577 -1.0606060606060603,2.676767676767678 -1.1616161616161613,2.7777777777777786 -1.2626262626262625,2.87878787878788 -1.2626262626262625,2.9797979797979806 -1.2626262626262625,3.080808080808082 -1.2626262626262625,3.181818181818183 -1.2626262626262625,3.2828282828282833 -1.2626262626262625,3.383838383838384 -1.2626262626262625,3.4848484848484866 -1.2626262626262625,3.5858585858585874 -1.2626262626262625,3.6868686868686877 -1.2626262626262625,3.7878787878787885 -1.2626262626262625,3.8888888888888893 -1.2626262626262625,3.989898989898992" data-type="line" data-label="" points="707.4747474747475,984 707.4747474747475,974.4646464646464 697.9393939393939,964.9292929292928 688.4040404040404,955.3939393939394 688.4040404040404,945.8585858585858 678.8686868686868,936.3232323232323 669.3333333333333,926.7878787878788 659.7979797979798,917.2525252525252 650.2626262626262,907.7171717171718 640.7272727272727,898.1818181818181 631.1919191919192,888.6464646464647 621.6565656565656,879.1111111111111 612.1212121212121,869.5757575757575 602.5858585858585,860.0404040404039 593.0505050505051,850.5050505050505 583.5151515151515,840.969696969697 583.5151515151515,831.4343434343434 583.5151515151515,821.8989898989898 583.5151515151515,812.3636363636363 583.5151515151515,802.8282828282828 583.5151515151515,793.2929292929292 583.5151515151515,783.7575757575758 583.5151515151515,774.2222222222222 583.5151515151515,764.6868686868687 583.5151515151515,755.1515151515151 583.5151515151515,745.6161616161615 583.5151515151515,736.0808080808081 583.5151515151515,726.5454545454545 583.5151515151515,717.010101010101 583.5151515151515,707.4747474747475 583.5151515151515,697.939393939394 583.5151515151515,688.4040404040404 583.5151515151515,678.8686868686868 583.5151515151515,669.3333333333334 583.5151515151515,659.7979797979798 583.5151515151515,650.2626262626263 583.5151515151515,640.7272727272727 583.5151515151515,631.1919191919193 583.5151515151515,621.6565656565657 583.5151515151515,612.1212121212121 583.5151515151515,602.5858585858587 583.5151515151515,593.0505050505051 583.5151515151515,583.5151515151516 583.5151515151515,573.979797979798 583.5151515151515,564.4444444444445 583.5151515151515,554.909090909091 583.5151515151515,545.3737373737374 583.5151515151515,535.838383838384 583.5151515151515,526.3030303030304 583.5151515151515,516.7676767676768 583.5151515151515,507.23232323232327 583.5151515151515,497.69696969696975 583.5151515151515,488.1616161616163 583.5151515151515,478.6262626262627 583.5151515151515,469.0909090909092 583.5151515151515,459.5555555555556 583.5151515151515,450.0202020202021 583.5151515151515,440.4848484848486 583.5151515151515,430.94949494949503 573.9797979797979,421.4141414141415 564.4444444444445,411.87878787878793 554.9090909090909,402.3434343434344 545.3737373737374,392.80808080808094 535.8383838383838,383.27272727272737 526.3030303030303,373.73737373737384 516.7676767676768,364.2020202020203 507.2323232323232,354.66666666666674 497.69696969696975,345.1313131313133 488.16161616161617,335.5959595959597 478.62626262626264,326.06060606060623 469.09090909090907,316.5252525252526 459.55555555555554,306.9898989898991 450.0202020202021,297.4545454545456 440.4848484848485,287.91919191919203 430.949494949495,278.38383838383857 421.4141414141414,268.84848484848493 411.8787878787879,259.3131313131314 402.34343434343435,249.77777777777794 392.80808080808083,240.24242424242436 392.80808080808083,230.70707070707084 392.80808080808083,221.17171717171726 392.80808080808083,211.63636363636374 392.80808080808083,202.10101010101027 392.80808080808083,192.56565656565675 392.80808080808083,183.03030303030312 392.80808080808083,173.4949494949496 392.80808080808083,163.95959595959613 392.80808080808083,154.4242424242426 392.80808080808083,144.88888888888908 392.80808080808083,135.35353535353545" fill="none" stroke="rgba(255,0,0,0.75)" stroke-width="11.327999999999996"/></g><g><polyline data-points="-1.2626262626262625,3.989898989898992 -1.2626262626262625,4.090909090909092 -1.2626262626262625,4.191919191919193 -1.2626262626262625,4.292929292929293 -1.2626262626262625,4.393939393939394 -1.2626262626262625,4.494949494949497 -1.2626262626262625,4.595959595959597 -1.2626262626262625,4.696969696969697 -1.2626262626262625,4.7979797979797985 -1.2626262626262625,4.898989898989901 -1.363636363636363,5.000000000000002 -1.4646464646464643,5.000000000000002" data-type="line" data-label="" points="392.80808080808083,135.35353535353545 392.80808080808083,125.81818181818198 392.80808080808083,116.28282828282846 392.80808080808083,106.747474747475 392.80808080808083,97.21212121212153 392.80808080808083,87.67676767676778 392.80808080808083,78.14141414141432 392.80808080808083,68.60606060606085 392.80808080808083,59.07070707070733 392.80808080808083,49.53535353535369 383.2727272727273,40.000000000000114 373.7373737373738,40.000000000000114" fill="none" stroke="rgba(0,0,255,0.75)" stroke-width="11.327999999999996"/></g><g><polyline data-points="1.262626262626263,-5.000000000000001 1.1616161616161622,-4.898989898989899 1.1616161616161622,-4.7979797979797985 1.1616161616161622,-4.696969696969697 1.1616161616161622,-4.595959595959596 1.1616161616161622,-4.494949494949496 1.1616161616161622,-4.393939393939394 1.0606060606060617,-4.292929292929293 0.9595959595959602,-4.191919191919193 0.8585858585858596,-4.090909090909091 0.7575757575757579,-3.98989898989899" data-type="line" data-label="" points="631.1919191919192,984 621.6565656565656,974.4646464646464 621.6565656565656,964.9292929292928 621.6565656565656,955.3939393939394 621.6565656565656,945.8585858585858 621.6565656565656,936.3232323232323 621.6565656565656,926.7878787878788 612.1212121212121,917.2525252525252 602.5858585858585,907.7171717171718 593.0505050505051,898.1818181818181 583.5151515151515,888.6464646464647" fill="none" stroke="rgba(255,0,0,0.75)" stroke-width="11.327999999999996"/></g><g><polyline data-points="0.7575757575757579,-3.98989898989899 0.8585858585858596,-4.090909090909091 0.9595959595959602,-3.98989898989899 1.0606060606060617,-3.8888888888888884 1.1616161616161622,-3.8888888888888884 1.262626262626263,-3.8888888888888884 1.3636363636363644,-3.8888888888888884 1.4646464646464652,-3.8888888888888884 1.5656565656565666,-3.8888888888888884 1.6666666666666674,-3.8888888888888884 1.767676767676768,-3.8888888888888884 1.8686868686868696,-3.8888888888888884 1.9696969696969702,-3.8888888888888884 2.070707070707072,-3.8888888888888884 2.1717171717171726,-3.8888888888888884 2.2727272727272734,-3.8888888888888884 2.373737373737375,-3.8888888888888884 2.4747474747474754,-3.8888888888888884 2.575757575757577,-3.8888888888888884 2.676767676767678,-3.8888888888888884 2.7777777777777786,-3.8888888888888884 2.87878787878788,-3.8888888888888884 2.9797979797979806,-3.8888888888888884 3.080808080808082,-3.8888888888888884 3.181818181818183,-3.8888888888888884 3.2828282828282833,-3.8888888888888884 3.383838383838384,-3.8888888888888884 3.4848484848484866,-3.8888888888888884 3.5858585858585874,-3.8888888888888884 3.6868686868686877,-3.8888888888888884 3.7878787878787885,-3.8888888888888884 3.8888888888888893,-3.8888888888888884 3.989898989898992,-3.8888888888888884" data-type="line" data-label="" points="583.5151515151515,888.6464646464647 593.0505050505051,898.1818181818181 602.5858585858585,888.6464646464647 612.1212121212121,879.1111111111111 621.6565656565656,879.1111111111111 631.1919191919192,879.1111111111111 640.7272727272727,879.1111111111111 650.2626262626262,879.1111111111111 659.7979797979798,879.1111111111111 669.3333333333333,879.1111111111111 678.8686868686868,879.1111111111111 688.4040404040404,879.1111111111111 697.9393939393939,879.1111111111111 707.4747474747475,879.1111111111111 717.0101010101009,879.1111111111111 726.5454545454545,879.1111111111111 736.0808080808081,879.1111111111111 745.6161616161615,879.1111111111111 755.1515151515151,879.1111111111111 764.6868686868686,879.1111111111111 774.2222222222222,879.1111111111111 783.7575757575758,879.1111111111111 793.2929292929292,879.1111111111111 802.8282828282828,879.1111111111111 812.3636363636363,879.1111111111111 821.8989898989898,879.1111111111111 831.4343434343433,879.1111111111111 840.969696969697,879.1111111111111 850.5050505050505,879.1111111111111 860.0404040404039,879.1111111111111 869.5757575757575,879.1111111111111 879.111111111111,879.1111111111111 888.6464646464647,879.1111111111111" fill="none" stroke="rgba(0,0,255,0.75)" stroke-width="11.327999999999996"/></g><g><polyline data-points="3.989898989898992,-3.8888888888888884 4.090909090909092,-3.8888888888888884 4.191919191919193,-3.8888888888888884 4.292929292929293,-3.8888888888888884 4.393939393939394,-3.8888888888888884 4.494949494949497,-3.8888888888888884 4.595959595959597,-3.8888888888888884 4.696969696969697,-3.8888888888888884 4.7979797979797985,-3.8888888888888884 4.898989898989901,-3.8888888888888884 5.000000000000002,-3.98989898989899" data-type="line" data-label="" points="888.6464646464647,879.1111111111111 898.181818181818,879.1111111111111 907.7171717171716,879.1111111111111 917.2525252525251,879.1111111111111 926.7878787878785,879.1111111111111 936.3232323232323,879.1111111111111 945.8585858585857,879.1111111111111 955.3939393939393,879.1111111111111 964.9292929292927,879.1111111111111 974.4646464646464,879.1111111111111 984,888.6464646464647" fill="none" stroke="rgba(255,0,0,0.75)" stroke-width="11.327999999999996"/></g><g><rect data-type="rect" data-label="" data-x="0" data-y="0" x="40.000000000000114" y="40.000000000000284" width="943.9999999999997" height="943.9999999999998" fill="none" stroke="gray" stroke-width="0.010593220338983056"/></g><g><rect data-type="rect" data-label="" data-x="0" data-y="0" x="40.000000000000114" y="40.000000000000284" width="943.9999999999997" height="943.9999999999998" fill="none" stroke="rgba(15, 23, 42, 0.8)" stroke-width="0.010593220338983056"/></g><circle data-type="circle" data-label="" data-x="-0.05050505050505001" data-y="0.5555555555555567" cx="507.2323232323232" cy="459.5555555555556" r="14.159999999999995" fill="rgba(0,0,0,0.3)" stroke="black" stroke-width="0.010593220338983056"/><circle data-type="circle" data-label="" data-x="-1.2626262626262625" data-y="3.989898989898992" cx="392.80808080808083" cy="135.35353535353545" r="14.159999999999995" fill="rgba(0,0,0,0.3)" stroke="black" stroke-width="0.010593220338983056"/><circle data-type="circle" data-label="" data-x="0.7575757575757579" data-y="-3.98989898989899" cx="583.5151515151515" cy="888.6464646464647" r="14.159999999999995" fill="rgba(0,0,0,0.3)" stroke="black" stroke-width="0.010593220338983056"/><circle data-type="circle" data-label="" data-x="3.989898989898992" data-y="-3.8888888888888884" cx="888.6464646464647" cy="879.1111111111111" r="14.159999999999995" fill="rgba(0,0,0,0.3)" stroke="black" stroke-width="0.010593220338983056"/><g id="crosshair" style="display: none"><line id="crosshair-h" y1="0" y2="1024" stroke="#666" stroke-width="0.5"/><line id="crosshair-v" x1="0" x2="1024" stroke="#666" stroke-width="0.5"/><text id="coordinates" font-family="monospace" font-size="12" fill="#666"></text></g><script><![CDATA[
              document.currentScript.parentElement.addEventListener('mousemove', (e) => {
                const svg = e.currentTarget;
                const rect = svg.getBoundingClientRect();
                const x = e.clientX - rect.left;
                const y = e.clientY - rect.top;
                const crosshair = svg.getElementById('crosshair');
                const h = svg.getElementById('crosshair-h');
                const v = svg.getElementById('crosshair-v');
                const coords = svg.getElementById('coordinates');
                
                crosshair.style.display = 'block';
                h.setAttribute('x1', '0');
                h.setAttribute('x2', '1024');
                h.setAttribute('y1', y);
                h.setAttribute('y2', y);
                v.setAttribute('x1', x);
                v.setAttribute('x2', x);
                v.setAttribute('y1', '0');
                v.setAttribute('y2', '1024');

                // Calculate real coordinates using inverse transformation
                const matrix = {"a":94.39999999999996,"c":0,"e":511.99999999999994,"b":0,"d":-94.39999999999996,"f":512.0000000000001};
                // Manually invert and apply the affine transform
                // Since we only use translate and scale, we can directly compute:
                // x' = (x - tx) / sx
                // y' = (y - ty) / sy
                const sx = matrix.a;
                const sy = matrix.d;
                const tx = matrix.e; 
                const ty = matrix.f;
                const realPoint = {
                  x: (x - tx) / sx,
                  y: (y - ty) / sy // Flip y back since we used negative scale
                }
                
                coords.textContent = `(${realPoint.x.toFixed(2)}, ${realPoint.y.toFixed(2)})`;
                coords.setAttribute('x', (x + 5).toString());
                coords.setAttribute('y', (y - 5).toString());
              });
              document.currentScript.parentElement.addEventListener('mouseleave', () => {
                document.currentScript.parentElement.getElementById('crosshair').style.display = 'none';
              });
            ]]></script></svg>