<svg width="1024" height="1024" viewBox="0 0 1024 1024" xmlns="http://www.w3.org/2000/svg"><rect width="100%" height="100%" fill="white"/><g><circle data-type="point" data-label="conn_000" data-x="-5" data-y="1.24" cx="40.000000000000114" cy="394.9440000000002" r="14.16" fill="blue"/></g><g><circle data-type="point" data-label="conn_000" data-x="5" data-y="-3.62" cx="983.9999999999998" cy="853.7280000000001" r="14.16" fill="red"/></g><g><circle data-type="point" data-label="conn_001" data-x="-5" data-y="2.2600000000000002" cx="40.000000000000114" cy="298.6560000000002" r="14.16" fill="blue"/></g><g><circle data-type="point" data-label="conn_001" data-x="5" data-y="3.58" cx="983.9999999999998" cy="174.04800000000023" r="14.16" fill="red"/></g><g><circle data-type="point" data-label="conn_002" data-x="-0.14" data-y="5" cx="498.78399999999993" cy="40.000000000000284" r="14.16" fill="blue"/></g><g><circle data-type="point" data-label="conn_002" data-x="-5" data-y="-4.1" cx="40.000000000000114" cy="899.04" r="14.16" fill="blue"/></g><g><circle data-type="point" data-label="conn_003" data-x="5" data-y="0.48" cx="983.9999999999998" cy="466.6880000000001" r="14.16" fill="red"/></g><g><circle data-type="point" data-label="conn_003" data-x="-5" data-y="-4.48" cx="40.000000000000114" cy="934.912" r="14.16" fill="blue"/></g><g><circle data-type="point" data-label="conn_004" data-x="5" data-y="-3.24" cx="983.9999999999998" cy="817.856" r="14.16" fill="blue"/></g><g><circle data-type="point" data-label="conn_004" data-x="-5" data-y="0.4" cx="40.000000000000114" cy="474.2400000000001" r="14.16" fill="blue"/></g><g><circle data-type="point" data-label="conn_005" data-x="3.9" data-y="-5" cx="880.1599999999999" cy="984" r="14.16" fill="blue"/></g><g><circle data-type="point" data-label="conn_005" data-x="-4.2" data-y="5" cx="115.5200000000001" cy="40.000000000000284" r="14.16" fill="blue"/></g><g><circle data-type="point" data-label="conn_006" data-x="-3.48" data-y="-5" cx="183.48800000000006" cy="984" r="14.16" fill="red"/></g><g><circle data-type="point" data-label="conn_006" data-x="-2.6" data-y="5" cx="266.56000000000006" cy="40.000000000000284" r="14.16" fill="blue"/></g><g><polyline data-points="5.000000000000002,0.4545454545454551 4.898989898989901,0.3535353535353544 4.7979797979797985,0.2525252525252529 4.696969696969697,0.1515151515151522 4.595959595959597,0.050505050505051545 4.494949494949497,-0.05050505050505001 4.393939393939394,-0.15151515151515066 4.292929292929293,-0.2525252525252522 4.191919191919193,-0.35353535353535287 4.090909090909092,-0.4545454545454544 3.989898989898992,-0.555555555555555 3.8888888888888893,-0.6565656565656557 3.7878787878787885,-0.7575757575757572 3.6868686868686877,-0.8585858585858579 3.5858585858585874,-0.9595959595959596 3.4848484848484866,-1.0606060606060603 3.383838383838384,-1.1616161616161613 3.2828282828282833,-1.2626262626262625 3.181818181818183,-1.363636363636363 3.080808080808082,-1.4646464646464643 2.9797979797979806,-1.5656565656565653 2.87878787878788,-1.6666666666666665 2.7777777777777786,-1.7676767676767675 2.676767676767678,-1.8686868686868683 2.575757575757577,-1.9696969696969693 2.4747474747474754,-2.07070707070707 2.373737373737375,-2.1717171717171713 2.2727272727272734,-2.2727272727272725 2.1717171717171726,-2.3737373737373733 2.070707070707072,-2.474747474747474 1.9696969696969702,-2.5757575757575752 1.8686868686868696,-2.6767676767676765 1.767676767676768,-2.7777777777777777 1.6666666666666674,-2.8787878787878785 1.5656565656565666,-2.9797979797979792 1.4646464646464652,-3.0808080808080804 1.3636363636363644,-3.1818181818181817 1.262626262626263,-3.2828282828282824 1.1616161616161622,-3.383838383838383 1.0606060606060617,-3.484848484848485 0.9595959595959602,-3.5858585858585856 0.8585858585858596,-3.6868686868686864 0.7575757575757579,-3.7878787878787876 0.6565656565656574,-3.8888888888888884 0.5555555555555567,-3.98989898989899 0.4545454545454551,-3.98989898989899 0.3535353535353544,-3.98989898989899 0.2525252525252529,-3.98989898989899 0.1515151515151522,-3.98989898989899 0.050505050505051545,-3.98989898989899 -0.05050505050505001,-3.98989898989899 -0.15151515151515066,-3.98989898989899 -0.2525252525252522,-3.98989898989899 -0.35353535353535287,-3.98989898989899 -0.4545454545454544,-3.98989898989899 -0.555555555555555,-3.98989898989899 -0.6565656565656557,-3.98989898989899 -0.7575757575757572,-3.98989898989899 -0.8585858585858579,-3.98989898989899 -0.9595959595959596,-3.98989898989899 -1.0606060606060603,-3.98989898989899 -1.1616161616161613,-3.98989898989899 -1.2626262626262625,-3.98989898989899 -1.363636363636363,-3.98989898989899 -1.4646464646464643,-3.98989898989899 -1.5656565656565653,-3.98989898989899 -1.6666666666666665,-3.98989898989899 -1.7676767676767675,-3.98989898989899 -1.8686868686868683,-3.98989898989899 -1.9696969696969693,-3.98989898989899 -2.07070707070707,-3.98989898989899 -2.1717171717171713,-3.98989898989899 -2.2727272727272725,-3.98989898989899 -2.3737373737373733,-3.98989898989899 -2.474747474747474,-3.98989898989899 -2.5757575757575752,-3.98989898989899 -2.6767676767676765,-3.98989898989899 -2.7777777777777777,-3.98989898989899 -2.8787878787878785,-3.98989898989899 -2.9797979797979792,-3.98989898989899 -3.0808080808080804,-3.98989898989899 -3.1818181818181817,-3.98989898989899 -3.2828282828282824,-3.98989898989899 -3.383838383838383,-3.98989898989899 -3.484848484848485,-3.98989898989899 -3.5858585858585856,-3.98989898989899 -3.6868686868686864,-3.98989898989899 -3.7878787878787876,-3.98989898989899" data-type="line" data-label="" points="984,469.0909090909092 974.4646464646464,478.6262626262627 964.9292929292927,488.1616161616163 955.3939393939393,497.69696969696975 945.8585858585857,507.23232323232327 936.3232323232323,516.7676767676768 926.7878787878785,526.3030303030304 917.2525252525251,535.838383838384 907.7171717171716,545.3737373737374 898.181818181818,554.909090909091 888.6464646464647,564.4444444444445 879.111111111111,573.979797979798 869.5757575757575,583.5151515151516 860.0404040404039,593.0505050505051 850.5050505050505,602.5858585858587 840.969696969697,612.1212121212121 831.4343434343433,621.6565656565657 821.8989898989898,631.1919191919193 812.3636363636363,640.7272727272727 802.8282828282828,650.2626262626263 793.2929292929292,659.7979797979798 783.7575757575758,669.3333333333334 774.2222222222222,678.8686868686868 764.6868686868686,688.4040404040404 755.1515151515151,697.939393939394 745.6161616161615,707.4747474747475 736.0808080808081,717.010101010101 726.5454545454545,726.5454545454545 717.0101010101009,736.0808080808081 707.4747474747475,745.6161616161615 697.9393939393939,755.1515151515151 688.4040404040404,764.6868686868687 678.8686868686868,774.2222222222222 669.3333333333333,783.7575757575758 659.7979797979798,793.2929292929292 650.2626262626262,802.8282828282828 640.7272727272727,812.3636363636363 631.1919191919192,821.8989898989898 621.6565656565656,831.4343434343434 612.1212121212121,840.969696969697 602.5858585858585,850.5050505050505 593.0505050505051,860.0404040404039 583.5151515151515,869.5757575757575 573.9797979797979,879.1111111111111 564.4444444444445,888.6464646464647 554.9090909090909,888.6464646464647 545.3737373737374,888.6464646464647 535.8383838383838,888.6464646464647 526.3030303030303,888.6464646464647 516.7676767676768,888.6464646464647 507.2323232323232,888.6464646464647 497.69696969696975,888.6464646464647 488.16161616161617,888.6464646464647 478.62626262626264,888.6464646464647 469.09090909090907,888.6464646464647 459.55555555555554,888.6464646464647 450.0202020202021,888.6464646464647 440.4848484848485,888.6464646464647 430.949494949495,888.6464646464647 421.4141414141414,888.6464646464647 411.8787878787879,888.6464646464647 402.34343434343435,888.6464646464647 392.80808080808083,888.6464646464647 383.2727272727273,888.6464646464647 373.7373737373738,888.6464646464647 364.2020202020202,888.6464646464647 354.6666666666667,888.6464646464647 345.13131313131316,888.6464646464647 335.59595959595964,888.6464646464647 326.0606060606061,888.6464646464647 316.5252525252526,888.6464646464647 306.9898989898991,888.6464646464647 297.4545454545455,888.6464646464647 287.91919191919203,888.6464646464647 278.38383838383845,888.6464646464647 268.84848484848493,888.6464646464647 259.3131313131314,888.6464646464647 249.77777777777783,888.6464646464647 240.2424242424243,888.6464646464647 230.70707070707084,888.6464646464647 221.17171717171726,888.6464646464647 211.63636363636374,888.6464646464647 202.10101010101022,888.6464646464647 192.5656565656567,888.6464646464647 183.03030303030312,888.6464646464647 173.4949494949496,888.6464646464647 163.95959595959607,888.6464646464647 154.42424242424255,888.6464646464647" fill="none" stroke="rgba(255,0,0,0.75)" stroke-width="11.327999999999996"/></g><g><polyline data-points="-3.7878787878787876,-3.98989898989899 -3.8888888888888884,-4.090909090909091 -3.98989898989899,-4.191919191919193 -4.090909090909091,-4.292929292929293 -4.191919191919193,-4.393939393939394 -4.292929292929293,-4.494949494949496 -4.393939393939394,-4.494949494949496 -4.494949494949496,-4.494949494949496 -4.595959595959596,-4.494949494949496 -4.696969696969697,-4.494949494949496 -4.7979797979797985,-4.494949494949496 -4.898989898989899,-4.494949494949496 -5.000000000000001,-4.494949494949496" data-type="line" data-label="" points="154.42424242424255,888.6464646464647 144.88888888888903,898.1818181818181 135.35353535353545,907.7171717171718 125.81818181818193,917.2525252525252 116.28282828282829,926.7878787878788 106.74747474747483,936.3232323232323 97.21212121212136,936.3232323232323 87.67676767676772,936.3232323232323 78.14141414141426,936.3232323232323 68.60606060606068,936.3232323232323 59.07070707070716,936.3232323232323 49.53535353535369,936.3232323232323 40.00000000000006,936.3232323232323" fill="none" stroke="rgba(0,0,255,0.75)" stroke-width="11.327999999999996"/></g><g><polyline data-points="3.989898989898992,-5.000000000000001 3.8888888888888893,-4.898989898989899 3.7878787878787885,-4.7979797979797985 3.6868686868686877,-4.696969696969697 3.5858585858585874,-4.595959595959596 3.4848484848484866,-4.494949494949496 3.383838383838384,-4.393939393939394 3.2828282828282833,-4.292929292929293 3.181818181818183,-4.191919191919193 3.080808080808082,-4.090909090909091 2.9797979797979806,-3.98989898989899 2.87878787878788,-3.8888888888888884 2.7777777777777786,-3.7878787878787876 2.676767676767678,-3.6868686868686864 2.575757575757577,-3.5858585858585856 2.4747474747474754,-3.484848484848485 2.373737373737375,-3.383838383838383 2.2727272727272734,-3.2828282828282824 2.1717171717171726,-3.1818181818181817 2.070707070707072,-3.0808080808080804 1.9696969696969702,-2.9797979797979792 1.8686868686868696,-2.8787878787878785 1.767676767676768,-2.7777777777777777 1.6666666666666674,-2.6767676767676765 1.5656565656565666,-2.5757575757575752 1.4646464646464652,-2.474747474747474 1.3636363636363644,-2.3737373737373733 1.262626262626263,-2.2727272727272725 1.1616161616161622,-2.1717171717171713 1.0606060606060617,-2.07070707070707 0.9595959595959602,-1.9696969696969693 0.8585858585858596,-1.8686868686868683 0.7575757575757579,-1.7676767676767675 0.6565656565656574,-1.6666666666666665 0.5555555555555567,-1.5656565656565653 0.4545454545454551,-1.4646464646464643 0.3535353535353544,-1.363636363636363 0.2525252525252529,-1.2626262626262625 0.1515151515151522,-1.1616161616161613 0.050505050505051545,-1.0606060606060603 -0.05050505050505001,-0.9595959595959596 -0.15151515151515066,-0.8585858585858579 -0.2525252525252522,-0.7575757575757572 -0.35353535353535287,-0.6565656565656557 -0.4545454545454544,-0.555555555555555 -0.555555555555555,-0.4545454545454544 -0.6565656565656557,-0.35353535353535287 -0.7575757575757572,-0.2525252525252522 -0.8585858585858579,-0.15151515151515066 -0.9595959595959596,-0.05050505050505001 -1.0606060606060603,0.050505050505051545 -1.1616161616161613,0.1515151515151522 -1.2626262626262625,0.2525252525252529 -1.363636363636363,0.3535353535353544 -1.4646464646464643,0.4545454545454551 -1.5656565656565653,0.5555555555555567 -1.6666666666666665,0.6565656565656574 -1.7676767676767675,0.7575757575757579 -1.8686868686868683,0.8585858585858596 -1.9696969696969693,0.9595959595959602 -2.07070707070707,1.0606060606060617 -2.1717171717171713,1.1616161616161622 -2.2727272727272725,1.262626262626263 -2.3737373737373733,1.3636363636363644 -2.474747474747474,1.4646464646464652 -2.5757575757575752,1.5656565656565666 -2.6767676767676765,1.6666666666666674 -2.7777777777777777,1.767676767676768 -2.8787878787878785,1.8686868686868696 -2.9797979797979792,1.9696969696969702 -3.0808080808080804,2.070707070707072 -3.1818181818181817,2.1717171717171726 -3.2828282828282824,2.2727272727272734 -3.383838383838383,2.373737373737375 -3.484848484848485,2.4747474747474754 -3.5858585858585856,2.575757575757577 -3.6868686868686864,2.676767676767678 -3.7878787878787876,2.7777777777777786 -3.8888888888888884,2.87878787878788 -3.98989898989899,2.9797979797979806 -4.090909090909091,3.080808080808082 -4.191919191919193,3.181818181818183 -4.292929292929293,3.2828282828282833 -4.292929292929293,3.383838383838384 -4.292929292929293,3.4848484848484866 -4.292929292929293,3.5858585858585874 -4.292929292929293,3.6868686868686877 -4.292929292929293,3.7878787878787885 -4.292929292929293,3.8888888888888893 -4.292929292929293,3.989898989898992 -4.292929292929293,4.090909090909092 -4.292929292929293,4.191919191919193 -4.292929292929293,4.292929292929293 -4.292929292929293,4.393939393939394 -4.292929292929293,4.494949494949497 -4.292929292929293,4.595959595959597 -4.292929292929293,4.696969696969697 -4.292929292929293,4.7979797979797985 -4.292929292929293,4.898989898989901 -4.292929292929293,5.000000000000002" data-type="line" data-label="" points="888.6464646464647,984 879.111111111111,974.4646464646464 869.5757575757575,964.9292929292928 860.0404040404039,955.3939393939394 850.5050505050505,945.8585858585858 840.969696969697,936.3232323232323 831.4343434343433,926.7878787878788 821.8989898989898,917.2525252525252 812.3636363636363,907.7171717171718 802.8282828282828,898.1818181818181 793.2929292929292,888.6464646464647 783.7575757575758,879.1111111111111 774.2222222222222,869.5757575757575 764.6868686868686,860.0404040404039 755.1515151515151,850.5050505050505 745.6161616161615,840.969696969697 736.0808080808081,831.4343434343434 726.5454545454545,821.8989898989898 717.0101010101009,812.3636363636363 707.4747474747475,802.8282828282828 697.9393939393939,793.2929292929292 688.4040404040404,783.7575757575758 678.8686868686868,774.2222222222222 669.3333333333333,764.6868686868687 659.7979797979798,755.1515151515151 650.2626262626262,745.6161616161615 640.7272727272727,736.0808080808081 631.1919191919192,726.5454545454545 621.6565656565656,717.010101010101 612.1212121212121,707.4747474747475 602.5858585858585,697.939393939394 593.0505050505051,688.4040404040404 583.5151515151515,678.8686868686868 573.9797979797979,669.3333333333334 564.4444444444445,659.7979797979798 554.9090909090909,650.2626262626263 545.3737373737374,640.7272727272727 535.8383838383838,631.1919191919193 526.3030303030303,621.6565656565657 516.7676767676768,612.1212121212121 507.2323232323232,602.5858585858587 497.69696969696975,593.0505050505051 488.16161616161617,583.5151515151516 478.62626262626264,573.979797979798 469.09090909090907,564.4444444444445 459.55555555555554,554.909090909091 450.0202020202021,545.3737373737374 440.4848484848485,535.838383838384 430.949494949495,526.3030303030304 421.4141414141414,516.7676767676768 411.8787878787879,507.23232323232327 402.34343434343435,497.69696969696975 392.80808080808083,488.1616161616163 383.2727272727273,478.6262626262627 373.7373737373738,469.0909090909092 364.2020202020202,459.5555555555556 354.6666666666667,450.0202020202021 345.13131313131316,440.4848484848486 335.59595959595964,430.94949494949503 326.0606060606061,421.4141414141415 316.5252525252526,411.87878787878793 306.9898989898991,402.3434343434344 297.4545454545455,392.80808080808094 287.91919191919203,383.27272727272737 278.38383838383845,373.73737373737384 268.84848484848493,364.2020202020203 259.3131313131314,354.66666666666674 249.77777777777783,345.1313131313133 240.2424242424243,335.5959595959597 230.70707070707084,326.06060606060623 221.17171717171726,316.5252525252526 211.63636363636374,306.9898989898991 202.10101010101022,297.4545454545456 192.5656565656567,287.91919191919203 183.03030303030312,278.38383838383857 173.4949494949496,268.84848484848493 163.95959595959607,259.3131313131314 154.42424242424255,249.77777777777794 144.88888888888903,240.24242424242436 135.35353535353545,230.70707070707084 125.81818181818193,221.17171717171726 116.28282828282829,211.63636363636374 106.74747474747483,202.10101010101027 106.74747474747483,192.56565656565675 106.74747474747483,183.03030303030312 106.74747474747483,173.4949494949496 106.74747474747483,163.95959595959613 106.74747474747483,154.4242424242426 106.74747474747483,144.88888888888908 106.74747474747483,135.35353535353545 106.74747474747483,125.81818181818198 106.74747474747483,116.28282828282846 106.74747474747483,106.747474747475 106.74747474747483,97.21212121212153 106.74747474747483,87.67676767676778 106.74747474747483,78.14141414141432 106.74747474747483,68.60606060606085 106.74747474747483,59.07070707070733 106.74747474747483,49.53535353535369 106.74747474747483,40.000000000000114" fill="none" stroke="rgba(0,0,255,0.75)" stroke-width="11.327999999999996"/></g><g><polyline data-points="-5.000000000000001,2.2727272727272734 -4.898989898989899,2.373737373737375 -4.7979797979797985,2.4747474747474754 -4.696969696969697,2.4747474747474754 -4.595959595959596,2.4747474747474754 -4.494949494949496,2.4747474747474754 -4.393939393939394,2.4747474747474754 -4.292929292929293,2.4747474747474754 -4.191919191919193,2.4747474747474754 -4.090909090909091,2.4747474747474754 -3.98989898989899,2.4747474747474754" data-type="line" data-label="" points="40.00000000000006,297.4545454545456 49.53535353535369,287.91919191919203 59.07070707070716,278.38383838383857 68.60606060606068,278.38383838383857 78.14141414141426,278.38383838383857 87.67676767676772,278.38383838383857 97.21212121212136,278.38383838383857 106.74747474747483,278.38383838383857 116.28282828282829,278.38383838383857 125.81818181818193,278.38383838383857 135.35353535353545,278.38383838383857" fill="none" stroke="rgba(0,0,255,0.75)" stroke-width="11.327999999999996"/></g><g><polyline data-points="-3.98989898989899,2.4747474747474754 -3.8888888888888884,2.575757575757577 -3.7878787878787876,2.676767676767678 -3.6868686868686864,2.7777777777777786 -3.5858585858585856,2.87878787878788 -3.484848484848485,2.9797979797979806 -3.383838383838383,3.080808080808082 -3.2828282828282824,3.181818181818183 -3.1818181818181817,3.2828282828282833 -3.0808080808080804,3.383838383838384 -2.9797979797979792,3.4848484848484866 -2.8787878787878785,3.5858585858585874 -2.7777777777777777,3.5858585858585874 -2.6767676767676765,3.5858585858585874 -2.5757575757575752,3.5858585858585874 -2.474747474747474,3.5858585858585874 -2.3737373737373733,3.5858585858585874 -2.2727272727272725,3.5858585858585874 -2.1717171717171713,3.5858585858585874 -2.07070707070707,3.5858585858585874 -1.9696969696969693,3.5858585858585874 -1.8686868686868683,3.5858585858585874 -1.7676767676767675,3.5858585858585874 -1.6666666666666665,3.5858585858585874 -1.5656565656565653,3.5858585858585874 -1.4646464646464643,3.5858585858585874 -1.363636363636363,3.5858585858585874 -1.2626262626262625,3.5858585858585874 -1.1616161616161613,3.5858585858585874 -1.0606060606060603,3.5858585858585874 -0.9595959595959596,3.5858585858585874 -0.8585858585858579,3.5858585858585874 -0.7575757575757572,3.5858585858585874 -0.6565656565656557,3.5858585858585874 -0.555555555555555,3.5858585858585874 -0.4545454545454544,3.5858585858585874 -0.35353535353535287,3.5858585858585874 -0.2525252525252522,3.5858585858585874 -0.15151515151515066,3.5858585858585874 -0.05050505050505001,3.5858585858585874 0.050505050505051545,3.5858585858585874 0.1515151515151522,3.5858585858585874 0.2525252525252529,3.5858585858585874 0.3535353535353544,3.5858585858585874 0.4545454545454551,3.5858585858585874 0.5555555555555567,3.5858585858585874 0.6565656565656574,3.5858585858585874 0.7575757575757579,3.5858585858585874 0.8585858585858596,3.5858585858585874 0.9595959595959602,3.5858585858585874 1.0606060606060617,3.5858585858585874 1.1616161616161622,3.5858585858585874 1.262626262626263,3.5858585858585874 1.3636363636363644,3.5858585858585874 1.4646464646464652,3.5858585858585874 1.5656565656565666,3.5858585858585874 1.6666666666666674,3.5858585858585874 1.767676767676768,3.5858585858585874 1.8686868686868696,3.5858585858585874 1.9696969696969702,3.5858585858585874 2.070707070707072,3.5858585858585874 2.1717171717171726,3.5858585858585874 2.2727272727272734,3.5858585858585874 2.373737373737375,3.5858585858585874 2.4747474747474754,3.5858585858585874 2.575757575757577,3.5858585858585874 2.676767676767678,3.5858585858585874 2.7777777777777786,3.5858585858585874 2.87878787878788,3.5858585858585874 2.9797979797979806,3.5858585858585874 3.080808080808082,3.5858585858585874 3.181818181818183,3.5858585858585874 3.2828282828282833,3.5858585858585874 3.383838383838384,3.5858585858585874 3.4848484848484866,3.5858585858585874 3.5858585858585874,3.5858585858585874 3.6868686868686877,3.5858585858585874 3.7878787878787885,3.5858585858585874 3.8888888888888893,3.5858585858585874 3.989898989898992,3.5858585858585874 4.090909090909092,3.5858585858585874 4.191919191919193,3.5858585858585874 4.292929292929293,3.5858585858585874 4.393939393939394,3.5858585858585874 4.494949494949497,3.5858585858585874 4.595959595959597,3.5858585858585874 4.696969696969697,3.5858585858585874 4.7979797979797985,3.5858585858585874 4.898989898989901,3.5858585858585874 5.000000000000002,3.5858585858585874" data-type="line" data-label="" points="135.35353535353545,278.38383838383857 144.88888888888903,268.84848484848493 154.42424242424255,259.3131313131314 163.95959595959607,249.77777777777794 173.4949494949496,240.24242424242436 183.03030303030312,230.70707070707084 192.5656565656567,221.17171717171726 202.10101010101022,211.63636363636374 211.63636363636374,202.10101010101027 221.17171717171726,192.56565656565675 230.70707070707084,183.03030303030312 240.2424242424243,173.4949494949496 249.77777777777783,173.4949494949496 259.3131313131314,173.4949494949496 268.84848484848493,173.4949494949496 278.38383838383845,173.4949494949496 287.91919191919203,173.4949494949496 297.4545454545455,173.4949494949496 306.9898989898991,173.4949494949496 316.5252525252526,173.4949494949496 326.0606060606061,173.4949494949496 335.59595959595964,173.4949494949496 345.13131313131316,173.4949494949496 354.6666666666667,173.4949494949496 364.2020202020202,173.4949494949496 373.7373737373738,173.4949494949496 383.2727272727273,173.4949494949496 392.80808080808083,173.4949494949496 402.34343434343435,173.4949494949496 411.8787878787879,173.4949494949496 421.4141414141414,173.4949494949496 430.949494949495,173.4949494949496 440.4848484848485,173.4949494949496 450.0202020202021,173.4949494949496 459.55555555555554,173.4949494949496 469.09090909090907,173.4949494949496 478.62626262626264,173.4949494949496 488.16161616161617,173.4949494949496 497.69696969696975,173.4949494949496 507.2323232323232,173.4949494949496 516.7676767676768,173.4949494949496 526.3030303030303,173.4949494949496 535.8383838383838,173.4949494949496 545.3737373737374,173.4949494949496 554.9090909090909,173.4949494949496 564.4444444444445,173.4949494949496 573.9797979797979,173.4949494949496 583.5151515151515,173.4949494949496 593.0505050505051,173.4949494949496 602.5858585858585,173.4949494949496 612.1212121212121,173.4949494949496 621.6565656565656,173.4949494949496 631.1919191919192,173.4949494949496 640.7272727272727,173.4949494949496 650.2626262626262,173.4949494949496 659.7979797979798,173.4949494949496 669.3333333333333,173.4949494949496 678.8686868686868,173.4949494949496 688.4040404040404,173.4949494949496 697.9393939393939,173.4949494949496 707.4747474747475,173.4949494949496 717.0101010101009,173.4949494949496 726.5454545454545,173.4949494949496 736.0808080808081,173.4949494949496 745.6161616161615,173.4949494949496 755.1515151515151,173.4949494949496 764.6868686868686,173.4949494949496 774.2222222222222,173.4949494949496 783.7575757575758,173.4949494949496 793.2929292929292,173.4949494949496 802.8282828282828,173.4949494949496 812.3636363636363,173.4949494949496 821.8989898989898,173.4949494949496 831.4343434343433,173.4949494949496 840.969696969697,173.4949494949496 850.5050505050505,173.4949494949496 860.0404040404039,173.4949494949496 869.5757575757575,173.4949494949496 879.111111111111,173.4949494949496 888.6464646464647,173.4949494949496 898.181818181818,173.4949494949496 907.7171717171716,173.4949494949496 917.2525252525251,173.4949494949496 926.7878787878785,173.4949494949496 936.3232323232323,173.4949494949496 945.8585858585857,173.4949494949496 955.3939393939393,173.4949494949496 964.9292929292927,173.4949494949496 974.4646464646464,173.4949494949496 984,173.4949494949496" fill="none" stroke="rgba(255,0,0,0.75)" stroke-width="11.327999999999996"/></g><g><polyline data-points="5.000000000000002,-3.2828282828282824 4.898989898989901,-3.1818181818181817 4.7979797979797985,-3.0808080808080804 4.696969696969697,-2.9797979797979792 4.595959595959597,-2.8787878787878785 4.494949494949497,-2.7777777777777777 4.393939393939394,-2.6767676767676765 4.292929292929293,-2.5757575757575752 4.191919191919193,-2.474747474747474 4.090909090909092,-2.3737373737373733 3.989898989898992,-2.2727272727272725 3.8888888888888893,-2.1717171717171713 3.7878787878787885,-2.07070707070707 3.6868686868686877,-1.9696969696969693 3.5858585858585874,-1.8686868686868683 3.4848484848484866,-1.7676767676767675 3.383838383838384,-1.6666666666666665 3.2828282828282833,-1.5656565656565653 3.181818181818183,-1.4646464646464643 3.080808080808082,-1.363636363636363 2.9797979797979806,-1.2626262626262625 2.87878787878788,-1.1616161616161613 2.7777777777777786,-1.0606060606060603 2.676767676767678,-0.9595959595959596 2.575757575757577,-0.8585858585858579 2.4747474747474754,-0.7575757575757572 2.373737373737375,-0.6565656565656557 2.2727272727272734,-0.555555555555555 2.1717171717171726,-0.4545454545454544 2.070707070707072,-0.35353535353535287 1.9696969696969702,-0.2525252525252522 1.8686868686868696,-0.15151515151515066 1.767676767676768,-0.05050505050505001 1.6666666666666674,0.050505050505051545 1.5656565656565666,0.1515151515151522 1.4646464646464652,0.2525252525252529 1.3636363636363644,0.3535353535353544 1.262626262626263,0.4545454545454551 1.1616161616161622,0.4545454545454551 1.0606060606060617,0.4545454545454551 0.9595959595959602,0.4545454545454551 0.8585858585858596,0.4545454545454551 0.7575757575757579,0.4545454545454551 0.6565656565656574,0.4545454545454551 0.5555555555555567,0.4545454545454551 0.4545454545454551,0.4545454545454551 0.3535353535353544,0.4545454545454551 0.2525252525252529,0.4545454545454551 0.1515151515151522,0.4545454545454551 0.050505050505051545,0.4545454545454551 -0.05050505050505001,0.4545454545454551 -0.15151515151515066,0.4545454545454551 -0.2525252525252522,0.4545454545454551 -0.35353535353535287,0.4545454545454551 -0.4545454545454544,0.4545454545454551 -0.555555555555555,0.4545454545454551 -0.6565656565656557,0.4545454545454551 -0.7575757575757572,0.4545454545454551 -0.8585858585858579,0.4545454545454551 -0.9595959595959596,0.4545454545454551" data-type="line" data-label="" points="984,821.8989898989898 974.4646464646464,812.3636363636363 964.9292929292927,802.8282828282828 955.3939393939393,793.2929292929292 945.8585858585857,783.7575757575758 936.3232323232323,774.2222222222222 926.7878787878785,764.6868686868687 917.2525252525251,755.1515151515151 907.7171717171716,745.6161616161615 898.181818181818,736.0808080808081 888.6464646464647,726.5454545454545 879.111111111111,717.010101010101 869.5757575757575,707.4747474747475 860.0404040404039,697.939393939394 850.5050505050505,688.4040404040404 840.969696969697,678.8686868686868 831.4343434343433,669.3333333333334 821.8989898989898,659.7979797979798 812.3636363636363,650.2626262626263 802.8282828282828,640.7272727272727 793.2929292929292,631.1919191919193 783.7575757575758,621.6565656565657 774.2222222222222,612.1212121212121 764.6868686868686,602.5858585858587 755.1515151515151,593.0505050505051 745.6161616161615,583.5151515151516 736.0808080808081,573.979797979798 726.5454545454545,564.4444444444445 717.0101010101009,554.909090909091 707.4747474747475,545.3737373737374 697.9393939393939,535.838383838384 688.4040404040404,526.3030303030304 678.8686868686868,516.7676767676768 669.3333333333333,507.23232323232327 659.7979797979798,497.69696969696975 650.2626262626262,488.1616161616163 640.7272727272727,478.6262626262627 631.1919191919192,469.0909090909092 621.6565656565656,469.0909090909092 612.1212121212121,469.0909090909092 602.5858585858585,469.0909090909092 593.0505050505051,469.0909090909092 583.5151515151515,469.0909090909092 573.9797979797979,469.0909090909092 564.4444444444445,469.0909090909092 554.9090909090909,469.0909090909092 545.3737373737374,469.0909090909092 535.8383838383838,469.0909090909092 526.3030303030303,469.0909090909092 516.7676767676768,469.0909090909092 507.2323232323232,469.0909090909092 497.69696969696975,469.0909090909092 488.16161616161617,469.0909090909092 478.62626262626264,469.0909090909092 469.09090909090907,469.0909090909092 459.55555555555554,469.0909090909092 450.0202020202021,469.0909090909092 440.4848484848485,469.0909090909092 430.949494949495,469.0909090909092 421.4141414141414,469.0909090909092" fill="none" stroke="rgba(0,0,255,0.75)" stroke-width="11.327999999999996"/></g><g><polyline data-points="-0.9595959595959596,0.4545454545454551 -1.0606060606060603,0.4545454545454551 -1.1616161616161613,0.4545454545454551 -1.2626262626262625,0.4545454545454551 -1.363636363636363,0.4545454545454551 -1.4646464646464643,0.4545454545454551 -1.5656565656565653,0.4545454545454551 -1.6666666666666665,0.4545454545454551 -1.7676767676767675,0.4545454545454551 -1.8686868686868683,0.4545454545454551 -1.9696969696969693,0.4545454545454551 -2.07070707070707,0.4545454545454551 -2.1717171717171713,0.4545454545454551 -2.2727272727272725,0.4545454545454551 -2.3737373737373733,0.4545454545454551 -2.474747474747474,0.4545454545454551 -2.5757575757575752,0.4545454545454551 -2.6767676767676765,0.4545454545454551 -2.7777777777777777,0.4545454545454551 -2.8787878787878785,0.4545454545454551 -2.9797979797979792,0.4545454545454551 -3.0808080808080804,0.4545454545454551 -3.1818181818181817,0.4545454545454551 -3.2828282828282824,0.4545454545454551 -3.383838383838383,0.4545454545454551 -3.484848484848485,0.4545454545454551 -3.5858585858585856,0.4545454545454551 -3.6868686868686864,0.4545454545454551 -3.7878787878787876,0.4545454545454551 -3.8888888888888884,0.4545454545454551 -3.98989898989899,0.4545454545454551" data-type="line" data-label="" points="421.4141414141414,469.0909090909092 411.8787878787879,469.0909090909092 402.34343434343435,469.0909090909092 392.80808080808083,469.0909090909092 383.2727272727273,469.0909090909092 373.7373737373738,469.0909090909092 364.2020202020202,469.0909090909092 354.6666666666667,469.0909090909092 345.13131313131316,469.0909090909092 335.59595959595964,469.0909090909092 326.0606060606061,469.0909090909092 316.5252525252526,469.0909090909092 306.9898989898991,469.0909090909092 297.4545454545455,469.0909090909092 287.91919191919203,469.0909090909092 278.38383838383845,469.0909090909092 268.84848484848493,469.0909090909092 259.3131313131314,469.0909090909092 249.77777777777783,469.0909090909092 240.2424242424243,469.0909090909092 230.70707070707084,469.0909090909092 221.17171717171726,469.0909090909092 211.63636363636374,469.0909090909092 202.10101010101022,469.0909090909092 192.5656565656567,469.0909090909092 183.03030303030312,469.0909090909092 173.4949494949496,469.0909090909092 163.95959595959607,469.0909090909092 154.42424242424255,469.0909090909092 144.88888888888903,469.0909090909092 135.35353535353545,469.0909090909092" fill="none" stroke="rgba(255,0,0,0.75)" stroke-width="11.327999999999996"/></g><g><polyline data-points="-3.98989898989899,0.4545454545454551 -4.090909090909091,0.4545454545454551 -4.191919191919193,0.4545454545454551 -4.292929292929293,0.4545454545454551 -4.393939393939394,0.4545454545454551 -4.494949494949496,0.4545454545454551 -4.595959595959596,0.4545454545454551 -4.696969696969697,0.4545454545454551 -4.7979797979797985,0.4545454545454551 -4.898989898989899,0.4545454545454551 -5.000000000000001,0.4545454545454551" data-type="line" data-label="" points="135.35353535353545,469.0909090909092 125.81818181818193,469.0909090909092 116.28282828282829,469.0909090909092 106.74747474747483,469.0909090909092 97.21212121212136,469.0909090909092 87.67676767676772,469.0909090909092 78.14141414141426,469.0909090909092 68.60606060606068,469.0909090909092 59.07070707070716,469.0909090909092 49.53535353535369,469.0909090909092 40.00000000000006,469.0909090909092" fill="none" stroke="rgba(0,0,255,0.75)" stroke-width="11.327999999999996"/></g><g><polyline data-points="-3.484848484848485,-5.000000000000001 -3.484848484848485,-4.898989898989899 -3.484848484848485,-4.7979797979797985 -3.484848484848485,-4.696969696969697 -3.484848484848485,-4.595959595959596 -3.5858585858585856,-4.494949494949496 -3.6868686868686864,-4.393939393939394 -3.7878787878787876,-4.292929292929293 -3.8888888888888884,-4.191919191919193 -3.98989898989899,-4.090909090909091 -4.090909090909091,-3.98989898989899 -3.98989898989899,-3.8888888888888884 -3.8888888888888884,-3.7878787878787876 -3.7878787878787876,-3.6868686868686864 -3.6868686868686864,-3.5858585858585856 -3.5858585858585856,-3.484848484848485 -3.484848484848485,-3.383838383838383 -3.383838383838383,-3.2828282828282824 -3.2828282828282824,-3.1818181818181817 -3.1818181818181817,-3.0808080808080804 -3.0808080808080804,-2.9797979797979792 -2.9797979797979792,-2.8787878787878785 -2.8787878787878785,-2.7777777777777777 -2.7777777777777777,-2.6767676767676765 -2.6767676767676765,-2.5757575757575752 -2.6767676767676765,-2.474747474747474 -2.6767676767676765,-2.3737373737373733 -2.6767676767676765,-2.2727272727272725 -2.6767676767676765,-2.1717171717171713 -2.6767676767676765,-2.07070707070707 -2.6767676767676765,-1.9696969696969693 -2.6767676767676765,-1.8686868686868683 -2.6767676767676765,-1.7676767676767675 -2.6767676767676765,-1.6666666666666665 -2.6767676767676765,-1.5656565656565653 -2.6767676767676765,-1.4646464646464643 -2.6767676767676765,-1.363636363636363 -2.6767676767676765,-1.2626262626262625 -2.6767676767676765,-1.1616161616161613 -2.6767676767676765,-1.0606060606060603 -2.6767676767676765,-0.9595959595959596 -2.6767676767676765,-0.8585858585858579 -2.6767676767676765,-0.7575757575757572 -2.6767676767676765,-0.6565656565656557 -2.6767676767676765,-0.555555555555555 -2.6767676767676765,-0.4545454545454544 -2.6767676767676765,-0.35353535353535287 -2.6767676767676765,-0.2525252525252522 -2.6767676767676765,-0.15151515151515066 -2.6767676767676765,-0.05050505050505001 -2.6767676767676765,0.050505050505051545" data-type="line" data-label="" points="183.03030303030312,984 183.03030303030312,974.4646464646464 183.03030303030312,964.9292929292928 183.03030303030312,955.3939393939394 183.03030303030312,945.8585858585858 173.4949494949496,936.3232323232323 163.95959595959607,926.7878787878788 154.42424242424255,917.2525252525252 144.88888888888903,907.7171717171718 135.35353535353545,898.1818181818181 125.81818181818193,888.6464646464647 135.35353535353545,879.1111111111111 144.88888888888903,869.5757575757575 154.42424242424255,860.0404040404039 163.95959595959607,850.5050505050505 173.4949494949496,840.969696969697 183.03030303030312,831.4343434343434 192.5656565656567,821.8989898989898 202.10101010101022,812.3636363636363 211.63636363636374,802.8282828282828 221.17171717171726,793.2929292929292 230.70707070707084,783.7575757575758 240.2424242424243,774.2222222222222 249.77777777777783,764.6868686868687 259.3131313131314,755.1515151515151 259.3131313131314,745.6161616161615 259.3131313131314,736.0808080808081 259.3131313131314,726.5454545454545 259.3131313131314,717.010101010101 259.3131313131314,707.4747474747475 259.3131313131314,697.939393939394 259.3131313131314,688.4040404040404 259.3131313131314,678.8686868686868 259.3131313131314,669.3333333333334 259.3131313131314,659.7979797979798 259.3131313131314,650.2626262626263 259.3131313131314,640.7272727272727 259.3131313131314,631.1919191919193 259.3131313131314,621.6565656565657 259.3131313131314,612.1212121212121 259.3131313131314,602.5858585858587 259.3131313131314,593.0505050505051 259.3131313131314,583.5151515151516 259.3131313131314,573.979797979798 259.3131313131314,564.4444444444445 259.3131313131314,554.909090909091 259.3131313131314,545.3737373737374 259.3131313131314,535.838383838384 259.3131313131314,526.3030303030304 259.3131313131314,516.7676767676768 259.3131313131314,507.23232323232327" fill="none" stroke="rgba(255,0,0,0.75)" stroke-width="11.327999999999996"/></g><g><polyline data-points="-2.6767676767676765,0.050505050505051545 -2.6767676767676765,0.1515151515151522 -2.6767676767676765,0.2525252525252529 -2.6767676767676765,0.3535353535353544 -2.6767676767676765,0.4545454545454551 -2.6767676767676765,0.5555555555555567 -2.6767676767676765,0.6565656565656574 -2.6767676767676765,0.7575757575757579 -2.6767676767676765,0.8585858585858596 -2.6767676767676765,0.9595959595959602 -2.6767676767676765,1.0606060606060617 -2.6767676767676765,1.1616161616161622" data-type="line" data-label="" points="259.3131313131314,507.23232323232327 259.3131313131314,497.69696969696975 259.3131313131314,488.1616161616163 259.3131313131314,478.6262626262627 259.3131313131314,469.0909090909092 259.3131313131314,459.5555555555556 259.3131313131314,450.0202020202021 259.3131313131314,440.4848484848486 259.3131313131314,430.94949494949503 259.3131313131314,421.4141414141415 259.3131313131314,411.87878787878793 259.3131313131314,402.3434343434344" fill="none" stroke="rgba(0,0,255,0.75)" stroke-width="11.327999999999996"/></g><g><polyline data-points="-2.6767676767676765,1.1616161616161622 -2.6767676767676765,1.262626262626263 -2.6767676767676765,1.3636363636363644 -2.6767676767676765,1.4646464646464652 -2.6767676767676765,1.5656565656565666 -2.6767676767676765,1.6666666666666674 -2.6767676767676765,1.767676767676768 -2.6767676767676765,1.8686868686868696 -2.6767676767676765,1.9696969696969702 -2.6767676767676765,2.070707070707072 -2.6767676767676765,2.1717171717171726 -2.6767676767676765,2.2727272727272734 -2.6767676767676765,2.373737373737375 -2.6767676767676765,2.4747474747474754 -2.6767676767676765,2.575757575757577 -2.6767676767676765,2.676767676767678 -2.6767676767676765,2.7777777777777786 -2.6767676767676765,2.87878787878788 -2.6767676767676765,2.9797979797979806 -2.6767676767676765,3.080808080808082 -2.6767676767676765,3.181818181818183" data-type="line" data-label="" points="259.3131313131314,402.3434343434344 259.3131313131314,392.80808080808094 259.3131313131314,383.27272727272737 259.3131313131314,373.73737373737384 259.3131313131314,364.2020202020203 259.3131313131314,354.66666666666674 259.3131313131314,345.1313131313133 259.3131313131314,335.5959595959597 259.3131313131314,326.06060606060623 259.3131313131314,316.5252525252526 259.3131313131314,306.9898989898991 259.3131313131314,297.4545454545456 259.3131313131314,287.91919191919203 259.3131313131314,278.38383838383857 259.3131313131314,268.84848484848493 259.3131313131314,259.3131313131314 259.3131313131314,249.77777777777794 259.3131313131314,240.24242424242436 259.3131313131314,230.70707070707084 259.3131313131314,221.17171717171726 259.3131313131314,211.63636363636374" fill="none" stroke="rgba(255,0,0,0.75)" stroke-width="11.327999999999996"/></g><g><polyline data-points="-2.6767676767676765,3.181818181818183 -2.6767676767676765,3.2828282828282833 -2.6767676767676765,3.383838383838384 -2.6767676767676765,3.4848484848484866 -2.6767676767676765,3.5858585858585874 -2.6767676767676765,3.6868686868686877 -2.6767676767676765,3.7878787878787885 -2.6767676767676765,3.8888888888888893 -2.6767676767676765,3.989898989898992 -2.6767676767676765,4.090909090909092 -2.6767676767676765,4.191919191919193 -2.6767676767676765,4.292929292929293 -2.6767676767676765,4.393939393939394 -2.6767676767676765,4.494949494949497 -2.6767676767676765,4.595959595959597 -2.6767676767676765,4.696969696969697 -2.6767676767676765,4.7979797979797985 -2.6767676767676765,4.898989898989901 -2.6767676767676765,5.000000000000002" data-type="line" data-label="" points="259.3131313131314,211.63636363636374 259.3131313131314,202.10101010101027 259.3131313131314,192.56565656565675 259.3131313131314,183.03030303030312 259.3131313131314,173.4949494949496 259.3131313131314,163.95959595959613 259.3131313131314,154.4242424242426 259.3131313131314,144.88888888888908 259.3131313131314,135.35353535353545 259.3131313131314,125.81818181818198 259.3131313131314,116.28282828282846 259.3131313131314,106.747474747475 259.3131313131314,97.21212121212153 259.3131313131314,87.67676767676778 259.3131313131314,78.14141414141432 259.3131313131314,68.60606060606085 259.3131313131314,59.07070707070733 259.3131313131314,49.53535353535369 259.3131313131314,40.000000000000114" fill="none" stroke="rgba(0,0,255,0.75)" stroke-width="11.327999999999996"/></g><g><polyline data-points="-5.000000000000001,1.262626262626263 -4.898989898989899,1.1616161616161622 -4.7979797979797985,1.0606060606060617 -4.696969696969697,0.9595959595959602 -4.595959595959596,0.8585858585858596 -4.494949494949496,0.7575757575757579 -4.393939393939394,0.7575757575757579 -4.292929292929293,0.7575757575757579 -4.191919191919193,0.7575757575757579 -4.090909090909091,0.7575757575757579 -3.98989898989899,0.7575757575757579 -3.8888888888888884,0.6565656565656574 -3.7878787878787876,0.5555555555555567 -3.6868686868686864,0.4545454545454551 -3.5858585858585856,0.3535353535353544 -3.484848484848485,0.2525252525252529 -3.383838383838383,0.1515151515151522 -3.2828282828282824,0.050505050505051545 -3.1818181818181817,-0.05050505050505001 -3.0808080808080804,-0.15151515151515066 -2.9797979797979792,-0.2525252525252522 -2.8787878787878785,-0.35353535353535287 -2.7777777777777777,-0.4545454545454544 -2.6767676767676765,-0.555555555555555 -2.5757575757575752,-0.6565656565656557 -2.474747474747474,-0.7575757575757572 -2.3737373737373733,-0.8585858585858579 -2.2727272727272725,-0.9595959595959596 -2.1717171717171713,-1.0606060606060603 -2.07070707070707,-1.1616161616161613 -1.9696969696969693,-1.2626262626262625 -1.8686868686868683,-1.363636363636363 -1.7676767676767675,-1.4646464646464643 -1.6666666666666665,-1.5656565656565653 -1.5656565656565653,-1.6666666666666665 -1.4646464646464643,-1.7676767676767675 -1.363636363636363,-1.8686868686868683 -1.2626262626262625,-1.9696969696969693 -1.1616161616161613,-2.07070707070707 -1.0606060606060603,-2.1717171717171713 -0.9595959595959596,-2.2727272727272725 -0.8585858585858579,-2.3737373737373733 -0.7575757575757572,-2.474747474747474 -0.6565656565656557,-2.5757575757575752 -0.555555555555555,-2.6767676767676765 -0.4545454545454544,-2.7777777777777777 -0.35353535353535287,-2.8787878787878785 -0.2525252525252522,-2.9797979797979792 -0.15151515151515066,-3.0808080808080804 -0.05050505050505001,-3.1818181818181817 0.050505050505051545,-3.2828282828282824 0.1515151515151522,-3.383838383838383 0.2525252525252529,-3.484848484848485 0.3535353535353544,-3.5858585858585856 0.4545454545454551,-3.6868686868686864 0.5555555555555567,-3.6868686868686864 0.6565656565656574,-3.6868686868686864 0.7575757575757579,-3.6868686868686864 0.8585858585858596,-3.6868686868686864 0.9595959595959602,-3.6868686868686864 1.0606060606060617,-3.6868686868686864 1.1616161616161622,-3.6868686868686864 1.262626262626263,-3.6868686868686864 1.3636363636363644,-3.6868686868686864 1.4646464646464652,-3.6868686868686864 1.5656565656565666,-3.6868686868686864 1.6666666666666674,-3.6868686868686864 1.767676767676768,-3.6868686868686864 1.8686868686868696,-3.6868686868686864 1.9696969696969702,-3.6868686868686864 2.070707070707072,-3.6868686868686864 2.1717171717171726,-3.6868686868686864" data-type="line" data-label="" points="40.00000000000006,392.80808080808094 49.53535353535369,402.3434343434344 59.07070707070716,411.87878787878793 68.60606060606068,421.4141414141415 78.14141414141426,430.94949494949503 87.67676767676772,440.4848484848486 97.21212121212136,440.4848484848486 106.74747474747483,440.4848484848486 116.28282828282829,440.4848484848486 125.81818181818193,440.4848484848486 135.35353535353545,440.4848484848486 144.88888888888903,450.0202020202021 154.42424242424255,459.5555555555556 163.95959595959607,469.0909090909092 173.4949494949496,478.6262626262627 183.03030303030312,488.1616161616163 192.5656565656567,497.69696969696975 202.10101010101022,507.23232323232327 211.63636363636374,516.7676767676768 221.17171717171726,526.3030303030304 230.70707070707084,535.838383838384 240.2424242424243,545.3737373737374 249.77777777777783,554.909090909091 259.3131313131314,564.4444444444445 268.84848484848493,573.979797979798 278.38383838383845,583.5151515151516 287.91919191919203,593.0505050505051 297.4545454545455,602.5858585858587 306.9898989898991,612.1212121212121 316.5252525252526,621.6565656565657 326.0606060606061,631.1919191919193 335.59595959595964,640.7272727272727 345.13131313131316,650.2626262626263 354.6666666666667,659.7979797979798 364.2020202020202,669.3333333333334 373.7373737373738,678.8686868686868 383.2727272727273,688.4040404040404 392.80808080808083,697.939393939394 402.34343434343435,707.4747474747475 411.8787878787879,717.010101010101 421.4141414141414,726.5454545454545 430.949494949495,736.0808080808081 440.4848484848485,745.6161616161615 450.0202020202021,755.1515151515151 459.55555555555554,764.6868686868687 469.09090909090907,774.2222222222222 478.62626262626264,783.7575757575758 488.16161616161617,793.2929292929292 497.69696969696975,802.8282828282828 507.2323232323232,812.3636363636363 516.7676767676768,821.8989898989898 526.3030303030303,831.4343434343434 535.8383838383838,840.969696969697 545.3737373737374,850.5050505050505 554.9090909090909,860.0404040404039 564.4444444444445,860.0404040404039 573.9797979797979,860.0404040404039 583.5151515151515,860.0404040404039 593.0505050505051,860.0404040404039 602.5858585858585,860.0404040404039 612.1212121212121,860.0404040404039 621.6565656565656,860.0404040404039 631.1919191919192,860.0404040404039 640.7272727272727,860.0404040404039 650.2626262626262,860.0404040404039 659.7979797979798,860.0404040404039 669.3333333333333,860.0404040404039 678.8686868686868,860.0404040404039 688.4040404040404,860.0404040404039 697.9393939393939,860.0404040404039 707.4747474747475,860.0404040404039 717.0101010101009,860.0404040404039" fill="none" stroke="rgba(0,0,255,0.75)" stroke-width="11.327999999999996"/></g><g><polyline data-points="2.1717171717171726,-3.6868686868686864 2.2727272727272734,-3.6868686868686864 2.373737373737375,-3.6868686868686864 2.4747474747474754,-3.6868686868686864 2.575757575757577,-3.6868686868686864 2.676767676767678,-3.6868686868686864 2.7777777777777786,-3.6868686868686864 2.87878787878788,-3.6868686868686864 2.9797979797979806,-3.6868686868686864 3.080808080808082,-3.6868686868686864 3.181818181818183,-3.6868686868686864 3.2828282828282833,-3.6868686868686864 3.383838383838384,-3.6868686868686864 3.4848484848484866,-3.6868686868686864 3.5858585858585874,-3.6868686868686864 3.6868686868686877,-3.6868686868686864 3.7878787878787885,-3.6868686868686864 3.8888888888888893,-3.6868686868686864 3.989898989898992,-3.6868686868686864 4.090909090909092,-3.6868686868686864 4.191919191919193,-3.6868686868686864 4.292929292929293,-3.6868686868686864 4.393939393939394,-3.6868686868686864 4.494949494949497,-3.6868686868686864 4.595959595959597,-3.6868686868686864 4.696969696969697,-3.6868686868686864 4.7979797979797985,-3.6868686868686864 4.898989898989901,-3.6868686868686864 5.000000000000002,-3.6868686868686864" data-type="line" data-label="" points="717.0101010101009,860.0404040404039 726.5454545454545,860.0404040404039 736.0808080808081,860.0404040404039 745.6161616161615,860.0404040404039 755.1515151515151,860.0404040404039 764.6868686868686,860.0404040404039 774.2222222222222,860.0404040404039 783.7575757575758,860.0404040404039 793.2929292929292,860.0404040404039 802.8282828282828,860.0404040404039 812.3636363636363,860.0404040404039 821.8989898989898,860.0404040404039 831.4343434343433,860.0404040404039 840.969696969697,860.0404040404039 850.5050505050505,860.0404040404039 860.0404040404039,860.0404040404039 869.5757575757575,860.0404040404039 879.111111111111,860.0404040404039 888.6464646464647,860.0404040404039 898.181818181818,860.0404040404039 907.7171717171716,860.0404040404039 917.2525252525251,860.0404040404039 926.7878787878785,860.0404040404039 936.3232323232323,860.0404040404039 945.8585858585857,860.0404040404039 955.3939393939393,860.0404040404039 964.9292929292927,860.0404040404039 974.4646464646464,860.0404040404039 984,860.0404040404039" fill="none" stroke="rgba(255,0,0,0.75)" stroke-width="11.327999999999996"/></g><g><polyline data-points="-0.15151515151515066,5.000000000000002 -0.2525252525252522,4.898989898989901 -0.35353535353535287,4.7979797979797985 -0.4545454545454544,4.696969696969697 -0.555555555555555,4.595959595959597 -0.6565656565656557,4.494949494949497 -0.7575757575757572,4.393939393939394 -0.8585858585858579,4.292929292929293 -0.9595959595959596,4.191919191919193 -1.0606060606060603,4.090909090909092 -1.1616161616161613,3.989898989898992 -1.2626262626262625,3.8888888888888893 -1.363636363636363,3.7878787878787885 -1.4646464646464643,3.6868686868686877 -1.5656565656565653,3.5858585858585874 -1.6666666666666665,3.4848484848484866 -1.7676767676767675,3.383838383838384 -1.8686868686868683,3.2828282828282833 -1.9696969696969693,3.181818181818183 -2.07070707070707,3.080808080808082 -2.1717171717171713,2.9797979797979806 -2.2727272727272725,2.87878787878788 -2.3737373737373733,2.7777777777777786 -2.474747474747474,2.676767676767678 -2.5757575757575752,2.575757575757577 -2.6767676767676765,2.575757575757577 -2.7777777777777777,2.575757575757577 -2.8787878787878785,2.575757575757577 -2.9797979797979792,2.575757575757577 -3.0808080808080804,2.575757575757577" data-type="line" data-label="" points="497.69696969696975,40.000000000000114 488.16161616161617,49.53535353535369 478.62626262626264,59.07070707070733 469.09090909090907,68.60606060606085 459.55555555555554,78.14141414141432 450.0202020202021,87.67676767676778 440.4848484848485,97.21212121212153 430.949494949495,106.747474747475 421.4141414141414,116.28282828282846 411.8787878787879,125.81818181818198 402.34343434343435,135.35353535353545 392.80808080808083,144.88888888888908 383.2727272727273,154.4242424242426 373.7373737373738,163.95959595959613 364.2020202020202,173.4949494949496 354.6666666666667,183.03030303030312 345.13131313131316,192.56565656565675 335.59595959595964,202.10101010101027 326.0606060606061,211.63636363636374 316.5252525252526,221.17171717171726 306.9898989898991,230.70707070707084 297.4545454545455,240.24242424242436 287.91919191919203,249.77777777777794 278.38383838383845,259.3131313131314 268.84848484848493,268.84848484848493 259.3131313131314,268.84848484848493 249.77777777777783,268.84848484848493 240.2424242424243,268.84848484848493 230.70707070707084,268.84848484848493 221.17171717171726,268.84848484848493" fill="none" stroke="rgba(0,0,255,0.75)" stroke-width="11.327999999999996"/></g><g><polyline data-points="-3.0808080808080804,2.575757575757577 -3.1818181818181817,2.4747474747474754 -3.2828282828282824,2.373737373737375 -3.383838383838383,2.2727272727272734 -3.484848484848485,2.1717171717171726 -3.5858585858585856,2.070707070707072 -3.6868686868686864,1.9696969696969702 -3.7878787878787876,1.8686868686868696 -3.8888888888888884,1.767676767676768 -3.98989898989899,1.6666666666666674 -4.090909090909091,1.5656565656565666 -4.191919191919193,1.4646464646464652 -4.292929292929293,1.3636363636363644 -4.292929292929293,1.262626262626263 -4.292929292929293,1.1616161616161622 -4.292929292929293,1.0606060606060617 -4.292929292929293,0.9595959595959602 -4.292929292929293,0.8585858585858596 -4.292929292929293,0.7575757575757579 -4.292929292929293,0.6565656565656574 -4.292929292929293,0.5555555555555567 -4.292929292929293,0.4545454545454551 -4.292929292929293,0.3535353535353544 -4.292929292929293,0.2525252525252529 -4.292929292929293,0.1515151515151522 -4.292929292929293,0.050505050505051545 -4.292929292929293,-0.05050505050505001 -4.292929292929293,-0.15151515151515066 -4.292929292929293,-0.2525252525252522 -4.292929292929293,-0.35353535353535287 -4.292929292929293,-0.4545454545454544 -4.292929292929293,-0.555555555555555 -4.292929292929293,-0.6565656565656557 -4.292929292929293,-0.7575757575757572 -4.292929292929293,-0.8585858585858579 -4.292929292929293,-0.9595959595959596 -4.292929292929293,-1.0606060606060603 -4.292929292929293,-1.1616161616161613 -4.292929292929293,-1.2626262626262625 -4.292929292929293,-1.363636363636363 -4.292929292929293,-1.4646464646464643 -4.292929292929293,-1.5656565656565653 -4.292929292929293,-1.6666666666666665 -4.292929292929293,-1.7676767676767675 -4.292929292929293,-1.8686868686868683 -4.292929292929293,-1.9696969696969693 -4.292929292929293,-2.07070707070707 -4.292929292929293,-2.1717171717171713 -4.292929292929293,-2.2727272727272725 -4.292929292929293,-2.3737373737373733 -4.292929292929293,-2.474747474747474 -4.292929292929293,-2.5757575757575752 -4.292929292929293,-2.6767676767676765 -4.292929292929293,-2.7777777777777777 -4.292929292929293,-2.8787878787878785 -4.292929292929293,-2.9797979797979792 -4.292929292929293,-3.0808080808080804 -4.191919191919193,-3.1818181818181817 -4.090909090909091,-3.2828282828282824 -3.98989898989899,-3.383838383838383" data-type="line" data-label="" points="221.17171717171726,268.84848484848493 211.63636363636374,278.38383838383857 202.10101010101022,287.91919191919203 192.5656565656567,297.4545454545456 183.03030303030312,306.9898989898991 173.4949494949496,316.5252525252526 163.95959595959607,326.06060606060623 154.42424242424255,335.5959595959597 144.88888888888903,345.1313131313133 135.35353535353545,354.66666666666674 125.81818181818193,364.2020202020203 116.28282828282829,373.73737373737384 106.74747474747483,383.27272727272737 106.74747474747483,392.80808080808094 106.74747474747483,402.3434343434344 106.74747474747483,411.87878787878793 106.74747474747483,421.4141414141415 106.74747474747483,430.94949494949503 106.74747474747483,440.4848484848486 106.74747474747483,450.0202020202021 106.74747474747483,459.5555555555556 106.74747474747483,469.0909090909092 106.74747474747483,478.6262626262627 106.74747474747483,488.1616161616163 106.74747474747483,497.69696969696975 106.74747474747483,507.23232323232327 106.74747474747483,516.7676767676768 106.74747474747483,526.3030303030304 106.74747474747483,535.838383838384 106.74747474747483,545.3737373737374 106.74747474747483,554.909090909091 106.74747474747483,564.4444444444445 106.74747474747483,573.979797979798 106.74747474747483,583.5151515151516 106.74747474747483,593.0505050505051 106.74747474747483,602.5858585858587 106.74747474747483,612.1212121212121 106.74747474747483,621.6565656565657 106.74747474747483,631.1919191919193 106.74747474747483,640.7272727272727 106.74747474747483,650.2626262626263 106.74747474747483,659.7979797979798 106.74747474747483,669.3333333333334 106.74747474747483,678.8686868686868 106.74747474747483,688.4040404040404 106.74747474747483,697.939393939394 106.74747474747483,707.4747474747475 106.74747474747483,717.010101010101 106.74747474747483,726.5454545454545 106.74747474747483,736.0808080808081 106.74747474747483,745.6161616161615 106.74747474747483,755.1515151515151 106.74747474747483,764.6868686868687 106.74747474747483,774.2222222222222 106.74747474747483,783.7575757575758 106.74747474747483,793.2929292929292 106.74747474747483,802.8282828282828 116.28282828282829,812.3636363636363 125.81818181818193,821.8989898989898 135.35353535353545,831.4343434343434" fill="none" stroke="rgba(255,0,0,0.75)" stroke-width="11.327999999999996"/></g><g><polyline data-points="-3.98989898989899,-3.383838383838383 -4.090909090909091,-3.484848484848485 -4.191919191919193,-3.5858585858585856 -4.292929292929293,-3.6868686868686864 -4.393939393939394,-3.7878787878787876 -4.494949494949496,-3.8888888888888884 -4.595959595959596,-3.98989898989899 -4.696969696969697,-4.090909090909091 -4.7979797979797985,-4.090909090909091 -4.898989898989899,-4.090909090909091 -5.000000000000001,-4.090909090909091" data-type="line" data-label="" points="135.35353535353545,831.4343434343434 125.81818181818193,840.969696969697 116.28282828282829,850.5050505050505 106.74747474747483,860.0404040404039 97.21212121212136,869.5757575757575 87.67676767676772,879.1111111111111 78.14141414141426,888.6464646464647 68.60606060606068,898.1818181818181 59.07070707070716,898.1818181818181 49.53535353535369,898.1818181818181 40.00000000000006,898.1818181818181" fill="none" stroke="rgba(0,0,255,0.75)" stroke-width="11.327999999999996"/></g><g><rect data-type="rect" data-label="" data-x="0" data-y="0" x="40.000000000000114" y="40.000000000000284" width="943.9999999999997" height="943.9999999999998" fill="none" stroke="gray" stroke-width="0.010593220338983056"/></g><g><rect data-type="rect" data-label="" data-x="0" data-y="0" x="40.000000000000114" y="40.000000000000284" width="943.9999999999997" height="943.9999999999998" fill="none" stroke="rgba(15, 23, 42, 0.8)" stroke-width="0.010593220338983056"/></g><circle data-type="circle" data-label="" data-x="-3.7878787878787876" data-y="-3.98989898989899" cx="154.42424242424255" cy="888.6464646464647" r="14.159999999999995" fill="rgba(0,0,0,0.3)" stroke="black" stroke-width="0.010593220338983056"/><circle data-type="circle" data-label="" data-x="-3.98989898989899" data-y="2.4747474747474754" cx="135.35353535353545" cy="278.38383838383857" r="14.159999999999995" fill="rgba(0,0,0,0.3)" stroke="black" stroke-width="0.010593220338983056"/><circle data-type="circle" data-label="" data-x="-0.9595959595959596" data-y="0.4545454545454551" cx="421.4141414141414" cy="469.0909090909092" r="14.159999999999995" fill="rgba(0,0,0,0.3)" stroke="black" stroke-width="0.010593220338983056"/><circle data-type="circle" data-label="" data-x="-3.98989898989899" data-y="0.4545454545454551" cx="135.35353535353545" cy="469.0909090909092" r="14.159999999999995" fill="rgba(0,0,0,0.3)" stroke="black" stroke-width="0.010593220338983056"/><circle data-type="circle" data-label="" data-x="-2.6767676767676765" data-y="0.050505050505051545" cx="259.3131313131314" cy="507.23232323232327" r="14.159999999999995" fill="rgba(0,0,0,0.3)" stroke="black" stroke-width="0.010593220338983056"/><circle data-type="circle" data-label="" data-x="-2.6767676767676765" data-y="1.1616161616161622" cx="259.3131313131314" cy="402.3434343434344" r="14.159999999999995" fill="rgba(0,0,0,0.3)" stroke="black" stroke-width="0.010593220338983056"/><circle data-type="circle" data-label="" data-x="-2.6767676767676765" data-y="3.181818181818183" cx="259.3131313131314" cy="211.63636363636374" r="14.159999999999995" fill="rgba(0,0,0,0.3)" stroke="black" stroke-width="0.010593220338983056"/><circle data-type="circle" data-label="" data-x="2.1717171717171726" data-y="-3.6868686868686864" cx="717.0101010101009" cy="860.0404040404039" r="14.159999999999995" fill="rgba(0,0,0,0.3)" stroke="black" stroke-width="0.010593220338983056"/><circle data-type="circle" data-label="" data-x="-3.0808080808080804" data-y="2.575757575757577" cx="221.17171717171726" cy="268.84848484848493" r="14.159999999999995" fill="rgba(0,0,0,0.3)" stroke="black" stroke-width="0.010593220338983056"/><circle data-type="circle" data-label="" data-x="-3.98989898989899" data-y="-3.383838383838383" cx="135.35353535353545" cy="831.4343434343434" r="14.159999999999995" fill="rgba(0,0,0,0.3)" stroke="black" stroke-width="0.010593220338983056"/><g id="crosshair" style="display: none"><line id="crosshair-h" y1="0" y2="1024" stroke="#666" stroke-width="0.5"/><line id="crosshair-v" x1="0" x2="1024" stroke="#666" stroke-width="0.5"/><text id="coordinates" font-family="monospace" font-size="12" fill="#666"></text></g><script><![CDATA[
              document.currentScript.parentElement.addEventListener('mousemove', (e) => {
                const svg = e.currentTarget;
                const rect = svg.getBoundingClientRect();
                const x = e.clientX - rect.left;
                const y = e.clientY - rect.top;
                const crosshair = svg.getElementById('crosshair');
                const h = svg.getElementById('crosshair-h');
                const v = svg.getElementById('crosshair-v');
                const coords = svg.getElementById('coordinates');
                
                crosshair.style.display = 'block';
                h.setAttribute('x1', '0');
                h.setAttribute('x2', '1024');
                h.setAttribute('y1', y);
                h.setAttribute('y2', y);
                v.setAttribute('x1', x);
                v.setAttribute('x2', x);
                v.setAttribute('y1', '0');
                v.setAttribute('y2', '1024');

                // Calculate real coordinates using inverse transformation
                const matrix = {"a":94.39999999999996,"c":0,"e":511.99999999999994,"b":0,"d":-94.39999999999996,"f":512.0000000000001};
                // Manually invert and apply the affine transform
                // Since we only use translate and scale, we can directly compute:
                // x' = (x - tx) / sx
                // y' = (y - ty) / sy
                const sx = matrix.a;
                const sy = matrix.d;
                const tx = matrix.e; 
                const ty = matrix.f;
                const realPoint = {
                  x: (x - tx) / sx,
                  y: (y - ty) / sy // Flip y back since we used negative scale
                }
                
                coords.textContent = `(${realPoint.x.toFixed(2)}, ${realPoint.y.toFixed(2)})`;
                coords.setAttribute('x', (x + 5).toString());
                coords.setAttribute('y', (y - 5).toString());
              });
              document.currentScript.parentElement.addEventListener('mouseleave', () => {
                document.currentScript.parentElement.getElementById('crosshair').style.display = 'none';
              });
            ]]></script></svg>