<svg width="1024" height="1024" viewBox="0 0 1024 1024" xmlns="http://www.w3.org/2000/svg"><rect width="100%" height="100%" fill="white"/><g><circle data-type="point" data-label="conn_000" data-x="2.46" data-y="-5" cx="744.2239999999998" cy="984" r="14.16" fill="blue"/></g><g><circle data-type="point" data-label="conn_000" data-x="4.04" data-y="5" cx="893.3759999999997" cy="40.000000000000284" r="14.16" fill="red"/></g><g><circle data-type="point" data-label="conn_001" data-x="2.74" data-y="-5" cx="770.6559999999998" cy="984" r="14.16" fill="red"/></g><g><circle data-type="point" data-label="conn_001" data-x="-1.4000000000000001" data-y="5" cx="379.84" cy="40.000000000000284" r="14.16" fill="blue"/></g><g><circle data-type="point" data-label="conn_002" data-x="4.46" data-y="-5" cx="933.0239999999998" cy="984" r="14.16" fill="blue"/></g><g><circle data-type="point" data-label="conn_002" data-x="2.7" data-y="5" cx="766.8799999999999" cy="40.000000000000284" r="14.16" fill="blue"/></g><g><circle data-type="point" data-label="conn_003" data-x="-3.44" data-y="-5" cx="187.26400000000007" cy="984" r="14.16" fill="red"/></g><g><circle data-type="point" data-label="conn_003" data-x="-5" data-y="4.04" cx="40.000000000000114" cy="130.62400000000025" r="14.16" fill="blue"/></g><g><circle data-type="point" data-label="conn_004" data-x="-0.96" data-y="5" cx="421.376" cy="40.000000000000284" r="14.16" fill="red"/></g><g><circle data-type="point" data-label="conn_004" data-x="-3.02" data-y="-5" cx="226.91200000000003" cy="984" r="14.16" fill="blue"/></g><g><circle data-type="point" data-label="conn_005" data-x="4.46" data-y="-5" cx="933.0239999999998" cy="984" r="14.16" fill="red"/></g><g><circle data-type="point" data-label="conn_005" data-x="0.68" data-y="5" cx="576.1919999999999" cy="40.000000000000284" r="14.16" fill="blue"/></g><g><circle data-type="point" data-label="conn_006" data-x="5" data-y="-2.94" cx="983.9999999999998" cy="789.5360000000001" r="14.16" fill="red"/></g><g><circle data-type="point" data-label="conn_006" data-x="-5" data-y="1.6" cx="40.000000000000114" cy="360.96000000000015" r="14.16" fill="red"/></g><g><polyline data-points="4.494949494949497,-5.000000000000001 4.393939393939394,-4.898989898989899 4.292929292929293,-4.7979797979797985 4.191919191919193,-4.696969696969697 4.090909090909092,-4.595959595959596 3.989898989898992,-4.494949494949496 3.8888888888888893,-4.393939393939394 3.7878787878787885,-4.292929292929293 3.6868686868686877,-4.191919191919193 3.5858585858585874,-4.090909090909091 3.4848484848484866,-3.98989898989899 3.383838383838384,-3.8888888888888884 3.2828282828282833,-3.7878787878787876 3.181818181818183,-3.6868686868686864 3.080808080808082,-3.5858585858585856 2.9797979797979806,-3.484848484848485 2.87878787878788,-3.383838383838383 2.7777777777777786,-3.2828282828282824 2.7777777777777786,-3.1818181818181817 2.7777777777777786,-3.0808080808080804 2.7777777777777786,-2.9797979797979792 2.7777777777777786,-2.8787878787878785 2.7777777777777786,-2.7777777777777777 2.7777777777777786,-2.6767676767676765 2.7777777777777786,-2.5757575757575752 2.7777777777777786,-2.474747474747474 2.7777777777777786,-2.3737373737373733 2.7777777777777786,-2.2727272727272725 2.7777777777777786,-2.1717171717171713 2.7777777777777786,-2.07070707070707 2.7777777777777786,-1.9696969696969693 2.7777777777777786,-1.8686868686868683 2.7777777777777786,-1.7676767676767675 2.7777777777777786,-1.6666666666666665 2.7777777777777786,-1.5656565656565653 2.7777777777777786,-1.4646464646464643 2.7777777777777786,-1.363636363636363 2.7777777777777786,-1.2626262626262625 2.7777777777777786,-1.1616161616161613 2.7777777777777786,-1.0606060606060603 2.7777777777777786,-0.9595959595959596 2.7777777777777786,-0.8585858585858579 2.7777777777777786,-0.7575757575757572 2.7777777777777786,-0.6565656565656557 2.7777777777777786,-0.555555555555555 2.7777777777777786,-0.4545454545454544 2.7777777777777786,-0.35353535353535287 2.7777777777777786,-0.2525252525252522 2.7777777777777786,-0.15151515151515066 2.7777777777777786,-0.05050505050505001 2.7777777777777786,0.050505050505051545 2.7777777777777786,0.1515151515151522 2.7777777777777786,0.2525252525252529 2.7777777777777786,0.3535353535353544 2.7777777777777786,0.4545454545454551 2.7777777777777786,0.5555555555555567 2.7777777777777786,0.6565656565656574 2.7777777777777786,0.7575757575757579 2.7777777777777786,0.8585858585858596 2.7777777777777786,0.9595959595959602 2.7777777777777786,1.0606060606060617 2.7777777777777786,1.1616161616161622 2.7777777777777786,1.262626262626263 2.7777777777777786,1.3636363636363644 2.7777777777777786,1.4646464646464652 2.7777777777777786,1.5656565656565666 2.7777777777777786,1.6666666666666674 2.7777777777777786,1.767676767676768 2.7777777777777786,1.8686868686868696 2.7777777777777786,1.9696969696969702 2.7777777777777786,2.070707070707072 2.7777777777777786,2.1717171717171726 2.7777777777777786,2.2727272727272734 2.7777777777777786,2.373737373737375 2.7777777777777786,2.4747474747474754 2.7777777777777786,2.575757575757577 2.7777777777777786,2.676767676767678 2.7777777777777786,2.7777777777777786 2.7777777777777786,2.87878787878788 2.7777777777777786,2.9797979797979806 2.7777777777777786,3.080808080808082 2.7777777777777786,3.181818181818183 2.7777777777777786,3.2828282828282833 2.7777777777777786,3.383838383838384 2.7777777777777786,3.4848484848484866 2.7777777777777786,3.5858585858585874 2.7777777777777786,3.6868686868686877 2.7777777777777786,3.7878787878787885 2.7777777777777786,3.8888888888888893 2.7777777777777786,3.989898989898992 2.7777777777777786,4.090909090909092 2.7777777777777786,4.191919191919193 2.7777777777777786,4.292929292929293 2.7777777777777786,4.393939393939394 2.7777777777777786,4.494949494949497 2.7777777777777786,4.595959595959597 2.7777777777777786,4.696969696969697 2.7777777777777786,4.7979797979797985 2.7777777777777786,4.898989898989901 2.7777777777777786,5.000000000000002" data-type="line" data-label="" points="936.3232323232323,984 926.7878787878785,974.4646464646464 917.2525252525251,964.9292929292928 907.7171717171716,955.3939393939394 898.181818181818,945.8585858585858 888.6464646464647,936.3232323232323 879.111111111111,926.7878787878788 869.5757575757575,917.2525252525252 860.0404040404039,907.7171717171718 850.5050505050505,898.1818181818181 840.969696969697,888.6464646464647 831.4343434343433,879.1111111111111 821.8989898989898,869.5757575757575 812.3636363636363,860.0404040404039 802.8282828282828,850.5050505050505 793.2929292929292,840.969696969697 783.7575757575758,831.4343434343434 774.2222222222222,821.8989898989898 774.2222222222222,812.3636363636363 774.2222222222222,802.8282828282828 774.2222222222222,793.2929292929292 774.2222222222222,783.7575757575758 774.2222222222222,774.2222222222222 774.2222222222222,764.6868686868687 774.2222222222222,755.1515151515151 774.2222222222222,745.6161616161615 774.2222222222222,736.0808080808081 774.2222222222222,726.5454545454545 774.2222222222222,717.010101010101 774.2222222222222,707.4747474747475 774.2222222222222,697.939393939394 774.2222222222222,688.4040404040404 774.2222222222222,678.8686868686868 774.2222222222222,669.3333333333334 774.2222222222222,659.7979797979798 774.2222222222222,650.2626262626263 774.2222222222222,640.7272727272727 774.2222222222222,631.1919191919193 774.2222222222222,621.6565656565657 774.2222222222222,612.1212121212121 774.2222222222222,602.5858585858587 774.2222222222222,593.0505050505051 774.2222222222222,583.5151515151516 774.2222222222222,573.979797979798 774.2222222222222,564.4444444444445 774.2222222222222,554.909090909091 774.2222222222222,545.3737373737374 774.2222222222222,535.838383838384 774.2222222222222,526.3030303030304 774.2222222222222,516.7676767676768 774.2222222222222,507.23232323232327 774.2222222222222,497.69696969696975 774.2222222222222,488.1616161616163 774.2222222222222,478.6262626262627 774.2222222222222,469.0909090909092 774.2222222222222,459.5555555555556 774.2222222222222,450.0202020202021 774.2222222222222,440.4848484848486 774.2222222222222,430.94949494949503 774.2222222222222,421.4141414141415 774.2222222222222,411.87878787878793 774.2222222222222,402.3434343434344 774.2222222222222,392.80808080808094 774.2222222222222,383.27272727272737 774.2222222222222,373.73737373737384 774.2222222222222,364.2020202020203 774.2222222222222,354.66666666666674 774.2222222222222,345.1313131313133 774.2222222222222,335.5959595959597 774.2222222222222,326.06060606060623 774.2222222222222,316.5252525252526 774.2222222222222,306.9898989898991 774.2222222222222,297.4545454545456 774.2222222222222,287.91919191919203 774.2222222222222,278.38383838383857 774.2222222222222,268.84848484848493 774.2222222222222,259.3131313131314 774.2222222222222,249.77777777777794 774.2222222222222,240.24242424242436 774.2222222222222,230.70707070707084 774.2222222222222,221.17171717171726 774.2222222222222,211.63636363636374 774.2222222222222,202.10101010101027 774.2222222222222,192.56565656565675 774.2222222222222,183.03030303030312 774.2222222222222,173.4949494949496 774.2222222222222,163.95959595959613 774.2222222222222,154.4242424242426 774.2222222222222,144.88888888888908 774.2222222222222,135.35353535353545 774.2222222222222,125.81818181818198 774.2222222222222,116.28282828282846 774.2222222222222,106.747474747475 774.2222222222222,97.21212121212153 774.2222222222222,87.67676767676778 774.2222222222222,78.14141414141432 774.2222222222222,68.60606060606085 774.2222222222222,59.07070707070733 774.2222222222222,49.53535353535369 774.2222222222222,40.000000000000114" fill="none" stroke="rgba(0,0,255,0.75)" stroke-width="11.327999999999996"/></g><g><polyline data-points="-0.9595959595959596,5.000000000000002 -1.0606060606060603,4.898989898989901 -1.1616161616161613,4.7979797979797985 -1.2626262626262625,4.696969696969697 -1.363636363636363,4.595959595959597 -1.4646464646464643,4.494949494949497 -1.5656565656565653,4.393939393939394 -1.6666666666666665,4.292929292929293 -1.7676767676767675,4.191919191919193 -1.8686868686868683,4.090909090909092 -1.9696969696969693,3.989898989898992 -2.07070707070707,3.8888888888888893 -2.1717171717171713,3.7878787878787885 -2.2727272727272725,3.6868686868686877 -2.3737373737373733,3.5858585858585874 -2.474747474747474,3.4848484848484866 -2.5757575757575752,3.383838383838384 -2.6767676767676765,3.2828282828282833 -2.7777777777777777,3.181818181818183 -2.8787878787878785,3.080808080808082 -2.9797979797979792,2.9797979797979806 -3.0808080808080804,2.87878787878788 -3.0808080808080804,2.7777777777777786 -3.0808080808080804,2.676767676767678 -3.0808080808080804,2.575757575757577 -3.0808080808080804,2.4747474747474754 -3.0808080808080804,2.373737373737375 -3.0808080808080804,2.2727272727272734 -3.0808080808080804,2.1717171717171726 -3.0808080808080804,2.070707070707072 -3.0808080808080804,1.9696969696969702 -3.0808080808080804,1.8686868686868696 -3.0808080808080804,1.767676767676768 -3.0808080808080804,1.6666666666666674 -3.0808080808080804,1.5656565656565666 -3.0808080808080804,1.4646464646464652 -3.0808080808080804,1.3636363636363644 -3.0808080808080804,1.262626262626263 -3.0808080808080804,1.1616161616161622 -3.0808080808080804,1.0606060606060617 -3.0808080808080804,0.9595959595959602 -3.0808080808080804,0.8585858585858596 -3.0808080808080804,0.7575757575757579 -3.0808080808080804,0.6565656565656574 -3.0808080808080804,0.5555555555555567 -3.0808080808080804,0.4545454545454551 -3.0808080808080804,0.3535353535353544 -3.0808080808080804,0.2525252525252529 -3.0808080808080804,0.1515151515151522 -3.0808080808080804,0.050505050505051545 -3.0808080808080804,-0.05050505050505001 -3.0808080808080804,-0.15151515151515066 -3.0808080808080804,-0.2525252525252522 -3.0808080808080804,-0.35353535353535287 -3.0808080808080804,-0.4545454545454544 -3.0808080808080804,-0.555555555555555 -3.0808080808080804,-0.6565656565656557 -3.0808080808080804,-0.7575757575757572 -3.0808080808080804,-0.8585858585858579 -3.0808080808080804,-0.9595959595959596 -3.0808080808080804,-1.0606060606060603 -3.0808080808080804,-1.1616161616161613 -3.0808080808080804,-1.2626262626262625 -3.0808080808080804,-1.363636363636363 -3.0808080808080804,-1.4646464646464643 -3.0808080808080804,-1.5656565656565653 -3.0808080808080804,-1.6666666666666665 -3.0808080808080804,-1.7676767676767675 -3.0808080808080804,-1.8686868686868683 -3.0808080808080804,-1.9696969696969693 -3.0808080808080804,-2.07070707070707 -3.0808080808080804,-2.1717171717171713 -3.0808080808080804,-2.2727272727272725 -3.0808080808080804,-2.3737373737373733 -3.0808080808080804,-2.474747474747474 -3.0808080808080804,-2.5757575757575752 -3.0808080808080804,-2.6767676767676765 -3.0808080808080804,-2.7777777777777777 -3.0808080808080804,-2.8787878787878785 -3.0808080808080804,-2.9797979797979792 -3.0808080808080804,-3.0808080808080804 -3.0808080808080804,-3.1818181818181817 -3.0808080808080804,-3.2828282828282824 -3.0808080808080804,-3.383838383838383 -3.0808080808080804,-3.484848484848485 -3.0808080808080804,-3.5858585858585856 -3.0808080808080804,-3.6868686868686864 -3.0808080808080804,-3.7878787878787876 -3.0808080808080804,-3.8888888888888884 -3.0808080808080804,-3.98989898989899" data-type="line" data-label="" points="421.4141414141414,40.000000000000114 411.8787878787879,49.53535353535369 402.34343434343435,59.07070707070733 392.80808080808083,68.60606060606085 383.2727272727273,78.14141414141432 373.7373737373738,87.67676767676778 364.2020202020202,97.21212121212153 354.6666666666667,106.747474747475 345.13131313131316,116.28282828282846 335.59595959595964,125.81818181818198 326.0606060606061,135.35353535353545 316.5252525252526,144.88888888888908 306.9898989898991,154.4242424242426 297.4545454545455,163.95959595959613 287.91919191919203,173.4949494949496 278.38383838383845,183.03030303030312 268.84848484848493,192.56565656565675 259.3131313131314,202.10101010101027 249.77777777777783,211.63636363636374 240.2424242424243,221.17171717171726 230.70707070707084,230.70707070707084 221.17171717171726,240.24242424242436 221.17171717171726,249.77777777777794 221.17171717171726,259.3131313131314 221.17171717171726,268.84848484848493 221.17171717171726,278.38383838383857 221.17171717171726,287.91919191919203 221.17171717171726,297.4545454545456 221.17171717171726,306.9898989898991 221.17171717171726,316.5252525252526 221.17171717171726,326.06060606060623 221.17171717171726,335.5959595959597 221.17171717171726,345.1313131313133 221.17171717171726,354.66666666666674 221.17171717171726,364.2020202020203 221.17171717171726,373.73737373737384 221.17171717171726,383.27272727272737 221.17171717171726,392.80808080808094 221.17171717171726,402.3434343434344 221.17171717171726,411.87878787878793 221.17171717171726,421.4141414141415 221.17171717171726,430.94949494949503 221.17171717171726,440.4848484848486 221.17171717171726,450.0202020202021 221.17171717171726,459.5555555555556 221.17171717171726,469.0909090909092 221.17171717171726,478.6262626262627 221.17171717171726,488.1616161616163 221.17171717171726,497.69696969696975 221.17171717171726,507.23232323232327 221.17171717171726,516.7676767676768 221.17171717171726,526.3030303030304 221.17171717171726,535.838383838384 221.17171717171726,545.3737373737374 221.17171717171726,554.909090909091 221.17171717171726,564.4444444444445 221.17171717171726,573.979797979798 221.17171717171726,583.5151515151516 221.17171717171726,593.0505050505051 221.17171717171726,602.5858585858587 221.17171717171726,612.1212121212121 221.17171717171726,621.6565656565657 221.17171717171726,631.1919191919193 221.17171717171726,640.7272727272727 221.17171717171726,650.2626262626263 221.17171717171726,659.7979797979798 221.17171717171726,669.3333333333334 221.17171717171726,678.8686868686868 221.17171717171726,688.4040404040404 221.17171717171726,697.939393939394 221.17171717171726,707.4747474747475 221.17171717171726,717.010101010101 221.17171717171726,726.5454545454545 221.17171717171726,736.0808080808081 221.17171717171726,745.6161616161615 221.17171717171726,755.1515151515151 221.17171717171726,764.6868686868687 221.17171717171726,774.2222222222222 221.17171717171726,783.7575757575758 221.17171717171726,793.2929292929292 221.17171717171726,802.8282828282828 221.17171717171726,812.3636363636363 221.17171717171726,821.8989898989898 221.17171717171726,831.4343434343434 221.17171717171726,840.969696969697 221.17171717171726,850.5050505050505 221.17171717171726,860.0404040404039 221.17171717171726,869.5757575757575 221.17171717171726,879.1111111111111 221.17171717171726,888.6464646464647" fill="none" stroke="rgba(255,0,0,0.75)" stroke-width="11.327999999999996"/></g><g><polyline data-points="-3.0808080808080804,-3.98989898989899 -3.0808080808080804,-4.090909090909091 -3.0808080808080804,-4.191919191919193 -3.0808080808080804,-4.292929292929293 -3.0808080808080804,-4.393939393939394 -3.0808080808080804,-4.494949494949496 -3.0808080808080804,-4.595959595959596 -3.0808080808080804,-4.696969696969697 -3.0808080808080804,-4.7979797979797985 -3.0808080808080804,-4.898989898989899 -3.0808080808080804,-5.000000000000001" data-type="line" data-label="" points="221.17171717171726,888.6464646464647 221.17171717171726,898.1818181818181 221.17171717171726,907.7171717171718 221.17171717171726,917.2525252525252 221.17171717171726,926.7878787878788 221.17171717171726,936.3232323232323 221.17171717171726,945.8585858585858 221.17171717171726,955.3939393939394 221.17171717171726,964.9292929292928 221.17171717171726,974.4646464646464 221.17171717171726,984" fill="none" stroke="rgba(0,0,255,0.75)" stroke-width="11.327999999999996"/></g><g><polyline data-points="5.000000000000002,-2.9797979797979792 4.898989898989901,-2.8787878787878785 4.7979797979797985,-2.7777777777777777 4.696969696969697,-2.6767676767676765 4.595959595959597,-2.5757575757575752 4.494949494949497,-2.474747474747474 4.393939393939394,-2.3737373737373733 4.292929292929293,-2.2727272727272725 4.191919191919193,-2.1717171717171713 4.090909090909092,-2.07070707070707 3.989898989898992,-1.9696969696969693 3.8888888888888893,-1.8686868686868683 3.7878787878787885,-1.7676767676767675 3.6868686868686877,-1.6666666666666665 3.5858585858585874,-1.5656565656565653 3.4848484848484866,-1.4646464646464643 3.383838383838384,-1.363636363636363 3.2828282828282833,-1.2626262626262625 3.181818181818183,-1.1616161616161613 3.080808080808082,-1.0606060606060603 2.9797979797979806,-0.9595959595959596 2.87878787878788,-0.8585858585858579 2.7777777777777786,-0.7575757575757572 2.676767676767678,-0.6565656565656557 2.575757575757577,-0.555555555555555 2.4747474747474754,-0.4545454545454544 2.373737373737375,-0.35353535353535287 2.2727272727272734,-0.2525252525252522 2.1717171717171726,-0.15151515151515066 2.070707070707072,-0.05050505050505001 1.9696969696969702,0.050505050505051545 1.8686868686868696,0.1515151515151522 1.767676767676768,0.2525252525252529 1.6666666666666674,0.3535353535353544 1.5656565656565666,0.4545454545454551 1.4646464646464652,0.5555555555555567 1.3636363636363644,0.6565656565656574 1.262626262626263,0.7575757575757579 1.1616161616161622,0.8585858585858596 1.0606060606060617,0.9595959595959602 0.9595959595959602,1.0606060606060617 0.8585858585858596,1.1616161616161622 0.7575757575757579,1.262626262626263 0.6565656565656574,1.3636363636363644 0.5555555555555567,1.4646464646464652 0.4545454545454551,1.5656565656565666 0.3535353535353544,1.5656565656565666 0.2525252525252529,1.5656565656565666 0.1515151515151522,1.5656565656565666 0.050505050505051545,1.5656565656565666 -0.05050505050505001,1.5656565656565666 -0.15151515151515066,1.5656565656565666 -0.2525252525252522,1.5656565656565666 -0.35353535353535287,1.5656565656565666 -0.4545454545454544,1.5656565656565666 -0.555555555555555,1.5656565656565666 -0.6565656565656557,1.5656565656565666 -0.7575757575757572,1.5656565656565666 -0.8585858585858579,1.5656565656565666 -0.9595959595959596,1.5656565656565666 -1.0606060606060603,1.5656565656565666 -1.1616161616161613,1.5656565656565666 -1.2626262626262625,1.5656565656565666 -1.363636363636363,1.5656565656565666 -1.4646464646464643,1.5656565656565666 -1.5656565656565653,1.5656565656565666 -1.6666666666666665,1.5656565656565666 -1.7676767676767675,1.5656565656565666 -1.8686868686868683,1.5656565656565666 -1.9696969696969693,1.5656565656565666 -2.07070707070707,1.5656565656565666 -2.1717171717171713,1.5656565656565666 -2.2727272727272725,1.5656565656565666 -2.3737373737373733,1.5656565656565666 -2.474747474747474,1.5656565656565666 -2.5757575757575752,1.5656565656565666 -2.6767676767676765,1.5656565656565666" data-type="line" data-label="" points="984,793.2929292929292 974.4646464646464,783.7575757575758 964.9292929292927,774.2222222222222 955.3939393939393,764.6868686868687 945.8585858585857,755.1515151515151 936.3232323232323,745.6161616161615 926.7878787878785,736.0808080808081 917.2525252525251,726.5454545454545 907.7171717171716,717.010101010101 898.181818181818,707.4747474747475 888.6464646464647,697.939393939394 879.111111111111,688.4040404040404 869.5757575757575,678.8686868686868 860.0404040404039,669.3333333333334 850.5050505050505,659.7979797979798 840.969696969697,650.2626262626263 831.4343434343433,640.7272727272727 821.8989898989898,631.1919191919193 812.3636363636363,621.6565656565657 802.8282828282828,612.1212121212121 793.2929292929292,602.5858585858587 783.7575757575758,593.0505050505051 774.2222222222222,583.5151515151516 764.6868686868686,573.979797979798 755.1515151515151,564.4444444444445 745.6161616161615,554.909090909091 736.0808080808081,545.3737373737374 726.5454545454545,535.838383838384 717.0101010101009,526.3030303030304 707.4747474747475,516.7676767676768 697.9393939393939,507.23232323232327 688.4040404040404,497.69696969696975 678.8686868686868,488.1616161616163 669.3333333333333,478.6262626262627 659.7979797979798,469.0909090909092 650.2626262626262,459.5555555555556 640.7272727272727,450.0202020202021 631.1919191919192,440.4848484848486 621.6565656565656,430.94949494949503 612.1212121212121,421.4141414141415 602.5858585858585,411.87878787878793 593.0505050505051,402.3434343434344 583.5151515151515,392.80808080808094 573.9797979797979,383.27272727272737 564.4444444444445,373.73737373737384 554.9090909090909,364.2020202020203 545.3737373737374,364.2020202020203 535.8383838383838,364.2020202020203 526.3030303030303,364.2020202020203 516.7676767676768,364.2020202020203 507.2323232323232,364.2020202020203 497.69696969696975,364.2020202020203 488.16161616161617,364.2020202020203 478.62626262626264,364.2020202020203 469.09090909090907,364.2020202020203 459.55555555555554,364.2020202020203 450.0202020202021,364.2020202020203 440.4848484848485,364.2020202020203 430.949494949495,364.2020202020203 421.4141414141414,364.2020202020203 411.8787878787879,364.2020202020203 402.34343434343435,364.2020202020203 392.80808080808083,364.2020202020203 383.2727272727273,364.2020202020203 373.7373737373738,364.2020202020203 364.2020202020202,364.2020202020203 354.6666666666667,364.2020202020203 345.13131313131316,364.2020202020203 335.59595959595964,364.2020202020203 326.0606060606061,364.2020202020203 316.5252525252526,364.2020202020203 306.9898989898991,364.2020202020203 297.4545454545455,364.2020202020203 287.91919191919203,364.2020202020203 278.38383838383845,364.2020202020203 268.84848484848493,364.2020202020203 259.3131313131314,364.2020202020203" fill="none" stroke="rgba(255,0,0,0.75)" stroke-width="11.327999999999996"/></g><g><polyline data-points="-2.6767676767676765,1.5656565656565666 -2.7777777777777777,1.5656565656565666 -2.8787878787878785,1.5656565656565666 -2.9797979797979792,1.5656565656565666 -3.0808080808080804,1.5656565656565666 -3.1818181818181817,1.5656565656565666 -3.2828282828282824,1.5656565656565666 -3.383838383838383,1.5656565656565666 -3.484848484848485,1.5656565656565666 -3.5858585858585856,1.5656565656565666 -3.6868686868686864,1.5656565656565666 -3.7878787878787876,1.5656565656565666 -3.8888888888888884,1.5656565656565666 -3.98989898989899,1.5656565656565666" data-type="line" data-label="" points="259.3131313131314,364.2020202020203 249.77777777777783,364.2020202020203 240.2424242424243,364.2020202020203 230.70707070707084,364.2020202020203 221.17171717171726,364.2020202020203 211.63636363636374,364.2020202020203 202.10101010101022,364.2020202020203 192.5656565656567,364.2020202020203 183.03030303030312,364.2020202020203 173.4949494949496,364.2020202020203 163.95959595959607,364.2020202020203 154.42424242424255,364.2020202020203 144.88888888888903,364.2020202020203 135.35353535353545,364.2020202020203" fill="none" stroke="rgba(0,0,255,0.75)" stroke-width="11.327999999999996"/></g><g><polyline data-points="-3.98989898989899,1.5656565656565666 -4.090909090909091,1.5656565656565666 -4.191919191919193,1.5656565656565666 -4.292929292929293,1.5656565656565666 -4.393939393939394,1.5656565656565666 -4.494949494949496,1.5656565656565666 -4.595959595959596,1.5656565656565666 -4.696969696969697,1.5656565656565666 -4.7979797979797985,1.5656565656565666 -4.898989898989899,1.5656565656565666 -5.000000000000001,1.5656565656565666" data-type="line" data-label="" points="135.35353535353545,364.2020202020203 125.81818181818193,364.2020202020203 116.28282828282829,364.2020202020203 106.74747474747483,364.2020202020203 97.21212121212136,364.2020202020203 87.67676767676772,364.2020202020203 78.14141414141426,364.2020202020203 68.60606060606068,364.2020202020203 59.07070707070716,364.2020202020203 49.53535353535369,364.2020202020203 40.00000000000006,364.2020202020203" fill="none" stroke="rgba(255,0,0,0.75)" stroke-width="11.327999999999996"/></g><g><polyline data-points="2.7777777777777786,-5.000000000000001 2.676767676767678,-4.898989898989899 2.575757575757577,-4.7979797979797985 2.4747474747474754,-4.696969696969697 2.373737373737375,-4.595959595959596 2.2727272727272734,-4.494949494949496 2.1717171717171726,-4.393939393939394 2.070707070707072,-4.292929292929293 1.9696969696969702,-4.191919191919193 1.8686868686868696,-4.090909090909091 1.767676767676768,-3.98989898989899 1.6666666666666674,-3.8888888888888884 1.5656565656565666,-3.7878787878787876 1.4646464646464652,-3.6868686868686864 1.3636363636363644,-3.5858585858585856 1.262626262626263,-3.484848484848485 1.1616161616161622,-3.383838383838383 1.0606060606060617,-3.2828282828282824 0.9595959595959602,-3.1818181818181817 0.8585858585858596,-3.0808080808080804 0.7575757575757579,-2.9797979797979792 0.6565656565656574,-2.8787878787878785 0.5555555555555567,-2.7777777777777777 0.4545454545454551,-2.6767676767676765 0.3535353535353544,-2.5757575757575752 0.2525252525252529,-2.474747474747474 0.1515151515151522,-2.3737373737373733 0.050505050505051545,-2.2727272727272725 -0.05050505050505001,-2.1717171717171713 -0.15151515151515066,-2.07070707070707 -0.2525252525252522,-1.9696969696969693 -0.35353535353535287,-1.8686868686868683 -0.4545454545454544,-1.7676767676767675 -0.555555555555555,-1.6666666666666665 -0.6565656565656557,-1.5656565656565653 -0.7575757575757572,-1.4646464646464643 -0.8585858585858579,-1.363636363636363 -0.9595959595959596,-1.2626262626262625 -1.0606060606060603,-1.1616161616161613 -1.1616161616161613,-1.0606060606060603 -1.2626262626262625,-0.9595959595959596 -1.363636363636363,-0.8585858585858579 -1.4646464646464643,-0.7575757575757572 -1.4646464646464643,-0.6565656565656557 -1.4646464646464643,-0.555555555555555 -1.4646464646464643,-0.4545454545454544 -1.4646464646464643,-0.35353535353535287 -1.4646464646464643,-0.2525252525252522 -1.4646464646464643,-0.15151515151515066 -1.4646464646464643,-0.05050505050505001 -1.4646464646464643,0.050505050505051545 -1.4646464646464643,0.1515151515151522 -1.4646464646464643,0.2525252525252529 -1.4646464646464643,0.3535353535353544 -1.4646464646464643,0.4545454545454551 -1.4646464646464643,0.5555555555555567 -1.4646464646464643,0.6565656565656574 -1.4646464646464643,0.7575757575757579 -1.4646464646464643,0.8585858585858596 -1.4646464646464643,0.9595959595959602 -1.4646464646464643,1.0606060606060617 -1.4646464646464643,1.1616161616161622" data-type="line" data-label="" points="774.2222222222222,984 764.6868686868686,974.4646464646464 755.1515151515151,964.9292929292928 745.6161616161615,955.3939393939394 736.0808080808081,945.8585858585858 726.5454545454545,936.3232323232323 717.0101010101009,926.7878787878788 707.4747474747475,917.2525252525252 697.9393939393939,907.7171717171718 688.4040404040404,898.1818181818181 678.8686868686868,888.6464646464647 669.3333333333333,879.1111111111111 659.7979797979798,869.5757575757575 650.2626262626262,860.0404040404039 640.7272727272727,850.5050505050505 631.1919191919192,840.969696969697 621.6565656565656,831.4343434343434 612.1212121212121,821.8989898989898 602.5858585858585,812.3636363636363 593.0505050505051,802.8282828282828 583.5151515151515,793.2929292929292 573.9797979797979,783.7575757575758 564.4444444444445,774.2222222222222 554.9090909090909,764.6868686868687 545.3737373737374,755.1515151515151 535.8383838383838,745.6161616161615 526.3030303030303,736.0808080808081 516.7676767676768,726.5454545454545 507.2323232323232,717.010101010101 497.69696969696975,707.4747474747475 488.16161616161617,697.939393939394 478.62626262626264,688.4040404040404 469.09090909090907,678.8686868686868 459.55555555555554,669.3333333333334 450.0202020202021,659.7979797979798 440.4848484848485,650.2626262626263 430.949494949495,640.7272727272727 421.4141414141414,631.1919191919193 411.8787878787879,621.6565656565657 402.34343434343435,612.1212121212121 392.80808080808083,602.5858585858587 383.2727272727273,593.0505050505051 373.7373737373738,583.5151515151516 373.7373737373738,573.979797979798 373.7373737373738,564.4444444444445 373.7373737373738,554.909090909091 373.7373737373738,545.3737373737374 373.7373737373738,535.838383838384 373.7373737373738,526.3030303030304 373.7373737373738,516.7676767676768 373.7373737373738,507.23232323232327 373.7373737373738,497.69696969696975 373.7373737373738,488.1616161616163 373.7373737373738,478.6262626262627 373.7373737373738,469.0909090909092 373.7373737373738,459.5555555555556 373.7373737373738,450.0202020202021 373.7373737373738,440.4848484848486 373.7373737373738,430.94949494949503 373.7373737373738,421.4141414141415 373.7373737373738,411.87878787878793 373.7373737373738,402.3434343434344" fill="none" stroke="rgba(255,0,0,0.75)" stroke-width="11.327999999999996"/></g><g><polyline data-points="-1.4646464646464643,1.1616161616161622 -1.4646464646464643,1.262626262626263 -1.4646464646464643,1.3636363636363644 -1.4646464646464643,1.4646464646464652 -1.4646464646464643,1.5656565656565666 -1.4646464646464643,1.6666666666666674 -1.4646464646464643,1.767676767676768 -1.4646464646464643,1.8686868686868696 -1.4646464646464643,1.9696969696969702 -1.4646464646464643,2.070707070707072 -1.4646464646464643,2.1717171717171726 -1.4646464646464643,2.2727272727272734 -1.4646464646464643,2.373737373737375 -1.4646464646464643,2.4747474747474754 -1.4646464646464643,2.575757575757577 -1.4646464646464643,2.676767676767678 -1.4646464646464643,2.7777777777777786 -1.4646464646464643,2.87878787878788 -1.4646464646464643,2.9797979797979806 -1.4646464646464643,3.080808080808082 -1.4646464646464643,3.181818181818183 -1.4646464646464643,3.2828282828282833 -1.4646464646464643,3.383838383838384 -1.4646464646464643,3.4848484848484866 -1.4646464646464643,3.5858585858585874 -1.4646464646464643,3.6868686868686877 -1.4646464646464643,3.7878787878787885 -1.4646464646464643,3.8888888888888893 -1.4646464646464643,3.989898989898992 -1.4646464646464643,4.090909090909092 -1.4646464646464643,4.191919191919193 -1.4646464646464643,4.292929292929293 -1.4646464646464643,4.393939393939394 -1.4646464646464643,4.494949494949497 -1.4646464646464643,4.595959595959597 -1.4646464646464643,4.696969696969697 -1.4646464646464643,4.7979797979797985 -1.4646464646464643,4.898989898989901 -1.4646464646464643,5.000000000000002" data-type="line" data-label="" points="373.7373737373738,402.3434343434344 373.7373737373738,392.80808080808094 373.7373737373738,383.27272727272737 373.7373737373738,373.73737373737384 373.7373737373738,364.2020202020203 373.7373737373738,354.66666666666674 373.7373737373738,345.1313131313133 373.7373737373738,335.5959595959597 373.7373737373738,326.06060606060623 373.7373737373738,316.5252525252526 373.7373737373738,306.9898989898991 373.7373737373738,297.4545454545456 373.7373737373738,287.91919191919203 373.7373737373738,278.38383838383857 373.7373737373738,268.84848484848493 373.7373737373738,259.3131313131314 373.7373737373738,249.77777777777794 373.7373737373738,240.24242424242436 373.7373737373738,230.70707070707084 373.7373737373738,221.17171717171726 373.7373737373738,211.63636363636374 373.7373737373738,202.10101010101027 373.7373737373738,192.56565656565675 373.7373737373738,183.03030303030312 373.7373737373738,173.4949494949496 373.7373737373738,163.95959595959613 373.7373737373738,154.4242424242426 373.7373737373738,144.88888888888908 373.7373737373738,135.35353535353545 373.7373737373738,125.81818181818198 373.7373737373738,116.28282828282846 373.7373737373738,106.747474747475 373.7373737373738,97.21212121212153 373.7373737373738,87.67676767676778 373.7373737373738,78.14141414141432 373.7373737373738,68.60606060606085 373.7373737373738,59.07070707070733 373.7373737373738,49.53535353535369 373.7373737373738,40.000000000000114" fill="none" stroke="rgba(0,0,255,0.75)" stroke-width="11.327999999999996"/></g><g><polyline data-points="2.4747474747474754,-5.000000000000001 2.575757575757577,-4.898989898989899 2.676767676767678,-4.7979797979797985 2.7777777777777786,-4.696969696969697 2.87878787878788,-4.595959595959596 2.9797979797979806,-4.494949494949496 2.9797979797979806,-4.393939393939394 2.9797979797979806,-4.292929292929293 2.9797979797979806,-4.191919191919193 2.9797979797979806,-4.090909090909091 2.9797979797979806,-3.98989898989899" data-type="line" data-label="" points="745.6161616161615,984 755.1515151515151,974.4646464646464 764.6868686868686,964.9292929292928 774.2222222222222,955.3939393939394 783.7575757575758,945.8585858585858 793.2929292929292,936.3232323232323 793.2929292929292,926.7878787878788 793.2929292929292,917.2525252525252 793.2929292929292,907.7171717171718 793.2929292929292,898.1818181818181 793.2929292929292,888.6464646464647" fill="none" stroke="rgba(0,0,255,0.75)" stroke-width="11.327999999999996"/></g><g><polyline data-points="2.9797979797979806,-3.98989898989899 3.080808080808082,-3.8888888888888884 3.181818181818183,-3.7878787878787876 3.2828282828282833,-3.6868686868686864 3.383838383838384,-3.5858585858585856 3.4848484848484866,-3.484848484848485 3.5858585858585874,-3.383838383838383 3.6868686868686877,-3.2828282828282824 3.7878787878787885,-3.1818181818181817 3.8888888888888893,-3.0808080808080804 3.989898989898992,-2.9797979797979792 3.989898989898992,-2.8787878787878785 3.989898989898992,-2.7777777777777777 3.989898989898992,-2.6767676767676765 3.989898989898992,-2.5757575757575752 3.989898989898992,-2.474747474747474" data-type="line" data-label="" points="793.2929292929292,888.6464646464647 802.8282828282828,879.1111111111111 812.3636363636363,869.5757575757575 821.8989898989898,860.0404040404039 831.4343434343433,850.5050505050505 840.969696969697,840.969696969697 850.5050505050505,831.4343434343434 860.0404040404039,821.8989898989898 869.5757575757575,812.3636363636363 879.111111111111,802.8282828282828 888.6464646464647,793.2929292929292 888.6464646464647,783.7575757575758 888.6464646464647,774.2222222222222 888.6464646464647,764.6868686868687 888.6464646464647,755.1515151515151 888.6464646464647,745.6161616161615" fill="none" stroke="rgba(255,0,0,0.75)" stroke-width="11.327999999999996"/></g><g><polyline data-points="3.989898989898992,-2.474747474747474 3.989898989898992,-2.3737373737373733 3.989898989898992,-2.2727272727272725 3.989898989898992,-2.1717171717171713 3.989898989898992,-2.07070707070707 3.989898989898992,-1.9696969696969693 3.989898989898992,-1.8686868686868683 3.989898989898992,-1.7676767676767675 3.989898989898992,-1.6666666666666665 3.989898989898992,-1.5656565656565653 3.989898989898992,-1.4646464646464643 3.989898989898992,-1.363636363636363 3.989898989898992,-1.2626262626262625 3.989898989898992,-1.1616161616161613 3.989898989898992,-1.0606060606060603 3.989898989898992,-0.9595959595959596 3.989898989898992,-0.8585858585858579 3.989898989898992,-0.7575757575757572 3.989898989898992,-0.6565656565656557 3.989898989898992,-0.555555555555555 3.989898989898992,-0.4545454545454544 3.989898989898992,-0.35353535353535287 3.989898989898992,-0.2525252525252522 3.989898989898992,-0.15151515151515066 3.989898989898992,-0.05050505050505001 3.989898989898992,0.050505050505051545 3.989898989898992,0.1515151515151522 3.989898989898992,0.2525252525252529 3.989898989898992,0.3535353535353544 3.989898989898992,0.4545454545454551 3.989898989898992,0.5555555555555567 3.989898989898992,0.6565656565656574 3.989898989898992,0.7575757575757579 3.989898989898992,0.8585858585858596 3.989898989898992,0.9595959595959602 3.989898989898992,1.0606060606060617 3.989898989898992,1.1616161616161622 3.989898989898992,1.262626262626263 3.989898989898992,1.3636363636363644 3.989898989898992,1.4646464646464652 3.989898989898992,1.5656565656565666 3.989898989898992,1.6666666666666674 3.989898989898992,1.767676767676768 3.989898989898992,1.8686868686868696 3.989898989898992,1.9696969696969702 3.989898989898992,2.070707070707072 3.989898989898992,2.1717171717171726 3.989898989898992,2.2727272727272734 3.989898989898992,2.373737373737375 3.989898989898992,2.4747474747474754 3.989898989898992,2.575757575757577 3.989898989898992,2.676767676767678 3.989898989898992,2.7777777777777786 3.989898989898992,2.87878787878788 3.989898989898992,2.9797979797979806 3.989898989898992,3.080808080808082 3.989898989898992,3.181818181818183 3.989898989898992,3.2828282828282833 3.989898989898992,3.383838383838384 3.989898989898992,3.4848484848484866 3.989898989898992,3.5858585858585874 3.989898989898992,3.6868686868686877 3.989898989898992,3.7878787878787885 3.989898989898992,3.8888888888888893" data-type="line" data-label="" points="888.6464646464647,745.6161616161615 888.6464646464647,736.0808080808081 888.6464646464647,726.5454545454545 888.6464646464647,717.010101010101 888.6464646464647,707.4747474747475 888.6464646464647,697.939393939394 888.6464646464647,688.4040404040404 888.6464646464647,678.8686868686868 888.6464646464647,669.3333333333334 888.6464646464647,659.7979797979798 888.6464646464647,650.2626262626263 888.6464646464647,640.7272727272727 888.6464646464647,631.1919191919193 888.6464646464647,621.6565656565657 888.6464646464647,612.1212121212121 888.6464646464647,602.5858585858587 888.6464646464647,593.0505050505051 888.6464646464647,583.5151515151516 888.6464646464647,573.979797979798 888.6464646464647,564.4444444444445 888.6464646464647,554.909090909091 888.6464646464647,545.3737373737374 888.6464646464647,535.838383838384 888.6464646464647,526.3030303030304 888.6464646464647,516.7676767676768 888.6464646464647,507.23232323232327 888.6464646464647,497.69696969696975 888.6464646464647,488.1616161616163 888.6464646464647,478.6262626262627 888.6464646464647,469.0909090909092 888.6464646464647,459.5555555555556 888.6464646464647,450.0202020202021 888.6464646464647,440.4848484848486 888.6464646464647,430.94949494949503 888.6464646464647,421.4141414141415 888.6464646464647,411.87878787878793 888.6464646464647,402.3434343434344 888.6464646464647,392.80808080808094 888.6464646464647,383.27272727272737 888.6464646464647,373.73737373737384 888.6464646464647,364.2020202020203 888.6464646464647,354.66666666666674 888.6464646464647,345.1313131313133 888.6464646464647,335.5959595959597 888.6464646464647,326.06060606060623 888.6464646464647,316.5252525252526 888.6464646464647,306.9898989898991 888.6464646464647,297.4545454545456 888.6464646464647,287.91919191919203 888.6464646464647,278.38383838383857 888.6464646464647,268.84848484848493 888.6464646464647,259.3131313131314 888.6464646464647,249.77777777777794 888.6464646464647,240.24242424242436 888.6464646464647,230.70707070707084 888.6464646464647,221.17171717171726 888.6464646464647,211.63636363636374 888.6464646464647,202.10101010101027 888.6464646464647,192.56565656565675 888.6464646464647,183.03030303030312 888.6464646464647,173.4949494949496 888.6464646464647,163.95959595959613 888.6464646464647,154.4242424242426 888.6464646464647,144.88888888888908" fill="none" stroke="rgba(0,0,255,0.75)" stroke-width="11.327999999999996"/></g><g><polyline data-points="3.989898989898992,3.8888888888888893 4.090909090909092,3.989898989898992 4.090909090909092,4.090909090909092 4.090909090909092,4.191919191919193 4.090909090909092,4.292929292929293 4.090909090909092,4.393939393939394 4.090909090909092,4.494949494949497 4.090909090909092,4.595959595959597 4.090909090909092,4.696969696969697 4.090909090909092,4.7979797979797985 4.090909090909092,4.898989898989901 4.090909090909092,5.000000000000002" data-type="line" data-label="" points="888.6464646464647,144.88888888888908 898.181818181818,135.35353535353545 898.181818181818,125.81818181818198 898.181818181818,116.28282828282846 898.181818181818,106.747474747475 898.181818181818,97.21212121212153 898.181818181818,87.67676767676778 898.181818181818,78.14141414141432 898.181818181818,68.60606060606085 898.181818181818,59.07070707070733 898.181818181818,49.53535353535369 898.181818181818,40.000000000000114" fill="none" stroke="rgba(255,0,0,0.75)" stroke-width="11.327999999999996"/></g><g><polyline data-points="-3.484848484848485,-5.000000000000001 -3.5858585858585856,-4.898989898989899 -3.6868686868686864,-4.7979797979797985 -3.7878787878787876,-4.696969696969697 -3.8888888888888884,-4.595959595959596 -3.98989898989899,-4.494949494949496 -3.98989898989899,-4.393939393939394 -3.98989898989899,-4.292929292929293 -3.98989898989899,-4.191919191919193 -3.98989898989899,-4.090909090909091 -3.98989898989899,-3.98989898989899 -3.98989898989899,-3.8888888888888884 -3.98989898989899,-3.7878787878787876 -3.98989898989899,-3.6868686868686864 -3.98989898989899,-3.5858585858585856 -3.98989898989899,-3.484848484848485 -3.98989898989899,-3.383838383838383 -3.98989898989899,-3.2828282828282824 -3.98989898989899,-3.1818181818181817 -3.98989898989899,-3.0808080808080804 -3.98989898989899,-2.9797979797979792 -3.98989898989899,-2.8787878787878785 -3.98989898989899,-2.7777777777777777 -3.98989898989899,-2.6767676767676765 -3.98989898989899,-2.5757575757575752 -3.98989898989899,-2.474747474747474 -3.98989898989899,-2.3737373737373733 -3.98989898989899,-2.2727272727272725 -3.98989898989899,-2.1717171717171713 -3.98989898989899,-2.07070707070707 -3.98989898989899,-1.9696969696969693 -3.98989898989899,-1.8686868686868683 -3.98989898989899,-1.7676767676767675 -3.98989898989899,-1.6666666666666665 -3.98989898989899,-1.5656565656565653 -3.98989898989899,-1.4646464646464643 -3.98989898989899,-1.363636363636363 -3.98989898989899,-1.2626262626262625 -3.98989898989899,-1.1616161616161613 -3.98989898989899,-1.0606060606060603 -3.98989898989899,-0.9595959595959596 -3.98989898989899,-0.8585858585858579 -3.98989898989899,-0.7575757575757572 -3.98989898989899,-0.6565656565656557 -3.98989898989899,-0.555555555555555 -3.98989898989899,-0.4545454545454544 -3.98989898989899,-0.35353535353535287 -3.98989898989899,-0.2525252525252522 -3.98989898989899,-0.15151515151515066 -3.98989898989899,-0.05050505050505001 -3.98989898989899,0.050505050505051545 -3.98989898989899,0.1515151515151522 -3.98989898989899,0.2525252525252529 -3.98989898989899,0.3535353535353544 -3.98989898989899,0.4545454545454551 -3.98989898989899,0.5555555555555567 -3.98989898989899,0.6565656565656574 -3.98989898989899,0.7575757575757579 -3.98989898989899,0.8585858585858596 -3.98989898989899,0.9595959595959602 -3.98989898989899,1.0606060606060617" data-type="line" data-label="" points="183.03030303030312,984 173.4949494949496,974.4646464646464 163.95959595959607,964.9292929292928 154.42424242424255,955.3939393939394 144.88888888888903,945.8585858585858 135.35353535353545,936.3232323232323 135.35353535353545,926.7878787878788 135.35353535353545,917.2525252525252 135.35353535353545,907.7171717171718 135.35353535353545,898.1818181818181 135.35353535353545,888.6464646464647 135.35353535353545,879.1111111111111 135.35353535353545,869.5757575757575 135.35353535353545,860.0404040404039 135.35353535353545,850.5050505050505 135.35353535353545,840.969696969697 135.35353535353545,831.4343434343434 135.35353535353545,821.8989898989898 135.35353535353545,812.3636363636363 135.35353535353545,802.8282828282828 135.35353535353545,793.2929292929292 135.35353535353545,783.7575757575758 135.35353535353545,774.2222222222222 135.35353535353545,764.6868686868687 135.35353535353545,755.1515151515151 135.35353535353545,745.6161616161615 135.35353535353545,736.0808080808081 135.35353535353545,726.5454545454545 135.35353535353545,717.010101010101 135.35353535353545,707.4747474747475 135.35353535353545,697.939393939394 135.35353535353545,688.4040404040404 135.35353535353545,678.8686868686868 135.35353535353545,669.3333333333334 135.35353535353545,659.7979797979798 135.35353535353545,650.2626262626263 135.35353535353545,640.7272727272727 135.35353535353545,631.1919191919193 135.35353535353545,621.6565656565657 135.35353535353545,612.1212121212121 135.35353535353545,602.5858585858587 135.35353535353545,593.0505050505051 135.35353535353545,583.5151515151516 135.35353535353545,573.979797979798 135.35353535353545,564.4444444444445 135.35353535353545,554.909090909091 135.35353535353545,545.3737373737374 135.35353535353545,535.838383838384 135.35353535353545,526.3030303030304 135.35353535353545,516.7676767676768 135.35353535353545,507.23232323232327 135.35353535353545,497.69696969696975 135.35353535353545,488.1616161616163 135.35353535353545,478.6262626262627 135.35353535353545,469.0909090909092 135.35353535353545,459.5555555555556 135.35353535353545,450.0202020202021 135.35353535353545,440.4848484848486 135.35353535353545,430.94949494949503 135.35353535353545,421.4141414141415 135.35353535353545,411.87878787878793" fill="none" stroke="rgba(255,0,0,0.75)" stroke-width="11.327999999999996"/></g><g><polyline data-points="-3.98989898989899,1.0606060606060617 -4.090909090909091,1.1616161616161622 -4.191919191919193,1.262626262626263 -4.292929292929293,1.3636363636363644 -4.393939393939394,1.4646464646464652 -4.494949494949496,1.5656565656565666 -4.595959595959596,1.6666666666666674 -4.696969696969697,1.767676767676768 -4.7979797979797985,1.8686868686868696 -4.898989898989899,1.9696969696969702 -5.000000000000001,2.070707070707072 -5.000000000000001,2.1717171717171726 -5.000000000000001,2.2727272727272734 -5.000000000000001,2.373737373737375 -5.000000000000001,2.4747474747474754 -5.000000000000001,2.575757575757577 -5.000000000000001,2.676767676767678 -5.000000000000001,2.7777777777777786 -5.000000000000001,2.87878787878788 -5.000000000000001,2.9797979797979806 -5.000000000000001,3.080808080808082 -5.000000000000001,3.181818181818183 -5.000000000000001,3.2828282828282833 -5.000000000000001,3.383838383838384 -5.000000000000001,3.4848484848484866 -5.000000000000001,3.5858585858585874 -5.000000000000001,3.6868686868686877 -5.000000000000001,3.7878787878787885 -5.000000000000001,3.8888888888888893 -5.000000000000001,3.989898989898992 -5.000000000000001,4.090909090909092" data-type="line" data-label="" points="135.35353535353545,411.87878787878793 125.81818181818193,402.3434343434344 116.28282828282829,392.80808080808094 106.74747474747483,383.27272727272737 97.21212121212136,373.73737373737384 87.67676767676772,364.2020202020203 78.14141414141426,354.66666666666674 68.60606060606068,345.1313131313133 59.07070707070716,335.5959595959597 49.53535353535369,326.06060606060623 40.00000000000006,316.5252525252526 40.00000000000006,306.9898989898991 40.00000000000006,297.4545454545456 40.00000000000006,287.91919191919203 40.00000000000006,278.38383838383857 40.00000000000006,268.84848484848493 40.00000000000006,259.3131313131314 40.00000000000006,249.77777777777794 40.00000000000006,240.24242424242436 40.00000000000006,230.70707070707084 40.00000000000006,221.17171717171726 40.00000000000006,211.63636363636374 40.00000000000006,202.10101010101027 40.00000000000006,192.56565656565675 40.00000000000006,183.03030303030312 40.00000000000006,173.4949494949496 40.00000000000006,163.95959595959613 40.00000000000006,154.4242424242426 40.00000000000006,144.88888888888908 40.00000000000006,135.35353535353545 40.00000000000006,125.81818181818198" fill="none" stroke="rgba(0,0,255,0.75)" stroke-width="11.327999999999996"/></g><g><polyline data-points="4.494949494949497,-5.000000000000001 4.393939393939394,-4.898989898989899 4.292929292929293,-4.7979797979797985 4.191919191919193,-4.696969696969697 4.090909090909092,-4.595959595959596 3.989898989898992,-4.494949494949496 3.8888888888888893,-4.393939393939394 3.7878787878787885,-4.292929292929293 3.6868686868686877,-4.292929292929293 3.5858585858585874,-4.292929292929293 3.4848484848484866,-4.292929292929293 3.383838383838384,-4.292929292929293 3.2828282828282833,-4.292929292929293 3.181818181818183,-4.292929292929293 3.080808080808082,-4.292929292929293 2.9797979797979806,-4.292929292929293 2.87878787878788,-4.191919191919193 2.7777777777777786,-4.090909090909091 2.676767676767678,-3.98989898989899 2.575757575757577,-3.8888888888888884 2.4747474747474754,-3.7878787878787876 2.373737373737375,-3.6868686868686864 2.2727272727272734,-3.5858585858585856 2.1717171717171726,-3.484848484848485 2.070707070707072,-3.383838383838383 1.9696969696969702,-3.2828282828282824 1.8686868686868696,-3.1818181818181817 1.767676767676768,-3.0808080808080804 1.6666666666666674,-2.9797979797979792 1.5656565656565666,-2.8787878787878785 1.4646464646464652,-2.7777777777777777 1.3636363636363644,-2.6767676767676765 1.262626262626263,-2.5757575757575752 1.1616161616161622,-2.474747474747474 1.0606060606060617,-2.3737373737373733 0.9595959595959602,-2.2727272727272725 0.8585858585858596,-2.1717171717171713 0.7575757575757579,-2.07070707070707 0.6565656565656574,-1.9696969696969693 0.6565656565656574,-1.8686868686868683 0.6565656565656574,-1.7676767676767675 0.6565656565656574,-1.6666666666666665 0.6565656565656574,-1.5656565656565653 0.6565656565656574,-1.4646464646464643 0.6565656565656574,-1.363636363636363 0.6565656565656574,-1.2626262626262625 0.6565656565656574,-1.1616161616161613 0.6565656565656574,-1.0606060606060603 0.6565656565656574,-0.9595959595959596 0.6565656565656574,-0.8585858585858579 0.6565656565656574,-0.7575757575757572 0.6565656565656574,-0.6565656565656557 0.6565656565656574,-0.555555555555555 0.6565656565656574,-0.4545454545454544 0.6565656565656574,-0.35353535353535287 0.6565656565656574,-0.2525252525252522 0.6565656565656574,-0.15151515151515066 0.6565656565656574,-0.05050505050505001 0.6565656565656574,0.050505050505051545 0.6565656565656574,0.1515151515151522 0.6565656565656574,0.2525252525252529 0.6565656565656574,0.3535353535353544 0.6565656565656574,0.4545454545454551 0.6565656565656574,0.5555555555555567 0.6565656565656574,0.6565656565656574 0.6565656565656574,0.7575757575757579 0.6565656565656574,0.8585858585858596" data-type="line" data-label="" points="936.3232323232323,984 926.7878787878785,974.4646464646464 917.2525252525251,964.9292929292928 907.7171717171716,955.3939393939394 898.181818181818,945.8585858585858 888.6464646464647,936.3232323232323 879.111111111111,926.7878787878788 869.5757575757575,917.2525252525252 860.0404040404039,917.2525252525252 850.5050505050505,917.2525252525252 840.969696969697,917.2525252525252 831.4343434343433,917.2525252525252 821.8989898989898,917.2525252525252 812.3636363636363,917.2525252525252 802.8282828282828,917.2525252525252 793.2929292929292,917.2525252525252 783.7575757575758,907.7171717171718 774.2222222222222,898.1818181818181 764.6868686868686,888.6464646464647 755.1515151515151,879.1111111111111 745.6161616161615,869.5757575757575 736.0808080808081,860.0404040404039 726.5454545454545,850.5050505050505 717.0101010101009,840.969696969697 707.4747474747475,831.4343434343434 697.9393939393939,821.8989898989898 688.4040404040404,812.3636363636363 678.8686868686868,802.8282828282828 669.3333333333333,793.2929292929292 659.7979797979798,783.7575757575758 650.2626262626262,774.2222222222222 640.7272727272727,764.6868686868687 631.1919191919192,755.1515151515151 621.6565656565656,745.6161616161615 612.1212121212121,736.0808080808081 602.5858585858585,726.5454545454545 593.0505050505051,717.010101010101 583.5151515151515,707.4747474747475 573.9797979797979,697.939393939394 573.9797979797979,688.4040404040404 573.9797979797979,678.8686868686868 573.9797979797979,669.3333333333334 573.9797979797979,659.7979797979798 573.9797979797979,650.2626262626263 573.9797979797979,640.7272727272727 573.9797979797979,631.1919191919193 573.9797979797979,621.6565656565657 573.9797979797979,612.1212121212121 573.9797979797979,602.5858585858587 573.9797979797979,593.0505050505051 573.9797979797979,583.5151515151516 573.9797979797979,573.979797979798 573.9797979797979,564.4444444444445 573.9797979797979,554.909090909091 573.9797979797979,545.3737373737374 573.9797979797979,535.838383838384 573.9797979797979,526.3030303030304 573.9797979797979,516.7676767676768 573.9797979797979,507.23232323232327 573.9797979797979,497.69696969696975 573.9797979797979,488.1616161616163 573.9797979797979,478.6262626262627 573.9797979797979,469.0909090909092 573.9797979797979,459.5555555555556 573.9797979797979,450.0202020202021 573.9797979797979,440.4848484848486 573.9797979797979,430.94949494949503" fill="none" stroke="rgba(255,0,0,0.75)" stroke-width="11.327999999999996"/></g><g><polyline data-points="0.6565656565656574,0.8585858585858596 0.6565656565656574,0.9595959595959602 0.6565656565656574,1.0606060606060617 0.6565656565656574,1.1616161616161622 0.6565656565656574,1.262626262626263 0.6565656565656574,1.3636363636363644 0.6565656565656574,1.4646464646464652 0.6565656565656574,1.5656565656565666 0.6565656565656574,1.6666666666666674 0.6565656565656574,1.767676767676768 0.6565656565656574,1.8686868686868696 0.6565656565656574,1.9696969696969702 0.6565656565656574,2.070707070707072 0.6565656565656574,2.1717171717171726 0.6565656565656574,2.2727272727272734 0.6565656565656574,2.373737373737375 0.6565656565656574,2.4747474747474754 0.6565656565656574,2.575757575757577 0.6565656565656574,2.676767676767678 0.6565656565656574,2.7777777777777786 0.6565656565656574,2.87878787878788 0.6565656565656574,2.9797979797979806 0.6565656565656574,3.080808080808082 0.6565656565656574,3.181818181818183 0.6565656565656574,3.2828282828282833 0.6565656565656574,3.383838383838384 0.6565656565656574,3.4848484848484866 0.6565656565656574,3.5858585858585874 0.6565656565656574,3.6868686868686877 0.6565656565656574,3.7878787878787885 0.6565656565656574,3.8888888888888893 0.6565656565656574,3.989898989898992 0.6565656565656574,4.090909090909092 0.6565656565656574,4.191919191919193 0.6565656565656574,4.292929292929293 0.6565656565656574,4.393939393939394 0.6565656565656574,4.494949494949497 0.6565656565656574,4.595959595959597 0.6565656565656574,4.696969696969697 0.6565656565656574,4.7979797979797985 0.6565656565656574,4.898989898989901 0.6565656565656574,5.000000000000002" data-type="line" data-label="" points="573.9797979797979,430.94949494949503 573.9797979797979,421.4141414141415 573.9797979797979,411.87878787878793 573.9797979797979,402.3434343434344 573.9797979797979,392.80808080808094 573.9797979797979,383.27272727272737 573.9797979797979,373.73737373737384 573.9797979797979,364.2020202020203 573.9797979797979,354.66666666666674 573.9797979797979,345.1313131313133 573.9797979797979,335.5959595959597 573.9797979797979,326.06060606060623 573.9797979797979,316.5252525252526 573.9797979797979,306.9898989898991 573.9797979797979,297.4545454545456 573.9797979797979,287.91919191919203 573.9797979797979,278.38383838383857 573.9797979797979,268.84848484848493 573.9797979797979,259.3131313131314 573.9797979797979,249.77777777777794 573.9797979797979,240.24242424242436 573.9797979797979,230.70707070707084 573.9797979797979,221.17171717171726 573.9797979797979,211.63636363636374 573.9797979797979,202.10101010101027 573.9797979797979,192.56565656565675 573.9797979797979,183.03030303030312 573.9797979797979,173.4949494949496 573.9797979797979,163.95959595959613 573.9797979797979,154.4242424242426 573.9797979797979,144.88888888888908 573.9797979797979,135.35353535353545 573.9797979797979,125.81818181818198 573.9797979797979,116.28282828282846 573.9797979797979,106.747474747475 573.9797979797979,97.21212121212153 573.9797979797979,87.67676767676778 573.9797979797979,78.14141414141432 573.9797979797979,68.60606060606085 573.9797979797979,59.07070707070733 573.9797979797979,49.53535353535369 573.9797979797979,40.000000000000114" fill="none" stroke="rgba(0,0,255,0.75)" stroke-width="11.327999999999996"/></g><g><rect data-type="rect" data-label="" data-x="0" data-y="0" x="40.000000000000114" y="40.000000000000284" width="943.9999999999997" height="943.9999999999998" fill="none" stroke="gray" stroke-width="0.010593220338983056"/></g><g><rect data-type="rect" data-label="" data-x="0" data-y="0" x="40.000000000000114" y="40.000000000000284" width="943.9999999999997" height="943.9999999999998" fill="none" stroke="rgba(15, 23, 42, 0.8)" stroke-width="0.010593220338983056"/></g><circle data-type="circle" data-label="" data-x="-3.0808080808080804" data-y="-3.98989898989899" cx="221.17171717171726" cy="888.6464646464647" r="14.159999999999995" fill="rgba(0,0,0,0.3)" stroke="black" stroke-width="0.010593220338983056"/><circle data-type="circle" data-label="" data-x="-2.6767676767676765" data-y="1.5656565656565666" cx="259.3131313131314" cy="364.2020202020203" r="14.159999999999995" fill="rgba(0,0,0,0.3)" stroke="black" stroke-width="0.010593220338983056"/><circle data-type="circle" data-label="" data-x="-3.98989898989899" data-y="1.5656565656565666" cx="135.35353535353545" cy="364.2020202020203" r="14.159999999999995" fill="rgba(0,0,0,0.3)" stroke="black" stroke-width="0.010593220338983056"/><circle data-type="circle" data-label="" data-x="-1.4646464646464643" data-y="1.1616161616161622" cx="373.7373737373738" cy="402.3434343434344" r="14.159999999999995" fill="rgba(0,0,0,0.3)" stroke="black" stroke-width="0.010593220338983056"/><circle data-type="circle" data-label="" data-x="2.9797979797979806" data-y="-3.98989898989899" cx="793.2929292929292" cy="888.6464646464647" r="14.159999999999995" fill="rgba(0,0,0,0.3)" stroke="black" stroke-width="0.010593220338983056"/><circle data-type="circle" data-label="" data-x="3.989898989898992" data-y="-2.474747474747474" cx="888.6464646464647" cy="745.6161616161615" r="14.159999999999995" fill="rgba(0,0,0,0.3)" stroke="black" stroke-width="0.010593220338983056"/><circle data-type="circle" data-label="" data-x="3.989898989898992" data-y="3.8888888888888893" cx="888.6464646464647" cy="144.88888888888908" r="14.159999999999995" fill="rgba(0,0,0,0.3)" stroke="black" stroke-width="0.010593220338983056"/><circle data-type="circle" data-label="" data-x="-3.98989898989899" data-y="1.0606060606060617" cx="135.35353535353545" cy="411.87878787878793" r="14.159999999999995" fill="rgba(0,0,0,0.3)" stroke="black" stroke-width="0.010593220338983056"/><circle data-type="circle" data-label="" data-x="0.6565656565656574" data-y="0.8585858585858596" cx="573.9797979797979" cy="430.94949494949503" r="14.159999999999995" fill="rgba(0,0,0,0.3)" stroke="black" stroke-width="0.010593220338983056"/><g id="crosshair" style="display: none"><line id="crosshair-h" y1="0" y2="1024" stroke="#666" stroke-width="0.5"/><line id="crosshair-v" x1="0" x2="1024" stroke="#666" stroke-width="0.5"/><text id="coordinates" font-family="monospace" font-size="12" fill="#666"></text></g><script><![CDATA[
              document.currentScript.parentElement.addEventListener('mousemove', (e) => {
                const svg = e.currentTarget;
                const rect = svg.getBoundingClientRect();
                const x = e.clientX - rect.left;
                const y = e.clientY - rect.top;
                const crosshair = svg.getElementById('crosshair');
                const h = svg.getElementById('crosshair-h');
                const v = svg.getElementById('crosshair-v');
                const coords = svg.getElementById('coordinates');
                
                crosshair.style.display = 'block';
                h.setAttribute('x1', '0');
                h.setAttribute('x2', '1024');
                h.setAttribute('y1', y);
                h.setAttribute('y2', y);
                v.setAttribute('x1', x);
                v.setAttribute('x2', x);
                v.setAttribute('y1', '0');
                v.setAttribute('y2', '1024');

                // Calculate real coordinates using inverse transformation
                const matrix = {"a":94.39999999999996,"c":0,"e":511.99999999999994,"b":0,"d":-94.39999999999996,"f":512.0000000000001};
                // Manually invert and apply the affine transform
                // Since we only use translate and scale, we can directly compute:
                // x' = (x - tx) / sx
                // y' = (y - ty) / sy
                const sx = matrix.a;
                const sy = matrix.d;
                const tx = matrix.e; 
                const ty = matrix.f;
                const realPoint = {
                  x: (x - tx) / sx,
                  y: (y - ty) / sy // Flip y back since we used negative scale
                }
                
                coords.textContent = `(${realPoint.x.toFixed(2)}, ${realPoint.y.toFixed(2)})`;
                coords.setAttribute('x', (x + 5).toString());
                coords.setAttribute('y', (y - 5).toString());
              });
              document.currentScript.parentElement.addEventListener('mouseleave', () => {
                document.currentScript.parentElement.getElementById('crosshair').style.display = 'none';
              });
            ]]></script></svg>