<svg width="1024" height="1024" viewBox="0 0 1024 1024" xmlns="http://www.w3.org/2000/svg"><rect width="100%" height="100%" fill="white"/><g><circle data-type="point" data-label="conn_000" data-x="-5" data-y="-0.96" cx="40.000000000000114" cy="602.624" r="14.16" fill="red"/></g><g><circle data-type="point" data-label="conn_000" data-x="5" data-y="-4.6000000000000005" cx="983.9999999999998" cy="946.24" r="14.16" fill="blue"/></g><g><circle data-type="point" data-label="conn_001" data-x="-5" data-y="-2.82" cx="40.000000000000114" cy="778.208" r="14.16" fill="red"/></g><g><circle data-type="point" data-label="conn_001" data-x="5" data-y="-4.0200000000000005" cx="983.9999999999998" cy="891.488" r="14.16" fill="red"/></g><g><circle data-type="point" data-label="conn_002" data-x="-5" data-y="-1.44" cx="40.000000000000114" cy="647.936" r="14.16" fill="blue"/></g><g><circle data-type="point" data-label="conn_002" data-x="4.42" data-y="5" cx="929.2479999999998" cy="40.000000000000284" r="14.16" fill="blue"/></g><g><circle data-type="point" data-label="conn_003" data-x="5" data-y="-1.24" cx="983.9999999999998" cy="629.056" r="14.16" fill="blue"/></g><g><circle data-type="point" data-label="conn_003" data-x="-5" data-y="-0.98" cx="40.000000000000114" cy="604.5120000000001" r="14.16" fill="blue"/></g><g><circle data-type="point" data-label="conn_004" data-x="5" data-y="4.44" cx="983.9999999999998" cy="92.86400000000026" r="14.16" fill="red"/></g><g><circle data-type="point" data-label="conn_004" data-x="-5" data-y="-0.76" cx="40.000000000000114" cy="583.7440000000001" r="14.16" fill="red"/></g><g><circle data-type="point" data-label="conn_005" data-x="-0.36" data-y="-5" cx="478.01599999999996" cy="984" r="14.16" fill="red"/></g><g><circle data-type="point" data-label="conn_005" data-x="-2.7800000000000002" data-y="5" cx="249.56800000000004" cy="40.000000000000284" r="14.16" fill="red"/></g><g><circle data-type="point" data-label="conn_006" data-x="-2.04" data-y="5" cx="319.424" cy="40.000000000000284" r="14.16" fill="blue"/></g><g><circle data-type="point" data-label="conn_006" data-x="4.64" data-y="-5" cx="950.0159999999997" cy="984" r="14.16" fill="blue"/></g><g><polyline data-points="5.000000000000002,4.494949494949497 4.898989898989901,4.393939393939394 4.7979797979797985,4.292929292929293 4.696969696969697,4.191919191919193 4.595959595959597,4.090909090909092 4.494949494949497,3.989898989898992 4.393939393939394,3.8888888888888893 4.292929292929293,3.7878787878787885 4.191919191919193,3.6868686868686877 4.090909090909092,3.5858585858585874 3.989898989898992,3.4848484848484866 3.8888888888888893,3.383838383838384 3.7878787878787885,3.2828282828282833 3.6868686868686877,3.181818181818183 3.5858585858585874,3.080808080808082 3.4848484848484866,2.9797979797979806 3.383838383838384,2.87878787878788 3.2828282828282833,2.7777777777777786 3.181818181818183,2.676767676767678 3.080808080808082,2.575757575757577 2.9797979797979806,2.4747474747474754 2.87878787878788,2.373737373737375 2.7777777777777786,2.2727272727272734 2.676767676767678,2.1717171717171726 2.575757575757577,2.070707070707072 2.4747474747474754,1.9696969696969702 2.373737373737375,1.8686868686868696 2.2727272727272734,1.767676767676768 2.1717171717171726,1.6666666666666674 2.070707070707072,1.5656565656565666 1.9696969696969702,1.4646464646464652 1.8686868686868696,1.3636363636363644 1.767676767676768,1.262626262626263 1.6666666666666674,1.1616161616161622 1.5656565656565666,1.0606060606060617 1.4646464646464652,0.9595959595959602 1.3636363636363644,0.8585858585858596 1.262626262626263,0.7575757575757579 1.1616161616161622,0.6565656565656574 1.0606060606060617,0.5555555555555567 0.9595959595959602,0.4545454545454551 0.8585858585858596,0.3535353535353544 0.7575757575757579,0.2525252525252529 0.6565656565656574,0.1515151515151522 0.5555555555555567,0.050505050505051545 0.4545454545454551,-0.05050505050505001 0.3535353535353544,-0.15151515151515066 0.2525252525252529,-0.2525252525252522 0.1515151515151522,-0.35353535353535287 0.050505050505051545,-0.4545454545454544 -0.05050505050505001,-0.555555555555555 -0.15151515151515066,-0.6565656565656557 -0.2525252525252522,-0.7575757575757572 -0.35353535353535287,-0.7575757575757572 -0.4545454545454544,-0.7575757575757572 -0.555555555555555,-0.7575757575757572 -0.6565656565656557,-0.7575757575757572 -0.7575757575757572,-0.7575757575757572 -0.8585858585858579,-0.7575757575757572 -0.9595959595959596,-0.7575757575757572 -1.0606060606060603,-0.7575757575757572 -1.1616161616161613,-0.7575757575757572 -1.2626262626262625,-0.7575757575757572 -1.363636363636363,-0.7575757575757572 -1.4646464646464643,-0.7575757575757572 -1.5656565656565653,-0.7575757575757572 -1.6666666666666665,-0.7575757575757572 -1.7676767676767675,-0.7575757575757572 -1.8686868686868683,-0.7575757575757572 -1.9696969696969693,-0.7575757575757572 -2.07070707070707,-0.7575757575757572 -2.1717171717171713,-0.7575757575757572 -2.2727272727272725,-0.7575757575757572 -2.3737373737373733,-0.7575757575757572 -2.474747474747474,-0.7575757575757572 -2.5757575757575752,-0.7575757575757572 -2.6767676767676765,-0.7575757575757572 -2.7777777777777777,-0.7575757575757572 -2.8787878787878785,-0.7575757575757572 -2.9797979797979792,-0.7575757575757572 -3.0808080808080804,-0.7575757575757572 -3.1818181818181817,-0.7575757575757572 -3.2828282828282824,-0.7575757575757572 -3.383838383838383,-0.7575757575757572 -3.484848484848485,-0.7575757575757572 -3.5858585858585856,-0.7575757575757572 -3.6868686868686864,-0.7575757575757572 -3.7878787878787876,-0.7575757575757572 -3.8888888888888884,-0.7575757575757572 -3.98989898989899,-0.7575757575757572 -4.090909090909091,-0.7575757575757572 -4.191919191919193,-0.7575757575757572 -4.292929292929293,-0.7575757575757572 -4.393939393939394,-0.7575757575757572 -4.494949494949496,-0.7575757575757572 -4.595959595959596,-0.7575757575757572 -4.696969696969697,-0.7575757575757572 -4.7979797979797985,-0.7575757575757572 -4.898989898989899,-0.7575757575757572 -5.000000000000001,-0.7575757575757572" data-type="line" data-label="" points="984,87.67676767676778 974.4646464646464,97.21212121212153 964.9292929292927,106.747474747475 955.3939393939393,116.28282828282846 945.8585858585857,125.81818181818198 936.3232323232323,135.35353535353545 926.7878787878785,144.88888888888908 917.2525252525251,154.4242424242426 907.7171717171716,163.95959595959613 898.181818181818,173.4949494949496 888.6464646464647,183.03030303030312 879.111111111111,192.56565656565675 869.5757575757575,202.10101010101027 860.0404040404039,211.63636363636374 850.5050505050505,221.17171717171726 840.969696969697,230.70707070707084 831.4343434343433,240.24242424242436 821.8989898989898,249.77777777777794 812.3636363636363,259.3131313131314 802.8282828282828,268.84848484848493 793.2929292929292,278.38383838383857 783.7575757575758,287.91919191919203 774.2222222222222,297.4545454545456 764.6868686868686,306.9898989898991 755.1515151515151,316.5252525252526 745.6161616161615,326.06060606060623 736.0808080808081,335.5959595959597 726.5454545454545,345.1313131313133 717.0101010101009,354.66666666666674 707.4747474747475,364.2020202020203 697.9393939393939,373.73737373737384 688.4040404040404,383.27272727272737 678.8686868686868,392.80808080808094 669.3333333333333,402.3434343434344 659.7979797979798,411.87878787878793 650.2626262626262,421.4141414141415 640.7272727272727,430.94949494949503 631.1919191919192,440.4848484848486 621.6565656565656,450.0202020202021 612.1212121212121,459.5555555555556 602.5858585858585,469.0909090909092 593.0505050505051,478.6262626262627 583.5151515151515,488.1616161616163 573.9797979797979,497.69696969696975 564.4444444444445,507.23232323232327 554.9090909090909,516.7676767676768 545.3737373737374,526.3030303030304 535.8383838383838,535.838383838384 526.3030303030303,545.3737373737374 516.7676767676768,554.909090909091 507.2323232323232,564.4444444444445 497.69696969696975,573.979797979798 488.16161616161617,583.5151515151516 478.62626262626264,583.5151515151516 469.09090909090907,583.5151515151516 459.55555555555554,583.5151515151516 450.0202020202021,583.5151515151516 440.4848484848485,583.5151515151516 430.949494949495,583.5151515151516 421.4141414141414,583.5151515151516 411.8787878787879,583.5151515151516 402.34343434343435,583.5151515151516 392.80808080808083,583.5151515151516 383.2727272727273,583.5151515151516 373.7373737373738,583.5151515151516 364.2020202020202,583.5151515151516 354.6666666666667,583.5151515151516 345.13131313131316,583.5151515151516 335.59595959595964,583.5151515151516 326.0606060606061,583.5151515151516 316.5252525252526,583.5151515151516 306.9898989898991,583.5151515151516 297.4545454545455,583.5151515151516 287.91919191919203,583.5151515151516 278.38383838383845,583.5151515151516 268.84848484848493,583.5151515151516 259.3131313131314,583.5151515151516 249.77777777777783,583.5151515151516 240.2424242424243,583.5151515151516 230.70707070707084,583.5151515151516 221.17171717171726,583.5151515151516 211.63636363636374,583.5151515151516 202.10101010101022,583.5151515151516 192.5656565656567,583.5151515151516 183.03030303030312,583.5151515151516 173.4949494949496,583.5151515151516 163.95959595959607,583.5151515151516 154.42424242424255,583.5151515151516 144.88888888888903,583.5151515151516 135.35353535353545,583.5151515151516 125.81818181818193,583.5151515151516 116.28282828282829,583.5151515151516 106.74747474747483,583.5151515151516 97.21212121212136,583.5151515151516 87.67676767676772,583.5151515151516 78.14141414141426,583.5151515151516 68.60606060606068,583.5151515151516 59.07070707070716,583.5151515151516 49.53535353535369,583.5151515151516 40.00000000000006,583.5151515151516" fill="none" stroke="rgba(255,0,0,0.75)" stroke-width="11.327999999999996"/></g><g><polyline data-points="5.000000000000002,-1.2626262626262625 4.898989898989901,-1.1616161616161613 4.7979797979797985,-1.0606060606060603 4.696969696969697,-0.9595959595959596 4.595959595959597,-0.9595959595959596 4.494949494949497,-0.9595959595959596 4.393939393939394,-0.9595959595959596 4.292929292929293,-0.9595959595959596 4.191919191919193,-0.9595959595959596 4.090909090909092,-0.9595959595959596 3.989898989898992,-0.9595959595959596 3.8888888888888893,-0.9595959595959596 3.7878787878787885,-0.9595959595959596 3.6868686868686877,-0.9595959595959596 3.5858585858585874,-0.9595959595959596 3.4848484848484866,-0.9595959595959596 3.383838383838384,-0.9595959595959596 3.2828282828282833,-0.9595959595959596 3.181818181818183,-0.9595959595959596 3.080808080808082,-0.9595959595959596 2.9797979797979806,-0.9595959595959596 2.87878787878788,-0.9595959595959596 2.7777777777777786,-0.9595959595959596 2.676767676767678,-0.9595959595959596 2.575757575757577,-0.9595959595959596 2.4747474747474754,-0.9595959595959596 2.373737373737375,-0.9595959595959596 2.2727272727272734,-0.9595959595959596 2.1717171717171726,-0.9595959595959596 2.070707070707072,-0.9595959595959596 1.9696969696969702,-0.9595959595959596 1.8686868686868696,-0.9595959595959596 1.767676767676768,-0.9595959595959596 1.6666666666666674,-0.9595959595959596 1.5656565656565666,-0.9595959595959596 1.4646464646464652,-0.9595959595959596 1.3636363636363644,-0.9595959595959596 1.262626262626263,-0.9595959595959596 1.1616161616161622,-0.9595959595959596 1.0606060606060617,-0.9595959595959596 0.9595959595959602,-0.9595959595959596 0.8585858585858596,-0.9595959595959596 0.7575757575757579,-0.9595959595959596 0.6565656565656574,-0.9595959595959596 0.5555555555555567,-0.9595959595959596 0.4545454545454551,-0.9595959595959596 0.3535353535353544,-0.9595959595959596 0.2525252525252529,-0.9595959595959596 0.1515151515151522,-0.9595959595959596 0.050505050505051545,-0.9595959595959596 -0.05050505050505001,-0.9595959595959596 -0.15151515151515066,-0.9595959595959596 -0.2525252525252522,-0.9595959595959596 -0.35353535353535287,-0.9595959595959596 -0.4545454545454544,-0.9595959595959596 -0.555555555555555,-0.9595959595959596 -0.6565656565656557,-0.9595959595959596 -0.7575757575757572,-0.9595959595959596 -0.8585858585858579,-0.9595959595959596 -0.9595959595959596,-0.9595959595959596 -1.0606060606060603,-0.9595959595959596 -1.1616161616161613,-0.9595959595959596 -1.2626262626262625,-0.9595959595959596 -1.363636363636363,-0.9595959595959596 -1.4646464646464643,-0.9595959595959596 -1.5656565656565653,-0.9595959595959596 -1.6666666666666665,-0.9595959595959596 -1.7676767676767675,-0.9595959595959596 -1.8686868686868683,-0.9595959595959596 -1.9696969696969693,-0.9595959595959596 -2.07070707070707,-0.9595959595959596 -2.1717171717171713,-0.9595959595959596 -2.2727272727272725,-0.9595959595959596 -2.3737373737373733,-0.9595959595959596 -2.474747474747474,-0.9595959595959596 -2.5757575757575752,-0.9595959595959596 -2.6767676767676765,-0.9595959595959596 -2.7777777777777777,-0.9595959595959596 -2.8787878787878785,-0.9595959595959596 -2.9797979797979792,-0.9595959595959596 -3.0808080808080804,-0.9595959595959596 -3.1818181818181817,-0.9595959595959596 -3.2828282828282824,-0.9595959595959596 -3.383838383838383,-0.9595959595959596 -3.484848484848485,-0.9595959595959596 -3.5858585858585856,-0.9595959595959596 -3.6868686868686864,-0.9595959595959596 -3.7878787878787876,-0.9595959595959596 -3.8888888888888884,-0.9595959595959596 -3.98989898989899,-0.9595959595959596 -4.090909090909091,-0.9595959595959596 -4.191919191919193,-0.9595959595959596 -4.292929292929293,-0.9595959595959596 -4.393939393939394,-0.9595959595959596 -4.494949494949496,-0.9595959595959596 -4.595959595959596,-0.9595959595959596 -4.696969696969697,-0.9595959595959596 -4.7979797979797985,-0.9595959595959596 -4.898989898989899,-0.9595959595959596 -5.000000000000001,-0.9595959595959596" data-type="line" data-label="" points="984,631.1919191919193 974.4646464646464,621.6565656565657 964.9292929292927,612.1212121212121 955.3939393939393,602.5858585858587 945.8585858585857,602.5858585858587 936.3232323232323,602.5858585858587 926.7878787878785,602.5858585858587 917.2525252525251,602.5858585858587 907.7171717171716,602.5858585858587 898.181818181818,602.5858585858587 888.6464646464647,602.5858585858587 879.111111111111,602.5858585858587 869.5757575757575,602.5858585858587 860.0404040404039,602.5858585858587 850.5050505050505,602.5858585858587 840.969696969697,602.5858585858587 831.4343434343433,602.5858585858587 821.8989898989898,602.5858585858587 812.3636363636363,602.5858585858587 802.8282828282828,602.5858585858587 793.2929292929292,602.5858585858587 783.7575757575758,602.5858585858587 774.2222222222222,602.5858585858587 764.6868686868686,602.5858585858587 755.1515151515151,602.5858585858587 745.6161616161615,602.5858585858587 736.0808080808081,602.5858585858587 726.5454545454545,602.5858585858587 717.0101010101009,602.5858585858587 707.4747474747475,602.5858585858587 697.9393939393939,602.5858585858587 688.4040404040404,602.5858585858587 678.8686868686868,602.5858585858587 669.3333333333333,602.5858585858587 659.7979797979798,602.5858585858587 650.2626262626262,602.5858585858587 640.7272727272727,602.5858585858587 631.1919191919192,602.5858585858587 621.6565656565656,602.5858585858587 612.1212121212121,602.5858585858587 602.5858585858585,602.5858585858587 593.0505050505051,602.5858585858587 583.5151515151515,602.5858585858587 573.9797979797979,602.5858585858587 564.4444444444445,602.5858585858587 554.9090909090909,602.5858585858587 545.3737373737374,602.5858585858587 535.8383838383838,602.5858585858587 526.3030303030303,602.5858585858587 516.7676767676768,602.5858585858587 507.2323232323232,602.5858585858587 497.69696969696975,602.5858585858587 488.16161616161617,602.5858585858587 478.62626262626264,602.5858585858587 469.09090909090907,602.5858585858587 459.55555555555554,602.5858585858587 450.0202020202021,602.5858585858587 440.4848484848485,602.5858585858587 430.949494949495,602.5858585858587 421.4141414141414,602.5858585858587 411.8787878787879,602.5858585858587 402.34343434343435,602.5858585858587 392.80808080808083,602.5858585858587 383.2727272727273,602.5858585858587 373.7373737373738,602.5858585858587 364.2020202020202,602.5858585858587 354.6666666666667,602.5858585858587 345.13131313131316,602.5858585858587 335.59595959595964,602.5858585858587 326.0606060606061,602.5858585858587 316.5252525252526,602.5858585858587 306.9898989898991,602.5858585858587 297.4545454545455,602.5858585858587 287.91919191919203,602.5858585858587 278.38383838383845,602.5858585858587 268.84848484848493,602.5858585858587 259.3131313131314,602.5858585858587 249.77777777777783,602.5858585858587 240.2424242424243,602.5858585858587 230.70707070707084,602.5858585858587 221.17171717171726,602.5858585858587 211.63636363636374,602.5858585858587 202.10101010101022,602.5858585858587 192.5656565656567,602.5858585858587 183.03030303030312,602.5858585858587 173.4949494949496,602.5858585858587 163.95959595959607,602.5858585858587 154.42424242424255,602.5858585858587 144.88888888888903,602.5858585858587 135.35353535353545,602.5858585858587 125.81818181818193,602.5858585858587 116.28282828282829,602.5858585858587 106.74747474747483,602.5858585858587 97.21212121212136,602.5858585858587 87.67676767676772,602.5858585858587 78.14141414141426,602.5858585858587 68.60606060606068,602.5858585858587 59.07070707070716,602.5858585858587 49.53535353535369,602.5858585858587 40.00000000000006,602.5858585858587" fill="none" stroke="rgba(0,0,255,0.75)" stroke-width="11.327999999999996"/></g><g><polyline data-points="-0.35353535353535287,-5.000000000000001 -0.35353535353535287,-4.898989898989899 -0.35353535353535287,-4.7979797979797985 -0.35353535353535287,-4.696969696969697 -0.35353535353535287,-4.595959595959596 -0.35353535353535287,-4.494949494949496 -0.35353535353535287,-4.393939393939394 -0.35353535353535287,-4.292929292929293 -0.35353535353535287,-4.191919191919193 -0.35353535353535287,-4.090909090909091 -0.35353535353535287,-3.98989898989899 -0.35353535353535287,-3.8888888888888884 -0.35353535353535287,-3.7878787878787876 -0.35353535353535287,-3.6868686868686864 -0.35353535353535287,-3.5858585858585856 -0.35353535353535287,-3.484848484848485 -0.35353535353535287,-3.383838383838383 -0.35353535353535287,-3.2828282828282824 -0.35353535353535287,-3.1818181818181817 -0.35353535353535287,-3.0808080808080804 -0.35353535353535287,-2.9797979797979792 -0.35353535353535287,-2.8787878787878785 -0.35353535353535287,-2.7777777777777777 -0.35353535353535287,-2.6767676767676765 -0.35353535353535287,-2.5757575757575752 -0.35353535353535287,-2.474747474747474 -0.35353535353535287,-2.3737373737373733 -0.35353535353535287,-2.2727272727272725 -0.35353535353535287,-2.1717171717171713 -0.35353535353535287,-2.07070707070707 -0.35353535353535287,-1.9696969696969693 -0.35353535353535287,-1.8686868686868683 -0.35353535353535287,-1.7676767676767675 -0.35353535353535287,-1.6666666666666665 -0.35353535353535287,-1.5656565656565653 -0.35353535353535287,-1.4646464646464643 -0.35353535353535287,-1.363636363636363 -0.2525252525252522,-1.2626262626262625 -0.15151515151515066,-1.1616161616161613 -0.05050505050505001,-1.0606060606060603 0.050505050505051545,-0.9595959595959596 0.1515151515151522,-0.8585858585858579 0.2525252525252529,-0.7575757575757572 0.3535353535353544,-0.6565656565656557 0.4545454545454551,-0.555555555555555" data-type="line" data-label="" points="478.62626262626264,984 478.62626262626264,974.4646464646464 478.62626262626264,964.9292929292928 478.62626262626264,955.3939393939394 478.62626262626264,945.8585858585858 478.62626262626264,936.3232323232323 478.62626262626264,926.7878787878788 478.62626262626264,917.2525252525252 478.62626262626264,907.7171717171718 478.62626262626264,898.1818181818181 478.62626262626264,888.6464646464647 478.62626262626264,879.1111111111111 478.62626262626264,869.5757575757575 478.62626262626264,860.0404040404039 478.62626262626264,850.5050505050505 478.62626262626264,840.969696969697 478.62626262626264,831.4343434343434 478.62626262626264,821.8989898989898 478.62626262626264,812.3636363636363 478.62626262626264,802.8282828282828 478.62626262626264,793.2929292929292 478.62626262626264,783.7575757575758 478.62626262626264,774.2222222222222 478.62626262626264,764.6868686868687 478.62626262626264,755.1515151515151 478.62626262626264,745.6161616161615 478.62626262626264,736.0808080808081 478.62626262626264,726.5454545454545 478.62626262626264,717.010101010101 478.62626262626264,707.4747474747475 478.62626262626264,697.939393939394 478.62626262626264,688.4040404040404 478.62626262626264,678.8686868686868 478.62626262626264,669.3333333333334 478.62626262626264,659.7979797979798 478.62626262626264,650.2626262626263 478.62626262626264,640.7272727272727 488.16161616161617,631.1919191919193 497.69696969696975,621.6565656565657 507.2323232323232,612.1212121212121 516.7676767676768,602.5858585858587 526.3030303030303,593.0505050505051 535.8383838383838,583.5151515151516 545.3737373737374,573.979797979798 554.9090909090909,564.4444444444445" fill="none" stroke="rgba(255,0,0,0.75)" stroke-width="11.327999999999996"/></g><g><polyline data-points="0.4545454545454551,-0.555555555555555 0.3535353535353544,-0.4545454545454544 0.2525252525252529,-0.35353535353535287 0.1515151515151522,-0.2525252525252522 0.050505050505051545,-0.15151515151515066 -0.05050505050505001,-0.05050505050505001 -0.15151515151515066,0.050505050505051545 -0.2525252525252522,0.1515151515151522 -0.35353535353535287,0.2525252525252529 -0.4545454545454544,0.3535353535353544 -0.555555555555555,0.4545454545454551 -0.6565656565656557,0.5555555555555567 -0.7575757575757572,0.6565656565656574 -0.8585858585858579,0.7575757575757579 -0.9595959595959596,0.8585858585858596 -1.0606060606060603,0.9595959595959602 -1.1616161616161613,1.0606060606060617 -1.2626262626262625,1.1616161616161622 -1.363636363636363,1.262626262626263 -1.4646464646464643,1.3636363636363644 -1.5656565656565653,1.4646464646464652 -1.6666666666666665,1.5656565656565666 -1.7676767676767675,1.6666666666666674 -1.8686868686868683,1.767676767676768 -1.9696969696969693,1.8686868686868696 -2.07070707070707,1.9696969696969702 -2.1717171717171713,2.070707070707072 -2.2727272727272725,2.1717171717171726 -2.3737373737373733,2.2727272727272734 -2.474747474747474,2.373737373737375 -2.5757575757575752,2.4747474747474754 -2.6767676767676765,2.575757575757577 -2.7777777777777777,2.676767676767678 -2.7777777777777777,2.7777777777777786 -2.7777777777777777,2.87878787878788 -2.7777777777777777,2.9797979797979806 -2.7777777777777777,3.080808080808082 -2.7777777777777777,3.181818181818183 -2.7777777777777777,3.2828282828282833 -2.7777777777777777,3.383838383838384 -2.7777777777777777,3.4848484848484866 -2.7777777777777777,3.5858585858585874 -2.7777777777777777,3.6868686868686877 -2.7777777777777777,3.7878787878787885 -2.7777777777777777,3.8888888888888893 -2.7777777777777777,3.989898989898992" data-type="line" data-label="" points="554.9090909090909,564.4444444444445 545.3737373737374,554.909090909091 535.8383838383838,545.3737373737374 526.3030303030303,535.838383838384 516.7676767676768,526.3030303030304 507.2323232323232,516.7676767676768 497.69696969696975,507.23232323232327 488.16161616161617,497.69696969696975 478.62626262626264,488.1616161616163 469.09090909090907,478.6262626262627 459.55555555555554,469.0909090909092 450.0202020202021,459.5555555555556 440.4848484848485,450.0202020202021 430.949494949495,440.4848484848486 421.4141414141414,430.94949494949503 411.8787878787879,421.4141414141415 402.34343434343435,411.87878787878793 392.80808080808083,402.3434343434344 383.2727272727273,392.80808080808094 373.7373737373738,383.27272727272737 364.2020202020202,373.73737373737384 354.6666666666667,364.2020202020203 345.13131313131316,354.66666666666674 335.59595959595964,345.1313131313133 326.0606060606061,335.5959595959597 316.5252525252526,326.06060606060623 306.9898989898991,316.5252525252526 297.4545454545455,306.9898989898991 287.91919191919203,297.4545454545456 278.38383838383845,287.91919191919203 268.84848484848493,278.38383838383857 259.3131313131314,268.84848484848493 249.77777777777783,259.3131313131314 249.77777777777783,249.77777777777794 249.77777777777783,240.24242424242436 249.77777777777783,230.70707070707084 249.77777777777783,221.17171717171726 249.77777777777783,211.63636363636374 249.77777777777783,202.10101010101027 249.77777777777783,192.56565656565675 249.77777777777783,183.03030303030312 249.77777777777783,173.4949494949496 249.77777777777783,163.95959595959613 249.77777777777783,154.4242424242426 249.77777777777783,144.88888888888908 249.77777777777783,135.35353535353545" fill="none" stroke="rgba(0,0,255,0.75)" stroke-width="11.327999999999996"/></g><g><polyline data-points="-2.7777777777777777,3.989898989898992 -2.7777777777777777,4.090909090909092 -2.7777777777777777,4.191919191919193 -2.7777777777777777,4.292929292929293 -2.7777777777777777,4.393939393939394 -2.7777777777777777,4.494949494949497 -2.7777777777777777,4.595959595959597 -2.7777777777777777,4.696969696969697 -2.7777777777777777,4.7979797979797985 -2.7777777777777777,4.898989898989901 -2.7777777777777777,5.000000000000002" data-type="line" data-label="" points="249.77777777777783,135.35353535353545 249.77777777777783,125.81818181818198 249.77777777777783,116.28282828282846 249.77777777777783,106.747474747475 249.77777777777783,97.21212121212153 249.77777777777783,87.67676767676778 249.77777777777783,78.14141414141432 249.77777777777783,68.60606060606085 249.77777777777783,59.07070707070733 249.77777777777783,49.53535353535369 249.77777777777783,40.000000000000114" fill="none" stroke="rgba(255,0,0,0.75)" stroke-width="11.327999999999996"/></g><g><polyline data-points="-5.000000000000001,-2.8787878787878785 -4.898989898989899,-2.9797979797979792 -4.7979797979797985,-3.0808080808080804 -4.696969696969697,-3.1818181818181817 -4.595959595959596,-3.2828282828282824 -4.494949494949496,-3.383838383838383 -4.393939393939394,-3.484848484848485 -4.292929292929293,-3.5858585858585856 -4.191919191919193,-3.6868686868686864 -4.090909090909091,-3.7878787878787876 -3.98989898989899,-3.8888888888888884 -3.8888888888888884,-3.98989898989899 -3.7878787878787876,-3.98989898989899 -3.6868686868686864,-3.98989898989899 -3.5858585858585856,-3.98989898989899 -3.484848484848485,-3.98989898989899 -3.383838383838383,-3.98989898989899 -3.2828282828282824,-3.98989898989899 -3.1818181818181817,-3.98989898989899 -3.0808080808080804,-3.98989898989899 -2.9797979797979792,-3.98989898989899 -2.8787878787878785,-3.98989898989899 -2.7777777777777777,-3.98989898989899 -2.6767676767676765,-3.98989898989899 -2.5757575757575752,-3.98989898989899 -2.474747474747474,-3.98989898989899 -2.3737373737373733,-3.98989898989899 -2.2727272727272725,-3.98989898989899 -2.1717171717171713,-3.98989898989899 -2.07070707070707,-3.98989898989899 -1.9696969696969693,-3.98989898989899 -1.8686868686868683,-3.98989898989899 -1.7676767676767675,-3.98989898989899 -1.6666666666666665,-3.98989898989899 -1.5656565656565653,-3.98989898989899 -1.4646464646464643,-3.98989898989899 -1.363636363636363,-3.98989898989899 -1.2626262626262625,-3.98989898989899 -1.1616161616161613,-3.98989898989899 -1.0606060606060603,-3.98989898989899 -0.9595959595959596,-3.98989898989899 -0.8585858585858579,-3.98989898989899 -0.7575757575757572,-3.98989898989899" data-type="line" data-label="" points="40.00000000000006,783.7575757575758 49.53535353535369,793.2929292929292 59.07070707070716,802.8282828282828 68.60606060606068,812.3636363636363 78.14141414141426,821.8989898989898 87.67676767676772,831.4343434343434 97.21212121212136,840.969696969697 106.74747474747483,850.5050505050505 116.28282828282829,860.0404040404039 125.81818181818193,869.5757575757575 135.35353535353545,879.1111111111111 144.88888888888903,888.6464646464647 154.42424242424255,888.6464646464647 163.95959595959607,888.6464646464647 173.4949494949496,888.6464646464647 183.03030303030312,888.6464646464647 192.5656565656567,888.6464646464647 202.10101010101022,888.6464646464647 211.63636363636374,888.6464646464647 221.17171717171726,888.6464646464647 230.70707070707084,888.6464646464647 240.2424242424243,888.6464646464647 249.77777777777783,888.6464646464647 259.3131313131314,888.6464646464647 268.84848484848493,888.6464646464647 278.38383838383845,888.6464646464647 287.91919191919203,888.6464646464647 297.4545454545455,888.6464646464647 306.9898989898991,888.6464646464647 316.5252525252526,888.6464646464647 326.0606060606061,888.6464646464647 335.59595959595964,888.6464646464647 345.13131313131316,888.6464646464647 354.6666666666667,888.6464646464647 364.2020202020202,888.6464646464647 373.7373737373738,888.6464646464647 383.2727272727273,888.6464646464647 392.80808080808083,888.6464646464647 402.34343434343435,888.6464646464647 411.8787878787879,888.6464646464647 421.4141414141414,888.6464646464647 430.949494949495,888.6464646464647 440.4848484848485,888.6464646464647" fill="none" stroke="rgba(255,0,0,0.75)" stroke-width="11.327999999999996"/></g><g><polyline data-points="-0.7575757575757572,-3.98989898989899 -0.6565656565656557,-3.98989898989899 -0.555555555555555,-3.98989898989899 -0.4545454545454544,-3.98989898989899 -0.35353535353535287,-3.98989898989899 -0.2525252525252522,-3.98989898989899 -0.15151515151515066,-3.98989898989899 -0.05050505050505001,-3.98989898989899 0.050505050505051545,-3.98989898989899 0.1515151515151522,-3.98989898989899 0.2525252525252529,-3.98989898989899 0.3535353535353544,-3.98989898989899 0.4545454545454551,-3.98989898989899 0.5555555555555567,-3.98989898989899 0.6565656565656574,-3.98989898989899 0.7575757575757579,-3.98989898989899 0.8585858585858596,-3.98989898989899 0.9595959595959602,-3.98989898989899 1.0606060606060617,-3.98989898989899 1.1616161616161622,-3.98989898989899 1.262626262626263,-3.98989898989899 1.3636363636363644,-3.98989898989899 1.4646464646464652,-3.98989898989899 1.5656565656565666,-3.98989898989899 1.6666666666666674,-3.98989898989899 1.767676767676768,-3.98989898989899 1.8686868686868696,-3.98989898989899 1.9696969696969702,-3.98989898989899 2.070707070707072,-3.98989898989899 2.1717171717171726,-3.98989898989899 2.2727272727272734,-3.98989898989899 2.373737373737375,-3.98989898989899 2.4747474747474754,-3.98989898989899 2.575757575757577,-3.98989898989899 2.676767676767678,-3.98989898989899 2.7777777777777786,-3.98989898989899 2.87878787878788,-3.98989898989899 2.9797979797979806,-3.98989898989899 3.080808080808082,-3.98989898989899 3.181818181818183,-3.98989898989899 3.2828282828282833,-3.98989898989899 3.383838383838384,-3.98989898989899 3.4848484848484866,-3.98989898989899 3.5858585858585874,-3.98989898989899 3.6868686868686877,-3.98989898989899 3.7878787878787885,-3.98989898989899 3.8888888888888893,-3.98989898989899 3.989898989898992,-3.98989898989899" data-type="line" data-label="" points="440.4848484848485,888.6464646464647 450.0202020202021,888.6464646464647 459.55555555555554,888.6464646464647 469.09090909090907,888.6464646464647 478.62626262626264,888.6464646464647 488.16161616161617,888.6464646464647 497.69696969696975,888.6464646464647 507.2323232323232,888.6464646464647 516.7676767676768,888.6464646464647 526.3030303030303,888.6464646464647 535.8383838383838,888.6464646464647 545.3737373737374,888.6464646464647 554.9090909090909,888.6464646464647 564.4444444444445,888.6464646464647 573.9797979797979,888.6464646464647 583.5151515151515,888.6464646464647 593.0505050505051,888.6464646464647 602.5858585858585,888.6464646464647 612.1212121212121,888.6464646464647 621.6565656565656,888.6464646464647 631.1919191919192,888.6464646464647 640.7272727272727,888.6464646464647 650.2626262626262,888.6464646464647 659.7979797979798,888.6464646464647 669.3333333333333,888.6464646464647 678.8686868686868,888.6464646464647 688.4040404040404,888.6464646464647 697.9393939393939,888.6464646464647 707.4747474747475,888.6464646464647 717.0101010101009,888.6464646464647 726.5454545454545,888.6464646464647 736.0808080808081,888.6464646464647 745.6161616161615,888.6464646464647 755.1515151515151,888.6464646464647 764.6868686868686,888.6464646464647 774.2222222222222,888.6464646464647 783.7575757575758,888.6464646464647 793.2929292929292,888.6464646464647 802.8282828282828,888.6464646464647 812.3636363636363,888.6464646464647 821.8989898989898,888.6464646464647 831.4343434343433,888.6464646464647 840.969696969697,888.6464646464647 850.5050505050505,888.6464646464647 860.0404040404039,888.6464646464647 869.5757575757575,888.6464646464647 879.111111111111,888.6464646464647 888.6464646464647,888.6464646464647" fill="none" stroke="rgba(0,0,255,0.75)" stroke-width="11.327999999999996"/></g><g><polyline data-points="3.989898989898992,-3.98989898989899 4.090909090909092,-4.090909090909091 4.191919191919193,-4.090909090909091 4.292929292929293,-4.090909090909091 4.393939393939394,-4.090909090909091 4.494949494949497,-4.090909090909091 4.595959595959597,-4.090909090909091 4.696969696969697,-4.090909090909091 4.7979797979797985,-4.090909090909091 4.898989898989901,-4.090909090909091 5.000000000000002,-4.090909090909091" data-type="line" data-label="" points="888.6464646464647,888.6464646464647 898.181818181818,898.1818181818181 907.7171717171716,898.1818181818181 917.2525252525251,898.1818181818181 926.7878787878785,898.1818181818181 936.3232323232323,898.1818181818181 945.8585858585857,898.1818181818181 955.3939393939393,898.1818181818181 964.9292929292927,898.1818181818181 974.4646464646464,898.1818181818181 984,898.1818181818181" fill="none" stroke="rgba(255,0,0,0.75)" stroke-width="11.327999999999996"/></g><g><polyline data-points="-5.000000000000001,-0.9595959595959596 -4.898989898989899,-1.0606060606060603 -4.7979797979797985,-1.1616161616161613 -4.696969696969697,-1.2626262626262625 -4.595959595959596,-1.363636363636363 -4.494949494949496,-1.4646464646464643 -4.393939393939394,-1.5656565656565653 -4.292929292929293,-1.6666666666666665 -4.191919191919193,-1.7676767676767675 -4.090909090909091,-1.8686868686868683 -3.98989898989899,-1.9696969696969693 -3.8888888888888884,-2.07070707070707 -3.7878787878787876,-2.1717171717171713 -3.6868686868686864,-2.2727272727272725 -3.5858585858585856,-2.3737373737373733 -3.484848484848485,-2.474747474747474 -3.383838383838383,-2.5757575757575752 -3.2828282828282824,-2.6767676767676765 -3.1818181818181817,-2.7777777777777777 -3.0808080808080804,-2.8787878787878785 -2.9797979797979792,-2.9797979797979792 -2.8787878787878785,-3.0808080808080804 -2.7777777777777777,-3.1818181818181817 -2.6767676767676765,-3.2828282828282824 -2.5757575757575752,-3.383838383838383 -2.474747474747474,-3.484848484848485 -2.3737373737373733,-3.5858585858585856 -2.2727272727272725,-3.5858585858585856 -2.1717171717171713,-3.5858585858585856 -2.07070707070707,-3.5858585858585856 -1.9696969696969693,-3.5858585858585856 -1.8686868686868683,-3.5858585858585856 -1.7676767676767675,-3.5858585858585856 -1.6666666666666665,-3.5858585858585856 -1.5656565656565653,-3.5858585858585856 -1.4646464646464643,-3.5858585858585856 -1.363636363636363,-3.5858585858585856 -1.2626262626262625,-3.5858585858585856 -1.1616161616161613,-3.5858585858585856 -1.0606060606060603,-3.5858585858585856 -0.9595959595959596,-3.5858585858585856" data-type="line" data-label="" points="40.00000000000006,602.5858585858587 49.53535353535369,612.1212121212121 59.07070707070716,621.6565656565657 68.60606060606068,631.1919191919193 78.14141414141426,640.7272727272727 87.67676767676772,650.2626262626263 97.21212121212136,659.7979797979798 106.74747474747483,669.3333333333334 116.28282828282829,678.8686868686868 125.81818181818193,688.4040404040404 135.35353535353545,697.939393939394 144.88888888888903,707.4747474747475 154.42424242424255,717.010101010101 163.95959595959607,726.5454545454545 173.4949494949496,736.0808080808081 183.03030303030312,745.6161616161615 192.5656565656567,755.1515151515151 202.10101010101022,764.6868686868687 211.63636363636374,774.2222222222222 221.17171717171726,783.7575757575758 230.70707070707084,793.2929292929292 240.2424242424243,802.8282828282828 249.77777777777783,812.3636363636363 259.3131313131314,821.8989898989898 268.84848484848493,831.4343434343434 278.38383838383845,840.969696969697 287.91919191919203,850.5050505050505 297.4545454545455,850.5050505050505 306.9898989898991,850.5050505050505 316.5252525252526,850.5050505050505 326.0606060606061,850.5050505050505 335.59595959595964,850.5050505050505 345.13131313131316,850.5050505050505 354.6666666666667,850.5050505050505 364.2020202020202,850.5050505050505 373.7373737373738,850.5050505050505 383.2727272727273,850.5050505050505 392.80808080808083,850.5050505050505 402.34343434343435,850.5050505050505 411.8787878787879,850.5050505050505 421.4141414141414,850.5050505050505" fill="none" stroke="rgba(255,0,0,0.75)" stroke-width="11.327999999999996"/></g><g><polyline data-points="-0.9595959595959596,-3.5858585858585856 -0.8585858585858579,-3.6868686868686864 -0.7575757575757572,-3.6868686868686864 -0.6565656565656557,-3.6868686868686864 -0.555555555555555,-3.6868686868686864 -0.4545454545454544,-3.6868686868686864 -0.35353535353535287,-3.6868686868686864 -0.2525252525252522,-3.6868686868686864 -0.15151515151515066,-3.6868686868686864 -0.05050505050505001,-3.6868686868686864 0.050505050505051545,-3.6868686868686864 0.1515151515151522,-3.6868686868686864 0.2525252525252529,-3.6868686868686864 0.3535353535353544,-3.6868686868686864 0.4545454545454551,-3.6868686868686864 0.5555555555555567,-3.6868686868686864 0.6565656565656574,-3.6868686868686864 0.7575757575757579,-3.6868686868686864 0.8585858585858596,-3.6868686868686864 0.9595959595959602,-3.6868686868686864 1.0606060606060617,-3.6868686868686864 1.1616161616161622,-3.6868686868686864 1.262626262626263,-3.6868686868686864 1.3636363636363644,-3.6868686868686864 1.4646464646464652,-3.6868686868686864 1.5656565656565666,-3.6868686868686864 1.6666666666666674,-3.6868686868686864 1.767676767676768,-3.6868686868686864 1.8686868686868696,-3.6868686868686864 1.9696969696969702,-3.6868686868686864 2.070707070707072,-3.6868686868686864 2.1717171717171726,-3.6868686868686864 2.2727272727272734,-3.6868686868686864 2.373737373737375,-3.6868686868686864 2.4747474747474754,-3.6868686868686864 2.575757575757577,-3.6868686868686864 2.676767676767678,-3.6868686868686864 2.7777777777777786,-3.6868686868686864 2.87878787878788,-3.6868686868686864 2.9797979797979806,-3.6868686868686864 3.080808080808082,-3.6868686868686864 3.181818181818183,-3.6868686868686864 3.2828282828282833,-3.6868686868686864 3.383838383838384,-3.6868686868686864 3.4848484848484866,-3.6868686868686864 3.5858585858585874,-3.6868686868686864 3.6868686868686877,-3.6868686868686864 3.7878787878787885,-3.6868686868686864 3.8888888888888893,-3.6868686868686864 3.989898989898992,-3.6868686868686864 4.090909090909092,-3.7878787878787876 4.191919191919193,-3.8888888888888884 4.292929292929293,-3.98989898989899 4.393939393939394,-4.090909090909091 4.494949494949497,-4.191919191919193 4.595959595959597,-4.292929292929293 4.696969696969697,-4.393939393939394 4.7979797979797985,-4.494949494949496 4.898989898989901,-4.595959595959596 5.000000000000002,-4.696969696969697" data-type="line" data-label="" points="421.4141414141414,850.5050505050505 430.949494949495,860.0404040404039 440.4848484848485,860.0404040404039 450.0202020202021,860.0404040404039 459.55555555555554,860.0404040404039 469.09090909090907,860.0404040404039 478.62626262626264,860.0404040404039 488.16161616161617,860.0404040404039 497.69696969696975,860.0404040404039 507.2323232323232,860.0404040404039 516.7676767676768,860.0404040404039 526.3030303030303,860.0404040404039 535.8383838383838,860.0404040404039 545.3737373737374,860.0404040404039 554.9090909090909,860.0404040404039 564.4444444444445,860.0404040404039 573.9797979797979,860.0404040404039 583.5151515151515,860.0404040404039 593.0505050505051,860.0404040404039 602.5858585858585,860.0404040404039 612.1212121212121,860.0404040404039 621.6565656565656,860.0404040404039 631.1919191919192,860.0404040404039 640.7272727272727,860.0404040404039 650.2626262626262,860.0404040404039 659.7979797979798,860.0404040404039 669.3333333333333,860.0404040404039 678.8686868686868,860.0404040404039 688.4040404040404,860.0404040404039 697.9393939393939,860.0404040404039 707.4747474747475,860.0404040404039 717.0101010101009,860.0404040404039 726.5454545454545,860.0404040404039 736.0808080808081,860.0404040404039 745.6161616161615,860.0404040404039 755.1515151515151,860.0404040404039 764.6868686868686,860.0404040404039 774.2222222222222,860.0404040404039 783.7575757575758,860.0404040404039 793.2929292929292,860.0404040404039 802.8282828282828,860.0404040404039 812.3636363636363,860.0404040404039 821.8989898989898,860.0404040404039 831.4343434343433,860.0404040404039 840.969696969697,860.0404040404039 850.5050505050505,860.0404040404039 860.0404040404039,860.0404040404039 869.5757575757575,860.0404040404039 879.111111111111,860.0404040404039 888.6464646464647,860.0404040404039 898.181818181818,869.5757575757575 907.7171717171716,879.1111111111111 917.2525252525251,888.6464646464647 926.7878787878785,898.1818181818181 936.3232323232323,907.7171717171718 945.8585858585857,917.2525252525252 955.3939393939393,926.7878787878788 964.9292929292927,936.3232323232323 974.4646464646464,945.8585858585858 984,955.3939393939394" fill="none" stroke="rgba(0,0,255,0.75)" stroke-width="11.327999999999996"/></g><g><polyline data-points="-5.000000000000001,-1.4646464646464643 -4.898989898989899,-1.363636363636363 -4.7979797979797985,-1.363636363636363 -4.696969696969697,-1.363636363636363 -4.595959595959596,-1.363636363636363 -4.494949494949496,-1.363636363636363 -4.393939393939394,-1.363636363636363 -4.292929292929293,-1.363636363636363 -4.191919191919193,-1.363636363636363 -4.090909090909091,-1.363636363636363 -3.98989898989899,-1.363636363636363 -3.8888888888888884,-1.363636363636363 -3.7878787878787876,-1.363636363636363 -3.6868686868686864,-1.363636363636363 -3.5858585858585856,-1.363636363636363 -3.484848484848485,-1.363636363636363 -3.383838383838383,-1.363636363636363 -3.2828282828282824,-1.363636363636363 -3.1818181818181817,-1.363636363636363 -3.0808080808080804,-1.363636363636363 -2.9797979797979792,-1.363636363636363 -2.8787878787878785,-1.363636363636363 -2.7777777777777777,-1.363636363636363 -2.6767676767676765,-1.363636363636363 -2.5757575757575752,-1.363636363636363 -2.474747474747474,-1.363636363636363 -2.3737373737373733,-1.363636363636363 -2.2727272727272725,-1.363636363636363 -2.1717171717171713,-1.363636363636363 -2.07070707070707,-1.363636363636363 -1.9696969696969693,-1.363636363636363 -1.8686868686868683,-1.363636363636363 -1.7676767676767675,-1.363636363636363 -1.6666666666666665,-1.363636363636363 -1.5656565656565653,-1.363636363636363 -1.4646464646464643,-1.363636363636363 -1.363636363636363,-1.363636363636363 -1.2626262626262625,-1.363636363636363 -1.1616161616161613,-1.363636363636363 -1.0606060606060603,-1.363636363636363 -0.9595959595959596,-1.363636363636363 -0.8585858585858579,-1.363636363636363 -0.7575757575757572,-1.363636363636363 -0.6565656565656557,-1.363636363636363 -0.555555555555555,-1.363636363636363 -0.4545454545454544,-1.363636363636363 -0.35353535353535287,-1.363636363636363 -0.2525252525252522,-1.363636363636363 -0.15151515151515066,-1.363636363636363 -0.05050505050505001,-1.363636363636363 0.050505050505051545,-1.363636363636363 0.1515151515151522,-1.363636363636363 0.2525252525252529,-1.363636363636363 0.3535353535353544,-1.363636363636363 0.4545454545454551,-1.363636363636363 0.5555555555555567,-1.363636363636363 0.6565656565656574,-1.363636363636363 0.7575757575757579,-1.363636363636363 0.8585858585858596,-1.363636363636363 0.9595959595959602,-1.363636363636363 1.0606060606060617,-1.363636363636363 1.1616161616161622,-1.363636363636363 1.262626262626263,-1.363636363636363 1.3636363636363644,-1.363636363636363 1.4646464646464652,-1.363636363636363 1.5656565656565666,-1.363636363636363 1.6666666666666674,-1.363636363636363 1.767676767676768,-1.363636363636363 1.8686868686868696,-1.363636363636363 1.9696969696969702,-1.363636363636363 2.070707070707072,-1.363636363636363 2.1717171717171726,-1.363636363636363 2.2727272727272734,-1.363636363636363 2.373737373737375,-1.363636363636363 2.4747474747474754,-1.363636363636363 2.575757575757577,-1.363636363636363 2.676767676767678,-1.363636363636363 2.7777777777777786,-1.363636363636363 2.87878787878788,-1.363636363636363 2.9797979797979806,-1.363636363636363 3.080808080808082,-1.363636363636363 3.181818181818183,-1.363636363636363 3.2828282828282833,-1.363636363636363 3.383838383838384,-1.363636363636363 3.4848484848484866,-1.363636363636363 3.5858585858585874,-1.363636363636363" data-type="line" data-label="" points="40.00000000000006,650.2626262626263 49.53535353535369,640.7272727272727 59.07070707070716,640.7272727272727 68.60606060606068,640.7272727272727 78.14141414141426,640.7272727272727 87.67676767676772,640.7272727272727 97.21212121212136,640.7272727272727 106.74747474747483,640.7272727272727 116.28282828282829,640.7272727272727 125.81818181818193,640.7272727272727 135.35353535353545,640.7272727272727 144.88888888888903,640.7272727272727 154.42424242424255,640.7272727272727 163.95959595959607,640.7272727272727 173.4949494949496,640.7272727272727 183.03030303030312,640.7272727272727 192.5656565656567,640.7272727272727 202.10101010101022,640.7272727272727 211.63636363636374,640.7272727272727 221.17171717171726,640.7272727272727 230.70707070707084,640.7272727272727 240.2424242424243,640.7272727272727 249.77777777777783,640.7272727272727 259.3131313131314,640.7272727272727 268.84848484848493,640.7272727272727 278.38383838383845,640.7272727272727 287.91919191919203,640.7272727272727 297.4545454545455,640.7272727272727 306.9898989898991,640.7272727272727 316.5252525252526,640.7272727272727 326.0606060606061,640.7272727272727 335.59595959595964,640.7272727272727 345.13131313131316,640.7272727272727 354.6666666666667,640.7272727272727 364.2020202020202,640.7272727272727 373.7373737373738,640.7272727272727 383.2727272727273,640.7272727272727 392.80808080808083,640.7272727272727 402.34343434343435,640.7272727272727 411.8787878787879,640.7272727272727 421.4141414141414,640.7272727272727 430.949494949495,640.7272727272727 440.4848484848485,640.7272727272727 450.0202020202021,640.7272727272727 459.55555555555554,640.7272727272727 469.09090909090907,640.7272727272727 478.62626262626264,640.7272727272727 488.16161616161617,640.7272727272727 497.69696969696975,640.7272727272727 507.2323232323232,640.7272727272727 516.7676767676768,640.7272727272727 526.3030303030303,640.7272727272727 535.8383838383838,640.7272727272727 545.3737373737374,640.7272727272727 554.9090909090909,640.7272727272727 564.4444444444445,640.7272727272727 573.9797979797979,640.7272727272727 583.5151515151515,640.7272727272727 593.0505050505051,640.7272727272727 602.5858585858585,640.7272727272727 612.1212121212121,640.7272727272727 621.6565656565656,640.7272727272727 631.1919191919192,640.7272727272727 640.7272727272727,640.7272727272727 650.2626262626262,640.7272727272727 659.7979797979798,640.7272727272727 669.3333333333333,640.7272727272727 678.8686868686868,640.7272727272727 688.4040404040404,640.7272727272727 697.9393939393939,640.7272727272727 707.4747474747475,640.7272727272727 717.0101010101009,640.7272727272727 726.5454545454545,640.7272727272727 736.0808080808081,640.7272727272727 745.6161616161615,640.7272727272727 755.1515151515151,640.7272727272727 764.6868686868686,640.7272727272727 774.2222222222222,640.7272727272727 783.7575757575758,640.7272727272727 793.2929292929292,640.7272727272727 802.8282828282828,640.7272727272727 812.3636363636363,640.7272727272727 821.8989898989898,640.7272727272727 831.4343434343433,640.7272727272727 840.969696969697,640.7272727272727 850.5050505050505,640.7272727272727" fill="none" stroke="rgba(0,0,255,0.75)" stroke-width="11.327999999999996"/></g><g><polyline data-points="3.5858585858585874,-1.363636363636363 3.6868686868686877,-1.2626262626262625 3.7878787878787885,-1.1616161616161613 3.8888888888888893,-1.0606060606060603 3.989898989898992,-0.9595959595959596 3.989898989898992,-0.8585858585858579 3.989898989898992,-0.7575757575757572 3.989898989898992,-0.6565656565656557 3.989898989898992,-0.555555555555555 3.989898989898992,-0.4545454545454544 3.989898989898992,-0.35353535353535287 3.989898989898992,-0.2525252525252522 3.989898989898992,-0.15151515151515066 3.989898989898992,-0.05050505050505001 3.989898989898992,0.050505050505051545 3.989898989898992,0.1515151515151522 3.989898989898992,0.2525252525252529 3.989898989898992,0.3535353535353544 3.989898989898992,0.4545454545454551 3.989898989898992,0.5555555555555567 3.989898989898992,0.6565656565656574 3.989898989898992,0.7575757575757579 3.989898989898992,0.8585858585858596 3.989898989898992,0.9595959595959602 3.989898989898992,1.0606060606060617 3.989898989898992,1.1616161616161622 3.989898989898992,1.262626262626263 3.989898989898992,1.3636363636363644 3.989898989898992,1.4646464646464652 3.989898989898992,1.5656565656565666 3.989898989898992,1.6666666666666674 3.989898989898992,1.767676767676768 3.989898989898992,1.8686868686868696 3.989898989898992,1.9696969696969702 3.989898989898992,2.070707070707072 3.989898989898992,2.1717171717171726 3.989898989898992,2.2727272727272734 3.989898989898992,2.373737373737375 3.989898989898992,2.4747474747474754 3.989898989898992,2.575757575757577 3.989898989898992,2.676767676767678 3.989898989898992,2.7777777777777786" data-type="line" data-label="" points="850.5050505050505,640.7272727272727 860.0404040404039,631.1919191919193 869.5757575757575,621.6565656565657 879.111111111111,612.1212121212121 888.6464646464647,602.5858585858587 888.6464646464647,593.0505050505051 888.6464646464647,583.5151515151516 888.6464646464647,573.979797979798 888.6464646464647,564.4444444444445 888.6464646464647,554.909090909091 888.6464646464647,545.3737373737374 888.6464646464647,535.838383838384 888.6464646464647,526.3030303030304 888.6464646464647,516.7676767676768 888.6464646464647,507.23232323232327 888.6464646464647,497.69696969696975 888.6464646464647,488.1616161616163 888.6464646464647,478.6262626262627 888.6464646464647,469.0909090909092 888.6464646464647,459.5555555555556 888.6464646464647,450.0202020202021 888.6464646464647,440.4848484848486 888.6464646464647,430.94949494949503 888.6464646464647,421.4141414141415 888.6464646464647,411.87878787878793 888.6464646464647,402.3434343434344 888.6464646464647,392.80808080808094 888.6464646464647,383.27272727272737 888.6464646464647,373.73737373737384 888.6464646464647,364.2020202020203 888.6464646464647,354.66666666666674 888.6464646464647,345.1313131313133 888.6464646464647,335.5959595959597 888.6464646464647,326.06060606060623 888.6464646464647,316.5252525252526 888.6464646464647,306.9898989898991 888.6464646464647,297.4545454545456 888.6464646464647,287.91919191919203 888.6464646464647,278.38383838383857 888.6464646464647,268.84848484848493 888.6464646464647,259.3131313131314 888.6464646464647,249.77777777777794" fill="none" stroke="rgba(255,0,0,0.75)" stroke-width="11.327999999999996"/></g><g><polyline data-points="3.989898989898992,2.7777777777777786 4.090909090909092,2.87878787878788 4.191919191919193,2.9797979797979806 4.292929292929293,3.080808080808082 4.393939393939394,3.181818181818183 4.494949494949497,3.2828282828282833 4.494949494949497,3.383838383838384 4.494949494949497,3.4848484848484866 4.494949494949497,3.5858585858585874 4.494949494949497,3.6868686868686877 4.494949494949497,3.7878787878787885 4.494949494949497,3.8888888888888893 4.494949494949497,3.989898989898992 4.494949494949497,4.090909090909092 4.494949494949497,4.191919191919193 4.494949494949497,4.292929292929293 4.494949494949497,4.393939393939394 4.494949494949497,4.494949494949497 4.494949494949497,4.595959595959597 4.494949494949497,4.696969696969697 4.494949494949497,4.7979797979797985 4.494949494949497,4.898989898989901 4.494949494949497,5.000000000000002" data-type="line" data-label="" points="888.6464646464647,249.77777777777794 898.181818181818,240.24242424242436 907.7171717171716,230.70707070707084 917.2525252525251,221.17171717171726 926.7878787878785,211.63636363636374 936.3232323232323,202.10101010101027 936.3232323232323,192.56565656565675 936.3232323232323,183.03030303030312 936.3232323232323,173.4949494949496 936.3232323232323,163.95959595959613 936.3232323232323,154.4242424242426 936.3232323232323,144.88888888888908 936.3232323232323,135.35353535353545 936.3232323232323,125.81818181818198 936.3232323232323,116.28282828282846 936.3232323232323,106.747474747475 936.3232323232323,97.21212121212153 936.3232323232323,87.67676767676778 936.3232323232323,78.14141414141432 936.3232323232323,68.60606060606085 936.3232323232323,59.07070707070733 936.3232323232323,49.53535353535369 936.3232323232323,40.000000000000114" fill="none" stroke="rgba(0,0,255,0.75)" stroke-width="11.327999999999996"/></g><g><polyline data-points="-2.07070707070707,5.000000000000002 -1.9696969696969693,4.898989898989901 -1.8686868686868683,4.7979797979797985 -1.7676767676767675,4.696969696969697 -1.6666666666666665,4.595959595959597 -1.5656565656565653,4.494949494949497 -1.4646464646464643,4.393939393939394 -1.363636363636363,4.292929292929293 -1.2626262626262625,4.191919191919193 -1.1616161616161613,4.090909090909092 -1.0606060606060603,3.989898989898992 -0.9595959595959596,3.8888888888888893 -0.8585858585858579,3.7878787878787885 -0.7575757575757572,3.6868686868686877 -0.6565656565656557,3.5858585858585874 -0.555555555555555,3.4848484848484866 -0.4545454545454544,3.383838383838384 -0.35353535353535287,3.2828282828282833 -0.2525252525252522,3.181818181818183 -0.15151515151515066,3.080808080808082 -0.05050505050505001,2.9797979797979806 0.050505050505051545,2.87878787878788 0.1515151515151522,2.7777777777777786 0.2525252525252529,2.676767676767678 0.3535353535353544,2.575757575757577 0.4545454545454551,2.4747474747474754 0.5555555555555567,2.373737373737375 0.6565656565656574,2.2727272727272734 0.7575757575757579,2.1717171717171726 0.7575757575757579,2.070707070707072 0.7575757575757579,1.9696969696969702 0.7575757575757579,1.8686868686868696 0.7575757575757579,1.767676767676768 0.7575757575757579,1.6666666666666674 0.7575757575757579,1.5656565656565666 0.7575757575757579,1.4646464646464652 0.7575757575757579,1.3636363636363644 0.7575757575757579,1.262626262626263 0.7575757575757579,1.1616161616161622 0.7575757575757579,1.0606060606060617 0.7575757575757579,0.9595959595959602 0.7575757575757579,0.8585858585858596 0.7575757575757579,0.7575757575757579 0.7575757575757579,0.6565656565656574 0.7575757575757579,0.5555555555555567 0.7575757575757579,0.4545454545454551 0.7575757575757579,0.3535353535353544 0.7575757575757579,0.2525252525252529 0.7575757575757579,0.1515151515151522 0.7575757575757579,0.050505050505051545 0.7575757575757579,-0.05050505050505001 0.7575757575757579,-0.15151515151515066 0.7575757575757579,-0.2525252525252522 0.7575757575757579,-0.35353535353535287" data-type="line" data-label="" points="316.5252525252526,40.000000000000114 326.0606060606061,49.53535353535369 335.59595959595964,59.07070707070733 345.13131313131316,68.60606060606085 354.6666666666667,78.14141414141432 364.2020202020202,87.67676767676778 373.7373737373738,97.21212121212153 383.2727272727273,106.747474747475 392.80808080808083,116.28282828282846 402.34343434343435,125.81818181818198 411.8787878787879,135.35353535353545 421.4141414141414,144.88888888888908 430.949494949495,154.4242424242426 440.4848484848485,163.95959595959613 450.0202020202021,173.4949494949496 459.55555555555554,183.03030303030312 469.09090909090907,192.56565656565675 478.62626262626264,202.10101010101027 488.16161616161617,211.63636363636374 497.69696969696975,221.17171717171726 507.2323232323232,230.70707070707084 516.7676767676768,240.24242424242436 526.3030303030303,249.77777777777794 535.8383838383838,259.3131313131314 545.3737373737374,268.84848484848493 554.9090909090909,278.38383838383857 564.4444444444445,287.91919191919203 573.9797979797979,297.4545454545456 583.5151515151515,306.9898989898991 583.5151515151515,316.5252525252526 583.5151515151515,326.06060606060623 583.5151515151515,335.5959595959597 583.5151515151515,345.1313131313133 583.5151515151515,354.66666666666674 583.5151515151515,364.2020202020203 583.5151515151515,373.73737373737384 583.5151515151515,383.27272727272737 583.5151515151515,392.80808080808094 583.5151515151515,402.3434343434344 583.5151515151515,411.87878787878793 583.5151515151515,421.4141414141415 583.5151515151515,430.94949494949503 583.5151515151515,440.4848484848486 583.5151515151515,450.0202020202021 583.5151515151515,459.5555555555556 583.5151515151515,469.0909090909092 583.5151515151515,478.6262626262627 583.5151515151515,488.1616161616163 583.5151515151515,497.69696969696975 583.5151515151515,507.23232323232327 583.5151515151515,516.7676767676768 583.5151515151515,526.3030303030304 583.5151515151515,535.838383838384 583.5151515151515,545.3737373737374" fill="none" stroke="rgba(0,0,255,0.75)" stroke-width="11.327999999999996"/></g><g><polyline data-points="0.7575757575757579,-0.35353535353535287 0.7575757575757579,-0.4545454545454544 0.7575757575757579,-0.555555555555555 0.7575757575757579,-0.6565656565656557 0.7575757575757579,-0.7575757575757572 0.7575757575757579,-0.8585858585858579 0.7575757575757579,-0.9595959595959596 0.7575757575757579,-1.0606060606060603 0.7575757575757579,-1.1616161616161613 0.7575757575757579,-1.2626262626262625 0.7575757575757579,-1.363636363636363 0.7575757575757579,-1.4646464646464643 0.7575757575757579,-1.5656565656565653 0.6565656565656574,-1.6666666666666665 0.5555555555555567,-1.7676767676767675" data-type="line" data-label="" points="583.5151515151515,545.3737373737374 583.5151515151515,554.909090909091 583.5151515151515,564.4444444444445 583.5151515151515,573.979797979798 583.5151515151515,583.5151515151516 583.5151515151515,593.0505050505051 583.5151515151515,602.5858585858587 583.5151515151515,612.1212121212121 583.5151515151515,621.6565656565657 583.5151515151515,631.1919191919193 583.5151515151515,640.7272727272727 583.5151515151515,650.2626262626263 583.5151515151515,659.7979797979798 573.9797979797979,669.3333333333334 564.4444444444445,678.8686868686868" fill="none" stroke="rgba(255,0,0,0.75)" stroke-width="11.327999999999996"/></g><g><polyline data-points="0.5555555555555567,-1.7676767676767675 0.4545454545454551,-1.8686868686868683 0.3535353535353544,-1.9696969696969693 0.2525252525252529,-2.07070707070707 0.1515151515151522,-2.1717171717171713 0.050505050505051545,-2.2727272727272725 -0.05050505050505001,-2.3737373737373733 -0.15151515151515066,-2.474747474747474 -0.2525252525252522,-2.5757575757575752 -0.35353535353535287,-2.6767676767676765 -0.4545454545454544,-2.7777777777777777 -0.555555555555555,-2.8787878787878785 -0.6565656565656557,-2.9797979797979792 -0.7575757575757572,-3.0808080808080804 -0.8585858585858579,-3.1818181818181817 -0.9595959595959596,-3.2828282828282824 -1.0606060606060603,-3.383838383838383 -1.1616161616161613,-3.484848484848485 -1.2626262626262625,-3.5858585858585856 -1.1616161616161613,-3.6868686868686864 -1.0606060606060603,-3.7878787878787876 -1.0606060606060603,-3.8888888888888884 -1.0606060606060603,-3.98989898989899 -0.9595959595959596,-4.090909090909091 -0.8585858585858579,-4.191919191919193 -0.7575757575757572,-4.292929292929293 -0.6565656565656557,-4.393939393939394 -0.555555555555555,-4.494949494949496 -0.4545454545454544,-4.595959595959596 -0.35353535353535287,-4.696969696969697 -0.2525252525252522,-4.7979797979797985 -0.15151515151515066,-4.898989898989899 -0.05050505050505001,-5.000000000000001 0.050505050505051545,-5.000000000000001 0.1515151515151522,-5.000000000000001 0.2525252525252529,-5.000000000000001 0.3535353535353544,-5.000000000000001 0.4545454545454551,-5.000000000000001 0.5555555555555567,-5.000000000000001 0.6565656565656574,-5.000000000000001 0.7575757575757579,-5.000000000000001 0.8585858585858596,-5.000000000000001 0.9595959595959602,-5.000000000000001 1.0606060606060617,-5.000000000000001 1.1616161616161622,-5.000000000000001 1.262626262626263,-5.000000000000001 1.3636363636363644,-5.000000000000001 1.4646464646464652,-5.000000000000001 1.5656565656565666,-5.000000000000001 1.6666666666666674,-5.000000000000001 1.767676767676768,-5.000000000000001 1.8686868686868696,-5.000000000000001 1.9696969696969702,-5.000000000000001 2.070707070707072,-5.000000000000001 2.1717171717171726,-5.000000000000001 2.2727272727272734,-5.000000000000001 2.373737373737375,-5.000000000000001 2.4747474747474754,-5.000000000000001 2.575757575757577,-5.000000000000001 2.676767676767678,-5.000000000000001 2.7777777777777786,-5.000000000000001 2.87878787878788,-5.000000000000001 2.9797979797979806,-5.000000000000001 3.080808080808082,-5.000000000000001 3.181818181818183,-5.000000000000001 3.2828282828282833,-5.000000000000001 3.383838383838384,-5.000000000000001 3.4848484848484866,-5.000000000000001 3.5858585858585874,-5.000000000000001 3.6868686868686877,-5.000000000000001 3.7878787878787885,-5.000000000000001 3.8888888888888893,-5.000000000000001 3.989898989898992,-5.000000000000001 4.090909090909092,-5.000000000000001 4.191919191919193,-5.000000000000001 4.292929292929293,-5.000000000000001 4.393939393939394,-5.000000000000001 4.494949494949497,-5.000000000000001 4.595959595959597,-5.000000000000001 4.696969696969697,-5.000000000000001" data-type="line" data-label="" points="564.4444444444445,678.8686868686868 554.9090909090909,688.4040404040404 545.3737373737374,697.939393939394 535.8383838383838,707.4747474747475 526.3030303030303,717.010101010101 516.7676767676768,726.5454545454545 507.2323232323232,736.0808080808081 497.69696969696975,745.6161616161615 488.16161616161617,755.1515151515151 478.62626262626264,764.6868686868687 469.09090909090907,774.2222222222222 459.55555555555554,783.7575757575758 450.0202020202021,793.2929292929292 440.4848484848485,802.8282828282828 430.949494949495,812.3636363636363 421.4141414141414,821.8989898989898 411.8787878787879,831.4343434343434 402.34343434343435,840.969696969697 392.80808080808083,850.5050505050505 402.34343434343435,860.0404040404039 411.8787878787879,869.5757575757575 411.8787878787879,879.1111111111111 411.8787878787879,888.6464646464647 421.4141414141414,898.1818181818181 430.949494949495,907.7171717171718 440.4848484848485,917.2525252525252 450.0202020202021,926.7878787878788 459.55555555555554,936.3232323232323 469.09090909090907,945.8585858585858 478.62626262626264,955.3939393939394 488.16161616161617,964.9292929292928 497.69696969696975,974.4646464646464 507.2323232323232,984 516.7676767676768,984 526.3030303030303,984 535.8383838383838,984 545.3737373737374,984 554.9090909090909,984 564.4444444444445,984 573.9797979797979,984 583.5151515151515,984 593.0505050505051,984 602.5858585858585,984 612.1212121212121,984 621.6565656565656,984 631.1919191919192,984 640.7272727272727,984 650.2626262626262,984 659.7979797979798,984 669.3333333333333,984 678.8686868686868,984 688.4040404040404,984 697.9393939393939,984 707.4747474747475,984 717.0101010101009,984 726.5454545454545,984 736.0808080808081,984 745.6161616161615,984 755.1515151515151,984 764.6868686868686,984 774.2222222222222,984 783.7575757575758,984 793.2929292929292,984 802.8282828282828,984 812.3636363636363,984 821.8989898989898,984 831.4343434343433,984 840.969696969697,984 850.5050505050505,984 860.0404040404039,984 869.5757575757575,984 879.111111111111,984 888.6464646464647,984 898.181818181818,984 907.7171717171716,984 917.2525252525251,984 926.7878787878785,984 936.3232323232323,984 945.8585858585857,984 955.3939393939393,984" fill="none" stroke="rgba(0,0,255,0.75)" stroke-width="11.327999999999996"/></g><g><rect data-type="rect" data-label="" data-x="0" data-y="0" x="40.000000000000114" y="40.000000000000284" width="943.9999999999997" height="943.9999999999998" fill="none" stroke="gray" stroke-width="0.010593220338983056"/></g><g><rect data-type="rect" data-label="" data-x="0" data-y="0" x="40.000000000000114" y="40.000000000000284" width="943.9999999999997" height="943.9999999999998" fill="none" stroke="rgba(15, 23, 42, 0.8)" stroke-width="0.010593220338983056"/></g><circle data-type="circle" data-label="" data-x="0.4545454545454551" data-y="-0.555555555555555" cx="554.9090909090909" cy="564.4444444444445" r="14.159999999999995" fill="rgba(0,0,0,0.3)" stroke="black" stroke-width="0.010593220338983056"/><circle data-type="circle" data-label="" data-x="-2.7777777777777777" data-y="3.989898989898992" cx="249.77777777777783" cy="135.35353535353545" r="14.159999999999995" fill="rgba(0,0,0,0.3)" stroke="black" stroke-width="0.010593220338983056"/><circle data-type="circle" data-label="" data-x="-0.7575757575757572" data-y="-3.98989898989899" cx="440.4848484848485" cy="888.6464646464647" r="14.159999999999995" fill="rgba(0,0,0,0.3)" stroke="black" stroke-width="0.010593220338983056"/><circle data-type="circle" data-label="" data-x="3.989898989898992" data-y="-3.98989898989899" cx="888.6464646464647" cy="888.6464646464647" r="14.159999999999995" fill="rgba(0,0,0,0.3)" stroke="black" stroke-width="0.010593220338983056"/><circle data-type="circle" data-label="" data-x="-0.9595959595959596" data-y="-3.5858585858585856" cx="421.4141414141414" cy="850.5050505050505" r="14.159999999999995" fill="rgba(0,0,0,0.3)" stroke="black" stroke-width="0.010593220338983056"/><circle data-type="circle" data-label="" data-x="3.5858585858585874" data-y="-1.363636363636363" cx="850.5050505050505" cy="640.7272727272727" r="14.159999999999995" fill="rgba(0,0,0,0.3)" stroke="black" stroke-width="0.010593220338983056"/><circle data-type="circle" data-label="" data-x="3.989898989898992" data-y="2.7777777777777786" cx="888.6464646464647" cy="249.77777777777794" r="14.159999999999995" fill="rgba(0,0,0,0.3)" stroke="black" stroke-width="0.010593220338983056"/><circle data-type="circle" data-label="" data-x="0.7575757575757579" data-y="-0.35353535353535287" cx="583.5151515151515" cy="545.3737373737374" r="14.159999999999995" fill="rgba(0,0,0,0.3)" stroke="black" stroke-width="0.010593220338983056"/><circle data-type="circle" data-label="" data-x="0.5555555555555567" data-y="-1.7676767676767675" cx="564.4444444444445" cy="678.8686868686868" r="14.159999999999995" fill="rgba(0,0,0,0.3)" stroke="black" stroke-width="0.010593220338983056"/><g id="crosshair" style="display: none"><line id="crosshair-h" y1="0" y2="1024" stroke="#666" stroke-width="0.5"/><line id="crosshair-v" x1="0" x2="1024" stroke="#666" stroke-width="0.5"/><text id="coordinates" font-family="monospace" font-size="12" fill="#666"></text></g><script><![CDATA[
              document.currentScript.parentElement.addEventListener('mousemove', (e) => {
                const svg = e.currentTarget;
                const rect = svg.getBoundingClientRect();
                const x = e.clientX - rect.left;
                const y = e.clientY - rect.top;
                const crosshair = svg.getElementById('crosshair');
                const h = svg.getElementById('crosshair-h');
                const v = svg.getElementById('crosshair-v');
                const coords = svg.getElementById('coordinates');
                
                crosshair.style.display = 'block';
                h.setAttribute('x1', '0');
                h.setAttribute('x2', '1024');
                h.setAttribute('y1', y);
                h.setAttribute('y2', y);
                v.setAttribute('x1', x);
                v.setAttribute('x2', x);
                v.setAttribute('y1', '0');
                v.setAttribute('y2', '1024');

                // Calculate real coordinates using inverse transformation
                const matrix = {"a":94.39999999999996,"c":0,"e":511.99999999999994,"b":0,"d":-94.39999999999996,"f":512.0000000000001};
                // Manually invert and apply the affine transform
                // Since we only use translate and scale, we can directly compute:
                // x' = (x - tx) / sx
                // y' = (y - ty) / sy
                const sx = matrix.a;
                const sy = matrix.d;
                const tx = matrix.e; 
                const ty = matrix.f;
                const realPoint = {
                  x: (x - tx) / sx,
                  y: (y - ty) / sy // Flip y back since we used negative scale
                }
                
                coords.textContent = `(${realPoint.x.toFixed(2)}, ${realPoint.y.toFixed(2)})`;
                coords.setAttribute('x', (x + 5).toString());
                coords.setAttribute('y', (y - 5).toString());
              });
              document.currentScript.parentElement.addEventListener('mouseleave', () => {
                document.currentScript.parentElement.getElementById('crosshair').style.display = 'none';
              });
            ]]></script></svg>