<svg width="1024" height="1024" viewBox="0 0 1024 1024" xmlns="http://www.w3.org/2000/svg"><rect width="100%" height="100%" fill="white"/><g><circle data-type="point" data-label="conn_000" data-x="2.5" data-y="-5" cx="747.9999999999999" cy="984" r="14.16" fill="red"/></g><g><circle data-type="point" data-label="conn_000" data-x="-4.44" data-y="5" cx="92.86400000000009" cy="40.000000000000284" r="14.16" fill="blue"/></g><g><circle data-type="point" data-label="conn_001" data-x="4.8" data-y="-5" cx="965.1199999999998" cy="984" r="14.16" fill="blue"/></g><g><circle data-type="point" data-label="conn_001" data-x="-3.16" data-y="5" cx="213.69600000000003" cy="40.000000000000284" r="14.16" fill="blue"/></g><g><circle data-type="point" data-label="conn_002" data-x="4.18" data-y="-5" cx="906.5919999999998" cy="984" r="14.16" fill="red"/></g><g><circle data-type="point" data-label="conn_002" data-x="-3.7800000000000002" data-y="5" cx="155.16800000000006" cy="40.000000000000284" r="14.16" fill="blue"/></g><g><circle data-type="point" data-label="conn_003" data-x="5" data-y="-1.26" cx="983.9999999999998" cy="630.9440000000001" r="14.16" fill="red"/></g><g><circle data-type="point" data-label="conn_003" data-x="5" data-y="-3.74" cx="983.9999999999998" cy="865.056" r="14.16" fill="red"/></g><g><circle data-type="point" data-label="conn_004" data-x="5" data-y="-3" cx="983.9999999999998" cy="795.2" r="14.16" fill="red"/></g><g><circle data-type="point" data-label="conn_004" data-x="-5" data-y="4.26" cx="40.000000000000114" cy="109.85600000000028" r="14.16" fill="red"/></g><g><polyline data-points="5.000000000000002,-2.9797979797979792 4.898989898989901,-2.8787878787878785 4.7979797979797985,-2.7777777777777777 4.696969696969697,-2.6767676767676765 4.595959595959597,-2.5757575757575752 4.494949494949497,-2.474747474747474 4.393939393939394,-2.3737373737373733 4.292929292929293,-2.2727272727272725 4.191919191919193,-2.1717171717171713 4.090909090909092,-2.07070707070707 3.989898989898992,-1.9696969696969693 3.8888888888888893,-1.8686868686868683 3.7878787878787885,-1.7676767676767675 3.6868686868686877,-1.6666666666666665 3.5858585858585874,-1.5656565656565653 3.4848484848484866,-1.4646464646464643 3.383838383838384,-1.363636363636363 3.2828282828282833,-1.2626262626262625 3.181818181818183,-1.1616161616161613 3.080808080808082,-1.0606060606060603 2.9797979797979806,-0.9595959595959596 2.87878787878788,-0.8585858585858579 2.7777777777777786,-0.7575757575757572 2.676767676767678,-0.6565656565656557 2.575757575757577,-0.555555555555555 2.4747474747474754,-0.4545454545454544 2.373737373737375,-0.35353535353535287 2.2727272727272734,-0.2525252525252522 2.1717171717171726,-0.15151515151515066 2.070707070707072,-0.05050505050505001 1.9696969696969702,0.050505050505051545 1.8686868686868696,0.1515151515151522 1.767676767676768,0.2525252525252529 1.6666666666666674,0.3535353535353544 1.5656565656565666,0.4545454545454551 1.4646464646464652,0.5555555555555567 1.3636363636363644,0.6565656565656574 1.262626262626263,0.7575757575757579 1.1616161616161622,0.8585858585858596 1.0606060606060617,0.9595959595959602 0.9595959595959602,1.0606060606060617 0.8585858585858596,1.1616161616161622 0.7575757575757579,1.262626262626263 0.6565656565656574,1.3636363636363644 0.5555555555555567,1.4646464646464652 0.4545454545454551,1.5656565656565666 0.3535353535353544,1.6666666666666674 0.2525252525252529,1.767676767676768 0.1515151515151522,1.8686868686868696 0.050505050505051545,1.9696969696969702 -0.05050505050505001,2.070707070707072 -0.15151515151515066,2.1717171717171726 -0.2525252525252522,2.2727272727272734 -0.35353535353535287,2.373737373737375 -0.4545454545454544,2.4747474747474754 -0.555555555555555,2.575757575757577 -0.6565656565656557,2.676767676767678 -0.7575757575757572,2.7777777777777786 -0.8585858585858579,2.87878787878788 -0.9595959595959596,2.9797979797979806 -1.0606060606060603,3.080808080808082 -1.1616161616161613,3.181818181818183 -1.2626262626262625,3.2828282828282833 -1.363636363636363,3.383838383838384 -1.4646464646464643,3.4848484848484866 -1.5656565656565653,3.5858585858585874 -1.6666666666666665,3.6868686868686877 -1.7676767676767675,3.7878787878787885 -1.8686868686868683,3.8888888888888893 -1.9696969696969693,3.989898989898992 -2.07070707070707,4.090909090909092 -2.1717171717171713,4.191919191919193 -2.2727272727272725,4.292929292929293 -2.3737373737373733,4.292929292929293 -2.474747474747474,4.292929292929293 -2.5757575757575752,4.292929292929293 -2.6767676767676765,4.292929292929293 -2.7777777777777777,4.292929292929293 -2.8787878787878785,4.292929292929293 -2.9797979797979792,4.292929292929293 -3.0808080808080804,4.292929292929293 -3.1818181818181817,4.292929292929293 -3.2828282828282824,4.292929292929293 -3.383838383838383,4.292929292929293 -3.484848484848485,4.292929292929293 -3.5858585858585856,4.292929292929293 -3.6868686868686864,4.292929292929293 -3.7878787878787876,4.292929292929293 -3.8888888888888884,4.292929292929293 -3.98989898989899,4.292929292929293 -4.090909090909091,4.292929292929293 -4.191919191919193,4.292929292929293 -4.292929292929293,4.292929292929293 -4.393939393939394,4.292929292929293 -4.494949494949496,4.292929292929293 -4.595959595959596,4.292929292929293 -4.696969696969697,4.292929292929293 -4.7979797979797985,4.292929292929293 -4.898989898989899,4.292929292929293 -5.000000000000001,4.292929292929293" data-type="line" data-label="" points="984,793.2929292929292 974.4646464646464,783.7575757575758 964.9292929292927,774.2222222222222 955.3939393939393,764.6868686868687 945.8585858585857,755.1515151515151 936.3232323232323,745.6161616161615 926.7878787878785,736.0808080808081 917.2525252525251,726.5454545454545 907.7171717171716,717.010101010101 898.181818181818,707.4747474747475 888.6464646464647,697.939393939394 879.111111111111,688.4040404040404 869.5757575757575,678.8686868686868 860.0404040404039,669.3333333333334 850.5050505050505,659.7979797979798 840.969696969697,650.2626262626263 831.4343434343433,640.7272727272727 821.8989898989898,631.1919191919193 812.3636363636363,621.6565656565657 802.8282828282828,612.1212121212121 793.2929292929292,602.5858585858587 783.7575757575758,593.0505050505051 774.2222222222222,583.5151515151516 764.6868686868686,573.979797979798 755.1515151515151,564.4444444444445 745.6161616161615,554.909090909091 736.0808080808081,545.3737373737374 726.5454545454545,535.838383838384 717.0101010101009,526.3030303030304 707.4747474747475,516.7676767676768 697.9393939393939,507.23232323232327 688.4040404040404,497.69696969696975 678.8686868686868,488.1616161616163 669.3333333333333,478.6262626262627 659.7979797979798,469.0909090909092 650.2626262626262,459.5555555555556 640.7272727272727,450.0202020202021 631.1919191919192,440.4848484848486 621.6565656565656,430.94949494949503 612.1212121212121,421.4141414141415 602.5858585858585,411.87878787878793 593.0505050505051,402.3434343434344 583.5151515151515,392.80808080808094 573.9797979797979,383.27272727272737 564.4444444444445,373.73737373737384 554.9090909090909,364.2020202020203 545.3737373737374,354.66666666666674 535.8383838383838,345.1313131313133 526.3030303030303,335.5959595959597 516.7676767676768,326.06060606060623 507.2323232323232,316.5252525252526 497.69696969696975,306.9898989898991 488.16161616161617,297.4545454545456 478.62626262626264,287.91919191919203 469.09090909090907,278.38383838383857 459.55555555555554,268.84848484848493 450.0202020202021,259.3131313131314 440.4848484848485,249.77777777777794 430.949494949495,240.24242424242436 421.4141414141414,230.70707070707084 411.8787878787879,221.17171717171726 402.34343434343435,211.63636363636374 392.80808080808083,202.10101010101027 383.2727272727273,192.56565656565675 373.7373737373738,183.03030303030312 364.2020202020202,173.4949494949496 354.6666666666667,163.95959595959613 345.13131313131316,154.4242424242426 335.59595959595964,144.88888888888908 326.0606060606061,135.35353535353545 316.5252525252526,125.81818181818198 306.9898989898991,116.28282828282846 297.4545454545455,106.747474747475 287.91919191919203,106.747474747475 278.38383838383845,106.747474747475 268.84848484848493,106.747474747475 259.3131313131314,106.747474747475 249.77777777777783,106.747474747475 240.2424242424243,106.747474747475 230.70707070707084,106.747474747475 221.17171717171726,106.747474747475 211.63636363636374,106.747474747475 202.10101010101022,106.747474747475 192.5656565656567,106.747474747475 183.03030303030312,106.747474747475 173.4949494949496,106.747474747475 163.95959595959607,106.747474747475 154.42424242424255,106.747474747475 144.88888888888903,106.747474747475 135.35353535353545,106.747474747475 125.81818181818193,106.747474747475 116.28282828282829,106.747474747475 106.74747474747483,106.747474747475 97.21212121212136,106.747474747475 87.67676767676772,106.747474747475 78.14141414141426,106.747474747475 68.60606060606068,106.747474747475 59.07070707070716,106.747474747475 49.53535353535369,106.747474747475 40.00000000000006,106.747474747475" fill="none" stroke="rgba(255,0,0,0.75)" stroke-width="11.327999999999996"/></g><g><polyline data-points="4.191919191919193,-5.000000000000001 4.090909090909092,-4.898989898989899 3.989898989898992,-4.7979797979797985 3.8888888888888893,-4.696969696969697 3.7878787878787885,-4.595959595959596 3.6868686868686877,-4.494949494949496 3.5858585858585874,-4.393939393939394 3.4848484848484866,-4.292929292929293 3.383838383838384,-4.191919191919193 3.2828282828282833,-4.090909090909091 3.181818181818183,-3.98989898989899 3.080808080808082,-3.8888888888888884 2.9797979797979806,-3.7878787878787876 2.87878787878788,-3.6868686868686864 2.7777777777777786,-3.5858585858585856 2.676767676767678,-3.484848484848485 2.575757575757577,-3.383838383838383 2.4747474747474754,-3.2828282828282824 2.373737373737375,-3.1818181818181817 2.2727272727272734,-3.0808080808080804 2.1717171717171726,-2.9797979797979792 2.070707070707072,-2.8787878787878785 1.9696969696969702,-2.7777777777777777 1.8686868686868696,-2.6767676767676765 1.767676767676768,-2.5757575757575752 1.6666666666666674,-2.474747474747474 1.5656565656565666,-2.3737373737373733 1.4646464646464652,-2.2727272727272725 1.3636363636363644,-2.1717171717171713 1.262626262626263,-2.07070707070707 1.1616161616161622,-1.9696969696969693 1.0606060606060617,-1.8686868686868683 0.9595959595959602,-1.7676767676767675 0.8585858585858596,-1.6666666666666665 0.7575757575757579,-1.5656565656565653 0.6565656565656574,-1.4646464646464643 0.5555555555555567,-1.363636363636363 0.4545454545454551,-1.2626262626262625 0.3535353535353544,-1.1616161616161613 0.2525252525252529,-1.0606060606060603 0.1515151515151522,-0.9595959595959596 0.050505050505051545,-0.8585858585858579 -0.05050505050505001,-0.7575757575757572 -0.15151515151515066,-0.6565656565656557 -0.2525252525252522,-0.555555555555555 -0.35353535353535287,-0.4545454545454544 -0.4545454545454544,-0.35353535353535287 -0.555555555555555,-0.2525252525252522 -0.6565656565656557,-0.15151515151515066 -0.7575757575757572,-0.05050505050505001 -0.8585858585858579,0.050505050505051545 -0.9595959595959596,0.1515151515151522 -1.0606060606060603,0.2525252525252529 -1.1616161616161613,0.3535353535353544 -1.2626262626262625,0.4545454545454551 -1.363636363636363,0.5555555555555567 -1.4646464646464643,0.6565656565656574 -1.5656565656565653,0.7575757575757579 -1.6666666666666665,0.8585858585858596 -1.7676767676767675,0.9595959595959602 -1.8686868686868683,1.0606060606060617 -1.9696969696969693,1.1616161616161622 -2.07070707070707,1.262626262626263 -2.1717171717171713,1.3636363636363644 -2.2727272727272725,1.4646464646464652 -2.3737373737373733,1.5656565656565666 -2.474747474747474,1.6666666666666674 -2.5757575757575752,1.767676767676768 -2.6767676767676765,1.8686868686868696 -2.7777777777777777,1.9696969696969702 -2.8787878787878785,2.070707070707072 -2.9797979797979792,2.1717171717171726 -3.0808080808080804,2.2727272727272734 -3.1818181818181817,2.373737373737375 -3.2828282828282824,2.4747474747474754 -3.383838383838383,2.575757575757577 -3.484848484848485,2.676767676767678 -3.5858585858585856,2.7777777777777786 -3.6868686868686864,2.87878787878788 -3.7878787878787876,2.9797979797979806 -3.7878787878787876,3.080808080808082 -3.7878787878787876,3.181818181818183 -3.7878787878787876,3.2828282828282833 -3.7878787878787876,3.383838383838384 -3.7878787878787876,3.4848484848484866 -3.7878787878787876,3.5858585858585874 -3.7878787878787876,3.6868686868686877 -3.7878787878787876,3.7878787878787885 -3.7878787878787876,3.8888888888888893" data-type="line" data-label="" points="907.7171717171716,984 898.181818181818,974.4646464646464 888.6464646464647,964.9292929292928 879.111111111111,955.3939393939394 869.5757575757575,945.8585858585858 860.0404040404039,936.3232323232323 850.5050505050505,926.7878787878788 840.969696969697,917.2525252525252 831.4343434343433,907.7171717171718 821.8989898989898,898.1818181818181 812.3636363636363,888.6464646464647 802.8282828282828,879.1111111111111 793.2929292929292,869.5757575757575 783.7575757575758,860.0404040404039 774.2222222222222,850.5050505050505 764.6868686868686,840.969696969697 755.1515151515151,831.4343434343434 745.6161616161615,821.8989898989898 736.0808080808081,812.3636363636363 726.5454545454545,802.8282828282828 717.0101010101009,793.2929292929292 707.4747474747475,783.7575757575758 697.9393939393939,774.2222222222222 688.4040404040404,764.6868686868687 678.8686868686868,755.1515151515151 669.3333333333333,745.6161616161615 659.7979797979798,736.0808080808081 650.2626262626262,726.5454545454545 640.7272727272727,717.010101010101 631.1919191919192,707.4747474747475 621.6565656565656,697.939393939394 612.1212121212121,688.4040404040404 602.5858585858585,678.8686868686868 593.0505050505051,669.3333333333334 583.5151515151515,659.7979797979798 573.9797979797979,650.2626262626263 564.4444444444445,640.7272727272727 554.9090909090909,631.1919191919193 545.3737373737374,621.6565656565657 535.8383838383838,612.1212121212121 526.3030303030303,602.5858585858587 516.7676767676768,593.0505050505051 507.2323232323232,583.5151515151516 497.69696969696975,573.979797979798 488.16161616161617,564.4444444444445 478.62626262626264,554.909090909091 469.09090909090907,545.3737373737374 459.55555555555554,535.838383838384 450.0202020202021,526.3030303030304 440.4848484848485,516.7676767676768 430.949494949495,507.23232323232327 421.4141414141414,497.69696969696975 411.8787878787879,488.1616161616163 402.34343434343435,478.6262626262627 392.80808080808083,469.0909090909092 383.2727272727273,459.5555555555556 373.7373737373738,450.0202020202021 364.2020202020202,440.4848484848486 354.6666666666667,430.94949494949503 345.13131313131316,421.4141414141415 335.59595959595964,411.87878787878793 326.0606060606061,402.3434343434344 316.5252525252526,392.80808080808094 306.9898989898991,383.27272727272737 297.4545454545455,373.73737373737384 287.91919191919203,364.2020202020203 278.38383838383845,354.66666666666674 268.84848484848493,345.1313131313133 259.3131313131314,335.5959595959597 249.77777777777783,326.06060606060623 240.2424242424243,316.5252525252526 230.70707070707084,306.9898989898991 221.17171717171726,297.4545454545456 211.63636363636374,287.91919191919203 202.10101010101022,278.38383838383857 192.5656565656567,268.84848484848493 183.03030303030312,259.3131313131314 173.4949494949496,249.77777777777794 163.95959595959607,240.24242424242436 154.42424242424255,230.70707070707084 154.42424242424255,221.17171717171726 154.42424242424255,211.63636363636374 154.42424242424255,202.10101010101027 154.42424242424255,192.56565656565675 154.42424242424255,183.03030303030312 154.42424242424255,173.4949494949496 154.42424242424255,163.95959595959613 154.42424242424255,154.4242424242426 154.42424242424255,144.88888888888908" fill="none" stroke="rgba(255,0,0,0.75)" stroke-width="11.327999999999996"/></g><g><polyline data-points="-3.7878787878787876,3.8888888888888893 -3.7878787878787876,3.989898989898992 -3.7878787878787876,4.090909090909092 -3.7878787878787876,4.191919191919193 -3.7878787878787876,4.292929292929293 -3.7878787878787876,4.393939393939394 -3.7878787878787876,4.494949494949497 -3.7878787878787876,4.595959595959597 -3.7878787878787876,4.696969696969697 -3.7878787878787876,4.7979797979797985 -3.7878787878787876,4.898989898989901 -3.7878787878787876,5.000000000000002" data-type="line" data-label="" points="154.42424242424255,144.88888888888908 154.42424242424255,135.35353535353545 154.42424242424255,125.81818181818198 154.42424242424255,116.28282828282846 154.42424242424255,106.747474747475 154.42424242424255,97.21212121212153 154.42424242424255,87.67676767676778 154.42424242424255,78.14141414141432 154.42424242424255,68.60606060606085 154.42424242424255,59.07070707070733 154.42424242424255,49.53535353535369 154.42424242424255,40.000000000000114" fill="none" stroke="rgba(0,0,255,0.75)" stroke-width="11.327999999999996"/></g><g><polyline data-points="2.575757575757577,-5.000000000000001 2.4747474747474754,-4.898989898989899 2.373737373737375,-4.7979797979797985 2.2727272727272734,-4.696969696969697 2.1717171717171726,-4.595959595959596 2.070707070707072,-4.494949494949496 1.9696969696969702,-4.393939393939394 1.8686868686868696,-4.292929292929293 1.767676767676768,-4.191919191919193 1.6666666666666674,-4.090909090909091 1.5656565656565666,-3.98989898989899 1.4646464646464652,-3.8888888888888884 1.3636363636363644,-3.7878787878787876 1.262626262626263,-3.6868686868686864 1.1616161616161622,-3.5858585858585856 1.0606060606060617,-3.484848484848485 0.9595959595959602,-3.383838383838383 0.8585858585858596,-3.2828282828282824 0.7575757575757579,-3.1818181818181817 0.6565656565656574,-3.0808080808080804 0.5555555555555567,-2.9797979797979792 0.4545454545454551,-2.8787878787878785 0.3535353535353544,-2.7777777777777777 0.2525252525252529,-2.6767676767676765 0.1515151515151522,-2.5757575757575752 0.050505050505051545,-2.474747474747474 -0.05050505050505001,-2.3737373737373733 -0.15151515151515066,-2.2727272727272725 -0.2525252525252522,-2.1717171717171713 -0.35353535353535287,-2.07070707070707 -0.4545454545454544,-1.9696969696969693 -0.555555555555555,-1.8686868686868683 -0.6565656565656557,-1.7676767676767675 -0.7575757575757572,-1.6666666666666665 -0.8585858585858579,-1.5656565656565653 -0.9595959595959596,-1.4646464646464643 -1.0606060606060603,-1.363636363636363 -1.1616161616161613,-1.2626262626262625 -1.2626262626262625,-1.1616161616161613 -1.363636363636363,-1.0606060606060603 -1.4646464646464643,-0.9595959595959596 -1.5656565656565653,-0.8585858585858579 -1.6666666666666665,-0.7575757575757572 -1.7676767676767675,-0.6565656565656557 -1.8686868686868683,-0.555555555555555 -1.9696969696969693,-0.4545454545454544 -2.07070707070707,-0.35353535353535287 -2.1717171717171713,-0.2525252525252522 -2.2727272727272725,-0.15151515151515066 -2.3737373737373733,-0.05050505050505001 -2.474747474747474,0.050505050505051545 -2.5757575757575752,0.1515151515151522 -2.6767676767676765,0.2525252525252529 -2.7777777777777777,0.3535353535353544 -2.8787878787878785,0.4545454545454551 -2.9797979797979792,0.5555555555555567 -3.0808080808080804,0.6565656565656574 -3.1818181818181817,0.7575757575757579 -3.2828282828282824,0.8585858585858596 -3.383838383838383,0.9595959595959602 -3.484848484848485,1.0606060606060617 -3.5858585858585856,1.1616161616161622 -3.6868686868686864,1.262626262626263 -3.7878787878787876,1.3636363636363644 -3.8888888888888884,1.4646464646464652 -3.98989898989899,1.5656565656565666 -3.98989898989899,1.6666666666666674 -3.98989898989899,1.767676767676768 -3.98989898989899,1.8686868686868696 -3.98989898989899,1.9696969696969702 -3.98989898989899,2.070707070707072 -3.98989898989899,2.1717171717171726 -3.98989898989899,2.2727272727272734" data-type="line" data-label="" points="755.1515151515151,984 745.6161616161615,974.4646464646464 736.0808080808081,964.9292929292928 726.5454545454545,955.3939393939394 717.0101010101009,945.8585858585858 707.4747474747475,936.3232323232323 697.9393939393939,926.7878787878788 688.4040404040404,917.2525252525252 678.8686868686868,907.7171717171718 669.3333333333333,898.1818181818181 659.7979797979798,888.6464646464647 650.2626262626262,879.1111111111111 640.7272727272727,869.5757575757575 631.1919191919192,860.0404040404039 621.6565656565656,850.5050505050505 612.1212121212121,840.969696969697 602.5858585858585,831.4343434343434 593.0505050505051,821.8989898989898 583.5151515151515,812.3636363636363 573.9797979797979,802.8282828282828 564.4444444444445,793.2929292929292 554.9090909090909,783.7575757575758 545.3737373737374,774.2222222222222 535.8383838383838,764.6868686868687 526.3030303030303,755.1515151515151 516.7676767676768,745.6161616161615 507.2323232323232,736.0808080808081 497.69696969696975,726.5454545454545 488.16161616161617,717.010101010101 478.62626262626264,707.4747474747475 469.09090909090907,697.939393939394 459.55555555555554,688.4040404040404 450.0202020202021,678.8686868686868 440.4848484848485,669.3333333333334 430.949494949495,659.7979797979798 421.4141414141414,650.2626262626263 411.8787878787879,640.7272727272727 402.34343434343435,631.1919191919193 392.80808080808083,621.6565656565657 383.2727272727273,612.1212121212121 373.7373737373738,602.5858585858587 364.2020202020202,593.0505050505051 354.6666666666667,583.5151515151516 345.13131313131316,573.979797979798 335.59595959595964,564.4444444444445 326.0606060606061,554.909090909091 316.5252525252526,545.3737373737374 306.9898989898991,535.838383838384 297.4545454545455,526.3030303030304 287.91919191919203,516.7676767676768 278.38383838383845,507.23232323232327 268.84848484848493,497.69696969696975 259.3131313131314,488.1616161616163 249.77777777777783,478.6262626262627 240.2424242424243,469.0909090909092 230.70707070707084,459.5555555555556 221.17171717171726,450.0202020202021 211.63636363636374,440.4848484848486 202.10101010101022,430.94949494949503 192.5656565656567,421.4141414141415 183.03030303030312,411.87878787878793 173.4949494949496,402.3434343434344 163.95959595959607,392.80808080808094 154.42424242424255,383.27272727272737 144.88888888888903,373.73737373737384 135.35353535353545,364.2020202020203 135.35353535353545,354.66666666666674 135.35353535353545,345.1313131313133 135.35353535353545,335.5959595959597 135.35353535353545,326.06060606060623 135.35353535353545,316.5252525252526 135.35353535353545,306.9898989898991 135.35353535353545,297.4545454545456" fill="none" stroke="rgba(255,0,0,0.75)" stroke-width="11.327999999999996"/></g><g><polyline data-points="-3.98989898989899,2.2727272727272734 -4.090909090909091,2.373737373737375 -4.191919191919193,2.4747474747474754 -4.292929292929293,2.575757575757577 -4.393939393939394,2.676767676767678 -4.494949494949496,2.7777777777777786 -4.494949494949496,2.87878787878788 -4.494949494949496,2.9797979797979806 -4.494949494949496,3.080808080808082 -4.494949494949496,3.181818181818183 -4.494949494949496,3.2828282828282833 -4.494949494949496,3.383838383838384 -4.494949494949496,3.4848484848484866 -4.494949494949496,3.5858585858585874 -4.494949494949496,3.6868686868686877 -4.494949494949496,3.7878787878787885 -4.494949494949496,3.8888888888888893 -4.494949494949496,3.989898989898992 -4.494949494949496,4.090909090909092 -4.494949494949496,4.191919191919193 -4.494949494949496,4.292929292929293 -4.494949494949496,4.393939393939394 -4.494949494949496,4.494949494949497 -4.494949494949496,4.595959595959597 -4.494949494949496,4.696969696969697 -4.494949494949496,4.7979797979797985 -4.494949494949496,4.898989898989901 -4.494949494949496,5.000000000000002" data-type="line" data-label="" points="135.35353535353545,297.4545454545456 125.81818181818193,287.91919191919203 116.28282828282829,278.38383838383857 106.74747474747483,268.84848484848493 97.21212121212136,259.3131313131314 87.67676767676772,249.77777777777794 87.67676767676772,240.24242424242436 87.67676767676772,230.70707070707084 87.67676767676772,221.17171717171726 87.67676767676772,211.63636363636374 87.67676767676772,202.10101010101027 87.67676767676772,192.56565656565675 87.67676767676772,183.03030303030312 87.67676767676772,173.4949494949496 87.67676767676772,163.95959595959613 87.67676767676772,154.4242424242426 87.67676767676772,144.88888888888908 87.67676767676772,135.35353535353545 87.67676767676772,125.81818181818198 87.67676767676772,116.28282828282846 87.67676767676772,106.747474747475 87.67676767676772,97.21212121212153 87.67676767676772,87.67676767676778 87.67676767676772,78.14141414141432 87.67676767676772,68.60606060606085 87.67676767676772,59.07070707070733 87.67676767676772,49.53535353535369 87.67676767676772,40.000000000000114" fill="none" stroke="rgba(0,0,255,0.75)" stroke-width="11.327999999999996"/></g><g><polyline data-points="5.000000000000002,-1.2626262626262625 4.898989898989901,-1.363636363636363 4.7979797979797985,-1.4646464646464643 4.696969696969697,-1.4646464646464643 4.595959595959597,-1.4646464646464643 4.494949494949497,-1.4646464646464643 4.393939393939394,-1.4646464646464643 4.292929292929293,-1.4646464646464643 4.191919191919193,-1.4646464646464643 4.090909090909092,-1.4646464646464643 3.989898989898992,-1.4646464646464643" data-type="line" data-label="" points="984,631.1919191919193 974.4646464646464,640.7272727272727 964.9292929292927,650.2626262626263 955.3939393939393,650.2626262626263 945.8585858585857,650.2626262626263 936.3232323232323,650.2626262626263 926.7878787878785,650.2626262626263 917.2525252525251,650.2626262626263 907.7171717171716,650.2626262626263 898.181818181818,650.2626262626263 888.6464646464647,650.2626262626263" fill="none" stroke="rgba(255,0,0,0.75)" stroke-width="11.327999999999996"/></g><g><polyline data-points="3.989898989898992,-1.4646464646464643 3.989898989898992,-1.5656565656565653 3.989898989898992,-1.6666666666666665 3.989898989898992,-1.7676767676767675 3.989898989898992,-1.8686868686868683 3.989898989898992,-1.9696969696969693 3.989898989898992,-2.07070707070707 3.989898989898992,-2.1717171717171713 3.989898989898992,-2.2727272727272725 3.989898989898992,-2.3737373737373733 3.989898989898992,-2.474747474747474" data-type="line" data-label="" points="888.6464646464647,650.2626262626263 888.6464646464647,659.7979797979798 888.6464646464647,669.3333333333334 888.6464646464647,678.8686868686868 888.6464646464647,688.4040404040404 888.6464646464647,697.939393939394 888.6464646464647,707.4747474747475 888.6464646464647,717.010101010101 888.6464646464647,726.5454545454545 888.6464646464647,736.0808080808081 888.6464646464647,745.6161616161615" fill="none" stroke="rgba(0,0,255,0.75)" stroke-width="11.327999999999996"/></g><g><polyline data-points="3.989898989898992,-2.474747474747474 4.090909090909092,-2.5757575757575752 4.191919191919193,-2.6767676767676765 4.292929292929293,-2.7777777777777777 4.393939393939394,-2.8787878787878785 4.494949494949497,-2.9797979797979792 4.595959595959597,-3.0808080808080804 4.696969696969697,-3.1818181818181817 4.7979797979797985,-3.2828282828282824 4.898989898989901,-3.383838383838383 5.000000000000002,-3.484848484848485 5.000000000000002,-3.5858585858585856 5.000000000000002,-3.6868686868686864 5.000000000000002,-3.7878787878787876" data-type="line" data-label="" points="888.6464646464647,745.6161616161615 898.181818181818,755.1515151515151 907.7171717171716,764.6868686868687 917.2525252525251,774.2222222222222 926.7878787878785,783.7575757575758 936.3232323232323,793.2929292929292 945.8585858585857,802.8282828282828 955.3939393939393,812.3636363636363 964.9292929292927,821.8989898989898 974.4646464646464,831.4343434343434 984,840.969696969697 984,850.5050505050505 984,860.0404040404039 984,869.5757575757575" fill="none" stroke="rgba(255,0,0,0.75)" stroke-width="11.327999999999996"/></g><g><polyline data-points="4.898989898989901,-5.000000000000001 4.7979797979797985,-4.898989898989899 4.696969696969697,-4.7979797979797985 4.595959595959597,-4.696969696969697 4.494949494949497,-4.595959595959596 4.393939393939394,-4.494949494949496 4.292929292929293,-4.393939393939394 4.191919191919193,-4.292929292929293 4.090909090909092,-4.191919191919193 3.989898989898992,-4.090909090909091 3.8888888888888893,-3.98989898989899 3.7878787878787885,-3.8888888888888884 3.6868686868686877,-3.7878787878787876 3.5858585858585874,-3.6868686868686864 3.4848484848484866,-3.5858585858585856 3.383838383838384,-3.484848484848485 3.2828282828282833,-3.383838383838383 3.181818181818183,-3.2828282828282824 3.080808080808082,-3.1818181818181817 2.9797979797979806,-3.0808080808080804 2.87878787878788,-2.9797979797979792 2.7777777777777786,-2.8787878787878785 2.676767676767678,-2.7777777777777777 2.575757575757577,-2.6767676767676765 2.4747474747474754,-2.5757575757575752 2.373737373737375,-2.474747474747474 2.2727272727272734,-2.3737373737373733 2.1717171717171726,-2.2727272727272725 2.070707070707072,-2.1717171717171713 1.9696969696969702,-2.07070707070707 1.8686868686868696,-1.9696969696969693 1.767676767676768,-1.8686868686868683 1.6666666666666674,-1.7676767676767675 1.5656565656565666,-1.6666666666666665 1.4646464646464652,-1.5656565656565653 1.3636363636363644,-1.4646464646464643 1.262626262626263,-1.363636363636363 1.1616161616161622,-1.2626262626262625 1.0606060606060617,-1.1616161616161613 0.9595959595959602,-1.0606060606060603 0.8585858585858596,-0.9595959595959596 0.7575757575757579,-0.8585858585858579 0.6565656565656574,-0.7575757575757572 0.5555555555555567,-0.6565656565656557 0.4545454545454551,-0.555555555555555 0.3535353535353544,-0.4545454545454544 0.2525252525252529,-0.35353535353535287 0.1515151515151522,-0.2525252525252522 0.050505050505051545,-0.15151515151515066 -0.05050505050505001,-0.05050505050505001 -0.15151515151515066,0.050505050505051545 -0.2525252525252522,0.1515151515151522 -0.35353535353535287,0.2525252525252529 -0.4545454545454544,0.3535353535353544 -0.555555555555555,0.4545454545454551 -0.6565656565656557,0.5555555555555567 -0.7575757575757572,0.6565656565656574 -0.8585858585858579,0.7575757575757579 -0.9595959595959596,0.8585858585858596 -1.0606060606060603,0.9595959595959602 -1.1616161616161613,1.0606060606060617 -1.2626262626262625,1.1616161616161622 -1.363636363636363,1.262626262626263 -1.4646464646464643,1.3636363636363644 -1.5656565656565653,1.4646464646464652 -1.6666666666666665,1.5656565656565666 -1.7676767676767675,1.6666666666666674 -1.8686868686868683,1.767676767676768 -1.9696969696969693,1.8686868686868696 -2.07070707070707,1.9696969696969702 -2.1717171717171713,2.070707070707072 -2.2727272727272725,2.1717171717171726 -2.3737373737373733,2.2727272727272734 -2.474747474747474,2.373737373737375 -2.5757575757575752,2.4747474747474754 -2.6767676767676765,2.575757575757577 -2.7777777777777777,2.676767676767678 -2.8787878787878785,2.7777777777777786 -2.9797979797979792,2.87878787878788 -3.0808080808080804,2.9797979797979806 -3.1818181818181817,3.080808080808082 -3.1818181818181817,3.181818181818183 -3.1818181818181817,3.2828282828282833 -3.1818181818181817,3.383838383838384 -3.1818181818181817,3.4848484848484866 -3.1818181818181817,3.5858585858585874 -3.1818181818181817,3.6868686868686877 -3.1818181818181817,3.7878787878787885 -3.1818181818181817,3.8888888888888893 -3.1818181818181817,3.989898989898992 -3.1818181818181817,4.090909090909092 -3.1818181818181817,4.191919191919193 -3.1818181818181817,4.292929292929293 -3.1818181818181817,4.393939393939394 -3.1818181818181817,4.494949494949497 -3.1818181818181817,4.595959595959597 -3.1818181818181817,4.696969696969697 -3.1818181818181817,4.7979797979797985 -3.1818181818181817,4.898989898989901 -3.1818181818181817,5.000000000000002" data-type="line" data-label="" points="974.4646464646464,984 964.9292929292927,974.4646464646464 955.3939393939393,964.9292929292928 945.8585858585857,955.3939393939394 936.3232323232323,945.8585858585858 926.7878787878785,936.3232323232323 917.2525252525251,926.7878787878788 907.7171717171716,917.2525252525252 898.181818181818,907.7171717171718 888.6464646464647,898.1818181818181 879.111111111111,888.6464646464647 869.5757575757575,879.1111111111111 860.0404040404039,869.5757575757575 850.5050505050505,860.0404040404039 840.969696969697,850.5050505050505 831.4343434343433,840.969696969697 821.8989898989898,831.4343434343434 812.3636363636363,821.8989898989898 802.8282828282828,812.3636363636363 793.2929292929292,802.8282828282828 783.7575757575758,793.2929292929292 774.2222222222222,783.7575757575758 764.6868686868686,774.2222222222222 755.1515151515151,764.6868686868687 745.6161616161615,755.1515151515151 736.0808080808081,745.6161616161615 726.5454545454545,736.0808080808081 717.0101010101009,726.5454545454545 707.4747474747475,717.010101010101 697.9393939393939,707.4747474747475 688.4040404040404,697.939393939394 678.8686868686868,688.4040404040404 669.3333333333333,678.8686868686868 659.7979797979798,669.3333333333334 650.2626262626262,659.7979797979798 640.7272727272727,650.2626262626263 631.1919191919192,640.7272727272727 621.6565656565656,631.1919191919193 612.1212121212121,621.6565656565657 602.5858585858585,612.1212121212121 593.0505050505051,602.5858585858587 583.5151515151515,593.0505050505051 573.9797979797979,583.5151515151516 564.4444444444445,573.979797979798 554.9090909090909,564.4444444444445 545.3737373737374,554.909090909091 535.8383838383838,545.3737373737374 526.3030303030303,535.838383838384 516.7676767676768,526.3030303030304 507.2323232323232,516.7676767676768 497.69696969696975,507.23232323232327 488.16161616161617,497.69696969696975 478.62626262626264,488.1616161616163 469.09090909090907,478.6262626262627 459.55555555555554,469.0909090909092 450.0202020202021,459.5555555555556 440.4848484848485,450.0202020202021 430.949494949495,440.4848484848486 421.4141414141414,430.94949494949503 411.8787878787879,421.4141414141415 402.34343434343435,411.87878787878793 392.80808080808083,402.3434343434344 383.2727272727273,392.80808080808094 373.7373737373738,383.27272727272737 364.2020202020202,373.73737373737384 354.6666666666667,364.2020202020203 345.13131313131316,354.66666666666674 335.59595959595964,345.1313131313133 326.0606060606061,335.5959595959597 316.5252525252526,326.06060606060623 306.9898989898991,316.5252525252526 297.4545454545455,306.9898989898991 287.91919191919203,297.4545454545456 278.38383838383845,287.91919191919203 268.84848484848493,278.38383838383857 259.3131313131314,268.84848484848493 249.77777777777783,259.3131313131314 240.2424242424243,249.77777777777794 230.70707070707084,240.24242424242436 221.17171717171726,230.70707070707084 211.63636363636374,221.17171717171726 211.63636363636374,211.63636363636374 211.63636363636374,202.10101010101027 211.63636363636374,192.56565656565675 211.63636363636374,183.03030303030312 211.63636363636374,173.4949494949496 211.63636363636374,163.95959595959613 211.63636363636374,154.4242424242426 211.63636363636374,144.88888888888908 211.63636363636374,135.35353535353545 211.63636363636374,125.81818181818198 211.63636363636374,116.28282828282846 211.63636363636374,106.747474747475 211.63636363636374,97.21212121212153 211.63636363636374,87.67676767676778 211.63636363636374,78.14141414141432 211.63636363636374,68.60606060606085 211.63636363636374,59.07070707070733 211.63636363636374,49.53535353535369 211.63636363636374,40.000000000000114" fill="none" stroke="rgba(0,0,255,0.75)" stroke-width="11.327999999999996"/></g><g><rect data-type="rect" data-label="" data-x="0" data-y="0" x="40.000000000000114" y="40.000000000000284" width="943.9999999999997" height="943.9999999999998" fill="none" stroke="gray" stroke-width="0.010593220338983056"/></g><g><rect data-type="rect" data-label="" data-x="0" data-y="0" x="40.000000000000114" y="40.000000000000284" width="943.9999999999997" height="943.9999999999998" fill="none" stroke="rgba(15, 23, 42, 0.8)" stroke-width="0.010593220338983056"/></g><circle data-type="circle" data-label="" data-x="-3.7878787878787876" data-y="3.8888888888888893" cx="154.42424242424255" cy="144.88888888888908" r="14.159999999999995" fill="rgba(0,0,0,0.3)" stroke="black" stroke-width="0.010593220338983056"/><circle data-type="circle" data-label="" data-x="-3.98989898989899" data-y="2.2727272727272734" cx="135.35353535353545" cy="297.4545454545456" r="14.159999999999995" fill="rgba(0,0,0,0.3)" stroke="black" stroke-width="0.010593220338983056"/><circle data-type="circle" data-label="" data-x="3.989898989898992" data-y="-1.4646464646464643" cx="888.6464646464647" cy="650.2626262626263" r="14.159999999999995" fill="rgba(0,0,0,0.3)" stroke="black" stroke-width="0.010593220338983056"/><circle data-type="circle" data-label="" data-x="3.989898989898992" data-y="-2.474747474747474" cx="888.6464646464647" cy="745.6161616161615" r="14.159999999999995" fill="rgba(0,0,0,0.3)" stroke="black" stroke-width="0.010593220338983056"/><g id="crosshair" style="display: none"><line id="crosshair-h" y1="0" y2="1024" stroke="#666" stroke-width="0.5"/><line id="crosshair-v" x1="0" x2="1024" stroke="#666" stroke-width="0.5"/><text id="coordinates" font-family="monospace" font-size="12" fill="#666"></text></g><script><![CDATA[
              document.currentScript.parentElement.addEventListener('mousemove', (e) => {
                const svg = e.currentTarget;
                const rect = svg.getBoundingClientRect();
                const x = e.clientX - rect.left;
                const y = e.clientY - rect.top;
                const crosshair = svg.getElementById('crosshair');
                const h = svg.getElementById('crosshair-h');
                const v = svg.getElementById('crosshair-v');
                const coords = svg.getElementById('coordinates');
                
                crosshair.style.display = 'block';
                h.setAttribute('x1', '0');
                h.setAttribute('x2', '1024');
                h.setAttribute('y1', y);
                h.setAttribute('y2', y);
                v.setAttribute('x1', x);
                v.setAttribute('x2', x);
                v.setAttribute('y1', '0');
                v.setAttribute('y2', '1024');

                // Calculate real coordinates using inverse transformation
                const matrix = {"a":94.39999999999996,"c":0,"e":511.99999999999994,"b":0,"d":-94.39999999999996,"f":512.0000000000001};
                // Manually invert and apply the affine transform
                // Since we only use translate and scale, we can directly compute:
                // x' = (x - tx) / sx
                // y' = (y - ty) / sy
                const sx = matrix.a;
                const sy = matrix.d;
                const tx = matrix.e; 
                const ty = matrix.f;
                const realPoint = {
                  x: (x - tx) / sx,
                  y: (y - ty) / sy // Flip y back since we used negative scale
                }
                
                coords.textContent = `(${realPoint.x.toFixed(2)}, ${realPoint.y.toFixed(2)})`;
                coords.setAttribute('x', (x + 5).toString());
                coords.setAttribute('y', (y - 5).toString());
              });
              document.currentScript.parentElement.addEventListener('mouseleave', () => {
                document.currentScript.parentElement.getElementById('crosshair').style.display = 'none';
              });
            ]]></script></svg>