<svg width="1024" height="1024" viewBox="0 0 1024 1024" xmlns="http://www.w3.org/2000/svg"><rect width="100%" height="100%" fill="white"/><g><circle data-type="point" data-label="conn_000" data-x="-5" data-y="1.12" cx="40.000000000000114" cy="406.27200000000016" r="14.16" fill="red"/></g><g><circle data-type="point" data-label="conn_000" data-x="5" data-y="-1.62" cx="983.9999999999998" cy="664.9280000000001" r="14.16" fill="blue"/></g><g><circle data-type="point" data-label="conn_001" data-x="1.72" data-y="5" cx="674.3679999999999" cy="40.000000000000284" r="14.16" fill="red"/></g><g><circle data-type="point" data-label="conn_001" data-x="0.6" data-y="5" cx="568.6399999999999" cy="40.000000000000284" r="14.16" fill="blue"/></g><g><circle data-type="point" data-label="conn_002" data-x="-5" data-y="-2.82" cx="40.000000000000114" cy="778.208" r="14.16" fill="red"/></g><g><circle data-type="point" data-label="conn_002" data-x="5" data-y="2.12" cx="983.9999999999998" cy="311.8720000000002" r="14.16" fill="red"/></g><g><circle data-type="point" data-label="conn_003" data-x="5" data-y="-1.58" cx="983.9999999999998" cy="661.152" r="14.16" fill="blue"/></g><g><circle data-type="point" data-label="conn_003" data-x="-5" data-y="4.04" cx="40.000000000000114" cy="130.62400000000025" r="14.16" fill="blue"/></g><g><circle data-type="point" data-label="conn_004" data-x="-3.88" data-y="5" cx="145.72800000000012" cy="40.000000000000284" r="14.16" fill="red"/></g><g><circle data-type="point" data-label="conn_004" data-x="-5" data-y="4.92" cx="40.000000000000114" cy="47.552000000000305" r="14.16" fill="blue"/></g><g><circle data-type="point" data-label="conn_005" data-x="5" data-y="-0.64" cx="983.9999999999998" cy="572.416" r="14.16" fill="red"/></g><g><circle data-type="point" data-label="conn_005" data-x="-5" data-y="0.56" cx="40.000000000000114" cy="459.13600000000014" r="14.16" fill="red"/></g><g><circle data-type="point" data-label="conn_006" data-x="-5" data-y="-4.3" cx="40.000000000000114" cy="917.92" r="14.16" fill="red"/></g><g><circle data-type="point" data-label="conn_006" data-x="5" data-y="-4.38" cx="983.9999999999998" cy="925.472" r="14.16" fill="blue"/></g><g><circle data-type="point" data-label="conn_007" data-x="-3.12" data-y="5" cx="217.47200000000004" cy="40.000000000000284" r="14.16" fill="blue"/></g><g><circle data-type="point" data-label="conn_007" data-x="-4.58" data-y="-5" cx="79.64800000000008" cy="984" r="14.16" fill="blue"/></g><g><circle data-type="point" data-label="conn_008" data-x="1.84" data-y="5" cx="685.6959999999999" cy="40.000000000000284" r="14.16" fill="blue"/></g><g><circle data-type="point" data-label="conn_008" data-x="2.02" data-y="-5" cx="702.6879999999999" cy="984" r="14.16" fill="blue"/></g><g><polyline data-points="-5.000000000000001,-4.292929292929293 -4.898989898989899,-4.292929292929293 -4.7979797979797985,-4.292929292929293 -4.696969696969697,-4.292929292929293 -4.595959595959596,-4.292929292929293 -4.494949494949496,-4.292929292929293 -4.393939393939394,-4.292929292929293 -4.292929292929293,-4.292929292929293 -4.191919191919193,-4.292929292929293 -4.090909090909091,-4.292929292929293 -3.98989898989899,-4.292929292929293 -3.8888888888888884,-4.292929292929293 -3.7878787878787876,-4.292929292929293 -3.6868686868686864,-4.292929292929293 -3.5858585858585856,-4.292929292929293 -3.484848484848485,-4.292929292929293 -3.383838383838383,-4.292929292929293 -3.2828282828282824,-4.292929292929293 -3.1818181818181817,-4.292929292929293 -3.0808080808080804,-4.292929292929293 -2.9797979797979792,-4.292929292929293 -2.8787878787878785,-4.292929292929293 -2.7777777777777777,-4.292929292929293 -2.6767676767676765,-4.292929292929293 -2.5757575757575752,-4.292929292929293 -2.474747474747474,-4.292929292929293 -2.3737373737373733,-4.292929292929293 -2.2727272727272725,-4.292929292929293 -2.1717171717171713,-4.292929292929293 -2.07070707070707,-4.292929292929293 -1.9696969696969693,-4.292929292929293 -1.8686868686868683,-4.292929292929293 -1.7676767676767675,-4.292929292929293 -1.6666666666666665,-4.292929292929293 -1.5656565656565653,-4.292929292929293 -1.4646464646464643,-4.292929292929293 -1.363636363636363,-4.292929292929293 -1.2626262626262625,-4.292929292929293 -1.1616161616161613,-4.292929292929293 -1.0606060606060603,-4.292929292929293 -0.9595959595959596,-4.292929292929293 -0.8585858585858579,-4.292929292929293 -0.7575757575757572,-4.292929292929293 -0.6565656565656557,-4.292929292929293 -0.555555555555555,-4.292929292929293 -0.4545454545454544,-4.292929292929293 -0.35353535353535287,-4.292929292929293 -0.2525252525252522,-4.292929292929293 -0.15151515151515066,-4.292929292929293 -0.05050505050505001,-4.292929292929293 0.050505050505051545,-4.292929292929293 0.1515151515151522,-4.292929292929293 0.2525252525252529,-4.292929292929293 0.3535353535353544,-4.292929292929293 0.4545454545454551,-4.292929292929293 0.5555555555555567,-4.292929292929293 0.6565656565656574,-4.292929292929293 0.7575757575757579,-4.292929292929293 0.8585858585858596,-4.292929292929293 0.9595959595959602,-4.292929292929293 1.0606060606060617,-4.292929292929293 1.1616161616161622,-4.292929292929293 1.262626262626263,-4.292929292929293 1.3636363636363644,-4.292929292929293 1.4646464646464652,-4.292929292929293 1.5656565656565666,-4.292929292929293 1.6666666666666674,-4.292929292929293 1.767676767676768,-4.292929292929293 1.8686868686868696,-4.292929292929293 1.9696969696969702,-4.292929292929293 2.070707070707072,-4.292929292929293 2.1717171717171726,-4.292929292929293 2.2727272727272734,-4.292929292929293 2.373737373737375,-4.292929292929293 2.4747474747474754,-4.292929292929293 2.575757575757577,-4.292929292929293 2.676767676767678,-4.292929292929293 2.7777777777777786,-4.292929292929293 2.87878787878788,-4.292929292929293 2.9797979797979806,-4.292929292929293 3.080808080808082,-4.292929292929293 3.181818181818183,-4.292929292929293 3.2828282828282833,-4.292929292929293 3.383838383838384,-4.292929292929293 3.4848484848484866,-4.292929292929293 3.5858585858585874,-4.191919191919193 3.6868686868686877,-4.090909090909091 3.7878787878787885,-3.98989898989899" data-type="line" data-label="" points="40.00000000000006,917.2525252525252 49.53535353535369,917.2525252525252 59.07070707070716,917.2525252525252 68.60606060606068,917.2525252525252 78.14141414141426,917.2525252525252 87.67676767676772,917.2525252525252 97.21212121212136,917.2525252525252 106.74747474747483,917.2525252525252 116.28282828282829,917.2525252525252 125.81818181818193,917.2525252525252 135.35353535353545,917.2525252525252 144.88888888888903,917.2525252525252 154.42424242424255,917.2525252525252 163.95959595959607,917.2525252525252 173.4949494949496,917.2525252525252 183.03030303030312,917.2525252525252 192.5656565656567,917.2525252525252 202.10101010101022,917.2525252525252 211.63636363636374,917.2525252525252 221.17171717171726,917.2525252525252 230.70707070707084,917.2525252525252 240.2424242424243,917.2525252525252 249.77777777777783,917.2525252525252 259.3131313131314,917.2525252525252 268.84848484848493,917.2525252525252 278.38383838383845,917.2525252525252 287.91919191919203,917.2525252525252 297.4545454545455,917.2525252525252 306.9898989898991,917.2525252525252 316.5252525252526,917.2525252525252 326.0606060606061,917.2525252525252 335.59595959595964,917.2525252525252 345.13131313131316,917.2525252525252 354.6666666666667,917.2525252525252 364.2020202020202,917.2525252525252 373.7373737373738,917.2525252525252 383.2727272727273,917.2525252525252 392.80808080808083,917.2525252525252 402.34343434343435,917.2525252525252 411.8787878787879,917.2525252525252 421.4141414141414,917.2525252525252 430.949494949495,917.2525252525252 440.4848484848485,917.2525252525252 450.0202020202021,917.2525252525252 459.55555555555554,917.2525252525252 469.09090909090907,917.2525252525252 478.62626262626264,917.2525252525252 488.16161616161617,917.2525252525252 497.69696969696975,917.2525252525252 507.2323232323232,917.2525252525252 516.7676767676768,917.2525252525252 526.3030303030303,917.2525252525252 535.8383838383838,917.2525252525252 545.3737373737374,917.2525252525252 554.9090909090909,917.2525252525252 564.4444444444445,917.2525252525252 573.9797979797979,917.2525252525252 583.5151515151515,917.2525252525252 593.0505050505051,917.2525252525252 602.5858585858585,917.2525252525252 612.1212121212121,917.2525252525252 621.6565656565656,917.2525252525252 631.1919191919192,917.2525252525252 640.7272727272727,917.2525252525252 650.2626262626262,917.2525252525252 659.7979797979798,917.2525252525252 669.3333333333333,917.2525252525252 678.8686868686868,917.2525252525252 688.4040404040404,917.2525252525252 697.9393939393939,917.2525252525252 707.4747474747475,917.2525252525252 717.0101010101009,917.2525252525252 726.5454545454545,917.2525252525252 736.0808080808081,917.2525252525252 745.6161616161615,917.2525252525252 755.1515151515151,917.2525252525252 764.6868686868686,917.2525252525252 774.2222222222222,917.2525252525252 783.7575757575758,917.2525252525252 793.2929292929292,917.2525252525252 802.8282828282828,917.2525252525252 812.3636363636363,917.2525252525252 821.8989898989898,917.2525252525252 831.4343434343433,917.2525252525252 840.969696969697,917.2525252525252 850.5050505050505,907.7171717171718 860.0404040404039,898.1818181818181 869.5757575757575,888.6464646464647" fill="none" stroke="rgba(255,0,0,0.75)" stroke-width="11.327999999999996"/></g><g><polyline data-points="3.7878787878787885,-3.98989898989899 3.8888888888888893,-4.090909090909091 3.989898989898992,-4.191919191919193 4.090909090909092,-4.292929292929293 4.191919191919193,-4.393939393939394 4.292929292929293,-4.393939393939394 4.393939393939394,-4.393939393939394 4.494949494949497,-4.393939393939394 4.595959595959597,-4.393939393939394 4.696969696969697,-4.393939393939394 4.7979797979797985,-4.393939393939394 4.898989898989901,-4.393939393939394 5.000000000000002,-4.393939393939394" data-type="line" data-label="" points="869.5757575757575,888.6464646464647 879.111111111111,898.1818181818181 888.6464646464647,907.7171717171718 898.181818181818,917.2525252525252 907.7171717171716,926.7878787878788 917.2525252525251,926.7878787878788 926.7878787878785,926.7878787878788 936.3232323232323,926.7878787878788 945.8585858585857,926.7878787878788 955.3939393939393,926.7878787878788 964.9292929292927,926.7878787878788 974.4646464646464,926.7878787878788 984,926.7878787878788" fill="none" stroke="rgba(0,0,255,0.75)" stroke-width="11.327999999999996"/></g><g><polyline data-points="-5.000000000000001,1.1616161616161622 -4.898989898989899,1.0606060606060617 -4.7979797979797985,0.9595959595959602 -4.696969696969697,0.8585858585858596 -4.595959595959596,0.7575757575757579 -4.494949494949496,0.6565656565656574 -4.393939393939394,0.5555555555555567 -4.292929292929293,0.4545454545454551 -4.191919191919193,0.3535353535353544 -4.090909090909091,0.2525252525252529 -3.98989898989899,0.1515151515151522 -3.8888888888888884,0.050505050505051545 -3.7878787878787876,-0.05050505050505001 -3.6868686868686864,-0.15151515151515066 -3.5858585858585856,-0.2525252525252522 -3.484848484848485,-0.35353535353535287 -3.383838383838383,-0.4545454545454544 -3.2828282828282824,-0.555555555555555 -3.1818181818181817,-0.6565656565656557 -3.0808080808080804,-0.7575757575757572 -2.9797979797979792,-0.8585858585858579 -2.8787878787878785,-0.9595959595959596 -2.7777777777777777,-1.0606060606060603 -2.6767676767676765,-1.1616161616161613 -2.5757575757575752,-1.2626262626262625 -2.474747474747474,-1.363636363636363 -2.3737373737373733,-1.4646464646464643 -2.2727272727272725,-1.5656565656565653 -2.1717171717171713,-1.6666666666666665 -2.07070707070707,-1.6666666666666665 -1.9696969696969693,-1.6666666666666665 -1.8686868686868683,-1.6666666666666665 -1.7676767676767675,-1.6666666666666665 -1.6666666666666665,-1.6666666666666665 -1.5656565656565653,-1.6666666666666665 -1.4646464646464643,-1.6666666666666665 -1.363636363636363,-1.6666666666666665 -1.2626262626262625,-1.6666666666666665 -1.1616161616161613,-1.6666666666666665 -1.0606060606060603,-1.6666666666666665 -0.9595959595959596,-1.6666666666666665 -0.8585858585858579,-1.6666666666666665 -0.7575757575757572,-1.6666666666666665 -0.6565656565656557,-1.6666666666666665 -0.555555555555555,-1.6666666666666665 -0.4545454545454544,-1.6666666666666665 -0.35353535353535287,-1.6666666666666665 -0.2525252525252522,-1.6666666666666665 -0.15151515151515066,-1.6666666666666665 -0.05050505050505001,-1.6666666666666665 0.050505050505051545,-1.6666666666666665 0.1515151515151522,-1.6666666666666665 0.2525252525252529,-1.6666666666666665 0.3535353535353544,-1.6666666666666665 0.4545454545454551,-1.6666666666666665 0.5555555555555567,-1.6666666666666665 0.6565656565656574,-1.6666666666666665 0.7575757575757579,-1.6666666666666665 0.8585858585858596,-1.6666666666666665 0.9595959595959602,-1.6666666666666665 1.0606060606060617,-1.6666666666666665 1.1616161616161622,-1.6666666666666665 1.262626262626263,-1.6666666666666665 1.3636363636363644,-1.6666666666666665 1.4646464646464652,-1.6666666666666665 1.5656565656565666,-1.6666666666666665 1.6666666666666674,-1.6666666666666665 1.767676767676768,-1.6666666666666665 1.8686868686868696,-1.6666666666666665 1.9696969696969702,-1.6666666666666665 2.070707070707072,-1.6666666666666665 2.1717171717171726,-1.6666666666666665 2.2727272727272734,-1.6666666666666665 2.373737373737375,-1.6666666666666665 2.4747474747474754,-1.6666666666666665 2.575757575757577,-1.6666666666666665 2.676767676767678,-1.6666666666666665 2.7777777777777786,-1.6666666666666665 2.87878787878788,-1.6666666666666665 2.9797979797979806,-1.6666666666666665 3.080808080808082,-1.6666666666666665 3.181818181818183,-1.6666666666666665 3.2828282828282833,-1.6666666666666665 3.383838383838384,-1.6666666666666665 3.4848484848484866,-1.6666666666666665 3.5858585858585874,-1.6666666666666665 3.6868686868686877,-1.6666666666666665 3.7878787878787885,-1.6666666666666665 3.8888888888888893,-1.6666666666666665 3.989898989898992,-1.6666666666666665" data-type="line" data-label="" points="40.00000000000006,402.3434343434344 49.53535353535369,411.87878787878793 59.07070707070716,421.4141414141415 68.60606060606068,430.94949494949503 78.14141414141426,440.4848484848486 87.67676767676772,450.0202020202021 97.21212121212136,459.5555555555556 106.74747474747483,469.0909090909092 116.28282828282829,478.6262626262627 125.81818181818193,488.1616161616163 135.35353535353545,497.69696969696975 144.88888888888903,507.23232323232327 154.42424242424255,516.7676767676768 163.95959595959607,526.3030303030304 173.4949494949496,535.838383838384 183.03030303030312,545.3737373737374 192.5656565656567,554.909090909091 202.10101010101022,564.4444444444445 211.63636363636374,573.979797979798 221.17171717171726,583.5151515151516 230.70707070707084,593.0505050505051 240.2424242424243,602.5858585858587 249.77777777777783,612.1212121212121 259.3131313131314,621.6565656565657 268.84848484848493,631.1919191919193 278.38383838383845,640.7272727272727 287.91919191919203,650.2626262626263 297.4545454545455,659.7979797979798 306.9898989898991,669.3333333333334 316.5252525252526,669.3333333333334 326.0606060606061,669.3333333333334 335.59595959595964,669.3333333333334 345.13131313131316,669.3333333333334 354.6666666666667,669.3333333333334 364.2020202020202,669.3333333333334 373.7373737373738,669.3333333333334 383.2727272727273,669.3333333333334 392.80808080808083,669.3333333333334 402.34343434343435,669.3333333333334 411.8787878787879,669.3333333333334 421.4141414141414,669.3333333333334 430.949494949495,669.3333333333334 440.4848484848485,669.3333333333334 450.0202020202021,669.3333333333334 459.55555555555554,669.3333333333334 469.09090909090907,669.3333333333334 478.62626262626264,669.3333333333334 488.16161616161617,669.3333333333334 497.69696969696975,669.3333333333334 507.2323232323232,669.3333333333334 516.7676767676768,669.3333333333334 526.3030303030303,669.3333333333334 535.8383838383838,669.3333333333334 545.3737373737374,669.3333333333334 554.9090909090909,669.3333333333334 564.4444444444445,669.3333333333334 573.9797979797979,669.3333333333334 583.5151515151515,669.3333333333334 593.0505050505051,669.3333333333334 602.5858585858585,669.3333333333334 612.1212121212121,669.3333333333334 621.6565656565656,669.3333333333334 631.1919191919192,669.3333333333334 640.7272727272727,669.3333333333334 650.2626262626262,669.3333333333334 659.7979797979798,669.3333333333334 669.3333333333333,669.3333333333334 678.8686868686868,669.3333333333334 688.4040404040404,669.3333333333334 697.9393939393939,669.3333333333334 707.4747474747475,669.3333333333334 717.0101010101009,669.3333333333334 726.5454545454545,669.3333333333334 736.0808080808081,669.3333333333334 745.6161616161615,669.3333333333334 755.1515151515151,669.3333333333334 764.6868686868686,669.3333333333334 774.2222222222222,669.3333333333334 783.7575757575758,669.3333333333334 793.2929292929292,669.3333333333334 802.8282828282828,669.3333333333334 812.3636363636363,669.3333333333334 821.8989898989898,669.3333333333334 831.4343434343433,669.3333333333334 840.969696969697,669.3333333333334 850.5050505050505,669.3333333333334 860.0404040404039,669.3333333333334 869.5757575757575,669.3333333333334 879.111111111111,669.3333333333334 888.6464646464647,669.3333333333334" fill="none" stroke="rgba(255,0,0,0.75)" stroke-width="11.327999999999996"/></g><g><polyline data-points="3.989898989898992,-1.6666666666666665 4.090909090909092,-1.6666666666666665 4.191919191919193,-1.6666666666666665 4.292929292929293,-1.6666666666666665 4.393939393939394,-1.6666666666666665 4.494949494949497,-1.6666666666666665 4.595959595959597,-1.6666666666666665 4.696969696969697,-1.6666666666666665 4.7979797979797985,-1.6666666666666665 4.898989898989901,-1.6666666666666665 5.000000000000002,-1.6666666666666665" data-type="line" data-label="" points="888.6464646464647,669.3333333333334 898.181818181818,669.3333333333334 907.7171717171716,669.3333333333334 917.2525252525251,669.3333333333334 926.7878787878785,669.3333333333334 936.3232323232323,669.3333333333334 945.8585858585857,669.3333333333334 955.3939393939393,669.3333333333334 964.9292929292927,669.3333333333334 974.4646464646464,669.3333333333334 984,669.3333333333334" fill="none" stroke="rgba(0,0,255,0.75)" stroke-width="11.327999999999996"/></g><g><polyline data-points="-5.000000000000001,-2.8787878787878785 -4.898989898989899,-2.7777777777777777 -4.7979797979797985,-2.6767676767676765 -4.696969696969697,-2.5757575757575752 -4.595959595959596,-2.474747474747474 -4.494949494949496,-2.3737373737373733 -4.393939393939394,-2.2727272727272725 -4.292929292929293,-2.1717171717171713 -4.191919191919193,-2.07070707070707 -4.090909090909091,-1.9696969696969693 -3.98989898989899,-1.8686868686868683 -3.8888888888888884,-1.7676767676767675 -3.7878787878787876,-1.6666666666666665 -3.6868686868686864,-1.5656565656565653 -3.5858585858585856,-1.4646464646464643 -3.484848484848485,-1.363636363636363 -3.383838383838383,-1.2626262626262625 -3.2828282828282824,-1.1616161616161613" data-type="line" data-label="" points="40.00000000000006,783.7575757575758 49.53535353535369,774.2222222222222 59.07070707070716,764.6868686868687 68.60606060606068,755.1515151515151 78.14141414141426,745.6161616161615 87.67676767676772,736.0808080808081 97.21212121212136,726.5454545454545 106.74747474747483,717.010101010101 116.28282828282829,707.4747474747475 125.81818181818193,697.939393939394 135.35353535353545,688.4040404040404 144.88888888888903,678.8686868686868 154.42424242424255,669.3333333333334 163.95959595959607,659.7979797979798 173.4949494949496,650.2626262626263 183.03030303030312,640.7272727272727 192.5656565656567,631.1919191919193 202.10101010101022,621.6565656565657" fill="none" stroke="rgba(255,0,0,0.75)" stroke-width="11.327999999999996"/></g><g><polyline data-points="-3.2828282828282824,-1.1616161616161613 -3.1818181818181817,-1.0606060606060603 -3.0808080808080804,-0.9595959595959596 -2.9797979797979792,-0.8585858585858579 -2.8787878787878785,-0.7575757575757572 -2.7777777777777777,-0.6565656565656557 -2.6767676767676765,-0.555555555555555 -2.5757575757575752,-0.4545454545454544 -2.474747474747474,-0.35353535353535287 -2.3737373737373733,-0.2525252525252522 -2.2727272727272725,-0.15151515151515066 -2.1717171717171713,-0.05050505050505001 -2.07070707070707,0.050505050505051545 -1.9696969696969693,0.1515151515151522 -1.8686868686868683,0.2525252525252529 -1.7676767676767675,0.3535353535353544 -1.6666666666666665,0.4545454545454551 -1.5656565656565653,0.5555555555555567 -1.4646464646464643,0.6565656565656574 -1.363636363636363,0.7575757575757579 -1.2626262626262625,0.8585858585858596 -1.1616161616161613,0.9595959595959602 -1.0606060606060603,1.0606060606060617 -0.9595959595959596,1.1616161616161622 -0.8585858585858579,1.262626262626263 -0.7575757575757572,1.3636363636363644 -0.6565656565656557,1.4646464646464652 -0.555555555555555,1.5656565656565666 -0.4545454545454544,1.6666666666666674 -0.35353535353535287,1.767676767676768 -0.2525252525252522,1.8686868686868696 -0.15151515151515066,1.9696969696969702 -0.05050505050505001,2.070707070707072 0.050505050505051545,2.1717171717171726 0.1515151515151522,2.1717171717171726 0.2525252525252529,2.1717171717171726 0.3535353535353544,2.1717171717171726 0.4545454545454551,2.1717171717171726 0.5555555555555567,2.1717171717171726 0.6565656565656574,2.1717171717171726 0.7575757575757579,2.1717171717171726" data-type="line" data-label="" points="202.10101010101022,621.6565656565657 211.63636363636374,612.1212121212121 221.17171717171726,602.5858585858587 230.70707070707084,593.0505050505051 240.2424242424243,583.5151515151516 249.77777777777783,573.979797979798 259.3131313131314,564.4444444444445 268.84848484848493,554.909090909091 278.38383838383845,545.3737373737374 287.91919191919203,535.838383838384 297.4545454545455,526.3030303030304 306.9898989898991,516.7676767676768 316.5252525252526,507.23232323232327 326.0606060606061,497.69696969696975 335.59595959595964,488.1616161616163 345.13131313131316,478.6262626262627 354.6666666666667,469.0909090909092 364.2020202020202,459.5555555555556 373.7373737373738,450.0202020202021 383.2727272727273,440.4848484848486 392.80808080808083,430.94949494949503 402.34343434343435,421.4141414141415 411.8787878787879,411.87878787878793 421.4141414141414,402.3434343434344 430.949494949495,392.80808080808094 440.4848484848485,383.27272727272737 450.0202020202021,373.73737373737384 459.55555555555554,364.2020202020203 469.09090909090907,354.66666666666674 478.62626262626264,345.1313131313133 488.16161616161617,335.5959595959597 497.69696969696975,326.06060606060623 507.2323232323232,316.5252525252526 516.7676767676768,306.9898989898991 526.3030303030303,306.9898989898991 535.8383838383838,306.9898989898991 545.3737373737374,306.9898989898991 554.9090909090909,306.9898989898991 564.4444444444445,306.9898989898991 573.9797979797979,306.9898989898991 583.5151515151515,306.9898989898991" fill="none" stroke="rgba(0,0,255,0.75)" stroke-width="11.327999999999996"/></g><g><polyline data-points="0.7575757575757579,2.1717171717171726 0.8585858585858596,2.1717171717171726 0.9595959595959602,2.1717171717171726 1.0606060606060617,2.1717171717171726 1.1616161616161622,2.1717171717171726 1.262626262626263,2.1717171717171726 1.3636363636363644,2.1717171717171726 1.4646464646464652,2.1717171717171726 1.5656565656565666,2.1717171717171726 1.6666666666666674,2.1717171717171726 1.767676767676768,2.1717171717171726 1.8686868686868696,2.1717171717171726 1.9696969696969702,2.1717171717171726 2.070707070707072,2.1717171717171726 2.1717171717171726,2.1717171717171726 2.2727272727272734,2.1717171717171726 2.373737373737375,2.1717171717171726 2.4747474747474754,2.1717171717171726 2.575757575757577,2.1717171717171726 2.676767676767678,2.1717171717171726 2.7777777777777786,2.1717171717171726 2.87878787878788,2.1717171717171726 2.9797979797979806,2.1717171717171726 3.080808080808082,2.1717171717171726 3.181818181818183,2.1717171717171726 3.2828282828282833,2.1717171717171726 3.383838383838384,2.1717171717171726 3.4848484848484866,2.1717171717171726 3.5858585858585874,2.1717171717171726 3.6868686868686877,2.1717171717171726 3.7878787878787885,2.1717171717171726 3.8888888888888893,2.1717171717171726 3.989898989898992,2.1717171717171726 4.090909090909092,2.1717171717171726 4.191919191919193,2.1717171717171726 4.292929292929293,2.1717171717171726 4.393939393939394,2.1717171717171726 4.494949494949497,2.1717171717171726 4.595959595959597,2.1717171717171726 4.696969696969697,2.1717171717171726 4.7979797979797985,2.1717171717171726 4.898989898989901,2.1717171717171726 5.000000000000002,2.1717171717171726" data-type="line" data-label="" points="583.5151515151515,306.9898989898991 593.0505050505051,306.9898989898991 602.5858585858585,306.9898989898991 612.1212121212121,306.9898989898991 621.6565656565656,306.9898989898991 631.1919191919192,306.9898989898991 640.7272727272727,306.9898989898991 650.2626262626262,306.9898989898991 659.7979797979798,306.9898989898991 669.3333333333333,306.9898989898991 678.8686868686868,306.9898989898991 688.4040404040404,306.9898989898991 697.9393939393939,306.9898989898991 707.4747474747475,306.9898989898991 717.0101010101009,306.9898989898991 726.5454545454545,306.9898989898991 736.0808080808081,306.9898989898991 745.6161616161615,306.9898989898991 755.1515151515151,306.9898989898991 764.6868686868686,306.9898989898991 774.2222222222222,306.9898989898991 783.7575757575758,306.9898989898991 793.2929292929292,306.9898989898991 802.8282828282828,306.9898989898991 812.3636363636363,306.9898989898991 821.8989898989898,306.9898989898991 831.4343434343433,306.9898989898991 840.969696969697,306.9898989898991 850.5050505050505,306.9898989898991 860.0404040404039,306.9898989898991 869.5757575757575,306.9898989898991 879.111111111111,306.9898989898991 888.6464646464647,306.9898989898991 898.181818181818,306.9898989898991 907.7171717171716,306.9898989898991 917.2525252525251,306.9898989898991 926.7878787878785,306.9898989898991 936.3232323232323,306.9898989898991 945.8585858585857,306.9898989898991 955.3939393939393,306.9898989898991 964.9292929292927,306.9898989898991 974.4646464646464,306.9898989898991 984,306.9898989898991" fill="none" stroke="rgba(255,0,0,0.75)" stroke-width="11.327999999999996"/></g><g><polyline data-points="1.767676767676768,5.000000000000002 1.6666666666666674,4.898989898989901 1.5656565656565666,4.7979797979797985 1.4646464646464652,4.696969696969697 1.3636363636363644,4.595959595959597 1.262626262626263,4.494949494949497 1.1616161616161622,4.393939393939394 1.0606060606060617,4.292929292929293 0.9595959595959602,4.191919191919193 0.8585858585858596,4.090909090909092 0.7575757575757579,3.989898989898992" data-type="line" data-label="" points="678.8686868686868,40.000000000000114 669.3333333333333,49.53535353535369 659.7979797979798,59.07070707070733 650.2626262626262,68.60606060606085 640.7272727272727,78.14141414141432 631.1919191919192,87.67676767676778 621.6565656565656,97.21212121212153 612.1212121212121,106.747474747475 602.5858585858585,116.28282828282846 593.0505050505051,125.81818181818198 583.5151515151515,135.35353535353545" fill="none" stroke="rgba(255,0,0,0.75)" stroke-width="11.327999999999996"/></g><g><polyline data-points="0.7575757575757579,3.989898989898992 0.6565656565656574,4.090909090909092 0.5555555555555567,4.191919191919193 0.5555555555555567,4.292929292929293 0.5555555555555567,4.393939393939394 0.5555555555555567,4.494949494949497 0.5555555555555567,4.595959595959597 0.5555555555555567,4.696969696969697 0.5555555555555567,4.7979797979797985 0.5555555555555567,4.898989898989901 0.5555555555555567,5.000000000000002" data-type="line" data-label="" points="583.5151515151515,135.35353535353545 573.9797979797979,125.81818181818198 564.4444444444445,116.28282828282846 564.4444444444445,106.747474747475 564.4444444444445,97.21212121212153 564.4444444444445,87.67676767676778 564.4444444444445,78.14141414141432 564.4444444444445,68.60606060606085 564.4444444444445,59.07070707070733 564.4444444444445,49.53535353535369 564.4444444444445,40.000000000000114" fill="none" stroke="rgba(0,0,255,0.75)" stroke-width="11.327999999999996"/></g><g><polyline data-points="1.8686868686868696,5.000000000000002 1.9696969696969702,4.898989898989901 2.070707070707072,4.7979797979797985 2.070707070707072,4.696969696969697 2.070707070707072,4.595959595959597 2.070707070707072,4.494949494949497 2.070707070707072,4.393939393939394 2.070707070707072,4.292929292929293 2.070707070707072,4.191919191919193 2.070707070707072,4.090909090909092 2.070707070707072,3.989898989898992 2.070707070707072,3.8888888888888893 2.070707070707072,3.7878787878787885 2.070707070707072,3.6868686868686877 2.070707070707072,3.5858585858585874 2.070707070707072,3.4848484848484866 2.070707070707072,3.383838383838384 2.070707070707072,3.2828282828282833 2.070707070707072,3.181818181818183 2.070707070707072,3.080808080808082 2.070707070707072,2.9797979797979806 2.070707070707072,2.87878787878788 2.070707070707072,2.7777777777777786 2.070707070707072,2.676767676767678 2.070707070707072,2.575757575757577 2.070707070707072,2.4747474747474754 2.070707070707072,2.373737373737375 2.070707070707072,2.2727272727272734 2.070707070707072,2.1717171717171726 2.070707070707072,2.070707070707072 2.070707070707072,1.9696969696969702 2.070707070707072,1.8686868686868696 2.1717171717171726,1.767676767676768" data-type="line" data-label="" points="688.4040404040404,40.000000000000114 697.9393939393939,49.53535353535369 707.4747474747475,59.07070707070733 707.4747474747475,68.60606060606085 707.4747474747475,78.14141414141432 707.4747474747475,87.67676767676778 707.4747474747475,97.21212121212153 707.4747474747475,106.747474747475 707.4747474747475,116.28282828282846 707.4747474747475,125.81818181818198 707.4747474747475,135.35353535353545 707.4747474747475,144.88888888888908 707.4747474747475,154.4242424242426 707.4747474747475,163.95959595959613 707.4747474747475,173.4949494949496 707.4747474747475,183.03030303030312 707.4747474747475,192.56565656565675 707.4747474747475,202.10101010101027 707.4747474747475,211.63636363636374 707.4747474747475,221.17171717171726 707.4747474747475,230.70707070707084 707.4747474747475,240.24242424242436 707.4747474747475,249.77777777777794 707.4747474747475,259.3131313131314 707.4747474747475,268.84848484848493 707.4747474747475,278.38383838383857 707.4747474747475,287.91919191919203 707.4747474747475,297.4545454545456 707.4747474747475,306.9898989898991 707.4747474747475,316.5252525252526 707.4747474747475,326.06060606060623 707.4747474747475,335.5959595959597 717.0101010101009,345.1313131313133" fill="none" stroke="rgba(0,0,255,0.75)" stroke-width="11.327999999999996"/></g><g><polyline data-points="2.1717171717171726,1.767676767676768 2.070707070707072,1.6666666666666674 2.070707070707072,1.5656565656565666 2.070707070707072,1.4646464646464652 2.070707070707072,1.3636363636363644 2.070707070707072,1.262626262626263 2.070707070707072,1.1616161616161622 2.070707070707072,1.0606060606060617 2.070707070707072,0.9595959595959602 2.070707070707072,0.8585858585858596 2.070707070707072,0.7575757575757579 2.070707070707072,0.6565656565656574 2.070707070707072,0.5555555555555567 2.070707070707072,0.4545454545454551 2.070707070707072,0.3535353535353544 2.070707070707072,0.2525252525252529 2.070707070707072,0.1515151515151522 2.070707070707072,0.050505050505051545 2.070707070707072,-0.05050505050505001 2.070707070707072,-0.15151515151515066 2.070707070707072,-0.2525252525252522 2.070707070707072,-0.35353535353535287 2.070707070707072,-0.4545454545454544 2.070707070707072,-0.555555555555555 2.070707070707072,-0.6565656565656557 2.070707070707072,-0.7575757575757572 2.070707070707072,-0.8585858585858579 2.070707070707072,-0.9595959595959596 2.070707070707072,-1.0606060606060603 2.070707070707072,-1.1616161616161613 2.070707070707072,-1.2626262626262625" data-type="line" data-label="" points="717.0101010101009,345.1313131313133 707.4747474747475,354.66666666666674 707.4747474747475,364.2020202020203 707.4747474747475,373.73737373737384 707.4747474747475,383.27272727272737 707.4747474747475,392.80808080808094 707.4747474747475,402.3434343434344 707.4747474747475,411.87878787878793 707.4747474747475,421.4141414141415 707.4747474747475,430.94949494949503 707.4747474747475,440.4848484848486 707.4747474747475,450.0202020202021 707.4747474747475,459.5555555555556 707.4747474747475,469.0909090909092 707.4747474747475,478.6262626262627 707.4747474747475,488.1616161616163 707.4747474747475,497.69696969696975 707.4747474747475,507.23232323232327 707.4747474747475,516.7676767676768 707.4747474747475,526.3030303030304 707.4747474747475,535.838383838384 707.4747474747475,545.3737373737374 707.4747474747475,554.909090909091 707.4747474747475,564.4444444444445 707.4747474747475,573.979797979798 707.4747474747475,583.5151515151516 707.4747474747475,593.0505050505051 707.4747474747475,602.5858585858587 707.4747474747475,612.1212121212121 707.4747474747475,621.6565656565657 707.4747474747475,631.1919191919193" fill="none" stroke="rgba(255,0,0,0.75)" stroke-width="11.327999999999996"/></g><g><polyline data-points="2.070707070707072,-1.2626262626262625 2.070707070707072,-1.363636363636363 2.070707070707072,-1.4646464646464643 2.070707070707072,-1.5656565656565653 2.070707070707072,-1.6666666666666665 2.070707070707072,-1.7676767676767675 2.070707070707072,-1.8686868686868683 2.070707070707072,-1.9696969696969693 2.070707070707072,-2.07070707070707 2.070707070707072,-2.1717171717171713 2.070707070707072,-2.2727272727272725 2.070707070707072,-2.3737373737373733 2.070707070707072,-2.474747474747474 2.070707070707072,-2.5757575757575752 2.070707070707072,-2.6767676767676765 2.070707070707072,-2.7777777777777777 2.070707070707072,-2.8787878787878785 2.070707070707072,-2.9797979797979792 2.070707070707072,-3.0808080808080804 2.070707070707072,-3.1818181818181817 2.070707070707072,-3.2828282828282824 2.070707070707072,-3.383838383838383 2.070707070707072,-3.484848484848485 2.070707070707072,-3.5858585858585856 2.070707070707072,-3.6868686868686864 2.070707070707072,-3.7878787878787876 2.070707070707072,-3.8888888888888884 2.070707070707072,-3.98989898989899 2.070707070707072,-4.090909090909091 2.070707070707072,-4.191919191919193 2.070707070707072,-4.292929292929293 2.070707070707072,-4.393939393939394 2.070707070707072,-4.494949494949496 2.070707070707072,-4.595959595959596 2.070707070707072,-4.696969696969697 2.070707070707072,-4.7979797979797985 2.070707070707072,-4.898989898989899 2.070707070707072,-5.000000000000001" data-type="line" data-label="" points="707.4747474747475,631.1919191919193 707.4747474747475,640.7272727272727 707.4747474747475,650.2626262626263 707.4747474747475,659.7979797979798 707.4747474747475,669.3333333333334 707.4747474747475,678.8686868686868 707.4747474747475,688.4040404040404 707.4747474747475,697.939393939394 707.4747474747475,707.4747474747475 707.4747474747475,717.010101010101 707.4747474747475,726.5454545454545 707.4747474747475,736.0808080808081 707.4747474747475,745.6161616161615 707.4747474747475,755.1515151515151 707.4747474747475,764.6868686868687 707.4747474747475,774.2222222222222 707.4747474747475,783.7575757575758 707.4747474747475,793.2929292929292 707.4747474747475,802.8282828282828 707.4747474747475,812.3636363636363 707.4747474747475,821.8989898989898 707.4747474747475,831.4343434343434 707.4747474747475,840.969696969697 707.4747474747475,850.5050505050505 707.4747474747475,860.0404040404039 707.4747474747475,869.5757575757575 707.4747474747475,879.1111111111111 707.4747474747475,888.6464646464647 707.4747474747475,898.1818181818181 707.4747474747475,907.7171717171718 707.4747474747475,917.2525252525252 707.4747474747475,926.7878787878788 707.4747474747475,936.3232323232323 707.4747474747475,945.8585858585858 707.4747474747475,955.3939393939394 707.4747474747475,964.9292929292928 707.4747474747475,974.4646464646464 707.4747474747475,984" fill="none" stroke="rgba(0,0,255,0.75)" stroke-width="11.327999999999996"/></g><g><polyline data-points="5.000000000000002,-0.6565656565656557 4.898989898989901,-0.555555555555555 4.7979797979797985,-0.4545454545454544 4.696969696969697,-0.35353535353535287 4.595959595959597,-0.35353535353535287 4.494949494949497,-0.35353535353535287 4.393939393939394,-0.35353535353535287 4.292929292929293,-0.35353535353535287 4.191919191919193,-0.35353535353535287 4.090909090909092,-0.35353535353535287 3.989898989898992,-0.35353535353535287 3.8888888888888893,-0.35353535353535287 3.7878787878787885,-0.35353535353535287 3.6868686868686877,-0.35353535353535287 3.5858585858585874,-0.35353535353535287 3.4848484848484866,-0.35353535353535287 3.383838383838384,-0.35353535353535287 3.2828282828282833,-0.35353535353535287 3.181818181818183,-0.35353535353535287 3.080808080808082,-0.35353535353535287 2.9797979797979806,-0.35353535353535287 2.87878787878788,-0.35353535353535287 2.7777777777777786,-0.35353535353535287 2.676767676767678,-0.35353535353535287 2.575757575757577,-0.35353535353535287 2.4747474747474754,-0.35353535353535287" data-type="line" data-label="" points="984,573.979797979798 974.4646464646464,564.4444444444445 964.9292929292927,554.909090909091 955.3939393939393,545.3737373737374 945.8585858585857,545.3737373737374 936.3232323232323,545.3737373737374 926.7878787878785,545.3737373737374 917.2525252525251,545.3737373737374 907.7171717171716,545.3737373737374 898.181818181818,545.3737373737374 888.6464646464647,545.3737373737374 879.111111111111,545.3737373737374 869.5757575757575,545.3737373737374 860.0404040404039,545.3737373737374 850.5050505050505,545.3737373737374 840.969696969697,545.3737373737374 831.4343434343433,545.3737373737374 821.8989898989898,545.3737373737374 812.3636363636363,545.3737373737374 802.8282828282828,545.3737373737374 793.2929292929292,545.3737373737374 783.7575757575758,545.3737373737374 774.2222222222222,545.3737373737374 764.6868686868686,545.3737373737374 755.1515151515151,545.3737373737374 745.6161616161615,545.3737373737374" fill="none" stroke="rgba(255,0,0,0.75)" stroke-width="11.327999999999996"/></g><g><polyline data-points="2.4747474747474754,-0.35353535353535287 2.373737373737375,-0.35353535353535287 2.2727272727272734,-0.35353535353535287 2.1717171717171726,-0.35353535353535287 2.070707070707072,-0.35353535353535287 1.9696969696969702,-0.35353535353535287 1.8686868686868696,-0.35353535353535287 1.767676767676768,-0.35353535353535287 1.6666666666666674,-0.35353535353535287 1.5656565656565666,-0.35353535353535287 1.4646464646464652,-0.35353535353535287 1.3636363636363644,-0.35353535353535287 1.262626262626263,-0.35353535353535287 1.1616161616161622,-0.35353535353535287 1.0606060606060617,-0.35353535353535287 0.9595959595959602,-0.35353535353535287 0.8585858585858596,-0.35353535353535287 0.7575757575757579,-0.35353535353535287 0.6565656565656574,-0.35353535353535287 0.5555555555555567,-0.35353535353535287 0.4545454545454551,-0.35353535353535287 0.3535353535353544,-0.35353535353535287 0.2525252525252529,-0.35353535353535287 0.1515151515151522,-0.35353535353535287 0.050505050505051545,-0.35353535353535287 -0.05050505050505001,-0.35353535353535287 -0.15151515151515066,-0.35353535353535287 -0.2525252525252522,-0.35353535353535287 -0.35353535353535287,-0.35353535353535287 -0.4545454545454544,-0.35353535353535287 -0.555555555555555,-0.35353535353535287 -0.6565656565656557,-0.35353535353535287 -0.7575757575757572,-0.35353535353535287 -0.8585858585858579,-0.35353535353535287 -0.9595959595959596,-0.35353535353535287 -1.0606060606060603,-0.35353535353535287 -1.1616161616161613,-0.35353535353535287 -1.2626262626262625,-0.35353535353535287 -1.363636363636363,-0.35353535353535287 -1.4646464646464643,-0.35353535353535287 -1.5656565656565653,-0.35353535353535287 -1.6666666666666665,-0.35353535353535287 -1.7676767676767675,-0.35353535353535287 -1.8686868686868683,-0.35353535353535287 -1.9696969696969693,-0.35353535353535287" data-type="line" data-label="" points="745.6161616161615,545.3737373737374 736.0808080808081,545.3737373737374 726.5454545454545,545.3737373737374 717.0101010101009,545.3737373737374 707.4747474747475,545.3737373737374 697.9393939393939,545.3737373737374 688.4040404040404,545.3737373737374 678.8686868686868,545.3737373737374 669.3333333333333,545.3737373737374 659.7979797979798,545.3737373737374 650.2626262626262,545.3737373737374 640.7272727272727,545.3737373737374 631.1919191919192,545.3737373737374 621.6565656565656,545.3737373737374 612.1212121212121,545.3737373737374 602.5858585858585,545.3737373737374 593.0505050505051,545.3737373737374 583.5151515151515,545.3737373737374 573.9797979797979,545.3737373737374 564.4444444444445,545.3737373737374 554.9090909090909,545.3737373737374 545.3737373737374,545.3737373737374 535.8383838383838,545.3737373737374 526.3030303030303,545.3737373737374 516.7676767676768,545.3737373737374 507.2323232323232,545.3737373737374 497.69696969696975,545.3737373737374 488.16161616161617,545.3737373737374 478.62626262626264,545.3737373737374 469.09090909090907,545.3737373737374 459.55555555555554,545.3737373737374 450.0202020202021,545.3737373737374 440.4848484848485,545.3737373737374 430.949494949495,545.3737373737374 421.4141414141414,545.3737373737374 411.8787878787879,545.3737373737374 402.34343434343435,545.3737373737374 392.80808080808083,545.3737373737374 383.2727272727273,545.3737373737374 373.7373737373738,545.3737373737374 364.2020202020202,545.3737373737374 354.6666666666667,545.3737373737374 345.13131313131316,545.3737373737374 335.59595959595964,545.3737373737374 326.0606060606061,545.3737373737374" fill="none" stroke="rgba(0,0,255,0.75)" stroke-width="11.327999999999996"/></g><g><polyline data-points="-1.9696969696969693,-0.35353535353535287 -2.07070707070707,-0.35353535353535287 -2.1717171717171713,-0.35353535353535287 -2.2727272727272725,-0.35353535353535287 -2.3737373737373733,-0.35353535353535287 -2.474747474747474,-0.35353535353535287 -2.5757575757575752,-0.35353535353535287 -2.6767676767676765,-0.35353535353535287 -2.7777777777777777,-0.35353535353535287 -2.8787878787878785,-0.35353535353535287 -2.9797979797979792,-0.35353535353535287" data-type="line" data-label="" points="326.0606060606061,545.3737373737374 316.5252525252526,545.3737373737374 306.9898989898991,545.3737373737374 297.4545454545455,545.3737373737374 287.91919191919203,545.3737373737374 278.38383838383845,545.3737373737374 268.84848484848493,545.3737373737374 259.3131313131314,545.3737373737374 249.77777777777783,545.3737373737374 240.2424242424243,545.3737373737374 230.70707070707084,545.3737373737374" fill="none" stroke="rgba(255,0,0,0.75)" stroke-width="11.327999999999996"/></g><g><polyline data-points="-2.9797979797979792,-0.35353535353535287 -3.0808080808080804,-0.35353535353535287 -3.1818181818181817,-0.35353535353535287 -3.2828282828282824,-0.35353535353535287 -3.383838383838383,-0.35353535353535287 -3.484848484848485,-0.35353535353535287 -3.5858585858585856,-0.35353535353535287 -3.6868686868686864,-0.35353535353535287 -3.7878787878787876,-0.35353535353535287 -3.8888888888888884,-0.35353535353535287 -3.98989898989899,-0.35353535353535287" data-type="line" data-label="" points="230.70707070707084,545.3737373737374 221.17171717171726,545.3737373737374 211.63636363636374,545.3737373737374 202.10101010101022,545.3737373737374 192.5656565656567,545.3737373737374 183.03030303030312,545.3737373737374 173.4949494949496,545.3737373737374 163.95959595959607,545.3737373737374 154.42424242424255,545.3737373737374 144.88888888888903,545.3737373737374 135.35353535353545,545.3737373737374" fill="none" stroke="rgba(0,0,255,0.75)" stroke-width="11.327999999999996"/></g><g><polyline data-points="-3.98989898989899,-0.35353535353535287 -4.090909090909091,-0.2525252525252522 -4.191919191919193,-0.15151515151515066 -4.292929292929293,-0.05050505050505001 -4.393939393939394,0.050505050505051545 -4.494949494949496,0.1515151515151522 -4.595959595959596,0.2525252525252529 -4.696969696969697,0.3535353535353544 -4.7979797979797985,0.4545454545454551 -4.898989898989899,0.5555555555555567 -5.000000000000001,0.5555555555555567" data-type="line" data-label="" points="135.35353535353545,545.3737373737374 125.81818181818193,535.838383838384 116.28282828282829,526.3030303030304 106.74747474747483,516.7676767676768 97.21212121212136,507.23232323232327 87.67676767676772,497.69696969696975 78.14141414141426,488.1616161616163 68.60606060606068,478.6262626262627 59.07070707070716,469.0909090909092 49.53535353535369,459.5555555555556 40.00000000000006,459.5555555555556" fill="none" stroke="rgba(255,0,0,0.75)" stroke-width="11.327999999999996"/></g><g><polyline data-points="-3.1818181818181817,5.000000000000002 -3.0808080808080804,4.898989898989901 -2.9797979797979792,4.7979797979797985 -2.8787878787878785,4.696969696969697 -2.7777777777777777,4.595959595959597 -2.6767676767676765,4.494949494949497 -2.5757575757575752,4.393939393939394 -2.474747474747474,4.292929292929293 -2.3737373737373733,4.292929292929293 -2.2727272727272725,4.292929292929293 -2.1717171717171713,4.292929292929293 -2.07070707070707,4.292929292929293 -1.9696969696969693,4.292929292929293 -1.8686868686868683,4.292929292929293 -1.7676767676767675,4.292929292929293 -1.6666666666666665,4.292929292929293 -1.5656565656565653,4.292929292929293 -1.4646464646464643,4.292929292929293 -1.363636363636363,4.292929292929293 -1.2626262626262625,4.292929292929293 -1.1616161616161613,4.292929292929293 -1.0606060606060603,4.292929292929293 -0.9595959595959596,4.292929292929293 -0.8585858585858579,4.292929292929293 -0.7575757575757572,4.292929292929293 -0.6565656565656557,4.292929292929293 -0.555555555555555,4.393939393939394 -0.4545454545454544,4.494949494949497 -0.35353535353535287,4.595959595959597 -0.2525252525252522,4.494949494949497 -0.15151515151515066,4.393939393939394 -0.05050505050505001,4.292929292929293 0.050505050505051545,4.191919191919193 0.1515151515151522,4.090909090909092 0.2525252525252529,3.989898989898992 0.2525252525252529,3.8888888888888893 0.2525252525252529,3.7878787878787885" data-type="line" data-label="" points="211.63636363636374,40.000000000000114 221.17171717171726,49.53535353535369 230.70707070707084,59.07070707070733 240.2424242424243,68.60606060606085 249.77777777777783,78.14141414141432 259.3131313131314,87.67676767676778 268.84848484848493,97.21212121212153 278.38383838383845,106.747474747475 287.91919191919203,106.747474747475 297.4545454545455,106.747474747475 306.9898989898991,106.747474747475 316.5252525252526,106.747474747475 326.0606060606061,106.747474747475 335.59595959595964,106.747474747475 345.13131313131316,106.747474747475 354.6666666666667,106.747474747475 364.2020202020202,106.747474747475 373.7373737373738,106.747474747475 383.2727272727273,106.747474747475 392.80808080808083,106.747474747475 402.34343434343435,106.747474747475 411.8787878787879,106.747474747475 421.4141414141414,106.747474747475 430.949494949495,106.747474747475 440.4848484848485,106.747474747475 450.0202020202021,106.747474747475 459.55555555555554,97.21212121212153 469.09090909090907,87.67676767676778 478.62626262626264,78.14141414141432 488.16161616161617,87.67676767676778 497.69696969696975,97.21212121212153 507.2323232323232,106.747474747475 516.7676767676768,116.28282828282846 526.3030303030303,125.81818181818198 535.8383838383838,135.35353535353545 535.8383838383838,144.88888888888908 535.8383838383838,154.4242424242426" fill="none" stroke="rgba(0,0,255,0.75)" stroke-width="11.327999999999996"/></g><g><polyline data-points="0.2525252525252529,3.7878787878787885 0.1515151515151522,3.6868686868686877 0.050505050505051545,3.5858585858585874 -0.05050505050505001,3.4848484848484866 -0.15151515151515066,3.383838383838384 -0.2525252525252522,3.2828282828282833 -0.35353535353535287,3.181818181818183 -0.4545454545454544,3.080808080808082 -0.555555555555555,2.9797979797979806 -0.6565656565656557,2.87878787878788 -0.7575757575757572,2.7777777777777786 -0.8585858585858579,2.676767676767678 -0.9595959595959596,2.575757575757577 -1.0606060606060603,2.4747474747474754 -1.1616161616161613,2.373737373737375 -1.2626262626262625,2.2727272727272734 -1.363636363636363,2.1717171717171726 -1.4646464646464643,2.070707070707072 -1.5656565656565653,1.9696969696969702 -1.6666666666666665,1.8686868686868696 -1.7676767676767675,1.767676767676768 -1.8686868686868683,1.6666666666666674 -1.9696969696969693,1.5656565656565666 -2.07070707070707,1.4646464646464652 -2.1717171717171713,1.3636363636363644 -2.2727272727272725,1.262626262626263 -2.3737373737373733,1.1616161616161622 -2.474747474747474,1.0606060606060617 -2.5757575757575752,0.9595959595959602 -2.6767676767676765,0.8585858585858596 -2.7777777777777777,0.7575757575757579 -2.8787878787878785,0.6565656565656574 -2.9797979797979792,0.5555555555555567 -3.0808080808080804,0.4545454545454551 -3.1818181818181817,0.3535353535353544 -3.2828282828282824,0.2525252525252529 -3.383838383838383,0.1515151515151522" data-type="line" data-label="" points="535.8383838383838,154.4242424242426 526.3030303030303,163.95959595959613 516.7676767676768,173.4949494949496 507.2323232323232,183.03030303030312 497.69696969696975,192.56565656565675 488.16161616161617,202.10101010101027 478.62626262626264,211.63636363636374 469.09090909090907,221.17171717171726 459.55555555555554,230.70707070707084 450.0202020202021,240.24242424242436 440.4848484848485,249.77777777777794 430.949494949495,259.3131313131314 421.4141414141414,268.84848484848493 411.8787878787879,278.38383838383857 402.34343434343435,287.91919191919203 392.80808080808083,297.4545454545456 383.2727272727273,306.9898989898991 373.7373737373738,316.5252525252526 364.2020202020202,326.06060606060623 354.6666666666667,335.5959595959597 345.13131313131316,345.1313131313133 335.59595959595964,354.66666666666674 326.0606060606061,364.2020202020203 316.5252525252526,373.73737373737384 306.9898989898991,383.27272727272737 297.4545454545455,392.80808080808094 287.91919191919203,402.3434343434344 278.38383838383845,411.87878787878793 268.84848484848493,421.4141414141415 259.3131313131314,430.94949494949503 249.77777777777783,440.4848484848486 240.2424242424243,450.0202020202021 230.70707070707084,459.5555555555556 221.17171717171726,469.0909090909092 211.63636363636374,478.6262626262627 202.10101010101022,488.1616161616163 192.5656565656567,497.69696969696975" fill="none" stroke="rgba(255,0,0,0.75)" stroke-width="11.327999999999996"/></g><g><polyline data-points="-3.383838383838383,0.1515151515151522 -3.484848484848485,0.050505050505051545 -3.5858585858585856,-0.05050505050505001 -3.6868686868686864,-0.05050505050505001 -3.7878787878787876,-0.05050505050505001 -3.8888888888888884,-0.05050505050505001 -3.98989898989899,-0.05050505050505001 -4.090909090909091,-0.15151515151515066 -4.191919191919193,-0.2525252525252522 -4.292929292929293,-0.35353535353535287 -4.393939393939394,-0.4545454545454544 -4.494949494949496,-0.555555555555555 -4.595959595959596,-0.6565656565656557 -4.595959595959596,-0.7575757575757572 -4.595959595959596,-0.8585858585858579 -4.595959595959596,-0.9595959595959596 -4.595959595959596,-1.0606060606060603 -4.595959595959596,-1.1616161616161613 -4.595959595959596,-1.2626262626262625 -4.595959595959596,-1.363636363636363 -4.595959595959596,-1.4646464646464643 -4.595959595959596,-1.5656565656565653 -4.595959595959596,-1.6666666666666665 -4.595959595959596,-1.7676767676767675 -4.595959595959596,-1.8686868686868683 -4.595959595959596,-1.9696969696969693 -4.595959595959596,-2.07070707070707 -4.595959595959596,-2.1717171717171713 -4.595959595959596,-2.2727272727272725 -4.595959595959596,-2.3737373737373733 -4.595959595959596,-2.474747474747474 -4.595959595959596,-2.5757575757575752 -4.595959595959596,-2.6767676767676765 -4.595959595959596,-2.7777777777777777 -4.595959595959596,-2.8787878787878785 -4.595959595959596,-2.9797979797979792 -4.595959595959596,-3.0808080808080804 -4.595959595959596,-3.1818181818181817 -4.595959595959596,-3.2828282828282824 -4.595959595959596,-3.383838383838383 -4.595959595959596,-3.484848484848485 -4.595959595959596,-3.5858585858585856 -4.595959595959596,-3.6868686868686864 -4.595959595959596,-3.7878787878787876 -4.595959595959596,-3.8888888888888884 -4.595959595959596,-3.98989898989899 -4.595959595959596,-4.090909090909091 -4.595959595959596,-4.191919191919193 -4.595959595959596,-4.292929292929293 -4.595959595959596,-4.393939393939394 -4.595959595959596,-4.494949494949496 -4.595959595959596,-4.595959595959596 -4.595959595959596,-4.696969696969697 -4.595959595959596,-4.7979797979797985 -4.595959595959596,-4.898989898989899 -4.595959595959596,-5.000000000000001" data-type="line" data-label="" points="192.5656565656567,497.69696969696975 183.03030303030312,507.23232323232327 173.4949494949496,516.7676767676768 163.95959595959607,516.7676767676768 154.42424242424255,516.7676767676768 144.88888888888903,516.7676767676768 135.35353535353545,516.7676767676768 125.81818181818193,526.3030303030304 116.28282828282829,535.838383838384 106.74747474747483,545.3737373737374 97.21212121212136,554.909090909091 87.67676767676772,564.4444444444445 78.14141414141426,573.979797979798 78.14141414141426,583.5151515151516 78.14141414141426,593.0505050505051 78.14141414141426,602.5858585858587 78.14141414141426,612.1212121212121 78.14141414141426,621.6565656565657 78.14141414141426,631.1919191919193 78.14141414141426,640.7272727272727 78.14141414141426,650.2626262626263 78.14141414141426,659.7979797979798 78.14141414141426,669.3333333333334 78.14141414141426,678.8686868686868 78.14141414141426,688.4040404040404 78.14141414141426,697.939393939394 78.14141414141426,707.4747474747475 78.14141414141426,717.010101010101 78.14141414141426,726.5454545454545 78.14141414141426,736.0808080808081 78.14141414141426,745.6161616161615 78.14141414141426,755.1515151515151 78.14141414141426,764.6868686868687 78.14141414141426,774.2222222222222 78.14141414141426,783.7575757575758 78.14141414141426,793.2929292929292 78.14141414141426,802.8282828282828 78.14141414141426,812.3636363636363 78.14141414141426,821.8989898989898 78.14141414141426,831.4343434343434 78.14141414141426,840.969696969697 78.14141414141426,850.5050505050505 78.14141414141426,860.0404040404039 78.14141414141426,869.5757575757575 78.14141414141426,879.1111111111111 78.14141414141426,888.6464646464647 78.14141414141426,898.1818181818181 78.14141414141426,907.7171717171718 78.14141414141426,917.2525252525252 78.14141414141426,926.7878787878788 78.14141414141426,936.3232323232323 78.14141414141426,945.8585858585858 78.14141414141426,955.3939393939394 78.14141414141426,964.9292929292928 78.14141414141426,974.4646464646464 78.14141414141426,984" fill="none" stroke="rgba(0,0,255,0.75)" stroke-width="11.327999999999996"/></g><g><polyline data-points="-3.8888888888888884,5.000000000000002 -3.98989898989899,4.898989898989901 -3.98989898989899,4.7979797979797985 -3.98989898989899,4.696969696969697 -3.98989898989899,4.595959595959597 -3.98989898989899,4.494949494949497 -3.98989898989899,4.393939393939394 -3.98989898989899,4.292929292929293 -3.98989898989899,4.191919191919193 -3.98989898989899,4.090909090909092 -3.98989898989899,3.989898989898992" data-type="line" data-label="" points="144.88888888888903,40.000000000000114 135.35353535353545,49.53535353535369 135.35353535353545,59.07070707070733 135.35353535353545,68.60606060606085 135.35353535353545,78.14141414141432 135.35353535353545,87.67676767676778 135.35353535353545,97.21212121212153 135.35353535353545,106.747474747475 135.35353535353545,116.28282828282846 135.35353535353545,125.81818181818198 135.35353535353545,135.35353535353545" fill="none" stroke="rgba(255,0,0,0.75)" stroke-width="11.327999999999996"/></g><g><polyline data-points="-3.98989898989899,3.989898989898992 -4.090909090909091,4.090909090909092 -4.191919191919193,4.191919191919193 -4.292929292929293,4.292929292929293 -4.393939393939394,4.393939393939394 -4.494949494949496,4.494949494949497 -4.595959595959596,4.595959595959597 -4.696969696969697,4.696969696969697 -4.7979797979797985,4.7979797979797985 -4.898989898989899,4.898989898989901 -5.000000000000001,5.000000000000002" data-type="line" data-label="" points="135.35353535353545,135.35353535353545 125.81818181818193,125.81818181818198 116.28282828282829,116.28282828282846 106.74747474747483,106.747474747475 97.21212121212136,97.21212121212153 87.67676767676772,87.67676767676778 78.14141414141426,78.14141414141432 68.60606060606068,68.60606060606085 59.07070707070716,59.07070707070733 49.53535353535369,49.53535353535369 40.00000000000006,40.000000000000114" fill="none" stroke="rgba(0,0,255,0.75)" stroke-width="11.327999999999996"/></g><g><polyline data-points="5.000000000000002,-1.5656565656565653 5.000000000000002,-1.4646464646464643 4.898989898989901,-1.363636363636363 4.7979797979797985,-1.2626262626262625 4.696969696969697,-1.1616161616161613 4.595959595959597,-1.0606060606060603 4.494949494949497,-0.9595959595959596 4.393939393939394,-0.8585858585858579 4.292929292929293,-0.7575757575757572 4.191919191919193,-0.6565656565656557 4.090909090909092,-0.555555555555555 3.989898989898992,-0.4545454545454544 3.8888888888888893,-0.35353535353535287 3.7878787878787885,-0.2525252525252522 3.6868686868686877,-0.15151515151515066 3.5858585858585874,-0.05050505050505001 3.4848484848484866,0.050505050505051545 3.383838383838384,0.1515151515151522 3.2828282828282833,0.2525252525252529 3.181818181818183,0.3535353535353544 3.080808080808082,0.4545454545454551 2.9797979797979806,0.5555555555555567 2.87878787878788,0.6565656565656574 2.7777777777777786,0.7575757575757579 2.676767676767678,0.8585858585858596 2.575757575757577,0.9595959595959602 2.4747474747474754,1.0606060606060617 2.373737373737375,1.1616161616161622 2.2727272727272734,1.262626262626263 2.1717171717171726,1.3636363636363644 2.070707070707072,1.4646464646464652 1.9696969696969702,1.5656565656565666 1.8686868686868696,1.6666666666666674 1.767676767676768,1.767676767676768 1.6666666666666674,1.8686868686868696 1.5656565656565666,1.9696969696969702 1.4646464646464652,2.070707070707072 1.3636363636363644,2.1717171717171726 1.262626262626263,2.2727272727272734 1.1616161616161622,2.373737373737375 1.0606060606060617,2.4747474747474754 0.9595959595959602,2.575757575757577 0.8585858585858596,2.676767676767678 0.7575757575757579,2.7777777777777786 0.6565656565656574,2.87878787878788 0.5555555555555567,2.9797979797979806 0.4545454545454551,3.080808080808082 0.3535353535353544,3.181818181818183 0.2525252525252529,3.2828282828282833 0.1515151515151522,3.383838383838384 0.050505050505051545,3.4848484848484866 -0.05050505050505001,3.5858585858585874 -0.15151515151515066,3.6868686868686877 -0.2525252525252522,3.7878787878787885 -0.35353535353535287,3.6868686868686877 -0.4545454545454544,3.6868686868686877 -0.555555555555555,3.6868686868686877 -0.6565656565656557,3.6868686868686877 -0.7575757575757572,3.6868686868686877 -0.8585858585858579,3.6868686868686877 -0.9595959595959596,3.6868686868686877 -1.0606060606060603,3.6868686868686877 -1.1616161616161613,3.6868686868686877 -1.2626262626262625,3.6868686868686877 -1.363636363636363,3.6868686868686877 -1.4646464646464643,3.6868686868686877 -1.5656565656565653,3.6868686868686877 -1.6666666666666665,3.6868686868686877 -1.7676767676767675,3.6868686868686877 -1.8686868686868683,3.6868686868686877 -1.9696969696969693,3.6868686868686877 -2.07070707070707,3.6868686868686877 -2.1717171717171713,3.6868686868686877 -2.2727272727272725,3.6868686868686877 -2.3737373737373733,3.6868686868686877 -2.474747474747474,3.6868686868686877 -2.5757575757575752,3.6868686868686877 -2.6767676767676765,3.6868686868686877 -2.7777777777777777,3.6868686868686877 -2.8787878787878785,3.6868686868686877 -2.9797979797979792,3.6868686868686877 -3.0808080808080804,3.6868686868686877 -3.1818181818181817,3.6868686868686877 -3.2828282828282824,3.6868686868686877 -3.383838383838383,3.6868686868686877 -3.484848484848485,3.6868686868686877 -3.5858585858585856,3.6868686868686877 -3.6868686868686864,3.6868686868686877 -3.7878787878787876,3.6868686868686877 -3.8888888888888884,3.6868686868686877 -3.98989898989899,3.6868686868686877 -4.090909090909091,3.7878787878787885 -4.191919191919193,3.8888888888888893 -4.292929292929293,3.989898989898992 -4.393939393939394,3.989898989898992 -4.494949494949496,3.989898989898992 -4.595959595959596,3.989898989898992 -4.696969696969697,3.989898989898992 -4.7979797979797985,3.989898989898992 -4.898989898989899,3.989898989898992 -5.000000000000001,4.090909090909092" data-type="line" data-label="" points="984,659.7979797979798 984,650.2626262626263 974.4646464646464,640.7272727272727 964.9292929292927,631.1919191919193 955.3939393939393,621.6565656565657 945.8585858585857,612.1212121212121 936.3232323232323,602.5858585858587 926.7878787878785,593.0505050505051 917.2525252525251,583.5151515151516 907.7171717171716,573.979797979798 898.181818181818,564.4444444444445 888.6464646464647,554.909090909091 879.111111111111,545.3737373737374 869.5757575757575,535.838383838384 860.0404040404039,526.3030303030304 850.5050505050505,516.7676767676768 840.969696969697,507.23232323232327 831.4343434343433,497.69696969696975 821.8989898989898,488.1616161616163 812.3636363636363,478.6262626262627 802.8282828282828,469.0909090909092 793.2929292929292,459.5555555555556 783.7575757575758,450.0202020202021 774.2222222222222,440.4848484848486 764.6868686868686,430.94949494949503 755.1515151515151,421.4141414141415 745.6161616161615,411.87878787878793 736.0808080808081,402.3434343434344 726.5454545454545,392.80808080808094 717.0101010101009,383.27272727272737 707.4747474747475,373.73737373737384 697.9393939393939,364.2020202020203 688.4040404040404,354.66666666666674 678.8686868686868,345.1313131313133 669.3333333333333,335.5959595959597 659.7979797979798,326.06060606060623 650.2626262626262,316.5252525252526 640.7272727272727,306.9898989898991 631.1919191919192,297.4545454545456 621.6565656565656,287.91919191919203 612.1212121212121,278.38383838383857 602.5858585858585,268.84848484848493 593.0505050505051,259.3131313131314 583.5151515151515,249.77777777777794 573.9797979797979,240.24242424242436 564.4444444444445,230.70707070707084 554.9090909090909,221.17171717171726 545.3737373737374,211.63636363636374 535.8383838383838,202.10101010101027 526.3030303030303,192.56565656565675 516.7676767676768,183.03030303030312 507.2323232323232,173.4949494949496 497.69696969696975,163.95959595959613 488.16161616161617,154.4242424242426 478.62626262626264,163.95959595959613 469.09090909090907,163.95959595959613 459.55555555555554,163.95959595959613 450.0202020202021,163.95959595959613 440.4848484848485,163.95959595959613 430.949494949495,163.95959595959613 421.4141414141414,163.95959595959613 411.8787878787879,163.95959595959613 402.34343434343435,163.95959595959613 392.80808080808083,163.95959595959613 383.2727272727273,163.95959595959613 373.7373737373738,163.95959595959613 364.2020202020202,163.95959595959613 354.6666666666667,163.95959595959613 345.13131313131316,163.95959595959613 335.59595959595964,163.95959595959613 326.0606060606061,163.95959595959613 316.5252525252526,163.95959595959613 306.9898989898991,163.95959595959613 297.4545454545455,163.95959595959613 287.91919191919203,163.95959595959613 278.38383838383845,163.95959595959613 268.84848484848493,163.95959595959613 259.3131313131314,163.95959595959613 249.77777777777783,163.95959595959613 240.2424242424243,163.95959595959613 230.70707070707084,163.95959595959613 221.17171717171726,163.95959595959613 211.63636363636374,163.95959595959613 202.10101010101022,163.95959595959613 192.5656565656567,163.95959595959613 183.03030303030312,163.95959595959613 173.4949494949496,163.95959595959613 163.95959595959607,163.95959595959613 154.42424242424255,163.95959595959613 144.88888888888903,163.95959595959613 135.35353535353545,163.95959595959613 125.81818181818193,154.4242424242426 116.28282828282829,144.88888888888908 106.74747474747483,135.35353535353545 97.21212121212136,135.35353535353545 87.67676767676772,135.35353535353545 78.14141414141426,135.35353535353545 68.60606060606068,135.35353535353545 59.07070707070716,135.35353535353545 49.53535353535369,135.35353535353545 40.00000000000006,125.81818181818198" fill="none" stroke="rgba(0,0,255,0.75)" stroke-width="11.327999999999996"/></g><g><rect data-type="rect" data-label="" data-x="0" data-y="0" x="40.000000000000114" y="40.000000000000284" width="943.9999999999997" height="943.9999999999998" fill="none" stroke="gray" stroke-width="0.010593220338983056"/></g><g><rect data-type="rect" data-label="" data-x="0" data-y="0" x="40.000000000000114" y="40.000000000000284" width="943.9999999999997" height="943.9999999999998" fill="none" stroke="rgba(15, 23, 42, 0.8)" stroke-width="0.010593220338983056"/></g><circle data-type="circle" data-label="" data-x="3.7878787878787885" data-y="-3.98989898989899" cx="869.5757575757575" cy="888.6464646464647" r="14.159999999999995" fill="rgba(0,0,0,0.3)" stroke="black" stroke-width="0.010593220338983056"/><circle data-type="circle" data-label="" data-x="3.989898989898992" data-y="-1.6666666666666665" cx="888.6464646464647" cy="669.3333333333334" r="14.159999999999995" fill="rgba(0,0,0,0.3)" stroke="black" stroke-width="0.010593220338983056"/><circle data-type="circle" data-label="" data-x="-3.2828282828282824" data-y="-1.1616161616161613" cx="202.10101010101022" cy="621.6565656565657" r="14.159999999999995" fill="rgba(0,0,0,0.3)" stroke="black" stroke-width="0.010593220338983056"/><circle data-type="circle" data-label="" data-x="0.7575757575757579" data-y="2.1717171717171726" cx="583.5151515151515" cy="306.9898989898991" r="14.159999999999995" fill="rgba(0,0,0,0.3)" stroke="black" stroke-width="0.010593220338983056"/><circle data-type="circle" data-label="" data-x="0.7575757575757579" data-y="3.989898989898992" cx="583.5151515151515" cy="135.35353535353545" r="14.159999999999995" fill="rgba(0,0,0,0.3)" stroke="black" stroke-width="0.010593220338983056"/><circle data-type="circle" data-label="" data-x="2.1717171717171726" data-y="1.767676767676768" cx="717.0101010101009" cy="345.1313131313133" r="14.159999999999995" fill="rgba(0,0,0,0.3)" stroke="black" stroke-width="0.010593220338983056"/><circle data-type="circle" data-label="" data-x="2.070707070707072" data-y="-1.2626262626262625" cx="707.4747474747475" cy="631.1919191919193" r="14.159999999999995" fill="rgba(0,0,0,0.3)" stroke="black" stroke-width="0.010593220338983056"/><circle data-type="circle" data-label="" data-x="2.4747474747474754" data-y="-0.35353535353535287" cx="745.6161616161615" cy="545.3737373737374" r="14.159999999999995" fill="rgba(0,0,0,0.3)" stroke="black" stroke-width="0.010593220338983056"/><circle data-type="circle" data-label="" data-x="-1.9696969696969693" data-y="-0.35353535353535287" cx="326.0606060606061" cy="545.3737373737374" r="14.159999999999995" fill="rgba(0,0,0,0.3)" stroke="black" stroke-width="0.010593220338983056"/><circle data-type="circle" data-label="" data-x="-2.9797979797979792" data-y="-0.35353535353535287" cx="230.70707070707084" cy="545.3737373737374" r="14.159999999999995" fill="rgba(0,0,0,0.3)" stroke="black" stroke-width="0.010593220338983056"/><circle data-type="circle" data-label="" data-x="-3.98989898989899" data-y="-0.35353535353535287" cx="135.35353535353545" cy="545.3737373737374" r="14.159999999999995" fill="rgba(0,0,0,0.3)" stroke="black" stroke-width="0.010593220338983056"/><circle data-type="circle" data-label="" data-x="0.2525252525252529" data-y="3.7878787878787885" cx="535.8383838383838" cy="154.4242424242426" r="14.159999999999995" fill="rgba(0,0,0,0.3)" stroke="black" stroke-width="0.010593220338983056"/><circle data-type="circle" data-label="" data-x="-3.383838383838383" data-y="0.1515151515151522" cx="192.5656565656567" cy="497.69696969696975" r="14.159999999999995" fill="rgba(0,0,0,0.3)" stroke="black" stroke-width="0.010593220338983056"/><circle data-type="circle" data-label="" data-x="-3.98989898989899" data-y="3.989898989898992" cx="135.35353535353545" cy="135.35353535353545" r="14.159999999999995" fill="rgba(0,0,0,0.3)" stroke="black" stroke-width="0.010593220338983056"/><g id="crosshair" style="display: none"><line id="crosshair-h" y1="0" y2="1024" stroke="#666" stroke-width="0.5"/><line id="crosshair-v" x1="0" x2="1024" stroke="#666" stroke-width="0.5"/><text id="coordinates" font-family="monospace" font-size="12" fill="#666"></text></g><script><![CDATA[
              document.currentScript.parentElement.addEventListener('mousemove', (e) => {
                const svg = e.currentTarget;
                const rect = svg.getBoundingClientRect();
                const x = e.clientX - rect.left;
                const y = e.clientY - rect.top;
                const crosshair = svg.getElementById('crosshair');
                const h = svg.getElementById('crosshair-h');
                const v = svg.getElementById('crosshair-v');
                const coords = svg.getElementById('coordinates');
                
                crosshair.style.display = 'block';
                h.setAttribute('x1', '0');
                h.setAttribute('x2', '1024');
                h.setAttribute('y1', y);
                h.setAttribute('y2', y);
                v.setAttribute('x1', x);
                v.setAttribute('x2', x);
                v.setAttribute('y1', '0');
                v.setAttribute('y2', '1024');

                // Calculate real coordinates using inverse transformation
                const matrix = {"a":94.39999999999996,"c":0,"e":511.99999999999994,"b":0,"d":-94.39999999999996,"f":512.0000000000001};
                // Manually invert and apply the affine transform
                // Since we only use translate and scale, we can directly compute:
                // x' = (x - tx) / sx
                // y' = (y - ty) / sy
                const sx = matrix.a;
                const sy = matrix.d;
                const tx = matrix.e; 
                const ty = matrix.f;
                const realPoint = {
                  x: (x - tx) / sx,
                  y: (y - ty) / sy // Flip y back since we used negative scale
                }
                
                coords.textContent = `(${realPoint.x.toFixed(2)}, ${realPoint.y.toFixed(2)})`;
                coords.setAttribute('x', (x + 5).toString());
                coords.setAttribute('y', (y - 5).toString());
              });
              document.currentScript.parentElement.addEventListener('mouseleave', () => {
                document.currentScript.parentElement.getElementById('crosshair').style.display = 'none';
              });
            ]]></script></svg>