<svg width="1024" height="1024" viewBox="0 0 1024 1024" xmlns="http://www.w3.org/2000/svg"><rect width="100%" height="100%" fill="white"/><g><circle data-type="point" data-label="conn_000" data-x="-0.74" data-y="-5" cx="442.144" cy="984" r="14.16" fill="red"/></g><g><circle data-type="point" data-label="conn_000" data-x="-5" data-y="4.94" cx="40.000000000000114" cy="45.66400000000027" r="14.16" fill="blue"/></g><g><circle data-type="point" data-label="conn_001" data-x="-5" data-y="3.2800000000000002" cx="40.000000000000114" cy="202.36800000000022" r="14.16" fill="red"/></g><g><circle data-type="point" data-label="conn_001" data-x="5" data-y="2.94" cx="983.9999999999998" cy="234.46400000000023" r="14.16" fill="red"/></g><g><circle data-type="point" data-label="conn_002" data-x="4.58" data-y="5" cx="944.3519999999999" cy="40.000000000000284" r="14.16" fill="red"/></g><g><circle data-type="point" data-label="conn_002" data-x="2.32" data-y="-5" cx="731.0079999999998" cy="984" r="14.16" fill="blue"/></g><g><circle data-type="point" data-label="conn_003" data-x="-5" data-y="-0.08" cx="40.000000000000114" cy="519.5520000000001" r="14.16" fill="red"/></g><g><circle data-type="point" data-label="conn_003" data-x="5" data-y="3.4" cx="983.9999999999998" cy="191.04000000000025" r="14.16" fill="blue"/></g><g><circle data-type="point" data-label="conn_004" data-x="4.2" data-y="5" cx="908.4799999999998" cy="40.000000000000284" r="14.16" fill="red"/></g><g><circle data-type="point" data-label="conn_004" data-x="5" data-y="-3.66" cx="983.9999999999998" cy="857.504" r="14.16" fill="red"/></g><g><circle data-type="point" data-label="conn_005" data-x="-5" data-y="1.26" cx="40.000000000000114" cy="393.05600000000015" r="14.16" fill="red"/></g><g><circle data-type="point" data-label="conn_005" data-x="5" data-y="-4.14" cx="983.9999999999998" cy="902.8159999999999" r="14.16" fill="blue"/></g><g><polyline data-points="-5.000000000000001,3.2828282828282833 -4.898989898989899,3.181818181818183 -4.7979797979797985,3.080808080808082 -4.696969696969697,2.9797979797979806 -4.595959595959596,2.9797979797979806 -4.494949494949496,2.9797979797979806 -4.393939393939394,2.9797979797979806 -4.292929292929293,2.9797979797979806 -4.191919191919193,2.9797979797979806 -4.090909090909091,2.9797979797979806 -3.98989898989899,2.9797979797979806 -3.8888888888888884,2.9797979797979806 -3.7878787878787876,2.9797979797979806 -3.6868686868686864,2.9797979797979806 -3.5858585858585856,2.9797979797979806 -3.484848484848485,2.9797979797979806 -3.383838383838383,2.9797979797979806 -3.2828282828282824,2.9797979797979806 -3.1818181818181817,2.9797979797979806 -3.0808080808080804,2.9797979797979806 -2.9797979797979792,2.9797979797979806 -2.8787878787878785,2.9797979797979806 -2.7777777777777777,2.9797979797979806 -2.6767676767676765,2.9797979797979806 -2.5757575757575752,2.9797979797979806 -2.474747474747474,2.9797979797979806 -2.3737373737373733,2.9797979797979806 -2.2727272727272725,2.9797979797979806 -2.1717171717171713,2.9797979797979806 -2.07070707070707,2.9797979797979806 -1.9696969696969693,2.9797979797979806 -1.8686868686868683,2.9797979797979806 -1.7676767676767675,2.9797979797979806 -1.6666666666666665,2.9797979797979806 -1.5656565656565653,2.9797979797979806 -1.4646464646464643,2.9797979797979806 -1.363636363636363,2.9797979797979806 -1.2626262626262625,2.9797979797979806 -1.1616161616161613,2.9797979797979806 -1.0606060606060603,2.9797979797979806 -0.9595959595959596,2.9797979797979806 -0.8585858585858579,2.9797979797979806 -0.7575757575757572,2.9797979797979806 -0.6565656565656557,2.9797979797979806 -0.555555555555555,2.9797979797979806 -0.4545454545454544,2.9797979797979806 -0.35353535353535287,2.9797979797979806 -0.2525252525252522,2.9797979797979806 -0.15151515151515066,2.9797979797979806 -0.05050505050505001,2.9797979797979806 0.050505050505051545,2.9797979797979806 0.1515151515151522,2.9797979797979806 0.2525252525252529,2.9797979797979806 0.3535353535353544,2.9797979797979806 0.4545454545454551,2.9797979797979806 0.5555555555555567,2.9797979797979806 0.6565656565656574,2.9797979797979806 0.7575757575757579,2.9797979797979806 0.8585858585858596,2.9797979797979806 0.9595959595959602,2.9797979797979806 1.0606060606060617,2.9797979797979806 1.1616161616161622,2.9797979797979806 1.262626262626263,2.9797979797979806 1.3636363636363644,2.9797979797979806 1.4646464646464652,2.9797979797979806 1.5656565656565666,2.9797979797979806 1.6666666666666674,2.9797979797979806 1.767676767676768,2.9797979797979806 1.8686868686868696,2.9797979797979806 1.9696969696969702,2.9797979797979806 2.070707070707072,2.9797979797979806 2.1717171717171726,2.9797979797979806 2.2727272727272734,2.9797979797979806 2.373737373737375,2.9797979797979806 2.4747474747474754,2.9797979797979806 2.575757575757577,2.9797979797979806 2.676767676767678,2.9797979797979806 2.7777777777777786,2.9797979797979806 2.87878787878788,2.9797979797979806 2.9797979797979806,2.9797979797979806 3.080808080808082,2.9797979797979806 3.181818181818183,2.9797979797979806 3.2828282828282833,2.9797979797979806 3.383838383838384,2.9797979797979806 3.4848484848484866,2.9797979797979806 3.5858585858585874,2.9797979797979806 3.6868686868686877,2.9797979797979806 3.7878787878787885,2.9797979797979806 3.8888888888888893,2.9797979797979806 3.989898989898992,2.9797979797979806 4.090909090909092,2.9797979797979806 4.191919191919193,2.9797979797979806 4.292929292929293,2.9797979797979806 4.393939393939394,2.9797979797979806 4.494949494949497,2.9797979797979806 4.595959595959597,2.9797979797979806 4.696969696969697,2.9797979797979806 4.7979797979797985,2.9797979797979806 4.898989898989901,2.9797979797979806 5.000000000000002,2.9797979797979806" data-type="line" data-label="" points="40.00000000000006,202.10101010101027 49.53535353535369,211.63636363636374 59.07070707070716,221.17171717171726 68.60606060606068,230.70707070707084 78.14141414141426,230.70707070707084 87.67676767676772,230.70707070707084 97.21212121212136,230.70707070707084 106.74747474747483,230.70707070707084 116.28282828282829,230.70707070707084 125.81818181818193,230.70707070707084 135.35353535353545,230.70707070707084 144.88888888888903,230.70707070707084 154.42424242424255,230.70707070707084 163.95959595959607,230.70707070707084 173.4949494949496,230.70707070707084 183.03030303030312,230.70707070707084 192.5656565656567,230.70707070707084 202.10101010101022,230.70707070707084 211.63636363636374,230.70707070707084 221.17171717171726,230.70707070707084 230.70707070707084,230.70707070707084 240.2424242424243,230.70707070707084 249.77777777777783,230.70707070707084 259.3131313131314,230.70707070707084 268.84848484848493,230.70707070707084 278.38383838383845,230.70707070707084 287.91919191919203,230.70707070707084 297.4545454545455,230.70707070707084 306.9898989898991,230.70707070707084 316.5252525252526,230.70707070707084 326.0606060606061,230.70707070707084 335.59595959595964,230.70707070707084 345.13131313131316,230.70707070707084 354.6666666666667,230.70707070707084 364.2020202020202,230.70707070707084 373.7373737373738,230.70707070707084 383.2727272727273,230.70707070707084 392.80808080808083,230.70707070707084 402.34343434343435,230.70707070707084 411.8787878787879,230.70707070707084 421.4141414141414,230.70707070707084 430.949494949495,230.70707070707084 440.4848484848485,230.70707070707084 450.0202020202021,230.70707070707084 459.55555555555554,230.70707070707084 469.09090909090907,230.70707070707084 478.62626262626264,230.70707070707084 488.16161616161617,230.70707070707084 497.69696969696975,230.70707070707084 507.2323232323232,230.70707070707084 516.7676767676768,230.70707070707084 526.3030303030303,230.70707070707084 535.8383838383838,230.70707070707084 545.3737373737374,230.70707070707084 554.9090909090909,230.70707070707084 564.4444444444445,230.70707070707084 573.9797979797979,230.70707070707084 583.5151515151515,230.70707070707084 593.0505050505051,230.70707070707084 602.5858585858585,230.70707070707084 612.1212121212121,230.70707070707084 621.6565656565656,230.70707070707084 631.1919191919192,230.70707070707084 640.7272727272727,230.70707070707084 650.2626262626262,230.70707070707084 659.7979797979798,230.70707070707084 669.3333333333333,230.70707070707084 678.8686868686868,230.70707070707084 688.4040404040404,230.70707070707084 697.9393939393939,230.70707070707084 707.4747474747475,230.70707070707084 717.0101010101009,230.70707070707084 726.5454545454545,230.70707070707084 736.0808080808081,230.70707070707084 745.6161616161615,230.70707070707084 755.1515151515151,230.70707070707084 764.6868686868686,230.70707070707084 774.2222222222222,230.70707070707084 783.7575757575758,230.70707070707084 793.2929292929292,230.70707070707084 802.8282828282828,230.70707070707084 812.3636363636363,230.70707070707084 821.8989898989898,230.70707070707084 831.4343434343433,230.70707070707084 840.969696969697,230.70707070707084 850.5050505050505,230.70707070707084 860.0404040404039,230.70707070707084 869.5757575757575,230.70707070707084 879.111111111111,230.70707070707084 888.6464646464647,230.70707070707084 898.181818181818,230.70707070707084 907.7171717171716,230.70707070707084 917.2525252525251,230.70707070707084 926.7878787878785,230.70707070707084 936.3232323232323,230.70707070707084 945.8585858585857,230.70707070707084 955.3939393939393,230.70707070707084 964.9292929292927,230.70707070707084 974.4646464646464,230.70707070707084 984,230.70707070707084" fill="none" stroke="rgba(255,0,0,0.75)" stroke-width="11.327999999999996"/></g><g><polyline data-points="-0.7575757575757572,-5.000000000000001 -0.8585858585858579,-4.898989898989899 -0.9595959595959596,-4.7979797979797985 -1.0606060606060603,-4.696969696969697 -1.1616161616161613,-4.595959595959596 -1.2626262626262625,-4.494949494949496 -1.363636363636363,-4.393939393939394 -1.4646464646464643,-4.292929292929293 -1.5656565656565653,-4.191919191919193 -1.6666666666666665,-4.090909090909091 -1.7676767676767675,-3.98989898989899 -1.8686868686868683,-3.8888888888888884 -1.9696969696969693,-3.7878787878787876 -2.07070707070707,-3.6868686868686864 -2.1717171717171713,-3.5858585858585856 -2.2727272727272725,-3.484848484848485 -2.3737373737373733,-3.383838383838383 -2.474747474747474,-3.2828282828282824 -2.5757575757575752,-3.1818181818181817 -2.6767676767676765,-3.0808080808080804 -2.7777777777777777,-2.9797979797979792 -2.8787878787878785,-2.8787878787878785 -2.9797979797979792,-2.7777777777777777 -3.0808080808080804,-2.6767676767676765 -3.1818181818181817,-2.5757575757575752 -3.2828282828282824,-2.474747474747474 -3.383838383838383,-2.3737373737373733 -3.484848484848485,-2.2727272727272725 -3.5858585858585856,-2.1717171717171713 -3.6868686868686864,-2.07070707070707 -3.7878787878787876,-1.9696969696969693 -3.8888888888888884,-1.8686868686868683 -3.98989898989899,-1.7676767676767675 -3.98989898989899,-1.6666666666666665 -3.98989898989899,-1.5656565656565653 -3.98989898989899,-1.4646464646464643 -3.98989898989899,-1.363636363636363 -3.98989898989899,-1.2626262626262625 -3.98989898989899,-1.1616161616161613 -3.98989898989899,-1.0606060606060603 -3.98989898989899,-0.9595959595959596 -3.98989898989899,-0.8585858585858579 -3.98989898989899,-0.7575757575757572 -3.98989898989899,-0.6565656565656557 -3.98989898989899,-0.555555555555555 -3.98989898989899,-0.4545454545454544 -3.98989898989899,-0.35353535353535287 -3.98989898989899,-0.2525252525252522 -3.98989898989899,-0.15151515151515066 -3.98989898989899,-0.05050505050505001 -3.98989898989899,0.050505050505051545 -3.98989898989899,0.1515151515151522 -3.98989898989899,0.2525252525252529 -3.98989898989899,0.3535353535353544 -3.98989898989899,0.4545454545454551 -3.98989898989899,0.5555555555555567 -3.98989898989899,0.6565656565656574 -3.98989898989899,0.7575757575757579 -3.98989898989899,0.8585858585858596 -3.98989898989899,0.9595959595959602 -3.98989898989899,1.0606060606060617 -3.98989898989899,1.1616161616161622 -3.98989898989899,1.262626262626263 -3.98989898989899,1.3636363636363644 -3.98989898989899,1.4646464646464652 -3.98989898989899,1.5656565656565666 -3.98989898989899,1.6666666666666674 -3.98989898989899,1.767676767676768 -3.98989898989899,1.8686868686868696 -3.98989898989899,1.9696969696969702 -3.98989898989899,2.070707070707072 -3.98989898989899,2.1717171717171726 -3.98989898989899,2.2727272727272734 -3.98989898989899,2.373737373737375" data-type="line" data-label="" points="440.4848484848485,984 430.949494949495,974.4646464646464 421.4141414141414,964.9292929292928 411.8787878787879,955.3939393939394 402.34343434343435,945.8585858585858 392.80808080808083,936.3232323232323 383.2727272727273,926.7878787878788 373.7373737373738,917.2525252525252 364.2020202020202,907.7171717171718 354.6666666666667,898.1818181818181 345.13131313131316,888.6464646464647 335.59595959595964,879.1111111111111 326.0606060606061,869.5757575757575 316.5252525252526,860.0404040404039 306.9898989898991,850.5050505050505 297.4545454545455,840.969696969697 287.91919191919203,831.4343434343434 278.38383838383845,821.8989898989898 268.84848484848493,812.3636363636363 259.3131313131314,802.8282828282828 249.77777777777783,793.2929292929292 240.2424242424243,783.7575757575758 230.70707070707084,774.2222222222222 221.17171717171726,764.6868686868687 211.63636363636374,755.1515151515151 202.10101010101022,745.6161616161615 192.5656565656567,736.0808080808081 183.03030303030312,726.5454545454545 173.4949494949496,717.010101010101 163.95959595959607,707.4747474747475 154.42424242424255,697.939393939394 144.88888888888903,688.4040404040404 135.35353535353545,678.8686868686868 135.35353535353545,669.3333333333334 135.35353535353545,659.7979797979798 135.35353535353545,650.2626262626263 135.35353535353545,640.7272727272727 135.35353535353545,631.1919191919193 135.35353535353545,621.6565656565657 135.35353535353545,612.1212121212121 135.35353535353545,602.5858585858587 135.35353535353545,593.0505050505051 135.35353535353545,583.5151515151516 135.35353535353545,573.979797979798 135.35353535353545,564.4444444444445 135.35353535353545,554.909090909091 135.35353535353545,545.3737373737374 135.35353535353545,535.838383838384 135.35353535353545,526.3030303030304 135.35353535353545,516.7676767676768 135.35353535353545,507.23232323232327 135.35353535353545,497.69696969696975 135.35353535353545,488.1616161616163 135.35353535353545,478.6262626262627 135.35353535353545,469.0909090909092 135.35353535353545,459.5555555555556 135.35353535353545,450.0202020202021 135.35353535353545,440.4848484848486 135.35353535353545,430.94949494949503 135.35353535353545,421.4141414141415 135.35353535353545,411.87878787878793 135.35353535353545,402.3434343434344 135.35353535353545,392.80808080808094 135.35353535353545,383.27272727272737 135.35353535353545,373.73737373737384 135.35353535353545,364.2020202020203 135.35353535353545,354.66666666666674 135.35353535353545,345.1313131313133 135.35353535353545,335.5959595959597 135.35353535353545,326.06060606060623 135.35353535353545,316.5252525252526 135.35353535353545,306.9898989898991 135.35353535353545,297.4545454545456 135.35353535353545,287.91919191919203" fill="none" stroke="rgba(255,0,0,0.75)" stroke-width="11.327999999999996"/></g><g><polyline data-points="-3.98989898989899,2.373737373737375 -4.090909090909091,2.4747474747474754 -4.191919191919193,2.575757575757577 -4.292929292929293,2.676767676767678 -4.393939393939394,2.7777777777777786 -4.494949494949496,2.87878787878788 -4.595959595959596,2.9797979797979806 -4.696969696969697,3.080808080808082 -4.7979797979797985,3.181818181818183 -4.898989898989899,3.2828282828282833 -5.000000000000001,3.383838383838384 -5.000000000000001,3.4848484848484866 -5.000000000000001,3.5858585858585874 -5.000000000000001,3.6868686868686877 -5.000000000000001,3.7878787878787885 -5.000000000000001,3.8888888888888893 -5.000000000000001,3.989898989898992 -5.000000000000001,4.090909090909092 -5.000000000000001,4.191919191919193 -5.000000000000001,4.292929292929293 -5.000000000000001,4.393939393939394 -5.000000000000001,4.494949494949497 -5.000000000000001,4.595959595959597 -5.000000000000001,4.696969696969697 -5.000000000000001,4.7979797979797985 -5.000000000000001,4.898989898989901 -5.000000000000001,5.000000000000002" data-type="line" data-label="" points="135.35353535353545,287.91919191919203 125.81818181818193,278.38383838383857 116.28282828282829,268.84848484848493 106.74747474747483,259.3131313131314 97.21212121212136,249.77777777777794 87.67676767676772,240.24242424242436 78.14141414141426,230.70707070707084 68.60606060606068,221.17171717171726 59.07070707070716,211.63636363636374 49.53535353535369,202.10101010101027 40.00000000000006,192.56565656565675 40.00000000000006,183.03030303030312 40.00000000000006,173.4949494949496 40.00000000000006,163.95959595959613 40.00000000000006,154.4242424242426 40.00000000000006,144.88888888888908 40.00000000000006,135.35353535353545 40.00000000000006,125.81818181818198 40.00000000000006,116.28282828282846 40.00000000000006,106.747474747475 40.00000000000006,97.21212121212153 40.00000000000006,87.67676767676778 40.00000000000006,78.14141414141432 40.00000000000006,68.60606060606085 40.00000000000006,59.07070707070733 40.00000000000006,49.53535353535369 40.00000000000006,40.000000000000114" fill="none" stroke="rgba(0,0,255,0.75)" stroke-width="11.327999999999996"/></g><g><polyline data-points="-5.000000000000001,1.262626262626263 -4.898989898989899,1.1616161616161622 -4.7979797979797985,1.0606060606060617 -4.696969696969697,0.9595959595959602 -4.595959595959596,0.8585858585858596 -4.494949494949496,0.7575757575757579 -4.393939393939394,0.6565656565656574 -4.292929292929293,0.5555555555555567 -4.191919191919193,0.4545454545454551 -4.191919191919193,0.3535353535353544 -4.191919191919193,0.2525252525252529 -4.191919191919193,0.1515151515151522 -4.191919191919193,0.050505050505051545 -4.191919191919193,-0.05050505050505001 -4.191919191919193,-0.15151515151515066 -4.191919191919193,-0.2525252525252522 -4.191919191919193,-0.35353535353535287 -4.191919191919193,-0.4545454545454544 -4.191919191919193,-0.555555555555555 -4.191919191919193,-0.6565656565656557 -4.191919191919193,-0.7575757575757572 -4.191919191919193,-0.8585858585858579 -4.191919191919193,-0.9595959595959596 -4.191919191919193,-1.0606060606060603 -4.191919191919193,-1.1616161616161613 -4.191919191919193,-1.2626262626262625 -4.191919191919193,-1.363636363636363 -4.191919191919193,-1.4646464646464643 -4.191919191919193,-1.5656565656565653 -4.191919191919193,-1.6666666666666665 -4.191919191919193,-1.7676767676767675 -4.191919191919193,-1.8686868686868683 -4.090909090909091,-1.9696969696969693 -3.98989898989899,-2.07070707070707 -3.8888888888888884,-2.1717171717171713 -3.7878787878787876,-2.2727272727272725 -3.6868686868686864,-2.3737373737373733 -3.5858585858585856,-2.474747474747474 -3.484848484848485,-2.5757575757575752 -3.383838383838383,-2.6767676767676765 -3.2828282828282824,-2.7777777777777777 -3.1818181818181817,-2.8787878787878785 -3.0808080808080804,-2.9797979797979792 -2.9797979797979792,-3.0808080808080804 -2.8787878787878785,-3.1818181818181817 -2.7777777777777777,-3.2828282828282824 -2.6767676767676765,-3.383838383838383 -2.5757575757575752,-3.484848484848485 -2.474747474747474,-3.5858585858585856 -2.3737373737373733,-3.6868686868686864 -2.2727272727272725,-3.7878787878787876 -2.2727272727272725,-3.8888888888888884 -2.2727272727272725,-3.98989898989899" data-type="line" data-label="" points="40.00000000000006,392.80808080808094 49.53535353535369,402.3434343434344 59.07070707070716,411.87878787878793 68.60606060606068,421.4141414141415 78.14141414141426,430.94949494949503 87.67676767676772,440.4848484848486 97.21212121212136,450.0202020202021 106.74747474747483,459.5555555555556 116.28282828282829,469.0909090909092 116.28282828282829,478.6262626262627 116.28282828282829,488.1616161616163 116.28282828282829,497.69696969696975 116.28282828282829,507.23232323232327 116.28282828282829,516.7676767676768 116.28282828282829,526.3030303030304 116.28282828282829,535.838383838384 116.28282828282829,545.3737373737374 116.28282828282829,554.909090909091 116.28282828282829,564.4444444444445 116.28282828282829,573.979797979798 116.28282828282829,583.5151515151516 116.28282828282829,593.0505050505051 116.28282828282829,602.5858585858587 116.28282828282829,612.1212121212121 116.28282828282829,621.6565656565657 116.28282828282829,631.1919191919193 116.28282828282829,640.7272727272727 116.28282828282829,650.2626262626263 116.28282828282829,659.7979797979798 116.28282828282829,669.3333333333334 116.28282828282829,678.8686868686868 116.28282828282829,688.4040404040404 125.81818181818193,697.939393939394 135.35353535353545,707.4747474747475 144.88888888888903,717.010101010101 154.42424242424255,726.5454545454545 163.95959595959607,736.0808080808081 173.4949494949496,745.6161616161615 183.03030303030312,755.1515151515151 192.5656565656567,764.6868686868687 202.10101010101022,774.2222222222222 211.63636363636374,783.7575757575758 221.17171717171726,793.2929292929292 230.70707070707084,802.8282828282828 240.2424242424243,812.3636363636363 249.77777777777783,821.8989898989898 259.3131313131314,831.4343434343434 268.84848484848493,840.969696969697 278.38383838383845,850.5050505050505 287.91919191919203,860.0404040404039 297.4545454545455,869.5757575757575 297.4545454545455,879.1111111111111 297.4545454545455,888.6464646464647" fill="none" stroke="rgba(255,0,0,0.75)" stroke-width="11.327999999999996"/></g><g><polyline data-points="-2.2727272727272725,-3.98989898989899 -2.1717171717171713,-4.090909090909091 -2.07070707070707,-4.191919191919193 -1.9696969696969693,-4.191919191919193 -1.8686868686868683,-4.191919191919193 -1.7676767676767675,-4.191919191919193 -1.6666666666666665,-4.191919191919193 -1.5656565656565653,-4.191919191919193 -1.4646464646464643,-4.191919191919193 -1.363636363636363,-4.191919191919193 -1.2626262626262625,-4.191919191919193 -1.1616161616161613,-4.191919191919193 -1.0606060606060603,-4.191919191919193 -0.9595959595959596,-4.191919191919193 -0.8585858585858579,-4.191919191919193 -0.7575757575757572,-4.191919191919193 -0.6565656565656557,-4.191919191919193 -0.555555555555555,-4.191919191919193 -0.4545454545454544,-4.191919191919193 -0.35353535353535287,-4.191919191919193 -0.2525252525252522,-4.191919191919193 -0.15151515151515066,-4.191919191919193 -0.05050505050505001,-4.191919191919193 0.050505050505051545,-4.191919191919193 0.1515151515151522,-4.191919191919193 0.2525252525252529,-4.191919191919193 0.3535353535353544,-4.191919191919193 0.4545454545454551,-4.191919191919193 0.5555555555555567,-4.191919191919193 0.6565656565656574,-4.191919191919193 0.7575757575757579,-4.191919191919193 0.8585858585858596,-4.191919191919193 0.9595959595959602,-4.191919191919193 1.0606060606060617,-4.191919191919193 1.1616161616161622,-4.191919191919193 1.262626262626263,-4.191919191919193 1.3636363636363644,-4.191919191919193 1.4646464646464652,-4.191919191919193 1.5656565656565666,-4.191919191919193 1.6666666666666674,-4.191919191919193 1.767676767676768,-4.191919191919193 1.8686868686868696,-4.191919191919193 1.9696969696969702,-4.191919191919193 2.070707070707072,-4.191919191919193 2.1717171717171726,-4.191919191919193 2.2727272727272734,-4.191919191919193 2.373737373737375,-4.191919191919193 2.4747474747474754,-4.191919191919193 2.575757575757577,-4.191919191919193 2.676767676767678,-4.191919191919193 2.7777777777777786,-4.191919191919193 2.87878787878788,-4.191919191919193 2.9797979797979806,-4.191919191919193 3.080808080808082,-4.191919191919193 3.181818181818183,-4.191919191919193 3.2828282828282833,-4.191919191919193 3.383838383838384,-4.191919191919193 3.4848484848484866,-4.191919191919193 3.5858585858585874,-4.191919191919193 3.6868686868686877,-4.191919191919193 3.7878787878787885,-4.191919191919193 3.8888888888888893,-4.191919191919193 3.989898989898992,-4.191919191919193 4.090909090909092,-4.191919191919193 4.191919191919193,-4.191919191919193 4.292929292929293,-4.191919191919193 4.393939393939394,-4.191919191919193 4.494949494949497,-4.191919191919193 4.595959595959597,-4.191919191919193 4.696969696969697,-4.191919191919193 4.7979797979797985,-4.191919191919193 4.898989898989901,-4.191919191919193 5.000000000000002,-4.191919191919193" data-type="line" data-label="" points="297.4545454545455,888.6464646464647 306.9898989898991,898.1818181818181 316.5252525252526,907.7171717171718 326.0606060606061,907.7171717171718 335.59595959595964,907.7171717171718 345.13131313131316,907.7171717171718 354.6666666666667,907.7171717171718 364.2020202020202,907.7171717171718 373.7373737373738,907.7171717171718 383.2727272727273,907.7171717171718 392.80808080808083,907.7171717171718 402.34343434343435,907.7171717171718 411.8787878787879,907.7171717171718 421.4141414141414,907.7171717171718 430.949494949495,907.7171717171718 440.4848484848485,907.7171717171718 450.0202020202021,907.7171717171718 459.55555555555554,907.7171717171718 469.09090909090907,907.7171717171718 478.62626262626264,907.7171717171718 488.16161616161617,907.7171717171718 497.69696969696975,907.7171717171718 507.2323232323232,907.7171717171718 516.7676767676768,907.7171717171718 526.3030303030303,907.7171717171718 535.8383838383838,907.7171717171718 545.3737373737374,907.7171717171718 554.9090909090909,907.7171717171718 564.4444444444445,907.7171717171718 573.9797979797979,907.7171717171718 583.5151515151515,907.7171717171718 593.0505050505051,907.7171717171718 602.5858585858585,907.7171717171718 612.1212121212121,907.7171717171718 621.6565656565656,907.7171717171718 631.1919191919192,907.7171717171718 640.7272727272727,907.7171717171718 650.2626262626262,907.7171717171718 659.7979797979798,907.7171717171718 669.3333333333333,907.7171717171718 678.8686868686868,907.7171717171718 688.4040404040404,907.7171717171718 697.9393939393939,907.7171717171718 707.4747474747475,907.7171717171718 717.0101010101009,907.7171717171718 726.5454545454545,907.7171717171718 736.0808080808081,907.7171717171718 745.6161616161615,907.7171717171718 755.1515151515151,907.7171717171718 764.6868686868686,907.7171717171718 774.2222222222222,907.7171717171718 783.7575757575758,907.7171717171718 793.2929292929292,907.7171717171718 802.8282828282828,907.7171717171718 812.3636363636363,907.7171717171718 821.8989898989898,907.7171717171718 831.4343434343433,907.7171717171718 840.969696969697,907.7171717171718 850.5050505050505,907.7171717171718 860.0404040404039,907.7171717171718 869.5757575757575,907.7171717171718 879.111111111111,907.7171717171718 888.6464646464647,907.7171717171718 898.181818181818,907.7171717171718 907.7171717171716,907.7171717171718 917.2525252525251,907.7171717171718 926.7878787878785,907.7171717171718 936.3232323232323,907.7171717171718 945.8585858585857,907.7171717171718 955.3939393939393,907.7171717171718 964.9292929292927,907.7171717171718 974.4646464646464,907.7171717171718 984,907.7171717171718" fill="none" stroke="rgba(0,0,255,0.75)" stroke-width="11.327999999999996"/></g><g><polyline data-points="4.595959595959597,5.000000000000002 4.494949494949497,4.898989898989901 4.393939393939394,4.7979797979797985 4.292929292929293,4.696969696969697 4.191919191919193,4.595959595959597 4.090909090909092,4.494949494949497 3.989898989898992,4.393939393939394 3.8888888888888893,4.292929292929293 3.7878787878787885,4.191919191919193 3.6868686868686877,4.090909090909092 3.5858585858585874,3.989898989898992 3.4848484848484866,3.8888888888888893 3.383838383838384,3.7878787878787885 3.2828282828282833,3.6868686868686877 3.181818181818183,3.5858585858585874 3.080808080808082,3.4848484848484866 2.9797979797979806,3.383838383838384" data-type="line" data-label="" points="945.8585858585857,40.000000000000114 936.3232323232323,49.53535353535369 926.7878787878785,59.07070707070733 917.2525252525251,68.60606060606085 907.7171717171716,78.14141414141432 898.181818181818,87.67676767676778 888.6464646464647,97.21212121212153 879.111111111111,106.747474747475 869.5757575757575,116.28282828282846 860.0404040404039,125.81818181818198 850.5050505050505,135.35353535353545 840.969696969697,144.88888888888908 831.4343434343433,154.4242424242426 821.8989898989898,163.95959595959613 812.3636363636363,173.4949494949496 802.8282828282828,183.03030303030312 793.2929292929292,192.56565656565675" fill="none" stroke="rgba(255,0,0,0.75)" stroke-width="11.327999999999996"/></g><g><polyline data-points="2.9797979797979806,3.383838383838384 2.87878787878788,3.2828282828282833 2.7777777777777786,3.181818181818183 2.676767676767678,3.080808080808082 2.676767676767678,2.9797979797979806 2.676767676767678,2.87878787878788 2.676767676767678,2.7777777777777786 2.575757575757577,2.676767676767678 2.4747474747474754,2.575757575757577 2.373737373737375,2.4747474747474754 2.373737373737375,2.373737373737375 2.373737373737375,2.2727272727272734 2.373737373737375,2.1717171717171726 2.373737373737375,2.070707070707072 2.373737373737375,1.9696969696969702 2.373737373737375,1.8686868686868696 2.373737373737375,1.767676767676768 2.373737373737375,1.6666666666666674 2.373737373737375,1.5656565656565666 2.373737373737375,1.4646464646464652 2.373737373737375,1.3636363636363644 2.373737373737375,1.262626262626263 2.373737373737375,1.1616161616161622 2.373737373737375,1.0606060606060617 2.373737373737375,0.9595959595959602 2.2727272727272734,0.8585858585858596 2.1717171717171726,0.7575757575757579 2.070707070707072,0.6565656565656574 1.9696969696969702,0.5555555555555567 1.8686868686868696,0.4545454545454551 1.767676767676768,0.3535353535353544 1.6666666666666674,0.2525252525252529 1.5656565656565666,0.1515151515151522 1.4646464646464652,0.050505050505051545 1.3636363636363644,-0.05050505050505001 1.262626262626263,-0.15151515151515066 1.1616161616161622,-0.2525252525252522 1.0606060606060617,-0.35353535353535287 0.9595959595959602,-0.4545454545454544 0.8585858585858596,-0.555555555555555 0.7575757575757579,-0.6565656565656557 0.6565656565656574,-0.7575757575757572 0.5555555555555567,-0.8585858585858579 0.4545454545454551,-0.9595959595959596 0.3535353535353544,-1.0606060606060603 0.2525252525252529,-1.1616161616161613 0.1515151515151522,-1.2626262626262625 0.050505050505051545,-1.363636363636363 -0.05050505050505001,-1.4646464646464643 -0.15151515151515066,-1.5656565656565653 -0.2525252525252522,-1.6666666666666665 -0.35353535353535287,-1.7676767676767675 -0.4545454545454544,-1.8686868686868683 -0.555555555555555,-1.9696969696969693 -0.6565656565656557,-2.07070707070707 -0.7575757575757572,-2.1717171717171713 -0.8585858585858579,-2.2727272727272725 -0.9595959595959596,-2.3737373737373733 -1.0606060606060603,-2.474747474747474 -1.1616161616161613,-2.5757575757575752 -1.2626262626262625,-2.6767676767676765 -1.363636363636363,-2.7777777777777777 -1.4646464646464643,-2.8787878787878785 -1.5656565656565653,-2.9797979797979792 -1.6666666666666665,-3.0808080808080804 -1.7676767676767675,-3.1818181818181817 -1.8686868686868683,-3.2828282828282824 -1.9696969696969693,-3.383838383838383 -2.07070707070707,-3.484848484848485 -2.1717171717171713,-3.5858585858585856 -2.2727272727272725,-3.6868686868686864 -2.3737373737373733,-3.7878787878787876 -2.474747474747474,-3.8888888888888884 -2.5757575757575752,-3.98989898989899 -2.474747474747474,-4.090909090909091 -2.3737373737373733,-4.191919191919193 -2.2727272727272725,-4.292929292929293 -2.1717171717171713,-4.393939393939394 -2.07070707070707,-4.494949494949496 -1.9696969696969693,-4.595959595959596 -1.8686868686868683,-4.696969696969697 -1.7676767676767675,-4.7979797979797985 -1.6666666666666665,-4.898989898989899 -1.5656565656565653,-5.000000000000001 -1.4646464646464643,-5.000000000000001 -1.363636363636363,-5.000000000000001 -1.2626262626262625,-5.000000000000001 -1.1616161616161613,-5.000000000000001 -1.0606060606060603,-5.000000000000001 -0.9595959595959596,-5.000000000000001 -0.8585858585858579,-5.000000000000001 -0.7575757575757572,-5.000000000000001 -0.6565656565656557,-5.000000000000001 -0.555555555555555,-5.000000000000001 -0.4545454545454544,-5.000000000000001 -0.35353535353535287,-5.000000000000001 -0.2525252525252522,-5.000000000000001 -0.15151515151515066,-5.000000000000001 -0.05050505050505001,-5.000000000000001 0.050505050505051545,-5.000000000000001 0.1515151515151522,-5.000000000000001 0.2525252525252529,-5.000000000000001 0.3535353535353544,-5.000000000000001 0.4545454545454551,-5.000000000000001 0.5555555555555567,-5.000000000000001 0.6565656565656574,-5.000000000000001 0.7575757575757579,-5.000000000000001 0.8585858585858596,-5.000000000000001 0.9595959595959602,-5.000000000000001 1.0606060606060617,-5.000000000000001 1.1616161616161622,-5.000000000000001 1.262626262626263,-5.000000000000001 1.3636363636363644,-5.000000000000001 1.4646464646464652,-5.000000000000001 1.5656565656565666,-5.000000000000001 1.6666666666666674,-5.000000000000001 1.767676767676768,-5.000000000000001 1.8686868686868696,-5.000000000000001 1.9696969696969702,-5.000000000000001 2.070707070707072,-5.000000000000001 2.1717171717171726,-5.000000000000001 2.2727272727272734,-5.000000000000001 2.373737373737375,-5.000000000000001" data-type="line" data-label="" points="793.2929292929292,192.56565656565675 783.7575757575758,202.10101010101027 774.2222222222222,211.63636363636374 764.6868686868686,221.17171717171726 764.6868686868686,230.70707070707084 764.6868686868686,240.24242424242436 764.6868686868686,249.77777777777794 755.1515151515151,259.3131313131314 745.6161616161615,268.84848484848493 736.0808080808081,278.38383838383857 736.0808080808081,287.91919191919203 736.0808080808081,297.4545454545456 736.0808080808081,306.9898989898991 736.0808080808081,316.5252525252526 736.0808080808081,326.06060606060623 736.0808080808081,335.5959595959597 736.0808080808081,345.1313131313133 736.0808080808081,354.66666666666674 736.0808080808081,364.2020202020203 736.0808080808081,373.73737373737384 736.0808080808081,383.27272727272737 736.0808080808081,392.80808080808094 736.0808080808081,402.3434343434344 736.0808080808081,411.87878787878793 736.0808080808081,421.4141414141415 726.5454545454545,430.94949494949503 717.0101010101009,440.4848484848486 707.4747474747475,450.0202020202021 697.9393939393939,459.5555555555556 688.4040404040404,469.0909090909092 678.8686868686868,478.6262626262627 669.3333333333333,488.1616161616163 659.7979797979798,497.69696969696975 650.2626262626262,507.23232323232327 640.7272727272727,516.7676767676768 631.1919191919192,526.3030303030304 621.6565656565656,535.838383838384 612.1212121212121,545.3737373737374 602.5858585858585,554.909090909091 593.0505050505051,564.4444444444445 583.5151515151515,573.979797979798 573.9797979797979,583.5151515151516 564.4444444444445,593.0505050505051 554.9090909090909,602.5858585858587 545.3737373737374,612.1212121212121 535.8383838383838,621.6565656565657 526.3030303030303,631.1919191919193 516.7676767676768,640.7272727272727 507.2323232323232,650.2626262626263 497.69696969696975,659.7979797979798 488.16161616161617,669.3333333333334 478.62626262626264,678.8686868686868 469.09090909090907,688.4040404040404 459.55555555555554,697.939393939394 450.0202020202021,707.4747474747475 440.4848484848485,717.010101010101 430.949494949495,726.5454545454545 421.4141414141414,736.0808080808081 411.8787878787879,745.6161616161615 402.34343434343435,755.1515151515151 392.80808080808083,764.6868686868687 383.2727272727273,774.2222222222222 373.7373737373738,783.7575757575758 364.2020202020202,793.2929292929292 354.6666666666667,802.8282828282828 345.13131313131316,812.3636363636363 335.59595959595964,821.8989898989898 326.0606060606061,831.4343434343434 316.5252525252526,840.969696969697 306.9898989898991,850.5050505050505 297.4545454545455,860.0404040404039 287.91919191919203,869.5757575757575 278.38383838383845,879.1111111111111 268.84848484848493,888.6464646464647 278.38383838383845,898.1818181818181 287.91919191919203,907.7171717171718 297.4545454545455,917.2525252525252 306.9898989898991,926.7878787878788 316.5252525252526,936.3232323232323 326.0606060606061,945.8585858585858 335.59595959595964,955.3939393939394 345.13131313131316,964.9292929292928 354.6666666666667,974.4646464646464 364.2020202020202,984 373.7373737373738,984 383.2727272727273,984 392.80808080808083,984 402.34343434343435,984 411.8787878787879,984 421.4141414141414,984 430.949494949495,984 440.4848484848485,984 450.0202020202021,984 459.55555555555554,984 469.09090909090907,984 478.62626262626264,984 488.16161616161617,984 497.69696969696975,984 507.2323232323232,984 516.7676767676768,984 526.3030303030303,984 535.8383838383838,984 545.3737373737374,984 554.9090909090909,984 564.4444444444445,984 573.9797979797979,984 583.5151515151515,984 593.0505050505051,984 602.5858585858585,984 612.1212121212121,984 621.6565656565656,984 631.1919191919192,984 640.7272727272727,984 650.2626262626262,984 659.7979797979798,984 669.3333333333333,984 678.8686868686868,984 688.4040404040404,984 697.9393939393939,984 707.4747474747475,984 717.0101010101009,984 726.5454545454545,984 736.0808080808081,984" fill="none" stroke="rgba(0,0,255,0.75)" stroke-width="11.327999999999996"/></g><g><polyline data-points="4.191919191919193,5.000000000000002 4.090909090909092,4.898989898989901 3.989898989898992,4.7979797979797985 3.8888888888888893,4.696969696969697 3.7878787878787885,4.595959595959597 3.6868686868686877,4.494949494949497 3.5858585858585874,4.393939393939394 3.4848484848484866,4.292929292929293 3.383838383838384,4.191919191919193 3.2828282828282833,4.090909090909092 3.181818181818183,3.989898989898992 3.080808080808082,3.989898989898992" data-type="line" data-label="" points="907.7171717171716,40.000000000000114 898.181818181818,49.53535353535369 888.6464646464647,59.07070707070733 879.111111111111,68.60606060606085 869.5757575757575,78.14141414141432 860.0404040404039,87.67676767676778 850.5050505050505,97.21212121212153 840.969696969697,106.747474747475 831.4343434343433,116.28282828282846 821.8989898989898,125.81818181818198 812.3636363636363,135.35353535353545 802.8282828282828,135.35353535353545" fill="none" stroke="rgba(255,0,0,0.75)" stroke-width="11.327999999999996"/></g><g><polyline data-points="3.080808080808082,3.989898989898992 3.181818181818183,3.8888888888888893 3.2828282828282833,3.7878787878787885 3.383838383838384,3.6868686868686877 3.4848484848484866,3.5858585858585874 3.5858585858585874,3.4848484848484866 3.6868686868686877,3.383838383838384 3.7878787878787885,3.2828282828282833 3.8888888888888893,3.181818181818183 3.8888888888888893,3.080808080808082 3.8888888888888893,2.9797979797979806 3.8888888888888893,2.87878787878788 3.8888888888888893,2.7777777777777786 3.989898989898992,2.676767676767678 3.989898989898992,2.575757575757577 3.989898989898992,2.4747474747474754 3.989898989898992,2.373737373737375 3.989898989898992,2.2727272727272734 3.989898989898992,2.1717171717171726 3.989898989898992,2.070707070707072 3.989898989898992,1.9696969696969702 3.989898989898992,1.8686868686868696 3.989898989898992,1.767676767676768 3.989898989898992,1.6666666666666674 3.989898989898992,1.5656565656565666 3.989898989898992,1.4646464646464652 3.989898989898992,1.3636363636363644 3.989898989898992,1.262626262626263 3.989898989898992,1.1616161616161622 3.989898989898992,1.0606060606060617 3.989898989898992,0.9595959595959602 3.989898989898992,0.8585858585858596 3.989898989898992,0.7575757575757579 3.989898989898992,0.6565656565656574 3.989898989898992,0.5555555555555567 3.989898989898992,0.4545454545454551 3.989898989898992,0.3535353535353544 3.989898989898992,0.2525252525252529 3.989898989898992,0.1515151515151522 3.989898989898992,0.050505050505051545 3.989898989898992,-0.05050505050505001 3.989898989898992,-0.15151515151515066 3.989898989898992,-0.2525252525252522 3.989898989898992,-0.35353535353535287 3.989898989898992,-0.4545454545454544 3.989898989898992,-0.555555555555555 3.989898989898992,-0.6565656565656557 3.989898989898992,-0.7575757575757572 3.989898989898992,-0.8585858585858579 3.989898989898992,-0.9595959595959596 3.989898989898992,-1.0606060606060603 3.989898989898992,-1.1616161616161613 3.989898989898992,-1.2626262626262625 3.989898989898992,-1.363636363636363 3.989898989898992,-1.4646464646464643 3.989898989898992,-1.5656565656565653 3.989898989898992,-1.6666666666666665 3.989898989898992,-1.7676767676767675 3.989898989898992,-1.8686868686868683 3.989898989898992,-1.9696969696969693 3.989898989898992,-2.07070707070707 3.989898989898992,-2.1717171717171713 3.989898989898992,-2.2727272727272725 3.989898989898992,-2.3737373737373733 3.989898989898992,-2.474747474747474 3.989898989898992,-2.5757575757575752 3.989898989898992,-2.6767676767676765 3.989898989898992,-2.7777777777777777 3.989898989898992,-2.8787878787878785 3.989898989898992,-2.9797979797979792 3.989898989898992,-3.0808080808080804 3.989898989898992,-3.1818181818181817 3.989898989898992,-3.2828282828282824 3.989898989898992,-3.383838383838383 3.989898989898992,-3.484848484848485 3.989898989898992,-3.5858585858585856" data-type="line" data-label="" points="802.8282828282828,135.35353535353545 812.3636363636363,144.88888888888908 821.8989898989898,154.4242424242426 831.4343434343433,163.95959595959613 840.969696969697,173.4949494949496 850.5050505050505,183.03030303030312 860.0404040404039,192.56565656565675 869.5757575757575,202.10101010101027 879.111111111111,211.63636363636374 879.111111111111,221.17171717171726 879.111111111111,230.70707070707084 879.111111111111,240.24242424242436 879.111111111111,249.77777777777794 888.6464646464647,259.3131313131314 888.6464646464647,268.84848484848493 888.6464646464647,278.38383838383857 888.6464646464647,287.91919191919203 888.6464646464647,297.4545454545456 888.6464646464647,306.9898989898991 888.6464646464647,316.5252525252526 888.6464646464647,326.06060606060623 888.6464646464647,335.5959595959597 888.6464646464647,345.1313131313133 888.6464646464647,354.66666666666674 888.6464646464647,364.2020202020203 888.6464646464647,373.73737373737384 888.6464646464647,383.27272727272737 888.6464646464647,392.80808080808094 888.6464646464647,402.3434343434344 888.6464646464647,411.87878787878793 888.6464646464647,421.4141414141415 888.6464646464647,430.94949494949503 888.6464646464647,440.4848484848486 888.6464646464647,450.0202020202021 888.6464646464647,459.5555555555556 888.6464646464647,469.0909090909092 888.6464646464647,478.6262626262627 888.6464646464647,488.1616161616163 888.6464646464647,497.69696969696975 888.6464646464647,507.23232323232327 888.6464646464647,516.7676767676768 888.6464646464647,526.3030303030304 888.6464646464647,535.838383838384 888.6464646464647,545.3737373737374 888.6464646464647,554.909090909091 888.6464646464647,564.4444444444445 888.6464646464647,573.979797979798 888.6464646464647,583.5151515151516 888.6464646464647,593.0505050505051 888.6464646464647,602.5858585858587 888.6464646464647,612.1212121212121 888.6464646464647,621.6565656565657 888.6464646464647,631.1919191919193 888.6464646464647,640.7272727272727 888.6464646464647,650.2626262626263 888.6464646464647,659.7979797979798 888.6464646464647,669.3333333333334 888.6464646464647,678.8686868686868 888.6464646464647,688.4040404040404 888.6464646464647,697.939393939394 888.6464646464647,707.4747474747475 888.6464646464647,717.010101010101 888.6464646464647,726.5454545454545 888.6464646464647,736.0808080808081 888.6464646464647,745.6161616161615 888.6464646464647,755.1515151515151 888.6464646464647,764.6868686868687 888.6464646464647,774.2222222222222 888.6464646464647,783.7575757575758 888.6464646464647,793.2929292929292 888.6464646464647,802.8282828282828 888.6464646464647,812.3636363636363 888.6464646464647,821.8989898989898 888.6464646464647,831.4343434343434 888.6464646464647,840.969696969697 888.6464646464647,850.5050505050505" fill="none" stroke="rgba(0,0,255,0.75)" stroke-width="11.327999999999996"/></g><g><polyline data-points="3.989898989898992,-3.5858585858585856 4.090909090909092,-3.6868686868686864 4.191919191919193,-3.6868686868686864 4.292929292929293,-3.6868686868686864 4.393939393939394,-3.6868686868686864 4.494949494949497,-3.6868686868686864 4.595959595959597,-3.6868686868686864 4.696969696969697,-3.6868686868686864 4.7979797979797985,-3.6868686868686864 4.898989898989901,-3.6868686868686864 5.000000000000002,-3.6868686868686864" data-type="line" data-label="" points="888.6464646464647,850.5050505050505 898.181818181818,860.0404040404039 907.7171717171716,860.0404040404039 917.2525252525251,860.0404040404039 926.7878787878785,860.0404040404039 936.3232323232323,860.0404040404039 945.8585858585857,860.0404040404039 955.3939393939393,860.0404040404039 964.9292929292927,860.0404040404039 974.4646464646464,860.0404040404039 984,860.0404040404039" fill="none" stroke="rgba(255,0,0,0.75)" stroke-width="11.327999999999996"/></g><g><polyline data-points="-5.000000000000001,-0.05050505050505001 -4.898989898989899,-0.15151515151515066 -4.7979797979797985,-0.2525252525252522 -4.696969696969697,-0.35353535353535287 -4.595959595959596,-0.4545454545454544 -4.494949494949496,-0.555555555555555 -4.494949494949496,-0.6565656565656557 -4.494949494949496,-0.7575757575757572 -4.393939393939394,-0.8585858585858579 -4.393939393939394,-0.9595959595959596 -4.393939393939394,-1.0606060606060603 -4.393939393939394,-1.1616161616161613 -4.393939393939394,-1.2626262626262625 -4.393939393939394,-1.363636363636363 -4.393939393939394,-1.4646464646464643 -4.393939393939394,-1.5656565656565653 -4.393939393939394,-1.6666666666666665 -4.393939393939394,-1.7676767676767675 -4.393939393939394,-1.8686868686868683 -4.393939393939394,-1.9696969696969693 -4.292929292929293,-2.07070707070707 -4.191919191919193,-2.1717171717171713 -4.090909090909091,-2.2727272727272725 -3.98989898989899,-2.3737373737373733 -3.98989898989899,-2.474747474747474 -3.98989898989899,-2.5757575757575752" data-type="line" data-label="" points="40.00000000000006,516.7676767676768 49.53535353535369,526.3030303030304 59.07070707070716,535.838383838384 68.60606060606068,545.3737373737374 78.14141414141426,554.909090909091 87.67676767676772,564.4444444444445 87.67676767676772,573.979797979798 87.67676767676772,583.5151515151516 97.21212121212136,593.0505050505051 97.21212121212136,602.5858585858587 97.21212121212136,612.1212121212121 97.21212121212136,621.6565656565657 97.21212121212136,631.1919191919193 97.21212121212136,640.7272727272727 97.21212121212136,650.2626262626263 97.21212121212136,659.7979797979798 97.21212121212136,669.3333333333334 97.21212121212136,678.8686868686868 97.21212121212136,688.4040404040404 97.21212121212136,697.939393939394 106.74747474747483,707.4747474747475 116.28282828282829,717.010101010101 125.81818181818193,726.5454545454545 135.35353535353545,736.0808080808081 135.35353535353545,745.6161616161615 135.35353535353545,755.1515151515151" fill="none" stroke="rgba(255,0,0,0.75)" stroke-width="11.327999999999996"/></g><g><polyline data-points="-3.98989898989899,-2.5757575757575752 -3.8888888888888884,-2.474747474747474 -3.7878787878787876,-2.3737373737373733 -3.6868686868686864,-2.2727272727272725 -3.5858585858585856,-2.1717171717171713 -3.484848484848485,-2.07070707070707 -3.383838383838383,-1.9696969696969693 -3.2828282828282824,-1.8686868686868683 -3.1818181818181817,-1.7676767676767675 -3.0808080808080804,-1.6666666666666665 -2.9797979797979792,-1.5656565656565653 -2.8787878787878785,-1.4646464646464643 -2.7777777777777777,-1.363636363636363 -2.6767676767676765,-1.2626262626262625 -2.5757575757575752,-1.1616161616161613 -2.474747474747474,-1.0606060606060603 -2.3737373737373733,-0.9595959595959596 -2.2727272727272725,-0.8585858585858579 -2.1717171717171713,-0.7575757575757572 -2.07070707070707,-0.6565656565656557 -1.9696969696969693,-0.555555555555555 -1.8686868686868683,-0.4545454545454544 -1.7676767676767675,-0.35353535353535287 -1.6666666666666665,-0.2525252525252522 -1.5656565656565653,-0.15151515151515066 -1.4646464646464643,-0.05050505050505001 -1.363636363636363,0.050505050505051545 -1.2626262626262625,0.1515151515151522 -1.1616161616161613,0.2525252525252529 -1.0606060606060603,0.3535353535353544 -0.9595959595959596,0.4545454545454551 -0.8585858585858579,0.5555555555555567 -0.7575757575757572,0.6565656565656574 -0.6565656565656557,0.7575757575757579 -0.555555555555555,0.8585858585858596 -0.4545454545454544,0.9595959595959602 -0.35353535353535287,1.0606060606060617 -0.2525252525252522,1.1616161616161622 -0.15151515151515066,1.262626262626263 -0.05050505050505001,1.3636363636363644 0.050505050505051545,1.4646464646464652 0.1515151515151522,1.5656565656565666 0.2525252525252529,1.6666666666666674 0.3535353535353544,1.767676767676768 0.4545454545454551,1.8686868686868696 0.5555555555555567,1.9696969696969702 0.6565656565656574,2.070707070707072 0.7575757575757579,2.1717171717171726 0.8585858585858596,2.2727272727272734 0.9595959595959602,2.373737373737375 1.0606060606060617,2.4747474747474754 1.1616161616161622,2.575757575757577 1.262626262626263,2.676767676767678 1.3636363636363644,2.7777777777777786 1.4646464646464652,2.87878787878788 1.5656565656565666,2.9797979797979806 1.6666666666666674,3.080808080808082 1.6666666666666674,3.181818181818183 1.6666666666666674,3.2828282828282833 1.6666666666666674,3.383838383838384 1.6666666666666674,3.4848484848484866 1.767676767676768,3.5858585858585874 1.8686868686868696,3.5858585858585874 1.9696969696969702,3.5858585858585874 2.070707070707072,3.5858585858585874 2.1717171717171726,3.5858585858585874 2.2727272727272734,3.5858585858585874 2.373737373737375,3.5858585858585874 2.4747474747474754,3.6868686868686877 2.575757575757577,3.7878787878787885 2.676767676767678,3.8888888888888893 2.7777777777777786,3.989898989898992 2.87878787878788,4.090909090909092 2.9797979797979806,4.191919191919193 3.080808080808082,4.292929292929293 3.181818181818183,4.191919191919193 3.2828282828282833,4.090909090909092 3.383838383838384,3.989898989898992 3.4848484848484866,3.8888888888888893 3.5858585858585874,3.7878787878787885 3.6868686868686877,3.6868686868686877 3.7878787878787885,3.5858585858585874 3.8888888888888893,3.5858585858585874 3.989898989898992,3.5858585858585874 4.090909090909092,3.5858585858585874 4.191919191919193,3.5858585858585874 4.292929292929293,3.5858585858585874 4.393939393939394,3.5858585858585874 4.494949494949497,3.5858585858585874 4.595959595959597,3.5858585858585874 4.696969696969697,3.5858585858585874 4.7979797979797985,3.5858585858585874 4.898989898989901,3.5858585858585874 5.000000000000002,3.4848484848484866" data-type="line" data-label="" points="135.35353535353545,755.1515151515151 144.88888888888903,745.6161616161615 154.42424242424255,736.0808080808081 163.95959595959607,726.5454545454545 173.4949494949496,717.010101010101 183.03030303030312,707.4747474747475 192.5656565656567,697.939393939394 202.10101010101022,688.4040404040404 211.63636363636374,678.8686868686868 221.17171717171726,669.3333333333334 230.70707070707084,659.7979797979798 240.2424242424243,650.2626262626263 249.77777777777783,640.7272727272727 259.3131313131314,631.1919191919193 268.84848484848493,621.6565656565657 278.38383838383845,612.1212121212121 287.91919191919203,602.5858585858587 297.4545454545455,593.0505050505051 306.9898989898991,583.5151515151516 316.5252525252526,573.979797979798 326.0606060606061,564.4444444444445 335.59595959595964,554.909090909091 345.13131313131316,545.3737373737374 354.6666666666667,535.838383838384 364.2020202020202,526.3030303030304 373.7373737373738,516.7676767676768 383.2727272727273,507.23232323232327 392.80808080808083,497.69696969696975 402.34343434343435,488.1616161616163 411.8787878787879,478.6262626262627 421.4141414141414,469.0909090909092 430.949494949495,459.5555555555556 440.4848484848485,450.0202020202021 450.0202020202021,440.4848484848486 459.55555555555554,430.94949494949503 469.09090909090907,421.4141414141415 478.62626262626264,411.87878787878793 488.16161616161617,402.3434343434344 497.69696969696975,392.80808080808094 507.2323232323232,383.27272727272737 516.7676767676768,373.73737373737384 526.3030303030303,364.2020202020203 535.8383838383838,354.66666666666674 545.3737373737374,345.1313131313133 554.9090909090909,335.5959595959597 564.4444444444445,326.06060606060623 573.9797979797979,316.5252525252526 583.5151515151515,306.9898989898991 593.0505050505051,297.4545454545456 602.5858585858585,287.91919191919203 612.1212121212121,278.38383838383857 621.6565656565656,268.84848484848493 631.1919191919192,259.3131313131314 640.7272727272727,249.77777777777794 650.2626262626262,240.24242424242436 659.7979797979798,230.70707070707084 669.3333333333333,221.17171717171726 669.3333333333333,211.63636363636374 669.3333333333333,202.10101010101027 669.3333333333333,192.56565656565675 669.3333333333333,183.03030303030312 678.8686868686868,173.4949494949496 688.4040404040404,173.4949494949496 697.9393939393939,173.4949494949496 707.4747474747475,173.4949494949496 717.0101010101009,173.4949494949496 726.5454545454545,173.4949494949496 736.0808080808081,173.4949494949496 745.6161616161615,163.95959595959613 755.1515151515151,154.4242424242426 764.6868686868686,144.88888888888908 774.2222222222222,135.35353535353545 783.7575757575758,125.81818181818198 793.2929292929292,116.28282828282846 802.8282828282828,106.747474747475 812.3636363636363,116.28282828282846 821.8989898989898,125.81818181818198 831.4343434343433,135.35353535353545 840.969696969697,144.88888888888908 850.5050505050505,154.4242424242426 860.0404040404039,163.95959595959613 869.5757575757575,173.4949494949496 879.111111111111,173.4949494949496 888.6464646464647,173.4949494949496 898.181818181818,173.4949494949496 907.7171717171716,173.4949494949496 917.2525252525251,173.4949494949496 926.7878787878785,173.4949494949496 936.3232323232323,173.4949494949496 945.8585858585857,173.4949494949496 955.3939393939393,173.4949494949496 964.9292929292927,173.4949494949496 974.4646464646464,173.4949494949496 984,183.03030303030312" fill="none" stroke="rgba(0,0,255,0.75)" stroke-width="11.327999999999996"/></g><g><rect data-type="rect" data-label="" data-x="0" data-y="0" x="40.000000000000114" y="40.000000000000284" width="943.9999999999997" height="943.9999999999998" fill="none" stroke="gray" stroke-width="0.010593220338983056"/></g><g><rect data-type="rect" data-label="" data-x="0" data-y="0" x="40.000000000000114" y="40.000000000000284" width="943.9999999999997" height="943.9999999999998" fill="none" stroke="rgba(15, 23, 42, 0.8)" stroke-width="0.010593220338983056"/></g><circle data-type="circle" data-label="" data-x="-3.98989898989899" data-y="2.373737373737375" cx="135.35353535353545" cy="287.91919191919203" r="14.159999999999995" fill="rgba(0,0,0,0.3)" stroke="black" stroke-width="0.010593220338983056"/><circle data-type="circle" data-label="" data-x="-2.2727272727272725" data-y="-3.98989898989899" cx="297.4545454545455" cy="888.6464646464647" r="14.159999999999995" fill="rgba(0,0,0,0.3)" stroke="black" stroke-width="0.010593220338983056"/><circle data-type="circle" data-label="" data-x="2.9797979797979806" data-y="3.383838383838384" cx="793.2929292929292" cy="192.56565656565675" r="14.159999999999995" fill="rgba(0,0,0,0.3)" stroke="black" stroke-width="0.010593220338983056"/><circle data-type="circle" data-label="" data-x="3.080808080808082" data-y="3.989898989898992" cx="802.8282828282828" cy="135.35353535353545" r="14.159999999999995" fill="rgba(0,0,0,0.3)" stroke="black" stroke-width="0.010593220338983056"/><circle data-type="circle" data-label="" data-x="3.989898989898992" data-y="-3.5858585858585856" cx="888.6464646464647" cy="850.5050505050505" r="14.159999999999995" fill="rgba(0,0,0,0.3)" stroke="black" stroke-width="0.010593220338983056"/><circle data-type="circle" data-label="" data-x="-3.98989898989899" data-y="-2.5757575757575752" cx="135.35353535353545" cy="755.1515151515151" r="14.159999999999995" fill="rgba(0,0,0,0.3)" stroke="black" stroke-width="0.010593220338983056"/><g id="crosshair" style="display: none"><line id="crosshair-h" y1="0" y2="1024" stroke="#666" stroke-width="0.5"/><line id="crosshair-v" x1="0" x2="1024" stroke="#666" stroke-width="0.5"/><text id="coordinates" font-family="monospace" font-size="12" fill="#666"></text></g><script><![CDATA[
              document.currentScript.parentElement.addEventListener('mousemove', (e) => {
                const svg = e.currentTarget;
                const rect = svg.getBoundingClientRect();
                const x = e.clientX - rect.left;
                const y = e.clientY - rect.top;
                const crosshair = svg.getElementById('crosshair');
                const h = svg.getElementById('crosshair-h');
                const v = svg.getElementById('crosshair-v');
                const coords = svg.getElementById('coordinates');
                
                crosshair.style.display = 'block';
                h.setAttribute('x1', '0');
                h.setAttribute('x2', '1024');
                h.setAttribute('y1', y);
                h.setAttribute('y2', y);
                v.setAttribute('x1', x);
                v.setAttribute('x2', x);
                v.setAttribute('y1', '0');
                v.setAttribute('y2', '1024');

                // Calculate real coordinates using inverse transformation
                const matrix = {"a":94.39999999999996,"c":0,"e":511.99999999999994,"b":0,"d":-94.39999999999996,"f":512.0000000000001};
                // Manually invert and apply the affine transform
                // Since we only use translate and scale, we can directly compute:
                // x' = (x - tx) / sx
                // y' = (y - ty) / sy
                const sx = matrix.a;
                const sy = matrix.d;
                const tx = matrix.e; 
                const ty = matrix.f;
                const realPoint = {
                  x: (x - tx) / sx,
                  y: (y - ty) / sy // Flip y back since we used negative scale
                }
                
                coords.textContent = `(${realPoint.x.toFixed(2)}, ${realPoint.y.toFixed(2)})`;
                coords.setAttribute('x', (x + 5).toString());
                coords.setAttribute('y', (y - 5).toString());
              });
              document.currentScript.parentElement.addEventListener('mouseleave', () => {
                document.currentScript.parentElement.getElementById('crosshair').style.display = 'none';
              });
            ]]></script></svg>