<svg width="1024" height="1024" viewBox="0 0 1024 1024" xmlns="http://www.w3.org/2000/svg"><rect width="100%" height="100%" fill="white"/><g><circle data-type="point" data-label="conn_000" data-x="5" data-y="-3.92" cx="983.9999999999998" cy="882.048" r="14.16" fill="blue"/></g><g><circle data-type="point" data-label="conn_000" data-x="-5" data-y="-3.42" cx="40.000000000000114" cy="834.848" r="14.16" fill="blue"/></g><g><circle data-type="point" data-label="conn_001" data-x="-5" data-y="1.32" cx="40.000000000000114" cy="387.39200000000017" r="14.16" fill="red"/></g><g><circle data-type="point" data-label="conn_001" data-x="-5" data-y="-4.16" cx="40.000000000000114" cy="904.704" r="14.16" fill="red"/></g><g><circle data-type="point" data-label="conn_002" data-x="4.2" data-y="-5" cx="908.4799999999998" cy="984" r="14.16" fill="blue"/></g><g><circle data-type="point" data-label="conn_002" data-x="2" data-y="5" cx="700.7999999999998" cy="40.000000000000284" r="14.16" fill="blue"/></g><g><circle data-type="point" data-label="conn_003" data-x="1.52" data-y="-5" cx="655.4879999999998" cy="984" r="14.16" fill="blue"/></g><g><circle data-type="point" data-label="conn_003" data-x="-2.68" data-y="5" cx="259.00800000000004" cy="40.000000000000284" r="14.16" fill="blue"/></g><g><circle data-type="point" data-label="conn_004" data-x="-3.56" data-y="-5" cx="175.9360000000001" cy="984" r="14.16" fill="red"/></g><g><circle data-type="point" data-label="conn_004" data-x="-3.96" data-y="5" cx="138.1760000000001" cy="40.000000000000284" r="14.16" fill="red"/></g><g><circle data-type="point" data-label="conn_005" data-x="5" data-y="3.6" cx="983.9999999999998" cy="172.16000000000025" r="14.16" fill="blue"/></g><g><circle data-type="point" data-label="conn_005" data-x="5" data-y="-1.76" cx="983.9999999999998" cy="678.144" r="14.16" fill="blue"/></g><g><circle data-type="point" data-label="conn_006" data-x="5" data-y="4.76" cx="983.9999999999998" cy="62.65600000000029" r="14.16" fill="blue"/></g><g><circle data-type="point" data-label="conn_006" data-x="-5" data-y="-1.36" cx="40.000000000000114" cy="640.384" r="14.16" fill="blue"/></g><g><circle data-type="point" data-label="conn_007" data-x="-5" data-y="-1.24" cx="40.000000000000114" cy="629.056" r="14.16" fill="red"/></g><g><circle data-type="point" data-label="conn_007" data-x="-5" data-y="-3.9" cx="40.000000000000114" cy="880.16" r="14.16" fill="blue"/></g><g><circle data-type="point" data-label="conn_008" data-x="5" data-y="-2.58" cx="983.9999999999998" cy="755.552" r="14.16" fill="blue"/></g><g><circle data-type="point" data-label="conn_008" data-x="-5" data-y="-4.12" cx="40.000000000000114" cy="900.928" r="14.16" fill="blue"/></g><g><polyline data-points="5.000000000000002,4.7979797979797985 4.898989898989901,4.696969696969697 4.7979797979797985,4.595959595959597 4.696969696969697,4.494949494949497 4.595959595959597,4.393939393939394 4.494949494949497,4.292929292929293 4.393939393939394,4.191919191919193 4.292929292929293,4.090909090909092 4.191919191919193,3.989898989898992 4.090909090909092,3.8888888888888893 3.989898989898992,3.7878787878787885 3.8888888888888893,3.6868686868686877 3.7878787878787885,3.5858585858585874 3.6868686868686877,3.4848484848484866 3.5858585858585874,3.383838383838384 3.4848484848484866,3.2828282828282833 3.383838383838384,3.181818181818183 3.2828282828282833,3.080808080808082 3.181818181818183,2.9797979797979806 3.080808080808082,2.87878787878788 2.9797979797979806,2.7777777777777786 2.87878787878788,2.676767676767678 2.7777777777777786,2.575757575757577 2.676767676767678,2.4747474747474754 2.575757575757577,2.373737373737375 2.4747474747474754,2.2727272727272734 2.373737373737375,2.1717171717171726 2.2727272727272734,2.070707070707072 2.1717171717171726,1.9696969696969702 2.070707070707072,1.8686868686868696 1.9696969696969702,1.767676767676768 1.8686868686868696,1.6666666666666674 1.767676767676768,1.5656565656565666 1.6666666666666674,1.4646464646464652 1.5656565656565666,1.3636363636363644 1.4646464646464652,1.262626262626263 1.3636363636363644,1.1616161616161622 1.262626262626263,1.0606060606060617 1.1616161616161622,0.9595959595959602 1.0606060606060617,0.8585858585858596 0.9595959595959602,0.7575757575757579 0.8585858585858596,0.6565656565656574 0.7575757575757579,0.5555555555555567 0.6565656565656574,0.4545454545454551 0.5555555555555567,0.3535353535353544 0.4545454545454551,0.2525252525252529 0.3535353535353544,0.1515151515151522 0.2525252525252529,0.050505050505051545 0.1515151515151522,-0.05050505050505001 0.050505050505051545,-0.15151515151515066 -0.05050505050505001,-0.2525252525252522 -0.15151515151515066,-0.35353535353535287 -0.2525252525252522,-0.4545454545454544 -0.35353535353535287,-0.555555555555555 -0.4545454545454544,-0.6565656565656557 -0.555555555555555,-0.7575757575757572 -0.6565656565656557,-0.8585858585858579 -0.7575757575757572,-0.9595959595959596 -0.8585858585858579,-1.0606060606060603 -0.9595959595959596,-1.1616161616161613 -1.0606060606060603,-1.2626262626262625 -1.1616161616161613,-1.363636363636363 -1.2626262626262625,-1.363636363636363 -1.363636363636363,-1.363636363636363 -1.4646464646464643,-1.363636363636363 -1.5656565656565653,-1.363636363636363 -1.6666666666666665,-1.363636363636363 -1.7676767676767675,-1.363636363636363 -1.8686868686868683,-1.363636363636363 -1.9696969696969693,-1.363636363636363 -2.07070707070707,-1.363636363636363 -2.1717171717171713,-1.363636363636363 -2.2727272727272725,-1.363636363636363 -2.3737373737373733,-1.363636363636363 -2.474747474747474,-1.363636363636363 -2.5757575757575752,-1.363636363636363 -2.6767676767676765,-1.363636363636363 -2.7777777777777777,-1.363636363636363 -2.8787878787878785,-1.363636363636363 -2.9797979797979792,-1.363636363636363 -3.0808080808080804,-1.363636363636363 -3.1818181818181817,-1.363636363636363 -3.2828282828282824,-1.363636363636363 -3.383838383838383,-1.363636363636363 -3.484848484848485,-1.363636363636363 -3.5858585858585856,-1.363636363636363 -3.6868686868686864,-1.363636363636363 -3.7878787878787876,-1.363636363636363 -3.8888888888888884,-1.363636363636363 -3.98989898989899,-1.363636363636363 -4.090909090909091,-1.363636363636363 -4.191919191919193,-1.363636363636363 -4.292929292929293,-1.363636363636363 -4.393939393939394,-1.363636363636363 -4.494949494949496,-1.363636363636363 -4.595959595959596,-1.363636363636363 -4.696969696969697,-1.363636363636363 -4.7979797979797985,-1.363636363636363 -4.898989898989899,-1.363636363636363 -5.000000000000001,-1.363636363636363" data-type="line" data-label="" points="984,59.07070707070733 974.4646464646464,68.60606060606085 964.9292929292927,78.14141414141432 955.3939393939393,87.67676767676778 945.8585858585857,97.21212121212153 936.3232323232323,106.747474747475 926.7878787878785,116.28282828282846 917.2525252525251,125.81818181818198 907.7171717171716,135.35353535353545 898.181818181818,144.88888888888908 888.6464646464647,154.4242424242426 879.111111111111,163.95959595959613 869.5757575757575,173.4949494949496 860.0404040404039,183.03030303030312 850.5050505050505,192.56565656565675 840.969696969697,202.10101010101027 831.4343434343433,211.63636363636374 821.8989898989898,221.17171717171726 812.3636363636363,230.70707070707084 802.8282828282828,240.24242424242436 793.2929292929292,249.77777777777794 783.7575757575758,259.3131313131314 774.2222222222222,268.84848484848493 764.6868686868686,278.38383838383857 755.1515151515151,287.91919191919203 745.6161616161615,297.4545454545456 736.0808080808081,306.9898989898991 726.5454545454545,316.5252525252526 717.0101010101009,326.06060606060623 707.4747474747475,335.5959595959597 697.9393939393939,345.1313131313133 688.4040404040404,354.66666666666674 678.8686868686868,364.2020202020203 669.3333333333333,373.73737373737384 659.7979797979798,383.27272727272737 650.2626262626262,392.80808080808094 640.7272727272727,402.3434343434344 631.1919191919192,411.87878787878793 621.6565656565656,421.4141414141415 612.1212121212121,430.94949494949503 602.5858585858585,440.4848484848486 593.0505050505051,450.0202020202021 583.5151515151515,459.5555555555556 573.9797979797979,469.0909090909092 564.4444444444445,478.6262626262627 554.9090909090909,488.1616161616163 545.3737373737374,497.69696969696975 535.8383838383838,507.23232323232327 526.3030303030303,516.7676767676768 516.7676767676768,526.3030303030304 507.2323232323232,535.838383838384 497.69696969696975,545.3737373737374 488.16161616161617,554.909090909091 478.62626262626264,564.4444444444445 469.09090909090907,573.979797979798 459.55555555555554,583.5151515151516 450.0202020202021,593.0505050505051 440.4848484848485,602.5858585858587 430.949494949495,612.1212121212121 421.4141414141414,621.6565656565657 411.8787878787879,631.1919191919193 402.34343434343435,640.7272727272727 392.80808080808083,640.7272727272727 383.2727272727273,640.7272727272727 373.7373737373738,640.7272727272727 364.2020202020202,640.7272727272727 354.6666666666667,640.7272727272727 345.13131313131316,640.7272727272727 335.59595959595964,640.7272727272727 326.0606060606061,640.7272727272727 316.5252525252526,640.7272727272727 306.9898989898991,640.7272727272727 297.4545454545455,640.7272727272727 287.91919191919203,640.7272727272727 278.38383838383845,640.7272727272727 268.84848484848493,640.7272727272727 259.3131313131314,640.7272727272727 249.77777777777783,640.7272727272727 240.2424242424243,640.7272727272727 230.70707070707084,640.7272727272727 221.17171717171726,640.7272727272727 211.63636363636374,640.7272727272727 202.10101010101022,640.7272727272727 192.5656565656567,640.7272727272727 183.03030303030312,640.7272727272727 173.4949494949496,640.7272727272727 163.95959595959607,640.7272727272727 154.42424242424255,640.7272727272727 144.88888888888903,640.7272727272727 135.35353535353545,640.7272727272727 125.81818181818193,640.7272727272727 116.28282828282829,640.7272727272727 106.74747474747483,640.7272727272727 97.21212121212136,640.7272727272727 87.67676767676772,640.7272727272727 78.14141414141426,640.7272727272727 68.60606060606068,640.7272727272727 59.07070707070716,640.7272727272727 49.53535353535369,640.7272727272727 40.00000000000006,640.7272727272727" fill="none" stroke="rgba(0,0,255,0.75)" stroke-width="11.327999999999996"/></g><g><polyline data-points="5.000000000000002,-3.98989898989899 4.898989898989901,-3.8888888888888884 4.7979797979797985,-3.7878787878787876 4.696969696969697,-3.7878787878787876 4.595959595959597,-3.7878787878787876 4.494949494949497,-3.7878787878787876 4.393939393939394,-3.7878787878787876 4.292929292929293,-3.7878787878787876 4.191919191919193,-3.7878787878787876 4.090909090909092,-3.7878787878787876 3.989898989898992,-3.6868686868686864 3.8888888888888893,-3.5858585858585856 3.7878787878787885,-3.484848484848485 3.6868686868686877,-3.484848484848485 3.5858585858585874,-3.484848484848485 3.4848484848484866,-3.484848484848485 3.383838383838384,-3.484848484848485 3.2828282828282833,-3.484848484848485 3.181818181818183,-3.484848484848485 3.080808080808082,-3.484848484848485 2.9797979797979806,-3.484848484848485 2.87878787878788,-3.484848484848485 2.7777777777777786,-3.484848484848485 2.676767676767678,-3.484848484848485 2.575757575757577,-3.484848484848485 2.4747474747474754,-3.484848484848485 2.373737373737375,-3.484848484848485 2.2727272727272734,-3.484848484848485 2.1717171717171726,-3.484848484848485 2.070707070707072,-3.484848484848485 1.9696969696969702,-3.484848484848485 1.8686868686868696,-3.484848484848485 1.767676767676768,-3.484848484848485 1.6666666666666674,-3.484848484848485 1.5656565656565666,-3.484848484848485 1.4646464646464652,-3.484848484848485 1.3636363636363644,-3.484848484848485 1.262626262626263,-3.484848484848485 1.1616161616161622,-3.484848484848485 1.0606060606060617,-3.484848484848485 0.9595959595959602,-3.484848484848485 0.8585858585858596,-3.484848484848485 0.7575757575757579,-3.484848484848485 0.6565656565656574,-3.484848484848485 0.5555555555555567,-3.484848484848485 0.4545454545454551,-3.484848484848485 0.3535353535353544,-3.484848484848485 0.2525252525252529,-3.484848484848485 0.1515151515151522,-3.484848484848485 0.050505050505051545,-3.484848484848485 -0.05050505050505001,-3.484848484848485 -0.15151515151515066,-3.484848484848485 -0.2525252525252522,-3.484848484848485 -0.35353535353535287,-3.484848484848485 -0.4545454545454544,-3.484848484848485 -0.555555555555555,-3.484848484848485 -0.6565656565656557,-3.484848484848485 -0.7575757575757572,-3.484848484848485 -0.8585858585858579,-3.484848484848485 -0.9595959595959596,-3.484848484848485 -1.0606060606060603,-3.484848484848485 -1.1616161616161613,-3.484848484848485 -1.2626262626262625,-3.484848484848485 -1.363636363636363,-3.484848484848485 -1.4646464646464643,-3.484848484848485 -1.5656565656565653,-3.484848484848485 -1.6666666666666665,-3.484848484848485 -1.7676767676767675,-3.484848484848485 -1.8686868686868683,-3.484848484848485 -1.9696969696969693,-3.484848484848485 -2.07070707070707,-3.484848484848485 -2.1717171717171713,-3.484848484848485 -2.2727272727272725,-3.484848484848485 -2.3737373737373733,-3.484848484848485 -2.474747474747474,-3.484848484848485 -2.5757575757575752,-3.484848484848485 -2.6767676767676765,-3.484848484848485 -2.7777777777777777,-3.484848484848485 -2.8787878787878785,-3.484848484848485 -2.9797979797979792,-3.484848484848485 -3.0808080808080804,-3.484848484848485 -3.1818181818181817,-3.484848484848485 -3.2828282828282824,-3.484848484848485 -3.383838383838383,-3.484848484848485 -3.484848484848485,-3.484848484848485 -3.5858585858585856,-3.484848484848485 -3.6868686868686864,-3.484848484848485 -3.7878787878787876,-3.484848484848485 -3.8888888888888884,-3.484848484848485 -3.98989898989899,-3.484848484848485 -4.090909090909091,-3.484848484848485 -4.191919191919193,-3.484848484848485 -4.292929292929293,-3.484848484848485 -4.393939393939394,-3.484848484848485 -4.494949494949496,-3.484848484848485 -4.595959595959596,-3.484848484848485 -4.696969696969697,-3.484848484848485 -4.7979797979797985,-3.484848484848485 -4.898989898989899,-3.484848484848485 -5.000000000000001,-3.484848484848485" data-type="line" data-label="" points="984,888.6464646464647 974.4646464646464,879.1111111111111 964.9292929292927,869.5757575757575 955.3939393939393,869.5757575757575 945.8585858585857,869.5757575757575 936.3232323232323,869.5757575757575 926.7878787878785,869.5757575757575 917.2525252525251,869.5757575757575 907.7171717171716,869.5757575757575 898.181818181818,869.5757575757575 888.6464646464647,860.0404040404039 879.111111111111,850.5050505050505 869.5757575757575,840.969696969697 860.0404040404039,840.969696969697 850.5050505050505,840.969696969697 840.969696969697,840.969696969697 831.4343434343433,840.969696969697 821.8989898989898,840.969696969697 812.3636363636363,840.969696969697 802.8282828282828,840.969696969697 793.2929292929292,840.969696969697 783.7575757575758,840.969696969697 774.2222222222222,840.969696969697 764.6868686868686,840.969696969697 755.1515151515151,840.969696969697 745.6161616161615,840.969696969697 736.0808080808081,840.969696969697 726.5454545454545,840.969696969697 717.0101010101009,840.969696969697 707.4747474747475,840.969696969697 697.9393939393939,840.969696969697 688.4040404040404,840.969696969697 678.8686868686868,840.969696969697 669.3333333333333,840.969696969697 659.7979797979798,840.969696969697 650.2626262626262,840.969696969697 640.7272727272727,840.969696969697 631.1919191919192,840.969696969697 621.6565656565656,840.969696969697 612.1212121212121,840.969696969697 602.5858585858585,840.969696969697 593.0505050505051,840.969696969697 583.5151515151515,840.969696969697 573.9797979797979,840.969696969697 564.4444444444445,840.969696969697 554.9090909090909,840.969696969697 545.3737373737374,840.969696969697 535.8383838383838,840.969696969697 526.3030303030303,840.969696969697 516.7676767676768,840.969696969697 507.2323232323232,840.969696969697 497.69696969696975,840.969696969697 488.16161616161617,840.969696969697 478.62626262626264,840.969696969697 469.09090909090907,840.969696969697 459.55555555555554,840.969696969697 450.0202020202021,840.969696969697 440.4848484848485,840.969696969697 430.949494949495,840.969696969697 421.4141414141414,840.969696969697 411.8787878787879,840.969696969697 402.34343434343435,840.969696969697 392.80808080808083,840.969696969697 383.2727272727273,840.969696969697 373.7373737373738,840.969696969697 364.2020202020202,840.969696969697 354.6666666666667,840.969696969697 345.13131313131316,840.969696969697 335.59595959595964,840.969696969697 326.0606060606061,840.969696969697 316.5252525252526,840.969696969697 306.9898989898991,840.969696969697 297.4545454545455,840.969696969697 287.91919191919203,840.969696969697 278.38383838383845,840.969696969697 268.84848484848493,840.969696969697 259.3131313131314,840.969696969697 249.77777777777783,840.969696969697 240.2424242424243,840.969696969697 230.70707070707084,840.969696969697 221.17171717171726,840.969696969697 211.63636363636374,840.969696969697 202.10101010101022,840.969696969697 192.5656565656567,840.969696969697 183.03030303030312,840.969696969697 173.4949494949496,840.969696969697 163.95959595959607,840.969696969697 154.42424242424255,840.969696969697 144.88888888888903,840.969696969697 135.35353535353545,840.969696969697 125.81818181818193,840.969696969697 116.28282828282829,840.969696969697 106.74747474747483,840.969696969697 97.21212121212136,840.969696969697 87.67676767676772,840.969696969697 78.14141414141426,840.969696969697 68.60606060606068,840.969696969697 59.07070707070716,840.969696969697 49.53535353535369,840.969696969697 40.00000000000006,840.969696969697" fill="none" stroke="rgba(0,0,255,0.75)" stroke-width="11.327999999999996"/></g><g><polyline data-points="4.191919191919193,-5.000000000000001 4.090909090909092,-4.898989898989899 3.989898989898992,-4.7979797979797985 3.8888888888888893,-4.696969696969697 3.7878787878787885,-4.595959595959596 3.6868686868686877,-4.494949494949496 3.5858585858585874,-4.393939393939394 3.4848484848484866,-4.292929292929293 3.4848484848484866,-4.191919191919193 3.383838383838384,-4.090909090909091 3.2828282828282833,-3.98989898989899 3.181818181818183,-3.8888888888888884" data-type="line" data-label="" points="907.7171717171716,984 898.181818181818,974.4646464646464 888.6464646464647,964.9292929292928 879.111111111111,955.3939393939394 869.5757575757575,945.8585858585858 860.0404040404039,936.3232323232323 850.5050505050505,926.7878787878788 840.969696969697,917.2525252525252 840.969696969697,907.7171717171718 831.4343434343433,898.1818181818181 821.8989898989898,888.6464646464647 812.3636363636363,879.1111111111111" fill="none" stroke="rgba(0,0,255,0.75)" stroke-width="11.327999999999996"/></g><g><polyline data-points="3.181818181818183,-3.8888888888888884 3.080808080808082,-3.7878787878787876 2.9797979797979806,-3.6868686868686864 2.87878787878788,-3.5858585858585856 2.7777777777777786,-3.484848484848485 2.676767676767678,-3.383838383838383 2.575757575757577,-3.2828282828282824 2.4747474747474754,-3.1818181818181817 2.373737373737375,-3.0808080808080804 2.2727272727272734,-2.9797979797979792 2.1717171717171726,-2.8787878787878785 2.070707070707072,-2.7777777777777777 2.070707070707072,-2.6767676767676765 2.070707070707072,-2.5757575757575752 2.070707070707072,-2.474747474747474 2.070707070707072,-2.3737373737373733 2.070707070707072,-2.2727272727272725 2.070707070707072,-2.1717171717171713 2.070707070707072,-2.07070707070707 2.070707070707072,-1.9696969696969693 2.070707070707072,-1.8686868686868683 2.070707070707072,-1.7676767676767675 2.070707070707072,-1.6666666666666665 2.070707070707072,-1.5656565656565653 2.070707070707072,-1.4646464646464643 2.070707070707072,-1.363636363636363 2.070707070707072,-1.2626262626262625 2.070707070707072,-1.1616161616161613 2.070707070707072,-1.0606060606060603 2.070707070707072,-0.9595959595959596 2.070707070707072,-0.8585858585858579 2.070707070707072,-0.7575757575757572 2.070707070707072,-0.6565656565656557 2.070707070707072,-0.555555555555555 2.070707070707072,-0.4545454545454544 2.070707070707072,-0.35353535353535287 2.070707070707072,-0.2525252525252522 2.070707070707072,-0.15151515151515066 2.070707070707072,-0.05050505050505001 2.070707070707072,0.050505050505051545 2.070707070707072,0.1515151515151522 2.070707070707072,0.2525252525252529 2.070707070707072,0.3535353535353544 2.070707070707072,0.4545454545454551 2.070707070707072,0.5555555555555567 2.070707070707072,0.6565656565656574 2.070707070707072,0.7575757575757579 2.070707070707072,0.8585858585858596 2.070707070707072,0.9595959595959602 2.070707070707072,1.0606060606060617 2.070707070707072,1.1616161616161622 2.070707070707072,1.262626262626263 2.070707070707072,1.3636363636363644 2.070707070707072,1.4646464646464652 2.070707070707072,1.5656565656565666 2.070707070707072,1.6666666666666674 2.070707070707072,1.767676767676768 2.070707070707072,1.8686868686868696 2.070707070707072,1.9696969696969702 2.070707070707072,2.070707070707072 2.070707070707072,2.1717171717171726 2.070707070707072,2.2727272727272734 2.070707070707072,2.373737373737375 2.070707070707072,2.4747474747474754 2.070707070707072,2.575757575757577 2.070707070707072,2.676767676767678 2.070707070707072,2.7777777777777786 2.070707070707072,2.87878787878788 2.070707070707072,2.9797979797979806 2.070707070707072,3.080808080808082 2.070707070707072,3.181818181818183 2.070707070707072,3.2828282828282833 2.070707070707072,3.383838383838384 2.070707070707072,3.4848484848484866 2.070707070707072,3.5858585858585874 2.070707070707072,3.6868686868686877 2.070707070707072,3.7878787878787885 2.070707070707072,3.8888888888888893 2.070707070707072,3.989898989898992" data-type="line" data-label="" points="812.3636363636363,879.1111111111111 802.8282828282828,869.5757575757575 793.2929292929292,860.0404040404039 783.7575757575758,850.5050505050505 774.2222222222222,840.969696969697 764.6868686868686,831.4343434343434 755.1515151515151,821.8989898989898 745.6161616161615,812.3636363636363 736.0808080808081,802.8282828282828 726.5454545454545,793.2929292929292 717.0101010101009,783.7575757575758 707.4747474747475,774.2222222222222 707.4747474747475,764.6868686868687 707.4747474747475,755.1515151515151 707.4747474747475,745.6161616161615 707.4747474747475,736.0808080808081 707.4747474747475,726.5454545454545 707.4747474747475,717.010101010101 707.4747474747475,707.4747474747475 707.4747474747475,697.939393939394 707.4747474747475,688.4040404040404 707.4747474747475,678.8686868686868 707.4747474747475,669.3333333333334 707.4747474747475,659.7979797979798 707.4747474747475,650.2626262626263 707.4747474747475,640.7272727272727 707.4747474747475,631.1919191919193 707.4747474747475,621.6565656565657 707.4747474747475,612.1212121212121 707.4747474747475,602.5858585858587 707.4747474747475,593.0505050505051 707.4747474747475,583.5151515151516 707.4747474747475,573.979797979798 707.4747474747475,564.4444444444445 707.4747474747475,554.909090909091 707.4747474747475,545.3737373737374 707.4747474747475,535.838383838384 707.4747474747475,526.3030303030304 707.4747474747475,516.7676767676768 707.4747474747475,507.23232323232327 707.4747474747475,497.69696969696975 707.4747474747475,488.1616161616163 707.4747474747475,478.6262626262627 707.4747474747475,469.0909090909092 707.4747474747475,459.5555555555556 707.4747474747475,450.0202020202021 707.4747474747475,440.4848484848486 707.4747474747475,430.94949494949503 707.4747474747475,421.4141414141415 707.4747474747475,411.87878787878793 707.4747474747475,402.3434343434344 707.4747474747475,392.80808080808094 707.4747474747475,383.27272727272737 707.4747474747475,373.73737373737384 707.4747474747475,364.2020202020203 707.4747474747475,354.66666666666674 707.4747474747475,345.1313131313133 707.4747474747475,335.5959595959597 707.4747474747475,326.06060606060623 707.4747474747475,316.5252525252526 707.4747474747475,306.9898989898991 707.4747474747475,297.4545454545456 707.4747474747475,287.91919191919203 707.4747474747475,278.38383838383857 707.4747474747475,268.84848484848493 707.4747474747475,259.3131313131314 707.4747474747475,249.77777777777794 707.4747474747475,240.24242424242436 707.4747474747475,230.70707070707084 707.4747474747475,221.17171717171726 707.4747474747475,211.63636363636374 707.4747474747475,202.10101010101027 707.4747474747475,192.56565656565675 707.4747474747475,183.03030303030312 707.4747474747475,173.4949494949496 707.4747474747475,163.95959595959613 707.4747474747475,154.4242424242426 707.4747474747475,144.88888888888908 707.4747474747475,135.35353535353545" fill="none" stroke="rgba(255,0,0,0.75)" stroke-width="11.327999999999996"/></g><g><polyline data-points="2.070707070707072,3.989898989898992 2.070707070707072,4.090909090909092 2.070707070707072,4.191919191919193 2.070707070707072,4.292929292929293 2.070707070707072,4.393939393939394 2.070707070707072,4.494949494949497 2.070707070707072,4.595959595959597 2.070707070707072,4.696969696969697 2.070707070707072,4.7979797979797985 2.070707070707072,4.898989898989901 2.070707070707072,5.000000000000002" data-type="line" data-label="" points="707.4747474747475,135.35353535353545 707.4747474747475,125.81818181818198 707.4747474747475,116.28282828282846 707.4747474747475,106.747474747475 707.4747474747475,97.21212121212153 707.4747474747475,87.67676767676778 707.4747474747475,78.14141414141432 707.4747474747475,68.60606060606085 707.4747474747475,59.07070707070733 707.4747474747475,49.53535353535369 707.4747474747475,40.000000000000114" fill="none" stroke="rgba(0,0,255,0.75)" stroke-width="11.327999999999996"/></g><g><polyline data-points="5.000000000000002,3.5858585858585874 5.000000000000002,3.4848484848484866 5.000000000000002,3.383838383838384 5.000000000000002,3.2828282828282833 5.000000000000002,3.181818181818183 5.000000000000002,3.080808080808082 5.000000000000002,2.9797979797979806 5.000000000000002,2.87878787878788 5.000000000000002,2.7777777777777786 5.000000000000002,2.676767676767678 5.000000000000002,2.575757575757577 5.000000000000002,2.4747474747474754 5.000000000000002,2.373737373737375 5.000000000000002,2.2727272727272734 5.000000000000002,2.1717171717171726 5.000000000000002,2.070707070707072 5.000000000000002,1.9696969696969702 5.000000000000002,1.8686868686868696 5.000000000000002,1.767676767676768 5.000000000000002,1.6666666666666674 5.000000000000002,1.5656565656565666 5.000000000000002,1.4646464646464652 5.000000000000002,1.3636363636363644 5.000000000000002,1.262626262626263 5.000000000000002,1.1616161616161622 5.000000000000002,1.0606060606060617 5.000000000000002,0.9595959595959602 5.000000000000002,0.8585858585858596 5.000000000000002,0.7575757575757579 5.000000000000002,0.6565656565656574 5.000000000000002,0.5555555555555567 5.000000000000002,0.4545454545454551 5.000000000000002,0.3535353535353544 5.000000000000002,0.2525252525252529 5.000000000000002,0.1515151515151522 5.000000000000002,0.050505050505051545 5.000000000000002,-0.05050505050505001 5.000000000000002,-0.15151515151515066 5.000000000000002,-0.2525252525252522 5.000000000000002,-0.35353535353535287 5.000000000000002,-0.4545454545454544 5.000000000000002,-0.555555555555555 5.000000000000002,-0.6565656565656557 5.000000000000002,-0.7575757575757572 5.000000000000002,-0.8585858585858579 5.000000000000002,-0.9595959595959596 5.000000000000002,-1.0606060606060603 5.000000000000002,-1.1616161616161613 5.000000000000002,-1.2626262626262625 5.000000000000002,-1.363636363636363 5.000000000000002,-1.4646464646464643 5.000000000000002,-1.5656565656565653 5.000000000000002,-1.6666666666666665 5.000000000000002,-1.7676767676767675" data-type="line" data-label="" points="984,173.4949494949496 984,183.03030303030312 984,192.56565656565675 984,202.10101010101027 984,211.63636363636374 984,221.17171717171726 984,230.70707070707084 984,240.24242424242436 984,249.77777777777794 984,259.3131313131314 984,268.84848484848493 984,278.38383838383857 984,287.91919191919203 984,297.4545454545456 984,306.9898989898991 984,316.5252525252526 984,326.06060606060623 984,335.5959595959597 984,345.1313131313133 984,354.66666666666674 984,364.2020202020203 984,373.73737373737384 984,383.27272727272737 984,392.80808080808094 984,402.3434343434344 984,411.87878787878793 984,421.4141414141415 984,430.94949494949503 984,440.4848484848486 984,450.0202020202021 984,459.5555555555556 984,469.0909090909092 984,478.6262626262627 984,488.1616161616163 984,497.69696969696975 984,507.23232323232327 984,516.7676767676768 984,526.3030303030304 984,535.838383838384 984,545.3737373737374 984,554.909090909091 984,564.4444444444445 984,573.979797979798 984,583.5151515151516 984,593.0505050505051 984,602.5858585858587 984,612.1212121212121 984,621.6565656565657 984,631.1919191919193 984,640.7272727272727 984,650.2626262626263 984,659.7979797979798 984,669.3333333333334 984,678.8686868686868" fill="none" stroke="rgba(0,0,255,0.75)" stroke-width="11.327999999999996"/></g><g><polyline data-points="1.5656565656565666,-5.000000000000001 1.4646464646464652,-4.898989898989899 1.3636363636363644,-4.7979797979797985 1.262626262626263,-4.696969696969697 1.1616161616161622,-4.595959595959596 1.0606060606060617,-4.494949494949496 0.9595959595959602,-4.393939393939394 0.8585858585858596,-4.292929292929293 0.7575757575757579,-4.191919191919193 0.6565656565656574,-4.090909090909091 0.5555555555555567,-3.98989898989899 0.4545454545454551,-3.8888888888888884 0.3535353535353544,-3.8888888888888884 0.2525252525252529,-3.8888888888888884 0.1515151515151522,-3.8888888888888884 0.050505050505051545,-3.8888888888888884 -0.05050505050505001,-3.8888888888888884 -0.15151515151515066,-3.8888888888888884 -0.2525252525252522,-3.8888888888888884 -0.35353535353535287,-3.8888888888888884 -0.4545454545454544,-3.8888888888888884 -0.555555555555555,-3.8888888888888884 -0.6565656565656557,-3.8888888888888884 -0.7575757575757572,-3.8888888888888884 -0.8585858585858579,-3.8888888888888884 -0.9595959595959596,-3.8888888888888884 -1.0606060606060603,-3.8888888888888884 -1.1616161616161613,-3.8888888888888884 -1.2626262626262625,-3.8888888888888884 -1.363636363636363,-3.8888888888888884 -1.4646464646464643,-3.8888888888888884 -1.5656565656565653,-3.8888888888888884 -1.6666666666666665,-3.8888888888888884 -1.7676767676767675,-3.8888888888888884 -1.8686868686868683,-3.8888888888888884 -1.9696969696969693,-3.8888888888888884 -2.07070707070707,-3.8888888888888884 -2.1717171717171713,-3.8888888888888884 -2.2727272727272725,-3.8888888888888884 -2.3737373737373733,-3.8888888888888884" data-type="line" data-label="" points="659.7979797979798,984 650.2626262626262,974.4646464646464 640.7272727272727,964.9292929292928 631.1919191919192,955.3939393939394 621.6565656565656,945.8585858585858 612.1212121212121,936.3232323232323 602.5858585858585,926.7878787878788 593.0505050505051,917.2525252525252 583.5151515151515,907.7171717171718 573.9797979797979,898.1818181818181 564.4444444444445,888.6464646464647 554.9090909090909,879.1111111111111 545.3737373737374,879.1111111111111 535.8383838383838,879.1111111111111 526.3030303030303,879.1111111111111 516.7676767676768,879.1111111111111 507.2323232323232,879.1111111111111 497.69696969696975,879.1111111111111 488.16161616161617,879.1111111111111 478.62626262626264,879.1111111111111 469.09090909090907,879.1111111111111 459.55555555555554,879.1111111111111 450.0202020202021,879.1111111111111 440.4848484848485,879.1111111111111 430.949494949495,879.1111111111111 421.4141414141414,879.1111111111111 411.8787878787879,879.1111111111111 402.34343434343435,879.1111111111111 392.80808080808083,879.1111111111111 383.2727272727273,879.1111111111111 373.7373737373738,879.1111111111111 364.2020202020202,879.1111111111111 354.6666666666667,879.1111111111111 345.13131313131316,879.1111111111111 335.59595959595964,879.1111111111111 326.0606060606061,879.1111111111111 316.5252525252526,879.1111111111111 306.9898989898991,879.1111111111111 297.4545454545455,879.1111111111111 287.91919191919203,879.1111111111111" fill="none" stroke="rgba(0,0,255,0.75)" stroke-width="11.327999999999996"/></g><g><polyline data-points="-2.3737373737373733,-3.8888888888888884 -2.474747474747474,-3.7878787878787876 -2.5757575757575752,-3.6868686868686864 -2.6767676767676765,-3.5858585858585856 -2.6767676767676765,-3.484848484848485 -2.6767676767676765,-3.383838383838383 -2.6767676767676765,-3.2828282828282824 -2.6767676767676765,-3.1818181818181817 -2.6767676767676765,-3.0808080808080804 -2.6767676767676765,-2.9797979797979792 -2.6767676767676765,-2.8787878787878785 -2.6767676767676765,-2.7777777777777777 -2.6767676767676765,-2.6767676767676765 -2.6767676767676765,-2.5757575757575752 -2.6767676767676765,-2.474747474747474 -2.6767676767676765,-2.3737373737373733 -2.6767676767676765,-2.2727272727272725 -2.6767676767676765,-2.1717171717171713 -2.6767676767676765,-2.07070707070707 -2.6767676767676765,-1.9696969696969693 -2.6767676767676765,-1.8686868686868683 -2.6767676767676765,-1.7676767676767675 -2.6767676767676765,-1.6666666666666665 -2.6767676767676765,-1.5656565656565653 -2.6767676767676765,-1.4646464646464643 -2.6767676767676765,-1.363636363636363 -2.6767676767676765,-1.2626262626262625 -2.6767676767676765,-1.1616161616161613 -2.6767676767676765,-1.0606060606060603 -2.6767676767676765,-0.9595959595959596 -2.6767676767676765,-0.8585858585858579 -2.6767676767676765,-0.7575757575757572 -2.6767676767676765,-0.6565656565656557 -2.6767676767676765,-0.555555555555555 -2.6767676767676765,-0.4545454545454544 -2.6767676767676765,-0.35353535353535287 -2.6767676767676765,-0.2525252525252522 -2.6767676767676765,-0.15151515151515066 -2.6767676767676765,-0.05050505050505001 -2.6767676767676765,0.050505050505051545 -2.6767676767676765,0.1515151515151522 -2.6767676767676765,0.2525252525252529 -2.6767676767676765,0.3535353535353544 -2.6767676767676765,0.4545454545454551 -2.6767676767676765,0.5555555555555567 -2.6767676767676765,0.6565656565656574 -2.6767676767676765,0.7575757575757579 -2.6767676767676765,0.8585858585858596 -2.6767676767676765,0.9595959595959602 -2.6767676767676765,1.0606060606060617 -2.6767676767676765,1.1616161616161622 -2.6767676767676765,1.262626262626263 -2.6767676767676765,1.3636363636363644 -2.6767676767676765,1.4646464646464652 -2.6767676767676765,1.5656565656565666 -2.6767676767676765,1.6666666666666674 -2.6767676767676765,1.767676767676768 -2.6767676767676765,1.8686868686868696 -2.6767676767676765,1.9696969696969702 -2.6767676767676765,2.070707070707072 -2.6767676767676765,2.1717171717171726 -2.6767676767676765,2.2727272727272734 -2.6767676767676765,2.373737373737375 -2.6767676767676765,2.4747474747474754 -2.6767676767676765,2.575757575757577 -2.6767676767676765,2.676767676767678 -2.6767676767676765,2.7777777777777786 -2.6767676767676765,2.87878787878788 -2.6767676767676765,2.9797979797979806 -2.6767676767676765,3.080808080808082 -2.6767676767676765,3.181818181818183 -2.6767676767676765,3.2828282828282833 -2.6767676767676765,3.383838383838384 -2.6767676767676765,3.4848484848484866 -2.6767676767676765,3.5858585858585874 -2.6767676767676765,3.6868686868686877 -2.6767676767676765,3.7878787878787885 -2.6767676767676765,3.8888888888888893 -2.6767676767676765,3.989898989898992" data-type="line" data-label="" points="287.91919191919203,879.1111111111111 278.38383838383845,869.5757575757575 268.84848484848493,860.0404040404039 259.3131313131314,850.5050505050505 259.3131313131314,840.969696969697 259.3131313131314,831.4343434343434 259.3131313131314,821.8989898989898 259.3131313131314,812.3636363636363 259.3131313131314,802.8282828282828 259.3131313131314,793.2929292929292 259.3131313131314,783.7575757575758 259.3131313131314,774.2222222222222 259.3131313131314,764.6868686868687 259.3131313131314,755.1515151515151 259.3131313131314,745.6161616161615 259.3131313131314,736.0808080808081 259.3131313131314,726.5454545454545 259.3131313131314,717.010101010101 259.3131313131314,707.4747474747475 259.3131313131314,697.939393939394 259.3131313131314,688.4040404040404 259.3131313131314,678.8686868686868 259.3131313131314,669.3333333333334 259.3131313131314,659.7979797979798 259.3131313131314,650.2626262626263 259.3131313131314,640.7272727272727 259.3131313131314,631.1919191919193 259.3131313131314,621.6565656565657 259.3131313131314,612.1212121212121 259.3131313131314,602.5858585858587 259.3131313131314,593.0505050505051 259.3131313131314,583.5151515151516 259.3131313131314,573.979797979798 259.3131313131314,564.4444444444445 259.3131313131314,554.909090909091 259.3131313131314,545.3737373737374 259.3131313131314,535.838383838384 259.3131313131314,526.3030303030304 259.3131313131314,516.7676767676768 259.3131313131314,507.23232323232327 259.3131313131314,497.69696969696975 259.3131313131314,488.1616161616163 259.3131313131314,478.6262626262627 259.3131313131314,469.0909090909092 259.3131313131314,459.5555555555556 259.3131313131314,450.0202020202021 259.3131313131314,440.4848484848486 259.3131313131314,430.94949494949503 259.3131313131314,421.4141414141415 259.3131313131314,411.87878787878793 259.3131313131314,402.3434343434344 259.3131313131314,392.80808080808094 259.3131313131314,383.27272727272737 259.3131313131314,373.73737373737384 259.3131313131314,364.2020202020203 259.3131313131314,354.66666666666674 259.3131313131314,345.1313131313133 259.3131313131314,335.5959595959597 259.3131313131314,326.06060606060623 259.3131313131314,316.5252525252526 259.3131313131314,306.9898989898991 259.3131313131314,297.4545454545456 259.3131313131314,287.91919191919203 259.3131313131314,278.38383838383857 259.3131313131314,268.84848484848493 259.3131313131314,259.3131313131314 259.3131313131314,249.77777777777794 259.3131313131314,240.24242424242436 259.3131313131314,230.70707070707084 259.3131313131314,221.17171717171726 259.3131313131314,211.63636363636374 259.3131313131314,202.10101010101027 259.3131313131314,192.56565656565675 259.3131313131314,183.03030303030312 259.3131313131314,173.4949494949496 259.3131313131314,163.95959595959613 259.3131313131314,154.4242424242426 259.3131313131314,144.88888888888908 259.3131313131314,135.35353535353545" fill="none" stroke="rgba(255,0,0,0.75)" stroke-width="11.327999999999996"/></g><g><polyline data-points="-2.6767676767676765,3.989898989898992 -2.6767676767676765,4.090909090909092 -2.6767676767676765,4.191919191919193 -2.6767676767676765,4.292929292929293 -2.6767676767676765,4.393939393939394 -2.6767676767676765,4.494949494949497 -2.6767676767676765,4.595959595959597 -2.6767676767676765,4.696969696969697 -2.6767676767676765,4.7979797979797985 -2.6767676767676765,4.898989898989901 -2.6767676767676765,5.000000000000002" data-type="line" data-label="" points="259.3131313131314,135.35353535353545 259.3131313131314,125.81818181818198 259.3131313131314,116.28282828282846 259.3131313131314,106.747474747475 259.3131313131314,97.21212121212153 259.3131313131314,87.67676767676778 259.3131313131314,78.14141414141432 259.3131313131314,68.60606060606085 259.3131313131314,59.07070707070733 259.3131313131314,49.53535353535369 259.3131313131314,40.000000000000114" fill="none" stroke="rgba(0,0,255,0.75)" stroke-width="11.327999999999996"/></g><g><polyline data-points="5.000000000000002,-2.5757575757575752 5.000000000000002,-2.6767676767676765 4.898989898989901,-2.7777777777777777 4.7979797979797985,-2.8787878787878785 4.696969696969697,-2.9797979797979792 4.595959595959597,-3.0808080808080804 4.494949494949497,-3.1818181818181817 4.393939393939394,-3.0808080808080804 4.292929292929293,-3.0808080808080804 4.191919191919193,-3.0808080808080804 4.090909090909092,-3.0808080808080804 3.989898989898992,-3.0808080808080804 3.8888888888888893,-3.0808080808080804 3.7878787878787885,-3.0808080808080804 3.6868686868686877,-3.0808080808080804 3.5858585858585874,-3.0808080808080804 3.4848484848484866,-3.0808080808080804 3.383838383838384,-3.0808080808080804 3.2828282828282833,-3.0808080808080804 3.181818181818183,-3.0808080808080804 3.080808080808082,-3.0808080808080804 2.9797979797979806,-3.0808080808080804 2.87878787878788,-3.0808080808080804 2.7777777777777786,-3.0808080808080804 2.676767676767678,-3.0808080808080804 2.575757575757577,-3.0808080808080804 2.4747474747474754,-3.0808080808080804 2.373737373737375,-3.0808080808080804 2.2727272727272734,-3.0808080808080804 2.1717171717171726,-3.0808080808080804 2.070707070707072,-3.0808080808080804 1.9696969696969702,-3.0808080808080804 1.8686868686868696,-3.0808080808080804 1.767676767676768,-3.0808080808080804 1.6666666666666674,-3.0808080808080804 1.5656565656565666,-3.0808080808080804 1.4646464646464652,-3.0808080808080804 1.3636363636363644,-3.0808080808080804 1.262626262626263,-3.0808080808080804 1.1616161616161622,-3.0808080808080804 1.0606060606060617,-3.0808080808080804 0.9595959595959602,-3.0808080808080804 0.8585858585858596,-3.0808080808080804 0.7575757575757579,-3.0808080808080804 0.6565656565656574,-3.0808080808080804 0.5555555555555567,-3.0808080808080804 0.4545454545454551,-3.0808080808080804 0.3535353535353544,-3.0808080808080804 0.2525252525252529,-3.0808080808080804 0.1515151515151522,-3.0808080808080804 0.050505050505051545,-3.0808080808080804 -0.05050505050505001,-3.0808080808080804 -0.15151515151515066,-3.0808080808080804 -0.2525252525252522,-3.0808080808080804 -0.35353535353535287,-3.0808080808080804 -0.4545454545454544,-3.0808080808080804 -0.555555555555555,-3.0808080808080804 -0.6565656565656557,-3.0808080808080804 -0.7575757575757572,-3.0808080808080804 -0.8585858585858579,-3.0808080808080804 -0.9595959595959596,-3.0808080808080804 -1.0606060606060603,-3.0808080808080804 -1.1616161616161613,-3.0808080808080804 -1.2626262626262625,-3.0808080808080804 -1.363636363636363,-3.0808080808080804 -1.4646464646464643,-3.0808080808080804 -1.5656565656565653,-3.0808080808080804 -1.6666666666666665,-3.0808080808080804 -1.7676767676767675,-3.0808080808080804 -1.8686868686868683,-3.0808080808080804 -1.9696969696969693,-3.0808080808080804 -2.07070707070707,-3.0808080808080804 -2.1717171717171713,-3.0808080808080804 -2.2727272727272725,-3.0808080808080804 -2.3737373737373733,-3.0808080808080804 -2.474747474747474,-3.0808080808080804 -2.5757575757575752,-3.0808080808080804 -2.6767676767676765,-3.0808080808080804 -2.7777777777777777,-3.0808080808080804 -2.8787878787878785,-3.0808080808080804 -2.9797979797979792,-3.0808080808080804 -3.0808080808080804,-3.0808080808080804" data-type="line" data-label="" points="984,755.1515151515151 984,764.6868686868687 974.4646464646464,774.2222222222222 964.9292929292927,783.7575757575758 955.3939393939393,793.2929292929292 945.8585858585857,802.8282828282828 936.3232323232323,812.3636363636363 926.7878787878785,802.8282828282828 917.2525252525251,802.8282828282828 907.7171717171716,802.8282828282828 898.181818181818,802.8282828282828 888.6464646464647,802.8282828282828 879.111111111111,802.8282828282828 869.5757575757575,802.8282828282828 860.0404040404039,802.8282828282828 850.5050505050505,802.8282828282828 840.969696969697,802.8282828282828 831.4343434343433,802.8282828282828 821.8989898989898,802.8282828282828 812.3636363636363,802.8282828282828 802.8282828282828,802.8282828282828 793.2929292929292,802.8282828282828 783.7575757575758,802.8282828282828 774.2222222222222,802.8282828282828 764.6868686868686,802.8282828282828 755.1515151515151,802.8282828282828 745.6161616161615,802.8282828282828 736.0808080808081,802.8282828282828 726.5454545454545,802.8282828282828 717.0101010101009,802.8282828282828 707.4747474747475,802.8282828282828 697.9393939393939,802.8282828282828 688.4040404040404,802.8282828282828 678.8686868686868,802.8282828282828 669.3333333333333,802.8282828282828 659.7979797979798,802.8282828282828 650.2626262626262,802.8282828282828 640.7272727272727,802.8282828282828 631.1919191919192,802.8282828282828 621.6565656565656,802.8282828282828 612.1212121212121,802.8282828282828 602.5858585858585,802.8282828282828 593.0505050505051,802.8282828282828 583.5151515151515,802.8282828282828 573.9797979797979,802.8282828282828 564.4444444444445,802.8282828282828 554.9090909090909,802.8282828282828 545.3737373737374,802.8282828282828 535.8383838383838,802.8282828282828 526.3030303030303,802.8282828282828 516.7676767676768,802.8282828282828 507.2323232323232,802.8282828282828 497.69696969696975,802.8282828282828 488.16161616161617,802.8282828282828 478.62626262626264,802.8282828282828 469.09090909090907,802.8282828282828 459.55555555555554,802.8282828282828 450.0202020202021,802.8282828282828 440.4848484848485,802.8282828282828 430.949494949495,802.8282828282828 421.4141414141414,802.8282828282828 411.8787878787879,802.8282828282828 402.34343434343435,802.8282828282828 392.80808080808083,802.8282828282828 383.2727272727273,802.8282828282828 373.7373737373738,802.8282828282828 364.2020202020202,802.8282828282828 354.6666666666667,802.8282828282828 345.13131313131316,802.8282828282828 335.59595959595964,802.8282828282828 326.0606060606061,802.8282828282828 316.5252525252526,802.8282828282828 306.9898989898991,802.8282828282828 297.4545454545455,802.8282828282828 287.91919191919203,802.8282828282828 278.38383838383845,802.8282828282828 268.84848484848493,802.8282828282828 259.3131313131314,802.8282828282828 249.77777777777783,802.8282828282828 240.2424242424243,802.8282828282828 230.70707070707084,802.8282828282828 221.17171717171726,802.8282828282828" fill="none" stroke="rgba(0,0,255,0.75)" stroke-width="11.327999999999996"/></g><g><polyline data-points="-3.0808080808080804,-3.0808080808080804 -3.1818181818181817,-3.1818181818181817 -3.2828282828282824,-3.2828282828282824 -3.2828282828282824,-3.383838383838383 -3.2828282828282824,-3.484848484848485 -3.2828282828282824,-3.5858585858585856 -3.2828282828282824,-3.6868686868686864 -3.2828282828282824,-3.7878787878787876 -3.2828282828282824,-3.8888888888888884" data-type="line" data-label="" points="221.17171717171726,802.8282828282828 211.63636363636374,812.3636363636363 202.10101010101022,821.8989898989898 202.10101010101022,831.4343434343434 202.10101010101022,840.969696969697 202.10101010101022,850.5050505050505 202.10101010101022,860.0404040404039 202.10101010101022,869.5757575757575 202.10101010101022,879.1111111111111" fill="none" stroke="rgba(255,0,0,0.75)" stroke-width="11.327999999999996"/></g><g><polyline data-points="-3.2828282828282824,-3.8888888888888884 -3.383838383838383,-3.98989898989899 -3.484848484848485,-4.090909090909091 -3.5858585858585856,-4.191919191919193 -3.6868686868686864,-4.292929292929293 -3.7878787878787876,-4.292929292929293 -3.8888888888888884,-4.292929292929293 -3.98989898989899,-4.292929292929293 -4.090909090909091,-4.292929292929293 -4.191919191919193,-4.292929292929293 -4.292929292929293,-4.292929292929293 -4.393939393939394,-4.292929292929293 -4.494949494949496,-4.292929292929293 -4.595959595959596,-4.292929292929293 -4.696969696969697,-4.292929292929293 -4.7979797979797985,-4.292929292929293 -4.898989898989899,-4.292929292929293 -5.000000000000001,-4.191919191919193" data-type="line" data-label="" points="202.10101010101022,879.1111111111111 192.5656565656567,888.6464646464647 183.03030303030312,898.1818181818181 173.4949494949496,907.7171717171718 163.95959595959607,917.2525252525252 154.42424242424255,917.2525252525252 144.88888888888903,917.2525252525252 135.35353535353545,917.2525252525252 125.81818181818193,917.2525252525252 116.28282828282829,917.2525252525252 106.74747474747483,917.2525252525252 97.21212121212136,917.2525252525252 87.67676767676772,917.2525252525252 78.14141414141426,917.2525252525252 68.60606060606068,917.2525252525252 59.07070707070716,917.2525252525252 49.53535353535369,917.2525252525252 40.00000000000006,907.7171717171718" fill="none" stroke="rgba(0,0,255,0.75)" stroke-width="11.327999999999996"/></g><g><polyline data-points="-5.000000000000001,-1.2626262626262625 -4.898989898989899,-1.363636363636363 -4.7979797979797985,-1.363636363636363 -4.696969696969697,-1.363636363636363 -4.595959595959596,-1.363636363636363 -4.494949494949496,-1.4646464646464643 -4.393939393939394,-1.5656565656565653 -4.292929292929293,-1.6666666666666665 -4.191919191919193,-1.7676767676767675 -4.191919191919193,-1.8686868686868683 -4.191919191919193,-1.9696969696969693 -4.191919191919193,-2.07070707070707 -4.191919191919193,-2.1717171717171713 -4.191919191919193,-2.2727272727272725 -4.191919191919193,-2.3737373737373733 -4.191919191919193,-2.474747474747474 -4.191919191919193,-2.5757575757575752 -4.191919191919193,-2.6767676767676765 -4.191919191919193,-2.7777777777777777 -4.191919191919193,-2.8787878787878785 -4.191919191919193,-2.9797979797979792 -4.191919191919193,-3.0808080808080804 -4.191919191919193,-3.1818181818181817 -4.191919191919193,-3.2828282828282824 -4.191919191919193,-3.383838383838383 -4.191919191919193,-3.484848484848485 -4.191919191919193,-3.5858585858585856 -4.090909090909091,-3.6868686868686864 -3.98989898989899,-3.7878787878787876 -3.8888888888888884,-3.8888888888888884" data-type="line" data-label="" points="40.00000000000006,631.1919191919193 49.53535353535369,640.7272727272727 59.07070707070716,640.7272727272727 68.60606060606068,640.7272727272727 78.14141414141426,640.7272727272727 87.67676767676772,650.2626262626263 97.21212121212136,659.7979797979798 106.74747474747483,669.3333333333334 116.28282828282829,678.8686868686868 116.28282828282829,688.4040404040404 116.28282828282829,697.939393939394 116.28282828282829,707.4747474747475 116.28282828282829,717.010101010101 116.28282828282829,726.5454545454545 116.28282828282829,736.0808080808081 116.28282828282829,745.6161616161615 116.28282828282829,755.1515151515151 116.28282828282829,764.6868686868687 116.28282828282829,774.2222222222222 116.28282828282829,783.7575757575758 116.28282828282829,793.2929292929292 116.28282828282829,802.8282828282828 116.28282828282829,812.3636363636363 116.28282828282829,821.8989898989898 116.28282828282829,831.4343434343434 116.28282828282829,840.969696969697 116.28282828282829,850.5050505050505 125.81818181818193,860.0404040404039 135.35353535353545,869.5757575757575 144.88888888888903,879.1111111111111" fill="none" stroke="rgba(255,0,0,0.75)" stroke-width="11.327999999999996"/></g><g><polyline data-points="-3.8888888888888884,-3.8888888888888884 -3.98989898989899,-3.7878787878787876 -4.090909090909091,-3.6868686868686864 -4.191919191919193,-3.6868686868686864 -4.292929292929293,-3.6868686868686864 -4.393939393939394,-3.6868686868686864 -4.494949494949496,-3.6868686868686864 -4.595959595959596,-3.6868686868686864 -4.696969696969697,-3.6868686868686864 -4.7979797979797985,-3.6868686868686864 -4.898989898989899,-3.7878787878787876 -5.000000000000001,-3.8888888888888884" data-type="line" data-label="" points="144.88888888888903,879.1111111111111 135.35353535353545,869.5757575757575 125.81818181818193,860.0404040404039 116.28282828282829,860.0404040404039 106.74747474747483,860.0404040404039 97.21212121212136,860.0404040404039 87.67676767676772,860.0404040404039 78.14141414141426,860.0404040404039 68.60606060606068,860.0404040404039 59.07070707070716,860.0404040404039 49.53535353535369,869.5757575757575 40.00000000000006,879.1111111111111" fill="none" stroke="rgba(0,0,255,0.75)" stroke-width="11.327999999999996"/></g><g><polyline data-points="-5.000000000000001,1.3636363636363644 -4.898989898989899,1.4646464646464652 -4.7979797979797985,1.5656565656565666 -4.696969696969697,1.4646464646464652 -4.595959595959596,1.3636363636363644 -4.494949494949496,1.262626262626263 -4.494949494949496,1.1616161616161622 -4.494949494949496,1.0606060606060617 -4.494949494949496,0.9595959595959602 -4.494949494949496,0.8585858585858596 -4.494949494949496,0.7575757575757579 -4.494949494949496,0.6565656565656574 -4.494949494949496,0.5555555555555567 -4.494949494949496,0.4545454545454551 -4.494949494949496,0.3535353535353544 -4.494949494949496,0.2525252525252529 -4.494949494949496,0.1515151515151522 -4.494949494949496,0.050505050505051545 -4.494949494949496,-0.05050505050505001 -4.494949494949496,-0.15151515151515066 -4.494949494949496,-0.2525252525252522 -4.494949494949496,-0.35353535353535287 -4.494949494949496,-0.4545454545454544 -4.494949494949496,-0.555555555555555 -4.393939393939394,-0.6565656565656557 -4.292929292929293,-0.7575757575757572 -4.191919191919193,-0.8585858585858579 -4.090909090909091,-0.9595959595959596 -4.090909090909091,-1.0606060606060603 -3.98989898989899,-1.1616161616161613 -3.8888888888888884,-1.2626262626262625 -3.7878787878787876,-1.363636363636363 -3.6868686868686864,-1.4646464646464643 -3.5858585858585856,-1.5656565656565653 -3.5858585858585856,-1.6666666666666665 -3.5858585858585856,-1.7676767676767675 -3.5858585858585856,-1.8686868686868683 -3.5858585858585856,-1.9696969696969693 -3.5858585858585856,-2.07070707070707 -3.5858585858585856,-2.1717171717171713 -3.5858585858585856,-2.2727272727272725 -3.5858585858585856,-2.3737373737373733 -3.5858585858585856,-2.474747474747474 -3.5858585858585856,-2.5757575757575752 -3.5858585858585856,-2.6767676767676765 -3.5858585858585856,-2.7777777777777777 -3.5858585858585856,-2.8787878787878785 -3.5858585858585856,-2.9797979797979792 -3.5858585858585856,-3.0808080808080804 -3.5858585858585856,-3.1818181818181817 -3.5858585858585856,-3.2828282828282824 -3.5858585858585856,-3.383838383838383 -3.5858585858585856,-3.484848484848485 -3.484848484848485,-3.5858585858585856 -3.484848484848485,-3.6868686868686864 -3.5858585858585856,-3.7878787878787876 -3.5858585858585856,-3.8888888888888884 -3.6868686868686864,-3.98989898989899 -3.7878787878787876,-4.090909090909091 -3.8888888888888884,-4.191919191919193 -3.98989898989899,-4.292929292929293 -4.090909090909091,-4.292929292929293 -4.191919191919193,-4.292929292929293 -4.292929292929293,-4.292929292929293 -4.393939393939394,-4.292929292929293 -4.494949494949496,-4.292929292929293 -4.595959595959596,-4.292929292929293 -4.696969696969697,-4.292929292929293 -4.7979797979797985,-4.292929292929293 -4.898989898989899,-4.393939393939394 -5.000000000000001,-4.292929292929293 -5.000000000000001,-4.191919191919193" data-type="line" data-label="" points="40.00000000000006,383.27272727272737 49.53535353535369,373.73737373737384 59.07070707070716,364.2020202020203 68.60606060606068,373.73737373737384 78.14141414141426,383.27272727272737 87.67676767676772,392.80808080808094 87.67676767676772,402.3434343434344 87.67676767676772,411.87878787878793 87.67676767676772,421.4141414141415 87.67676767676772,430.94949494949503 87.67676767676772,440.4848484848486 87.67676767676772,450.0202020202021 87.67676767676772,459.5555555555556 87.67676767676772,469.0909090909092 87.67676767676772,478.6262626262627 87.67676767676772,488.1616161616163 87.67676767676772,497.69696969696975 87.67676767676772,507.23232323232327 87.67676767676772,516.7676767676768 87.67676767676772,526.3030303030304 87.67676767676772,535.838383838384 87.67676767676772,545.3737373737374 87.67676767676772,554.909090909091 87.67676767676772,564.4444444444445 97.21212121212136,573.979797979798 106.74747474747483,583.5151515151516 116.28282828282829,593.0505050505051 125.81818181818193,602.5858585858587 125.81818181818193,612.1212121212121 135.35353535353545,621.6565656565657 144.88888888888903,631.1919191919193 154.42424242424255,640.7272727272727 163.95959595959607,650.2626262626263 173.4949494949496,659.7979797979798 173.4949494949496,669.3333333333334 173.4949494949496,678.8686868686868 173.4949494949496,688.4040404040404 173.4949494949496,697.939393939394 173.4949494949496,707.4747474747475 173.4949494949496,717.010101010101 173.4949494949496,726.5454545454545 173.4949494949496,736.0808080808081 173.4949494949496,745.6161616161615 173.4949494949496,755.1515151515151 173.4949494949496,764.6868686868687 173.4949494949496,774.2222222222222 173.4949494949496,783.7575757575758 173.4949494949496,793.2929292929292 173.4949494949496,802.8282828282828 173.4949494949496,812.3636363636363 173.4949494949496,821.8989898989898 173.4949494949496,831.4343434343434 173.4949494949496,840.969696969697 183.03030303030312,850.5050505050505 183.03030303030312,860.0404040404039 173.4949494949496,869.5757575757575 173.4949494949496,879.1111111111111 163.95959595959607,888.6464646464647 154.42424242424255,898.1818181818181 144.88888888888903,907.7171717171718 135.35353535353545,917.2525252525252 125.81818181818193,917.2525252525252 116.28282828282829,917.2525252525252 106.74747474747483,917.2525252525252 97.21212121212136,917.2525252525252 87.67676767676772,917.2525252525252 78.14141414141426,917.2525252525252 68.60606060606068,917.2525252525252 59.07070707070716,917.2525252525252 49.53535353535369,926.7878787878788 40.00000000000006,917.2525252525252 40.00000000000006,907.7171717171718" fill="none" stroke="rgba(255,0,0,0.75)" stroke-width="11.327999999999996"/></g><g><polyline data-points="-3.5858585858585856,-5.000000000000001 -3.484848484848485,-5.000000000000001 -3.383838383838383,-4.898989898989899 -3.2828282828282824,-4.7979797979797985 -3.1818181818181817,-4.696969696969697 -3.0808080808080804,-4.595959595959596 -2.9797979797979792,-4.494949494949496 -2.8787878787878785,-4.393939393939394 -2.7777777777777777,-4.292929292929293 -2.6767676767676765,-4.292929292929293 -2.5757575757575752,-4.292929292929293 -2.474747474747474,-4.292929292929293 -2.3737373737373733,-4.191919191919193 -2.2727272727272725,-4.090909090909091 -2.1717171717171713,-3.98989898989899 -2.07070707070707,-3.8888888888888884 -2.1717171717171713,-3.7878787878787876 -2.2727272727272725,-3.6868686868686864 -2.3737373737373733,-3.5858585858585856 -2.3737373737373733,-3.484848484848485 -2.3737373737373733,-3.383838383838383 -2.3737373737373733,-3.2828282828282824 -2.3737373737373733,-3.1818181818181817 -2.3737373737373733,-3.0808080808080804 -2.3737373737373733,-2.9797979797979792 -2.3737373737373733,-2.8787878787878785 -2.3737373737373733,-2.7777777777777777 -2.3737373737373733,-2.6767676767676765 -2.3737373737373733,-2.5757575757575752 -2.3737373737373733,-2.474747474747474 -2.3737373737373733,-2.3737373737373733 -2.3737373737373733,-2.2727272727272725 -2.3737373737373733,-2.1717171717171713 -2.3737373737373733,-2.07070707070707 -2.3737373737373733,-1.9696969696969693 -2.3737373737373733,-1.8686868686868683 -2.3737373737373733,-1.7676767676767675 -2.3737373737373733,-1.6666666666666665 -2.3737373737373733,-1.5656565656565653 -2.3737373737373733,-1.4646464646464643 -2.3737373737373733,-1.363636363636363 -2.3737373737373733,-1.2626262626262625 -2.3737373737373733,-1.1616161616161613 -2.3737373737373733,-1.0606060606060603 -2.3737373737373733,-0.9595959595959596 -2.3737373737373733,-0.8585858585858579 -2.3737373737373733,-0.7575757575757572 -2.3737373737373733,-0.6565656565656557 -2.3737373737373733,-0.555555555555555 -2.3737373737373733,-0.4545454545454544 -2.3737373737373733,-0.35353535353535287 -2.3737373737373733,-0.2525252525252522 -2.3737373737373733,-0.15151515151515066 -2.3737373737373733,-0.05050505050505001 -2.3737373737373733,0.050505050505051545 -2.3737373737373733,0.1515151515151522 -2.3737373737373733,0.2525252525252529 -2.3737373737373733,0.3535353535353544 -2.3737373737373733,0.4545454545454551 -2.3737373737373733,0.5555555555555567 -2.3737373737373733,0.6565656565656574 -2.3737373737373733,0.7575757575757579 -2.3737373737373733,0.8585858585858596 -2.3737373737373733,0.9595959595959602 -2.3737373737373733,1.0606060606060617 -2.3737373737373733,1.1616161616161622 -2.3737373737373733,1.262626262626263 -2.3737373737373733,1.3636363636363644 -2.3737373737373733,1.4646464646464652 -2.3737373737373733,1.5656565656565666 -2.3737373737373733,1.6666666666666674 -2.3737373737373733,1.767676767676768 -2.3737373737373733,1.8686868686868696 -2.3737373737373733,1.9696969696969702 -2.3737373737373733,2.070707070707072 -2.3737373737373733,2.1717171717171726 -2.3737373737373733,2.2727272727272734 -2.3737373737373733,2.373737373737375 -2.3737373737373733,2.4747474747474754 -2.3737373737373733,2.575757575757577 -2.3737373737373733,2.676767676767678 -2.3737373737373733,2.7777777777777786 -2.3737373737373733,2.87878787878788 -2.3737373737373733,2.9797979797979806 -2.3737373737373733,3.080808080808082 -2.3737373737373733,3.181818181818183 -2.3737373737373733,3.2828282828282833 -2.3737373737373733,3.383838383838384 -2.3737373737373733,3.4848484848484866 -2.3737373737373733,3.5858585858585874 -2.3737373737373733,3.6868686868686877 -2.3737373737373733,3.7878787878787885 -2.3737373737373733,3.8888888888888893 -2.3737373737373733,3.989898989898992 -2.474747474747474,4.090909090909092 -2.5757575757575752,4.191919191919193 -2.6767676767676765,4.292929292929293 -2.7777777777777777,4.393939393939394 -2.8787878787878785,4.494949494949497 -2.9797979797979792,4.595959595959597 -3.0808080808080804,4.696969696969697 -3.1818181818181817,4.7979797979797985 -3.2828282828282824,4.898989898989901 -3.383838383838383,5.000000000000002 -3.484848484848485,5.000000000000002 -3.5858585858585856,5.000000000000002 -3.6868686868686864,5.000000000000002 -3.7878787878787876,5.000000000000002 -3.8888888888888884,5.000000000000002 -3.98989898989899,5.000000000000002" data-type="line" data-label="" points="173.4949494949496,984 183.03030303030312,984 192.5656565656567,974.4646464646464 202.10101010101022,964.9292929292928 211.63636363636374,955.3939393939394 221.17171717171726,945.8585858585858 230.70707070707084,936.3232323232323 240.2424242424243,926.7878787878788 249.77777777777783,917.2525252525252 259.3131313131314,917.2525252525252 268.84848484848493,917.2525252525252 278.38383838383845,917.2525252525252 287.91919191919203,907.7171717171718 297.4545454545455,898.1818181818181 306.9898989898991,888.6464646464647 316.5252525252526,879.1111111111111 306.9898989898991,869.5757575757575 297.4545454545455,860.0404040404039 287.91919191919203,850.5050505050505 287.91919191919203,840.969696969697 287.91919191919203,831.4343434343434 287.91919191919203,821.8989898989898 287.91919191919203,812.3636363636363 287.91919191919203,802.8282828282828 287.91919191919203,793.2929292929292 287.91919191919203,783.7575757575758 287.91919191919203,774.2222222222222 287.91919191919203,764.6868686868687 287.91919191919203,755.1515151515151 287.91919191919203,745.6161616161615 287.91919191919203,736.0808080808081 287.91919191919203,726.5454545454545 287.91919191919203,717.010101010101 287.91919191919203,707.4747474747475 287.91919191919203,697.939393939394 287.91919191919203,688.4040404040404 287.91919191919203,678.8686868686868 287.91919191919203,669.3333333333334 287.91919191919203,659.7979797979798 287.91919191919203,650.2626262626263 287.91919191919203,640.7272727272727 287.91919191919203,631.1919191919193 287.91919191919203,621.6565656565657 287.91919191919203,612.1212121212121 287.91919191919203,602.5858585858587 287.91919191919203,593.0505050505051 287.91919191919203,583.5151515151516 287.91919191919203,573.979797979798 287.91919191919203,564.4444444444445 287.91919191919203,554.909090909091 287.91919191919203,545.3737373737374 287.91919191919203,535.838383838384 287.91919191919203,526.3030303030304 287.91919191919203,516.7676767676768 287.91919191919203,507.23232323232327 287.91919191919203,497.69696969696975 287.91919191919203,488.1616161616163 287.91919191919203,478.6262626262627 287.91919191919203,469.0909090909092 287.91919191919203,459.5555555555556 287.91919191919203,450.0202020202021 287.91919191919203,440.4848484848486 287.91919191919203,430.94949494949503 287.91919191919203,421.4141414141415 287.91919191919203,411.87878787878793 287.91919191919203,402.3434343434344 287.91919191919203,392.80808080808094 287.91919191919203,383.27272727272737 287.91919191919203,373.73737373737384 287.91919191919203,364.2020202020203 287.91919191919203,354.66666666666674 287.91919191919203,345.1313131313133 287.91919191919203,335.5959595959597 287.91919191919203,326.06060606060623 287.91919191919203,316.5252525252526 287.91919191919203,306.9898989898991 287.91919191919203,297.4545454545456 287.91919191919203,287.91919191919203 287.91919191919203,278.38383838383857 287.91919191919203,268.84848484848493 287.91919191919203,259.3131313131314 287.91919191919203,249.77777777777794 287.91919191919203,240.24242424242436 287.91919191919203,230.70707070707084 287.91919191919203,221.17171717171726 287.91919191919203,211.63636363636374 287.91919191919203,202.10101010101027 287.91919191919203,192.56565656565675 287.91919191919203,183.03030303030312 287.91919191919203,173.4949494949496 287.91919191919203,163.95959595959613 287.91919191919203,154.4242424242426 287.91919191919203,144.88888888888908 287.91919191919203,135.35353535353545 278.38383838383845,125.81818181818198 268.84848484848493,116.28282828282846 259.3131313131314,106.747474747475 249.77777777777783,97.21212121212153 240.2424242424243,87.67676767676778 230.70707070707084,78.14141414141432 221.17171717171726,68.60606060606085 211.63636363636374,59.07070707070733 202.10101010101022,49.53535353535369 192.5656565656567,40.000000000000114 183.03030303030312,40.000000000000114 173.4949494949496,40.000000000000114 163.95959595959607,40.000000000000114 154.42424242424255,40.000000000000114 144.88888888888903,40.000000000000114 135.35353535353545,40.000000000000114" fill="none" stroke="rgba(255,0,0,0.75)" stroke-width="11.327999999999996"/></g><g><rect data-type="rect" data-label="" data-x="0" data-y="0" x="40.000000000000114" y="40.000000000000284" width="943.9999999999997" height="943.9999999999998" fill="none" stroke="gray" stroke-width="0.010593220338983056"/></g><g><rect data-type="rect" data-label="" data-x="0" data-y="0" x="40.000000000000114" y="40.000000000000284" width="943.9999999999997" height="943.9999999999998" fill="none" stroke="rgba(15, 23, 42, 0.8)" stroke-width="0.010593220338983056"/></g><circle data-type="circle" data-label="" data-x="3.181818181818183" data-y="-3.8888888888888884" cx="812.3636363636363" cy="879.1111111111111" r="14.159999999999995" fill="rgba(0,0,0,0.3)" stroke="black" stroke-width="0.010593220338983056"/><circle data-type="circle" data-label="" data-x="2.070707070707072" data-y="3.989898989898992" cx="707.4747474747475" cy="135.35353535353545" r="14.159999999999995" fill="rgba(0,0,0,0.3)" stroke="black" stroke-width="0.010593220338983056"/><circle data-type="circle" data-label="" data-x="-2.3737373737373733" data-y="-3.8888888888888884" cx="287.91919191919203" cy="879.1111111111111" r="14.159999999999995" fill="rgba(0,0,0,0.3)" stroke="black" stroke-width="0.010593220338983056"/><circle data-type="circle" data-label="" data-x="-2.6767676767676765" data-y="3.989898989898992" cx="259.3131313131314" cy="135.35353535353545" r="14.159999999999995" fill="rgba(0,0,0,0.3)" stroke="black" stroke-width="0.010593220338983056"/><circle data-type="circle" data-label="" data-x="-3.0808080808080804" data-y="-3.0808080808080804" cx="221.17171717171726" cy="802.8282828282828" r="14.159999999999995" fill="rgba(0,0,0,0.3)" stroke="black" stroke-width="0.010593220338983056"/><circle data-type="circle" data-label="" data-x="-3.2828282828282824" data-y="-3.8888888888888884" cx="202.10101010101022" cy="879.1111111111111" r="14.159999999999995" fill="rgba(0,0,0,0.3)" stroke="black" stroke-width="0.010593220338983056"/><circle data-type="circle" data-label="" data-x="-3.8888888888888884" data-y="-3.8888888888888884" cx="144.88888888888903" cy="879.1111111111111" r="14.159999999999995" fill="rgba(0,0,0,0.3)" stroke="black" stroke-width="0.010593220338983056"/><g id="crosshair" style="display: none"><line id="crosshair-h" y1="0" y2="1024" stroke="#666" stroke-width="0.5"/><line id="crosshair-v" x1="0" x2="1024" stroke="#666" stroke-width="0.5"/><text id="coordinates" font-family="monospace" font-size="12" fill="#666"></text></g><script><![CDATA[
              document.currentScript.parentElement.addEventListener('mousemove', (e) => {
                const svg = e.currentTarget;
                const rect = svg.getBoundingClientRect();
                const x = e.clientX - rect.left;
                const y = e.clientY - rect.top;
                const crosshair = svg.getElementById('crosshair');
                const h = svg.getElementById('crosshair-h');
                const v = svg.getElementById('crosshair-v');
                const coords = svg.getElementById('coordinates');
                
                crosshair.style.display = 'block';
                h.setAttribute('x1', '0');
                h.setAttribute('x2', '1024');
                h.setAttribute('y1', y);
                h.setAttribute('y2', y);
                v.setAttribute('x1', x);
                v.setAttribute('x2', x);
                v.setAttribute('y1', '0');
                v.setAttribute('y2', '1024');

                // Calculate real coordinates using inverse transformation
                const matrix = {"a":94.39999999999996,"c":0,"e":511.99999999999994,"b":0,"d":-94.39999999999996,"f":512.0000000000001};
                // Manually invert and apply the affine transform
                // Since we only use translate and scale, we can directly compute:
                // x' = (x - tx) / sx
                // y' = (y - ty) / sy
                const sx = matrix.a;
                const sy = matrix.d;
                const tx = matrix.e; 
                const ty = matrix.f;
                const realPoint = {
                  x: (x - tx) / sx,
                  y: (y - ty) / sy // Flip y back since we used negative scale
                }
                
                coords.textContent = `(${realPoint.x.toFixed(2)}, ${realPoint.y.toFixed(2)})`;
                coords.setAttribute('x', (x + 5).toString());
                coords.setAttribute('y', (y - 5).toString());
              });
              document.currentScript.parentElement.addEventListener('mouseleave', () => {
                document.currentScript.parentElement.getElementById('crosshair').style.display = 'none';
              });
            ]]></script></svg>