<svg width="1024" height="1024" viewBox="0 0 1024 1024" xmlns="http://www.w3.org/2000/svg"><rect width="100%" height="100%" fill="white"/><g><circle data-type="point" data-label="conn_000" data-x="-5" data-y="0.24" cx="40.000000000000114" cy="489.3440000000001" r="14.16" fill="blue"/></g><g><circle data-type="point" data-label="conn_000" data-x="5" data-y="-2.7" cx="983.9999999999998" cy="766.88" r="14.16" fill="blue"/></g><g><circle data-type="point" data-label="conn_001" data-x="-4.2" data-y="-5" cx="115.5200000000001" cy="984" r="14.16" fill="red"/></g><g><circle data-type="point" data-label="conn_001" data-x="-1.34" data-y="-5" cx="385.504" cy="984" r="14.16" fill="blue"/></g><g><circle data-type="point" data-label="conn_002" data-x="-4.72" data-y="5" cx="66.43200000000013" cy="40.000000000000284" r="14.16" fill="blue"/></g><g><circle data-type="point" data-label="conn_002" data-x="-3.9" data-y="-5" cx="143.8400000000001" cy="984" r="14.16" fill="blue"/></g><g><circle data-type="point" data-label="conn_003" data-x="2.36" data-y="5" cx="734.7839999999999" cy="40.000000000000284" r="14.16" fill="blue"/></g><g><circle data-type="point" data-label="conn_003" data-x="2" data-y="-5" cx="700.7999999999998" cy="984" r="14.16" fill="red"/></g><g><circle data-type="point" data-label="conn_004" data-x="3.16" data-y="-5" cx="810.3039999999999" cy="984" r="14.16" fill="blue"/></g><g><circle data-type="point" data-label="conn_004" data-x="0.7000000000000001" data-y="5" cx="578.0799999999999" cy="40.000000000000284" r="14.16" fill="red"/></g><g><circle data-type="point" data-label="conn_005" data-x="-3.2600000000000002" data-y="-5" cx="204.25600000000003" cy="984" r="14.16" fill="red"/></g><g><circle data-type="point" data-label="conn_005" data-x="0.68" data-y="-5" cx="576.1919999999999" cy="984" r="14.16" fill="blue"/></g><g><circle data-type="point" data-label="conn_006" data-x="-0.72" data-y="-5" cx="444.032" cy="984" r="14.16" fill="blue"/></g><g><circle data-type="point" data-label="conn_006" data-x="-2.68" data-y="5" cx="259.00800000000004" cy="40.000000000000284" r="14.16" fill="red"/></g><g><polyline data-points="-3.2828282828282824,-5.000000000000001 -3.1818181818181817,-5.000000000000001 -3.0808080808080804,-5.000000000000001 -2.9797979797979792,-5.000000000000001 -2.8787878787878785,-5.000000000000001 -2.7777777777777777,-5.000000000000001 -2.6767676767676765,-5.000000000000001 -2.5757575757575752,-5.000000000000001 -2.474747474747474,-5.000000000000001 -2.3737373737373733,-5.000000000000001 -2.2727272727272725,-4.898989898989899 -2.1717171717171713,-4.7979797979797985 -2.07070707070707,-4.696969696969697 -1.9696969696969693,-4.595959595959596 -1.8686868686868683,-4.494949494949496 -1.7676767676767675,-4.393939393939394 -1.6666666666666665,-4.292929292929293 -1.5656565656565653,-4.191919191919193 -1.4646464646464643,-4.090909090909091 -1.363636363636363,-3.98989898989899" data-type="line" data-label="" points="202.10101010101022,984 211.63636363636374,984 221.17171717171726,984 230.70707070707084,984 240.2424242424243,984 249.77777777777783,984 259.3131313131314,984 268.84848484848493,984 278.38383838383845,984 287.91919191919203,984 297.4545454545455,974.4646464646464 306.9898989898991,964.9292929292928 316.5252525252526,955.3939393939394 326.0606060606061,945.8585858585858 335.59595959595964,936.3232323232323 345.13131313131316,926.7878787878788 354.6666666666667,917.2525252525252 364.2020202020202,907.7171717171718 373.7373737373738,898.1818181818181 383.2727272727273,888.6464646464647" fill="none" stroke="rgba(255,0,0,0.75)" stroke-width="11.327999999999996"/></g><g><polyline data-points="-1.363636363636363,-3.98989898989899 -1.2626262626262625,-4.090909090909091 -1.1616161616161613,-4.191919191919193 -1.0606060606060603,-4.292929292929293 -0.9595959595959596,-4.393939393939394 -0.8585858585858579,-4.494949494949496 -0.7575757575757572,-4.595959595959596 -0.6565656565656557,-4.696969696969697 -0.555555555555555,-4.7979797979797985 -0.4545454545454544,-4.898989898989899 -0.35353535353535287,-5.000000000000001 -0.2525252525252522,-5.000000000000001 -0.15151515151515066,-5.000000000000001 -0.05050505050505001,-5.000000000000001 0.050505050505051545,-5.000000000000001 0.1515151515151522,-5.000000000000001 0.2525252525252529,-5.000000000000001 0.3535353535353544,-5.000000000000001 0.4545454545454551,-5.000000000000001 0.5555555555555567,-5.000000000000001 0.6565656565656574,-5.000000000000001" data-type="line" data-label="" points="383.2727272727273,888.6464646464647 392.80808080808083,898.1818181818181 402.34343434343435,907.7171717171718 411.8787878787879,917.2525252525252 421.4141414141414,926.7878787878788 430.949494949495,936.3232323232323 440.4848484848485,945.8585858585858 450.0202020202021,955.3939393939394 459.55555555555554,964.9292929292928 469.09090909090907,974.4646464646464 478.62626262626264,984 488.16161616161617,984 497.69696969696975,984 507.2323232323232,984 516.7676767676768,984 526.3030303030303,984 535.8383838383838,984 545.3737373737374,984 554.9090909090909,984 564.4444444444445,984 573.9797979797979,984" fill="none" stroke="rgba(0,0,255,0.75)" stroke-width="11.327999999999996"/></g><g><polyline data-points="-5.000000000000001,0.2525252525252529 -4.898989898989899,0.1515151515151522 -4.7979797979797985,0.050505050505051545 -4.696969696969697,-0.05050505050505001 -4.595959595959596,-0.15151515151515066 -4.494949494949496,-0.2525252525252522 -4.393939393939394,-0.35353535353535287 -4.292929292929293,-0.4545454545454544 -4.191919191919193,-0.555555555555555 -4.090909090909091,-0.6565656565656557 -3.98989898989899,-0.7575757575757572 -3.8888888888888884,-0.8585858585858579 -3.7878787878787876,-0.9595959595959596 -3.6868686868686864,-1.0606060606060603 -3.5858585858585856,-1.1616161616161613 -3.484848484848485,-1.2626262626262625 -3.383838383838383,-1.363636363636363 -3.2828282828282824,-1.4646464646464643 -3.1818181818181817,-1.5656565656565653 -3.0808080808080804,-1.6666666666666665 -2.9797979797979792,-1.7676767676767675 -2.8787878787878785,-1.8686868686868683 -2.7777777777777777,-1.9696969696969693 -2.6767676767676765,-2.07070707070707 -2.5757575757575752,-2.1717171717171713 -2.474747474747474,-2.2727272727272725 -2.3737373737373733,-2.3737373737373733 -2.2727272727272725,-2.474747474747474 -2.1717171717171713,-2.5757575757575752 -2.07070707070707,-2.6767676767676765 -1.9696969696969693,-2.7777777777777777 -1.8686868686868683,-2.7777777777777777 -1.7676767676767675,-2.7777777777777777 -1.6666666666666665,-2.7777777777777777 -1.5656565656565653,-2.7777777777777777 -1.4646464646464643,-2.7777777777777777 -1.363636363636363,-2.7777777777777777 -1.2626262626262625,-2.7777777777777777 -1.1616161616161613,-2.7777777777777777 -1.0606060606060603,-2.7777777777777777 -0.9595959595959596,-2.7777777777777777 -0.8585858585858579,-2.7777777777777777 -0.7575757575757572,-2.7777777777777777 -0.6565656565656557,-2.7777777777777777 -0.555555555555555,-2.7777777777777777 -0.4545454545454544,-2.7777777777777777 -0.35353535353535287,-2.7777777777777777 -0.2525252525252522,-2.7777777777777777 -0.15151515151515066,-2.7777777777777777 -0.05050505050505001,-2.7777777777777777 0.050505050505051545,-2.7777777777777777 0.1515151515151522,-2.7777777777777777 0.2525252525252529,-2.7777777777777777 0.3535353535353544,-2.7777777777777777 0.4545454545454551,-2.7777777777777777 0.5555555555555567,-2.7777777777777777 0.6565656565656574,-2.7777777777777777 0.7575757575757579,-2.7777777777777777 0.8585858585858596,-2.7777777777777777 0.9595959595959602,-2.7777777777777777 1.0606060606060617,-2.7777777777777777 1.1616161616161622,-2.7777777777777777 1.262626262626263,-2.7777777777777777 1.3636363636363644,-2.7777777777777777 1.4646464646464652,-2.7777777777777777 1.5656565656565666,-2.7777777777777777 1.6666666666666674,-2.7777777777777777 1.767676767676768,-2.7777777777777777 1.8686868686868696,-2.7777777777777777 1.9696969696969702,-2.7777777777777777 2.070707070707072,-2.7777777777777777 2.1717171717171726,-2.7777777777777777 2.2727272727272734,-2.7777777777777777 2.373737373737375,-2.7777777777777777 2.4747474747474754,-2.7777777777777777 2.575757575757577,-2.7777777777777777 2.676767676767678,-2.7777777777777777 2.7777777777777786,-2.7777777777777777 2.87878787878788,-2.7777777777777777 2.9797979797979806,-2.7777777777777777 3.080808080808082,-2.7777777777777777 3.181818181818183,-2.7777777777777777 3.2828282828282833,-2.7777777777777777 3.383838383838384,-2.7777777777777777 3.4848484848484866,-2.7777777777777777 3.5858585858585874,-2.7777777777777777 3.6868686868686877,-2.7777777777777777 3.7878787878787885,-2.7777777777777777 3.8888888888888893,-2.7777777777777777 3.989898989898992,-2.7777777777777777 4.090909090909092,-2.7777777777777777 4.191919191919193,-2.7777777777777777 4.292929292929293,-2.7777777777777777 4.393939393939394,-2.7777777777777777 4.494949494949497,-2.7777777777777777 4.595959595959597,-2.7777777777777777 4.696969696969697,-2.7777777777777777 4.7979797979797985,-2.7777777777777777 4.898989898989901,-2.7777777777777777 5.000000000000002,-2.7777777777777777" data-type="line" data-label="" points="40.00000000000006,488.1616161616163 49.53535353535369,497.69696969696975 59.07070707070716,507.23232323232327 68.60606060606068,516.7676767676768 78.14141414141426,526.3030303030304 87.67676767676772,535.838383838384 97.21212121212136,545.3737373737374 106.74747474747483,554.909090909091 116.28282828282829,564.4444444444445 125.81818181818193,573.979797979798 135.35353535353545,583.5151515151516 144.88888888888903,593.0505050505051 154.42424242424255,602.5858585858587 163.95959595959607,612.1212121212121 173.4949494949496,621.6565656565657 183.03030303030312,631.1919191919193 192.5656565656567,640.7272727272727 202.10101010101022,650.2626262626263 211.63636363636374,659.7979797979798 221.17171717171726,669.3333333333334 230.70707070707084,678.8686868686868 240.2424242424243,688.4040404040404 249.77777777777783,697.939393939394 259.3131313131314,707.4747474747475 268.84848484848493,717.010101010101 278.38383838383845,726.5454545454545 287.91919191919203,736.0808080808081 297.4545454545455,745.6161616161615 306.9898989898991,755.1515151515151 316.5252525252526,764.6868686868687 326.0606060606061,774.2222222222222 335.59595959595964,774.2222222222222 345.13131313131316,774.2222222222222 354.6666666666667,774.2222222222222 364.2020202020202,774.2222222222222 373.7373737373738,774.2222222222222 383.2727272727273,774.2222222222222 392.80808080808083,774.2222222222222 402.34343434343435,774.2222222222222 411.8787878787879,774.2222222222222 421.4141414141414,774.2222222222222 430.949494949495,774.2222222222222 440.4848484848485,774.2222222222222 450.0202020202021,774.2222222222222 459.55555555555554,774.2222222222222 469.09090909090907,774.2222222222222 478.62626262626264,774.2222222222222 488.16161616161617,774.2222222222222 497.69696969696975,774.2222222222222 507.2323232323232,774.2222222222222 516.7676767676768,774.2222222222222 526.3030303030303,774.2222222222222 535.8383838383838,774.2222222222222 545.3737373737374,774.2222222222222 554.9090909090909,774.2222222222222 564.4444444444445,774.2222222222222 573.9797979797979,774.2222222222222 583.5151515151515,774.2222222222222 593.0505050505051,774.2222222222222 602.5858585858585,774.2222222222222 612.1212121212121,774.2222222222222 621.6565656565656,774.2222222222222 631.1919191919192,774.2222222222222 640.7272727272727,774.2222222222222 650.2626262626262,774.2222222222222 659.7979797979798,774.2222222222222 669.3333333333333,774.2222222222222 678.8686868686868,774.2222222222222 688.4040404040404,774.2222222222222 697.9393939393939,774.2222222222222 707.4747474747475,774.2222222222222 717.0101010101009,774.2222222222222 726.5454545454545,774.2222222222222 736.0808080808081,774.2222222222222 745.6161616161615,774.2222222222222 755.1515151515151,774.2222222222222 764.6868686868686,774.2222222222222 774.2222222222222,774.2222222222222 783.7575757575758,774.2222222222222 793.2929292929292,774.2222222222222 802.8282828282828,774.2222222222222 812.3636363636363,774.2222222222222 821.8989898989898,774.2222222222222 831.4343434343433,774.2222222222222 840.969696969697,774.2222222222222 850.5050505050505,774.2222222222222 860.0404040404039,774.2222222222222 869.5757575757575,774.2222222222222 879.111111111111,774.2222222222222 888.6464646464647,774.2222222222222 898.181818181818,774.2222222222222 907.7171717171716,774.2222222222222 917.2525252525251,774.2222222222222 926.7878787878785,774.2222222222222 936.3232323232323,774.2222222222222 945.8585858585857,774.2222222222222 955.3939393939393,774.2222222222222 964.9292929292927,774.2222222222222 974.4646464646464,774.2222222222222 984,774.2222222222222" fill="none" stroke="rgba(0,0,255,0.75)" stroke-width="11.327999999999996"/></g><g><polyline data-points="-4.292929292929293,-5.000000000000001 -4.191919191919193,-5.000000000000001 -4.090909090909091,-5.000000000000001 -3.98989898989899,-5.000000000000001 -3.8888888888888884,-5.000000000000001 -3.7878787878787876,-5.000000000000001 -3.6868686868686864,-5.000000000000001 -3.5858585858585856,-5.000000000000001 -3.484848484848485,-4.898989898989899 -3.383838383838383,-4.7979797979797985 -3.2828282828282824,-4.696969696969697 -3.1818181818181817,-4.595959595959596 -3.0808080808080804,-4.494949494949496 -2.9797979797979792,-4.393939393939394 -2.8787878787878785,-4.292929292929293 -2.7777777777777777,-4.191919191919193 -2.6767676767676765,-4.090909090909091 -2.5757575757575752,-3.98989898989899" data-type="line" data-label="" points="106.74747474747483,984 116.28282828282829,984 125.81818181818193,984 135.35353535353545,984 144.88888888888903,984 154.42424242424255,984 163.95959595959607,984 173.4949494949496,984 183.03030303030312,974.4646464646464 192.5656565656567,964.9292929292928 202.10101010101022,955.3939393939394 211.63636363636374,945.8585858585858 221.17171717171726,936.3232323232323 230.70707070707084,926.7878787878788 240.2424242424243,917.2525252525252 249.77777777777783,907.7171717171718 259.3131313131314,898.1818181818181 268.84848484848493,888.6464646464647" fill="none" stroke="rgba(255,0,0,0.75)" stroke-width="11.327999999999996"/></g><g><polyline data-points="-2.5757575757575752,-3.98989898989899 -2.474747474747474,-4.090909090909091 -2.3737373737373733,-4.191919191919193 -2.2727272727272725,-4.292929292929293 -2.1717171717171713,-4.393939393939394 -2.07070707070707,-4.494949494949496 -1.9696969696969693,-4.595959595959596 -1.8686868686868683,-4.696969696969697 -1.7676767676767675,-4.7979797979797985 -1.6666666666666665,-4.898989898989899 -1.5656565656565653,-5.000000000000001 -1.4646464646464643,-5.000000000000001 -1.363636363636363,-5.000000000000001" data-type="line" data-label="" points="268.84848484848493,888.6464646464647 278.38383838383845,898.1818181818181 287.91919191919203,907.7171717171718 297.4545454545455,917.2525252525252 306.9898989898991,926.7878787878788 316.5252525252526,936.3232323232323 326.0606060606061,945.8585858585858 335.59595959595964,955.3939393939394 345.13131313131316,964.9292929292928 354.6666666666667,974.4646464646464 364.2020202020202,984 373.7373737373738,984 383.2727272727273,984" fill="none" stroke="rgba(0,0,255,0.75)" stroke-width="11.327999999999996"/></g><g><polyline data-points="2.373737373737375,5.000000000000002 2.2727272727272734,4.898989898989901 2.1717171717171726,4.7979797979797985 2.070707070707072,4.696969696969697 2.070707070707072,4.595959595959597 2.070707070707072,4.494949494949497 2.070707070707072,4.393939393939394 2.070707070707072,4.292929292929293 2.070707070707072,4.191919191919193 2.070707070707072,4.090909090909092 2.070707070707072,3.989898989898992 2.070707070707072,3.8888888888888893 2.070707070707072,3.7878787878787885 2.070707070707072,3.6868686868686877 2.070707070707072,3.5858585858585874 2.070707070707072,3.4848484848484866 2.070707070707072,3.383838383838384 2.070707070707072,3.2828282828282833 2.070707070707072,3.181818181818183 2.070707070707072,3.080808080808082 2.070707070707072,2.9797979797979806 2.070707070707072,2.87878787878788 2.070707070707072,2.7777777777777786 2.070707070707072,2.676767676767678 2.070707070707072,2.575757575757577 2.070707070707072,2.4747474747474754 2.070707070707072,2.373737373737375 2.070707070707072,2.2727272727272734 2.070707070707072,2.1717171717171726 2.070707070707072,2.070707070707072 2.070707070707072,1.9696969696969702 2.070707070707072,1.8686868686868696 2.070707070707072,1.767676767676768 2.070707070707072,1.6666666666666674 2.070707070707072,1.5656565656565666 2.070707070707072,1.4646464646464652 2.070707070707072,1.3636363636363644 2.070707070707072,1.262626262626263 2.070707070707072,1.1616161616161622 2.070707070707072,1.0606060606060617 2.070707070707072,0.9595959595959602 2.070707070707072,0.8585858585858596 2.070707070707072,0.7575757575757579 2.070707070707072,0.6565656565656574 2.070707070707072,0.5555555555555567 2.070707070707072,0.4545454545454551 2.070707070707072,0.3535353535353544 2.070707070707072,0.2525252525252529 2.070707070707072,0.1515151515151522 2.070707070707072,0.050505050505051545 2.070707070707072,-0.05050505050505001 2.070707070707072,-0.15151515151515066 2.070707070707072,-0.2525252525252522 2.070707070707072,-0.35353535353535287 2.070707070707072,-0.4545454545454544 2.070707070707072,-0.555555555555555 2.070707070707072,-0.6565656565656557 2.070707070707072,-0.7575757575757572 2.070707070707072,-0.8585858585858579 2.070707070707072,-0.9595959595959596 2.070707070707072,-1.0606060606060603 2.070707070707072,-1.1616161616161613 2.070707070707072,-1.2626262626262625 2.070707070707072,-1.363636363636363 2.070707070707072,-1.4646464646464643 2.070707070707072,-1.5656565656565653 2.070707070707072,-1.6666666666666665 2.070707070707072,-1.7676767676767675 2.070707070707072,-1.8686868686868683 2.070707070707072,-1.9696969696969693 2.070707070707072,-2.07070707070707 2.070707070707072,-2.1717171717171713 2.070707070707072,-2.2727272727272725 2.070707070707072,-2.3737373737373733" data-type="line" data-label="" points="736.0808080808081,40.000000000000114 726.5454545454545,49.53535353535369 717.0101010101009,59.07070707070733 707.4747474747475,68.60606060606085 707.4747474747475,78.14141414141432 707.4747474747475,87.67676767676778 707.4747474747475,97.21212121212153 707.4747474747475,106.747474747475 707.4747474747475,116.28282828282846 707.4747474747475,125.81818181818198 707.4747474747475,135.35353535353545 707.4747474747475,144.88888888888908 707.4747474747475,154.4242424242426 707.4747474747475,163.95959595959613 707.4747474747475,173.4949494949496 707.4747474747475,183.03030303030312 707.4747474747475,192.56565656565675 707.4747474747475,202.10101010101027 707.4747474747475,211.63636363636374 707.4747474747475,221.17171717171726 707.4747474747475,230.70707070707084 707.4747474747475,240.24242424242436 707.4747474747475,249.77777777777794 707.4747474747475,259.3131313131314 707.4747474747475,268.84848484848493 707.4747474747475,278.38383838383857 707.4747474747475,287.91919191919203 707.4747474747475,297.4545454545456 707.4747474747475,306.9898989898991 707.4747474747475,316.5252525252526 707.4747474747475,326.06060606060623 707.4747474747475,335.5959595959597 707.4747474747475,345.1313131313133 707.4747474747475,354.66666666666674 707.4747474747475,364.2020202020203 707.4747474747475,373.73737373737384 707.4747474747475,383.27272727272737 707.4747474747475,392.80808080808094 707.4747474747475,402.3434343434344 707.4747474747475,411.87878787878793 707.4747474747475,421.4141414141415 707.4747474747475,430.94949494949503 707.4747474747475,440.4848484848486 707.4747474747475,450.0202020202021 707.4747474747475,459.5555555555556 707.4747474747475,469.0909090909092 707.4747474747475,478.6262626262627 707.4747474747475,488.1616161616163 707.4747474747475,497.69696969696975 707.4747474747475,507.23232323232327 707.4747474747475,516.7676767676768 707.4747474747475,526.3030303030304 707.4747474747475,535.838383838384 707.4747474747475,545.3737373737374 707.4747474747475,554.909090909091 707.4747474747475,564.4444444444445 707.4747474747475,573.979797979798 707.4747474747475,583.5151515151516 707.4747474747475,593.0505050505051 707.4747474747475,602.5858585858587 707.4747474747475,612.1212121212121 707.4747474747475,621.6565656565657 707.4747474747475,631.1919191919193 707.4747474747475,640.7272727272727 707.4747474747475,650.2626262626263 707.4747474747475,659.7979797979798 707.4747474747475,669.3333333333334 707.4747474747475,678.8686868686868 707.4747474747475,688.4040404040404 707.4747474747475,697.939393939394 707.4747474747475,707.4747474747475 707.4747474747475,717.010101010101 707.4747474747475,726.5454545454545 707.4747474747475,736.0808080808081" fill="none" stroke="rgba(0,0,255,0.75)" stroke-width="11.327999999999996"/></g><g><polyline data-points="2.070707070707072,-2.3737373737373733 2.070707070707072,-2.474747474747474 2.070707070707072,-2.5757575757575752 2.070707070707072,-2.6767676767676765 2.070707070707072,-2.7777777777777777 2.070707070707072,-2.8787878787878785 2.070707070707072,-2.9797979797979792 2.070707070707072,-3.0808080808080804 2.070707070707072,-3.1818181818181817 2.070707070707072,-3.2828282828282824 2.070707070707072,-3.383838383838383 2.070707070707072,-3.484848484848485 2.070707070707072,-3.5858585858585856 2.070707070707072,-3.6868686868686864 2.070707070707072,-3.7878787878787876 2.070707070707072,-3.8888888888888884 2.070707070707072,-3.98989898989899 2.070707070707072,-4.090909090909091 2.070707070707072,-4.191919191919193 2.070707070707072,-4.292929292929293 2.070707070707072,-4.393939393939394 2.070707070707072,-4.494949494949496 2.070707070707072,-4.595959595959596 2.070707070707072,-4.696969696969697 2.070707070707072,-4.7979797979797985 2.070707070707072,-4.898989898989899 2.070707070707072,-5.000000000000001" data-type="line" data-label="" points="707.4747474747475,736.0808080808081 707.4747474747475,745.6161616161615 707.4747474747475,755.1515151515151 707.4747474747475,764.6868686868687 707.4747474747475,774.2222222222222 707.4747474747475,783.7575757575758 707.4747474747475,793.2929292929292 707.4747474747475,802.8282828282828 707.4747474747475,812.3636363636363 707.4747474747475,821.8989898989898 707.4747474747475,831.4343434343434 707.4747474747475,840.969696969697 707.4747474747475,850.5050505050505 707.4747474747475,860.0404040404039 707.4747474747475,869.5757575757575 707.4747474747475,879.1111111111111 707.4747474747475,888.6464646464647 707.4747474747475,898.1818181818181 707.4747474747475,907.7171717171718 707.4747474747475,917.2525252525252 707.4747474747475,926.7878787878788 707.4747474747475,936.3232323232323 707.4747474747475,945.8585858585858 707.4747474747475,955.3939393939394 707.4747474747475,964.9292929292928 707.4747474747475,974.4646464646464 707.4747474747475,984" fill="none" stroke="rgba(255,0,0,0.75)" stroke-width="11.327999999999996"/></g><g><polyline data-points="3.181818181818183,-5.000000000000001 3.080808080808082,-4.898989898989899 2.9797979797979806,-4.7979797979797985 2.87878787878788,-4.696969696969697 2.7777777777777786,-4.595959595959596 2.676767676767678,-4.494949494949496 2.575757575757577,-4.393939393939394 2.4747474747474754,-4.292929292929293 2.373737373737375,-4.191919191919193 2.2727272727272734,-4.090909090909091 2.1717171717171726,-3.98989898989899 2.070707070707072,-3.8888888888888884 1.9696969696969702,-3.7878787878787876 1.8686868686868696,-3.6868686868686864 1.767676767676768,-3.5858585858585856 1.6666666666666674,-3.484848484848485 1.5656565656565666,-3.383838383838383 1.4646464646464652,-3.2828282828282824 1.3636363636363644,-3.1818181818181817 1.262626262626263,-3.1818181818181817" data-type="line" data-label="" points="812.3636363636363,984 802.8282828282828,974.4646464646464 793.2929292929292,964.9292929292928 783.7575757575758,955.3939393939394 774.2222222222222,945.8585858585858 764.6868686868686,936.3232323232323 755.1515151515151,926.7878787878788 745.6161616161615,917.2525252525252 736.0808080808081,907.7171717171718 726.5454545454545,898.1818181818181 717.0101010101009,888.6464646464647 707.4747474747475,879.1111111111111 697.9393939393939,869.5757575757575 688.4040404040404,860.0404040404039 678.8686868686868,850.5050505050505 669.3333333333333,840.969696969697 659.7979797979798,831.4343434343434 650.2626262626262,821.8989898989898 640.7272727272727,812.3636363636363 631.1919191919192,812.3636363636363" fill="none" stroke="rgba(0,0,255,0.75)" stroke-width="11.327999999999996"/></g><g><polyline data-points="1.262626262626263,-3.1818181818181817 1.1616161616161622,-3.0808080808080804 1.0606060606060617,-2.9797979797979792 0.9595959595959602,-2.8787878787878785 0.8585858585858596,-2.7777777777777777 0.7575757575757579,-2.6767676767676765 0.7575757575757579,-2.5757575757575752 0.7575757575757579,-2.474747474747474 0.7575757575757579,-2.3737373737373733 0.7575757575757579,-2.2727272727272725 0.7575757575757579,-2.1717171717171713 0.7575757575757579,-2.07070707070707 0.7575757575757579,-1.9696969696969693 0.7575757575757579,-1.8686868686868683 0.7575757575757579,-1.7676767676767675 0.7575757575757579,-1.6666666666666665 0.7575757575757579,-1.5656565656565653 0.7575757575757579,-1.4646464646464643 0.7575757575757579,-1.363636363636363 0.7575757575757579,-1.2626262626262625 0.7575757575757579,-1.1616161616161613 0.7575757575757579,-1.0606060606060603 0.7575757575757579,-0.9595959595959596 0.7575757575757579,-0.8585858585858579 0.7575757575757579,-0.7575757575757572 0.7575757575757579,-0.6565656565656557 0.7575757575757579,-0.555555555555555 0.7575757575757579,-0.4545454545454544 0.7575757575757579,-0.35353535353535287 0.7575757575757579,-0.2525252525252522 0.7575757575757579,-0.15151515151515066 0.7575757575757579,-0.05050505050505001 0.7575757575757579,0.050505050505051545 0.7575757575757579,0.1515151515151522 0.7575757575757579,0.2525252525252529 0.7575757575757579,0.3535353535353544 0.7575757575757579,0.4545454545454551 0.7575757575757579,0.5555555555555567 0.7575757575757579,0.6565656565656574 0.7575757575757579,0.7575757575757579 0.7575757575757579,0.8585858585858596 0.7575757575757579,0.9595959595959602 0.7575757575757579,1.0606060606060617 0.7575757575757579,1.1616161616161622 0.7575757575757579,1.262626262626263 0.7575757575757579,1.3636363636363644 0.7575757575757579,1.4646464646464652 0.7575757575757579,1.5656565656565666 0.7575757575757579,1.6666666666666674 0.7575757575757579,1.767676767676768 0.7575757575757579,1.8686868686868696 0.7575757575757579,1.9696969696969702 0.7575757575757579,2.070707070707072 0.7575757575757579,2.1717171717171726 0.7575757575757579,2.2727272727272734 0.7575757575757579,2.373737373737375 0.7575757575757579,2.4747474747474754 0.7575757575757579,2.575757575757577 0.7575757575757579,2.676767676767678 0.7575757575757579,2.7777777777777786 0.7575757575757579,2.87878787878788 0.7575757575757579,2.9797979797979806 0.7575757575757579,3.080808080808082 0.7575757575757579,3.181818181818183 0.7575757575757579,3.2828282828282833 0.7575757575757579,3.383838383838384 0.7575757575757579,3.4848484848484866 0.7575757575757579,3.5858585858585874 0.7575757575757579,3.6868686868686877 0.7575757575757579,3.7878787878787885 0.7575757575757579,3.8888888888888893 0.7575757575757579,3.989898989898992 0.7575757575757579,4.090909090909092 0.7575757575757579,4.191919191919193 0.7575757575757579,4.292929292929293 0.7575757575757579,4.393939393939394 0.7575757575757579,4.494949494949497 0.7575757575757579,4.595959595959597 0.7575757575757579,4.696969696969697 0.7575757575757579,4.7979797979797985 0.7575757575757579,4.898989898989901 0.7575757575757579,5.000000000000002" data-type="line" data-label="" points="631.1919191919192,812.3636363636363 621.6565656565656,802.8282828282828 612.1212121212121,793.2929292929292 602.5858585858585,783.7575757575758 593.0505050505051,774.2222222222222 583.5151515151515,764.6868686868687 583.5151515151515,755.1515151515151 583.5151515151515,745.6161616161615 583.5151515151515,736.0808080808081 583.5151515151515,726.5454545454545 583.5151515151515,717.010101010101 583.5151515151515,707.4747474747475 583.5151515151515,697.939393939394 583.5151515151515,688.4040404040404 583.5151515151515,678.8686868686868 583.5151515151515,669.3333333333334 583.5151515151515,659.7979797979798 583.5151515151515,650.2626262626263 583.5151515151515,640.7272727272727 583.5151515151515,631.1919191919193 583.5151515151515,621.6565656565657 583.5151515151515,612.1212121212121 583.5151515151515,602.5858585858587 583.5151515151515,593.0505050505051 583.5151515151515,583.5151515151516 583.5151515151515,573.979797979798 583.5151515151515,564.4444444444445 583.5151515151515,554.909090909091 583.5151515151515,545.3737373737374 583.5151515151515,535.838383838384 583.5151515151515,526.3030303030304 583.5151515151515,516.7676767676768 583.5151515151515,507.23232323232327 583.5151515151515,497.69696969696975 583.5151515151515,488.1616161616163 583.5151515151515,478.6262626262627 583.5151515151515,469.0909090909092 583.5151515151515,459.5555555555556 583.5151515151515,450.0202020202021 583.5151515151515,440.4848484848486 583.5151515151515,430.94949494949503 583.5151515151515,421.4141414141415 583.5151515151515,411.87878787878793 583.5151515151515,402.3434343434344 583.5151515151515,392.80808080808094 583.5151515151515,383.27272727272737 583.5151515151515,373.73737373737384 583.5151515151515,364.2020202020203 583.5151515151515,354.66666666666674 583.5151515151515,345.1313131313133 583.5151515151515,335.5959595959597 583.5151515151515,326.06060606060623 583.5151515151515,316.5252525252526 583.5151515151515,306.9898989898991 583.5151515151515,297.4545454545456 583.5151515151515,287.91919191919203 583.5151515151515,278.38383838383857 583.5151515151515,268.84848484848493 583.5151515151515,259.3131313131314 583.5151515151515,249.77777777777794 583.5151515151515,240.24242424242436 583.5151515151515,230.70707070707084 583.5151515151515,221.17171717171726 583.5151515151515,211.63636363636374 583.5151515151515,202.10101010101027 583.5151515151515,192.56565656565675 583.5151515151515,183.03030303030312 583.5151515151515,173.4949494949496 583.5151515151515,163.95959595959613 583.5151515151515,154.4242424242426 583.5151515151515,144.88888888888908 583.5151515151515,135.35353535353545 583.5151515151515,125.81818181818198 583.5151515151515,116.28282828282846 583.5151515151515,106.747474747475 583.5151515151515,97.21212121212153 583.5151515151515,87.67676767676778 583.5151515151515,78.14141414141432 583.5151515151515,68.60606060606085 583.5151515151515,59.07070707070733 583.5151515151515,49.53535353535369 583.5151515151515,40.000000000000114" fill="none" stroke="rgba(255,0,0,0.75)" stroke-width="11.327999999999996"/></g><g><polyline data-points="-4.7979797979797985,5.000000000000002 -4.696969696969697,4.898989898989901 -4.595959595959596,4.7979797979797985 -4.494949494949496,4.696969696969697 -4.393939393939394,4.595959595959597 -4.292929292929293,4.494949494949497 -4.191919191919193,4.393939393939394 -4.090909090909091,4.292929292929293 -3.98989898989899,4.191919191919193 -3.8888888888888884,4.090909090909092 -3.8888888888888884,3.989898989898992 -3.8888888888888884,3.8888888888888893 -3.8888888888888884,3.7878787878787885 -3.8888888888888884,3.6868686868686877 -3.8888888888888884,3.5858585858585874 -3.8888888888888884,3.4848484848484866 -3.8888888888888884,3.383838383838384 -3.8888888888888884,3.2828282828282833 -3.8888888888888884,3.181818181818183 -3.8888888888888884,3.080808080808082 -3.8888888888888884,2.9797979797979806 -3.8888888888888884,2.87878787878788 -3.8888888888888884,2.7777777777777786 -3.8888888888888884,2.676767676767678 -3.8888888888888884,2.575757575757577 -3.8888888888888884,2.4747474747474754 -3.8888888888888884,2.373737373737375 -3.8888888888888884,2.2727272727272734 -3.8888888888888884,2.1717171717171726 -3.8888888888888884,2.070707070707072 -3.8888888888888884,1.9696969696969702 -3.8888888888888884,1.8686868686868696 -3.8888888888888884,1.767676767676768 -3.8888888888888884,1.6666666666666674 -3.8888888888888884,1.5656565656565666 -3.8888888888888884,1.4646464646464652 -3.8888888888888884,1.3636363636363644 -3.8888888888888884,1.262626262626263 -3.8888888888888884,1.1616161616161622 -3.8888888888888884,1.0606060606060617 -3.8888888888888884,0.9595959595959602 -3.8888888888888884,0.8585858585858596 -3.8888888888888884,0.7575757575757579 -3.8888888888888884,0.6565656565656574 -3.8888888888888884,0.5555555555555567 -3.8888888888888884,0.4545454545454551 -3.8888888888888884,0.3535353535353544 -3.8888888888888884,0.2525252525252529 -3.8888888888888884,0.1515151515151522 -3.8888888888888884,0.050505050505051545 -3.8888888888888884,-0.05050505050505001 -3.8888888888888884,-0.15151515151515066 -3.8888888888888884,-0.2525252525252522 -3.8888888888888884,-0.35353535353535287" data-type="line" data-label="" points="59.07070707070716,40.000000000000114 68.60606060606068,49.53535353535369 78.14141414141426,59.07070707070733 87.67676767676772,68.60606060606085 97.21212121212136,78.14141414141432 106.74747474747483,87.67676767676778 116.28282828282829,97.21212121212153 125.81818181818193,106.747474747475 135.35353535353545,116.28282828282846 144.88888888888903,125.81818181818198 144.88888888888903,135.35353535353545 144.88888888888903,144.88888888888908 144.88888888888903,154.4242424242426 144.88888888888903,163.95959595959613 144.88888888888903,173.4949494949496 144.88888888888903,183.03030303030312 144.88888888888903,192.56565656565675 144.88888888888903,202.10101010101027 144.88888888888903,211.63636363636374 144.88888888888903,221.17171717171726 144.88888888888903,230.70707070707084 144.88888888888903,240.24242424242436 144.88888888888903,249.77777777777794 144.88888888888903,259.3131313131314 144.88888888888903,268.84848484848493 144.88888888888903,278.38383838383857 144.88888888888903,287.91919191919203 144.88888888888903,297.4545454545456 144.88888888888903,306.9898989898991 144.88888888888903,316.5252525252526 144.88888888888903,326.06060606060623 144.88888888888903,335.5959595959597 144.88888888888903,345.1313131313133 144.88888888888903,354.66666666666674 144.88888888888903,364.2020202020203 144.88888888888903,373.73737373737384 144.88888888888903,383.27272727272737 144.88888888888903,392.80808080808094 144.88888888888903,402.3434343434344 144.88888888888903,411.87878787878793 144.88888888888903,421.4141414141415 144.88888888888903,430.94949494949503 144.88888888888903,440.4848484848486 144.88888888888903,450.0202020202021 144.88888888888903,459.5555555555556 144.88888888888903,469.0909090909092 144.88888888888903,478.6262626262627 144.88888888888903,488.1616161616163 144.88888888888903,497.69696969696975 144.88888888888903,507.23232323232327 144.88888888888903,516.7676767676768 144.88888888888903,526.3030303030304 144.88888888888903,535.838383838384 144.88888888888903,545.3737373737374" fill="none" stroke="rgba(0,0,255,0.75)" stroke-width="11.327999999999996"/></g><g><polyline data-points="-3.8888888888888884,-0.35353535353535287 -3.8888888888888884,-0.4545454545454544 -3.8888888888888884,-0.555555555555555 -3.8888888888888884,-0.6565656565656557 -3.8888888888888884,-0.7575757575757572 -3.8888888888888884,-0.8585858585858579 -3.8888888888888884,-0.9595959595959596 -3.8888888888888884,-1.0606060606060603 -3.8888888888888884,-1.1616161616161613 -3.8888888888888884,-1.2626262626262625 -3.8888888888888884,-1.363636363636363 -3.8888888888888884,-1.4646464646464643 -3.8888888888888884,-1.5656565656565653 -3.8888888888888884,-1.6666666666666665 -3.8888888888888884,-1.7676767676767675 -3.8888888888888884,-1.8686868686868683 -3.8888888888888884,-1.9696969696969693 -3.8888888888888884,-2.07070707070707 -3.8888888888888884,-2.1717171717171713 -3.8888888888888884,-2.2727272727272725 -3.8888888888888884,-2.3737373737373733 -3.8888888888888884,-2.474747474747474 -3.8888888888888884,-2.5757575757575752 -3.8888888888888884,-2.6767676767676765 -3.8888888888888884,-2.7777777777777777 -3.8888888888888884,-2.8787878787878785 -3.8888888888888884,-2.9797979797979792 -3.8888888888888884,-3.0808080808080804 -3.8888888888888884,-3.1818181818181817 -3.8888888888888884,-3.2828282828282824 -3.8888888888888884,-3.383838383838383 -3.8888888888888884,-3.484848484848485 -3.8888888888888884,-3.5858585858585856 -3.8888888888888884,-3.6868686868686864 -3.8888888888888884,-3.7878787878787876 -3.8888888888888884,-3.8888888888888884 -3.8888888888888884,-3.98989898989899" data-type="line" data-label="" points="144.88888888888903,545.3737373737374 144.88888888888903,554.909090909091 144.88888888888903,564.4444444444445 144.88888888888903,573.979797979798 144.88888888888903,583.5151515151516 144.88888888888903,593.0505050505051 144.88888888888903,602.5858585858587 144.88888888888903,612.1212121212121 144.88888888888903,621.6565656565657 144.88888888888903,631.1919191919193 144.88888888888903,640.7272727272727 144.88888888888903,650.2626262626263 144.88888888888903,659.7979797979798 144.88888888888903,669.3333333333334 144.88888888888903,678.8686868686868 144.88888888888903,688.4040404040404 144.88888888888903,697.939393939394 144.88888888888903,707.4747474747475 144.88888888888903,717.010101010101 144.88888888888903,726.5454545454545 144.88888888888903,736.0808080808081 144.88888888888903,745.6161616161615 144.88888888888903,755.1515151515151 144.88888888888903,764.6868686868687 144.88888888888903,774.2222222222222 144.88888888888903,783.7575757575758 144.88888888888903,793.2929292929292 144.88888888888903,802.8282828282828 144.88888888888903,812.3636363636363 144.88888888888903,821.8989898989898 144.88888888888903,831.4343434343434 144.88888888888903,840.969696969697 144.88888888888903,850.5050505050505 144.88888888888903,860.0404040404039 144.88888888888903,869.5757575757575 144.88888888888903,879.1111111111111 144.88888888888903,888.6464646464647" fill="none" stroke="rgba(255,0,0,0.75)" stroke-width="11.327999999999996"/></g><g><polyline data-points="-3.8888888888888884,-3.98989898989899 -3.8888888888888884,-4.090909090909091 -3.8888888888888884,-4.191919191919193 -3.8888888888888884,-4.292929292929293 -3.8888888888888884,-4.393939393939394 -3.8888888888888884,-4.494949494949496 -3.8888888888888884,-4.595959595959596 -3.8888888888888884,-4.696969696969697 -3.8888888888888884,-4.7979797979797985 -3.8888888888888884,-4.898989898989899 -3.8888888888888884,-5.000000000000001" data-type="line" data-label="" points="144.88888888888903,888.6464646464647 144.88888888888903,898.1818181818181 144.88888888888903,907.7171717171718 144.88888888888903,917.2525252525252 144.88888888888903,926.7878787878788 144.88888888888903,936.3232323232323 144.88888888888903,945.8585858585858 144.88888888888903,955.3939393939394 144.88888888888903,964.9292929292928 144.88888888888903,974.4646464646464 144.88888888888903,984" fill="none" stroke="rgba(0,0,255,0.75)" stroke-width="11.327999999999996"/></g><g><polyline data-points="-0.7575757575757572,-5.000000000000001 -0.8585858585858579,-4.898989898989899 -0.9595959595959596,-4.7979797979797985 -1.0606060606060603,-4.696969696969697 -1.1616161616161613,-4.595959595959596 -1.2626262626262625,-4.494949494949496 -1.363636363636363,-4.393939393939394 -1.4646464646464643,-4.292929292929293 -1.5656565656565653,-4.191919191919193 -1.6666666666666665,-4.090909090909091 -1.7676767676767675,-3.98989898989899 -1.8686868686868683,-3.8888888888888884 -1.9696969696969693,-3.7878787878787876 -2.07070707070707,-3.6868686868686864 -2.1717171717171713,-3.5858585858585856 -2.2727272727272725,-3.484848484848485 -2.3737373737373733,-3.383838383838383 -2.474747474747474,-3.2828282828282824 -2.5757575757575752,-3.1818181818181817 -2.6767676767676765,-3.0808080808080804 -2.6767676767676765,-2.9797979797979792 -2.6767676767676765,-2.8787878787878785 -2.6767676767676765,-2.7777777777777777 -2.6767676767676765,-2.6767676767676765 -2.6767676767676765,-2.5757575757575752" data-type="line" data-label="" points="440.4848484848485,984 430.949494949495,974.4646464646464 421.4141414141414,964.9292929292928 411.8787878787879,955.3939393939394 402.34343434343435,945.8585858585858 392.80808080808083,936.3232323232323 383.2727272727273,926.7878787878788 373.7373737373738,917.2525252525252 364.2020202020202,907.7171717171718 354.6666666666667,898.1818181818181 345.13131313131316,888.6464646464647 335.59595959595964,879.1111111111111 326.0606060606061,869.5757575757575 316.5252525252526,860.0404040404039 306.9898989898991,850.5050505050505 297.4545454545455,840.969696969697 287.91919191919203,831.4343434343434 278.38383838383845,821.8989898989898 268.84848484848493,812.3636363636363 259.3131313131314,802.8282828282828 259.3131313131314,793.2929292929292 259.3131313131314,783.7575757575758 259.3131313131314,774.2222222222222 259.3131313131314,764.6868686868687 259.3131313131314,755.1515151515151" fill="none" stroke="rgba(0,0,255,0.75)" stroke-width="11.327999999999996"/></g><g><polyline data-points="-2.6767676767676765,-2.5757575757575752 -2.6767676767676765,-2.474747474747474 -2.6767676767676765,-2.3737373737373733 -2.6767676767676765,-2.2727272727272725 -2.6767676767676765,-2.1717171717171713 -2.6767676767676765,-2.07070707070707 -2.6767676767676765,-1.9696969696969693 -2.6767676767676765,-1.8686868686868683 -2.6767676767676765,-1.7676767676767675 -2.6767676767676765,-1.6666666666666665 -2.6767676767676765,-1.5656565656565653 -2.6767676767676765,-1.4646464646464643 -2.6767676767676765,-1.363636363636363 -2.6767676767676765,-1.2626262626262625 -2.6767676767676765,-1.1616161616161613 -2.6767676767676765,-1.0606060606060603 -2.6767676767676765,-0.9595959595959596 -2.6767676767676765,-0.8585858585858579 -2.6767676767676765,-0.7575757575757572 -2.6767676767676765,-0.6565656565656557 -2.6767676767676765,-0.555555555555555 -2.6767676767676765,-0.4545454545454544 -2.6767676767676765,-0.35353535353535287 -2.6767676767676765,-0.2525252525252522 -2.6767676767676765,-0.15151515151515066 -2.6767676767676765,-0.05050505050505001 -2.6767676767676765,0.050505050505051545 -2.6767676767676765,0.1515151515151522 -2.6767676767676765,0.2525252525252529 -2.6767676767676765,0.3535353535353544 -2.6767676767676765,0.4545454545454551 -2.6767676767676765,0.5555555555555567 -2.6767676767676765,0.6565656565656574 -2.6767676767676765,0.7575757575757579 -2.6767676767676765,0.8585858585858596 -2.6767676767676765,0.9595959595959602 -2.6767676767676765,1.0606060606060617 -2.6767676767676765,1.1616161616161622 -2.6767676767676765,1.262626262626263 -2.6767676767676765,1.3636363636363644 -2.6767676767676765,1.4646464646464652 -2.6767676767676765,1.5656565656565666 -2.6767676767676765,1.6666666666666674 -2.6767676767676765,1.767676767676768 -2.6767676767676765,1.8686868686868696 -2.6767676767676765,1.9696969696969702 -2.6767676767676765,2.070707070707072 -2.6767676767676765,2.1717171717171726 -2.6767676767676765,2.2727272727272734 -2.6767676767676765,2.373737373737375 -2.6767676767676765,2.4747474747474754 -2.6767676767676765,2.575757575757577 -2.6767676767676765,2.676767676767678 -2.6767676767676765,2.7777777777777786 -2.6767676767676765,2.87878787878788 -2.6767676767676765,2.9797979797979806 -2.6767676767676765,3.080808080808082 -2.6767676767676765,3.181818181818183 -2.6767676767676765,3.2828282828282833 -2.6767676767676765,3.383838383838384 -2.6767676767676765,3.4848484848484866 -2.6767676767676765,3.5858585858585874 -2.6767676767676765,3.6868686868686877 -2.6767676767676765,3.7878787878787885 -2.6767676767676765,3.8888888888888893 -2.6767676767676765,3.989898989898992 -2.6767676767676765,4.090909090909092 -2.6767676767676765,4.191919191919193 -2.6767676767676765,4.292929292929293 -2.6767676767676765,4.393939393939394 -2.6767676767676765,4.494949494949497 -2.6767676767676765,4.595959595959597 -2.6767676767676765,4.696969696969697 -2.6767676767676765,4.7979797979797985 -2.6767676767676765,4.898989898989901 -2.6767676767676765,5.000000000000002" data-type="line" data-label="" points="259.3131313131314,755.1515151515151 259.3131313131314,745.6161616161615 259.3131313131314,736.0808080808081 259.3131313131314,726.5454545454545 259.3131313131314,717.010101010101 259.3131313131314,707.4747474747475 259.3131313131314,697.939393939394 259.3131313131314,688.4040404040404 259.3131313131314,678.8686868686868 259.3131313131314,669.3333333333334 259.3131313131314,659.7979797979798 259.3131313131314,650.2626262626263 259.3131313131314,640.7272727272727 259.3131313131314,631.1919191919193 259.3131313131314,621.6565656565657 259.3131313131314,612.1212121212121 259.3131313131314,602.5858585858587 259.3131313131314,593.0505050505051 259.3131313131314,583.5151515151516 259.3131313131314,573.979797979798 259.3131313131314,564.4444444444445 259.3131313131314,554.909090909091 259.3131313131314,545.3737373737374 259.3131313131314,535.838383838384 259.3131313131314,526.3030303030304 259.3131313131314,516.7676767676768 259.3131313131314,507.23232323232327 259.3131313131314,497.69696969696975 259.3131313131314,488.1616161616163 259.3131313131314,478.6262626262627 259.3131313131314,469.0909090909092 259.3131313131314,459.5555555555556 259.3131313131314,450.0202020202021 259.3131313131314,440.4848484848486 259.3131313131314,430.94949494949503 259.3131313131314,421.4141414141415 259.3131313131314,411.87878787878793 259.3131313131314,402.3434343434344 259.3131313131314,392.80808080808094 259.3131313131314,383.27272727272737 259.3131313131314,373.73737373737384 259.3131313131314,364.2020202020203 259.3131313131314,354.66666666666674 259.3131313131314,345.1313131313133 259.3131313131314,335.5959595959597 259.3131313131314,326.06060606060623 259.3131313131314,316.5252525252526 259.3131313131314,306.9898989898991 259.3131313131314,297.4545454545456 259.3131313131314,287.91919191919203 259.3131313131314,278.38383838383857 259.3131313131314,268.84848484848493 259.3131313131314,259.3131313131314 259.3131313131314,249.77777777777794 259.3131313131314,240.24242424242436 259.3131313131314,230.70707070707084 259.3131313131314,221.17171717171726 259.3131313131314,211.63636363636374 259.3131313131314,202.10101010101027 259.3131313131314,192.56565656565675 259.3131313131314,183.03030303030312 259.3131313131314,173.4949494949496 259.3131313131314,163.95959595959613 259.3131313131314,154.4242424242426 259.3131313131314,144.88888888888908 259.3131313131314,135.35353535353545 259.3131313131314,125.81818181818198 259.3131313131314,116.28282828282846 259.3131313131314,106.747474747475 259.3131313131314,97.21212121212153 259.3131313131314,87.67676767676778 259.3131313131314,78.14141414141432 259.3131313131314,68.60606060606085 259.3131313131314,59.07070707070733 259.3131313131314,49.53535353535369 259.3131313131314,40.000000000000114" fill="none" stroke="rgba(255,0,0,0.75)" stroke-width="11.327999999999996"/></g><g><rect data-type="rect" data-label="" data-x="0" data-y="0" x="40.000000000000114" y="40.000000000000284" width="943.9999999999997" height="943.9999999999998" fill="none" stroke="gray" stroke-width="0.010593220338983056"/></g><g><rect data-type="rect" data-label="" data-x="0" data-y="0" x="40.000000000000114" y="40.000000000000284" width="943.9999999999997" height="943.9999999999998" fill="none" stroke="rgba(15, 23, 42, 0.8)" stroke-width="0.010593220338983056"/></g><circle data-type="circle" data-label="" data-x="-1.363636363636363" data-y="-3.98989898989899" cx="383.2727272727273" cy="888.6464646464647" r="14.159999999999995" fill="rgba(0,0,0,0.3)" stroke="black" stroke-width="0.010593220338983056"/><circle data-type="circle" data-label="" data-x="-2.5757575757575752" data-y="-3.98989898989899" cx="268.84848484848493" cy="888.6464646464647" r="14.159999999999995" fill="rgba(0,0,0,0.3)" stroke="black" stroke-width="0.010593220338983056"/><circle data-type="circle" data-label="" data-x="2.070707070707072" data-y="-2.3737373737373733" cx="707.4747474747475" cy="736.0808080808081" r="14.159999999999995" fill="rgba(0,0,0,0.3)" stroke="black" stroke-width="0.010593220338983056"/><circle data-type="circle" data-label="" data-x="1.262626262626263" data-y="-3.1818181818181817" cx="631.1919191919192" cy="812.3636363636363" r="14.159999999999995" fill="rgba(0,0,0,0.3)" stroke="black" stroke-width="0.010593220338983056"/><circle data-type="circle" data-label="" data-x="-3.8888888888888884" data-y="-0.35353535353535287" cx="144.88888888888903" cy="545.3737373737374" r="14.159999999999995" fill="rgba(0,0,0,0.3)" stroke="black" stroke-width="0.010593220338983056"/><circle data-type="circle" data-label="" data-x="-3.8888888888888884" data-y="-3.98989898989899" cx="144.88888888888903" cy="888.6464646464647" r="14.159999999999995" fill="rgba(0,0,0,0.3)" stroke="black" stroke-width="0.010593220338983056"/><circle data-type="circle" data-label="" data-x="-2.6767676767676765" data-y="-2.5757575757575752" cx="259.3131313131314" cy="755.1515151515151" r="14.159999999999995" fill="rgba(0,0,0,0.3)" stroke="black" stroke-width="0.010593220338983056"/><g id="crosshair" style="display: none"><line id="crosshair-h" y1="0" y2="1024" stroke="#666" stroke-width="0.5"/><line id="crosshair-v" x1="0" x2="1024" stroke="#666" stroke-width="0.5"/><text id="coordinates" font-family="monospace" font-size="12" fill="#666"></text></g><script><![CDATA[
              document.currentScript.parentElement.addEventListener('mousemove', (e) => {
                const svg = e.currentTarget;
                const rect = svg.getBoundingClientRect();
                const x = e.clientX - rect.left;
                const y = e.clientY - rect.top;
                const crosshair = svg.getElementById('crosshair');
                const h = svg.getElementById('crosshair-h');
                const v = svg.getElementById('crosshair-v');
                const coords = svg.getElementById('coordinates');
                
                crosshair.style.display = 'block';
                h.setAttribute('x1', '0');
                h.setAttribute('x2', '1024');
                h.setAttribute('y1', y);
                h.setAttribute('y2', y);
                v.setAttribute('x1', x);
                v.setAttribute('x2', x);
                v.setAttribute('y1', '0');
                v.setAttribute('y2', '1024');

                // Calculate real coordinates using inverse transformation
                const matrix = {"a":94.39999999999996,"c":0,"e":511.99999999999994,"b":0,"d":-94.39999999999996,"f":512.0000000000001};
                // Manually invert and apply the affine transform
                // Since we only use translate and scale, we can directly compute:
                // x' = (x - tx) / sx
                // y' = (y - ty) / sy
                const sx = matrix.a;
                const sy = matrix.d;
                const tx = matrix.e; 
                const ty = matrix.f;
                const realPoint = {
                  x: (x - tx) / sx,
                  y: (y - ty) / sy // Flip y back since we used negative scale
                }
                
                coords.textContent = `(${realPoint.x.toFixed(2)}, ${realPoint.y.toFixed(2)})`;
                coords.setAttribute('x', (x + 5).toString());
                coords.setAttribute('y', (y - 5).toString());
              });
              document.currentScript.parentElement.addEventListener('mouseleave', () => {
                document.currentScript.parentElement.getElementById('crosshair').style.display = 'none';
              });
            ]]></script></svg>