<svg width="1024" height="1024" viewBox="0 0 1024 1024" xmlns="http://www.w3.org/2000/svg"><rect width="100%" height="100%" fill="white"/><g><circle data-type="point" data-label="conn_000" data-x="-5" data-y="1.78" cx="40.000000000000114" cy="343.9680000000002" r="14.16" fill="red"/></g><g><circle data-type="point" data-label="conn_000" data-x="5" data-y="4.42" cx="983.9999999999998" cy="94.7520000000003" r="14.16" fill="blue"/></g><g><circle data-type="point" data-label="conn_001" data-x="-5" data-y="3.48" cx="40.000000000000114" cy="183.48800000000023" r="14.16" fill="red"/></g><g><circle data-type="point" data-label="conn_001" data-x="1.3800000000000001" data-y="5" cx="642.2719999999999" cy="40.000000000000284" r="14.16" fill="red"/></g><g><circle data-type="point" data-label="conn_002" data-x="5" data-y="-2.12" cx="983.9999999999998" cy="712.128" r="14.16" fill="red"/></g><g><circle data-type="point" data-label="conn_002" data-x="-5" data-y="4.58" cx="40.000000000000114" cy="79.64800000000025" r="14.16" fill="blue"/></g><g><circle data-type="point" data-label="conn_003" data-x="-4.26" data-y="-5" cx="109.85600000000011" cy="984" r="14.16" fill="red"/></g><g><circle data-type="point" data-label="conn_003" data-x="-1.74" data-y="5" cx="347.744" cy="40.000000000000284" r="14.16" fill="blue"/></g><g><circle data-type="point" data-label="conn_004" data-x="4.42" data-y="5" cx="929.2479999999998" cy="40.000000000000284" r="14.16" fill="blue"/></g><g><circle data-type="point" data-label="conn_004" data-x="3.74" data-y="-5" cx="865.0559999999998" cy="984" r="14.16" fill="red"/></g><g><circle data-type="point" data-label="conn_005" data-x="5" data-y="1.98" cx="983.9999999999998" cy="325.0880000000002" r="14.16" fill="red"/></g><g><circle data-type="point" data-label="conn_005" data-x="-5" data-y="-2.12" cx="40.000000000000114" cy="712.128" r="14.16" fill="red"/></g><g><circle data-type="point" data-label="conn_006" data-x="5" data-y="-0.22" cx="983.9999999999998" cy="532.7680000000001" r="14.16" fill="blue"/></g><g><circle data-type="point" data-label="conn_006" data-x="-3.1" data-y="-5" cx="219.36000000000007" cy="984" r="14.16" fill="blue"/></g><g><circle data-type="point" data-label="conn_007" data-x="5" data-y="-4.12" cx="983.9999999999998" cy="900.928" r="14.16" fill="red"/></g><g><circle data-type="point" data-label="conn_007" data-x="3.52" data-y="5" cx="844.2879999999998" cy="40.000000000000284" r="14.16" fill="red"/></g><g><polyline data-points="-5.000000000000001,1.767676767676768 -4.898989898989899,1.8686868686868696 -4.7979797979797985,1.9696969696969702 -4.696969696969697,2.070707070707072 -4.595959595959596,2.1717171717171726 -4.494949494949496,2.2727272727272734 -4.393939393939394,2.373737373737375 -4.292929292929293,2.4747474747474754 -4.191919191919193,2.575757575757577 -4.090909090909091,2.676767676767678 -3.98989898989899,2.7777777777777786 -3.8888888888888884,2.87878787878788 -3.7878787878787876,2.9797979797979806 -3.6868686868686864,3.080808080808082 -3.5858585858585856,3.181818181818183 -3.484848484848485,3.2828282828282833 -3.383838383838383,3.383838383838384 -3.2828282828282824,3.4848484848484866 -3.1818181818181817,3.5858585858585874 -3.0808080808080804,3.6868686868686877 -2.9797979797979792,3.7878787878787885 -2.8787878787878785,3.8888888888888893 -2.7777777777777777,3.989898989898992 -2.6767676767676765,3.989898989898992 -2.5757575757575752,3.989898989898992 -2.474747474747474,3.989898989898992 -2.3737373737373733,3.989898989898992 -2.2727272727272725,3.989898989898992 -2.1717171717171713,3.989898989898992 -2.07070707070707,3.989898989898992 -1.9696969696969693,3.989898989898992 -1.8686868686868683,3.989898989898992 -1.7676767676767675,3.989898989898992 -1.6666666666666665,3.989898989898992 -1.5656565656565653,3.989898989898992 -1.4646464646464643,3.989898989898992 -1.363636363636363,3.989898989898992 -1.2626262626262625,3.989898989898992 -1.1616161616161613,3.989898989898992 -1.0606060606060603,3.989898989898992 -0.9595959595959596,3.989898989898992 -0.8585858585858579,3.989898989898992 -0.7575757575757572,3.989898989898992 -0.6565656565656557,3.989898989898992 -0.555555555555555,3.989898989898992 -0.4545454545454544,3.989898989898992 -0.35353535353535287,3.989898989898992 -0.2525252525252522,3.989898989898992 -0.15151515151515066,3.989898989898992 -0.05050505050505001,3.989898989898992 0.050505050505051545,3.989898989898992 0.1515151515151522,3.989898989898992 0.2525252525252529,3.989898989898992 0.3535353535353544,3.989898989898992 0.4545454545454551,3.989898989898992 0.5555555555555567,3.989898989898992 0.6565656565656574,3.989898989898992 0.7575757575757579,3.989898989898992 0.8585858585858596,3.989898989898992 0.9595959595959602,3.989898989898992 1.0606060606060617,3.989898989898992 1.1616161616161622,3.989898989898992 1.262626262626263,3.989898989898992 1.3636363636363644,3.989898989898992 1.4646464646464652,3.989898989898992 1.5656565656565666,3.989898989898992 1.6666666666666674,3.989898989898992 1.767676767676768,3.989898989898992 1.8686868686868696,3.989898989898992 1.9696969696969702,3.989898989898992 2.070707070707072,3.989898989898992 2.1717171717171726,3.989898989898992 2.2727272727272734,3.989898989898992 2.373737373737375,3.989898989898992 2.4747474747474754,3.989898989898992 2.575757575757577,3.989898989898992 2.676767676767678,3.989898989898992 2.7777777777777786,3.989898989898992 2.87878787878788,3.989898989898992 2.9797979797979806,3.989898989898992 3.080808080808082,3.989898989898992 3.181818181818183,3.989898989898992 3.2828282828282833,3.989898989898992 3.383838383838384,3.989898989898992 3.4848484848484866,3.989898989898992 3.5858585858585874,3.989898989898992 3.6868686868686877,3.989898989898992 3.7878787878787885,3.989898989898992" data-type="line" data-label="" points="40.00000000000006,345.1313131313133 49.53535353535369,335.5959595959597 59.07070707070716,326.06060606060623 68.60606060606068,316.5252525252526 78.14141414141426,306.9898989898991 87.67676767676772,297.4545454545456 97.21212121212136,287.91919191919203 106.74747474747483,278.38383838383857 116.28282828282829,268.84848484848493 125.81818181818193,259.3131313131314 135.35353535353545,249.77777777777794 144.88888888888903,240.24242424242436 154.42424242424255,230.70707070707084 163.95959595959607,221.17171717171726 173.4949494949496,211.63636363636374 183.03030303030312,202.10101010101027 192.5656565656567,192.56565656565675 202.10101010101022,183.03030303030312 211.63636363636374,173.4949494949496 221.17171717171726,163.95959595959613 230.70707070707084,154.4242424242426 240.2424242424243,144.88888888888908 249.77777777777783,135.35353535353545 259.3131313131314,135.35353535353545 268.84848484848493,135.35353535353545 278.38383838383845,135.35353535353545 287.91919191919203,135.35353535353545 297.4545454545455,135.35353535353545 306.9898989898991,135.35353535353545 316.5252525252526,135.35353535353545 326.0606060606061,135.35353535353545 335.59595959595964,135.35353535353545 345.13131313131316,135.35353535353545 354.6666666666667,135.35353535353545 364.2020202020202,135.35353535353545 373.7373737373738,135.35353535353545 383.2727272727273,135.35353535353545 392.80808080808083,135.35353535353545 402.34343434343435,135.35353535353545 411.8787878787879,135.35353535353545 421.4141414141414,135.35353535353545 430.949494949495,135.35353535353545 440.4848484848485,135.35353535353545 450.0202020202021,135.35353535353545 459.55555555555554,135.35353535353545 469.09090909090907,135.35353535353545 478.62626262626264,135.35353535353545 488.16161616161617,135.35353535353545 497.69696969696975,135.35353535353545 507.2323232323232,135.35353535353545 516.7676767676768,135.35353535353545 526.3030303030303,135.35353535353545 535.8383838383838,135.35353535353545 545.3737373737374,135.35353535353545 554.9090909090909,135.35353535353545 564.4444444444445,135.35353535353545 573.9797979797979,135.35353535353545 583.5151515151515,135.35353535353545 593.0505050505051,135.35353535353545 602.5858585858585,135.35353535353545 612.1212121212121,135.35353535353545 621.6565656565656,135.35353535353545 631.1919191919192,135.35353535353545 640.7272727272727,135.35353535353545 650.2626262626262,135.35353535353545 659.7979797979798,135.35353535353545 669.3333333333333,135.35353535353545 678.8686868686868,135.35353535353545 688.4040404040404,135.35353535353545 697.9393939393939,135.35353535353545 707.4747474747475,135.35353535353545 717.0101010101009,135.35353535353545 726.5454545454545,135.35353535353545 736.0808080808081,135.35353535353545 745.6161616161615,135.35353535353545 755.1515151515151,135.35353535353545 764.6868686868686,135.35353535353545 774.2222222222222,135.35353535353545 783.7575757575758,135.35353535353545 793.2929292929292,135.35353535353545 802.8282828282828,135.35353535353545 812.3636363636363,135.35353535353545 821.8989898989898,135.35353535353545 831.4343434343433,135.35353535353545 840.969696969697,135.35353535353545 850.5050505050505,135.35353535353545 860.0404040404039,135.35353535353545 869.5757575757575,135.35353535353545" fill="none" stroke="rgba(255,0,0,0.75)" stroke-width="11.327999999999996"/></g><g><polyline data-points="3.7878787878787885,3.989898989898992 3.8888888888888893,4.090909090909092 3.989898989898992,4.191919191919193 4.090909090909092,4.292929292929293 4.191919191919193,4.393939393939394 4.292929292929293,4.494949494949497 4.393939393939394,4.494949494949497 4.494949494949497,4.494949494949497 4.595959595959597,4.494949494949497 4.696969696969697,4.494949494949497 4.7979797979797985,4.494949494949497 4.898989898989901,4.494949494949497 5.000000000000002,4.494949494949497" data-type="line" data-label="" points="869.5757575757575,135.35353535353545 879.111111111111,125.81818181818198 888.6464646464647,116.28282828282846 898.181818181818,106.747474747475 907.7171717171716,97.21212121212153 917.2525252525251,87.67676767676778 926.7878787878785,87.67676767676778 936.3232323232323,87.67676767676778 945.8585858585857,87.67676767676778 955.3939393939393,87.67676767676778 964.9292929292927,87.67676767676778 974.4646464646464,87.67676767676778 984,87.67676767676778" fill="none" stroke="rgba(0,0,255,0.75)" stroke-width="11.327999999999996"/></g><g><polyline data-points="-4.292929292929293,-5.000000000000001 -4.191919191919193,-4.898989898989899 -4.090909090909091,-4.7979797979797985 -3.98989898989899,-4.696969696969697 -3.8888888888888884,-4.595959595959596 -3.7878787878787876,-4.494949494949496 -3.6868686868686864,-4.393939393939394 -3.5858585858585856,-4.292929292929293 -3.484848484848485,-4.191919191919193 -3.383838383838383,-4.090909090909091 -3.2828282828282824,-3.98989898989899 -3.1818181818181817,-3.8888888888888884 -3.0808080808080804,-3.7878787878787876 -2.9797979797979792,-3.6868686868686864 -2.8787878787878785,-3.5858585858585856 -2.7777777777777777,-3.484848484848485 -2.6767676767676765,-3.383838383838383 -2.5757575757575752,-3.2828282828282824 -2.474747474747474,-3.1818181818181817 -2.3737373737373733,-3.0808080808080804 -2.2727272727272725,-2.9797979797979792 -2.1717171717171713,-2.8787878787878785 -2.07070707070707,-2.7777777777777777 -1.9696969696969693,-2.6767676767676765 -1.8686868686868683,-2.5757575757575752" data-type="line" data-label="" points="106.74747474747483,984 116.28282828282829,974.4646464646464 125.81818181818193,964.9292929292928 135.35353535353545,955.3939393939394 144.88888888888903,945.8585858585858 154.42424242424255,936.3232323232323 163.95959595959607,926.7878787878788 173.4949494949496,917.2525252525252 183.03030303030312,907.7171717171718 192.5656565656567,898.1818181818181 202.10101010101022,888.6464646464647 211.63636363636374,879.1111111111111 221.17171717171726,869.5757575757575 230.70707070707084,860.0404040404039 240.2424242424243,850.5050505050505 249.77777777777783,840.969696969697 259.3131313131314,831.4343434343434 268.84848484848493,821.8989898989898 278.38383838383845,812.3636363636363 287.91919191919203,802.8282828282828 297.4545454545455,793.2929292929292 306.9898989898991,783.7575757575758 316.5252525252526,774.2222222222222 326.0606060606061,764.6868686868687 335.59595959595964,755.1515151515151" fill="none" stroke="rgba(255,0,0,0.75)" stroke-width="11.327999999999996"/></g><g><polyline data-points="-1.8686868686868683,-2.5757575757575752 -1.7676767676767675,-2.474747474747474 -1.7676767676767675,-2.3737373737373733 -1.7676767676767675,-2.2727272727272725 -1.7676767676767675,-2.1717171717171713 -1.7676767676767675,-2.07070707070707 -1.7676767676767675,-1.9696969696969693 -1.7676767676767675,-1.8686868686868683 -1.7676767676767675,-1.7676767676767675 -1.7676767676767675,-1.6666666666666665 -1.7676767676767675,-1.5656565656565653 -1.7676767676767675,-1.4646464646464643 -1.7676767676767675,-1.363636363636363 -1.7676767676767675,-1.2626262626262625 -1.7676767676767675,-1.1616161616161613 -1.7676767676767675,-1.0606060606060603 -1.7676767676767675,-0.9595959595959596 -1.7676767676767675,-0.8585858585858579 -1.7676767676767675,-0.7575757575757572 -1.7676767676767675,-0.6565656565656557 -1.7676767676767675,-0.555555555555555 -1.7676767676767675,-0.4545454545454544 -1.7676767676767675,-0.35353535353535287 -1.7676767676767675,-0.2525252525252522 -1.7676767676767675,-0.15151515151515066 -1.7676767676767675,-0.05050505050505001 -1.7676767676767675,0.050505050505051545 -1.7676767676767675,0.1515151515151522 -1.7676767676767675,0.2525252525252529 -1.7676767676767675,0.3535353535353544 -1.7676767676767675,0.4545454545454551 -1.7676767676767675,0.5555555555555567 -1.7676767676767675,0.6565656565656574 -1.7676767676767675,0.7575757575757579 -1.7676767676767675,0.8585858585858596 -1.7676767676767675,0.9595959595959602 -1.7676767676767675,1.0606060606060617 -1.7676767676767675,1.1616161616161622 -1.7676767676767675,1.262626262626263 -1.7676767676767675,1.3636363636363644 -1.7676767676767675,1.4646464646464652 -1.7676767676767675,1.5656565656565666 -1.7676767676767675,1.6666666666666674 -1.7676767676767675,1.767676767676768 -1.7676767676767675,1.8686868686868696 -1.7676767676767675,1.9696969696969702 -1.7676767676767675,2.070707070707072 -1.7676767676767675,2.1717171717171726 -1.7676767676767675,2.2727272727272734 -1.7676767676767675,2.373737373737375 -1.7676767676767675,2.4747474747474754 -1.7676767676767675,2.575757575757577 -1.7676767676767675,2.676767676767678 -1.7676767676767675,2.7777777777777786 -1.7676767676767675,2.87878787878788 -1.7676767676767675,2.9797979797979806 -1.7676767676767675,3.080808080808082 -1.7676767676767675,3.181818181818183 -1.7676767676767675,3.2828282828282833 -1.7676767676767675,3.383838383838384 -1.7676767676767675,3.4848484848484866 -1.7676767676767675,3.5858585858585874 -1.7676767676767675,3.6868686868686877 -1.7676767676767675,3.7878787878787885 -1.7676767676767675,3.8888888888888893 -1.7676767676767675,3.989898989898992 -1.7676767676767675,4.090909090909092 -1.7676767676767675,4.191919191919193 -1.7676767676767675,4.292929292929293 -1.7676767676767675,4.393939393939394 -1.7676767676767675,4.494949494949497 -1.7676767676767675,4.595959595959597 -1.7676767676767675,4.696969696969697 -1.7676767676767675,4.7979797979797985 -1.7676767676767675,4.898989898989901 -1.7676767676767675,5.000000000000002" data-type="line" data-label="" points="335.59595959595964,755.1515151515151 345.13131313131316,745.6161616161615 345.13131313131316,736.0808080808081 345.13131313131316,726.5454545454545 345.13131313131316,717.010101010101 345.13131313131316,707.4747474747475 345.13131313131316,697.939393939394 345.13131313131316,688.4040404040404 345.13131313131316,678.8686868686868 345.13131313131316,669.3333333333334 345.13131313131316,659.7979797979798 345.13131313131316,650.2626262626263 345.13131313131316,640.7272727272727 345.13131313131316,631.1919191919193 345.13131313131316,621.6565656565657 345.13131313131316,612.1212121212121 345.13131313131316,602.5858585858587 345.13131313131316,593.0505050505051 345.13131313131316,583.5151515151516 345.13131313131316,573.979797979798 345.13131313131316,564.4444444444445 345.13131313131316,554.909090909091 345.13131313131316,545.3737373737374 345.13131313131316,535.838383838384 345.13131313131316,526.3030303030304 345.13131313131316,516.7676767676768 345.13131313131316,507.23232323232327 345.13131313131316,497.69696969696975 345.13131313131316,488.1616161616163 345.13131313131316,478.6262626262627 345.13131313131316,469.0909090909092 345.13131313131316,459.5555555555556 345.13131313131316,450.0202020202021 345.13131313131316,440.4848484848486 345.13131313131316,430.94949494949503 345.13131313131316,421.4141414141415 345.13131313131316,411.87878787878793 345.13131313131316,402.3434343434344 345.13131313131316,392.80808080808094 345.13131313131316,383.27272727272737 345.13131313131316,373.73737373737384 345.13131313131316,364.2020202020203 345.13131313131316,354.66666666666674 345.13131313131316,345.1313131313133 345.13131313131316,335.5959595959597 345.13131313131316,326.06060606060623 345.13131313131316,316.5252525252526 345.13131313131316,306.9898989898991 345.13131313131316,297.4545454545456 345.13131313131316,287.91919191919203 345.13131313131316,278.38383838383857 345.13131313131316,268.84848484848493 345.13131313131316,259.3131313131314 345.13131313131316,249.77777777777794 345.13131313131316,240.24242424242436 345.13131313131316,230.70707070707084 345.13131313131316,221.17171717171726 345.13131313131316,211.63636363636374 345.13131313131316,202.10101010101027 345.13131313131316,192.56565656565675 345.13131313131316,183.03030303030312 345.13131313131316,173.4949494949496 345.13131313131316,163.95959595959613 345.13131313131316,154.4242424242426 345.13131313131316,144.88888888888908 345.13131313131316,135.35353535353545 345.13131313131316,125.81818181818198 345.13131313131316,116.28282828282846 345.13131313131316,106.747474747475 345.13131313131316,97.21212121212153 345.13131313131316,87.67676767676778 345.13131313131316,78.14141414141432 345.13131313131316,68.60606060606085 345.13131313131316,59.07070707070733 345.13131313131316,49.53535353535369 345.13131313131316,40.000000000000114" fill="none" stroke="rgba(0,0,255,0.75)" stroke-width="11.327999999999996"/></g><g><polyline data-points="5.000000000000002,-4.191919191919193 4.898989898989901,-4.090909090909091 4.7979797979797985,-3.98989898989899 4.696969696969697,-3.8888888888888884 4.595959595959597,-3.7878787878787876 4.494949494949497,-3.6868686868686864 4.393939393939394,-3.5858585858585856 4.292929292929293,-3.484848484848485 4.191919191919193,-3.383838383838383 4.090909090909092,-3.2828282828282824 3.989898989898992,-3.1818181818181817 3.989898989898992,-3.0808080808080804 3.989898989898992,-2.9797979797979792 3.989898989898992,-2.8787878787878785 3.989898989898992,-2.7777777777777777 3.989898989898992,-2.6767676767676765 3.989898989898992,-2.5757575757575752 3.989898989898992,-2.474747474747474 3.989898989898992,-2.3737373737373733 3.989898989898992,-2.2727272727272725 3.989898989898992,-2.1717171717171713 3.989898989898992,-2.07070707070707 3.989898989898992,-1.9696969696969693 3.989898989898992,-1.8686868686868683 3.989898989898992,-1.7676767676767675 3.989898989898992,-1.6666666666666665 3.989898989898992,-1.5656565656565653 3.989898989898992,-1.4646464646464643 3.989898989898992,-1.363636363636363 3.989898989898992,-1.2626262626262625 3.989898989898992,-1.1616161616161613 3.989898989898992,-1.0606060606060603 3.989898989898992,-0.9595959595959596 3.989898989898992,-0.8585858585858579 3.989898989898992,-0.7575757575757572 3.989898989898992,-0.6565656565656557 3.989898989898992,-0.555555555555555 3.989898989898992,-0.4545454545454544 3.989898989898992,-0.35353535353535287 3.989898989898992,-0.2525252525252522 3.989898989898992,-0.15151515151515066 3.989898989898992,-0.05050505050505001 3.989898989898992,0.050505050505051545 3.989898989898992,0.1515151515151522 3.989898989898992,0.2525252525252529 3.989898989898992,0.3535353535353544 3.989898989898992,0.4545454545454551" data-type="line" data-label="" points="984,907.7171717171718 974.4646464646464,898.1818181818181 964.9292929292927,888.6464646464647 955.3939393939393,879.1111111111111 945.8585858585857,869.5757575757575 936.3232323232323,860.0404040404039 926.7878787878785,850.5050505050505 917.2525252525251,840.969696969697 907.7171717171716,831.4343434343434 898.181818181818,821.8989898989898 888.6464646464647,812.3636363636363 888.6464646464647,802.8282828282828 888.6464646464647,793.2929292929292 888.6464646464647,783.7575757575758 888.6464646464647,774.2222222222222 888.6464646464647,764.6868686868687 888.6464646464647,755.1515151515151 888.6464646464647,745.6161616161615 888.6464646464647,736.0808080808081 888.6464646464647,726.5454545454545 888.6464646464647,717.010101010101 888.6464646464647,707.4747474747475 888.6464646464647,697.939393939394 888.6464646464647,688.4040404040404 888.6464646464647,678.8686868686868 888.6464646464647,669.3333333333334 888.6464646464647,659.7979797979798 888.6464646464647,650.2626262626263 888.6464646464647,640.7272727272727 888.6464646464647,631.1919191919193 888.6464646464647,621.6565656565657 888.6464646464647,612.1212121212121 888.6464646464647,602.5858585858587 888.6464646464647,593.0505050505051 888.6464646464647,583.5151515151516 888.6464646464647,573.979797979798 888.6464646464647,564.4444444444445 888.6464646464647,554.909090909091 888.6464646464647,545.3737373737374 888.6464646464647,535.838383838384 888.6464646464647,526.3030303030304 888.6464646464647,516.7676767676768 888.6464646464647,507.23232323232327 888.6464646464647,497.69696969696975 888.6464646464647,488.1616161616163 888.6464646464647,478.6262626262627 888.6464646464647,469.0909090909092" fill="none" stroke="rgba(255,0,0,0.75)" stroke-width="11.327999999999996"/></g><g><polyline data-points="3.989898989898992,0.4545454545454551 3.989898989898992,0.5555555555555567 3.989898989898992,0.6565656565656574 3.989898989898992,0.7575757575757579 3.989898989898992,0.8585858585858596 3.989898989898992,0.9595959595959602 3.989898989898992,1.0606060606060617 3.989898989898992,1.1616161616161622 3.989898989898992,1.262626262626263 3.989898989898992,1.3636363636363644 3.989898989898992,1.4646464646464652 3.989898989898992,1.5656565656565666 3.989898989898992,1.6666666666666674 3.989898989898992,1.767676767676768 3.989898989898992,1.8686868686868696 3.989898989898992,1.9696969696969702 3.989898989898992,2.070707070707072 3.989898989898992,2.1717171717171726 3.989898989898992,2.2727272727272734 3.989898989898992,2.373737373737375 3.989898989898992,2.4747474747474754 3.989898989898992,2.575757575757577 3.989898989898992,2.676767676767678 3.989898989898992,2.7777777777777786 3.989898989898992,2.87878787878788 3.989898989898992,2.9797979797979806 3.989898989898992,3.080808080808082 3.989898989898992,3.181818181818183 3.989898989898992,3.2828282828282833 3.989898989898992,3.383838383838384 3.989898989898992,3.4848484848484866 3.989898989898992,3.5858585858585874 3.989898989898992,3.6868686868686877" data-type="line" data-label="" points="888.6464646464647,469.0909090909092 888.6464646464647,459.5555555555556 888.6464646464647,450.0202020202021 888.6464646464647,440.4848484848486 888.6464646464647,430.94949494949503 888.6464646464647,421.4141414141415 888.6464646464647,411.87878787878793 888.6464646464647,402.3434343434344 888.6464646464647,392.80808080808094 888.6464646464647,383.27272727272737 888.6464646464647,373.73737373737384 888.6464646464647,364.2020202020203 888.6464646464647,354.66666666666674 888.6464646464647,345.1313131313133 888.6464646464647,335.5959595959597 888.6464646464647,326.06060606060623 888.6464646464647,316.5252525252526 888.6464646464647,306.9898989898991 888.6464646464647,297.4545454545456 888.6464646464647,287.91919191919203 888.6464646464647,278.38383838383857 888.6464646464647,268.84848484848493 888.6464646464647,259.3131313131314 888.6464646464647,249.77777777777794 888.6464646464647,240.24242424242436 888.6464646464647,230.70707070707084 888.6464646464647,221.17171717171726 888.6464646464647,211.63636363636374 888.6464646464647,202.10101010101027 888.6464646464647,192.56565656565675 888.6464646464647,183.03030303030312 888.6464646464647,173.4949494949496 888.6464646464647,163.95959595959613" fill="none" stroke="rgba(0,0,255,0.75)" stroke-width="11.327999999999996"/></g><g><polyline data-points="3.989898989898992,3.6868686868686877 3.989898989898992,3.7878787878787885 3.989898989898992,3.8888888888888893 4.090909090909092,3.989898989898992 3.989898989898992,4.090909090909092 3.8888888888888893,4.191919191919193 3.7878787878787885,4.292929292929293 3.6868686868686877,4.393939393939394 3.5858585858585874,4.494949494949497 3.5858585858585874,4.595959595959597 3.5858585858585874,4.696969696969697 3.5858585858585874,4.7979797979797985 3.5858585858585874,4.898989898989901 3.5858585858585874,5.000000000000002" data-type="line" data-label="" points="888.6464646464647,163.95959595959613 888.6464646464647,154.4242424242426 888.6464646464647,144.88888888888908 898.181818181818,135.35353535353545 888.6464646464647,125.81818181818198 879.111111111111,116.28282828282846 869.5757575757575,106.747474747475 860.0404040404039,97.21212121212153 850.5050505050505,87.67676767676778 850.5050505050505,78.14141414141432 850.5050505050505,68.60606060606085 850.5050505050505,59.07070707070733 850.5050505050505,49.53535353535369 850.5050505050505,40.000000000000114" fill="none" stroke="rgba(255,0,0,0.75)" stroke-width="11.327999999999996"/></g><g><polyline data-points="5.000000000000002,-0.2525252525252522 4.898989898989901,-0.35353535353535287 4.7979797979797985,-0.4545454545454544 4.696969696969697,-0.555555555555555 4.595959595959597,-0.6565656565656557 4.494949494949497,-0.7575757575757572 4.393939393939394,-0.8585858585858579 4.292929292929293,-0.9595959595959596 4.191919191919193,-1.0606060606060603 4.090909090909092,-1.1616161616161613 3.989898989898992,-1.2626262626262625 3.8888888888888893,-1.363636363636363 3.7878787878787885,-1.4646464646464643 3.6868686868686877,-1.5656565656565653 3.5858585858585874,-1.6666666666666665 3.4848484848484866,-1.7676767676767675 3.383838383838384,-1.8686868686868683 3.2828282828282833,-1.9696969696969693 3.181818181818183,-2.07070707070707 3.080808080808082,-2.1717171717171713 2.9797979797979806,-2.2727272727272725 2.87878787878788,-2.3737373737373733 2.7777777777777786,-2.474747474747474 2.676767676767678,-2.5757575757575752 2.575757575757577,-2.6767676767676765 2.4747474747474754,-2.7777777777777777 2.373737373737375,-2.8787878787878785 2.2727272727272734,-2.9797979797979792 2.1717171717171726,-3.0808080808080804 2.070707070707072,-3.1818181818181817 1.9696969696969702,-3.2828282828282824 1.8686868686868696,-3.383838383838383 1.767676767676768,-3.484848484848485 1.6666666666666674,-3.5858585858585856 1.5656565656565666,-3.6868686868686864 1.4646464646464652,-3.7878787878787876 1.3636363636363644,-3.8888888888888884 1.262626262626263,-3.98989898989899 1.1616161616161622,-4.090909090909091 1.0606060606060617,-4.191919191919193 0.9595959595959602,-4.292929292929293 0.8585858585858596,-4.393939393939394 0.7575757575757579,-4.494949494949496 0.6565656565656574,-4.595959595959596 0.5555555555555567,-4.696969696969697 0.4545454545454551,-4.7979797979797985 0.3535353535353544,-4.898989898989899 0.2525252525252529,-5.000000000000001 0.1515151515151522,-5.000000000000001 0.050505050505051545,-5.000000000000001 -0.05050505050505001,-5.000000000000001 -0.15151515151515066,-5.000000000000001 -0.2525252525252522,-5.000000000000001 -0.35353535353535287,-5.000000000000001 -0.4545454545454544,-5.000000000000001 -0.555555555555555,-5.000000000000001 -0.6565656565656557,-5.000000000000001 -0.7575757575757572,-5.000000000000001 -0.8585858585858579,-5.000000000000001 -0.9595959595959596,-5.000000000000001 -1.0606060606060603,-5.000000000000001 -1.1616161616161613,-5.000000000000001 -1.2626262626262625,-5.000000000000001 -1.363636363636363,-5.000000000000001 -1.4646464646464643,-5.000000000000001 -1.5656565656565653,-5.000000000000001 -1.6666666666666665,-5.000000000000001 -1.7676767676767675,-5.000000000000001 -1.8686868686868683,-5.000000000000001 -1.9696969696969693,-5.000000000000001 -2.07070707070707,-5.000000000000001 -2.1717171717171713,-5.000000000000001 -2.2727272727272725,-5.000000000000001 -2.3737373737373733,-5.000000000000001 -2.474747474747474,-5.000000000000001 -2.5757575757575752,-5.000000000000001 -2.6767676767676765,-5.000000000000001 -2.7777777777777777,-5.000000000000001 -2.8787878787878785,-5.000000000000001 -2.9797979797979792,-5.000000000000001 -3.0808080808080804,-5.000000000000001 -3.1818181818181817,-5.000000000000001" data-type="line" data-label="" points="984,535.838383838384 974.4646464646464,545.3737373737374 964.9292929292927,554.909090909091 955.3939393939393,564.4444444444445 945.8585858585857,573.979797979798 936.3232323232323,583.5151515151516 926.7878787878785,593.0505050505051 917.2525252525251,602.5858585858587 907.7171717171716,612.1212121212121 898.181818181818,621.6565656565657 888.6464646464647,631.1919191919193 879.111111111111,640.7272727272727 869.5757575757575,650.2626262626263 860.0404040404039,659.7979797979798 850.5050505050505,669.3333333333334 840.969696969697,678.8686868686868 831.4343434343433,688.4040404040404 821.8989898989898,697.939393939394 812.3636363636363,707.4747474747475 802.8282828282828,717.010101010101 793.2929292929292,726.5454545454545 783.7575757575758,736.0808080808081 774.2222222222222,745.6161616161615 764.6868686868686,755.1515151515151 755.1515151515151,764.6868686868687 745.6161616161615,774.2222222222222 736.0808080808081,783.7575757575758 726.5454545454545,793.2929292929292 717.0101010101009,802.8282828282828 707.4747474747475,812.3636363636363 697.9393939393939,821.8989898989898 688.4040404040404,831.4343434343434 678.8686868686868,840.969696969697 669.3333333333333,850.5050505050505 659.7979797979798,860.0404040404039 650.2626262626262,869.5757575757575 640.7272727272727,879.1111111111111 631.1919191919192,888.6464646464647 621.6565656565656,898.1818181818181 612.1212121212121,907.7171717171718 602.5858585858585,917.2525252525252 593.0505050505051,926.7878787878788 583.5151515151515,936.3232323232323 573.9797979797979,945.8585858585858 564.4444444444445,955.3939393939394 554.9090909090909,964.9292929292928 545.3737373737374,974.4646464646464 535.8383838383838,984 526.3030303030303,984 516.7676767676768,984 507.2323232323232,984 497.69696969696975,984 488.16161616161617,984 478.62626262626264,984 469.09090909090907,984 459.55555555555554,984 450.0202020202021,984 440.4848484848485,984 430.949494949495,984 421.4141414141414,984 411.8787878787879,984 402.34343434343435,984 392.80808080808083,984 383.2727272727273,984 373.7373737373738,984 364.2020202020202,984 354.6666666666667,984 345.13131313131316,984 335.59595959595964,984 326.0606060606061,984 316.5252525252526,984 306.9898989898991,984 297.4545454545455,984 287.91919191919203,984 278.38383838383845,984 268.84848484848493,984 259.3131313131314,984 249.77777777777783,984 240.2424242424243,984 230.70707070707084,984 221.17171717171726,984 211.63636363636374,984" fill="none" stroke="rgba(0,0,255,0.75)" stroke-width="11.327999999999996"/></g><g><polyline data-points="5.000000000000002,-2.1717171717171713 4.898989898989901,-2.07070707070707 4.7979797979797985,-1.9696969696969693 4.696969696969697,-1.8686868686868683 4.595959595959597,-1.7676767676767675 4.494949494949497,-1.6666666666666665 4.393939393939394,-1.5656565656565653 4.292929292929293,-1.4646464646464643 4.292929292929293,-1.363636363636363 4.292929292929293,-1.2626262626262625 4.292929292929293,-1.1616161616161613 4.292929292929293,-1.0606060606060603 4.292929292929293,-0.9595959595959596 4.292929292929293,-0.8585858585858579 4.292929292929293,-0.7575757575757572 4.292929292929293,-0.6565656565656557 4.292929292929293,-0.555555555555555 4.292929292929293,-0.4545454545454544 4.292929292929293,-0.35353535353535287 4.292929292929293,-0.2525252525252522 4.292929292929293,-0.15151515151515066 4.292929292929293,-0.05050505050505001 4.292929292929293,0.050505050505051545 4.292929292929293,0.1515151515151522 4.292929292929293,0.2525252525252529 4.292929292929293,0.3535353535353544 4.292929292929293,0.4545454545454551 4.191919191919193,0.5555555555555567 4.090909090909092,0.6565656565656574 4.090909090909092,0.7575757575757579 3.989898989898992,0.8585858585858596 3.8888888888888893,0.9595959595959602 3.7878787878787885,1.0606060606060617 3.6868686868686877,1.1616161616161622 3.5858585858585874,1.262626262626263 3.4848484848484866,1.3636363636363644 3.383838383838384,1.4646464646464652 3.2828282828282833,1.5656565656565666 3.181818181818183,1.6666666666666674 3.080808080808082,1.767676767676768 2.9797979797979806,1.8686868686868696 2.87878787878788,1.9696969696969702 2.7777777777777786,2.070707070707072 2.676767676767678,2.1717171717171726 2.575757575757577,2.2727272727272734 2.4747474747474754,2.373737373737375 2.373737373737375,2.4747474747474754 2.2727272727272734,2.575757575757577 2.1717171717171726,2.676767676767678 2.070707070707072,2.7777777777777786 1.9696969696969702,2.87878787878788 1.8686868686868696,2.9797979797979806 1.767676767676768,3.080808080808082 1.6666666666666674,3.181818181818183 1.5656565656565666,3.2828282828282833 1.4646464646464652,3.383838383838384 1.3636363636363644,3.4848484848484866 1.262626262626263,3.5858585858585874 1.1616161616161622,3.5858585858585874 1.0606060606060617,3.5858585858585874 0.9595959595959602,3.5858585858585874 0.8585858585858596,3.5858585858585874 0.7575757575757579,3.5858585858585874 0.6565656565656574,3.5858585858585874 0.5555555555555567,3.5858585858585874 0.4545454545454551,3.5858585858585874 0.3535353535353544,3.5858585858585874 0.2525252525252529,3.5858585858585874 0.1515151515151522,3.5858585858585874 0.050505050505051545,3.5858585858585874 -0.05050505050505001,3.5858585858585874 -0.15151515151515066,3.5858585858585874 -0.2525252525252522,3.5858585858585874 -0.35353535353535287,3.5858585858585874 -0.4545454545454544,3.5858585858585874 -0.555555555555555,3.5858585858585874 -0.6565656565656557,3.5858585858585874 -0.7575757575757572,3.5858585858585874 -0.8585858585858579,3.5858585858585874 -0.9595959595959596,3.5858585858585874 -1.0606060606060603,3.5858585858585874 -1.1616161616161613,3.5858585858585874 -1.2626262626262625,3.5858585858585874 -1.363636363636363,3.5858585858585874 -1.4646464646464643,3.5858585858585874 -1.5656565656565653,3.5858585858585874 -1.6666666666666665,3.5858585858585874 -1.7676767676767675,3.5858585858585874 -1.8686868686868683,3.5858585858585874 -1.9696969696969693,3.5858585858585874 -2.07070707070707,3.5858585858585874 -2.1717171717171713,3.5858585858585874" data-type="line" data-label="" points="984,717.010101010101 974.4646464646464,707.4747474747475 964.9292929292927,697.939393939394 955.3939393939393,688.4040404040404 945.8585858585857,678.8686868686868 936.3232323232323,669.3333333333334 926.7878787878785,659.7979797979798 917.2525252525251,650.2626262626263 917.2525252525251,640.7272727272727 917.2525252525251,631.1919191919193 917.2525252525251,621.6565656565657 917.2525252525251,612.1212121212121 917.2525252525251,602.5858585858587 917.2525252525251,593.0505050505051 917.2525252525251,583.5151515151516 917.2525252525251,573.979797979798 917.2525252525251,564.4444444444445 917.2525252525251,554.909090909091 917.2525252525251,545.3737373737374 917.2525252525251,535.838383838384 917.2525252525251,526.3030303030304 917.2525252525251,516.7676767676768 917.2525252525251,507.23232323232327 917.2525252525251,497.69696969696975 917.2525252525251,488.1616161616163 917.2525252525251,478.6262626262627 917.2525252525251,469.0909090909092 907.7171717171716,459.5555555555556 898.181818181818,450.0202020202021 898.181818181818,440.4848484848486 888.6464646464647,430.94949494949503 879.111111111111,421.4141414141415 869.5757575757575,411.87878787878793 860.0404040404039,402.3434343434344 850.5050505050505,392.80808080808094 840.969696969697,383.27272727272737 831.4343434343433,373.73737373737384 821.8989898989898,364.2020202020203 812.3636363636363,354.66666666666674 802.8282828282828,345.1313131313133 793.2929292929292,335.5959595959597 783.7575757575758,326.06060606060623 774.2222222222222,316.5252525252526 764.6868686868686,306.9898989898991 755.1515151515151,297.4545454545456 745.6161616161615,287.91919191919203 736.0808080808081,278.38383838383857 726.5454545454545,268.84848484848493 717.0101010101009,259.3131313131314 707.4747474747475,249.77777777777794 697.9393939393939,240.24242424242436 688.4040404040404,230.70707070707084 678.8686868686868,221.17171717171726 669.3333333333333,211.63636363636374 659.7979797979798,202.10101010101027 650.2626262626262,192.56565656565675 640.7272727272727,183.03030303030312 631.1919191919192,173.4949494949496 621.6565656565656,173.4949494949496 612.1212121212121,173.4949494949496 602.5858585858585,173.4949494949496 593.0505050505051,173.4949494949496 583.5151515151515,173.4949494949496 573.9797979797979,173.4949494949496 564.4444444444445,173.4949494949496 554.9090909090909,173.4949494949496 545.3737373737374,173.4949494949496 535.8383838383838,173.4949494949496 526.3030303030303,173.4949494949496 516.7676767676768,173.4949494949496 507.2323232323232,173.4949494949496 497.69696969696975,173.4949494949496 488.16161616161617,173.4949494949496 478.62626262626264,173.4949494949496 469.09090909090907,173.4949494949496 459.55555555555554,173.4949494949496 450.0202020202021,173.4949494949496 440.4848484848485,173.4949494949496 430.949494949495,173.4949494949496 421.4141414141414,173.4949494949496 411.8787878787879,173.4949494949496 402.34343434343435,173.4949494949496 392.80808080808083,173.4949494949496 383.2727272727273,173.4949494949496 373.7373737373738,173.4949494949496 364.2020202020202,173.4949494949496 354.6666666666667,173.4949494949496 345.13131313131316,173.4949494949496 335.59595959595964,173.4949494949496 326.0606060606061,173.4949494949496 316.5252525252526,173.4949494949496 306.9898989898991,173.4949494949496" fill="none" stroke="rgba(255,0,0,0.75)" stroke-width="11.327999999999996"/></g><g><polyline data-points="-2.1717171717171713,3.5858585858585874 -2.2727272727272725,3.6868686868686877 -2.3737373737373733,3.7878787878787885 -2.474747474747474,3.8888888888888893 -2.5757575757575752,3.989898989898992 -2.6767676767676765,4.090909090909092 -2.7777777777777777,4.191919191919193 -2.8787878787878785,4.292929292929293 -2.9797979797979792,4.393939393939394 -3.0808080808080804,4.494949494949497 -3.1818181818181817,4.595959595959597 -3.2828282828282824,4.595959595959597 -3.383838383838383,4.595959595959597 -3.484848484848485,4.595959595959597 -3.5858585858585856,4.595959595959597 -3.6868686868686864,4.595959595959597 -3.7878787878787876,4.595959595959597 -3.8888888888888884,4.595959595959597 -3.98989898989899,4.595959595959597 -4.090909090909091,4.595959595959597 -4.191919191919193,4.595959595959597 -4.292929292929293,4.595959595959597 -4.393939393939394,4.595959595959597 -4.494949494949496,4.595959595959597 -4.595959595959596,4.595959595959597 -4.696969696969697,4.595959595959597 -4.7979797979797985,4.595959595959597 -4.898989898989899,4.595959595959597 -5.000000000000001,4.595959595959597" data-type="line" data-label="" points="306.9898989898991,173.4949494949496 297.4545454545455,163.95959595959613 287.91919191919203,154.4242424242426 278.38383838383845,144.88888888888908 268.84848484848493,135.35353535353545 259.3131313131314,125.81818181818198 249.77777777777783,116.28282828282846 240.2424242424243,106.747474747475 230.70707070707084,97.21212121212153 221.17171717171726,87.67676767676778 211.63636363636374,78.14141414141432 202.10101010101022,78.14141414141432 192.5656565656567,78.14141414141432 183.03030303030312,78.14141414141432 173.4949494949496,78.14141414141432 163.95959595959607,78.14141414141432 154.42424242424255,78.14141414141432 144.88888888888903,78.14141414141432 135.35353535353545,78.14141414141432 125.81818181818193,78.14141414141432 116.28282828282829,78.14141414141432 106.74747474747483,78.14141414141432 97.21212121212136,78.14141414141432 87.67676767676772,78.14141414141432 78.14141414141426,78.14141414141432 68.60606060606068,78.14141414141432 59.07070707070716,78.14141414141432 49.53535353535369,78.14141414141432 40.00000000000006,78.14141414141432" fill="none" stroke="rgba(0,0,255,0.75)" stroke-width="11.327999999999996"/></g><g><polyline data-points="4.494949494949497,5.000000000000002 4.393939393939394,4.898989898989901 4.292929292929293,4.7979797979797985 4.191919191919193,4.696969696969697 4.090909090909092,4.595959595959597 3.989898989898992,4.494949494949497 3.8888888888888893,4.393939393939394 3.7878787878787885,4.292929292929293 3.6868686868686877,4.191919191919193 3.5858585858585874,4.090909090909092 3.4848484848484866,3.989898989898992 3.4848484848484866,3.8888888888888893 3.4848484848484866,3.7878787878787885 3.4848484848484866,3.6868686868686877 3.4848484848484866,3.5858585858585874 3.4848484848484866,3.4848484848484866 3.4848484848484866,3.383838383838384 3.4848484848484866,3.2828282828282833 3.4848484848484866,3.181818181818183 3.4848484848484866,3.080808080808082 3.4848484848484866,2.9797979797979806 3.4848484848484866,2.87878787878788 3.4848484848484866,2.7777777777777786 3.4848484848484866,2.676767676767678 3.4848484848484866,2.575757575757577 3.4848484848484866,2.4747474747474754 3.4848484848484866,2.373737373737375 3.4848484848484866,2.2727272727272734 3.4848484848484866,2.1717171717171726 3.4848484848484866,2.070707070707072 3.4848484848484866,1.9696969696969702 3.4848484848484866,1.8686868686868696 3.4848484848484866,1.767676767676768 3.4848484848484866,1.6666666666666674 3.4848484848484866,1.5656565656565666 3.4848484848484866,1.4646464646464652 3.4848484848484866,1.3636363636363644 3.4848484848484866,1.262626262626263 3.4848484848484866,1.1616161616161622 3.4848484848484866,1.0606060606060617 3.4848484848484866,0.9595959595959602 3.4848484848484866,0.8585858585858596 3.4848484848484866,0.7575757575757579 3.4848484848484866,0.6565656565656574 3.4848484848484866,0.5555555555555567 3.5858585858585874,0.4545454545454551 3.5858585858585874,0.3535353535353544 3.5858585858585874,0.2525252525252529 3.5858585858585874,0.1515151515151522 3.5858585858585874,0.050505050505051545 3.5858585858585874,-0.05050505050505001 3.5858585858585874,-0.15151515151515066 3.5858585858585874,-0.2525252525252522 3.5858585858585874,-0.35353535353535287 3.5858585858585874,-0.4545454545454544 3.5858585858585874,-0.555555555555555 3.5858585858585874,-0.6565656565656557 3.5858585858585874,-0.7575757575757572 3.5858585858585874,-0.8585858585858579 3.5858585858585874,-0.9595959595959596 3.5858585858585874,-1.0606060606060603 3.5858585858585874,-1.1616161616161613" data-type="line" data-label="" points="936.3232323232323,40.000000000000114 926.7878787878785,49.53535353535369 917.2525252525251,59.07070707070733 907.7171717171716,68.60606060606085 898.181818181818,78.14141414141432 888.6464646464647,87.67676767676778 879.111111111111,97.21212121212153 869.5757575757575,106.747474747475 860.0404040404039,116.28282828282846 850.5050505050505,125.81818181818198 840.969696969697,135.35353535353545 840.969696969697,144.88888888888908 840.969696969697,154.4242424242426 840.969696969697,163.95959595959613 840.969696969697,173.4949494949496 840.969696969697,183.03030303030312 840.969696969697,192.56565656565675 840.969696969697,202.10101010101027 840.969696969697,211.63636363636374 840.969696969697,221.17171717171726 840.969696969697,230.70707070707084 840.969696969697,240.24242424242436 840.969696969697,249.77777777777794 840.969696969697,259.3131313131314 840.969696969697,268.84848484848493 840.969696969697,278.38383838383857 840.969696969697,287.91919191919203 840.969696969697,297.4545454545456 840.969696969697,306.9898989898991 840.969696969697,316.5252525252526 840.969696969697,326.06060606060623 840.969696969697,335.5959595959597 840.969696969697,345.1313131313133 840.969696969697,354.66666666666674 840.969696969697,364.2020202020203 840.969696969697,373.73737373737384 840.969696969697,383.27272727272737 840.969696969697,392.80808080808094 840.969696969697,402.3434343434344 840.969696969697,411.87878787878793 840.969696969697,421.4141414141415 840.969696969697,430.94949494949503 840.969696969697,440.4848484848486 840.969696969697,450.0202020202021 840.969696969697,459.5555555555556 850.5050505050505,469.0909090909092 850.5050505050505,478.6262626262627 850.5050505050505,488.1616161616163 850.5050505050505,497.69696969696975 850.5050505050505,507.23232323232327 850.5050505050505,516.7676767676768 850.5050505050505,526.3030303030304 850.5050505050505,535.838383838384 850.5050505050505,545.3737373737374 850.5050505050505,554.909090909091 850.5050505050505,564.4444444444445 850.5050505050505,573.979797979798 850.5050505050505,583.5151515151516 850.5050505050505,593.0505050505051 850.5050505050505,602.5858585858587 850.5050505050505,612.1212121212121 850.5050505050505,621.6565656565657" fill="none" stroke="rgba(0,0,255,0.75)" stroke-width="11.327999999999996"/></g><g><polyline data-points="3.5858585858585874,-1.1616161616161613 3.6868686868686877,-1.2626262626262625 3.7878787878787885,-1.363636363636363 3.7878787878787885,-1.4646464646464643 3.7878787878787885,-1.5656565656565653 3.7878787878787885,-1.6666666666666665 3.7878787878787885,-1.7676767676767675 3.7878787878787885,-1.8686868686868683 3.7878787878787885,-1.9696969696969693 3.7878787878787885,-2.07070707070707 3.7878787878787885,-2.1717171717171713 3.7878787878787885,-2.2727272727272725 3.7878787878787885,-2.3737373737373733 3.7878787878787885,-2.474747474747474 3.7878787878787885,-2.5757575757575752 3.7878787878787885,-2.6767676767676765 3.7878787878787885,-2.7777777777777777 3.7878787878787885,-2.8787878787878785 3.7878787878787885,-2.9797979797979792 3.7878787878787885,-3.0808080808080804 3.7878787878787885,-3.1818181818181817 3.7878787878787885,-3.2828282828282824 3.7878787878787885,-3.383838383838383 3.7878787878787885,-3.484848484848485 3.7878787878787885,-3.5858585858585856 3.7878787878787885,-3.6868686868686864 3.7878787878787885,-3.7878787878787876 3.7878787878787885,-3.8888888888888884 3.7878787878787885,-3.98989898989899 3.7878787878787885,-4.090909090909091 3.7878787878787885,-4.191919191919193 3.7878787878787885,-4.292929292929293 3.7878787878787885,-4.393939393939394 3.7878787878787885,-4.494949494949496 3.7878787878787885,-4.595959595959596 3.7878787878787885,-4.696969696969697 3.7878787878787885,-4.7979797979797985 3.7878787878787885,-4.898989898989899 3.7878787878787885,-5.000000000000001" data-type="line" data-label="" points="850.5050505050505,621.6565656565657 860.0404040404039,631.1919191919193 869.5757575757575,640.7272727272727 869.5757575757575,650.2626262626263 869.5757575757575,659.7979797979798 869.5757575757575,669.3333333333334 869.5757575757575,678.8686868686868 869.5757575757575,688.4040404040404 869.5757575757575,697.939393939394 869.5757575757575,707.4747474747475 869.5757575757575,717.010101010101 869.5757575757575,726.5454545454545 869.5757575757575,736.0808080808081 869.5757575757575,745.6161616161615 869.5757575757575,755.1515151515151 869.5757575757575,764.6868686868687 869.5757575757575,774.2222222222222 869.5757575757575,783.7575757575758 869.5757575757575,793.2929292929292 869.5757575757575,802.8282828282828 869.5757575757575,812.3636363636363 869.5757575757575,821.8989898989898 869.5757575757575,831.4343434343434 869.5757575757575,840.969696969697 869.5757575757575,850.5050505050505 869.5757575757575,860.0404040404039 869.5757575757575,869.5757575757575 869.5757575757575,879.1111111111111 869.5757575757575,888.6464646464647 869.5757575757575,898.1818181818181 869.5757575757575,907.7171717171718 869.5757575757575,917.2525252525252 869.5757575757575,926.7878787878788 869.5757575757575,936.3232323232323 869.5757575757575,945.8585858585858 869.5757575757575,955.3939393939394 869.5757575757575,964.9292929292928 869.5757575757575,974.4646464646464 869.5757575757575,984" fill="none" stroke="rgba(255,0,0,0.75)" stroke-width="11.327999999999996"/></g><g><polyline data-points="-5.000000000000001,3.4848484848484866 -4.898989898989899,3.5858585858585874 -4.7979797979797985,3.6868686868686877 -4.696969696969697,3.7878787878787885 -4.595959595959596,3.8888888888888893 -4.494949494949496,3.989898989898992 -4.393939393939394,4.090909090909092 -4.292929292929293,4.191919191919193 -4.191919191919193,4.292929292929293 -4.090909090909091,4.393939393939394 -3.98989898989899,4.494949494949497 -3.8888888888888884,4.595959595959597 -3.7878787878787876,4.696969696969697 -3.6868686868686864,4.7979797979797985 -3.5858585858585856,4.898989898989901 -3.484848484848485,5.000000000000002 -3.383838383838383,5.000000000000002 -3.2828282828282824,5.000000000000002 -3.1818181818181817,5.000000000000002 -3.0808080808080804,5.000000000000002 -2.9797979797979792,5.000000000000002 -2.8787878787878785,5.000000000000002 -2.7777777777777777,5.000000000000002 -2.6767676767676765,5.000000000000002 -2.5757575757575752,5.000000000000002 -2.474747474747474,5.000000000000002 -2.3737373737373733,5.000000000000002 -2.2727272727272725,5.000000000000002 -2.1717171717171713,5.000000000000002 -2.07070707070707,5.000000000000002 -1.9696969696969693,5.000000000000002 -1.8686868686868683,5.000000000000002 -1.7676767676767675,5.000000000000002 -1.6666666666666665,5.000000000000002 -1.5656565656565653,5.000000000000002 -1.4646464646464643,5.000000000000002 -1.363636363636363,5.000000000000002 -1.2626262626262625,5.000000000000002 -1.1616161616161613,5.000000000000002 -1.0606060606060603,5.000000000000002 -0.9595959595959596,5.000000000000002 -0.8585858585858579,5.000000000000002 -0.7575757575757572,5.000000000000002 -0.6565656565656557,5.000000000000002 -0.555555555555555,5.000000000000002 -0.4545454545454544,5.000000000000002 -0.35353535353535287,5.000000000000002 -0.2525252525252522,5.000000000000002 -0.15151515151515066,5.000000000000002 -0.05050505050505001,5.000000000000002 0.050505050505051545,5.000000000000002 0.1515151515151522,5.000000000000002 0.2525252525252529,5.000000000000002 0.3535353535353544,5.000000000000002 0.4545454545454551,5.000000000000002 0.5555555555555567,5.000000000000002 0.6565656565656574,5.000000000000002 0.7575757575757579,5.000000000000002 0.8585858585858596,5.000000000000002 0.9595959595959602,5.000000000000002 1.0606060606060617,5.000000000000002 1.1616161616161622,5.000000000000002 1.262626262626263,5.000000000000002 1.3636363636363644,5.000000000000002" data-type="line" data-label="" points="40.00000000000006,183.03030303030312 49.53535353535369,173.4949494949496 59.07070707070716,163.95959595959613 68.60606060606068,154.4242424242426 78.14141414141426,144.88888888888908 87.67676767676772,135.35353535353545 97.21212121212136,125.81818181818198 106.74747474747483,116.28282828282846 116.28282828282829,106.747474747475 125.81818181818193,97.21212121212153 135.35353535353545,87.67676767676778 144.88888888888903,78.14141414141432 154.42424242424255,68.60606060606085 163.95959595959607,59.07070707070733 173.4949494949496,49.53535353535369 183.03030303030312,40.000000000000114 192.5656565656567,40.000000000000114 202.10101010101022,40.000000000000114 211.63636363636374,40.000000000000114 221.17171717171726,40.000000000000114 230.70707070707084,40.000000000000114 240.2424242424243,40.000000000000114 249.77777777777783,40.000000000000114 259.3131313131314,40.000000000000114 268.84848484848493,40.000000000000114 278.38383838383845,40.000000000000114 287.91919191919203,40.000000000000114 297.4545454545455,40.000000000000114 306.9898989898991,40.000000000000114 316.5252525252526,40.000000000000114 326.0606060606061,40.000000000000114 335.59595959595964,40.000000000000114 345.13131313131316,40.000000000000114 354.6666666666667,40.000000000000114 364.2020202020202,40.000000000000114 373.7373737373738,40.000000000000114 383.2727272727273,40.000000000000114 392.80808080808083,40.000000000000114 402.34343434343435,40.000000000000114 411.8787878787879,40.000000000000114 421.4141414141414,40.000000000000114 430.949494949495,40.000000000000114 440.4848484848485,40.000000000000114 450.0202020202021,40.000000000000114 459.55555555555554,40.000000000000114 469.09090909090907,40.000000000000114 478.62626262626264,40.000000000000114 488.16161616161617,40.000000000000114 497.69696969696975,40.000000000000114 507.2323232323232,40.000000000000114 516.7676767676768,40.000000000000114 526.3030303030303,40.000000000000114 535.8383838383838,40.000000000000114 545.3737373737374,40.000000000000114 554.9090909090909,40.000000000000114 564.4444444444445,40.000000000000114 573.9797979797979,40.000000000000114 583.5151515151515,40.000000000000114 593.0505050505051,40.000000000000114 602.5858585858585,40.000000000000114 612.1212121212121,40.000000000000114 621.6565656565656,40.000000000000114 631.1919191919192,40.000000000000114 640.7272727272727,40.000000000000114" fill="none" stroke="rgba(255,0,0,0.75)" stroke-width="11.327999999999996"/></g><g><polyline data-points="5.000000000000002,1.9696969696969702 4.898989898989901,1.9696969696969702 4.7979797979797985,1.9696969696969702 4.696969696969697,1.9696969696969702 4.595959595959597,1.9696969696969702 4.494949494949497,1.9696969696969702 4.393939393939394,1.9696969696969702 4.292929292929293,1.9696969696969702 4.191919191919193,1.9696969696969702 4.090909090909092,1.9696969696969702 3.989898989898992,1.9696969696969702 3.8888888888888893,1.9696969696969702 3.7878787878787885,1.9696969696969702 3.6868686868686877,1.9696969696969702 3.5858585858585874,1.9696969696969702 3.4848484848484866,1.9696969696969702 3.383838383838384,1.9696969696969702 3.2828282828282833,2.070707070707072 3.181818181818183,2.1717171717171726 3.080808080808082,2.2727272727272734" data-type="line" data-label="" points="984,326.06060606060623 974.4646464646464,326.06060606060623 964.9292929292927,326.06060606060623 955.3939393939393,326.06060606060623 945.8585858585857,326.06060606060623 936.3232323232323,326.06060606060623 926.7878787878785,326.06060606060623 917.2525252525251,326.06060606060623 907.7171717171716,326.06060606060623 898.181818181818,326.06060606060623 888.6464646464647,326.06060606060623 879.111111111111,326.06060606060623 869.5757575757575,326.06060606060623 860.0404040404039,326.06060606060623 850.5050505050505,326.06060606060623 840.969696969697,326.06060606060623 831.4343434343433,326.06060606060623 821.8989898989898,316.5252525252526 812.3636363636363,306.9898989898991 802.8282828282828,297.4545454545456" fill="none" stroke="rgba(255,0,0,0.75)" stroke-width="11.327999999999996"/></g><g><polyline data-points="3.080808080808082,2.2727272727272734 2.9797979797979806,2.1717171717171726 2.87878787878788,2.070707070707072 2.7777777777777786,1.9696969696969702 2.676767676767678,1.8686868686868696 2.575757575757577,1.767676767676768 2.4747474747474754,1.6666666666666674 2.373737373737375,1.5656565656565666 2.2727272727272734,1.4646464646464652 2.1717171717171726,1.3636363636363644 2.070707070707072,1.262626262626263 1.9696969696969702,1.1616161616161622 1.8686868686868696,1.0606060606060617 1.767676767676768,0.9595959595959602 1.6666666666666674,0.8585858585858596 1.5656565656565666,0.7575757575757579 1.4646464646464652,0.6565656565656574 1.3636363636363644,0.5555555555555567 1.262626262626263,0.4545454545454551 1.1616161616161622,0.3535353535353544 1.0606060606060617,0.2525252525252529 0.9595959595959602,0.1515151515151522 0.8585858585858596,0.050505050505051545 0.7575757575757579,-0.05050505050505001 0.6565656565656574,-0.15151515151515066 0.5555555555555567,-0.2525252525252522 0.4545454545454551,-0.35353535353535287 0.3535353535353544,-0.4545454545454544 0.2525252525252529,-0.555555555555555 0.1515151515151522,-0.6565656565656557 0.050505050505051545,-0.7575757575757572 -0.05050505050505001,-0.8585858585858579 -0.15151515151515066,-0.9595959595959596 -0.2525252525252522,-1.0606060606060603 -0.35353535353535287,-1.1616161616161613 -0.4545454545454544,-1.2626262626262625 -0.555555555555555,-1.363636363636363 -0.6565656565656557,-1.4646464646464643 -0.7575757575757572,-1.5656565656565653 -0.8585858585858579,-1.6666666666666665 -0.9595959595959596,-1.7676767676767675 -1.0606060606060603,-1.8686868686868683 -1.1616161616161613,-1.9696969696969693 -1.2626262626262625,-2.07070707070707 -1.363636363636363,-2.07070707070707" data-type="line" data-label="" points="802.8282828282828,297.4545454545456 793.2929292929292,306.9898989898991 783.7575757575758,316.5252525252526 774.2222222222222,326.06060606060623 764.6868686868686,335.5959595959597 755.1515151515151,345.1313131313133 745.6161616161615,354.66666666666674 736.0808080808081,364.2020202020203 726.5454545454545,373.73737373737384 717.0101010101009,383.27272727272737 707.4747474747475,392.80808080808094 697.9393939393939,402.3434343434344 688.4040404040404,411.87878787878793 678.8686868686868,421.4141414141415 669.3333333333333,430.94949494949503 659.7979797979798,440.4848484848486 650.2626262626262,450.0202020202021 640.7272727272727,459.5555555555556 631.1919191919192,469.0909090909092 621.6565656565656,478.6262626262627 612.1212121212121,488.1616161616163 602.5858585858585,497.69696969696975 593.0505050505051,507.23232323232327 583.5151515151515,516.7676767676768 573.9797979797979,526.3030303030304 564.4444444444445,535.838383838384 554.9090909090909,545.3737373737374 545.3737373737374,554.909090909091 535.8383838383838,564.4444444444445 526.3030303030303,573.979797979798 516.7676767676768,583.5151515151516 507.2323232323232,593.0505050505051 497.69696969696975,602.5858585858587 488.16161616161617,612.1212121212121 478.62626262626264,621.6565656565657 469.09090909090907,631.1919191919193 459.55555555555554,640.7272727272727 450.0202020202021,650.2626262626263 440.4848484848485,659.7979797979798 430.949494949495,669.3333333333334 421.4141414141414,678.8686868686868 411.8787878787879,688.4040404040404 402.34343434343435,697.939393939394 392.80808080808083,707.4747474747475 383.2727272727273,707.4747474747475" fill="none" stroke="rgba(0,0,255,0.75)" stroke-width="11.327999999999996"/></g><g><polyline data-points="-1.363636363636363,-2.07070707070707 -1.4646464646464643,-2.07070707070707 -1.5656565656565653,-2.07070707070707 -1.6666666666666665,-2.07070707070707 -1.7676767676767675,-2.07070707070707 -1.8686868686868683,-2.07070707070707 -1.9696969696969693,-2.07070707070707 -2.07070707070707,-2.07070707070707 -2.1717171717171713,-2.07070707070707 -2.2727272727272725,-2.07070707070707 -2.3737373737373733,-2.07070707070707 -2.474747474747474,-2.07070707070707 -2.5757575757575752,-2.07070707070707 -2.6767676767676765,-2.07070707070707 -2.7777777777777777,-2.07070707070707 -2.8787878787878785,-2.07070707070707 -2.9797979797979792,-2.07070707070707 -3.0808080808080804,-2.07070707070707 -3.1818181818181817,-2.07070707070707 -3.2828282828282824,-2.07070707070707 -3.383838383838383,-2.07070707070707 -3.484848484848485,-2.07070707070707 -3.5858585858585856,-2.07070707070707 -3.6868686868686864,-2.07070707070707 -3.7878787878787876,-2.07070707070707 -3.8888888888888884,-2.07070707070707 -3.98989898989899,-2.07070707070707 -4.090909090909091,-2.07070707070707 -4.191919191919193,-2.07070707070707 -4.292929292929293,-2.07070707070707 -4.393939393939394,-2.07070707070707 -4.494949494949496,-2.07070707070707 -4.595959595959596,-2.07070707070707 -4.696969696969697,-2.07070707070707 -4.7979797979797985,-2.07070707070707 -4.898989898989899,-2.07070707070707 -5.000000000000001,-2.1717171717171713" data-type="line" data-label="" points="383.2727272727273,707.4747474747475 373.7373737373738,707.4747474747475 364.2020202020202,707.4747474747475 354.6666666666667,707.4747474747475 345.13131313131316,707.4747474747475 335.59595959595964,707.4747474747475 326.0606060606061,707.4747474747475 316.5252525252526,707.4747474747475 306.9898989898991,707.4747474747475 297.4545454545455,707.4747474747475 287.91919191919203,707.4747474747475 278.38383838383845,707.4747474747475 268.84848484848493,707.4747474747475 259.3131313131314,707.4747474747475 249.77777777777783,707.4747474747475 240.2424242424243,707.4747474747475 230.70707070707084,707.4747474747475 221.17171717171726,707.4747474747475 211.63636363636374,707.4747474747475 202.10101010101022,707.4747474747475 192.5656565656567,707.4747474747475 183.03030303030312,707.4747474747475 173.4949494949496,707.4747474747475 163.95959595959607,707.4747474747475 154.42424242424255,707.4747474747475 144.88888888888903,707.4747474747475 135.35353535353545,707.4747474747475 125.81818181818193,707.4747474747475 116.28282828282829,707.4747474747475 106.74747474747483,707.4747474747475 97.21212121212136,707.4747474747475 87.67676767676772,707.4747474747475 78.14141414141426,707.4747474747475 68.60606060606068,707.4747474747475 59.07070707070716,707.4747474747475 49.53535353535369,707.4747474747475 40.00000000000006,717.010101010101" fill="none" stroke="rgba(255,0,0,0.75)" stroke-width="11.327999999999996"/></g><g><rect data-type="rect" data-label="" data-x="0" data-y="0" x="40.000000000000114" y="40.000000000000284" width="943.9999999999997" height="943.9999999999998" fill="none" stroke="gray" stroke-width="0.010593220338983056"/></g><g><rect data-type="rect" data-label="" data-x="0" data-y="0" x="40.000000000000114" y="40.000000000000284" width="943.9999999999997" height="943.9999999999998" fill="none" stroke="rgba(15, 23, 42, 0.8)" stroke-width="0.010593220338983056"/></g><circle data-type="circle" data-label="" data-x="3.7878787878787885" data-y="3.989898989898992" cx="869.5757575757575" cy="135.35353535353545" r="14.159999999999995" fill="rgba(0,0,0,0.3)" stroke="black" stroke-width="0.010593220338983056"/><circle data-type="circle" data-label="" data-x="-1.8686868686868683" data-y="-2.5757575757575752" cx="335.59595959595964" cy="755.1515151515151" r="14.159999999999995" fill="rgba(0,0,0,0.3)" stroke="black" stroke-width="0.010593220338983056"/><circle data-type="circle" data-label="" data-x="3.989898989898992" data-y="0.4545454545454551" cx="888.6464646464647" cy="469.0909090909092" r="14.159999999999995" fill="rgba(0,0,0,0.3)" stroke="black" stroke-width="0.010593220338983056"/><circle data-type="circle" data-label="" data-x="3.989898989898992" data-y="3.6868686868686877" cx="888.6464646464647" cy="163.95959595959613" r="14.159999999999995" fill="rgba(0,0,0,0.3)" stroke="black" stroke-width="0.010593220338983056"/><circle data-type="circle" data-label="" data-x="-2.1717171717171713" data-y="3.5858585858585874" cx="306.9898989898991" cy="173.4949494949496" r="14.159999999999995" fill="rgba(0,0,0,0.3)" stroke="black" stroke-width="0.010593220338983056"/><circle data-type="circle" data-label="" data-x="3.5858585858585874" data-y="-1.1616161616161613" cx="850.5050505050505" cy="621.6565656565657" r="14.159999999999995" fill="rgba(0,0,0,0.3)" stroke="black" stroke-width="0.010593220338983056"/><circle data-type="circle" data-label="" data-x="3.080808080808082" data-y="2.2727272727272734" cx="802.8282828282828" cy="297.4545454545456" r="14.159999999999995" fill="rgba(0,0,0,0.3)" stroke="black" stroke-width="0.010593220338983056"/><circle data-type="circle" data-label="" data-x="-1.363636363636363" data-y="-2.07070707070707" cx="383.2727272727273" cy="707.4747474747475" r="14.159999999999995" fill="rgba(0,0,0,0.3)" stroke="black" stroke-width="0.010593220338983056"/><g id="crosshair" style="display: none"><line id="crosshair-h" y1="0" y2="1024" stroke="#666" stroke-width="0.5"/><line id="crosshair-v" x1="0" x2="1024" stroke="#666" stroke-width="0.5"/><text id="coordinates" font-family="monospace" font-size="12" fill="#666"></text></g><script><![CDATA[
              document.currentScript.parentElement.addEventListener('mousemove', (e) => {
                const svg = e.currentTarget;
                const rect = svg.getBoundingClientRect();
                const x = e.clientX - rect.left;
                const y = e.clientY - rect.top;
                const crosshair = svg.getElementById('crosshair');
                const h = svg.getElementById('crosshair-h');
                const v = svg.getElementById('crosshair-v');
                const coords = svg.getElementById('coordinates');
                
                crosshair.style.display = 'block';
                h.setAttribute('x1', '0');
                h.setAttribute('x2', '1024');
                h.setAttribute('y1', y);
                h.setAttribute('y2', y);
                v.setAttribute('x1', x);
                v.setAttribute('x2', x);
                v.setAttribute('y1', '0');
                v.setAttribute('y2', '1024');

                // Calculate real coordinates using inverse transformation
                const matrix = {"a":94.39999999999996,"c":0,"e":511.99999999999994,"b":0,"d":-94.39999999999996,"f":512.0000000000001};
                // Manually invert and apply the affine transform
                // Since we only use translate and scale, we can directly compute:
                // x' = (x - tx) / sx
                // y' = (y - ty) / sy
                const sx = matrix.a;
                const sy = matrix.d;
                const tx = matrix.e; 
                const ty = matrix.f;
                const realPoint = {
                  x: (x - tx) / sx,
                  y: (y - ty) / sy // Flip y back since we used negative scale
                }
                
                coords.textContent = `(${realPoint.x.toFixed(2)}, ${realPoint.y.toFixed(2)})`;
                coords.setAttribute('x', (x + 5).toString());
                coords.setAttribute('y', (y - 5).toString());
              });
              document.currentScript.parentElement.addEventListener('mouseleave', () => {
                document.currentScript.parentElement.getElementById('crosshair').style.display = 'none';
              });
            ]]></script></svg>