<svg width="1024" height="1024" viewBox="0 0 1024 1024" xmlns="http://www.w3.org/2000/svg"><rect width="100%" height="100%" fill="white"/><g><circle data-type="point" data-label="conn_000" data-x="5" data-y="-2.44" cx="983.9999999999998" cy="742.336" r="14.16" fill="red"/></g><g><circle data-type="point" data-label="conn_000" data-x="-5" data-y="-4.58" cx="40.000000000000114" cy="944.352" r="14.16" fill="red"/></g><g><circle data-type="point" data-label="conn_001" data-x="-5" data-y="-0.46" cx="40.000000000000114" cy="555.4240000000001" r="14.16" fill="red"/></g><g><circle data-type="point" data-label="conn_001" data-x="5" data-y="-0.62" cx="983.9999999999998" cy="570.5280000000001" r="14.16" fill="red"/></g><g><circle data-type="point" data-label="conn_002" data-x="-1.54" data-y="5" cx="366.624" cy="40.000000000000284" r="14.16" fill="blue"/></g><g><circle data-type="point" data-label="conn_002" data-x="-3.8000000000000003" data-y="-5" cx="153.2800000000001" cy="984" r="14.16" fill="blue"/></g><g><polyline data-points="5.000000000000002,-2.474747474747474 4.898989898989901,-2.5757575757575752 4.7979797979797985,-2.6767676767676765 4.696969696969697,-2.7777777777777777 4.595959595959597,-2.8787878787878785 4.494949494949497,-2.9797979797979792 4.393939393939394,-3.0808080808080804 4.292929292929293,-3.1818181818181817 4.191919191919193,-3.2828282828282824 4.090909090909092,-3.383838383838383 3.989898989898992,-3.484848484848485 3.8888888888888893,-3.5858585858585856 3.7878787878787885,-3.6868686868686864 3.6868686868686877,-3.7878787878787876 3.5858585858585874,-3.8888888888888884 3.4848484848484866,-3.98989898989899 3.383838383838384,-4.090909090909091 3.2828282828282833,-4.191919191919193 3.181818181818183,-4.292929292929293 3.080808080808082,-4.393939393939394 2.9797979797979806,-4.494949494949496 2.87878787878788,-4.595959595959596 2.7777777777777786,-4.595959595959596 2.676767676767678,-4.595959595959596 2.575757575757577,-4.595959595959596 2.4747474747474754,-4.595959595959596 2.373737373737375,-4.595959595959596 2.2727272727272734,-4.595959595959596 2.1717171717171726,-4.595959595959596 2.070707070707072,-4.595959595959596 1.9696969696969702,-4.595959595959596 1.8686868686868696,-4.595959595959596 1.767676767676768,-4.595959595959596 1.6666666666666674,-4.595959595959596 1.5656565656565666,-4.595959595959596 1.4646464646464652,-4.595959595959596 1.3636363636363644,-4.595959595959596 1.262626262626263,-4.595959595959596 1.1616161616161622,-4.595959595959596 1.0606060606060617,-4.595959595959596 0.9595959595959602,-4.595959595959596 0.8585858585858596,-4.595959595959596 0.7575757575757579,-4.595959595959596 0.6565656565656574,-4.595959595959596 0.5555555555555567,-4.595959595959596 0.4545454545454551,-4.595959595959596 0.3535353535353544,-4.595959595959596 0.2525252525252529,-4.595959595959596 0.1515151515151522,-4.595959595959596 0.050505050505051545,-4.595959595959596 -0.05050505050505001,-4.595959595959596 -0.15151515151515066,-4.595959595959596 -0.2525252525252522,-4.595959595959596 -0.35353535353535287,-4.595959595959596 -0.4545454545454544,-4.595959595959596 -0.555555555555555,-4.595959595959596 -0.6565656565656557,-4.595959595959596 -0.7575757575757572,-4.595959595959596 -0.8585858585858579,-4.595959595959596 -0.9595959595959596,-4.595959595959596 -1.0606060606060603,-4.595959595959596 -1.1616161616161613,-4.595959595959596 -1.2626262626262625,-4.595959595959596 -1.363636363636363,-4.595959595959596 -1.4646464646464643,-4.595959595959596 -1.5656565656565653,-4.595959595959596 -1.6666666666666665,-4.595959595959596 -1.7676767676767675,-4.595959595959596 -1.8686868686868683,-4.595959595959596 -1.9696969696969693,-4.595959595959596 -2.07070707070707,-4.595959595959596 -2.1717171717171713,-4.595959595959596 -2.2727272727272725,-4.595959595959596 -2.3737373737373733,-4.595959595959596 -2.474747474747474,-4.595959595959596 -2.5757575757575752,-4.595959595959596 -2.6767676767676765,-4.595959595959596 -2.7777777777777777,-4.595959595959596 -2.8787878787878785,-4.595959595959596 -2.9797979797979792,-4.595959595959596 -3.0808080808080804,-4.595959595959596 -3.1818181818181817,-4.595959595959596 -3.2828282828282824,-4.595959595959596 -3.383838383838383,-4.595959595959596 -3.484848484848485,-4.595959595959596 -3.5858585858585856,-4.595959595959596 -3.6868686868686864,-4.595959595959596 -3.7878787878787876,-4.595959595959596 -3.8888888888888884,-4.595959595959596 -3.98989898989899,-4.595959595959596 -4.090909090909091,-4.595959595959596 -4.191919191919193,-4.595959595959596 -4.292929292929293,-4.595959595959596 -4.393939393939394,-4.595959595959596 -4.494949494949496,-4.595959595959596 -4.595959595959596,-4.595959595959596 -4.696969696969697,-4.595959595959596 -4.7979797979797985,-4.595959595959596 -4.898989898989899,-4.595959595959596 -5.000000000000001,-4.595959595959596" data-type="line" data-label="" points="984,745.6161616161615 974.4646464646464,755.1515151515151 964.9292929292927,764.6868686868687 955.3939393939393,774.2222222222222 945.8585858585857,783.7575757575758 936.3232323232323,793.2929292929292 926.7878787878785,802.8282828282828 917.2525252525251,812.3636363636363 907.7171717171716,821.8989898989898 898.181818181818,831.4343434343434 888.6464646464647,840.969696969697 879.111111111111,850.5050505050505 869.5757575757575,860.0404040404039 860.0404040404039,869.5757575757575 850.5050505050505,879.1111111111111 840.969696969697,888.6464646464647 831.4343434343433,898.1818181818181 821.8989898989898,907.7171717171718 812.3636363636363,917.2525252525252 802.8282828282828,926.7878787878788 793.2929292929292,936.3232323232323 783.7575757575758,945.8585858585858 774.2222222222222,945.8585858585858 764.6868686868686,945.8585858585858 755.1515151515151,945.8585858585858 745.6161616161615,945.8585858585858 736.0808080808081,945.8585858585858 726.5454545454545,945.8585858585858 717.0101010101009,945.8585858585858 707.4747474747475,945.8585858585858 697.9393939393939,945.8585858585858 688.4040404040404,945.8585858585858 678.8686868686868,945.8585858585858 669.3333333333333,945.8585858585858 659.7979797979798,945.8585858585858 650.2626262626262,945.8585858585858 640.7272727272727,945.8585858585858 631.1919191919192,945.8585858585858 621.6565656565656,945.8585858585858 612.1212121212121,945.8585858585858 602.5858585858585,945.8585858585858 593.0505050505051,945.8585858585858 583.5151515151515,945.8585858585858 573.9797979797979,945.8585858585858 564.4444444444445,945.8585858585858 554.9090909090909,945.8585858585858 545.3737373737374,945.8585858585858 535.8383838383838,945.8585858585858 526.3030303030303,945.8585858585858 516.7676767676768,945.8585858585858 507.2323232323232,945.8585858585858 497.69696969696975,945.8585858585858 488.16161616161617,945.8585858585858 478.62626262626264,945.8585858585858 469.09090909090907,945.8585858585858 459.55555555555554,945.8585858585858 450.0202020202021,945.8585858585858 440.4848484848485,945.8585858585858 430.949494949495,945.8585858585858 421.4141414141414,945.8585858585858 411.8787878787879,945.8585858585858 402.34343434343435,945.8585858585858 392.80808080808083,945.8585858585858 383.2727272727273,945.8585858585858 373.7373737373738,945.8585858585858 364.2020202020202,945.8585858585858 354.6666666666667,945.8585858585858 345.13131313131316,945.8585858585858 335.59595959595964,945.8585858585858 326.0606060606061,945.8585858585858 316.5252525252526,945.8585858585858 306.9898989898991,945.8585858585858 297.4545454545455,945.8585858585858 287.91919191919203,945.8585858585858 278.38383838383845,945.8585858585858 268.84848484848493,945.8585858585858 259.3131313131314,945.8585858585858 249.77777777777783,945.8585858585858 240.2424242424243,945.8585858585858 230.70707070707084,945.8585858585858 221.17171717171726,945.8585858585858 211.63636363636374,945.8585858585858 202.10101010101022,945.8585858585858 192.5656565656567,945.8585858585858 183.03030303030312,945.8585858585858 173.4949494949496,945.8585858585858 163.95959595959607,945.8585858585858 154.42424242424255,945.8585858585858 144.88888888888903,945.8585858585858 135.35353535353545,945.8585858585858 125.81818181818193,945.8585858585858 116.28282828282829,945.8585858585858 106.74747474747483,945.8585858585858 97.21212121212136,945.8585858585858 87.67676767676772,945.8585858585858 78.14141414141426,945.8585858585858 68.60606060606068,945.8585858585858 59.07070707070716,945.8585858585858 49.53535353535369,945.8585858585858 40.00000000000006,945.8585858585858" fill="none" stroke="rgba(255,0,0,0.75)" stroke-width="11.327999999999996"/></g><g><polyline data-points="-5.000000000000001,-0.4545454545454544 -4.898989898989899,-0.555555555555555 -4.7979797979797985,-0.6565656565656557 -4.696969696969697,-0.6565656565656557 -4.595959595959596,-0.6565656565656557 -4.494949494949496,-0.6565656565656557 -4.393939393939394,-0.6565656565656557 -4.292929292929293,-0.6565656565656557 -4.191919191919193,-0.6565656565656557 -4.090909090909091,-0.6565656565656557 -3.98989898989899,-0.6565656565656557 -3.8888888888888884,-0.6565656565656557 -3.7878787878787876,-0.6565656565656557 -3.6868686868686864,-0.6565656565656557 -3.5858585858585856,-0.6565656565656557 -3.484848484848485,-0.6565656565656557 -3.383838383838383,-0.6565656565656557 -3.2828282828282824,-0.6565656565656557 -3.1818181818181817,-0.6565656565656557 -3.0808080808080804,-0.6565656565656557 -2.9797979797979792,-0.6565656565656557 -2.8787878787878785,-0.6565656565656557 -2.7777777777777777,-0.6565656565656557 -2.6767676767676765,-0.6565656565656557 -2.5757575757575752,-0.6565656565656557 -2.474747474747474,-0.6565656565656557 -2.3737373737373733,-0.6565656565656557 -2.2727272727272725,-0.6565656565656557 -2.1717171717171713,-0.6565656565656557 -2.07070707070707,-0.6565656565656557 -1.9696969696969693,-0.6565656565656557 -1.8686868686868683,-0.6565656565656557 -1.7676767676767675,-0.6565656565656557 -1.6666666666666665,-0.6565656565656557 -1.5656565656565653,-0.6565656565656557 -1.4646464646464643,-0.6565656565656557 -1.363636363636363,-0.6565656565656557 -1.2626262626262625,-0.6565656565656557 -1.1616161616161613,-0.6565656565656557 -1.0606060606060603,-0.6565656565656557 -0.9595959595959596,-0.6565656565656557 -0.8585858585858579,-0.6565656565656557 -0.7575757575757572,-0.6565656565656557 -0.6565656565656557,-0.6565656565656557 -0.555555555555555,-0.6565656565656557 -0.4545454545454544,-0.6565656565656557 -0.35353535353535287,-0.6565656565656557 -0.2525252525252522,-0.6565656565656557 -0.15151515151515066,-0.6565656565656557 -0.05050505050505001,-0.6565656565656557 0.050505050505051545,-0.6565656565656557 0.1515151515151522,-0.6565656565656557 0.2525252525252529,-0.6565656565656557 0.3535353535353544,-0.6565656565656557 0.4545454545454551,-0.6565656565656557 0.5555555555555567,-0.6565656565656557 0.6565656565656574,-0.6565656565656557 0.7575757575757579,-0.6565656565656557 0.8585858585858596,-0.6565656565656557 0.9595959595959602,-0.6565656565656557 1.0606060606060617,-0.6565656565656557 1.1616161616161622,-0.6565656565656557 1.262626262626263,-0.6565656565656557 1.3636363636363644,-0.6565656565656557 1.4646464646464652,-0.6565656565656557 1.5656565656565666,-0.6565656565656557 1.6666666666666674,-0.6565656565656557 1.767676767676768,-0.6565656565656557 1.8686868686868696,-0.6565656565656557 1.9696969696969702,-0.6565656565656557 2.070707070707072,-0.6565656565656557 2.1717171717171726,-0.6565656565656557 2.2727272727272734,-0.6565656565656557 2.373737373737375,-0.6565656565656557 2.4747474747474754,-0.6565656565656557 2.575757575757577,-0.6565656565656557 2.676767676767678,-0.6565656565656557 2.7777777777777786,-0.6565656565656557 2.87878787878788,-0.6565656565656557 2.9797979797979806,-0.6565656565656557 3.080808080808082,-0.6565656565656557 3.181818181818183,-0.6565656565656557 3.2828282828282833,-0.6565656565656557 3.383838383838384,-0.6565656565656557 3.4848484848484866,-0.6565656565656557 3.5858585858585874,-0.6565656565656557 3.6868686868686877,-0.6565656565656557 3.7878787878787885,-0.6565656565656557 3.8888888888888893,-0.6565656565656557 3.989898989898992,-0.6565656565656557 4.090909090909092,-0.6565656565656557 4.191919191919193,-0.6565656565656557 4.292929292929293,-0.6565656565656557 4.393939393939394,-0.6565656565656557 4.494949494949497,-0.6565656565656557 4.595959595959597,-0.6565656565656557 4.696969696969697,-0.6565656565656557 4.7979797979797985,-0.6565656565656557 4.898989898989901,-0.6565656565656557 5.000000000000002,-0.6565656565656557" data-type="line" data-label="" points="40.00000000000006,554.909090909091 49.53535353535369,564.4444444444445 59.07070707070716,573.979797979798 68.60606060606068,573.979797979798 78.14141414141426,573.979797979798 87.67676767676772,573.979797979798 97.21212121212136,573.979797979798 106.74747474747483,573.979797979798 116.28282828282829,573.979797979798 125.81818181818193,573.979797979798 135.35353535353545,573.979797979798 144.88888888888903,573.979797979798 154.42424242424255,573.979797979798 163.95959595959607,573.979797979798 173.4949494949496,573.979797979798 183.03030303030312,573.979797979798 192.5656565656567,573.979797979798 202.10101010101022,573.979797979798 211.63636363636374,573.979797979798 221.17171717171726,573.979797979798 230.70707070707084,573.979797979798 240.2424242424243,573.979797979798 249.77777777777783,573.979797979798 259.3131313131314,573.979797979798 268.84848484848493,573.979797979798 278.38383838383845,573.979797979798 287.91919191919203,573.979797979798 297.4545454545455,573.979797979798 306.9898989898991,573.979797979798 316.5252525252526,573.979797979798 326.0606060606061,573.979797979798 335.59595959595964,573.979797979798 345.13131313131316,573.979797979798 354.6666666666667,573.979797979798 364.2020202020202,573.979797979798 373.7373737373738,573.979797979798 383.2727272727273,573.979797979798 392.80808080808083,573.979797979798 402.34343434343435,573.979797979798 411.8787878787879,573.979797979798 421.4141414141414,573.979797979798 430.949494949495,573.979797979798 440.4848484848485,573.979797979798 450.0202020202021,573.979797979798 459.55555555555554,573.979797979798 469.09090909090907,573.979797979798 478.62626262626264,573.979797979798 488.16161616161617,573.979797979798 497.69696969696975,573.979797979798 507.2323232323232,573.979797979798 516.7676767676768,573.979797979798 526.3030303030303,573.979797979798 535.8383838383838,573.979797979798 545.3737373737374,573.979797979798 554.9090909090909,573.979797979798 564.4444444444445,573.979797979798 573.9797979797979,573.979797979798 583.5151515151515,573.979797979798 593.0505050505051,573.979797979798 602.5858585858585,573.979797979798 612.1212121212121,573.979797979798 621.6565656565656,573.979797979798 631.1919191919192,573.979797979798 640.7272727272727,573.979797979798 650.2626262626262,573.979797979798 659.7979797979798,573.979797979798 669.3333333333333,573.979797979798 678.8686868686868,573.979797979798 688.4040404040404,573.979797979798 697.9393939393939,573.979797979798 707.4747474747475,573.979797979798 717.0101010101009,573.979797979798 726.5454545454545,573.979797979798 736.0808080808081,573.979797979798 745.6161616161615,573.979797979798 755.1515151515151,573.979797979798 764.6868686868686,573.979797979798 774.2222222222222,573.979797979798 783.7575757575758,573.979797979798 793.2929292929292,573.979797979798 802.8282828282828,573.979797979798 812.3636363636363,573.979797979798 821.8989898989898,573.979797979798 831.4343434343433,573.979797979798 840.969696969697,573.979797979798 850.5050505050505,573.979797979798 860.0404040404039,573.979797979798 869.5757575757575,573.979797979798 879.111111111111,573.979797979798 888.6464646464647,573.979797979798 898.181818181818,573.979797979798 907.7171717171716,573.979797979798 917.2525252525251,573.979797979798 926.7878787878785,573.979797979798 936.3232323232323,573.979797979798 945.8585858585857,573.979797979798 955.3939393939393,573.979797979798 964.9292929292927,573.979797979798 974.4646464646464,573.979797979798 984,573.979797979798" fill="none" stroke="rgba(255,0,0,0.75)" stroke-width="11.327999999999996"/></g><g><polyline data-points="-1.5656565656565653,5.000000000000002 -1.6666666666666665,4.898989898989901 -1.7676767676767675,4.7979797979797985 -1.8686868686868683,4.696969696969697 -1.9696969696969693,4.595959595959597 -2.07070707070707,4.494949494949497 -2.1717171717171713,4.393939393939394 -2.2727272727272725,4.292929292929293 -2.3737373737373733,4.191919191919193 -2.474747474747474,4.090909090909092 -2.5757575757575752,3.989898989898992 -2.6767676767676765,3.8888888888888893 -2.7777777777777777,3.7878787878787885 -2.8787878787878785,3.6868686868686877 -2.9797979797979792,3.5858585858585874 -3.0808080808080804,3.4848484848484866 -3.1818181818181817,3.383838383838384 -3.2828282828282824,3.2828282828282833 -3.383838383838383,3.181818181818183 -3.484848484848485,3.080808080808082 -3.5858585858585856,2.9797979797979806 -3.6868686868686864,2.87878787878788 -3.7878787878787876,2.7777777777777786 -3.8888888888888884,2.676767676767678 -3.8888888888888884,2.575757575757577 -3.8888888888888884,2.4747474747474754 -3.8888888888888884,2.373737373737375 -3.8888888888888884,2.2727272727272734 -3.8888888888888884,2.1717171717171726 -3.8888888888888884,2.070707070707072 -3.8888888888888884,1.9696969696969702 -3.8888888888888884,1.8686868686868696 -3.8888888888888884,1.767676767676768 -3.8888888888888884,1.6666666666666674 -3.8888888888888884,1.5656565656565666 -3.8888888888888884,1.4646464646464652 -3.8888888888888884,1.3636363636363644 -3.8888888888888884,1.262626262626263 -3.8888888888888884,1.1616161616161622 -3.8888888888888884,1.0606060606060617 -3.8888888888888884,0.9595959595959602 -3.8888888888888884,0.8585858585858596 -3.8888888888888884,0.7575757575757579 -3.8888888888888884,0.6565656565656574 -3.8888888888888884,0.5555555555555567 -3.8888888888888884,0.4545454545454551 -3.8888888888888884,0.3535353535353544 -3.8888888888888884,0.2525252525252529 -3.8888888888888884,0.1515151515151522 -3.8888888888888884,0.050505050505051545 -3.8888888888888884,-0.05050505050505001 -3.8888888888888884,-0.15151515151515066 -3.8888888888888884,-0.2525252525252522 -3.8888888888888884,-0.35353535353535287 -3.8888888888888884,-0.4545454545454544 -3.8888888888888884,-0.555555555555555 -3.8888888888888884,-0.6565656565656557 -3.8888888888888884,-0.7575757575757572 -3.8888888888888884,-0.8585858585858579 -3.8888888888888884,-0.9595959595959596 -3.8888888888888884,-1.0606060606060603 -3.8888888888888884,-1.1616161616161613 -3.8888888888888884,-1.2626262626262625 -3.8888888888888884,-1.363636363636363 -3.8888888888888884,-1.4646464646464643 -3.8888888888888884,-1.5656565656565653 -3.8888888888888884,-1.6666666666666665 -3.8888888888888884,-1.7676767676767675 -3.8888888888888884,-1.8686868686868683 -3.8888888888888884,-1.9696969696969693 -3.8888888888888884,-2.07070707070707 -3.8888888888888884,-2.1717171717171713 -3.8888888888888884,-2.2727272727272725 -3.8888888888888884,-2.3737373737373733 -3.8888888888888884,-2.474747474747474 -3.8888888888888884,-2.5757575757575752 -3.8888888888888884,-2.6767676767676765 -3.8888888888888884,-2.7777777777777777 -3.8888888888888884,-2.8787878787878785 -3.8888888888888884,-2.9797979797979792 -3.8888888888888884,-3.0808080808080804 -3.8888888888888884,-3.1818181818181817 -3.8888888888888884,-3.2828282828282824 -3.8888888888888884,-3.383838383838383 -3.8888888888888884,-3.484848484848485 -3.8888888888888884,-3.5858585858585856 -3.8888888888888884,-3.6868686868686864 -3.8888888888888884,-3.7878787878787876 -3.8888888888888884,-3.8888888888888884 -3.8888888888888884,-3.98989898989899 -3.8888888888888884,-4.090909090909091 -3.8888888888888884,-4.191919191919193 -3.8888888888888884,-4.292929292929293 -3.8888888888888884,-4.393939393939394 -3.8888888888888884,-4.494949494949496 -3.8888888888888884,-4.595959595959596 -3.8888888888888884,-4.696969696969697 -3.8888888888888884,-4.7979797979797985 -3.8888888888888884,-4.898989898989899 -3.8888888888888884,-5.000000000000001" data-type="line" data-label="" points="364.2020202020202,40.000000000000114 354.6666666666667,49.53535353535369 345.13131313131316,59.07070707070733 335.59595959595964,68.60606060606085 326.0606060606061,78.14141414141432 316.5252525252526,87.67676767676778 306.9898989898991,97.21212121212153 297.4545454545455,106.747474747475 287.91919191919203,116.28282828282846 278.38383838383845,125.81818181818198 268.84848484848493,135.35353535353545 259.3131313131314,144.88888888888908 249.77777777777783,154.4242424242426 240.2424242424243,163.95959595959613 230.70707070707084,173.4949494949496 221.17171717171726,183.03030303030312 211.63636363636374,192.56565656565675 202.10101010101022,202.10101010101027 192.5656565656567,211.63636363636374 183.03030303030312,221.17171717171726 173.4949494949496,230.70707070707084 163.95959595959607,240.24242424242436 154.42424242424255,249.77777777777794 144.88888888888903,259.3131313131314 144.88888888888903,268.84848484848493 144.88888888888903,278.38383838383857 144.88888888888903,287.91919191919203 144.88888888888903,297.4545454545456 144.88888888888903,306.9898989898991 144.88888888888903,316.5252525252526 144.88888888888903,326.06060606060623 144.88888888888903,335.5959595959597 144.88888888888903,345.1313131313133 144.88888888888903,354.66666666666674 144.88888888888903,364.2020202020203 144.88888888888903,373.73737373737384 144.88888888888903,383.27272727272737 144.88888888888903,392.80808080808094 144.88888888888903,402.3434343434344 144.88888888888903,411.87878787878793 144.88888888888903,421.4141414141415 144.88888888888903,430.94949494949503 144.88888888888903,440.4848484848486 144.88888888888903,450.0202020202021 144.88888888888903,459.5555555555556 144.88888888888903,469.0909090909092 144.88888888888903,478.6262626262627 144.88888888888903,488.1616161616163 144.88888888888903,497.69696969696975 144.88888888888903,507.23232323232327 144.88888888888903,516.7676767676768 144.88888888888903,526.3030303030304 144.88888888888903,535.838383838384 144.88888888888903,545.3737373737374 144.88888888888903,554.909090909091 144.88888888888903,564.4444444444445 144.88888888888903,573.979797979798 144.88888888888903,583.5151515151516 144.88888888888903,593.0505050505051 144.88888888888903,602.5858585858587 144.88888888888903,612.1212121212121 144.88888888888903,621.6565656565657 144.88888888888903,631.1919191919193 144.88888888888903,640.7272727272727 144.88888888888903,650.2626262626263 144.88888888888903,659.7979797979798 144.88888888888903,669.3333333333334 144.88888888888903,678.8686868686868 144.88888888888903,688.4040404040404 144.88888888888903,697.939393939394 144.88888888888903,707.4747474747475 144.88888888888903,717.010101010101 144.88888888888903,726.5454545454545 144.88888888888903,736.0808080808081 144.88888888888903,745.6161616161615 144.88888888888903,755.1515151515151 144.88888888888903,764.6868686868687 144.88888888888903,774.2222222222222 144.88888888888903,783.7575757575758 144.88888888888903,793.2929292929292 144.88888888888903,802.8282828282828 144.88888888888903,812.3636363636363 144.88888888888903,821.8989898989898 144.88888888888903,831.4343434343434 144.88888888888903,840.969696969697 144.88888888888903,850.5050505050505 144.88888888888903,860.0404040404039 144.88888888888903,869.5757575757575 144.88888888888903,879.1111111111111 144.88888888888903,888.6464646464647 144.88888888888903,898.1818181818181 144.88888888888903,907.7171717171718 144.88888888888903,917.2525252525252 144.88888888888903,926.7878787878788 144.88888888888903,936.3232323232323 144.88888888888903,945.8585858585858 144.88888888888903,955.3939393939394 144.88888888888903,964.9292929292928 144.88888888888903,974.4646464646464 144.88888888888903,984" fill="none" stroke="rgba(0,0,255,0.75)" stroke-width="11.327999999999996"/></g><g><rect data-type="rect" data-label="" data-x="0" data-y="0" x="40.000000000000114" y="40.000000000000284" width="943.9999999999997" height="943.9999999999998" fill="none" stroke="gray" stroke-width="0.010593220338983056"/></g><g><rect data-type="rect" data-label="" data-x="0" data-y="0" x="40.000000000000114" y="40.000000000000284" width="943.9999999999997" height="943.9999999999998" fill="none" stroke="rgba(15, 23, 42, 0.8)" stroke-width="0.010593220338983056"/></g><g id="crosshair" style="display: none"><line id="crosshair-h" y1="0" y2="1024" stroke="#666" stroke-width="0.5"/><line id="crosshair-v" x1="0" x2="1024" stroke="#666" stroke-width="0.5"/><text id="coordinates" font-family="monospace" font-size="12" fill="#666"></text></g><script><![CDATA[
              document.currentScript.parentElement.addEventListener('mousemove', (e) => {
                const svg = e.currentTarget;
                const rect = svg.getBoundingClientRect();
                const x = e.clientX - rect.left;
                const y = e.clientY - rect.top;
                const crosshair = svg.getElementById('crosshair');
                const h = svg.getElementById('crosshair-h');
                const v = svg.getElementById('crosshair-v');
                const coords = svg.getElementById('coordinates');
                
                crosshair.style.display = 'block';
                h.setAttribute('x1', '0');
                h.setAttribute('x2', '1024');
                h.setAttribute('y1', y);
                h.setAttribute('y2', y);
                v.setAttribute('x1', x);
                v.setAttribute('x2', x);
                v.setAttribute('y1', '0');
                v.setAttribute('y2', '1024');

                // Calculate real coordinates using inverse transformation
                const matrix = {"a":94.39999999999996,"c":0,"e":511.99999999999994,"b":0,"d":-94.39999999999996,"f":512.0000000000001};
                // Manually invert and apply the affine transform
                // Since we only use translate and scale, we can directly compute:
                // x' = (x - tx) / sx
                // y' = (y - ty) / sy
                const sx = matrix.a;
                const sy = matrix.d;
                const tx = matrix.e; 
                const ty = matrix.f;
                const realPoint = {
                  x: (x - tx) / sx,
                  y: (y - ty) / sy // Flip y back since we used negative scale
                }
                
                coords.textContent = `(${realPoint.x.toFixed(2)}, ${realPoint.y.toFixed(2)})`;
                coords.setAttribute('x', (x + 5).toString());
                coords.setAttribute('y', (y - 5).toString());
              });
              document.currentScript.parentElement.addEventListener('mouseleave', () => {
                document.currentScript.parentElement.getElementById('crosshair').style.display = 'none';
              });
            ]]></script></svg>