<svg width="1024" height="1024" viewBox="0 0 1024 1024" xmlns="http://www.w3.org/2000/svg"><rect width="100%" height="100%" fill="white"/><g><circle data-type="point" data-label="conn_000" data-x="5" data-y="3.64" cx="983.9999999999998" cy="168.38400000000024" r="14.16" fill="blue"/></g><g><circle data-type="point" data-label="conn_000" data-x="-5" data-y="2.36" cx="40.000000000000114" cy="289.21600000000024" r="14.16" fill="red"/></g><g><circle data-type="point" data-label="conn_001" data-x="-1.76" data-y="5" cx="345.856" cy="40.000000000000284" r="14.16" fill="red"/></g><g><circle data-type="point" data-label="conn_001" data-x="3.98" data-y="-5" cx="887.7119999999998" cy="984" r="14.16" fill="blue"/></g><g><circle data-type="point" data-label="conn_002" data-x="-5" data-y="0.9400000000000001" cx="40.000000000000114" cy="423.2640000000001" r="14.16" fill="red"/></g><g><circle data-type="point" data-label="conn_002" data-x="5" data-y="-4.18" cx="983.9999999999998" cy="906.5919999999999" r="14.16" fill="red"/></g><g><circle data-type="point" data-label="conn_003" data-x="5" data-y="0.48" cx="983.9999999999998" cy="466.6880000000001" r="14.16" fill="red"/></g><g><circle data-type="point" data-label="conn_003" data-x="-5" data-y="1.94" cx="40.000000000000114" cy="328.8640000000002" r="14.16" fill="red"/></g><g><circle data-type="point" data-label="conn_004" data-x="1.24" data-y="5" cx="629.0559999999999" cy="40.000000000000284" r="14.16" fill="blue"/></g><g><circle data-type="point" data-label="conn_004" data-x="0.62" data-y="-5" cx="570.5279999999999" cy="984" r="14.16" fill="red"/></g><g><circle data-type="point" data-label="conn_005" data-x="5" data-y="-3.48" cx="983.9999999999998" cy="840.512" r="14.16" fill="red"/></g><g><circle data-type="point" data-label="conn_005" data-x="-5" data-y="-1.52" cx="40.000000000000114" cy="655.488" r="14.16" fill="red"/></g><g><polyline data-points="-5.000000000000001,0.9595959595959602 -4.898989898989899,0.8585858585858596 -4.7979797979797985,0.7575757575757579 -4.696969696969697,0.6565656565656574 -4.595959595959596,0.5555555555555567 -4.494949494949496,0.4545454545454551 -4.393939393939394,0.3535353535353544 -4.292929292929293,0.2525252525252529 -4.191919191919193,0.1515151515151522 -4.090909090909091,0.050505050505051545 -3.98989898989899,-0.05050505050505001 -3.8888888888888884,-0.15151515151515066 -3.7878787878787876,-0.2525252525252522 -3.6868686868686864,-0.35353535353535287 -3.5858585858585856,-0.4545454545454544 -3.484848484848485,-0.555555555555555 -3.383838383838383,-0.6565656565656557 -3.2828282828282824,-0.7575757575757572 -3.1818181818181817,-0.8585858585858579 -3.0808080808080804,-0.9595959595959596 -2.9797979797979792,-1.0606060606060603 -2.8787878787878785,-1.1616161616161613 -2.7777777777777777,-1.2626262626262625 -2.6767676767676765,-1.363636363636363 -2.5757575757575752,-1.4646464646464643 -2.474747474747474,-1.5656565656565653 -2.3737373737373733,-1.6666666666666665 -2.2727272727272725,-1.7676767676767675 -2.1717171717171713,-1.8686868686868683 -2.07070707070707,-1.9696969696969693 -1.9696969696969693,-2.07070707070707 -1.8686868686868683,-2.1717171717171713 -1.7676767676767675,-2.2727272727272725 -1.6666666666666665,-2.3737373737373733 -1.5656565656565653,-2.474747474747474 -1.4646464646464643,-2.5757575757575752 -1.363636363636363,-2.6767676767676765 -1.2626262626262625,-2.7777777777777777 -1.1616161616161613,-2.8787878787878785 -1.0606060606060603,-2.9797979797979792 -0.9595959595959596,-3.0808080808080804 -0.8585858585858579,-3.1818181818181817 -0.7575757575757572,-3.2828282828282824 -0.6565656565656557,-3.383838383838383 -0.555555555555555,-3.484848484848485 -0.4545454545454544,-3.5858585858585856 -0.35353535353535287,-3.6868686868686864 -0.2525252525252522,-3.7878787878787876 -0.15151515151515066,-3.8888888888888884 -0.05050505050505001,-3.98989898989899 0.050505050505051545,-4.090909090909091 0.1515151515151522,-4.191919191919193 0.2525252525252529,-4.191919191919193 0.3535353535353544,-4.191919191919193 0.4545454545454551,-4.191919191919193 0.5555555555555567,-4.191919191919193 0.6565656565656574,-4.191919191919193 0.7575757575757579,-4.191919191919193 0.8585858585858596,-4.191919191919193 0.9595959595959602,-4.191919191919193 1.0606060606060617,-4.191919191919193 1.1616161616161622,-4.191919191919193 1.262626262626263,-4.191919191919193 1.3636363636363644,-4.191919191919193 1.4646464646464652,-4.191919191919193 1.5656565656565666,-4.191919191919193 1.6666666666666674,-4.191919191919193 1.767676767676768,-4.191919191919193 1.8686868686868696,-4.191919191919193 1.9696969696969702,-4.191919191919193 2.070707070707072,-4.191919191919193 2.1717171717171726,-4.191919191919193 2.2727272727272734,-4.191919191919193 2.373737373737375,-4.191919191919193 2.4747474747474754,-4.191919191919193 2.575757575757577,-4.191919191919193 2.676767676767678,-4.191919191919193 2.7777777777777786,-4.191919191919193 2.87878787878788,-4.191919191919193 2.9797979797979806,-4.191919191919193 3.080808080808082,-4.191919191919193 3.181818181818183,-4.191919191919193 3.2828282828282833,-4.191919191919193 3.383838383838384,-4.191919191919193 3.4848484848484866,-4.191919191919193 3.5858585858585874,-4.191919191919193 3.6868686868686877,-4.191919191919193 3.7878787878787885,-4.191919191919193 3.8888888888888893,-4.191919191919193 3.989898989898992,-4.191919191919193 4.090909090909092,-4.191919191919193 4.191919191919193,-4.191919191919193 4.292929292929293,-4.191919191919193 4.393939393939394,-4.191919191919193 4.494949494949497,-4.191919191919193 4.595959595959597,-4.191919191919193 4.696969696969697,-4.191919191919193 4.7979797979797985,-4.191919191919193 4.898989898989901,-4.191919191919193 5.000000000000002,-4.191919191919193" data-type="line" data-label="" points="40.00000000000006,421.4141414141415 49.53535353535369,430.94949494949503 59.07070707070716,440.4848484848486 68.60606060606068,450.0202020202021 78.14141414141426,459.5555555555556 87.67676767676772,469.0909090909092 97.21212121212136,478.6262626262627 106.74747474747483,488.1616161616163 116.28282828282829,497.69696969696975 125.81818181818193,507.23232323232327 135.35353535353545,516.7676767676768 144.88888888888903,526.3030303030304 154.42424242424255,535.838383838384 163.95959595959607,545.3737373737374 173.4949494949496,554.909090909091 183.03030303030312,564.4444444444445 192.5656565656567,573.979797979798 202.10101010101022,583.5151515151516 211.63636363636374,593.0505050505051 221.17171717171726,602.5858585858587 230.70707070707084,612.1212121212121 240.2424242424243,621.6565656565657 249.77777777777783,631.1919191919193 259.3131313131314,640.7272727272727 268.84848484848493,650.2626262626263 278.38383838383845,659.7979797979798 287.91919191919203,669.3333333333334 297.4545454545455,678.8686868686868 306.9898989898991,688.4040404040404 316.5252525252526,697.939393939394 326.0606060606061,707.4747474747475 335.59595959595964,717.010101010101 345.13131313131316,726.5454545454545 354.6666666666667,736.0808080808081 364.2020202020202,745.6161616161615 373.7373737373738,755.1515151515151 383.2727272727273,764.6868686868687 392.80808080808083,774.2222222222222 402.34343434343435,783.7575757575758 411.8787878787879,793.2929292929292 421.4141414141414,802.8282828282828 430.949494949495,812.3636363636363 440.4848484848485,821.8989898989898 450.0202020202021,831.4343434343434 459.55555555555554,840.969696969697 469.09090909090907,850.5050505050505 478.62626262626264,860.0404040404039 488.16161616161617,869.5757575757575 497.69696969696975,879.1111111111111 507.2323232323232,888.6464646464647 516.7676767676768,898.1818181818181 526.3030303030303,907.7171717171718 535.8383838383838,907.7171717171718 545.3737373737374,907.7171717171718 554.9090909090909,907.7171717171718 564.4444444444445,907.7171717171718 573.9797979797979,907.7171717171718 583.5151515151515,907.7171717171718 593.0505050505051,907.7171717171718 602.5858585858585,907.7171717171718 612.1212121212121,907.7171717171718 621.6565656565656,907.7171717171718 631.1919191919192,907.7171717171718 640.7272727272727,907.7171717171718 650.2626262626262,907.7171717171718 659.7979797979798,907.7171717171718 669.3333333333333,907.7171717171718 678.8686868686868,907.7171717171718 688.4040404040404,907.7171717171718 697.9393939393939,907.7171717171718 707.4747474747475,907.7171717171718 717.0101010101009,907.7171717171718 726.5454545454545,907.7171717171718 736.0808080808081,907.7171717171718 745.6161616161615,907.7171717171718 755.1515151515151,907.7171717171718 764.6868686868686,907.7171717171718 774.2222222222222,907.7171717171718 783.7575757575758,907.7171717171718 793.2929292929292,907.7171717171718 802.8282828282828,907.7171717171718 812.3636363636363,907.7171717171718 821.8989898989898,907.7171717171718 831.4343434343433,907.7171717171718 840.969696969697,907.7171717171718 850.5050505050505,907.7171717171718 860.0404040404039,907.7171717171718 869.5757575757575,907.7171717171718 879.111111111111,907.7171717171718 888.6464646464647,907.7171717171718 898.181818181818,907.7171717171718 907.7171717171716,907.7171717171718 917.2525252525251,907.7171717171718 926.7878787878785,907.7171717171718 936.3232323232323,907.7171717171718 945.8585858585857,907.7171717171718 955.3939393939393,907.7171717171718 964.9292929292927,907.7171717171718 974.4646464646464,907.7171717171718 984,907.7171717171718" fill="none" stroke="rgba(255,0,0,0.75)" stroke-width="11.327999999999996"/></g><g><polyline data-points="5.000000000000002,-3.484848484848485 4.898989898989901,-3.383838383838383 4.7979797979797985,-3.2828282828282824 4.696969696969697,-3.1818181818181817 4.595959595959597,-3.0808080808080804 4.494949494949497,-2.9797979797979792 4.393939393939394,-2.8787878787878785 4.292929292929293,-2.7777777777777777 4.191919191919193,-2.6767676767676765 4.090909090909092,-2.5757575757575752 3.989898989898992,-2.474747474747474 3.8888888888888893,-2.3737373737373733 3.7878787878787885,-2.2727272727272725 3.6868686868686877,-2.1717171717171713 3.5858585858585874,-2.07070707070707 3.4848484848484866,-1.9696969696969693 3.383838383838384,-1.8686868686868683 3.2828282828282833,-1.7676767676767675 3.181818181818183,-1.6666666666666665 3.080808080808082,-1.5656565656565653 2.9797979797979806,-1.5656565656565653 2.87878787878788,-1.5656565656565653 2.7777777777777786,-1.5656565656565653 2.676767676767678,-1.5656565656565653 2.575757575757577,-1.5656565656565653 2.4747474747474754,-1.5656565656565653 2.373737373737375,-1.5656565656565653 2.2727272727272734,-1.5656565656565653 2.1717171717171726,-1.5656565656565653 2.070707070707072,-1.5656565656565653 1.9696969696969702,-1.5656565656565653 1.8686868686868696,-1.5656565656565653 1.767676767676768,-1.5656565656565653 1.6666666666666674,-1.5656565656565653 1.5656565656565666,-1.5656565656565653 1.4646464646464652,-1.5656565656565653 1.3636363636363644,-1.5656565656565653 1.262626262626263,-1.5656565656565653 1.1616161616161622,-1.5656565656565653 1.0606060606060617,-1.5656565656565653 0.9595959595959602,-1.5656565656565653 0.8585858585858596,-1.5656565656565653 0.7575757575757579,-1.5656565656565653 0.6565656565656574,-1.5656565656565653 0.5555555555555567,-1.5656565656565653 0.4545454545454551,-1.5656565656565653 0.3535353535353544,-1.5656565656565653 0.2525252525252529,-1.5656565656565653 0.1515151515151522,-1.5656565656565653 0.050505050505051545,-1.5656565656565653 -0.05050505050505001,-1.5656565656565653 -0.15151515151515066,-1.5656565656565653 -0.2525252525252522,-1.5656565656565653 -0.35353535353535287,-1.5656565656565653 -0.4545454545454544,-1.5656565656565653 -0.555555555555555,-1.5656565656565653 -0.6565656565656557,-1.5656565656565653 -0.7575757575757572,-1.5656565656565653 -0.8585858585858579,-1.5656565656565653 -0.9595959595959596,-1.5656565656565653 -1.0606060606060603,-1.5656565656565653 -1.1616161616161613,-1.5656565656565653 -1.2626262626262625,-1.5656565656565653 -1.363636363636363,-1.5656565656565653 -1.4646464646464643,-1.5656565656565653 -1.5656565656565653,-1.5656565656565653 -1.6666666666666665,-1.5656565656565653 -1.7676767676767675,-1.5656565656565653 -1.8686868686868683,-1.5656565656565653 -1.9696969696969693,-1.5656565656565653" data-type="line" data-label="" points="984,840.969696969697 974.4646464646464,831.4343434343434 964.9292929292927,821.8989898989898 955.3939393939393,812.3636363636363 945.8585858585857,802.8282828282828 936.3232323232323,793.2929292929292 926.7878787878785,783.7575757575758 917.2525252525251,774.2222222222222 907.7171717171716,764.6868686868687 898.181818181818,755.1515151515151 888.6464646464647,745.6161616161615 879.111111111111,736.0808080808081 869.5757575757575,726.5454545454545 860.0404040404039,717.010101010101 850.5050505050505,707.4747474747475 840.969696969697,697.939393939394 831.4343434343433,688.4040404040404 821.8989898989898,678.8686868686868 812.3636363636363,669.3333333333334 802.8282828282828,659.7979797979798 793.2929292929292,659.7979797979798 783.7575757575758,659.7979797979798 774.2222222222222,659.7979797979798 764.6868686868686,659.7979797979798 755.1515151515151,659.7979797979798 745.6161616161615,659.7979797979798 736.0808080808081,659.7979797979798 726.5454545454545,659.7979797979798 717.0101010101009,659.7979797979798 707.4747474747475,659.7979797979798 697.9393939393939,659.7979797979798 688.4040404040404,659.7979797979798 678.8686868686868,659.7979797979798 669.3333333333333,659.7979797979798 659.7979797979798,659.7979797979798 650.2626262626262,659.7979797979798 640.7272727272727,659.7979797979798 631.1919191919192,659.7979797979798 621.6565656565656,659.7979797979798 612.1212121212121,659.7979797979798 602.5858585858585,659.7979797979798 593.0505050505051,659.7979797979798 583.5151515151515,659.7979797979798 573.9797979797979,659.7979797979798 564.4444444444445,659.7979797979798 554.9090909090909,659.7979797979798 545.3737373737374,659.7979797979798 535.8383838383838,659.7979797979798 526.3030303030303,659.7979797979798 516.7676767676768,659.7979797979798 507.2323232323232,659.7979797979798 497.69696969696975,659.7979797979798 488.16161616161617,659.7979797979798 478.62626262626264,659.7979797979798 469.09090909090907,659.7979797979798 459.55555555555554,659.7979797979798 450.0202020202021,659.7979797979798 440.4848484848485,659.7979797979798 430.949494949495,659.7979797979798 421.4141414141414,659.7979797979798 411.8787878787879,659.7979797979798 402.34343434343435,659.7979797979798 392.80808080808083,659.7979797979798 383.2727272727273,659.7979797979798 373.7373737373738,659.7979797979798 364.2020202020202,659.7979797979798 354.6666666666667,659.7979797979798 345.13131313131316,659.7979797979798 335.59595959595964,659.7979797979798 326.0606060606061,659.7979797979798" fill="none" stroke="rgba(255,0,0,0.75)" stroke-width="11.327999999999996"/></g><g><polyline data-points="-1.9696969696969693,-1.5656565656565653 -2.07070707070707,-1.5656565656565653 -2.1717171717171713,-1.5656565656565653 -2.2727272727272725,-1.5656565656565653 -2.3737373737373733,-1.5656565656565653 -2.474747474747474,-1.5656565656565653 -2.5757575757575752,-1.5656565656565653 -2.6767676767676765,-1.5656565656565653 -2.7777777777777777,-1.5656565656565653 -2.8787878787878785,-1.5656565656565653 -2.9797979797979792,-1.5656565656565653 -3.0808080808080804,-1.5656565656565653 -3.1818181818181817,-1.5656565656565653 -3.2828282828282824,-1.5656565656565653 -3.383838383838383,-1.5656565656565653 -3.484848484848485,-1.5656565656565653 -3.5858585858585856,-1.5656565656565653 -3.6868686868686864,-1.5656565656565653 -3.7878787878787876,-1.5656565656565653 -3.8888888888888884,-1.5656565656565653 -3.98989898989899,-1.5656565656565653" data-type="line" data-label="" points="326.0606060606061,659.7979797979798 316.5252525252526,659.7979797979798 306.9898989898991,659.7979797979798 297.4545454545455,659.7979797979798 287.91919191919203,659.7979797979798 278.38383838383845,659.7979797979798 268.84848484848493,659.7979797979798 259.3131313131314,659.7979797979798 249.77777777777783,659.7979797979798 240.2424242424243,659.7979797979798 230.70707070707084,659.7979797979798 221.17171717171726,659.7979797979798 211.63636363636374,659.7979797979798 202.10101010101022,659.7979797979798 192.5656565656567,659.7979797979798 183.03030303030312,659.7979797979798 173.4949494949496,659.7979797979798 163.95959595959607,659.7979797979798 154.42424242424255,659.7979797979798 144.88888888888903,659.7979797979798 135.35353535353545,659.7979797979798" fill="none" stroke="rgba(0,0,255,0.75)" stroke-width="11.327999999999996"/></g><g><polyline data-points="-3.98989898989899,-1.5656565656565653 -4.090909090909091,-1.5656565656565653 -4.191919191919193,-1.5656565656565653 -4.292929292929293,-1.5656565656565653 -4.393939393939394,-1.5656565656565653 -4.494949494949496,-1.5656565656565653 -4.595959595959596,-1.5656565656565653 -4.696969696969697,-1.5656565656565653 -4.7979797979797985,-1.5656565656565653 -4.898989898989899,-1.5656565656565653 -5.000000000000001,-1.5656565656565653" data-type="line" data-label="" points="135.35353535353545,659.7979797979798 125.81818181818193,659.7979797979798 116.28282828282829,659.7979797979798 106.74747474747483,659.7979797979798 97.21212121212136,659.7979797979798 87.67676767676772,659.7979797979798 78.14141414141426,659.7979797979798 68.60606060606068,659.7979797979798 59.07070707070716,659.7979797979798 49.53535353535369,659.7979797979798 40.00000000000006,659.7979797979798" fill="none" stroke="rgba(255,0,0,0.75)" stroke-width="11.327999999999996"/></g><g><polyline data-points="5.000000000000002,0.4545454545454551 4.898989898989901,0.5555555555555567 4.7979797979797985,0.6565656565656574 4.696969696969697,0.7575757575757579 4.595959595959597,0.8585858585858596 4.494949494949497,0.9595959595959602 4.393939393939394,1.0606060606060617 4.292929292929293,1.1616161616161622 4.191919191919193,1.262626262626263 4.090909090909092,1.3636363636363644 3.989898989898992,1.4646464646464652 3.8888888888888893,1.5656565656565666 3.7878787878787885,1.6666666666666674 3.6868686868686877,1.767676767676768 3.5858585858585874,1.8686868686868696 3.4848484848484866,1.9696969696969702 3.383838383838384,1.9696969696969702 3.2828282828282833,1.9696969696969702 3.181818181818183,1.9696969696969702 3.080808080808082,1.9696969696969702 2.9797979797979806,1.9696969696969702 2.87878787878788,1.9696969696969702 2.7777777777777786,1.9696969696969702 2.676767676767678,1.9696969696969702 2.575757575757577,1.9696969696969702 2.4747474747474754,1.9696969696969702 2.373737373737375,1.9696969696969702 2.2727272727272734,1.9696969696969702 2.1717171717171726,1.9696969696969702 2.070707070707072,1.9696969696969702 1.9696969696969702,1.9696969696969702 1.8686868686868696,1.9696969696969702 1.767676767676768,1.9696969696969702 1.6666666666666674,1.9696969696969702 1.5656565656565666,1.9696969696969702 1.4646464646464652,1.9696969696969702 1.3636363636363644,1.9696969696969702 1.262626262626263,1.9696969696969702 1.1616161616161622,1.9696969696969702 1.0606060606060617,1.9696969696969702 0.9595959595959602,1.9696969696969702 0.8585858585858596,1.9696969696969702 0.7575757575757579,1.9696969696969702 0.6565656565656574,1.9696969696969702 0.5555555555555567,1.9696969696969702 0.4545454545454551,1.9696969696969702 0.3535353535353544,1.9696969696969702 0.2525252525252529,1.9696969696969702 0.1515151515151522,1.9696969696969702 0.050505050505051545,1.9696969696969702 -0.05050505050505001,1.9696969696969702 -0.15151515151515066,1.9696969696969702 -0.2525252525252522,1.9696969696969702 -0.35353535353535287,1.9696969696969702 -0.4545454545454544,1.9696969696969702 -0.555555555555555,1.9696969696969702 -0.6565656565656557,1.9696969696969702 -0.7575757575757572,1.9696969696969702 -0.8585858585858579,1.9696969696969702 -0.9595959595959596,1.9696969696969702 -1.0606060606060603,1.9696969696969702 -1.1616161616161613,1.9696969696969702 -1.2626262626262625,1.9696969696969702 -1.363636363636363,1.9696969696969702 -1.4646464646464643,1.9696969696969702 -1.5656565656565653,1.9696969696969702 -1.6666666666666665,1.9696969696969702 -1.7676767676767675,1.9696969696969702 -1.8686868686868683,1.9696969696969702 -1.9696969696969693,1.9696969696969702 -2.07070707070707,1.9696969696969702 -2.1717171717171713,1.9696969696969702 -2.2727272727272725,1.9696969696969702 -2.3737373737373733,1.9696969696969702 -2.474747474747474,1.9696969696969702 -2.5757575757575752,1.9696969696969702 -2.6767676767676765,1.9696969696969702 -2.7777777777777777,1.9696969696969702 -2.8787878787878785,1.9696969696969702 -2.9797979797979792,1.9696969696969702 -3.0808080808080804,1.9696969696969702 -3.1818181818181817,1.9696969696969702 -3.2828282828282824,1.9696969696969702 -3.383838383838383,1.9696969696969702 -3.484848484848485,1.9696969696969702 -3.5858585858585856,1.9696969696969702 -3.6868686868686864,1.9696969696969702 -3.7878787878787876,1.9696969696969702 -3.8888888888888884,1.9696969696969702 -3.98989898989899,1.9696969696969702 -4.090909090909091,1.9696969696969702 -4.191919191919193,1.9696969696969702 -4.292929292929293,1.9696969696969702 -4.393939393939394,1.9696969696969702 -4.494949494949496,1.9696969696969702 -4.595959595959596,1.9696969696969702 -4.696969696969697,1.9696969696969702 -4.7979797979797985,1.9696969696969702 -4.898989898989899,1.9696969696969702 -5.000000000000001,1.9696969696969702" data-type="line" data-label="" points="984,469.0909090909092 974.4646464646464,459.5555555555556 964.9292929292927,450.0202020202021 955.3939393939393,440.4848484848486 945.8585858585857,430.94949494949503 936.3232323232323,421.4141414141415 926.7878787878785,411.87878787878793 917.2525252525251,402.3434343434344 907.7171717171716,392.80808080808094 898.181818181818,383.27272727272737 888.6464646464647,373.73737373737384 879.111111111111,364.2020202020203 869.5757575757575,354.66666666666674 860.0404040404039,345.1313131313133 850.5050505050505,335.5959595959597 840.969696969697,326.06060606060623 831.4343434343433,326.06060606060623 821.8989898989898,326.06060606060623 812.3636363636363,326.06060606060623 802.8282828282828,326.06060606060623 793.2929292929292,326.06060606060623 783.7575757575758,326.06060606060623 774.2222222222222,326.06060606060623 764.6868686868686,326.06060606060623 755.1515151515151,326.06060606060623 745.6161616161615,326.06060606060623 736.0808080808081,326.06060606060623 726.5454545454545,326.06060606060623 717.0101010101009,326.06060606060623 707.4747474747475,326.06060606060623 697.9393939393939,326.06060606060623 688.4040404040404,326.06060606060623 678.8686868686868,326.06060606060623 669.3333333333333,326.06060606060623 659.7979797979798,326.06060606060623 650.2626262626262,326.06060606060623 640.7272727272727,326.06060606060623 631.1919191919192,326.06060606060623 621.6565656565656,326.06060606060623 612.1212121212121,326.06060606060623 602.5858585858585,326.06060606060623 593.0505050505051,326.06060606060623 583.5151515151515,326.06060606060623 573.9797979797979,326.06060606060623 564.4444444444445,326.06060606060623 554.9090909090909,326.06060606060623 545.3737373737374,326.06060606060623 535.8383838383838,326.06060606060623 526.3030303030303,326.06060606060623 516.7676767676768,326.06060606060623 507.2323232323232,326.06060606060623 497.69696969696975,326.06060606060623 488.16161616161617,326.06060606060623 478.62626262626264,326.06060606060623 469.09090909090907,326.06060606060623 459.55555555555554,326.06060606060623 450.0202020202021,326.06060606060623 440.4848484848485,326.06060606060623 430.949494949495,326.06060606060623 421.4141414141414,326.06060606060623 411.8787878787879,326.06060606060623 402.34343434343435,326.06060606060623 392.80808080808083,326.06060606060623 383.2727272727273,326.06060606060623 373.7373737373738,326.06060606060623 364.2020202020202,326.06060606060623 354.6666666666667,326.06060606060623 345.13131313131316,326.06060606060623 335.59595959595964,326.06060606060623 326.0606060606061,326.06060606060623 316.5252525252526,326.06060606060623 306.9898989898991,326.06060606060623 297.4545454545455,326.06060606060623 287.91919191919203,326.06060606060623 278.38383838383845,326.06060606060623 268.84848484848493,326.06060606060623 259.3131313131314,326.06060606060623 249.77777777777783,326.06060606060623 240.2424242424243,326.06060606060623 230.70707070707084,326.06060606060623 221.17171717171726,326.06060606060623 211.63636363636374,326.06060606060623 202.10101010101022,326.06060606060623 192.5656565656567,326.06060606060623 183.03030303030312,326.06060606060623 173.4949494949496,326.06060606060623 163.95959595959607,326.06060606060623 154.42424242424255,326.06060606060623 144.88888888888903,326.06060606060623 135.35353535353545,326.06060606060623 125.81818181818193,326.06060606060623 116.28282828282829,326.06060606060623 106.74747474747483,326.06060606060623 97.21212121212136,326.06060606060623 87.67676767676772,326.06060606060623 78.14141414141426,326.06060606060623 68.60606060606068,326.06060606060623 59.07070707070716,326.06060606060623 49.53535353535369,326.06060606060623 40.00000000000006,326.06060606060623" fill="none" stroke="rgba(255,0,0,0.75)" stroke-width="11.327999999999996"/></g><g><polyline data-points="-1.7676767676767675,5.000000000000002 -1.6666666666666665,4.898989898989901 -1.5656565656565653,4.7979797979797985 -1.4646464646464643,4.696969696969697 -1.363636363636363,4.595959595959597 -1.2626262626262625,4.494949494949497 -1.1616161616161613,4.393939393939394 -1.0606060606060603,4.292929292929293 -0.9595959595959596,4.191919191919193 -0.8585858585858579,4.090909090909092 -0.7575757575757572,3.989898989898992 -0.6565656565656557,3.8888888888888893 -0.555555555555555,3.7878787878787885 -0.4545454545454544,3.6868686868686877 -0.35353535353535287,3.5858585858585874 -0.2525252525252522,3.4848484848484866 -0.15151515151515066,3.383838383838384 -0.05050505050505001,3.2828282828282833 0.050505050505051545,3.181818181818183 0.1515151515151522,3.080808080808082 0.2525252525252529,2.9797979797979806 0.3535353535353544,2.87878787878788 0.4545454545454551,2.7777777777777786 0.5555555555555567,2.676767676767678 0.6565656565656574,2.575757575757577 0.7575757575757579,2.4747474747474754 0.8585858585858596,2.373737373737375 0.9595959595959602,2.2727272727272734 1.0606060606060617,2.1717171717171726 1.1616161616161622,2.1717171717171726 1.262626262626263,2.1717171717171726 1.3636363636363644,2.1717171717171726 1.4646464646464652,2.1717171717171726 1.5656565656565666,2.1717171717171726 1.6666666666666674,2.1717171717171726 1.767676767676768,2.1717171717171726 1.8686868686868696,2.1717171717171726 1.9696969696969702,2.1717171717171726 2.070707070707072,2.1717171717171726 2.1717171717171726,2.1717171717171726 2.2727272727272734,2.1717171717171726 2.373737373737375,2.1717171717171726 2.4747474747474754,2.1717171717171726 2.575757575757577,2.1717171717171726 2.676767676767678,2.1717171717171726 2.7777777777777786,2.1717171717171726 2.87878787878788,2.1717171717171726 2.9797979797979806,2.1717171717171726 3.080808080808082,2.1717171717171726 3.181818181818183,2.1717171717171726 3.2828282828282833,2.1717171717171726 3.383838383838384,2.1717171717171726 3.4848484848484866,2.1717171717171726 3.5858585858585874,2.1717171717171726 3.6868686868686877,2.070707070707072 3.7878787878787885,1.9696969696969702 3.8888888888888893,1.9696969696969702 3.989898989898992,1.9696969696969702" data-type="line" data-label="" points="345.13131313131316,40.000000000000114 354.6666666666667,49.53535353535369 364.2020202020202,59.07070707070733 373.7373737373738,68.60606060606085 383.2727272727273,78.14141414141432 392.80808080808083,87.67676767676778 402.34343434343435,97.21212121212153 411.8787878787879,106.747474747475 421.4141414141414,116.28282828282846 430.949494949495,125.81818181818198 440.4848484848485,135.35353535353545 450.0202020202021,144.88888888888908 459.55555555555554,154.4242424242426 469.09090909090907,163.95959595959613 478.62626262626264,173.4949494949496 488.16161616161617,183.03030303030312 497.69696969696975,192.56565656565675 507.2323232323232,202.10101010101027 516.7676767676768,211.63636363636374 526.3030303030303,221.17171717171726 535.8383838383838,230.70707070707084 545.3737373737374,240.24242424242436 554.9090909090909,249.77777777777794 564.4444444444445,259.3131313131314 573.9797979797979,268.84848484848493 583.5151515151515,278.38383838383857 593.0505050505051,287.91919191919203 602.5858585858585,297.4545454545456 612.1212121212121,306.9898989898991 621.6565656565656,306.9898989898991 631.1919191919192,306.9898989898991 640.7272727272727,306.9898989898991 650.2626262626262,306.9898989898991 659.7979797979798,306.9898989898991 669.3333333333333,306.9898989898991 678.8686868686868,306.9898989898991 688.4040404040404,306.9898989898991 697.9393939393939,306.9898989898991 707.4747474747475,306.9898989898991 717.0101010101009,306.9898989898991 726.5454545454545,306.9898989898991 736.0808080808081,306.9898989898991 745.6161616161615,306.9898989898991 755.1515151515151,306.9898989898991 764.6868686868686,306.9898989898991 774.2222222222222,306.9898989898991 783.7575757575758,306.9898989898991 793.2929292929292,306.9898989898991 802.8282828282828,306.9898989898991 812.3636363636363,306.9898989898991 821.8989898989898,306.9898989898991 831.4343434343433,306.9898989898991 840.969696969697,306.9898989898991 850.5050505050505,306.9898989898991 860.0404040404039,316.5252525252526 869.5757575757575,326.06060606060623 879.111111111111,326.06060606060623 888.6464646464647,326.06060606060623" fill="none" stroke="rgba(255,0,0,0.75)" stroke-width="11.327999999999996"/></g><g><polyline data-points="3.989898989898992,1.9696969696969702 3.989898989898992,1.8686868686868696 3.989898989898992,1.767676767676768 3.989898989898992,1.6666666666666674 3.989898989898992,1.5656565656565666 3.989898989898992,1.4646464646464652 3.989898989898992,1.3636363636363644 3.989898989898992,1.262626262626263 3.989898989898992,1.1616161616161622 3.989898989898992,1.0606060606060617 3.989898989898992,0.9595959595959602 3.989898989898992,0.8585858585858596 3.989898989898992,0.7575757575757579 3.989898989898992,0.6565656565656574 3.989898989898992,0.5555555555555567 3.989898989898992,0.4545454545454551 3.989898989898992,0.3535353535353544 3.989898989898992,0.2525252525252529 3.989898989898992,0.1515151515151522 3.989898989898992,0.050505050505051545 3.989898989898992,-0.05050505050505001 3.989898989898992,-0.15151515151515066 3.989898989898992,-0.2525252525252522 3.989898989898992,-0.35353535353535287 3.989898989898992,-0.4545454545454544 3.989898989898992,-0.555555555555555 3.989898989898992,-0.6565656565656557 3.989898989898992,-0.7575757575757572 3.989898989898992,-0.8585858585858579 3.989898989898992,-0.9595959595959596 3.989898989898992,-1.0606060606060603 3.989898989898992,-1.1616161616161613 3.989898989898992,-1.2626262626262625 3.989898989898992,-1.363636363636363 3.989898989898992,-1.4646464646464643 3.989898989898992,-1.5656565656565653 3.989898989898992,-1.6666666666666665 3.989898989898992,-1.7676767676767675 3.989898989898992,-1.8686868686868683 3.989898989898992,-1.9696969696969693 3.989898989898992,-2.07070707070707 3.989898989898992,-2.1717171717171713 3.989898989898992,-2.2727272727272725 3.989898989898992,-2.3737373737373733 3.989898989898992,-2.474747474747474 3.989898989898992,-2.5757575757575752 3.989898989898992,-2.6767676767676765 3.989898989898992,-2.7777777777777777 3.989898989898992,-2.8787878787878785 3.989898989898992,-2.9797979797979792 3.989898989898992,-3.0808080808080804 3.989898989898992,-3.1818181818181817 3.989898989898992,-3.2828282828282824 3.989898989898992,-3.383838383838383 3.989898989898992,-3.484848484848485 3.989898989898992,-3.5858585858585856 3.989898989898992,-3.6868686868686864 3.989898989898992,-3.7878787878787876 3.989898989898992,-3.8888888888888884 3.989898989898992,-3.98989898989899 3.989898989898992,-4.090909090909091 3.989898989898992,-4.191919191919193 3.989898989898992,-4.292929292929293 3.989898989898992,-4.393939393939394 3.989898989898992,-4.494949494949496 3.989898989898992,-4.595959595959596 3.989898989898992,-4.696969696969697 3.989898989898992,-4.7979797979797985 3.989898989898992,-4.898989898989899 3.989898989898992,-5.000000000000001" data-type="line" data-label="" points="888.6464646464647,326.06060606060623 888.6464646464647,335.5959595959597 888.6464646464647,345.1313131313133 888.6464646464647,354.66666666666674 888.6464646464647,364.2020202020203 888.6464646464647,373.73737373737384 888.6464646464647,383.27272727272737 888.6464646464647,392.80808080808094 888.6464646464647,402.3434343434344 888.6464646464647,411.87878787878793 888.6464646464647,421.4141414141415 888.6464646464647,430.94949494949503 888.6464646464647,440.4848484848486 888.6464646464647,450.0202020202021 888.6464646464647,459.5555555555556 888.6464646464647,469.0909090909092 888.6464646464647,478.6262626262627 888.6464646464647,488.1616161616163 888.6464646464647,497.69696969696975 888.6464646464647,507.23232323232327 888.6464646464647,516.7676767676768 888.6464646464647,526.3030303030304 888.6464646464647,535.838383838384 888.6464646464647,545.3737373737374 888.6464646464647,554.909090909091 888.6464646464647,564.4444444444445 888.6464646464647,573.979797979798 888.6464646464647,583.5151515151516 888.6464646464647,593.0505050505051 888.6464646464647,602.5858585858587 888.6464646464647,612.1212121212121 888.6464646464647,621.6565656565657 888.6464646464647,631.1919191919193 888.6464646464647,640.7272727272727 888.6464646464647,650.2626262626263 888.6464646464647,659.7979797979798 888.6464646464647,669.3333333333334 888.6464646464647,678.8686868686868 888.6464646464647,688.4040404040404 888.6464646464647,697.939393939394 888.6464646464647,707.4747474747475 888.6464646464647,717.010101010101 888.6464646464647,726.5454545454545 888.6464646464647,736.0808080808081 888.6464646464647,745.6161616161615 888.6464646464647,755.1515151515151 888.6464646464647,764.6868686868687 888.6464646464647,774.2222222222222 888.6464646464647,783.7575757575758 888.6464646464647,793.2929292929292 888.6464646464647,802.8282828282828 888.6464646464647,812.3636363636363 888.6464646464647,821.8989898989898 888.6464646464647,831.4343434343434 888.6464646464647,840.969696969697 888.6464646464647,850.5050505050505 888.6464646464647,860.0404040404039 888.6464646464647,869.5757575757575 888.6464646464647,879.1111111111111 888.6464646464647,888.6464646464647 888.6464646464647,898.1818181818181 888.6464646464647,907.7171717171718 888.6464646464647,917.2525252525252 888.6464646464647,926.7878787878788 888.6464646464647,936.3232323232323 888.6464646464647,945.8585858585858 888.6464646464647,955.3939393939394 888.6464646464647,964.9292929292928 888.6464646464647,974.4646464646464 888.6464646464647,984" fill="none" stroke="rgba(0,0,255,0.75)" stroke-width="11.327999999999996"/></g><g><polyline data-points="5.000000000000002,3.6868686868686877 4.898989898989901,3.5858585858585874 4.7979797979797985,3.4848484848484866 4.696969696969697,3.383838383838384 4.595959595959597,3.2828282828282833 4.494949494949497,3.181818181818183 4.393939393939394,3.080808080808082 4.292929292929293,2.9797979797979806 4.191919191919193,2.87878787878788 4.090909090909092,2.7777777777777786 3.989898989898992,2.676767676767678 3.8888888888888893,2.575757575757577 3.7878787878787885,2.4747474747474754 3.6868686868686877,2.373737373737375 3.5858585858585874,2.373737373737375 3.4848484848484866,2.373737373737375 3.383838383838384,2.373737373737375 3.2828282828282833,2.373737373737375 3.181818181818183,2.373737373737375 3.080808080808082,2.373737373737375 2.9797979797979806,2.373737373737375 2.87878787878788,2.373737373737375 2.7777777777777786,2.373737373737375 2.676767676767678,2.373737373737375 2.575757575757577,2.373737373737375 2.4747474747474754,2.373737373737375 2.373737373737375,2.373737373737375 2.2727272727272734,2.373737373737375 2.1717171717171726,2.373737373737375 2.070707070707072,2.373737373737375 1.9696969696969702,2.373737373737375 1.8686868686868696,2.373737373737375 1.767676767676768,2.373737373737375 1.6666666666666674,2.373737373737375 1.5656565656565666,2.373737373737375 1.4646464646464652,2.373737373737375 1.3636363636363644,2.373737373737375 1.262626262626263,2.373737373737375 1.1616161616161622,2.373737373737375 1.0606060606060617,2.373737373737375 0.9595959595959602,2.373737373737375 0.8585858585858596,2.373737373737375 0.7575757575757579,2.373737373737375 0.6565656565656574,2.373737373737375 0.5555555555555567,2.373737373737375 0.4545454545454551,2.373737373737375 0.3535353535353544,2.373737373737375 0.2525252525252529,2.373737373737375 0.1515151515151522,2.373737373737375 0.050505050505051545,2.373737373737375 -0.05050505050505001,2.373737373737375 -0.15151515151515066,2.373737373737375 -0.2525252525252522,2.373737373737375 -0.35353535353535287,2.373737373737375 -0.4545454545454544,2.373737373737375 -0.555555555555555,2.373737373737375 -0.6565656565656557,2.373737373737375 -0.7575757575757572,2.373737373737375 -0.8585858585858579,2.373737373737375 -0.9595959595959596,2.373737373737375 -1.0606060606060603,2.373737373737375 -1.1616161616161613,2.373737373737375 -1.2626262626262625,2.373737373737375 -1.363636363636363,2.373737373737375 -1.4646464646464643,2.373737373737375 -1.5656565656565653,2.373737373737375 -1.6666666666666665,2.373737373737375 -1.7676767676767675,2.373737373737375 -1.8686868686868683,2.373737373737375 -1.9696969696969693,2.373737373737375 -2.07070707070707,2.373737373737375 -2.1717171717171713,2.373737373737375 -2.2727272727272725,2.373737373737375 -2.3737373737373733,2.373737373737375 -2.474747474747474,2.373737373737375 -2.5757575757575752,2.373737373737375 -2.6767676767676765,2.373737373737375 -2.7777777777777777,2.373737373737375 -2.8787878787878785,2.373737373737375 -2.9797979797979792,2.373737373737375 -3.0808080808080804,2.373737373737375 -3.1818181818181817,2.373737373737375 -3.2828282828282824,2.373737373737375 -3.383838383838383,2.373737373737375 -3.484848484848485,2.373737373737375 -3.5858585858585856,2.373737373737375 -3.6868686868686864,2.373737373737375 -3.7878787878787876,2.373737373737375 -3.8888888888888884,2.373737373737375 -3.98989898989899,2.373737373737375" data-type="line" data-label="" points="984,163.95959595959613 974.4646464646464,173.4949494949496 964.9292929292927,183.03030303030312 955.3939393939393,192.56565656565675 945.8585858585857,202.10101010101027 936.3232323232323,211.63636363636374 926.7878787878785,221.17171717171726 917.2525252525251,230.70707070707084 907.7171717171716,240.24242424242436 898.181818181818,249.77777777777794 888.6464646464647,259.3131313131314 879.111111111111,268.84848484848493 869.5757575757575,278.38383838383857 860.0404040404039,287.91919191919203 850.5050505050505,287.91919191919203 840.969696969697,287.91919191919203 831.4343434343433,287.91919191919203 821.8989898989898,287.91919191919203 812.3636363636363,287.91919191919203 802.8282828282828,287.91919191919203 793.2929292929292,287.91919191919203 783.7575757575758,287.91919191919203 774.2222222222222,287.91919191919203 764.6868686868686,287.91919191919203 755.1515151515151,287.91919191919203 745.6161616161615,287.91919191919203 736.0808080808081,287.91919191919203 726.5454545454545,287.91919191919203 717.0101010101009,287.91919191919203 707.4747474747475,287.91919191919203 697.9393939393939,287.91919191919203 688.4040404040404,287.91919191919203 678.8686868686868,287.91919191919203 669.3333333333333,287.91919191919203 659.7979797979798,287.91919191919203 650.2626262626262,287.91919191919203 640.7272727272727,287.91919191919203 631.1919191919192,287.91919191919203 621.6565656565656,287.91919191919203 612.1212121212121,287.91919191919203 602.5858585858585,287.91919191919203 593.0505050505051,287.91919191919203 583.5151515151515,287.91919191919203 573.9797979797979,287.91919191919203 564.4444444444445,287.91919191919203 554.9090909090909,287.91919191919203 545.3737373737374,287.91919191919203 535.8383838383838,287.91919191919203 526.3030303030303,287.91919191919203 516.7676767676768,287.91919191919203 507.2323232323232,287.91919191919203 497.69696969696975,287.91919191919203 488.16161616161617,287.91919191919203 478.62626262626264,287.91919191919203 469.09090909090907,287.91919191919203 459.55555555555554,287.91919191919203 450.0202020202021,287.91919191919203 440.4848484848485,287.91919191919203 430.949494949495,287.91919191919203 421.4141414141414,287.91919191919203 411.8787878787879,287.91919191919203 402.34343434343435,287.91919191919203 392.80808080808083,287.91919191919203 383.2727272727273,287.91919191919203 373.7373737373738,287.91919191919203 364.2020202020202,287.91919191919203 354.6666666666667,287.91919191919203 345.13131313131316,287.91919191919203 335.59595959595964,287.91919191919203 326.0606060606061,287.91919191919203 316.5252525252526,287.91919191919203 306.9898989898991,287.91919191919203 297.4545454545455,287.91919191919203 287.91919191919203,287.91919191919203 278.38383838383845,287.91919191919203 268.84848484848493,287.91919191919203 259.3131313131314,287.91919191919203 249.77777777777783,287.91919191919203 240.2424242424243,287.91919191919203 230.70707070707084,287.91919191919203 221.17171717171726,287.91919191919203 211.63636363636374,287.91919191919203 202.10101010101022,287.91919191919203 192.5656565656567,287.91919191919203 183.03030303030312,287.91919191919203 173.4949494949496,287.91919191919203 163.95959595959607,287.91919191919203 154.42424242424255,287.91919191919203 144.88888888888903,287.91919191919203 135.35353535353545,287.91919191919203" fill="none" stroke="rgba(0,0,255,0.75)" stroke-width="11.327999999999996"/></g><g><polyline data-points="-3.98989898989899,2.373737373737375 -4.090909090909091,2.373737373737375 -4.191919191919193,2.373737373737375 -4.292929292929293,2.373737373737375 -4.393939393939394,2.373737373737375 -4.494949494949496,2.373737373737375 -4.595959595959596,2.373737373737375 -4.696969696969697,2.373737373737375 -4.7979797979797985,2.373737373737375 -4.898989898989899,2.373737373737375 -5.000000000000001,2.373737373737375" data-type="line" data-label="" points="135.35353535353545,287.91919191919203 125.81818181818193,287.91919191919203 116.28282828282829,287.91919191919203 106.74747474747483,287.91919191919203 97.21212121212136,287.91919191919203 87.67676767676772,287.91919191919203 78.14141414141426,287.91919191919203 68.60606060606068,287.91919191919203 59.07070707070716,287.91919191919203 49.53535353535369,287.91919191919203 40.00000000000006,287.91919191919203" fill="none" stroke="rgba(255,0,0,0.75)" stroke-width="11.327999999999996"/></g><g><polyline data-points="1.262626262626263,5.000000000000002 1.1616161616161622,4.898989898989901 1.0606060606060617,4.7979797979797985 0.9595959595959602,4.696969696969697 0.8585858585858596,4.595959595959597 0.7575757575757579,4.494949494949497 0.6565656565656574,4.393939393939394 0.5555555555555567,4.292929292929293 0.4545454545454551,4.191919191919193 0.3535353535353544,4.090909090909092 0.2525252525252529,3.989898989898992 0.1515151515151522,3.8888888888888893 0.050505050505051545,3.7878787878787885 -0.05050505050505001,3.6868686868686877 -0.15151515151515066,3.5858585858585874 -0.2525252525252522,3.4848484848484866 -0.35353535353535287,3.383838383838384 -0.4545454545454544,3.2828282828282833 -0.555555555555555,3.181818181818183 -0.6565656565656557,3.080808080808082 -0.7575757575757572,2.9797979797979806 -0.8585858585858579,2.87878787878788 -0.9595959595959596,2.7777777777777786 -1.0606060606060603,2.676767676767678 -1.1616161616161613,2.676767676767678 -1.2626262626262625,2.676767676767678 -1.363636363636363,2.676767676767678 -1.4646464646464643,2.676767676767678 -1.5656565656565653,2.676767676767678 -1.6666666666666665,2.676767676767678 -1.7676767676767675,2.676767676767678 -1.8686868686868683,2.676767676767678 -1.9696969696969693,2.676767676767678 -2.07070707070707,2.676767676767678 -2.1717171717171713,2.676767676767678 -2.2727272727272725,2.676767676767678 -2.3737373737373733,2.676767676767678 -2.474747474747474,2.676767676767678 -2.5757575757575752,2.676767676767678 -2.6767676767676765,2.676767676767678 -2.7777777777777777,2.676767676767678 -2.8787878787878785,2.676767676767678 -2.9797979797979792,2.676767676767678 -3.0808080808080804,2.676767676767678 -3.1818181818181817,2.676767676767678 -3.2828282828282824,2.676767676767678 -3.383838383838383,2.676767676767678 -3.484848484848485,2.676767676767678 -3.5858585858585856,2.676767676767678 -3.6868686868686864,2.676767676767678 -3.7878787878787876,2.676767676767678 -3.8888888888888884,2.676767676767678 -3.98989898989899,2.676767676767678 -4.090909090909091,2.575757575757577 -4.191919191919193,2.4747474747474754 -4.292929292929293,2.373737373737375 -4.191919191919193,2.2727272727272734 -4.090909090909091,2.1717171717171726 -3.98989898989899,2.070707070707072 -3.8888888888888884,1.9696969696969702 -3.7878787878787876,1.8686868686868696 -3.6868686868686864,1.767676767676768 -3.5858585858585856,1.6666666666666674 -3.484848484848485,1.5656565656565666 -3.383838383838383,1.4646464646464652 -3.2828282828282824,1.3636363636363644 -3.1818181818181817,1.262626262626263 -3.0808080808080804,1.1616161616161622 -2.9797979797979792,1.0606060606060617 -2.8787878787878785,0.9595959595959602 -2.7777777777777777,0.8585858585858596 -2.6767676767676765,0.7575757575757579 -2.5757575757575752,0.6565656565656574 -2.474747474747474,0.5555555555555567 -2.3737373737373733,0.4545454545454551 -2.2727272727272725,0.3535353535353544 -2.1717171717171713,0.2525252525252529 -2.07070707070707,0.1515151515151522 -1.9696969696969693,0.050505050505051545 -1.8686868686868683,-0.05050505050505001 -1.7676767676767675,-0.15151515151515066 -1.6666666666666665,-0.2525252525252522 -1.5656565656565653,-0.35353535353535287 -1.4646464646464643,-0.4545454545454544 -1.363636363636363,-0.555555555555555 -1.2626262626262625,-0.6565656565656557 -1.1616161616161613,-0.7575757575757572 -1.0606060606060603,-0.8585858585858579 -0.9595959595959596,-0.9595959595959596 -0.8585858585858579,-1.0606060606060603 -0.7575757575757572,-1.1616161616161613 -0.6565656565656557,-1.2626262626262625 -0.555555555555555,-1.363636363636363 -0.555555555555555,-1.4646464646464643 -0.555555555555555,-1.5656565656565653 -0.555555555555555,-1.6666666666666665 -0.555555555555555,-1.7676767676767675 -0.555555555555555,-1.8686868686868683 -0.555555555555555,-1.9696969696969693 -0.555555555555555,-2.07070707070707 -0.555555555555555,-2.1717171717171713 -0.555555555555555,-2.2727272727272725 -0.555555555555555,-2.3737373737373733 -0.555555555555555,-2.474747474747474 -0.555555555555555,-2.5757575757575752 -0.555555555555555,-2.6767676767676765 -0.555555555555555,-2.7777777777777777 -0.555555555555555,-2.8787878787878785 -0.555555555555555,-2.9797979797979792 -0.555555555555555,-3.0808080808080804 -0.555555555555555,-3.1818181818181817 -0.555555555555555,-3.2828282828282824 -0.555555555555555,-3.383838383838383 -0.555555555555555,-3.484848484848485 -0.555555555555555,-3.5858585858585856 -0.555555555555555,-3.6868686868686864 -0.555555555555555,-3.7878787878787876 -0.555555555555555,-3.8888888888888884 -0.555555555555555,-3.98989898989899" data-type="line" data-label="" points="631.1919191919192,40.000000000000114 621.6565656565656,49.53535353535369 612.1212121212121,59.07070707070733 602.5858585858585,68.60606060606085 593.0505050505051,78.14141414141432 583.5151515151515,87.67676767676778 573.9797979797979,97.21212121212153 564.4444444444445,106.747474747475 554.9090909090909,116.28282828282846 545.3737373737374,125.81818181818198 535.8383838383838,135.35353535353545 526.3030303030303,144.88888888888908 516.7676767676768,154.4242424242426 507.2323232323232,163.95959595959613 497.69696969696975,173.4949494949496 488.16161616161617,183.03030303030312 478.62626262626264,192.56565656565675 469.09090909090907,202.10101010101027 459.55555555555554,211.63636363636374 450.0202020202021,221.17171717171726 440.4848484848485,230.70707070707084 430.949494949495,240.24242424242436 421.4141414141414,249.77777777777794 411.8787878787879,259.3131313131314 402.34343434343435,259.3131313131314 392.80808080808083,259.3131313131314 383.2727272727273,259.3131313131314 373.7373737373738,259.3131313131314 364.2020202020202,259.3131313131314 354.6666666666667,259.3131313131314 345.13131313131316,259.3131313131314 335.59595959595964,259.3131313131314 326.0606060606061,259.3131313131314 316.5252525252526,259.3131313131314 306.9898989898991,259.3131313131314 297.4545454545455,259.3131313131314 287.91919191919203,259.3131313131314 278.38383838383845,259.3131313131314 268.84848484848493,259.3131313131314 259.3131313131314,259.3131313131314 249.77777777777783,259.3131313131314 240.2424242424243,259.3131313131314 230.70707070707084,259.3131313131314 221.17171717171726,259.3131313131314 211.63636363636374,259.3131313131314 202.10101010101022,259.3131313131314 192.5656565656567,259.3131313131314 183.03030303030312,259.3131313131314 173.4949494949496,259.3131313131314 163.95959595959607,259.3131313131314 154.42424242424255,259.3131313131314 144.88888888888903,259.3131313131314 135.35353535353545,259.3131313131314 125.81818181818193,268.84848484848493 116.28282828282829,278.38383838383857 106.74747474747483,287.91919191919203 116.28282828282829,297.4545454545456 125.81818181818193,306.9898989898991 135.35353535353545,316.5252525252526 144.88888888888903,326.06060606060623 154.42424242424255,335.5959595959597 163.95959595959607,345.1313131313133 173.4949494949496,354.66666666666674 183.03030303030312,364.2020202020203 192.5656565656567,373.73737373737384 202.10101010101022,383.27272727272737 211.63636363636374,392.80808080808094 221.17171717171726,402.3434343434344 230.70707070707084,411.87878787878793 240.2424242424243,421.4141414141415 249.77777777777783,430.94949494949503 259.3131313131314,440.4848484848486 268.84848484848493,450.0202020202021 278.38383838383845,459.5555555555556 287.91919191919203,469.0909090909092 297.4545454545455,478.6262626262627 306.9898989898991,488.1616161616163 316.5252525252526,497.69696969696975 326.0606060606061,507.23232323232327 335.59595959595964,516.7676767676768 345.13131313131316,526.3030303030304 354.6666666666667,535.838383838384 364.2020202020202,545.3737373737374 373.7373737373738,554.909090909091 383.2727272727273,564.4444444444445 392.80808080808083,573.979797979798 402.34343434343435,583.5151515151516 411.8787878787879,593.0505050505051 421.4141414141414,602.5858585858587 430.949494949495,612.1212121212121 440.4848484848485,621.6565656565657 450.0202020202021,631.1919191919193 459.55555555555554,640.7272727272727 459.55555555555554,650.2626262626263 459.55555555555554,659.7979797979798 459.55555555555554,669.3333333333334 459.55555555555554,678.8686868686868 459.55555555555554,688.4040404040404 459.55555555555554,697.939393939394 459.55555555555554,707.4747474747475 459.55555555555554,717.010101010101 459.55555555555554,726.5454545454545 459.55555555555554,736.0808080808081 459.55555555555554,745.6161616161615 459.55555555555554,755.1515151515151 459.55555555555554,764.6868686868687 459.55555555555554,774.2222222222222 459.55555555555554,783.7575757575758 459.55555555555554,793.2929292929292 459.55555555555554,802.8282828282828 459.55555555555554,812.3636363636363 459.55555555555554,821.8989898989898 459.55555555555554,831.4343434343434 459.55555555555554,840.969696969697 459.55555555555554,850.5050505050505 459.55555555555554,860.0404040404039 459.55555555555554,869.5757575757575 459.55555555555554,879.1111111111111 459.55555555555554,888.6464646464647" fill="none" stroke="rgba(0,0,255,0.75)" stroke-width="11.327999999999996"/></g><g><polyline data-points="-0.555555555555555,-3.98989898989899 -0.4545454545454544,-4.090909090909091 -0.35353535353535287,-4.191919191919193 -0.2525252525252522,-4.292929292929293 -0.15151515151515066,-4.393939393939394 -0.05050505050505001,-4.494949494949496 0.050505050505051545,-4.595959595959596 0.1515151515151522,-4.696969696969697 0.2525252525252529,-4.7979797979797985 0.3535353535353544,-4.898989898989899 0.4545454545454551,-5.000000000000001 0.5555555555555567,-5.000000000000001 0.6565656565656574,-5.000000000000001" data-type="line" data-label="" points="459.55555555555554,888.6464646464647 469.09090909090907,898.1818181818181 478.62626262626264,907.7171717171718 488.16161616161617,917.2525252525252 497.69696969696975,926.7878787878788 507.2323232323232,936.3232323232323 516.7676767676768,945.8585858585858 526.3030303030303,955.3939393939394 535.8383838383838,964.9292929292928 545.3737373737374,974.4646464646464 554.9090909090909,984 564.4444444444445,984 573.9797979797979,984" fill="none" stroke="rgba(255,0,0,0.75)" stroke-width="11.327999999999996"/></g><g><rect data-type="rect" data-label="" data-x="0" data-y="0" x="40.000000000000114" y="40.000000000000284" width="943.9999999999997" height="943.9999999999998" fill="none" stroke="gray" stroke-width="0.010593220338983056"/></g><g><rect data-type="rect" data-label="" data-x="0" data-y="0" x="40.000000000000114" y="40.000000000000284" width="943.9999999999997" height="943.9999999999998" fill="none" stroke="rgba(15, 23, 42, 0.8)" stroke-width="0.010593220338983056"/></g><circle data-type="circle" data-label="" data-x="-1.9696969696969693" data-y="-1.5656565656565653" cx="326.0606060606061" cy="659.7979797979798" r="14.159999999999995" fill="rgba(0,0,0,0.3)" stroke="black" stroke-width="0.010593220338983056"/><circle data-type="circle" data-label="" data-x="-3.98989898989899" data-y="-1.5656565656565653" cx="135.35353535353545" cy="659.7979797979798" r="14.159999999999995" fill="rgba(0,0,0,0.3)" stroke="black" stroke-width="0.010593220338983056"/><circle data-type="circle" data-label="" data-x="3.989898989898992" data-y="1.9696969696969702" cx="888.6464646464647" cy="326.06060606060623" r="14.159999999999995" fill="rgba(0,0,0,0.3)" stroke="black" stroke-width="0.010593220338983056"/><circle data-type="circle" data-label="" data-x="-3.98989898989899" data-y="2.373737373737375" cx="135.35353535353545" cy="287.91919191919203" r="14.159999999999995" fill="rgba(0,0,0,0.3)" stroke="black" stroke-width="0.010593220338983056"/><circle data-type="circle" data-label="" data-x="-0.555555555555555" data-y="-3.98989898989899" cx="459.55555555555554" cy="888.6464646464647" r="14.159999999999995" fill="rgba(0,0,0,0.3)" stroke="black" stroke-width="0.010593220338983056"/><g id="crosshair" style="display: none"><line id="crosshair-h" y1="0" y2="1024" stroke="#666" stroke-width="0.5"/><line id="crosshair-v" x1="0" x2="1024" stroke="#666" stroke-width="0.5"/><text id="coordinates" font-family="monospace" font-size="12" fill="#666"></text></g><script><![CDATA[
              document.currentScript.parentElement.addEventListener('mousemove', (e) => {
                const svg = e.currentTarget;
                const rect = svg.getBoundingClientRect();
                const x = e.clientX - rect.left;
                const y = e.clientY - rect.top;
                const crosshair = svg.getElementById('crosshair');
                const h = svg.getElementById('crosshair-h');
                const v = svg.getElementById('crosshair-v');
                const coords = svg.getElementById('coordinates');
                
                crosshair.style.display = 'block';
                h.setAttribute('x1', '0');
                h.setAttribute('x2', '1024');
                h.setAttribute('y1', y);
                h.setAttribute('y2', y);
                v.setAttribute('x1', x);
                v.setAttribute('x2', x);
                v.setAttribute('y1', '0');
                v.setAttribute('y2', '1024');

                // Calculate real coordinates using inverse transformation
                const matrix = {"a":94.39999999999996,"c":0,"e":511.99999999999994,"b":0,"d":-94.39999999999996,"f":512.0000000000001};
                // Manually invert and apply the affine transform
                // Since we only use translate and scale, we can directly compute:
                // x' = (x - tx) / sx
                // y' = (y - ty) / sy
                const sx = matrix.a;
                const sy = matrix.d;
                const tx = matrix.e; 
                const ty = matrix.f;
                const realPoint = {
                  x: (x - tx) / sx,
                  y: (y - ty) / sy // Flip y back since we used negative scale
                }
                
                coords.textContent = `(${realPoint.x.toFixed(2)}, ${realPoint.y.toFixed(2)})`;
                coords.setAttribute('x', (x + 5).toString());
                coords.setAttribute('y', (y - 5).toString());
              });
              document.currentScript.parentElement.addEventListener('mouseleave', () => {
                document.currentScript.parentElement.getElementById('crosshair').style.display = 'none';
              });
            ]]></script></svg>