<svg width="1024" height="1024" viewBox="0 0 1024 1024" xmlns="http://www.w3.org/2000/svg"><rect width="100%" height="100%" fill="white"/><g><circle data-type="point" data-label="conn_000" data-x="-4.62" data-y="-5" cx="75.87200000000013" cy="984" r="14.16" fill="blue"/></g><g><circle data-type="point" data-label="conn_000" data-x="2.4" data-y="5" cx="738.5599999999998" cy="40.000000000000284" r="14.16" fill="red"/></g><g><circle data-type="point" data-label="conn_001" data-x="4.5600000000000005" data-y="5" cx="942.4639999999998" cy="40.000000000000284" r="14.16" fill="blue"/></g><g><circle data-type="point" data-label="conn_001" data-x="4.28" data-y="-5" cx="916.0319999999998" cy="984" r="14.16" fill="blue"/></g><g><circle data-type="point" data-label="conn_002" data-x="-1.58" data-y="5" cx="362.84799999999996" cy="40.000000000000284" r="14.16" fill="blue"/></g><g><circle data-type="point" data-label="conn_002" data-x="1" data-y="-5" cx="606.3999999999999" cy="984" r="14.16" fill="red"/></g><g><circle data-type="point" data-label="conn_003" data-x="0.76" data-y="-5" cx="583.7439999999999" cy="984" r="14.16" fill="red"/></g><g><circle data-type="point" data-label="conn_003" data-x="5" data-y="2.12" cx="983.9999999999998" cy="311.8720000000002" r="14.16" fill="blue"/></g><g><circle data-type="point" data-label="conn_004" data-x="-4.0600000000000005" data-y="-5" cx="128.73600000000005" cy="984" r="14.16" fill="blue"/></g><g><circle data-type="point" data-label="conn_004" data-x="1.9000000000000001" data-y="-5" cx="691.3599999999999" cy="984" r="14.16" fill="blue"/></g><g><circle data-type="point" data-label="conn_005" data-x="-5" data-y="0.42" cx="40.000000000000114" cy="472.35200000000015" r="14.16" fill="blue"/></g><g><circle data-type="point" data-label="conn_005" data-x="5" data-y="-4.42" cx="983.9999999999998" cy="929.2479999999999" r="14.16" fill="blue"/></g><g><circle data-type="point" data-label="conn_006" data-x="-5" data-y="-0.66" cx="40.000000000000114" cy="574.3040000000001" r="14.16" fill="red"/></g><g><circle data-type="point" data-label="conn_006" data-x="5" data-y="2.14" cx="983.9999999999998" cy="309.98400000000015" r="14.16" fill="red"/></g><g><circle data-type="point" data-label="conn_007" data-x="-5" data-y="0.18" cx="40.000000000000114" cy="495.0080000000001" r="14.16" fill="blue"/></g><g><circle data-type="point" data-label="conn_007" data-x="5" data-y="-0.72" cx="983.9999999999998" cy="579.9680000000001" r="14.16" fill="red"/></g><g><circle data-type="point" data-label="conn_008" data-x="-1.4000000000000001" data-y="-5" cx="379.84" cy="984" r="14.16" fill="blue"/></g><g><circle data-type="point" data-label="conn_008" data-x="-0.32" data-y="5" cx="481.792" cy="40.000000000000284" r="14.16" fill="red"/></g><g><circle data-type="point" data-label="conn_009" data-x="-1.32" data-y="5" cx="387.392" cy="40.000000000000284" r="14.16" fill="red"/></g><g><circle data-type="point" data-label="conn_009" data-x="4.5200000000000005" data-y="-5" cx="938.6879999999999" cy="984" r="14.16" fill="red"/></g><g><polyline data-points="-1.4646464646464643,-5.000000000000001 -1.363636363636363,-4.898989898989899 -1.2626262626262625,-4.7979797979797985 -1.1616161616161613,-4.696969696969697 -1.0606060606060603,-4.595959595959596 -0.9595959595959596,-4.494949494949496 -0.8585858585858579,-4.393939393939394 -0.7575757575757572,-4.292929292929293 -0.6565656565656557,-4.191919191919193 -0.555555555555555,-4.090909090909091 -0.4545454545454544,-3.98989898989899 -0.35353535353535287,-3.8888888888888884 -0.35353535353535287,-3.7878787878787876 -0.35353535353535287,-3.6868686868686864 -0.35353535353535287,-3.5858585858585856 -0.35353535353535287,-3.484848484848485 -0.35353535353535287,-3.383838383838383 -0.35353535353535287,-3.2828282828282824 -0.35353535353535287,-3.1818181818181817 -0.35353535353535287,-3.0808080808080804 -0.35353535353535287,-2.9797979797979792 -0.35353535353535287,-2.8787878787878785 -0.35353535353535287,-2.7777777777777777 -0.35353535353535287,-2.6767676767676765 -0.35353535353535287,-2.5757575757575752 -0.35353535353535287,-2.474747474747474 -0.35353535353535287,-2.3737373737373733 -0.35353535353535287,-2.2727272727272725 -0.35353535353535287,-2.1717171717171713 -0.35353535353535287,-2.07070707070707 -0.35353535353535287,-1.9696969696969693 -0.35353535353535287,-1.8686868686868683 -0.35353535353535287,-1.7676767676767675 -0.35353535353535287,-1.6666666666666665 -0.35353535353535287,-1.5656565656565653 -0.35353535353535287,-1.4646464646464643 -0.35353535353535287,-1.363636363636363 -0.35353535353535287,-1.2626262626262625 -0.35353535353535287,-1.1616161616161613 -0.35353535353535287,-1.0606060606060603 -0.35353535353535287,-0.9595959595959596 -0.35353535353535287,-0.8585858585858579 -0.35353535353535287,-0.7575757575757572 -0.35353535353535287,-0.6565656565656557 -0.35353535353535287,-0.555555555555555 -0.35353535353535287,-0.4545454545454544 -0.35353535353535287,-0.35353535353535287 -0.35353535353535287,-0.2525252525252522 -0.35353535353535287,-0.15151515151515066 -0.35353535353535287,-0.05050505050505001 -0.35353535353535287,0.050505050505051545 -0.35353535353535287,0.1515151515151522 -0.35353535353535287,0.2525252525252529 -0.35353535353535287,0.3535353535353544 -0.35353535353535287,0.4545454545454551 -0.35353535353535287,0.5555555555555567 -0.35353535353535287,0.6565656565656574 -0.35353535353535287,0.7575757575757579 -0.35353535353535287,0.8585858585858596 -0.35353535353535287,0.9595959595959602 -0.35353535353535287,1.0606060606060617 -0.35353535353535287,1.1616161616161622 -0.35353535353535287,1.262626262626263 -0.35353535353535287,1.3636363636363644 -0.35353535353535287,1.4646464646464652 -0.35353535353535287,1.5656565656565666 -0.35353535353535287,1.6666666666666674 -0.35353535353535287,1.767676767676768 -0.35353535353535287,1.8686868686868696 -0.35353535353535287,1.9696969696969702 -0.35353535353535287,2.070707070707072 -0.35353535353535287,2.1717171717171726 -0.35353535353535287,2.2727272727272734 -0.35353535353535287,2.373737373737375 -0.35353535353535287,2.4747474747474754 -0.35353535353535287,2.575757575757577 -0.35353535353535287,2.676767676767678 -0.35353535353535287,2.7777777777777786 -0.35353535353535287,2.87878787878788 -0.35353535353535287,2.9797979797979806 -0.35353535353535287,3.080808080808082 -0.35353535353535287,3.181818181818183 -0.35353535353535287,3.2828282828282833 -0.35353535353535287,3.383838383838384 -0.35353535353535287,3.4848484848484866 -0.35353535353535287,3.5858585858585874 -0.35353535353535287,3.6868686868686877 -0.35353535353535287,3.7878787878787885 -0.35353535353535287,3.8888888888888893 -0.35353535353535287,3.989898989898992" data-type="line" data-label="" points="373.7373737373738,984 383.2727272727273,974.4646464646464 392.80808080808083,964.9292929292928 402.34343434343435,955.3939393939394 411.8787878787879,945.8585858585858 421.4141414141414,936.3232323232323 430.949494949495,926.7878787878788 440.4848484848485,917.2525252525252 450.0202020202021,907.7171717171718 459.55555555555554,898.1818181818181 469.09090909090907,888.6464646464647 478.62626262626264,879.1111111111111 478.62626262626264,869.5757575757575 478.62626262626264,860.0404040404039 478.62626262626264,850.5050505050505 478.62626262626264,840.969696969697 478.62626262626264,831.4343434343434 478.62626262626264,821.8989898989898 478.62626262626264,812.3636363636363 478.62626262626264,802.8282828282828 478.62626262626264,793.2929292929292 478.62626262626264,783.7575757575758 478.62626262626264,774.2222222222222 478.62626262626264,764.6868686868687 478.62626262626264,755.1515151515151 478.62626262626264,745.6161616161615 478.62626262626264,736.0808080808081 478.62626262626264,726.5454545454545 478.62626262626264,717.010101010101 478.62626262626264,707.4747474747475 478.62626262626264,697.939393939394 478.62626262626264,688.4040404040404 478.62626262626264,678.8686868686868 478.62626262626264,669.3333333333334 478.62626262626264,659.7979797979798 478.62626262626264,650.2626262626263 478.62626262626264,640.7272727272727 478.62626262626264,631.1919191919193 478.62626262626264,621.6565656565657 478.62626262626264,612.1212121212121 478.62626262626264,602.5858585858587 478.62626262626264,593.0505050505051 478.62626262626264,583.5151515151516 478.62626262626264,573.979797979798 478.62626262626264,564.4444444444445 478.62626262626264,554.909090909091 478.62626262626264,545.3737373737374 478.62626262626264,535.838383838384 478.62626262626264,526.3030303030304 478.62626262626264,516.7676767676768 478.62626262626264,507.23232323232327 478.62626262626264,497.69696969696975 478.62626262626264,488.1616161616163 478.62626262626264,478.6262626262627 478.62626262626264,469.0909090909092 478.62626262626264,459.5555555555556 478.62626262626264,450.0202020202021 478.62626262626264,440.4848484848486 478.62626262626264,430.94949494949503 478.62626262626264,421.4141414141415 478.62626262626264,411.87878787878793 478.62626262626264,402.3434343434344 478.62626262626264,392.80808080808094 478.62626262626264,383.27272727272737 478.62626262626264,373.73737373737384 478.62626262626264,364.2020202020203 478.62626262626264,354.66666666666674 478.62626262626264,345.1313131313133 478.62626262626264,335.5959595959597 478.62626262626264,326.06060606060623 478.62626262626264,316.5252525252526 478.62626262626264,306.9898989898991 478.62626262626264,297.4545454545456 478.62626262626264,287.91919191919203 478.62626262626264,278.38383838383857 478.62626262626264,268.84848484848493 478.62626262626264,259.3131313131314 478.62626262626264,249.77777777777794 478.62626262626264,240.24242424242436 478.62626262626264,230.70707070707084 478.62626262626264,221.17171717171726 478.62626262626264,211.63636363636374 478.62626262626264,202.10101010101027 478.62626262626264,192.56565656565675 478.62626262626264,183.03030303030312 478.62626262626264,173.4949494949496 478.62626262626264,163.95959595959613 478.62626262626264,154.4242424242426 478.62626262626264,144.88888888888908 478.62626262626264,135.35353535353545" fill="none" stroke="rgba(0,0,255,0.75)" stroke-width="11.327999999999996"/></g><g><polyline data-points="-0.35353535353535287,3.989898989898992 -0.35353535353535287,4.090909090909092 -0.35353535353535287,4.191919191919193 -0.35353535353535287,4.292929292929293 -0.35353535353535287,4.393939393939394 -0.35353535353535287,4.494949494949497 -0.35353535353535287,4.595959595959597 -0.35353535353535287,4.696969696969697 -0.35353535353535287,4.7979797979797985 -0.35353535353535287,4.898989898989901 -0.35353535353535287,5.000000000000002" data-type="line" data-label="" points="478.62626262626264,135.35353535353545 478.62626262626264,125.81818181818198 478.62626262626264,116.28282828282846 478.62626262626264,106.747474747475 478.62626262626264,97.21212121212153 478.62626262626264,87.67676767676778 478.62626262626264,78.14141414141432 478.62626262626264,68.60606060606085 478.62626262626264,59.07070707070733 478.62626262626264,49.53535353535369 478.62626262626264,40.000000000000114" fill="none" stroke="rgba(255,0,0,0.75)" stroke-width="11.327999999999996"/></g><g><polyline data-points="-4.696969696969697,-5.000000000000001 -4.595959595959596,-4.898989898989899 -4.494949494949496,-4.7979797979797985 -4.393939393939394,-4.696969696969697 -4.292929292929293,-4.595959595959596 -4.191919191919193,-4.494949494949496 -4.090909090909091,-4.393939393939394 -3.98989898989899,-4.292929292929293 -3.8888888888888884,-4.191919191919193 -3.7878787878787876,-4.090909090909091 -3.6868686868686864,-3.98989898989899 -3.5858585858585856,-3.8888888888888884 -3.484848484848485,-3.7878787878787876 -3.383838383838383,-3.6868686868686864 -3.2828282828282824,-3.5858585858585856 -3.1818181818181817,-3.484848484848485 -3.0808080808080804,-3.383838383838383 -2.9797979797979792,-3.2828282828282824 -2.8787878787878785,-3.1818181818181817 -2.7777777777777777,-3.0808080808080804 -2.6767676767676765,-2.9797979797979792 -2.5757575757575752,-2.8787878787878785 -2.474747474747474,-2.7777777777777777 -2.3737373737373733,-2.6767676767676765 -2.2727272727272725,-2.5757575757575752 -2.1717171717171713,-2.474747474747474 -2.07070707070707,-2.3737373737373733 -1.9696969696969693,-2.2727272727272725 -1.8686868686868683,-2.1717171717171713 -1.7676767676767675,-2.07070707070707 -1.6666666666666665,-1.9696969696969693 -1.5656565656565653,-1.8686868686868683 -1.4646464646464643,-1.7676767676767675 -1.363636363636363,-1.6666666666666665 -1.2626262626262625,-1.5656565656565653 -1.1616161616161613,-1.4646464646464643 -1.0606060606060603,-1.363636363636363 -0.9595959595959596,-1.2626262626262625 -0.8585858585858579,-1.1616161616161613 -0.7575757575757572,-1.0606060606060603 -0.7575757575757572,-0.9595959595959596 -0.7575757575757572,-0.8585858585858579 -0.7575757575757572,-0.7575757575757572 -0.7575757575757572,-0.6565656565656557 -0.7575757575757572,-0.555555555555555 -0.7575757575757572,-0.4545454545454544 -0.7575757575757572,-0.35353535353535287 -0.7575757575757572,-0.2525252525252522 -0.7575757575757572,-0.15151515151515066 -0.7575757575757572,-0.05050505050505001 -0.7575757575757572,0.050505050505051545 -0.7575757575757572,0.1515151515151522 -0.7575757575757572,0.2525252525252529 -0.7575757575757572,0.3535353535353544 -0.7575757575757572,0.4545454545454551 -0.7575757575757572,0.5555555555555567 -0.7575757575757572,0.6565656565656574 -0.7575757575757572,0.7575757575757579 -0.7575757575757572,0.8585858585858596 -0.7575757575757572,0.9595959595959602 -0.7575757575757572,1.0606060606060617 -0.7575757575757572,1.1616161616161622 -0.7575757575757572,1.262626262626263 -0.7575757575757572,1.3636363636363644 -0.7575757575757572,1.4646464646464652 -0.7575757575757572,1.5656565656565666 -0.7575757575757572,1.6666666666666674 -0.7575757575757572,1.767676767676768 -0.7575757575757572,1.8686868686868696 -0.7575757575757572,1.9696969696969702 -0.7575757575757572,2.070707070707072 -0.7575757575757572,2.1717171717171726 -0.7575757575757572,2.2727272727272734 -0.7575757575757572,2.373737373737375 -0.7575757575757572,2.4747474747474754 -0.7575757575757572,2.575757575757577 -0.7575757575757572,2.676767676767678 -0.7575757575757572,2.7777777777777786 -0.7575757575757572,2.87878787878788 -0.7575757575757572,2.9797979797979806 -0.7575757575757572,3.080808080808082 -0.7575757575757572,3.181818181818183 -0.7575757575757572,3.2828282828282833 -0.7575757575757572,3.383838383838384 -0.7575757575757572,3.4848484848484866" data-type="line" data-label="" points="68.60606060606068,984 78.14141414141426,974.4646464646464 87.67676767676772,964.9292929292928 97.21212121212136,955.3939393939394 106.74747474747483,945.8585858585858 116.28282828282829,936.3232323232323 125.81818181818193,926.7878787878788 135.35353535353545,917.2525252525252 144.88888888888903,907.7171717171718 154.42424242424255,898.1818181818181 163.95959595959607,888.6464646464647 173.4949494949496,879.1111111111111 183.03030303030312,869.5757575757575 192.5656565656567,860.0404040404039 202.10101010101022,850.5050505050505 211.63636363636374,840.969696969697 221.17171717171726,831.4343434343434 230.70707070707084,821.8989898989898 240.2424242424243,812.3636363636363 249.77777777777783,802.8282828282828 259.3131313131314,793.2929292929292 268.84848484848493,783.7575757575758 278.38383838383845,774.2222222222222 287.91919191919203,764.6868686868687 297.4545454545455,755.1515151515151 306.9898989898991,745.6161616161615 316.5252525252526,736.0808080808081 326.0606060606061,726.5454545454545 335.59595959595964,717.010101010101 345.13131313131316,707.4747474747475 354.6666666666667,697.939393939394 364.2020202020202,688.4040404040404 373.7373737373738,678.8686868686868 383.2727272727273,669.3333333333334 392.80808080808083,659.7979797979798 402.34343434343435,650.2626262626263 411.8787878787879,640.7272727272727 421.4141414141414,631.1919191919193 430.949494949495,621.6565656565657 440.4848484848485,612.1212121212121 440.4848484848485,602.5858585858587 440.4848484848485,593.0505050505051 440.4848484848485,583.5151515151516 440.4848484848485,573.979797979798 440.4848484848485,564.4444444444445 440.4848484848485,554.909090909091 440.4848484848485,545.3737373737374 440.4848484848485,535.838383838384 440.4848484848485,526.3030303030304 440.4848484848485,516.7676767676768 440.4848484848485,507.23232323232327 440.4848484848485,497.69696969696975 440.4848484848485,488.1616161616163 440.4848484848485,478.6262626262627 440.4848484848485,469.0909090909092 440.4848484848485,459.5555555555556 440.4848484848485,450.0202020202021 440.4848484848485,440.4848484848486 440.4848484848485,430.94949494949503 440.4848484848485,421.4141414141415 440.4848484848485,411.87878787878793 440.4848484848485,402.3434343434344 440.4848484848485,392.80808080808094 440.4848484848485,383.27272727272737 440.4848484848485,373.73737373737384 440.4848484848485,364.2020202020203 440.4848484848485,354.66666666666674 440.4848484848485,345.1313131313133 440.4848484848485,335.5959595959597 440.4848484848485,326.06060606060623 440.4848484848485,316.5252525252526 440.4848484848485,306.9898989898991 440.4848484848485,297.4545454545456 440.4848484848485,287.91919191919203 440.4848484848485,278.38383838383857 440.4848484848485,268.84848484848493 440.4848484848485,259.3131313131314 440.4848484848485,249.77777777777794 440.4848484848485,240.24242424242436 440.4848484848485,230.70707070707084 440.4848484848485,221.17171717171726 440.4848484848485,211.63636363636374 440.4848484848485,202.10101010101027 440.4848484848485,192.56565656565675 440.4848484848485,183.03030303030312" fill="none" stroke="rgba(0,0,255,0.75)" stroke-width="11.327999999999996"/></g><g><polyline data-points="-0.7575757575757572,3.4848484848484866 -0.6565656565656557,3.5858585858585874 -0.555555555555555,3.6868686868686877 -0.4545454545454544,3.6868686868686877 -0.35353535353535287,3.6868686868686877 -0.2525252525252522,3.7878787878787885 -0.15151515151515066,3.8888888888888893 -0.05050505050505001,3.989898989898992 0.050505050505051545,4.090909090909092 0.1515151515151522,4.191919191919193 0.2525252525252529,4.292929292929293 0.3535353535353544,4.393939393939394 0.4545454545454551,4.494949494949497 0.5555555555555567,4.595959595959597 0.6565656565656574,4.696969696969697 0.7575757575757579,4.7979797979797985 0.8585858585858596,4.898989898989901 0.9595959595959602,5.000000000000002 1.0606060606060617,5.000000000000002 1.1616161616161622,5.000000000000002 1.262626262626263,5.000000000000002 1.3636363636363644,5.000000000000002 1.4646464646464652,5.000000000000002 1.5656565656565666,5.000000000000002 1.6666666666666674,5.000000000000002 1.767676767676768,5.000000000000002 1.8686868686868696,5.000000000000002 1.9696969696969702,5.000000000000002 2.070707070707072,5.000000000000002 2.1717171717171726,5.000000000000002 2.2727272727272734,5.000000000000002 2.373737373737375,5.000000000000002 2.4747474747474754,5.000000000000002" data-type="line" data-label="" points="440.4848484848485,183.03030303030312 450.0202020202021,173.4949494949496 459.55555555555554,163.95959595959613 469.09090909090907,163.95959595959613 478.62626262626264,163.95959595959613 488.16161616161617,154.4242424242426 497.69696969696975,144.88888888888908 507.2323232323232,135.35353535353545 516.7676767676768,125.81818181818198 526.3030303030303,116.28282828282846 535.8383838383838,106.747474747475 545.3737373737374,97.21212121212153 554.9090909090909,87.67676767676778 564.4444444444445,78.14141414141432 573.9797979797979,68.60606060606085 583.5151515151515,59.07070707070733 593.0505050505051,49.53535353535369 602.5858585858585,40.000000000000114 612.1212121212121,40.000000000000114 621.6565656565656,40.000000000000114 631.1919191919192,40.000000000000114 640.7272727272727,40.000000000000114 650.2626262626262,40.000000000000114 659.7979797979798,40.000000000000114 669.3333333333333,40.000000000000114 678.8686868686868,40.000000000000114 688.4040404040404,40.000000000000114 697.9393939393939,40.000000000000114 707.4747474747475,40.000000000000114 717.0101010101009,40.000000000000114 726.5454545454545,40.000000000000114 736.0808080808081,40.000000000000114 745.6161616161615,40.000000000000114" fill="none" stroke="rgba(255,0,0,0.75)" stroke-width="11.327999999999996"/></g><g><polyline data-points="-5.000000000000001,0.1515151515151522 -4.898989898989899,0.050505050505051545 -4.7979797979797985,-0.05050505050505001 -4.696969696969697,-0.15151515151515066 -4.595959595959596,-0.2525252525252522 -4.494949494949496,-0.35353535353535287 -4.393939393939394,-0.4545454545454544 -4.292929292929293,-0.555555555555555 -4.191919191919193,-0.6565656565656557 -4.090909090909091,-0.7575757575757572 -3.98989898989899,-0.8585858585858579 -3.98989898989899,-0.9595959595959596 -3.98989898989899,-1.0606060606060603" data-type="line" data-label="" points="40.00000000000006,497.69696969696975 49.53535353535369,507.23232323232327 59.07070707070716,516.7676767676768 68.60606060606068,526.3030303030304 78.14141414141426,535.838383838384 87.67676767676772,545.3737373737374 97.21212121212136,554.909090909091 106.74747474747483,564.4444444444445 116.28282828282829,573.979797979798 125.81818181818193,583.5151515151516 135.35353535353545,593.0505050505051 135.35353535353545,602.5858585858587 135.35353535353545,612.1212121212121" fill="none" stroke="rgba(0,0,255,0.75)" stroke-width="11.327999999999996"/></g><g><polyline data-points="-3.98989898989899,-1.0606060606060603 -3.8888888888888884,-0.9595959595959596 -3.7878787878787876,-0.8585858585858579 -3.6868686868686864,-0.7575757575757572 -3.5858585858585856,-0.7575757575757572 -3.484848484848485,-0.7575757575757572 -3.383838383838383,-0.7575757575757572 -3.2828282828282824,-0.7575757575757572 -3.1818181818181817,-0.7575757575757572 -3.0808080808080804,-0.7575757575757572 -2.9797979797979792,-0.7575757575757572 -2.8787878787878785,-0.7575757575757572 -2.7777777777777777,-0.7575757575757572 -2.6767676767676765,-0.7575757575757572 -2.5757575757575752,-0.7575757575757572 -2.474747474747474,-0.7575757575757572 -2.3737373737373733,-0.7575757575757572 -2.2727272727272725,-0.7575757575757572 -2.1717171717171713,-0.7575757575757572 -2.07070707070707,-0.7575757575757572 -1.9696969696969693,-0.7575757575757572 -1.8686868686868683,-0.7575757575757572 -1.7676767676767675,-0.7575757575757572 -1.6666666666666665,-0.7575757575757572 -1.5656565656565653,-0.7575757575757572 -1.4646464646464643,-0.7575757575757572 -1.363636363636363,-0.7575757575757572 -1.2626262626262625,-0.7575757575757572 -1.1616161616161613,-0.7575757575757572 -1.0606060606060603,-0.7575757575757572 -0.9595959595959596,-0.7575757575757572 -0.8585858585858579,-0.7575757575757572 -0.7575757575757572,-0.7575757575757572 -0.6565656565656557,-0.7575757575757572 -0.555555555555555,-0.7575757575757572 -0.4545454545454544,-0.7575757575757572 -0.35353535353535287,-0.7575757575757572 -0.2525252525252522,-0.7575757575757572 -0.15151515151515066,-0.7575757575757572 -0.05050505050505001,-0.7575757575757572 0.050505050505051545,-0.7575757575757572 0.1515151515151522,-0.7575757575757572 0.2525252525252529,-0.7575757575757572 0.3535353535353544,-0.7575757575757572 0.4545454545454551,-0.7575757575757572 0.5555555555555567,-0.7575757575757572 0.6565656565656574,-0.7575757575757572 0.7575757575757579,-0.7575757575757572 0.8585858585858596,-0.7575757575757572 0.9595959595959602,-0.7575757575757572 1.0606060606060617,-0.7575757575757572 1.1616161616161622,-0.7575757575757572 1.262626262626263,-0.7575757575757572 1.3636363636363644,-0.7575757575757572 1.4646464646464652,-0.7575757575757572 1.5656565656565666,-0.7575757575757572 1.6666666666666674,-0.7575757575757572 1.767676767676768,-0.7575757575757572 1.8686868686868696,-0.7575757575757572 1.9696969696969702,-0.7575757575757572 2.070707070707072,-0.7575757575757572 2.1717171717171726,-0.7575757575757572 2.2727272727272734,-0.7575757575757572 2.373737373737375,-0.7575757575757572 2.4747474747474754,-0.7575757575757572 2.575757575757577,-0.7575757575757572 2.676767676767678,-0.7575757575757572 2.7777777777777786,-0.7575757575757572 2.87878787878788,-0.7575757575757572 2.9797979797979806,-0.7575757575757572 3.080808080808082,-0.7575757575757572 3.181818181818183,-0.7575757575757572 3.2828282828282833,-0.7575757575757572 3.383838383838384,-0.7575757575757572 3.4848484848484866,-0.7575757575757572 3.5858585858585874,-0.7575757575757572 3.6868686868686877,-0.7575757575757572 3.7878787878787885,-0.7575757575757572 3.8888888888888893,-0.7575757575757572 3.989898989898992,-0.7575757575757572 4.090909090909092,-0.7575757575757572 4.191919191919193,-0.7575757575757572 4.292929292929293,-0.7575757575757572 4.393939393939394,-0.7575757575757572 4.494949494949497,-0.7575757575757572 4.595959595959597,-0.7575757575757572 4.696969696969697,-0.7575757575757572 4.7979797979797985,-0.7575757575757572 4.898989898989901,-0.7575757575757572 5.000000000000002,-0.7575757575757572" data-type="line" data-label="" points="135.35353535353545,612.1212121212121 144.88888888888903,602.5858585858587 154.42424242424255,593.0505050505051 163.95959595959607,583.5151515151516 173.4949494949496,583.5151515151516 183.03030303030312,583.5151515151516 192.5656565656567,583.5151515151516 202.10101010101022,583.5151515151516 211.63636363636374,583.5151515151516 221.17171717171726,583.5151515151516 230.70707070707084,583.5151515151516 240.2424242424243,583.5151515151516 249.77777777777783,583.5151515151516 259.3131313131314,583.5151515151516 268.84848484848493,583.5151515151516 278.38383838383845,583.5151515151516 287.91919191919203,583.5151515151516 297.4545454545455,583.5151515151516 306.9898989898991,583.5151515151516 316.5252525252526,583.5151515151516 326.0606060606061,583.5151515151516 335.59595959595964,583.5151515151516 345.13131313131316,583.5151515151516 354.6666666666667,583.5151515151516 364.2020202020202,583.5151515151516 373.7373737373738,583.5151515151516 383.2727272727273,583.5151515151516 392.80808080808083,583.5151515151516 402.34343434343435,583.5151515151516 411.8787878787879,583.5151515151516 421.4141414141414,583.5151515151516 430.949494949495,583.5151515151516 440.4848484848485,583.5151515151516 450.0202020202021,583.5151515151516 459.55555555555554,583.5151515151516 469.09090909090907,583.5151515151516 478.62626262626264,583.5151515151516 488.16161616161617,583.5151515151516 497.69696969696975,583.5151515151516 507.2323232323232,583.5151515151516 516.7676767676768,583.5151515151516 526.3030303030303,583.5151515151516 535.8383838383838,583.5151515151516 545.3737373737374,583.5151515151516 554.9090909090909,583.5151515151516 564.4444444444445,583.5151515151516 573.9797979797979,583.5151515151516 583.5151515151515,583.5151515151516 593.0505050505051,583.5151515151516 602.5858585858585,583.5151515151516 612.1212121212121,583.5151515151516 621.6565656565656,583.5151515151516 631.1919191919192,583.5151515151516 640.7272727272727,583.5151515151516 650.2626262626262,583.5151515151516 659.7979797979798,583.5151515151516 669.3333333333333,583.5151515151516 678.8686868686868,583.5151515151516 688.4040404040404,583.5151515151516 697.9393939393939,583.5151515151516 707.4747474747475,583.5151515151516 717.0101010101009,583.5151515151516 726.5454545454545,583.5151515151516 736.0808080808081,583.5151515151516 745.6161616161615,583.5151515151516 755.1515151515151,583.5151515151516 764.6868686868686,583.5151515151516 774.2222222222222,583.5151515151516 783.7575757575758,583.5151515151516 793.2929292929292,583.5151515151516 802.8282828282828,583.5151515151516 812.3636363636363,583.5151515151516 821.8989898989898,583.5151515151516 831.4343434343433,583.5151515151516 840.969696969697,583.5151515151516 850.5050505050505,583.5151515151516 860.0404040404039,583.5151515151516 869.5757575757575,583.5151515151516 879.111111111111,583.5151515151516 888.6464646464647,583.5151515151516 898.181818181818,583.5151515151516 907.7171717171716,583.5151515151516 917.2525252525251,583.5151515151516 926.7878787878785,583.5151515151516 936.3232323232323,583.5151515151516 945.8585858585857,583.5151515151516 955.3939393939393,583.5151515151516 964.9292929292927,583.5151515151516 974.4646464646464,583.5151515151516 984,583.5151515151516" fill="none" stroke="rgba(255,0,0,0.75)" stroke-width="11.327999999999996"/></g><g><polyline data-points="-5.000000000000001,-0.6565656565656557 -4.898989898989899,-0.555555555555555 -4.7979797979797985,-0.4545454545454544 -4.696969696969697,-0.35353535353535287 -4.595959595959596,-0.2525252525252522 -4.494949494949496,-0.15151515151515066 -4.393939393939394,-0.05050505050505001 -4.292929292929293,0.050505050505051545 -4.191919191919193,0.1515151515151522 -4.090909090909091,0.2525252525252529 -3.98989898989899,0.3535353535353544 -3.8888888888888884,0.4545454545454551 -3.7878787878787876,0.5555555555555567 -3.6868686868686864,0.6565656565656574 -3.5858585858585856,0.7575757575757579 -3.484848484848485,0.8585858585858596 -3.383838383838383,0.9595959595959602 -3.2828282828282824,1.0606060606060617 -3.1818181818181817,1.1616161616161622 -3.0808080808080804,1.262626262626263 -2.9797979797979792,1.3636363636363644 -2.8787878787878785,1.4646464646464652 -2.7777777777777777,1.5656565656565666 -2.6767676767676765,1.6666666666666674 -2.5757575757575752,1.767676767676768 -2.474747474747474,1.8686868686868696 -2.3737373737373733,1.9696969696969702 -2.2727272727272725,2.070707070707072 -2.1717171717171713,2.1717171717171726 -2.07070707070707,2.1717171717171726 -1.9696969696969693,2.1717171717171726 -1.8686868686868683,2.1717171717171726 -1.7676767676767675,2.1717171717171726 -1.6666666666666665,2.1717171717171726 -1.5656565656565653,2.1717171717171726 -1.4646464646464643,2.1717171717171726 -1.363636363636363,2.1717171717171726 -1.2626262626262625,2.1717171717171726 -1.1616161616161613,2.1717171717171726 -1.0606060606060603,2.1717171717171726 -0.9595959595959596,2.1717171717171726 -0.8585858585858579,2.1717171717171726 -0.7575757575757572,2.1717171717171726 -0.6565656565656557,2.1717171717171726 -0.555555555555555,2.1717171717171726 -0.4545454545454544,2.1717171717171726 -0.35353535353535287,2.1717171717171726 -0.2525252525252522,2.1717171717171726 -0.15151515151515066,2.1717171717171726 -0.05050505050505001,2.1717171717171726 0.050505050505051545,2.1717171717171726 0.1515151515151522,2.1717171717171726 0.2525252525252529,2.1717171717171726 0.3535353535353544,2.1717171717171726 0.4545454545454551,2.1717171717171726 0.5555555555555567,2.1717171717171726 0.6565656565656574,2.1717171717171726 0.7575757575757579,2.1717171717171726 0.8585858585858596,2.1717171717171726 0.9595959595959602,2.1717171717171726 1.0606060606060617,2.1717171717171726 1.1616161616161622,2.1717171717171726 1.262626262626263,2.1717171717171726 1.3636363636363644,2.1717171717171726 1.4646464646464652,2.1717171717171726 1.5656565656565666,2.1717171717171726 1.6666666666666674,2.1717171717171726 1.767676767676768,2.1717171717171726 1.8686868686868696,2.1717171717171726 1.9696969696969702,2.1717171717171726 2.070707070707072,2.1717171717171726 2.1717171717171726,2.1717171717171726 2.2727272727272734,2.1717171717171726 2.373737373737375,2.1717171717171726 2.4747474747474754,2.1717171717171726 2.575757575757577,2.1717171717171726 2.676767676767678,2.1717171717171726 2.7777777777777786,2.1717171717171726 2.87878787878788,2.1717171717171726 2.9797979797979806,2.1717171717171726 3.080808080808082,2.1717171717171726 3.181818181818183,2.1717171717171726 3.2828282828282833,2.1717171717171726 3.383838383838384,2.1717171717171726 3.4848484848484866,2.1717171717171726 3.5858585858585874,2.1717171717171726 3.6868686868686877,2.1717171717171726 3.7878787878787885,2.1717171717171726 3.8888888888888893,2.1717171717171726 3.989898989898992,2.1717171717171726 4.090909090909092,2.1717171717171726 4.191919191919193,2.1717171717171726 4.292929292929293,2.1717171717171726 4.393939393939394,2.1717171717171726 4.494949494949497,2.1717171717171726 4.595959595959597,2.1717171717171726 4.696969696969697,2.1717171717171726 4.7979797979797985,2.1717171717171726 4.898989898989901,2.1717171717171726 5.000000000000002,2.1717171717171726" data-type="line" data-label="" points="40.00000000000006,573.979797979798 49.53535353535369,564.4444444444445 59.07070707070716,554.909090909091 68.60606060606068,545.3737373737374 78.14141414141426,535.838383838384 87.67676767676772,526.3030303030304 97.21212121212136,516.7676767676768 106.74747474747483,507.23232323232327 116.28282828282829,497.69696969696975 125.81818181818193,488.1616161616163 135.35353535353545,478.6262626262627 144.88888888888903,469.0909090909092 154.42424242424255,459.5555555555556 163.95959595959607,450.0202020202021 173.4949494949496,440.4848484848486 183.03030303030312,430.94949494949503 192.5656565656567,421.4141414141415 202.10101010101022,411.87878787878793 211.63636363636374,402.3434343434344 221.17171717171726,392.80808080808094 230.70707070707084,383.27272727272737 240.2424242424243,373.73737373737384 249.77777777777783,364.2020202020203 259.3131313131314,354.66666666666674 268.84848484848493,345.1313131313133 278.38383838383845,335.5959595959597 287.91919191919203,326.06060606060623 297.4545454545455,316.5252525252526 306.9898989898991,306.9898989898991 316.5252525252526,306.9898989898991 326.0606060606061,306.9898989898991 335.59595959595964,306.9898989898991 345.13131313131316,306.9898989898991 354.6666666666667,306.9898989898991 364.2020202020202,306.9898989898991 373.7373737373738,306.9898989898991 383.2727272727273,306.9898989898991 392.80808080808083,306.9898989898991 402.34343434343435,306.9898989898991 411.8787878787879,306.9898989898991 421.4141414141414,306.9898989898991 430.949494949495,306.9898989898991 440.4848484848485,306.9898989898991 450.0202020202021,306.9898989898991 459.55555555555554,306.9898989898991 469.09090909090907,306.9898989898991 478.62626262626264,306.9898989898991 488.16161616161617,306.9898989898991 497.69696969696975,306.9898989898991 507.2323232323232,306.9898989898991 516.7676767676768,306.9898989898991 526.3030303030303,306.9898989898991 535.8383838383838,306.9898989898991 545.3737373737374,306.9898989898991 554.9090909090909,306.9898989898991 564.4444444444445,306.9898989898991 573.9797979797979,306.9898989898991 583.5151515151515,306.9898989898991 593.0505050505051,306.9898989898991 602.5858585858585,306.9898989898991 612.1212121212121,306.9898989898991 621.6565656565656,306.9898989898991 631.1919191919192,306.9898989898991 640.7272727272727,306.9898989898991 650.2626262626262,306.9898989898991 659.7979797979798,306.9898989898991 669.3333333333333,306.9898989898991 678.8686868686868,306.9898989898991 688.4040404040404,306.9898989898991 697.9393939393939,306.9898989898991 707.4747474747475,306.9898989898991 717.0101010101009,306.9898989898991 726.5454545454545,306.9898989898991 736.0808080808081,306.9898989898991 745.6161616161615,306.9898989898991 755.1515151515151,306.9898989898991 764.6868686868686,306.9898989898991 774.2222222222222,306.9898989898991 783.7575757575758,306.9898989898991 793.2929292929292,306.9898989898991 802.8282828282828,306.9898989898991 812.3636363636363,306.9898989898991 821.8989898989898,306.9898989898991 831.4343434343433,306.9898989898991 840.969696969697,306.9898989898991 850.5050505050505,306.9898989898991 860.0404040404039,306.9898989898991 869.5757575757575,306.9898989898991 879.111111111111,306.9898989898991 888.6464646464647,306.9898989898991 898.181818181818,306.9898989898991 907.7171717171716,306.9898989898991 917.2525252525251,306.9898989898991 926.7878787878785,306.9898989898991 936.3232323232323,306.9898989898991 945.8585858585857,306.9898989898991 955.3939393939393,306.9898989898991 964.9292929292927,306.9898989898991 974.4646464646464,306.9898989898991 984,306.9898989898991" fill="none" stroke="rgba(255,0,0,0.75)" stroke-width="11.327999999999996"/></g><g><polyline data-points="-1.363636363636363,5.000000000000002 -1.2626262626262625,4.898989898989901 -1.1616161616161613,4.7979797979797985 -1.0606060606060603,4.696969696969697 -1.0606060606060603,4.595959595959597 -1.0606060606060603,4.494949494949497 -1.0606060606060603,4.393939393939394 -1.0606060606060603,4.292929292929293 -1.0606060606060603,4.191919191919193 -1.0606060606060603,4.090909090909092 -1.0606060606060603,3.989898989898992 -1.0606060606060603,3.8888888888888893 -1.0606060606060603,3.7878787878787885 -1.0606060606060603,3.6868686868686877 -1.0606060606060603,3.5858585858585874 -1.0606060606060603,3.4848484848484866 -0.9595959595959596,3.383838383838384 -0.8585858585858579,3.2828282828282833 -0.7575757575757572,3.181818181818183 -0.6565656565656557,3.080808080808082 -0.555555555555555,2.9797979797979806 -0.4545454545454544,2.87878787878788 -0.35353535353535287,2.7777777777777786 -0.2525252525252522,2.676767676767678 -0.15151515151515066,2.575757575757577 -0.05050505050505001,2.575757575757577 0.050505050505051545,2.575757575757577 0.1515151515151522,2.575757575757577 0.2525252525252529,2.575757575757577 0.3535353535353544,2.575757575757577 0.4545454545454551,2.575757575757577 0.5555555555555567,2.575757575757577 0.6565656565656574,2.575757575757577 0.7575757575757579,2.575757575757577 0.8585858585858596,2.575757575757577 0.9595959595959602,2.575757575757577 1.0606060606060617,2.575757575757577 1.1616161616161622,2.575757575757577 1.262626262626263,2.575757575757577 1.3636363636363644,2.575757575757577 1.4646464646464652,2.575757575757577 1.5656565656565666,2.575757575757577 1.6666666666666674,2.575757575757577 1.767676767676768,2.575757575757577 1.8686868686868696,2.575757575757577 1.9696969696969702,2.575757575757577 2.070707070707072,2.575757575757577 2.1717171717171726,2.575757575757577 2.2727272727272734,2.575757575757577 2.373737373737375,2.575757575757577 2.4747474747474754,2.575757575757577 2.575757575757577,2.575757575757577 2.676767676767678,2.575757575757577 2.7777777777777786,2.575757575757577 2.87878787878788,2.575757575757577 2.9797979797979806,2.575757575757577 3.080808080808082,2.575757575757577 3.181818181818183,2.575757575757577 3.2828282828282833,2.575757575757577 3.383838383838384,2.575757575757577 3.4848484848484866,2.575757575757577" data-type="line" data-label="" points="383.2727272727273,40.000000000000114 392.80808080808083,49.53535353535369 402.34343434343435,59.07070707070733 411.8787878787879,68.60606060606085 411.8787878787879,78.14141414141432 411.8787878787879,87.67676767676778 411.8787878787879,97.21212121212153 411.8787878787879,106.747474747475 411.8787878787879,116.28282828282846 411.8787878787879,125.81818181818198 411.8787878787879,135.35353535353545 411.8787878787879,144.88888888888908 411.8787878787879,154.4242424242426 411.8787878787879,163.95959595959613 411.8787878787879,173.4949494949496 411.8787878787879,183.03030303030312 421.4141414141414,192.56565656565675 430.949494949495,202.10101010101027 440.4848484848485,211.63636363636374 450.0202020202021,221.17171717171726 459.55555555555554,230.70707070707084 469.09090909090907,240.24242424242436 478.62626262626264,249.77777777777794 488.16161616161617,259.3131313131314 497.69696969696975,268.84848484848493 507.2323232323232,268.84848484848493 516.7676767676768,268.84848484848493 526.3030303030303,268.84848484848493 535.8383838383838,268.84848484848493 545.3737373737374,268.84848484848493 554.9090909090909,268.84848484848493 564.4444444444445,268.84848484848493 573.9797979797979,268.84848484848493 583.5151515151515,268.84848484848493 593.0505050505051,268.84848484848493 602.5858585858585,268.84848484848493 612.1212121212121,268.84848484848493 621.6565656565656,268.84848484848493 631.1919191919192,268.84848484848493 640.7272727272727,268.84848484848493 650.2626262626262,268.84848484848493 659.7979797979798,268.84848484848493 669.3333333333333,268.84848484848493 678.8686868686868,268.84848484848493 688.4040404040404,268.84848484848493 697.9393939393939,268.84848484848493 707.4747474747475,268.84848484848493 717.0101010101009,268.84848484848493 726.5454545454545,268.84848484848493 736.0808080808081,268.84848484848493 745.6161616161615,268.84848484848493 755.1515151515151,268.84848484848493 764.6868686868686,268.84848484848493 774.2222222222222,268.84848484848493 783.7575757575758,268.84848484848493 793.2929292929292,268.84848484848493 802.8282828282828,268.84848484848493 812.3636363636363,268.84848484848493 821.8989898989898,268.84848484848493 831.4343434343433,268.84848484848493 840.969696969697,268.84848484848493" fill="none" stroke="rgba(255,0,0,0.75)" stroke-width="11.327999999999996"/></g><g><polyline data-points="3.4848484848484866,2.575757575757577 3.5858585858585874,2.4747474747474754 3.6868686868686877,2.373737373737375 3.7878787878787885,2.2727272727272734 3.8888888888888893,2.1717171717171726 3.8888888888888893,2.070707070707072 3.8888888888888893,1.9696969696969702 3.8888888888888893,1.8686868686868696 3.8888888888888893,1.767676767676768 3.8888888888888893,1.6666666666666674 3.8888888888888893,1.5656565656565666 3.8888888888888893,1.4646464646464652 3.8888888888888893,1.3636363636363644 3.8888888888888893,1.262626262626263 3.8888888888888893,1.1616161616161622 3.8888888888888893,1.0606060606060617 3.8888888888888893,0.9595959595959602 3.8888888888888893,0.8585858585858596 3.8888888888888893,0.7575757575757579 3.8888888888888893,0.6565656565656574 3.8888888888888893,0.5555555555555567 3.8888888888888893,0.4545454545454551 3.8888888888888893,0.3535353535353544 3.8888888888888893,0.2525252525252529 3.8888888888888893,0.1515151515151522 3.8888888888888893,0.050505050505051545 3.8888888888888893,-0.05050505050505001 3.8888888888888893,-0.15151515151515066 3.8888888888888893,-0.2525252525252522 3.8888888888888893,-0.35353535353535287 3.8888888888888893,-0.4545454545454544 3.8888888888888893,-0.555555555555555 3.8888888888888893,-0.6565656565656557 3.8888888888888893,-0.7575757575757572 3.8888888888888893,-0.8585858585858579 3.8888888888888893,-0.9595959595959596 3.8888888888888893,-1.0606060606060603 3.8888888888888893,-1.1616161616161613 3.8888888888888893,-1.2626262626262625 3.8888888888888893,-1.363636363636363 3.8888888888888893,-1.4646464646464643 3.8888888888888893,-1.5656565656565653 3.8888888888888893,-1.6666666666666665 3.8888888888888893,-1.7676767676767675 3.8888888888888893,-1.8686868686868683 3.8888888888888893,-1.9696969696969693 3.8888888888888893,-2.07070707070707 3.8888888888888893,-2.1717171717171713 3.8888888888888893,-2.2727272727272725 3.8888888888888893,-2.3737373737373733 3.8888888888888893,-2.474747474747474 3.8888888888888893,-2.5757575757575752 3.8888888888888893,-2.6767676767676765 3.8888888888888893,-2.7777777777777777 3.8888888888888893,-2.8787878787878785 3.8888888888888893,-2.9797979797979792 3.8888888888888893,-3.0808080808080804 3.8888888888888893,-3.1818181818181817 3.8888888888888893,-3.2828282828282824 3.8888888888888893,-3.383838383838383 3.8888888888888893,-3.484848484848485" data-type="line" data-label="" points="840.969696969697,268.84848484848493 850.5050505050505,278.38383838383857 860.0404040404039,287.91919191919203 869.5757575757575,297.4545454545456 879.111111111111,306.9898989898991 879.111111111111,316.5252525252526 879.111111111111,326.06060606060623 879.111111111111,335.5959595959597 879.111111111111,345.1313131313133 879.111111111111,354.66666666666674 879.111111111111,364.2020202020203 879.111111111111,373.73737373737384 879.111111111111,383.27272727272737 879.111111111111,392.80808080808094 879.111111111111,402.3434343434344 879.111111111111,411.87878787878793 879.111111111111,421.4141414141415 879.111111111111,430.94949494949503 879.111111111111,440.4848484848486 879.111111111111,450.0202020202021 879.111111111111,459.5555555555556 879.111111111111,469.0909090909092 879.111111111111,478.6262626262627 879.111111111111,488.1616161616163 879.111111111111,497.69696969696975 879.111111111111,507.23232323232327 879.111111111111,516.7676767676768 879.111111111111,526.3030303030304 879.111111111111,535.838383838384 879.111111111111,545.3737373737374 879.111111111111,554.909090909091 879.111111111111,564.4444444444445 879.111111111111,573.979797979798 879.111111111111,583.5151515151516 879.111111111111,593.0505050505051 879.111111111111,602.5858585858587 879.111111111111,612.1212121212121 879.111111111111,621.6565656565657 879.111111111111,631.1919191919193 879.111111111111,640.7272727272727 879.111111111111,650.2626262626263 879.111111111111,659.7979797979798 879.111111111111,669.3333333333334 879.111111111111,678.8686868686868 879.111111111111,688.4040404040404 879.111111111111,697.939393939394 879.111111111111,707.4747474747475 879.111111111111,717.010101010101 879.111111111111,726.5454545454545 879.111111111111,736.0808080808081 879.111111111111,745.6161616161615 879.111111111111,755.1515151515151 879.111111111111,764.6868686868687 879.111111111111,774.2222222222222 879.111111111111,783.7575757575758 879.111111111111,793.2929292929292 879.111111111111,802.8282828282828 879.111111111111,812.3636363636363 879.111111111111,821.8989898989898 879.111111111111,831.4343434343434 879.111111111111,840.969696969697" fill="none" stroke="rgba(0,0,255,0.75)" stroke-width="11.327999999999996"/></g><g><polyline data-points="3.8888888888888893,-3.484848484848485 3.989898989898992,-3.5858585858585856 4.090909090909092,-3.6868686868686864 4.191919191919193,-3.7878787878787876 4.292929292929293,-3.8888888888888884 4.393939393939394,-3.98989898989899 4.494949494949497,-4.090909090909091 4.595959595959597,-4.191919191919193 4.595959595959597,-4.292929292929293 4.595959595959597,-4.393939393939394 4.595959595959597,-4.494949494949496 4.595959595959597,-4.595959595959596 4.595959595959597,-4.696969696969697 4.595959595959597,-4.7979797979797985 4.595959595959597,-4.898989898989899 4.595959595959597,-5.000000000000001" data-type="line" data-label="" points="879.111111111111,840.969696969697 888.6464646464647,850.5050505050505 898.181818181818,860.0404040404039 907.7171717171716,869.5757575757575 917.2525252525251,879.1111111111111 926.7878787878785,888.6464646464647 936.3232323232323,898.1818181818181 945.8585858585857,907.7171717171718 945.8585858585857,917.2525252525252 945.8585858585857,926.7878787878788 945.8585858585857,936.3232323232323 945.8585858585857,945.8585858585858 945.8585858585857,955.3939393939394 945.8585858585857,964.9292929292928 945.8585858585857,974.4646464646464 945.8585858585857,984" fill="none" stroke="rgba(255,0,0,0.75)" stroke-width="11.327999999999996"/></g><g><polyline data-points="0.7575757575757579,-5.000000000000001 0.6565656565656574,-4.898989898989899 0.5555555555555567,-4.7979797979797985 0.4545454545454551,-4.696969696969697 0.3535353535353544,-4.595959595959596 0.2525252525252529,-4.494949494949496 0.1515151515151522,-4.393939393939394 0.050505050505051545,-4.292929292929293 -0.05050505050505001,-4.191919191919193 -0.15151515151515066,-4.191919191919193 -0.2525252525252522,-4.191919191919193 -0.35353535353535287,-4.191919191919193 -0.4545454545454544,-4.191919191919193 -0.555555555555555,-4.191919191919193 -0.6565656565656557,-4.292929292929293 -0.7575757575757572,-4.393939393939394 -0.8585858585858579,-4.494949494949496 -0.9595959595959596,-4.393939393939394 -1.0606060606060603,-4.292929292929293 -1.1616161616161613,-4.191919191919193 -1.2626262626262625,-4.090909090909091 -1.363636363636363,-3.98989898989899 -1.4646464646464643,-3.8888888888888884" data-type="line" data-label="" points="583.5151515151515,984 573.9797979797979,974.4646464646464 564.4444444444445,964.9292929292928 554.9090909090909,955.3939393939394 545.3737373737374,945.8585858585858 535.8383838383838,936.3232323232323 526.3030303030303,926.7878787878788 516.7676767676768,917.2525252525252 507.2323232323232,907.7171717171718 497.69696969696975,907.7171717171718 488.16161616161617,907.7171717171718 478.62626262626264,907.7171717171718 469.09090909090907,907.7171717171718 459.55555555555554,907.7171717171718 450.0202020202021,917.2525252525252 440.4848484848485,926.7878787878788 430.949494949495,936.3232323232323 421.4141414141414,926.7878787878788 411.8787878787879,917.2525252525252 402.34343434343435,907.7171717171718 392.80808080808083,898.1818181818181 383.2727272727273,888.6464646464647 373.7373737373738,879.1111111111111" fill="none" stroke="rgba(255,0,0,0.75)" stroke-width="11.327999999999996"/></g><g><polyline data-points="-1.4646464646464643,-3.8888888888888884 -1.363636363636363,-3.7878787878787876 -1.363636363636363,-3.6868686868686864 -1.363636363636363,-3.5858585858585856 -1.363636363636363,-3.484848484848485 -1.363636363636363,-3.383838383838383 -1.363636363636363,-3.2828282828282824 -1.363636363636363,-3.1818181818181817 -1.363636363636363,-3.0808080808080804 -1.363636363636363,-2.9797979797979792 -1.2626262626262625,-2.8787878787878785 -1.1616161616161613,-2.7777777777777777 -1.0606060606060603,-2.6767676767676765 -0.9595959595959596,-2.5757575757575752 -0.8585858585858579,-2.474747474747474 -0.7575757575757572,-2.3737373737373733" data-type="line" data-label="" points="373.7373737373738,879.1111111111111 383.2727272727273,869.5757575757575 383.2727272727273,860.0404040404039 383.2727272727273,850.5050505050505 383.2727272727273,840.969696969697 383.2727272727273,831.4343434343434 383.2727272727273,821.8989898989898 383.2727272727273,812.3636363636363 383.2727272727273,802.8282828282828 383.2727272727273,793.2929292929292 392.80808080808083,783.7575757575758 402.34343434343435,774.2222222222222 411.8787878787879,764.6868686868687 421.4141414141414,755.1515151515151 430.949494949495,745.6161616161615 440.4848484848485,736.0808080808081" fill="none" stroke="rgba(0,0,255,0.75)" stroke-width="11.327999999999996"/></g><g><polyline data-points="-0.7575757575757572,-2.3737373737373733 -0.6565656565656557,-2.2727272727272725 -0.555555555555555,-2.1717171717171713 -0.4545454545454544,-2.07070707070707 -0.35353535353535287,-1.9696969696969693 -0.2525252525252522,-1.8686868686868683 -0.15151515151515066,-1.7676767676767675 -0.05050505050505001,-1.6666666666666665 0.050505050505051545,-1.5656565656565653 0.1515151515151522,-1.4646464646464643 0.2525252525252529,-1.363636363636363 0.3535353535353544,-1.2626262626262625 0.4545454545454551,-1.1616161616161613" data-type="line" data-label="" points="440.4848484848485,736.0808080808081 450.0202020202021,726.5454545454545 459.55555555555554,717.010101010101 469.09090909090907,707.4747474747475 478.62626262626264,697.939393939394 488.16161616161617,688.4040404040404 497.69696969696975,678.8686868686868 507.2323232323232,669.3333333333334 516.7676767676768,659.7979797979798 526.3030303030303,650.2626262626263 535.8383838383838,640.7272727272727 545.3737373737374,631.1919191919193 554.9090909090909,621.6565656565657" fill="none" stroke="rgba(255,0,0,0.75)" stroke-width="11.327999999999996"/></g><g><polyline data-points="0.4545454545454551,-1.1616161616161613 0.5555555555555567,-1.0606060606060603 0.6565656565656574,-0.9595959595959596 0.7575757575757579,-0.8585858585858579 0.8585858585858596,-0.7575757575757572 0.9595959595959602,-0.6565656565656557 1.0606060606060617,-0.555555555555555 1.1616161616161622,-0.4545454545454544 1.262626262626263,-0.35353535353535287 1.3636363636363644,-0.2525252525252522 1.4646464646464652,-0.15151515151515066 1.5656565656565666,-0.05050505050505001 1.6666666666666674,0.050505050505051545 1.767676767676768,0.1515151515151522 1.8686868686868696,0.2525252525252529 1.9696969696969702,0.3535353535353544 2.070707070707072,0.4545454545454551 2.1717171717171726,0.5555555555555567 2.2727272727272734,0.6565656565656574 2.373737373737375,0.7575757575757579 2.4747474747474754,0.8585858585858596 2.575757575757577,0.9595959595959602 2.676767676767678,1.0606060606060617 2.7777777777777786,1.1616161616161622 2.87878787878788,1.262626262626263 2.9797979797979806,1.3636363636363644 3.080808080808082,1.4646464646464652 3.181818181818183,1.5656565656565666 3.181818181818183,1.6666666666666674 3.181818181818183,1.767676767676768 3.181818181818183,1.8686868686868696 3.181818181818183,1.9696969696969702 3.181818181818183,2.070707070707072 3.181818181818183,2.1717171717171726 3.181818181818183,2.2727272727272734 3.181818181818183,2.373737373737375 3.181818181818183,2.4747474747474754 3.181818181818183,2.575757575757577 3.2828282828282833,2.676767676767678 3.383838383838384,2.7777777777777786 3.4848484848484866,2.87878787878788 3.5858585858585874,2.7777777777777786 3.6868686868686877,2.676767676767678 3.7878787878787885,2.575757575757577 3.8888888888888893,2.4747474747474754 3.989898989898992,2.373737373737375 4.090909090909092,2.2727272727272734 4.191919191919193,2.1717171717171726 4.292929292929293,2.1717171717171726 4.393939393939394,2.1717171717171726 4.494949494949497,2.1717171717171726 4.595959595959597,2.1717171717171726 4.696969696969697,2.1717171717171726 4.7979797979797985,2.1717171717171726 4.898989898989901,2.1717171717171726 5.000000000000002,2.1717171717171726" data-type="line" data-label="" points="554.9090909090909,621.6565656565657 564.4444444444445,612.1212121212121 573.9797979797979,602.5858585858587 583.5151515151515,593.0505050505051 593.0505050505051,583.5151515151516 602.5858585858585,573.979797979798 612.1212121212121,564.4444444444445 621.6565656565656,554.909090909091 631.1919191919192,545.3737373737374 640.7272727272727,535.838383838384 650.2626262626262,526.3030303030304 659.7979797979798,516.7676767676768 669.3333333333333,507.23232323232327 678.8686868686868,497.69696969696975 688.4040404040404,488.1616161616163 697.9393939393939,478.6262626262627 707.4747474747475,469.0909090909092 717.0101010101009,459.5555555555556 726.5454545454545,450.0202020202021 736.0808080808081,440.4848484848486 745.6161616161615,430.94949494949503 755.1515151515151,421.4141414141415 764.6868686868686,411.87878787878793 774.2222222222222,402.3434343434344 783.7575757575758,392.80808080808094 793.2929292929292,383.27272727272737 802.8282828282828,373.73737373737384 812.3636363636363,364.2020202020203 812.3636363636363,354.66666666666674 812.3636363636363,345.1313131313133 812.3636363636363,335.5959595959597 812.3636363636363,326.06060606060623 812.3636363636363,316.5252525252526 812.3636363636363,306.9898989898991 812.3636363636363,297.4545454545456 812.3636363636363,287.91919191919203 812.3636363636363,278.38383838383857 812.3636363636363,268.84848484848493 821.8989898989898,259.3131313131314 831.4343434343433,249.77777777777794 840.969696969697,240.24242424242436 850.5050505050505,249.77777777777794 860.0404040404039,259.3131313131314 869.5757575757575,268.84848484848493 879.111111111111,278.38383838383857 888.6464646464647,287.91919191919203 898.181818181818,297.4545454545456 907.7171717171716,306.9898989898991 917.2525252525251,306.9898989898991 926.7878787878785,306.9898989898991 936.3232323232323,306.9898989898991 945.8585858585857,306.9898989898991 955.3939393939393,306.9898989898991 964.9292929292927,306.9898989898991 974.4646464646464,306.9898989898991 984,306.9898989898991" fill="none" stroke="rgba(0,0,255,0.75)" stroke-width="11.327999999999996"/></g><g><polyline data-points="-4.090909090909091,-5.000000000000001 -3.98989898989899,-5.000000000000001 -3.8888888888888884,-5.000000000000001 -3.7878787878787876,-5.000000000000001 -3.6868686868686864,-5.000000000000001 -3.5858585858585856,-5.000000000000001 -3.484848484848485,-5.000000000000001 -3.383838383838383,-5.000000000000001 -3.2828282828282824,-5.000000000000001 -3.1818181818181817,-5.000000000000001 -3.0808080808080804,-5.000000000000001 -2.9797979797979792,-5.000000000000001 -2.8787878787878785,-5.000000000000001 -2.7777777777777777,-5.000000000000001 -2.6767676767676765,-5.000000000000001 -2.5757575757575752,-5.000000000000001 -2.474747474747474,-5.000000000000001 -2.3737373737373733,-5.000000000000001 -2.2727272727272725,-5.000000000000001 -2.1717171717171713,-5.000000000000001 -2.07070707070707,-5.000000000000001 -1.9696969696969693,-5.000000000000001 -1.8686868686868683,-4.898989898989899 -1.7676767676767675,-4.7979797979797985 -1.6666666666666665,-4.696969696969697 -1.5656565656565653,-4.595959595959596 -1.4646464646464643,-4.494949494949496 -1.363636363636363,-4.393939393939394 -1.2626262626262625,-4.292929292929293 -1.1616161616161613,-4.191919191919193 -1.0606060606060603,-4.090909090909091 -0.9595959595959596,-3.98989898989899 -0.8585858585858579,-3.8888888888888884 -0.7575757575757572,-3.7878787878787876 -0.7575757575757572,-3.6868686868686864 -0.7575757575757572,-3.5858585858585856 -0.7575757575757572,-3.484848484848485 -0.7575757575757572,-3.383838383838383 -0.7575757575757572,-3.2828282828282824" data-type="line" data-label="" points="125.81818181818193,984 135.35353535353545,984 144.88888888888903,984 154.42424242424255,984 163.95959595959607,984 173.4949494949496,984 183.03030303030312,984 192.5656565656567,984 202.10101010101022,984 211.63636363636374,984 221.17171717171726,984 230.70707070707084,984 240.2424242424243,984 249.77777777777783,984 259.3131313131314,984 268.84848484848493,984 278.38383838383845,984 287.91919191919203,984 297.4545454545455,984 306.9898989898991,984 316.5252525252526,984 326.0606060606061,984 335.59595959595964,974.4646464646464 345.13131313131316,964.9292929292928 354.6666666666667,955.3939393939394 364.2020202020202,945.8585858585858 373.7373737373738,936.3232323232323 383.2727272727273,926.7878787878788 392.80808080808083,917.2525252525252 402.34343434343435,907.7171717171718 411.8787878787879,898.1818181818181 421.4141414141414,888.6464646464647 430.949494949495,879.1111111111111 440.4848484848485,869.5757575757575 440.4848484848485,860.0404040404039 440.4848484848485,850.5050505050505 440.4848484848485,840.969696969697 440.4848484848485,831.4343434343434 440.4848484848485,821.8989898989898" fill="none" stroke="rgba(0,0,255,0.75)" stroke-width="11.327999999999996"/></g><g><polyline data-points="-0.7575757575757572,-3.2828282828282824 -0.6565656565656557,-3.383838383838383 -0.555555555555555,-3.484848484848485 -0.4545454545454544,-3.5858585858585856 -0.35353535353535287,-3.5858585858585856 -0.2525252525252522,-3.5858585858585856 -0.15151515151515066,-3.5858585858585856 -0.05050505050505001,-3.5858585858585856 0.050505050505051545,-3.5858585858585856 0.1515151515151522,-3.5858585858585856 0.2525252525252529,-3.5858585858585856 0.3535353535353544,-3.5858585858585856 0.4545454545454551,-3.5858585858585856 0.5555555555555567,-3.5858585858585856 0.6565656565656574,-3.5858585858585856 0.7575757575757579,-3.5858585858585856 0.8585858585858596,-3.5858585858585856 0.9595959595959602,-3.5858585858585856 1.0606060606060617,-3.5858585858585856 1.1616161616161622,-3.5858585858585856 1.262626262626263,-3.5858585858585856 1.3636363636363644,-3.5858585858585856 1.4646464646464652,-3.5858585858585856 1.5656565656565666,-3.5858585858585856 1.6666666666666674,-3.5858585858585856 1.767676767676768,-3.5858585858585856" data-type="line" data-label="" points="440.4848484848485,821.8989898989898 450.0202020202021,831.4343434343434 459.55555555555554,840.969696969697 469.09090909090907,850.5050505050505 478.62626262626264,850.5050505050505 488.16161616161617,850.5050505050505 497.69696969696975,850.5050505050505 507.2323232323232,850.5050505050505 516.7676767676768,850.5050505050505 526.3030303030303,850.5050505050505 535.8383838383838,850.5050505050505 545.3737373737374,850.5050505050505 554.9090909090909,850.5050505050505 564.4444444444445,850.5050505050505 573.9797979797979,850.5050505050505 583.5151515151515,850.5050505050505 593.0505050505051,850.5050505050505 602.5858585858585,850.5050505050505 612.1212121212121,850.5050505050505 621.6565656565656,850.5050505050505 631.1919191919192,850.5050505050505 640.7272727272727,850.5050505050505 650.2626262626262,850.5050505050505 659.7979797979798,850.5050505050505 669.3333333333333,850.5050505050505 678.8686868686868,850.5050505050505" fill="none" stroke="rgba(255,0,0,0.75)" stroke-width="11.327999999999996"/></g><g><polyline data-points="1.767676767676768,-3.5858585858585856 1.8686868686868696,-3.6868686868686864 1.9696969696969702,-3.7878787878787876 1.9696969696969702,-3.8888888888888884 1.9696969696969702,-3.98989898989899 1.9696969696969702,-4.090909090909091 1.9696969696969702,-4.191919191919193 1.9696969696969702,-4.292929292929293 1.9696969696969702,-4.393939393939394 1.9696969696969702,-4.494949494949496 1.9696969696969702,-4.595959595959596 1.9696969696969702,-4.696969696969697 1.9696969696969702,-4.7979797979797985 1.9696969696969702,-4.898989898989899 1.9696969696969702,-5.000000000000001" data-type="line" data-label="" points="678.8686868686868,850.5050505050505 688.4040404040404,860.0404040404039 697.9393939393939,869.5757575757575 697.9393939393939,879.1111111111111 697.9393939393939,888.6464646464647 697.9393939393939,898.1818181818181 697.9393939393939,907.7171717171718 697.9393939393939,917.2525252525252 697.9393939393939,926.7878787878788 697.9393939393939,936.3232323232323 697.9393939393939,945.8585858585858 697.9393939393939,955.3939393939394 697.9393939393939,964.9292929292928 697.9393939393939,974.4646464646464 697.9393939393939,984" fill="none" stroke="rgba(0,0,255,0.75)" stroke-width="11.327999999999996"/></g><g><polyline data-points="4.595959595959597,5.000000000000002 4.494949494949497,4.898989898989901 4.393939393939394,4.7979797979797985 4.292929292929293,4.696969696969697 4.292929292929293,4.595959595959597 4.292929292929293,4.494949494949497 4.292929292929293,4.393939393939394 4.292929292929293,4.292929292929293 4.292929292929293,4.191919191919193 4.292929292929293,4.090909090909092 4.292929292929293,3.989898989898992 4.191919191919193,3.8888888888888893 4.090909090909092,3.7878787878787885 3.989898989898992,3.6868686868686877 3.8888888888888893,3.5858585858585874 3.7878787878787885,3.4848484848484866 3.6868686868686877,3.383838383838384 3.5858585858585874,3.2828282828282833 3.4848484848484866,3.181818181818183 3.383838383838384,3.080808080808082 3.2828282828282833,2.9797979797979806 3.181818181818183,2.87878787878788 3.080808080808082,2.7777777777777786 2.9797979797979806,2.676767676767678 2.9797979797979806,2.575757575757577 2.9797979797979806,2.4747474747474754 2.9797979797979806,2.373737373737375 2.9797979797979806,2.2727272727272734 2.9797979797979806,2.1717171717171726 2.9797979797979806,2.070707070707072 2.9797979797979806,1.9696969696969702 2.9797979797979806,1.8686868686868696 2.87878787878788,1.767676767676768 2.7777777777777786,1.6666666666666674" data-type="line" data-label="" points="945.8585858585857,40.000000000000114 936.3232323232323,49.53535353535369 926.7878787878785,59.07070707070733 917.2525252525251,68.60606060606085 917.2525252525251,78.14141414141432 917.2525252525251,87.67676767676778 917.2525252525251,97.21212121212153 917.2525252525251,106.747474747475 917.2525252525251,116.28282828282846 917.2525252525251,125.81818181818198 917.2525252525251,135.35353535353545 907.7171717171716,144.88888888888908 898.181818181818,154.4242424242426 888.6464646464647,163.95959595959613 879.111111111111,173.4949494949496 869.5757575757575,183.03030303030312 860.0404040404039,192.56565656565675 850.5050505050505,202.10101010101027 840.969696969697,211.63636363636374 831.4343434343433,221.17171717171726 821.8989898989898,230.70707070707084 812.3636363636363,240.24242424242436 802.8282828282828,249.77777777777794 793.2929292929292,259.3131313131314 793.2929292929292,268.84848484848493 793.2929292929292,278.38383838383857 793.2929292929292,287.91919191919203 793.2929292929292,297.4545454545456 793.2929292929292,306.9898989898991 793.2929292929292,316.5252525252526 793.2929292929292,326.06060606060623 793.2929292929292,335.5959595959597 783.7575757575758,345.1313131313133 774.2222222222222,354.66666666666674" fill="none" stroke="rgba(0,0,255,0.75)" stroke-width="11.327999999999996"/></g><g><polyline data-points="2.7777777777777786,1.6666666666666674 2.87878787878788,1.5656565656565666 2.9797979797979806,1.4646464646464652 3.080808080808082,1.3636363636363644 3.181818181818183,1.262626262626263 3.2828282828282833,1.1616161616161622 3.383838383838384,1.0606060606060617 3.4848484848484866,0.9595959595959602 3.4848484848484866,0.8585858585858596 3.4848484848484866,0.7575757575757579 3.4848484848484866,0.6565656565656574 3.4848484848484866,0.5555555555555567 3.4848484848484866,0.4545454545454551 3.4848484848484866,0.3535353535353544 3.4848484848484866,0.2525252525252529" data-type="line" data-label="" points="774.2222222222222,354.66666666666674 783.7575757575758,364.2020202020203 793.2929292929292,373.73737373737384 802.8282828282828,383.27272727272737 812.3636363636363,392.80808080808094 821.8989898989898,402.3434343434344 831.4343434343433,411.87878787878793 840.969696969697,421.4141414141415 840.969696969697,430.94949494949503 840.969696969697,440.4848484848486 840.969696969697,450.0202020202021 840.969696969697,459.5555555555556 840.969696969697,469.0909090909092 840.969696969697,478.6262626262627 840.969696969697,488.1616161616163" fill="none" stroke="rgba(255,0,0,0.75)" stroke-width="11.327999999999996"/></g><g><polyline data-points="3.4848484848484866,0.2525252525252529 3.5858585858585874,0.1515151515151522 3.5858585858585874,0.050505050505051545 3.5858585858585874,-0.05050505050505001 3.5858585858585874,-0.15151515151515066 3.5858585858585874,-0.2525252525252522 3.5858585858585874,-0.35353535353535287 3.5858585858585874,-0.4545454545454544 3.5858585858585874,-0.555555555555555 3.5858585858585874,-0.6565656565656557 3.5858585858585874,-0.7575757575757572 3.5858585858585874,-0.8585858585858579 3.5858585858585874,-0.9595959595959596 3.5858585858585874,-1.0606060606060603 3.5858585858585874,-1.1616161616161613 3.5858585858585874,-1.2626262626262625 3.5858585858585874,-1.363636363636363 3.5858585858585874,-1.4646464646464643 3.5858585858585874,-1.5656565656565653 3.5858585858585874,-1.6666666666666665 3.5858585858585874,-1.7676767676767675 3.5858585858585874,-1.8686868686868683 3.5858585858585874,-1.9696969696969693 3.5858585858585874,-2.07070707070707 3.5858585858585874,-2.1717171717171713 3.5858585858585874,-2.2727272727272725 3.5858585858585874,-2.3737373737373733 3.5858585858585874,-2.474747474747474 3.5858585858585874,-2.5757575757575752 3.5858585858585874,-2.6767676767676765 3.5858585858585874,-2.7777777777777777 3.5858585858585874,-2.8787878787878785 3.5858585858585874,-2.9797979797979792 3.5858585858585874,-3.0808080808080804 3.5858585858585874,-3.1818181818181817 3.5858585858585874,-3.2828282828282824 3.5858585858585874,-3.383838383838383 3.5858585858585874,-3.484848484848485 3.5858585858585874,-3.5858585858585856 3.5858585858585874,-3.6868686868686864 3.5858585858585874,-3.7878787878787876 3.5858585858585874,-3.8888888888888884 3.5858585858585874,-3.98989898989899 3.6868686868686877,-4.090909090909091 3.7878787878787885,-4.191919191919193 3.8888888888888893,-4.292929292929293 3.989898989898992,-4.393939393939394 4.090909090909092,-4.494949494949496 4.191919191919193,-4.595959595959596 4.292929292929293,-4.696969696969697 4.292929292929293,-4.7979797979797985 4.292929292929293,-4.898989898989899 4.292929292929293,-5.000000000000001" data-type="line" data-label="" points="840.969696969697,488.1616161616163 850.5050505050505,497.69696969696975 850.5050505050505,507.23232323232327 850.5050505050505,516.7676767676768 850.5050505050505,526.3030303030304 850.5050505050505,535.838383838384 850.5050505050505,545.3737373737374 850.5050505050505,554.909090909091 850.5050505050505,564.4444444444445 850.5050505050505,573.979797979798 850.5050505050505,583.5151515151516 850.5050505050505,593.0505050505051 850.5050505050505,602.5858585858587 850.5050505050505,612.1212121212121 850.5050505050505,621.6565656565657 850.5050505050505,631.1919191919193 850.5050505050505,640.7272727272727 850.5050505050505,650.2626262626263 850.5050505050505,659.7979797979798 850.5050505050505,669.3333333333334 850.5050505050505,678.8686868686868 850.5050505050505,688.4040404040404 850.5050505050505,697.939393939394 850.5050505050505,707.4747474747475 850.5050505050505,717.010101010101 850.5050505050505,726.5454545454545 850.5050505050505,736.0808080808081 850.5050505050505,745.6161616161615 850.5050505050505,755.1515151515151 850.5050505050505,764.6868686868687 850.5050505050505,774.2222222222222 850.5050505050505,783.7575757575758 850.5050505050505,793.2929292929292 850.5050505050505,802.8282828282828 850.5050505050505,812.3636363636363 850.5050505050505,821.8989898989898 850.5050505050505,831.4343434343434 850.5050505050505,840.969696969697 850.5050505050505,850.5050505050505 850.5050505050505,860.0404040404039 850.5050505050505,869.5757575757575 850.5050505050505,879.1111111111111 850.5050505050505,888.6464646464647 860.0404040404039,898.1818181818181 869.5757575757575,907.7171717171718 879.111111111111,917.2525252525252 888.6464646464647,926.7878787878788 898.181818181818,936.3232323232323 907.7171717171716,945.8585858585858 917.2525252525251,955.3939393939394 917.2525252525251,964.9292929292928 917.2525252525251,974.4646464646464 917.2525252525251,984" fill="none" stroke="rgba(0,0,255,0.75)" stroke-width="11.327999999999996"/></g><g><polyline data-points="-1.5656565656565653,5.000000000000002 -1.4646464646464643,5.000000000000002 -1.363636363636363,4.898989898989901 -1.2626262626262625,4.7979797979797985 -1.1616161616161613,4.696969696969697 -1.0606060606060603,4.595959595959597 -0.9595959595959596,4.494949494949497 -0.8585858585858579,4.393939393939394 -0.7575757575757572,4.292929292929293 -0.6565656565656557,4.292929292929293 -0.555555555555555,4.292929292929293 -0.4545454545454544,4.292929292929293 -0.35353535353535287,4.292929292929293 -0.2525252525252522,4.191919191919193 -0.15151515151515066,4.090909090909092 -0.05050505050505001,3.989898989898992 0.050505050505051545,3.8888888888888893 0.1515151515151522,3.7878787878787885 0.1515151515151522,3.6868686868686877 0.1515151515151522,3.5858585858585874 0.1515151515151522,3.4848484848484866 0.1515151515151522,3.383838383838384 0.1515151515151522,3.2828282828282833 0.1515151515151522,3.181818181818183 0.1515151515151522,3.080808080808082 0.1515151515151522,2.9797979797979806 0.1515151515151522,2.87878787878788 0.1515151515151522,2.7777777777777786 0.1515151515151522,2.676767676767678 0.1515151515151522,2.575757575757577 0.1515151515151522,2.4747474747474754 0.1515151515151522,2.373737373737375 0.1515151515151522,2.2727272727272734 0.1515151515151522,2.1717171717171726 0.1515151515151522,2.070707070707072 0.1515151515151522,1.9696969696969702 0.1515151515151522,1.8686868686868696 0.1515151515151522,1.767676767676768 0.1515151515151522,1.6666666666666674 0.1515151515151522,1.5656565656565666 0.1515151515151522,1.4646464646464652 0.1515151515151522,1.3636363636363644 0.1515151515151522,1.262626262626263 0.1515151515151522,1.1616161616161622 0.1515151515151522,1.0606060606060617 0.1515151515151522,0.9595959595959602 0.1515151515151522,0.8585858585858596 0.1515151515151522,0.7575757575757579 0.1515151515151522,0.6565656565656574 0.1515151515151522,0.5555555555555567 0.1515151515151522,0.4545454545454551 0.1515151515151522,0.3535353535353544 0.1515151515151522,0.2525252525252529 0.1515151515151522,0.1515151515151522 0.1515151515151522,0.050505050505051545 0.1515151515151522,-0.05050505050505001 0.1515151515151522,-0.15151515151515066 0.1515151515151522,-0.2525252525252522 0.1515151515151522,-0.35353535353535287 0.1515151515151522,-0.4545454545454544 0.1515151515151522,-0.555555555555555 0.1515151515151522,-0.6565656565656557 0.1515151515151522,-0.7575757575757572 0.1515151515151522,-0.8585858585858579 0.1515151515151522,-0.9595959595959596 0.1515151515151522,-1.0606060606060603 0.1515151515151522,-1.1616161616161613 0.2525252525252529,-1.2626262626262625 0.3535353535353544,-1.363636363636363 0.4545454545454551,-1.4646464646464643 0.5555555555555567,-1.5656565656565653 0.6565656565656574,-1.6666666666666665 0.7575757575757579,-1.7676767676767675 0.8585858585858596,-1.8686868686868683 0.9595959595959602,-1.9696969696969693 0.9595959595959602,-2.07070707070707 0.9595959595959602,-2.1717171717171713 0.9595959595959602,-2.2727272727272725 0.9595959595959602,-2.3737373737373733 0.9595959595959602,-2.474747474747474 0.9595959595959602,-2.5757575757575752 0.9595959595959602,-2.6767676767676765 0.9595959595959602,-2.7777777777777777 0.9595959595959602,-2.8787878787878785 0.9595959595959602,-2.9797979797979792 0.9595959595959602,-3.0808080808080804 0.9595959595959602,-3.1818181818181817 0.9595959595959602,-3.2828282828282824 0.9595959595959602,-3.383838383838383 0.9595959595959602,-3.484848484848485 0.9595959595959602,-3.5858585858585856 0.9595959595959602,-3.6868686868686864 0.9595959595959602,-3.7878787878787876 0.9595959595959602,-3.8888888888888884 0.9595959595959602,-3.98989898989899" data-type="line" data-label="" points="364.2020202020202,40.000000000000114 373.7373737373738,40.000000000000114 383.2727272727273,49.53535353535369 392.80808080808083,59.07070707070733 402.34343434343435,68.60606060606085 411.8787878787879,78.14141414141432 421.4141414141414,87.67676767676778 430.949494949495,97.21212121212153 440.4848484848485,106.747474747475 450.0202020202021,106.747474747475 459.55555555555554,106.747474747475 469.09090909090907,106.747474747475 478.62626262626264,106.747474747475 488.16161616161617,116.28282828282846 497.69696969696975,125.81818181818198 507.2323232323232,135.35353535353545 516.7676767676768,144.88888888888908 526.3030303030303,154.4242424242426 526.3030303030303,163.95959595959613 526.3030303030303,173.4949494949496 526.3030303030303,183.03030303030312 526.3030303030303,192.56565656565675 526.3030303030303,202.10101010101027 526.3030303030303,211.63636363636374 526.3030303030303,221.17171717171726 526.3030303030303,230.70707070707084 526.3030303030303,240.24242424242436 526.3030303030303,249.77777777777794 526.3030303030303,259.3131313131314 526.3030303030303,268.84848484848493 526.3030303030303,278.38383838383857 526.3030303030303,287.91919191919203 526.3030303030303,297.4545454545456 526.3030303030303,306.9898989898991 526.3030303030303,316.5252525252526 526.3030303030303,326.06060606060623 526.3030303030303,335.5959595959597 526.3030303030303,345.1313131313133 526.3030303030303,354.66666666666674 526.3030303030303,364.2020202020203 526.3030303030303,373.73737373737384 526.3030303030303,383.27272727272737 526.3030303030303,392.80808080808094 526.3030303030303,402.3434343434344 526.3030303030303,411.87878787878793 526.3030303030303,421.4141414141415 526.3030303030303,430.94949494949503 526.3030303030303,440.4848484848486 526.3030303030303,450.0202020202021 526.3030303030303,459.5555555555556 526.3030303030303,469.0909090909092 526.3030303030303,478.6262626262627 526.3030303030303,488.1616161616163 526.3030303030303,497.69696969696975 526.3030303030303,507.23232323232327 526.3030303030303,516.7676767676768 526.3030303030303,526.3030303030304 526.3030303030303,535.838383838384 526.3030303030303,545.3737373737374 526.3030303030303,554.909090909091 526.3030303030303,564.4444444444445 526.3030303030303,573.979797979798 526.3030303030303,583.5151515151516 526.3030303030303,593.0505050505051 526.3030303030303,602.5858585858587 526.3030303030303,612.1212121212121 526.3030303030303,621.6565656565657 535.8383838383838,631.1919191919193 545.3737373737374,640.7272727272727 554.9090909090909,650.2626262626263 564.4444444444445,659.7979797979798 573.9797979797979,669.3333333333334 583.5151515151515,678.8686868686868 593.0505050505051,688.4040404040404 602.5858585858585,697.939393939394 602.5858585858585,707.4747474747475 602.5858585858585,717.010101010101 602.5858585858585,726.5454545454545 602.5858585858585,736.0808080808081 602.5858585858585,745.6161616161615 602.5858585858585,755.1515151515151 602.5858585858585,764.6868686868687 602.5858585858585,774.2222222222222 602.5858585858585,783.7575757575758 602.5858585858585,793.2929292929292 602.5858585858585,802.8282828282828 602.5858585858585,812.3636363636363 602.5858585858585,821.8989898989898 602.5858585858585,831.4343434343434 602.5858585858585,840.969696969697 602.5858585858585,850.5050505050505 602.5858585858585,860.0404040404039 602.5858585858585,869.5757575757575 602.5858585858585,879.1111111111111 602.5858585858585,888.6464646464647" fill="none" stroke="rgba(0,0,255,0.75)" stroke-width="11.327999999999996"/></g><g><polyline data-points="0.9595959595959602,-3.98989898989899 1.0606060606060617,-4.090909090909091 1.0606060606060617,-4.191919191919193 1.0606060606060617,-4.292929292929293 1.0606060606060617,-4.393939393939394 1.0606060606060617,-4.494949494949496 1.0606060606060617,-4.595959595959596 1.0606060606060617,-4.696969696969697 1.0606060606060617,-4.7979797979797985 1.0606060606060617,-4.898989898989899 1.0606060606060617,-5.000000000000001" data-type="line" data-label="" points="602.5858585858585,888.6464646464647 612.1212121212121,898.1818181818181 612.1212121212121,907.7171717171718 612.1212121212121,917.2525252525252 612.1212121212121,926.7878787878788 612.1212121212121,936.3232323232323 612.1212121212121,945.8585858585858 612.1212121212121,955.3939393939394 612.1212121212121,964.9292929292928 612.1212121212121,974.4646464646464 612.1212121212121,984" fill="none" stroke="rgba(255,0,0,0.75)" stroke-width="11.327999999999996"/></g><g><polyline data-points="-5.000000000000001,0.4545454545454551 -5.000000000000001,0.3535353535353544 -4.898989898989899,0.2525252525252529 -4.7979797979797985,0.1515151515151522 -4.696969696969697,0.050505050505051545 -4.595959595959596,-0.05050505050505001 -4.494949494949496,-0.15151515151515066 -4.393939393939394,-0.2525252525252522 -4.292929292929293,-0.35353535353535287 -4.191919191919193,-0.4545454545454544 -4.090909090909091,-0.555555555555555 -3.98989898989899,-0.6565656565656557 -3.8888888888888884,-0.7575757575757572 -3.7878787878787876,-0.8585858585858579 -3.6868686868686864,-0.9595959595959596 -3.5858585858585856,-1.0606060606060603 -3.484848484848485,-1.1616161616161613 -3.383838383838383,-1.2626262626262625 -3.2828282828282824,-1.363636363636363 -3.1818181818181817,-1.4646464646464643 -3.0808080808080804,-1.5656565656565653 -2.9797979797979792,-1.6666666666666665 -2.8787878787878785,-1.7676767676767675 -2.7777777777777777,-1.8686868686868683 -2.6767676767676765,-1.9696969696969693 -2.5757575757575752,-2.07070707070707 -2.474747474747474,-2.1717171717171713" data-type="line" data-label="" points="40.00000000000006,469.0909090909092 40.00000000000006,478.6262626262627 49.53535353535369,488.1616161616163 59.07070707070716,497.69696969696975 68.60606060606068,507.23232323232327 78.14141414141426,516.7676767676768 87.67676767676772,526.3030303030304 97.21212121212136,535.838383838384 106.74747474747483,545.3737373737374 116.28282828282829,554.909090909091 125.81818181818193,564.4444444444445 135.35353535353545,573.979797979798 144.88888888888903,583.5151515151516 154.42424242424255,593.0505050505051 163.95959595959607,602.5858585858587 173.4949494949496,612.1212121212121 183.03030303030312,621.6565656565657 192.5656565656567,631.1919191919193 202.10101010101022,640.7272727272727 211.63636363636374,650.2626262626263 221.17171717171726,659.7979797979798 230.70707070707084,669.3333333333334 240.2424242424243,678.8686868686868 249.77777777777783,688.4040404040404 259.3131313131314,697.939393939394 268.84848484848493,707.4747474747475 278.38383838383845,717.010101010101" fill="none" stroke="rgba(0,0,255,0.75)" stroke-width="11.327999999999996"/></g><g><polyline data-points="-2.474747474747474,-2.1717171717171713 -2.3737373737373733,-2.2727272727272725 -2.2727272727272725,-2.3737373737373733 -2.1717171717171713,-2.474747474747474 -2.07070707070707,-2.5757575757575752 -1.9696969696969693,-2.6767676767676765 -1.8686868686868683,-2.7777777777777777 -1.7676767676767675,-2.8787878787878785 -1.6666666666666665,-2.9797979797979792 -1.5656565656565653,-2.8787878787878785 -1.4646464646464643,-2.8787878787878785 -1.363636363636363,-2.8787878787878785 -1.2626262626262625,-2.8787878787878785 -1.1616161616161613,-2.8787878787878785 -1.0606060606060603,-2.8787878787878785 -0.9595959595959596,-2.9797979797979792 -0.8585858585858579,-2.9797979797979792 -0.7575757575757572,-2.9797979797979792 -0.6565656565656557,-3.0808080808080804 -0.555555555555555,-3.1818181818181817 -0.4545454545454544,-3.2828282828282824 -0.35353535353535287,-3.2828282828282824 -0.2525252525252522,-3.2828282828282824 -0.15151515151515066,-3.2828282828282824 -0.05050505050505001,-3.2828282828282824 0.050505050505051545,-3.2828282828282824 0.1515151515151522,-3.2828282828282824 0.2525252525252529,-3.2828282828282824 0.3535353535353544,-3.2828282828282824 0.4545454545454551,-3.2828282828282824 0.5555555555555567,-3.2828282828282824 0.6565656565656574,-3.2828282828282824 0.7575757575757579,-3.2828282828282824 0.8585858585858596,-3.2828282828282824 0.9595959595959602,-3.2828282828282824 1.0606060606060617,-3.2828282828282824 1.1616161616161622,-3.2828282828282824 1.262626262626263,-3.2828282828282824 1.3636363636363644,-3.2828282828282824 1.4646464646464652,-3.2828282828282824 1.5656565656565666,-3.2828282828282824 1.6666666666666674,-3.2828282828282824 1.767676767676768,-3.2828282828282824 1.8686868686868696,-3.383838383838383 1.9696969696969702,-3.484848484848485 2.070707070707072,-3.5858585858585856 2.1717171717171726,-3.6868686868686864 2.2727272727272734,-3.7878787878787876 2.373737373737375,-3.8888888888888884 2.4747474747474754,-3.8888888888888884 2.575757575757577,-3.8888888888888884 2.676767676767678,-3.8888888888888884 2.7777777777777786,-3.8888888888888884 2.87878787878788,-3.8888888888888884 2.9797979797979806,-3.8888888888888884 3.080808080808082,-3.8888888888888884 3.181818181818183,-3.8888888888888884 3.2828282828282833,-3.8888888888888884 3.383838383838384,-3.8888888888888884 3.4848484848484866,-3.8888888888888884 3.5858585858585874,-3.8888888888888884 3.6868686868686877,-3.8888888888888884 3.7878787878787885,-3.8888888888888884 3.8888888888888893,-3.98989898989899" data-type="line" data-label="" points="278.38383838383845,717.010101010101 287.91919191919203,726.5454545454545 297.4545454545455,736.0808080808081 306.9898989898991,745.6161616161615 316.5252525252526,755.1515151515151 326.0606060606061,764.6868686868687 335.59595959595964,774.2222222222222 345.13131313131316,783.7575757575758 354.6666666666667,793.2929292929292 364.2020202020202,783.7575757575758 373.7373737373738,783.7575757575758 383.2727272727273,783.7575757575758 392.80808080808083,783.7575757575758 402.34343434343435,783.7575757575758 411.8787878787879,783.7575757575758 421.4141414141414,793.2929292929292 430.949494949495,793.2929292929292 440.4848484848485,793.2929292929292 450.0202020202021,802.8282828282828 459.55555555555554,812.3636363636363 469.09090909090907,821.8989898989898 478.62626262626264,821.8989898989898 488.16161616161617,821.8989898989898 497.69696969696975,821.8989898989898 507.2323232323232,821.8989898989898 516.7676767676768,821.8989898989898 526.3030303030303,821.8989898989898 535.8383838383838,821.8989898989898 545.3737373737374,821.8989898989898 554.9090909090909,821.8989898989898 564.4444444444445,821.8989898989898 573.9797979797979,821.8989898989898 583.5151515151515,821.8989898989898 593.0505050505051,821.8989898989898 602.5858585858585,821.8989898989898 612.1212121212121,821.8989898989898 621.6565656565656,821.8989898989898 631.1919191919192,821.8989898989898 640.7272727272727,821.8989898989898 650.2626262626262,821.8989898989898 659.7979797979798,821.8989898989898 669.3333333333333,821.8989898989898 678.8686868686868,821.8989898989898 688.4040404040404,831.4343434343434 697.9393939393939,840.969696969697 707.4747474747475,850.5050505050505 717.0101010101009,860.0404040404039 726.5454545454545,869.5757575757575 736.0808080808081,879.1111111111111 745.6161616161615,879.1111111111111 755.1515151515151,879.1111111111111 764.6868686868686,879.1111111111111 774.2222222222222,879.1111111111111 783.7575757575758,879.1111111111111 793.2929292929292,879.1111111111111 802.8282828282828,879.1111111111111 812.3636363636363,879.1111111111111 821.8989898989898,879.1111111111111 831.4343434343433,879.1111111111111 840.969696969697,879.1111111111111 850.5050505050505,879.1111111111111 860.0404040404039,879.1111111111111 869.5757575757575,879.1111111111111 879.111111111111,888.6464646464647" fill="none" stroke="rgba(255,0,0,0.75)" stroke-width="11.327999999999996"/></g><g><polyline data-points="3.8888888888888893,-3.98989898989899 3.8888888888888893,-4.090909090909091 3.989898989898992,-4.191919191919193 4.090909090909092,-4.292929292929293 4.191919191919193,-4.393939393939394 4.292929292929293,-4.494949494949496 4.393939393939394,-4.595959595959596 4.494949494949497,-4.595959595959596 4.595959595959597,-4.595959595959596 4.696969696969697,-4.595959595959596 4.7979797979797985,-4.595959595959596 4.898989898989901,-4.595959595959596 5.000000000000002,-4.494949494949496" data-type="line" data-label="" points="879.111111111111,888.6464646464647 879.111111111111,898.1818181818181 888.6464646464647,907.7171717171718 898.181818181818,917.2525252525252 907.7171717171716,926.7878787878788 917.2525252525251,936.3232323232323 926.7878787878785,945.8585858585858 936.3232323232323,945.8585858585858 945.8585858585857,945.8585858585858 955.3939393939393,945.8585858585858 964.9292929292927,945.8585858585858 974.4646464646464,945.8585858585858 984,936.3232323232323" fill="none" stroke="rgba(0,0,255,0.75)" stroke-width="11.327999999999996"/></g><g><rect data-type="rect" data-label="" data-x="0" data-y="0" x="40.000000000000114" y="40.000000000000284" width="943.9999999999997" height="943.9999999999998" fill="none" stroke="gray" stroke-width="0.010593220338983056"/></g><g><rect data-type="rect" data-label="" data-x="0" data-y="0" x="40.000000000000114" y="40.000000000000284" width="943.9999999999997" height="943.9999999999998" fill="none" stroke="rgba(15, 23, 42, 0.8)" stroke-width="0.010593220338983056"/></g><circle data-type="circle" data-label="" data-x="-0.35353535353535287" data-y="3.989898989898992" cx="478.62626262626264" cy="135.35353535353545" r="14.159999999999995" fill="rgba(0,0,0,0.3)" stroke="black" stroke-width="0.010593220338983056"/><circle data-type="circle" data-label="" data-x="-0.7575757575757572" data-y="3.4848484848484866" cx="440.4848484848485" cy="183.03030303030312" r="14.159999999999995" fill="rgba(0,0,0,0.3)" stroke="black" stroke-width="0.010593220338983056"/><circle data-type="circle" data-label="" data-x="-3.98989898989899" data-y="-1.0606060606060603" cx="135.35353535353545" cy="612.1212121212121" r="14.159999999999995" fill="rgba(0,0,0,0.3)" stroke="black" stroke-width="0.010593220338983056"/><circle data-type="circle" data-label="" data-x="3.4848484848484866" data-y="2.575757575757577" cx="840.969696969697" cy="268.84848484848493" r="14.159999999999995" fill="rgba(0,0,0,0.3)" stroke="black" stroke-width="0.010593220338983056"/><circle data-type="circle" data-label="" data-x="3.8888888888888893" data-y="-3.484848484848485" cx="879.111111111111" cy="840.969696969697" r="14.159999999999995" fill="rgba(0,0,0,0.3)" stroke="black" stroke-width="0.010593220338983056"/><circle data-type="circle" data-label="" data-x="-1.4646464646464643" data-y="-3.8888888888888884" cx="373.7373737373738" cy="879.1111111111111" r="14.159999999999995" fill="rgba(0,0,0,0.3)" stroke="black" stroke-width="0.010593220338983056"/><circle data-type="circle" data-label="" data-x="-0.7575757575757572" data-y="-2.3737373737373733" cx="440.4848484848485" cy="736.0808080808081" r="14.159999999999995" fill="rgba(0,0,0,0.3)" stroke="black" stroke-width="0.010593220338983056"/><circle data-type="circle" data-label="" data-x="0.4545454545454551" data-y="-1.1616161616161613" cx="554.9090909090909" cy="621.6565656565657" r="14.159999999999995" fill="rgba(0,0,0,0.3)" stroke="black" stroke-width="0.010593220338983056"/><circle data-type="circle" data-label="" data-x="-0.7575757575757572" data-y="-3.2828282828282824" cx="440.4848484848485" cy="821.8989898989898" r="14.159999999999995" fill="rgba(0,0,0,0.3)" stroke="black" stroke-width="0.010593220338983056"/><circle data-type="circle" data-label="" data-x="1.767676767676768" data-y="-3.5858585858585856" cx="678.8686868686868" cy="850.5050505050505" r="14.159999999999995" fill="rgba(0,0,0,0.3)" stroke="black" stroke-width="0.010593220338983056"/><circle data-type="circle" data-label="" data-x="2.7777777777777786" data-y="1.6666666666666674" cx="774.2222222222222" cy="354.66666666666674" r="14.159999999999995" fill="rgba(0,0,0,0.3)" stroke="black" stroke-width="0.010593220338983056"/><circle data-type="circle" data-label="" data-x="3.4848484848484866" data-y="0.2525252525252529" cx="840.969696969697" cy="488.1616161616163" r="14.159999999999995" fill="rgba(0,0,0,0.3)" stroke="black" stroke-width="0.010593220338983056"/><circle data-type="circle" data-label="" data-x="0.9595959595959602" data-y="-3.98989898989899" cx="602.5858585858585" cy="888.6464646464647" r="14.159999999999995" fill="rgba(0,0,0,0.3)" stroke="black" stroke-width="0.010593220338983056"/><circle data-type="circle" data-label="" data-x="-2.474747474747474" data-y="-2.1717171717171713" cx="278.38383838383845" cy="717.010101010101" r="14.159999999999995" fill="rgba(0,0,0,0.3)" stroke="black" stroke-width="0.010593220338983056"/><circle data-type="circle" data-label="" data-x="3.8888888888888893" data-y="-3.98989898989899" cx="879.111111111111" cy="888.6464646464647" r="14.159999999999995" fill="rgba(0,0,0,0.3)" stroke="black" stroke-width="0.010593220338983056"/><g id="crosshair" style="display: none"><line id="crosshair-h" y1="0" y2="1024" stroke="#666" stroke-width="0.5"/><line id="crosshair-v" x1="0" x2="1024" stroke="#666" stroke-width="0.5"/><text id="coordinates" font-family="monospace" font-size="12" fill="#666"></text></g><script><![CDATA[
              document.currentScript.parentElement.addEventListener('mousemove', (e) => {
                const svg = e.currentTarget;
                const rect = svg.getBoundingClientRect();
                const x = e.clientX - rect.left;
                const y = e.clientY - rect.top;
                const crosshair = svg.getElementById('crosshair');
                const h = svg.getElementById('crosshair-h');
                const v = svg.getElementById('crosshair-v');
                const coords = svg.getElementById('coordinates');
                
                crosshair.style.display = 'block';
                h.setAttribute('x1', '0');
                h.setAttribute('x2', '1024');
                h.setAttribute('y1', y);
                h.setAttribute('y2', y);
                v.setAttribute('x1', x);
                v.setAttribute('x2', x);
                v.setAttribute('y1', '0');
                v.setAttribute('y2', '1024');

                // Calculate real coordinates using inverse transformation
                const matrix = {"a":94.39999999999996,"c":0,"e":511.99999999999994,"b":0,"d":-94.39999999999996,"f":512.0000000000001};
                // Manually invert and apply the affine transform
                // Since we only use translate and scale, we can directly compute:
                // x' = (x - tx) / sx
                // y' = (y - ty) / sy
                const sx = matrix.a;
                const sy = matrix.d;
                const tx = matrix.e; 
                const ty = matrix.f;
                const realPoint = {
                  x: (x - tx) / sx,
                  y: (y - ty) / sy // Flip y back since we used negative scale
                }
                
                coords.textContent = `(${realPoint.x.toFixed(2)}, ${realPoint.y.toFixed(2)})`;
                coords.setAttribute('x', (x + 5).toString());
                coords.setAttribute('y', (y - 5).toString());
              });
              document.currentScript.parentElement.addEventListener('mouseleave', () => {
                document.currentScript.parentElement.getElementById('crosshair').style.display = 'none';
              });
            ]]></script></svg>