<svg width="1024" height="1024" viewBox="0 0 1024 1024" xmlns="http://www.w3.org/2000/svg"><rect width="100%" height="100%" fill="white"/><g><circle data-type="point" data-label="conn_000" data-x="-2.68" data-y="-5" cx="259.00800000000004" cy="984" r="14.16" fill="blue"/></g><g><circle data-type="point" data-label="conn_000" data-x="2.1" data-y="5" cx="710.2399999999999" cy="40.000000000000284" r="14.16" fill="blue"/></g><g><circle data-type="point" data-label="conn_001" data-x="1.52" data-y="5" cx="655.4879999999998" cy="40.000000000000284" r="14.16" fill="blue"/></g><g><circle data-type="point" data-label="conn_001" data-x="5" data-y="-4.14" cx="983.9999999999998" cy="902.8159999999999" r="14.16" fill="red"/></g><g><circle data-type="point" data-label="conn_002" data-x="-0.7000000000000001" data-y="-5" cx="445.91999999999996" cy="984" r="14.16" fill="blue"/></g><g><circle data-type="point" data-label="conn_002" data-x="-0.18" data-y="5" cx="495.0079999999999" cy="40.000000000000284" r="14.16" fill="red"/></g><g><circle data-type="point" data-label="conn_003" data-x="5" data-y="-2.4" cx="983.9999999999998" cy="738.5600000000001" r="14.16" fill="red"/></g><g><circle data-type="point" data-label="conn_003" data-x="-5" data-y="-4.58" cx="40.000000000000114" cy="944.352" r="14.16" fill="blue"/></g><g><circle data-type="point" data-label="conn_004" data-x="-1.7" data-y="-5" cx="351.52" cy="984" r="14.16" fill="blue"/></g><g><circle data-type="point" data-label="conn_004" data-x="5" data-y="3.36" cx="983.9999999999998" cy="194.81600000000026" r="14.16" fill="red"/></g><g><circle data-type="point" data-label="conn_005" data-x="5" data-y="-3.02" cx="983.9999999999998" cy="797.088" r="14.16" fill="blue"/></g><g><circle data-type="point" data-label="conn_005" data-x="-5" data-y="2.7" cx="40.000000000000114" cy="257.12000000000023" r="14.16" fill="red"/></g><g><circle data-type="point" data-label="conn_006" data-x="-4.8" data-y="-5" cx="58.88000000000011" cy="984" r="14.16" fill="red"/></g><g><circle data-type="point" data-label="conn_006" data-x="1.72" data-y="-5" cx="674.3679999999999" cy="984" r="14.16" fill="blue"/></g><g><circle data-type="point" data-label="conn_007" data-x="5" data-y="1.44" cx="983.9999999999998" cy="376.0640000000002" r="14.16" fill="blue"/></g><g><circle data-type="point" data-label="conn_007" data-x="-5" data-y="0.78" cx="40.000000000000114" cy="438.36800000000017" r="14.16" fill="blue"/></g><g><circle data-type="point" data-label="conn_008" data-x="-0.32" data-y="5" cx="481.792" cy="40.000000000000284" r="14.16" fill="red"/></g><g><circle data-type="point" data-label="conn_008" data-x="4.88" data-y="-5" cx="972.6719999999998" cy="984" r="14.16" fill="red"/></g><g><polyline data-points="1.5656565656565666,5.000000000000002 1.6666666666666674,4.898989898989901 1.767676767676768,4.7979797979797985 1.8686868686868696,4.696969696969697 1.9696969696969702,4.595959595959597 2.070707070707072,4.494949494949497 2.1717171717171726,4.393939393939394 2.2727272727272734,4.292929292929293 2.373737373737375,4.191919191919193 2.4747474747474754,4.090909090909092 2.575757575757577,3.989898989898992 2.676767676767678,3.8888888888888893 2.7777777777777786,3.7878787878787885 2.87878787878788,3.6868686868686877 2.9797979797979806,3.5858585858585874 3.080808080808082,3.4848484848484866 3.181818181818183,3.383838383838384 3.2828282828282833,3.2828282828282833 3.383838383838384,3.181818181818183 3.4848484848484866,3.080808080808082 3.5858585858585874,2.9797979797979806 3.6868686868686877,2.87878787878788 3.7878787878787885,2.7777777777777786 3.8888888888888893,2.676767676767678 3.989898989898992,2.575757575757577 3.989898989898992,2.4747474747474754 3.989898989898992,2.373737373737375 3.989898989898992,2.2727272727272734 3.989898989898992,2.1717171717171726 3.989898989898992,2.070707070707072 3.989898989898992,1.9696969696969702 3.989898989898992,1.8686868686868696 3.989898989898992,1.767676767676768 3.989898989898992,1.6666666666666674 3.989898989898992,1.5656565656565666 3.989898989898992,1.4646464646464652 3.989898989898992,1.3636363636363644 3.989898989898992,1.262626262626263 3.989898989898992,1.1616161616161622 3.989898989898992,1.0606060606060617 3.989898989898992,0.9595959595959602 3.989898989898992,0.8585858585858596 3.989898989898992,0.7575757575757579 3.989898989898992,0.6565656565656574 3.989898989898992,0.5555555555555567 3.989898989898992,0.4545454545454551 3.989898989898992,0.3535353535353544 3.989898989898992,0.2525252525252529 3.989898989898992,0.1515151515151522 3.989898989898992,0.050505050505051545 3.989898989898992,-0.05050505050505001 3.989898989898992,-0.15151515151515066 3.989898989898992,-0.2525252525252522 3.989898989898992,-0.35353535353535287 3.989898989898992,-0.4545454545454544 3.989898989898992,-0.555555555555555 3.989898989898992,-0.6565656565656557 3.989898989898992,-0.7575757575757572 3.989898989898992,-0.8585858585858579 3.989898989898992,-0.9595959595959596 3.989898989898992,-1.0606060606060603 3.989898989898992,-1.1616161616161613 3.989898989898992,-1.2626262626262625 3.989898989898992,-1.363636363636363 3.989898989898992,-1.4646464646464643 3.989898989898992,-1.5656565656565653 3.989898989898992,-1.6666666666666665 3.989898989898992,-1.7676767676767675 3.989898989898992,-1.8686868686868683 3.989898989898992,-1.9696969696969693 3.989898989898992,-2.07070707070707 3.989898989898992,-2.1717171717171713 3.989898989898992,-2.2727272727272725 3.989898989898992,-2.3737373737373733 3.989898989898992,-2.474747474747474 3.989898989898992,-2.5757575757575752 3.989898989898992,-2.6767676767676765 3.989898989898992,-2.7777777777777777 3.989898989898992,-2.8787878787878785 3.989898989898992,-2.9797979797979792 3.989898989898992,-3.0808080808080804 3.989898989898992,-3.1818181818181817 3.989898989898992,-3.2828282828282824 3.989898989898992,-3.383838383838383 3.989898989898992,-3.484848484848485 3.989898989898992,-3.5858585858585856 3.989898989898992,-3.6868686868686864 3.989898989898992,-3.7878787878787876 3.989898989898992,-3.8888888888888884 3.989898989898992,-3.98989898989899" data-type="line" data-label="" points="659.7979797979798,40.000000000000114 669.3333333333333,49.53535353535369 678.8686868686868,59.07070707070733 688.4040404040404,68.60606060606085 697.9393939393939,78.14141414141432 707.4747474747475,87.67676767676778 717.0101010101009,97.21212121212153 726.5454545454545,106.747474747475 736.0808080808081,116.28282828282846 745.6161616161615,125.81818181818198 755.1515151515151,135.35353535353545 764.6868686868686,144.88888888888908 774.2222222222222,154.4242424242426 783.7575757575758,163.95959595959613 793.2929292929292,173.4949494949496 802.8282828282828,183.03030303030312 812.3636363636363,192.56565656565675 821.8989898989898,202.10101010101027 831.4343434343433,211.63636363636374 840.969696969697,221.17171717171726 850.5050505050505,230.70707070707084 860.0404040404039,240.24242424242436 869.5757575757575,249.77777777777794 879.111111111111,259.3131313131314 888.6464646464647,268.84848484848493 888.6464646464647,278.38383838383857 888.6464646464647,287.91919191919203 888.6464646464647,297.4545454545456 888.6464646464647,306.9898989898991 888.6464646464647,316.5252525252526 888.6464646464647,326.06060606060623 888.6464646464647,335.5959595959597 888.6464646464647,345.1313131313133 888.6464646464647,354.66666666666674 888.6464646464647,364.2020202020203 888.6464646464647,373.73737373737384 888.6464646464647,383.27272727272737 888.6464646464647,392.80808080808094 888.6464646464647,402.3434343434344 888.6464646464647,411.87878787878793 888.6464646464647,421.4141414141415 888.6464646464647,430.94949494949503 888.6464646464647,440.4848484848486 888.6464646464647,450.0202020202021 888.6464646464647,459.5555555555556 888.6464646464647,469.0909090909092 888.6464646464647,478.6262626262627 888.6464646464647,488.1616161616163 888.6464646464647,497.69696969696975 888.6464646464647,507.23232323232327 888.6464646464647,516.7676767676768 888.6464646464647,526.3030303030304 888.6464646464647,535.838383838384 888.6464646464647,545.3737373737374 888.6464646464647,554.909090909091 888.6464646464647,564.4444444444445 888.6464646464647,573.979797979798 888.6464646464647,583.5151515151516 888.6464646464647,593.0505050505051 888.6464646464647,602.5858585858587 888.6464646464647,612.1212121212121 888.6464646464647,621.6565656565657 888.6464646464647,631.1919191919193 888.6464646464647,640.7272727272727 888.6464646464647,650.2626262626263 888.6464646464647,659.7979797979798 888.6464646464647,669.3333333333334 888.6464646464647,678.8686868686868 888.6464646464647,688.4040404040404 888.6464646464647,697.939393939394 888.6464646464647,707.4747474747475 888.6464646464647,717.010101010101 888.6464646464647,726.5454545454545 888.6464646464647,736.0808080808081 888.6464646464647,745.6161616161615 888.6464646464647,755.1515151515151 888.6464646464647,764.6868686868687 888.6464646464647,774.2222222222222 888.6464646464647,783.7575757575758 888.6464646464647,793.2929292929292 888.6464646464647,802.8282828282828 888.6464646464647,812.3636363636363 888.6464646464647,821.8989898989898 888.6464646464647,831.4343434343434 888.6464646464647,840.969696969697 888.6464646464647,850.5050505050505 888.6464646464647,860.0404040404039 888.6464646464647,869.5757575757575 888.6464646464647,879.1111111111111 888.6464646464647,888.6464646464647" fill="none" stroke="rgba(0,0,255,0.75)" stroke-width="11.327999999999996"/></g><g><polyline data-points="3.989898989898992,-3.98989898989899 4.090909090909092,-4.090909090909091 4.191919191919193,-4.191919191919193 4.292929292929293,-4.191919191919193 4.393939393939394,-4.191919191919193 4.494949494949497,-4.191919191919193 4.595959595959597,-4.191919191919193 4.696969696969697,-4.191919191919193 4.7979797979797985,-4.191919191919193 4.898989898989901,-4.191919191919193 5.000000000000002,-4.191919191919193" data-type="line" data-label="" points="888.6464646464647,888.6464646464647 898.181818181818,898.1818181818181 907.7171717171716,907.7171717171718 917.2525252525251,907.7171717171718 926.7878787878785,907.7171717171718 936.3232323232323,907.7171717171718 945.8585858585857,907.7171717171718 955.3939393939393,907.7171717171718 964.9292929292927,907.7171717171718 974.4646464646464,907.7171717171718 984,907.7171717171718" fill="none" stroke="rgba(255,0,0,0.75)" stroke-width="11.327999999999996"/></g><g><polyline data-points="5.000000000000002,1.4646464646464652 4.898989898989901,1.5656565656565666 4.7979797979797985,1.6666666666666674 4.696969696969697,1.767676767676768 4.595959595959597,1.8686868686868696 4.494949494949497,1.9696969696969702 4.393939393939394,2.070707070707072 4.292929292929293,2.1717171717171726 4.191919191919193,2.2727272727272734 4.191919191919193,2.373737373737375 4.191919191919193,2.4747474747474754 4.191919191919193,2.575757575757577 4.191919191919193,2.676767676767678 4.090909090909092,2.7777777777777786 3.989898989898992,2.87878787878788 3.989898989898992,2.9797979797979806 3.989898989898992,3.080808080808082" data-type="line" data-label="" points="984,373.73737373737384 974.4646464646464,364.2020202020203 964.9292929292927,354.66666666666674 955.3939393939393,345.1313131313133 945.8585858585857,335.5959595959597 936.3232323232323,326.06060606060623 926.7878787878785,316.5252525252526 917.2525252525251,306.9898989898991 907.7171717171716,297.4545454545456 907.7171717171716,287.91919191919203 907.7171717171716,278.38383838383857 907.7171717171716,268.84848484848493 907.7171717171716,259.3131313131314 898.181818181818,249.77777777777794 888.6464646464647,240.24242424242436 888.6464646464647,230.70707070707084 888.6464646464647,221.17171717171726" fill="none" stroke="rgba(0,0,255,0.75)" stroke-width="11.327999999999996"/></g><g><polyline data-points="3.989898989898992,3.080808080808082 3.8888888888888893,2.9797979797979806 3.7878787878787885,2.87878787878788 3.6868686868686877,2.7777777777777786 3.5858585858585874,2.676767676767678 3.4848484848484866,2.575757575757577 3.383838383838384,2.4747474747474754 3.2828282828282833,2.373737373737375 3.181818181818183,2.2727272727272734 3.080808080808082,2.1717171717171726 2.9797979797979806,2.070707070707072 2.87878787878788,1.9696969696969702 2.7777777777777786,1.8686868686868696 2.676767676767678,1.767676767676768 2.575757575757577,1.6666666666666674 2.4747474747474754,1.5656565656565666 2.373737373737375,1.4646464646464652 2.2727272727272734,1.3636363636363644 2.1717171717171726,1.262626262626263 2.070707070707072,1.1616161616161622 1.9696969696969702,1.0606060606060617 1.8686868686868696,0.9595959595959602 1.767676767676768,0.8585858585858596 1.6666666666666674,0.7575757575757579 1.5656565656565666,0.7575757575757579 1.4646464646464652,0.7575757575757579 1.3636363636363644,0.7575757575757579 1.262626262626263,0.7575757575757579 1.1616161616161622,0.7575757575757579 1.0606060606060617,0.7575757575757579 0.9595959595959602,0.7575757575757579 0.8585858585858596,0.7575757575757579 0.7575757575757579,0.7575757575757579 0.6565656565656574,0.7575757575757579 0.5555555555555567,0.7575757575757579 0.4545454545454551,0.7575757575757579 0.3535353535353544,0.7575757575757579 0.2525252525252529,0.7575757575757579 0.1515151515151522,0.7575757575757579 0.050505050505051545,0.7575757575757579 -0.05050505050505001,0.7575757575757579 -0.15151515151515066,0.7575757575757579 -0.2525252525252522,0.7575757575757579 -0.35353535353535287,0.7575757575757579 -0.4545454545454544,0.7575757575757579 -0.555555555555555,0.7575757575757579 -0.6565656565656557,0.7575757575757579 -0.7575757575757572,0.7575757575757579 -0.8585858585858579,0.7575757575757579 -0.9595959595959596,0.7575757575757579 -1.0606060606060603,0.7575757575757579 -1.1616161616161613,0.7575757575757579 -1.2626262626262625,0.7575757575757579 -1.363636363636363,0.7575757575757579 -1.4646464646464643,0.7575757575757579 -1.5656565656565653,0.7575757575757579 -1.6666666666666665,0.7575757575757579 -1.7676767676767675,0.7575757575757579 -1.8686868686868683,0.7575757575757579 -1.9696969696969693,0.7575757575757579 -2.07070707070707,0.7575757575757579 -2.1717171717171713,0.7575757575757579 -2.2727272727272725,0.7575757575757579 -2.3737373737373733,0.7575757575757579 -2.474747474747474,0.7575757575757579 -2.5757575757575752,0.7575757575757579 -2.6767676767676765,0.7575757575757579 -2.7777777777777777,0.7575757575757579 -2.8787878787878785,0.7575757575757579 -2.9797979797979792,0.7575757575757579 -3.0808080808080804,0.7575757575757579 -3.1818181818181817,0.7575757575757579 -3.2828282828282824,0.7575757575757579 -3.383838383838383,0.7575757575757579 -3.484848484848485,0.7575757575757579 -3.5858585858585856,0.7575757575757579 -3.6868686868686864,0.7575757575757579 -3.7878787878787876,0.7575757575757579 -3.8888888888888884,0.7575757575757579 -3.98989898989899,0.7575757575757579" data-type="line" data-label="" points="888.6464646464647,221.17171717171726 879.111111111111,230.70707070707084 869.5757575757575,240.24242424242436 860.0404040404039,249.77777777777794 850.5050505050505,259.3131313131314 840.969696969697,268.84848484848493 831.4343434343433,278.38383838383857 821.8989898989898,287.91919191919203 812.3636363636363,297.4545454545456 802.8282828282828,306.9898989898991 793.2929292929292,316.5252525252526 783.7575757575758,326.06060606060623 774.2222222222222,335.5959595959597 764.6868686868686,345.1313131313133 755.1515151515151,354.66666666666674 745.6161616161615,364.2020202020203 736.0808080808081,373.73737373737384 726.5454545454545,383.27272727272737 717.0101010101009,392.80808080808094 707.4747474747475,402.3434343434344 697.9393939393939,411.87878787878793 688.4040404040404,421.4141414141415 678.8686868686868,430.94949494949503 669.3333333333333,440.4848484848486 659.7979797979798,440.4848484848486 650.2626262626262,440.4848484848486 640.7272727272727,440.4848484848486 631.1919191919192,440.4848484848486 621.6565656565656,440.4848484848486 612.1212121212121,440.4848484848486 602.5858585858585,440.4848484848486 593.0505050505051,440.4848484848486 583.5151515151515,440.4848484848486 573.9797979797979,440.4848484848486 564.4444444444445,440.4848484848486 554.9090909090909,440.4848484848486 545.3737373737374,440.4848484848486 535.8383838383838,440.4848484848486 526.3030303030303,440.4848484848486 516.7676767676768,440.4848484848486 507.2323232323232,440.4848484848486 497.69696969696975,440.4848484848486 488.16161616161617,440.4848484848486 478.62626262626264,440.4848484848486 469.09090909090907,440.4848484848486 459.55555555555554,440.4848484848486 450.0202020202021,440.4848484848486 440.4848484848485,440.4848484848486 430.949494949495,440.4848484848486 421.4141414141414,440.4848484848486 411.8787878787879,440.4848484848486 402.34343434343435,440.4848484848486 392.80808080808083,440.4848484848486 383.2727272727273,440.4848484848486 373.7373737373738,440.4848484848486 364.2020202020202,440.4848484848486 354.6666666666667,440.4848484848486 345.13131313131316,440.4848484848486 335.59595959595964,440.4848484848486 326.0606060606061,440.4848484848486 316.5252525252526,440.4848484848486 306.9898989898991,440.4848484848486 297.4545454545455,440.4848484848486 287.91919191919203,440.4848484848486 278.38383838383845,440.4848484848486 268.84848484848493,440.4848484848486 259.3131313131314,440.4848484848486 249.77777777777783,440.4848484848486 240.2424242424243,440.4848484848486 230.70707070707084,440.4848484848486 221.17171717171726,440.4848484848486 211.63636363636374,440.4848484848486 202.10101010101022,440.4848484848486 192.5656565656567,440.4848484848486 183.03030303030312,440.4848484848486 173.4949494949496,440.4848484848486 163.95959595959607,440.4848484848486 154.42424242424255,440.4848484848486 144.88888888888903,440.4848484848486 135.35353535353545,440.4848484848486" fill="none" stroke="rgba(255,0,0,0.75)" stroke-width="11.327999999999996"/></g><g><polyline data-points="-3.98989898989899,0.7575757575757579 -4.090909090909091,0.7575757575757579 -4.191919191919193,0.7575757575757579 -4.292929292929293,0.7575757575757579 -4.393939393939394,0.7575757575757579 -4.494949494949496,0.7575757575757579 -4.595959595959596,0.7575757575757579 -4.696969696969697,0.7575757575757579 -4.7979797979797985,0.7575757575757579 -4.898989898989899,0.7575757575757579 -5.000000000000001,0.7575757575757579" data-type="line" data-label="" points="135.35353535353545,440.4848484848486 125.81818181818193,440.4848484848486 116.28282828282829,440.4848484848486 106.74747474747483,440.4848484848486 97.21212121212136,440.4848484848486 87.67676767676772,440.4848484848486 78.14141414141426,440.4848484848486 68.60606060606068,440.4848484848486 59.07070707070716,440.4848484848486 49.53535353535369,440.4848484848486 40.00000000000006,440.4848484848486" fill="none" stroke="rgba(0,0,255,0.75)" stroke-width="11.327999999999996"/></g><g><polyline data-points="5.000000000000002,-3.0808080808080804 4.898989898989901,-3.1818181818181817 4.7979797979797985,-3.2828282828282824 4.696969696969697,-3.383838383838383 4.595959595959597,-3.484848484848485 4.494949494949497,-3.5858585858585856 4.393939393939394,-3.6868686868686864 4.292929292929293,-3.7878787878787876 4.292929292929293,-3.8888888888888884 4.292929292929293,-3.98989898989899 4.191919191919193,-4.090909090909091 4.090909090909092,-4.191919191919193 3.989898989898992,-4.292929292929293 3.8888888888888893,-4.191919191919193 3.7878787878787885,-4.090909090909091 3.6868686868686877,-3.98989898989899 3.5858585858585874,-3.8888888888888884 3.4848484848484866,-3.7878787878787876 3.383838383838384,-3.6868686868686864 3.2828282828282833,-3.5858585858585856 3.181818181818183,-3.484848484848485 3.080808080808082,-3.383838383838383 2.9797979797979806,-3.2828282828282824 2.87878787878788,-3.1818181818181817 2.7777777777777786,-3.0808080808080804 2.676767676767678,-2.9797979797979792 2.575757575757577,-2.8787878787878785 2.4747474747474754,-2.7777777777777777 2.373737373737375,-2.6767676767676765 2.2727272727272734,-2.5757575757575752 2.1717171717171726,-2.474747474747474 2.070707070707072,-2.3737373737373733 1.9696969696969702,-2.2727272727272725 1.8686868686868696,-2.1717171717171713 1.767676767676768,-2.07070707070707 1.6666666666666674,-1.9696969696969693 1.5656565656565666,-1.8686868686868683 1.4646464646464652,-1.7676767676767675 1.3636363636363644,-1.6666666666666665 1.262626262626263,-1.5656565656565653 1.1616161616161622,-1.4646464646464643 1.0606060606060617,-1.363636363636363 0.9595959595959602,-1.2626262626262625 0.8585858585858596,-1.1616161616161613 0.7575757575757579,-1.0606060606060603 0.6565656565656574,-0.9595959595959596 0.5555555555555567,-0.8585858585858579 0.4545454545454551,-0.7575757575757572 0.3535353535353544,-0.6565656565656557 0.2525252525252529,-0.555555555555555 0.1515151515151522,-0.4545454545454544 0.050505050505051545,-0.35353535353535287 -0.05050505050505001,-0.2525252525252522 -0.15151515151515066,-0.15151515151515066 -0.2525252525252522,-0.05050505050505001 -0.35353535353535287,0.050505050505051545 -0.4545454545454544,0.1515151515151522 -0.555555555555555,0.2525252525252529 -0.6565656565656557,0.3535353535353544 -0.7575757575757572,0.4545454545454551 -0.8585858585858579,0.5555555555555567 -0.9595959595959596,0.6565656565656574 -1.0606060606060603,0.7575757575757579 -1.1616161616161613,0.8585858585858596 -1.2626262626262625,0.9595959595959602 -1.363636363636363,1.0606060606060617 -1.4646464646464643,1.1616161616161622 -1.5656565656565653,1.262626262626263 -1.6666666666666665,1.3636363636363644 -1.7676767676767675,1.4646464646464652 -1.8686868686868683,1.5656565656565666 -1.9696969696969693,1.6666666666666674 -2.07070707070707,1.767676767676768 -2.1717171717171713,1.8686868686868696 -2.2727272727272725,1.9696969696969702 -2.3737373737373733,2.070707070707072 -2.474747474747474,2.1717171717171726 -2.5757575757575752,2.2727272727272734 -2.6767676767676765,2.373737373737375 -2.7777777777777777,2.4747474747474754 -2.8787878787878785,2.575757575757577 -2.9797979797979792,2.676767676767678 -3.0808080808080804,2.7777777777777786 -3.1818181818181817,2.7777777777777786 -3.2828282828282824,2.7777777777777786 -3.383838383838383,2.7777777777777786 -3.484848484848485,2.7777777777777786 -3.5858585858585856,2.7777777777777786 -3.6868686868686864,2.7777777777777786 -3.7878787878787876,2.7777777777777786 -3.8888888888888884,2.7777777777777786 -3.98989898989899,2.7777777777777786" data-type="line" data-label="" points="984,802.8282828282828 974.4646464646464,812.3636363636363 964.9292929292927,821.8989898989898 955.3939393939393,831.4343434343434 945.8585858585857,840.969696969697 936.3232323232323,850.5050505050505 926.7878787878785,860.0404040404039 917.2525252525251,869.5757575757575 917.2525252525251,879.1111111111111 917.2525252525251,888.6464646464647 907.7171717171716,898.1818181818181 898.181818181818,907.7171717171718 888.6464646464647,917.2525252525252 879.111111111111,907.7171717171718 869.5757575757575,898.1818181818181 860.0404040404039,888.6464646464647 850.5050505050505,879.1111111111111 840.969696969697,869.5757575757575 831.4343434343433,860.0404040404039 821.8989898989898,850.5050505050505 812.3636363636363,840.969696969697 802.8282828282828,831.4343434343434 793.2929292929292,821.8989898989898 783.7575757575758,812.3636363636363 774.2222222222222,802.8282828282828 764.6868686868686,793.2929292929292 755.1515151515151,783.7575757575758 745.6161616161615,774.2222222222222 736.0808080808081,764.6868686868687 726.5454545454545,755.1515151515151 717.0101010101009,745.6161616161615 707.4747474747475,736.0808080808081 697.9393939393939,726.5454545454545 688.4040404040404,717.010101010101 678.8686868686868,707.4747474747475 669.3333333333333,697.939393939394 659.7979797979798,688.4040404040404 650.2626262626262,678.8686868686868 640.7272727272727,669.3333333333334 631.1919191919192,659.7979797979798 621.6565656565656,650.2626262626263 612.1212121212121,640.7272727272727 602.5858585858585,631.1919191919193 593.0505050505051,621.6565656565657 583.5151515151515,612.1212121212121 573.9797979797979,602.5858585858587 564.4444444444445,593.0505050505051 554.9090909090909,583.5151515151516 545.3737373737374,573.979797979798 535.8383838383838,564.4444444444445 526.3030303030303,554.909090909091 516.7676767676768,545.3737373737374 507.2323232323232,535.838383838384 497.69696969696975,526.3030303030304 488.16161616161617,516.7676767676768 478.62626262626264,507.23232323232327 469.09090909090907,497.69696969696975 459.55555555555554,488.1616161616163 450.0202020202021,478.6262626262627 440.4848484848485,469.0909090909092 430.949494949495,459.5555555555556 421.4141414141414,450.0202020202021 411.8787878787879,440.4848484848486 402.34343434343435,430.94949494949503 392.80808080808083,421.4141414141415 383.2727272727273,411.87878787878793 373.7373737373738,402.3434343434344 364.2020202020202,392.80808080808094 354.6666666666667,383.27272727272737 345.13131313131316,373.73737373737384 335.59595959595964,364.2020202020203 326.0606060606061,354.66666666666674 316.5252525252526,345.1313131313133 306.9898989898991,335.5959595959597 297.4545454545455,326.06060606060623 287.91919191919203,316.5252525252526 278.38383838383845,306.9898989898991 268.84848484848493,297.4545454545456 259.3131313131314,287.91919191919203 249.77777777777783,278.38383838383857 240.2424242424243,268.84848484848493 230.70707070707084,259.3131313131314 221.17171717171726,249.77777777777794 211.63636363636374,249.77777777777794 202.10101010101022,249.77777777777794 192.5656565656567,249.77777777777794 183.03030303030312,249.77777777777794 173.4949494949496,249.77777777777794 163.95959595959607,249.77777777777794 154.42424242424255,249.77777777777794 144.88888888888903,249.77777777777794 135.35353535353545,249.77777777777794" fill="none" stroke="rgba(0,0,255,0.75)" stroke-width="11.327999999999996"/></g><g><polyline data-points="-3.98989898989899,2.7777777777777786 -4.090909090909091,2.7777777777777786 -4.191919191919193,2.7777777777777786 -4.292929292929293,2.7777777777777786 -4.393939393939394,2.7777777777777786 -4.494949494949496,2.7777777777777786 -4.595959595959596,2.7777777777777786 -4.696969696969697,2.7777777777777786 -4.7979797979797985,2.7777777777777786 -4.898989898989899,2.7777777777777786 -5.000000000000001,2.7777777777777786" data-type="line" data-label="" points="135.35353535353545,249.77777777777794 125.81818181818193,249.77777777777794 116.28282828282829,249.77777777777794 106.74747474747483,249.77777777777794 97.21212121212136,249.77777777777794 87.67676767676772,249.77777777777794 78.14141414141426,249.77777777777794 68.60606060606068,249.77777777777794 59.07070707070716,249.77777777777794 49.53535353535369,249.77777777777794 40.00000000000006,249.77777777777794" fill="none" stroke="rgba(255,0,0,0.75)" stroke-width="11.327999999999996"/></g><g><polyline data-points="-1.7676767676767675,-5.000000000000001 -1.6666666666666665,-4.898989898989899 -1.5656565656565653,-4.7979797979797985 -1.4646464646464643,-4.696969696969697 -1.363636363636363,-4.595959595959596 -1.2626262626262625,-4.494949494949496 -1.1616161616161613,-4.393939393939394 -1.0606060606060603,-4.292929292929293 -0.9595959595959596,-4.191919191919193 -0.8585858585858579,-4.090909090909091 -0.7575757575757572,-3.98989898989899 -0.6565656565656557,-3.8888888888888884 -0.555555555555555,-3.7878787878787876 -0.4545454545454544,-3.6868686868686864 -0.35353535353535287,-3.5858585858585856 -0.2525252525252522,-3.484848484848485 -0.15151515151515066,-3.383838383838383 -0.05050505050505001,-3.2828282828282824 0.050505050505051545,-3.1818181818181817 0.1515151515151522,-3.0808080808080804 0.2525252525252529,-2.9797979797979792 0.3535353535353544,-2.8787878787878785 0.4545454545454551,-2.7777777777777777 0.5555555555555567,-2.6767676767676765 0.6565656565656574,-2.5757575757575752 0.7575757575757579,-2.474747474747474 0.8585858585858596,-2.3737373737373733 0.9595959595959602,-2.2727272727272725 1.0606060606060617,-2.1717171717171713 1.1616161616161622,-2.07070707070707 1.262626262626263,-2.07070707070707" data-type="line" data-label="" points="345.13131313131316,984 354.6666666666667,974.4646464646464 364.2020202020202,964.9292929292928 373.7373737373738,955.3939393939394 383.2727272727273,945.8585858585858 392.80808080808083,936.3232323232323 402.34343434343435,926.7878787878788 411.8787878787879,917.2525252525252 421.4141414141414,907.7171717171718 430.949494949495,898.1818181818181 440.4848484848485,888.6464646464647 450.0202020202021,879.1111111111111 459.55555555555554,869.5757575757575 469.09090909090907,860.0404040404039 478.62626262626264,850.5050505050505 488.16161616161617,840.969696969697 497.69696969696975,831.4343434343434 507.2323232323232,821.8989898989898 516.7676767676768,812.3636363636363 526.3030303030303,802.8282828282828 535.8383838383838,793.2929292929292 545.3737373737374,783.7575757575758 554.9090909090909,774.2222222222222 564.4444444444445,764.6868686868687 573.9797979797979,755.1515151515151 583.5151515151515,745.6161616161615 593.0505050505051,736.0808080808081 602.5858585858585,726.5454545454545 612.1212121212121,717.010101010101 621.6565656565656,707.4747474747475 631.1919191919192,707.4747474747475" fill="none" stroke="rgba(0,0,255,0.75)" stroke-width="11.327999999999996"/></g><g><polyline data-points="1.262626262626263,-2.07070707070707 1.3636363636363644,-1.9696969696969693 1.4646464646464652,-1.8686868686868683 1.5656565656565666,-1.7676767676767675 1.6666666666666674,-1.6666666666666665 1.767676767676768,-1.5656565656565653 1.8686868686868696,-1.4646464646464643 1.9696969696969702,-1.363636363636363 2.070707070707072,-1.2626262626262625 2.1717171717171726,-1.1616161616161613 2.2727272727272734,-1.0606060606060603 2.373737373737375,-0.9595959595959596 2.4747474747474754,-0.8585858585858579 2.575757575757577,-0.7575757575757572 2.676767676767678,-0.6565656565656557 2.7777777777777786,-0.555555555555555 2.87878787878788,-0.4545454545454544 2.9797979797979806,-0.35353535353535287 3.080808080808082,-0.2525252525252522 3.181818181818183,-0.15151515151515066 3.2828282828282833,-0.05050505050505001 3.383838383838384,0.050505050505051545 3.4848484848484866,0.1515151515151522 3.5858585858585874,0.2525252525252529 3.6868686868686877,0.3535353535353544 3.7878787878787885,0.4545454545454551 3.8888888888888893,0.5555555555555567 3.989898989898992,0.6565656565656574 4.090909090909092,0.7575757575757579 4.191919191919193,0.8585858585858596 4.292929292929293,0.9595959595959602 4.393939393939394,1.0606060606060617 4.494949494949497,1.1616161616161622 4.595959595959597,1.262626262626263 4.696969696969697,1.3636363636363644 4.7979797979797985,1.4646464646464652 4.898989898989901,1.5656565656565666 5.000000000000002,1.6666666666666674 5.000000000000002,1.767676767676768 5.000000000000002,1.8686868686868696 5.000000000000002,1.9696969696969702 5.000000000000002,2.070707070707072 5.000000000000002,2.1717171717171726 5.000000000000002,2.2727272727272734 5.000000000000002,2.373737373737375 5.000000000000002,2.4747474747474754 5.000000000000002,2.575757575757577 5.000000000000002,2.676767676767678 5.000000000000002,2.7777777777777786 5.000000000000002,2.87878787878788 5.000000000000002,2.9797979797979806 5.000000000000002,3.080808080808082 5.000000000000002,3.181818181818183 5.000000000000002,3.2828282828282833 5.000000000000002,3.383838383838384" data-type="line" data-label="" points="631.1919191919192,707.4747474747475 640.7272727272727,697.939393939394 650.2626262626262,688.4040404040404 659.7979797979798,678.8686868686868 669.3333333333333,669.3333333333334 678.8686868686868,659.7979797979798 688.4040404040404,650.2626262626263 697.9393939393939,640.7272727272727 707.4747474747475,631.1919191919193 717.0101010101009,621.6565656565657 726.5454545454545,612.1212121212121 736.0808080808081,602.5858585858587 745.6161616161615,593.0505050505051 755.1515151515151,583.5151515151516 764.6868686868686,573.979797979798 774.2222222222222,564.4444444444445 783.7575757575758,554.909090909091 793.2929292929292,545.3737373737374 802.8282828282828,535.838383838384 812.3636363636363,526.3030303030304 821.8989898989898,516.7676767676768 831.4343434343433,507.23232323232327 840.969696969697,497.69696969696975 850.5050505050505,488.1616161616163 860.0404040404039,478.6262626262627 869.5757575757575,469.0909090909092 879.111111111111,459.5555555555556 888.6464646464647,450.0202020202021 898.181818181818,440.4848484848486 907.7171717171716,430.94949494949503 917.2525252525251,421.4141414141415 926.7878787878785,411.87878787878793 936.3232323232323,402.3434343434344 945.8585858585857,392.80808080808094 955.3939393939393,383.27272727272737 964.9292929292927,373.73737373737384 974.4646464646464,364.2020202020203 984,354.66666666666674 984,345.1313131313133 984,335.5959595959597 984,326.06060606060623 984,316.5252525252526 984,306.9898989898991 984,297.4545454545456 984,287.91919191919203 984,278.38383838383857 984,268.84848484848493 984,259.3131313131314 984,249.77777777777794 984,240.24242424242436 984,230.70707070707084 984,221.17171717171726 984,211.63636363636374 984,202.10101010101027 984,192.56565656565675" fill="none" stroke="rgba(255,0,0,0.75)" stroke-width="11.327999999999996"/></g><g><polyline data-points="5.000000000000002,-2.3737373737373733 4.898989898989901,-2.474747474747474 4.7979797979797985,-2.5757575757575752 4.696969696969697,-2.6767676767676765 4.595959595959597,-2.7777777777777777 4.494949494949497,-2.8787878787878785 4.393939393939394,-2.9797979797979792 4.292929292929293,-3.0808080808080804 4.191919191919193,-3.1818181818181817 4.090909090909092,-3.2828282828282824 3.989898989898992,-3.383838383838383 3.8888888888888893,-3.484848484848485 3.7878787878787885,-3.5858585858585856 3.6868686868686877,-3.6868686868686864 3.5858585858585874,-3.7878787878787876 3.4848484848484866,-3.8888888888888884 3.383838383838384,-3.98989898989899 3.2828282828282833,-3.98989898989899 3.181818181818183,-3.98989898989899 3.080808080808082,-3.98989898989899 2.9797979797979806,-3.98989898989899 2.87878787878788,-3.98989898989899 2.7777777777777786,-3.98989898989899 2.676767676767678,-3.98989898989899 2.575757575757577,-3.98989898989899 2.4747474747474754,-3.98989898989899 2.373737373737375,-3.98989898989899 2.2727272727272734,-3.98989898989899 2.1717171717171726,-3.98989898989899 2.070707070707072,-3.98989898989899 1.9696969696969702,-3.98989898989899 1.8686868686868696,-3.98989898989899 1.767676767676768,-3.98989898989899 1.6666666666666674,-3.98989898989899 1.5656565656565666,-3.98989898989899 1.4646464646464652,-3.98989898989899 1.3636363636363644,-3.98989898989899 1.262626262626263,-3.98989898989899 1.1616161616161622,-3.98989898989899 1.0606060606060617,-3.98989898989899 0.9595959595959602,-3.98989898989899 0.8585858585858596,-3.98989898989899 0.7575757575757579,-3.98989898989899 0.6565656565656574,-3.98989898989899 0.5555555555555567,-3.98989898989899 0.4545454545454551,-3.98989898989899 0.3535353535353544,-3.98989898989899 0.2525252525252529,-3.98989898989899 0.1515151515151522,-3.98989898989899 0.050505050505051545,-3.98989898989899 -0.05050505050505001,-3.98989898989899 -0.15151515151515066,-3.98989898989899 -0.2525252525252522,-3.98989898989899 -0.35353535353535287,-3.98989898989899 -0.4545454545454544,-3.98989898989899 -0.555555555555555,-3.98989898989899 -0.6565656565656557,-3.98989898989899 -0.7575757575757572,-3.98989898989899 -0.8585858585858579,-3.98989898989899 -0.9595959595959596,-3.98989898989899 -1.0606060606060603,-3.98989898989899 -1.1616161616161613,-3.98989898989899 -1.2626262626262625,-3.98989898989899 -1.363636363636363,-3.98989898989899 -1.4646464646464643,-3.98989898989899 -1.5656565656565653,-3.98989898989899 -1.6666666666666665,-3.98989898989899 -1.7676767676767675,-3.98989898989899 -1.8686868686868683,-3.98989898989899 -1.9696969696969693,-3.98989898989899 -2.07070707070707,-3.98989898989899 -2.1717171717171713,-3.98989898989899 -2.2727272727272725,-3.98989898989899 -2.3737373737373733,-3.98989898989899 -2.474747474747474,-3.98989898989899 -2.5757575757575752,-3.98989898989899 -2.6767676767676765,-3.98989898989899 -2.7777777777777777,-3.98989898989899 -2.8787878787878785,-3.98989898989899 -2.9797979797979792,-3.98989898989899 -3.0808080808080804,-3.98989898989899 -3.1818181818181817,-3.98989898989899 -3.2828282828282824,-3.98989898989899 -3.383838383838383,-3.98989898989899 -3.484848484848485,-3.98989898989899 -3.5858585858585856,-3.98989898989899 -3.6868686868686864,-3.98989898989899 -3.7878787878787876,-3.98989898989899 -3.8888888888888884,-3.98989898989899" data-type="line" data-label="" points="984,736.0808080808081 974.4646464646464,745.6161616161615 964.9292929292927,755.1515151515151 955.3939393939393,764.6868686868687 945.8585858585857,774.2222222222222 936.3232323232323,783.7575757575758 926.7878787878785,793.2929292929292 917.2525252525251,802.8282828282828 907.7171717171716,812.3636363636363 898.181818181818,821.8989898989898 888.6464646464647,831.4343434343434 879.111111111111,840.969696969697 869.5757575757575,850.5050505050505 860.0404040404039,860.0404040404039 850.5050505050505,869.5757575757575 840.969696969697,879.1111111111111 831.4343434343433,888.6464646464647 821.8989898989898,888.6464646464647 812.3636363636363,888.6464646464647 802.8282828282828,888.6464646464647 793.2929292929292,888.6464646464647 783.7575757575758,888.6464646464647 774.2222222222222,888.6464646464647 764.6868686868686,888.6464646464647 755.1515151515151,888.6464646464647 745.6161616161615,888.6464646464647 736.0808080808081,888.6464646464647 726.5454545454545,888.6464646464647 717.0101010101009,888.6464646464647 707.4747474747475,888.6464646464647 697.9393939393939,888.6464646464647 688.4040404040404,888.6464646464647 678.8686868686868,888.6464646464647 669.3333333333333,888.6464646464647 659.7979797979798,888.6464646464647 650.2626262626262,888.6464646464647 640.7272727272727,888.6464646464647 631.1919191919192,888.6464646464647 621.6565656565656,888.6464646464647 612.1212121212121,888.6464646464647 602.5858585858585,888.6464646464647 593.0505050505051,888.6464646464647 583.5151515151515,888.6464646464647 573.9797979797979,888.6464646464647 564.4444444444445,888.6464646464647 554.9090909090909,888.6464646464647 545.3737373737374,888.6464646464647 535.8383838383838,888.6464646464647 526.3030303030303,888.6464646464647 516.7676767676768,888.6464646464647 507.2323232323232,888.6464646464647 497.69696969696975,888.6464646464647 488.16161616161617,888.6464646464647 478.62626262626264,888.6464646464647 469.09090909090907,888.6464646464647 459.55555555555554,888.6464646464647 450.0202020202021,888.6464646464647 440.4848484848485,888.6464646464647 430.949494949495,888.6464646464647 421.4141414141414,888.6464646464647 411.8787878787879,888.6464646464647 402.34343434343435,888.6464646464647 392.80808080808083,888.6464646464647 383.2727272727273,888.6464646464647 373.7373737373738,888.6464646464647 364.2020202020202,888.6464646464647 354.6666666666667,888.6464646464647 345.13131313131316,888.6464646464647 335.59595959595964,888.6464646464647 326.0606060606061,888.6464646464647 316.5252525252526,888.6464646464647 306.9898989898991,888.6464646464647 297.4545454545455,888.6464646464647 287.91919191919203,888.6464646464647 278.38383838383845,888.6464646464647 268.84848484848493,888.6464646464647 259.3131313131314,888.6464646464647 249.77777777777783,888.6464646464647 240.2424242424243,888.6464646464647 230.70707070707084,888.6464646464647 221.17171717171726,888.6464646464647 211.63636363636374,888.6464646464647 202.10101010101022,888.6464646464647 192.5656565656567,888.6464646464647 183.03030303030312,888.6464646464647 173.4949494949496,888.6464646464647 163.95959595959607,888.6464646464647 154.42424242424255,888.6464646464647 144.88888888888903,888.6464646464647" fill="none" stroke="rgba(255,0,0,0.75)" stroke-width="11.327999999999996"/></g><g><polyline data-points="-3.8888888888888884,-3.98989898989899 -3.98989898989899,-4.090909090909091 -4.090909090909091,-4.191919191919193 -4.191919191919193,-4.292929292929293 -4.292929292929293,-4.393939393939394 -4.393939393939394,-4.494949494949496 -4.494949494949496,-4.595959595959596 -4.595959595959596,-4.595959595959596 -4.696969696969697,-4.595959595959596 -4.7979797979797985,-4.595959595959596 -4.898989898989899,-4.595959595959596 -5.000000000000001,-4.595959595959596" data-type="line" data-label="" points="144.88888888888903,888.6464646464647 135.35353535353545,898.1818181818181 125.81818181818193,907.7171717171718 116.28282828282829,917.2525252525252 106.74747474747483,926.7878787878788 97.21212121212136,936.3232323232323 87.67676767676772,945.8585858585858 78.14141414141426,945.8585858585858 68.60606060606068,945.8585858585858 59.07070707070716,945.8585858585858 49.53535353535369,945.8585858585858 40.00000000000006,945.8585858585858" fill="none" stroke="rgba(0,0,255,0.75)" stroke-width="11.327999999999996"/></g><g><polyline data-points="-0.35353535353535287,5.000000000000002 -0.35353535353535287,4.898989898989901 -0.35353535353535287,4.7979797979797985 -0.35353535353535287,4.696969696969697 -0.4545454545454544,4.595959595959597 -0.555555555555555,4.494949494949497 -0.6565656565656557,4.393939393939394 -0.7575757575757572,4.292929292929293 -0.8585858585858579,4.191919191919193 -0.9595959595959596,4.090909090909092 -1.0606060606060603,3.989898989898992 -1.1616161616161613,3.8888888888888893 -1.2626262626262625,3.7878787878787885 -1.363636363636363,3.6868686868686877 -1.4646464646464643,3.5858585858585874 -1.5656565656565653,3.4848484848484866 -1.6666666666666665,3.383838383838384 -1.7676767676767675,3.2828282828282833 -1.8686868686868683,3.181818181818183 -1.9696969696969693,3.080808080808082 -2.07070707070707,2.9797979797979806 -2.1717171717171713,2.87878787878788 -2.2727272727272725,2.7777777777777786 -2.3737373737373733,2.676767676767678 -2.474747474747474,2.575757575757577 -2.5757575757575752,2.4747474747474754 -2.6767676767676765,2.373737373737375 -2.7777777777777777,2.2727272727272734 -2.8787878787878785,2.1717171717171726 -2.9797979797979792,2.070707070707072 -3.0808080808080804,1.9696969696969702 -3.1818181818181817,1.8686868686868696 -3.2828282828282824,1.767676767676768 -3.383838383838383,1.6666666666666674 -3.484848484848485,1.5656565656565666 -3.5858585858585856,1.4646464646464652 -3.6868686868686864,1.3636363636363644 -3.7878787878787876,1.262626262626263 -3.8888888888888884,1.1616161616161622 -3.98989898989899,1.0606060606060617 -4.090909090909091,0.9595959595959602 -4.191919191919193,0.8585858585858596 -4.292929292929293,0.7575757575757579 -4.191919191919193,0.6565656565656574 -4.191919191919193,0.5555555555555567 -4.191919191919193,0.4545454545454551 -4.191919191919193,0.3535353535353544 -4.191919191919193,0.2525252525252529 -4.191919191919193,0.1515151515151522 -4.191919191919193,0.050505050505051545 -4.191919191919193,-0.05050505050505001 -4.191919191919193,-0.15151515151515066 -4.191919191919193,-0.2525252525252522 -4.191919191919193,-0.35353535353535287 -4.191919191919193,-0.4545454545454544 -4.191919191919193,-0.555555555555555 -4.191919191919193,-0.6565656565656557 -4.191919191919193,-0.7575757575757572 -4.191919191919193,-0.8585858585858579 -4.191919191919193,-0.9595959595959596 -4.191919191919193,-1.0606060606060603 -4.191919191919193,-1.1616161616161613 -4.191919191919193,-1.2626262626262625 -4.191919191919193,-1.363636363636363 -4.191919191919193,-1.4646464646464643 -4.191919191919193,-1.5656565656565653 -4.191919191919193,-1.6666666666666665 -4.191919191919193,-1.7676767676767675 -4.191919191919193,-1.8686868686868683 -4.191919191919193,-1.9696969696969693 -4.191919191919193,-2.07070707070707 -4.191919191919193,-2.1717171717171713 -4.191919191919193,-2.2727272727272725 -4.191919191919193,-2.3737373737373733 -4.191919191919193,-2.474747474747474 -4.191919191919193,-2.5757575757575752 -4.191919191919193,-2.6767676767676765 -4.191919191919193,-2.7777777777777777 -4.191919191919193,-2.8787878787878785 -4.191919191919193,-2.9797979797979792 -4.191919191919193,-3.0808080808080804 -4.191919191919193,-3.1818181818181817 -4.191919191919193,-3.2828282828282824 -4.191919191919193,-3.383838383838383 -4.191919191919193,-3.484848484848485 -4.191919191919193,-3.5858585858585856 -4.191919191919193,-3.6868686868686864 -4.191919191919193,-3.7878787878787876 -4.191919191919193,-3.8888888888888884 -4.191919191919193,-3.98989898989899 -4.090909090909091,-4.090909090909091 -3.98989898989899,-4.191919191919193 -3.8888888888888884,-4.292929292929293 -3.7878787878787876,-4.393939393939394 -3.6868686868686864,-4.494949494949496 -3.5858585858585856,-4.595959595959596 -3.484848484848485,-4.696969696969697 -3.383838383838383,-4.7979797979797985 -3.2828282828282824,-4.898989898989899 -3.1818181818181817,-5.000000000000001 -3.0808080808080804,-5.000000000000001 -2.9797979797979792,-5.000000000000001 -2.8787878787878785,-5.000000000000001 -2.7777777777777777,-5.000000000000001 -2.6767676767676765,-5.000000000000001 -2.5757575757575752,-5.000000000000001 -2.474747474747474,-5.000000000000001 -2.3737373737373733,-5.000000000000001 -2.2727272727272725,-5.000000000000001 -2.1717171717171713,-5.000000000000001 -2.07070707070707,-5.000000000000001 -1.9696969696969693,-5.000000000000001 -1.8686868686868683,-5.000000000000001 -1.7676767676767675,-5.000000000000001 -1.6666666666666665,-5.000000000000001 -1.5656565656565653,-5.000000000000001 -1.4646464646464643,-5.000000000000001 -1.363636363636363,-5.000000000000001 -1.2626262626262625,-5.000000000000001 -1.1616161616161613,-5.000000000000001 -1.0606060606060603,-5.000000000000001 -0.9595959595959596,-5.000000000000001 -0.8585858585858579,-5.000000000000001 -0.7575757575757572,-5.000000000000001 -0.6565656565656557,-5.000000000000001 -0.555555555555555,-5.000000000000001 -0.4545454545454544,-5.000000000000001 -0.35353535353535287,-5.000000000000001 -0.2525252525252522,-5.000000000000001 -0.15151515151515066,-5.000000000000001 -0.05050505050505001,-5.000000000000001 0.050505050505051545,-5.000000000000001 0.1515151515151522,-5.000000000000001 0.2525252525252529,-5.000000000000001 0.3535353535353544,-5.000000000000001 0.4545454545454551,-5.000000000000001 0.5555555555555567,-5.000000000000001 0.6565656565656574,-5.000000000000001 0.7575757575757579,-5.000000000000001 0.8585858585858596,-5.000000000000001 0.9595959595959602,-5.000000000000001 1.0606060606060617,-5.000000000000001 1.1616161616161622,-5.000000000000001 1.262626262626263,-5.000000000000001 1.3636363636363644,-5.000000000000001 1.4646464646464652,-5.000000000000001 1.5656565656565666,-5.000000000000001 1.6666666666666674,-5.000000000000001 1.767676767676768,-5.000000000000001 1.8686868686868696,-5.000000000000001 1.9696969696969702,-5.000000000000001 2.070707070707072,-5.000000000000001 2.1717171717171726,-5.000000000000001 2.2727272727272734,-5.000000000000001 2.373737373737375,-5.000000000000001 2.4747474747474754,-5.000000000000001 2.575757575757577,-5.000000000000001 2.676767676767678,-5.000000000000001 2.7777777777777786,-5.000000000000001 2.87878787878788,-5.000000000000001 2.9797979797979806,-5.000000000000001 3.080808080808082,-5.000000000000001 3.181818181818183,-5.000000000000001 3.2828282828282833,-5.000000000000001 3.383838383838384,-5.000000000000001 3.4848484848484866,-5.000000000000001 3.5858585858585874,-5.000000000000001 3.6868686868686877,-5.000000000000001 3.7878787878787885,-5.000000000000001 3.8888888888888893,-5.000000000000001 3.989898989898992,-5.000000000000001 4.090909090909092,-5.000000000000001 4.191919191919193,-5.000000000000001 4.292929292929293,-5.000000000000001 4.393939393939394,-5.000000000000001 4.494949494949497,-5.000000000000001 4.595959595959597,-5.000000000000001 4.696969696969697,-5.000000000000001 4.7979797979797985,-5.000000000000001 4.898989898989901,-5.000000000000001" data-type="line" data-label="" points="478.62626262626264,40.000000000000114 478.62626262626264,49.53535353535369 478.62626262626264,59.07070707070733 478.62626262626264,68.60606060606085 469.09090909090907,78.14141414141432 459.55555555555554,87.67676767676778 450.0202020202021,97.21212121212153 440.4848484848485,106.747474747475 430.949494949495,116.28282828282846 421.4141414141414,125.81818181818198 411.8787878787879,135.35353535353545 402.34343434343435,144.88888888888908 392.80808080808083,154.4242424242426 383.2727272727273,163.95959595959613 373.7373737373738,173.4949494949496 364.2020202020202,183.03030303030312 354.6666666666667,192.56565656565675 345.13131313131316,202.10101010101027 335.59595959595964,211.63636363636374 326.0606060606061,221.17171717171726 316.5252525252526,230.70707070707084 306.9898989898991,240.24242424242436 297.4545454545455,249.77777777777794 287.91919191919203,259.3131313131314 278.38383838383845,268.84848484848493 268.84848484848493,278.38383838383857 259.3131313131314,287.91919191919203 249.77777777777783,297.4545454545456 240.2424242424243,306.9898989898991 230.70707070707084,316.5252525252526 221.17171717171726,326.06060606060623 211.63636363636374,335.5959595959597 202.10101010101022,345.1313131313133 192.5656565656567,354.66666666666674 183.03030303030312,364.2020202020203 173.4949494949496,373.73737373737384 163.95959595959607,383.27272727272737 154.42424242424255,392.80808080808094 144.88888888888903,402.3434343434344 135.35353535353545,411.87878787878793 125.81818181818193,421.4141414141415 116.28282828282829,430.94949494949503 106.74747474747483,440.4848484848486 116.28282828282829,450.0202020202021 116.28282828282829,459.5555555555556 116.28282828282829,469.0909090909092 116.28282828282829,478.6262626262627 116.28282828282829,488.1616161616163 116.28282828282829,497.69696969696975 116.28282828282829,507.23232323232327 116.28282828282829,516.7676767676768 116.28282828282829,526.3030303030304 116.28282828282829,535.838383838384 116.28282828282829,545.3737373737374 116.28282828282829,554.909090909091 116.28282828282829,564.4444444444445 116.28282828282829,573.979797979798 116.28282828282829,583.5151515151516 116.28282828282829,593.0505050505051 116.28282828282829,602.5858585858587 116.28282828282829,612.1212121212121 116.28282828282829,621.6565656565657 116.28282828282829,631.1919191919193 116.28282828282829,640.7272727272727 116.28282828282829,650.2626262626263 116.28282828282829,659.7979797979798 116.28282828282829,669.3333333333334 116.28282828282829,678.8686868686868 116.28282828282829,688.4040404040404 116.28282828282829,697.939393939394 116.28282828282829,707.4747474747475 116.28282828282829,717.010101010101 116.28282828282829,726.5454545454545 116.28282828282829,736.0808080808081 116.28282828282829,745.6161616161615 116.28282828282829,755.1515151515151 116.28282828282829,764.6868686868687 116.28282828282829,774.2222222222222 116.28282828282829,783.7575757575758 116.28282828282829,793.2929292929292 116.28282828282829,802.8282828282828 116.28282828282829,812.3636363636363 116.28282828282829,821.8989898989898 116.28282828282829,831.4343434343434 116.28282828282829,840.969696969697 116.28282828282829,850.5050505050505 116.28282828282829,860.0404040404039 116.28282828282829,869.5757575757575 116.28282828282829,879.1111111111111 116.28282828282829,888.6464646464647 125.81818181818193,898.1818181818181 135.35353535353545,907.7171717171718 144.88888888888903,917.2525252525252 154.42424242424255,926.7878787878788 163.95959595959607,936.3232323232323 173.4949494949496,945.8585858585858 183.03030303030312,955.3939393939394 192.5656565656567,964.9292929292928 202.10101010101022,974.4646464646464 211.63636363636374,984 221.17171717171726,984 230.70707070707084,984 240.2424242424243,984 249.77777777777783,984 259.3131313131314,984 268.84848484848493,984 278.38383838383845,984 287.91919191919203,984 297.4545454545455,984 306.9898989898991,984 316.5252525252526,984 326.0606060606061,984 335.59595959595964,984 345.13131313131316,984 354.6666666666667,984 364.2020202020202,984 373.7373737373738,984 383.2727272727273,984 392.80808080808083,984 402.34343434343435,984 411.8787878787879,984 421.4141414141414,984 430.949494949495,984 440.4848484848485,984 450.0202020202021,984 459.55555555555554,984 469.09090909090907,984 478.62626262626264,984 488.16161616161617,984 497.69696969696975,984 507.2323232323232,984 516.7676767676768,984 526.3030303030303,984 535.8383838383838,984 545.3737373737374,984 554.9090909090909,984 564.4444444444445,984 573.9797979797979,984 583.5151515151515,984 593.0505050505051,984 602.5858585858585,984 612.1212121212121,984 621.6565656565656,984 631.1919191919192,984 640.7272727272727,984 650.2626262626262,984 659.7979797979798,984 669.3333333333333,984 678.8686868686868,984 688.4040404040404,984 697.9393939393939,984 707.4747474747475,984 717.0101010101009,984 726.5454545454545,984 736.0808080808081,984 745.6161616161615,984 755.1515151515151,984 764.6868686868686,984 774.2222222222222,984 783.7575757575758,984 793.2929292929292,984 802.8282828282828,984 812.3636363636363,984 821.8989898989898,984 831.4343434343433,984 840.969696969697,984 850.5050505050505,984 860.0404040404039,984 869.5757575757575,984 879.111111111111,984 888.6464646464647,984 898.181818181818,984 907.7171717171716,984 917.2525252525251,984 926.7878787878785,984 936.3232323232323,984 945.8585858585857,984 955.3939393939393,984 964.9292929292927,984 974.4646464646464,984" fill="none" stroke="rgba(255,0,0,0.75)" stroke-width="11.327999999999996"/></g><g><polyline data-points="-0.7575757575757572,-5.000000000000001 -0.6565656565656557,-4.898989898989899 -0.555555555555555,-4.7979797979797985 -0.4545454545454544,-4.696969696969697 -0.35353535353535287,-4.595959595959596 -0.2525252525252522,-4.494949494949496 -0.15151515151515066,-4.393939393939394 -0.15151515151515066,-4.292929292929293 -0.15151515151515066,-4.191919191919193 -0.15151515151515066,-4.090909090909091 -0.15151515151515066,-3.98989898989899 -0.15151515151515066,-3.8888888888888884 -0.05050505050505001,-3.7878787878787876 0.050505050505051545,-3.6868686868686864 0.1515151515151522,-3.5858585858585856" data-type="line" data-label="" points="440.4848484848485,984 450.0202020202021,974.4646464646464 459.55555555555554,964.9292929292928 469.09090909090907,955.3939393939394 478.62626262626264,945.8585858585858 488.16161616161617,936.3232323232323 497.69696969696975,926.7878787878788 497.69696969696975,917.2525252525252 497.69696969696975,907.7171717171718 497.69696969696975,898.1818181818181 497.69696969696975,888.6464646464647 497.69696969696975,879.1111111111111 507.2323232323232,869.5757575757575 516.7676767676768,860.0404040404039 526.3030303030303,850.5050505050505" fill="none" stroke="rgba(0,0,255,0.75)" stroke-width="11.327999999999996"/></g><g><polyline data-points="0.1515151515151522,-3.5858585858585856 0.050505050505051545,-3.484848484848485 -0.05050505050505001,-3.383838383838383 -0.15151515151515066,-3.2828282828282824 -0.15151515151515066,-3.1818181818181817 -0.15151515151515066,-3.0808080808080804 -0.15151515151515066,-2.9797979797979792 -0.15151515151515066,-2.8787878787878785 -0.15151515151515066,-2.7777777777777777 -0.15151515151515066,-2.6767676767676765 -0.15151515151515066,-2.5757575757575752 -0.15151515151515066,-2.474747474747474 -0.15151515151515066,-2.3737373737373733 -0.15151515151515066,-2.2727272727272725 -0.15151515151515066,-2.1717171717171713 -0.15151515151515066,-2.07070707070707 -0.15151515151515066,-1.9696969696969693 -0.15151515151515066,-1.8686868686868683 -0.15151515151515066,-1.7676767676767675 -0.15151515151515066,-1.6666666666666665 -0.15151515151515066,-1.5656565656565653 -0.15151515151515066,-1.4646464646464643 -0.15151515151515066,-1.363636363636363 -0.15151515151515066,-1.2626262626262625 -0.15151515151515066,-1.1616161616161613 -0.15151515151515066,-1.0606060606060603 -0.15151515151515066,-0.9595959595959596 -0.15151515151515066,-0.8585858585858579 -0.15151515151515066,-0.7575757575757572 -0.15151515151515066,-0.6565656565656557 -0.15151515151515066,-0.555555555555555 -0.15151515151515066,-0.4545454545454544 -0.15151515151515066,-0.35353535353535287 -0.15151515151515066,-0.2525252525252522 -0.15151515151515066,-0.15151515151515066 -0.15151515151515066,-0.05050505050505001 -0.15151515151515066,0.050505050505051545 -0.15151515151515066,0.1515151515151522 -0.15151515151515066,0.2525252525252529 -0.15151515151515066,0.3535353535353544" data-type="line" data-label="" points="526.3030303030303,850.5050505050505 516.7676767676768,840.969696969697 507.2323232323232,831.4343434343434 497.69696969696975,821.8989898989898 497.69696969696975,812.3636363636363 497.69696969696975,802.8282828282828 497.69696969696975,793.2929292929292 497.69696969696975,783.7575757575758 497.69696969696975,774.2222222222222 497.69696969696975,764.6868686868687 497.69696969696975,755.1515151515151 497.69696969696975,745.6161616161615 497.69696969696975,736.0808080808081 497.69696969696975,726.5454545454545 497.69696969696975,717.010101010101 497.69696969696975,707.4747474747475 497.69696969696975,697.939393939394 497.69696969696975,688.4040404040404 497.69696969696975,678.8686868686868 497.69696969696975,669.3333333333334 497.69696969696975,659.7979797979798 497.69696969696975,650.2626262626263 497.69696969696975,640.7272727272727 497.69696969696975,631.1919191919193 497.69696969696975,621.6565656565657 497.69696969696975,612.1212121212121 497.69696969696975,602.5858585858587 497.69696969696975,593.0505050505051 497.69696969696975,583.5151515151516 497.69696969696975,573.979797979798 497.69696969696975,564.4444444444445 497.69696969696975,554.909090909091 497.69696969696975,545.3737373737374 497.69696969696975,535.838383838384 497.69696969696975,526.3030303030304 497.69696969696975,516.7676767676768 497.69696969696975,507.23232323232327 497.69696969696975,497.69696969696975 497.69696969696975,488.1616161616163 497.69696969696975,478.6262626262627" fill="none" stroke="rgba(255,0,0,0.75)" stroke-width="11.327999999999996"/></g><g><polyline data-points="-0.15151515151515066,0.3535353535353544 -0.15151515151515066,0.4545454545454551 -0.15151515151515066,0.5555555555555567 -0.15151515151515066,0.6565656565656574 -0.15151515151515066,0.7575757575757579 -0.15151515151515066,0.8585858585858596 -0.15151515151515066,0.9595959595959602 -0.15151515151515066,1.0606060606060617 -0.15151515151515066,1.1616161616161622 -0.15151515151515066,1.262626262626263 -0.15151515151515066,1.3636363636363644 -0.15151515151515066,1.4646464646464652 -0.15151515151515066,1.5656565656565666 -0.15151515151515066,1.6666666666666674 -0.15151515151515066,1.767676767676768 -0.15151515151515066,1.8686868686868696 -0.15151515151515066,1.9696969696969702 -0.15151515151515066,2.070707070707072 -0.15151515151515066,2.1717171717171726 -0.15151515151515066,2.2727272727272734 -0.15151515151515066,2.373737373737375 -0.15151515151515066,2.4747474747474754 -0.15151515151515066,2.575757575757577 -0.15151515151515066,2.676767676767678 -0.15151515151515066,2.7777777777777786 -0.15151515151515066,2.87878787878788 -0.15151515151515066,2.9797979797979806 -0.15151515151515066,3.080808080808082 -0.15151515151515066,3.181818181818183 -0.15151515151515066,3.2828282828282833 -0.15151515151515066,3.383838383838384 -0.15151515151515066,3.4848484848484866 -0.15151515151515066,3.5858585858585874 -0.15151515151515066,3.6868686868686877 -0.15151515151515066,3.7878787878787885 -0.15151515151515066,3.8888888888888893 -0.15151515151515066,3.989898989898992" data-type="line" data-label="" points="497.69696969696975,478.6262626262627 497.69696969696975,469.0909090909092 497.69696969696975,459.5555555555556 497.69696969696975,450.0202020202021 497.69696969696975,440.4848484848486 497.69696969696975,430.94949494949503 497.69696969696975,421.4141414141415 497.69696969696975,411.87878787878793 497.69696969696975,402.3434343434344 497.69696969696975,392.80808080808094 497.69696969696975,383.27272727272737 497.69696969696975,373.73737373737384 497.69696969696975,364.2020202020203 497.69696969696975,354.66666666666674 497.69696969696975,345.1313131313133 497.69696969696975,335.5959595959597 497.69696969696975,326.06060606060623 497.69696969696975,316.5252525252526 497.69696969696975,306.9898989898991 497.69696969696975,297.4545454545456 497.69696969696975,287.91919191919203 497.69696969696975,278.38383838383857 497.69696969696975,268.84848484848493 497.69696969696975,259.3131313131314 497.69696969696975,249.77777777777794 497.69696969696975,240.24242424242436 497.69696969696975,230.70707070707084 497.69696969696975,221.17171717171726 497.69696969696975,211.63636363636374 497.69696969696975,202.10101010101027 497.69696969696975,192.56565656565675 497.69696969696975,183.03030303030312 497.69696969696975,173.4949494949496 497.69696969696975,163.95959595959613 497.69696969696975,154.4242424242426 497.69696969696975,144.88888888888908 497.69696969696975,135.35353535353545" fill="none" stroke="rgba(0,0,255,0.75)" stroke-width="11.327999999999996"/></g><g><polyline data-points="-0.15151515151515066,3.989898989898992 -0.15151515151515066,4.090909090909092 -0.15151515151515066,4.191919191919193 -0.15151515151515066,4.292929292929293 -0.15151515151515066,4.393939393939394 -0.15151515151515066,4.494949494949497 -0.15151515151515066,4.595959595959597 -0.15151515151515066,4.696969696969697 -0.15151515151515066,4.7979797979797985 -0.15151515151515066,4.898989898989901 -0.15151515151515066,5.000000000000002" data-type="line" data-label="" points="497.69696969696975,135.35353535353545 497.69696969696975,125.81818181818198 497.69696969696975,116.28282828282846 497.69696969696975,106.747474747475 497.69696969696975,97.21212121212153 497.69696969696975,87.67676767676778 497.69696969696975,78.14141414141432 497.69696969696975,68.60606060606085 497.69696969696975,59.07070707070733 497.69696969696975,49.53535353535369 497.69696969696975,40.000000000000114" fill="none" stroke="rgba(255,0,0,0.75)" stroke-width="11.327999999999996"/></g><g><polyline data-points="-4.7979797979797985,-5.000000000000001 -4.696969696969697,-4.898989898989899 -4.595959595959596,-4.7979797979797985 -4.595959595959596,-4.696969696969697 -4.595959595959596,-4.595959595959596 -4.595959595959596,-4.494949494949496 -4.595959595959596,-4.393939393939394 -4.595959595959596,-4.292929292929293 -4.595959595959596,-4.191919191919193 -4.595959595959596,-4.090909090909091 -4.595959595959596,-3.98989898989899 -4.595959595959596,-3.8888888888888884 -4.595959595959596,-3.7878787878787876 -4.494949494949496,-3.6868686868686864 -4.494949494949496,-3.5858585858585856 -4.494949494949496,-3.484848484848485 -4.494949494949496,-3.383838383838383 -4.494949494949496,-3.2828282828282824 -4.494949494949496,-3.1818181818181817 -4.494949494949496,-3.0808080808080804 -4.494949494949496,-2.9797979797979792 -4.494949494949496,-2.8787878787878785 -4.494949494949496,-2.7777777777777777 -4.494949494949496,-2.6767676767676765 -4.494949494949496,-2.5757575757575752 -4.494949494949496,-2.474747474747474 -4.494949494949496,-2.3737373737373733 -4.494949494949496,-2.2727272727272725 -4.494949494949496,-2.1717171717171713 -4.494949494949496,-2.07070707070707 -4.494949494949496,-1.9696969696969693 -4.494949494949496,-1.8686868686868683 -4.494949494949496,-1.7676767676767675 -4.494949494949496,-1.6666666666666665 -4.494949494949496,-1.5656565656565653 -4.494949494949496,-1.4646464646464643 -4.494949494949496,-1.363636363636363 -4.494949494949496,-1.2626262626262625 -4.494949494949496,-1.1616161616161613 -4.494949494949496,-1.0606060606060603 -4.494949494949496,-0.9595959595959596 -4.494949494949496,-0.8585858585858579 -4.494949494949496,-0.7575757575757572 -4.494949494949496,-0.6565656565656557 -4.494949494949496,-0.555555555555555 -4.494949494949496,-0.4545454545454544 -4.494949494949496,-0.35353535353535287 -4.494949494949496,-0.2525252525252522 -4.494949494949496,-0.15151515151515066 -4.494949494949496,-0.05050505050505001 -4.494949494949496,0.050505050505051545 -4.494949494949496,0.1515151515151522 -4.494949494949496,0.2525252525252529 -4.494949494949496,0.3535353535353544 -4.494949494949496,0.4545454545454551 -4.494949494949496,0.5555555555555567 -4.494949494949496,0.6565656565656574 -4.494949494949496,0.7575757575757579 -4.494949494949496,0.8585858585858596 -4.393939393939394,0.9595959595959602 -4.292929292929293,1.0606060606060617 -4.191919191919193,1.1616161616161622 -4.090909090909091,1.262626262626263 -3.98989898989899,1.3636363636363644 -3.98989898989899,1.4646464646464652 -3.98989898989899,1.5656565656565666" data-type="line" data-label="" points="59.07070707070716,984 68.60606060606068,974.4646464646464 78.14141414141426,964.9292929292928 78.14141414141426,955.3939393939394 78.14141414141426,945.8585858585858 78.14141414141426,936.3232323232323 78.14141414141426,926.7878787878788 78.14141414141426,917.2525252525252 78.14141414141426,907.7171717171718 78.14141414141426,898.1818181818181 78.14141414141426,888.6464646464647 78.14141414141426,879.1111111111111 78.14141414141426,869.5757575757575 87.67676767676772,860.0404040404039 87.67676767676772,850.5050505050505 87.67676767676772,840.969696969697 87.67676767676772,831.4343434343434 87.67676767676772,821.8989898989898 87.67676767676772,812.3636363636363 87.67676767676772,802.8282828282828 87.67676767676772,793.2929292929292 87.67676767676772,783.7575757575758 87.67676767676772,774.2222222222222 87.67676767676772,764.6868686868687 87.67676767676772,755.1515151515151 87.67676767676772,745.6161616161615 87.67676767676772,736.0808080808081 87.67676767676772,726.5454545454545 87.67676767676772,717.010101010101 87.67676767676772,707.4747474747475 87.67676767676772,697.939393939394 87.67676767676772,688.4040404040404 87.67676767676772,678.8686868686868 87.67676767676772,669.3333333333334 87.67676767676772,659.7979797979798 87.67676767676772,650.2626262626263 87.67676767676772,640.7272727272727 87.67676767676772,631.1919191919193 87.67676767676772,621.6565656565657 87.67676767676772,612.1212121212121 87.67676767676772,602.5858585858587 87.67676767676772,593.0505050505051 87.67676767676772,583.5151515151516 87.67676767676772,573.979797979798 87.67676767676772,564.4444444444445 87.67676767676772,554.909090909091 87.67676767676772,545.3737373737374 87.67676767676772,535.838383838384 87.67676767676772,526.3030303030304 87.67676767676772,516.7676767676768 87.67676767676772,507.23232323232327 87.67676767676772,497.69696969696975 87.67676767676772,488.1616161616163 87.67676767676772,478.6262626262627 87.67676767676772,469.0909090909092 87.67676767676772,459.5555555555556 87.67676767676772,450.0202020202021 87.67676767676772,440.4848484848486 87.67676767676772,430.94949494949503 97.21212121212136,421.4141414141415 106.74747474747483,411.87878787878793 116.28282828282829,402.3434343434344 125.81818181818193,392.80808080808094 135.35353535353545,383.27272727272737 135.35353535353545,373.73737373737384 135.35353535353545,364.2020202020203" fill="none" stroke="rgba(255,0,0,0.75)" stroke-width="11.327999999999996"/></g><g><polyline data-points="-3.98989898989899,1.5656565656565666 -3.8888888888888884,1.4646464646464652 -3.7878787878787876,1.3636363636363644 -3.6868686868686864,1.262626262626263 -3.5858585858585856,1.1616161616161622 -3.484848484848485,1.0606060606060617 -3.383838383838383,0.9595959595959602 -3.2828282828282824,0.8585858585858596 -3.1818181818181817,0.7575757575757579 -3.0808080808080804,0.6565656565656574 -2.9797979797979792,0.5555555555555567 -2.8787878787878785,0.4545454545454551 -2.7777777777777777,0.3535353535353544 -2.6767676767676765,0.2525252525252529 -2.5757575757575752,0.1515151515151522 -2.474747474747474,0.050505050505051545 -2.3737373737373733,-0.05050505050505001 -2.2727272727272725,-0.15151515151515066 -2.1717171717171713,-0.2525252525252522 -2.07070707070707,-0.35353535353535287 -1.9696969696969693,-0.4545454545454544 -1.8686868686868683,-0.555555555555555 -1.7676767676767675,-0.6565656565656557 -1.6666666666666665,-0.7575757575757572 -1.5656565656565653,-0.8585858585858579 -1.4646464646464643,-0.9595959595959596 -1.363636363636363,-1.0606060606060603 -1.2626262626262625,-1.1616161616161613 -1.1616161616161613,-1.2626262626262625 -1.0606060606060603,-1.363636363636363 -0.9595959595959596,-1.4646464646464643 -0.8585858585858579,-1.5656565656565653 -0.7575757575757572,-1.6666666666666665 -0.6565656565656557,-1.7676767676767675 -0.555555555555555,-1.8686868686868683 -0.4545454545454544,-1.9696969696969693 -0.35353535353535287,-2.07070707070707 -0.2525252525252522,-2.1717171717171713 -0.15151515151515066,-2.2727272727272725 -0.05050505050505001,-2.3737373737373733 0.050505050505051545,-2.474747474747474 0.1515151515151522,-2.474747474747474 0.2525252525252529,-2.474747474747474" data-type="line" data-label="" points="135.35353535353545,364.2020202020203 144.88888888888903,373.73737373737384 154.42424242424255,383.27272727272737 163.95959595959607,392.80808080808094 173.4949494949496,402.3434343434344 183.03030303030312,411.87878787878793 192.5656565656567,421.4141414141415 202.10101010101022,430.94949494949503 211.63636363636374,440.4848484848486 221.17171717171726,450.0202020202021 230.70707070707084,459.5555555555556 240.2424242424243,469.0909090909092 249.77777777777783,478.6262626262627 259.3131313131314,488.1616161616163 268.84848484848493,497.69696969696975 278.38383838383845,507.23232323232327 287.91919191919203,516.7676767676768 297.4545454545455,526.3030303030304 306.9898989898991,535.838383838384 316.5252525252526,545.3737373737374 326.0606060606061,554.909090909091 335.59595959595964,564.4444444444445 345.13131313131316,573.979797979798 354.6666666666667,583.5151515151516 364.2020202020202,593.0505050505051 373.7373737373738,602.5858585858587 383.2727272727273,612.1212121212121 392.80808080808083,621.6565656565657 402.34343434343435,631.1919191919193 411.8787878787879,640.7272727272727 421.4141414141414,650.2626262626263 430.949494949495,659.7979797979798 440.4848484848485,669.3333333333334 450.0202020202021,678.8686868686868 459.55555555555554,688.4040404040404 469.09090909090907,697.939393939394 478.62626262626264,707.4747474747475 488.16161616161617,717.010101010101 497.69696969696975,726.5454545454545 507.2323232323232,736.0808080808081 516.7676767676768,745.6161616161615 526.3030303030303,745.6161616161615 535.8383838383838,745.6161616161615" fill="none" stroke="rgba(0,0,255,0.75)" stroke-width="11.327999999999996"/></g><g><polyline data-points="0.2525252525252529,-2.474747474747474 0.3535353535353544,-2.5757575757575752 0.4545454545454551,-2.6767676767676765 0.5555555555555567,-2.7777777777777777 0.6565656565656574,-2.8787878787878785 0.7575757575757579,-2.9797979797979792 0.8585858585858596,-3.0808080808080804 0.9595959595959602,-3.1818181818181817 1.0606060606060617,-3.2828282828282824 1.1616161616161622,-3.383838383838383 1.262626262626263,-3.484848484848485 1.3636363636363644,-3.5858585858585856" data-type="line" data-label="" points="535.8383838383838,745.6161616161615 545.3737373737374,755.1515151515151 554.9090909090909,764.6868686868687 564.4444444444445,774.2222222222222 573.9797979797979,783.7575757575758 583.5151515151515,793.2929292929292 593.0505050505051,802.8282828282828 602.5858585858585,812.3636363636363 612.1212121212121,821.8989898989898 621.6565656565656,831.4343434343434 631.1919191919192,840.969696969697 640.7272727272727,850.5050505050505" fill="none" stroke="rgba(255,0,0,0.75)" stroke-width="11.327999999999996"/></g><g><polyline data-points="1.3636363636363644,-3.5858585858585856 1.4646464646464652,-3.6868686868686864 1.5656565656565666,-3.7878787878787876 1.6666666666666674,-3.8888888888888884 1.767676767676768,-3.98989898989899 1.767676767676768,-4.090909090909091 1.767676767676768,-4.191919191919193 1.767676767676768,-4.292929292929293 1.767676767676768,-4.393939393939394 1.767676767676768,-4.494949494949496 1.767676767676768,-4.595959595959596 1.767676767676768,-4.696969696969697 1.767676767676768,-4.7979797979797985 1.767676767676768,-4.898989898989899 1.767676767676768,-5.000000000000001" data-type="line" data-label="" points="640.7272727272727,850.5050505050505 650.2626262626262,860.0404040404039 659.7979797979798,869.5757575757575 669.3333333333333,879.1111111111111 678.8686868686868,888.6464646464647 678.8686868686868,898.1818181818181 678.8686868686868,907.7171717171718 678.8686868686868,917.2525252525252 678.8686868686868,926.7878787878788 678.8686868686868,936.3232323232323 678.8686868686868,945.8585858585858 678.8686868686868,955.3939393939394 678.8686868686868,964.9292929292928 678.8686868686868,974.4646464646464 678.8686868686868,984" fill="none" stroke="rgba(0,0,255,0.75)" stroke-width="11.327999999999996"/></g><g><polyline data-points="-2.6767676767676765,-5.000000000000001 -2.5757575757575752,-4.898989898989899 -2.474747474747474,-4.7979797979797985 -2.3737373737373733,-4.696969696969697 -2.2727272727272725,-4.595959595959596 -2.1717171717171713,-4.494949494949496 -2.07070707070707,-4.393939393939394 -1.9696969696969693,-4.292929292929293 -1.8686868686868683,-4.191919191919193 -1.7676767676767675,-4.090909090909091 -1.6666666666666665,-3.98989898989899 -1.5656565656565653,-3.8888888888888884 -1.4646464646464643,-3.7878787878787876 -1.363636363636363,-3.6868686868686864 -1.2626262626262625,-3.5858585858585856 -1.1616161616161613,-3.484848484848485 -1.0606060606060603,-3.383838383838383 -0.9595959595959596,-3.2828282828282824 -0.8585858585858579,-3.1818181818181817 -0.7575757575757572,-3.0808080808080804 -0.6565656565656557,-2.9797979797979792 -0.555555555555555,-2.8787878787878785 -0.555555555555555,-2.7777777777777777 -0.555555555555555,-2.6767676767676765 -0.555555555555555,-2.5757575757575752 -0.555555555555555,-2.474747474747474 -0.555555555555555,-2.3737373737373733" data-type="line" data-label="" points="259.3131313131314,984 268.84848484848493,974.4646464646464 278.38383838383845,964.9292929292928 287.91919191919203,955.3939393939394 297.4545454545455,945.8585858585858 306.9898989898991,936.3232323232323 316.5252525252526,926.7878787878788 326.0606060606061,917.2525252525252 335.59595959595964,907.7171717171718 345.13131313131316,898.1818181818181 354.6666666666667,888.6464646464647 364.2020202020202,879.1111111111111 373.7373737373738,869.5757575757575 383.2727272727273,860.0404040404039 392.80808080808083,850.5050505050505 402.34343434343435,840.969696969697 411.8787878787879,831.4343434343434 421.4141414141414,821.8989898989898 430.949494949495,812.3636363636363 440.4848484848485,802.8282828282828 450.0202020202021,793.2929292929292 459.55555555555554,783.7575757575758 459.55555555555554,774.2222222222222 459.55555555555554,764.6868686868687 459.55555555555554,755.1515151515151 459.55555555555554,745.6161616161615 459.55555555555554,736.0808080808081" fill="none" stroke="rgba(0,0,255,0.75)" stroke-width="11.327999999999996"/></g><g><polyline data-points="-0.555555555555555,-2.3737373737373733 -0.555555555555555,-2.2727272727272725 -0.555555555555555,-2.1717171717171713 -0.555555555555555,-2.07070707070707 -0.555555555555555,-1.9696969696969693 -0.555555555555555,-1.8686868686868683 -0.555555555555555,-1.7676767676767675 -0.555555555555555,-1.6666666666666665 -0.555555555555555,-1.5656565656565653 -0.555555555555555,-1.4646464646464643 -0.555555555555555,-1.363636363636363" data-type="line" data-label="" points="459.55555555555554,736.0808080808081 459.55555555555554,726.5454545454545 459.55555555555554,717.010101010101 459.55555555555554,707.4747474747475 459.55555555555554,697.939393939394 459.55555555555554,688.4040404040404 459.55555555555554,678.8686868686868 459.55555555555554,669.3333333333334 459.55555555555554,659.7979797979798 459.55555555555554,650.2626262626263 459.55555555555554,640.7272727272727" fill="none" stroke="rgba(255,0,0,0.75)" stroke-width="11.327999999999996"/></g><g><polyline data-points="-0.555555555555555,-1.363636363636363 -0.4545454545454544,-1.2626262626262625 -0.35353535353535287,-1.1616161616161613 -0.2525252525252522,-1.0606060606060603 -0.15151515151515066,-1.0606060606060603 -0.05050505050505001,-1.0606060606060603 0.050505050505051545,-1.0606060606060603 0.1515151515151522,-1.0606060606060603 0.2525252525252529,-1.0606060606060603" data-type="line" data-label="" points="459.55555555555554,640.7272727272727 469.09090909090907,631.1919191919193 478.62626262626264,621.6565656565657 488.16161616161617,612.1212121212121 497.69696969696975,612.1212121212121 507.2323232323232,612.1212121212121 516.7676767676768,612.1212121212121 526.3030303030303,612.1212121212121 535.8383838383838,612.1212121212121" fill="none" stroke="rgba(0,0,255,0.75)" stroke-width="11.327999999999996"/></g><g><polyline data-points="0.2525252525252529,-1.0606060606060603 0.3535353535353544,-0.9595959595959596 0.4545454545454551,-0.8585858585858579 0.5555555555555567,-0.7575757575757572 0.6565656565656574,-0.6565656565656557 0.7575757575757579,-0.555555555555555 0.8585858585858596,-0.4545454545454544 0.9595959595959602,-0.35353535353535287 1.0606060606060617,-0.2525252525252522 1.1616161616161622,-0.15151515151515066 1.262626262626263,-0.05050505050505001 1.3636363636363644,0.050505050505051545 1.4646464646464652,0.1515151515151522 1.5656565656565666,0.2525252525252529 1.6666666666666674,0.3535353535353544 1.767676767676768,0.4545454545454551 1.8686868686868696,0.5555555555555567 1.9696969696969702,0.6565656565656574 2.070707070707072,0.6565656565656574" data-type="line" data-label="" points="535.8383838383838,612.1212121212121 545.3737373737374,602.5858585858587 554.9090909090909,593.0505050505051 564.4444444444445,583.5151515151516 573.9797979797979,573.979797979798 583.5151515151515,564.4444444444445 593.0505050505051,554.909090909091 602.5858585858585,545.3737373737374 612.1212121212121,535.838383838384 621.6565656565656,526.3030303030304 631.1919191919192,516.7676767676768 640.7272727272727,507.23232323232327 650.2626262626262,497.69696969696975 659.7979797979798,488.1616161616163 669.3333333333333,478.6262626262627 678.8686868686868,469.0909090909092 688.4040404040404,459.5555555555556 697.9393939393939,450.0202020202021 707.4747474747475,450.0202020202021" fill="none" stroke="rgba(255,0,0,0.75)" stroke-width="11.327999999999996"/></g><g><polyline data-points="2.070707070707072,0.6565656565656574 2.070707070707072,0.7575757575757579 2.070707070707072,0.8585858585858596 2.070707070707072,0.9595959595959602 2.070707070707072,1.0606060606060617 2.070707070707072,1.1616161616161622 2.070707070707072,1.262626262626263 2.070707070707072,1.3636363636363644 2.070707070707072,1.4646464646464652 2.070707070707072,1.5656565656565666 2.070707070707072,1.6666666666666674 2.070707070707072,1.767676767676768 2.070707070707072,1.8686868686868696 2.070707070707072,1.9696969696969702 2.070707070707072,2.070707070707072 2.070707070707072,2.1717171717171726 2.070707070707072,2.2727272727272734 2.070707070707072,2.373737373737375 2.070707070707072,2.4747474747474754 2.070707070707072,2.575757575757577 2.070707070707072,2.676767676767678 2.070707070707072,2.7777777777777786 2.070707070707072,2.87878787878788 2.070707070707072,2.9797979797979806" data-type="line" data-label="" points="707.4747474747475,450.0202020202021 707.4747474747475,440.4848484848486 707.4747474747475,430.94949494949503 707.4747474747475,421.4141414141415 707.4747474747475,411.87878787878793 707.4747474747475,402.3434343434344 707.4747474747475,392.80808080808094 707.4747474747475,383.27272727272737 707.4747474747475,373.73737373737384 707.4747474747475,364.2020202020203 707.4747474747475,354.66666666666674 707.4747474747475,345.1313131313133 707.4747474747475,335.5959595959597 707.4747474747475,326.06060606060623 707.4747474747475,316.5252525252526 707.4747474747475,306.9898989898991 707.4747474747475,297.4545454545456 707.4747474747475,287.91919191919203 707.4747474747475,278.38383838383857 707.4747474747475,268.84848484848493 707.4747474747475,259.3131313131314 707.4747474747475,249.77777777777794 707.4747474747475,240.24242424242436 707.4747474747475,230.70707070707084" fill="none" stroke="rgba(0,0,255,0.75)" stroke-width="11.327999999999996"/></g><g><polyline data-points="2.070707070707072,2.9797979797979806 2.1717171717171726,3.080808080808082 2.2727272727272734,3.181818181818183 2.373737373737375,3.2828282828282833 2.4747474747474754,3.383838383838384 2.575757575757577,3.4848484848484866 2.676767676767678,3.5858585858585874 2.7777777777777786,3.6868686868686877 2.87878787878788,3.7878787878787885 2.9797979797979806,3.8888888888888893 3.080808080808082,3.989898989898992" data-type="line" data-label="" points="707.4747474747475,230.70707070707084 717.0101010101009,221.17171717171726 726.5454545454545,211.63636363636374 736.0808080808081,202.10101010101027 745.6161616161615,192.56565656565675 755.1515151515151,183.03030303030312 764.6868686868686,173.4949494949496 774.2222222222222,163.95959595959613 783.7575757575758,154.4242424242426 793.2929292929292,144.88888888888908 802.8282828282828,135.35353535353545" fill="none" stroke="rgba(255,0,0,0.75)" stroke-width="11.327999999999996"/></g><g><polyline data-points="3.080808080808082,3.989898989898992 2.9797979797979806,4.090909090909092 2.87878787878788,4.191919191919193 2.7777777777777786,4.292929292929293 2.676767676767678,4.393939393939394 2.575757575757577,4.494949494949497 2.4747474747474754,4.595959595959597 2.373737373737375,4.696969696969697 2.2727272727272734,4.7979797979797985 2.1717171717171726,4.898989898989901 2.070707070707072,5.000000000000002" data-type="line" data-label="" points="802.8282828282828,135.35353535353545 793.2929292929292,125.81818181818198 783.7575757575758,116.28282828282846 774.2222222222222,106.747474747475 764.6868686868686,97.21212121212153 755.1515151515151,87.67676767676778 745.6161616161615,78.14141414141432 736.0808080808081,68.60606060606085 726.5454545454545,59.07070707070733 717.0101010101009,49.53535353535369 707.4747474747475,40.000000000000114" fill="none" stroke="rgba(0,0,255,0.75)" stroke-width="11.327999999999996"/></g><g><rect data-type="rect" data-label="" data-x="0" data-y="0" x="40.000000000000114" y="40.000000000000284" width="943.9999999999997" height="943.9999999999998" fill="none" stroke="gray" stroke-width="0.010593220338983056"/></g><g><rect data-type="rect" data-label="" data-x="0" data-y="0" x="40.000000000000114" y="40.000000000000284" width="943.9999999999997" height="943.9999999999998" fill="none" stroke="rgba(15, 23, 42, 0.8)" stroke-width="0.010593220338983056"/></g><circle data-type="circle" data-label="" data-x="3.989898989898992" data-y="-3.98989898989899" cx="888.6464646464647" cy="888.6464646464647" r="14.159999999999995" fill="rgba(0,0,0,0.3)" stroke="black" stroke-width="0.010593220338983056"/><circle data-type="circle" data-label="" data-x="3.989898989898992" data-y="3.080808080808082" cx="888.6464646464647" cy="221.17171717171726" r="14.159999999999995" fill="rgba(0,0,0,0.3)" stroke="black" stroke-width="0.010593220338983056"/><circle data-type="circle" data-label="" data-x="-3.98989898989899" data-y="0.7575757575757579" cx="135.35353535353545" cy="440.4848484848486" r="14.159999999999995" fill="rgba(0,0,0,0.3)" stroke="black" stroke-width="0.010593220338983056"/><circle data-type="circle" data-label="" data-x="-3.98989898989899" data-y="2.7777777777777786" cx="135.35353535353545" cy="249.77777777777794" r="14.159999999999995" fill="rgba(0,0,0,0.3)" stroke="black" stroke-width="0.010593220338983056"/><circle data-type="circle" data-label="" data-x="1.262626262626263" data-y="-2.07070707070707" cx="631.1919191919192" cy="707.4747474747475" r="14.159999999999995" fill="rgba(0,0,0,0.3)" stroke="black" stroke-width="0.010593220338983056"/><circle data-type="circle" data-label="" data-x="-3.8888888888888884" data-y="-3.98989898989899" cx="144.88888888888903" cy="888.6464646464647" r="14.159999999999995" fill="rgba(0,0,0,0.3)" stroke="black" stroke-width="0.010593220338983056"/><circle data-type="circle" data-label="" data-x="0.1515151515151522" data-y="-3.5858585858585856" cx="526.3030303030303" cy="850.5050505050505" r="14.159999999999995" fill="rgba(0,0,0,0.3)" stroke="black" stroke-width="0.010593220338983056"/><circle data-type="circle" data-label="" data-x="-0.15151515151515066" data-y="0.3535353535353544" cx="497.69696969696975" cy="478.6262626262627" r="14.159999999999995" fill="rgba(0,0,0,0.3)" stroke="black" stroke-width="0.010593220338983056"/><circle data-type="circle" data-label="" data-x="-0.15151515151515066" data-y="3.989898989898992" cx="497.69696969696975" cy="135.35353535353545" r="14.159999999999995" fill="rgba(0,0,0,0.3)" stroke="black" stroke-width="0.010593220338983056"/><circle data-type="circle" data-label="" data-x="-3.98989898989899" data-y="1.5656565656565666" cx="135.35353535353545" cy="364.2020202020203" r="14.159999999999995" fill="rgba(0,0,0,0.3)" stroke="black" stroke-width="0.010593220338983056"/><circle data-type="circle" data-label="" data-x="0.2525252525252529" data-y="-2.474747474747474" cx="535.8383838383838" cy="745.6161616161615" r="14.159999999999995" fill="rgba(0,0,0,0.3)" stroke="black" stroke-width="0.010593220338983056"/><circle data-type="circle" data-label="" data-x="1.3636363636363644" data-y="-3.5858585858585856" cx="640.7272727272727" cy="850.5050505050505" r="14.159999999999995" fill="rgba(0,0,0,0.3)" stroke="black" stroke-width="0.010593220338983056"/><circle data-type="circle" data-label="" data-x="-0.555555555555555" data-y="-2.3737373737373733" cx="459.55555555555554" cy="736.0808080808081" r="14.159999999999995" fill="rgba(0,0,0,0.3)" stroke="black" stroke-width="0.010593220338983056"/><circle data-type="circle" data-label="" data-x="-0.555555555555555" data-y="-1.363636363636363" cx="459.55555555555554" cy="640.7272727272727" r="14.159999999999995" fill="rgba(0,0,0,0.3)" stroke="black" stroke-width="0.010593220338983056"/><circle data-type="circle" data-label="" data-x="0.2525252525252529" data-y="-1.0606060606060603" cx="535.8383838383838" cy="612.1212121212121" r="14.159999999999995" fill="rgba(0,0,0,0.3)" stroke="black" stroke-width="0.010593220338983056"/><circle data-type="circle" data-label="" data-x="2.070707070707072" data-y="0.6565656565656574" cx="707.4747474747475" cy="450.0202020202021" r="14.159999999999995" fill="rgba(0,0,0,0.3)" stroke="black" stroke-width="0.010593220338983056"/><circle data-type="circle" data-label="" data-x="2.070707070707072" data-y="2.9797979797979806" cx="707.4747474747475" cy="230.70707070707084" r="14.159999999999995" fill="rgba(0,0,0,0.3)" stroke="black" stroke-width="0.010593220338983056"/><circle data-type="circle" data-label="" data-x="3.080808080808082" data-y="3.989898989898992" cx="802.8282828282828" cy="135.35353535353545" r="14.159999999999995" fill="rgba(0,0,0,0.3)" stroke="black" stroke-width="0.010593220338983056"/><g id="crosshair" style="display: none"><line id="crosshair-h" y1="0" y2="1024" stroke="#666" stroke-width="0.5"/><line id="crosshair-v" x1="0" x2="1024" stroke="#666" stroke-width="0.5"/><text id="coordinates" font-family="monospace" font-size="12" fill="#666"></text></g><script><![CDATA[
              document.currentScript.parentElement.addEventListener('mousemove', (e) => {
                const svg = e.currentTarget;
                const rect = svg.getBoundingClientRect();
                const x = e.clientX - rect.left;
                const y = e.clientY - rect.top;
                const crosshair = svg.getElementById('crosshair');
                const h = svg.getElementById('crosshair-h');
                const v = svg.getElementById('crosshair-v');
                const coords = svg.getElementById('coordinates');
                
                crosshair.style.display = 'block';
                h.setAttribute('x1', '0');
                h.setAttribute('x2', '1024');
                h.setAttribute('y1', y);
                h.setAttribute('y2', y);
                v.setAttribute('x1', x);
                v.setAttribute('x2', x);
                v.setAttribute('y1', '0');
                v.setAttribute('y2', '1024');

                // Calculate real coordinates using inverse transformation
                const matrix = {"a":94.39999999999996,"c":0,"e":511.99999999999994,"b":0,"d":-94.39999999999996,"f":512.0000000000001};
                // Manually invert and apply the affine transform
                // Since we only use translate and scale, we can directly compute:
                // x' = (x - tx) / sx
                // y' = (y - ty) / sy
                const sx = matrix.a;
                const sy = matrix.d;
                const tx = matrix.e; 
                const ty = matrix.f;
                const realPoint = {
                  x: (x - tx) / sx,
                  y: (y - ty) / sy // Flip y back since we used negative scale
                }
                
                coords.textContent = `(${realPoint.x.toFixed(2)}, ${realPoint.y.toFixed(2)})`;
                coords.setAttribute('x', (x + 5).toString());
                coords.setAttribute('y', (y - 5).toString());
              });
              document.currentScript.parentElement.addEventListener('mouseleave', () => {
                document.currentScript.parentElement.getElementById('crosshair').style.display = 'none';
              });
            ]]></script></svg>