<svg width="1024" height="1024" viewBox="0 0 1024 1024" xmlns="http://www.w3.org/2000/svg"><rect width="100%" height="100%" fill="white"/><g><circle data-type="point" data-label="conn_000" data-x="5" data-y="-1.6400000000000001" cx="983.9999999999998" cy="666.816" r="14.16" fill="red"/></g><g><circle data-type="point" data-label="conn_000" data-x="1.62" data-y="5" cx="664.9279999999999" cy="40.000000000000284" r="14.16" fill="blue"/></g><g><circle data-type="point" data-label="conn_001" data-x="-5" data-y="-0.7000000000000001" cx="40.000000000000114" cy="578.0800000000002" r="14.16" fill="blue"/></g><g><circle data-type="point" data-label="conn_001" data-x="5" data-y="-2.44" cx="983.9999999999998" cy="742.336" r="14.16" fill="blue"/></g><g><circle data-type="point" data-label="conn_002" data-x="0.74" data-y="5" cx="581.8559999999999" cy="40.000000000000284" r="14.16" fill="red"/></g><g><circle data-type="point" data-label="conn_002" data-x="3.94" data-y="-5" cx="883.9359999999998" cy="984" r="14.16" fill="red"/></g><g><circle data-type="point" data-label="conn_003" data-x="-3.2" data-y="-5" cx="209.92000000000007" cy="984" r="14.16" fill="red"/></g><g><circle data-type="point" data-label="conn_003" data-x="-0.24" data-y="5" cx="489.34399999999994" cy="40.000000000000284" r="14.16" fill="red"/></g><g><circle data-type="point" data-label="conn_004" data-x="1.92" data-y="-5" cx="693.2479999999998" cy="984" r="14.16" fill="red"/></g><g><circle data-type="point" data-label="conn_004" data-x="-4.92" data-y="5" cx="47.552000000000135" cy="40.000000000000284" r="14.16" fill="red"/></g><g><circle data-type="point" data-label="conn_005" data-x="0.26" data-y="5" cx="536.544" cy="40.000000000000284" r="14.16" fill="blue"/></g><g><circle data-type="point" data-label="conn_005" data-x="0.22" data-y="-5" cx="532.7679999999999" cy="984" r="14.16" fill="blue"/></g><g><polyline data-points="-5.000000000000001,-0.7575757575757572 -4.898989898989899,-0.8585858585858579 -4.7979797979797985,-0.9595959595959596 -4.696969696969697,-1.0606060606060603 -4.595959595959596,-1.1616161616161613 -4.494949494949496,-1.2626262626262625 -4.393939393939394,-1.363636363636363 -4.292929292929293,-1.4646464646464643 -4.191919191919193,-1.5656565656565653 -4.090909090909091,-1.6666666666666665 -3.98989898989899,-1.7676767676767675 -3.8888888888888884,-1.8686868686868683 -3.7878787878787876,-1.9696969696969693 -3.6868686868686864,-2.07070707070707 -3.5858585858585856,-2.1717171717171713 -3.484848484848485,-2.2727272727272725 -3.383838383838383,-2.3737373737373733 -3.2828282828282824,-2.474747474747474 -3.1818181818181817,-2.474747474747474 -3.0808080808080804,-2.474747474747474 -2.9797979797979792,-2.474747474747474 -2.8787878787878785,-2.474747474747474 -2.7777777777777777,-2.474747474747474 -2.6767676767676765,-2.474747474747474 -2.5757575757575752,-2.474747474747474 -2.474747474747474,-2.474747474747474 -2.3737373737373733,-2.474747474747474 -2.2727272727272725,-2.474747474747474 -2.1717171717171713,-2.474747474747474 -2.07070707070707,-2.474747474747474 -1.9696969696969693,-2.474747474747474 -1.8686868686868683,-2.474747474747474 -1.7676767676767675,-2.474747474747474 -1.6666666666666665,-2.474747474747474 -1.5656565656565653,-2.474747474747474 -1.4646464646464643,-2.474747474747474 -1.363636363636363,-2.474747474747474 -1.2626262626262625,-2.474747474747474 -1.1616161616161613,-2.474747474747474 -1.0606060606060603,-2.474747474747474 -0.9595959595959596,-2.474747474747474 -0.8585858585858579,-2.474747474747474 -0.7575757575757572,-2.474747474747474 -0.6565656565656557,-2.474747474747474 -0.555555555555555,-2.474747474747474 -0.4545454545454544,-2.474747474747474 -0.35353535353535287,-2.474747474747474 -0.2525252525252522,-2.474747474747474 -0.15151515151515066,-2.474747474747474 -0.05050505050505001,-2.474747474747474 0.050505050505051545,-2.474747474747474 0.1515151515151522,-2.474747474747474 0.2525252525252529,-2.474747474747474 0.3535353535353544,-2.474747474747474 0.4545454545454551,-2.474747474747474 0.5555555555555567,-2.474747474747474 0.6565656565656574,-2.474747474747474 0.7575757575757579,-2.474747474747474 0.8585858585858596,-2.474747474747474 0.9595959595959602,-2.474747474747474 1.0606060606060617,-2.474747474747474 1.1616161616161622,-2.474747474747474 1.262626262626263,-2.474747474747474 1.3636363636363644,-2.474747474747474 1.4646464646464652,-2.474747474747474 1.5656565656565666,-2.474747474747474 1.6666666666666674,-2.474747474747474 1.767676767676768,-2.474747474747474 1.8686868686868696,-2.474747474747474 1.9696969696969702,-2.474747474747474 2.070707070707072,-2.474747474747474 2.1717171717171726,-2.474747474747474 2.2727272727272734,-2.474747474747474 2.373737373737375,-2.474747474747474 2.4747474747474754,-2.474747474747474 2.575757575757577,-2.474747474747474 2.676767676767678,-2.474747474747474 2.7777777777777786,-2.474747474747474 2.87878787878788,-2.474747474747474 2.9797979797979806,-2.474747474747474 3.080808080808082,-2.474747474747474 3.181818181818183,-2.474747474747474 3.2828282828282833,-2.474747474747474 3.383838383838384,-2.474747474747474 3.4848484848484866,-2.474747474747474 3.5858585858585874,-2.474747474747474 3.6868686868686877,-2.474747474747474 3.7878787878787885,-2.474747474747474 3.8888888888888893,-2.474747474747474 3.989898989898992,-2.474747474747474 4.090909090909092,-2.474747474747474 4.191919191919193,-2.474747474747474 4.292929292929293,-2.474747474747474 4.393939393939394,-2.474747474747474 4.494949494949497,-2.474747474747474 4.595959595959597,-2.474747474747474 4.696969696969697,-2.474747474747474 4.7979797979797985,-2.474747474747474 4.898989898989901,-2.474747474747474 5.000000000000002,-2.474747474747474" data-type="line" data-label="" points="40.00000000000006,583.5151515151516 49.53535353535369,593.0505050505051 59.07070707070716,602.5858585858587 68.60606060606068,612.1212121212121 78.14141414141426,621.6565656565657 87.67676767676772,631.1919191919193 97.21212121212136,640.7272727272727 106.74747474747483,650.2626262626263 116.28282828282829,659.7979797979798 125.81818181818193,669.3333333333334 135.35353535353545,678.8686868686868 144.88888888888903,688.4040404040404 154.42424242424255,697.939393939394 163.95959595959607,707.4747474747475 173.4949494949496,717.010101010101 183.03030303030312,726.5454545454545 192.5656565656567,736.0808080808081 202.10101010101022,745.6161616161615 211.63636363636374,745.6161616161615 221.17171717171726,745.6161616161615 230.70707070707084,745.6161616161615 240.2424242424243,745.6161616161615 249.77777777777783,745.6161616161615 259.3131313131314,745.6161616161615 268.84848484848493,745.6161616161615 278.38383838383845,745.6161616161615 287.91919191919203,745.6161616161615 297.4545454545455,745.6161616161615 306.9898989898991,745.6161616161615 316.5252525252526,745.6161616161615 326.0606060606061,745.6161616161615 335.59595959595964,745.6161616161615 345.13131313131316,745.6161616161615 354.6666666666667,745.6161616161615 364.2020202020202,745.6161616161615 373.7373737373738,745.6161616161615 383.2727272727273,745.6161616161615 392.80808080808083,745.6161616161615 402.34343434343435,745.6161616161615 411.8787878787879,745.6161616161615 421.4141414141414,745.6161616161615 430.949494949495,745.6161616161615 440.4848484848485,745.6161616161615 450.0202020202021,745.6161616161615 459.55555555555554,745.6161616161615 469.09090909090907,745.6161616161615 478.62626262626264,745.6161616161615 488.16161616161617,745.6161616161615 497.69696969696975,745.6161616161615 507.2323232323232,745.6161616161615 516.7676767676768,745.6161616161615 526.3030303030303,745.6161616161615 535.8383838383838,745.6161616161615 545.3737373737374,745.6161616161615 554.9090909090909,745.6161616161615 564.4444444444445,745.6161616161615 573.9797979797979,745.6161616161615 583.5151515151515,745.6161616161615 593.0505050505051,745.6161616161615 602.5858585858585,745.6161616161615 612.1212121212121,745.6161616161615 621.6565656565656,745.6161616161615 631.1919191919192,745.6161616161615 640.7272727272727,745.6161616161615 650.2626262626262,745.6161616161615 659.7979797979798,745.6161616161615 669.3333333333333,745.6161616161615 678.8686868686868,745.6161616161615 688.4040404040404,745.6161616161615 697.9393939393939,745.6161616161615 707.4747474747475,745.6161616161615 717.0101010101009,745.6161616161615 726.5454545454545,745.6161616161615 736.0808080808081,745.6161616161615 745.6161616161615,745.6161616161615 755.1515151515151,745.6161616161615 764.6868686868686,745.6161616161615 774.2222222222222,745.6161616161615 783.7575757575758,745.6161616161615 793.2929292929292,745.6161616161615 802.8282828282828,745.6161616161615 812.3636363636363,745.6161616161615 821.8989898989898,745.6161616161615 831.4343434343433,745.6161616161615 840.969696969697,745.6161616161615 850.5050505050505,745.6161616161615 860.0404040404039,745.6161616161615 869.5757575757575,745.6161616161615 879.111111111111,745.6161616161615 888.6464646464647,745.6161616161615 898.181818181818,745.6161616161615 907.7171717171716,745.6161616161615 917.2525252525251,745.6161616161615 926.7878787878785,745.6161616161615 936.3232323232323,745.6161616161615 945.8585858585857,745.6161616161615 955.3939393939393,745.6161616161615 964.9292929292927,745.6161616161615 974.4646464646464,745.6161616161615 984,745.6161616161615" fill="none" stroke="rgba(0,0,255,0.75)" stroke-width="11.327999999999996"/></g><g><polyline data-points="1.9696969696969702,-5.000000000000001 1.8686868686868696,-4.898989898989899 1.767676767676768,-4.7979797979797985 1.6666666666666674,-4.696969696969697 1.5656565656565666,-4.595959595959596 1.4646464646464652,-4.494949494949496 1.3636363636363644,-4.393939393939394 1.262626262626263,-4.292929292929293 1.1616161616161622,-4.191919191919193 1.0606060606060617,-4.090909090909091 0.9595959595959602,-3.98989898989899 0.8585858585858596,-3.8888888888888884 0.7575757575757579,-3.7878787878787876 0.6565656565656574,-3.6868686868686864 0.5555555555555567,-3.5858585858585856 0.4545454545454551,-3.484848484848485 0.3535353535353544,-3.383838383838383 0.2525252525252529,-3.2828282828282824 0.1515151515151522,-3.1818181818181817 0.050505050505051545,-3.0808080808080804 -0.05050505050505001,-2.9797979797979792 -0.15151515151515066,-2.8787878787878785 -0.2525252525252522,-2.7777777777777777 -0.35353535353535287,-2.6767676767676765 -0.4545454545454544,-2.5757575757575752 -0.555555555555555,-2.474747474747474 -0.6565656565656557,-2.3737373737373733 -0.7575757575757572,-2.2727272727272725 -0.8585858585858579,-2.1717171717171713 -0.9595959595959596,-2.07070707070707 -1.0606060606060603,-1.9696969696969693 -1.1616161616161613,-1.8686868686868683 -1.2626262626262625,-1.7676767676767675 -1.363636363636363,-1.6666666666666665 -1.4646464646464643,-1.5656565656565653 -1.5656565656565653,-1.4646464646464643 -1.6666666666666665,-1.363636363636363 -1.7676767676767675,-1.2626262626262625 -1.8686868686868683,-1.1616161616161613 -1.9696969696969693,-1.0606060606060603 -2.07070707070707,-0.9595959595959596 -2.1717171717171713,-0.8585858585858579 -2.2727272727272725,-0.7575757575757572 -2.3737373737373733,-0.6565656565656557 -2.474747474747474,-0.555555555555555 -2.5757575757575752,-0.4545454545454544 -2.6767676767676765,-0.35353535353535287 -2.7777777777777777,-0.2525252525252522 -2.8787878787878785,-0.15151515151515066 -2.9797979797979792,-0.05050505050505001 -3.0808080808080804,0.050505050505051545 -3.1818181818181817,0.1515151515151522 -3.2828282828282824,0.2525252525252529 -3.383838383838383,0.3535353535353544 -3.484848484848485,0.4545454545454551 -3.5858585858585856,0.5555555555555567 -3.6868686868686864,0.6565656565656574 -3.7878787878787876,0.7575757575757579 -3.8888888888888884,0.8585858585858596 -3.98989898989899,0.9595959595959602 -4.090909090909091,1.0606060606060617 -4.191919191919193,1.1616161616161622 -4.292929292929293,1.262626262626263 -4.393939393939394,1.3636363636363644 -4.494949494949496,1.4646464646464652 -4.595959595959596,1.5656565656565666 -4.696969696969697,1.6666666666666674 -4.7979797979797985,1.767676767676768 -4.898989898989899,1.8686868686868696 -5.000000000000001,1.9696969696969702 -5.000000000000001,2.070707070707072 -5.000000000000001,2.1717171717171726 -5.000000000000001,2.2727272727272734 -5.000000000000001,2.373737373737375 -5.000000000000001,2.4747474747474754 -5.000000000000001,2.575757575757577 -5.000000000000001,2.676767676767678 -5.000000000000001,2.7777777777777786 -5.000000000000001,2.87878787878788 -5.000000000000001,2.9797979797979806 -5.000000000000001,3.080808080808082 -5.000000000000001,3.181818181818183 -5.000000000000001,3.2828282828282833 -5.000000000000001,3.383838383838384 -5.000000000000001,3.4848484848484866 -5.000000000000001,3.5858585858585874 -5.000000000000001,3.6868686868686877 -5.000000000000001,3.7878787878787885 -5.000000000000001,3.8888888888888893 -5.000000000000001,3.989898989898992 -5.000000000000001,4.090909090909092 -5.000000000000001,4.191919191919193 -5.000000000000001,4.292929292929293 -5.000000000000001,4.393939393939394 -5.000000000000001,4.494949494949497 -5.000000000000001,4.595959595959597 -5.000000000000001,4.696969696969697 -5.000000000000001,4.7979797979797985 -5.000000000000001,4.898989898989901 -5.000000000000001,5.000000000000002" data-type="line" data-label="" points="697.9393939393939,984 688.4040404040404,974.4646464646464 678.8686868686868,964.9292929292928 669.3333333333333,955.3939393939394 659.7979797979798,945.8585858585858 650.2626262626262,936.3232323232323 640.7272727272727,926.7878787878788 631.1919191919192,917.2525252525252 621.6565656565656,907.7171717171718 612.1212121212121,898.1818181818181 602.5858585858585,888.6464646464647 593.0505050505051,879.1111111111111 583.5151515151515,869.5757575757575 573.9797979797979,860.0404040404039 564.4444444444445,850.5050505050505 554.9090909090909,840.969696969697 545.3737373737374,831.4343434343434 535.8383838383838,821.8989898989898 526.3030303030303,812.3636363636363 516.7676767676768,802.8282828282828 507.2323232323232,793.2929292929292 497.69696969696975,783.7575757575758 488.16161616161617,774.2222222222222 478.62626262626264,764.6868686868687 469.09090909090907,755.1515151515151 459.55555555555554,745.6161616161615 450.0202020202021,736.0808080808081 440.4848484848485,726.5454545454545 430.949494949495,717.010101010101 421.4141414141414,707.4747474747475 411.8787878787879,697.939393939394 402.34343434343435,688.4040404040404 392.80808080808083,678.8686868686868 383.2727272727273,669.3333333333334 373.7373737373738,659.7979797979798 364.2020202020202,650.2626262626263 354.6666666666667,640.7272727272727 345.13131313131316,631.1919191919193 335.59595959595964,621.6565656565657 326.0606060606061,612.1212121212121 316.5252525252526,602.5858585858587 306.9898989898991,593.0505050505051 297.4545454545455,583.5151515151516 287.91919191919203,573.979797979798 278.38383838383845,564.4444444444445 268.84848484848493,554.909090909091 259.3131313131314,545.3737373737374 249.77777777777783,535.838383838384 240.2424242424243,526.3030303030304 230.70707070707084,516.7676767676768 221.17171717171726,507.23232323232327 211.63636363636374,497.69696969696975 202.10101010101022,488.1616161616163 192.5656565656567,478.6262626262627 183.03030303030312,469.0909090909092 173.4949494949496,459.5555555555556 163.95959595959607,450.0202020202021 154.42424242424255,440.4848484848486 144.88888888888903,430.94949494949503 135.35353535353545,421.4141414141415 125.81818181818193,411.87878787878793 116.28282828282829,402.3434343434344 106.74747474747483,392.80808080808094 97.21212121212136,383.27272727272737 87.67676767676772,373.73737373737384 78.14141414141426,364.2020202020203 68.60606060606068,354.66666666666674 59.07070707070716,345.1313131313133 49.53535353535369,335.5959595959597 40.00000000000006,326.06060606060623 40.00000000000006,316.5252525252526 40.00000000000006,306.9898989898991 40.00000000000006,297.4545454545456 40.00000000000006,287.91919191919203 40.00000000000006,278.38383838383857 40.00000000000006,268.84848484848493 40.00000000000006,259.3131313131314 40.00000000000006,249.77777777777794 40.00000000000006,240.24242424242436 40.00000000000006,230.70707070707084 40.00000000000006,221.17171717171726 40.00000000000006,211.63636363636374 40.00000000000006,202.10101010101027 40.00000000000006,192.56565656565675 40.00000000000006,183.03030303030312 40.00000000000006,173.4949494949496 40.00000000000006,163.95959595959613 40.00000000000006,154.4242424242426 40.00000000000006,144.88888888888908 40.00000000000006,135.35353535353545 40.00000000000006,125.81818181818198 40.00000000000006,116.28282828282846 40.00000000000006,106.747474747475 40.00000000000006,97.21212121212153 40.00000000000006,87.67676767676778 40.00000000000006,78.14141414141432 40.00000000000006,68.60606060606085 40.00000000000006,59.07070707070733 40.00000000000006,49.53535353535369 40.00000000000006,40.000000000000114" fill="none" stroke="rgba(255,0,0,0.75)" stroke-width="11.327999999999996"/></g><g><polyline data-points="0.2525252525252529,5.000000000000002 0.2525252525252529,4.898989898989901 0.2525252525252529,4.7979797979797985 0.2525252525252529,4.696969696969697 0.2525252525252529,4.595959595959597 0.2525252525252529,4.494949494949497 0.2525252525252529,4.393939393939394 0.2525252525252529,4.292929292929293 0.2525252525252529,4.191919191919193 0.2525252525252529,4.090909090909092 0.2525252525252529,3.989898989898992 0.2525252525252529,3.8888888888888893 0.2525252525252529,3.7878787878787885 0.2525252525252529,3.6868686868686877 0.2525252525252529,3.5858585858585874 0.2525252525252529,3.4848484848484866 0.2525252525252529,3.383838383838384 0.2525252525252529,3.2828282828282833 0.2525252525252529,3.181818181818183 0.2525252525252529,3.080808080808082 0.2525252525252529,2.9797979797979806 0.2525252525252529,2.87878787878788 0.2525252525252529,2.7777777777777786 0.2525252525252529,2.676767676767678 0.2525252525252529,2.575757575757577 0.2525252525252529,2.4747474747474754 0.2525252525252529,2.373737373737375 0.2525252525252529,2.2727272727272734 0.2525252525252529,2.1717171717171726 0.2525252525252529,2.070707070707072 0.2525252525252529,1.9696969696969702 0.2525252525252529,1.8686868686868696 0.2525252525252529,1.767676767676768 0.2525252525252529,1.6666666666666674 0.2525252525252529,1.5656565656565666 0.2525252525252529,1.4646464646464652 0.2525252525252529,1.3636363636363644 0.2525252525252529,1.262626262626263 0.2525252525252529,1.1616161616161622 0.2525252525252529,1.0606060606060617 0.2525252525252529,0.9595959595959602 0.2525252525252529,0.8585858585858596 0.2525252525252529,0.7575757575757579 0.2525252525252529,0.6565656565656574 0.2525252525252529,0.5555555555555567 0.2525252525252529,0.4545454545454551 0.2525252525252529,0.3535353535353544 0.2525252525252529,0.2525252525252529 0.2525252525252529,0.1515151515151522 0.2525252525252529,0.050505050505051545 0.2525252525252529,-0.05050505050505001 0.2525252525252529,-0.15151515151515066 0.2525252525252529,-0.2525252525252522 0.2525252525252529,-0.35353535353535287 0.2525252525252529,-0.4545454545454544 0.2525252525252529,-0.555555555555555 0.2525252525252529,-0.6565656565656557 0.2525252525252529,-0.7575757575757572 0.2525252525252529,-0.8585858585858579 0.2525252525252529,-0.9595959595959596 0.2525252525252529,-1.0606060606060603 0.2525252525252529,-1.1616161616161613 0.2525252525252529,-1.2626262626262625 0.2525252525252529,-1.363636363636363 0.2525252525252529,-1.4646464646464643 0.2525252525252529,-1.5656565656565653 0.2525252525252529,-1.6666666666666665 0.2525252525252529,-1.7676767676767675 0.2525252525252529,-1.8686868686868683 0.2525252525252529,-1.9696969696969693 0.2525252525252529,-2.07070707070707" data-type="line" data-label="" points="535.8383838383838,40.000000000000114 535.8383838383838,49.53535353535369 535.8383838383838,59.07070707070733 535.8383838383838,68.60606060606085 535.8383838383838,78.14141414141432 535.8383838383838,87.67676767676778 535.8383838383838,97.21212121212153 535.8383838383838,106.747474747475 535.8383838383838,116.28282828282846 535.8383838383838,125.81818181818198 535.8383838383838,135.35353535353545 535.8383838383838,144.88888888888908 535.8383838383838,154.4242424242426 535.8383838383838,163.95959595959613 535.8383838383838,173.4949494949496 535.8383838383838,183.03030303030312 535.8383838383838,192.56565656565675 535.8383838383838,202.10101010101027 535.8383838383838,211.63636363636374 535.8383838383838,221.17171717171726 535.8383838383838,230.70707070707084 535.8383838383838,240.24242424242436 535.8383838383838,249.77777777777794 535.8383838383838,259.3131313131314 535.8383838383838,268.84848484848493 535.8383838383838,278.38383838383857 535.8383838383838,287.91919191919203 535.8383838383838,297.4545454545456 535.8383838383838,306.9898989898991 535.8383838383838,316.5252525252526 535.8383838383838,326.06060606060623 535.8383838383838,335.5959595959597 535.8383838383838,345.1313131313133 535.8383838383838,354.66666666666674 535.8383838383838,364.2020202020203 535.8383838383838,373.73737373737384 535.8383838383838,383.27272727272737 535.8383838383838,392.80808080808094 535.8383838383838,402.3434343434344 535.8383838383838,411.87878787878793 535.8383838383838,421.4141414141415 535.8383838383838,430.94949494949503 535.8383838383838,440.4848484848486 535.8383838383838,450.0202020202021 535.8383838383838,459.5555555555556 535.8383838383838,469.0909090909092 535.8383838383838,478.6262626262627 535.8383838383838,488.1616161616163 535.8383838383838,497.69696969696975 535.8383838383838,507.23232323232327 535.8383838383838,516.7676767676768 535.8383838383838,526.3030303030304 535.8383838383838,535.838383838384 535.8383838383838,545.3737373737374 535.8383838383838,554.909090909091 535.8383838383838,564.4444444444445 535.8383838383838,573.979797979798 535.8383838383838,583.5151515151516 535.8383838383838,593.0505050505051 535.8383838383838,602.5858585858587 535.8383838383838,612.1212121212121 535.8383838383838,621.6565656565657 535.8383838383838,631.1919191919193 535.8383838383838,640.7272727272727 535.8383838383838,650.2626262626263 535.8383838383838,659.7979797979798 535.8383838383838,669.3333333333334 535.8383838383838,678.8686868686868 535.8383838383838,688.4040404040404 535.8383838383838,697.939393939394 535.8383838383838,707.4747474747475" fill="none" stroke="rgba(0,0,255,0.75)" stroke-width="11.327999999999996"/></g><g><polyline data-points="0.2525252525252529,-2.07070707070707 0.2525252525252529,-2.1717171717171713 0.2525252525252529,-2.2727272727272725 0.2525252525252529,-2.3737373737373733 0.2525252525252529,-2.474747474747474 0.2525252525252529,-2.5757575757575752 0.2525252525252529,-2.6767676767676765 0.2525252525252529,-2.7777777777777777 0.3535353535353544,-2.8787878787878785" data-type="line" data-label="" points="535.8383838383838,707.4747474747475 535.8383838383838,717.010101010101 535.8383838383838,726.5454545454545 535.8383838383838,736.0808080808081 535.8383838383838,745.6161616161615 535.8383838383838,755.1515151515151 535.8383838383838,764.6868686868687 535.8383838383838,774.2222222222222 545.3737373737374,783.7575757575758" fill="none" stroke="rgba(255,0,0,0.75)" stroke-width="11.327999999999996"/></g><g><polyline data-points="0.3535353535353544,-2.8787878787878785 0.2525252525252529,-2.9797979797979792 0.2525252525252529,-3.0808080808080804 0.2525252525252529,-3.1818181818181817 0.2525252525252529,-3.2828282828282824 0.2525252525252529,-3.383838383838383 0.2525252525252529,-3.484848484848485 0.2525252525252529,-3.5858585858585856 0.2525252525252529,-3.6868686868686864 0.2525252525252529,-3.7878787878787876 0.2525252525252529,-3.8888888888888884 0.2525252525252529,-3.98989898989899 0.2525252525252529,-4.090909090909091 0.2525252525252529,-4.191919191919193 0.2525252525252529,-4.292929292929293 0.2525252525252529,-4.393939393939394 0.2525252525252529,-4.494949494949496 0.2525252525252529,-4.595959595959596 0.2525252525252529,-4.696969696969697 0.2525252525252529,-4.7979797979797985 0.2525252525252529,-4.898989898989899 0.2525252525252529,-5.000000000000001" data-type="line" data-label="" points="545.3737373737374,783.7575757575758 535.8383838383838,793.2929292929292 535.8383838383838,802.8282828282828 535.8383838383838,812.3636363636363 535.8383838383838,821.8989898989898 535.8383838383838,831.4343434343434 535.8383838383838,840.969696969697 535.8383838383838,850.5050505050505 535.8383838383838,860.0404040404039 535.8383838383838,869.5757575757575 535.8383838383838,879.1111111111111 535.8383838383838,888.6464646464647 535.8383838383838,898.1818181818181 535.8383838383838,907.7171717171718 535.8383838383838,917.2525252525252 535.8383838383838,926.7878787878788 535.8383838383838,936.3232323232323 535.8383838383838,945.8585858585858 535.8383838383838,955.3939393939394 535.8383838383838,964.9292929292928 535.8383838383838,974.4646464646464 535.8383838383838,984" fill="none" stroke="rgba(0,0,255,0.75)" stroke-width="11.327999999999996"/></g><g><polyline data-points="-3.2828282828282824,-5.000000000000001 -3.1818181818181817,-4.898989898989899 -3.0808080808080804,-4.7979797979797985 -2.9797979797979792,-4.696969696969697 -2.8787878787878785,-4.595959595959596 -2.7777777777777777,-4.494949494949496 -2.6767676767676765,-4.393939393939394 -2.5757575757575752,-4.292929292929293 -2.474747474747474,-4.191919191919193 -2.3737373737373733,-4.090909090909091 -2.2727272727272725,-3.98989898989899 -2.1717171717171713,-3.8888888888888884 -2.07070707070707,-3.7878787878787876 -1.9696969696969693,-3.6868686868686864 -1.8686868686868683,-3.5858585858585856 -1.7676767676767675,-3.484848484848485 -1.6666666666666665,-3.383838383838383 -1.5656565656565653,-3.2828282828282824 -1.4646464646464643,-3.1818181818181817 -1.4646464646464643,-3.0808080808080804 -1.4646464646464643,-2.9797979797979792 -1.4646464646464643,-2.8787878787878785 -1.4646464646464643,-2.7777777777777777 -1.4646464646464643,-2.6767676767676765 -1.4646464646464643,-2.5757575757575752 -1.4646464646464643,-2.474747474747474 -1.4646464646464643,-2.3737373737373733 -1.4646464646464643,-2.2727272727272725 -1.4646464646464643,-2.1717171717171713 -1.4646464646464643,-2.07070707070707" data-type="line" data-label="" points="202.10101010101022,984 211.63636363636374,974.4646464646464 221.17171717171726,964.9292929292928 230.70707070707084,955.3939393939394 240.2424242424243,945.8585858585858 249.77777777777783,936.3232323232323 259.3131313131314,926.7878787878788 268.84848484848493,917.2525252525252 278.38383838383845,907.7171717171718 287.91919191919203,898.1818181818181 297.4545454545455,888.6464646464647 306.9898989898991,879.1111111111111 316.5252525252526,869.5757575757575 326.0606060606061,860.0404040404039 335.59595959595964,850.5050505050505 345.13131313131316,840.969696969697 354.6666666666667,831.4343434343434 364.2020202020202,821.8989898989898 373.7373737373738,812.3636363636363 373.7373737373738,802.8282828282828 373.7373737373738,793.2929292929292 373.7373737373738,783.7575757575758 373.7373737373738,774.2222222222222 373.7373737373738,764.6868686868687 373.7373737373738,755.1515151515151 373.7373737373738,745.6161616161615 373.7373737373738,736.0808080808081 373.7373737373738,726.5454545454545 373.7373737373738,717.010101010101 373.7373737373738,707.4747474747475" fill="none" stroke="rgba(255,0,0,0.75)" stroke-width="11.327999999999996"/></g><g><polyline data-points="-1.4646464646464643,-2.07070707070707 -1.363636363636363,-1.9696969696969693 -1.2626262626262625,-1.8686868686868683 -1.1616161616161613,-1.7676767676767675 -1.0606060606060603,-1.6666666666666665 -0.9595959595959596,-1.5656565656565653 -0.8585858585858579,-1.4646464646464643 -0.7575757575757572,-1.363636363636363 -0.6565656565656557,-1.2626262626262625 -0.555555555555555,-1.1616161616161613 -0.4545454545454544,-1.0606060606060603 -0.35353535353535287,-0.9595959595959596 -0.2525252525252522,-0.8585858585858579 -0.2525252525252522,-0.7575757575757572 -0.2525252525252522,-0.6565656565656557 -0.2525252525252522,-0.555555555555555 -0.2525252525252522,-0.4545454545454544 -0.2525252525252522,-0.35353535353535287 -0.2525252525252522,-0.2525252525252522 -0.2525252525252522,-0.15151515151515066 -0.2525252525252522,-0.05050505050505001 -0.2525252525252522,0.050505050505051545 -0.2525252525252522,0.1515151515151522 -0.2525252525252522,0.2525252525252529 -0.2525252525252522,0.3535353535353544 -0.2525252525252522,0.4545454545454551 -0.2525252525252522,0.5555555555555567 -0.2525252525252522,0.6565656565656574 -0.2525252525252522,0.7575757575757579 -0.2525252525252522,0.8585858585858596 -0.2525252525252522,0.9595959595959602 -0.2525252525252522,1.0606060606060617 -0.2525252525252522,1.1616161616161622 -0.2525252525252522,1.262626262626263 -0.2525252525252522,1.3636363636363644 -0.2525252525252522,1.4646464646464652 -0.2525252525252522,1.5656565656565666 -0.2525252525252522,1.6666666666666674 -0.2525252525252522,1.767676767676768 -0.2525252525252522,1.8686868686868696 -0.2525252525252522,1.9696969696969702 -0.2525252525252522,2.070707070707072 -0.2525252525252522,2.1717171717171726 -0.2525252525252522,2.2727272727272734 -0.2525252525252522,2.373737373737375 -0.2525252525252522,2.4747474747474754 -0.2525252525252522,2.575757575757577 -0.2525252525252522,2.676767676767678 -0.2525252525252522,2.7777777777777786 -0.2525252525252522,2.87878787878788 -0.2525252525252522,2.9797979797979806 -0.2525252525252522,3.080808080808082 -0.2525252525252522,3.181818181818183 -0.2525252525252522,3.2828282828282833 -0.2525252525252522,3.383838383838384 -0.2525252525252522,3.4848484848484866 -0.2525252525252522,3.5858585858585874 -0.2525252525252522,3.6868686868686877 -0.2525252525252522,3.7878787878787885 -0.2525252525252522,3.8888888888888893 -0.2525252525252522,3.989898989898992" data-type="line" data-label="" points="373.7373737373738,707.4747474747475 383.2727272727273,697.939393939394 392.80808080808083,688.4040404040404 402.34343434343435,678.8686868686868 411.8787878787879,669.3333333333334 421.4141414141414,659.7979797979798 430.949494949495,650.2626262626263 440.4848484848485,640.7272727272727 450.0202020202021,631.1919191919193 459.55555555555554,621.6565656565657 469.09090909090907,612.1212121212121 478.62626262626264,602.5858585858587 488.16161616161617,593.0505050505051 488.16161616161617,583.5151515151516 488.16161616161617,573.979797979798 488.16161616161617,564.4444444444445 488.16161616161617,554.909090909091 488.16161616161617,545.3737373737374 488.16161616161617,535.838383838384 488.16161616161617,526.3030303030304 488.16161616161617,516.7676767676768 488.16161616161617,507.23232323232327 488.16161616161617,497.69696969696975 488.16161616161617,488.1616161616163 488.16161616161617,478.6262626262627 488.16161616161617,469.0909090909092 488.16161616161617,459.5555555555556 488.16161616161617,450.0202020202021 488.16161616161617,440.4848484848486 488.16161616161617,430.94949494949503 488.16161616161617,421.4141414141415 488.16161616161617,411.87878787878793 488.16161616161617,402.3434343434344 488.16161616161617,392.80808080808094 488.16161616161617,383.27272727272737 488.16161616161617,373.73737373737384 488.16161616161617,364.2020202020203 488.16161616161617,354.66666666666674 488.16161616161617,345.1313131313133 488.16161616161617,335.5959595959597 488.16161616161617,326.06060606060623 488.16161616161617,316.5252525252526 488.16161616161617,306.9898989898991 488.16161616161617,297.4545454545456 488.16161616161617,287.91919191919203 488.16161616161617,278.38383838383857 488.16161616161617,268.84848484848493 488.16161616161617,259.3131313131314 488.16161616161617,249.77777777777794 488.16161616161617,240.24242424242436 488.16161616161617,230.70707070707084 488.16161616161617,221.17171717171726 488.16161616161617,211.63636363636374 488.16161616161617,202.10101010101027 488.16161616161617,192.56565656565675 488.16161616161617,183.03030303030312 488.16161616161617,173.4949494949496 488.16161616161617,163.95959595959613 488.16161616161617,154.4242424242426 488.16161616161617,144.88888888888908 488.16161616161617,135.35353535353545" fill="none" stroke="rgba(0,0,255,0.75)" stroke-width="11.327999999999996"/></g><g><polyline data-points="-0.2525252525252522,3.989898989898992 -0.2525252525252522,4.090909090909092 -0.2525252525252522,4.191919191919193 -0.2525252525252522,4.292929292929293 -0.2525252525252522,4.393939393939394 -0.2525252525252522,4.494949494949497 -0.2525252525252522,4.595959595959597 -0.2525252525252522,4.696969696969697 -0.2525252525252522,4.7979797979797985 -0.2525252525252522,4.898989898989901 -0.2525252525252522,5.000000000000002" data-type="line" data-label="" points="488.16161616161617,135.35353535353545 488.16161616161617,125.81818181818198 488.16161616161617,116.28282828282846 488.16161616161617,106.747474747475 488.16161616161617,97.21212121212153 488.16161616161617,87.67676767676778 488.16161616161617,78.14141414141432 488.16161616161617,68.60606060606085 488.16161616161617,59.07070707070733 488.16161616161617,49.53535353535369 488.16161616161617,40.000000000000114" fill="none" stroke="rgba(255,0,0,0.75)" stroke-width="11.327999999999996"/></g><g><polyline data-points="5.000000000000002,-1.6666666666666665 4.898989898989901,-1.5656565656565653 4.7979797979797985,-1.4646464646464643 4.696969696969697,-1.363636363636363 4.595959595959597,-1.2626262626262625 4.494949494949497,-1.1616161616161613 4.393939393939394,-1.0606060606060603 4.292929292929293,-0.9595959595959596 4.191919191919193,-0.8585858585858579 4.090909090909092,-0.7575757575757572 3.989898989898992,-0.6565656565656557 3.8888888888888893,-0.555555555555555 3.7878787878787885,-0.4545454545454544 3.6868686868686877,-0.35353535353535287 3.5858585858585874,-0.2525252525252522 3.4848484848484866,-0.15151515151515066 3.383838383838384,-0.05050505050505001 3.2828282828282833,0.050505050505051545 3.181818181818183,0.1515151515151522 3.080808080808082,0.2525252525252529 2.9797979797979806,0.3535353535353544 2.87878787878788,0.4545454545454551 2.7777777777777786,0.5555555555555567 2.676767676767678,0.6565656565656574 2.575757575757577,0.7575757575757579 2.4747474747474754,0.8585858585858596 2.373737373737375,0.9595959595959602 2.2727272727272734,1.0606060606060617 2.1717171717171726,1.1616161616161622 2.070707070707072,1.262626262626263 1.9696969696969702,1.3636363636363644 1.8686868686868696,1.4646464646464652 1.767676767676768,1.5656565656565666 1.6666666666666674,1.6666666666666674 1.6666666666666674,1.767676767676768 1.6666666666666674,1.8686868686868696 1.6666666666666674,1.9696969696969702 1.6666666666666674,2.070707070707072 1.6666666666666674,2.1717171717171726 1.6666666666666674,2.2727272727272734 1.6666666666666674,2.373737373737375 1.6666666666666674,2.4747474747474754 1.6666666666666674,2.575757575757577 1.6666666666666674,2.676767676767678 1.6666666666666674,2.7777777777777786 1.6666666666666674,2.87878787878788 1.6666666666666674,2.9797979797979806 1.6666666666666674,3.080808080808082 1.6666666666666674,3.181818181818183 1.6666666666666674,3.2828282828282833 1.6666666666666674,3.383838383838384 1.6666666666666674,3.4848484848484866 1.6666666666666674,3.5858585858585874 1.6666666666666674,3.6868686868686877 1.6666666666666674,3.7878787878787885 1.6666666666666674,3.8888888888888893 1.6666666666666674,3.989898989898992" data-type="line" data-label="" points="984,669.3333333333334 974.4646464646464,659.7979797979798 964.9292929292927,650.2626262626263 955.3939393939393,640.7272727272727 945.8585858585857,631.1919191919193 936.3232323232323,621.6565656565657 926.7878787878785,612.1212121212121 917.2525252525251,602.5858585858587 907.7171717171716,593.0505050505051 898.181818181818,583.5151515151516 888.6464646464647,573.979797979798 879.111111111111,564.4444444444445 869.5757575757575,554.909090909091 860.0404040404039,545.3737373737374 850.5050505050505,535.838383838384 840.969696969697,526.3030303030304 831.4343434343433,516.7676767676768 821.8989898989898,507.23232323232327 812.3636363636363,497.69696969696975 802.8282828282828,488.1616161616163 793.2929292929292,478.6262626262627 783.7575757575758,469.0909090909092 774.2222222222222,459.5555555555556 764.6868686868686,450.0202020202021 755.1515151515151,440.4848484848486 745.6161616161615,430.94949494949503 736.0808080808081,421.4141414141415 726.5454545454545,411.87878787878793 717.0101010101009,402.3434343434344 707.4747474747475,392.80808080808094 697.9393939393939,383.27272727272737 688.4040404040404,373.73737373737384 678.8686868686868,364.2020202020203 669.3333333333333,354.66666666666674 669.3333333333333,345.1313131313133 669.3333333333333,335.5959595959597 669.3333333333333,326.06060606060623 669.3333333333333,316.5252525252526 669.3333333333333,306.9898989898991 669.3333333333333,297.4545454545456 669.3333333333333,287.91919191919203 669.3333333333333,278.38383838383857 669.3333333333333,268.84848484848493 669.3333333333333,259.3131313131314 669.3333333333333,249.77777777777794 669.3333333333333,240.24242424242436 669.3333333333333,230.70707070707084 669.3333333333333,221.17171717171726 669.3333333333333,211.63636363636374 669.3333333333333,202.10101010101027 669.3333333333333,192.56565656565675 669.3333333333333,183.03030303030312 669.3333333333333,173.4949494949496 669.3333333333333,163.95959595959613 669.3333333333333,154.4242424242426 669.3333333333333,144.88888888888908 669.3333333333333,135.35353535353545" fill="none" stroke="rgba(255,0,0,0.75)" stroke-width="11.327999999999996"/></g><g><polyline data-points="1.6666666666666674,3.989898989898992 1.6666666666666674,4.090909090909092 1.6666666666666674,4.191919191919193 1.6666666666666674,4.292929292929293 1.6666666666666674,4.393939393939394 1.6666666666666674,4.494949494949497 1.6666666666666674,4.595959595959597 1.6666666666666674,4.696969696969697 1.6666666666666674,4.7979797979797985 1.6666666666666674,4.898989898989901 1.6666666666666674,5.000000000000002" data-type="line" data-label="" points="669.3333333333333,135.35353535353545 669.3333333333333,125.81818181818198 669.3333333333333,116.28282828282846 669.3333333333333,106.747474747475 669.3333333333333,97.21212121212153 669.3333333333333,87.67676767676778 669.3333333333333,78.14141414141432 669.3333333333333,68.60606060606085 669.3333333333333,59.07070707070733 669.3333333333333,49.53535353535369 669.3333333333333,40.000000000000114" fill="none" stroke="rgba(0,0,255,0.75)" stroke-width="11.327999999999996"/></g><g><polyline data-points="0.7575757575757579,5.000000000000002 0.8585858585858596,4.898989898989901 0.9595959595959602,4.7979797979797985 1.0606060606060617,4.696969696969697 1.1616161616161622,4.595959595959597 1.262626262626263,4.494949494949497 1.3636363636363644,4.393939393939394 1.4646464646464652,4.292929292929293 1.5656565656565666,4.292929292929293 1.6666666666666674,4.292929292929293 1.767676767676768,4.191919191919193 1.8686868686868696,4.090909090909092 1.9696969696969702,3.989898989898992 2.070707070707072,3.8888888888888893 2.1717171717171726,3.7878787878787885 2.2727272727272734,3.6868686868686877 2.373737373737375,3.5858585858585874 2.4747474747474754,3.4848484848484866 2.575757575757577,3.383838383838384 2.676767676767678,3.2828282828282833 2.7777777777777786,3.181818181818183 2.87878787878788,3.080808080808082 2.9797979797979806,2.9797979797979806 3.080808080808082,2.87878787878788 3.181818181818183,2.7777777777777786 3.2828282828282833,2.676767676767678 3.383838383838384,2.575757575757577 3.4848484848484866,2.4747474747474754 3.5858585858585874,2.373737373737375 3.6868686868686877,2.2727272727272734 3.7878787878787885,2.1717171717171726 3.8888888888888893,2.070707070707072 3.989898989898992,1.9696969696969702 3.989898989898992,1.8686868686868696 3.989898989898992,1.767676767676768 3.989898989898992,1.6666666666666674 3.989898989898992,1.5656565656565666 3.989898989898992,1.4646464646464652 3.989898989898992,1.3636363636363644 3.989898989898992,1.262626262626263 3.989898989898992,1.1616161616161622 3.989898989898992,1.0606060606060617 3.989898989898992,0.9595959595959602 3.989898989898992,0.8585858585858596 3.989898989898992,0.7575757575757579 3.989898989898992,0.6565656565656574 3.989898989898992,0.5555555555555567 3.989898989898992,0.4545454545454551 3.989898989898992,0.3535353535353544 3.989898989898992,0.2525252525252529 3.989898989898992,0.1515151515151522 3.989898989898992,0.050505050505051545 3.989898989898992,-0.05050505050505001 3.989898989898992,-0.15151515151515066" data-type="line" data-label="" points="583.5151515151515,40.000000000000114 593.0505050505051,49.53535353535369 602.5858585858585,59.07070707070733 612.1212121212121,68.60606060606085 621.6565656565656,78.14141414141432 631.1919191919192,87.67676767676778 640.7272727272727,97.21212121212153 650.2626262626262,106.747474747475 659.7979797979798,106.747474747475 669.3333333333333,106.747474747475 678.8686868686868,116.28282828282846 688.4040404040404,125.81818181818198 697.9393939393939,135.35353535353545 707.4747474747475,144.88888888888908 717.0101010101009,154.4242424242426 726.5454545454545,163.95959595959613 736.0808080808081,173.4949494949496 745.6161616161615,183.03030303030312 755.1515151515151,192.56565656565675 764.6868686868686,202.10101010101027 774.2222222222222,211.63636363636374 783.7575757575758,221.17171717171726 793.2929292929292,230.70707070707084 802.8282828282828,240.24242424242436 812.3636363636363,249.77777777777794 821.8989898989898,259.3131313131314 831.4343434343433,268.84848484848493 840.969696969697,278.38383838383857 850.5050505050505,287.91919191919203 860.0404040404039,297.4545454545456 869.5757575757575,306.9898989898991 879.111111111111,316.5252525252526 888.6464646464647,326.06060606060623 888.6464646464647,335.5959595959597 888.6464646464647,345.1313131313133 888.6464646464647,354.66666666666674 888.6464646464647,364.2020202020203 888.6464646464647,373.73737373737384 888.6464646464647,383.27272727272737 888.6464646464647,392.80808080808094 888.6464646464647,402.3434343434344 888.6464646464647,411.87878787878793 888.6464646464647,421.4141414141415 888.6464646464647,430.94949494949503 888.6464646464647,440.4848484848486 888.6464646464647,450.0202020202021 888.6464646464647,459.5555555555556 888.6464646464647,469.0909090909092 888.6464646464647,478.6262626262627 888.6464646464647,488.1616161616163 888.6464646464647,497.69696969696975 888.6464646464647,507.23232323232327 888.6464646464647,516.7676767676768 888.6464646464647,526.3030303030304" fill="none" stroke="rgba(255,0,0,0.75)" stroke-width="11.327999999999996"/></g><g><polyline data-points="3.989898989898992,-0.15151515151515066 3.989898989898992,-0.2525252525252522 3.989898989898992,-0.35353535353535287 3.989898989898992,-0.4545454545454544 3.989898989898992,-0.555555555555555 3.989898989898992,-0.6565656565656557 3.989898989898992,-0.7575757575757572 3.989898989898992,-0.8585858585858579 3.989898989898992,-0.9595959595959596 3.989898989898992,-1.0606060606060603 3.989898989898992,-1.1616161616161613 3.989898989898992,-1.2626262626262625 3.989898989898992,-1.363636363636363 3.989898989898992,-1.4646464646464643 3.989898989898992,-1.5656565656565653 3.989898989898992,-1.6666666666666665 3.989898989898992,-1.7676767676767675 3.989898989898992,-1.8686868686868683 3.989898989898992,-1.9696969696969693 3.989898989898992,-2.07070707070707" data-type="line" data-label="" points="888.6464646464647,526.3030303030304 888.6464646464647,535.838383838384 888.6464646464647,545.3737373737374 888.6464646464647,554.909090909091 888.6464646464647,564.4444444444445 888.6464646464647,573.979797979798 888.6464646464647,583.5151515151516 888.6464646464647,593.0505050505051 888.6464646464647,602.5858585858587 888.6464646464647,612.1212121212121 888.6464646464647,621.6565656565657 888.6464646464647,631.1919191919193 888.6464646464647,640.7272727272727 888.6464646464647,650.2626262626263 888.6464646464647,659.7979797979798 888.6464646464647,669.3333333333334 888.6464646464647,678.8686868686868 888.6464646464647,688.4040404040404 888.6464646464647,697.939393939394 888.6464646464647,707.4747474747475" fill="none" stroke="rgba(0,0,255,0.75)" stroke-width="11.327999999999996"/></g><g><polyline data-points="3.989898989898992,-2.07070707070707 3.989898989898992,-2.1717171717171713 3.989898989898992,-2.2727272727272725 3.989898989898992,-2.3737373737373733 3.989898989898992,-2.474747474747474 3.989898989898992,-2.5757575757575752 3.989898989898992,-2.6767676767676765 3.989898989898992,-2.7777777777777777 3.989898989898992,-2.8787878787878785 3.989898989898992,-2.9797979797979792 3.989898989898992,-3.0808080808080804 3.989898989898992,-3.1818181818181817 3.989898989898992,-3.2828282828282824 3.989898989898992,-3.383838383838383 3.989898989898992,-3.484848484848485 3.989898989898992,-3.5858585858585856 3.989898989898992,-3.6868686868686864 3.989898989898992,-3.7878787878787876 3.989898989898992,-3.8888888888888884 3.989898989898992,-3.98989898989899 3.989898989898992,-4.090909090909091 3.989898989898992,-4.191919191919193 3.989898989898992,-4.292929292929293 3.989898989898992,-4.393939393939394 3.989898989898992,-4.494949494949496 3.989898989898992,-4.595959595959596 3.989898989898992,-4.696969696969697 3.989898989898992,-4.7979797979797985 3.989898989898992,-4.898989898989899 3.989898989898992,-5.000000000000001" data-type="line" data-label="" points="888.6464646464647,707.4747474747475 888.6464646464647,717.010101010101 888.6464646464647,726.5454545454545 888.6464646464647,736.0808080808081 888.6464646464647,745.6161616161615 888.6464646464647,755.1515151515151 888.6464646464647,764.6868686868687 888.6464646464647,774.2222222222222 888.6464646464647,783.7575757575758 888.6464646464647,793.2929292929292 888.6464646464647,802.8282828282828 888.6464646464647,812.3636363636363 888.6464646464647,821.8989898989898 888.6464646464647,831.4343434343434 888.6464646464647,840.969696969697 888.6464646464647,850.5050505050505 888.6464646464647,860.0404040404039 888.6464646464647,869.5757575757575 888.6464646464647,879.1111111111111 888.6464646464647,888.6464646464647 888.6464646464647,898.1818181818181 888.6464646464647,907.7171717171718 888.6464646464647,917.2525252525252 888.6464646464647,926.7878787878788 888.6464646464647,936.3232323232323 888.6464646464647,945.8585858585858 888.6464646464647,955.3939393939394 888.6464646464647,964.9292929292928 888.6464646464647,974.4646464646464 888.6464646464647,984" fill="none" stroke="rgba(255,0,0,0.75)" stroke-width="11.327999999999996"/></g><g><rect data-type="rect" data-label="" data-x="0" data-y="0" x="40.000000000000114" y="40.000000000000284" width="943.9999999999997" height="943.9999999999998" fill="none" stroke="gray" stroke-width="0.010593220338983056"/></g><g><rect data-type="rect" data-label="" data-x="0" data-y="0" x="40.000000000000114" y="40.000000000000284" width="943.9999999999997" height="943.9999999999998" fill="none" stroke="rgba(15, 23, 42, 0.8)" stroke-width="0.010593220338983056"/></g><circle data-type="circle" data-label="" data-x="0.2525252525252529" data-y="-2.07070707070707" cx="535.8383838383838" cy="707.4747474747475" r="14.159999999999995" fill="rgba(0,0,0,0.3)" stroke="black" stroke-width="0.010593220338983056"/><circle data-type="circle" data-label="" data-x="0.3535353535353544" data-y="-2.8787878787878785" cx="545.3737373737374" cy="783.7575757575758" r="14.159999999999995" fill="rgba(0,0,0,0.3)" stroke="black" stroke-width="0.010593220338983056"/><circle data-type="circle" data-label="" data-x="-1.4646464646464643" data-y="-2.07070707070707" cx="373.7373737373738" cy="707.4747474747475" r="14.159999999999995" fill="rgba(0,0,0,0.3)" stroke="black" stroke-width="0.010593220338983056"/><circle data-type="circle" data-label="" data-x="-0.2525252525252522" data-y="3.989898989898992" cx="488.16161616161617" cy="135.35353535353545" r="14.159999999999995" fill="rgba(0,0,0,0.3)" stroke="black" stroke-width="0.010593220338983056"/><circle data-type="circle" data-label="" data-x="1.6666666666666674" data-y="3.989898989898992" cx="669.3333333333333" cy="135.35353535353545" r="14.159999999999995" fill="rgba(0,0,0,0.3)" stroke="black" stroke-width="0.010593220338983056"/><circle data-type="circle" data-label="" data-x="3.989898989898992" data-y="-0.15151515151515066" cx="888.6464646464647" cy="526.3030303030304" r="14.159999999999995" fill="rgba(0,0,0,0.3)" stroke="black" stroke-width="0.010593220338983056"/><circle data-type="circle" data-label="" data-x="3.989898989898992" data-y="-2.07070707070707" cx="888.6464646464647" cy="707.4747474747475" r="14.159999999999995" fill="rgba(0,0,0,0.3)" stroke="black" stroke-width="0.010593220338983056"/><g id="crosshair" style="display: none"><line id="crosshair-h" y1="0" y2="1024" stroke="#666" stroke-width="0.5"/><line id="crosshair-v" x1="0" x2="1024" stroke="#666" stroke-width="0.5"/><text id="coordinates" font-family="monospace" font-size="12" fill="#666"></text></g><script><![CDATA[
              document.currentScript.parentElement.addEventListener('mousemove', (e) => {
                const svg = e.currentTarget;
                const rect = svg.getBoundingClientRect();
                const x = e.clientX - rect.left;
                const y = e.clientY - rect.top;
                const crosshair = svg.getElementById('crosshair');
                const h = svg.getElementById('crosshair-h');
                const v = svg.getElementById('crosshair-v');
                const coords = svg.getElementById('coordinates');
                
                crosshair.style.display = 'block';
                h.setAttribute('x1', '0');
                h.setAttribute('x2', '1024');
                h.setAttribute('y1', y);
                h.setAttribute('y2', y);
                v.setAttribute('x1', x);
                v.setAttribute('x2', x);
                v.setAttribute('y1', '0');
                v.setAttribute('y2', '1024');

                // Calculate real coordinates using inverse transformation
                const matrix = {"a":94.39999999999996,"c":0,"e":511.99999999999994,"b":0,"d":-94.39999999999996,"f":512.0000000000001};
                // Manually invert and apply the affine transform
                // Since we only use translate and scale, we can directly compute:
                // x' = (x - tx) / sx
                // y' = (y - ty) / sy
                const sx = matrix.a;
                const sy = matrix.d;
                const tx = matrix.e; 
                const ty = matrix.f;
                const realPoint = {
                  x: (x - tx) / sx,
                  y: (y - ty) / sy // Flip y back since we used negative scale
                }
                
                coords.textContent = `(${realPoint.x.toFixed(2)}, ${realPoint.y.toFixed(2)})`;
                coords.setAttribute('x', (x + 5).toString());
                coords.setAttribute('y', (y - 5).toString());
              });
              document.currentScript.parentElement.addEventListener('mouseleave', () => {
                document.currentScript.parentElement.getElementById('crosshair').style.display = 'none';
              });
            ]]></script></svg>