<svg width="1024" height="1024" viewBox="0 0 1024 1024" xmlns="http://www.w3.org/2000/svg"><rect width="100%" height="100%" fill="white"/><g><circle data-type="point" data-label="conn_000" data-x="4.64" data-y="5" cx="950.0159999999997" cy="40.000000000000284" r="14.16" fill="blue"/></g><g><circle data-type="point" data-label="conn_000" data-x="-1.04" data-y="-5" cx="413.82399999999996" cy="984" r="14.16" fill="blue"/></g><g><circle data-type="point" data-label="conn_001" data-x="5" data-y="0.6" cx="983.9999999999998" cy="455.3600000000001" r="14.16" fill="blue"/></g><g><circle data-type="point" data-label="conn_001" data-x="5" data-y="4.18" cx="983.9999999999998" cy="117.4080000000003" r="14.16" fill="red"/></g><g><circle data-type="point" data-label="conn_002" data-x="-4.5600000000000005" data-y="5" cx="81.53600000000006" cy="40.000000000000284" r="14.16" fill="red"/></g><g><circle data-type="point" data-label="conn_002" data-x="-3" data-y="-5" cx="228.80000000000007" cy="984" r="14.16" fill="red"/></g><g><circle data-type="point" data-label="conn_003" data-x="-2.22" data-y="5" cx="302.432" cy="40.000000000000284" r="14.16" fill="red"/></g><g><circle data-type="point" data-label="conn_003" data-x="-2.74" data-y="-5" cx="253.34400000000005" cy="984" r="14.16" fill="red"/></g><g><circle data-type="point" data-label="conn_004" data-x="-5" data-y="-0.8200000000000001" cx="40.000000000000114" cy="589.4080000000001" r="14.16" fill="blue"/></g><g><circle data-type="point" data-label="conn_004" data-x="5" data-y="3.56" cx="983.9999999999998" cy="175.93600000000026" r="14.16" fill="blue"/></g><g><circle data-type="point" data-label="conn_005" data-x="-2.54" data-y="-5" cx="272.22400000000005" cy="984" r="14.16" fill="red"/></g><g><circle data-type="point" data-label="conn_005" data-x="0.64" data-y="-5" cx="572.4159999999999" cy="984" r="14.16" fill="blue"/></g><g><circle data-type="point" data-label="conn_006" data-x="4.5200000000000005" data-y="-5" cx="938.6879999999999" cy="984" r="14.16" fill="red"/></g><g><circle data-type="point" data-label="conn_006" data-x="1.22" data-y="5" cx="627.1679999999999" cy="40.000000000000284" r="14.16" fill="red"/></g><g><circle data-type="point" data-label="conn_007" data-x="5" data-y="0.48" cx="983.9999999999998" cy="466.6880000000001" r="14.16" fill="blue"/></g><g><circle data-type="point" data-label="conn_007" data-x="-5" data-y="-4.42" cx="40.000000000000114" cy="929.2479999999999" r="14.16" fill="red"/></g><g><circle data-type="point" data-label="conn_008" data-x="-0.86" data-y="5" cx="430.816" cy="40.000000000000284" r="14.16" fill="red"/></g><g><circle data-type="point" data-label="conn_008" data-x="0.98" data-y="-5" cx="604.512" cy="984" r="14.16" fill="blue"/></g><g><circle data-type="point" data-label="conn_009" data-x="-4.34" data-y="-5" cx="102.30400000000014" cy="984" r="14.16" fill="blue"/></g><g><circle data-type="point" data-label="conn_009" data-x="5" data-y="-1" cx="983.9999999999998" cy="606.4000000000001" r="14.16" fill="blue"/></g><g><polyline data-points="5.000000000000002,0.4545454545454551 4.898989898989901,0.3535353535353544 4.7979797979797985,0.2525252525252529 4.696969696969697,0.1515151515151522 4.595959595959597,0.050505050505051545 4.494949494949497,-0.05050505050505001 4.393939393939394,-0.15151515151515066 4.292929292929293,-0.2525252525252522 4.191919191919193,-0.35353535353535287 4.090909090909092,-0.4545454545454544 3.989898989898992,-0.555555555555555 3.8888888888888893,-0.6565656565656557 3.7878787878787885,-0.7575757575757572 3.6868686868686877,-0.8585858585858579 3.5858585858585874,-0.9595959595959596 3.4848484848484866,-1.0606060606060603 3.383838383838384,-1.1616161616161613 3.2828282828282833,-1.2626262626262625 3.181818181818183,-1.363636363636363 3.080808080808082,-1.4646464646464643 2.9797979797979806,-1.5656565656565653 2.87878787878788,-1.6666666666666665 2.7777777777777786,-1.7676767676767675 2.676767676767678,-1.8686868686868683 2.575757575757577,-1.9696969696969693 2.4747474747474754,-2.07070707070707 2.373737373737375,-2.1717171717171713 2.2727272727272734,-2.2727272727272725 2.1717171717171726,-2.3737373737373733 2.070707070707072,-2.474747474747474 1.9696969696969702,-2.5757575757575752 1.8686868686868696,-2.6767676767676765 1.767676767676768,-2.7777777777777777 1.6666666666666674,-2.8787878787878785 1.5656565656565666,-2.9797979797979792 1.4646464646464652,-3.0808080808080804 1.3636363636363644,-3.1818181818181817 1.262626262626263,-3.2828282828282824 1.1616161616161622,-3.383838383838383 1.0606060606060617,-3.484848484848485 0.9595959595959602,-3.5858585858585856 0.8585858585858596,-3.6868686868686864 0.7575757575757579,-3.7878787878787876 0.6565656565656574,-3.8888888888888884 0.5555555555555567,-3.98989898989899 0.4545454545454551,-3.98989898989899 0.3535353535353544,-3.98989898989899 0.2525252525252529,-3.98989898989899 0.1515151515151522,-3.98989898989899 0.050505050505051545,-3.98989898989899 -0.05050505050505001,-3.98989898989899 -0.15151515151515066,-3.98989898989899 -0.2525252525252522,-3.98989898989899 -0.35353535353535287,-3.98989898989899 -0.4545454545454544,-3.98989898989899 -0.555555555555555,-3.98989898989899 -0.6565656565656557,-3.98989898989899 -0.7575757575757572,-3.98989898989899 -0.8585858585858579,-3.98989898989899 -0.9595959595959596,-3.98989898989899 -1.0606060606060603,-3.98989898989899 -1.1616161616161613,-3.98989898989899 -1.2626262626262625,-3.98989898989899 -1.363636363636363,-3.98989898989899 -1.4646464646464643,-3.98989898989899 -1.5656565656565653,-3.98989898989899 -1.6666666666666665,-3.98989898989899 -1.7676767676767675,-3.98989898989899 -1.8686868686868683,-3.98989898989899 -1.9696969696969693,-3.98989898989899 -2.07070707070707,-3.98989898989899 -2.1717171717171713,-3.98989898989899 -2.2727272727272725,-3.98989898989899 -2.3737373737373733,-3.98989898989899 -2.474747474747474,-3.98989898989899 -2.5757575757575752,-3.98989898989899 -2.6767676767676765,-3.98989898989899 -2.7777777777777777,-3.98989898989899 -2.8787878787878785,-3.98989898989899 -2.9797979797979792,-3.98989898989899 -3.0808080808080804,-3.98989898989899 -3.1818181818181817,-3.98989898989899 -3.2828282828282824,-3.98989898989899 -3.383838383838383,-3.98989898989899 -3.484848484848485,-3.98989898989899 -3.5858585858585856,-3.98989898989899 -3.6868686868686864,-3.98989898989899 -3.7878787878787876,-3.98989898989899" data-type="line" data-label="" points="984,469.0909090909092 974.4646464646464,478.6262626262627 964.9292929292927,488.1616161616163 955.3939393939393,497.69696969696975 945.8585858585857,507.23232323232327 936.3232323232323,516.7676767676768 926.7878787878785,526.3030303030304 917.2525252525251,535.838383838384 907.7171717171716,545.3737373737374 898.181818181818,554.909090909091 888.6464646464647,564.4444444444445 879.111111111111,573.979797979798 869.5757575757575,583.5151515151516 860.0404040404039,593.0505050505051 850.5050505050505,602.5858585858587 840.969696969697,612.1212121212121 831.4343434343433,621.6565656565657 821.8989898989898,631.1919191919193 812.3636363636363,640.7272727272727 802.8282828282828,650.2626262626263 793.2929292929292,659.7979797979798 783.7575757575758,669.3333333333334 774.2222222222222,678.8686868686868 764.6868686868686,688.4040404040404 755.1515151515151,697.939393939394 745.6161616161615,707.4747474747475 736.0808080808081,717.010101010101 726.5454545454545,726.5454545454545 717.0101010101009,736.0808080808081 707.4747474747475,745.6161616161615 697.9393939393939,755.1515151515151 688.4040404040404,764.6868686868687 678.8686868686868,774.2222222222222 669.3333333333333,783.7575757575758 659.7979797979798,793.2929292929292 650.2626262626262,802.8282828282828 640.7272727272727,812.3636363636363 631.1919191919192,821.8989898989898 621.6565656565656,831.4343434343434 612.1212121212121,840.969696969697 602.5858585858585,850.5050505050505 593.0505050505051,860.0404040404039 583.5151515151515,869.5757575757575 573.9797979797979,879.1111111111111 564.4444444444445,888.6464646464647 554.9090909090909,888.6464646464647 545.3737373737374,888.6464646464647 535.8383838383838,888.6464646464647 526.3030303030303,888.6464646464647 516.7676767676768,888.6464646464647 507.2323232323232,888.6464646464647 497.69696969696975,888.6464646464647 488.16161616161617,888.6464646464647 478.62626262626264,888.6464646464647 469.09090909090907,888.6464646464647 459.55555555555554,888.6464646464647 450.0202020202021,888.6464646464647 440.4848484848485,888.6464646464647 430.949494949495,888.6464646464647 421.4141414141414,888.6464646464647 411.8787878787879,888.6464646464647 402.34343434343435,888.6464646464647 392.80808080808083,888.6464646464647 383.2727272727273,888.6464646464647 373.7373737373738,888.6464646464647 364.2020202020202,888.6464646464647 354.6666666666667,888.6464646464647 345.13131313131316,888.6464646464647 335.59595959595964,888.6464646464647 326.0606060606061,888.6464646464647 316.5252525252526,888.6464646464647 306.9898989898991,888.6464646464647 297.4545454545455,888.6464646464647 287.91919191919203,888.6464646464647 278.38383838383845,888.6464646464647 268.84848484848493,888.6464646464647 259.3131313131314,888.6464646464647 249.77777777777783,888.6464646464647 240.2424242424243,888.6464646464647 230.70707070707084,888.6464646464647 221.17171717171726,888.6464646464647 211.63636363636374,888.6464646464647 202.10101010101022,888.6464646464647 192.5656565656567,888.6464646464647 183.03030303030312,888.6464646464647 173.4949494949496,888.6464646464647 163.95959595959607,888.6464646464647 154.42424242424255,888.6464646464647" fill="none" stroke="rgba(0,0,255,0.75)" stroke-width="11.327999999999996"/></g><g><polyline data-points="-3.7878787878787876,-3.98989898989899 -3.8888888888888884,-4.090909090909091 -3.98989898989899,-4.191919191919193 -4.090909090909091,-4.292929292929293 -4.191919191919193,-4.393939393939394 -4.292929292929293,-4.494949494949496 -4.393939393939394,-4.494949494949496 -4.494949494949496,-4.494949494949496 -4.595959595959596,-4.494949494949496 -4.696969696969697,-4.494949494949496 -4.7979797979797985,-4.494949494949496 -4.898989898989899,-4.494949494949496 -5.000000000000001,-4.494949494949496" data-type="line" data-label="" points="154.42424242424255,888.6464646464647 144.88888888888903,898.1818181818181 135.35353535353545,907.7171717171718 125.81818181818193,917.2525252525252 116.28282828282829,926.7878787878788 106.74747474747483,936.3232323232323 97.21212121212136,936.3232323232323 87.67676767676772,936.3232323232323 78.14141414141426,936.3232323232323 68.60606060606068,936.3232323232323 59.07070707070716,936.3232323232323 49.53535353535369,936.3232323232323 40.00000000000006,936.3232323232323" fill="none" stroke="rgba(255,0,0,0.75)" stroke-width="11.327999999999996"/></g><g><polyline data-points="-5.000000000000001,-0.8585858585858579 -4.898989898989899,-0.7575757575757572 -4.7979797979797985,-0.6565656565656557 -4.696969696969697,-0.555555555555555 -4.595959595959596,-0.4545454545454544 -4.494949494949496,-0.35353535353535287 -4.393939393939394,-0.2525252525252522 -4.292929292929293,-0.15151515151515066 -4.191919191919193,-0.05050505050505001 -4.090909090909091,0.050505050505051545 -3.98989898989899,0.1515151515151522 -3.8888888888888884,0.2525252525252529 -3.7878787878787876,0.3535353535353544 -3.6868686868686864,0.4545454545454551 -3.5858585858585856,0.5555555555555567 -3.484848484848485,0.6565656565656574 -3.383838383838383,0.7575757575757579 -3.2828282828282824,0.8585858585858596 -3.1818181818181817,0.9595959595959602 -3.0808080808080804,1.0606060606060617 -2.9797979797979792,1.1616161616161622 -2.8787878787878785,1.262626262626263 -2.7777777777777777,1.3636363636363644 -2.6767676767676765,1.4646464646464652 -2.5757575757575752,1.5656565656565666 -2.474747474747474,1.6666666666666674 -2.3737373737373733,1.767676767676768 -2.2727272727272725,1.8686868686868696 -2.1717171717171713,1.9696969696969702 -2.07070707070707,2.070707070707072 -1.9696969696969693,2.1717171717171726 -1.8686868686868683,2.2727272727272734 -1.7676767676767675,2.373737373737375 -1.6666666666666665,2.4747474747474754 -1.5656565656565653,2.575757575757577 -1.4646464646464643,2.676767676767678 -1.363636363636363,2.7777777777777786 -1.2626262626262625,2.87878787878788 -1.1616161616161613,2.9797979797979806 -1.0606060606060603,3.080808080808082 -0.9595959595959596,3.181818181818183 -0.8585858585858579,3.2828282828282833 -0.7575757575757572,3.383838383838384 -0.6565656565656557,3.4848484848484866 -0.555555555555555,3.5858585858585874 -0.4545454545454544,3.5858585858585874 -0.35353535353535287,3.5858585858585874 -0.2525252525252522,3.5858585858585874 -0.15151515151515066,3.5858585858585874 -0.05050505050505001,3.5858585858585874 0.050505050505051545,3.5858585858585874 0.1515151515151522,3.5858585858585874 0.2525252525252529,3.5858585858585874 0.3535353535353544,3.5858585858585874 0.4545454545454551,3.5858585858585874 0.5555555555555567,3.5858585858585874 0.6565656565656574,3.5858585858585874 0.7575757575757579,3.5858585858585874 0.8585858585858596,3.5858585858585874 0.9595959595959602,3.5858585858585874 1.0606060606060617,3.5858585858585874 1.1616161616161622,3.5858585858585874 1.262626262626263,3.5858585858585874 1.3636363636363644,3.5858585858585874 1.4646464646464652,3.5858585858585874 1.5656565656565666,3.5858585858585874 1.6666666666666674,3.5858585858585874 1.767676767676768,3.5858585858585874 1.8686868686868696,3.5858585858585874 1.9696969696969702,3.5858585858585874 2.070707070707072,3.5858585858585874 2.1717171717171726,3.5858585858585874 2.2727272727272734,3.5858585858585874 2.373737373737375,3.5858585858585874 2.4747474747474754,3.5858585858585874 2.575757575757577,3.5858585858585874 2.676767676767678,3.5858585858585874 2.7777777777777786,3.5858585858585874 2.87878787878788,3.5858585858585874 2.9797979797979806,3.5858585858585874 3.080808080808082,3.5858585858585874 3.181818181818183,3.5858585858585874 3.2828282828282833,3.5858585858585874 3.383838383838384,3.5858585858585874 3.4848484848484866,3.5858585858585874 3.5858585858585874,3.5858585858585874 3.6868686868686877,3.5858585858585874 3.7878787878787885,3.5858585858585874 3.8888888888888893,3.5858585858585874 3.989898989898992,3.5858585858585874 4.090909090909092,3.5858585858585874 4.191919191919193,3.5858585858585874 4.292929292929293,3.5858585858585874 4.393939393939394,3.5858585858585874 4.494949494949497,3.5858585858585874 4.595959595959597,3.5858585858585874 4.696969696969697,3.5858585858585874 4.7979797979797985,3.5858585858585874 4.898989898989901,3.5858585858585874 5.000000000000002,3.5858585858585874" data-type="line" data-label="" points="40.00000000000006,593.0505050505051 49.53535353535369,583.5151515151516 59.07070707070716,573.979797979798 68.60606060606068,564.4444444444445 78.14141414141426,554.909090909091 87.67676767676772,545.3737373737374 97.21212121212136,535.838383838384 106.74747474747483,526.3030303030304 116.28282828282829,516.7676767676768 125.81818181818193,507.23232323232327 135.35353535353545,497.69696969696975 144.88888888888903,488.1616161616163 154.42424242424255,478.6262626262627 163.95959595959607,469.0909090909092 173.4949494949496,459.5555555555556 183.03030303030312,450.0202020202021 192.5656565656567,440.4848484848486 202.10101010101022,430.94949494949503 211.63636363636374,421.4141414141415 221.17171717171726,411.87878787878793 230.70707070707084,402.3434343434344 240.2424242424243,392.80808080808094 249.77777777777783,383.27272727272737 259.3131313131314,373.73737373737384 268.84848484848493,364.2020202020203 278.38383838383845,354.66666666666674 287.91919191919203,345.1313131313133 297.4545454545455,335.5959595959597 306.9898989898991,326.06060606060623 316.5252525252526,316.5252525252526 326.0606060606061,306.9898989898991 335.59595959595964,297.4545454545456 345.13131313131316,287.91919191919203 354.6666666666667,278.38383838383857 364.2020202020202,268.84848484848493 373.7373737373738,259.3131313131314 383.2727272727273,249.77777777777794 392.80808080808083,240.24242424242436 402.34343434343435,230.70707070707084 411.8787878787879,221.17171717171726 421.4141414141414,211.63636363636374 430.949494949495,202.10101010101027 440.4848484848485,192.56565656565675 450.0202020202021,183.03030303030312 459.55555555555554,173.4949494949496 469.09090909090907,173.4949494949496 478.62626262626264,173.4949494949496 488.16161616161617,173.4949494949496 497.69696969696975,173.4949494949496 507.2323232323232,173.4949494949496 516.7676767676768,173.4949494949496 526.3030303030303,173.4949494949496 535.8383838383838,173.4949494949496 545.3737373737374,173.4949494949496 554.9090909090909,173.4949494949496 564.4444444444445,173.4949494949496 573.9797979797979,173.4949494949496 583.5151515151515,173.4949494949496 593.0505050505051,173.4949494949496 602.5858585858585,173.4949494949496 612.1212121212121,173.4949494949496 621.6565656565656,173.4949494949496 631.1919191919192,173.4949494949496 640.7272727272727,173.4949494949496 650.2626262626262,173.4949494949496 659.7979797979798,173.4949494949496 669.3333333333333,173.4949494949496 678.8686868686868,173.4949494949496 688.4040404040404,173.4949494949496 697.9393939393939,173.4949494949496 707.4747474747475,173.4949494949496 717.0101010101009,173.4949494949496 726.5454545454545,173.4949494949496 736.0808080808081,173.4949494949496 745.6161616161615,173.4949494949496 755.1515151515151,173.4949494949496 764.6868686868686,173.4949494949496 774.2222222222222,173.4949494949496 783.7575757575758,173.4949494949496 793.2929292929292,173.4949494949496 802.8282828282828,173.4949494949496 812.3636363636363,173.4949494949496 821.8989898989898,173.4949494949496 831.4343434343433,173.4949494949496 840.969696969697,173.4949494949496 850.5050505050505,173.4949494949496 860.0404040404039,173.4949494949496 869.5757575757575,173.4949494949496 879.111111111111,173.4949494949496 888.6464646464647,173.4949494949496 898.181818181818,173.4949494949496 907.7171717171716,173.4949494949496 917.2525252525251,173.4949494949496 926.7878787878785,173.4949494949496 936.3232323232323,173.4949494949496 945.8585858585857,173.4949494949496 955.3939393939393,173.4949494949496 964.9292929292927,173.4949494949496 974.4646464646464,173.4949494949496 984,173.4949494949496" fill="none" stroke="rgba(0,0,255,0.75)" stroke-width="11.327999999999996"/></g><g><polyline data-points="-4.393939393939394,-5.000000000000001 -4.292929292929293,-4.898989898989899 -4.191919191919193,-4.7979797979797985 -4.090909090909091,-4.696969696969697 -3.98989898989899,-4.595959595959596 -3.8888888888888884,-4.494949494949496 -3.7878787878787876,-4.393939393939394 -3.6868686868686864,-4.292929292929293 -3.5858585858585856,-4.191919191919193 -3.484848484848485,-4.191919191919193 -3.383838383838383,-4.191919191919193 -3.2828282828282824,-4.191919191919193 -3.1818181818181817,-4.191919191919193 -3.0808080808080804,-4.191919191919193 -2.9797979797979792,-4.191919191919193 -2.8787878787878785,-4.191919191919193 -2.7777777777777777,-4.191919191919193 -2.6767676767676765,-4.191919191919193 -2.5757575757575752,-4.191919191919193 -2.474747474747474,-4.191919191919193 -2.3737373737373733,-4.191919191919193 -2.2727272727272725,-4.191919191919193 -2.1717171717171713,-4.191919191919193 -2.07070707070707,-4.191919191919193 -1.9696969696969693,-4.191919191919193 -1.8686868686868683,-4.191919191919193 -1.7676767676767675,-4.191919191919193 -1.6666666666666665,-4.191919191919193 -1.5656565656565653,-4.191919191919193 -1.4646464646464643,-4.191919191919193 -1.363636363636363,-4.191919191919193 -1.2626262626262625,-4.191919191919193 -1.1616161616161613,-4.191919191919193 -1.0606060606060603,-4.191919191919193 -0.9595959595959596,-4.191919191919193 -0.8585858585858579,-4.191919191919193 -0.7575757575757572,-4.191919191919193 -0.6565656565656557,-4.191919191919193 -0.555555555555555,-4.191919191919193 -0.4545454545454544,-4.191919191919193 -0.35353535353535287,-4.191919191919193 -0.2525252525252522,-4.191919191919193 -0.15151515151515066,-4.191919191919193 -0.05050505050505001,-4.191919191919193 0.050505050505051545,-4.191919191919193 0.1515151515151522,-4.191919191919193 0.2525252525252529,-4.191919191919193 0.3535353535353544,-4.191919191919193 0.4545454545454551,-4.191919191919193 0.5555555555555567,-4.191919191919193 0.6565656565656574,-4.191919191919193 0.7575757575757579,-4.090909090909091 0.8585858585858596,-3.98989898989899 0.9595959595959602,-3.8888888888888884 1.0606060606060617,-3.7878787878787876 1.1616161616161622,-3.6868686868686864 1.262626262626263,-3.5858585858585856 1.3636363636363644,-3.484848484848485 1.4646464646464652,-3.383838383838383 1.5656565656565666,-3.2828282828282824 1.6666666666666674,-3.1818181818181817 1.767676767676768,-3.0808080808080804 1.8686868686868696,-2.9797979797979792 1.9696969696969702,-2.8787878787878785 2.070707070707072,-2.7777777777777777 2.1717171717171726,-2.6767676767676765 2.2727272727272734,-2.5757575757575752 2.373737373737375,-2.474747474747474 2.4747474747474754,-2.3737373737373733 2.575757575757577,-2.2727272727272725 2.676767676767678,-2.1717171717171713 2.7777777777777786,-2.07070707070707 2.87878787878788,-1.9696969696969693 2.9797979797979806,-1.8686868686868683 3.080808080808082,-1.7676767676767675 3.181818181818183,-1.6666666666666665 3.2828282828282833,-1.5656565656565653 3.383838383838384,-1.4646464646464643 3.4848484848484866,-1.363636363636363 3.5858585858585874,-1.2626262626262625 3.6868686868686877,-1.1616161616161613 3.7878787878787885,-1.0606060606060603 3.8888888888888893,-0.9595959595959596 3.989898989898992,-0.9595959595959596 4.090909090909092,-0.9595959595959596 4.191919191919193,-0.9595959595959596 4.292929292929293,-0.9595959595959596 4.393939393939394,-0.9595959595959596 4.494949494949497,-0.9595959595959596 4.595959595959597,-0.9595959595959596 4.696969696969697,-0.9595959595959596 4.7979797979797985,-0.9595959595959596 4.898989898989901,-0.9595959595959596 5.000000000000002,-0.9595959595959596" data-type="line" data-label="" points="97.21212121212136,984 106.74747474747483,974.4646464646464 116.28282828282829,964.9292929292928 125.81818181818193,955.3939393939394 135.35353535353545,945.8585858585858 144.88888888888903,936.3232323232323 154.42424242424255,926.7878787878788 163.95959595959607,917.2525252525252 173.4949494949496,907.7171717171718 183.03030303030312,907.7171717171718 192.5656565656567,907.7171717171718 202.10101010101022,907.7171717171718 211.63636363636374,907.7171717171718 221.17171717171726,907.7171717171718 230.70707070707084,907.7171717171718 240.2424242424243,907.7171717171718 249.77777777777783,907.7171717171718 259.3131313131314,907.7171717171718 268.84848484848493,907.7171717171718 278.38383838383845,907.7171717171718 287.91919191919203,907.7171717171718 297.4545454545455,907.7171717171718 306.9898989898991,907.7171717171718 316.5252525252526,907.7171717171718 326.0606060606061,907.7171717171718 335.59595959595964,907.7171717171718 345.13131313131316,907.7171717171718 354.6666666666667,907.7171717171718 364.2020202020202,907.7171717171718 373.7373737373738,907.7171717171718 383.2727272727273,907.7171717171718 392.80808080808083,907.7171717171718 402.34343434343435,907.7171717171718 411.8787878787879,907.7171717171718 421.4141414141414,907.7171717171718 430.949494949495,907.7171717171718 440.4848484848485,907.7171717171718 450.0202020202021,907.7171717171718 459.55555555555554,907.7171717171718 469.09090909090907,907.7171717171718 478.62626262626264,907.7171717171718 488.16161616161617,907.7171717171718 497.69696969696975,907.7171717171718 507.2323232323232,907.7171717171718 516.7676767676768,907.7171717171718 526.3030303030303,907.7171717171718 535.8383838383838,907.7171717171718 545.3737373737374,907.7171717171718 554.9090909090909,907.7171717171718 564.4444444444445,907.7171717171718 573.9797979797979,907.7171717171718 583.5151515151515,898.1818181818181 593.0505050505051,888.6464646464647 602.5858585858585,879.1111111111111 612.1212121212121,869.5757575757575 621.6565656565656,860.0404040404039 631.1919191919192,850.5050505050505 640.7272727272727,840.969696969697 650.2626262626262,831.4343434343434 659.7979797979798,821.8989898989898 669.3333333333333,812.3636363636363 678.8686868686868,802.8282828282828 688.4040404040404,793.2929292929292 697.9393939393939,783.7575757575758 707.4747474747475,774.2222222222222 717.0101010101009,764.6868686868687 726.5454545454545,755.1515151515151 736.0808080808081,745.6161616161615 745.6161616161615,736.0808080808081 755.1515151515151,726.5454545454545 764.6868686868686,717.010101010101 774.2222222222222,707.4747474747475 783.7575757575758,697.939393939394 793.2929292929292,688.4040404040404 802.8282828282828,678.8686868686868 812.3636363636363,669.3333333333334 821.8989898989898,659.7979797979798 831.4343434343433,650.2626262626263 840.969696969697,640.7272727272727 850.5050505050505,631.1919191919193 860.0404040404039,621.6565656565657 869.5757575757575,612.1212121212121 879.111111111111,602.5858585858587 888.6464646464647,602.5858585858587 898.181818181818,602.5858585858587 907.7171717171716,602.5858585858587 917.2525252525251,602.5858585858587 926.7878787878785,602.5858585858587 936.3232323232323,602.5858585858587 945.8585858585857,602.5858585858587 955.3939393939393,602.5858585858587 964.9292929292927,602.5858585858587 974.4646464646464,602.5858585858587 984,602.5858585858587" fill="none" stroke="rgba(0,0,255,0.75)" stroke-width="11.327999999999996"/></g><g><polyline data-points="5.000000000000002,0.5555555555555567 5.000000000000002,0.6565656565656574 5.000000000000002,0.7575757575757579 5.000000000000002,0.8585858585858596 5.000000000000002,0.9595959595959602 5.000000000000002,1.0606060606060617 5.000000000000002,1.1616161616161622 5.000000000000002,1.262626262626263 5.000000000000002,1.3636363636363644 5.000000000000002,1.4646464646464652 5.000000000000002,1.5656565656565666 5.000000000000002,1.6666666666666674 4.898989898989901,1.767676767676768 4.7979797979797985,1.8686868686868696 4.696969696969697,1.9696969696969702 4.595959595959597,2.070707070707072 4.494949494949497,2.1717171717171726 4.393939393939394,2.2727272727272734 4.292929292929293,2.373737373737375 4.191919191919193,2.4747474747474754 4.090909090909092,2.575757575757577 3.989898989898992,2.676767676767678" data-type="line" data-label="" points="984,459.5555555555556 984,450.0202020202021 984,440.4848484848486 984,430.94949494949503 984,421.4141414141415 984,411.87878787878793 984,402.3434343434344 984,392.80808080808094 984,383.27272727272737 984,373.73737373737384 984,364.2020202020203 984,354.66666666666674 974.4646464646464,345.1313131313133 964.9292929292927,335.5959595959597 955.3939393939393,326.06060606060623 945.8585858585857,316.5252525252526 936.3232323232323,306.9898989898991 926.7878787878785,297.4545454545456 917.2525252525251,287.91919191919203 907.7171717171716,278.38383838383857 898.181818181818,268.84848484848493 888.6464646464647,259.3131313131314" fill="none" stroke="rgba(0,0,255,0.75)" stroke-width="11.327999999999996"/></g><g><polyline data-points="3.989898989898992,2.676767676767678 4.090909090909092,2.7777777777777786 4.191919191919193,2.87878787878788 4.292929292929293,2.9797979797979806 4.393939393939394,3.080808080808082 4.494949494949497,3.181818181818183 4.595959595959597,3.2828282828282833 4.696969696969697,3.383838383838384 4.7979797979797985,3.4848484848484866 4.898989898989901,3.5858585858585874 5.000000000000002,3.6868686868686877 5.000000000000002,3.7878787878787885 5.000000000000002,3.8888888888888893 5.000000000000002,3.989898989898992 5.000000000000002,4.090909090909092 5.000000000000002,4.191919191919193" data-type="line" data-label="" points="888.6464646464647,259.3131313131314 898.181818181818,249.77777777777794 907.7171717171716,240.24242424242436 917.2525252525251,230.70707070707084 926.7878787878785,221.17171717171726 936.3232323232323,211.63636363636374 945.8585858585857,202.10101010101027 955.3939393939393,192.56565656565675 964.9292929292927,183.03030303030312 974.4646464646464,173.4949494949496 984,163.95959595959613 984,154.4242424242426 984,144.88888888888908 984,135.35353535353545 984,125.81818181818198 984,116.28282828282846" fill="none" stroke="rgba(255,0,0,0.75)" stroke-width="11.327999999999996"/></g><g><polyline data-points="-2.2727272727272725,5.000000000000002 -2.3737373737373733,4.898989898989901 -2.474747474747474,4.7979797979797985 -2.5757575757575752,4.696969696969697 -2.6767676767676765,4.595959595959597 -2.7777777777777777,4.494949494949497 -2.7777777777777777,4.393939393939394 -2.7777777777777777,4.292929292929293 -2.7777777777777777,4.191919191919193 -2.7777777777777777,4.090909090909092 -2.7777777777777777,3.989898989898992 -2.7777777777777777,3.8888888888888893 -2.7777777777777777,3.7878787878787885 -2.7777777777777777,3.6868686868686877 -2.7777777777777777,3.5858585858585874 -2.7777777777777777,3.4848484848484866 -2.7777777777777777,3.383838383838384 -2.7777777777777777,3.2828282828282833 -2.7777777777777777,3.181818181818183 -2.7777777777777777,3.080808080808082 -2.7777777777777777,2.9797979797979806 -2.7777777777777777,2.87878787878788 -2.7777777777777777,2.7777777777777786 -2.7777777777777777,2.676767676767678 -2.7777777777777777,2.575757575757577 -2.7777777777777777,2.4747474747474754 -2.7777777777777777,2.373737373737375 -2.7777777777777777,2.2727272727272734 -2.7777777777777777,2.1717171717171726 -2.7777777777777777,2.070707070707072 -2.7777777777777777,1.9696969696969702 -2.7777777777777777,1.8686868686868696 -2.7777777777777777,1.767676767676768 -2.7777777777777777,1.6666666666666674 -2.7777777777777777,1.5656565656565666 -2.7777777777777777,1.4646464646464652 -2.7777777777777777,1.3636363636363644 -2.7777777777777777,1.262626262626263 -2.7777777777777777,1.1616161616161622 -2.7777777777777777,1.0606060606060617 -2.7777777777777777,0.9595959595959602 -2.7777777777777777,0.8585858585858596 -2.7777777777777777,0.7575757575757579 -2.7777777777777777,0.6565656565656574 -2.7777777777777777,0.5555555555555567 -2.7777777777777777,0.4545454545454551 -2.7777777777777777,0.3535353535353544 -2.7777777777777777,0.2525252525252529 -2.7777777777777777,0.1515151515151522 -2.7777777777777777,0.050505050505051545 -2.7777777777777777,-0.05050505050505001 -2.7777777777777777,-0.15151515151515066 -2.7777777777777777,-0.2525252525252522 -2.7777777777777777,-0.35353535353535287 -2.7777777777777777,-0.4545454545454544 -2.7777777777777777,-0.555555555555555 -2.7777777777777777,-0.6565656565656557 -2.7777777777777777,-0.7575757575757572 -2.7777777777777777,-0.8585858585858579 -2.7777777777777777,-0.9595959595959596 -2.7777777777777777,-1.0606060606060603 -2.7777777777777777,-1.1616161616161613 -2.7777777777777777,-1.2626262626262625 -2.7777777777777777,-1.363636363636363 -2.7777777777777777,-1.4646464646464643 -2.7777777777777777,-1.5656565656565653 -2.7777777777777777,-1.6666666666666665 -2.7777777777777777,-1.7676767676767675 -2.7777777777777777,-1.8686868686868683 -2.7777777777777777,-1.9696969696969693 -2.7777777777777777,-2.07070707070707 -2.7777777777777777,-2.1717171717171713 -2.7777777777777777,-2.2727272727272725 -2.7777777777777777,-2.3737373737373733 -2.7777777777777777,-2.474747474747474 -2.7777777777777777,-2.5757575757575752 -2.7777777777777777,-2.6767676767676765 -2.7777777777777777,-2.7777777777777777 -2.7777777777777777,-2.8787878787878785 -2.7777777777777777,-2.9797979797979792 -2.7777777777777777,-3.0808080808080804 -2.7777777777777777,-3.1818181818181817 -2.7777777777777777,-3.2828282828282824 -2.7777777777777777,-3.383838383838383 -2.7777777777777777,-3.484848484848485 -2.7777777777777777,-3.5858585858585856 -2.7777777777777777,-3.6868686868686864 -2.7777777777777777,-3.7878787878787876 -2.7777777777777777,-3.8888888888888884 -2.7777777777777777,-3.98989898989899 -2.7777777777777777,-4.090909090909091 -2.7777777777777777,-4.191919191919193 -2.7777777777777777,-4.292929292929293 -2.7777777777777777,-4.393939393939394 -2.7777777777777777,-4.494949494949496 -2.7777777777777777,-4.595959595959596 -2.7777777777777777,-4.696969696969697 -2.7777777777777777,-4.7979797979797985 -2.7777777777777777,-4.898989898989899 -2.7777777777777777,-5.000000000000001" data-type="line" data-label="" points="297.4545454545455,40.000000000000114 287.91919191919203,49.53535353535369 278.38383838383845,59.07070707070733 268.84848484848493,68.60606060606085 259.3131313131314,78.14141414141432 249.77777777777783,87.67676767676778 249.77777777777783,97.21212121212153 249.77777777777783,106.747474747475 249.77777777777783,116.28282828282846 249.77777777777783,125.81818181818198 249.77777777777783,135.35353535353545 249.77777777777783,144.88888888888908 249.77777777777783,154.4242424242426 249.77777777777783,163.95959595959613 249.77777777777783,173.4949494949496 249.77777777777783,183.03030303030312 249.77777777777783,192.56565656565675 249.77777777777783,202.10101010101027 249.77777777777783,211.63636363636374 249.77777777777783,221.17171717171726 249.77777777777783,230.70707070707084 249.77777777777783,240.24242424242436 249.77777777777783,249.77777777777794 249.77777777777783,259.3131313131314 249.77777777777783,268.84848484848493 249.77777777777783,278.38383838383857 249.77777777777783,287.91919191919203 249.77777777777783,297.4545454545456 249.77777777777783,306.9898989898991 249.77777777777783,316.5252525252526 249.77777777777783,326.06060606060623 249.77777777777783,335.5959595959597 249.77777777777783,345.1313131313133 249.77777777777783,354.66666666666674 249.77777777777783,364.2020202020203 249.77777777777783,373.73737373737384 249.77777777777783,383.27272727272737 249.77777777777783,392.80808080808094 249.77777777777783,402.3434343434344 249.77777777777783,411.87878787878793 249.77777777777783,421.4141414141415 249.77777777777783,430.94949494949503 249.77777777777783,440.4848484848486 249.77777777777783,450.0202020202021 249.77777777777783,459.5555555555556 249.77777777777783,469.0909090909092 249.77777777777783,478.6262626262627 249.77777777777783,488.1616161616163 249.77777777777783,497.69696969696975 249.77777777777783,507.23232323232327 249.77777777777783,516.7676767676768 249.77777777777783,526.3030303030304 249.77777777777783,535.838383838384 249.77777777777783,545.3737373737374 249.77777777777783,554.909090909091 249.77777777777783,564.4444444444445 249.77777777777783,573.979797979798 249.77777777777783,583.5151515151516 249.77777777777783,593.0505050505051 249.77777777777783,602.5858585858587 249.77777777777783,612.1212121212121 249.77777777777783,621.6565656565657 249.77777777777783,631.1919191919193 249.77777777777783,640.7272727272727 249.77777777777783,650.2626262626263 249.77777777777783,659.7979797979798 249.77777777777783,669.3333333333334 249.77777777777783,678.8686868686868 249.77777777777783,688.4040404040404 249.77777777777783,697.939393939394 249.77777777777783,707.4747474747475 249.77777777777783,717.010101010101 249.77777777777783,726.5454545454545 249.77777777777783,736.0808080808081 249.77777777777783,745.6161616161615 249.77777777777783,755.1515151515151 249.77777777777783,764.6868686868687 249.77777777777783,774.2222222222222 249.77777777777783,783.7575757575758 249.77777777777783,793.2929292929292 249.77777777777783,802.8282828282828 249.77777777777783,812.3636363636363 249.77777777777783,821.8989898989898 249.77777777777783,831.4343434343434 249.77777777777783,840.969696969697 249.77777777777783,850.5050505050505 249.77777777777783,860.0404040404039 249.77777777777783,869.5757575757575 249.77777777777783,879.1111111111111 249.77777777777783,888.6464646464647 249.77777777777783,898.1818181818181 249.77777777777783,907.7171717171718 249.77777777777783,917.2525252525252 249.77777777777783,926.7878787878788 249.77777777777783,936.3232323232323 249.77777777777783,945.8585858585858 249.77777777777783,955.3939393939394 249.77777777777783,964.9292929292928 249.77777777777783,974.4646464646464 249.77777777777783,984" fill="none" stroke="rgba(255,0,0,0.75)" stroke-width="11.327999999999996"/></g><g><polyline data-points="-4.595959595959596,5.000000000000002 -4.494949494949496,4.898989898989901 -4.393939393939394,4.7979797979797985 -4.292929292929293,4.696969696969697 -4.191919191919193,4.595959595959597 -4.090909090909091,4.494949494949497 -3.98989898989899,4.393939393939394 -3.8888888888888884,4.292929292929293 -3.7878787878787876,4.191919191919193 -3.6868686868686864,4.090909090909092 -3.5858585858585856,3.989898989898992 -3.484848484848485,3.8888888888888893 -3.383838383838383,3.7878787878787885 -3.2828282828282824,3.6868686868686877 -3.1818181818181817,3.5858585858585874 -3.0808080808080804,3.4848484848484866 -2.9797979797979792,3.383838383838384 -2.9797979797979792,3.2828282828282833 -2.9797979797979792,3.181818181818183 -2.9797979797979792,3.080808080808082 -2.9797979797979792,2.9797979797979806 -2.9797979797979792,2.87878787878788 -2.9797979797979792,2.7777777777777786 -2.9797979797979792,2.676767676767678 -2.9797979797979792,2.575757575757577 -2.9797979797979792,2.4747474747474754 -2.9797979797979792,2.373737373737375 -2.9797979797979792,2.2727272727272734 -2.9797979797979792,2.1717171717171726 -2.9797979797979792,2.070707070707072 -2.9797979797979792,1.9696969696969702 -2.9797979797979792,1.8686868686868696 -2.9797979797979792,1.767676767676768 -2.9797979797979792,1.6666666666666674 -2.9797979797979792,1.5656565656565666 -2.9797979797979792,1.4646464646464652 -2.9797979797979792,1.3636363636363644 -2.9797979797979792,1.262626262626263 -2.9797979797979792,1.1616161616161622 -2.9797979797979792,1.0606060606060617 -2.9797979797979792,0.9595959595959602 -2.9797979797979792,0.8585858585858596 -2.9797979797979792,0.7575757575757579 -2.9797979797979792,0.6565656565656574 -2.9797979797979792,0.5555555555555567 -2.9797979797979792,0.4545454545454551 -2.9797979797979792,0.3535353535353544 -2.9797979797979792,0.2525252525252529 -2.9797979797979792,0.1515151515151522 -2.9797979797979792,0.050505050505051545 -2.9797979797979792,-0.05050505050505001 -2.9797979797979792,-0.15151515151515066 -2.9797979797979792,-0.2525252525252522 -2.9797979797979792,-0.35353535353535287 -2.9797979797979792,-0.4545454545454544 -2.9797979797979792,-0.555555555555555 -2.9797979797979792,-0.6565656565656557 -2.9797979797979792,-0.7575757575757572 -2.9797979797979792,-0.8585858585858579 -2.9797979797979792,-0.9595959595959596 -2.9797979797979792,-1.0606060606060603 -2.9797979797979792,-1.1616161616161613 -2.9797979797979792,-1.2626262626262625 -2.9797979797979792,-1.363636363636363 -2.9797979797979792,-1.4646464646464643 -2.9797979797979792,-1.5656565656565653 -2.9797979797979792,-1.6666666666666665 -2.9797979797979792,-1.7676767676767675 -2.9797979797979792,-1.8686868686868683 -2.9797979797979792,-1.9696969696969693 -2.9797979797979792,-2.07070707070707 -2.9797979797979792,-2.1717171717171713 -2.9797979797979792,-2.2727272727272725 -2.9797979797979792,-2.3737373737373733 -2.9797979797979792,-2.474747474747474 -2.9797979797979792,-2.5757575757575752 -2.9797979797979792,-2.6767676767676765 -2.9797979797979792,-2.7777777777777777 -2.9797979797979792,-2.8787878787878785 -2.9797979797979792,-2.9797979797979792 -2.9797979797979792,-3.0808080808080804 -2.9797979797979792,-3.1818181818181817 -2.9797979797979792,-3.2828282828282824 -2.9797979797979792,-3.383838383838383 -2.9797979797979792,-3.484848484848485 -2.9797979797979792,-3.5858585858585856 -2.9797979797979792,-3.6868686868686864 -2.9797979797979792,-3.7878787878787876 -2.9797979797979792,-3.8888888888888884 -2.9797979797979792,-3.98989898989899 -2.9797979797979792,-4.090909090909091 -2.9797979797979792,-4.191919191919193 -2.9797979797979792,-4.292929292929293 -2.9797979797979792,-4.393939393939394 -2.9797979797979792,-4.494949494949496 -2.9797979797979792,-4.595959595959596 -2.9797979797979792,-4.696969696969697 -2.9797979797979792,-4.7979797979797985 -2.9797979797979792,-4.898989898989899 -2.9797979797979792,-5.000000000000001" data-type="line" data-label="" points="78.14141414141426,40.000000000000114 87.67676767676772,49.53535353535369 97.21212121212136,59.07070707070733 106.74747474747483,68.60606060606085 116.28282828282829,78.14141414141432 125.81818181818193,87.67676767676778 135.35353535353545,97.21212121212153 144.88888888888903,106.747474747475 154.42424242424255,116.28282828282846 163.95959595959607,125.81818181818198 173.4949494949496,135.35353535353545 183.03030303030312,144.88888888888908 192.5656565656567,154.4242424242426 202.10101010101022,163.95959595959613 211.63636363636374,173.4949494949496 221.17171717171726,183.03030303030312 230.70707070707084,192.56565656565675 230.70707070707084,202.10101010101027 230.70707070707084,211.63636363636374 230.70707070707084,221.17171717171726 230.70707070707084,230.70707070707084 230.70707070707084,240.24242424242436 230.70707070707084,249.77777777777794 230.70707070707084,259.3131313131314 230.70707070707084,268.84848484848493 230.70707070707084,278.38383838383857 230.70707070707084,287.91919191919203 230.70707070707084,297.4545454545456 230.70707070707084,306.9898989898991 230.70707070707084,316.5252525252526 230.70707070707084,326.06060606060623 230.70707070707084,335.5959595959597 230.70707070707084,345.1313131313133 230.70707070707084,354.66666666666674 230.70707070707084,364.2020202020203 230.70707070707084,373.73737373737384 230.70707070707084,383.27272727272737 230.70707070707084,392.80808080808094 230.70707070707084,402.3434343434344 230.70707070707084,411.87878787878793 230.70707070707084,421.4141414141415 230.70707070707084,430.94949494949503 230.70707070707084,440.4848484848486 230.70707070707084,450.0202020202021 230.70707070707084,459.5555555555556 230.70707070707084,469.0909090909092 230.70707070707084,478.6262626262627 230.70707070707084,488.1616161616163 230.70707070707084,497.69696969696975 230.70707070707084,507.23232323232327 230.70707070707084,516.7676767676768 230.70707070707084,526.3030303030304 230.70707070707084,535.838383838384 230.70707070707084,545.3737373737374 230.70707070707084,554.909090909091 230.70707070707084,564.4444444444445 230.70707070707084,573.979797979798 230.70707070707084,583.5151515151516 230.70707070707084,593.0505050505051 230.70707070707084,602.5858585858587 230.70707070707084,612.1212121212121 230.70707070707084,621.6565656565657 230.70707070707084,631.1919191919193 230.70707070707084,640.7272727272727 230.70707070707084,650.2626262626263 230.70707070707084,659.7979797979798 230.70707070707084,669.3333333333334 230.70707070707084,678.8686868686868 230.70707070707084,688.4040404040404 230.70707070707084,697.939393939394 230.70707070707084,707.4747474747475 230.70707070707084,717.010101010101 230.70707070707084,726.5454545454545 230.70707070707084,736.0808080808081 230.70707070707084,745.6161616161615 230.70707070707084,755.1515151515151 230.70707070707084,764.6868686868687 230.70707070707084,774.2222222222222 230.70707070707084,783.7575757575758 230.70707070707084,793.2929292929292 230.70707070707084,802.8282828282828 230.70707070707084,812.3636363636363 230.70707070707084,821.8989898989898 230.70707070707084,831.4343434343434 230.70707070707084,840.969696969697 230.70707070707084,850.5050505050505 230.70707070707084,860.0404040404039 230.70707070707084,869.5757575757575 230.70707070707084,879.1111111111111 230.70707070707084,888.6464646464647 230.70707070707084,898.1818181818181 230.70707070707084,907.7171717171718 230.70707070707084,917.2525252525252 230.70707070707084,926.7878787878788 230.70707070707084,936.3232323232323 230.70707070707084,945.8585858585858 230.70707070707084,955.3939393939394 230.70707070707084,964.9292929292928 230.70707070707084,974.4646464646464 230.70707070707084,984" fill="none" stroke="rgba(255,0,0,0.75)" stroke-width="11.327999999999996"/></g><g><polyline data-points="4.595959595959597,-5.000000000000001 4.494949494949497,-4.898989898989899 4.393939393939394,-4.7979797979797985 4.292929292929293,-4.696969696969697 4.191919191919193,-4.595959595959596 4.090909090909092,-4.494949494949496 3.989898989898992,-4.393939393939394 3.8888888888888893,-4.292929292929293 3.7878787878787885,-4.191919191919193 3.6868686868686877,-4.090909090909091 3.5858585858585874,-3.98989898989899 3.4848484848484866,-3.8888888888888884 3.383838383838384,-3.7878787878787876 3.2828282828282833,-3.6868686868686864 3.181818181818183,-3.5858585858585856 3.080808080808082,-3.484848484848485 2.9797979797979806,-3.383838383838383 2.87878787878788,-3.2828282828282824 2.7777777777777786,-3.1818181818181817 2.676767676767678,-3.0808080808080804 2.575757575757577,-2.9797979797979792 2.4747474747474754,-2.8787878787878785 2.373737373737375,-2.7777777777777777 2.2727272727272734,-2.6767676767676765 2.1717171717171726,-2.5757575757575752 2.070707070707072,-2.474747474747474 1.9696969696969702,-2.3737373737373733 1.8686868686868696,-2.2727272727272725 1.767676767676768,-2.1717171717171713 1.6666666666666674,-2.07070707070707 1.5656565656565666,-1.9696969696969693 1.4646464646464652,-1.8686868686868683 1.3636363636363644,-1.7676767676767675 1.262626262626263,-1.6666666666666665 1.262626262626263,-1.5656565656565653 1.262626262626263,-1.4646464646464643 1.262626262626263,-1.363636363636363 1.262626262626263,-1.2626262626262625 1.262626262626263,-1.1616161616161613 1.262626262626263,-1.0606060606060603 1.262626262626263,-0.9595959595959596 1.262626262626263,-0.8585858585858579 1.262626262626263,-0.7575757575757572 1.262626262626263,-0.6565656565656557 1.262626262626263,-0.555555555555555 1.262626262626263,-0.4545454545454544 1.262626262626263,-0.35353535353535287 1.262626262626263,-0.2525252525252522 1.262626262626263,-0.15151515151515066 1.262626262626263,-0.05050505050505001 1.262626262626263,0.050505050505051545 1.262626262626263,0.1515151515151522 1.262626262626263,0.2525252525252529 1.262626262626263,0.3535353535353544 1.262626262626263,0.4545454545454551 1.262626262626263,0.5555555555555567 1.262626262626263,0.6565656565656574 1.262626262626263,0.7575757575757579 1.262626262626263,0.8585858585858596 1.262626262626263,0.9595959595959602 1.262626262626263,1.0606060606060617 1.262626262626263,1.1616161616161622 1.262626262626263,1.262626262626263 1.262626262626263,1.3636363636363644 1.262626262626263,1.4646464646464652 1.262626262626263,1.5656565656565666 1.262626262626263,1.6666666666666674 1.262626262626263,1.767676767676768 1.262626262626263,1.8686868686868696 1.262626262626263,1.9696969696969702 1.262626262626263,2.070707070707072 1.262626262626263,2.1717171717171726 1.262626262626263,2.2727272727272734 1.262626262626263,2.373737373737375 1.262626262626263,2.4747474747474754 1.262626262626263,2.575757575757577 1.262626262626263,2.676767676767678 1.262626262626263,2.7777777777777786 1.262626262626263,2.87878787878788 1.262626262626263,2.9797979797979806 1.262626262626263,3.080808080808082 1.262626262626263,3.181818181818183 1.262626262626263,3.2828282828282833 1.262626262626263,3.383838383838384 1.262626262626263,3.4848484848484866 1.262626262626263,3.5858585858585874 1.262626262626263,3.6868686868686877 1.262626262626263,3.7878787878787885 1.262626262626263,3.8888888888888893 1.262626262626263,3.989898989898992 1.262626262626263,4.090909090909092 1.262626262626263,4.191919191919193 1.262626262626263,4.292929292929293 1.262626262626263,4.393939393939394 1.262626262626263,4.494949494949497 1.262626262626263,4.595959595959597 1.262626262626263,4.696969696969697 1.262626262626263,4.7979797979797985 1.262626262626263,4.898989898989901 1.262626262626263,5.000000000000002" data-type="line" data-label="" points="945.8585858585857,984 936.3232323232323,974.4646464646464 926.7878787878785,964.9292929292928 917.2525252525251,955.3939393939394 907.7171717171716,945.8585858585858 898.181818181818,936.3232323232323 888.6464646464647,926.7878787878788 879.111111111111,917.2525252525252 869.5757575757575,907.7171717171718 860.0404040404039,898.1818181818181 850.5050505050505,888.6464646464647 840.969696969697,879.1111111111111 831.4343434343433,869.5757575757575 821.8989898989898,860.0404040404039 812.3636363636363,850.5050505050505 802.8282828282828,840.969696969697 793.2929292929292,831.4343434343434 783.7575757575758,821.8989898989898 774.2222222222222,812.3636363636363 764.6868686868686,802.8282828282828 755.1515151515151,793.2929292929292 745.6161616161615,783.7575757575758 736.0808080808081,774.2222222222222 726.5454545454545,764.6868686868687 717.0101010101009,755.1515151515151 707.4747474747475,745.6161616161615 697.9393939393939,736.0808080808081 688.4040404040404,726.5454545454545 678.8686868686868,717.010101010101 669.3333333333333,707.4747474747475 659.7979797979798,697.939393939394 650.2626262626262,688.4040404040404 640.7272727272727,678.8686868686868 631.1919191919192,669.3333333333334 631.1919191919192,659.7979797979798 631.1919191919192,650.2626262626263 631.1919191919192,640.7272727272727 631.1919191919192,631.1919191919193 631.1919191919192,621.6565656565657 631.1919191919192,612.1212121212121 631.1919191919192,602.5858585858587 631.1919191919192,593.0505050505051 631.1919191919192,583.5151515151516 631.1919191919192,573.979797979798 631.1919191919192,564.4444444444445 631.1919191919192,554.909090909091 631.1919191919192,545.3737373737374 631.1919191919192,535.838383838384 631.1919191919192,526.3030303030304 631.1919191919192,516.7676767676768 631.1919191919192,507.23232323232327 631.1919191919192,497.69696969696975 631.1919191919192,488.1616161616163 631.1919191919192,478.6262626262627 631.1919191919192,469.0909090909092 631.1919191919192,459.5555555555556 631.1919191919192,450.0202020202021 631.1919191919192,440.4848484848486 631.1919191919192,430.94949494949503 631.1919191919192,421.4141414141415 631.1919191919192,411.87878787878793 631.1919191919192,402.3434343434344 631.1919191919192,392.80808080808094 631.1919191919192,383.27272727272737 631.1919191919192,373.73737373737384 631.1919191919192,364.2020202020203 631.1919191919192,354.66666666666674 631.1919191919192,345.1313131313133 631.1919191919192,335.5959595959597 631.1919191919192,326.06060606060623 631.1919191919192,316.5252525252526 631.1919191919192,306.9898989898991 631.1919191919192,297.4545454545456 631.1919191919192,287.91919191919203 631.1919191919192,278.38383838383857 631.1919191919192,268.84848484848493 631.1919191919192,259.3131313131314 631.1919191919192,249.77777777777794 631.1919191919192,240.24242424242436 631.1919191919192,230.70707070707084 631.1919191919192,221.17171717171726 631.1919191919192,211.63636363636374 631.1919191919192,202.10101010101027 631.1919191919192,192.56565656565675 631.1919191919192,183.03030303030312 631.1919191919192,173.4949494949496 631.1919191919192,163.95959595959613 631.1919191919192,154.4242424242426 631.1919191919192,144.88888888888908 631.1919191919192,135.35353535353545 631.1919191919192,125.81818181818198 631.1919191919192,116.28282828282846 631.1919191919192,106.747474747475 631.1919191919192,97.21212121212153 631.1919191919192,87.67676767676778 631.1919191919192,78.14141414141432 631.1919191919192,68.60606060606085 631.1919191919192,59.07070707070733 631.1919191919192,49.53535353535369 631.1919191919192,40.000000000000114" fill="none" stroke="rgba(255,0,0,0.75)" stroke-width="11.327999999999996"/></g><g><polyline data-points="4.696969696969697,5.000000000000002 4.696969696969697,4.898989898989901 4.595959595959597,4.7979797979797985 4.494949494949497,4.696969696969697 4.393939393939394,4.595959595959597 4.292929292929293,4.494949494949497 4.191919191919193,4.393939393939394 4.090909090909092,4.292929292929293 3.989898989898992,4.191919191919193 3.8888888888888893,4.090909090909092 3.7878787878787885,3.989898989898992" data-type="line" data-label="" points="955.3939393939393,40.000000000000114 955.3939393939393,49.53535353535369 945.8585858585857,59.07070707070733 936.3232323232323,68.60606060606085 926.7878787878785,78.14141414141432 917.2525252525251,87.67676767676778 907.7171717171716,97.21212121212153 898.181818181818,106.747474747475 888.6464646464647,116.28282828282846 879.111111111111,125.81818181818198 869.5757575757575,135.35353535353545" fill="none" stroke="rgba(0,0,255,0.75)" stroke-width="11.327999999999996"/></g><g><polyline data-points="3.7878787878787885,3.989898989898992 3.6868686868686877,3.8888888888888893 3.5858585858585874,3.7878787878787885 3.4848484848484866,3.6868686868686877 3.383838383838384,3.5858585858585874 3.2828282828282833,3.4848484848484866 3.181818181818183,3.383838383838384 3.080808080808082,3.2828282828282833 2.9797979797979806,3.181818181818183 2.87878787878788,3.080808080808082 2.7777777777777786,2.9797979797979806 2.676767676767678,2.87878787878788 2.575757575757577,2.7777777777777786 2.4747474747474754,2.676767676767678 2.373737373737375,2.575757575757577 2.2727272727272734,2.4747474747474754 2.1717171717171726,2.373737373737375 2.070707070707072,2.2727272727272734 1.9696969696969702,2.1717171717171726 1.8686868686868696,2.070707070707072 1.767676767676768,1.9696969696969702 1.767676767676768,1.8686868686868696 1.767676767676768,1.767676767676768 1.767676767676768,1.6666666666666674 1.767676767676768,1.5656565656565666 1.767676767676768,1.4646464646464652 1.767676767676768,1.3636363636363644 1.767676767676768,1.262626262626263 1.767676767676768,1.1616161616161622 1.767676767676768,1.0606060606060617 1.767676767676768,0.9595959595959602 1.767676767676768,0.8585858585858596 1.767676767676768,0.7575757575757579 1.767676767676768,0.6565656565656574 1.767676767676768,0.5555555555555567 1.767676767676768,0.4545454545454551 1.767676767676768,0.3535353535353544 1.767676767676768,0.2525252525252529 1.767676767676768,0.1515151515151522 1.767676767676768,0.050505050505051545 1.767676767676768,-0.05050505050505001 1.767676767676768,-0.15151515151515066 1.767676767676768,-0.2525252525252522 1.767676767676768,-0.35353535353535287 1.767676767676768,-0.4545454545454544 1.767676767676768,-0.555555555555555 1.767676767676768,-0.6565656565656557 1.767676767676768,-0.7575757575757572 1.767676767676768,-0.8585858585858579 1.767676767676768,-0.9595959595959596 1.767676767676768,-1.0606060606060603 1.767676767676768,-1.1616161616161613 1.767676767676768,-1.2626262626262625 1.767676767676768,-1.363636363636363 1.767676767676768,-1.4646464646464643 1.6666666666666674,-1.5656565656565653" data-type="line" data-label="" points="869.5757575757575,135.35353535353545 860.0404040404039,144.88888888888908 850.5050505050505,154.4242424242426 840.969696969697,163.95959595959613 831.4343434343433,173.4949494949496 821.8989898989898,183.03030303030312 812.3636363636363,192.56565656565675 802.8282828282828,202.10101010101027 793.2929292929292,211.63636363636374 783.7575757575758,221.17171717171726 774.2222222222222,230.70707070707084 764.6868686868686,240.24242424242436 755.1515151515151,249.77777777777794 745.6161616161615,259.3131313131314 736.0808080808081,268.84848484848493 726.5454545454545,278.38383838383857 717.0101010101009,287.91919191919203 707.4747474747475,297.4545454545456 697.9393939393939,306.9898989898991 688.4040404040404,316.5252525252526 678.8686868686868,326.06060606060623 678.8686868686868,335.5959595959597 678.8686868686868,345.1313131313133 678.8686868686868,354.66666666666674 678.8686868686868,364.2020202020203 678.8686868686868,373.73737373737384 678.8686868686868,383.27272727272737 678.8686868686868,392.80808080808094 678.8686868686868,402.3434343434344 678.8686868686868,411.87878787878793 678.8686868686868,421.4141414141415 678.8686868686868,430.94949494949503 678.8686868686868,440.4848484848486 678.8686868686868,450.0202020202021 678.8686868686868,459.5555555555556 678.8686868686868,469.0909090909092 678.8686868686868,478.6262626262627 678.8686868686868,488.1616161616163 678.8686868686868,497.69696969696975 678.8686868686868,507.23232323232327 678.8686868686868,516.7676767676768 678.8686868686868,526.3030303030304 678.8686868686868,535.838383838384 678.8686868686868,545.3737373737374 678.8686868686868,554.909090909091 678.8686868686868,564.4444444444445 678.8686868686868,573.979797979798 678.8686868686868,583.5151515151516 678.8686868686868,593.0505050505051 678.8686868686868,602.5858585858587 678.8686868686868,612.1212121212121 678.8686868686868,621.6565656565657 678.8686868686868,631.1919191919193 678.8686868686868,640.7272727272727 678.8686868686868,650.2626262626263 669.3333333333333,659.7979797979798" fill="none" stroke="rgba(255,0,0,0.75)" stroke-width="11.327999999999996"/></g><g><polyline data-points="1.6666666666666674,-1.5656565656565653 1.5656565656565666,-1.4646464646464643 1.4646464646464652,-1.5656565656565653 1.3636363636363644,-1.6666666666666665 1.262626262626263,-1.7676767676767675 1.1616161616161622,-1.8686868686868683 1.1616161616161622,-1.9696969696969693 1.1616161616161622,-2.07070707070707 1.1616161616161622,-2.1717171717171713 1.1616161616161622,-2.2727272727272725 1.1616161616161622,-2.3737373737373733 1.1616161616161622,-2.474747474747474 1.1616161616161622,-2.5757575757575752 1.1616161616161622,-2.6767676767676765 1.1616161616161622,-2.7777777777777777 1.1616161616161622,-2.8787878787878785" data-type="line" data-label="" points="669.3333333333333,659.7979797979798 659.7979797979798,650.2626262626263 650.2626262626262,659.7979797979798 640.7272727272727,669.3333333333334 631.1919191919192,678.8686868686868 621.6565656565656,688.4040404040404 621.6565656565656,697.939393939394 621.6565656565656,707.4747474747475 621.6565656565656,717.010101010101 621.6565656565656,726.5454545454545 621.6565656565656,736.0808080808081 621.6565656565656,745.6161616161615 621.6565656565656,755.1515151515151 621.6565656565656,764.6868686868687 621.6565656565656,774.2222222222222 621.6565656565656,783.7575757575758" fill="none" stroke="rgba(0,0,255,0.75)" stroke-width="11.327999999999996"/></g><g><polyline data-points="1.1616161616161622,-2.8787878787878785 1.1616161616161622,-2.9797979797979792 1.1616161616161622,-3.0808080808080804 1.1616161616161622,-3.1818181818181817 1.1616161616161622,-3.2828282828282824 1.1616161616161622,-3.383838383838383 1.1616161616161622,-3.484848484848485 1.1616161616161622,-3.5858585858585856 1.262626262626263,-3.6868686868686864 1.3636363636363644,-3.7878787878787876 1.4646464646464652,-3.8888888888888884" data-type="line" data-label="" points="621.6565656565656,783.7575757575758 621.6565656565656,793.2929292929292 621.6565656565656,802.8282828282828 621.6565656565656,812.3636363636363 621.6565656565656,821.8989898989898 621.6565656565656,831.4343434343434 621.6565656565656,840.969696969697 621.6565656565656,850.5050505050505 631.1919191919192,860.0404040404039 640.7272727272727,869.5757575757575 650.2626262626262,879.1111111111111" fill="none" stroke="rgba(255,0,0,0.75)" stroke-width="11.327999999999996"/></g><g><polyline data-points="1.4646464646464652,-3.8888888888888884 1.5656565656565666,-3.98989898989899 1.4646464646464652,-4.090909090909091 1.3636363636363644,-4.191919191919193 1.262626262626263,-4.191919191919193 1.1616161616161622,-4.292929292929293 1.0606060606060617,-4.393939393939394 0.9595959595959602,-4.292929292929293 0.8585858585858596,-4.393939393939394 0.7575757575757579,-4.393939393939394 0.6565656565656574,-4.393939393939394 0.5555555555555567,-4.393939393939394 0.4545454545454551,-4.494949494949496 0.3535353535353544,-4.595959595959596 0.2525252525252529,-4.696969696969697 0.1515151515151522,-4.7979797979797985 0.050505050505051545,-4.898989898989899 -0.05050505050505001,-4.898989898989899 -0.15151515151515066,-4.898989898989899 -0.2525252525252522,-4.898989898989899 -0.35353535353535287,-4.898989898989899 -0.4545454545454544,-4.898989898989899 -0.555555555555555,-4.898989898989899 -0.6565656565656557,-4.898989898989899 -0.7575757575757572,-4.898989898989899 -0.8585858585858579,-4.898989898989899 -0.9595959595959596,-4.898989898989899 -1.0606060606060603,-5.000000000000001" data-type="line" data-label="" points="650.2626262626262,879.1111111111111 659.7979797979798,888.6464646464647 650.2626262626262,898.1818181818181 640.7272727272727,907.7171717171718 631.1919191919192,907.7171717171718 621.6565656565656,917.2525252525252 612.1212121212121,926.7878787878788 602.5858585858585,917.2525252525252 593.0505050505051,926.7878787878788 583.5151515151515,926.7878787878788 573.9797979797979,926.7878787878788 564.4444444444445,926.7878787878788 554.9090909090909,936.3232323232323 545.3737373737374,945.8585858585858 535.8383838383838,955.3939393939394 526.3030303030303,964.9292929292928 516.7676767676768,974.4646464646464 507.2323232323232,974.4646464646464 497.69696969696975,974.4646464646464 488.16161616161617,974.4646464646464 478.62626262626264,974.4646464646464 469.09090909090907,974.4646464646464 459.55555555555554,974.4646464646464 450.0202020202021,974.4646464646464 440.4848484848485,974.4646464646464 430.949494949495,974.4646464646464 421.4141414141414,974.4646464646464 411.8787878787879,984" fill="none" stroke="rgba(0,0,255,0.75)" stroke-width="11.327999999999996"/></g><g><polyline data-points="-0.8585858585858579,5.000000000000002 -0.7575757575757572,5.000000000000002 -0.6565656565656557,4.898989898989901 -0.555555555555555,4.7979797979797985 -0.4545454545454544,4.696969696969697 -0.35353535353535287,4.595959595959597 -0.2525252525252522,4.494949494949497 -0.15151515151515066,4.393939393939394 -0.05050505050505001,4.292929292929293 0.050505050505051545,4.191919191919193 0.1515151515151522,4.090909090909092 0.2525252525252529,3.989898989898992 0.3535353535353544,3.8888888888888893 0.4545454545454551,3.7878787878787885 0.5555555555555567,3.6868686868686877 0.6565656565656574,3.5858585858585874 0.7575757575757579,3.4848484848484866 0.8585858585858596,3.383838383838384 0.8585858585858596,3.2828282828282833 0.7575757575757579,3.181818181818183 0.8585858585858596,3.080808080808082 0.8585858585858596,2.9797979797979806 0.8585858585858596,2.87878787878788 0.8585858585858596,2.7777777777777786 0.8585858585858596,2.676767676767678 0.8585858585858596,2.575757575757577 0.8585858585858596,2.4747474747474754 0.8585858585858596,2.373737373737375 0.8585858585858596,2.2727272727272734 0.8585858585858596,2.1717171717171726 0.8585858585858596,2.070707070707072 0.8585858585858596,1.9696969696969702 0.8585858585858596,1.8686868686868696 0.8585858585858596,1.767676767676768 0.8585858585858596,1.6666666666666674 0.8585858585858596,1.5656565656565666 0.8585858585858596,1.4646464646464652 0.8585858585858596,1.3636363636363644 0.8585858585858596,1.262626262626263 0.8585858585858596,1.1616161616161622 0.8585858585858596,1.0606060606060617 0.8585858585858596,0.9595959595959602 0.8585858585858596,0.8585858585858596 0.8585858585858596,0.7575757575757579 0.8585858585858596,0.6565656565656574 0.8585858585858596,0.5555555555555567 0.8585858585858596,0.4545454545454551 0.8585858585858596,0.3535353535353544 0.8585858585858596,0.2525252525252529 0.8585858585858596,0.1515151515151522 0.8585858585858596,0.050505050505051545 0.8585858585858596,-0.05050505050505001 0.8585858585858596,-0.15151515151515066 0.8585858585858596,-0.2525252525252522 0.8585858585858596,-0.35353535353535287 0.8585858585858596,-0.4545454545454544 0.8585858585858596,-0.555555555555555 0.8585858585858596,-0.6565656565656557 0.8585858585858596,-0.7575757575757572 0.8585858585858596,-0.8585858585858579 0.8585858585858596,-0.9595959595959596 0.8585858585858596,-1.0606060606060603 0.8585858585858596,-1.1616161616161613 0.8585858585858596,-1.2626262626262625 0.8585858585858596,-1.363636363636363 0.8585858585858596,-1.4646464646464643 0.8585858585858596,-1.5656565656565653 0.8585858585858596,-1.6666666666666665 0.8585858585858596,-1.7676767676767675 0.8585858585858596,-1.8686868686868683 0.8585858585858596,-1.9696969696969693 0.8585858585858596,-2.07070707070707 0.8585858585858596,-2.1717171717171713 0.8585858585858596,-2.2727272727272725 0.9595959595959602,-2.3737373737373733 1.0606060606060617,-2.474747474747474 1.1616161616161622,-2.5757575757575752 1.262626262626263,-2.6767676767676765 1.3636363636363644,-2.7777777777777777 1.4646464646464652,-2.8787878787878785 1.4646464646464652,-2.9797979797979792 1.5656565656565666,-3.0808080808080804 1.6666666666666674,-3.1818181818181817 1.767676767676768,-3.2828282828282824 1.8686868686868696,-3.383838383838383 1.9696969696969702,-3.484848484848485 2.070707070707072,-3.5858585858585856 2.070707070707072,-3.6868686868686864" data-type="line" data-label="" points="430.949494949495,40.000000000000114 440.4848484848485,40.000000000000114 450.0202020202021,49.53535353535369 459.55555555555554,59.07070707070733 469.09090909090907,68.60606060606085 478.62626262626264,78.14141414141432 488.16161616161617,87.67676767676778 497.69696969696975,97.21212121212153 507.2323232323232,106.747474747475 516.7676767676768,116.28282828282846 526.3030303030303,125.81818181818198 535.8383838383838,135.35353535353545 545.3737373737374,144.88888888888908 554.9090909090909,154.4242424242426 564.4444444444445,163.95959595959613 573.9797979797979,173.4949494949496 583.5151515151515,183.03030303030312 593.0505050505051,192.56565656565675 593.0505050505051,202.10101010101027 583.5151515151515,211.63636363636374 593.0505050505051,221.17171717171726 593.0505050505051,230.70707070707084 593.0505050505051,240.24242424242436 593.0505050505051,249.77777777777794 593.0505050505051,259.3131313131314 593.0505050505051,268.84848484848493 593.0505050505051,278.38383838383857 593.0505050505051,287.91919191919203 593.0505050505051,297.4545454545456 593.0505050505051,306.9898989898991 593.0505050505051,316.5252525252526 593.0505050505051,326.06060606060623 593.0505050505051,335.5959595959597 593.0505050505051,345.1313131313133 593.0505050505051,354.66666666666674 593.0505050505051,364.2020202020203 593.0505050505051,373.73737373737384 593.0505050505051,383.27272727272737 593.0505050505051,392.80808080808094 593.0505050505051,402.3434343434344 593.0505050505051,411.87878787878793 593.0505050505051,421.4141414141415 593.0505050505051,430.94949494949503 593.0505050505051,440.4848484848486 593.0505050505051,450.0202020202021 593.0505050505051,459.5555555555556 593.0505050505051,469.0909090909092 593.0505050505051,478.6262626262627 593.0505050505051,488.1616161616163 593.0505050505051,497.69696969696975 593.0505050505051,507.23232323232327 593.0505050505051,516.7676767676768 593.0505050505051,526.3030303030304 593.0505050505051,535.838383838384 593.0505050505051,545.3737373737374 593.0505050505051,554.909090909091 593.0505050505051,564.4444444444445 593.0505050505051,573.979797979798 593.0505050505051,583.5151515151516 593.0505050505051,593.0505050505051 593.0505050505051,602.5858585858587 593.0505050505051,612.1212121212121 593.0505050505051,621.6565656565657 593.0505050505051,631.1919191919193 593.0505050505051,640.7272727272727 593.0505050505051,650.2626262626263 593.0505050505051,659.7979797979798 593.0505050505051,669.3333333333334 593.0505050505051,678.8686868686868 593.0505050505051,688.4040404040404 593.0505050505051,697.939393939394 593.0505050505051,707.4747474747475 593.0505050505051,717.010101010101 593.0505050505051,726.5454545454545 602.5858585858585,736.0808080808081 612.1212121212121,745.6161616161615 621.6565656565656,755.1515151515151 631.1919191919192,764.6868686868687 640.7272727272727,774.2222222222222 650.2626262626262,783.7575757575758 650.2626262626262,793.2929292929292 659.7979797979798,802.8282828282828 669.3333333333333,812.3636363636363 678.8686868686868,821.8989898989898 688.4040404040404,831.4343434343434 697.9393939393939,840.969696969697 707.4747474747475,850.5050505050505 707.4747474747475,860.0404040404039" fill="none" stroke="rgba(255,0,0,0.75)" stroke-width="11.327999999999996"/></g><g><polyline data-points="2.070707070707072,-3.6868686868686864 2.1717171717171726,-3.7878787878787876 2.070707070707072,-3.8888888888888884 1.9696969696969702,-3.98989898989899 1.8686868686868696,-4.090909090909091 1.767676767676768,-4.191919191919193 1.6666666666666674,-4.292929292929293 1.5656565656565666,-4.393939393939394 1.4646464646464652,-4.494949494949496 1.3636363636363644,-4.595959595959596 1.262626262626263,-4.696969696969697 1.1616161616161622,-4.7979797979797985 1.0606060606060617,-4.898989898989899 0.9595959595959602,-5.000000000000001" data-type="line" data-label="" points="707.4747474747475,860.0404040404039 717.0101010101009,869.5757575757575 707.4747474747475,879.1111111111111 697.9393939393939,888.6464646464647 688.4040404040404,898.1818181818181 678.8686868686868,907.7171717171718 669.3333333333333,917.2525252525252 659.7979797979798,926.7878787878788 650.2626262626262,936.3232323232323 640.7272727272727,945.8585858585858 631.1919191919192,955.3939393939394 621.6565656565656,964.9292929292928 612.1212121212121,974.4646464646464 602.5858585858585,984" fill="none" stroke="rgba(0,0,255,0.75)" stroke-width="11.327999999999996"/></g><g><polyline data-points="-2.5757575757575752,-5.000000000000001 -2.5757575757575752,-4.898989898989899 -2.474747474747474,-4.7979797979797985 -2.3737373737373733,-4.7979797979797985 -2.2727272727272725,-4.7979797979797985 -2.1717171717171713,-4.7979797979797985 -2.07070707070707,-4.7979797979797985 -1.9696969696969693,-4.7979797979797985 -1.8686868686868683,-4.7979797979797985 -1.7676767676767675,-4.7979797979797985 -1.6666666666666665,-4.7979797979797985 -1.5656565656565653,-4.7979797979797985 -1.4646464646464643,-4.7979797979797985 -1.363636363636363,-4.7979797979797985 -1.2626262626262625,-4.696969696969697 -1.1616161616161613,-4.595959595959596 -1.0606060606060603,-4.494949494949496 -0.9595959595959596,-4.393939393939394 -0.8585858585858579,-4.393939393939394 -0.7575757575757572,-4.393939393939394 -0.6565656565656557,-4.393939393939394 -0.555555555555555,-4.393939393939394 -0.4545454545454544,-4.393939393939394 -0.35353535353535287,-4.393939393939394 -0.2525252525252522,-4.393939393939394 -0.15151515151515066,-4.393939393939394 -0.05050505050505001,-4.393939393939394 0.050505050505051545,-4.393939393939394 0.1515151515151522,-4.393939393939394 0.2525252525252529,-4.393939393939394 0.3535353535353544,-4.393939393939394 0.4545454545454551,-4.393939393939394 0.5555555555555567,-4.393939393939394 0.6565656565656574,-4.393939393939394 0.7575757575757579,-4.393939393939394 0.8585858585858596,-4.494949494949496 0.9595959595959602,-4.494949494949496 1.0606060606060617,-4.494949494949496 1.1616161616161622,-4.494949494949496 1.262626262626263,-4.494949494949496 1.3636363636363644,-4.595959595959596 1.4646464646464652,-4.595959595959596 1.5656565656565666,-4.494949494949496 1.6666666666666674,-4.393939393939394 1.767676767676768,-4.292929292929293 1.8686868686868696,-4.191919191919193 1.9696969696969702,-4.090909090909091 2.070707070707072,-3.98989898989899 2.1717171717171726,-3.8888888888888884 2.2727272727272734,-3.7878787878787876 2.373737373737375,-3.6868686868686864 2.373737373737375,-3.5858585858585856 2.373737373737375,-3.484848484848485 2.373737373737375,-3.383838383838383" data-type="line" data-label="" points="268.84848484848493,984 268.84848484848493,974.4646464646464 278.38383838383845,964.9292929292928 287.91919191919203,964.9292929292928 297.4545454545455,964.9292929292928 306.9898989898991,964.9292929292928 316.5252525252526,964.9292929292928 326.0606060606061,964.9292929292928 335.59595959595964,964.9292929292928 345.13131313131316,964.9292929292928 354.6666666666667,964.9292929292928 364.2020202020202,964.9292929292928 373.7373737373738,964.9292929292928 383.2727272727273,964.9292929292928 392.80808080808083,955.3939393939394 402.34343434343435,945.8585858585858 411.8787878787879,936.3232323232323 421.4141414141414,926.7878787878788 430.949494949495,926.7878787878788 440.4848484848485,926.7878787878788 450.0202020202021,926.7878787878788 459.55555555555554,926.7878787878788 469.09090909090907,926.7878787878788 478.62626262626264,926.7878787878788 488.16161616161617,926.7878787878788 497.69696969696975,926.7878787878788 507.2323232323232,926.7878787878788 516.7676767676768,926.7878787878788 526.3030303030303,926.7878787878788 535.8383838383838,926.7878787878788 545.3737373737374,926.7878787878788 554.9090909090909,926.7878787878788 564.4444444444445,926.7878787878788 573.9797979797979,926.7878787878788 583.5151515151515,926.7878787878788 593.0505050505051,936.3232323232323 602.5858585858585,936.3232323232323 612.1212121212121,936.3232323232323 621.6565656565656,936.3232323232323 631.1919191919192,936.3232323232323 640.7272727272727,945.8585858585858 650.2626262626262,945.8585858585858 659.7979797979798,936.3232323232323 669.3333333333333,926.7878787878788 678.8686868686868,917.2525252525252 688.4040404040404,907.7171717171718 697.9393939393939,898.1818181818181 707.4747474747475,888.6464646464647 717.0101010101009,879.1111111111111 726.5454545454545,869.5757575757575 736.0808080808081,860.0404040404039 736.0808080808081,850.5050505050505 736.0808080808081,840.969696969697 736.0808080808081,831.4343434343434" fill="none" stroke="rgba(255,0,0,0.75)" stroke-width="11.327999999999996"/></g><g><polyline data-points="2.373737373737375,-3.383838383838383 2.2727272727272734,-3.2828282828282824 2.1717171717171726,-3.1818181818181817 2.070707070707072,-3.2828282828282824 1.9696969696969702,-3.383838383838383 1.8686868686868696,-3.484848484848485 1.767676767676768,-3.484848484848485 1.6666666666666674,-3.5858585858585856 1.6666666666666674,-3.6868686868686864 1.767676767676768,-3.7878787878787876 1.767676767676768,-3.8888888888888884 1.6666666666666674,-3.98989898989899 1.5656565656565666,-4.090909090909091 1.4646464646464652,-4.191919191919193 1.3636363636363644,-4.292929292929293 1.262626262626263,-4.393939393939394 1.1616161616161622,-4.494949494949496 1.0606060606060617,-4.595959595959596 0.9595959595959602,-4.696969696969697 0.8585858585858596,-4.696969696969697 0.7575757575757579,-4.7979797979797985 0.6565656565656574,-4.898989898989899 0.6565656565656574,-5.000000000000001" data-type="line" data-label="" points="736.0808080808081,831.4343434343434 726.5454545454545,821.8989898989898 717.0101010101009,812.3636363636363 707.4747474747475,821.8989898989898 697.9393939393939,831.4343434343434 688.4040404040404,840.969696969697 678.8686868686868,840.969696969697 669.3333333333333,850.5050505050505 669.3333333333333,860.0404040404039 678.8686868686868,869.5757575757575 678.8686868686868,879.1111111111111 669.3333333333333,888.6464646464647 659.7979797979798,898.1818181818181 650.2626262626262,907.7171717171718 640.7272727272727,917.2525252525252 631.1919191919192,926.7878787878788 621.6565656565656,936.3232323232323 612.1212121212121,945.8585858585858 602.5858585858585,955.3939393939394 593.0505050505051,955.3939393939394 583.5151515151515,964.9292929292928 573.9797979797979,974.4646464646464 573.9797979797979,984" fill="none" stroke="rgba(0,0,255,0.75)" stroke-width="11.327999999999996"/></g><g><rect data-type="rect" data-label="" data-x="0" data-y="0" x="40.000000000000114" y="40.000000000000284" width="943.9999999999997" height="943.9999999999998" fill="none" stroke="gray" stroke-width="0.010593220338983056"/></g><g><rect data-type="rect" data-label="" data-x="0" data-y="0" x="40.000000000000114" y="40.000000000000284" width="943.9999999999997" height="943.9999999999998" fill="none" stroke="rgba(15, 23, 42, 0.8)" stroke-width="0.010593220338983056"/></g><circle data-type="circle" data-label="" data-x="-3.7878787878787876" data-y="-3.98989898989899" cx="154.42424242424255" cy="888.6464646464647" r="14.159999999999995" fill="rgba(0,0,0,0.3)" stroke="black" stroke-width="0.010593220338983056"/><circle data-type="circle" data-label="" data-x="3.989898989898992" data-y="2.676767676767678" cx="888.6464646464647" cy="259.3131313131314" r="14.159999999999995" fill="rgba(0,0,0,0.3)" stroke="black" stroke-width="0.010593220338983056"/><circle data-type="circle" data-label="" data-x="3.7878787878787885" data-y="3.989898989898992" cx="869.5757575757575" cy="135.35353535353545" r="14.159999999999995" fill="rgba(0,0,0,0.3)" stroke="black" stroke-width="0.010593220338983056"/><circle data-type="circle" data-label="" data-x="1.6666666666666674" data-y="-1.5656565656565653" cx="669.3333333333333" cy="659.7979797979798" r="14.159999999999995" fill="rgba(0,0,0,0.3)" stroke="black" stroke-width="0.010593220338983056"/><circle data-type="circle" data-label="" data-x="1.1616161616161622" data-y="-2.8787878787878785" cx="621.6565656565656" cy="783.7575757575758" r="14.159999999999995" fill="rgba(0,0,0,0.3)" stroke="black" stroke-width="0.010593220338983056"/><circle data-type="circle" data-label="" data-x="1.4646464646464652" data-y="-3.8888888888888884" cx="650.2626262626262" cy="879.1111111111111" r="14.159999999999995" fill="rgba(0,0,0,0.3)" stroke="black" stroke-width="0.010593220338983056"/><circle data-type="circle" data-label="" data-x="2.070707070707072" data-y="-3.6868686868686864" cx="707.4747474747475" cy="860.0404040404039" r="14.159999999999995" fill="rgba(0,0,0,0.3)" stroke="black" stroke-width="0.010593220338983056"/><circle data-type="circle" data-label="" data-x="2.373737373737375" data-y="-3.383838383838383" cx="736.0808080808081" cy="831.4343434343434" r="14.159999999999995" fill="rgba(0,0,0,0.3)" stroke="black" stroke-width="0.010593220338983056"/><g id="crosshair" style="display: none"><line id="crosshair-h" y1="0" y2="1024" stroke="#666" stroke-width="0.5"/><line id="crosshair-v" x1="0" x2="1024" stroke="#666" stroke-width="0.5"/><text id="coordinates" font-family="monospace" font-size="12" fill="#666"></text></g><script><![CDATA[
              document.currentScript.parentElement.addEventListener('mousemove', (e) => {
                const svg = e.currentTarget;
                const rect = svg.getBoundingClientRect();
                const x = e.clientX - rect.left;
                const y = e.clientY - rect.top;
                const crosshair = svg.getElementById('crosshair');
                const h = svg.getElementById('crosshair-h');
                const v = svg.getElementById('crosshair-v');
                const coords = svg.getElementById('coordinates');
                
                crosshair.style.display = 'block';
                h.setAttribute('x1', '0');
                h.setAttribute('x2', '1024');
                h.setAttribute('y1', y);
                h.setAttribute('y2', y);
                v.setAttribute('x1', x);
                v.setAttribute('x2', x);
                v.setAttribute('y1', '0');
                v.setAttribute('y2', '1024');

                // Calculate real coordinates using inverse transformation
                const matrix = {"a":94.39999999999996,"c":0,"e":511.99999999999994,"b":0,"d":-94.39999999999996,"f":512.0000000000001};
                // Manually invert and apply the affine transform
                // Since we only use translate and scale, we can directly compute:
                // x' = (x - tx) / sx
                // y' = (y - ty) / sy
                const sx = matrix.a;
                const sy = matrix.d;
                const tx = matrix.e; 
                const ty = matrix.f;
                const realPoint = {
                  x: (x - tx) / sx,
                  y: (y - ty) / sy // Flip y back since we used negative scale
                }
                
                coords.textContent = `(${realPoint.x.toFixed(2)}, ${realPoint.y.toFixed(2)})`;
                coords.setAttribute('x', (x + 5).toString());
                coords.setAttribute('y', (y - 5).toString());
              });
              document.currentScript.parentElement.addEventListener('mouseleave', () => {
                document.currentScript.parentElement.getElementById('crosshair').style.display = 'none';
              });
            ]]></script></svg>