<svg width="1024" height="1024" viewBox="0 0 1024 1024" xmlns="http://www.w3.org/2000/svg"><rect width="100%" height="100%" fill="white"/><g><circle data-type="point" data-label="conn_000" data-x="5" data-y="0.38" cx="983.9999999999998" cy="476.12800000000016" r="14.16" fill="blue"/></g><g><circle data-type="point" data-label="conn_000" data-x="5" data-y="3.56" cx="983.9999999999998" cy="175.93600000000026" r="14.16" fill="red"/></g><g><circle data-type="point" data-label="conn_001" data-x="5" data-y="-1.3800000000000001" cx="983.9999999999998" cy="642.272" r="14.16" fill="red"/></g><g><circle data-type="point" data-label="conn_001" data-x="-5" data-y="-2.54" cx="40.000000000000114" cy="751.7760000000001" r="14.16" fill="blue"/></g><g><circle data-type="point" data-label="conn_002" data-x="3.74" data-y="-5" cx="865.0559999999998" cy="984" r="14.16" fill="blue"/></g><g><circle data-type="point" data-label="conn_002" data-x="0.48" data-y="5" cx="557.3119999999999" cy="40.000000000000284" r="14.16" fill="blue"/></g><g><circle data-type="point" data-label="conn_003" data-x="0.9400000000000001" data-y="-5" cx="600.7359999999999" cy="984" r="14.16" fill="blue"/></g><g><circle data-type="point" data-label="conn_003" data-x="3.86" data-y="5" cx="876.3839999999998" cy="40.000000000000284" r="14.16" fill="blue"/></g><g><circle data-type="point" data-label="conn_004" data-x="3.62" data-y="-5" cx="853.7279999999998" cy="984" r="14.16" fill="blue"/></g><g><circle data-type="point" data-label="conn_004" data-x="-3.46" data-y="5" cx="185.3760000000001" cy="40.000000000000284" r="14.16" fill="blue"/></g><g><circle data-type="point" data-label="conn_005" data-x="-5" data-y="2.24" cx="40.000000000000114" cy="300.5440000000002" r="14.16" fill="blue"/></g><g><circle data-type="point" data-label="conn_005" data-x="5" data-y="2.1" cx="983.9999999999998" cy="313.7600000000002" r="14.16" fill="blue"/></g><g><circle data-type="point" data-label="conn_006" data-x="5" data-y="2.48" cx="983.9999999999998" cy="277.8880000000002" r="14.16" fill="red"/></g><g><circle data-type="point" data-label="conn_006" data-x="5" data-y="1.7" cx="983.9999999999998" cy="351.5200000000002" r="14.16" fill="blue"/></g><g><polyline data-points="-5.000000000000001,2.2727272727272734 -4.898989898989899,2.2727272727272734 -4.7979797979797985,2.2727272727272734 -4.696969696969697,2.2727272727272734 -4.595959595959596,2.2727272727272734 -4.494949494949496,2.2727272727272734 -4.393939393939394,2.2727272727272734 -4.292929292929293,2.2727272727272734 -4.191919191919193,2.2727272727272734 -4.090909090909091,2.2727272727272734 -3.98989898989899,2.2727272727272734 -3.8888888888888884,2.2727272727272734 -3.7878787878787876,2.2727272727272734 -3.6868686868686864,2.2727272727272734 -3.5858585858585856,2.2727272727272734 -3.484848484848485,2.2727272727272734 -3.383838383838383,2.2727272727272734 -3.2828282828282824,2.2727272727272734 -3.1818181818181817,2.2727272727272734 -3.0808080808080804,2.2727272727272734 -2.9797979797979792,2.2727272727272734 -2.8787878787878785,2.2727272727272734 -2.7777777777777777,2.2727272727272734 -2.6767676767676765,2.2727272727272734 -2.5757575757575752,2.2727272727272734 -2.474747474747474,2.2727272727272734 -2.3737373737373733,2.2727272727272734 -2.2727272727272725,2.2727272727272734 -2.1717171717171713,2.2727272727272734 -2.07070707070707,2.2727272727272734 -1.9696969696969693,2.2727272727272734 -1.8686868686868683,2.2727272727272734 -1.7676767676767675,2.2727272727272734 -1.6666666666666665,2.2727272727272734 -1.5656565656565653,2.2727272727272734 -1.4646464646464643,2.2727272727272734 -1.363636363636363,2.2727272727272734 -1.2626262626262625,2.2727272727272734 -1.1616161616161613,2.2727272727272734 -1.0606060606060603,2.2727272727272734 -0.9595959595959596,2.2727272727272734 -0.8585858585858579,2.2727272727272734 -0.7575757575757572,2.2727272727272734 -0.6565656565656557,2.2727272727272734 -0.555555555555555,2.2727272727272734 -0.4545454545454544,2.2727272727272734 -0.35353535353535287,2.2727272727272734 -0.2525252525252522,2.2727272727272734 -0.15151515151515066,2.2727272727272734 -0.05050505050505001,2.2727272727272734 0.050505050505051545,2.2727272727272734 0.1515151515151522,2.2727272727272734 0.2525252525252529,2.2727272727272734 0.3535353535353544,2.2727272727272734 0.4545454545454551,2.2727272727272734 0.5555555555555567,2.2727272727272734 0.6565656565656574,2.2727272727272734 0.7575757575757579,2.2727272727272734 0.8585858585858596,2.2727272727272734 0.9595959595959602,2.2727272727272734 1.0606060606060617,2.2727272727272734 1.1616161616161622,2.2727272727272734 1.262626262626263,2.2727272727272734 1.3636363636363644,2.2727272727272734 1.4646464646464652,2.2727272727272734 1.5656565656565666,2.2727272727272734 1.6666666666666674,2.2727272727272734 1.767676767676768,2.2727272727272734 1.8686868686868696,2.2727272727272734 1.9696969696969702,2.2727272727272734 2.070707070707072,2.2727272727272734 2.1717171717171726,2.2727272727272734 2.2727272727272734,2.2727272727272734 2.373737373737375,2.2727272727272734 2.4747474747474754,2.2727272727272734 2.575757575757577,2.2727272727272734 2.676767676767678,2.2727272727272734 2.7777777777777786,2.2727272727272734 2.87878787878788,2.2727272727272734 2.9797979797979806,2.2727272727272734 3.080808080808082,2.2727272727272734 3.181818181818183,2.2727272727272734 3.2828282828282833,2.2727272727272734 3.383838383838384,2.2727272727272734 3.4848484848484866,2.2727272727272734 3.5858585858585874,2.2727272727272734 3.6868686868686877,2.2727272727272734 3.7878787878787885,2.2727272727272734 3.8888888888888893,2.2727272727272734 3.989898989898992,2.373737373737375 4.090909090909092,2.2727272727272734 4.191919191919193,2.1717171717171726 4.292929292929293,2.070707070707072 4.393939393939394,2.070707070707072 4.494949494949497,2.070707070707072 4.595959595959597,2.070707070707072 4.696969696969697,2.070707070707072 4.7979797979797985,2.070707070707072 4.898989898989901,2.070707070707072 5.000000000000002,2.070707070707072" data-type="line" data-label="" points="40.00000000000006,297.4545454545456 49.53535353535369,297.4545454545456 59.07070707070716,297.4545454545456 68.60606060606068,297.4545454545456 78.14141414141426,297.4545454545456 87.67676767676772,297.4545454545456 97.21212121212136,297.4545454545456 106.74747474747483,297.4545454545456 116.28282828282829,297.4545454545456 125.81818181818193,297.4545454545456 135.35353535353545,297.4545454545456 144.88888888888903,297.4545454545456 154.42424242424255,297.4545454545456 163.95959595959607,297.4545454545456 173.4949494949496,297.4545454545456 183.03030303030312,297.4545454545456 192.5656565656567,297.4545454545456 202.10101010101022,297.4545454545456 211.63636363636374,297.4545454545456 221.17171717171726,297.4545454545456 230.70707070707084,297.4545454545456 240.2424242424243,297.4545454545456 249.77777777777783,297.4545454545456 259.3131313131314,297.4545454545456 268.84848484848493,297.4545454545456 278.38383838383845,297.4545454545456 287.91919191919203,297.4545454545456 297.4545454545455,297.4545454545456 306.9898989898991,297.4545454545456 316.5252525252526,297.4545454545456 326.0606060606061,297.4545454545456 335.59595959595964,297.4545454545456 345.13131313131316,297.4545454545456 354.6666666666667,297.4545454545456 364.2020202020202,297.4545454545456 373.7373737373738,297.4545454545456 383.2727272727273,297.4545454545456 392.80808080808083,297.4545454545456 402.34343434343435,297.4545454545456 411.8787878787879,297.4545454545456 421.4141414141414,297.4545454545456 430.949494949495,297.4545454545456 440.4848484848485,297.4545454545456 450.0202020202021,297.4545454545456 459.55555555555554,297.4545454545456 469.09090909090907,297.4545454545456 478.62626262626264,297.4545454545456 488.16161616161617,297.4545454545456 497.69696969696975,297.4545454545456 507.2323232323232,297.4545454545456 516.7676767676768,297.4545454545456 526.3030303030303,297.4545454545456 535.8383838383838,297.4545454545456 545.3737373737374,297.4545454545456 554.9090909090909,297.4545454545456 564.4444444444445,297.4545454545456 573.9797979797979,297.4545454545456 583.5151515151515,297.4545454545456 593.0505050505051,297.4545454545456 602.5858585858585,297.4545454545456 612.1212121212121,297.4545454545456 621.6565656565656,297.4545454545456 631.1919191919192,297.4545454545456 640.7272727272727,297.4545454545456 650.2626262626262,297.4545454545456 659.7979797979798,297.4545454545456 669.3333333333333,297.4545454545456 678.8686868686868,297.4545454545456 688.4040404040404,297.4545454545456 697.9393939393939,297.4545454545456 707.4747474747475,297.4545454545456 717.0101010101009,297.4545454545456 726.5454545454545,297.4545454545456 736.0808080808081,297.4545454545456 745.6161616161615,297.4545454545456 755.1515151515151,297.4545454545456 764.6868686868686,297.4545454545456 774.2222222222222,297.4545454545456 783.7575757575758,297.4545454545456 793.2929292929292,297.4545454545456 802.8282828282828,297.4545454545456 812.3636363636363,297.4545454545456 821.8989898989898,297.4545454545456 831.4343434343433,297.4545454545456 840.969696969697,297.4545454545456 850.5050505050505,297.4545454545456 860.0404040404039,297.4545454545456 869.5757575757575,297.4545454545456 879.111111111111,297.4545454545456 888.6464646464647,287.91919191919203 898.181818181818,297.4545454545456 907.7171717171716,306.9898989898991 917.2525252525251,316.5252525252526 926.7878787878785,316.5252525252526 936.3232323232323,316.5252525252526 945.8585858585857,316.5252525252526 955.3939393939393,316.5252525252526 964.9292929292927,316.5252525252526 974.4646464646464,316.5252525252526 984,316.5252525252526" fill="none" stroke="rgba(0,0,255,0.75)" stroke-width="11.327999999999996"/></g><g><polyline data-points="5.000000000000002,2.4747474747474754 4.898989898989901,2.373737373737375 4.7979797979797985,2.2727272727272734 4.696969696969697,2.1717171717171726 4.595959595959597,2.070707070707072 4.494949494949497,1.9696969696969702 4.393939393939394,1.8686868686868696 4.292929292929293,1.8686868686868696 4.191919191919193,1.767676767676768 4.090909090909092,1.6666666666666674 3.989898989898992,1.5656565656565666" data-type="line" data-label="" points="984,278.38383838383857 974.4646464646464,287.91919191919203 964.9292929292927,297.4545454545456 955.3939393939393,306.9898989898991 945.8585858585857,316.5252525252526 936.3232323232323,326.06060606060623 926.7878787878785,335.5959595959597 917.2525252525251,335.5959595959597 907.7171717171716,345.1313131313133 898.181818181818,354.66666666666674 888.6464646464647,364.2020202020203" fill="none" stroke="rgba(255,0,0,0.75)" stroke-width="11.327999999999996"/></g><g><polyline data-points="3.989898989898992,1.5656565656565666 4.090909090909092,1.5656565656565666 4.191919191919193,1.5656565656565666 4.292929292929293,1.4646464646464652 4.393939393939394,1.5656565656565666 4.494949494949497,1.6666666666666674 4.595959595959597,1.767676767676768 4.696969696969697,1.767676767676768 4.7979797979797985,1.767676767676768 4.898989898989901,1.767676767676768 5.000000000000002,1.767676767676768" data-type="line" data-label="" points="888.6464646464647,364.2020202020203 898.181818181818,364.2020202020203 907.7171717171716,364.2020202020203 917.2525252525251,373.73737373737384 926.7878787878785,364.2020202020203 936.3232323232323,354.66666666666674 945.8585858585857,345.1313131313133 955.3939393939393,345.1313131313133 964.9292929292927,345.1313131313133 974.4646464646464,345.1313131313133 984,345.1313131313133" fill="none" stroke="rgba(0,0,255,0.75)" stroke-width="11.327999999999996"/></g><g><polyline data-points="0.9595959595959602,-5.000000000000001 1.0606060606060617,-4.898989898989899 1.1616161616161622,-4.7979797979797985 1.262626262626263,-4.696969696969697 1.3636363636363644,-4.595959595959596 1.4646464646464652,-4.494949494949496 1.5656565656565666,-4.393939393939394 1.6666666666666674,-4.292929292929293 1.767676767676768,-4.191919191919193 1.8686868686868696,-4.090909090909091 1.9696969696969702,-3.98989898989899 2.070707070707072,-3.8888888888888884 2.1717171717171726,-3.8888888888888884" data-type="line" data-label="" points="602.5858585858585,984 612.1212121212121,974.4646464646464 621.6565656565656,964.9292929292928 631.1919191919192,955.3939393939394 640.7272727272727,945.8585858585858 650.2626262626262,936.3232323232323 659.7979797979798,926.7878787878788 669.3333333333333,917.2525252525252 678.8686868686868,907.7171717171718 688.4040404040404,898.1818181818181 697.9393939393939,888.6464646464647 707.4747474747475,879.1111111111111 717.0101010101009,879.1111111111111" fill="none" stroke="rgba(0,0,255,0.75)" stroke-width="11.327999999999996"/></g><g><polyline data-points="2.1717171717171726,-3.8888888888888884 2.2727272727272734,-3.7878787878787876 2.373737373737375,-3.6868686868686864 2.4747474747474754,-3.5858585858585856 2.575757575757577,-3.484848484848485 2.676767676767678,-3.383838383838383 2.7777777777777786,-3.2828282828282824 2.87878787878788,-3.1818181818181817 2.9797979797979806,-3.0808080808080804 3.080808080808082,-2.9797979797979792 3.181818181818183,-2.8787878787878785 3.2828282828282833,-2.7777777777777777 3.383838383838384,-2.6767676767676765 3.4848484848484866,-2.5757575757575752 3.5858585858585874,-2.474747474747474 3.6868686868686877,-2.3737373737373733 3.6868686868686877,-2.2727272727272725 3.6868686868686877,-2.1717171717171713 3.6868686868686877,-2.07070707070707 3.6868686868686877,-1.9696969696969693 3.6868686868686877,-1.8686868686868683 3.6868686868686877,-1.7676767676767675 3.6868686868686877,-1.6666666666666665 3.6868686868686877,-1.5656565656565653 3.6868686868686877,-1.4646464646464643 3.6868686868686877,-1.363636363636363 3.6868686868686877,-1.2626262626262625 3.6868686868686877,-1.1616161616161613 3.6868686868686877,-1.0606060606060603 3.6868686868686877,-0.9595959595959596 3.6868686868686877,-0.8585858585858579 3.6868686868686877,-0.7575757575757572 3.6868686868686877,-0.6565656565656557 3.6868686868686877,-0.555555555555555 3.6868686868686877,-0.4545454545454544 3.6868686868686877,-0.35353535353535287 3.6868686868686877,-0.2525252525252522 3.6868686868686877,-0.15151515151515066 3.6868686868686877,-0.05050505050505001 3.6868686868686877,0.050505050505051545 3.6868686868686877,0.1515151515151522 3.6868686868686877,0.2525252525252529 3.6868686868686877,0.3535353535353544 3.6868686868686877,0.4545454545454551 3.6868686868686877,0.5555555555555567 3.6868686868686877,0.6565656565656574 3.6868686868686877,0.7575757575757579 3.6868686868686877,0.8585858585858596 3.6868686868686877,0.9595959595959602 3.6868686868686877,1.0606060606060617 3.6868686868686877,1.1616161616161622 3.6868686868686877,1.262626262626263 3.6868686868686877,1.3636363636363644 3.6868686868686877,1.4646464646464652 3.6868686868686877,1.5656565656565666 3.7878787878787885,1.6666666666666674 3.8888888888888893,1.767676767676768 3.8888888888888893,1.8686868686868696 3.8888888888888893,1.9696969696969702 3.8888888888888893,2.070707070707072 3.8888888888888893,2.1717171717171726 3.8888888888888893,2.2727272727272734 3.8888888888888893,2.373737373737375 3.8888888888888893,2.4747474747474754 3.8888888888888893,2.575757575757577 3.8888888888888893,2.676767676767678 3.8888888888888893,2.7777777777777786 3.8888888888888893,2.87878787878788 3.8888888888888893,2.9797979797979806 3.8888888888888893,3.080808080808082 3.8888888888888893,3.181818181818183 3.8888888888888893,3.2828282828282833 3.8888888888888893,3.383838383838384 3.8888888888888893,3.4848484848484866 3.8888888888888893,3.5858585858585874 3.8888888888888893,3.6868686868686877 3.8888888888888893,3.7878787878787885 3.8888888888888893,3.8888888888888893 3.8888888888888893,3.989898989898992" data-type="line" data-label="" points="717.0101010101009,879.1111111111111 726.5454545454545,869.5757575757575 736.0808080808081,860.0404040404039 745.6161616161615,850.5050505050505 755.1515151515151,840.969696969697 764.6868686868686,831.4343434343434 774.2222222222222,821.8989898989898 783.7575757575758,812.3636363636363 793.2929292929292,802.8282828282828 802.8282828282828,793.2929292929292 812.3636363636363,783.7575757575758 821.8989898989898,774.2222222222222 831.4343434343433,764.6868686868687 840.969696969697,755.1515151515151 850.5050505050505,745.6161616161615 860.0404040404039,736.0808080808081 860.0404040404039,726.5454545454545 860.0404040404039,717.010101010101 860.0404040404039,707.4747474747475 860.0404040404039,697.939393939394 860.0404040404039,688.4040404040404 860.0404040404039,678.8686868686868 860.0404040404039,669.3333333333334 860.0404040404039,659.7979797979798 860.0404040404039,650.2626262626263 860.0404040404039,640.7272727272727 860.0404040404039,631.1919191919193 860.0404040404039,621.6565656565657 860.0404040404039,612.1212121212121 860.0404040404039,602.5858585858587 860.0404040404039,593.0505050505051 860.0404040404039,583.5151515151516 860.0404040404039,573.979797979798 860.0404040404039,564.4444444444445 860.0404040404039,554.909090909091 860.0404040404039,545.3737373737374 860.0404040404039,535.838383838384 860.0404040404039,526.3030303030304 860.0404040404039,516.7676767676768 860.0404040404039,507.23232323232327 860.0404040404039,497.69696969696975 860.0404040404039,488.1616161616163 860.0404040404039,478.6262626262627 860.0404040404039,469.0909090909092 860.0404040404039,459.5555555555556 860.0404040404039,450.0202020202021 860.0404040404039,440.4848484848486 860.0404040404039,430.94949494949503 860.0404040404039,421.4141414141415 860.0404040404039,411.87878787878793 860.0404040404039,402.3434343434344 860.0404040404039,392.80808080808094 860.0404040404039,383.27272727272737 860.0404040404039,373.73737373737384 860.0404040404039,364.2020202020203 869.5757575757575,354.66666666666674 879.111111111111,345.1313131313133 879.111111111111,335.5959595959597 879.111111111111,326.06060606060623 879.111111111111,316.5252525252526 879.111111111111,306.9898989898991 879.111111111111,297.4545454545456 879.111111111111,287.91919191919203 879.111111111111,278.38383838383857 879.111111111111,268.84848484848493 879.111111111111,259.3131313131314 879.111111111111,249.77777777777794 879.111111111111,240.24242424242436 879.111111111111,230.70707070707084 879.111111111111,221.17171717171726 879.111111111111,211.63636363636374 879.111111111111,202.10101010101027 879.111111111111,192.56565656565675 879.111111111111,183.03030303030312 879.111111111111,173.4949494949496 879.111111111111,163.95959595959613 879.111111111111,154.4242424242426 879.111111111111,144.88888888888908 879.111111111111,135.35353535353545" fill="none" stroke="rgba(255,0,0,0.75)" stroke-width="11.327999999999996"/></g><g><polyline data-points="3.8888888888888893,3.989898989898992 3.8888888888888893,4.090909090909092 3.8888888888888893,4.191919191919193 3.8888888888888893,4.292929292929293 3.8888888888888893,4.393939393939394 3.8888888888888893,4.494949494949497 3.8888888888888893,4.595959595959597 3.8888888888888893,4.696969696969697 3.8888888888888893,4.7979797979797985 3.8888888888888893,4.898989898989901 3.8888888888888893,5.000000000000002" data-type="line" data-label="" points="879.111111111111,135.35353535353545 879.111111111111,125.81818181818198 879.111111111111,116.28282828282846 879.111111111111,106.747474747475 879.111111111111,97.21212121212153 879.111111111111,87.67676767676778 879.111111111111,78.14141414141432 879.111111111111,68.60606060606085 879.111111111111,59.07070707070733 879.111111111111,49.53535353535369 879.111111111111,40.000000000000114" fill="none" stroke="rgba(0,0,255,0.75)" stroke-width="11.327999999999996"/></g><g><polyline data-points="5.000000000000002,-1.363636363636363 4.898989898989901,-1.4646464646464643 4.7979797979797985,-1.5656565656565653 4.696969696969697,-1.6666666666666665 4.595959595959597,-1.7676767676767675 4.494949494949497,-1.8686868686868683 4.393939393939394,-1.9696969696969693 4.292929292929293,-2.07070707070707 4.191919191919193,-2.1717171717171713 4.090909090909092,-2.2727272727272725 3.989898989898992,-2.3737373737373733 3.989898989898992,-2.474747474747474 3.989898989898992,-2.5757575757575752" data-type="line" data-label="" points="984,640.7272727272727 974.4646464646464,650.2626262626263 964.9292929292927,659.7979797979798 955.3939393939393,669.3333333333334 945.8585858585857,678.8686868686868 936.3232323232323,688.4040404040404 926.7878787878785,697.939393939394 917.2525252525251,707.4747474747475 907.7171717171716,717.010101010101 898.181818181818,726.5454545454545 888.6464646464647,736.0808080808081 888.6464646464647,745.6161616161615 888.6464646464647,755.1515151515151" fill="none" stroke="rgba(255,0,0,0.75)" stroke-width="11.327999999999996"/></g><g><polyline data-points="3.989898989898992,-2.5757575757575752 3.8888888888888893,-2.5757575757575752 3.7878787878787885,-2.5757575757575752 3.6868686868686877,-2.5757575757575752 3.5858585858585874,-2.5757575757575752 3.4848484848484866,-2.5757575757575752 3.383838383838384,-2.5757575757575752 3.2828282828282833,-2.5757575757575752 3.181818181818183,-2.5757575757575752 3.080808080808082,-2.5757575757575752 2.9797979797979806,-2.5757575757575752 2.87878787878788,-2.5757575757575752 2.7777777777777786,-2.5757575757575752 2.676767676767678,-2.5757575757575752 2.575757575757577,-2.5757575757575752 2.4747474747474754,-2.5757575757575752 2.373737373737375,-2.5757575757575752 2.2727272727272734,-2.5757575757575752 2.1717171717171726,-2.5757575757575752 2.070707070707072,-2.5757575757575752 1.9696969696969702,-2.5757575757575752 1.8686868686868696,-2.5757575757575752" data-type="line" data-label="" points="888.6464646464647,755.1515151515151 879.111111111111,755.1515151515151 869.5757575757575,755.1515151515151 860.0404040404039,755.1515151515151 850.5050505050505,755.1515151515151 840.969696969697,755.1515151515151 831.4343434343433,755.1515151515151 821.8989898989898,755.1515151515151 812.3636363636363,755.1515151515151 802.8282828282828,755.1515151515151 793.2929292929292,755.1515151515151 783.7575757575758,755.1515151515151 774.2222222222222,755.1515151515151 764.6868686868686,755.1515151515151 755.1515151515151,755.1515151515151 745.6161616161615,755.1515151515151 736.0808080808081,755.1515151515151 726.5454545454545,755.1515151515151 717.0101010101009,755.1515151515151 707.4747474747475,755.1515151515151 697.9393939393939,755.1515151515151 688.4040404040404,755.1515151515151" fill="none" stroke="rgba(0,0,255,0.75)" stroke-width="11.327999999999996"/></g><g><polyline data-points="1.8686868686868696,-2.5757575757575752 1.767676767676768,-2.5757575757575752 1.6666666666666674,-2.5757575757575752 1.5656565656565666,-2.5757575757575752 1.4646464646464652,-2.5757575757575752 1.3636363636363644,-2.5757575757575752 1.262626262626263,-2.5757575757575752 1.1616161616161622,-2.5757575757575752 1.0606060606060617,-2.5757575757575752 0.9595959595959602,-2.5757575757575752 0.8585858585858596,-2.5757575757575752 0.7575757575757579,-2.5757575757575752 0.6565656565656574,-2.5757575757575752 0.5555555555555567,-2.5757575757575752 0.4545454545454551,-2.5757575757575752 0.3535353535353544,-2.5757575757575752 0.2525252525252529,-2.5757575757575752 0.1515151515151522,-2.5757575757575752 0.050505050505051545,-2.5757575757575752 -0.05050505050505001,-2.5757575757575752 -0.15151515151515066,-2.5757575757575752 -0.2525252525252522,-2.5757575757575752 -0.35353535353535287,-2.5757575757575752 -0.4545454545454544,-2.5757575757575752 -0.555555555555555,-2.5757575757575752 -0.6565656565656557,-2.5757575757575752 -0.7575757575757572,-2.5757575757575752 -0.8585858585858579,-2.5757575757575752 -0.9595959595959596,-2.5757575757575752 -1.0606060606060603,-2.5757575757575752 -1.1616161616161613,-2.5757575757575752 -1.2626262626262625,-2.5757575757575752 -1.363636363636363,-2.5757575757575752 -1.4646464646464643,-2.5757575757575752 -1.5656565656565653,-2.5757575757575752 -1.6666666666666665,-2.5757575757575752 -1.7676767676767675,-2.5757575757575752 -1.8686868686868683,-2.5757575757575752 -1.9696969696969693,-2.5757575757575752 -2.07070707070707,-2.5757575757575752 -2.1717171717171713,-2.5757575757575752 -2.2727272727272725,-2.5757575757575752 -2.3737373737373733,-2.5757575757575752 -2.474747474747474,-2.5757575757575752 -2.5757575757575752,-2.5757575757575752 -2.6767676767676765,-2.5757575757575752 -2.7777777777777777,-2.5757575757575752 -2.8787878787878785,-2.5757575757575752 -2.9797979797979792,-2.5757575757575752 -3.0808080808080804,-2.5757575757575752 -3.1818181818181817,-2.5757575757575752 -3.2828282828282824,-2.5757575757575752 -3.383838383838383,-2.5757575757575752 -3.484848484848485,-2.5757575757575752 -3.5858585858585856,-2.5757575757575752 -3.6868686868686864,-2.5757575757575752 -3.7878787878787876,-2.5757575757575752 -3.8888888888888884,-2.5757575757575752 -3.98989898989899,-2.5757575757575752" data-type="line" data-label="" points="688.4040404040404,755.1515151515151 678.8686868686868,755.1515151515151 669.3333333333333,755.1515151515151 659.7979797979798,755.1515151515151 650.2626262626262,755.1515151515151 640.7272727272727,755.1515151515151 631.1919191919192,755.1515151515151 621.6565656565656,755.1515151515151 612.1212121212121,755.1515151515151 602.5858585858585,755.1515151515151 593.0505050505051,755.1515151515151 583.5151515151515,755.1515151515151 573.9797979797979,755.1515151515151 564.4444444444445,755.1515151515151 554.9090909090909,755.1515151515151 545.3737373737374,755.1515151515151 535.8383838383838,755.1515151515151 526.3030303030303,755.1515151515151 516.7676767676768,755.1515151515151 507.2323232323232,755.1515151515151 497.69696969696975,755.1515151515151 488.16161616161617,755.1515151515151 478.62626262626264,755.1515151515151 469.09090909090907,755.1515151515151 459.55555555555554,755.1515151515151 450.0202020202021,755.1515151515151 440.4848484848485,755.1515151515151 430.949494949495,755.1515151515151 421.4141414141414,755.1515151515151 411.8787878787879,755.1515151515151 402.34343434343435,755.1515151515151 392.80808080808083,755.1515151515151 383.2727272727273,755.1515151515151 373.7373737373738,755.1515151515151 364.2020202020202,755.1515151515151 354.6666666666667,755.1515151515151 345.13131313131316,755.1515151515151 335.59595959595964,755.1515151515151 326.0606060606061,755.1515151515151 316.5252525252526,755.1515151515151 306.9898989898991,755.1515151515151 297.4545454545455,755.1515151515151 287.91919191919203,755.1515151515151 278.38383838383845,755.1515151515151 268.84848484848493,755.1515151515151 259.3131313131314,755.1515151515151 249.77777777777783,755.1515151515151 240.2424242424243,755.1515151515151 230.70707070707084,755.1515151515151 221.17171717171726,755.1515151515151 211.63636363636374,755.1515151515151 202.10101010101022,755.1515151515151 192.5656565656567,755.1515151515151 183.03030303030312,755.1515151515151 173.4949494949496,755.1515151515151 163.95959595959607,755.1515151515151 154.42424242424255,755.1515151515151 144.88888888888903,755.1515151515151 135.35353535353545,755.1515151515151" fill="none" stroke="rgba(255,0,0,0.75)" stroke-width="11.327999999999996"/></g><g><polyline data-points="-3.98989898989899,-2.5757575757575752 -4.090909090909091,-2.5757575757575752 -4.191919191919193,-2.5757575757575752 -4.292929292929293,-2.5757575757575752 -4.393939393939394,-2.5757575757575752 -4.494949494949496,-2.5757575757575752 -4.595959595959596,-2.5757575757575752 -4.696969696969697,-2.5757575757575752 -4.7979797979797985,-2.5757575757575752 -4.898989898989899,-2.5757575757575752 -5.000000000000001,-2.5757575757575752" data-type="line" data-label="" points="135.35353535353545,755.1515151515151 125.81818181818193,755.1515151515151 116.28282828282829,755.1515151515151 106.74747474747483,755.1515151515151 97.21212121212136,755.1515151515151 87.67676767676772,755.1515151515151 78.14141414141426,755.1515151515151 68.60606060606068,755.1515151515151 59.07070707070716,755.1515151515151 49.53535353535369,755.1515151515151 40.00000000000006,755.1515151515151" fill="none" stroke="rgba(0,0,255,0.75)" stroke-width="11.327999999999996"/></g><g><polyline data-points="5.000000000000002,0.3535353535353544 4.898989898989901,0.4545454545454551 4.7979797979797985,0.5555555555555567 4.696969696969697,0.6565656565656574 4.595959595959597,0.7575757575757579 4.494949494949497,0.8585858585858596 4.393939393939394,0.9595959595959602 4.292929292929293,1.0606060606060617 4.191919191919193,1.1616161616161622 4.090909090909092,1.262626262626263 3.989898989898992,1.262626262626263 3.8888888888888893,1.3636363636363644 3.7878787878787885,1.4646464646464652 3.6868686868686877,1.5656565656565666 3.6868686868686877,1.6666666666666674 3.5858585858585874,1.767676767676768 3.4848484848484866,1.8686868686868696" data-type="line" data-label="" points="984,478.6262626262627 974.4646464646464,469.0909090909092 964.9292929292927,459.5555555555556 955.3939393939393,450.0202020202021 945.8585858585857,440.4848484848486 936.3232323232323,430.94949494949503 926.7878787878785,421.4141414141415 917.2525252525251,411.87878787878793 907.7171717171716,402.3434343434344 898.181818181818,392.80808080808094 888.6464646464647,392.80808080808094 879.111111111111,383.27272727272737 869.5757575757575,373.73737373737384 860.0404040404039,364.2020202020203 860.0404040404039,354.66666666666674 850.5050505050505,345.1313131313133 840.969696969697,335.5959595959597" fill="none" stroke="rgba(0,0,255,0.75)" stroke-width="11.327999999999996"/></g><g><polyline data-points="3.4848484848484866,1.8686868686868696 3.5858585858585874,1.9696969696969702 3.5858585858585874,2.070707070707072 3.5858585858585874,2.1717171717171726 3.5858585858585874,2.2727272727272734 3.5858585858585874,2.373737373737375 3.5858585858585874,2.4747474747474754 3.5858585858585874,2.575757575757577 3.5858585858585874,2.676767676767678 3.5858585858585874,2.7777777777777786 3.5858585858585874,2.87878787878788 3.5858585858585874,2.9797979797979806 3.5858585858585874,3.080808080808082 3.5858585858585874,3.181818181818183 3.5858585858585874,3.2828282828282833 3.5858585858585874,3.383838383838384 3.5858585858585874,3.4848484848484866 3.5858585858585874,3.5858585858585874 3.5858585858585874,3.6868686868686877 3.5858585858585874,3.7878787878787885 3.5858585858585874,3.8888888888888893 3.5858585858585874,3.989898989898992 3.6868686868686877,4.090909090909092 3.7878787878787885,4.191919191919193 3.8888888888888893,4.292929292929293 3.989898989898992,4.191919191919193 4.090909090909092,4.090909090909092 4.191919191919193,3.989898989898992 4.292929292929293,3.8888888888888893 4.393939393939394,3.7878787878787885 4.494949494949497,3.6868686868686877 4.595959595959597,3.5858585858585874 4.696969696969697,3.5858585858585874 4.7979797979797985,3.5858585858585874 4.898989898989901,3.5858585858585874 5.000000000000002,3.5858585858585874" data-type="line" data-label="" points="840.969696969697,335.5959595959597 850.5050505050505,326.06060606060623 850.5050505050505,316.5252525252526 850.5050505050505,306.9898989898991 850.5050505050505,297.4545454545456 850.5050505050505,287.91919191919203 850.5050505050505,278.38383838383857 850.5050505050505,268.84848484848493 850.5050505050505,259.3131313131314 850.5050505050505,249.77777777777794 850.5050505050505,240.24242424242436 850.5050505050505,230.70707070707084 850.5050505050505,221.17171717171726 850.5050505050505,211.63636363636374 850.5050505050505,202.10101010101027 850.5050505050505,192.56565656565675 850.5050505050505,183.03030303030312 850.5050505050505,173.4949494949496 850.5050505050505,163.95959595959613 850.5050505050505,154.4242424242426 850.5050505050505,144.88888888888908 850.5050505050505,135.35353535353545 860.0404040404039,125.81818181818198 869.5757575757575,116.28282828282846 879.111111111111,106.747474747475 888.6464646464647,116.28282828282846 898.181818181818,125.81818181818198 907.7171717171716,135.35353535353545 917.2525252525251,144.88888888888908 926.7878787878785,154.4242424242426 936.3232323232323,163.95959595959613 945.8585858585857,173.4949494949496 955.3939393939393,173.4949494949496 964.9292929292927,173.4949494949496 974.4646464646464,173.4949494949496 984,173.4949494949496" fill="none" stroke="rgba(255,0,0,0.75)" stroke-width="11.327999999999996"/></g><g><polyline data-points="3.6868686868686877,-5.000000000000001 3.5858585858585874,-4.898989898989899 3.6868686868686877,-4.7979797979797985 3.6868686868686877,-4.696969696969697 3.5858585858585874,-4.595959595959596 3.4848484848484866,-4.494949494949496 3.383838383838384,-4.393939393939394 3.2828282828282833,-4.292929292929293 3.181818181818183,-4.191919191919193 3.080808080808082,-4.090909090909091 2.9797979797979806,-3.98989898989899 2.87878787878788,-3.8888888888888884 2.7777777777777786,-3.7878787878787876 2.676767676767678,-3.6868686868686864 2.575757575757577,-3.5858585858585856 2.4747474747474754,-3.484848484848485 2.373737373737375,-3.383838383838383 2.2727272727272734,-3.2828282828282824 2.1717171717171726,-3.1818181818181817 2.070707070707072,-3.0808080808080804 1.9696969696969702,-2.9797979797979792 1.8686868686868696,-2.8787878787878785 1.767676767676768,-2.7777777777777777 1.6666666666666674,-2.6767676767676765 1.5656565656565666,-2.5757575757575752 1.4646464646464652,-2.474747474747474 1.3636363636363644,-2.3737373737373733 1.262626262626263,-2.2727272727272725 1.1616161616161622,-2.1717171717171713 1.0606060606060617,-2.07070707070707 0.9595959595959602,-1.9696969696969693 0.8585858585858596,-1.8686868686868683 0.8585858585858596,-1.7676767676767675 0.8585858585858596,-1.6666666666666665" data-type="line" data-label="" points="860.0404040404039,984 850.5050505050505,974.4646464646464 860.0404040404039,964.9292929292928 860.0404040404039,955.3939393939394 850.5050505050505,945.8585858585858 840.969696969697,936.3232323232323 831.4343434343433,926.7878787878788 821.8989898989898,917.2525252525252 812.3636363636363,907.7171717171718 802.8282828282828,898.1818181818181 793.2929292929292,888.6464646464647 783.7575757575758,879.1111111111111 774.2222222222222,869.5757575757575 764.6868686868686,860.0404040404039 755.1515151515151,850.5050505050505 745.6161616161615,840.969696969697 736.0808080808081,831.4343434343434 726.5454545454545,821.8989898989898 717.0101010101009,812.3636363636363 707.4747474747475,802.8282828282828 697.9393939393939,793.2929292929292 688.4040404040404,783.7575757575758 678.8686868686868,774.2222222222222 669.3333333333333,764.6868686868687 659.7979797979798,755.1515151515151 650.2626262626262,745.6161616161615 640.7272727272727,736.0808080808081 631.1919191919192,726.5454545454545 621.6565656565656,717.010101010101 612.1212121212121,707.4747474747475 602.5858585858585,697.939393939394 593.0505050505051,688.4040404040404 593.0505050505051,678.8686868686868 593.0505050505051,669.3333333333334" fill="none" stroke="rgba(0,0,255,0.75)" stroke-width="11.327999999999996"/></g><g><polyline data-points="0.8585858585858596,-1.6666666666666665 0.7575757575757579,-1.6666666666666665 0.6565656565656574,-1.6666666666666665 0.5555555555555567,-1.6666666666666665 0.4545454545454551,-1.7676767676767675 0.3535353535353544,-1.6666666666666665 0.2525252525252529,-1.5656565656565653 0.1515151515151522,-1.4646464646464643 0.050505050505051545,-1.363636363636363 -0.05050505050505001,-1.2626262626262625 -0.15151515151515066,-1.1616161616161613 -0.2525252525252522,-1.0606060606060603 -0.35353535353535287,-0.9595959595959596 -0.4545454545454544,-0.8585858585858579 -0.555555555555555,-0.7575757575757572 -0.6565656565656557,-0.6565656565656557 -0.7575757575757572,-0.555555555555555 -0.8585858585858579,-0.4545454545454544 -0.9595959595959596,-0.35353535353535287 -1.0606060606060603,-0.2525252525252522 -1.1616161616161613,-0.15151515151515066 -1.2626262626262625,-0.05050505050505001 -1.363636363636363,0.050505050505051545 -1.4646464646464643,0.1515151515151522 -1.5656565656565653,0.2525252525252529 -1.6666666666666665,0.3535353535353544 -1.7676767676767675,0.4545454545454551 -1.8686868686868683,0.5555555555555567 -1.9696969696969693,0.6565656565656574 -2.07070707070707,0.7575757575757579 -2.1717171717171713,0.8585858585858596 -2.2727272727272725,0.9595959595959602 -2.3737373737373733,1.0606060606060617 -2.474747474747474,1.1616161616161622 -2.5757575757575752,1.262626262626263 -2.6767676767676765,1.3636363636363644 -2.7777777777777777,1.4646464646464652 -2.8787878787878785,1.5656565656565666 -2.9797979797979792,1.6666666666666674 -3.0808080808080804,1.767676767676768 -3.1818181818181817,1.8686868686868696 -3.2828282828282824,1.9696969696969702 -3.383838383838383,2.070707070707072 -3.484848484848485,2.1717171717171726 -3.484848484848485,2.2727272727272734 -3.484848484848485,2.373737373737375 -3.484848484848485,2.4747474747474754 -3.484848484848485,2.575757575757577 -3.484848484848485,2.676767676767678 -3.484848484848485,2.7777777777777786 -3.484848484848485,2.87878787878788 -3.484848484848485,2.9797979797979806 -3.5858585858585856,3.080808080808082 -3.5858585858585856,3.181818181818183 -3.5858585858585856,3.2828282828282833 -3.5858585858585856,3.383838383838384 -3.5858585858585856,3.4848484848484866 -3.5858585858585856,3.5858585858585874 -3.5858585858585856,3.6868686868686877 -3.5858585858585856,3.7878787878787885 -3.5858585858585856,3.8888888888888893 -3.5858585858585856,3.989898989898992" data-type="line" data-label="" points="593.0505050505051,669.3333333333334 583.5151515151515,669.3333333333334 573.9797979797979,669.3333333333334 564.4444444444445,669.3333333333334 554.9090909090909,678.8686868686868 545.3737373737374,669.3333333333334 535.8383838383838,659.7979797979798 526.3030303030303,650.2626262626263 516.7676767676768,640.7272727272727 507.2323232323232,631.1919191919193 497.69696969696975,621.6565656565657 488.16161616161617,612.1212121212121 478.62626262626264,602.5858585858587 469.09090909090907,593.0505050505051 459.55555555555554,583.5151515151516 450.0202020202021,573.979797979798 440.4848484848485,564.4444444444445 430.949494949495,554.909090909091 421.4141414141414,545.3737373737374 411.8787878787879,535.838383838384 402.34343434343435,526.3030303030304 392.80808080808083,516.7676767676768 383.2727272727273,507.23232323232327 373.7373737373738,497.69696969696975 364.2020202020202,488.1616161616163 354.6666666666667,478.6262626262627 345.13131313131316,469.0909090909092 335.59595959595964,459.5555555555556 326.0606060606061,450.0202020202021 316.5252525252526,440.4848484848486 306.9898989898991,430.94949494949503 297.4545454545455,421.4141414141415 287.91919191919203,411.87878787878793 278.38383838383845,402.3434343434344 268.84848484848493,392.80808080808094 259.3131313131314,383.27272727272737 249.77777777777783,373.73737373737384 240.2424242424243,364.2020202020203 230.70707070707084,354.66666666666674 221.17171717171726,345.1313131313133 211.63636363636374,335.5959595959597 202.10101010101022,326.06060606060623 192.5656565656567,316.5252525252526 183.03030303030312,306.9898989898991 183.03030303030312,297.4545454545456 183.03030303030312,287.91919191919203 183.03030303030312,278.38383838383857 183.03030303030312,268.84848484848493 183.03030303030312,259.3131313131314 183.03030303030312,249.77777777777794 183.03030303030312,240.24242424242436 183.03030303030312,230.70707070707084 173.4949494949496,221.17171717171726 173.4949494949496,211.63636363636374 173.4949494949496,202.10101010101027 173.4949494949496,192.56565656565675 173.4949494949496,183.03030303030312 173.4949494949496,173.4949494949496 173.4949494949496,163.95959595959613 173.4949494949496,154.4242424242426 173.4949494949496,144.88888888888908 173.4949494949496,135.35353535353545" fill="none" stroke="rgba(255,0,0,0.75)" stroke-width="11.327999999999996"/></g><g><polyline data-points="-3.5858585858585856,3.989898989898992 -3.5858585858585856,4.090909090909092 -3.5858585858585856,4.191919191919193 -3.5858585858585856,4.292929292929293 -3.5858585858585856,4.393939393939394 -3.5858585858585856,4.494949494949497 -3.5858585858585856,4.595959595959597 -3.5858585858585856,4.696969696969697 -3.5858585858585856,4.7979797979797985 -3.5858585858585856,4.898989898989901 -3.484848484848485,5.000000000000002" data-type="line" data-label="" points="173.4949494949496,135.35353535353545 173.4949494949496,125.81818181818198 173.4949494949496,116.28282828282846 173.4949494949496,106.747474747475 173.4949494949496,97.21212121212153 173.4949494949496,87.67676767676778 173.4949494949496,78.14141414141432 173.4949494949496,68.60606060606085 173.4949494949496,59.07070707070733 173.4949494949496,49.53535353535369 183.03030303030312,40.000000000000114" fill="none" stroke="rgba(0,0,255,0.75)" stroke-width="11.327999999999996"/></g><g><polyline data-points="3.7878787878787885,-5.000000000000001 3.8888888888888893,-4.898989898989899 3.989898989898992,-4.7979797979797985 3.8888888888888893,-4.696969696969697 3.8888888888888893,-4.595959595959596 3.7878787878787885,-4.494949494949496 3.6868686868686877,-4.393939393939394 3.5858585858585874,-4.292929292929293 3.4848484848484866,-4.191919191919193 3.383838383838384,-4.090909090909091 3.2828282828282833,-3.98989898989899 3.181818181818183,-3.8888888888888884 3.080808080808082,-3.7878787878787876 2.9797979797979806,-3.6868686868686864 2.87878787878788,-3.5858585858585856 2.7777777777777786,-3.484848484848485 2.676767676767678,-3.383838383838383 2.575757575757577,-3.2828282828282824 2.4747474747474754,-3.1818181818181817 2.4747474747474754,-3.0808080808080804 2.4747474747474754,-2.9797979797979792" data-type="line" data-label="" points="869.5757575757575,984 879.111111111111,974.4646464646464 888.6464646464647,964.9292929292928 879.111111111111,955.3939393939394 879.111111111111,945.8585858585858 869.5757575757575,936.3232323232323 860.0404040404039,926.7878787878788 850.5050505050505,917.2525252525252 840.969696969697,907.7171717171718 831.4343434343433,898.1818181818181 821.8989898989898,888.6464646464647 812.3636363636363,879.1111111111111 802.8282828282828,869.5757575757575 793.2929292929292,860.0404040404039 783.7575757575758,850.5050505050505 774.2222222222222,840.969696969697 764.6868686868686,831.4343434343434 755.1515151515151,821.8989898989898 745.6161616161615,812.3636363636363 745.6161616161615,802.8282828282828 745.6161616161615,793.2929292929292" fill="none" stroke="rgba(0,0,255,0.75)" stroke-width="11.327999999999996"/></g><g><polyline data-points="2.4747474747474754,-2.9797979797979792 2.373737373737375,-2.8787878787878785 2.2727272727272734,-2.7777777777777777 2.2727272727272734,-2.6767676767676765 2.2727272727272734,-2.5757575757575752 2.1717171717171726,-2.474747474747474 2.070707070707072,-2.3737373737373733 1.9696969696969702,-2.2727272727272725 1.8686868686868696,-2.1717171717171713 1.767676767676768,-2.07070707070707 1.6666666666666674,-1.9696969696969693 1.5656565656565666,-1.8686868686868683 1.4646464646464652,-1.7676767676767675 1.3636363636363644,-1.6666666666666665 1.262626262626263,-1.5656565656565653 1.1616161616161622,-1.4646464646464643 1.0606060606060617,-1.363636363636363 0.9595959595959602,-1.2626262626262625 0.8585858585858596,-1.1616161616161613 0.7575757575757579,-1.0606060606060603 0.6565656565656574,-0.9595959595959596 0.5555555555555567,-0.8585858585858579 0.5555555555555567,-0.7575757575757572 0.5555555555555567,-0.6565656565656557 0.5555555555555567,-0.555555555555555 0.5555555555555567,-0.4545454545454544 0.5555555555555567,-0.35353535353535287 0.5555555555555567,-0.2525252525252522 0.5555555555555567,-0.15151515151515066 0.5555555555555567,-0.05050505050505001 0.5555555555555567,0.050505050505051545 0.5555555555555567,0.1515151515151522 0.5555555555555567,0.2525252525252529 0.5555555555555567,0.3535353535353544 0.5555555555555567,0.4545454545454551 0.5555555555555567,0.5555555555555567 0.5555555555555567,0.6565656565656574 0.5555555555555567,0.7575757575757579 0.5555555555555567,0.8585858585858596 0.5555555555555567,0.9595959595959602 0.5555555555555567,1.0606060606060617 0.5555555555555567,1.1616161616161622 0.5555555555555567,1.262626262626263 0.5555555555555567,1.3636363636363644 0.5555555555555567,1.4646464646464652 0.5555555555555567,1.5656565656565666 0.5555555555555567,1.6666666666666674 0.5555555555555567,1.767676767676768 0.5555555555555567,1.8686868686868696 0.5555555555555567,1.9696969696969702 0.5555555555555567,2.070707070707072 0.5555555555555567,2.1717171717171726 0.5555555555555567,2.2727272727272734 0.5555555555555567,2.373737373737375 0.5555555555555567,2.4747474747474754 0.5555555555555567,2.575757575757577 0.5555555555555567,2.676767676767678 0.5555555555555567,2.7777777777777786 0.5555555555555567,2.87878787878788 0.5555555555555567,2.9797979797979806 0.5555555555555567,3.080808080808082 0.5555555555555567,3.181818181818183 0.5555555555555567,3.2828282828282833 0.5555555555555567,3.383838383838384 0.5555555555555567,3.4848484848484866 0.5555555555555567,3.5858585858585874 0.5555555555555567,3.6868686868686877 0.5555555555555567,3.7878787878787885 0.5555555555555567,3.8888888888888893 0.5555555555555567,3.989898989898992" data-type="line" data-label="" points="745.6161616161615,793.2929292929292 736.0808080808081,783.7575757575758 726.5454545454545,774.2222222222222 726.5454545454545,764.6868686868687 726.5454545454545,755.1515151515151 717.0101010101009,745.6161616161615 707.4747474747475,736.0808080808081 697.9393939393939,726.5454545454545 688.4040404040404,717.010101010101 678.8686868686868,707.4747474747475 669.3333333333333,697.939393939394 659.7979797979798,688.4040404040404 650.2626262626262,678.8686868686868 640.7272727272727,669.3333333333334 631.1919191919192,659.7979797979798 621.6565656565656,650.2626262626263 612.1212121212121,640.7272727272727 602.5858585858585,631.1919191919193 593.0505050505051,621.6565656565657 583.5151515151515,612.1212121212121 573.9797979797979,602.5858585858587 564.4444444444445,593.0505050505051 564.4444444444445,583.5151515151516 564.4444444444445,573.979797979798 564.4444444444445,564.4444444444445 564.4444444444445,554.909090909091 564.4444444444445,545.3737373737374 564.4444444444445,535.838383838384 564.4444444444445,526.3030303030304 564.4444444444445,516.7676767676768 564.4444444444445,507.23232323232327 564.4444444444445,497.69696969696975 564.4444444444445,488.1616161616163 564.4444444444445,478.6262626262627 564.4444444444445,469.0909090909092 564.4444444444445,459.5555555555556 564.4444444444445,450.0202020202021 564.4444444444445,440.4848484848486 564.4444444444445,430.94949494949503 564.4444444444445,421.4141414141415 564.4444444444445,411.87878787878793 564.4444444444445,402.3434343434344 564.4444444444445,392.80808080808094 564.4444444444445,383.27272727272737 564.4444444444445,373.73737373737384 564.4444444444445,364.2020202020203 564.4444444444445,354.66666666666674 564.4444444444445,345.1313131313133 564.4444444444445,335.5959595959597 564.4444444444445,326.06060606060623 564.4444444444445,316.5252525252526 564.4444444444445,306.9898989898991 564.4444444444445,297.4545454545456 564.4444444444445,287.91919191919203 564.4444444444445,278.38383838383857 564.4444444444445,268.84848484848493 564.4444444444445,259.3131313131314 564.4444444444445,249.77777777777794 564.4444444444445,240.24242424242436 564.4444444444445,230.70707070707084 564.4444444444445,221.17171717171726 564.4444444444445,211.63636363636374 564.4444444444445,202.10101010101027 564.4444444444445,192.56565656565675 564.4444444444445,183.03030303030312 564.4444444444445,173.4949494949496 564.4444444444445,163.95959595959613 564.4444444444445,154.4242424242426 564.4444444444445,144.88888888888908 564.4444444444445,135.35353535353545" fill="none" stroke="rgba(255,0,0,0.75)" stroke-width="11.327999999999996"/></g><g><polyline data-points="0.5555555555555567,3.989898989898992 0.5555555555555567,4.090909090909092 0.5555555555555567,4.191919191919193 0.5555555555555567,4.292929292929293 0.5555555555555567,4.393939393939394 0.5555555555555567,4.494949494949497 0.5555555555555567,4.595959595959597 0.5555555555555567,4.696969696969697 0.5555555555555567,4.7979797979797985 0.5555555555555567,4.898989898989901 0.4545454545454551,5.000000000000002" data-type="line" data-label="" points="564.4444444444445,135.35353535353545 564.4444444444445,125.81818181818198 564.4444444444445,116.28282828282846 564.4444444444445,106.747474747475 564.4444444444445,97.21212121212153 564.4444444444445,87.67676767676778 564.4444444444445,78.14141414141432 564.4444444444445,68.60606060606085 564.4444444444445,59.07070707070733 564.4444444444445,49.53535353535369 554.9090909090909,40.000000000000114" fill="none" stroke="rgba(0,0,255,0.75)" stroke-width="11.327999999999996"/></g><g><rect data-type="rect" data-label="" data-x="0" data-y="0" x="40.000000000000114" y="40.000000000000284" width="943.9999999999997" height="943.9999999999998" fill="none" stroke="gray" stroke-width="0.010593220338983056"/></g><g><rect data-type="rect" data-label="" data-x="0" data-y="0" x="40.000000000000114" y="40.000000000000284" width="943.9999999999997" height="943.9999999999998" fill="none" stroke="rgba(15, 23, 42, 0.8)" stroke-width="0.010593220338983056"/></g><circle data-type="circle" data-label="" data-x="3.989898989898992" data-y="1.5656565656565666" cx="888.6464646464647" cy="364.2020202020203" r="14.159999999999995" fill="rgba(0,0,0,0.3)" stroke="black" stroke-width="0.010593220338983056"/><circle data-type="circle" data-label="" data-x="2.1717171717171726" data-y="-3.8888888888888884" cx="717.0101010101009" cy="879.1111111111111" r="14.159999999999995" fill="rgba(0,0,0,0.3)" stroke="black" stroke-width="0.010593220338983056"/><circle data-type="circle" data-label="" data-x="3.8888888888888893" data-y="3.989898989898992" cx="879.111111111111" cy="135.35353535353545" r="14.159999999999995" fill="rgba(0,0,0,0.3)" stroke="black" stroke-width="0.010593220338983056"/><circle data-type="circle" data-label="" data-x="3.989898989898992" data-y="-2.5757575757575752" cx="888.6464646464647" cy="755.1515151515151" r="14.159999999999995" fill="rgba(0,0,0,0.3)" stroke="black" stroke-width="0.010593220338983056"/><circle data-type="circle" data-label="" data-x="1.8686868686868696" data-y="-2.5757575757575752" cx="688.4040404040404" cy="755.1515151515151" r="14.159999999999995" fill="rgba(0,0,0,0.3)" stroke="black" stroke-width="0.010593220338983056"/><circle data-type="circle" data-label="" data-x="-3.98989898989899" data-y="-2.5757575757575752" cx="135.35353535353545" cy="755.1515151515151" r="14.159999999999995" fill="rgba(0,0,0,0.3)" stroke="black" stroke-width="0.010593220338983056"/><circle data-type="circle" data-label="" data-x="3.4848484848484866" data-y="1.8686868686868696" cx="840.969696969697" cy="335.5959595959597" r="14.159999999999995" fill="rgba(0,0,0,0.3)" stroke="black" stroke-width="0.010593220338983056"/><circle data-type="circle" data-label="" data-x="0.8585858585858596" data-y="-1.6666666666666665" cx="593.0505050505051" cy="669.3333333333334" r="14.159999999999995" fill="rgba(0,0,0,0.3)" stroke="black" stroke-width="0.010593220338983056"/><circle data-type="circle" data-label="" data-x="-3.5858585858585856" data-y="3.989898989898992" cx="173.4949494949496" cy="135.35353535353545" r="14.159999999999995" fill="rgba(0,0,0,0.3)" stroke="black" stroke-width="0.010593220338983056"/><circle data-type="circle" data-label="" data-x="2.4747474747474754" data-y="-2.9797979797979792" cx="745.6161616161615" cy="793.2929292929292" r="14.159999999999995" fill="rgba(0,0,0,0.3)" stroke="black" stroke-width="0.010593220338983056"/><circle data-type="circle" data-label="" data-x="0.5555555555555567" data-y="3.989898989898992" cx="564.4444444444445" cy="135.35353535353545" r="14.159999999999995" fill="rgba(0,0,0,0.3)" stroke="black" stroke-width="0.010593220338983056"/><g id="crosshair" style="display: none"><line id="crosshair-h" y1="0" y2="1024" stroke="#666" stroke-width="0.5"/><line id="crosshair-v" x1="0" x2="1024" stroke="#666" stroke-width="0.5"/><text id="coordinates" font-family="monospace" font-size="12" fill="#666"></text></g><script><![CDATA[
              document.currentScript.parentElement.addEventListener('mousemove', (e) => {
                const svg = e.currentTarget;
                const rect = svg.getBoundingClientRect();
                const x = e.clientX - rect.left;
                const y = e.clientY - rect.top;
                const crosshair = svg.getElementById('crosshair');
                const h = svg.getElementById('crosshair-h');
                const v = svg.getElementById('crosshair-v');
                const coords = svg.getElementById('coordinates');
                
                crosshair.style.display = 'block';
                h.setAttribute('x1', '0');
                h.setAttribute('x2', '1024');
                h.setAttribute('y1', y);
                h.setAttribute('y2', y);
                v.setAttribute('x1', x);
                v.setAttribute('x2', x);
                v.setAttribute('y1', '0');
                v.setAttribute('y2', '1024');

                // Calculate real coordinates using inverse transformation
                const matrix = {"a":94.39999999999996,"c":0,"e":511.99999999999994,"b":0,"d":-94.39999999999996,"f":512.0000000000001};
                // Manually invert and apply the affine transform
                // Since we only use translate and scale, we can directly compute:
                // x' = (x - tx) / sx
                // y' = (y - ty) / sy
                const sx = matrix.a;
                const sy = matrix.d;
                const tx = matrix.e; 
                const ty = matrix.f;
                const realPoint = {
                  x: (x - tx) / sx,
                  y: (y - ty) / sy // Flip y back since we used negative scale
                }
                
                coords.textContent = `(${realPoint.x.toFixed(2)}, ${realPoint.y.toFixed(2)})`;
                coords.setAttribute('x', (x + 5).toString());
                coords.setAttribute('y', (y - 5).toString());
              });
              document.currentScript.parentElement.addEventListener('mouseleave', () => {
                document.currentScript.parentElement.getElementById('crosshair').style.display = 'none';
              });
            ]]></script></svg>