<svg width="1024" height="1024" viewBox="0 0 1024 1024" xmlns="http://www.w3.org/2000/svg"><rect width="100%" height="100%" fill="white"/><g><circle data-type="point" data-label="conn_000" data-x="2.32" data-y="-5" cx="731.0079999999998" cy="984" r="14.16" fill="red"/></g><g><circle data-type="point" data-label="conn_000" data-x="1.08" data-y="5" cx="613.9519999999999" cy="40.000000000000284" r="14.16" fill="red"/></g><g><circle data-type="point" data-label="conn_001" data-x="-4.48" data-y="5" cx="89.08800000000008" cy="40.000000000000284" r="14.16" fill="blue"/></g><g><circle data-type="point" data-label="conn_001" data-x="5" data-y="-3.88" cx="983.9999999999998" cy="878.2719999999999" r="14.16" fill="red"/></g><g><circle data-type="point" data-label="conn_002" data-x="1.04" data-y="-5" cx="610.1759999999999" cy="984" r="14.16" fill="blue"/></g><g><circle data-type="point" data-label="conn_002" data-x="4.5600000000000005" data-y="5" cx="942.4639999999998" cy="40.000000000000284" r="14.16" fill="red"/></g><g><circle data-type="point" data-label="conn_003" data-x="1.5" data-y="-5" cx="653.5999999999999" cy="984" r="14.16" fill="red"/></g><g><circle data-type="point" data-label="conn_003" data-x="2.02" data-y="5" cx="702.6879999999999" cy="40.000000000000284" r="14.16" fill="blue"/></g><g><circle data-type="point" data-label="conn_004" data-x="2.92" data-y="5" cx="787.6479999999999" cy="40.000000000000284" r="14.16" fill="blue"/></g><g><circle data-type="point" data-label="conn_004" data-x="-3.2600000000000002" data-y="-5" cx="204.25600000000003" cy="984" r="14.16" fill="red"/></g><g><circle data-type="point" data-label="conn_005" data-x="-4.46" data-y="-5" cx="90.97600000000011" cy="984" r="14.16" fill="red"/></g><g><circle data-type="point" data-label="conn_005" data-x="-4.82" data-y="5" cx="56.992000000000075" cy="40.000000000000284" r="14.16" fill="red"/></g><g><circle data-type="point" data-label="conn_006" data-x="5" data-y="-3.6" cx="983.9999999999998" cy="851.8399999999999" r="14.16" fill="red"/></g><g><circle data-type="point" data-label="conn_006" data-x="-5" data-y="4.14" cx="40.000000000000114" cy="121.18400000000031" r="14.16" fill="red"/></g><g><circle data-type="point" data-label="conn_007" data-x="-5" data-y="2.08" cx="40.000000000000114" cy="315.6480000000002" r="14.16" fill="blue"/></g><g><circle data-type="point" data-label="conn_007" data-x="5" data-y="2.42" cx="983.9999999999998" cy="283.55200000000025" r="14.16" fill="red"/></g><g><polyline data-points="2.373737373737375,-5.000000000000001 2.2727272727272734,-4.898989898989899 2.1717171717171726,-4.7979797979797985 2.070707070707072,-4.696969696969697 1.9696969696969702,-4.595959595959596 1.8686868686868696,-4.494949494949496 1.767676767676768,-4.393939393939394 1.6666666666666674,-4.292929292929293 1.5656565656565666,-4.191919191919193 1.4646464646464652,-4.090909090909091 1.3636363636363644,-3.98989898989899 1.262626262626263,-3.8888888888888884 1.1616161616161622,-3.7878787878787876 1.0606060606060617,-3.6868686868686864 1.0606060606060617,-3.5858585858585856 1.0606060606060617,-3.484848484848485 1.0606060606060617,-3.383838383838383 1.0606060606060617,-3.2828282828282824 1.0606060606060617,-3.1818181818181817 1.0606060606060617,-3.0808080808080804 1.0606060606060617,-2.9797979797979792 1.0606060606060617,-2.8787878787878785 1.0606060606060617,-2.7777777777777777 1.0606060606060617,-2.6767676767676765 1.0606060606060617,-2.5757575757575752 1.0606060606060617,-2.474747474747474 1.0606060606060617,-2.3737373737373733 1.0606060606060617,-2.2727272727272725 1.0606060606060617,-2.1717171717171713 1.0606060606060617,-2.07070707070707 1.0606060606060617,-1.9696969696969693 1.0606060606060617,-1.8686868686868683 1.0606060606060617,-1.7676767676767675 1.0606060606060617,-1.6666666666666665 1.0606060606060617,-1.5656565656565653 1.0606060606060617,-1.4646464646464643 1.0606060606060617,-1.363636363636363 1.0606060606060617,-1.2626262626262625 1.0606060606060617,-1.1616161616161613 1.0606060606060617,-1.0606060606060603 1.0606060606060617,-0.9595959595959596 1.0606060606060617,-0.8585858585858579 1.0606060606060617,-0.7575757575757572 1.0606060606060617,-0.6565656565656557 1.0606060606060617,-0.555555555555555 1.0606060606060617,-0.4545454545454544 1.0606060606060617,-0.35353535353535287 1.0606060606060617,-0.2525252525252522" data-type="line" data-label="" points="736.0808080808081,984 726.5454545454545,974.4646464646464 717.0101010101009,964.9292929292928 707.4747474747475,955.3939393939394 697.9393939393939,945.8585858585858 688.4040404040404,936.3232323232323 678.8686868686868,926.7878787878788 669.3333333333333,917.2525252525252 659.7979797979798,907.7171717171718 650.2626262626262,898.1818181818181 640.7272727272727,888.6464646464647 631.1919191919192,879.1111111111111 621.6565656565656,869.5757575757575 612.1212121212121,860.0404040404039 612.1212121212121,850.5050505050505 612.1212121212121,840.969696969697 612.1212121212121,831.4343434343434 612.1212121212121,821.8989898989898 612.1212121212121,812.3636363636363 612.1212121212121,802.8282828282828 612.1212121212121,793.2929292929292 612.1212121212121,783.7575757575758 612.1212121212121,774.2222222222222 612.1212121212121,764.6868686868687 612.1212121212121,755.1515151515151 612.1212121212121,745.6161616161615 612.1212121212121,736.0808080808081 612.1212121212121,726.5454545454545 612.1212121212121,717.010101010101 612.1212121212121,707.4747474747475 612.1212121212121,697.939393939394 612.1212121212121,688.4040404040404 612.1212121212121,678.8686868686868 612.1212121212121,669.3333333333334 612.1212121212121,659.7979797979798 612.1212121212121,650.2626262626263 612.1212121212121,640.7272727272727 612.1212121212121,631.1919191919193 612.1212121212121,621.6565656565657 612.1212121212121,612.1212121212121 612.1212121212121,602.5858585858587 612.1212121212121,593.0505050505051 612.1212121212121,583.5151515151516 612.1212121212121,573.979797979798 612.1212121212121,564.4444444444445 612.1212121212121,554.909090909091 612.1212121212121,545.3737373737374 612.1212121212121,535.838383838384" fill="none" stroke="rgba(255,0,0,0.75)" stroke-width="11.327999999999996"/></g><g><polyline data-points="1.0606060606060617,-0.2525252525252522 1.0606060606060617,-0.15151515151515066 1.0606060606060617,-0.05050505050505001 1.0606060606060617,0.050505050505051545 1.0606060606060617,0.1515151515151522 1.0606060606060617,0.2525252525252529 1.0606060606060617,0.3535353535353544 1.0606060606060617,0.4545454545454551 1.0606060606060617,0.5555555555555567 1.0606060606060617,0.6565656565656574 1.0606060606060617,0.7575757575757579 1.0606060606060617,0.8585858585858596 1.0606060606060617,0.9595959595959602 1.0606060606060617,1.0606060606060617 1.0606060606060617,1.1616161616161622 1.0606060606060617,1.262626262626263 1.0606060606060617,1.3636363636363644 1.0606060606060617,1.4646464646464652 1.0606060606060617,1.5656565656565666 1.0606060606060617,1.6666666666666674 1.0606060606060617,1.767676767676768 1.0606060606060617,1.8686868686868696 1.0606060606060617,1.9696969696969702 1.0606060606060617,2.070707070707072 1.0606060606060617,2.1717171717171726 1.0606060606060617,2.2727272727272734 1.0606060606060617,2.373737373737375 1.0606060606060617,2.4747474747474754 1.0606060606060617,2.575757575757577 1.0606060606060617,2.676767676767678 1.0606060606060617,2.7777777777777786 1.0606060606060617,2.87878787878788 1.0606060606060617,2.9797979797979806 1.0606060606060617,3.080808080808082 1.0606060606060617,3.181818181818183 1.0606060606060617,3.2828282828282833 1.0606060606060617,3.383838383838384 1.0606060606060617,3.4848484848484866 1.0606060606060617,3.5858585858585874 1.0606060606060617,3.6868686868686877 1.0606060606060617,3.7878787878787885 1.0606060606060617,3.8888888888888893 1.0606060606060617,3.989898989898992" data-type="line" data-label="" points="612.1212121212121,535.838383838384 612.1212121212121,526.3030303030304 612.1212121212121,516.7676767676768 612.1212121212121,507.23232323232327 612.1212121212121,497.69696969696975 612.1212121212121,488.1616161616163 612.1212121212121,478.6262626262627 612.1212121212121,469.0909090909092 612.1212121212121,459.5555555555556 612.1212121212121,450.0202020202021 612.1212121212121,440.4848484848486 612.1212121212121,430.94949494949503 612.1212121212121,421.4141414141415 612.1212121212121,411.87878787878793 612.1212121212121,402.3434343434344 612.1212121212121,392.80808080808094 612.1212121212121,383.27272727272737 612.1212121212121,373.73737373737384 612.1212121212121,364.2020202020203 612.1212121212121,354.66666666666674 612.1212121212121,345.1313131313133 612.1212121212121,335.5959595959597 612.1212121212121,326.06060606060623 612.1212121212121,316.5252525252526 612.1212121212121,306.9898989898991 612.1212121212121,297.4545454545456 612.1212121212121,287.91919191919203 612.1212121212121,278.38383838383857 612.1212121212121,268.84848484848493 612.1212121212121,259.3131313131314 612.1212121212121,249.77777777777794 612.1212121212121,240.24242424242436 612.1212121212121,230.70707070707084 612.1212121212121,221.17171717171726 612.1212121212121,211.63636363636374 612.1212121212121,202.10101010101027 612.1212121212121,192.56565656565675 612.1212121212121,183.03030303030312 612.1212121212121,173.4949494949496 612.1212121212121,163.95959595959613 612.1212121212121,154.4242424242426 612.1212121212121,144.88888888888908 612.1212121212121,135.35353535353545" fill="none" stroke="rgba(0,0,255,0.75)" stroke-width="11.327999999999996"/></g><g><polyline data-points="1.0606060606060617,3.989898989898992 1.0606060606060617,4.090909090909092 1.0606060606060617,4.191919191919193 1.0606060606060617,4.292929292929293 1.0606060606060617,4.393939393939394 1.0606060606060617,4.494949494949497 1.0606060606060617,4.595959595959597 1.0606060606060617,4.696969696969697 1.0606060606060617,4.7979797979797985 1.0606060606060617,4.898989898989901 1.0606060606060617,5.000000000000002" data-type="line" data-label="" points="612.1212121212121,135.35353535353545 612.1212121212121,125.81818181818198 612.1212121212121,116.28282828282846 612.1212121212121,106.747474747475 612.1212121212121,97.21212121212153 612.1212121212121,87.67676767676778 612.1212121212121,78.14141414141432 612.1212121212121,68.60606060606085 612.1212121212121,59.07070707070733 612.1212121212121,49.53535353535369 612.1212121212121,40.000000000000114" fill="none" stroke="rgba(255,0,0,0.75)" stroke-width="11.327999999999996"/></g><g><polyline data-points="1.0606060606060617,-5.000000000000001 1.1616161616161622,-4.898989898989899 1.262626262626263,-4.7979797979797985 1.3636363636363644,-4.696969696969697 1.4646464646464652,-4.595959595959596 1.5656565656565666,-4.494949494949496 1.6666666666666674,-4.393939393939394 1.767676767676768,-4.292929292929293 1.8686868686868696,-4.191919191919193 1.9696969696969702,-4.090909090909091 2.070707070707072,-3.98989898989899 2.1717171717171726,-3.8888888888888884 2.2727272727272734,-3.7878787878787876 2.373737373737375,-3.6868686868686864 2.4747474747474754,-3.5858585858585856 2.575757575757577,-3.484848484848485 2.676767676767678,-3.383838383838383 2.7777777777777786,-3.2828282828282824 2.87878787878788,-3.1818181818181817 2.9797979797979806,-3.0808080808080804 3.080808080808082,-2.9797979797979792 3.181818181818183,-2.8787878787878785 3.2828282828282833,-2.7777777777777777 3.383838383838384,-2.6767676767676765 3.4848484848484866,-2.5757575757575752 3.5858585858585874,-2.474747474747474 3.6868686868686877,-2.3737373737373733 3.7878787878787885,-2.2727272727272725 3.8888888888888893,-2.1717171717171713 3.989898989898992,-2.07070707070707 3.989898989898992,-1.9696969696969693 3.989898989898992,-1.8686868686868683 3.989898989898992,-1.7676767676767675 3.989898989898992,-1.6666666666666665 3.989898989898992,-1.5656565656565653 3.989898989898992,-1.4646464646464643 3.989898989898992,-1.363636363636363 3.989898989898992,-1.2626262626262625 3.989898989898992,-1.1616161616161613 3.989898989898992,-1.0606060606060603 3.989898989898992,-0.9595959595959596 3.989898989898992,-0.8585858585858579 3.989898989898992,-0.7575757575757572 3.989898989898992,-0.6565656565656557 3.989898989898992,-0.555555555555555 3.989898989898992,-0.4545454545454544 3.989898989898992,-0.35353535353535287 3.989898989898992,-0.2525252525252522 3.989898989898992,-0.15151515151515066 3.989898989898992,-0.05050505050505001 3.989898989898992,0.050505050505051545 3.989898989898992,0.1515151515151522 3.989898989898992,0.2525252525252529 3.989898989898992,0.3535353535353544 3.989898989898992,0.4545454545454551 3.989898989898992,0.5555555555555567 3.989898989898992,0.6565656565656574 3.989898989898992,0.7575757575757579 3.989898989898992,0.8585858585858596 3.989898989898992,0.9595959595959602 3.989898989898992,1.0606060606060617 3.989898989898992,1.1616161616161622 3.989898989898992,1.262626262626263 3.989898989898992,1.3636363636363644 3.989898989898992,1.4646464646464652 3.989898989898992,1.5656565656565666 3.989898989898992,1.6666666666666674 3.989898989898992,1.767676767676768 3.989898989898992,1.8686868686868696 3.989898989898992,1.9696969696969702 3.989898989898992,2.070707070707072 3.989898989898992,2.1717171717171726 3.989898989898992,2.2727272727272734 3.989898989898992,2.373737373737375 3.989898989898992,2.4747474747474754 3.989898989898992,2.575757575757577 3.989898989898992,2.676767676767678 3.989898989898992,2.7777777777777786 3.989898989898992,2.87878787878788 3.989898989898992,2.9797979797979806 3.989898989898992,3.080808080808082 3.989898989898992,3.181818181818183 3.989898989898992,3.2828282828282833 3.989898989898992,3.383838383838384 3.989898989898992,3.4848484848484866 3.989898989898992,3.5858585858585874 3.989898989898992,3.6868686868686877 3.989898989898992,3.7878787878787885 3.989898989898992,3.8888888888888893" data-type="line" data-label="" points="612.1212121212121,984 621.6565656565656,974.4646464646464 631.1919191919192,964.9292929292928 640.7272727272727,955.3939393939394 650.2626262626262,945.8585858585858 659.7979797979798,936.3232323232323 669.3333333333333,926.7878787878788 678.8686868686868,917.2525252525252 688.4040404040404,907.7171717171718 697.9393939393939,898.1818181818181 707.4747474747475,888.6464646464647 717.0101010101009,879.1111111111111 726.5454545454545,869.5757575757575 736.0808080808081,860.0404040404039 745.6161616161615,850.5050505050505 755.1515151515151,840.969696969697 764.6868686868686,831.4343434343434 774.2222222222222,821.8989898989898 783.7575757575758,812.3636363636363 793.2929292929292,802.8282828282828 802.8282828282828,793.2929292929292 812.3636363636363,783.7575757575758 821.8989898989898,774.2222222222222 831.4343434343433,764.6868686868687 840.969696969697,755.1515151515151 850.5050505050505,745.6161616161615 860.0404040404039,736.0808080808081 869.5757575757575,726.5454545454545 879.111111111111,717.010101010101 888.6464646464647,707.4747474747475 888.6464646464647,697.939393939394 888.6464646464647,688.4040404040404 888.6464646464647,678.8686868686868 888.6464646464647,669.3333333333334 888.6464646464647,659.7979797979798 888.6464646464647,650.2626262626263 888.6464646464647,640.7272727272727 888.6464646464647,631.1919191919193 888.6464646464647,621.6565656565657 888.6464646464647,612.1212121212121 888.6464646464647,602.5858585858587 888.6464646464647,593.0505050505051 888.6464646464647,583.5151515151516 888.6464646464647,573.979797979798 888.6464646464647,564.4444444444445 888.6464646464647,554.909090909091 888.6464646464647,545.3737373737374 888.6464646464647,535.838383838384 888.6464646464647,526.3030303030304 888.6464646464647,516.7676767676768 888.6464646464647,507.23232323232327 888.6464646464647,497.69696969696975 888.6464646464647,488.1616161616163 888.6464646464647,478.6262626262627 888.6464646464647,469.0909090909092 888.6464646464647,459.5555555555556 888.6464646464647,450.0202020202021 888.6464646464647,440.4848484848486 888.6464646464647,430.94949494949503 888.6464646464647,421.4141414141415 888.6464646464647,411.87878787878793 888.6464646464647,402.3434343434344 888.6464646464647,392.80808080808094 888.6464646464647,383.27272727272737 888.6464646464647,373.73737373737384 888.6464646464647,364.2020202020203 888.6464646464647,354.66666666666674 888.6464646464647,345.1313131313133 888.6464646464647,335.5959595959597 888.6464646464647,326.06060606060623 888.6464646464647,316.5252525252526 888.6464646464647,306.9898989898991 888.6464646464647,297.4545454545456 888.6464646464647,287.91919191919203 888.6464646464647,278.38383838383857 888.6464646464647,268.84848484848493 888.6464646464647,259.3131313131314 888.6464646464647,249.77777777777794 888.6464646464647,240.24242424242436 888.6464646464647,230.70707070707084 888.6464646464647,221.17171717171726 888.6464646464647,211.63636363636374 888.6464646464647,202.10101010101027 888.6464646464647,192.56565656565675 888.6464646464647,183.03030303030312 888.6464646464647,173.4949494949496 888.6464646464647,163.95959595959613 888.6464646464647,154.4242424242426 888.6464646464647,144.88888888888908" fill="none" stroke="rgba(0,0,255,0.75)" stroke-width="11.327999999999996"/></g><g><polyline data-points="3.989898989898992,3.8888888888888893 4.090909090909092,3.989898989898992 4.191919191919193,4.090909090909092 4.292929292929293,4.191919191919193 4.393939393939394,4.292929292929293 4.494949494949497,4.393939393939394 4.595959595959597,4.494949494949497 4.595959595959597,4.595959595959597 4.595959595959597,4.696969696969697 4.595959595959597,4.7979797979797985 4.595959595959597,4.898989898989901 4.595959595959597,5.000000000000002" data-type="line" data-label="" points="888.6464646464647,144.88888888888908 898.181818181818,135.35353535353545 907.7171717171716,125.81818181818198 917.2525252525251,116.28282828282846 926.7878787878785,106.747474747475 936.3232323232323,97.21212121212153 945.8585858585857,87.67676767676778 945.8585858585857,78.14141414141432 945.8585858585857,68.60606060606085 945.8585858585857,59.07070707070733 945.8585858585857,49.53535353535369 945.8585858585857,40.000000000000114" fill="none" stroke="rgba(255,0,0,0.75)" stroke-width="11.327999999999996"/></g><g><polyline data-points="-4.494949494949496,5.000000000000002 -4.393939393939394,4.898989898989901 -4.292929292929293,4.7979797979797985 -4.191919191919193,4.696969696969697 -4.090909090909091,4.595959595959597 -3.98989898989899,4.494949494949497 -3.8888888888888884,4.393939393939394 -3.7878787878787876,4.292929292929293 -3.6868686868686864,4.191919191919193 -3.5858585858585856,4.090909090909092 -3.484848484848485,3.989898989898992 -3.383838383838383,3.8888888888888893 -3.2828282828282824,3.7878787878787885 -3.1818181818181817,3.6868686868686877 -3.0808080808080804,3.5858585858585874 -2.9797979797979792,3.4848484848484866 -2.8787878787878785,3.383838383838384 -2.7777777777777777,3.2828282828282833 -2.6767676767676765,3.181818181818183 -2.5757575757575752,3.080808080808082 -2.474747474747474,2.9797979797979806 -2.3737373737373733,2.87878787878788 -2.2727272727272725,2.7777777777777786 -2.1717171717171713,2.676767676767678 -2.07070707070707,2.575757575757577 -1.9696969696969693,2.4747474747474754 -1.8686868686868683,2.373737373737375 -1.7676767676767675,2.2727272727272734 -1.6666666666666665,2.1717171717171726 -1.5656565656565653,2.070707070707072 -1.4646464646464643,1.9696969696969702 -1.363636363636363,1.8686868686868696 -1.2626262626262625,1.767676767676768 -1.1616161616161613,1.6666666666666674 -1.0606060606060603,1.5656565656565666 -0.9595959595959596,1.4646464646464652 -0.8585858585858579,1.3636363636363644 -0.7575757575757572,1.262626262626263 -0.6565656565656557,1.1616161616161622 -0.555555555555555,1.0606060606060617 -0.4545454545454544,0.9595959595959602 -0.35353535353535287,0.8585858585858596 -0.2525252525252522,0.7575757575757579 -0.15151515151515066,0.6565656565656574 -0.05050505050505001,0.5555555555555567 0.050505050505051545,0.4545454545454551 0.1515151515151522,0.3535353535353544 0.2525252525252529,0.2525252525252529 0.3535353535353544,0.1515151515151522 0.4545454545454551,0.050505050505051545 0.5555555555555567,-0.05050505050505001 0.6565656565656574,-0.15151515151515066 0.7575757575757579,-0.2525252525252522 0.8585858585858596,-0.35353535353535287 0.9595959595959602,-0.4545454545454544 1.0606060606060617,-0.555555555555555 1.1616161616161622,-0.6565656565656557 1.262626262626263,-0.7575757575757572 1.3636363636363644,-0.8585858585858579 1.4646464646464652,-0.9595959595959596 1.5656565656565666,-1.0606060606060603 1.6666666666666674,-1.1616161616161613 1.767676767676768,-1.2626262626262625 1.8686868686868696,-1.363636363636363 1.9696969696969702,-1.4646464646464643 2.070707070707072,-1.5656565656565653 2.1717171717171726,-1.6666666666666665 2.2727272727272734,-1.7676767676767675 2.373737373737375,-1.8686868686868683 2.4747474747474754,-1.9696969696969693 2.575757575757577,-2.07070707070707 2.676767676767678,-2.1717171717171713 2.7777777777777786,-2.2727272727272725 2.87878787878788,-2.3737373737373733 2.9797979797979806,-2.474747474747474" data-type="line" data-label="" points="87.67676767676772,40.000000000000114 97.21212121212136,49.53535353535369 106.74747474747483,59.07070707070733 116.28282828282829,68.60606060606085 125.81818181818193,78.14141414141432 135.35353535353545,87.67676767676778 144.88888888888903,97.21212121212153 154.42424242424255,106.747474747475 163.95959595959607,116.28282828282846 173.4949494949496,125.81818181818198 183.03030303030312,135.35353535353545 192.5656565656567,144.88888888888908 202.10101010101022,154.4242424242426 211.63636363636374,163.95959595959613 221.17171717171726,173.4949494949496 230.70707070707084,183.03030303030312 240.2424242424243,192.56565656565675 249.77777777777783,202.10101010101027 259.3131313131314,211.63636363636374 268.84848484848493,221.17171717171726 278.38383838383845,230.70707070707084 287.91919191919203,240.24242424242436 297.4545454545455,249.77777777777794 306.9898989898991,259.3131313131314 316.5252525252526,268.84848484848493 326.0606060606061,278.38383838383857 335.59595959595964,287.91919191919203 345.13131313131316,297.4545454545456 354.6666666666667,306.9898989898991 364.2020202020202,316.5252525252526 373.7373737373738,326.06060606060623 383.2727272727273,335.5959595959597 392.80808080808083,345.1313131313133 402.34343434343435,354.66666666666674 411.8787878787879,364.2020202020203 421.4141414141414,373.73737373737384 430.949494949495,383.27272727272737 440.4848484848485,392.80808080808094 450.0202020202021,402.3434343434344 459.55555555555554,411.87878787878793 469.09090909090907,421.4141414141415 478.62626262626264,430.94949494949503 488.16161616161617,440.4848484848486 497.69696969696975,450.0202020202021 507.2323232323232,459.5555555555556 516.7676767676768,469.0909090909092 526.3030303030303,478.6262626262627 535.8383838383838,488.1616161616163 545.3737373737374,497.69696969696975 554.9090909090909,507.23232323232327 564.4444444444445,516.7676767676768 573.9797979797979,526.3030303030304 583.5151515151515,535.838383838384 593.0505050505051,545.3737373737374 602.5858585858585,554.909090909091 612.1212121212121,564.4444444444445 621.6565656565656,573.979797979798 631.1919191919192,583.5151515151516 640.7272727272727,593.0505050505051 650.2626262626262,602.5858585858587 659.7979797979798,612.1212121212121 669.3333333333333,621.6565656565657 678.8686868686868,631.1919191919193 688.4040404040404,640.7272727272727 697.9393939393939,650.2626262626263 707.4747474747475,659.7979797979798 717.0101010101009,669.3333333333334 726.5454545454545,678.8686868686868 736.0808080808081,688.4040404040404 745.6161616161615,697.939393939394 755.1515151515151,707.4747474747475 764.6868686868686,717.010101010101 774.2222222222222,726.5454545454545 783.7575757575758,736.0808080808081 793.2929292929292,745.6161616161615" fill="none" stroke="rgba(0,0,255,0.75)" stroke-width="11.327999999999996"/></g><g><polyline data-points="2.9797979797979806,-2.474747474747474 3.080808080808082,-2.5757575757575752 3.181818181818183,-2.6767676767676765 3.2828282828282833,-2.7777777777777777 3.383838383838384,-2.8787878787878785 3.4848484848484866,-2.9797979797979792 3.5858585858585874,-3.0808080808080804 3.6868686868686877,-3.1818181818181817 3.7878787878787885,-3.2828282828282824 3.8888888888888893,-3.383838383838383 3.989898989898992,-3.484848484848485 4.090909090909092,-3.5858585858585856 4.191919191919193,-3.6868686868686864 4.292929292929293,-3.7878787878787876 4.393939393939394,-3.8888888888888884 4.494949494949497,-3.8888888888888884 4.595959595959597,-3.8888888888888884 4.696969696969697,-3.8888888888888884 4.7979797979797985,-3.8888888888888884 4.898989898989901,-3.8888888888888884 5.000000000000002,-3.8888888888888884" data-type="line" data-label="" points="793.2929292929292,745.6161616161615 802.8282828282828,755.1515151515151 812.3636363636363,764.6868686868687 821.8989898989898,774.2222222222222 831.4343434343433,783.7575757575758 840.969696969697,793.2929292929292 850.5050505050505,802.8282828282828 860.0404040404039,812.3636363636363 869.5757575757575,821.8989898989898 879.111111111111,831.4343434343434 888.6464646464647,840.969696969697 898.181818181818,850.5050505050505 907.7171717171716,860.0404040404039 917.2525252525251,869.5757575757575 926.7878787878785,879.1111111111111 936.3232323232323,879.1111111111111 945.8585858585857,879.1111111111111 955.3939393939393,879.1111111111111 964.9292929292927,879.1111111111111 974.4646464646464,879.1111111111111 984,879.1111111111111" fill="none" stroke="rgba(255,0,0,0.75)" stroke-width="11.327999999999996"/></g><g><polyline data-points="1.5656565656565666,-5.000000000000001 1.5656565656565666,-4.898989898989899 1.5656565656565666,-4.7979797979797985 1.5656565656565666,-4.696969696969697 1.4646464646464652,-4.595959595959596 1.3636363636363644,-4.494949494949496 1.262626262626263,-4.393939393939394 1.1616161616161622,-4.292929292929293 1.0606060606060617,-4.191919191919193 0.9595959595959602,-4.090909090909091 0.8585858585858596,-3.98989898989899" data-type="line" data-label="" points="659.7979797979798,984 659.7979797979798,974.4646464646464 659.7979797979798,964.9292929292928 659.7979797979798,955.3939393939394 650.2626262626262,945.8585858585858 640.7272727272727,936.3232323232323 631.1919191919192,926.7878787878788 621.6565656565656,917.2525252525252 612.1212121212121,907.7171717171718 602.5858585858585,898.1818181818181 593.0505050505051,888.6464646464647" fill="none" stroke="rgba(255,0,0,0.75)" stroke-width="11.327999999999996"/></g><g><polyline data-points="0.8585858585858596,-3.98989898989899 0.9595959595959602,-3.8888888888888884 1.0606060606060617,-3.7878787878787876 1.1616161616161622,-3.6868686868686864 1.262626262626263,-3.5858585858585856 1.3636363636363644,-3.484848484848485 1.4646464646464652,-3.383838383838383 1.5656565656565666,-3.2828282828282824 1.6666666666666674,-3.1818181818181817 1.767676767676768,-3.0808080808080804 1.8686868686868696,-2.9797979797979792 1.9696969696969702,-2.8787878787878785 2.070707070707072,-2.7777777777777777 2.1717171717171726,-2.7777777777777777 2.2727272727272734,-2.7777777777777777 2.373737373737375,-2.7777777777777777 2.4747474747474754,-2.7777777777777777 2.575757575757577,-2.7777777777777777 2.676767676767678,-2.7777777777777777 2.7777777777777786,-2.7777777777777777 2.87878787878788,-2.7777777777777777 2.9797979797979806,-2.7777777777777777 3.080808080808082,-2.6767676767676765 3.181818181818183,-2.5757575757575752 3.2828282828282833,-2.474747474747474 3.181818181818183,-2.3737373737373733 3.080808080808082,-2.2727272727272725 2.9797979797979806,-2.1717171717171713 2.87878787878788,-2.07070707070707 2.7777777777777786,-1.9696969696969693 2.676767676767678,-1.8686868686868683 2.575757575757577,-1.7676767676767675 2.4747474747474754,-1.6666666666666665 2.373737373737375,-1.5656565656565653 2.2727272727272734,-1.4646464646464643 2.1717171717171726,-1.363636363636363 2.070707070707072,-1.2626262626262625 2.070707070707072,-1.1616161616161613 2.070707070707072,-1.0606060606060603 2.070707070707072,-0.9595959595959596 2.070707070707072,-0.8585858585858579 2.070707070707072,-0.7575757575757572 2.070707070707072,-0.6565656565656557 2.070707070707072,-0.555555555555555 2.070707070707072,-0.4545454545454544 2.070707070707072,-0.35353535353535287 2.070707070707072,-0.2525252525252522 2.070707070707072,-0.15151515151515066 2.070707070707072,-0.05050505050505001 2.070707070707072,0.050505050505051545 2.070707070707072,0.1515151515151522 2.070707070707072,0.2525252525252529 2.070707070707072,0.3535353535353544 2.070707070707072,0.4545454545454551 2.070707070707072,0.5555555555555567 2.070707070707072,0.6565656565656574 2.070707070707072,0.7575757575757579 2.070707070707072,0.8585858585858596 2.070707070707072,0.9595959595959602 2.070707070707072,1.0606060606060617 2.070707070707072,1.1616161616161622 2.070707070707072,1.262626262626263 2.070707070707072,1.3636363636363644 2.070707070707072,1.4646464646464652 2.070707070707072,1.5656565656565666 2.070707070707072,1.6666666666666674 2.070707070707072,1.767676767676768 2.070707070707072,1.8686868686868696 2.070707070707072,1.9696969696969702 2.070707070707072,2.070707070707072 2.070707070707072,2.1717171717171726 2.070707070707072,2.2727272727272734 2.070707070707072,2.373737373737375 2.070707070707072,2.4747474747474754 2.070707070707072,2.575757575757577 2.070707070707072,2.676767676767678 2.070707070707072,2.7777777777777786 2.070707070707072,2.87878787878788 2.070707070707072,2.9797979797979806 2.070707070707072,3.080808080808082 2.070707070707072,3.181818181818183 2.070707070707072,3.2828282828282833 2.070707070707072,3.383838383838384 2.070707070707072,3.4848484848484866 2.070707070707072,3.5858585858585874 2.070707070707072,3.6868686868686877 2.070707070707072,3.7878787878787885 2.070707070707072,3.8888888888888893 2.070707070707072,3.989898989898992 2.070707070707072,4.090909090909092 2.070707070707072,4.191919191919193 2.070707070707072,4.292929292929293 2.070707070707072,4.393939393939394 2.070707070707072,4.494949494949497 2.070707070707072,4.595959595959597 2.070707070707072,4.696969696969697 2.070707070707072,4.7979797979797985 2.070707070707072,4.898989898989901 2.070707070707072,5.000000000000002" data-type="line" data-label="" points="593.0505050505051,888.6464646464647 602.5858585858585,879.1111111111111 612.1212121212121,869.5757575757575 621.6565656565656,860.0404040404039 631.1919191919192,850.5050505050505 640.7272727272727,840.969696969697 650.2626262626262,831.4343434343434 659.7979797979798,821.8989898989898 669.3333333333333,812.3636363636363 678.8686868686868,802.8282828282828 688.4040404040404,793.2929292929292 697.9393939393939,783.7575757575758 707.4747474747475,774.2222222222222 717.0101010101009,774.2222222222222 726.5454545454545,774.2222222222222 736.0808080808081,774.2222222222222 745.6161616161615,774.2222222222222 755.1515151515151,774.2222222222222 764.6868686868686,774.2222222222222 774.2222222222222,774.2222222222222 783.7575757575758,774.2222222222222 793.2929292929292,774.2222222222222 802.8282828282828,764.6868686868687 812.3636363636363,755.1515151515151 821.8989898989898,745.6161616161615 812.3636363636363,736.0808080808081 802.8282828282828,726.5454545454545 793.2929292929292,717.010101010101 783.7575757575758,707.4747474747475 774.2222222222222,697.939393939394 764.6868686868686,688.4040404040404 755.1515151515151,678.8686868686868 745.6161616161615,669.3333333333334 736.0808080808081,659.7979797979798 726.5454545454545,650.2626262626263 717.0101010101009,640.7272727272727 707.4747474747475,631.1919191919193 707.4747474747475,621.6565656565657 707.4747474747475,612.1212121212121 707.4747474747475,602.5858585858587 707.4747474747475,593.0505050505051 707.4747474747475,583.5151515151516 707.4747474747475,573.979797979798 707.4747474747475,564.4444444444445 707.4747474747475,554.909090909091 707.4747474747475,545.3737373737374 707.4747474747475,535.838383838384 707.4747474747475,526.3030303030304 707.4747474747475,516.7676767676768 707.4747474747475,507.23232323232327 707.4747474747475,497.69696969696975 707.4747474747475,488.1616161616163 707.4747474747475,478.6262626262627 707.4747474747475,469.0909090909092 707.4747474747475,459.5555555555556 707.4747474747475,450.0202020202021 707.4747474747475,440.4848484848486 707.4747474747475,430.94949494949503 707.4747474747475,421.4141414141415 707.4747474747475,411.87878787878793 707.4747474747475,402.3434343434344 707.4747474747475,392.80808080808094 707.4747474747475,383.27272727272737 707.4747474747475,373.73737373737384 707.4747474747475,364.2020202020203 707.4747474747475,354.66666666666674 707.4747474747475,345.1313131313133 707.4747474747475,335.5959595959597 707.4747474747475,326.06060606060623 707.4747474747475,316.5252525252526 707.4747474747475,306.9898989898991 707.4747474747475,297.4545454545456 707.4747474747475,287.91919191919203 707.4747474747475,278.38383838383857 707.4747474747475,268.84848484848493 707.4747474747475,259.3131313131314 707.4747474747475,249.77777777777794 707.4747474747475,240.24242424242436 707.4747474747475,230.70707070707084 707.4747474747475,221.17171717171726 707.4747474747475,211.63636363636374 707.4747474747475,202.10101010101027 707.4747474747475,192.56565656565675 707.4747474747475,183.03030303030312 707.4747474747475,173.4949494949496 707.4747474747475,163.95959595959613 707.4747474747475,154.4242424242426 707.4747474747475,144.88888888888908 707.4747474747475,135.35353535353545 707.4747474747475,125.81818181818198 707.4747474747475,116.28282828282846 707.4747474747475,106.747474747475 707.4747474747475,97.21212121212153 707.4747474747475,87.67676767676778 707.4747474747475,78.14141414141432 707.4747474747475,68.60606060606085 707.4747474747475,59.07070707070733 707.4747474747475,49.53535353535369 707.4747474747475,40.000000000000114" fill="none" stroke="rgba(0,0,255,0.75)" stroke-width="11.327999999999996"/></g><g><polyline data-points="2.9797979797979806,5.000000000000002 2.87878787878788,4.898989898989901 2.7777777777777786,4.7979797979797985 2.676767676767678,4.696969696969697 2.575757575757577,4.595959595959597 2.4747474747474754,4.494949494949497 2.4747474747474754,4.393939393939394 2.4747474747474754,4.292929292929293 2.4747474747474754,4.191919191919193 2.4747474747474754,4.090909090909092 2.4747474747474754,3.989898989898992 2.4747474747474754,3.8888888888888893 2.4747474747474754,3.7878787878787885 2.4747474747474754,3.6868686868686877 2.4747474747474754,3.5858585858585874 2.4747474747474754,3.4848484848484866 2.4747474747474754,3.383838383838384 2.4747474747474754,3.2828282828282833 2.4747474747474754,3.181818181818183 2.4747474747474754,3.080808080808082 2.4747474747474754,2.9797979797979806 2.4747474747474754,2.87878787878788 2.4747474747474754,2.7777777777777786 2.4747474747474754,2.676767676767678 2.4747474747474754,2.575757575757577 2.4747474747474754,2.4747474747474754 2.4747474747474754,2.373737373737375 2.4747474747474754,2.2727272727272734 2.4747474747474754,2.1717171717171726 2.4747474747474754,2.070707070707072 2.4747474747474754,1.9696969696969702 2.4747474747474754,1.8686868686868696 2.4747474747474754,1.767676767676768 2.4747474747474754,1.6666666666666674 2.4747474747474754,1.5656565656565666 2.4747474747474754,1.4646464646464652 2.4747474747474754,1.3636363636363644 2.4747474747474754,1.262626262626263 2.4747474747474754,1.1616161616161622 2.4747474747474754,1.0606060606060617 2.4747474747474754,0.9595959595959602 2.4747474747474754,0.8585858585858596 2.4747474747474754,0.7575757575757579 2.4747474747474754,0.6565656565656574 2.4747474747474754,0.5555555555555567 2.4747474747474754,0.4545454545454551 2.4747474747474754,0.3535353535353544 2.4747474747474754,0.2525252525252529 2.4747474747474754,0.1515151515151522 2.4747474747474754,0.050505050505051545 2.4747474747474754,-0.05050505050505001 2.4747474747474754,-0.15151515151515066 2.4747474747474754,-0.2525252525252522 2.4747474747474754,-0.35353535353535287 2.4747474747474754,-0.4545454545454544 2.4747474747474754,-0.555555555555555 2.4747474747474754,-0.6565656565656557" data-type="line" data-label="" points="793.2929292929292,40.000000000000114 783.7575757575758,49.53535353535369 774.2222222222222,59.07070707070733 764.6868686868686,68.60606060606085 755.1515151515151,78.14141414141432 745.6161616161615,87.67676767676778 745.6161616161615,97.21212121212153 745.6161616161615,106.747474747475 745.6161616161615,116.28282828282846 745.6161616161615,125.81818181818198 745.6161616161615,135.35353535353545 745.6161616161615,144.88888888888908 745.6161616161615,154.4242424242426 745.6161616161615,163.95959595959613 745.6161616161615,173.4949494949496 745.6161616161615,183.03030303030312 745.6161616161615,192.56565656565675 745.6161616161615,202.10101010101027 745.6161616161615,211.63636363636374 745.6161616161615,221.17171717171726 745.6161616161615,230.70707070707084 745.6161616161615,240.24242424242436 745.6161616161615,249.77777777777794 745.6161616161615,259.3131313131314 745.6161616161615,268.84848484848493 745.6161616161615,278.38383838383857 745.6161616161615,287.91919191919203 745.6161616161615,297.4545454545456 745.6161616161615,306.9898989898991 745.6161616161615,316.5252525252526 745.6161616161615,326.06060606060623 745.6161616161615,335.5959595959597 745.6161616161615,345.1313131313133 745.6161616161615,354.66666666666674 745.6161616161615,364.2020202020203 745.6161616161615,373.73737373737384 745.6161616161615,383.27272727272737 745.6161616161615,392.80808080808094 745.6161616161615,402.3434343434344 745.6161616161615,411.87878787878793 745.6161616161615,421.4141414141415 745.6161616161615,430.94949494949503 745.6161616161615,440.4848484848486 745.6161616161615,450.0202020202021 745.6161616161615,459.5555555555556 745.6161616161615,469.0909090909092 745.6161616161615,478.6262626262627 745.6161616161615,488.1616161616163 745.6161616161615,497.69696969696975 745.6161616161615,507.23232323232327 745.6161616161615,516.7676767676768 745.6161616161615,526.3030303030304 745.6161616161615,535.838383838384 745.6161616161615,545.3737373737374 745.6161616161615,554.909090909091 745.6161616161615,564.4444444444445 745.6161616161615,573.979797979798" fill="none" stroke="rgba(0,0,255,0.75)" stroke-width="11.327999999999996"/></g><g><polyline data-points="2.4747474747474754,-0.6565656565656557 2.373737373737375,-0.7575757575757572 2.2727272727272734,-0.8585858585858579 2.1717171717171726,-0.9595959595959596 2.070707070707072,-1.0606060606060603 1.9696969696969702,-1.1616161616161613 1.8686868686868696,-1.2626262626262625 1.767676767676768,-1.363636363636363 1.6666666666666674,-1.4646464646464643 1.5656565656565666,-1.5656565656565653 1.4646464646464652,-1.6666666666666665 1.4646464646464652,-1.7676767676767675 1.4646464646464652,-1.8686868686868683 1.4646464646464652,-1.9696969696969693 1.4646464646464652,-2.07070707070707 1.4646464646464652,-2.1717171717171713 1.4646464646464652,-2.2727272727272725 1.4646464646464652,-2.3737373737373733 1.4646464646464652,-2.474747474747474" data-type="line" data-label="" points="745.6161616161615,573.979797979798 736.0808080808081,583.5151515151516 726.5454545454545,593.0505050505051 717.0101010101009,602.5858585858587 707.4747474747475,612.1212121212121 697.9393939393939,621.6565656565657 688.4040404040404,631.1919191919193 678.8686868686868,640.7272727272727 669.3333333333333,650.2626262626263 659.7979797979798,659.7979797979798 650.2626262626262,669.3333333333334 650.2626262626262,678.8686868686868 650.2626262626262,688.4040404040404 650.2626262626262,697.939393939394 650.2626262626262,707.4747474747475 650.2626262626262,717.010101010101 650.2626262626262,726.5454545454545 650.2626262626262,736.0808080808081 650.2626262626262,745.6161616161615" fill="none" stroke="rgba(255,0,0,0.75)" stroke-width="11.327999999999996"/></g><g><polyline data-points="1.4646464646464652,-2.474747474747474 1.3636363636363644,-2.5757575757575752 1.262626262626263,-2.6767676767676765 1.1616161616161622,-2.7777777777777777 1.0606060606060617,-2.8787878787878785 0.9595959595959602,-2.9797979797979792 0.8585858585858596,-3.0808080808080804 0.7575757575757579,-3.1818181818181817 0.6565656565656574,-3.2828282828282824 0.5555555555555567,-3.383838383838383 0.4545454545454551,-3.484848484848485 0.3535353535353544,-3.5858585858585856 0.2525252525252529,-3.6868686868686864 0.1515151515151522,-3.7878787878787876 0.050505050505051545,-3.8888888888888884 -0.05050505050505001,-3.98989898989899 -0.15151515151515066,-3.98989898989899 -0.2525252525252522,-3.98989898989899 -0.35353535353535287,-3.98989898989899 -0.4545454545454544,-3.98989898989899 -0.555555555555555,-3.98989898989899 -0.6565656565656557,-3.98989898989899 -0.7575757575757572,-3.98989898989899 -0.8585858585858579,-3.98989898989899 -0.9595959595959596,-3.98989898989899 -1.0606060606060603,-3.98989898989899 -1.1616161616161613,-3.98989898989899 -1.2626262626262625,-3.98989898989899 -1.363636363636363,-3.98989898989899 -1.4646464646464643,-3.98989898989899 -1.5656565656565653,-3.98989898989899 -1.6666666666666665,-3.98989898989899 -1.7676767676767675,-3.98989898989899 -1.8686868686868683,-3.98989898989899 -1.9696969696969693,-3.98989898989899 -2.07070707070707,-3.98989898989899 -2.1717171717171713,-3.98989898989899 -2.2727272727272725,-3.98989898989899 -2.3737373737373733,-3.98989898989899 -2.474747474747474,-3.98989898989899 -2.5757575757575752,-3.98989898989899 -2.6767676767676765,-3.98989898989899 -2.7777777777777777,-3.98989898989899 -2.8787878787878785,-3.98989898989899 -2.9797979797979792,-3.98989898989899 -3.0808080808080804,-3.98989898989899 -3.1818181818181817,-3.98989898989899" data-type="line" data-label="" points="650.2626262626262,745.6161616161615 640.7272727272727,755.1515151515151 631.1919191919192,764.6868686868687 621.6565656565656,774.2222222222222 612.1212121212121,783.7575757575758 602.5858585858585,793.2929292929292 593.0505050505051,802.8282828282828 583.5151515151515,812.3636363636363 573.9797979797979,821.8989898989898 564.4444444444445,831.4343434343434 554.9090909090909,840.969696969697 545.3737373737374,850.5050505050505 535.8383838383838,860.0404040404039 526.3030303030303,869.5757575757575 516.7676767676768,879.1111111111111 507.2323232323232,888.6464646464647 497.69696969696975,888.6464646464647 488.16161616161617,888.6464646464647 478.62626262626264,888.6464646464647 469.09090909090907,888.6464646464647 459.55555555555554,888.6464646464647 450.0202020202021,888.6464646464647 440.4848484848485,888.6464646464647 430.949494949495,888.6464646464647 421.4141414141414,888.6464646464647 411.8787878787879,888.6464646464647 402.34343434343435,888.6464646464647 392.80808080808083,888.6464646464647 383.2727272727273,888.6464646464647 373.7373737373738,888.6464646464647 364.2020202020202,888.6464646464647 354.6666666666667,888.6464646464647 345.13131313131316,888.6464646464647 335.59595959595964,888.6464646464647 326.0606060606061,888.6464646464647 316.5252525252526,888.6464646464647 306.9898989898991,888.6464646464647 297.4545454545455,888.6464646464647 287.91919191919203,888.6464646464647 278.38383838383845,888.6464646464647 268.84848484848493,888.6464646464647 259.3131313131314,888.6464646464647 249.77777777777783,888.6464646464647 240.2424242424243,888.6464646464647 230.70707070707084,888.6464646464647 221.17171717171726,888.6464646464647 211.63636363636374,888.6464646464647" fill="none" stroke="rgba(0,0,255,0.75)" stroke-width="11.327999999999996"/></g><g><polyline data-points="-3.1818181818181817,-3.98989898989899 -3.2828282828282824,-4.090909090909091 -3.2828282828282824,-4.191919191919193 -3.2828282828282824,-4.292929292929293 -3.2828282828282824,-4.393939393939394 -3.2828282828282824,-4.494949494949496 -3.2828282828282824,-4.595959595959596 -3.2828282828282824,-4.696969696969697 -3.2828282828282824,-4.7979797979797985 -3.2828282828282824,-4.898989898989899 -3.2828282828282824,-5.000000000000001" data-type="line" data-label="" points="211.63636363636374,888.6464646464647 202.10101010101022,898.1818181818181 202.10101010101022,907.7171717171718 202.10101010101022,917.2525252525252 202.10101010101022,926.7878787878788 202.10101010101022,936.3232323232323 202.10101010101022,945.8585858585858 202.10101010101022,955.3939393939394 202.10101010101022,964.9292929292928 202.10101010101022,974.4646464646464 202.10101010101022,984" fill="none" stroke="rgba(255,0,0,0.75)" stroke-width="11.327999999999996"/></g><g><polyline data-points="-5.000000000000001,2.070707070707072 -4.898989898989899,2.1717171717171726 -4.7979797979797985,2.2727272727272734 -4.696969696969697,2.373737373737375 -4.595959595959596,2.373737373737375 -4.494949494949496,2.373737373737375 -4.393939393939394,2.373737373737375 -4.292929292929293,2.373737373737375 -4.191919191919193,2.373737373737375 -4.090909090909091,2.373737373737375 -3.98989898989899,2.373737373737375 -3.8888888888888884,2.373737373737375 -3.7878787878787876,2.373737373737375 -3.6868686868686864,2.373737373737375 -3.5858585858585856,2.373737373737375 -3.484848484848485,2.373737373737375 -3.383838383838383,2.373737373737375 -3.2828282828282824,2.373737373737375 -3.1818181818181817,2.373737373737375 -3.0808080808080804,2.373737373737375 -2.9797979797979792,2.373737373737375 -2.8787878787878785,2.373737373737375 -2.7777777777777777,2.373737373737375 -2.6767676767676765,2.373737373737375 -2.5757575757575752,2.373737373737375 -2.474747474747474,2.373737373737375 -2.3737373737373733,2.373737373737375" data-type="line" data-label="" points="40.00000000000006,316.5252525252526 49.53535353535369,306.9898989898991 59.07070707070716,297.4545454545456 68.60606060606068,287.91919191919203 78.14141414141426,287.91919191919203 87.67676767676772,287.91919191919203 97.21212121212136,287.91919191919203 106.74747474747483,287.91919191919203 116.28282828282829,287.91919191919203 125.81818181818193,287.91919191919203 135.35353535353545,287.91919191919203 144.88888888888903,287.91919191919203 154.42424242424255,287.91919191919203 163.95959595959607,287.91919191919203 173.4949494949496,287.91919191919203 183.03030303030312,287.91919191919203 192.5656565656567,287.91919191919203 202.10101010101022,287.91919191919203 211.63636363636374,287.91919191919203 221.17171717171726,287.91919191919203 230.70707070707084,287.91919191919203 240.2424242424243,287.91919191919203 249.77777777777783,287.91919191919203 259.3131313131314,287.91919191919203 268.84848484848493,287.91919191919203 278.38383838383845,287.91919191919203 287.91919191919203,287.91919191919203" fill="none" stroke="rgba(0,0,255,0.75)" stroke-width="11.327999999999996"/></g><g><polyline data-points="-2.3737373737373733,2.373737373737375 -2.2727272727272725,2.373737373737375 -2.1717171717171713,2.373737373737375 -2.07070707070707,2.373737373737375 -1.9696969696969693,2.373737373737375 -1.8686868686868683,2.373737373737375 -1.7676767676767675,2.373737373737375 -1.6666666666666665,2.373737373737375 -1.5656565656565653,2.373737373737375 -1.4646464646464643,2.373737373737375 -1.363636363636363,2.373737373737375 -1.2626262626262625,2.373737373737375 -1.1616161616161613,2.373737373737375 -1.0606060606060603,2.4747474747474754 -0.9595959595959596,2.4747474747474754 -0.8585858585858579,2.4747474747474754 -0.7575757575757572,2.4747474747474754 -0.6565656565656557,2.4747474747474754 -0.555555555555555,2.4747474747474754 -0.4545454545454544,2.4747474747474754 -0.35353535353535287,2.4747474747474754 -0.2525252525252522,2.4747474747474754 -0.15151515151515066,2.4747474747474754 -0.05050505050505001,2.4747474747474754 0.050505050505051545,2.4747474747474754 0.1515151515151522,2.4747474747474754 0.2525252525252529,2.4747474747474754 0.3535353535353544,2.4747474747474754 0.4545454545454551,2.4747474747474754 0.5555555555555567,2.4747474747474754 0.6565656565656574,2.4747474747474754 0.7575757575757579,2.4747474747474754 0.8585858585858596,2.4747474747474754 0.9595959595959602,2.4747474747474754 1.0606060606060617,2.4747474747474754 1.1616161616161622,2.4747474747474754 1.262626262626263,2.4747474747474754 1.3636363636363644,2.4747474747474754 1.4646464646464652,2.4747474747474754 1.5656565656565666,2.4747474747474754 1.6666666666666674,2.4747474747474754 1.767676767676768,2.4747474747474754 1.8686868686868696,2.4747474747474754 1.9696969696969702,2.4747474747474754 2.070707070707072,2.4747474747474754 2.1717171717171726,2.4747474747474754 2.2727272727272734,2.4747474747474754 2.373737373737375,2.4747474747474754 2.4747474747474754,2.4747474747474754 2.575757575757577,2.4747474747474754 2.676767676767678,2.4747474747474754 2.7777777777777786,2.4747474747474754 2.87878787878788,2.4747474747474754 2.9797979797979806,2.4747474747474754 3.080808080808082,2.4747474747474754 3.181818181818183,2.4747474747474754 3.2828282828282833,2.4747474747474754 3.383838383838384,2.4747474747474754 3.4848484848484866,2.4747474747474754 3.5858585858585874,2.4747474747474754 3.6868686868686877,2.4747474747474754 3.7878787878787885,2.4747474747474754 3.8888888888888893,2.4747474747474754 3.989898989898992,2.4747474747474754 4.090909090909092,2.4747474747474754 4.191919191919193,2.4747474747474754 4.292929292929293,2.4747474747474754 4.393939393939394,2.4747474747474754 4.494949494949497,2.4747474747474754 4.595959595959597,2.4747474747474754 4.696969696969697,2.4747474747474754 4.7979797979797985,2.4747474747474754 4.898989898989901,2.4747474747474754 5.000000000000002,2.4747474747474754" data-type="line" data-label="" points="287.91919191919203,287.91919191919203 297.4545454545455,287.91919191919203 306.9898989898991,287.91919191919203 316.5252525252526,287.91919191919203 326.0606060606061,287.91919191919203 335.59595959595964,287.91919191919203 345.13131313131316,287.91919191919203 354.6666666666667,287.91919191919203 364.2020202020202,287.91919191919203 373.7373737373738,287.91919191919203 383.2727272727273,287.91919191919203 392.80808080808083,287.91919191919203 402.34343434343435,287.91919191919203 411.8787878787879,278.38383838383857 421.4141414141414,278.38383838383857 430.949494949495,278.38383838383857 440.4848484848485,278.38383838383857 450.0202020202021,278.38383838383857 459.55555555555554,278.38383838383857 469.09090909090907,278.38383838383857 478.62626262626264,278.38383838383857 488.16161616161617,278.38383838383857 497.69696969696975,278.38383838383857 507.2323232323232,278.38383838383857 516.7676767676768,278.38383838383857 526.3030303030303,278.38383838383857 535.8383838383838,278.38383838383857 545.3737373737374,278.38383838383857 554.9090909090909,278.38383838383857 564.4444444444445,278.38383838383857 573.9797979797979,278.38383838383857 583.5151515151515,278.38383838383857 593.0505050505051,278.38383838383857 602.5858585858585,278.38383838383857 612.1212121212121,278.38383838383857 621.6565656565656,278.38383838383857 631.1919191919192,278.38383838383857 640.7272727272727,278.38383838383857 650.2626262626262,278.38383838383857 659.7979797979798,278.38383838383857 669.3333333333333,278.38383838383857 678.8686868686868,278.38383838383857 688.4040404040404,278.38383838383857 697.9393939393939,278.38383838383857 707.4747474747475,278.38383838383857 717.0101010101009,278.38383838383857 726.5454545454545,278.38383838383857 736.0808080808081,278.38383838383857 745.6161616161615,278.38383838383857 755.1515151515151,278.38383838383857 764.6868686868686,278.38383838383857 774.2222222222222,278.38383838383857 783.7575757575758,278.38383838383857 793.2929292929292,278.38383838383857 802.8282828282828,278.38383838383857 812.3636363636363,278.38383838383857 821.8989898989898,278.38383838383857 831.4343434343433,278.38383838383857 840.969696969697,278.38383838383857 850.5050505050505,278.38383838383857 860.0404040404039,278.38383838383857 869.5757575757575,278.38383838383857 879.111111111111,278.38383838383857 888.6464646464647,278.38383838383857 898.181818181818,278.38383838383857 907.7171717171716,278.38383838383857 917.2525252525251,278.38383838383857 926.7878787878785,278.38383838383857 936.3232323232323,278.38383838383857 945.8585858585857,278.38383838383857 955.3939393939393,278.38383838383857 964.9292929292927,278.38383838383857 974.4646464646464,278.38383838383857 984,278.38383838383857" fill="none" stroke="rgba(255,0,0,0.75)" stroke-width="11.327999999999996"/></g><g><polyline data-points="5.000000000000002,-3.6868686868686864 4.898989898989901,-3.6868686868686864 4.7979797979797985,-3.5858585858585856 4.696969696969697,-3.484848484848485 4.595959595959597,-3.383838383838383 4.494949494949497,-3.2828282828282824 4.393939393939394,-3.1818181818181817 4.292929292929293,-3.0808080808080804 4.191919191919193,-2.9797979797979792 4.090909090909092,-2.8787878787878785 3.989898989898992,-2.7777777777777777 3.8888888888888893,-2.6767676767676765 3.7878787878787885,-2.5757575757575752 3.6868686868686877,-2.474747474747474 3.5858585858585874,-2.3737373737373733 3.4848484848484866,-2.2727272727272725 3.383838383838384,-2.1717171717171713 3.2828282828282833,-2.07070707070707 3.181818181818183,-1.9696969696969693 3.080808080808082,-1.8686868686868683 2.9797979797979806,-1.7676767676767675 2.87878787878788,-1.6666666666666665 2.7777777777777786,-1.5656565656565653 2.676767676767678,-1.4646464646464643 2.7777777777777786,-1.363636363636363 2.7777777777777786,-1.2626262626262625 2.7777777777777786,-1.1616161616161613 2.7777777777777786,-1.0606060606060603 2.7777777777777786,-0.9595959595959596 2.7777777777777786,-0.8585858585858579 2.7777777777777786,-0.7575757575757572 2.7777777777777786,-0.6565656565656557 2.676767676767678,-0.555555555555555 2.575757575757577,-0.4545454545454544 2.4747474747474754,-0.35353535353535287 2.373737373737375,-0.2525252525252522 2.2727272727272734,-0.15151515151515066 2.1717171717171726,-0.05050505050505001 2.070707070707072,0.050505050505051545 1.9696969696969702,0.1515151515151522 1.8686868686868696,0.2525252525252529 1.767676767676768,0.3535353535353544 1.6666666666666674,0.4545454545454551 1.5656565656565666,0.5555555555555567 1.4646464646464652,0.6565656565656574 1.3636363636363644,0.7575757575757579 1.262626262626263,0.8585858585858596 1.1616161616161622,0.9595959595959602 1.0606060606060617,1.0606060606060617 0.9595959595959602,1.1616161616161622 0.8585858585858596,1.262626262626263 0.7575757575757579,1.3636363636363644 0.6565656565656574,1.4646464646464652 0.5555555555555567,1.5656565656565666 0.4545454545454551,1.6666666666666674 0.3535353535353544,1.767676767676768 0.2525252525252529,1.8686868686868696 0.1515151515151522,1.9696969696969702 0.050505050505051545,2.070707070707072 -0.05050505050505001,2.1717171717171726 -0.15151515151515066,2.1717171717171726 -0.2525252525252522,2.1717171717171726 -0.35353535353535287,2.1717171717171726 -0.4545454545454544,2.1717171717171726 -0.555555555555555,2.1717171717171726 -0.6565656565656557,2.1717171717171726 -0.7575757575757572,2.1717171717171726 -0.8585858585858579,2.070707070707072 -0.9595959595959596,2.070707070707072 -1.0606060606060603,2.070707070707072 -1.1616161616161613,2.070707070707072 -1.2626262626262625,2.070707070707072 -1.363636363636363,2.070707070707072 -1.4646464646464643,2.070707070707072 -1.5656565656565653,2.070707070707072 -1.6666666666666665,2.070707070707072 -1.7676767676767675,2.070707070707072 -1.8686868686868683,2.070707070707072 -1.9696969696969693,2.070707070707072 -2.07070707070707,2.070707070707072 -2.1717171717171713,2.070707070707072 -2.2727272727272725,2.070707070707072 -2.3737373737373733,2.070707070707072 -2.474747474747474,2.1717171717171726 -2.5757575757575752,2.2727272727272734 -2.6767676767676765,2.373737373737375 -2.7777777777777777,2.4747474747474754 -2.8787878787878785,2.575757575757577 -2.9797979797979792,2.676767676767678 -3.0808080808080804,2.7777777777777786 -3.1818181818181817,2.87878787878788 -3.2828282828282824,2.9797979797979806 -3.383838383838383,3.080808080808082 -3.484848484848485,3.181818181818183 -3.5858585858585856,3.2828282828282833 -3.6868686868686864,3.383838383838384 -3.7878787878787876,3.4848484848484866 -3.8888888888888884,3.5858585858585874 -3.98989898989899,3.6868686868686877 -4.090909090909091,3.7878787878787885 -4.191919191919193,3.8888888888888893 -4.292929292929293,3.8888888888888893 -4.393939393939394,3.8888888888888893 -4.494949494949496,3.8888888888888893 -4.595959595959596,3.8888888888888893 -4.696969696969697,3.989898989898992 -4.7979797979797985,3.989898989898992 -4.898989898989899,3.989898989898992 -5.000000000000001,4.090909090909092 -5.000000000000001,4.191919191919193" data-type="line" data-label="" points="984,860.0404040404039 974.4646464646464,860.0404040404039 964.9292929292927,850.5050505050505 955.3939393939393,840.969696969697 945.8585858585857,831.4343434343434 936.3232323232323,821.8989898989898 926.7878787878785,812.3636363636363 917.2525252525251,802.8282828282828 907.7171717171716,793.2929292929292 898.181818181818,783.7575757575758 888.6464646464647,774.2222222222222 879.111111111111,764.6868686868687 869.5757575757575,755.1515151515151 860.0404040404039,745.6161616161615 850.5050505050505,736.0808080808081 840.969696969697,726.5454545454545 831.4343434343433,717.010101010101 821.8989898989898,707.4747474747475 812.3636363636363,697.939393939394 802.8282828282828,688.4040404040404 793.2929292929292,678.8686868686868 783.7575757575758,669.3333333333334 774.2222222222222,659.7979797979798 764.6868686868686,650.2626262626263 774.2222222222222,640.7272727272727 774.2222222222222,631.1919191919193 774.2222222222222,621.6565656565657 774.2222222222222,612.1212121212121 774.2222222222222,602.5858585858587 774.2222222222222,593.0505050505051 774.2222222222222,583.5151515151516 774.2222222222222,573.979797979798 764.6868686868686,564.4444444444445 755.1515151515151,554.909090909091 745.6161616161615,545.3737373737374 736.0808080808081,535.838383838384 726.5454545454545,526.3030303030304 717.0101010101009,516.7676767676768 707.4747474747475,507.23232323232327 697.9393939393939,497.69696969696975 688.4040404040404,488.1616161616163 678.8686868686868,478.6262626262627 669.3333333333333,469.0909090909092 659.7979797979798,459.5555555555556 650.2626262626262,450.0202020202021 640.7272727272727,440.4848484848486 631.1919191919192,430.94949494949503 621.6565656565656,421.4141414141415 612.1212121212121,411.87878787878793 602.5858585858585,402.3434343434344 593.0505050505051,392.80808080808094 583.5151515151515,383.27272727272737 573.9797979797979,373.73737373737384 564.4444444444445,364.2020202020203 554.9090909090909,354.66666666666674 545.3737373737374,345.1313131313133 535.8383838383838,335.5959595959597 526.3030303030303,326.06060606060623 516.7676767676768,316.5252525252526 507.2323232323232,306.9898989898991 497.69696969696975,306.9898989898991 488.16161616161617,306.9898989898991 478.62626262626264,306.9898989898991 469.09090909090907,306.9898989898991 459.55555555555554,306.9898989898991 450.0202020202021,306.9898989898991 440.4848484848485,306.9898989898991 430.949494949495,316.5252525252526 421.4141414141414,316.5252525252526 411.8787878787879,316.5252525252526 402.34343434343435,316.5252525252526 392.80808080808083,316.5252525252526 383.2727272727273,316.5252525252526 373.7373737373738,316.5252525252526 364.2020202020202,316.5252525252526 354.6666666666667,316.5252525252526 345.13131313131316,316.5252525252526 335.59595959595964,316.5252525252526 326.0606060606061,316.5252525252526 316.5252525252526,316.5252525252526 306.9898989898991,316.5252525252526 297.4545454545455,316.5252525252526 287.91919191919203,316.5252525252526 278.38383838383845,306.9898989898991 268.84848484848493,297.4545454545456 259.3131313131314,287.91919191919203 249.77777777777783,278.38383838383857 240.2424242424243,268.84848484848493 230.70707070707084,259.3131313131314 221.17171717171726,249.77777777777794 211.63636363636374,240.24242424242436 202.10101010101022,230.70707070707084 192.5656565656567,221.17171717171726 183.03030303030312,211.63636363636374 173.4949494949496,202.10101010101027 163.95959595959607,192.56565656565675 154.42424242424255,183.03030303030312 144.88888888888903,173.4949494949496 135.35353535353545,163.95959595959613 125.81818181818193,154.4242424242426 116.28282828282829,144.88888888888908 106.74747474747483,144.88888888888908 97.21212121212136,144.88888888888908 87.67676767676772,144.88888888888908 78.14141414141426,144.88888888888908 68.60606060606068,135.35353535353545 59.07070707070716,135.35353535353545 49.53535353535369,135.35353535353545 40.00000000000006,125.81818181818198 40.00000000000006,116.28282828282846" fill="none" stroke="rgba(255,0,0,0.75)" stroke-width="11.327999999999996"/></g><g><polyline data-points="-4.494949494949496,-5.000000000000001 -4.494949494949496,-4.898989898989899 -4.494949494949496,-4.7979797979797985 -4.494949494949496,-4.696969696969697 -4.494949494949496,-4.595959595959596 -4.494949494949496,-4.494949494949496 -4.494949494949496,-4.393939393939394 -4.494949494949496,-4.292929292929293 -4.494949494949496,-4.191919191919193 -4.494949494949496,-4.090909090909091 -4.494949494949496,-3.98989898989899 -4.494949494949496,-3.8888888888888884 -4.494949494949496,-3.7878787878787876 -4.494949494949496,-3.6868686868686864 -4.494949494949496,-3.5858585858585856 -4.494949494949496,-3.484848484848485 -4.494949494949496,-3.383838383838383 -4.494949494949496,-3.2828282828282824 -4.494949494949496,-3.1818181818181817 -4.494949494949496,-3.0808080808080804 -4.494949494949496,-2.9797979797979792 -4.494949494949496,-2.8787878787878785 -4.494949494949496,-2.7777777777777777 -4.494949494949496,-2.6767676767676765 -4.494949494949496,-2.5757575757575752 -4.494949494949496,-2.474747474747474 -4.494949494949496,-2.3737373737373733 -4.393939393939394,-2.2727272727272725 -4.292929292929293,-2.1717171717171713 -4.191919191919193,-2.07070707070707 -4.090909090909091,-1.9696969696969693 -3.98989898989899,-1.8686868686868683 -3.8888888888888884,-1.7676767676767675 -3.7878787878787876,-1.6666666666666665 -3.6868686868686864,-1.5656565656565653 -3.5858585858585856,-1.4646464646464643 -3.484848484848485,-1.363636363636363 -3.484848484848485,-1.2626262626262625 -3.383838383838383,-1.1616161616161613 -3.2828282828282824,-1.0606060606060603 -3.1818181818181817,-0.9595959595959596 -3.0808080808080804,-0.8585858585858579 -2.9797979797979792,-0.7575757575757572 -2.8787878787878785,-0.6565656565656557 -2.7777777777777777,-0.555555555555555 -2.6767676767676765,-0.4545454545454544 -2.5757575757575752,-0.35353535353535287 -2.474747474747474,-0.2525252525252522 -2.3737373737373733,-0.15151515151515066 -2.2727272727272725,-0.05050505050505001 -2.1717171717171713,0.050505050505051545 -2.07070707070707,0.1515151515151522 -1.9696969696969693,0.2525252525252529 -1.8686868686868683,0.3535353535353544 -1.7676767676767675,0.4545454545454551 -1.6666666666666665,0.5555555555555567 -1.5656565656565653,0.6565656565656574 -1.4646464646464643,0.7575757575757579 -1.363636363636363,0.8585858585858596 -1.2626262626262625,0.9595959595959602 -1.1616161616161613,1.0606060606060617 -1.0606060606060603,1.1616161616161622 -0.9595959595959596,1.262626262626263 -0.8585858585858579,1.3636363636363644 -0.7575757575757572,1.4646464646464652 -0.7575757575757572,1.5656565656565666 -0.6565656565656557,1.6666666666666674" data-type="line" data-label="" points="87.67676767676772,984 87.67676767676772,974.4646464646464 87.67676767676772,964.9292929292928 87.67676767676772,955.3939393939394 87.67676767676772,945.8585858585858 87.67676767676772,936.3232323232323 87.67676767676772,926.7878787878788 87.67676767676772,917.2525252525252 87.67676767676772,907.7171717171718 87.67676767676772,898.1818181818181 87.67676767676772,888.6464646464647 87.67676767676772,879.1111111111111 87.67676767676772,869.5757575757575 87.67676767676772,860.0404040404039 87.67676767676772,850.5050505050505 87.67676767676772,840.969696969697 87.67676767676772,831.4343434343434 87.67676767676772,821.8989898989898 87.67676767676772,812.3636363636363 87.67676767676772,802.8282828282828 87.67676767676772,793.2929292929292 87.67676767676772,783.7575757575758 87.67676767676772,774.2222222222222 87.67676767676772,764.6868686868687 87.67676767676772,755.1515151515151 87.67676767676772,745.6161616161615 87.67676767676772,736.0808080808081 97.21212121212136,726.5454545454545 106.74747474747483,717.010101010101 116.28282828282829,707.4747474747475 125.81818181818193,697.939393939394 135.35353535353545,688.4040404040404 144.88888888888903,678.8686868686868 154.42424242424255,669.3333333333334 163.95959595959607,659.7979797979798 173.4949494949496,650.2626262626263 183.03030303030312,640.7272727272727 183.03030303030312,631.1919191919193 192.5656565656567,621.6565656565657 202.10101010101022,612.1212121212121 211.63636363636374,602.5858585858587 221.17171717171726,593.0505050505051 230.70707070707084,583.5151515151516 240.2424242424243,573.979797979798 249.77777777777783,564.4444444444445 259.3131313131314,554.909090909091 268.84848484848493,545.3737373737374 278.38383838383845,535.838383838384 287.91919191919203,526.3030303030304 297.4545454545455,516.7676767676768 306.9898989898991,507.23232323232327 316.5252525252526,497.69696969696975 326.0606060606061,488.1616161616163 335.59595959595964,478.6262626262627 345.13131313131316,469.0909090909092 354.6666666666667,459.5555555555556 364.2020202020202,450.0202020202021 373.7373737373738,440.4848484848486 383.2727272727273,430.94949494949503 392.80808080808083,421.4141414141415 402.34343434343435,411.87878787878793 411.8787878787879,402.3434343434344 421.4141414141414,392.80808080808094 430.949494949495,383.27272727272737 440.4848484848485,373.73737373737384 440.4848484848485,364.2020202020203 450.0202020202021,354.66666666666674" fill="none" stroke="rgba(255,0,0,0.75)" stroke-width="11.327999999999996"/></g><g><polyline data-points="-0.6565656565656557,1.6666666666666674 -0.7575757575757572,1.767676767676768 -0.8585858585858579,1.8686868686868696 -0.9595959595959596,1.9696969696969702 -1.0606060606060603,2.070707070707072 -1.1616161616161613,2.1717171717171726 -1.2626262626262625,2.2727272727272734 -1.363636363636363,2.373737373737375 -1.4646464646464643,2.4747474747474754 -1.5656565656565653,2.575757575757577 -1.6666666666666665,2.676767676767678 -1.7676767676767675,2.7777777777777786 -1.8686868686868683,2.87878787878788 -1.9696969696969693,2.9797979797979806 -2.07070707070707,3.080808080808082 -2.1717171717171713,3.181818181818183 -2.2727272727272725,3.2828282828282833 -2.3737373737373733,3.383838383838384 -2.474747474747474,3.4848484848484866 -2.5757575757575752,3.5858585858585874 -2.6767676767676765,3.6868686868686877 -2.7777777777777777,3.7878787878787885 -2.8787878787878785,3.8888888888888893 -2.8787878787878785,3.989898989898992" data-type="line" data-label="" points="450.0202020202021,354.66666666666674 440.4848484848485,345.1313131313133 430.949494949495,335.5959595959597 421.4141414141414,326.06060606060623 411.8787878787879,316.5252525252526 402.34343434343435,306.9898989898991 392.80808080808083,297.4545454545456 383.2727272727273,287.91919191919203 373.7373737373738,278.38383838383857 364.2020202020202,268.84848484848493 354.6666666666667,259.3131313131314 345.13131313131316,249.77777777777794 335.59595959595964,240.24242424242436 326.0606060606061,230.70707070707084 316.5252525252526,221.17171717171726 306.9898989898991,211.63636363636374 297.4545454545455,202.10101010101027 287.91919191919203,192.56565656565675 278.38383838383845,183.03030303030312 268.84848484848493,173.4949494949496 259.3131313131314,163.95959595959613 249.77777777777783,154.4242424242426 240.2424242424243,144.88888888888908 240.2424242424243,135.35353535353545" fill="none" stroke="rgba(0,0,255,0.75)" stroke-width="11.327999999999996"/></g><g><polyline data-points="-2.8787878787878785,3.989898989898992 -2.8787878787878785,4.090909090909092 -2.7777777777777777,4.191919191919193 -2.8787878787878785,4.292929292929293 -2.9797979797979792,4.393939393939394 -3.0808080808080804,4.494949494949497 -3.1818181818181817,4.595959595959597 -3.2828282828282824,4.696969696969697 -3.383838383838383,4.7979797979797985 -3.484848484848485,4.898989898989901 -3.5858585858585856,5.000000000000002 -3.6868686868686864,5.000000000000002 -3.7878787878787876,5.000000000000002 -3.8888888888888884,5.000000000000002 -3.98989898989899,5.000000000000002 -4.090909090909091,5.000000000000002 -4.191919191919193,5.000000000000002 -4.292929292929293,5.000000000000002 -4.393939393939394,5.000000000000002 -4.494949494949496,5.000000000000002 -4.595959595959596,5.000000000000002 -4.696969696969697,5.000000000000002 -4.7979797979797985,5.000000000000002 -4.898989898989899,5.000000000000002" data-type="line" data-label="" points="240.2424242424243,135.35353535353545 240.2424242424243,125.81818181818198 249.77777777777783,116.28282828282846 240.2424242424243,106.747474747475 230.70707070707084,97.21212121212153 221.17171717171726,87.67676767676778 211.63636363636374,78.14141414141432 202.10101010101022,68.60606060606085 192.5656565656567,59.07070707070733 183.03030303030312,49.53535353535369 173.4949494949496,40.000000000000114 163.95959595959607,40.000000000000114 154.42424242424255,40.000000000000114 144.88888888888903,40.000000000000114 135.35353535353545,40.000000000000114 125.81818181818193,40.000000000000114 116.28282828282829,40.000000000000114 106.74747474747483,40.000000000000114 97.21212121212136,40.000000000000114 87.67676767676772,40.000000000000114 78.14141414141426,40.000000000000114 68.60606060606068,40.000000000000114 59.07070707070716,40.000000000000114 49.53535353535369,40.000000000000114" fill="none" stroke="rgba(255,0,0,0.75)" stroke-width="11.327999999999996"/></g><g><rect data-type="rect" data-label="" data-x="0" data-y="0" x="40.000000000000114" y="40.000000000000284" width="943.9999999999997" height="943.9999999999998" fill="none" stroke="gray" stroke-width="0.010593220338983056"/></g><g><rect data-type="rect" data-label="" data-x="0" data-y="0" x="40.000000000000114" y="40.000000000000284" width="943.9999999999997" height="943.9999999999998" fill="none" stroke="rgba(15, 23, 42, 0.8)" stroke-width="0.010593220338983056"/></g><circle data-type="circle" data-label="" data-x="1.0606060606060617" data-y="-0.2525252525252522" cx="612.1212121212121" cy="535.838383838384" r="14.159999999999995" fill="rgba(0,0,0,0.3)" stroke="black" stroke-width="0.010593220338983056"/><circle data-type="circle" data-label="" data-x="1.0606060606060617" data-y="3.989898989898992" cx="612.1212121212121" cy="135.35353535353545" r="14.159999999999995" fill="rgba(0,0,0,0.3)" stroke="black" stroke-width="0.010593220338983056"/><circle data-type="circle" data-label="" data-x="3.989898989898992" data-y="3.8888888888888893" cx="888.6464646464647" cy="144.88888888888908" r="14.159999999999995" fill="rgba(0,0,0,0.3)" stroke="black" stroke-width="0.010593220338983056"/><circle data-type="circle" data-label="" data-x="2.9797979797979806" data-y="-2.474747474747474" cx="793.2929292929292" cy="745.6161616161615" r="14.159999999999995" fill="rgba(0,0,0,0.3)" stroke="black" stroke-width="0.010593220338983056"/><circle data-type="circle" data-label="" data-x="0.8585858585858596" data-y="-3.98989898989899" cx="593.0505050505051" cy="888.6464646464647" r="14.159999999999995" fill="rgba(0,0,0,0.3)" stroke="black" stroke-width="0.010593220338983056"/><circle data-type="circle" data-label="" data-x="2.4747474747474754" data-y="-0.6565656565656557" cx="745.6161616161615" cy="573.979797979798" r="14.159999999999995" fill="rgba(0,0,0,0.3)" stroke="black" stroke-width="0.010593220338983056"/><circle data-type="circle" data-label="" data-x="1.4646464646464652" data-y="-2.474747474747474" cx="650.2626262626262" cy="745.6161616161615" r="14.159999999999995" fill="rgba(0,0,0,0.3)" stroke="black" stroke-width="0.010593220338983056"/><circle data-type="circle" data-label="" data-x="-3.1818181818181817" data-y="-3.98989898989899" cx="211.63636363636374" cy="888.6464646464647" r="14.159999999999995" fill="rgba(0,0,0,0.3)" stroke="black" stroke-width="0.010593220338983056"/><circle data-type="circle" data-label="" data-x="-2.3737373737373733" data-y="2.373737373737375" cx="287.91919191919203" cy="287.91919191919203" r="14.159999999999995" fill="rgba(0,0,0,0.3)" stroke="black" stroke-width="0.010593220338983056"/><circle data-type="circle" data-label="" data-x="-0.6565656565656557" data-y="1.6666666666666674" cx="450.0202020202021" cy="354.66666666666674" r="14.159999999999995" fill="rgba(0,0,0,0.3)" stroke="black" stroke-width="0.010593220338983056"/><circle data-type="circle" data-label="" data-x="-2.8787878787878785" data-y="3.989898989898992" cx="240.2424242424243" cy="135.35353535353545" r="14.159999999999995" fill="rgba(0,0,0,0.3)" stroke="black" stroke-width="0.010593220338983056"/><g id="crosshair" style="display: none"><line id="crosshair-h" y1="0" y2="1024" stroke="#666" stroke-width="0.5"/><line id="crosshair-v" x1="0" x2="1024" stroke="#666" stroke-width="0.5"/><text id="coordinates" font-family="monospace" font-size="12" fill="#666"></text></g><script><![CDATA[
              document.currentScript.parentElement.addEventListener('mousemove', (e) => {
                const svg = e.currentTarget;
                const rect = svg.getBoundingClientRect();
                const x = e.clientX - rect.left;
                const y = e.clientY - rect.top;
                const crosshair = svg.getElementById('crosshair');
                const h = svg.getElementById('crosshair-h');
                const v = svg.getElementById('crosshair-v');
                const coords = svg.getElementById('coordinates');
                
                crosshair.style.display = 'block';
                h.setAttribute('x1', '0');
                h.setAttribute('x2', '1024');
                h.setAttribute('y1', y);
                h.setAttribute('y2', y);
                v.setAttribute('x1', x);
                v.setAttribute('x2', x);
                v.setAttribute('y1', '0');
                v.setAttribute('y2', '1024');

                // Calculate real coordinates using inverse transformation
                const matrix = {"a":94.39999999999996,"c":0,"e":511.99999999999994,"b":0,"d":-94.39999999999996,"f":512.0000000000001};
                // Manually invert and apply the affine transform
                // Since we only use translate and scale, we can directly compute:
                // x' = (x - tx) / sx
                // y' = (y - ty) / sy
                const sx = matrix.a;
                const sy = matrix.d;
                const tx = matrix.e; 
                const ty = matrix.f;
                const realPoint = {
                  x: (x - tx) / sx,
                  y: (y - ty) / sy // Flip y back since we used negative scale
                }
                
                coords.textContent = `(${realPoint.x.toFixed(2)}, ${realPoint.y.toFixed(2)})`;
                coords.setAttribute('x', (x + 5).toString());
                coords.setAttribute('y', (y - 5).toString());
              });
              document.currentScript.parentElement.addEventListener('mouseleave', () => {
                document.currentScript.parentElement.getElementById('crosshair').style.display = 'none';
              });
            ]]></script></svg>