<svg width="1024" height="1024" viewBox="0 0 1024 1024" xmlns="http://www.w3.org/2000/svg"><rect width="100%" height="100%" fill="white"/><g><circle data-type="point" data-label="conn_000" data-x="5" data-y="3.18" cx="983.9999999999998" cy="211.80800000000022" r="14.16" fill="red"/></g><g><circle data-type="point" data-label="conn_000" data-x="-5" data-y="3.04" cx="40.000000000000114" cy="225.02400000000023" r="14.16" fill="blue"/></g><g><circle data-type="point" data-label="conn_001" data-x="5" data-y="4.64" cx="983.9999999999998" cy="73.98400000000032" r="14.16" fill="blue"/></g><g><circle data-type="point" data-label="conn_001" data-x="-5" data-y="-0.2" cx="40.000000000000114" cy="530.8800000000001" r="14.16" fill="red"/></g><g><circle data-type="point" data-label="conn_002" data-x="3.02" data-y="5" cx="797.0879999999999" cy="40.000000000000284" r="14.16" fill="red"/></g><g><circle data-type="point" data-label="conn_002" data-x="-5" data-y="-3.66" cx="40.000000000000114" cy="857.504" r="14.16" fill="blue"/></g><g><circle data-type="point" data-label="conn_003" data-x="5" data-y="1.44" cx="983.9999999999998" cy="376.0640000000002" r="14.16" fill="blue"/></g><g><circle data-type="point" data-label="conn_003" data-x="-0.32" data-y="5" cx="481.792" cy="40.000000000000284" r="14.16" fill="red"/></g><g><circle data-type="point" data-label="conn_004" data-x="5" data-y="-0.98" cx="983.9999999999998" cy="604.5120000000001" r="14.16" fill="blue"/></g><g><circle data-type="point" data-label="conn_004" data-x="-5" data-y="0.84" cx="40.000000000000114" cy="432.7040000000002" r="14.16" fill="blue"/></g><g><circle data-type="point" data-label="conn_005" data-x="-0.96" data-y="5" cx="421.376" cy="40.000000000000284" r="14.16" fill="red"/></g><g><circle data-type="point" data-label="conn_005" data-x="2.1" data-y="-5" cx="710.2399999999999" cy="984" r="14.16" fill="blue"/></g><g><polyline data-points="5.000000000000002,1.4646464646464652 4.898989898989901,1.5656565656565666 4.7979797979797985,1.6666666666666674 4.696969696969697,1.767676767676768 4.595959595959597,1.8686868686868696 4.494949494949497,1.9696969696969702 4.393939393939394,2.070707070707072 4.292929292929293,2.1717171717171726 4.191919191919193,2.2727272727272734 4.090909090909092,2.373737373737375 3.989898989898992,2.4747474747474754 3.8888888888888893,2.575757575757577 3.7878787878787885,2.676767676767678 3.6868686868686877,2.7777777777777786 3.5858585858585874,2.87878787878788 3.4848484848484866,2.9797979797979806 3.383838383838384,3.080808080808082 3.2828282828282833,3.181818181818183 3.181818181818183,3.2828282828282833 3.080808080808082,3.383838383838384 2.9797979797979806,3.4848484848484866 2.87878787878788,3.5858585858585874 2.7777777777777786,3.6868686868686877 2.676767676767678,3.7878787878787885 2.575757575757577,3.8888888888888893 2.4747474747474754,3.989898989898992 2.373737373737375,3.989898989898992 2.2727272727272734,3.989898989898992 2.1717171717171726,3.989898989898992 2.070707070707072,3.989898989898992 1.9696969696969702,3.989898989898992 1.8686868686868696,3.989898989898992 1.767676767676768,3.989898989898992 1.6666666666666674,3.989898989898992 1.5656565656565666,3.989898989898992 1.4646464646464652,3.989898989898992 1.3636363636363644,3.989898989898992 1.262626262626263,3.989898989898992 1.1616161616161622,3.989898989898992 1.0606060606060617,3.989898989898992 0.9595959595959602,3.989898989898992 0.8585858585858596,3.989898989898992 0.7575757575757579,3.989898989898992 0.6565656565656574,3.989898989898992 0.5555555555555567,3.989898989898992 0.4545454545454551,3.989898989898992 0.3535353535353544,3.989898989898992 0.2525252525252529,3.989898989898992 0.1515151515151522,3.989898989898992 0.050505050505051545,3.989898989898992 -0.05050505050505001,3.989898989898992 -0.15151515151515066,3.989898989898992 -0.2525252525252522,3.989898989898992" data-type="line" data-label="" points="984,373.73737373737384 974.4646464646464,364.2020202020203 964.9292929292927,354.66666666666674 955.3939393939393,345.1313131313133 945.8585858585857,335.5959595959597 936.3232323232323,326.06060606060623 926.7878787878785,316.5252525252526 917.2525252525251,306.9898989898991 907.7171717171716,297.4545454545456 898.181818181818,287.91919191919203 888.6464646464647,278.38383838383857 879.111111111111,268.84848484848493 869.5757575757575,259.3131313131314 860.0404040404039,249.77777777777794 850.5050505050505,240.24242424242436 840.969696969697,230.70707070707084 831.4343434343433,221.17171717171726 821.8989898989898,211.63636363636374 812.3636363636363,202.10101010101027 802.8282828282828,192.56565656565675 793.2929292929292,183.03030303030312 783.7575757575758,173.4949494949496 774.2222222222222,163.95959595959613 764.6868686868686,154.4242424242426 755.1515151515151,144.88888888888908 745.6161616161615,135.35353535353545 736.0808080808081,135.35353535353545 726.5454545454545,135.35353535353545 717.0101010101009,135.35353535353545 707.4747474747475,135.35353535353545 697.9393939393939,135.35353535353545 688.4040404040404,135.35353535353545 678.8686868686868,135.35353535353545 669.3333333333333,135.35353535353545 659.7979797979798,135.35353535353545 650.2626262626262,135.35353535353545 640.7272727272727,135.35353535353545 631.1919191919192,135.35353535353545 621.6565656565656,135.35353535353545 612.1212121212121,135.35353535353545 602.5858585858585,135.35353535353545 593.0505050505051,135.35353535353545 583.5151515151515,135.35353535353545 573.9797979797979,135.35353535353545 564.4444444444445,135.35353535353545 554.9090909090909,135.35353535353545 545.3737373737374,135.35353535353545 535.8383838383838,135.35353535353545 526.3030303030303,135.35353535353545 516.7676767676768,135.35353535353545 507.2323232323232,135.35353535353545 497.69696969696975,135.35353535353545 488.16161616161617,135.35353535353545" fill="none" stroke="rgba(0,0,255,0.75)" stroke-width="11.327999999999996"/></g><g><polyline data-points="-0.2525252525252522,3.989898989898992 -0.35353535353535287,4.090909090909092 -0.35353535353535287,4.191919191919193 -0.35353535353535287,4.292929292929293 -0.35353535353535287,4.393939393939394 -0.35353535353535287,4.494949494949497 -0.35353535353535287,4.595959595959597 -0.35353535353535287,4.696969696969697 -0.35353535353535287,4.7979797979797985 -0.35353535353535287,4.898989898989901 -0.35353535353535287,5.000000000000002" data-type="line" data-label="" points="488.16161616161617,135.35353535353545 478.62626262626264,125.81818181818198 478.62626262626264,116.28282828282846 478.62626262626264,106.747474747475 478.62626262626264,97.21212121212153 478.62626262626264,87.67676767676778 478.62626262626264,78.14141414141432 478.62626262626264,68.60606060606085 478.62626262626264,59.07070707070733 478.62626262626264,49.53535353535369 478.62626262626264,40.000000000000114" fill="none" stroke="rgba(255,0,0,0.75)" stroke-width="11.327999999999996"/></g><g><polyline data-points="-0.9595959595959596,5.000000000000002 -0.8585858585858579,4.898989898989901 -0.7575757575757572,4.7979797979797985 -0.6565656565656557,4.696969696969697 -0.555555555555555,4.595959595959597 -0.555555555555555,4.494949494949497 -0.555555555555555,4.393939393939394 -0.555555555555555,4.292929292929293 -0.555555555555555,4.191919191919193 -0.555555555555555,4.090909090909092 -0.555555555555555,3.989898989898992 -0.4545454545454544,3.8888888888888893 -0.35353535353535287,3.7878787878787885 -0.2525252525252522,3.6868686868686877 -0.15151515151515066,3.5858585858585874 -0.05050505050505001,3.4848484848484866 0.050505050505051545,3.383838383838384 0.1515151515151522,3.2828282828282833 0.2525252525252529,3.181818181818183 0.3535353535353544,3.080808080808082 0.4545454545454551,2.9797979797979806 0.5555555555555567,2.87878787878788 0.6565656565656574,2.7777777777777786 0.7575757575757579,2.676767676767678 0.8585858585858596,2.575757575757577 0.9595959595959602,2.4747474747474754 1.0606060606060617,2.373737373737375 1.1616161616161622,2.2727272727272734 1.262626262626263,2.1717171717171726 1.3636363636363644,2.070707070707072 1.4646464646464652,1.9696969696969702 1.5656565656565666,1.8686868686868696 1.6666666666666674,1.767676767676768 1.767676767676768,1.6666666666666674 1.8686868686868696,1.5656565656565666 1.9696969696969702,1.4646464646464652 2.070707070707072,1.3636363636363644 2.070707070707072,1.262626262626263 2.070707070707072,1.1616161616161622 2.070707070707072,1.0606060606060617 2.070707070707072,0.9595959595959602 2.070707070707072,0.8585858585858596 2.070707070707072,0.7575757575757579 2.070707070707072,0.6565656565656574 2.070707070707072,0.5555555555555567 2.070707070707072,0.4545454545454551 2.070707070707072,0.3535353535353544 2.070707070707072,0.2525252525252529 2.070707070707072,0.1515151515151522 2.070707070707072,0.050505050505051545 2.070707070707072,-0.05050505050505001 2.070707070707072,-0.15151515151515066 2.070707070707072,-0.2525252525252522 2.070707070707072,-0.35353535353535287 2.070707070707072,-0.4545454545454544 2.070707070707072,-0.555555555555555 2.070707070707072,-0.6565656565656557 2.070707070707072,-0.7575757575757572 2.070707070707072,-0.8585858585858579 2.070707070707072,-0.9595959595959596 2.070707070707072,-1.0606060606060603 2.070707070707072,-1.1616161616161613 2.070707070707072,-1.2626262626262625 2.070707070707072,-1.363636363636363 2.070707070707072,-1.4646464646464643 2.070707070707072,-1.5656565656565653 2.070707070707072,-1.6666666666666665 2.070707070707072,-1.7676767676767675 2.070707070707072,-1.8686868686868683 2.070707070707072,-1.9696969696969693 2.070707070707072,-2.07070707070707 2.070707070707072,-2.1717171717171713 2.070707070707072,-2.2727272727272725 2.070707070707072,-2.3737373737373733 2.070707070707072,-2.474747474747474 2.070707070707072,-2.5757575757575752 2.070707070707072,-2.6767676767676765 2.070707070707072,-2.7777777777777777 2.070707070707072,-2.8787878787878785 2.070707070707072,-2.9797979797979792 2.070707070707072,-3.0808080808080804 2.070707070707072,-3.1818181818181817 2.070707070707072,-3.2828282828282824 2.070707070707072,-3.383838383838383 2.070707070707072,-3.484848484848485 2.070707070707072,-3.5858585858585856 2.070707070707072,-3.6868686868686864 2.070707070707072,-3.7878787878787876 2.070707070707072,-3.8888888888888884 2.070707070707072,-3.98989898989899" data-type="line" data-label="" points="421.4141414141414,40.000000000000114 430.949494949495,49.53535353535369 440.4848484848485,59.07070707070733 450.0202020202021,68.60606060606085 459.55555555555554,78.14141414141432 459.55555555555554,87.67676767676778 459.55555555555554,97.21212121212153 459.55555555555554,106.747474747475 459.55555555555554,116.28282828282846 459.55555555555554,125.81818181818198 459.55555555555554,135.35353535353545 469.09090909090907,144.88888888888908 478.62626262626264,154.4242424242426 488.16161616161617,163.95959595959613 497.69696969696975,173.4949494949496 507.2323232323232,183.03030303030312 516.7676767676768,192.56565656565675 526.3030303030303,202.10101010101027 535.8383838383838,211.63636363636374 545.3737373737374,221.17171717171726 554.9090909090909,230.70707070707084 564.4444444444445,240.24242424242436 573.9797979797979,249.77777777777794 583.5151515151515,259.3131313131314 593.0505050505051,268.84848484848493 602.5858585858585,278.38383838383857 612.1212121212121,287.91919191919203 621.6565656565656,297.4545454545456 631.1919191919192,306.9898989898991 640.7272727272727,316.5252525252526 650.2626262626262,326.06060606060623 659.7979797979798,335.5959595959597 669.3333333333333,345.1313131313133 678.8686868686868,354.66666666666674 688.4040404040404,364.2020202020203 697.9393939393939,373.73737373737384 707.4747474747475,383.27272727272737 707.4747474747475,392.80808080808094 707.4747474747475,402.3434343434344 707.4747474747475,411.87878787878793 707.4747474747475,421.4141414141415 707.4747474747475,430.94949494949503 707.4747474747475,440.4848484848486 707.4747474747475,450.0202020202021 707.4747474747475,459.5555555555556 707.4747474747475,469.0909090909092 707.4747474747475,478.6262626262627 707.4747474747475,488.1616161616163 707.4747474747475,497.69696969696975 707.4747474747475,507.23232323232327 707.4747474747475,516.7676767676768 707.4747474747475,526.3030303030304 707.4747474747475,535.838383838384 707.4747474747475,545.3737373737374 707.4747474747475,554.909090909091 707.4747474747475,564.4444444444445 707.4747474747475,573.979797979798 707.4747474747475,583.5151515151516 707.4747474747475,593.0505050505051 707.4747474747475,602.5858585858587 707.4747474747475,612.1212121212121 707.4747474747475,621.6565656565657 707.4747474747475,631.1919191919193 707.4747474747475,640.7272727272727 707.4747474747475,650.2626262626263 707.4747474747475,659.7979797979798 707.4747474747475,669.3333333333334 707.4747474747475,678.8686868686868 707.4747474747475,688.4040404040404 707.4747474747475,697.939393939394 707.4747474747475,707.4747474747475 707.4747474747475,717.010101010101 707.4747474747475,726.5454545454545 707.4747474747475,736.0808080808081 707.4747474747475,745.6161616161615 707.4747474747475,755.1515151515151 707.4747474747475,764.6868686868687 707.4747474747475,774.2222222222222 707.4747474747475,783.7575757575758 707.4747474747475,793.2929292929292 707.4747474747475,802.8282828282828 707.4747474747475,812.3636363636363 707.4747474747475,821.8989898989898 707.4747474747475,831.4343434343434 707.4747474747475,840.969696969697 707.4747474747475,850.5050505050505 707.4747474747475,860.0404040404039 707.4747474747475,869.5757575757575 707.4747474747475,879.1111111111111 707.4747474747475,888.6464646464647" fill="none" stroke="rgba(255,0,0,0.75)" stroke-width="11.327999999999996"/></g><g><polyline data-points="2.070707070707072,-3.98989898989899 2.070707070707072,-4.090909090909091 2.070707070707072,-4.191919191919193 2.070707070707072,-4.292929292929293 2.070707070707072,-4.393939393939394 2.070707070707072,-4.494949494949496 2.070707070707072,-4.595959595959596 2.070707070707072,-4.696969696969697 2.070707070707072,-4.7979797979797985 2.070707070707072,-4.898989898989899 2.070707070707072,-5.000000000000001" data-type="line" data-label="" points="707.4747474747475,888.6464646464647 707.4747474747475,898.1818181818181 707.4747474747475,907.7171717171718 707.4747474747475,917.2525252525252 707.4747474747475,926.7878787878788 707.4747474747475,936.3232323232323 707.4747474747475,945.8585858585858 707.4747474747475,955.3939393939394 707.4747474747475,964.9292929292928 707.4747474747475,974.4646464646464 707.4747474747475,984" fill="none" stroke="rgba(0,0,255,0.75)" stroke-width="11.327999999999996"/></g><g><polyline data-points="5.000000000000002,4.696969696969697 4.898989898989901,4.595959595959597 4.7979797979797985,4.494949494949497 4.696969696969697,4.393939393939394 4.595959595959597,4.292929292929293 4.494949494949497,4.191919191919193 4.393939393939394,4.090909090909092 4.292929292929293,3.989898989898992 4.191919191919193,3.8888888888888893 4.090909090909092,3.7878787878787885 3.989898989898992,3.6868686868686877 3.8888888888888893,3.5858585858585874 3.7878787878787885,3.4848484848484866 3.6868686868686877,3.383838383838384" data-type="line" data-label="" points="984,68.60606060606085 974.4646464646464,78.14141414141432 964.9292929292927,87.67676767676778 955.3939393939393,97.21212121212153 945.8585858585857,106.747474747475 936.3232323232323,116.28282828282846 926.7878787878785,125.81818181818198 917.2525252525251,135.35353535353545 907.7171717171716,144.88888888888908 898.181818181818,154.4242424242426 888.6464646464647,163.95959595959613 879.111111111111,173.4949494949496 869.5757575757575,183.03030303030312 860.0404040404039,192.56565656565675" fill="none" stroke="rgba(0,0,255,0.75)" stroke-width="11.327999999999996"/></g><g><polyline data-points="3.6868686868686877,3.383838383838384 3.5858585858585874,3.2828282828282833 3.4848484848484866,3.181818181818183 3.383838383838384,3.080808080808082 3.2828282828282833,2.9797979797979806 3.181818181818183,2.87878787878788 3.080808080808082,2.7777777777777786 2.9797979797979806,2.676767676767678 2.87878787878788,2.575757575757577 2.7777777777777786,2.4747474747474754 2.676767676767678,2.373737373737375 2.575757575757577,2.2727272727272734 2.4747474747474754,2.1717171717171726 2.373737373737375,2.070707070707072 2.2727272727272734,1.9696969696969702 2.1717171717171726,1.8686868686868696 2.1717171717171726,1.767676767676768" data-type="line" data-label="" points="860.0404040404039,192.56565656565675 850.5050505050505,202.10101010101027 840.969696969697,211.63636363636374 831.4343434343433,221.17171717171726 821.8989898989898,230.70707070707084 812.3636363636363,240.24242424242436 802.8282828282828,249.77777777777794 793.2929292929292,259.3131313131314 783.7575757575758,268.84848484848493 774.2222222222222,278.38383838383857 764.6868686868686,287.91919191919203 755.1515151515151,297.4545454545456 745.6161616161615,306.9898989898991 736.0808080808081,316.5252525252526 726.5454545454545,326.06060606060623 717.0101010101009,335.5959595959597 717.0101010101009,345.1313131313133" fill="none" stroke="rgba(255,0,0,0.75)" stroke-width="11.327999999999996"/></g><g><polyline data-points="2.1717171717171726,1.767676767676768 2.070707070707072,1.6666666666666674 1.9696969696969702,1.5656565656565666 1.8686868686868696,1.4646464646464652 1.767676767676768,1.3636363636363644 1.6666666666666674,1.262626262626263 1.5656565656565666,1.1616161616161622 1.4646464646464652,1.0606060606060617 1.3636363636363644,0.9595959595959602 1.262626262626263,0.8585858585858596 1.1616161616161622,0.7575757575757579 1.0606060606060617,0.6565656565656574 0.9595959595959602,0.5555555555555567 0.8585858585858596,0.4545454545454551 0.7575757575757579,0.3535353535353544 0.6565656565656574,0.2525252525252529 0.5555555555555567,0.1515151515151522 0.4545454545454551,0.050505050505051545 0.3535353535353544,-0.05050505050505001 0.2525252525252529,-0.15151515151515066 0.1515151515151522,-0.2525252525252522 0.050505050505051545,-0.2525252525252522 -0.05050505050505001,-0.2525252525252522 -0.15151515151515066,-0.2525252525252522 -0.2525252525252522,-0.2525252525252522 -0.35353535353535287,-0.2525252525252522 -0.4545454545454544,-0.2525252525252522 -0.555555555555555,-0.2525252525252522 -0.6565656565656557,-0.2525252525252522 -0.7575757575757572,-0.2525252525252522 -0.8585858585858579,-0.2525252525252522 -0.9595959595959596,-0.2525252525252522 -1.0606060606060603,-0.2525252525252522 -1.1616161616161613,-0.2525252525252522 -1.2626262626262625,-0.2525252525252522 -1.363636363636363,-0.2525252525252522 -1.4646464646464643,-0.2525252525252522 -1.5656565656565653,-0.2525252525252522 -1.6666666666666665,-0.2525252525252522 -1.7676767676767675,-0.2525252525252522 -1.8686868686868683,-0.2525252525252522 -1.9696969696969693,-0.2525252525252522 -2.07070707070707,-0.2525252525252522 -2.1717171717171713,-0.2525252525252522 -2.2727272727272725,-0.2525252525252522 -2.3737373737373733,-0.2525252525252522 -2.474747474747474,-0.2525252525252522 -2.5757575757575752,-0.2525252525252522 -2.6767676767676765,-0.2525252525252522 -2.7777777777777777,-0.2525252525252522 -2.8787878787878785,-0.2525252525252522 -2.9797979797979792,-0.2525252525252522 -3.0808080808080804,-0.2525252525252522 -3.1818181818181817,-0.2525252525252522 -3.2828282828282824,-0.2525252525252522 -3.383838383838383,-0.2525252525252522 -3.484848484848485,-0.2525252525252522 -3.5858585858585856,-0.2525252525252522 -3.6868686868686864,-0.2525252525252522 -3.7878787878787876,-0.2525252525252522 -3.8888888888888884,-0.2525252525252522 -3.98989898989899,-0.2525252525252522" data-type="line" data-label="" points="717.0101010101009,345.1313131313133 707.4747474747475,354.66666666666674 697.9393939393939,364.2020202020203 688.4040404040404,373.73737373737384 678.8686868686868,383.27272727272737 669.3333333333333,392.80808080808094 659.7979797979798,402.3434343434344 650.2626262626262,411.87878787878793 640.7272727272727,421.4141414141415 631.1919191919192,430.94949494949503 621.6565656565656,440.4848484848486 612.1212121212121,450.0202020202021 602.5858585858585,459.5555555555556 593.0505050505051,469.0909090909092 583.5151515151515,478.6262626262627 573.9797979797979,488.1616161616163 564.4444444444445,497.69696969696975 554.9090909090909,507.23232323232327 545.3737373737374,516.7676767676768 535.8383838383838,526.3030303030304 526.3030303030303,535.838383838384 516.7676767676768,535.838383838384 507.2323232323232,535.838383838384 497.69696969696975,535.838383838384 488.16161616161617,535.838383838384 478.62626262626264,535.838383838384 469.09090909090907,535.838383838384 459.55555555555554,535.838383838384 450.0202020202021,535.838383838384 440.4848484848485,535.838383838384 430.949494949495,535.838383838384 421.4141414141414,535.838383838384 411.8787878787879,535.838383838384 402.34343434343435,535.838383838384 392.80808080808083,535.838383838384 383.2727272727273,535.838383838384 373.7373737373738,535.838383838384 364.2020202020202,535.838383838384 354.6666666666667,535.838383838384 345.13131313131316,535.838383838384 335.59595959595964,535.838383838384 326.0606060606061,535.838383838384 316.5252525252526,535.838383838384 306.9898989898991,535.838383838384 297.4545454545455,535.838383838384 287.91919191919203,535.838383838384 278.38383838383845,535.838383838384 268.84848484848493,535.838383838384 259.3131313131314,535.838383838384 249.77777777777783,535.838383838384 240.2424242424243,535.838383838384 230.70707070707084,535.838383838384 221.17171717171726,535.838383838384 211.63636363636374,535.838383838384 202.10101010101022,535.838383838384 192.5656565656567,535.838383838384 183.03030303030312,535.838383838384 173.4949494949496,535.838383838384 163.95959595959607,535.838383838384 154.42424242424255,535.838383838384 144.88888888888903,535.838383838384 135.35353535353545,535.838383838384" fill="none" stroke="rgba(0,0,255,0.75)" stroke-width="11.327999999999996"/></g><g><polyline data-points="-3.98989898989899,-0.2525252525252522 -4.090909090909091,-0.2525252525252522 -4.191919191919193,-0.2525252525252522 -4.292929292929293,-0.2525252525252522 -4.393939393939394,-0.2525252525252522 -4.494949494949496,-0.2525252525252522 -4.595959595959596,-0.2525252525252522 -4.696969696969697,-0.2525252525252522 -4.7979797979797985,-0.2525252525252522 -4.898989898989899,-0.2525252525252522 -5.000000000000001,-0.2525252525252522" data-type="line" data-label="" points="135.35353535353545,535.838383838384 125.81818181818193,535.838383838384 116.28282828282829,535.838383838384 106.74747474747483,535.838383838384 97.21212121212136,535.838383838384 87.67676767676772,535.838383838384 78.14141414141426,535.838383838384 68.60606060606068,535.838383838384 59.07070707070716,535.838383838384 49.53535353535369,535.838383838384 40.00000000000006,535.838383838384" fill="none" stroke="rgba(255,0,0,0.75)" stroke-width="11.327999999999996"/></g><g><polyline data-points="3.080808080808082,5.000000000000002 2.9797979797979806,4.898989898989901 2.87878787878788,4.7979797979797985 2.7777777777777786,4.696969696969697 2.676767676767678,4.595959595959597 2.575757575757577,4.494949494949497 2.4747474747474754,4.393939393939394 2.373737373737375,4.292929292929293 2.2727272727272734,4.191919191919193 2.1717171717171726,4.090909090909092 2.070707070707072,3.989898989898992 1.9696969696969702,3.8888888888888893 1.8686868686868696,3.7878787878787885 1.767676767676768,3.6868686868686877 1.6666666666666674,3.5858585858585874 1.5656565656565666,3.4848484848484866 1.4646464646464652,3.383838383838384 1.3636363636363644,3.2828282828282833 1.262626262626263,3.181818181818183 1.1616161616161622,3.080808080808082 1.0606060606060617,2.9797979797979806 1.0606060606060617,2.87878787878788" data-type="line" data-label="" points="802.8282828282828,40.000000000000114 793.2929292929292,49.53535353535369 783.7575757575758,59.07070707070733 774.2222222222222,68.60606060606085 764.6868686868686,78.14141414141432 755.1515151515151,87.67676767676778 745.6161616161615,97.21212121212153 736.0808080808081,106.747474747475 726.5454545454545,116.28282828282846 717.0101010101009,125.81818181818198 707.4747474747475,135.35353535353545 697.9393939393939,144.88888888888908 688.4040404040404,154.4242424242426 678.8686868686868,163.95959595959613 669.3333333333333,173.4949494949496 659.7979797979798,183.03030303030312 650.2626262626262,192.56565656565675 640.7272727272727,202.10101010101027 631.1919191919192,211.63636363636374 621.6565656565656,221.17171717171726 612.1212121212121,230.70707070707084 612.1212121212121,240.24242424242436" fill="none" stroke="rgba(255,0,0,0.75)" stroke-width="11.327999999999996"/></g><g><polyline data-points="1.0606060606060617,2.87878787878788 0.9595959595959602,2.7777777777777786 0.8585858585858596,2.676767676767678 0.7575757575757579,2.575757575757577 0.6565656565656574,2.4747474747474754 0.5555555555555567,2.373737373737375 0.4545454545454551,2.2727272727272734 0.3535353535353544,2.1717171717171726 0.2525252525252529,2.070707070707072 0.1515151515151522,1.9696969696969702 0.050505050505051545,1.8686868686868696 -0.05050505050505001,1.767676767676768 -0.15151515151515066,1.6666666666666674 -0.2525252525252522,1.5656565656565666 -0.35353535353535287,1.4646464646464652 -0.4545454545454544,1.3636363636363644 -0.555555555555555,1.262626262626263 -0.6565656565656557,1.1616161616161622 -0.7575757575757572,1.0606060606060617 -0.8585858585858579,0.9595959595959602 -0.9595959595959596,0.8585858585858596 -1.0606060606060603,0.7575757575757579 -1.1616161616161613,0.6565656565656574 -1.2626262626262625,0.5555555555555567 -1.363636363636363,0.4545454545454551 -1.4646464646464643,0.3535353535353544 -1.5656565656565653,0.2525252525252529 -1.6666666666666665,0.1515151515151522 -1.7676767676767675,0.050505050505051545 -1.8686868686868683,0.050505050505051545 -1.9696969696969693,0.050505050505051545 -2.07070707070707,0.050505050505051545 -2.1717171717171713,0.050505050505051545 -2.2727272727272725,0.050505050505051545 -2.3737373737373733,0.050505050505051545 -2.474747474747474,0.050505050505051545 -2.5757575757575752,0.050505050505051545 -2.6767676767676765,0.050505050505051545 -2.7777777777777777,0.050505050505051545 -2.8787878787878785,0.050505050505051545 -2.9797979797979792,0.050505050505051545 -3.0808080808080804,0.050505050505051545 -3.1818181818181817,0.050505050505051545 -3.2828282828282824,0.050505050505051545 -3.383838383838383,0.050505050505051545 -3.484848484848485,0.050505050505051545 -3.5858585858585856,0.050505050505051545 -3.6868686868686864,0.050505050505051545 -3.7878787878787876,0.050505050505051545 -3.8888888888888884,0.050505050505051545 -3.98989898989899,0.050505050505051545 -4.090909090909091,-0.05050505050505001 -4.191919191919193,-0.15151515151515066 -4.292929292929293,-0.2525252525252522 -4.393939393939394,-0.35353535353535287 -4.494949494949496,-0.4545454545454544 -4.595959595959596,-0.555555555555555 -4.696969696969697,-0.6565656565656557 -4.7979797979797985,-0.7575757575757572 -4.898989898989899,-0.8585858585858579 -5.000000000000001,-0.9595959595959596 -5.000000000000001,-1.0606060606060603 -5.000000000000001,-1.1616161616161613 -5.000000000000001,-1.2626262626262625 -5.000000000000001,-1.363636363636363 -5.000000000000001,-1.4646464646464643 -5.000000000000001,-1.5656565656565653 -5.000000000000001,-1.6666666666666665 -5.000000000000001,-1.7676767676767675 -5.000000000000001,-1.8686868686868683 -5.000000000000001,-1.9696969696969693 -5.000000000000001,-2.07070707070707 -5.000000000000001,-2.1717171717171713 -5.000000000000001,-2.2727272727272725 -5.000000000000001,-2.3737373737373733 -5.000000000000001,-2.474747474747474 -5.000000000000001,-2.5757575757575752 -5.000000000000001,-2.6767676767676765 -5.000000000000001,-2.7777777777777777 -5.000000000000001,-2.8787878787878785 -5.000000000000001,-2.9797979797979792 -5.000000000000001,-3.0808080808080804 -5.000000000000001,-3.1818181818181817 -5.000000000000001,-3.2828282828282824 -5.000000000000001,-3.383838383838383 -5.000000000000001,-3.484848484848485 -5.000000000000001,-3.5858585858585856 -5.000000000000001,-3.6868686868686864" data-type="line" data-label="" points="612.1212121212121,240.24242424242436 602.5858585858585,249.77777777777794 593.0505050505051,259.3131313131314 583.5151515151515,268.84848484848493 573.9797979797979,278.38383838383857 564.4444444444445,287.91919191919203 554.9090909090909,297.4545454545456 545.3737373737374,306.9898989898991 535.8383838383838,316.5252525252526 526.3030303030303,326.06060606060623 516.7676767676768,335.5959595959597 507.2323232323232,345.1313131313133 497.69696969696975,354.66666666666674 488.16161616161617,364.2020202020203 478.62626262626264,373.73737373737384 469.09090909090907,383.27272727272737 459.55555555555554,392.80808080808094 450.0202020202021,402.3434343434344 440.4848484848485,411.87878787878793 430.949494949495,421.4141414141415 421.4141414141414,430.94949494949503 411.8787878787879,440.4848484848486 402.34343434343435,450.0202020202021 392.80808080808083,459.5555555555556 383.2727272727273,469.0909090909092 373.7373737373738,478.6262626262627 364.2020202020202,488.1616161616163 354.6666666666667,497.69696969696975 345.13131313131316,507.23232323232327 335.59595959595964,507.23232323232327 326.0606060606061,507.23232323232327 316.5252525252526,507.23232323232327 306.9898989898991,507.23232323232327 297.4545454545455,507.23232323232327 287.91919191919203,507.23232323232327 278.38383838383845,507.23232323232327 268.84848484848493,507.23232323232327 259.3131313131314,507.23232323232327 249.77777777777783,507.23232323232327 240.2424242424243,507.23232323232327 230.70707070707084,507.23232323232327 221.17171717171726,507.23232323232327 211.63636363636374,507.23232323232327 202.10101010101022,507.23232323232327 192.5656565656567,507.23232323232327 183.03030303030312,507.23232323232327 173.4949494949496,507.23232323232327 163.95959595959607,507.23232323232327 154.42424242424255,507.23232323232327 144.88888888888903,507.23232323232327 135.35353535353545,507.23232323232327 125.81818181818193,516.7676767676768 116.28282828282829,526.3030303030304 106.74747474747483,535.838383838384 97.21212121212136,545.3737373737374 87.67676767676772,554.909090909091 78.14141414141426,564.4444444444445 68.60606060606068,573.979797979798 59.07070707070716,583.5151515151516 49.53535353535369,593.0505050505051 40.00000000000006,602.5858585858587 40.00000000000006,612.1212121212121 40.00000000000006,621.6565656565657 40.00000000000006,631.1919191919193 40.00000000000006,640.7272727272727 40.00000000000006,650.2626262626263 40.00000000000006,659.7979797979798 40.00000000000006,669.3333333333334 40.00000000000006,678.8686868686868 40.00000000000006,688.4040404040404 40.00000000000006,697.939393939394 40.00000000000006,707.4747474747475 40.00000000000006,717.010101010101 40.00000000000006,726.5454545454545 40.00000000000006,736.0808080808081 40.00000000000006,745.6161616161615 40.00000000000006,755.1515151515151 40.00000000000006,764.6868686868687 40.00000000000006,774.2222222222222 40.00000000000006,783.7575757575758 40.00000000000006,793.2929292929292 40.00000000000006,802.8282828282828 40.00000000000006,812.3636363636363 40.00000000000006,821.8989898989898 40.00000000000006,831.4343434343434 40.00000000000006,840.969696969697 40.00000000000006,850.5050505050505 40.00000000000006,860.0404040404039" fill="none" stroke="rgba(0,0,255,0.75)" stroke-width="11.327999999999996"/></g><g><polyline data-points="5.000000000000002,3.181818181818183 4.898989898989901,3.181818181818183 4.7979797979797985,3.181818181818183 4.696969696969697,3.181818181818183 4.595959595959597,3.181818181818183 4.494949494949497,3.181818181818183 4.393939393939394,3.181818181818183 4.292929292929293,3.181818181818183 4.191919191919193,3.181818181818183 4.090909090909092,3.2828282828282833 3.989898989898992,3.383838383838384 3.8888888888888893,3.4848484848484866 3.7878787878787885,3.5858585858585874 3.6868686868686877,3.6868686868686877 3.5858585858585874,3.5858585858585874 3.4848484848484866,3.4848484848484866 3.383838383838384,3.383838383838384 3.2828282828282833,3.2828282828282833 3.181818181818183,3.181818181818183 3.080808080808082,3.181818181818183 2.9797979797979806,3.181818181818183 2.87878787878788,3.181818181818183 2.7777777777777786,3.181818181818183 2.676767676767678,3.181818181818183 2.575757575757577,3.181818181818183 2.4747474747474754,3.181818181818183 2.373737373737375,3.181818181818183 2.2727272727272734,3.181818181818183 2.1717171717171726,3.181818181818183 2.070707070707072,3.181818181818183 1.9696969696969702,3.181818181818183 1.8686868686868696,3.181818181818183 1.767676767676768,3.181818181818183" data-type="line" data-label="" points="984,211.63636363636374 974.4646464646464,211.63636363636374 964.9292929292927,211.63636363636374 955.3939393939393,211.63636363636374 945.8585858585857,211.63636363636374 936.3232323232323,211.63636363636374 926.7878787878785,211.63636363636374 917.2525252525251,211.63636363636374 907.7171717171716,211.63636363636374 898.181818181818,202.10101010101027 888.6464646464647,192.56565656565675 879.111111111111,183.03030303030312 869.5757575757575,173.4949494949496 860.0404040404039,163.95959595959613 850.5050505050505,173.4949494949496 840.969696969697,183.03030303030312 831.4343434343433,192.56565656565675 821.8989898989898,202.10101010101027 812.3636363636363,211.63636363636374 802.8282828282828,211.63636363636374 793.2929292929292,211.63636363636374 783.7575757575758,211.63636363636374 774.2222222222222,211.63636363636374 764.6868686868686,211.63636363636374 755.1515151515151,211.63636363636374 745.6161616161615,211.63636363636374 736.0808080808081,211.63636363636374 726.5454545454545,211.63636363636374 717.0101010101009,211.63636363636374 707.4747474747475,211.63636363636374 697.9393939393939,211.63636363636374 688.4040404040404,211.63636363636374 678.8686868686868,211.63636363636374" fill="none" stroke="rgba(255,0,0,0.75)" stroke-width="11.327999999999996"/></g><g><polyline data-points="1.767676767676768,3.181818181818183 1.6666666666666674,3.181818181818183 1.5656565656565666,3.181818181818183 1.4646464646464652,3.181818181818183 1.3636363636363644,3.181818181818183 1.262626262626263,3.181818181818183 1.1616161616161622,3.181818181818183 1.0606060606060617,3.181818181818183 0.9595959595959602,3.080808080808082 0.8585858585858596,3.080808080808082 0.7575757575757579,3.080808080808082 0.6565656565656574,3.080808080808082 0.5555555555555567,3.080808080808082 0.4545454545454551,3.080808080808082 0.3535353535353544,3.080808080808082 0.2525252525252529,3.080808080808082 0.1515151515151522,3.080808080808082 0.050505050505051545,3.080808080808082 -0.05050505050505001,3.080808080808082 -0.15151515151515066,3.080808080808082 -0.2525252525252522,3.080808080808082 -0.35353535353535287,3.080808080808082 -0.4545454545454544,3.080808080808082 -0.555555555555555,3.080808080808082 -0.6565656565656557,3.080808080808082 -0.7575757575757572,3.080808080808082 -0.8585858585858579,3.080808080808082 -0.9595959595959596,3.080808080808082 -1.0606060606060603,3.080808080808082 -1.1616161616161613,3.080808080808082 -1.2626262626262625,3.080808080808082 -1.363636363636363,3.080808080808082 -1.4646464646464643,3.080808080808082 -1.5656565656565653,3.080808080808082 -1.6666666666666665,3.080808080808082 -1.7676767676767675,3.080808080808082 -1.8686868686868683,3.080808080808082 -1.9696969696969693,3.080808080808082 -2.07070707070707,3.080808080808082 -2.1717171717171713,3.080808080808082 -2.2727272727272725,3.080808080808082 -2.3737373737373733,3.080808080808082 -2.474747474747474,3.080808080808082 -2.5757575757575752,3.080808080808082 -2.6767676767676765,3.080808080808082 -2.7777777777777777,3.080808080808082 -2.8787878787878785,3.080808080808082 -2.9797979797979792,3.080808080808082 -3.0808080808080804,3.080808080808082 -3.1818181818181817,3.080808080808082 -3.2828282828282824,3.080808080808082 -3.383838383838383,3.080808080808082 -3.484848484848485,3.080808080808082 -3.5858585858585856,3.080808080808082 -3.6868686868686864,3.080808080808082 -3.7878787878787876,3.080808080808082 -3.8888888888888884,3.080808080808082 -3.98989898989899,3.080808080808082 -4.090909090909091,3.080808080808082 -4.191919191919193,3.080808080808082 -4.292929292929293,3.080808080808082 -4.393939393939394,3.080808080808082 -4.494949494949496,3.080808080808082 -4.595959595959596,3.080808080808082 -4.696969696969697,3.080808080808082 -4.7979797979797985,3.080808080808082 -4.898989898989899,3.080808080808082 -5.000000000000001,3.080808080808082" data-type="line" data-label="" points="678.8686868686868,211.63636363636374 669.3333333333333,211.63636363636374 659.7979797979798,211.63636363636374 650.2626262626262,211.63636363636374 640.7272727272727,211.63636363636374 631.1919191919192,211.63636363636374 621.6565656565656,211.63636363636374 612.1212121212121,211.63636363636374 602.5858585858585,221.17171717171726 593.0505050505051,221.17171717171726 583.5151515151515,221.17171717171726 573.9797979797979,221.17171717171726 564.4444444444445,221.17171717171726 554.9090909090909,221.17171717171726 545.3737373737374,221.17171717171726 535.8383838383838,221.17171717171726 526.3030303030303,221.17171717171726 516.7676767676768,221.17171717171726 507.2323232323232,221.17171717171726 497.69696969696975,221.17171717171726 488.16161616161617,221.17171717171726 478.62626262626264,221.17171717171726 469.09090909090907,221.17171717171726 459.55555555555554,221.17171717171726 450.0202020202021,221.17171717171726 440.4848484848485,221.17171717171726 430.949494949495,221.17171717171726 421.4141414141414,221.17171717171726 411.8787878787879,221.17171717171726 402.34343434343435,221.17171717171726 392.80808080808083,221.17171717171726 383.2727272727273,221.17171717171726 373.7373737373738,221.17171717171726 364.2020202020202,221.17171717171726 354.6666666666667,221.17171717171726 345.13131313131316,221.17171717171726 335.59595959595964,221.17171717171726 326.0606060606061,221.17171717171726 316.5252525252526,221.17171717171726 306.9898989898991,221.17171717171726 297.4545454545455,221.17171717171726 287.91919191919203,221.17171717171726 278.38383838383845,221.17171717171726 268.84848484848493,221.17171717171726 259.3131313131314,221.17171717171726 249.77777777777783,221.17171717171726 240.2424242424243,221.17171717171726 230.70707070707084,221.17171717171726 221.17171717171726,221.17171717171726 211.63636363636374,221.17171717171726 202.10101010101022,221.17171717171726 192.5656565656567,221.17171717171726 183.03030303030312,221.17171717171726 173.4949494949496,221.17171717171726 163.95959595959607,221.17171717171726 154.42424242424255,221.17171717171726 144.88888888888903,221.17171717171726 135.35353535353545,221.17171717171726 125.81818181818193,221.17171717171726 116.28282828282829,221.17171717171726 106.74747474747483,221.17171717171726 97.21212121212136,221.17171717171726 87.67676767676772,221.17171717171726 78.14141414141426,221.17171717171726 68.60606060606068,221.17171717171726 59.07070707070716,221.17171717171726 49.53535353535369,221.17171717171726 40.00000000000006,221.17171717171726" fill="none" stroke="rgba(0,0,255,0.75)" stroke-width="11.327999999999996"/></g><g><polyline data-points="5.000000000000002,-0.9595959595959596 4.898989898989901,-0.8585858585858579 4.7979797979797985,-0.7575757575757572 4.696969696969697,-0.6565656565656557 4.595959595959597,-0.555555555555555 4.494949494949497,-0.4545454545454544 4.393939393939394,-0.35353535353535287 4.292929292929293,-0.2525252525252522 4.191919191919193,-0.15151515151515066 4.090909090909092,-0.05050505050505001 3.989898989898992,0.050505050505051545 3.8888888888888893,0.1515151515151522 3.7878787878787885,0.2525252525252529 3.6868686868686877,0.3535353535353544 3.5858585858585874,0.4545454545454551 3.4848484848484866,0.5555555555555567 3.383838383838384,0.6565656565656574 3.2828282828282833,0.7575757575757579 3.181818181818183,0.7575757575757579 3.080808080808082,0.7575757575757579 2.9797979797979806,0.7575757575757579 2.87878787878788,0.7575757575757579 2.7777777777777786,0.7575757575757579 2.676767676767678,0.7575757575757579 2.575757575757577,0.7575757575757579 2.4747474747474754,0.7575757575757579 2.373737373737375,0.7575757575757579 2.2727272727272734,0.7575757575757579 2.1717171717171726,0.7575757575757579 2.070707070707072,0.7575757575757579 1.9696969696969702,0.7575757575757579 1.8686868686868696,0.7575757575757579 1.767676767676768,0.7575757575757579 1.6666666666666674,0.7575757575757579" data-type="line" data-label="" points="984,602.5858585858587 974.4646464646464,593.0505050505051 964.9292929292927,583.5151515151516 955.3939393939393,573.979797979798 945.8585858585857,564.4444444444445 936.3232323232323,554.909090909091 926.7878787878785,545.3737373737374 917.2525252525251,535.838383838384 907.7171717171716,526.3030303030304 898.181818181818,516.7676767676768 888.6464646464647,507.23232323232327 879.111111111111,497.69696969696975 869.5757575757575,488.1616161616163 860.0404040404039,478.6262626262627 850.5050505050505,469.0909090909092 840.969696969697,459.5555555555556 831.4343434343433,450.0202020202021 821.8989898989898,440.4848484848486 812.3636363636363,440.4848484848486 802.8282828282828,440.4848484848486 793.2929292929292,440.4848484848486 783.7575757575758,440.4848484848486 774.2222222222222,440.4848484848486 764.6868686868686,440.4848484848486 755.1515151515151,440.4848484848486 745.6161616161615,440.4848484848486 736.0808080808081,440.4848484848486 726.5454545454545,440.4848484848486 717.0101010101009,440.4848484848486 707.4747474747475,440.4848484848486 697.9393939393939,440.4848484848486 688.4040404040404,440.4848484848486 678.8686868686868,440.4848484848486 669.3333333333333,440.4848484848486" fill="none" stroke="rgba(0,0,255,0.75)" stroke-width="11.327999999999996"/></g><g><polyline data-points="1.6666666666666674,0.7575757575757579 1.5656565656565666,0.8585858585858596 1.4646464646464652,0.8585858585858596 1.3636363636363644,0.8585858585858596 1.262626262626263,0.8585858585858596 1.1616161616161622,0.8585858585858596 1.0606060606060617,0.8585858585858596 0.9595959595959602,0.8585858585858596 0.8585858585858596,0.8585858585858596 0.7575757575757579,0.8585858585858596 0.6565656565656574,0.8585858585858596 0.5555555555555567,0.8585858585858596 0.4545454545454551,0.8585858585858596 0.3535353535353544,0.8585858585858596 0.2525252525252529,0.8585858585858596 0.1515151515151522,0.8585858585858596 0.050505050505051545,0.8585858585858596 -0.05050505050505001,0.8585858585858596 -0.15151515151515066,0.8585858585858596 -0.2525252525252522,0.8585858585858596 -0.35353535353535287,0.8585858585858596 -0.4545454545454544,0.8585858585858596 -0.555555555555555,0.8585858585858596 -0.6565656565656557,0.8585858585858596 -0.7575757575757572,0.8585858585858596 -0.8585858585858579,0.8585858585858596 -0.9595959595959596,0.8585858585858596 -1.0606060606060603,0.8585858585858596 -1.1616161616161613,0.8585858585858596 -1.2626262626262625,0.8585858585858596 -1.363636363636363,0.8585858585858596 -1.4646464646464643,0.8585858585858596 -1.5656565656565653,0.8585858585858596 -1.6666666666666665,0.8585858585858596 -1.7676767676767675,0.8585858585858596 -1.8686868686868683,0.8585858585858596 -1.9696969696969693,0.8585858585858596 -2.07070707070707,0.8585858585858596 -2.1717171717171713,0.8585858585858596 -2.2727272727272725,0.8585858585858596 -2.3737373737373733,0.8585858585858596 -2.474747474747474,0.8585858585858596 -2.5757575757575752,0.8585858585858596 -2.6767676767676765,0.8585858585858596 -2.7777777777777777,0.8585858585858596 -2.8787878787878785,0.8585858585858596 -2.9797979797979792,0.8585858585858596 -3.0808080808080804,0.8585858585858596 -3.1818181818181817,0.8585858585858596 -3.2828282828282824,0.8585858585858596 -3.383838383838383,0.8585858585858596 -3.484848484848485,0.8585858585858596 -3.5858585858585856,0.8585858585858596 -3.6868686868686864,0.8585858585858596 -3.7878787878787876,0.8585858585858596 -3.8888888888888884,0.8585858585858596 -3.98989898989899,0.8585858585858596" data-type="line" data-label="" points="669.3333333333333,440.4848484848486 659.7979797979798,430.94949494949503 650.2626262626262,430.94949494949503 640.7272727272727,430.94949494949503 631.1919191919192,430.94949494949503 621.6565656565656,430.94949494949503 612.1212121212121,430.94949494949503 602.5858585858585,430.94949494949503 593.0505050505051,430.94949494949503 583.5151515151515,430.94949494949503 573.9797979797979,430.94949494949503 564.4444444444445,430.94949494949503 554.9090909090909,430.94949494949503 545.3737373737374,430.94949494949503 535.8383838383838,430.94949494949503 526.3030303030303,430.94949494949503 516.7676767676768,430.94949494949503 507.2323232323232,430.94949494949503 497.69696969696975,430.94949494949503 488.16161616161617,430.94949494949503 478.62626262626264,430.94949494949503 469.09090909090907,430.94949494949503 459.55555555555554,430.94949494949503 450.0202020202021,430.94949494949503 440.4848484848485,430.94949494949503 430.949494949495,430.94949494949503 421.4141414141414,430.94949494949503 411.8787878787879,430.94949494949503 402.34343434343435,430.94949494949503 392.80808080808083,430.94949494949503 383.2727272727273,430.94949494949503 373.7373737373738,430.94949494949503 364.2020202020202,430.94949494949503 354.6666666666667,430.94949494949503 345.13131313131316,430.94949494949503 335.59595959595964,430.94949494949503 326.0606060606061,430.94949494949503 316.5252525252526,430.94949494949503 306.9898989898991,430.94949494949503 297.4545454545455,430.94949494949503 287.91919191919203,430.94949494949503 278.38383838383845,430.94949494949503 268.84848484848493,430.94949494949503 259.3131313131314,430.94949494949503 249.77777777777783,430.94949494949503 240.2424242424243,430.94949494949503 230.70707070707084,430.94949494949503 221.17171717171726,430.94949494949503 211.63636363636374,430.94949494949503 202.10101010101022,430.94949494949503 192.5656565656567,430.94949494949503 183.03030303030312,430.94949494949503 173.4949494949496,430.94949494949503 163.95959595959607,430.94949494949503 154.42424242424255,430.94949494949503 144.88888888888903,430.94949494949503 135.35353535353545,430.94949494949503" fill="none" stroke="rgba(255,0,0,0.75)" stroke-width="11.327999999999996"/></g><g><polyline data-points="-3.98989898989899,0.8585858585858596 -4.090909090909091,0.8585858585858596 -4.191919191919193,0.8585858585858596 -4.292929292929293,0.8585858585858596 -4.393939393939394,0.8585858585858596 -4.494949494949496,0.8585858585858596 -4.595959595959596,0.8585858585858596 -4.696969696969697,0.8585858585858596 -4.7979797979797985,0.8585858585858596 -4.898989898989899,0.8585858585858596 -5.000000000000001,0.8585858585858596" data-type="line" data-label="" points="135.35353535353545,430.94949494949503 125.81818181818193,430.94949494949503 116.28282828282829,430.94949494949503 106.74747474747483,430.94949494949503 97.21212121212136,430.94949494949503 87.67676767676772,430.94949494949503 78.14141414141426,430.94949494949503 68.60606060606068,430.94949494949503 59.07070707070716,430.94949494949503 49.53535353535369,430.94949494949503 40.00000000000006,430.94949494949503" fill="none" stroke="rgba(0,0,255,0.75)" stroke-width="11.327999999999996"/></g><g><rect data-type="rect" data-label="" data-x="0" data-y="0" x="40.000000000000114" y="40.000000000000284" width="943.9999999999997" height="943.9999999999998" fill="none" stroke="gray" stroke-width="0.010593220338983056"/></g><g><rect data-type="rect" data-label="" data-x="0" data-y="0" x="40.000000000000114" y="40.000000000000284" width="943.9999999999997" height="943.9999999999998" fill="none" stroke="rgba(15, 23, 42, 0.8)" stroke-width="0.010593220338983056"/></g><circle data-type="circle" data-label="" data-x="-0.2525252525252522" data-y="3.989898989898992" cx="488.16161616161617" cy="135.35353535353545" r="14.159999999999995" fill="rgba(0,0,0,0.3)" stroke="black" stroke-width="0.010593220338983056"/><circle data-type="circle" data-label="" data-x="2.070707070707072" data-y="-3.98989898989899" cx="707.4747474747475" cy="888.6464646464647" r="14.159999999999995" fill="rgba(0,0,0,0.3)" stroke="black" stroke-width="0.010593220338983056"/><circle data-type="circle" data-label="" data-x="3.6868686868686877" data-y="3.383838383838384" cx="860.0404040404039" cy="192.56565656565675" r="14.159999999999995" fill="rgba(0,0,0,0.3)" stroke="black" stroke-width="0.010593220338983056"/><circle data-type="circle" data-label="" data-x="2.1717171717171726" data-y="1.767676767676768" cx="717.0101010101009" cy="345.1313131313133" r="14.159999999999995" fill="rgba(0,0,0,0.3)" stroke="black" stroke-width="0.010593220338983056"/><circle data-type="circle" data-label="" data-x="-3.98989898989899" data-y="-0.2525252525252522" cx="135.35353535353545" cy="535.838383838384" r="14.159999999999995" fill="rgba(0,0,0,0.3)" stroke="black" stroke-width="0.010593220338983056"/><circle data-type="circle" data-label="" data-x="1.0606060606060617" data-y="2.87878787878788" cx="612.1212121212121" cy="240.24242424242436" r="14.159999999999995" fill="rgba(0,0,0,0.3)" stroke="black" stroke-width="0.010593220338983056"/><circle data-type="circle" data-label="" data-x="1.767676767676768" data-y="3.181818181818183" cx="678.8686868686868" cy="211.63636363636374" r="14.159999999999995" fill="rgba(0,0,0,0.3)" stroke="black" stroke-width="0.010593220338983056"/><circle data-type="circle" data-label="" data-x="1.6666666666666674" data-y="0.7575757575757579" cx="669.3333333333333" cy="440.4848484848486" r="14.159999999999995" fill="rgba(0,0,0,0.3)" stroke="black" stroke-width="0.010593220338983056"/><circle data-type="circle" data-label="" data-x="-3.98989898989899" data-y="0.8585858585858596" cx="135.35353535353545" cy="430.94949494949503" r="14.159999999999995" fill="rgba(0,0,0,0.3)" stroke="black" stroke-width="0.010593220338983056"/><g id="crosshair" style="display: none"><line id="crosshair-h" y1="0" y2="1024" stroke="#666" stroke-width="0.5"/><line id="crosshair-v" x1="0" x2="1024" stroke="#666" stroke-width="0.5"/><text id="coordinates" font-family="monospace" font-size="12" fill="#666"></text></g><script><![CDATA[
              document.currentScript.parentElement.addEventListener('mousemove', (e) => {
                const svg = e.currentTarget;
                const rect = svg.getBoundingClientRect();
                const x = e.clientX - rect.left;
                const y = e.clientY - rect.top;
                const crosshair = svg.getElementById('crosshair');
                const h = svg.getElementById('crosshair-h');
                const v = svg.getElementById('crosshair-v');
                const coords = svg.getElementById('coordinates');
                
                crosshair.style.display = 'block';
                h.setAttribute('x1', '0');
                h.setAttribute('x2', '1024');
                h.setAttribute('y1', y);
                h.setAttribute('y2', y);
                v.setAttribute('x1', x);
                v.setAttribute('x2', x);
                v.setAttribute('y1', '0');
                v.setAttribute('y2', '1024');

                // Calculate real coordinates using inverse transformation
                const matrix = {"a":94.39999999999996,"c":0,"e":511.99999999999994,"b":0,"d":-94.39999999999996,"f":512.0000000000001};
                // Manually invert and apply the affine transform
                // Since we only use translate and scale, we can directly compute:
                // x' = (x - tx) / sx
                // y' = (y - ty) / sy
                const sx = matrix.a;
                const sy = matrix.d;
                const tx = matrix.e; 
                const ty = matrix.f;
                const realPoint = {
                  x: (x - tx) / sx,
                  y: (y - ty) / sy // Flip y back since we used negative scale
                }
                
                coords.textContent = `(${realPoint.x.toFixed(2)}, ${realPoint.y.toFixed(2)})`;
                coords.setAttribute('x', (x + 5).toString());
                coords.setAttribute('y', (y - 5).toString());
              });
              document.currentScript.parentElement.addEventListener('mouseleave', () => {
                document.currentScript.parentElement.getElementById('crosshair').style.display = 'none';
              });
            ]]></script></svg>