<svg width="1024" height="1024" viewBox="0 0 1024 1024" xmlns="http://www.w3.org/2000/svg"><rect width="100%" height="100%" fill="white"/><g><circle data-type="point" data-label="conn_000" data-x="-5" data-y="-3.24" cx="40.000000000000114" cy="817.856" r="14.16" fill="red"/></g><g><circle data-type="point" data-label="conn_000" data-x="-5" data-y="-4.84" cx="40.000000000000114" cy="968.896" r="14.16" fill="red"/></g><g><circle data-type="point" data-label="conn_001" data-x="3.46" data-y="5" cx="838.6239999999998" cy="40.000000000000284" r="14.16" fill="red"/></g><g><circle data-type="point" data-label="conn_001" data-x="3.2800000000000002" data-y="-5" cx="821.6319999999998" cy="984" r="14.16" fill="blue"/></g><g><circle data-type="point" data-label="conn_002" data-x="-5" data-y="-0.88" cx="40.000000000000114" cy="595.0720000000001" r="14.16" fill="blue"/></g><g><circle data-type="point" data-label="conn_002" data-x="5" data-y="4.96" cx="983.9999999999998" cy="43.776000000000295" r="14.16" fill="blue"/></g><g><circle data-type="point" data-label="conn_003" data-x="-5" data-y="-1.98" cx="40.000000000000114" cy="698.912" r="14.16" fill="blue"/></g><g><circle data-type="point" data-label="conn_003" data-x="5" data-y="-3.24" cx="983.9999999999998" cy="817.856" r="14.16" fill="red"/></g><g><circle data-type="point" data-label="conn_004" data-x="2.16" data-y="-5" cx="715.9039999999999" cy="984" r="14.16" fill="red"/></g><g><circle data-type="point" data-label="conn_004" data-x="-3.74" data-y="5" cx="158.94400000000007" cy="40.000000000000284" r="14.16" fill="red"/></g><g><circle data-type="point" data-label="conn_005" data-x="5" data-y="-4.04" cx="983.9999999999998" cy="893.376" r="14.16" fill="red"/></g><g><circle data-type="point" data-label="conn_005" data-x="-5" data-y="-0.16" cx="40.000000000000114" cy="527.1040000000002" r="14.16" fill="blue"/></g><g><circle data-type="point" data-label="conn_006" data-x="3.92" data-y="-5" cx="882.0479999999998" cy="984" r="14.16" fill="blue"/></g><g><circle data-type="point" data-label="conn_006" data-x="2.7" data-y="5" cx="766.8799999999999" cy="40.000000000000284" r="14.16" fill="red"/></g><g><circle data-type="point" data-label="conn_007" data-x="5" data-y="-2.32" cx="983.9999999999998" cy="731.008" r="14.16" fill="blue"/></g><g><circle data-type="point" data-label="conn_007" data-x="-5" data-y="-1.1" cx="40.000000000000114" cy="615.84" r="14.16" fill="blue"/></g><g><circle data-type="point" data-label="conn_008" data-x="5" data-y="0.74" cx="983.9999999999998" cy="442.1440000000001" r="14.16" fill="blue"/></g><g><circle data-type="point" data-label="conn_008" data-x="2.7" data-y="-5" cx="766.8799999999999" cy="984" r="14.16" fill="red"/></g><g><polyline data-points="5.000000000000002,-2.3737373737373733 4.898989898989901,-2.2727272727272725 4.7979797979797985,-2.1717171717171713 4.696969696969697,-2.07070707070707 4.595959595959597,-1.9696969696969693 4.494949494949497,-1.8686868686868683 4.393939393939394,-1.7676767676767675 4.292929292929293,-1.6666666666666665 4.191919191919193,-1.5656565656565653 4.090909090909092,-1.4646464646464643 3.989898989898992,-1.363636363636363 3.8888888888888893,-1.2626262626262625 3.7878787878787885,-1.1616161616161613 3.6868686868686877,-1.0606060606060603" data-type="line" data-label="" points="984,736.0808080808081 974.4646464646464,726.5454545454545 964.9292929292927,717.010101010101 955.3939393939393,707.4747474747475 945.8585858585857,697.939393939394 936.3232323232323,688.4040404040404 926.7878787878785,678.8686868686868 917.2525252525251,669.3333333333334 907.7171717171716,659.7979797979798 898.181818181818,650.2626262626263 888.6464646464647,640.7272727272727 879.111111111111,631.1919191919193 869.5757575757575,621.6565656565657 860.0404040404039,612.1212121212121" fill="none" stroke="rgba(0,0,255,0.75)" stroke-width="11.327999999999996"/></g><g><polyline data-points="3.6868686868686877,-1.0606060606060603 3.5858585858585874,-1.0606060606060603 3.4848484848484866,-1.0606060606060603 3.383838383838384,-1.0606060606060603 3.2828282828282833,-1.0606060606060603 3.181818181818183,-1.0606060606060603 3.080808080808082,-1.0606060606060603 2.9797979797979806,-1.0606060606060603 2.87878787878788,-1.0606060606060603 2.7777777777777786,-1.0606060606060603 2.676767676767678,-1.0606060606060603 2.575757575757577,-1.0606060606060603 2.4747474747474754,-1.0606060606060603 2.373737373737375,-1.0606060606060603 2.2727272727272734,-1.0606060606060603 2.1717171717171726,-1.0606060606060603 2.070707070707072,-1.0606060606060603 1.9696969696969702,-1.0606060606060603 1.8686868686868696,-1.0606060606060603 1.767676767676768,-1.0606060606060603 1.6666666666666674,-1.0606060606060603 1.5656565656565666,-1.0606060606060603 1.4646464646464652,-1.0606060606060603 1.3636363636363644,-1.0606060606060603 1.262626262626263,-1.0606060606060603 1.1616161616161622,-1.0606060606060603 1.0606060606060617,-1.0606060606060603 0.9595959595959602,-1.0606060606060603 0.8585858585858596,-1.0606060606060603 0.7575757575757579,-1.0606060606060603 0.6565656565656574,-1.0606060606060603 0.5555555555555567,-1.0606060606060603 0.4545454545454551,-1.0606060606060603 0.3535353535353544,-1.0606060606060603 0.2525252525252529,-1.0606060606060603 0.1515151515151522,-1.0606060606060603 0.050505050505051545,-1.0606060606060603 -0.05050505050505001,-1.0606060606060603 -0.15151515151515066,-1.0606060606060603 -0.2525252525252522,-1.0606060606060603 -0.35353535353535287,-1.0606060606060603 -0.4545454545454544,-1.0606060606060603 -0.555555555555555,-1.0606060606060603 -0.6565656565656557,-1.0606060606060603 -0.7575757575757572,-1.0606060606060603 -0.8585858585858579,-1.0606060606060603 -0.9595959595959596,-1.0606060606060603 -1.0606060606060603,-1.0606060606060603 -1.1616161616161613,-1.0606060606060603 -1.2626262626262625,-1.0606060606060603 -1.363636363636363,-1.0606060606060603 -1.4646464646464643,-1.0606060606060603 -1.5656565656565653,-1.0606060606060603 -1.6666666666666665,-1.0606060606060603 -1.7676767676767675,-1.0606060606060603 -1.8686868686868683,-1.0606060606060603 -1.9696969696969693,-1.0606060606060603 -2.07070707070707,-1.0606060606060603 -2.1717171717171713,-1.0606060606060603 -2.2727272727272725,-1.0606060606060603 -2.3737373737373733,-1.0606060606060603 -2.474747474747474,-1.0606060606060603 -2.5757575757575752,-1.0606060606060603 -2.6767676767676765,-1.0606060606060603 -2.7777777777777777,-1.0606060606060603 -2.8787878787878785,-1.0606060606060603 -2.9797979797979792,-1.0606060606060603 -3.0808080808080804,-1.0606060606060603 -3.1818181818181817,-1.0606060606060603 -3.2828282828282824,-1.0606060606060603 -3.383838383838383,-1.0606060606060603 -3.484848484848485,-1.0606060606060603 -3.5858585858585856,-1.0606060606060603 -3.6868686868686864,-1.0606060606060603 -3.7878787878787876,-1.0606060606060603 -3.8888888888888884,-1.0606060606060603 -3.98989898989899,-1.0606060606060603" data-type="line" data-label="" points="860.0404040404039,612.1212121212121 850.5050505050505,612.1212121212121 840.969696969697,612.1212121212121 831.4343434343433,612.1212121212121 821.8989898989898,612.1212121212121 812.3636363636363,612.1212121212121 802.8282828282828,612.1212121212121 793.2929292929292,612.1212121212121 783.7575757575758,612.1212121212121 774.2222222222222,612.1212121212121 764.6868686868686,612.1212121212121 755.1515151515151,612.1212121212121 745.6161616161615,612.1212121212121 736.0808080808081,612.1212121212121 726.5454545454545,612.1212121212121 717.0101010101009,612.1212121212121 707.4747474747475,612.1212121212121 697.9393939393939,612.1212121212121 688.4040404040404,612.1212121212121 678.8686868686868,612.1212121212121 669.3333333333333,612.1212121212121 659.7979797979798,612.1212121212121 650.2626262626262,612.1212121212121 640.7272727272727,612.1212121212121 631.1919191919192,612.1212121212121 621.6565656565656,612.1212121212121 612.1212121212121,612.1212121212121 602.5858585858585,612.1212121212121 593.0505050505051,612.1212121212121 583.5151515151515,612.1212121212121 573.9797979797979,612.1212121212121 564.4444444444445,612.1212121212121 554.9090909090909,612.1212121212121 545.3737373737374,612.1212121212121 535.8383838383838,612.1212121212121 526.3030303030303,612.1212121212121 516.7676767676768,612.1212121212121 507.2323232323232,612.1212121212121 497.69696969696975,612.1212121212121 488.16161616161617,612.1212121212121 478.62626262626264,612.1212121212121 469.09090909090907,612.1212121212121 459.55555555555554,612.1212121212121 450.0202020202021,612.1212121212121 440.4848484848485,612.1212121212121 430.949494949495,612.1212121212121 421.4141414141414,612.1212121212121 411.8787878787879,612.1212121212121 402.34343434343435,612.1212121212121 392.80808080808083,612.1212121212121 383.2727272727273,612.1212121212121 373.7373737373738,612.1212121212121 364.2020202020202,612.1212121212121 354.6666666666667,612.1212121212121 345.13131313131316,612.1212121212121 335.59595959595964,612.1212121212121 326.0606060606061,612.1212121212121 316.5252525252526,612.1212121212121 306.9898989898991,612.1212121212121 297.4545454545455,612.1212121212121 287.91919191919203,612.1212121212121 278.38383838383845,612.1212121212121 268.84848484848493,612.1212121212121 259.3131313131314,612.1212121212121 249.77777777777783,612.1212121212121 240.2424242424243,612.1212121212121 230.70707070707084,612.1212121212121 221.17171717171726,612.1212121212121 211.63636363636374,612.1212121212121 202.10101010101022,612.1212121212121 192.5656565656567,612.1212121212121 183.03030303030312,612.1212121212121 173.4949494949496,612.1212121212121 163.95959595959607,612.1212121212121 154.42424242424255,612.1212121212121 144.88888888888903,612.1212121212121 135.35353535353545,612.1212121212121" fill="none" stroke="rgba(255,0,0,0.75)" stroke-width="11.327999999999996"/></g><g><polyline data-points="-3.98989898989899,-1.0606060606060603 -4.090909090909091,-1.0606060606060603 -4.191919191919193,-1.0606060606060603 -4.292929292929293,-1.0606060606060603 -4.393939393939394,-1.0606060606060603 -4.494949494949496,-1.0606060606060603 -4.595959595959596,-1.0606060606060603 -4.696969696969697,-1.0606060606060603 -4.7979797979797985,-1.0606060606060603 -4.898989898989899,-1.0606060606060603 -5.000000000000001,-1.0606060606060603" data-type="line" data-label="" points="135.35353535353545,612.1212121212121 125.81818181818193,612.1212121212121 116.28282828282829,612.1212121212121 106.74747474747483,612.1212121212121 97.21212121212136,612.1212121212121 87.67676767676772,612.1212121212121 78.14141414141426,612.1212121212121 68.60606060606068,612.1212121212121 59.07070707070716,612.1212121212121 49.53535353535369,612.1212121212121 40.00000000000006,612.1212121212121" fill="none" stroke="rgba(0,0,255,0.75)" stroke-width="11.327999999999996"/></g><g><polyline data-points="3.4848484848484866,5.000000000000002 3.4848484848484866,4.898989898989901 3.4848484848484866,4.7979797979797985 3.4848484848484866,4.696969696969697 3.4848484848484866,4.595959595959597 3.4848484848484866,4.494949494949497 3.4848484848484866,4.393939393939394 3.4848484848484866,4.292929292929293 3.4848484848484866,4.191919191919193 3.4848484848484866,4.090909090909092 3.4848484848484866,3.989898989898992 3.4848484848484866,3.8888888888888893 3.4848484848484866,3.7878787878787885 3.4848484848484866,3.6868686868686877 3.4848484848484866,3.5858585858585874 3.4848484848484866,3.4848484848484866 3.4848484848484866,3.383838383838384 3.4848484848484866,3.2828282828282833 3.4848484848484866,3.181818181818183 3.4848484848484866,3.080808080808082 3.4848484848484866,2.9797979797979806 3.4848484848484866,2.87878787878788 3.4848484848484866,2.7777777777777786 3.4848484848484866,2.676767676767678 3.4848484848484866,2.575757575757577 3.4848484848484866,2.4747474747474754 3.4848484848484866,2.373737373737375 3.4848484848484866,2.2727272727272734 3.4848484848484866,2.1717171717171726 3.4848484848484866,2.070707070707072 3.4848484848484866,1.9696969696969702 3.4848484848484866,1.8686868686868696 3.4848484848484866,1.767676767676768 3.4848484848484866,1.6666666666666674 3.4848484848484866,1.5656565656565666 3.4848484848484866,1.4646464646464652 3.4848484848484866,1.3636363636363644 3.4848484848484866,1.262626262626263 3.4848484848484866,1.1616161616161622 3.4848484848484866,1.0606060606060617 3.4848484848484866,0.9595959595959602 3.4848484848484866,0.8585858585858596 3.4848484848484866,0.7575757575757579 3.4848484848484866,0.6565656565656574 3.4848484848484866,0.5555555555555567 3.4848484848484866,0.4545454545454551 3.4848484848484866,0.3535353535353544 3.4848484848484866,0.2525252525252529 3.4848484848484866,0.1515151515151522 3.4848484848484866,0.050505050505051545 3.4848484848484866,-0.05050505050505001 3.4848484848484866,-0.15151515151515066 3.4848484848484866,-0.2525252525252522 3.4848484848484866,-0.35353535353535287 3.4848484848484866,-0.4545454545454544 3.4848484848484866,-0.555555555555555 3.5858585858585874,-0.6565656565656557 3.6868686868686877,-0.7575757575757572 3.7878787878787885,-0.8585858585858579 3.8888888888888893,-0.9595959595959596 3.989898989898992,-1.0606060606060603 3.8888888888888893,-1.1616161616161613 3.7878787878787885,-1.2626262626262625 3.6868686868686877,-1.363636363636363 3.5858585858585874,-1.4646464646464643 3.4848484848484866,-1.5656565656565653 3.383838383838384,-1.6666666666666665 3.2828282828282833,-1.7676767676767675 3.2828282828282833,-1.8686868686868683 3.2828282828282833,-1.9696969696969693 3.2828282828282833,-2.07070707070707 3.2828282828282833,-2.1717171717171713 3.2828282828282833,-2.2727272727272725 3.2828282828282833,-2.3737373737373733 3.2828282828282833,-2.474747474747474 3.2828282828282833,-2.5757575757575752 3.2828282828282833,-2.6767676767676765 3.2828282828282833,-2.7777777777777777 3.2828282828282833,-2.8787878787878785 3.2828282828282833,-2.9797979797979792 3.2828282828282833,-3.0808080808080804 3.2828282828282833,-3.1818181818181817 3.2828282828282833,-3.2828282828282824 3.2828282828282833,-3.383838383838383 3.2828282828282833,-3.484848484848485 3.2828282828282833,-3.5858585858585856 3.2828282828282833,-3.6868686868686864 3.2828282828282833,-3.7878787878787876 3.2828282828282833,-3.8888888888888884 3.2828282828282833,-3.98989898989899" data-type="line" data-label="" points="840.969696969697,40.000000000000114 840.969696969697,49.53535353535369 840.969696969697,59.07070707070733 840.969696969697,68.60606060606085 840.969696969697,78.14141414141432 840.969696969697,87.67676767676778 840.969696969697,97.21212121212153 840.969696969697,106.747474747475 840.969696969697,116.28282828282846 840.969696969697,125.81818181818198 840.969696969697,135.35353535353545 840.969696969697,144.88888888888908 840.969696969697,154.4242424242426 840.969696969697,163.95959595959613 840.969696969697,173.4949494949496 840.969696969697,183.03030303030312 840.969696969697,192.56565656565675 840.969696969697,202.10101010101027 840.969696969697,211.63636363636374 840.969696969697,221.17171717171726 840.969696969697,230.70707070707084 840.969696969697,240.24242424242436 840.969696969697,249.77777777777794 840.969696969697,259.3131313131314 840.969696969697,268.84848484848493 840.969696969697,278.38383838383857 840.969696969697,287.91919191919203 840.969696969697,297.4545454545456 840.969696969697,306.9898989898991 840.969696969697,316.5252525252526 840.969696969697,326.06060606060623 840.969696969697,335.5959595959597 840.969696969697,345.1313131313133 840.969696969697,354.66666666666674 840.969696969697,364.2020202020203 840.969696969697,373.73737373737384 840.969696969697,383.27272727272737 840.969696969697,392.80808080808094 840.969696969697,402.3434343434344 840.969696969697,411.87878787878793 840.969696969697,421.4141414141415 840.969696969697,430.94949494949503 840.969696969697,440.4848484848486 840.969696969697,450.0202020202021 840.969696969697,459.5555555555556 840.969696969697,469.0909090909092 840.969696969697,478.6262626262627 840.969696969697,488.1616161616163 840.969696969697,497.69696969696975 840.969696969697,507.23232323232327 840.969696969697,516.7676767676768 840.969696969697,526.3030303030304 840.969696969697,535.838383838384 840.969696969697,545.3737373737374 840.969696969697,554.909090909091 840.969696969697,564.4444444444445 850.5050505050505,573.979797979798 860.0404040404039,583.5151515151516 869.5757575757575,593.0505050505051 879.111111111111,602.5858585858587 888.6464646464647,612.1212121212121 879.111111111111,621.6565656565657 869.5757575757575,631.1919191919193 860.0404040404039,640.7272727272727 850.5050505050505,650.2626262626263 840.969696969697,659.7979797979798 831.4343434343433,669.3333333333334 821.8989898989898,678.8686868686868 821.8989898989898,688.4040404040404 821.8989898989898,697.939393939394 821.8989898989898,707.4747474747475 821.8989898989898,717.010101010101 821.8989898989898,726.5454545454545 821.8989898989898,736.0808080808081 821.8989898989898,745.6161616161615 821.8989898989898,755.1515151515151 821.8989898989898,764.6868686868687 821.8989898989898,774.2222222222222 821.8989898989898,783.7575757575758 821.8989898989898,793.2929292929292 821.8989898989898,802.8282828282828 821.8989898989898,812.3636363636363 821.8989898989898,821.8989898989898 821.8989898989898,831.4343434343434 821.8989898989898,840.969696969697 821.8989898989898,850.5050505050505 821.8989898989898,860.0404040404039 821.8989898989898,869.5757575757575 821.8989898989898,879.1111111111111 821.8989898989898,888.6464646464647" fill="none" stroke="rgba(255,0,0,0.75)" stroke-width="11.327999999999996"/></g><g><polyline data-points="3.2828282828282833,-3.98989898989899 3.2828282828282833,-4.090909090909091 3.2828282828282833,-4.191919191919193 3.2828282828282833,-4.292929292929293 3.2828282828282833,-4.393939393939394 3.2828282828282833,-4.494949494949496 3.2828282828282833,-4.595959595959596 3.2828282828282833,-4.696969696969697 3.2828282828282833,-4.7979797979797985 3.2828282828282833,-4.898989898989899 3.2828282828282833,-5.000000000000001" data-type="line" data-label="" points="821.8989898989898,888.6464646464647 821.8989898989898,898.1818181818181 821.8989898989898,907.7171717171718 821.8989898989898,917.2525252525252 821.8989898989898,926.7878787878788 821.8989898989898,936.3232323232323 821.8989898989898,945.8585858585858 821.8989898989898,955.3939393939394 821.8989898989898,964.9292929292928 821.8989898989898,974.4646464646464 821.8989898989898,984" fill="none" stroke="rgba(0,0,255,0.75)" stroke-width="11.327999999999996"/></g><g><polyline data-points="5.000000000000002,-4.090909090909091 4.898989898989901,-3.98989898989899 4.7979797979797985,-3.8888888888888884 4.696969696969697,-3.7878787878787876 4.595959595959597,-3.6868686868686864 4.494949494949497,-3.5858585858585856 4.393939393939394,-3.484848484848485 4.292929292929293,-3.383838383838383 4.191919191919193,-3.2828282828282824 4.191919191919193,-3.1818181818181817 4.191919191919193,-3.0808080808080804 4.191919191919193,-2.9797979797979792 4.191919191919193,-2.8787878787878785 4.191919191919193,-2.7777777777777777 4.191919191919193,-2.6767676767676765 4.191919191919193,-2.5757575757575752 4.191919191919193,-2.474747474747474 4.191919191919193,-2.3737373737373733 4.191919191919193,-2.2727272727272725 4.191919191919193,-2.1717171717171713 4.191919191919193,-2.07070707070707 4.191919191919193,-1.9696969696969693 4.191919191919193,-1.8686868686868683 4.191919191919193,-1.7676767676767675 4.191919191919193,-1.6666666666666665 4.191919191919193,-1.5656565656565653 4.191919191919193,-1.4646464646464643 4.191919191919193,-1.363636363636363 4.191919191919193,-1.2626262626262625 4.191919191919193,-1.1616161616161613 4.191919191919193,-1.0606060606060603 4.191919191919193,-0.9595959595959596 4.090909090909092,-0.8585858585858579 3.989898989898992,-0.7575757575757572 3.8888888888888893,-0.6565656565656557 3.8888888888888893,-0.555555555555555 3.8888888888888893,-0.4545454545454544 3.8888888888888893,-0.35353535353535287 3.8888888888888893,-0.2525252525252522 3.8888888888888893,-0.15151515151515066 3.8888888888888893,-0.05050505050505001 3.8888888888888893,0.050505050505051545 3.8888888888888893,0.1515151515151522" data-type="line" data-label="" points="984,898.1818181818181 974.4646464646464,888.6464646464647 964.9292929292927,879.1111111111111 955.3939393939393,869.5757575757575 945.8585858585857,860.0404040404039 936.3232323232323,850.5050505050505 926.7878787878785,840.969696969697 917.2525252525251,831.4343434343434 907.7171717171716,821.8989898989898 907.7171717171716,812.3636363636363 907.7171717171716,802.8282828282828 907.7171717171716,793.2929292929292 907.7171717171716,783.7575757575758 907.7171717171716,774.2222222222222 907.7171717171716,764.6868686868687 907.7171717171716,755.1515151515151 907.7171717171716,745.6161616161615 907.7171717171716,736.0808080808081 907.7171717171716,726.5454545454545 907.7171717171716,717.010101010101 907.7171717171716,707.4747474747475 907.7171717171716,697.939393939394 907.7171717171716,688.4040404040404 907.7171717171716,678.8686868686868 907.7171717171716,669.3333333333334 907.7171717171716,659.7979797979798 907.7171717171716,650.2626262626263 907.7171717171716,640.7272727272727 907.7171717171716,631.1919191919193 907.7171717171716,621.6565656565657 907.7171717171716,612.1212121212121 907.7171717171716,602.5858585858587 898.181818181818,593.0505050505051 888.6464646464647,583.5151515151516 879.111111111111,573.979797979798 879.111111111111,564.4444444444445 879.111111111111,554.909090909091 879.111111111111,545.3737373737374 879.111111111111,535.838383838384 879.111111111111,526.3030303030304 879.111111111111,516.7676767676768 879.111111111111,507.23232323232327 879.111111111111,497.69696969696975" fill="none" stroke="rgba(255,0,0,0.75)" stroke-width="11.327999999999996"/></g><g><polyline data-points="3.8888888888888893,0.1515151515151522 3.7878787878787885,0.050505050505051545 3.6868686868686877,-0.05050505050505001 3.5858585858585874,-0.15151515151515066 3.4848484848484866,-0.15151515151515066 3.383838383838384,-0.15151515151515066 3.2828282828282833,-0.15151515151515066 3.181818181818183,-0.15151515151515066 3.080808080808082,-0.15151515151515066 2.9797979797979806,-0.15151515151515066 2.87878787878788,-0.15151515151515066 2.7777777777777786,-0.15151515151515066 2.676767676767678,-0.15151515151515066 2.575757575757577,-0.15151515151515066 2.4747474747474754,-0.15151515151515066 2.373737373737375,-0.15151515151515066 2.2727272727272734,-0.15151515151515066 2.1717171717171726,-0.15151515151515066 2.070707070707072,-0.15151515151515066 1.9696969696969702,-0.15151515151515066 1.8686868686868696,-0.15151515151515066 1.767676767676768,-0.15151515151515066 1.6666666666666674,-0.15151515151515066 1.5656565656565666,-0.15151515151515066 1.4646464646464652,-0.15151515151515066 1.3636363636363644,-0.15151515151515066 1.262626262626263,-0.15151515151515066 1.1616161616161622,-0.15151515151515066 1.0606060606060617,-0.15151515151515066 0.9595959595959602,-0.15151515151515066 0.8585858585858596,-0.15151515151515066 0.7575757575757579,-0.15151515151515066 0.6565656565656574,-0.15151515151515066 0.5555555555555567,-0.15151515151515066 0.4545454545454551,-0.15151515151515066 0.3535353535353544,-0.15151515151515066 0.2525252525252529,-0.15151515151515066 0.1515151515151522,-0.15151515151515066 0.050505050505051545,-0.15151515151515066 -0.05050505050505001,-0.15151515151515066 -0.15151515151515066,-0.15151515151515066 -0.2525252525252522,-0.15151515151515066 -0.35353535353535287,-0.15151515151515066 -0.4545454545454544,-0.15151515151515066 -0.555555555555555,-0.15151515151515066 -0.6565656565656557,-0.15151515151515066 -0.7575757575757572,-0.15151515151515066 -0.8585858585858579,-0.15151515151515066 -0.9595959595959596,-0.15151515151515066 -1.0606060606060603,-0.15151515151515066 -1.1616161616161613,-0.15151515151515066 -1.2626262626262625,-0.15151515151515066 -1.363636363636363,-0.15151515151515066 -1.4646464646464643,-0.15151515151515066 -1.5656565656565653,-0.15151515151515066 -1.6666666666666665,-0.15151515151515066 -1.7676767676767675,-0.15151515151515066 -1.8686868686868683,-0.15151515151515066 -1.9696969696969693,-0.15151515151515066 -2.07070707070707,-0.15151515151515066 -2.1717171717171713,-0.15151515151515066 -2.2727272727272725,-0.15151515151515066 -2.3737373737373733,-0.15151515151515066 -2.474747474747474,-0.15151515151515066 -2.5757575757575752,-0.15151515151515066 -2.6767676767676765,-0.15151515151515066 -2.7777777777777777,-0.15151515151515066 -2.8787878787878785,-0.15151515151515066 -2.9797979797979792,-0.15151515151515066 -3.0808080808080804,-0.15151515151515066 -3.1818181818181817,-0.15151515151515066 -3.2828282828282824,-0.15151515151515066 -3.383838383838383,-0.15151515151515066 -3.484848484848485,-0.15151515151515066 -3.5858585858585856,-0.15151515151515066 -3.6868686868686864,-0.15151515151515066 -3.7878787878787876,-0.15151515151515066 -3.8888888888888884,-0.15151515151515066 -3.98989898989899,-0.15151515151515066 -4.090909090909091,-0.15151515151515066 -4.191919191919193,-0.15151515151515066 -4.292929292929293,-0.15151515151515066 -4.393939393939394,-0.15151515151515066 -4.494949494949496,-0.15151515151515066 -4.595959595959596,-0.15151515151515066 -4.696969696969697,-0.15151515151515066 -4.7979797979797985,-0.15151515151515066 -4.898989898989899,-0.15151515151515066 -5.000000000000001,-0.15151515151515066" data-type="line" data-label="" points="879.111111111111,497.69696969696975 869.5757575757575,507.23232323232327 860.0404040404039,516.7676767676768 850.5050505050505,526.3030303030304 840.969696969697,526.3030303030304 831.4343434343433,526.3030303030304 821.8989898989898,526.3030303030304 812.3636363636363,526.3030303030304 802.8282828282828,526.3030303030304 793.2929292929292,526.3030303030304 783.7575757575758,526.3030303030304 774.2222222222222,526.3030303030304 764.6868686868686,526.3030303030304 755.1515151515151,526.3030303030304 745.6161616161615,526.3030303030304 736.0808080808081,526.3030303030304 726.5454545454545,526.3030303030304 717.0101010101009,526.3030303030304 707.4747474747475,526.3030303030304 697.9393939393939,526.3030303030304 688.4040404040404,526.3030303030304 678.8686868686868,526.3030303030304 669.3333333333333,526.3030303030304 659.7979797979798,526.3030303030304 650.2626262626262,526.3030303030304 640.7272727272727,526.3030303030304 631.1919191919192,526.3030303030304 621.6565656565656,526.3030303030304 612.1212121212121,526.3030303030304 602.5858585858585,526.3030303030304 593.0505050505051,526.3030303030304 583.5151515151515,526.3030303030304 573.9797979797979,526.3030303030304 564.4444444444445,526.3030303030304 554.9090909090909,526.3030303030304 545.3737373737374,526.3030303030304 535.8383838383838,526.3030303030304 526.3030303030303,526.3030303030304 516.7676767676768,526.3030303030304 507.2323232323232,526.3030303030304 497.69696969696975,526.3030303030304 488.16161616161617,526.3030303030304 478.62626262626264,526.3030303030304 469.09090909090907,526.3030303030304 459.55555555555554,526.3030303030304 450.0202020202021,526.3030303030304 440.4848484848485,526.3030303030304 430.949494949495,526.3030303030304 421.4141414141414,526.3030303030304 411.8787878787879,526.3030303030304 402.34343434343435,526.3030303030304 392.80808080808083,526.3030303030304 383.2727272727273,526.3030303030304 373.7373737373738,526.3030303030304 364.2020202020202,526.3030303030304 354.6666666666667,526.3030303030304 345.13131313131316,526.3030303030304 335.59595959595964,526.3030303030304 326.0606060606061,526.3030303030304 316.5252525252526,526.3030303030304 306.9898989898991,526.3030303030304 297.4545454545455,526.3030303030304 287.91919191919203,526.3030303030304 278.38383838383845,526.3030303030304 268.84848484848493,526.3030303030304 259.3131313131314,526.3030303030304 249.77777777777783,526.3030303030304 240.2424242424243,526.3030303030304 230.70707070707084,526.3030303030304 221.17171717171726,526.3030303030304 211.63636363636374,526.3030303030304 202.10101010101022,526.3030303030304 192.5656565656567,526.3030303030304 183.03030303030312,526.3030303030304 173.4949494949496,526.3030303030304 163.95959595959607,526.3030303030304 154.42424242424255,526.3030303030304 144.88888888888903,526.3030303030304 135.35353535353545,526.3030303030304 125.81818181818193,526.3030303030304 116.28282828282829,526.3030303030304 106.74747474747483,526.3030303030304 97.21212121212136,526.3030303030304 87.67676767676772,526.3030303030304 78.14141414141426,526.3030303030304 68.60606060606068,526.3030303030304 59.07070707070716,526.3030303030304 49.53535353535369,526.3030303030304 40.00000000000006,526.3030303030304" fill="none" stroke="rgba(0,0,255,0.75)" stroke-width="11.327999999999996"/></g><g><polyline data-points="3.989898989898992,-5.000000000000001 3.8888888888888893,-4.898989898989899 3.7878787878787885,-4.7979797979797985 3.6868686868686877,-4.696969696969697 3.5858585858585874,-4.595959595959596 3.5858585858585874,-4.494949494949496 3.5858585858585874,-4.393939393939394 3.5858585858585874,-4.292929292929293 3.5858585858585874,-4.191919191919193 3.5858585858585874,-4.090909090909091 3.5858585858585874,-3.98989898989899 3.4848484848484866,-3.8888888888888884 3.383838383838384,-3.7878787878787876 3.2828282828282833,-3.6868686868686864 3.181818181818183,-3.5858585858585856 3.080808080808082,-3.484848484848485 3.080808080808082,-3.383838383838383 3.080808080808082,-3.2828282828282824 3.080808080808082,-3.1818181818181817 3.080808080808082,-3.0808080808080804 3.080808080808082,-2.9797979797979792 3.080808080808082,-2.8787878787878785 3.080808080808082,-2.7777777777777777 3.080808080808082,-2.6767676767676765 3.080808080808082,-2.5757575757575752 3.080808080808082,-2.474747474747474 3.080808080808082,-2.3737373737373733 3.080808080808082,-2.2727272727272725 3.080808080808082,-2.1717171717171713 3.080808080808082,-2.07070707070707 3.080808080808082,-1.9696969696969693 3.080808080808082,-1.8686868686868683 3.080808080808082,-1.7676767676767675 3.080808080808082,-1.6666666666666665 3.080808080808082,-1.5656565656565653 3.080808080808082,-1.4646464646464643 2.9797979797979806,-1.363636363636363 2.87878787878788,-1.2626262626262625 2.7777777777777786,-1.1616161616161613 2.7777777777777786,-1.0606060606060603 2.7777777777777786,-0.9595959595959596 2.7777777777777786,-0.8585858585858579 2.7777777777777786,-0.7575757575757572 2.7777777777777786,-0.6565656565656557 2.7777777777777786,-0.555555555555555" data-type="line" data-label="" points="888.6464646464647,984 879.111111111111,974.4646464646464 869.5757575757575,964.9292929292928 860.0404040404039,955.3939393939394 850.5050505050505,945.8585858585858 850.5050505050505,936.3232323232323 850.5050505050505,926.7878787878788 850.5050505050505,917.2525252525252 850.5050505050505,907.7171717171718 850.5050505050505,898.1818181818181 850.5050505050505,888.6464646464647 840.969696969697,879.1111111111111 831.4343434343433,869.5757575757575 821.8989898989898,860.0404040404039 812.3636363636363,850.5050505050505 802.8282828282828,840.969696969697 802.8282828282828,831.4343434343434 802.8282828282828,821.8989898989898 802.8282828282828,812.3636363636363 802.8282828282828,802.8282828282828 802.8282828282828,793.2929292929292 802.8282828282828,783.7575757575758 802.8282828282828,774.2222222222222 802.8282828282828,764.6868686868687 802.8282828282828,755.1515151515151 802.8282828282828,745.6161616161615 802.8282828282828,736.0808080808081 802.8282828282828,726.5454545454545 802.8282828282828,717.010101010101 802.8282828282828,707.4747474747475 802.8282828282828,697.939393939394 802.8282828282828,688.4040404040404 802.8282828282828,678.8686868686868 802.8282828282828,669.3333333333334 802.8282828282828,659.7979797979798 802.8282828282828,650.2626262626263 793.2929292929292,640.7272727272727 783.7575757575758,631.1919191919193 774.2222222222222,621.6565656565657 774.2222222222222,612.1212121212121 774.2222222222222,602.5858585858587 774.2222222222222,593.0505050505051 774.2222222222222,583.5151515151516 774.2222222222222,573.979797979798 774.2222222222222,564.4444444444445" fill="none" stroke="rgba(0,0,255,0.75)" stroke-width="11.327999999999996"/></g><g><polyline data-points="2.7777777777777786,-0.555555555555555 2.7777777777777786,-0.4545454545454544 2.7777777777777786,-0.35353535353535287 2.7777777777777786,-0.2525252525252522 2.7777777777777786,-0.15151515151515066 2.7777777777777786,-0.05050505050505001 2.7777777777777786,0.050505050505051545 2.7777777777777786,0.1515151515151522 2.7777777777777786,0.2525252525252529 2.7777777777777786,0.3535353535353544 2.7777777777777786,0.4545454545454551 2.7777777777777786,0.5555555555555567 2.7777777777777786,0.6565656565656574 2.7777777777777786,0.7575757575757579 2.7777777777777786,0.8585858585858596 2.7777777777777786,0.9595959595959602 2.7777777777777786,1.0606060606060617 2.7777777777777786,1.1616161616161622 2.7777777777777786,1.262626262626263 2.7777777777777786,1.3636363636363644 2.7777777777777786,1.4646464646464652 2.7777777777777786,1.5656565656565666 2.7777777777777786,1.6666666666666674 2.7777777777777786,1.767676767676768 2.7777777777777786,1.8686868686868696 2.7777777777777786,1.9696969696969702 2.7777777777777786,2.070707070707072 2.7777777777777786,2.1717171717171726 2.7777777777777786,2.2727272727272734 2.7777777777777786,2.373737373737375 2.7777777777777786,2.4747474747474754 2.7777777777777786,2.575757575757577 2.7777777777777786,2.676767676767678 2.7777777777777786,2.7777777777777786 2.7777777777777786,2.87878787878788 2.7777777777777786,2.9797979797979806 2.7777777777777786,3.080808080808082 2.7777777777777786,3.181818181818183 2.7777777777777786,3.2828282828282833 2.7777777777777786,3.383838383838384 2.7777777777777786,3.4848484848484866 2.7777777777777786,3.5858585858585874 2.7777777777777786,3.6868686868686877 2.7777777777777786,3.7878787878787885 2.7777777777777786,3.8888888888888893 2.7777777777777786,3.989898989898992 2.7777777777777786,4.090909090909092 2.7777777777777786,4.191919191919193 2.7777777777777786,4.292929292929293 2.7777777777777786,4.393939393939394 2.7777777777777786,4.494949494949497 2.7777777777777786,4.595959595959597 2.7777777777777786,4.696969696969697 2.7777777777777786,4.7979797979797985 2.7777777777777786,4.898989898989901 2.7777777777777786,5.000000000000002" data-type="line" data-label="" points="774.2222222222222,564.4444444444445 774.2222222222222,554.909090909091 774.2222222222222,545.3737373737374 774.2222222222222,535.838383838384 774.2222222222222,526.3030303030304 774.2222222222222,516.7676767676768 774.2222222222222,507.23232323232327 774.2222222222222,497.69696969696975 774.2222222222222,488.1616161616163 774.2222222222222,478.6262626262627 774.2222222222222,469.0909090909092 774.2222222222222,459.5555555555556 774.2222222222222,450.0202020202021 774.2222222222222,440.4848484848486 774.2222222222222,430.94949494949503 774.2222222222222,421.4141414141415 774.2222222222222,411.87878787878793 774.2222222222222,402.3434343434344 774.2222222222222,392.80808080808094 774.2222222222222,383.27272727272737 774.2222222222222,373.73737373737384 774.2222222222222,364.2020202020203 774.2222222222222,354.66666666666674 774.2222222222222,345.1313131313133 774.2222222222222,335.5959595959597 774.2222222222222,326.06060606060623 774.2222222222222,316.5252525252526 774.2222222222222,306.9898989898991 774.2222222222222,297.4545454545456 774.2222222222222,287.91919191919203 774.2222222222222,278.38383838383857 774.2222222222222,268.84848484848493 774.2222222222222,259.3131313131314 774.2222222222222,249.77777777777794 774.2222222222222,240.24242424242436 774.2222222222222,230.70707070707084 774.2222222222222,221.17171717171726 774.2222222222222,211.63636363636374 774.2222222222222,202.10101010101027 774.2222222222222,192.56565656565675 774.2222222222222,183.03030303030312 774.2222222222222,173.4949494949496 774.2222222222222,163.95959595959613 774.2222222222222,154.4242424242426 774.2222222222222,144.88888888888908 774.2222222222222,135.35353535353545 774.2222222222222,125.81818181818198 774.2222222222222,116.28282828282846 774.2222222222222,106.747474747475 774.2222222222222,97.21212121212153 774.2222222222222,87.67676767676778 774.2222222222222,78.14141414141432 774.2222222222222,68.60606060606085 774.2222222222222,59.07070707070733 774.2222222222222,49.53535353535369 774.2222222222222,40.000000000000114" fill="none" stroke="rgba(255,0,0,0.75)" stroke-width="11.327999999999996"/></g><g><polyline data-points="-5.000000000000001,-1.9696969696969693 -4.898989898989899,-1.9696969696969693 -4.7979797979797985,-1.9696969696969693 -4.696969696969697,-1.9696969696969693 -4.595959595959596,-1.9696969696969693 -4.494949494949496,-1.9696969696969693 -4.393939393939394,-1.9696969696969693 -4.292929292929293,-1.9696969696969693 -4.191919191919193,-1.9696969696969693 -4.090909090909091,-1.9696969696969693 -3.98989898989899,-1.9696969696969693 -3.8888888888888884,-1.9696969696969693 -3.7878787878787876,-1.9696969696969693 -3.6868686868686864,-1.9696969696969693 -3.5858585858585856,-1.9696969696969693 -3.484848484848485,-1.9696969696969693 -3.383838383838383,-1.9696969696969693 -3.2828282828282824,-1.9696969696969693 -3.1818181818181817,-1.9696969696969693 -3.0808080808080804,-1.9696969696969693 -2.9797979797979792,-1.9696969696969693 -2.8787878787878785,-1.9696969696969693 -2.7777777777777777,-1.9696969696969693 -2.6767676767676765,-1.9696969696969693 -2.5757575757575752,-1.9696969696969693 -2.474747474747474,-1.9696969696969693 -2.3737373737373733,-1.9696969696969693 -2.2727272727272725,-1.9696969696969693 -2.1717171717171713,-1.9696969696969693 -2.07070707070707,-1.9696969696969693 -1.9696969696969693,-1.9696969696969693 -1.8686868686868683,-1.9696969696969693 -1.7676767676767675,-1.9696969696969693 -1.6666666666666665,-1.9696969696969693 -1.5656565656565653,-1.9696969696969693 -1.4646464646464643,-1.9696969696969693 -1.363636363636363,-1.9696969696969693 -1.2626262626262625,-1.9696969696969693 -1.1616161616161613,-1.9696969696969693 -1.0606060606060603,-1.9696969696969693 -0.9595959595959596,-1.9696969696969693 -0.8585858585858579,-1.9696969696969693 -0.7575757575757572,-1.9696969696969693 -0.6565656565656557,-1.9696969696969693 -0.555555555555555,-1.9696969696969693 -0.4545454545454544,-1.9696969696969693 -0.35353535353535287,-1.9696969696969693 -0.2525252525252522,-1.9696969696969693 -0.15151515151515066,-1.9696969696969693 -0.05050505050505001,-1.9696969696969693 0.050505050505051545,-1.9696969696969693 0.1515151515151522,-1.9696969696969693 0.2525252525252529,-1.8686868686868683 0.3535353535353544,-1.7676767676767675 0.4545454545454551,-1.6666666666666665 0.5555555555555567,-1.5656565656565653 0.6565656565656574,-1.4646464646464643 0.7575757575757579,-1.363636363636363 0.8585858585858596,-1.2626262626262625 0.9595959595959602,-1.1616161616161613 1.0606060606060617,-1.0606060606060603 1.1616161616161622,-0.9595959595959596 1.262626262626263,-0.8585858585858579 1.3636363636363644,-0.7575757575757572 1.4646464646464652,-0.6565656565656557" data-type="line" data-label="" points="40.00000000000006,697.939393939394 49.53535353535369,697.939393939394 59.07070707070716,697.939393939394 68.60606060606068,697.939393939394 78.14141414141426,697.939393939394 87.67676767676772,697.939393939394 97.21212121212136,697.939393939394 106.74747474747483,697.939393939394 116.28282828282829,697.939393939394 125.81818181818193,697.939393939394 135.35353535353545,697.939393939394 144.88888888888903,697.939393939394 154.42424242424255,697.939393939394 163.95959595959607,697.939393939394 173.4949494949496,697.939393939394 183.03030303030312,697.939393939394 192.5656565656567,697.939393939394 202.10101010101022,697.939393939394 211.63636363636374,697.939393939394 221.17171717171726,697.939393939394 230.70707070707084,697.939393939394 240.2424242424243,697.939393939394 249.77777777777783,697.939393939394 259.3131313131314,697.939393939394 268.84848484848493,697.939393939394 278.38383838383845,697.939393939394 287.91919191919203,697.939393939394 297.4545454545455,697.939393939394 306.9898989898991,697.939393939394 316.5252525252526,697.939393939394 326.0606060606061,697.939393939394 335.59595959595964,697.939393939394 345.13131313131316,697.939393939394 354.6666666666667,697.939393939394 364.2020202020202,697.939393939394 373.7373737373738,697.939393939394 383.2727272727273,697.939393939394 392.80808080808083,697.939393939394 402.34343434343435,697.939393939394 411.8787878787879,697.939393939394 421.4141414141414,697.939393939394 430.949494949495,697.939393939394 440.4848484848485,697.939393939394 450.0202020202021,697.939393939394 459.55555555555554,697.939393939394 469.09090909090907,697.939393939394 478.62626262626264,697.939393939394 488.16161616161617,697.939393939394 497.69696969696975,697.939393939394 507.2323232323232,697.939393939394 516.7676767676768,697.939393939394 526.3030303030303,697.939393939394 535.8383838383838,688.4040404040404 545.3737373737374,678.8686868686868 554.9090909090909,669.3333333333334 564.4444444444445,659.7979797979798 573.9797979797979,650.2626262626263 583.5151515151515,640.7272727272727 593.0505050505051,631.1919191919193 602.5858585858585,621.6565656565657 612.1212121212121,612.1212121212121 621.6565656565656,602.5858585858587 631.1919191919192,593.0505050505051 640.7272727272727,583.5151515151516 650.2626262626262,573.979797979798" fill="none" stroke="rgba(0,0,255,0.75)" stroke-width="11.327999999999996"/></g><g><polyline data-points="1.4646464646464652,-0.6565656565656557 1.5656565656565666,-0.555555555555555 1.6666666666666674,-0.4545454545454544 1.767676767676768,-0.35353535353535287 1.8686868686868696,-0.2525252525252522 1.9696969696969702,-0.15151515151515066 2.070707070707072,-0.05050505050505001 2.1717171717171726,0.050505050505051545 2.2727272727272734,0.1515151515151522 2.373737373737375,0.2525252525252529" data-type="line" data-label="" points="650.2626262626262,573.979797979798 659.7979797979798,564.4444444444445 669.3333333333333,554.909090909091 678.8686868686868,545.3737373737374 688.4040404040404,535.838383838384 697.9393939393939,526.3030303030304 707.4747474747475,516.7676767676768 717.0101010101009,507.23232323232327 726.5454545454545,497.69696969696975 736.0808080808081,488.1616161616163" fill="none" stroke="rgba(255,0,0,0.75)" stroke-width="11.327999999999996"/></g><g><polyline data-points="2.373737373737375,0.2525252525252529 2.4747474747474754,0.2525252525252529 2.575757575757577,0.2525252525252529 2.676767676767678,0.2525252525252529 2.7777777777777786,0.2525252525252529 2.87878787878788,0.2525252525252529 2.9797979797979806,0.2525252525252529 3.080808080808082,0.2525252525252529 3.181818181818183,0.2525252525252529 3.2828282828282833,0.2525252525252529 3.383838383838384,0.2525252525252529 3.4848484848484866,0.2525252525252529 3.5858585858585874,0.2525252525252529 3.6868686868686877,0.2525252525252529 3.7878787878787885,0.3535353535353544 3.8888888888888893,0.4545454545454551 3.989898989898992,0.5555555555555567" data-type="line" data-label="" points="736.0808080808081,488.1616161616163 745.6161616161615,488.1616161616163 755.1515151515151,488.1616161616163 764.6868686868686,488.1616161616163 774.2222222222222,488.1616161616163 783.7575757575758,488.1616161616163 793.2929292929292,488.1616161616163 802.8282828282828,488.1616161616163 812.3636363636363,488.1616161616163 821.8989898989898,488.1616161616163 831.4343434343433,488.1616161616163 840.969696969697,488.1616161616163 850.5050505050505,488.1616161616163 860.0404040404039,488.1616161616163 869.5757575757575,478.6262626262627 879.111111111111,469.0909090909092 888.6464646464647,459.5555555555556" fill="none" stroke="rgba(0,0,255,0.75)" stroke-width="11.327999999999996"/></g><g><polyline data-points="3.989898989898992,0.5555555555555567 4.090909090909092,0.4545454545454551 4.191919191919193,0.3535353535353544 4.292929292929293,0.2525252525252529 4.292929292929293,0.1515151515151522 4.393939393939394,0.050505050505051545 4.494949494949497,-0.05050505050505001 4.595959595959597,-0.15151515151515066 4.696969696969697,-0.2525252525252522 4.7979797979797985,-0.35353535353535287 4.898989898989901,-0.4545454545454544 5.000000000000002,-0.555555555555555 5.000000000000002,-0.6565656565656557 5.000000000000002,-0.7575757575757572 5.000000000000002,-0.8585858585858579 5.000000000000002,-0.9595959595959596 5.000000000000002,-1.0606060606060603 5.000000000000002,-1.1616161616161613 5.000000000000002,-1.2626262626262625 5.000000000000002,-1.363636363636363 5.000000000000002,-1.4646464646464643 5.000000000000002,-1.5656565656565653 5.000000000000002,-1.6666666666666665 5.000000000000002,-1.7676767676767675 5.000000000000002,-1.8686868686868683 5.000000000000002,-1.9696969696969693 5.000000000000002,-2.07070707070707 5.000000000000002,-2.1717171717171713 5.000000000000002,-2.2727272727272725 5.000000000000002,-2.3737373737373733 5.000000000000002,-2.474747474747474 5.000000000000002,-2.5757575757575752 5.000000000000002,-2.6767676767676765 5.000000000000002,-2.7777777777777777 5.000000000000002,-2.8787878787878785 5.000000000000002,-2.9797979797979792 5.000000000000002,-3.0808080808080804 5.000000000000002,-3.1818181818181817 5.000000000000002,-3.2828282828282824" data-type="line" data-label="" points="888.6464646464647,459.5555555555556 898.181818181818,469.0909090909092 907.7171717171716,478.6262626262627 917.2525252525251,488.1616161616163 917.2525252525251,497.69696969696975 926.7878787878785,507.23232323232327 936.3232323232323,516.7676767676768 945.8585858585857,526.3030303030304 955.3939393939393,535.838383838384 964.9292929292927,545.3737373737374 974.4646464646464,554.909090909091 984,564.4444444444445 984,573.979797979798 984,583.5151515151516 984,593.0505050505051 984,602.5858585858587 984,612.1212121212121 984,621.6565656565657 984,631.1919191919193 984,640.7272727272727 984,650.2626262626263 984,659.7979797979798 984,669.3333333333334 984,678.8686868686868 984,688.4040404040404 984,697.939393939394 984,707.4747474747475 984,717.010101010101 984,726.5454545454545 984,736.0808080808081 984,745.6161616161615 984,755.1515151515151 984,764.6868686868687 984,774.2222222222222 984,783.7575757575758 984,793.2929292929292 984,802.8282828282828 984,812.3636363636363 984,821.8989898989898" fill="none" stroke="rgba(255,0,0,0.75)" stroke-width="11.327999999999996"/></g><g><polyline data-points="-5.000000000000001,-0.8585858585858579 -4.898989898989899,-0.7575757575757572 -4.7979797979797985,-0.6565656565656557 -4.696969696969697,-0.555555555555555 -4.595959595959596,-0.555555555555555 -4.494949494949496,-0.555555555555555 -4.393939393939394,-0.555555555555555 -4.292929292929293,-0.555555555555555 -4.191919191919193,-0.555555555555555 -4.090909090909091,-0.555555555555555 -3.98989898989899,-0.555555555555555 -3.8888888888888884,-0.555555555555555 -3.7878787878787876,-0.555555555555555 -3.6868686868686864,-0.555555555555555 -3.5858585858585856,-0.555555555555555 -3.484848484848485,-0.555555555555555 -3.383838383838383,-0.555555555555555 -3.2828282828282824,-0.555555555555555 -3.1818181818181817,-0.555555555555555 -3.0808080808080804,-0.555555555555555 -2.9797979797979792,-0.555555555555555 -2.8787878787878785,-0.555555555555555 -2.7777777777777777,-0.555555555555555 -2.6767676767676765,-0.555555555555555 -2.5757575757575752,-0.555555555555555 -2.474747474747474,-0.555555555555555 -2.3737373737373733,-0.555555555555555 -2.2727272727272725,-0.555555555555555 -2.1717171717171713,-0.555555555555555 -2.07070707070707,-0.555555555555555 -1.9696969696969693,-0.555555555555555 -1.8686868686868683,-0.555555555555555 -1.7676767676767675,-0.555555555555555 -1.6666666666666665,-0.555555555555555 -1.5656565656565653,-0.555555555555555 -1.4646464646464643,-0.555555555555555 -1.363636363636363,-0.555555555555555 -1.2626262626262625,-0.555555555555555 -1.1616161616161613,-0.555555555555555 -1.0606060606060603,-0.555555555555555 -0.9595959595959596,-0.555555555555555 -0.8585858585858579,-0.555555555555555 -0.7575757575757572,-0.555555555555555 -0.6565656565656557,-0.555555555555555 -0.555555555555555,-0.555555555555555 -0.4545454545454544,-0.555555555555555 -0.35353535353535287,-0.555555555555555 -0.2525252525252522,-0.555555555555555 -0.15151515151515066,-0.555555555555555 -0.05050505050505001,-0.555555555555555 0.050505050505051545,-0.555555555555555 0.1515151515151522,-0.555555555555555 0.2525252525252529,-0.555555555555555 0.3535353535353544,-0.555555555555555 0.4545454545454551,-0.555555555555555 0.5555555555555567,-0.555555555555555 0.6565656565656574,-0.555555555555555 0.7575757575757579,-0.555555555555555 0.8585858585858596,-0.555555555555555 0.9595959595959602,-0.555555555555555" data-type="line" data-label="" points="40.00000000000006,593.0505050505051 49.53535353535369,583.5151515151516 59.07070707070716,573.979797979798 68.60606060606068,564.4444444444445 78.14141414141426,564.4444444444445 87.67676767676772,564.4444444444445 97.21212121212136,564.4444444444445 106.74747474747483,564.4444444444445 116.28282828282829,564.4444444444445 125.81818181818193,564.4444444444445 135.35353535353545,564.4444444444445 144.88888888888903,564.4444444444445 154.42424242424255,564.4444444444445 163.95959595959607,564.4444444444445 173.4949494949496,564.4444444444445 183.03030303030312,564.4444444444445 192.5656565656567,564.4444444444445 202.10101010101022,564.4444444444445 211.63636363636374,564.4444444444445 221.17171717171726,564.4444444444445 230.70707070707084,564.4444444444445 240.2424242424243,564.4444444444445 249.77777777777783,564.4444444444445 259.3131313131314,564.4444444444445 268.84848484848493,564.4444444444445 278.38383838383845,564.4444444444445 287.91919191919203,564.4444444444445 297.4545454545455,564.4444444444445 306.9898989898991,564.4444444444445 316.5252525252526,564.4444444444445 326.0606060606061,564.4444444444445 335.59595959595964,564.4444444444445 345.13131313131316,564.4444444444445 354.6666666666667,564.4444444444445 364.2020202020202,564.4444444444445 373.7373737373738,564.4444444444445 383.2727272727273,564.4444444444445 392.80808080808083,564.4444444444445 402.34343434343435,564.4444444444445 411.8787878787879,564.4444444444445 421.4141414141414,564.4444444444445 430.949494949495,564.4444444444445 440.4848484848485,564.4444444444445 450.0202020202021,564.4444444444445 459.55555555555554,564.4444444444445 469.09090909090907,564.4444444444445 478.62626262626264,564.4444444444445 488.16161616161617,564.4444444444445 497.69696969696975,564.4444444444445 507.2323232323232,564.4444444444445 516.7676767676768,564.4444444444445 526.3030303030303,564.4444444444445 535.8383838383838,564.4444444444445 545.3737373737374,564.4444444444445 554.9090909090909,564.4444444444445 564.4444444444445,564.4444444444445 573.9797979797979,564.4444444444445 583.5151515151515,564.4444444444445 593.0505050505051,564.4444444444445 602.5858585858585,564.4444444444445" fill="none" stroke="rgba(0,0,255,0.75)" stroke-width="11.327999999999996"/></g><g><polyline data-points="0.9595959595959602,-0.555555555555555 1.0606060606060617,-0.4545454545454544 1.1616161616161622,-0.35353535353535287 1.262626262626263,-0.2525252525252522 1.3636363636363644,-0.15151515151515066 1.4646464646464652,-0.05050505050505001 1.5656565656565666,0.050505050505051545 1.6666666666666674,0.1515151515151522 1.767676767676768,0.2525252525252529 1.8686868686868696,0.3535353535353544 1.9696969696969702,0.4545454545454551 2.070707070707072,0.5555555555555567 2.1717171717171726,0.6565656565656574 2.2727272727272734,0.7575757575757579 2.373737373737375,0.8585858585858596 2.373737373737375,0.9595959595959602 2.373737373737375,1.0606060606060617 2.373737373737375,1.1616161616161622 2.373737373737375,1.262626262626263 2.373737373737375,1.3636363636363644 2.373737373737375,1.4646464646464652 2.373737373737375,1.5656565656565666 2.373737373737375,1.6666666666666674 2.373737373737375,1.767676767676768 2.373737373737375,1.8686868686868696 2.373737373737375,1.9696969696969702 2.373737373737375,2.070707070707072 2.373737373737375,2.1717171717171726 2.373737373737375,2.2727272727272734 2.373737373737375,2.373737373737375 2.373737373737375,2.4747474747474754 2.373737373737375,2.575757575757577 2.373737373737375,2.676767676767678 2.373737373737375,2.7777777777777786 2.373737373737375,2.87878787878788 2.373737373737375,2.9797979797979806 2.373737373737375,3.080808080808082 2.373737373737375,3.181818181818183 2.373737373737375,3.2828282828282833 2.373737373737375,3.383838383838384 2.373737373737375,3.4848484848484866 2.373737373737375,3.5858585858585874 2.373737373737375,3.6868686868686877 2.373737373737375,3.7878787878787885 2.373737373737375,3.8888888888888893 2.373737373737375,3.989898989898992" data-type="line" data-label="" points="602.5858585858585,564.4444444444445 612.1212121212121,554.909090909091 621.6565656565656,545.3737373737374 631.1919191919192,535.838383838384 640.7272727272727,526.3030303030304 650.2626262626262,516.7676767676768 659.7979797979798,507.23232323232327 669.3333333333333,497.69696969696975 678.8686868686868,488.1616161616163 688.4040404040404,478.6262626262627 697.9393939393939,469.0909090909092 707.4747474747475,459.5555555555556 717.0101010101009,450.0202020202021 726.5454545454545,440.4848484848486 736.0808080808081,430.94949494949503 736.0808080808081,421.4141414141415 736.0808080808081,411.87878787878793 736.0808080808081,402.3434343434344 736.0808080808081,392.80808080808094 736.0808080808081,383.27272727272737 736.0808080808081,373.73737373737384 736.0808080808081,364.2020202020203 736.0808080808081,354.66666666666674 736.0808080808081,345.1313131313133 736.0808080808081,335.5959595959597 736.0808080808081,326.06060606060623 736.0808080808081,316.5252525252526 736.0808080808081,306.9898989898991 736.0808080808081,297.4545454545456 736.0808080808081,287.91919191919203 736.0808080808081,278.38383838383857 736.0808080808081,268.84848484848493 736.0808080808081,259.3131313131314 736.0808080808081,249.77777777777794 736.0808080808081,240.24242424242436 736.0808080808081,230.70707070707084 736.0808080808081,221.17171717171726 736.0808080808081,211.63636363636374 736.0808080808081,202.10101010101027 736.0808080808081,192.56565656565675 736.0808080808081,183.03030303030312 736.0808080808081,173.4949494949496 736.0808080808081,163.95959595959613 736.0808080808081,154.4242424242426 736.0808080808081,144.88888888888908 736.0808080808081,135.35353535353545" fill="none" stroke="rgba(255,0,0,0.75)" stroke-width="11.327999999999996"/></g><g><polyline data-points="2.373737373737375,3.989898989898992 2.4747474747474754,4.090909090909092 2.575757575757577,4.191919191919193 2.676767676767678,4.292929292929293 2.7777777777777786,4.393939393939394 2.87878787878788,4.494949494949497 2.9797979797979806,4.595959595959597 3.080808080808082,4.696969696969697 3.181818181818183,4.7979797979797985 3.2828282828282833,4.898989898989901 3.383838383838384,5.000000000000002 3.4848484848484866,5.000000000000002 3.5858585858585874,5.000000000000002 3.6868686868686877,5.000000000000002 3.7878787878787885,5.000000000000002 3.8888888888888893,5.000000000000002 3.989898989898992,5.000000000000002 4.090909090909092,5.000000000000002 4.191919191919193,5.000000000000002 4.292929292929293,5.000000000000002 4.393939393939394,5.000000000000002 4.494949494949497,5.000000000000002 4.595959595959597,5.000000000000002 4.696969696969697,5.000000000000002 4.7979797979797985,5.000000000000002 4.898989898989901,5.000000000000002 5.000000000000002,5.000000000000002" data-type="line" data-label="" points="736.0808080808081,135.35353535353545 745.6161616161615,125.81818181818198 755.1515151515151,116.28282828282846 764.6868686868686,106.747474747475 774.2222222222222,97.21212121212153 783.7575757575758,87.67676767676778 793.2929292929292,78.14141414141432 802.8282828282828,68.60606060606085 812.3636363636363,59.07070707070733 821.8989898989898,49.53535353535369 831.4343434343433,40.000000000000114 840.969696969697,40.000000000000114 850.5050505050505,40.000000000000114 860.0404040404039,40.000000000000114 869.5757575757575,40.000000000000114 879.111111111111,40.000000000000114 888.6464646464647,40.000000000000114 898.181818181818,40.000000000000114 907.7171717171716,40.000000000000114 917.2525252525251,40.000000000000114 926.7878787878785,40.000000000000114 936.3232323232323,40.000000000000114 945.8585858585857,40.000000000000114 955.3939393939393,40.000000000000114 964.9292929292927,40.000000000000114 974.4646464646464,40.000000000000114 984,40.000000000000114" fill="none" stroke="rgba(0,0,255,0.75)" stroke-width="11.327999999999996"/></g><g><polyline data-points="2.1717171717171726,-5.000000000000001 2.070707070707072,-4.898989898989899 1.9696969696969702,-4.7979797979797985 1.8686868686868696,-4.696969696969697 1.767676767676768,-4.595959595959596 1.6666666666666674,-4.494949494949496 1.5656565656565666,-4.393939393939394 1.4646464646464652,-4.292929292929293 1.3636363636363644,-4.191919191919193 1.262626262626263,-4.090909090909091 1.1616161616161622,-3.98989898989899 1.0606060606060617,-3.8888888888888884 0.9595959595959602,-3.7878787878787876 0.8585858585858596,-3.6868686868686864 0.7575757575757579,-3.5858585858585856 0.6565656565656574,-3.484848484848485 0.5555555555555567,-3.383838383838383 0.4545454545454551,-3.2828282828282824 0.3535353535353544,-3.1818181818181817 0.2525252525252529,-3.0808080808080804 0.1515151515151522,-2.9797979797979792 0.050505050505051545,-2.8787878787878785 -0.05050505050505001,-2.7777777777777777 -0.15151515151515066,-2.6767676767676765 -0.2525252525252522,-2.5757575757575752 -0.35353535353535287,-2.474747474747474 -0.4545454545454544,-2.3737373737373733 -0.555555555555555,-2.2727272727272725 -0.6565656565656557,-2.1717171717171713 -0.7575757575757572,-2.07070707070707 -0.8585858585858579,-1.9696969696969693 -0.9595959595959596,-1.8686868686868683 -1.0606060606060603,-1.7676767676767675 -1.1616161616161613,-1.6666666666666665 -1.2626262626262625,-1.5656565656565653 -1.363636363636363,-1.4646464646464643 -1.4646464646464643,-1.363636363636363 -1.5656565656565653,-1.363636363636363 -1.6666666666666665,-1.363636363636363 -1.7676767676767675,-1.363636363636363 -1.8686868686868683,-1.363636363636363 -1.9696969696969693,-1.363636363636363 -2.07070707070707,-1.363636363636363 -2.1717171717171713,-1.363636363636363 -2.2727272727272725,-1.363636363636363 -2.3737373737373733,-1.363636363636363 -2.474747474747474,-1.363636363636363 -2.5757575757575752,-1.363636363636363 -2.6767676767676765,-1.363636363636363 -2.7777777777777777,-1.363636363636363 -2.8787878787878785,-1.363636363636363 -2.9797979797979792,-1.363636363636363 -3.0808080808080804,-1.363636363636363 -3.1818181818181817,-1.363636363636363 -3.2828282828282824,-1.363636363636363 -3.383838383838383,-1.363636363636363 -3.484848484848485,-1.363636363636363 -3.5858585858585856,-1.363636363636363 -3.6868686868686864,-1.363636363636363 -3.7878787878787876,-1.363636363636363 -3.8888888888888884,-1.363636363636363 -3.98989898989899,-1.363636363636363 -4.090909090909091,-1.2626262626262625 -4.191919191919193,-1.1616161616161613 -4.292929292929293,-1.0606060606060603 -4.191919191919193,-0.9595959595959596 -4.090909090909091,-0.8585858585858579 -3.98989898989899,-0.7575757575757572 -3.8888888888888884,-0.6565656565656557 -3.7878787878787876,-0.555555555555555 -3.7878787878787876,-0.4545454545454544 -3.7878787878787876,-0.35353535353535287 -3.7878787878787876,-0.2525252525252522 -3.7878787878787876,-0.15151515151515066 -3.7878787878787876,-0.05050505050505001 -3.7878787878787876,0.050505050505051545 -3.7878787878787876,0.1515151515151522 -3.7878787878787876,0.2525252525252529 -3.7878787878787876,0.3535353535353544 -3.7878787878787876,0.4545454545454551 -3.7878787878787876,0.5555555555555567 -3.7878787878787876,0.6565656565656574 -3.7878787878787876,0.7575757575757579 -3.7878787878787876,0.8585858585858596 -3.7878787878787876,0.9595959595959602 -3.7878787878787876,1.0606060606060617 -3.7878787878787876,1.1616161616161622 -3.7878787878787876,1.262626262626263 -3.7878787878787876,1.3636363636363644 -3.7878787878787876,1.4646464646464652 -3.7878787878787876,1.5656565656565666 -3.7878787878787876,1.6666666666666674 -3.7878787878787876,1.767676767676768 -3.7878787878787876,1.8686868686868696 -3.7878787878787876,1.9696969696969702 -3.7878787878787876,2.070707070707072 -3.7878787878787876,2.1717171717171726 -3.7878787878787876,2.2727272727272734 -3.7878787878787876,2.373737373737375 -3.7878787878787876,2.4747474747474754 -3.7878787878787876,2.575757575757577 -3.7878787878787876,2.676767676767678 -3.7878787878787876,2.7777777777777786 -3.7878787878787876,2.87878787878788 -3.7878787878787876,2.9797979797979806 -3.7878787878787876,3.080808080808082 -3.7878787878787876,3.181818181818183 -3.7878787878787876,3.2828282828282833 -3.7878787878787876,3.383838383838384 -3.7878787878787876,3.4848484848484866 -3.7878787878787876,3.5858585858585874 -3.7878787878787876,3.6868686868686877 -3.7878787878787876,3.7878787878787885 -3.7878787878787876,3.8888888888888893 -3.7878787878787876,3.989898989898992 -3.7878787878787876,4.090909090909092 -3.7878787878787876,4.191919191919193 -3.7878787878787876,4.292929292929293 -3.7878787878787876,4.393939393939394 -3.7878787878787876,4.494949494949497 -3.7878787878787876,4.595959595959597 -3.7878787878787876,4.696969696969697 -3.7878787878787876,4.7979797979797985 -3.7878787878787876,4.898989898989901 -3.7878787878787876,5.000000000000002" data-type="line" data-label="" points="717.0101010101009,984 707.4747474747475,974.4646464646464 697.9393939393939,964.9292929292928 688.4040404040404,955.3939393939394 678.8686868686868,945.8585858585858 669.3333333333333,936.3232323232323 659.7979797979798,926.7878787878788 650.2626262626262,917.2525252525252 640.7272727272727,907.7171717171718 631.1919191919192,898.1818181818181 621.6565656565656,888.6464646464647 612.1212121212121,879.1111111111111 602.5858585858585,869.5757575757575 593.0505050505051,860.0404040404039 583.5151515151515,850.5050505050505 573.9797979797979,840.969696969697 564.4444444444445,831.4343434343434 554.9090909090909,821.8989898989898 545.3737373737374,812.3636363636363 535.8383838383838,802.8282828282828 526.3030303030303,793.2929292929292 516.7676767676768,783.7575757575758 507.2323232323232,774.2222222222222 497.69696969696975,764.6868686868687 488.16161616161617,755.1515151515151 478.62626262626264,745.6161616161615 469.09090909090907,736.0808080808081 459.55555555555554,726.5454545454545 450.0202020202021,717.010101010101 440.4848484848485,707.4747474747475 430.949494949495,697.939393939394 421.4141414141414,688.4040404040404 411.8787878787879,678.8686868686868 402.34343434343435,669.3333333333334 392.80808080808083,659.7979797979798 383.2727272727273,650.2626262626263 373.7373737373738,640.7272727272727 364.2020202020202,640.7272727272727 354.6666666666667,640.7272727272727 345.13131313131316,640.7272727272727 335.59595959595964,640.7272727272727 326.0606060606061,640.7272727272727 316.5252525252526,640.7272727272727 306.9898989898991,640.7272727272727 297.4545454545455,640.7272727272727 287.91919191919203,640.7272727272727 278.38383838383845,640.7272727272727 268.84848484848493,640.7272727272727 259.3131313131314,640.7272727272727 249.77777777777783,640.7272727272727 240.2424242424243,640.7272727272727 230.70707070707084,640.7272727272727 221.17171717171726,640.7272727272727 211.63636363636374,640.7272727272727 202.10101010101022,640.7272727272727 192.5656565656567,640.7272727272727 183.03030303030312,640.7272727272727 173.4949494949496,640.7272727272727 163.95959595959607,640.7272727272727 154.42424242424255,640.7272727272727 144.88888888888903,640.7272727272727 135.35353535353545,640.7272727272727 125.81818181818193,631.1919191919193 116.28282828282829,621.6565656565657 106.74747474747483,612.1212121212121 116.28282828282829,602.5858585858587 125.81818181818193,593.0505050505051 135.35353535353545,583.5151515151516 144.88888888888903,573.979797979798 154.42424242424255,564.4444444444445 154.42424242424255,554.909090909091 154.42424242424255,545.3737373737374 154.42424242424255,535.838383838384 154.42424242424255,526.3030303030304 154.42424242424255,516.7676767676768 154.42424242424255,507.23232323232327 154.42424242424255,497.69696969696975 154.42424242424255,488.1616161616163 154.42424242424255,478.6262626262627 154.42424242424255,469.0909090909092 154.42424242424255,459.5555555555556 154.42424242424255,450.0202020202021 154.42424242424255,440.4848484848486 154.42424242424255,430.94949494949503 154.42424242424255,421.4141414141415 154.42424242424255,411.87878787878793 154.42424242424255,402.3434343434344 154.42424242424255,392.80808080808094 154.42424242424255,383.27272727272737 154.42424242424255,373.73737373737384 154.42424242424255,364.2020202020203 154.42424242424255,354.66666666666674 154.42424242424255,345.1313131313133 154.42424242424255,335.5959595959597 154.42424242424255,326.06060606060623 154.42424242424255,316.5252525252526 154.42424242424255,306.9898989898991 154.42424242424255,297.4545454545456 154.42424242424255,287.91919191919203 154.42424242424255,278.38383838383857 154.42424242424255,268.84848484848493 154.42424242424255,259.3131313131314 154.42424242424255,249.77777777777794 154.42424242424255,240.24242424242436 154.42424242424255,230.70707070707084 154.42424242424255,221.17171717171726 154.42424242424255,211.63636363636374 154.42424242424255,202.10101010101027 154.42424242424255,192.56565656565675 154.42424242424255,183.03030303030312 154.42424242424255,173.4949494949496 154.42424242424255,163.95959595959613 154.42424242424255,154.4242424242426 154.42424242424255,144.88888888888908 154.42424242424255,135.35353535353545 154.42424242424255,125.81818181818198 154.42424242424255,116.28282828282846 154.42424242424255,106.747474747475 154.42424242424255,97.21212121212153 154.42424242424255,87.67676767676778 154.42424242424255,78.14141414141432 154.42424242424255,68.60606060606085 154.42424242424255,59.07070707070733 154.42424242424255,49.53535353535369 154.42424242424255,40.000000000000114" fill="none" stroke="rgba(255,0,0,0.75)" stroke-width="11.327999999999996"/></g><g><polyline data-points="-5.000000000000001,-3.2828282828282824 -5.000000000000001,-3.383838383838383 -5.000000000000001,-3.484848484848485 -5.000000000000001,-3.5858585858585856 -5.000000000000001,-3.6868686868686864 -5.000000000000001,-3.7878787878787876 -5.000000000000001,-3.8888888888888884 -5.000000000000001,-3.98989898989899 -5.000000000000001,-4.090909090909091 -5.000000000000001,-4.191919191919193 -5.000000000000001,-4.292929292929293 -5.000000000000001,-4.393939393939394 -5.000000000000001,-4.494949494949496 -5.000000000000001,-4.595959595959596 -5.000000000000001,-4.696969696969697 -5.000000000000001,-4.7979797979797985 -5.000000000000001,-4.898989898989899" data-type="line" data-label="" points="40.00000000000006,821.8989898989898 40.00000000000006,831.4343434343434 40.00000000000006,840.969696969697 40.00000000000006,850.5050505050505 40.00000000000006,860.0404040404039 40.00000000000006,869.5757575757575 40.00000000000006,879.1111111111111 40.00000000000006,888.6464646464647 40.00000000000006,898.1818181818181 40.00000000000006,907.7171717171718 40.00000000000006,917.2525252525252 40.00000000000006,926.7878787878788 40.00000000000006,936.3232323232323 40.00000000000006,945.8585858585858 40.00000000000006,955.3939393939394 40.00000000000006,964.9292929292928 40.00000000000006,974.4646464646464" fill="none" stroke="rgba(255,0,0,0.75)" stroke-width="11.327999999999996"/></g><g><polyline data-points="5.000000000000002,0.7575757575757579 5.000000000000002,0.6565656565656574 4.898989898989901,0.5555555555555567 4.7979797979797985,0.4545454545454551 4.696969696969697,0.3535353535353544 4.595959595959597,0.2525252525252529 4.494949494949497,0.1515151515151522 4.393939393939394,0.050505050505051545 4.292929292929293,-0.05050505050505001 4.191919191919193,-0.15151515151515066 4.090909090909092,-0.2525252525252522 3.989898989898992,-0.35353535353535287 3.8888888888888893,-0.4545454545454544 3.7878787878787885,-0.555555555555555 3.6868686868686877,-0.6565656565656557 3.5858585858585874,-0.7575757575757572 3.4848484848484866,-0.8585858585858579 3.383838383838384,-0.9595959595959596 3.383838383838384,-1.0606060606060603 3.383838383838384,-1.1616161616161613 3.383838383838384,-1.2626262626262625 3.383838383838384,-1.363636363636363 3.383838383838384,-1.4646464646464643 3.383838383838384,-1.5656565656565653 3.383838383838384,-1.6666666666666665 3.383838383838384,-1.7676767676767675 3.383838383838384,-1.8686868686868683 3.383838383838384,-1.9696969696969693 3.383838383838384,-2.07070707070707 3.383838383838384,-2.1717171717171713 3.383838383838384,-2.2727272727272725 3.383838383838384,-2.3737373737373733 3.383838383838384,-2.474747474747474 3.383838383838384,-2.5757575757575752 3.383838383838384,-2.6767676767676765 3.383838383838384,-2.7777777777777777 3.383838383838384,-2.8787878787878785 3.383838383838384,-2.9797979797979792 3.4848484848484866,-3.0808080808080804 3.5858585858585874,-3.1818181818181817 3.6868686868686877,-3.2828282828282824" data-type="line" data-label="" points="984,440.4848484848486 984,450.0202020202021 974.4646464646464,459.5555555555556 964.9292929292927,469.0909090909092 955.3939393939393,478.6262626262627 945.8585858585857,488.1616161616163 936.3232323232323,497.69696969696975 926.7878787878785,507.23232323232327 917.2525252525251,516.7676767676768 907.7171717171716,526.3030303030304 898.181818181818,535.838383838384 888.6464646464647,545.3737373737374 879.111111111111,554.909090909091 869.5757575757575,564.4444444444445 860.0404040404039,573.979797979798 850.5050505050505,583.5151515151516 840.969696969697,593.0505050505051 831.4343434343433,602.5858585858587 831.4343434343433,612.1212121212121 831.4343434343433,621.6565656565657 831.4343434343433,631.1919191919193 831.4343434343433,640.7272727272727 831.4343434343433,650.2626262626263 831.4343434343433,659.7979797979798 831.4343434343433,669.3333333333334 831.4343434343433,678.8686868686868 831.4343434343433,688.4040404040404 831.4343434343433,697.939393939394 831.4343434343433,707.4747474747475 831.4343434343433,717.010101010101 831.4343434343433,726.5454545454545 831.4343434343433,736.0808080808081 831.4343434343433,745.6161616161615 831.4343434343433,755.1515151515151 831.4343434343433,764.6868686868687 831.4343434343433,774.2222222222222 831.4343434343433,783.7575757575758 831.4343434343433,793.2929292929292 840.969696969697,802.8282828282828 850.5050505050505,812.3636363636363 860.0404040404039,821.8989898989898" fill="none" stroke="rgba(0,0,255,0.75)" stroke-width="11.327999999999996"/></g><g><polyline data-points="3.6868686868686877,-3.2828282828282824 3.5858585858585874,-3.383838383838383 3.5858585858585874,-3.484848484848485 3.5858585858585874,-3.5858585858585856 3.5858585858585874,-3.6868686868686864 3.5858585858585874,-3.7878787878787876 3.5858585858585874,-3.8888888888888884 3.5858585858585874,-3.98989898989899 3.4848484848484866,-4.090909090909091 3.383838383838384,-4.191919191919193 3.2828282828282833,-4.292929292929293 3.181818181818183,-4.393939393939394 3.080808080808082,-4.494949494949496 2.9797979797979806,-4.595959595959596 2.87878787878788,-4.696969696969697 2.87878787878788,-4.7979797979797985 2.87878787878788,-4.898989898989899 2.7777777777777786,-5.000000000000001" data-type="line" data-label="" points="860.0404040404039,821.8989898989898 850.5050505050505,831.4343434343434 850.5050505050505,840.969696969697 850.5050505050505,850.5050505050505 850.5050505050505,860.0404040404039 850.5050505050505,869.5757575757575 850.5050505050505,879.1111111111111 850.5050505050505,888.6464646464647 840.969696969697,898.1818181818181 831.4343434343433,907.7171717171718 821.8989898989898,917.2525252525252 812.3636363636363,926.7878787878788 802.8282828282828,936.3232323232323 793.2929292929292,945.8585858585858 783.7575757575758,955.3939393939394 783.7575757575758,964.9292929292928 783.7575757575758,974.4646464646464 774.2222222222222,984" fill="none" stroke="rgba(255,0,0,0.75)" stroke-width="11.327999999999996"/></g><g><rect data-type="rect" data-label="" data-x="0" data-y="0" x="40.000000000000114" y="40.000000000000284" width="943.9999999999997" height="943.9999999999998" fill="none" stroke="gray" stroke-width="0.010593220338983056"/></g><g><rect data-type="rect" data-label="" data-x="0" data-y="0" x="40.000000000000114" y="40.000000000000284" width="943.9999999999997" height="943.9999999999998" fill="none" stroke="rgba(15, 23, 42, 0.8)" stroke-width="0.010593220338983056"/></g><circle data-type="circle" data-label="" data-x="3.6868686868686877" data-y="-1.0606060606060603" cx="860.0404040404039" cy="612.1212121212121" r="14.159999999999995" fill="rgba(0,0,0,0.3)" stroke="black" stroke-width="0.010593220338983056"/><circle data-type="circle" data-label="" data-x="-3.98989898989899" data-y="-1.0606060606060603" cx="135.35353535353545" cy="612.1212121212121" r="14.159999999999995" fill="rgba(0,0,0,0.3)" stroke="black" stroke-width="0.010593220338983056"/><circle data-type="circle" data-label="" data-x="3.2828282828282833" data-y="-3.98989898989899" cx="821.8989898989898" cy="888.6464646464647" r="14.159999999999995" fill="rgba(0,0,0,0.3)" stroke="black" stroke-width="0.010593220338983056"/><circle data-type="circle" data-label="" data-x="3.8888888888888893" data-y="0.1515151515151522" cx="879.111111111111" cy="497.69696969696975" r="14.159999999999995" fill="rgba(0,0,0,0.3)" stroke="black" stroke-width="0.010593220338983056"/><circle data-type="circle" data-label="" data-x="2.7777777777777786" data-y="-0.555555555555555" cx="774.2222222222222" cy="564.4444444444445" r="14.159999999999995" fill="rgba(0,0,0,0.3)" stroke="black" stroke-width="0.010593220338983056"/><circle data-type="circle" data-label="" data-x="1.4646464646464652" data-y="-0.6565656565656557" cx="650.2626262626262" cy="573.979797979798" r="14.159999999999995" fill="rgba(0,0,0,0.3)" stroke="black" stroke-width="0.010593220338983056"/><circle data-type="circle" data-label="" data-x="2.373737373737375" data-y="0.2525252525252529" cx="736.0808080808081" cy="488.1616161616163" r="14.159999999999995" fill="rgba(0,0,0,0.3)" stroke="black" stroke-width="0.010593220338983056"/><circle data-type="circle" data-label="" data-x="3.989898989898992" data-y="0.5555555555555567" cx="888.6464646464647" cy="459.5555555555556" r="14.159999999999995" fill="rgba(0,0,0,0.3)" stroke="black" stroke-width="0.010593220338983056"/><circle data-type="circle" data-label="" data-x="0.9595959595959602" data-y="-0.555555555555555" cx="602.5858585858585" cy="564.4444444444445" r="14.159999999999995" fill="rgba(0,0,0,0.3)" stroke="black" stroke-width="0.010593220338983056"/><circle data-type="circle" data-label="" data-x="2.373737373737375" data-y="3.989898989898992" cx="736.0808080808081" cy="135.35353535353545" r="14.159999999999995" fill="rgba(0,0,0,0.3)" stroke="black" stroke-width="0.010593220338983056"/><circle data-type="circle" data-label="" data-x="3.6868686868686877" data-y="-3.2828282828282824" cx="860.0404040404039" cy="821.8989898989898" r="14.159999999999995" fill="rgba(0,0,0,0.3)" stroke="black" stroke-width="0.010593220338983056"/><g id="crosshair" style="display: none"><line id="crosshair-h" y1="0" y2="1024" stroke="#666" stroke-width="0.5"/><line id="crosshair-v" x1="0" x2="1024" stroke="#666" stroke-width="0.5"/><text id="coordinates" font-family="monospace" font-size="12" fill="#666"></text></g><script><![CDATA[
              document.currentScript.parentElement.addEventListener('mousemove', (e) => {
                const svg = e.currentTarget;
                const rect = svg.getBoundingClientRect();
                const x = e.clientX - rect.left;
                const y = e.clientY - rect.top;
                const crosshair = svg.getElementById('crosshair');
                const h = svg.getElementById('crosshair-h');
                const v = svg.getElementById('crosshair-v');
                const coords = svg.getElementById('coordinates');
                
                crosshair.style.display = 'block';
                h.setAttribute('x1', '0');
                h.setAttribute('x2', '1024');
                h.setAttribute('y1', y);
                h.setAttribute('y2', y);
                v.setAttribute('x1', x);
                v.setAttribute('x2', x);
                v.setAttribute('y1', '0');
                v.setAttribute('y2', '1024');

                // Calculate real coordinates using inverse transformation
                const matrix = {"a":94.39999999999996,"c":0,"e":511.99999999999994,"b":0,"d":-94.39999999999996,"f":512.0000000000001};
                // Manually invert and apply the affine transform
                // Since we only use translate and scale, we can directly compute:
                // x' = (x - tx) / sx
                // y' = (y - ty) / sy
                const sx = matrix.a;
                const sy = matrix.d;
                const tx = matrix.e; 
                const ty = matrix.f;
                const realPoint = {
                  x: (x - tx) / sx,
                  y: (y - ty) / sy // Flip y back since we used negative scale
                }
                
                coords.textContent = `(${realPoint.x.toFixed(2)}, ${realPoint.y.toFixed(2)})`;
                coords.setAttribute('x', (x + 5).toString());
                coords.setAttribute('y', (y - 5).toString());
              });
              document.currentScript.parentElement.addEventListener('mouseleave', () => {
                document.currentScript.parentElement.getElementById('crosshair').style.display = 'none';
              });
            ]]></script></svg>