<svg width="1024" height="1024" viewBox="0 0 1024 1024" xmlns="http://www.w3.org/2000/svg"><rect width="100%" height="100%" fill="white"/><g><circle data-type="point" data-label="conn_000" data-x="3.5" data-y="5" cx="842.3999999999999" cy="40.000000000000284" r="14.16" fill="blue"/></g><g><circle data-type="point" data-label="conn_000" data-x="-5" data-y="-4.98" cx="40.000000000000114" cy="982.112" r="14.16" fill="blue"/></g><g><circle data-type="point" data-label="conn_001" data-x="3.1" data-y="5" cx="804.6399999999999" cy="40.000000000000284" r="14.16" fill="red"/></g><g><circle data-type="point" data-label="conn_001" data-x="5" data-y="-0.06" cx="983.9999999999998" cy="517.6640000000001" r="14.16" fill="blue"/></g><g><circle data-type="point" data-label="conn_002" data-x="2.62" data-y="5" cx="759.3279999999999" cy="40.000000000000284" r="14.16" fill="red"/></g><g><circle data-type="point" data-label="conn_002" data-x="-1.46" data-y="-5" cx="374.176" cy="984" r="14.16" fill="red"/></g><g><circle data-type="point" data-label="conn_003" data-x="-5" data-y="-3.88" cx="40.000000000000114" cy="878.2719999999999" r="14.16" fill="blue"/></g><g><circle data-type="point" data-label="conn_003" data-x="5" data-y="-0.04" cx="983.9999999999998" cy="515.7760000000001" r="14.16" fill="red"/></g><g><circle data-type="point" data-label="conn_004" data-x="-0.16" data-y="-5" cx="496.89599999999996" cy="984" r="14.16" fill="blue"/></g><g><circle data-type="point" data-label="conn_004" data-x="-4.84" data-y="5" cx="55.104000000000156" cy="40.000000000000284" r="14.16" fill="blue"/></g><g><circle data-type="point" data-label="conn_005" data-x="-0.44" data-y="5" cx="470.46399999999994" cy="40.000000000000284" r="14.16" fill="red"/></g><g><circle data-type="point" data-label="conn_005" data-x="-1.6" data-y="-5" cx="360.96000000000004" cy="984" r="14.16" fill="blue"/></g><g><circle data-type="point" data-label="conn_006" data-x="-0.06" data-y="5" cx="506.33599999999996" cy="40.000000000000284" r="14.16" fill="blue"/></g><g><circle data-type="point" data-label="conn_006" data-x="-2.46" data-y="-5" cx="279.77600000000007" cy="984" r="14.16" fill="red"/></g><g><polyline data-points="2.676767676767678,5.000000000000002 2.575757575757577,4.898989898989901 2.4747474747474754,4.7979797979797985 2.373737373737375,4.696969696969697 2.2727272727272734,4.595959595959597 2.1717171717171726,4.494949494949497 2.070707070707072,4.393939393939394 1.9696969696969702,4.292929292929293 1.8686868686868696,4.191919191919193 1.767676767676768,4.090909090909092 1.6666666666666674,3.989898989898992 1.5656565656565666,3.8888888888888893 1.4646464646464652,3.7878787878787885 1.3636363636363644,3.6868686868686877 1.262626262626263,3.5858585858585874 1.1616161616161622,3.4848484848484866 1.0606060606060617,3.383838383838384 0.9595959595959602,3.2828282828282833 0.8585858585858596,3.181818181818183 0.7575757575757579,3.080808080808082 0.6565656565656574,2.9797979797979806 0.5555555555555567,2.87878787878788 0.4545454545454551,2.7777777777777786 0.3535353535353544,2.676767676767678 0.2525252525252529,2.575757575757577 0.1515151515151522,2.4747474747474754 0.050505050505051545,2.373737373737375 -0.05050505050505001,2.2727272727272734 -0.15151515151515066,2.1717171717171726 -0.2525252525252522,2.070707070707072 -0.35353535353535287,1.9696969696969702 -0.4545454545454544,1.8686868686868696 -0.555555555555555,1.767676767676768 -0.6565656565656557,1.6666666666666674 -0.7575757575757572,1.5656565656565666 -0.8585858585858579,1.4646464646464652 -0.9595959595959596,1.3636363636363644 -1.0606060606060603,1.262626262626263 -1.1616161616161613,1.1616161616161622 -1.2626262626262625,1.0606060606060617 -1.363636363636363,0.9595959595959602 -1.4646464646464643,0.8585858585858596 -1.4646464646464643,0.7575757575757579 -1.4646464646464643,0.6565656565656574 -1.4646464646464643,0.5555555555555567 -1.4646464646464643,0.4545454545454551 -1.4646464646464643,0.3535353535353544 -1.4646464646464643,0.2525252525252529 -1.4646464646464643,0.1515151515151522 -1.4646464646464643,0.050505050505051545 -1.4646464646464643,-0.05050505050505001 -1.4646464646464643,-0.15151515151515066 -1.4646464646464643,-0.2525252525252522 -1.4646464646464643,-0.35353535353535287 -1.4646464646464643,-0.4545454545454544 -1.4646464646464643,-0.555555555555555 -1.4646464646464643,-0.6565656565656557 -1.4646464646464643,-0.7575757575757572 -1.4646464646464643,-0.8585858585858579 -1.4646464646464643,-0.9595959595959596 -1.4646464646464643,-1.0606060606060603 -1.4646464646464643,-1.1616161616161613 -1.4646464646464643,-1.2626262626262625 -1.4646464646464643,-1.363636363636363 -1.4646464646464643,-1.4646464646464643 -1.4646464646464643,-1.5656565656565653 -1.4646464646464643,-1.6666666666666665 -1.4646464646464643,-1.7676767676767675 -1.4646464646464643,-1.8686868686868683 -1.4646464646464643,-1.9696969696969693 -1.4646464646464643,-2.07070707070707 -1.4646464646464643,-2.1717171717171713 -1.4646464646464643,-2.2727272727272725 -1.4646464646464643,-2.3737373737373733 -1.4646464646464643,-2.474747474747474 -1.4646464646464643,-2.5757575757575752 -1.4646464646464643,-2.6767676767676765 -1.4646464646464643,-2.7777777777777777 -1.4646464646464643,-2.8787878787878785 -1.4646464646464643,-2.9797979797979792 -1.4646464646464643,-3.0808080808080804 -1.4646464646464643,-3.1818181818181817 -1.4646464646464643,-3.2828282828282824 -1.4646464646464643,-3.383838383838383 -1.4646464646464643,-3.484848484848485 -1.4646464646464643,-3.5858585858585856 -1.4646464646464643,-3.6868686868686864 -1.4646464646464643,-3.7878787878787876 -1.4646464646464643,-3.8888888888888884 -1.4646464646464643,-3.98989898989899 -1.4646464646464643,-4.090909090909091 -1.4646464646464643,-4.191919191919193 -1.4646464646464643,-4.292929292929293 -1.4646464646464643,-4.393939393939394 -1.4646464646464643,-4.494949494949496 -1.4646464646464643,-4.595959595959596 -1.4646464646464643,-4.696969696969697 -1.4646464646464643,-4.7979797979797985 -1.4646464646464643,-4.898989898989899 -1.4646464646464643,-5.000000000000001" data-type="line" data-label="" points="764.6868686868686,40.000000000000114 755.1515151515151,49.53535353535369 745.6161616161615,59.07070707070733 736.0808080808081,68.60606060606085 726.5454545454545,78.14141414141432 717.0101010101009,87.67676767676778 707.4747474747475,97.21212121212153 697.9393939393939,106.747474747475 688.4040404040404,116.28282828282846 678.8686868686868,125.81818181818198 669.3333333333333,135.35353535353545 659.7979797979798,144.88888888888908 650.2626262626262,154.4242424242426 640.7272727272727,163.95959595959613 631.1919191919192,173.4949494949496 621.6565656565656,183.03030303030312 612.1212121212121,192.56565656565675 602.5858585858585,202.10101010101027 593.0505050505051,211.63636363636374 583.5151515151515,221.17171717171726 573.9797979797979,230.70707070707084 564.4444444444445,240.24242424242436 554.9090909090909,249.77777777777794 545.3737373737374,259.3131313131314 535.8383838383838,268.84848484848493 526.3030303030303,278.38383838383857 516.7676767676768,287.91919191919203 507.2323232323232,297.4545454545456 497.69696969696975,306.9898989898991 488.16161616161617,316.5252525252526 478.62626262626264,326.06060606060623 469.09090909090907,335.5959595959597 459.55555555555554,345.1313131313133 450.0202020202021,354.66666666666674 440.4848484848485,364.2020202020203 430.949494949495,373.73737373737384 421.4141414141414,383.27272727272737 411.8787878787879,392.80808080808094 402.34343434343435,402.3434343434344 392.80808080808083,411.87878787878793 383.2727272727273,421.4141414141415 373.7373737373738,430.94949494949503 373.7373737373738,440.4848484848486 373.7373737373738,450.0202020202021 373.7373737373738,459.5555555555556 373.7373737373738,469.0909090909092 373.7373737373738,478.6262626262627 373.7373737373738,488.1616161616163 373.7373737373738,497.69696969696975 373.7373737373738,507.23232323232327 373.7373737373738,516.7676767676768 373.7373737373738,526.3030303030304 373.7373737373738,535.838383838384 373.7373737373738,545.3737373737374 373.7373737373738,554.909090909091 373.7373737373738,564.4444444444445 373.7373737373738,573.979797979798 373.7373737373738,583.5151515151516 373.7373737373738,593.0505050505051 373.7373737373738,602.5858585858587 373.7373737373738,612.1212121212121 373.7373737373738,621.6565656565657 373.7373737373738,631.1919191919193 373.7373737373738,640.7272727272727 373.7373737373738,650.2626262626263 373.7373737373738,659.7979797979798 373.7373737373738,669.3333333333334 373.7373737373738,678.8686868686868 373.7373737373738,688.4040404040404 373.7373737373738,697.939393939394 373.7373737373738,707.4747474747475 373.7373737373738,717.010101010101 373.7373737373738,726.5454545454545 373.7373737373738,736.0808080808081 373.7373737373738,745.6161616161615 373.7373737373738,755.1515151515151 373.7373737373738,764.6868686868687 373.7373737373738,774.2222222222222 373.7373737373738,783.7575757575758 373.7373737373738,793.2929292929292 373.7373737373738,802.8282828282828 373.7373737373738,812.3636363636363 373.7373737373738,821.8989898989898 373.7373737373738,831.4343434343434 373.7373737373738,840.969696969697 373.7373737373738,850.5050505050505 373.7373737373738,860.0404040404039 373.7373737373738,869.5757575757575 373.7373737373738,879.1111111111111 373.7373737373738,888.6464646464647 373.7373737373738,898.1818181818181 373.7373737373738,907.7171717171718 373.7373737373738,917.2525252525252 373.7373737373738,926.7878787878788 373.7373737373738,936.3232323232323 373.7373737373738,945.8585858585858 373.7373737373738,955.3939393939394 373.7373737373738,964.9292929292928 373.7373737373738,974.4646464646464 373.7373737373738,984" fill="none" stroke="rgba(255,0,0,0.75)" stroke-width="11.327999999999996"/></g><g><polyline data-points="-0.4545454545454544,5.000000000000002 -0.555555555555555,4.898989898989901 -0.6565656565656557,4.7979797979797985 -0.7575757575757572,4.696969696969697 -0.8585858585858579,4.595959595959597 -0.9595959595959596,4.494949494949497 -1.0606060606060603,4.393939393939394 -1.1616161616161613,4.292929292929293 -1.2626262626262625,4.191919191919193 -1.363636363636363,4.090909090909092 -1.4646464646464643,3.989898989898992 -1.5656565656565653,3.8888888888888893 -1.5656565656565653,3.7878787878787885 -1.5656565656565653,3.6868686868686877 -1.5656565656565653,3.5858585858585874 -1.5656565656565653,3.4848484848484866 -1.5656565656565653,3.383838383838384 -1.5656565656565653,3.2828282828282833 -1.5656565656565653,3.181818181818183 -1.5656565656565653,3.080808080808082 -1.5656565656565653,2.9797979797979806 -1.5656565656565653,2.87878787878788 -1.5656565656565653,2.7777777777777786 -1.5656565656565653,2.676767676767678 -1.5656565656565653,2.575757575757577 -1.5656565656565653,2.4747474747474754 -1.5656565656565653,2.373737373737375 -1.5656565656565653,2.2727272727272734 -1.5656565656565653,2.1717171717171726 -1.5656565656565653,2.070707070707072 -1.5656565656565653,1.9696969696969702 -1.5656565656565653,1.8686868686868696 -1.5656565656565653,1.767676767676768 -1.5656565656565653,1.6666666666666674 -1.5656565656565653,1.5656565656565666 -1.5656565656565653,1.4646464646464652 -1.5656565656565653,1.3636363636363644 -1.5656565656565653,1.262626262626263 -1.5656565656565653,1.1616161616161622 -1.5656565656565653,1.0606060606060617 -1.6666666666666665,0.9595959595959602 -1.6666666666666665,0.8585858585858596 -1.6666666666666665,0.7575757575757579 -1.6666666666666665,0.6565656565656574 -1.6666666666666665,0.5555555555555567 -1.6666666666666665,0.4545454545454551 -1.6666666666666665,0.3535353535353544 -1.6666666666666665,0.2525252525252529 -1.6666666666666665,0.1515151515151522 -1.6666666666666665,0.050505050505051545 -1.6666666666666665,-0.05050505050505001 -1.6666666666666665,-0.15151515151515066 -1.6666666666666665,-0.2525252525252522 -1.6666666666666665,-0.35353535353535287 -1.6666666666666665,-0.4545454545454544 -1.6666666666666665,-0.555555555555555 -1.6666666666666665,-0.6565656565656557 -1.6666666666666665,-0.7575757575757572 -1.6666666666666665,-0.8585858585858579 -1.6666666666666665,-0.9595959595959596 -1.6666666666666665,-1.0606060606060603 -1.6666666666666665,-1.1616161616161613 -1.6666666666666665,-1.2626262626262625 -1.6666666666666665,-1.363636363636363 -1.6666666666666665,-1.4646464646464643 -1.6666666666666665,-1.5656565656565653 -1.6666666666666665,-1.6666666666666665 -1.6666666666666665,-1.7676767676767675 -1.6666666666666665,-1.8686868686868683 -1.6666666666666665,-1.9696969696969693 -1.6666666666666665,-2.07070707070707 -1.6666666666666665,-2.1717171717171713 -1.6666666666666665,-2.2727272727272725 -1.6666666666666665,-2.3737373737373733 -1.6666666666666665,-2.474747474747474 -1.6666666666666665,-2.5757575757575752 -1.6666666666666665,-2.6767676767676765 -1.6666666666666665,-2.7777777777777777 -1.6666666666666665,-2.8787878787878785 -1.6666666666666665,-2.9797979797979792 -1.6666666666666665,-3.0808080808080804 -1.6666666666666665,-3.1818181818181817 -1.6666666666666665,-3.2828282828282824 -1.6666666666666665,-3.383838383838383 -1.6666666666666665,-3.484848484848485 -1.7676767676767675,-3.5858585858585856 -1.8686868686868683,-3.6868686868686864" data-type="line" data-label="" points="469.09090909090907,40.000000000000114 459.55555555555554,49.53535353535369 450.0202020202021,59.07070707070733 440.4848484848485,68.60606060606085 430.949494949495,78.14141414141432 421.4141414141414,87.67676767676778 411.8787878787879,97.21212121212153 402.34343434343435,106.747474747475 392.80808080808083,116.28282828282846 383.2727272727273,125.81818181818198 373.7373737373738,135.35353535353545 364.2020202020202,144.88888888888908 364.2020202020202,154.4242424242426 364.2020202020202,163.95959595959613 364.2020202020202,173.4949494949496 364.2020202020202,183.03030303030312 364.2020202020202,192.56565656565675 364.2020202020202,202.10101010101027 364.2020202020202,211.63636363636374 364.2020202020202,221.17171717171726 364.2020202020202,230.70707070707084 364.2020202020202,240.24242424242436 364.2020202020202,249.77777777777794 364.2020202020202,259.3131313131314 364.2020202020202,268.84848484848493 364.2020202020202,278.38383838383857 364.2020202020202,287.91919191919203 364.2020202020202,297.4545454545456 364.2020202020202,306.9898989898991 364.2020202020202,316.5252525252526 364.2020202020202,326.06060606060623 364.2020202020202,335.5959595959597 364.2020202020202,345.1313131313133 364.2020202020202,354.66666666666674 364.2020202020202,364.2020202020203 364.2020202020202,373.73737373737384 364.2020202020202,383.27272727272737 364.2020202020202,392.80808080808094 364.2020202020202,402.3434343434344 364.2020202020202,411.87878787878793 354.6666666666667,421.4141414141415 354.6666666666667,430.94949494949503 354.6666666666667,440.4848484848486 354.6666666666667,450.0202020202021 354.6666666666667,459.5555555555556 354.6666666666667,469.0909090909092 354.6666666666667,478.6262626262627 354.6666666666667,488.1616161616163 354.6666666666667,497.69696969696975 354.6666666666667,507.23232323232327 354.6666666666667,516.7676767676768 354.6666666666667,526.3030303030304 354.6666666666667,535.838383838384 354.6666666666667,545.3737373737374 354.6666666666667,554.909090909091 354.6666666666667,564.4444444444445 354.6666666666667,573.979797979798 354.6666666666667,583.5151515151516 354.6666666666667,593.0505050505051 354.6666666666667,602.5858585858587 354.6666666666667,612.1212121212121 354.6666666666667,621.6565656565657 354.6666666666667,631.1919191919193 354.6666666666667,640.7272727272727 354.6666666666667,650.2626262626263 354.6666666666667,659.7979797979798 354.6666666666667,669.3333333333334 354.6666666666667,678.8686868686868 354.6666666666667,688.4040404040404 354.6666666666667,697.939393939394 354.6666666666667,707.4747474747475 354.6666666666667,717.010101010101 354.6666666666667,726.5454545454545 354.6666666666667,736.0808080808081 354.6666666666667,745.6161616161615 354.6666666666667,755.1515151515151 354.6666666666667,764.6868686868687 354.6666666666667,774.2222222222222 354.6666666666667,783.7575757575758 354.6666666666667,793.2929292929292 354.6666666666667,802.8282828282828 354.6666666666667,812.3636363636363 354.6666666666667,821.8989898989898 354.6666666666667,831.4343434343434 354.6666666666667,840.969696969697 345.13131313131316,850.5050505050505 335.59595959595964,860.0404040404039" fill="none" stroke="rgba(255,0,0,0.75)" stroke-width="11.327999999999996"/></g><g><polyline data-points="-1.8686868686868683,-3.6868686868686864 -1.7676767676767675,-3.7878787878787876 -1.6666666666666665,-3.8888888888888884 -1.5656565656565653,-3.98989898989899 -1.5656565656565653,-4.090909090909091 -1.5656565656565653,-4.191919191919193 -1.5656565656565653,-4.292929292929293 -1.5656565656565653,-4.393939393939394 -1.5656565656565653,-4.494949494949496 -1.5656565656565653,-4.595959595959596 -1.5656565656565653,-4.696969696969697 -1.5656565656565653,-4.7979797979797985 -1.5656565656565653,-4.898989898989899 -1.5656565656565653,-5.000000000000001" data-type="line" data-label="" points="335.59595959595964,860.0404040404039 345.13131313131316,869.5757575757575 354.6666666666667,879.1111111111111 364.2020202020202,888.6464646464647 364.2020202020202,898.1818181818181 364.2020202020202,907.7171717171718 364.2020202020202,917.2525252525252 364.2020202020202,926.7878787878788 364.2020202020202,936.3232323232323 364.2020202020202,945.8585858585858 364.2020202020202,955.3939393939394 364.2020202020202,964.9292929292928 364.2020202020202,974.4646464646464 364.2020202020202,984" fill="none" stroke="rgba(0,0,255,0.75)" stroke-width="11.327999999999996"/></g><g><polyline data-points="-0.15151515151515066,-5.000000000000001 -0.2525252525252522,-4.898989898989899 -0.35353535353535287,-4.7979797979797985 -0.4545454545454544,-4.696969696969697 -0.555555555555555,-4.595959595959596 -0.6565656565656557,-4.494949494949496 -0.7575757575757572,-4.393939393939394 -0.8585858585858579,-4.292929292929293 -0.9595959595959596,-4.191919191919193 -1.0606060606060603,-4.090909090909091 -1.1616161616161613,-3.98989898989899 -1.2626262626262625,-3.8888888888888884 -1.363636363636363,-3.7878787878787876 -1.4646464646464643,-3.6868686868686864 -1.5656565656565653,-3.5858585858585856 -1.6666666666666665,-3.484848484848485 -1.7676767676767675,-3.383838383838383 -1.8686868686868683,-3.2828282828282824 -1.9696969696969693,-3.1818181818181817 -2.07070707070707,-3.0808080808080804 -2.1717171717171713,-2.9797979797979792 -2.2727272727272725,-2.8787878787878785 -2.3737373737373733,-2.7777777777777777 -2.474747474747474,-2.6767676767676765 -2.5757575757575752,-2.5757575757575752 -2.6767676767676765,-2.474747474747474 -2.7777777777777777,-2.3737373737373733 -2.8787878787878785,-2.2727272727272725 -2.9797979797979792,-2.1717171717171713" data-type="line" data-label="" points="497.69696969696975,984 488.16161616161617,974.4646464646464 478.62626262626264,964.9292929292928 469.09090909090907,955.3939393939394 459.55555555555554,945.8585858585858 450.0202020202021,936.3232323232323 440.4848484848485,926.7878787878788 430.949494949495,917.2525252525252 421.4141414141414,907.7171717171718 411.8787878787879,898.1818181818181 402.34343434343435,888.6464646464647 392.80808080808083,879.1111111111111 383.2727272727273,869.5757575757575 373.7373737373738,860.0404040404039 364.2020202020202,850.5050505050505 354.6666666666667,840.969696969697 345.13131313131316,831.4343434343434 335.59595959595964,821.8989898989898 326.0606060606061,812.3636363636363 316.5252525252526,802.8282828282828 306.9898989898991,793.2929292929292 297.4545454545455,783.7575757575758 287.91919191919203,774.2222222222222 278.38383838383845,764.6868686868687 268.84848484848493,755.1515151515151 259.3131313131314,745.6161616161615 249.77777777777783,736.0808080808081 240.2424242424243,726.5454545454545 230.70707070707084,717.010101010101" fill="none" stroke="rgba(0,0,255,0.75)" stroke-width="11.327999999999996"/></g><g><polyline data-points="-2.9797979797979792,-2.1717171717171713 -3.0808080808080804,-2.07070707070707 -3.1818181818181817,-1.9696969696969693 -3.2828282828282824,-1.8686868686868683 -3.383838383838383,-1.7676767676767675 -3.484848484848485,-1.6666666666666665 -3.5858585858585856,-1.5656565656565653 -3.6868686868686864,-1.4646464646464643 -3.7878787878787876,-1.363636363636363 -3.8888888888888884,-1.2626262626262625 -3.98989898989899,-1.1616161616161613 -3.98989898989899,-1.0606060606060603 -3.98989898989899,-0.9595959595959596 -3.98989898989899,-0.8585858585858579 -3.98989898989899,-0.7575757575757572 -3.98989898989899,-0.6565656565656557 -3.98989898989899,-0.555555555555555 -3.98989898989899,-0.4545454545454544 -3.98989898989899,-0.35353535353535287 -3.98989898989899,-0.2525252525252522 -3.98989898989899,-0.15151515151515066 -3.98989898989899,-0.05050505050505001 -3.98989898989899,0.050505050505051545 -3.98989898989899,0.1515151515151522 -3.98989898989899,0.2525252525252529 -3.98989898989899,0.3535353535353544 -3.98989898989899,0.4545454545454551 -3.98989898989899,0.5555555555555567 -3.98989898989899,0.6565656565656574 -3.98989898989899,0.7575757575757579 -3.98989898989899,0.8585858585858596 -3.98989898989899,0.9595959595959602 -3.98989898989899,1.0606060606060617 -3.98989898989899,1.1616161616161622 -3.98989898989899,1.262626262626263 -3.98989898989899,1.3636363636363644 -3.98989898989899,1.4646464646464652 -3.98989898989899,1.5656565656565666 -3.98989898989899,1.6666666666666674 -3.98989898989899,1.767676767676768 -3.98989898989899,1.8686868686868696 -3.98989898989899,1.9696969696969702 -3.98989898989899,2.070707070707072 -3.98989898989899,2.1717171717171726 -3.98989898989899,2.2727272727272734 -3.98989898989899,2.373737373737375 -3.98989898989899,2.4747474747474754 -3.98989898989899,2.575757575757577 -3.98989898989899,2.676767676767678 -3.98989898989899,2.7777777777777786 -3.98989898989899,2.87878787878788 -3.98989898989899,2.9797979797979806 -3.98989898989899,3.080808080808082 -3.98989898989899,3.181818181818183 -3.98989898989899,3.2828282828282833 -3.98989898989899,3.383838383838384 -3.98989898989899,3.4848484848484866 -3.98989898989899,3.5858585858585874 -3.98989898989899,3.6868686868686877" data-type="line" data-label="" points="230.70707070707084,717.010101010101 221.17171717171726,707.4747474747475 211.63636363636374,697.939393939394 202.10101010101022,688.4040404040404 192.5656565656567,678.8686868686868 183.03030303030312,669.3333333333334 173.4949494949496,659.7979797979798 163.95959595959607,650.2626262626263 154.42424242424255,640.7272727272727 144.88888888888903,631.1919191919193 135.35353535353545,621.6565656565657 135.35353535353545,612.1212121212121 135.35353535353545,602.5858585858587 135.35353535353545,593.0505050505051 135.35353535353545,583.5151515151516 135.35353535353545,573.979797979798 135.35353535353545,564.4444444444445 135.35353535353545,554.909090909091 135.35353535353545,545.3737373737374 135.35353535353545,535.838383838384 135.35353535353545,526.3030303030304 135.35353535353545,516.7676767676768 135.35353535353545,507.23232323232327 135.35353535353545,497.69696969696975 135.35353535353545,488.1616161616163 135.35353535353545,478.6262626262627 135.35353535353545,469.0909090909092 135.35353535353545,459.5555555555556 135.35353535353545,450.0202020202021 135.35353535353545,440.4848484848486 135.35353535353545,430.94949494949503 135.35353535353545,421.4141414141415 135.35353535353545,411.87878787878793 135.35353535353545,402.3434343434344 135.35353535353545,392.80808080808094 135.35353535353545,383.27272727272737 135.35353535353545,373.73737373737384 135.35353535353545,364.2020202020203 135.35353535353545,354.66666666666674 135.35353535353545,345.1313131313133 135.35353535353545,335.5959595959597 135.35353535353545,326.06060606060623 135.35353535353545,316.5252525252526 135.35353535353545,306.9898989898991 135.35353535353545,297.4545454545456 135.35353535353545,287.91919191919203 135.35353535353545,278.38383838383857 135.35353535353545,268.84848484848493 135.35353535353545,259.3131313131314 135.35353535353545,249.77777777777794 135.35353535353545,240.24242424242436 135.35353535353545,230.70707070707084 135.35353535353545,221.17171717171726 135.35353535353545,211.63636363636374 135.35353535353545,202.10101010101027 135.35353535353545,192.56565656565675 135.35353535353545,183.03030303030312 135.35353535353545,173.4949494949496 135.35353535353545,163.95959595959613" fill="none" stroke="rgba(255,0,0,0.75)" stroke-width="11.327999999999996"/></g><g><polyline data-points="-3.98989898989899,3.6868686868686877 -4.090909090909091,3.7878787878787885 -4.191919191919193,3.8888888888888893 -4.292929292929293,3.989898989898992 -4.393939393939394,4.090909090909092 -4.494949494949496,4.191919191919193 -4.595959595959596,4.292929292929293 -4.696969696969697,4.393939393939394 -4.7979797979797985,4.494949494949497 -4.898989898989899,4.595959595959597 -4.898989898989899,4.696969696969697 -4.898989898989899,4.7979797979797985 -4.898989898989899,4.898989898989901 -4.898989898989899,5.000000000000002" data-type="line" data-label="" points="135.35353535353545,163.95959595959613 125.81818181818193,154.4242424242426 116.28282828282829,144.88888888888908 106.74747474747483,135.35353535353545 97.21212121212136,125.81818181818198 87.67676767676772,116.28282828282846 78.14141414141426,106.747474747475 68.60606060606068,97.21212121212153 59.07070707070716,87.67676767676778 49.53535353535369,78.14141414141432 49.53535353535369,68.60606060606085 49.53535353535369,59.07070707070733 49.53535353535369,49.53535353535369 49.53535353535369,40.000000000000114" fill="none" stroke="rgba(0,0,255,0.75)" stroke-width="11.327999999999996"/></g><g><polyline data-points="3.080808080808082,5.000000000000002 3.181818181818183,4.898989898989901 3.2828282828282833,4.7979797979797985 3.383838383838384,4.696969696969697 3.4848484848484866,4.595959595959597 3.5858585858585874,4.494949494949497 3.6868686868686877,4.393939393939394 3.7878787878787885,4.292929292929293 3.8888888888888893,4.191919191919193 3.989898989898992,4.090909090909092 3.989898989898992,3.989898989898992 3.989898989898992,3.8888888888888893 3.989898989898992,3.7878787878787885 3.989898989898992,3.6868686868686877 3.989898989898992,3.5858585858585874 3.989898989898992,3.4848484848484866 3.989898989898992,3.383838383838384 3.989898989898992,3.2828282828282833 3.989898989898992,3.181818181818183 3.989898989898992,3.080808080808082 3.989898989898992,2.9797979797979806 3.989898989898992,2.87878787878788 3.989898989898992,2.7777777777777786 3.989898989898992,2.676767676767678 3.989898989898992,2.575757575757577 3.989898989898992,2.4747474747474754 3.989898989898992,2.373737373737375 3.989898989898992,2.2727272727272734 3.989898989898992,2.1717171717171726 3.989898989898992,2.070707070707072 3.989898989898992,1.9696969696969702 3.989898989898992,1.8686868686868696 3.989898989898992,1.767676767676768 3.989898989898992,1.6666666666666674 3.989898989898992,1.5656565656565666 3.989898989898992,1.4646464646464652 3.989898989898992,1.3636363636363644 3.989898989898992,1.262626262626263 3.989898989898992,1.1616161616161622 3.989898989898992,1.0606060606060617 3.989898989898992,0.9595959595959602 3.989898989898992,0.8585858585858596 3.989898989898992,0.7575757575757579 3.989898989898992,0.6565656565656574 3.989898989898992,0.5555555555555567 3.989898989898992,0.4545454545454551 3.989898989898992,0.3535353535353544 3.989898989898992,0.2525252525252529 3.989898989898992,0.1515151515151522 3.989898989898992,0.050505050505051545 3.989898989898992,-0.05050505050505001" data-type="line" data-label="" points="802.8282828282828,40.000000000000114 812.3636363636363,49.53535353535369 821.8989898989898,59.07070707070733 831.4343434343433,68.60606060606085 840.969696969697,78.14141414141432 850.5050505050505,87.67676767676778 860.0404040404039,97.21212121212153 869.5757575757575,106.747474747475 879.111111111111,116.28282828282846 888.6464646464647,125.81818181818198 888.6464646464647,135.35353535353545 888.6464646464647,144.88888888888908 888.6464646464647,154.4242424242426 888.6464646464647,163.95959595959613 888.6464646464647,173.4949494949496 888.6464646464647,183.03030303030312 888.6464646464647,192.56565656565675 888.6464646464647,202.10101010101027 888.6464646464647,211.63636363636374 888.6464646464647,221.17171717171726 888.6464646464647,230.70707070707084 888.6464646464647,240.24242424242436 888.6464646464647,249.77777777777794 888.6464646464647,259.3131313131314 888.6464646464647,268.84848484848493 888.6464646464647,278.38383838383857 888.6464646464647,287.91919191919203 888.6464646464647,297.4545454545456 888.6464646464647,306.9898989898991 888.6464646464647,316.5252525252526 888.6464646464647,326.06060606060623 888.6464646464647,335.5959595959597 888.6464646464647,345.1313131313133 888.6464646464647,354.66666666666674 888.6464646464647,364.2020202020203 888.6464646464647,373.73737373737384 888.6464646464647,383.27272727272737 888.6464646464647,392.80808080808094 888.6464646464647,402.3434343434344 888.6464646464647,411.87878787878793 888.6464646464647,421.4141414141415 888.6464646464647,430.94949494949503 888.6464646464647,440.4848484848486 888.6464646464647,450.0202020202021 888.6464646464647,459.5555555555556 888.6464646464647,469.0909090909092 888.6464646464647,478.6262626262627 888.6464646464647,488.1616161616163 888.6464646464647,497.69696969696975 888.6464646464647,507.23232323232327 888.6464646464647,516.7676767676768" fill="none" stroke="rgba(255,0,0,0.75)" stroke-width="11.327999999999996"/></g><g><polyline data-points="3.989898989898992,-0.05050505050505001 4.090909090909092,-0.05050505050505001 4.191919191919193,-0.05050505050505001 4.292929292929293,-0.05050505050505001 4.393939393939394,-0.05050505050505001 4.494949494949497,-0.05050505050505001 4.595959595959597,-0.05050505050505001 4.696969696969697,-0.05050505050505001 4.7979797979797985,-0.05050505050505001 4.898989898989901,-0.05050505050505001 5.000000000000002,-0.05050505050505001" data-type="line" data-label="" points="888.6464646464647,516.7676767676768 898.181818181818,516.7676767676768 907.7171717171716,516.7676767676768 917.2525252525251,516.7676767676768 926.7878787878785,516.7676767676768 936.3232323232323,516.7676767676768 945.8585858585857,516.7676767676768 955.3939393939393,516.7676767676768 964.9292929292927,516.7676767676768 974.4646464646464,516.7676767676768 984,516.7676767676768" fill="none" stroke="rgba(0,0,255,0.75)" stroke-width="11.327999999999996"/></g><g><polyline data-points="-5.000000000000001,-3.8888888888888884 -4.898989898989899,-3.7878787878787876 -4.7979797979797985,-3.6868686868686864 -4.696969696969697,-3.5858585858585856 -4.595959595959596,-3.484848484848485 -4.494949494949496,-3.383838383838383 -4.393939393939394,-3.2828282828282824 -4.292929292929293,-3.1818181818181817 -4.191919191919193,-3.0808080808080804 -4.090909090909091,-2.9797979797979792 -3.98989898989899,-2.8787878787878785 -3.8888888888888884,-2.7777777777777777 -3.7878787878787876,-2.6767676767676765 -3.6868686868686864,-2.5757575757575752 -3.5858585858585856,-2.474747474747474 -3.484848484848485,-2.3737373737373733 -3.383838383838383,-2.2727272727272725 -3.2828282828282824,-2.1717171717171713 -3.1818181818181817,-2.07070707070707 -3.0808080808080804,-1.9696969696969693 -2.9797979797979792,-1.8686868686868683 -2.8787878787878785,-1.7676767676767675 -2.7777777777777777,-1.6666666666666665 -2.6767676767676765,-1.5656565656565653 -2.5757575757575752,-1.4646464646464643 -2.474747474747474,-1.363636363636363 -2.3737373737373733,-1.2626262626262625 -2.2727272727272725,-1.1616161616161613 -2.1717171717171713,-1.0606060606060603 -2.07070707070707,-0.9595959595959596 -1.9696969696969693,-0.8585858585858579 -1.8686868686868683,-0.7575757575757572 -1.7676767676767675,-0.6565656565656557 -1.6666666666666665,-0.555555555555555 -1.5656565656565653,-0.4545454545454544 -1.4646464646464643,-0.35353535353535287 -1.363636363636363,-0.35353535353535287 -1.2626262626262625,-0.35353535353535287 -1.1616161616161613,-0.35353535353535287 -1.0606060606060603,-0.35353535353535287 -0.9595959595959596,-0.35353535353535287 -0.8585858585858579,-0.35353535353535287 -0.7575757575757572,-0.35353535353535287 -0.6565656565656557,-0.35353535353535287 -0.555555555555555,-0.35353535353535287 -0.4545454545454544,-0.35353535353535287 -0.35353535353535287,-0.35353535353535287 -0.2525252525252522,-0.35353535353535287 -0.15151515151515066,-0.35353535353535287 -0.05050505050505001,-0.35353535353535287 0.050505050505051545,-0.35353535353535287 0.1515151515151522,-0.35353535353535287 0.2525252525252529,-0.35353535353535287 0.3535353535353544,-0.35353535353535287 0.4545454545454551,-0.35353535353535287 0.5555555555555567,-0.35353535353535287 0.6565656565656574,-0.35353535353535287 0.7575757575757579,-0.35353535353535287 0.8585858585858596,-0.35353535353535287 0.9595959595959602,-0.35353535353535287 1.0606060606060617,-0.35353535353535287 1.1616161616161622,-0.35353535353535287 1.262626262626263,-0.35353535353535287 1.3636363636363644,-0.35353535353535287 1.4646464646464652,-0.35353535353535287 1.5656565656565666,-0.35353535353535287 1.6666666666666674,-0.35353535353535287 1.767676767676768,-0.35353535353535287 1.8686868686868696,-0.35353535353535287 1.9696969696969702,-0.35353535353535287 2.070707070707072,-0.35353535353535287 2.1717171717171726,-0.35353535353535287 2.2727272727272734,-0.35353535353535287 2.373737373737375,-0.35353535353535287 2.4747474747474754,-0.35353535353535287 2.575757575757577,-0.35353535353535287 2.676767676767678,-0.35353535353535287 2.7777777777777786,-0.35353535353535287 2.87878787878788,-0.35353535353535287 2.9797979797979806,-0.35353535353535287 3.080808080808082,-0.35353535353535287 3.181818181818183,-0.35353535353535287 3.2828282828282833,-0.35353535353535287 3.383838383838384,-0.35353535353535287 3.4848484848484866,-0.35353535353535287 3.5858585858585874,-0.35353535353535287 3.6868686868686877,-0.35353535353535287 3.7878787878787885,-0.35353535353535287" data-type="line" data-label="" points="40.00000000000006,879.1111111111111 49.53535353535369,869.5757575757575 59.07070707070716,860.0404040404039 68.60606060606068,850.5050505050505 78.14141414141426,840.969696969697 87.67676767676772,831.4343434343434 97.21212121212136,821.8989898989898 106.74747474747483,812.3636363636363 116.28282828282829,802.8282828282828 125.81818181818193,793.2929292929292 135.35353535353545,783.7575757575758 144.88888888888903,774.2222222222222 154.42424242424255,764.6868686868687 163.95959595959607,755.1515151515151 173.4949494949496,745.6161616161615 183.03030303030312,736.0808080808081 192.5656565656567,726.5454545454545 202.10101010101022,717.010101010101 211.63636363636374,707.4747474747475 221.17171717171726,697.939393939394 230.70707070707084,688.4040404040404 240.2424242424243,678.8686868686868 249.77777777777783,669.3333333333334 259.3131313131314,659.7979797979798 268.84848484848493,650.2626262626263 278.38383838383845,640.7272727272727 287.91919191919203,631.1919191919193 297.4545454545455,621.6565656565657 306.9898989898991,612.1212121212121 316.5252525252526,602.5858585858587 326.0606060606061,593.0505050505051 335.59595959595964,583.5151515151516 345.13131313131316,573.979797979798 354.6666666666667,564.4444444444445 364.2020202020202,554.909090909091 373.7373737373738,545.3737373737374 383.2727272727273,545.3737373737374 392.80808080808083,545.3737373737374 402.34343434343435,545.3737373737374 411.8787878787879,545.3737373737374 421.4141414141414,545.3737373737374 430.949494949495,545.3737373737374 440.4848484848485,545.3737373737374 450.0202020202021,545.3737373737374 459.55555555555554,545.3737373737374 469.09090909090907,545.3737373737374 478.62626262626264,545.3737373737374 488.16161616161617,545.3737373737374 497.69696969696975,545.3737373737374 507.2323232323232,545.3737373737374 516.7676767676768,545.3737373737374 526.3030303030303,545.3737373737374 535.8383838383838,545.3737373737374 545.3737373737374,545.3737373737374 554.9090909090909,545.3737373737374 564.4444444444445,545.3737373737374 573.9797979797979,545.3737373737374 583.5151515151515,545.3737373737374 593.0505050505051,545.3737373737374 602.5858585858585,545.3737373737374 612.1212121212121,545.3737373737374 621.6565656565656,545.3737373737374 631.1919191919192,545.3737373737374 640.7272727272727,545.3737373737374 650.2626262626262,545.3737373737374 659.7979797979798,545.3737373737374 669.3333333333333,545.3737373737374 678.8686868686868,545.3737373737374 688.4040404040404,545.3737373737374 697.9393939393939,545.3737373737374 707.4747474747475,545.3737373737374 717.0101010101009,545.3737373737374 726.5454545454545,545.3737373737374 736.0808080808081,545.3737373737374 745.6161616161615,545.3737373737374 755.1515151515151,545.3737373737374 764.6868686868686,545.3737373737374 774.2222222222222,545.3737373737374 783.7575757575758,545.3737373737374 793.2929292929292,545.3737373737374 802.8282828282828,545.3737373737374 812.3636363636363,545.3737373737374 821.8989898989898,545.3737373737374 831.4343434343433,545.3737373737374 840.969696969697,545.3737373737374 850.5050505050505,545.3737373737374 860.0404040404039,545.3737373737374 869.5757575757575,545.3737373737374" fill="none" stroke="rgba(0,0,255,0.75)" stroke-width="11.327999999999996"/></g><g><polyline data-points="3.7878787878787885,-0.35353535353535287 3.8888888888888893,-0.35353535353535287 3.989898989898992,-0.35353535353535287 4.090909090909092,-0.2525252525252522 4.191919191919193,-0.15151515151515066 4.292929292929293,-0.05050505050505001 4.393939393939394,-0.05050505050505001 4.494949494949497,-0.05050505050505001 4.595959595959597,-0.05050505050505001 4.696969696969697,-0.05050505050505001 4.7979797979797985,-0.05050505050505001 4.898989898989901,-0.05050505050505001 5.000000000000002,-0.05050505050505001" data-type="line" data-label="" points="869.5757575757575,545.3737373737374 879.111111111111,545.3737373737374 888.6464646464647,545.3737373737374 898.181818181818,535.838383838384 907.7171717171716,526.3030303030304 917.2525252525251,516.7676767676768 926.7878787878785,516.7676767676768 936.3232323232323,516.7676767676768 945.8585858585857,516.7676767676768 955.3939393939393,516.7676767676768 964.9292929292927,516.7676767676768 974.4646464646464,516.7676767676768 984,516.7676767676768" fill="none" stroke="rgba(255,0,0,0.75)" stroke-width="11.327999999999996"/></g><g><polyline data-points="-0.05050505050505001,5.000000000000002 -0.15151515151515066,4.898989898989901 -0.2525252525252522,4.7979797979797985 -0.35353535353535287,4.696969696969697 -0.4545454545454544,4.595959595959597 -0.555555555555555,4.494949494949497 -0.6565656565656557,4.393939393939394 -0.7575757575757572,4.292929292929293 -0.8585858585858579,4.191919191919193 -0.9595959595959596,4.090909090909092 -1.0606060606060603,3.989898989898992 -1.1616161616161613,3.8888888888888893 -1.2626262626262625,3.7878787878787885 -1.363636363636363,3.6868686868686877 -1.4646464646464643,3.5858585858585874 -1.5656565656565653,3.4848484848484866 -1.6666666666666665,3.383838383838384 -1.7676767676767675,3.2828282828282833 -1.8686868686868683,3.181818181818183 -1.9696969696969693,3.080808080808082 -2.07070707070707,2.9797979797979806 -2.1717171717171713,2.87878787878788 -2.2727272727272725,2.7777777777777786 -2.3737373737373733,2.676767676767678 -2.474747474747474,2.575757575757577 -2.474747474747474,2.4747474747474754 -2.474747474747474,2.373737373737375 -2.474747474747474,2.2727272727272734 -2.474747474747474,2.1717171717171726 -2.474747474747474,2.070707070707072 -2.474747474747474,1.9696969696969702 -2.474747474747474,1.8686868686868696 -2.474747474747474,1.767676767676768 -2.474747474747474,1.6666666666666674 -2.474747474747474,1.5656565656565666 -2.474747474747474,1.4646464646464652 -2.474747474747474,1.3636363636363644 -2.474747474747474,1.262626262626263 -2.474747474747474,1.1616161616161622 -2.474747474747474,1.0606060606060617 -2.474747474747474,0.9595959595959602 -2.474747474747474,0.8585858585858596 -2.474747474747474,0.7575757575757579 -2.474747474747474,0.6565656565656574 -2.474747474747474,0.5555555555555567 -2.474747474747474,0.4545454545454551 -2.474747474747474,0.3535353535353544 -2.474747474747474,0.2525252525252529 -2.474747474747474,0.1515151515151522 -2.474747474747474,0.050505050505051545 -2.474747474747474,-0.05050505050505001 -2.474747474747474,-0.15151515151515066 -2.474747474747474,-0.2525252525252522 -2.474747474747474,-0.35353535353535287 -2.474747474747474,-0.4545454545454544 -2.474747474747474,-0.555555555555555 -2.474747474747474,-0.6565656565656557 -2.474747474747474,-0.7575757575757572 -2.474747474747474,-0.8585858585858579" data-type="line" data-label="" points="507.2323232323232,40.000000000000114 497.69696969696975,49.53535353535369 488.16161616161617,59.07070707070733 478.62626262626264,68.60606060606085 469.09090909090907,78.14141414141432 459.55555555555554,87.67676767676778 450.0202020202021,97.21212121212153 440.4848484848485,106.747474747475 430.949494949495,116.28282828282846 421.4141414141414,125.81818181818198 411.8787878787879,135.35353535353545 402.34343434343435,144.88888888888908 392.80808080808083,154.4242424242426 383.2727272727273,163.95959595959613 373.7373737373738,173.4949494949496 364.2020202020202,183.03030303030312 354.6666666666667,192.56565656565675 345.13131313131316,202.10101010101027 335.59595959595964,211.63636363636374 326.0606060606061,221.17171717171726 316.5252525252526,230.70707070707084 306.9898989898991,240.24242424242436 297.4545454545455,249.77777777777794 287.91919191919203,259.3131313131314 278.38383838383845,268.84848484848493 278.38383838383845,278.38383838383857 278.38383838383845,287.91919191919203 278.38383838383845,297.4545454545456 278.38383838383845,306.9898989898991 278.38383838383845,316.5252525252526 278.38383838383845,326.06060606060623 278.38383838383845,335.5959595959597 278.38383838383845,345.1313131313133 278.38383838383845,354.66666666666674 278.38383838383845,364.2020202020203 278.38383838383845,373.73737373737384 278.38383838383845,383.27272727272737 278.38383838383845,392.80808080808094 278.38383838383845,402.3434343434344 278.38383838383845,411.87878787878793 278.38383838383845,421.4141414141415 278.38383838383845,430.94949494949503 278.38383838383845,440.4848484848486 278.38383838383845,450.0202020202021 278.38383838383845,459.5555555555556 278.38383838383845,469.0909090909092 278.38383838383845,478.6262626262627 278.38383838383845,488.1616161616163 278.38383838383845,497.69696969696975 278.38383838383845,507.23232323232327 278.38383838383845,516.7676767676768 278.38383838383845,526.3030303030304 278.38383838383845,535.838383838384 278.38383838383845,545.3737373737374 278.38383838383845,554.909090909091 278.38383838383845,564.4444444444445 278.38383838383845,573.979797979798 278.38383838383845,583.5151515151516 278.38383838383845,593.0505050505051" fill="none" stroke="rgba(0,0,255,0.75)" stroke-width="11.327999999999996"/></g><g><polyline data-points="-2.474747474747474,-0.8585858585858579 -2.474747474747474,-0.9595959595959596 -2.5757575757575752,-1.0606060606060603 -2.474747474747474,-1.1616161616161613 -2.474747474747474,-1.2626262626262625 -2.474747474747474,-1.363636363636363 -2.474747474747474,-1.4646464646464643 -2.474747474747474,-1.5656565656565653 -2.474747474747474,-1.6666666666666665 -2.474747474747474,-1.7676767676767675 -2.474747474747474,-1.8686868686868683 -2.474747474747474,-1.9696969696969693 -2.474747474747474,-2.07070707070707 -2.474747474747474,-2.1717171717171713 -2.474747474747474,-2.2727272727272725 -2.474747474747474,-2.3737373737373733 -2.474747474747474,-2.474747474747474 -2.474747474747474,-2.5757575757575752 -2.474747474747474,-2.6767676767676765 -2.474747474747474,-2.7777777777777777 -2.474747474747474,-2.8787878787878785 -2.474747474747474,-2.9797979797979792 -2.474747474747474,-3.0808080808080804 -2.474747474747474,-3.1818181818181817 -2.474747474747474,-3.2828282828282824 -2.474747474747474,-3.383838383838383 -2.474747474747474,-3.484848484848485 -2.474747474747474,-3.5858585858585856 -2.474747474747474,-3.6868686868686864 -2.474747474747474,-3.7878787878787876 -2.474747474747474,-3.8888888888888884 -2.474747474747474,-3.98989898989899 -2.474747474747474,-4.090909090909091 -2.474747474747474,-4.191919191919193 -2.474747474747474,-4.292929292929293 -2.474747474747474,-4.393939393939394 -2.474747474747474,-4.494949494949496 -2.474747474747474,-4.595959595959596 -2.474747474747474,-4.696969696969697 -2.474747474747474,-4.7979797979797985 -2.474747474747474,-4.898989898989899 -2.474747474747474,-5.000000000000001" data-type="line" data-label="" points="278.38383838383845,593.0505050505051 278.38383838383845,602.5858585858587 268.84848484848493,612.1212121212121 278.38383838383845,621.6565656565657 278.38383838383845,631.1919191919193 278.38383838383845,640.7272727272727 278.38383838383845,650.2626262626263 278.38383838383845,659.7979797979798 278.38383838383845,669.3333333333334 278.38383838383845,678.8686868686868 278.38383838383845,688.4040404040404 278.38383838383845,697.939393939394 278.38383838383845,707.4747474747475 278.38383838383845,717.010101010101 278.38383838383845,726.5454545454545 278.38383838383845,736.0808080808081 278.38383838383845,745.6161616161615 278.38383838383845,755.1515151515151 278.38383838383845,764.6868686868687 278.38383838383845,774.2222222222222 278.38383838383845,783.7575757575758 278.38383838383845,793.2929292929292 278.38383838383845,802.8282828282828 278.38383838383845,812.3636363636363 278.38383838383845,821.8989898989898 278.38383838383845,831.4343434343434 278.38383838383845,840.969696969697 278.38383838383845,850.5050505050505 278.38383838383845,860.0404040404039 278.38383838383845,869.5757575757575 278.38383838383845,879.1111111111111 278.38383838383845,888.6464646464647 278.38383838383845,898.1818181818181 278.38383838383845,907.7171717171718 278.38383838383845,917.2525252525252 278.38383838383845,926.7878787878788 278.38383838383845,936.3232323232323 278.38383838383845,945.8585858585858 278.38383838383845,955.3939393939394 278.38383838383845,964.9292929292928 278.38383838383845,974.4646464646464 278.38383838383845,984" fill="none" stroke="rgba(255,0,0,0.75)" stroke-width="11.327999999999996"/></g><g><polyline data-points="3.5858585858585874,5.000000000000002 3.5858585858585874,4.898989898989901 3.4848484848484866,4.7979797979797985 3.383838383838384,4.696969696969697 3.2828282828282833,4.595959595959597 3.181818181818183,4.494949494949497 3.080808080808082,4.393939393939394 2.9797979797979806,4.292929292929293 2.87878787878788,4.191919191919193 2.7777777777777786,4.090909090909092 2.676767676767678,3.989898989898992 2.575757575757577,3.8888888888888893 2.4747474747474754,3.7878787878787885 2.373737373737375,3.6868686868686877 2.2727272727272734,3.5858585858585874 2.1717171717171726,3.4848484848484866 2.070707070707072,3.383838383838384 1.9696969696969702,3.2828282828282833 1.8686868686868696,3.181818181818183 1.767676767676768,3.080808080808082 1.6666666666666674,2.9797979797979806 1.5656565656565666,2.87878787878788 1.4646464646464652,2.7777777777777786 1.3636363636363644,2.676767676767678 1.262626262626263,2.575757575757577 1.1616161616161622,2.4747474747474754 1.0606060606060617,2.373737373737375 0.9595959595959602,2.2727272727272734 0.8585858585858596,2.1717171717171726 0.7575757575757579,2.070707070707072 0.6565656565656574,1.9696969696969702 0.5555555555555567,1.8686868686868696 0.4545454545454551,1.767676767676768 0.3535353535353544,1.6666666666666674 0.2525252525252529,1.5656565656565666 0.1515151515151522,1.4646464646464652 0.050505050505051545,1.3636363636363644 -0.05050505050505001,1.262626262626263 -0.15151515151515066,1.1616161616161622 -0.2525252525252522,1.0606060606060617 -0.35353535353535287,0.9595959595959602 -0.4545454545454544,0.8585858585858596 -0.555555555555555,0.7575757575757579 -0.6565656565656557,0.6565656565656574 -0.7575757575757572,0.5555555555555567 -0.8585858585858579,0.4545454545454551 -0.9595959595959596,0.3535353535353544 -1.0606060606060603,0.2525252525252529 -1.1616161616161613,0.1515151515151522 -1.2626262626262625,0.050505050505051545 -1.363636363636363,-0.05050505050505001 -1.4646464646464643,-0.15151515151515066 -1.5656565656565653,-0.05050505050505001 -1.6666666666666665,-0.15151515151515066 -1.7676767676767675,-0.2525252525252522 -1.8686868686868683,-0.35353535353535287 -1.9696969696969693,-0.4545454545454544 -2.07070707070707,-0.4545454545454544" data-type="line" data-label="" points="850.5050505050505,40.000000000000114 850.5050505050505,49.53535353535369 840.969696969697,59.07070707070733 831.4343434343433,68.60606060606085 821.8989898989898,78.14141414141432 812.3636363636363,87.67676767676778 802.8282828282828,97.21212121212153 793.2929292929292,106.747474747475 783.7575757575758,116.28282828282846 774.2222222222222,125.81818181818198 764.6868686868686,135.35353535353545 755.1515151515151,144.88888888888908 745.6161616161615,154.4242424242426 736.0808080808081,163.95959595959613 726.5454545454545,173.4949494949496 717.0101010101009,183.03030303030312 707.4747474747475,192.56565656565675 697.9393939393939,202.10101010101027 688.4040404040404,211.63636363636374 678.8686868686868,221.17171717171726 669.3333333333333,230.70707070707084 659.7979797979798,240.24242424242436 650.2626262626262,249.77777777777794 640.7272727272727,259.3131313131314 631.1919191919192,268.84848484848493 621.6565656565656,278.38383838383857 612.1212121212121,287.91919191919203 602.5858585858585,297.4545454545456 593.0505050505051,306.9898989898991 583.5151515151515,316.5252525252526 573.9797979797979,326.06060606060623 564.4444444444445,335.5959595959597 554.9090909090909,345.1313131313133 545.3737373737374,354.66666666666674 535.8383838383838,364.2020202020203 526.3030303030303,373.73737373737384 516.7676767676768,383.27272727272737 507.2323232323232,392.80808080808094 497.69696969696975,402.3434343434344 488.16161616161617,411.87878787878793 478.62626262626264,421.4141414141415 469.09090909090907,430.94949494949503 459.55555555555554,440.4848484848486 450.0202020202021,450.0202020202021 440.4848484848485,459.5555555555556 430.949494949495,469.0909090909092 421.4141414141414,478.6262626262627 411.8787878787879,488.1616161616163 402.34343434343435,497.69696969696975 392.80808080808083,507.23232323232327 383.2727272727273,516.7676767676768 373.7373737373738,526.3030303030304 364.2020202020202,516.7676767676768 354.6666666666667,526.3030303030304 345.13131313131316,535.838383838384 335.59595959595964,545.3737373737374 326.0606060606061,554.909090909091 316.5252525252526,554.909090909091" fill="none" stroke="rgba(0,0,255,0.75)" stroke-width="11.327999999999996"/></g><g><polyline data-points="-2.07070707070707,-0.4545454545454544 -2.1717171717171713,-0.555555555555555 -2.2727272727272725,-0.555555555555555 -2.3737373737373733,-0.555555555555555 -2.474747474747474,-0.555555555555555 -2.5757575757575752,-0.6565656565656557 -2.6767676767676765,-0.7575757575757572 -2.7777777777777777,-0.8585858585858579 -2.8787878787878785,-0.9595959595959596 -2.9797979797979792,-1.0606060606060603 -3.0808080808080804,-1.1616161616161613 -3.1818181818181817,-1.2626262626262625 -3.2828282828282824,-1.363636363636363" data-type="line" data-label="" points="316.5252525252526,554.909090909091 306.9898989898991,564.4444444444445 297.4545454545455,564.4444444444445 287.91919191919203,564.4444444444445 278.38383838383845,564.4444444444445 268.84848484848493,573.979797979798 259.3131313131314,583.5151515151516 249.77777777777783,593.0505050505051 240.2424242424243,602.5858585858587 230.70707070707084,612.1212121212121 221.17171717171726,621.6565656565657 211.63636363636374,631.1919191919193 202.10101010101022,640.7272727272727" fill="none" stroke="rgba(255,0,0,0.75)" stroke-width="11.327999999999996"/></g><g><polyline data-points="-3.2828282828282824,-1.363636363636363 -3.383838383838383,-1.4646464646464643 -3.484848484848485,-1.5656565656565653 -3.5858585858585856,-1.6666666666666665 -3.6868686868686864,-1.7676767676767675 -3.7878787878787876,-1.8686868686868683 -3.8888888888888884,-1.9696969696969693 -3.98989898989899,-2.07070707070707 -3.98989898989899,-2.1717171717171713 -3.98989898989899,-2.2727272727272725" data-type="line" data-label="" points="202.10101010101022,640.7272727272727 192.5656565656567,650.2626262626263 183.03030303030312,659.7979797979798 173.4949494949496,669.3333333333334 163.95959595959607,678.8686868686868 154.42424242424255,688.4040404040404 144.88888888888903,697.939393939394 135.35353535353545,707.4747474747475 135.35353535353545,717.010101010101 135.35353535353545,726.5454545454545" fill="none" stroke="rgba(0,0,255,0.75)" stroke-width="11.327999999999996"/></g><g><polyline data-points="-3.98989898989899,-2.2727272727272725 -4.090909090909091,-2.3737373737373733 -4.090909090909091,-2.474747474747474 -4.090909090909091,-2.5757575757575752 -3.98989898989899,-2.6767676767676765 -3.98989898989899,-2.7777777777777777 -3.98989898989899,-2.8787878787878785 -3.98989898989899,-2.9797979797979792 -3.98989898989899,-3.0808080808080804 -3.98989898989899,-3.1818181818181817 -3.98989898989899,-3.2828282828282824 -3.98989898989899,-3.383838383838383 -3.98989898989899,-3.484848484848485 -3.98989898989899,-3.5858585858585856 -3.98989898989899,-3.6868686868686864 -3.98989898989899,-3.7878787878787876" data-type="line" data-label="" points="135.35353535353545,726.5454545454545 125.81818181818193,736.0808080808081 125.81818181818193,745.6161616161615 125.81818181818193,755.1515151515151 135.35353535353545,764.6868686868687 135.35353535353545,774.2222222222222 135.35353535353545,783.7575757575758 135.35353535353545,793.2929292929292 135.35353535353545,802.8282828282828 135.35353535353545,812.3636363636363 135.35353535353545,821.8989898989898 135.35353535353545,831.4343434343434 135.35353535353545,840.969696969697 135.35353535353545,850.5050505050505 135.35353535353545,860.0404040404039 135.35353535353545,869.5757575757575" fill="none" stroke="rgba(255,0,0,0.75)" stroke-width="11.327999999999996"/></g><g><polyline data-points="-3.98989898989899,-3.7878787878787876 -4.090909090909091,-3.8888888888888884 -4.191919191919193,-3.98989898989899 -4.292929292929293,-4.090909090909091 -4.393939393939394,-4.191919191919193 -4.494949494949496,-4.292929292929293 -4.595959595959596,-4.393939393939394 -4.696969696969697,-4.494949494949496 -4.7979797979797985,-4.595959595959596 -4.898989898989899,-4.696969696969697 -4.898989898989899,-4.7979797979797985 -4.898989898989899,-4.898989898989899 -5.000000000000001,-5.000000000000001" data-type="line" data-label="" points="135.35353535353545,869.5757575757575 125.81818181818193,879.1111111111111 116.28282828282829,888.6464646464647 106.74747474747483,898.1818181818181 97.21212121212136,907.7171717171718 87.67676767676772,917.2525252525252 78.14141414141426,926.7878787878788 68.60606060606068,936.3232323232323 59.07070707070716,945.8585858585858 49.53535353535369,955.3939393939394 49.53535353535369,964.9292929292928 49.53535353535369,974.4646464646464 40.00000000000006,984" fill="none" stroke="rgba(0,0,255,0.75)" stroke-width="11.327999999999996"/></g><g><rect data-type="rect" data-label="" data-x="0" data-y="0" x="40.000000000000114" y="40.000000000000284" width="943.9999999999997" height="943.9999999999998" fill="none" stroke="gray" stroke-width="0.010593220338983056"/></g><g><rect data-type="rect" data-label="" data-x="0" data-y="0" x="40.000000000000114" y="40.000000000000284" width="943.9999999999997" height="943.9999999999998" fill="none" stroke="rgba(15, 23, 42, 0.8)" stroke-width="0.010593220338983056"/></g><circle data-type="circle" data-label="" data-x="-1.8686868686868683" data-y="-3.6868686868686864" cx="335.59595959595964" cy="860.0404040404039" r="14.159999999999995" fill="rgba(0,0,0,0.3)" stroke="black" stroke-width="0.010593220338983056"/><circle data-type="circle" data-label="" data-x="-2.9797979797979792" data-y="-2.1717171717171713" cx="230.70707070707084" cy="717.010101010101" r="14.159999999999995" fill="rgba(0,0,0,0.3)" stroke="black" stroke-width="0.010593220338983056"/><circle data-type="circle" data-label="" data-x="-3.98989898989899" data-y="3.6868686868686877" cx="135.35353535353545" cy="163.95959595959613" r="14.159999999999995" fill="rgba(0,0,0,0.3)" stroke="black" stroke-width="0.010593220338983056"/><circle data-type="circle" data-label="" data-x="3.989898989898992" data-y="-0.05050505050505001" cx="888.6464646464647" cy="516.7676767676768" r="14.159999999999995" fill="rgba(0,0,0,0.3)" stroke="black" stroke-width="0.010593220338983056"/><circle data-type="circle" data-label="" data-x="3.7878787878787885" data-y="-0.35353535353535287" cx="869.5757575757575" cy="545.3737373737374" r="14.159999999999995" fill="rgba(0,0,0,0.3)" stroke="black" stroke-width="0.010593220338983056"/><circle data-type="circle" data-label="" data-x="-2.474747474747474" data-y="-0.8585858585858579" cx="278.38383838383845" cy="593.0505050505051" r="14.159999999999995" fill="rgba(0,0,0,0.3)" stroke="black" stroke-width="0.010593220338983056"/><circle data-type="circle" data-label="" data-x="-2.07070707070707" data-y="-0.4545454545454544" cx="316.5252525252526" cy="554.909090909091" r="14.159999999999995" fill="rgba(0,0,0,0.3)" stroke="black" stroke-width="0.010593220338983056"/><circle data-type="circle" data-label="" data-x="-3.2828282828282824" data-y="-1.363636363636363" cx="202.10101010101022" cy="640.7272727272727" r="14.159999999999995" fill="rgba(0,0,0,0.3)" stroke="black" stroke-width="0.010593220338983056"/><circle data-type="circle" data-label="" data-x="-3.98989898989899" data-y="-2.2727272727272725" cx="135.35353535353545" cy="726.5454545454545" r="14.159999999999995" fill="rgba(0,0,0,0.3)" stroke="black" stroke-width="0.010593220338983056"/><circle data-type="circle" data-label="" data-x="-3.98989898989899" data-y="-3.7878787878787876" cx="135.35353535353545" cy="869.5757575757575" r="14.159999999999995" fill="rgba(0,0,0,0.3)" stroke="black" stroke-width="0.010593220338983056"/><g id="crosshair" style="display: none"><line id="crosshair-h" y1="0" y2="1024" stroke="#666" stroke-width="0.5"/><line id="crosshair-v" x1="0" x2="1024" stroke="#666" stroke-width="0.5"/><text id="coordinates" font-family="monospace" font-size="12" fill="#666"></text></g><script><![CDATA[
              document.currentScript.parentElement.addEventListener('mousemove', (e) => {
                const svg = e.currentTarget;
                const rect = svg.getBoundingClientRect();
                const x = e.clientX - rect.left;
                const y = e.clientY - rect.top;
                const crosshair = svg.getElementById('crosshair');
                const h = svg.getElementById('crosshair-h');
                const v = svg.getElementById('crosshair-v');
                const coords = svg.getElementById('coordinates');
                
                crosshair.style.display = 'block';
                h.setAttribute('x1', '0');
                h.setAttribute('x2', '1024');
                h.setAttribute('y1', y);
                h.setAttribute('y2', y);
                v.setAttribute('x1', x);
                v.setAttribute('x2', x);
                v.setAttribute('y1', '0');
                v.setAttribute('y2', '1024');

                // Calculate real coordinates using inverse transformation
                const matrix = {"a":94.39999999999996,"c":0,"e":511.99999999999994,"b":0,"d":-94.39999999999996,"f":512.0000000000001};
                // Manually invert and apply the affine transform
                // Since we only use translate and scale, we can directly compute:
                // x' = (x - tx) / sx
                // y' = (y - ty) / sy
                const sx = matrix.a;
                const sy = matrix.d;
                const tx = matrix.e; 
                const ty = matrix.f;
                const realPoint = {
                  x: (x - tx) / sx,
                  y: (y - ty) / sy // Flip y back since we used negative scale
                }
                
                coords.textContent = `(${realPoint.x.toFixed(2)}, ${realPoint.y.toFixed(2)})`;
                coords.setAttribute('x', (x + 5).toString());
                coords.setAttribute('y', (y - 5).toString());
              });
              document.currentScript.parentElement.addEventListener('mouseleave', () => {
                document.currentScript.parentElement.getElementById('crosshair').style.display = 'none';
              });
            ]]></script></svg>