<svg width="1024" height="1024" viewBox="0 0 1024 1024" xmlns="http://www.w3.org/2000/svg"><rect width="100%" height="100%" fill="white"/><g><circle data-type="point" data-label="conn_000" data-x="-5" data-y="-2.04" cx="40.000000000000114" cy="704.576" r="14.16" fill="red"/></g><g><circle data-type="point" data-label="conn_000" data-x="-5" data-y="0.4" cx="40.000000000000114" cy="474.2400000000001" r="14.16" fill="red"/></g><g><circle data-type="point" data-label="conn_001" data-x="-3.68" data-y="5" cx="164.60800000000006" cy="40.000000000000284" r="14.16" fill="red"/></g><g><circle data-type="point" data-label="conn_001" data-x="-2.02" data-y="-5" cx="321.312" cy="984" r="14.16" fill="blue"/></g><g><circle data-type="point" data-label="conn_002" data-x="-5" data-y="0.46" cx="40.000000000000114" cy="468.57600000000014" r="14.16" fill="blue"/></g><g><circle data-type="point" data-label="conn_002" data-x="5" data-y="0.74" cx="983.9999999999998" cy="442.1440000000001" r="14.16" fill="red"/></g><g><circle data-type="point" data-label="conn_003" data-x="5" data-y="2.52" cx="983.9999999999998" cy="274.1120000000002" r="14.16" fill="blue"/></g><g><circle data-type="point" data-label="conn_003" data-x="-5" data-y="1.94" cx="40.000000000000114" cy="328.8640000000002" r="14.16" fill="blue"/></g><g><polyline data-points="-3.6868686868686864,5.000000000000002 -3.5858585858585856,4.898989898989901 -3.484848484848485,4.7979797979797985 -3.383838383838383,4.696969696969697 -3.2828282828282824,4.595959595959597 -3.1818181818181817,4.494949494949497 -3.0808080808080804,4.393939393939394 -2.9797979797979792,4.292929292929293 -2.8787878787878785,4.191919191919193 -2.7777777777777777,4.090909090909092 -2.6767676767676765,3.989898989898992 -2.5757575757575752,3.8888888888888893 -2.474747474747474,3.7878787878787885 -2.3737373737373733,3.6868686868686877 -2.2727272727272725,3.5858585858585874 -2.1717171717171713,3.4848484848484866 -2.07070707070707,3.383838383838384 -2.07070707070707,3.2828282828282833 -2.07070707070707,3.181818181818183 -2.07070707070707,3.080808080808082 -2.07070707070707,2.9797979797979806 -2.07070707070707,2.87878787878788 -2.07070707070707,2.7777777777777786 -2.07070707070707,2.676767676767678 -2.07070707070707,2.575757575757577 -2.07070707070707,2.4747474747474754 -2.07070707070707,2.373737373737375 -2.07070707070707,2.2727272727272734 -2.07070707070707,2.1717171717171726 -2.07070707070707,2.070707070707072 -2.07070707070707,1.9696969696969702 -2.07070707070707,1.8686868686868696 -2.07070707070707,1.767676767676768 -2.07070707070707,1.6666666666666674 -2.07070707070707,1.5656565656565666 -2.07070707070707,1.4646464646464652 -2.07070707070707,1.3636363636363644 -2.07070707070707,1.262626262626263 -2.07070707070707,1.1616161616161622 -2.07070707070707,1.0606060606060617 -2.07070707070707,0.9595959595959602 -2.07070707070707,0.8585858585858596 -2.07070707070707,0.7575757575757579 -2.07070707070707,0.6565656565656574 -2.07070707070707,0.5555555555555567 -2.07070707070707,0.4545454545454551 -2.07070707070707,0.3535353535353544 -2.07070707070707,0.2525252525252529 -2.07070707070707,0.1515151515151522 -2.07070707070707,0.050505050505051545 -2.07070707070707,-0.05050505050505001 -2.07070707070707,-0.15151515151515066 -2.07070707070707,-0.2525252525252522 -2.07070707070707,-0.35353535353535287 -2.07070707070707,-0.4545454545454544 -2.07070707070707,-0.555555555555555 -2.07070707070707,-0.6565656565656557 -2.07070707070707,-0.7575757575757572 -2.07070707070707,-0.8585858585858579 -2.07070707070707,-0.9595959595959596 -2.07070707070707,-1.0606060606060603 -2.07070707070707,-1.1616161616161613 -2.07070707070707,-1.2626262626262625 -2.07070707070707,-1.363636363636363 -2.07070707070707,-1.4646464646464643 -2.07070707070707,-1.5656565656565653 -2.07070707070707,-1.6666666666666665 -2.07070707070707,-1.7676767676767675 -2.07070707070707,-1.8686868686868683 -2.07070707070707,-1.9696969696969693 -2.07070707070707,-2.07070707070707 -2.07070707070707,-2.1717171717171713 -2.07070707070707,-2.2727272727272725 -2.07070707070707,-2.3737373737373733 -2.07070707070707,-2.474747474747474 -2.07070707070707,-2.5757575757575752 -2.07070707070707,-2.6767676767676765 -2.07070707070707,-2.7777777777777777 -2.07070707070707,-2.8787878787878785 -2.07070707070707,-2.9797979797979792 -2.07070707070707,-3.0808080808080804 -2.07070707070707,-3.1818181818181817 -2.07070707070707,-3.2828282828282824 -2.07070707070707,-3.383838383838383 -2.07070707070707,-3.484848484848485 -2.07070707070707,-3.5858585858585856 -2.07070707070707,-3.6868686868686864 -2.07070707070707,-3.7878787878787876 -2.07070707070707,-3.8888888888888884 -2.07070707070707,-3.98989898989899" data-type="line" data-label="" points="163.95959595959607,40.000000000000114 173.4949494949496,49.53535353535369 183.03030303030312,59.07070707070733 192.5656565656567,68.60606060606085 202.10101010101022,78.14141414141432 211.63636363636374,87.67676767676778 221.17171717171726,97.21212121212153 230.70707070707084,106.747474747475 240.2424242424243,116.28282828282846 249.77777777777783,125.81818181818198 259.3131313131314,135.35353535353545 268.84848484848493,144.88888888888908 278.38383838383845,154.4242424242426 287.91919191919203,163.95959595959613 297.4545454545455,173.4949494949496 306.9898989898991,183.03030303030312 316.5252525252526,192.56565656565675 316.5252525252526,202.10101010101027 316.5252525252526,211.63636363636374 316.5252525252526,221.17171717171726 316.5252525252526,230.70707070707084 316.5252525252526,240.24242424242436 316.5252525252526,249.77777777777794 316.5252525252526,259.3131313131314 316.5252525252526,268.84848484848493 316.5252525252526,278.38383838383857 316.5252525252526,287.91919191919203 316.5252525252526,297.4545454545456 316.5252525252526,306.9898989898991 316.5252525252526,316.5252525252526 316.5252525252526,326.06060606060623 316.5252525252526,335.5959595959597 316.5252525252526,345.1313131313133 316.5252525252526,354.66666666666674 316.5252525252526,364.2020202020203 316.5252525252526,373.73737373737384 316.5252525252526,383.27272727272737 316.5252525252526,392.80808080808094 316.5252525252526,402.3434343434344 316.5252525252526,411.87878787878793 316.5252525252526,421.4141414141415 316.5252525252526,430.94949494949503 316.5252525252526,440.4848484848486 316.5252525252526,450.0202020202021 316.5252525252526,459.5555555555556 316.5252525252526,469.0909090909092 316.5252525252526,478.6262626262627 316.5252525252526,488.1616161616163 316.5252525252526,497.69696969696975 316.5252525252526,507.23232323232327 316.5252525252526,516.7676767676768 316.5252525252526,526.3030303030304 316.5252525252526,535.838383838384 316.5252525252526,545.3737373737374 316.5252525252526,554.909090909091 316.5252525252526,564.4444444444445 316.5252525252526,573.979797979798 316.5252525252526,583.5151515151516 316.5252525252526,593.0505050505051 316.5252525252526,602.5858585858587 316.5252525252526,612.1212121212121 316.5252525252526,621.6565656565657 316.5252525252526,631.1919191919193 316.5252525252526,640.7272727272727 316.5252525252526,650.2626262626263 316.5252525252526,659.7979797979798 316.5252525252526,669.3333333333334 316.5252525252526,678.8686868686868 316.5252525252526,688.4040404040404 316.5252525252526,697.939393939394 316.5252525252526,707.4747474747475 316.5252525252526,717.010101010101 316.5252525252526,726.5454545454545 316.5252525252526,736.0808080808081 316.5252525252526,745.6161616161615 316.5252525252526,755.1515151515151 316.5252525252526,764.6868686868687 316.5252525252526,774.2222222222222 316.5252525252526,783.7575757575758 316.5252525252526,793.2929292929292 316.5252525252526,802.8282828282828 316.5252525252526,812.3636363636363 316.5252525252526,821.8989898989898 316.5252525252526,831.4343434343434 316.5252525252526,840.969696969697 316.5252525252526,850.5050505050505 316.5252525252526,860.0404040404039 316.5252525252526,869.5757575757575 316.5252525252526,879.1111111111111 316.5252525252526,888.6464646464647" fill="none" stroke="rgba(255,0,0,0.75)" stroke-width="11.327999999999996"/></g><g><polyline data-points="-2.07070707070707,-3.98989898989899 -2.07070707070707,-4.090909090909091 -2.07070707070707,-4.191919191919193 -2.07070707070707,-4.292929292929293 -2.07070707070707,-4.393939393939394 -2.07070707070707,-4.494949494949496 -2.07070707070707,-4.595959595959596 -2.07070707070707,-4.696969696969697 -2.07070707070707,-4.7979797979797985 -2.07070707070707,-4.898989898989899 -2.07070707070707,-5.000000000000001" data-type="line" data-label="" points="316.5252525252526,888.6464646464647 316.5252525252526,898.1818181818181 316.5252525252526,907.7171717171718 316.5252525252526,917.2525252525252 316.5252525252526,926.7878787878788 316.5252525252526,936.3232323232323 316.5252525252526,945.8585858585858 316.5252525252526,955.3939393939394 316.5252525252526,964.9292929292928 316.5252525252526,974.4646464646464 316.5252525252526,984" fill="none" stroke="rgba(0,0,255,0.75)" stroke-width="11.327999999999996"/></g><g><polyline data-points="5.000000000000002,2.575757575757577 4.898989898989901,2.4747474747474754 4.7979797979797985,2.373737373737375 4.696969696969697,2.2727272727272734 4.595959595959597,2.1717171717171726 4.494949494949497,2.070707070707072 4.393939393939394,1.9696969696969702 4.292929292929293,1.9696969696969702 4.191919191919193,1.9696969696969702 4.090909090909092,1.9696969696969702 3.989898989898992,1.9696969696969702 3.8888888888888893,1.9696969696969702 3.7878787878787885,1.9696969696969702 3.6868686868686877,1.9696969696969702 3.5858585858585874,1.9696969696969702 3.4848484848484866,1.9696969696969702 3.383838383838384,1.9696969696969702 3.2828282828282833,1.9696969696969702 3.181818181818183,1.9696969696969702 3.080808080808082,1.9696969696969702 2.9797979797979806,1.9696969696969702 2.87878787878788,1.9696969696969702 2.7777777777777786,1.9696969696969702 2.676767676767678,1.9696969696969702 2.575757575757577,1.9696969696969702 2.4747474747474754,1.9696969696969702 2.373737373737375,1.9696969696969702 2.2727272727272734,1.9696969696969702 2.1717171717171726,1.9696969696969702 2.070707070707072,1.9696969696969702 1.9696969696969702,1.9696969696969702 1.8686868686868696,1.9696969696969702 1.767676767676768,1.9696969696969702 1.6666666666666674,1.9696969696969702 1.5656565656565666,1.9696969696969702 1.4646464646464652,1.9696969696969702 1.3636363636363644,1.9696969696969702 1.262626262626263,1.9696969696969702 1.1616161616161622,1.9696969696969702 1.0606060606060617,1.9696969696969702 0.9595959595959602,1.9696969696969702 0.8585858585858596,1.9696969696969702 0.7575757575757579,1.9696969696969702 0.6565656565656574,1.9696969696969702 0.5555555555555567,1.9696969696969702 0.4545454545454551,1.9696969696969702 0.3535353535353544,1.9696969696969702 0.2525252525252529,1.9696969696969702 0.1515151515151522,1.9696969696969702 0.050505050505051545,1.9696969696969702 -0.05050505050505001,1.9696969696969702 -0.15151515151515066,1.9696969696969702 -0.2525252525252522,1.9696969696969702 -0.35353535353535287,1.9696969696969702 -0.4545454545454544,1.9696969696969702 -0.555555555555555,1.9696969696969702 -0.6565656565656557,1.9696969696969702 -0.7575757575757572,1.9696969696969702 -0.8585858585858579,1.9696969696969702 -0.9595959595959596,1.9696969696969702 -1.0606060606060603,1.9696969696969702 -1.1616161616161613,1.9696969696969702 -1.2626262626262625,1.9696969696969702 -1.363636363636363,1.9696969696969702 -1.4646464646464643,1.9696969696969702 -1.5656565656565653,1.9696969696969702 -1.6666666666666665,1.9696969696969702 -1.7676767676767675,1.9696969696969702 -1.8686868686868683,1.9696969696969702 -1.9696969696969693,1.9696969696969702 -2.07070707070707,1.9696969696969702 -2.1717171717171713,1.9696969696969702 -2.2727272727272725,1.9696969696969702 -2.3737373737373733,1.9696969696969702 -2.474747474747474,1.9696969696969702 -2.5757575757575752,1.9696969696969702 -2.6767676767676765,1.9696969696969702 -2.7777777777777777,1.9696969696969702 -2.8787878787878785,1.9696969696969702 -2.9797979797979792,1.9696969696969702 -3.0808080808080804,1.9696969696969702 -3.1818181818181817,1.9696969696969702 -3.2828282828282824,1.9696969696969702 -3.383838383838383,1.9696969696969702 -3.484848484848485,1.9696969696969702 -3.5858585858585856,1.9696969696969702 -3.6868686868686864,1.9696969696969702 -3.7878787878787876,1.9696969696969702 -3.8888888888888884,1.9696969696969702 -3.98989898989899,1.9696969696969702 -4.090909090909091,1.9696969696969702 -4.191919191919193,1.9696969696969702 -4.292929292929293,1.9696969696969702 -4.393939393939394,1.9696969696969702 -4.494949494949496,1.9696969696969702 -4.595959595959596,1.9696969696969702 -4.696969696969697,1.9696969696969702 -4.7979797979797985,1.9696969696969702 -4.898989898989899,1.9696969696969702 -5.000000000000001,1.9696969696969702" data-type="line" data-label="" points="984,268.84848484848493 974.4646464646464,278.38383838383857 964.9292929292927,287.91919191919203 955.3939393939393,297.4545454545456 945.8585858585857,306.9898989898991 936.3232323232323,316.5252525252526 926.7878787878785,326.06060606060623 917.2525252525251,326.06060606060623 907.7171717171716,326.06060606060623 898.181818181818,326.06060606060623 888.6464646464647,326.06060606060623 879.111111111111,326.06060606060623 869.5757575757575,326.06060606060623 860.0404040404039,326.06060606060623 850.5050505050505,326.06060606060623 840.969696969697,326.06060606060623 831.4343434343433,326.06060606060623 821.8989898989898,326.06060606060623 812.3636363636363,326.06060606060623 802.8282828282828,326.06060606060623 793.2929292929292,326.06060606060623 783.7575757575758,326.06060606060623 774.2222222222222,326.06060606060623 764.6868686868686,326.06060606060623 755.1515151515151,326.06060606060623 745.6161616161615,326.06060606060623 736.0808080808081,326.06060606060623 726.5454545454545,326.06060606060623 717.0101010101009,326.06060606060623 707.4747474747475,326.06060606060623 697.9393939393939,326.06060606060623 688.4040404040404,326.06060606060623 678.8686868686868,326.06060606060623 669.3333333333333,326.06060606060623 659.7979797979798,326.06060606060623 650.2626262626262,326.06060606060623 640.7272727272727,326.06060606060623 631.1919191919192,326.06060606060623 621.6565656565656,326.06060606060623 612.1212121212121,326.06060606060623 602.5858585858585,326.06060606060623 593.0505050505051,326.06060606060623 583.5151515151515,326.06060606060623 573.9797979797979,326.06060606060623 564.4444444444445,326.06060606060623 554.9090909090909,326.06060606060623 545.3737373737374,326.06060606060623 535.8383838383838,326.06060606060623 526.3030303030303,326.06060606060623 516.7676767676768,326.06060606060623 507.2323232323232,326.06060606060623 497.69696969696975,326.06060606060623 488.16161616161617,326.06060606060623 478.62626262626264,326.06060606060623 469.09090909090907,326.06060606060623 459.55555555555554,326.06060606060623 450.0202020202021,326.06060606060623 440.4848484848485,326.06060606060623 430.949494949495,326.06060606060623 421.4141414141414,326.06060606060623 411.8787878787879,326.06060606060623 402.34343434343435,326.06060606060623 392.80808080808083,326.06060606060623 383.2727272727273,326.06060606060623 373.7373737373738,326.06060606060623 364.2020202020202,326.06060606060623 354.6666666666667,326.06060606060623 345.13131313131316,326.06060606060623 335.59595959595964,326.06060606060623 326.0606060606061,326.06060606060623 316.5252525252526,326.06060606060623 306.9898989898991,326.06060606060623 297.4545454545455,326.06060606060623 287.91919191919203,326.06060606060623 278.38383838383845,326.06060606060623 268.84848484848493,326.06060606060623 259.3131313131314,326.06060606060623 249.77777777777783,326.06060606060623 240.2424242424243,326.06060606060623 230.70707070707084,326.06060606060623 221.17171717171726,326.06060606060623 211.63636363636374,326.06060606060623 202.10101010101022,326.06060606060623 192.5656565656567,326.06060606060623 183.03030303030312,326.06060606060623 173.4949494949496,326.06060606060623 163.95959595959607,326.06060606060623 154.42424242424255,326.06060606060623 144.88888888888903,326.06060606060623 135.35353535353545,326.06060606060623 125.81818181818193,326.06060606060623 116.28282828282829,326.06060606060623 106.74747474747483,326.06060606060623 97.21212121212136,326.06060606060623 87.67676767676772,326.06060606060623 78.14141414141426,326.06060606060623 68.60606060606068,326.06060606060623 59.07070707070716,326.06060606060623 49.53535353535369,326.06060606060623 40.00000000000006,326.06060606060623" fill="none" stroke="rgba(0,0,255,0.75)" stroke-width="11.327999999999996"/></g><g><polyline data-points="-5.000000000000001,0.4545454545454551 -4.898989898989899,0.5555555555555567 -4.7979797979797985,0.6565656565656574 -4.696969696969697,0.7575757575757579 -4.595959595959596,0.7575757575757579 -4.494949494949496,0.7575757575757579 -4.393939393939394,0.7575757575757579 -4.292929292929293,0.7575757575757579 -4.191919191919193,0.7575757575757579 -4.090909090909091,0.7575757575757579 -3.98989898989899,0.7575757575757579 -3.8888888888888884,0.7575757575757579 -3.7878787878787876,0.7575757575757579 -3.6868686868686864,0.7575757575757579 -3.5858585858585856,0.7575757575757579 -3.484848484848485,0.7575757575757579 -3.383838383838383,0.7575757575757579 -3.2828282828282824,0.7575757575757579 -3.1818181818181817,0.7575757575757579 -3.0808080808080804,0.7575757575757579 -2.9797979797979792,0.7575757575757579 -2.8787878787878785,0.7575757575757579 -2.7777777777777777,0.7575757575757579 -2.6767676767676765,0.7575757575757579 -2.5757575757575752,0.7575757575757579 -2.474747474747474,0.7575757575757579 -2.3737373737373733,0.7575757575757579 -2.2727272727272725,0.7575757575757579 -2.1717171717171713,0.7575757575757579 -2.07070707070707,0.7575757575757579 -1.9696969696969693,0.7575757575757579 -1.8686868686868683,0.7575757575757579 -1.7676767676767675,0.7575757575757579 -1.6666666666666665,0.7575757575757579 -1.5656565656565653,0.7575757575757579 -1.4646464646464643,0.7575757575757579 -1.363636363636363,0.7575757575757579 -1.2626262626262625,0.7575757575757579 -1.1616161616161613,0.7575757575757579 -1.0606060606060603,0.7575757575757579 -0.9595959595959596,0.7575757575757579 -0.8585858585858579,0.7575757575757579 -0.7575757575757572,0.7575757575757579 -0.6565656565656557,0.7575757575757579 -0.555555555555555,0.7575757575757579 -0.4545454545454544,0.7575757575757579 -0.35353535353535287,0.7575757575757579 -0.2525252525252522,0.7575757575757579 -0.15151515151515066,0.7575757575757579 -0.05050505050505001,0.7575757575757579 0.050505050505051545,0.7575757575757579 0.1515151515151522,0.7575757575757579 0.2525252525252529,0.7575757575757579 0.3535353535353544,0.7575757575757579 0.4545454545454551,0.7575757575757579 0.5555555555555567,0.7575757575757579 0.6565656565656574,0.7575757575757579 0.7575757575757579,0.7575757575757579 0.8585858585858596,0.7575757575757579 0.9595959595959602,0.7575757575757579 1.0606060606060617,0.7575757575757579 1.1616161616161622,0.7575757575757579 1.262626262626263,0.7575757575757579 1.3636363636363644,0.7575757575757579 1.4646464646464652,0.7575757575757579 1.5656565656565666,0.7575757575757579 1.6666666666666674,0.7575757575757579 1.767676767676768,0.7575757575757579 1.8686868686868696,0.7575757575757579 1.9696969696969702,0.7575757575757579 2.070707070707072,0.7575757575757579 2.1717171717171726,0.7575757575757579 2.2727272727272734,0.7575757575757579 2.373737373737375,0.7575757575757579 2.4747474747474754,0.7575757575757579 2.575757575757577,0.7575757575757579 2.676767676767678,0.7575757575757579 2.7777777777777786,0.7575757575757579 2.87878787878788,0.7575757575757579 2.9797979797979806,0.7575757575757579 3.080808080808082,0.7575757575757579 3.181818181818183,0.7575757575757579 3.2828282828282833,0.7575757575757579 3.383838383838384,0.7575757575757579 3.4848484848484866,0.7575757575757579 3.5858585858585874,0.7575757575757579 3.6868686868686877,0.7575757575757579 3.7878787878787885,0.7575757575757579 3.8888888888888893,0.7575757575757579 3.989898989898992,0.7575757575757579" data-type="line" data-label="" points="40.00000000000006,469.0909090909092 49.53535353535369,459.5555555555556 59.07070707070716,450.0202020202021 68.60606060606068,440.4848484848486 78.14141414141426,440.4848484848486 87.67676767676772,440.4848484848486 97.21212121212136,440.4848484848486 106.74747474747483,440.4848484848486 116.28282828282829,440.4848484848486 125.81818181818193,440.4848484848486 135.35353535353545,440.4848484848486 144.88888888888903,440.4848484848486 154.42424242424255,440.4848484848486 163.95959595959607,440.4848484848486 173.4949494949496,440.4848484848486 183.03030303030312,440.4848484848486 192.5656565656567,440.4848484848486 202.10101010101022,440.4848484848486 211.63636363636374,440.4848484848486 221.17171717171726,440.4848484848486 230.70707070707084,440.4848484848486 240.2424242424243,440.4848484848486 249.77777777777783,440.4848484848486 259.3131313131314,440.4848484848486 268.84848484848493,440.4848484848486 278.38383838383845,440.4848484848486 287.91919191919203,440.4848484848486 297.4545454545455,440.4848484848486 306.9898989898991,440.4848484848486 316.5252525252526,440.4848484848486 326.0606060606061,440.4848484848486 335.59595959595964,440.4848484848486 345.13131313131316,440.4848484848486 354.6666666666667,440.4848484848486 364.2020202020202,440.4848484848486 373.7373737373738,440.4848484848486 383.2727272727273,440.4848484848486 392.80808080808083,440.4848484848486 402.34343434343435,440.4848484848486 411.8787878787879,440.4848484848486 421.4141414141414,440.4848484848486 430.949494949495,440.4848484848486 440.4848484848485,440.4848484848486 450.0202020202021,440.4848484848486 459.55555555555554,440.4848484848486 469.09090909090907,440.4848484848486 478.62626262626264,440.4848484848486 488.16161616161617,440.4848484848486 497.69696969696975,440.4848484848486 507.2323232323232,440.4848484848486 516.7676767676768,440.4848484848486 526.3030303030303,440.4848484848486 535.8383838383838,440.4848484848486 545.3737373737374,440.4848484848486 554.9090909090909,440.4848484848486 564.4444444444445,440.4848484848486 573.9797979797979,440.4848484848486 583.5151515151515,440.4848484848486 593.0505050505051,440.4848484848486 602.5858585858585,440.4848484848486 612.1212121212121,440.4848484848486 621.6565656565656,440.4848484848486 631.1919191919192,440.4848484848486 640.7272727272727,440.4848484848486 650.2626262626262,440.4848484848486 659.7979797979798,440.4848484848486 669.3333333333333,440.4848484848486 678.8686868686868,440.4848484848486 688.4040404040404,440.4848484848486 697.9393939393939,440.4848484848486 707.4747474747475,440.4848484848486 717.0101010101009,440.4848484848486 726.5454545454545,440.4848484848486 736.0808080808081,440.4848484848486 745.6161616161615,440.4848484848486 755.1515151515151,440.4848484848486 764.6868686868686,440.4848484848486 774.2222222222222,440.4848484848486 783.7575757575758,440.4848484848486 793.2929292929292,440.4848484848486 802.8282828282828,440.4848484848486 812.3636363636363,440.4848484848486 821.8989898989898,440.4848484848486 831.4343434343433,440.4848484848486 840.969696969697,440.4848484848486 850.5050505050505,440.4848484848486 860.0404040404039,440.4848484848486 869.5757575757575,440.4848484848486 879.111111111111,440.4848484848486 888.6464646464647,440.4848484848486" fill="none" stroke="rgba(0,0,255,0.75)" stroke-width="11.327999999999996"/></g><g><polyline data-points="3.989898989898992,0.7575757575757579 4.090909090909092,0.7575757575757579 4.191919191919193,0.7575757575757579 4.292929292929293,0.7575757575757579 4.393939393939394,0.7575757575757579 4.494949494949497,0.7575757575757579 4.595959595959597,0.7575757575757579 4.696969696969697,0.7575757575757579 4.7979797979797985,0.7575757575757579 4.898989898989901,0.7575757575757579 5.000000000000002,0.7575757575757579" data-type="line" data-label="" points="888.6464646464647,440.4848484848486 898.181818181818,440.4848484848486 907.7171717171716,440.4848484848486 917.2525252525251,440.4848484848486 926.7878787878785,440.4848484848486 936.3232323232323,440.4848484848486 945.8585858585857,440.4848484848486 955.3939393939393,440.4848484848486 964.9292929292927,440.4848484848486 974.4646464646464,440.4848484848486 984,440.4848484848486" fill="none" stroke="rgba(255,0,0,0.75)" stroke-width="11.327999999999996"/></g><g><polyline data-points="-5.000000000000001,-2.07070707070707 -5.000000000000001,-1.9696969696969693 -5.000000000000001,-1.8686868686868683 -5.000000000000001,-1.7676767676767675 -5.000000000000001,-1.6666666666666665 -5.000000000000001,-1.5656565656565653 -5.000000000000001,-1.4646464646464643 -5.000000000000001,-1.363636363636363 -5.000000000000001,-1.2626262626262625 -5.000000000000001,-1.1616161616161613 -5.000000000000001,-1.0606060606060603 -5.000000000000001,-0.9595959595959596 -5.000000000000001,-0.8585858585858579 -5.000000000000001,-0.7575757575757572 -5.000000000000001,-0.6565656565656557 -5.000000000000001,-0.555555555555555 -5.000000000000001,-0.4545454545454544 -5.000000000000001,-0.35353535353535287 -5.000000000000001,-0.2525252525252522 -5.000000000000001,-0.15151515151515066 -5.000000000000001,-0.05050505050505001 -5.000000000000001,0.050505050505051545 -5.000000000000001,0.1515151515151522 -5.000000000000001,0.2525252525252529 -5.000000000000001,0.3535353535353544 -5.000000000000001,0.4545454545454551" data-type="line" data-label="" points="40.00000000000006,707.4747474747475 40.00000000000006,697.939393939394 40.00000000000006,688.4040404040404 40.00000000000006,678.8686868686868 40.00000000000006,669.3333333333334 40.00000000000006,659.7979797979798 40.00000000000006,650.2626262626263 40.00000000000006,640.7272727272727 40.00000000000006,631.1919191919193 40.00000000000006,621.6565656565657 40.00000000000006,612.1212121212121 40.00000000000006,602.5858585858587 40.00000000000006,593.0505050505051 40.00000000000006,583.5151515151516 40.00000000000006,573.979797979798 40.00000000000006,564.4444444444445 40.00000000000006,554.909090909091 40.00000000000006,545.3737373737374 40.00000000000006,535.838383838384 40.00000000000006,526.3030303030304 40.00000000000006,516.7676767676768 40.00000000000006,507.23232323232327 40.00000000000006,497.69696969696975 40.00000000000006,488.1616161616163 40.00000000000006,478.6262626262627 40.00000000000006,469.0909090909092" fill="none" stroke="rgba(255,0,0,0.75)" stroke-width="11.327999999999996"/></g><g><rect data-type="rect" data-label="" data-x="0" data-y="0" x="40.000000000000114" y="40.000000000000284" width="943.9999999999997" height="943.9999999999998" fill="none" stroke="gray" stroke-width="0.010593220338983056"/></g><g><rect data-type="rect" data-label="" data-x="0" data-y="0" x="40.000000000000114" y="40.000000000000284" width="943.9999999999997" height="943.9999999999998" fill="none" stroke="rgba(15, 23, 42, 0.8)" stroke-width="0.010593220338983056"/></g><circle data-type="circle" data-label="" data-x="-2.07070707070707" data-y="-3.98989898989899" cx="316.5252525252526" cy="888.6464646464647" r="14.159999999999995" fill="rgba(0,0,0,0.3)" stroke="black" stroke-width="0.010593220338983056"/><circle data-type="circle" data-label="" data-x="3.989898989898992" data-y="0.7575757575757579" cx="888.6464646464647" cy="440.4848484848486" r="14.159999999999995" fill="rgba(0,0,0,0.3)" stroke="black" stroke-width="0.010593220338983056"/><g id="crosshair" style="display: none"><line id="crosshair-h" y1="0" y2="1024" stroke="#666" stroke-width="0.5"/><line id="crosshair-v" x1="0" x2="1024" stroke="#666" stroke-width="0.5"/><text id="coordinates" font-family="monospace" font-size="12" fill="#666"></text></g><script><![CDATA[
              document.currentScript.parentElement.addEventListener('mousemove', (e) => {
                const svg = e.currentTarget;
                const rect = svg.getBoundingClientRect();
                const x = e.clientX - rect.left;
                const y = e.clientY - rect.top;
                const crosshair = svg.getElementById('crosshair');
                const h = svg.getElementById('crosshair-h');
                const v = svg.getElementById('crosshair-v');
                const coords = svg.getElementById('coordinates');
                
                crosshair.style.display = 'block';
                h.setAttribute('x1', '0');
                h.setAttribute('x2', '1024');
                h.setAttribute('y1', y);
                h.setAttribute('y2', y);
                v.setAttribute('x1', x);
                v.setAttribute('x2', x);
                v.setAttribute('y1', '0');
                v.setAttribute('y2', '1024');

                // Calculate real coordinates using inverse transformation
                const matrix = {"a":94.39999999999996,"c":0,"e":511.99999999999994,"b":0,"d":-94.39999999999996,"f":512.0000000000001};
                // Manually invert and apply the affine transform
                // Since we only use translate and scale, we can directly compute:
                // x' = (x - tx) / sx
                // y' = (y - ty) / sy
                const sx = matrix.a;
                const sy = matrix.d;
                const tx = matrix.e; 
                const ty = matrix.f;
                const realPoint = {
                  x: (x - tx) / sx,
                  y: (y - ty) / sy // Flip y back since we used negative scale
                }
                
                coords.textContent = `(${realPoint.x.toFixed(2)}, ${realPoint.y.toFixed(2)})`;
                coords.setAttribute('x', (x + 5).toString());
                coords.setAttribute('y', (y - 5).toString());
              });
              document.currentScript.parentElement.addEventListener('mouseleave', () => {
                document.currentScript.parentElement.getElementById('crosshair').style.display = 'none';
              });
            ]]></script></svg>