<svg width="1024" height="1024" viewBox="0 0 1024 1024" xmlns="http://www.w3.org/2000/svg"><rect width="100%" height="100%" fill="white"/><g><circle data-type="point" data-label="conn_000" data-x="-0.58" data-y="-5" cx="457.248" cy="984" r="14.16" fill="blue"/></g><g><circle data-type="point" data-label="conn_000" data-x="5" data-y="-0.68" cx="983.9999999999998" cy="576.1920000000001" r="14.16" fill="blue"/></g><g><circle data-type="point" data-label="conn_001" data-x="-1.86" data-y="5" cx="336.416" cy="40.000000000000284" r="14.16" fill="red"/></g><g><circle data-type="point" data-label="conn_001" data-x="3.7800000000000002" data-y="-5" cx="868.8319999999999" cy="984" r="14.16" fill="red"/></g><g><circle data-type="point" data-label="conn_002" data-x="-2.38" data-y="5" cx="287.32800000000003" cy="40.000000000000284" r="14.16" fill="red"/></g><g><circle data-type="point" data-label="conn_002" data-x="2.7600000000000002" data-y="-5" cx="772.5439999999999" cy="984" r="14.16" fill="red"/></g><g><circle data-type="point" data-label="conn_003" data-x="3.84" data-y="5" cx="874.4959999999999" cy="40.000000000000284" r="14.16" fill="red"/></g><g><circle data-type="point" data-label="conn_003" data-x="2" data-y="-5" cx="700.7999999999998" cy="984" r="14.16" fill="blue"/></g><g><circle data-type="point" data-label="conn_004" data-x="5" data-y="-4.94" cx="983.9999999999998" cy="978.336" r="14.16" fill="blue"/></g><g><circle data-type="point" data-label="conn_004" data-x="5" data-y="-1.68" cx="983.9999999999998" cy="670.5920000000001" r="14.16" fill="blue"/></g><g><circle data-type="point" data-label="conn_005" data-x="5" data-y="-3.98" cx="983.9999999999998" cy="887.712" r="14.16" fill="red"/></g><g><circle data-type="point" data-label="conn_005" data-x="0.92" data-y="-5" cx="598.848" cy="984" r="14.16" fill="blue"/></g><g><circle data-type="point" data-label="conn_006" data-x="-0.36" data-y="5" cx="478.01599999999996" cy="40.000000000000284" r="14.16" fill="blue"/></g><g><circle data-type="point" data-label="conn_006" data-x="-2.32" data-y="-5" cx="292.9920000000001" cy="984" r="14.16" fill="red"/></g><g><circle data-type="point" data-label="conn_007" data-x="-3.7800000000000002" data-y="5" cx="155.16800000000006" cy="40.000000000000284" r="14.16" fill="blue"/></g><g><circle data-type="point" data-label="conn_007" data-x="-4.92" data-y="-5" cx="47.552000000000135" cy="984" r="14.16" fill="red"/></g><g><circle data-type="point" data-label="conn_008" data-x="-5" data-y="-2.8000000000000003" cx="40.000000000000114" cy="776.32" r="14.16" fill="red"/></g><g><circle data-type="point" data-label="conn_008" data-x="5" data-y="4.8" cx="983.9999999999998" cy="58.88000000000028" r="14.16" fill="blue"/></g><g><polyline data-points="5.000000000000002,-5.000000000000001 5.000000000000002,-4.898989898989899 5.000000000000002,-4.7979797979797985 5.000000000000002,-4.696969696969697 5.000000000000002,-4.595959595959596 5.000000000000002,-4.494949494949496 5.000000000000002,-4.393939393939394 5.000000000000002,-4.292929292929293 5.000000000000002,-4.191919191919193 5.000000000000002,-4.090909090909091 5.000000000000002,-3.98989898989899 5.000000000000002,-3.8888888888888884 5.000000000000002,-3.7878787878787876 5.000000000000002,-3.6868686868686864 5.000000000000002,-3.5858585858585856 5.000000000000002,-3.484848484848485 5.000000000000002,-3.383838383838383 5.000000000000002,-3.2828282828282824 5.000000000000002,-3.1818181818181817 5.000000000000002,-3.0808080808080804 5.000000000000002,-2.9797979797979792 5.000000000000002,-2.8787878787878785 5.000000000000002,-2.7777777777777777 5.000000000000002,-2.6767676767676765 5.000000000000002,-2.5757575757575752 5.000000000000002,-2.474747474747474 5.000000000000002,-2.3737373737373733 5.000000000000002,-2.2727272727272725 5.000000000000002,-2.1717171717171713 5.000000000000002,-2.07070707070707 5.000000000000002,-1.9696969696969693 5.000000000000002,-1.8686868686868683 5.000000000000002,-1.7676767676767675 5.000000000000002,-1.6666666666666665" data-type="line" data-label="" points="984,984 984,974.4646464646464 984,964.9292929292928 984,955.3939393939394 984,945.8585858585858 984,936.3232323232323 984,926.7878787878788 984,917.2525252525252 984,907.7171717171718 984,898.1818181818181 984,888.6464646464647 984,879.1111111111111 984,869.5757575757575 984,860.0404040404039 984,850.5050505050505 984,840.969696969697 984,831.4343434343434 984,821.8989898989898 984,812.3636363636363 984,802.8282828282828 984,793.2929292929292 984,783.7575757575758 984,774.2222222222222 984,764.6868686868687 984,755.1515151515151 984,745.6161616161615 984,736.0808080808081 984,726.5454545454545 984,717.010101010101 984,707.4747474747475 984,697.939393939394 984,688.4040404040404 984,678.8686868686868 984,669.3333333333334" fill="none" stroke="rgba(0,0,255,0.75)" stroke-width="11.327999999999996"/></g><g><polyline data-points="-5.000000000000001,-2.8787878787878785 -4.898989898989899,-2.7777777777777777 -4.7979797979797985,-2.6767676767676765 -4.696969696969697,-2.5757575757575752 -4.595959595959596,-2.474747474747474 -4.494949494949496,-2.3737373737373733 -4.393939393939394,-2.2727272727272725 -4.292929292929293,-2.1717171717171713 -4.191919191919193,-2.07070707070707 -4.090909090909091,-1.9696969696969693 -3.98989898989899,-1.8686868686868683 -3.8888888888888884,-1.7676767676767675 -3.7878787878787876,-1.6666666666666665 -3.6868686868686864,-1.5656565656565653 -3.5858585858585856,-1.4646464646464643 -3.484848484848485,-1.363636363636363 -3.383838383838383,-1.2626262626262625 -3.2828282828282824,-1.1616161616161613 -3.1818181818181817,-1.0606060606060603 -3.0808080808080804,-0.9595959595959596 -2.9797979797979792,-0.8585858585858579 -2.8787878787878785,-0.7575757575757572 -2.7777777777777777,-0.6565656565656557 -2.6767676767676765,-0.555555555555555 -2.5757575757575752,-0.4545454545454544 -2.474747474747474,-0.35353535353535287 -2.3737373737373733,-0.2525252525252522 -2.2727272727272725,-0.15151515151515066 -2.1717171717171713,-0.05050505050505001 -2.07070707070707,0.050505050505051545 -1.9696969696969693,0.1515151515151522 -1.8686868686868683,0.2525252525252529 -1.7676767676767675,0.3535353535353544 -1.6666666666666665,0.4545454545454551 -1.5656565656565653,0.5555555555555567 -1.4646464646464643,0.6565656565656574 -1.363636363636363,0.7575757575757579 -1.2626262626262625,0.8585858585858596 -1.1616161616161613,0.9595959595959602 -1.0606060606060603,1.0606060606060617 -0.9595959595959596,1.1616161616161622 -0.8585858585858579,1.262626262626263 -0.7575757575757572,1.3636363636363644 -0.6565656565656557,1.4646464646464652 -0.555555555555555,1.5656565656565666 -0.4545454545454544,1.6666666666666674 -0.35353535353535287,1.767676767676768 -0.2525252525252522,1.8686868686868696 -0.15151515151515066,1.9696969696969702 -0.05050505050505001,2.070707070707072 0.050505050505051545,2.1717171717171726 0.1515151515151522,2.2727272727272734 0.2525252525252529,2.373737373737375 0.3535353535353544,2.4747474747474754 0.4545454545454551,2.575757575757577 0.5555555555555567,2.676767676767678 0.6565656565656574,2.7777777777777786 0.7575757575757579,2.87878787878788 0.8585858585858596,2.9797979797979806 0.9595959595959602,3.080808080808082 1.0606060606060617,3.181818181818183 1.1616161616161622,3.2828282828282833 1.262626262626263,3.383838383838384 1.3636363636363644,3.4848484848484866 1.4646464646464652,3.5858585858585874 1.5656565656565666,3.6868686868686877 1.6666666666666674,3.7878787878787885 1.767676767676768,3.8888888888888893 1.8686868686868696,3.989898989898992 1.9696969696969702,3.989898989898992 2.070707070707072,3.989898989898992 2.1717171717171726,3.989898989898992 2.2727272727272734,3.989898989898992 2.373737373737375,3.989898989898992 2.4747474747474754,3.989898989898992 2.575757575757577,3.989898989898992 2.676767676767678,3.989898989898992 2.7777777777777786,3.989898989898992 2.87878787878788,3.989898989898992 2.9797979797979806,3.989898989898992 3.080808080808082,3.989898989898992 3.181818181818183,3.989898989898992 3.2828282828282833,3.989898989898992 3.383838383838384,3.989898989898992 3.4848484848484866,3.989898989898992 3.5858585858585874,3.989898989898992 3.6868686868686877,3.989898989898992 3.7878787878787885,3.989898989898992" data-type="line" data-label="" points="40.00000000000006,783.7575757575758 49.53535353535369,774.2222222222222 59.07070707070716,764.6868686868687 68.60606060606068,755.1515151515151 78.14141414141426,745.6161616161615 87.67676767676772,736.0808080808081 97.21212121212136,726.5454545454545 106.74747474747483,717.010101010101 116.28282828282829,707.4747474747475 125.81818181818193,697.939393939394 135.35353535353545,688.4040404040404 144.88888888888903,678.8686868686868 154.42424242424255,669.3333333333334 163.95959595959607,659.7979797979798 173.4949494949496,650.2626262626263 183.03030303030312,640.7272727272727 192.5656565656567,631.1919191919193 202.10101010101022,621.6565656565657 211.63636363636374,612.1212121212121 221.17171717171726,602.5858585858587 230.70707070707084,593.0505050505051 240.2424242424243,583.5151515151516 249.77777777777783,573.979797979798 259.3131313131314,564.4444444444445 268.84848484848493,554.909090909091 278.38383838383845,545.3737373737374 287.91919191919203,535.838383838384 297.4545454545455,526.3030303030304 306.9898989898991,516.7676767676768 316.5252525252526,507.23232323232327 326.0606060606061,497.69696969696975 335.59595959595964,488.1616161616163 345.13131313131316,478.6262626262627 354.6666666666667,469.0909090909092 364.2020202020202,459.5555555555556 373.7373737373738,450.0202020202021 383.2727272727273,440.4848484848486 392.80808080808083,430.94949494949503 402.34343434343435,421.4141414141415 411.8787878787879,411.87878787878793 421.4141414141414,402.3434343434344 430.949494949495,392.80808080808094 440.4848484848485,383.27272727272737 450.0202020202021,373.73737373737384 459.55555555555554,364.2020202020203 469.09090909090907,354.66666666666674 478.62626262626264,345.1313131313133 488.16161616161617,335.5959595959597 497.69696969696975,326.06060606060623 507.2323232323232,316.5252525252526 516.7676767676768,306.9898989898991 526.3030303030303,297.4545454545456 535.8383838383838,287.91919191919203 545.3737373737374,278.38383838383857 554.9090909090909,268.84848484848493 564.4444444444445,259.3131313131314 573.9797979797979,249.77777777777794 583.5151515151515,240.24242424242436 593.0505050505051,230.70707070707084 602.5858585858585,221.17171717171726 612.1212121212121,211.63636363636374 621.6565656565656,202.10101010101027 631.1919191919192,192.56565656565675 640.7272727272727,183.03030303030312 650.2626262626262,173.4949494949496 659.7979797979798,163.95959595959613 669.3333333333333,154.4242424242426 678.8686868686868,144.88888888888908 688.4040404040404,135.35353535353545 697.9393939393939,135.35353535353545 707.4747474747475,135.35353535353545 717.0101010101009,135.35353535353545 726.5454545454545,135.35353535353545 736.0808080808081,135.35353535353545 745.6161616161615,135.35353535353545 755.1515151515151,135.35353535353545 764.6868686868686,135.35353535353545 774.2222222222222,135.35353535353545 783.7575757575758,135.35353535353545 793.2929292929292,135.35353535353545 802.8282828282828,135.35353535353545 812.3636363636363,135.35353535353545 821.8989898989898,135.35353535353545 831.4343434343433,135.35353535353545 840.969696969697,135.35353535353545 850.5050505050505,135.35353535353545 860.0404040404039,135.35353535353545 869.5757575757575,135.35353535353545" fill="none" stroke="rgba(255,0,0,0.75)" stroke-width="11.327999999999996"/></g><g><polyline data-points="3.7878787878787885,3.989898989898992 3.8888888888888893,4.090909090909092 3.989898989898992,4.191919191919193 4.090909090909092,4.292929292929293 4.191919191919193,4.393939393939394 4.292929292929293,4.494949494949497 4.393939393939394,4.595959595959597 4.494949494949497,4.696969696969697 4.595959595959597,4.7979797979797985 4.696969696969697,4.898989898989901 4.7979797979797985,4.898989898989901 4.898989898989901,4.898989898989901 5.000000000000002,4.898989898989901" data-type="line" data-label="" points="869.5757575757575,135.35353535353545 879.111111111111,125.81818181818198 888.6464646464647,116.28282828282846 898.181818181818,106.747474747475 907.7171717171716,97.21212121212153 917.2525252525251,87.67676767676778 926.7878787878785,78.14141414141432 936.3232323232323,68.60606060606085 945.8585858585857,59.07070707070733 955.3939393939393,49.53535353535369 964.9292929292927,49.53535353535369 974.4646464646464,49.53535353535369 984,49.53535353535369" fill="none" stroke="rgba(0,0,255,0.75)" stroke-width="11.327999999999996"/></g><g><polyline data-points="-2.3737373737373733,5.000000000000002 -2.2727272727272725,4.898989898989901 -2.1717171717171713,4.7979797979797985 -2.07070707070707,4.696969696969697 -1.9696969696969693,4.595959595959597 -1.8686868686868683,4.494949494949497 -1.7676767676767675,4.393939393939394 -1.6666666666666665,4.292929292929293 -1.5656565656565653,4.191919191919193 -1.4646464646464643,4.090909090909092 -1.363636363636363,3.989898989898992 -1.2626262626262625,3.8888888888888893 -1.1616161616161613,3.7878787878787885 -1.0606060606060603,3.6868686868686877 -0.9595959595959596,3.5858585858585874 -0.8585858585858579,3.4848484848484866 -0.7575757575757572,3.383838383838384 -0.6565656565656557,3.2828282828282833 -0.555555555555555,3.181818181818183 -0.4545454545454544,3.080808080808082 -0.35353535353535287,2.9797979797979806 -0.2525252525252522,2.87878787878788 -0.15151515151515066,2.7777777777777786 -0.05050505050505001,2.676767676767678" data-type="line" data-label="" points="287.91919191919203,40.000000000000114 297.4545454545455,49.53535353535369 306.9898989898991,59.07070707070733 316.5252525252526,68.60606060606085 326.0606060606061,78.14141414141432 335.59595959595964,87.67676767676778 345.13131313131316,97.21212121212153 354.6666666666667,106.747474747475 364.2020202020202,116.28282828282846 373.7373737373738,125.81818181818198 383.2727272727273,135.35353535353545 392.80808080808083,144.88888888888908 402.34343434343435,154.4242424242426 411.8787878787879,163.95959595959613 421.4141414141414,173.4949494949496 430.949494949495,183.03030303030312 440.4848484848485,192.56565656565675 450.0202020202021,202.10101010101027 459.55555555555554,211.63636363636374 469.09090909090907,221.17171717171726 478.62626262626264,230.70707070707084 488.16161616161617,240.24242424242436 497.69696969696975,249.77777777777794 507.2323232323232,259.3131313131314" fill="none" stroke="rgba(255,0,0,0.75)" stroke-width="11.327999999999996"/></g><g><polyline data-points="-0.05050505050505001,2.676767676767678 0.050505050505051545,2.575757575757577 0.1515151515151522,2.4747474747474754 0.2525252525252529,2.373737373737375 0.3535353535353544,2.2727272727272734 0.4545454545454551,2.1717171717171726 0.5555555555555567,2.070707070707072 0.6565656565656574,1.9696969696969702 0.7575757575757579,1.8686868686868696 0.8585858585858596,1.767676767676768 0.9595959595959602,1.6666666666666674 1.0606060606060617,1.5656565656565666 1.1616161616161622,1.4646464646464652 1.262626262626263,1.3636363636363644 1.3636363636363644,1.262626262626263 1.4646464646464652,1.1616161616161622 1.5656565656565666,1.0606060606060617 1.6666666666666674,0.9595959595959602 1.767676767676768,0.8585858585858596 1.8686868686868696,0.7575757575757579 1.9696969696969702,0.6565656565656574 2.070707070707072,0.5555555555555567 2.1717171717171726,0.4545454545454551 2.2727272727272734,0.3535353535353544 2.373737373737375,0.2525252525252529 2.4747474747474754,0.1515151515151522 2.575757575757577,0.050505050505051545 2.676767676767678,-0.05050505050505001 2.7777777777777786,-0.15151515151515066 2.7777777777777786,-0.2525252525252522 2.7777777777777786,-0.35353535353535287 2.7777777777777786,-0.4545454545454544 2.7777777777777786,-0.555555555555555 2.7777777777777786,-0.6565656565656557 2.7777777777777786,-0.7575757575757572 2.7777777777777786,-0.8585858585858579 2.7777777777777786,-0.9595959595959596 2.7777777777777786,-1.0606060606060603 2.7777777777777786,-1.1616161616161613 2.7777777777777786,-1.2626262626262625 2.7777777777777786,-1.363636363636363 2.7777777777777786,-1.4646464646464643 2.7777777777777786,-1.5656565656565653 2.7777777777777786,-1.6666666666666665 2.7777777777777786,-1.7676767676767675 2.7777777777777786,-1.8686868686868683 2.7777777777777786,-1.9696969696969693 2.7777777777777786,-2.07070707070707 2.7777777777777786,-2.1717171717171713 2.7777777777777786,-2.2727272727272725 2.7777777777777786,-2.3737373737373733 2.7777777777777786,-2.474747474747474 2.7777777777777786,-2.5757575757575752 2.7777777777777786,-2.6767676767676765 2.7777777777777786,-2.7777777777777777 2.7777777777777786,-2.8787878787878785 2.7777777777777786,-2.9797979797979792 2.7777777777777786,-3.0808080808080804 2.7777777777777786,-3.1818181818181817 2.7777777777777786,-3.2828282828282824 2.7777777777777786,-3.383838383838383 2.7777777777777786,-3.484848484848485 2.7777777777777786,-3.5858585858585856 2.7777777777777786,-3.6868686868686864 2.7777777777777786,-3.7878787878787876 2.7777777777777786,-3.8888888888888884 2.7777777777777786,-3.98989898989899" data-type="line" data-label="" points="507.2323232323232,259.3131313131314 516.7676767676768,268.84848484848493 526.3030303030303,278.38383838383857 535.8383838383838,287.91919191919203 545.3737373737374,297.4545454545456 554.9090909090909,306.9898989898991 564.4444444444445,316.5252525252526 573.9797979797979,326.06060606060623 583.5151515151515,335.5959595959597 593.0505050505051,345.1313131313133 602.5858585858585,354.66666666666674 612.1212121212121,364.2020202020203 621.6565656565656,373.73737373737384 631.1919191919192,383.27272727272737 640.7272727272727,392.80808080808094 650.2626262626262,402.3434343434344 659.7979797979798,411.87878787878793 669.3333333333333,421.4141414141415 678.8686868686868,430.94949494949503 688.4040404040404,440.4848484848486 697.9393939393939,450.0202020202021 707.4747474747475,459.5555555555556 717.0101010101009,469.0909090909092 726.5454545454545,478.6262626262627 736.0808080808081,488.1616161616163 745.6161616161615,497.69696969696975 755.1515151515151,507.23232323232327 764.6868686868686,516.7676767676768 774.2222222222222,526.3030303030304 774.2222222222222,535.838383838384 774.2222222222222,545.3737373737374 774.2222222222222,554.909090909091 774.2222222222222,564.4444444444445 774.2222222222222,573.979797979798 774.2222222222222,583.5151515151516 774.2222222222222,593.0505050505051 774.2222222222222,602.5858585858587 774.2222222222222,612.1212121212121 774.2222222222222,621.6565656565657 774.2222222222222,631.1919191919193 774.2222222222222,640.7272727272727 774.2222222222222,650.2626262626263 774.2222222222222,659.7979797979798 774.2222222222222,669.3333333333334 774.2222222222222,678.8686868686868 774.2222222222222,688.4040404040404 774.2222222222222,697.939393939394 774.2222222222222,707.4747474747475 774.2222222222222,717.010101010101 774.2222222222222,726.5454545454545 774.2222222222222,736.0808080808081 774.2222222222222,745.6161616161615 774.2222222222222,755.1515151515151 774.2222222222222,764.6868686868687 774.2222222222222,774.2222222222222 774.2222222222222,783.7575757575758 774.2222222222222,793.2929292929292 774.2222222222222,802.8282828282828 774.2222222222222,812.3636363636363 774.2222222222222,821.8989898989898 774.2222222222222,831.4343434343434 774.2222222222222,840.969696969697 774.2222222222222,850.5050505050505 774.2222222222222,860.0404040404039 774.2222222222222,869.5757575757575 774.2222222222222,879.1111111111111 774.2222222222222,888.6464646464647" fill="none" stroke="rgba(0,0,255,0.75)" stroke-width="11.327999999999996"/></g><g><polyline data-points="2.7777777777777786,-3.98989898989899 2.7777777777777786,-4.090909090909091 2.7777777777777786,-4.191919191919193 2.7777777777777786,-4.292929292929293 2.7777777777777786,-4.393939393939394 2.7777777777777786,-4.494949494949496 2.7777777777777786,-4.595959595959596 2.7777777777777786,-4.696969696969697 2.7777777777777786,-4.7979797979797985 2.7777777777777786,-4.898989898989899 2.7777777777777786,-5.000000000000001" data-type="line" data-label="" points="774.2222222222222,888.6464646464647 774.2222222222222,898.1818181818181 774.2222222222222,907.7171717171718 774.2222222222222,917.2525252525252 774.2222222222222,926.7878787878788 774.2222222222222,936.3232323232323 774.2222222222222,945.8585858585858 774.2222222222222,955.3939393939394 774.2222222222222,964.9292929292928 774.2222222222222,974.4646464646464 774.2222222222222,984" fill="none" stroke="rgba(255,0,0,0.75)" stroke-width="11.327999999999996"/></g><g><polyline data-points="-0.35353535353535287,5.000000000000002 -0.4545454545454544,4.898989898989901 -0.555555555555555,4.7979797979797985 -0.6565656565656557,4.696969696969697 -0.7575757575757572,4.595959595959597 -0.8585858585858579,4.494949494949497 -0.9595959595959596,4.393939393939394 -1.0606060606060603,4.292929292929293 -1.1616161616161613,4.191919191919193 -1.2626262626262625,4.090909090909092 -1.363636363636363,3.989898989898992 -1.4646464646464643,3.8888888888888893 -1.5656565656565653,3.7878787878787885 -1.6666666666666665,3.6868686868686877 -1.7676767676767675,3.5858585858585874 -1.8686868686868683,3.4848484848484866 -1.9696969696969693,3.383838383838384 -2.07070707070707,3.2828282828282833 -2.1717171717171713,3.181818181818183 -2.2727272727272725,3.080808080808082 -2.3737373737373733,2.9797979797979806 -2.3737373737373733,2.87878787878788 -2.3737373737373733,2.7777777777777786 -2.3737373737373733,2.676767676767678 -2.3737373737373733,2.575757575757577 -2.3737373737373733,2.4747474747474754 -2.3737373737373733,2.373737373737375 -2.3737373737373733,2.2727272727272734 -2.3737373737373733,2.1717171717171726 -2.3737373737373733,2.070707070707072 -2.3737373737373733,1.9696969696969702 -2.3737373737373733,1.8686868686868696 -2.3737373737373733,1.767676767676768 -2.3737373737373733,1.6666666666666674 -2.3737373737373733,1.5656565656565666 -2.3737373737373733,1.4646464646464652 -2.3737373737373733,1.3636363636363644 -2.3737373737373733,1.262626262626263 -2.3737373737373733,1.1616161616161622 -2.3737373737373733,1.0606060606060617 -2.3737373737373733,0.9595959595959602 -2.3737373737373733,0.8585858585858596 -2.3737373737373733,0.7575757575757579 -2.3737373737373733,0.6565656565656574 -2.3737373737373733,0.5555555555555567 -2.3737373737373733,0.4545454545454551 -2.3737373737373733,0.3535353535353544 -2.3737373737373733,0.2525252525252529 -2.3737373737373733,0.1515151515151522 -2.3737373737373733,0.050505050505051545 -2.3737373737373733,-0.05050505050505001 -2.3737373737373733,-0.15151515151515066 -2.3737373737373733,-0.2525252525252522 -2.3737373737373733,-0.35353535353535287 -2.3737373737373733,-0.4545454545454544 -2.3737373737373733,-0.555555555555555 -2.3737373737373733,-0.6565656565656557 -2.3737373737373733,-0.7575757575757572 -2.3737373737373733,-0.8585858585858579 -2.3737373737373733,-0.9595959595959596 -2.3737373737373733,-1.0606060606060603 -2.3737373737373733,-1.1616161616161613 -2.3737373737373733,-1.2626262626262625 -2.3737373737373733,-1.363636363636363 -2.3737373737373733,-1.4646464646464643 -2.3737373737373733,-1.5656565656565653 -2.3737373737373733,-1.6666666666666665 -2.3737373737373733,-1.7676767676767675 -2.3737373737373733,-1.8686868686868683 -2.3737373737373733,-1.9696969696969693 -2.3737373737373733,-2.07070707070707 -2.3737373737373733,-2.1717171717171713 -2.3737373737373733,-2.2727272727272725 -2.3737373737373733,-2.3737373737373733 -2.3737373737373733,-2.474747474747474 -2.3737373737373733,-2.5757575757575752 -2.3737373737373733,-2.6767676767676765 -2.3737373737373733,-2.7777777777777777 -2.3737373737373733,-2.8787878787878785 -2.3737373737373733,-2.9797979797979792 -2.3737373737373733,-3.0808080808080804 -2.3737373737373733,-3.1818181818181817 -2.3737373737373733,-3.2828282828282824 -2.3737373737373733,-3.383838383838383 -2.3737373737373733,-3.484848484848485 -2.3737373737373733,-3.5858585858585856 -2.3737373737373733,-3.6868686868686864 -2.3737373737373733,-3.7878787878787876 -2.3737373737373733,-3.8888888888888884 -2.3737373737373733,-3.98989898989899" data-type="line" data-label="" points="478.62626262626264,40.000000000000114 469.09090909090907,49.53535353535369 459.55555555555554,59.07070707070733 450.0202020202021,68.60606060606085 440.4848484848485,78.14141414141432 430.949494949495,87.67676767676778 421.4141414141414,97.21212121212153 411.8787878787879,106.747474747475 402.34343434343435,116.28282828282846 392.80808080808083,125.81818181818198 383.2727272727273,135.35353535353545 373.7373737373738,144.88888888888908 364.2020202020202,154.4242424242426 354.6666666666667,163.95959595959613 345.13131313131316,173.4949494949496 335.59595959595964,183.03030303030312 326.0606060606061,192.56565656565675 316.5252525252526,202.10101010101027 306.9898989898991,211.63636363636374 297.4545454545455,221.17171717171726 287.91919191919203,230.70707070707084 287.91919191919203,240.24242424242436 287.91919191919203,249.77777777777794 287.91919191919203,259.3131313131314 287.91919191919203,268.84848484848493 287.91919191919203,278.38383838383857 287.91919191919203,287.91919191919203 287.91919191919203,297.4545454545456 287.91919191919203,306.9898989898991 287.91919191919203,316.5252525252526 287.91919191919203,326.06060606060623 287.91919191919203,335.5959595959597 287.91919191919203,345.1313131313133 287.91919191919203,354.66666666666674 287.91919191919203,364.2020202020203 287.91919191919203,373.73737373737384 287.91919191919203,383.27272727272737 287.91919191919203,392.80808080808094 287.91919191919203,402.3434343434344 287.91919191919203,411.87878787878793 287.91919191919203,421.4141414141415 287.91919191919203,430.94949494949503 287.91919191919203,440.4848484848486 287.91919191919203,450.0202020202021 287.91919191919203,459.5555555555556 287.91919191919203,469.0909090909092 287.91919191919203,478.6262626262627 287.91919191919203,488.1616161616163 287.91919191919203,497.69696969696975 287.91919191919203,507.23232323232327 287.91919191919203,516.7676767676768 287.91919191919203,526.3030303030304 287.91919191919203,535.838383838384 287.91919191919203,545.3737373737374 287.91919191919203,554.909090909091 287.91919191919203,564.4444444444445 287.91919191919203,573.979797979798 287.91919191919203,583.5151515151516 287.91919191919203,593.0505050505051 287.91919191919203,602.5858585858587 287.91919191919203,612.1212121212121 287.91919191919203,621.6565656565657 287.91919191919203,631.1919191919193 287.91919191919203,640.7272727272727 287.91919191919203,650.2626262626263 287.91919191919203,659.7979797979798 287.91919191919203,669.3333333333334 287.91919191919203,678.8686868686868 287.91919191919203,688.4040404040404 287.91919191919203,697.939393939394 287.91919191919203,707.4747474747475 287.91919191919203,717.010101010101 287.91919191919203,726.5454545454545 287.91919191919203,736.0808080808081 287.91919191919203,745.6161616161615 287.91919191919203,755.1515151515151 287.91919191919203,764.6868686868687 287.91919191919203,774.2222222222222 287.91919191919203,783.7575757575758 287.91919191919203,793.2929292929292 287.91919191919203,802.8282828282828 287.91919191919203,812.3636363636363 287.91919191919203,821.8989898989898 287.91919191919203,831.4343434343434 287.91919191919203,840.969696969697 287.91919191919203,850.5050505050505 287.91919191919203,860.0404040404039 287.91919191919203,869.5757575757575 287.91919191919203,879.1111111111111 287.91919191919203,888.6464646464647" fill="none" stroke="rgba(0,0,255,0.75)" stroke-width="11.327999999999996"/></g><g><polyline data-points="-2.3737373737373733,-3.98989898989899 -2.3737373737373733,-4.090909090909091 -2.3737373737373733,-4.191919191919193 -2.3737373737373733,-4.292929292929293 -2.3737373737373733,-4.393939393939394 -2.3737373737373733,-4.494949494949496 -2.3737373737373733,-4.595959595959596 -2.3737373737373733,-4.696969696969697 -2.3737373737373733,-4.7979797979797985 -2.3737373737373733,-4.898989898989899 -2.3737373737373733,-5.000000000000001" data-type="line" data-label="" points="287.91919191919203,888.6464646464647 287.91919191919203,898.1818181818181 287.91919191919203,907.7171717171718 287.91919191919203,917.2525252525252 287.91919191919203,926.7878787878788 287.91919191919203,936.3232323232323 287.91919191919203,945.8585858585858 287.91919191919203,955.3939393939394 287.91919191919203,964.9292929292928 287.91919191919203,974.4646464646464 287.91919191919203,984" fill="none" stroke="rgba(255,0,0,0.75)" stroke-width="11.327999999999996"/></g><g><polyline data-points="-1.8686868686868683,5.000000000000002 -1.7676767676767675,4.898989898989901 -1.6666666666666665,4.7979797979797985 -1.5656565656565653,4.696969696969697 -1.4646464646464643,4.595959595959597 -1.363636363636363,4.494949494949497 -1.2626262626262625,4.393939393939394 -1.1616161616161613,4.292929292929293 -1.0606060606060603,4.191919191919193 -0.9595959595959596,4.090909090909092 -0.8585858585858579,3.989898989898992 -0.7575757575757572,3.8888888888888893 -0.6565656565656557,3.7878787878787885 -0.555555555555555,3.6868686868686877 -0.4545454545454544,3.5858585858585874 -0.35353535353535287,3.4848484848484866 -0.2525252525252522,3.383838383838384 -0.15151515151515066,3.2828282828282833 -0.05050505050505001,3.181818181818183 0.050505050505051545,3.080808080808082 0.1515151515151522,2.9797979797979806 0.2525252525252529,2.87878787878788" data-type="line" data-label="" points="335.59595959595964,40.000000000000114 345.13131313131316,49.53535353535369 354.6666666666667,59.07070707070733 364.2020202020202,68.60606060606085 373.7373737373738,78.14141414141432 383.2727272727273,87.67676767676778 392.80808080808083,97.21212121212153 402.34343434343435,106.747474747475 411.8787878787879,116.28282828282846 421.4141414141414,125.81818181818198 430.949494949495,135.35353535353545 440.4848484848485,144.88888888888908 450.0202020202021,154.4242424242426 459.55555555555554,163.95959595959613 469.09090909090907,173.4949494949496 478.62626262626264,183.03030303030312 488.16161616161617,192.56565656565675 497.69696969696975,202.10101010101027 507.2323232323232,211.63636363636374 516.7676767676768,221.17171717171726 526.3030303030303,230.70707070707084 535.8383838383838,240.24242424242436" fill="none" stroke="rgba(255,0,0,0.75)" stroke-width="11.327999999999996"/></g><g><polyline data-points="0.2525252525252529,2.87878787878788 0.3535353535353544,2.7777777777777786 0.4545454545454551,2.676767676767678 0.5555555555555567,2.575757575757577 0.6565656565656574,2.4747474747474754 0.7575757575757579,2.373737373737375 0.8585858585858596,2.2727272727272734 0.9595959595959602,2.1717171717171726 1.0606060606060617,2.070707070707072 1.1616161616161622,1.9696969696969702 1.262626262626263,1.8686868686868696 1.3636363636363644,1.767676767676768 1.4646464646464652,1.6666666666666674 1.5656565656565666,1.5656565656565666 1.6666666666666674,1.4646464646464652 1.767676767676768,1.3636363636363644 1.8686868686868696,1.262626262626263 1.9696969696969702,1.1616161616161622 2.070707070707072,1.0606060606060617 2.1717171717171726,0.9595959595959602 2.2727272727272734,0.8585858585858596 2.373737373737375,0.7575757575757579 2.4747474747474754,0.6565656565656574 2.575757575757577,0.5555555555555567 2.676767676767678,0.4545454545454551 2.7777777777777786,0.3535353535353544 2.87878787878788,0.2525252525252529 2.9797979797979806,0.1515151515151522 3.080808080808082,0.050505050505051545 3.181818181818183,-0.05050505050505001 3.2828282828282833,-0.15151515151515066 3.383838383838384,-0.2525252525252522 3.4848484848484866,-0.35353535353535287 3.5858585858585874,-0.4545454545454544 3.6868686868686877,-0.555555555555555 3.6868686868686877,-0.6565656565656557 3.6868686868686877,-0.7575757575757572 3.6868686868686877,-0.8585858585858579 3.6868686868686877,-0.9595959595959596 3.6868686868686877,-1.0606060606060603 3.6868686868686877,-1.1616161616161613 3.6868686868686877,-1.2626262626262625 3.6868686868686877,-1.363636363636363 3.6868686868686877,-1.4646464646464643 3.6868686868686877,-1.5656565656565653 3.6868686868686877,-1.6666666666666665 3.6868686868686877,-1.7676767676767675 3.6868686868686877,-1.8686868686868683 3.6868686868686877,-1.9696969696969693 3.6868686868686877,-2.07070707070707 3.6868686868686877,-2.1717171717171713 3.6868686868686877,-2.2727272727272725 3.6868686868686877,-2.3737373737373733 3.6868686868686877,-2.474747474747474 3.6868686868686877,-2.5757575757575752 3.6868686868686877,-2.6767676767676765 3.6868686868686877,-2.7777777777777777 3.6868686868686877,-2.8787878787878785 3.6868686868686877,-2.9797979797979792 3.6868686868686877,-3.0808080808080804 3.6868686868686877,-3.1818181818181817 3.6868686868686877,-3.2828282828282824 3.6868686868686877,-3.383838383838383 3.6868686868686877,-3.484848484848485 3.6868686868686877,-3.5858585858585856 3.6868686868686877,-3.6868686868686864 3.6868686868686877,-3.7878787878787876" data-type="line" data-label="" points="535.8383838383838,240.24242424242436 545.3737373737374,249.77777777777794 554.9090909090909,259.3131313131314 564.4444444444445,268.84848484848493 573.9797979797979,278.38383838383857 583.5151515151515,287.91919191919203 593.0505050505051,297.4545454545456 602.5858585858585,306.9898989898991 612.1212121212121,316.5252525252526 621.6565656565656,326.06060606060623 631.1919191919192,335.5959595959597 640.7272727272727,345.1313131313133 650.2626262626262,354.66666666666674 659.7979797979798,364.2020202020203 669.3333333333333,373.73737373737384 678.8686868686868,383.27272727272737 688.4040404040404,392.80808080808094 697.9393939393939,402.3434343434344 707.4747474747475,411.87878787878793 717.0101010101009,421.4141414141415 726.5454545454545,430.94949494949503 736.0808080808081,440.4848484848486 745.6161616161615,450.0202020202021 755.1515151515151,459.5555555555556 764.6868686868686,469.0909090909092 774.2222222222222,478.6262626262627 783.7575757575758,488.1616161616163 793.2929292929292,497.69696969696975 802.8282828282828,507.23232323232327 812.3636363636363,516.7676767676768 821.8989898989898,526.3030303030304 831.4343434343433,535.838383838384 840.969696969697,545.3737373737374 850.5050505050505,554.909090909091 860.0404040404039,564.4444444444445 860.0404040404039,573.979797979798 860.0404040404039,583.5151515151516 860.0404040404039,593.0505050505051 860.0404040404039,602.5858585858587 860.0404040404039,612.1212121212121 860.0404040404039,621.6565656565657 860.0404040404039,631.1919191919193 860.0404040404039,640.7272727272727 860.0404040404039,650.2626262626263 860.0404040404039,659.7979797979798 860.0404040404039,669.3333333333334 860.0404040404039,678.8686868686868 860.0404040404039,688.4040404040404 860.0404040404039,697.939393939394 860.0404040404039,707.4747474747475 860.0404040404039,717.010101010101 860.0404040404039,726.5454545454545 860.0404040404039,736.0808080808081 860.0404040404039,745.6161616161615 860.0404040404039,755.1515151515151 860.0404040404039,764.6868686868687 860.0404040404039,774.2222222222222 860.0404040404039,783.7575757575758 860.0404040404039,793.2929292929292 860.0404040404039,802.8282828282828 860.0404040404039,812.3636363636363 860.0404040404039,821.8989898989898 860.0404040404039,831.4343434343434 860.0404040404039,840.969696969697 860.0404040404039,850.5050505050505 860.0404040404039,860.0404040404039 860.0404040404039,869.5757575757575" fill="none" stroke="rgba(0,0,255,0.75)" stroke-width="11.327999999999996"/></g><g><polyline data-points="3.6868686868686877,-3.7878787878787876 3.6868686868686877,-3.8888888888888884 3.6868686868686877,-3.98989898989899 3.7878787878787885,-4.090909090909091 3.7878787878787885,-4.191919191919193 3.7878787878787885,-4.292929292929293 3.7878787878787885,-4.393939393939394 3.7878787878787885,-4.494949494949496 3.7878787878787885,-4.595959595959596 3.7878787878787885,-4.696969696969697 3.7878787878787885,-4.7979797979797985 3.7878787878787885,-4.898989898989899 3.7878787878787885,-5.000000000000001" data-type="line" data-label="" points="860.0404040404039,869.5757575757575 860.0404040404039,879.1111111111111 860.0404040404039,888.6464646464647 869.5757575757575,898.1818181818181 869.5757575757575,907.7171717171718 869.5757575757575,917.2525252525252 869.5757575757575,926.7878787878788 869.5757575757575,936.3232323232323 869.5757575757575,945.8585858585858 869.5757575757575,955.3939393939394 869.5757575757575,964.9292929292928 869.5757575757575,974.4646464646464 869.5757575757575,984" fill="none" stroke="rgba(255,0,0,0.75)" stroke-width="11.327999999999996"/></g><g><polyline data-points="-0.555555555555555,-5.000000000000001 -0.4545454545454544,-4.898989898989899 -0.35353535353535287,-4.7979797979797985 -0.2525252525252522,-4.696969696969697 -0.15151515151515066,-4.595959595959596 -0.05050505050505001,-4.494949494949496 0.050505050505051545,-4.393939393939394 0.1515151515151522,-4.292929292929293 0.2525252525252529,-4.191919191919193 0.3535353535353544,-4.090909090909091 0.4545454545454551,-3.98989898989899 0.5555555555555567,-3.8888888888888884 0.6565656565656574,-3.7878787878787876 0.7575757575757579,-3.6868686868686864 0.8585858585858596,-3.5858585858585856 0.9595959595959602,-3.484848484848485 1.0606060606060617,-3.383838383838383 1.1616161616161622,-3.2828282828282824 1.262626262626263,-3.1818181818181817 1.3636363636363644,-3.0808080808080804 1.4646464646464652,-2.9797979797979792 1.5656565656565666,-2.8787878787878785 1.6666666666666674,-2.7777777777777777 1.767676767676768,-2.6767676767676765 1.8686868686868696,-2.5757575757575752 1.9696969696969702,-2.474747474747474 2.070707070707072,-2.3737373737373733 2.1717171717171726,-2.2727272727272725 2.2727272727272734,-2.1717171717171713 2.373737373737375,-2.07070707070707 2.373737373737375,-1.9696969696969693 2.373737373737375,-1.8686868686868683 2.373737373737375,-1.7676767676767675 2.373737373737375,-1.6666666666666665 2.373737373737375,-1.5656565656565653 2.373737373737375,-1.4646464646464643 2.373737373737375,-1.363636363636363 2.373737373737375,-1.2626262626262625 2.373737373737375,-1.1616161616161613 2.373737373737375,-1.0606060606060603" data-type="line" data-label="" points="459.55555555555554,984 469.09090909090907,974.4646464646464 478.62626262626264,964.9292929292928 488.16161616161617,955.3939393939394 497.69696969696975,945.8585858585858 507.2323232323232,936.3232323232323 516.7676767676768,926.7878787878788 526.3030303030303,917.2525252525252 535.8383838383838,907.7171717171718 545.3737373737374,898.1818181818181 554.9090909090909,888.6464646464647 564.4444444444445,879.1111111111111 573.9797979797979,869.5757575757575 583.5151515151515,860.0404040404039 593.0505050505051,850.5050505050505 602.5858585858585,840.969696969697 612.1212121212121,831.4343434343434 621.6565656565656,821.8989898989898 631.1919191919192,812.3636363636363 640.7272727272727,802.8282828282828 650.2626262626262,793.2929292929292 659.7979797979798,783.7575757575758 669.3333333333333,774.2222222222222 678.8686868686868,764.6868686868687 688.4040404040404,755.1515151515151 697.9393939393939,745.6161616161615 707.4747474747475,736.0808080808081 717.0101010101009,726.5454545454545 726.5454545454545,717.010101010101 736.0808080808081,707.4747474747475 736.0808080808081,697.939393939394 736.0808080808081,688.4040404040404 736.0808080808081,678.8686868686868 736.0808080808081,669.3333333333334 736.0808080808081,659.7979797979798 736.0808080808081,650.2626262626263 736.0808080808081,640.7272727272727 736.0808080808081,631.1919191919193 736.0808080808081,621.6565656565657 736.0808080808081,612.1212121212121" fill="none" stroke="rgba(0,0,255,0.75)" stroke-width="11.327999999999996"/></g><g><polyline data-points="2.373737373737375,-1.0606060606060603 2.4747474747474754,-0.9595959595959596 2.575757575757577,-0.8585858585858579 2.676767676767678,-0.7575757575757572 2.7777777777777786,-0.6565656565656557 2.87878787878788,-0.6565656565656557 2.9797979797979806,-0.6565656565656557 3.080808080808082,-0.6565656565656557 3.181818181818183,-0.6565656565656557 3.2828282828282833,-0.6565656565656557 3.383838383838384,-0.6565656565656557 3.4848484848484866,-0.6565656565656557 3.5858585858585874,-0.6565656565656557 3.6868686868686877,-0.6565656565656557 3.7878787878787885,-0.555555555555555 3.8888888888888893,-0.4545454545454544 3.989898989898992,-0.35353535353535287" data-type="line" data-label="" points="736.0808080808081,612.1212121212121 745.6161616161615,602.5858585858587 755.1515151515151,593.0505050505051 764.6868686868686,583.5151515151516 774.2222222222222,573.979797979798 783.7575757575758,573.979797979798 793.2929292929292,573.979797979798 802.8282828282828,573.979797979798 812.3636363636363,573.979797979798 821.8989898989898,573.979797979798 831.4343434343433,573.979797979798 840.969696969697,573.979797979798 850.5050505050505,573.979797979798 860.0404040404039,573.979797979798 869.5757575757575,564.4444444444445 879.111111111111,554.909090909091 888.6464646464647,545.3737373737374" fill="none" stroke="rgba(255,0,0,0.75)" stroke-width="11.327999999999996"/></g><g><polyline data-points="3.989898989898992,-0.35353535353535287 4.090909090909092,-0.4545454545454544 4.191919191919193,-0.555555555555555 4.292929292929293,-0.6565656565656557 4.393939393939394,-0.6565656565656557 4.494949494949497,-0.6565656565656557 4.595959595959597,-0.6565656565656557 4.696969696969697,-0.6565656565656557 4.7979797979797985,-0.6565656565656557 4.898989898989901,-0.6565656565656557 5.000000000000002,-0.6565656565656557" data-type="line" data-label="" points="888.6464646464647,545.3737373737374 898.181818181818,554.909090909091 907.7171717171716,564.4444444444445 917.2525252525251,573.979797979798 926.7878787878785,573.979797979798 936.3232323232323,573.979797979798 945.8585858585857,573.979797979798 955.3939393939393,573.979797979798 964.9292929292927,573.979797979798 974.4646464646464,573.979797979798 984,573.979797979798" fill="none" stroke="rgba(0,0,255,0.75)" stroke-width="11.327999999999996"/></g><g><polyline data-points="-3.7878787878787876,5.000000000000002 -3.8888888888888884,4.898989898989901 -3.98989898989899,4.7979797979797985 -3.98989898989899,4.696969696969697 -3.98989898989899,4.595959595959597 -3.98989898989899,4.494949494949497 -3.98989898989899,4.393939393939394 -3.98989898989899,4.292929292929293 -3.98989898989899,4.191919191919193 -3.98989898989899,4.090909090909092 -3.98989898989899,3.989898989898992 -3.98989898989899,3.8888888888888893 -3.98989898989899,3.7878787878787885 -3.98989898989899,3.6868686868686877 -3.98989898989899,3.5858585858585874 -3.98989898989899,3.4848484848484866 -3.98989898989899,3.383838383838384 -3.98989898989899,3.2828282828282833 -3.98989898989899,3.181818181818183 -3.98989898989899,3.080808080808082 -3.98989898989899,2.9797979797979806 -3.98989898989899,2.87878787878788 -3.98989898989899,2.7777777777777786 -3.98989898989899,2.676767676767678 -3.98989898989899,2.575757575757577 -3.98989898989899,2.4747474747474754 -3.98989898989899,2.373737373737375 -3.98989898989899,2.2727272727272734 -3.98989898989899,2.1717171717171726 -3.98989898989899,2.070707070707072 -3.98989898989899,1.9696969696969702 -3.98989898989899,1.8686868686868696 -3.98989898989899,1.767676767676768 -3.98989898989899,1.6666666666666674 -3.98989898989899,1.5656565656565666 -3.98989898989899,1.4646464646464652 -3.98989898989899,1.3636363636363644 -3.98989898989899,1.262626262626263 -3.98989898989899,1.1616161616161622 -3.98989898989899,1.0606060606060617 -3.98989898989899,0.9595959595959602 -3.98989898989899,0.8585858585858596 -3.98989898989899,0.7575757575757579 -3.98989898989899,0.6565656565656574 -3.98989898989899,0.5555555555555567 -3.98989898989899,0.4545454545454551 -3.98989898989899,0.3535353535353544 -3.98989898989899,0.2525252525252529 -3.98989898989899,0.1515151515151522 -3.98989898989899,0.050505050505051545 -3.98989898989899,-0.05050505050505001 -3.98989898989899,-0.15151515151515066 -3.98989898989899,-0.2525252525252522 -3.98989898989899,-0.35353535353535287 -3.98989898989899,-0.4545454545454544 -3.98989898989899,-0.555555555555555 -3.98989898989899,-0.6565656565656557 -3.98989898989899,-0.7575757575757572 -3.98989898989899,-0.8585858585858579 -3.98989898989899,-0.9595959595959596 -3.98989898989899,-1.0606060606060603 -3.98989898989899,-1.1616161616161613 -3.98989898989899,-1.2626262626262625 -3.98989898989899,-1.363636363636363 -3.98989898989899,-1.4646464646464643 -3.98989898989899,-1.5656565656565653 -3.98989898989899,-1.6666666666666665 -3.98989898989899,-1.7676767676767675 -3.98989898989899,-1.8686868686868683 -3.98989898989899,-1.9696969696969693 -3.98989898989899,-2.07070707070707 -3.98989898989899,-2.1717171717171713 -3.98989898989899,-2.2727272727272725 -3.98989898989899,-2.3737373737373733 -3.98989898989899,-2.474747474747474 -3.98989898989899,-2.5757575757575752 -3.98989898989899,-2.6767676767676765 -3.98989898989899,-2.7777777777777777 -3.98989898989899,-2.8787878787878785 -3.98989898989899,-2.9797979797979792 -3.98989898989899,-3.0808080808080804 -3.98989898989899,-3.1818181818181817 -3.98989898989899,-3.2828282828282824 -3.98989898989899,-3.383838383838383 -3.98989898989899,-3.484848484848485 -3.98989898989899,-3.5858585858585856 -3.98989898989899,-3.6868686868686864 -3.98989898989899,-3.7878787878787876 -3.98989898989899,-3.8888888888888884" data-type="line" data-label="" points="154.42424242424255,40.000000000000114 144.88888888888903,49.53535353535369 135.35353535353545,59.07070707070733 135.35353535353545,68.60606060606085 135.35353535353545,78.14141414141432 135.35353535353545,87.67676767676778 135.35353535353545,97.21212121212153 135.35353535353545,106.747474747475 135.35353535353545,116.28282828282846 135.35353535353545,125.81818181818198 135.35353535353545,135.35353535353545 135.35353535353545,144.88888888888908 135.35353535353545,154.4242424242426 135.35353535353545,163.95959595959613 135.35353535353545,173.4949494949496 135.35353535353545,183.03030303030312 135.35353535353545,192.56565656565675 135.35353535353545,202.10101010101027 135.35353535353545,211.63636363636374 135.35353535353545,221.17171717171726 135.35353535353545,230.70707070707084 135.35353535353545,240.24242424242436 135.35353535353545,249.77777777777794 135.35353535353545,259.3131313131314 135.35353535353545,268.84848484848493 135.35353535353545,278.38383838383857 135.35353535353545,287.91919191919203 135.35353535353545,297.4545454545456 135.35353535353545,306.9898989898991 135.35353535353545,316.5252525252526 135.35353535353545,326.06060606060623 135.35353535353545,335.5959595959597 135.35353535353545,345.1313131313133 135.35353535353545,354.66666666666674 135.35353535353545,364.2020202020203 135.35353535353545,373.73737373737384 135.35353535353545,383.27272727272737 135.35353535353545,392.80808080808094 135.35353535353545,402.3434343434344 135.35353535353545,411.87878787878793 135.35353535353545,421.4141414141415 135.35353535353545,430.94949494949503 135.35353535353545,440.4848484848486 135.35353535353545,450.0202020202021 135.35353535353545,459.5555555555556 135.35353535353545,469.0909090909092 135.35353535353545,478.6262626262627 135.35353535353545,488.1616161616163 135.35353535353545,497.69696969696975 135.35353535353545,507.23232323232327 135.35353535353545,516.7676767676768 135.35353535353545,526.3030303030304 135.35353535353545,535.838383838384 135.35353535353545,545.3737373737374 135.35353535353545,554.909090909091 135.35353535353545,564.4444444444445 135.35353535353545,573.979797979798 135.35353535353545,583.5151515151516 135.35353535353545,593.0505050505051 135.35353535353545,602.5858585858587 135.35353535353545,612.1212121212121 135.35353535353545,621.6565656565657 135.35353535353545,631.1919191919193 135.35353535353545,640.7272727272727 135.35353535353545,650.2626262626263 135.35353535353545,659.7979797979798 135.35353535353545,669.3333333333334 135.35353535353545,678.8686868686868 135.35353535353545,688.4040404040404 135.35353535353545,697.939393939394 135.35353535353545,707.4747474747475 135.35353535353545,717.010101010101 135.35353535353545,726.5454545454545 135.35353535353545,736.0808080808081 135.35353535353545,745.6161616161615 135.35353535353545,755.1515151515151 135.35353535353545,764.6868686868687 135.35353535353545,774.2222222222222 135.35353535353545,783.7575757575758 135.35353535353545,793.2929292929292 135.35353535353545,802.8282828282828 135.35353535353545,812.3636363636363 135.35353535353545,821.8989898989898 135.35353535353545,831.4343434343434 135.35353535353545,840.969696969697 135.35353535353545,850.5050505050505 135.35353535353545,860.0404040404039 135.35353535353545,869.5757575757575 135.35353535353545,879.1111111111111" fill="none" stroke="rgba(0,0,255,0.75)" stroke-width="11.327999999999996"/></g><g><polyline data-points="-3.98989898989899,-3.8888888888888884 -4.090909090909091,-3.98989898989899 -4.191919191919193,-4.090909090909091 -4.292929292929293,-4.191919191919193 -4.393939393939394,-4.292929292929293 -4.494949494949496,-4.393939393939394 -4.595959595959596,-4.494949494949496 -4.696969696969697,-4.595959595959596 -4.7979797979797985,-4.696969696969697 -4.898989898989899,-4.7979797979797985 -5.000000000000001,-4.898989898989899 -5.000000000000001,-5.000000000000001" data-type="line" data-label="" points="135.35353535353545,879.1111111111111 125.81818181818193,888.6464646464647 116.28282828282829,898.1818181818181 106.74747474747483,907.7171717171718 97.21212121212136,917.2525252525252 87.67676767676772,926.7878787878788 78.14141414141426,936.3232323232323 68.60606060606068,945.8585858585858 59.07070707070716,955.3939393939394 49.53535353535369,964.9292929292928 40.00000000000006,974.4646464646464 40.00000000000006,984" fill="none" stroke="rgba(255,0,0,0.75)" stroke-width="11.327999999999996"/></g><g><polyline data-points="3.8888888888888893,5.000000000000002 3.8888888888888893,4.898989898989901 3.8888888888888893,4.7979797979797985 3.8888888888888893,4.696969696969697 3.8888888888888893,4.595959595959597 3.8888888888888893,4.494949494949497 3.8888888888888893,4.393939393939394 3.8888888888888893,4.292929292929293 3.8888888888888893,4.191919191919193 3.989898989898992,4.090909090909092 4.090909090909092,3.989898989898992 3.989898989898992,3.8888888888888893 3.8888888888888893,3.7878787878787885 3.7878787878787885,3.6868686868686877 3.6868686868686877,3.5858585858585874 3.5858585858585874,3.4848484848484866 3.4848484848484866,3.383838383838384 3.383838383838384,3.2828282828282833 3.2828282828282833,3.181818181818183 3.181818181818183,3.080808080808082 3.080808080808082,2.9797979797979806 2.9797979797979806,2.87878787878788 2.87878787878788,2.7777777777777786 2.7777777777777786,2.676767676767678 2.676767676767678,2.575757575757577 2.575757575757577,2.4747474747474754 2.4747474747474754,2.373737373737375 2.373737373737375,2.2727272727272734 2.2727272727272734,2.1717171717171726 2.1717171717171726,2.070707070707072 2.070707070707072,1.9696969696969702 2.070707070707072,1.8686868686868696 2.070707070707072,1.767676767676768 2.070707070707072,1.6666666666666674 2.070707070707072,1.5656565656565666 2.070707070707072,1.4646464646464652 2.070707070707072,1.3636363636363644 2.070707070707072,1.262626262626263 2.070707070707072,1.1616161616161622 2.070707070707072,1.0606060606060617 2.070707070707072,0.9595959595959602 2.070707070707072,0.8585858585858596 2.070707070707072,0.7575757575757579 2.070707070707072,0.6565656565656574 2.070707070707072,0.5555555555555567 2.070707070707072,0.4545454545454551 2.070707070707072,0.3535353535353544 2.070707070707072,0.2525252525252529 2.070707070707072,0.1515151515151522 2.070707070707072,0.050505050505051545 2.070707070707072,-0.05050505050505001 2.070707070707072,-0.15151515151515066 2.070707070707072,-0.2525252525252522 2.070707070707072,-0.35353535353535287 2.070707070707072,-0.4545454545454544 2.070707070707072,-0.555555555555555 2.070707070707072,-0.6565656565656557 2.070707070707072,-0.7575757575757572 2.070707070707072,-0.8585858585858579 2.070707070707072,-0.9595959595959596 2.070707070707072,-1.0606060606060603 2.070707070707072,-1.1616161616161613 2.070707070707072,-1.2626262626262625 2.070707070707072,-1.363636363636363 2.070707070707072,-1.4646464646464643 2.070707070707072,-1.5656565656565653 2.070707070707072,-1.6666666666666665 2.070707070707072,-1.7676767676767675 2.070707070707072,-1.8686868686868683 2.070707070707072,-1.9696969696969693 2.070707070707072,-2.07070707070707 2.070707070707072,-2.1717171717171713 2.070707070707072,-2.2727272727272725 2.070707070707072,-2.3737373737373733 2.070707070707072,-2.474747474747474 2.070707070707072,-2.5757575757575752 2.070707070707072,-2.6767676767676765 2.070707070707072,-2.7777777777777777 2.070707070707072,-2.8787878787878785 2.070707070707072,-2.9797979797979792 2.070707070707072,-3.0808080808080804 2.070707070707072,-3.1818181818181817 2.070707070707072,-3.2828282828282824 2.070707070707072,-3.383838383838383 2.070707070707072,-3.484848484848485 2.070707070707072,-3.5858585858585856 2.070707070707072,-3.6868686868686864 2.070707070707072,-3.7878787878787876 2.070707070707072,-3.8888888888888884 2.070707070707072,-3.98989898989899" data-type="line" data-label="" points="879.111111111111,40.000000000000114 879.111111111111,49.53535353535369 879.111111111111,59.07070707070733 879.111111111111,68.60606060606085 879.111111111111,78.14141414141432 879.111111111111,87.67676767676778 879.111111111111,97.21212121212153 879.111111111111,106.747474747475 879.111111111111,116.28282828282846 888.6464646464647,125.81818181818198 898.181818181818,135.35353535353545 888.6464646464647,144.88888888888908 879.111111111111,154.4242424242426 869.5757575757575,163.95959595959613 860.0404040404039,173.4949494949496 850.5050505050505,183.03030303030312 840.969696969697,192.56565656565675 831.4343434343433,202.10101010101027 821.8989898989898,211.63636363636374 812.3636363636363,221.17171717171726 802.8282828282828,230.70707070707084 793.2929292929292,240.24242424242436 783.7575757575758,249.77777777777794 774.2222222222222,259.3131313131314 764.6868686868686,268.84848484848493 755.1515151515151,278.38383838383857 745.6161616161615,287.91919191919203 736.0808080808081,297.4545454545456 726.5454545454545,306.9898989898991 717.0101010101009,316.5252525252526 707.4747474747475,326.06060606060623 707.4747474747475,335.5959595959597 707.4747474747475,345.1313131313133 707.4747474747475,354.66666666666674 707.4747474747475,364.2020202020203 707.4747474747475,373.73737373737384 707.4747474747475,383.27272727272737 707.4747474747475,392.80808080808094 707.4747474747475,402.3434343434344 707.4747474747475,411.87878787878793 707.4747474747475,421.4141414141415 707.4747474747475,430.94949494949503 707.4747474747475,440.4848484848486 707.4747474747475,450.0202020202021 707.4747474747475,459.5555555555556 707.4747474747475,469.0909090909092 707.4747474747475,478.6262626262627 707.4747474747475,488.1616161616163 707.4747474747475,497.69696969696975 707.4747474747475,507.23232323232327 707.4747474747475,516.7676767676768 707.4747474747475,526.3030303030304 707.4747474747475,535.838383838384 707.4747474747475,545.3737373737374 707.4747474747475,554.909090909091 707.4747474747475,564.4444444444445 707.4747474747475,573.979797979798 707.4747474747475,583.5151515151516 707.4747474747475,593.0505050505051 707.4747474747475,602.5858585858587 707.4747474747475,612.1212121212121 707.4747474747475,621.6565656565657 707.4747474747475,631.1919191919193 707.4747474747475,640.7272727272727 707.4747474747475,650.2626262626263 707.4747474747475,659.7979797979798 707.4747474747475,669.3333333333334 707.4747474747475,678.8686868686868 707.4747474747475,688.4040404040404 707.4747474747475,697.939393939394 707.4747474747475,707.4747474747475 707.4747474747475,717.010101010101 707.4747474747475,726.5454545454545 707.4747474747475,736.0808080808081 707.4747474747475,745.6161616161615 707.4747474747475,755.1515151515151 707.4747474747475,764.6868686868687 707.4747474747475,774.2222222222222 707.4747474747475,783.7575757575758 707.4747474747475,793.2929292929292 707.4747474747475,802.8282828282828 707.4747474747475,812.3636363636363 707.4747474747475,821.8989898989898 707.4747474747475,831.4343434343434 707.4747474747475,840.969696969697 707.4747474747475,850.5050505050505 707.4747474747475,860.0404040404039 707.4747474747475,869.5757575757575 707.4747474747475,879.1111111111111 707.4747474747475,888.6464646464647" fill="none" stroke="rgba(255,0,0,0.75)" stroke-width="11.327999999999996"/></g><g><polyline data-points="2.070707070707072,-3.98989898989899 2.070707070707072,-4.090909090909091 2.070707070707072,-4.191919191919193 2.070707070707072,-4.292929292929293 2.070707070707072,-4.393939393939394 2.070707070707072,-4.494949494949496 2.070707070707072,-4.595959595959596 2.070707070707072,-4.696969696969697 2.070707070707072,-4.7979797979797985 2.070707070707072,-4.898989898989899 2.070707070707072,-5.000000000000001" data-type="line" data-label="" points="707.4747474747475,888.6464646464647 707.4747474747475,898.1818181818181 707.4747474747475,907.7171717171718 707.4747474747475,917.2525252525252 707.4747474747475,926.7878787878788 707.4747474747475,936.3232323232323 707.4747474747475,945.8585858585858 707.4747474747475,955.3939393939394 707.4747474747475,964.9292929292928 707.4747474747475,974.4646464646464 707.4747474747475,984" fill="none" stroke="rgba(0,0,255,0.75)" stroke-width="11.327999999999996"/></g><g><polyline data-points="5.000000000000002,-3.98989898989899 4.898989898989901,-3.8888888888888884 4.7979797979797985,-3.8888888888888884 4.696969696969697,-3.8888888888888884 4.595959595959597,-3.8888888888888884 4.494949494949497,-3.8888888888888884 4.393939393939394,-3.8888888888888884 4.292929292929293,-3.8888888888888884 4.191919191919193,-3.8888888888888884 4.090909090909092,-3.8888888888888884 3.989898989898992,-3.7878787878787876 3.8888888888888893,-3.6868686868686864 3.7878787878787885,-3.5858585858585856 3.6868686868686877,-3.484848484848485 3.5858585858585874,-3.5858585858585856 3.4848484848484866,-3.6868686868686864 3.383838383838384,-3.6868686868686864 3.2828282828282833,-3.6868686868686864 3.181818181818183,-3.6868686868686864 3.080808080808082,-3.6868686868686864 2.9797979797979806,-3.6868686868686864 2.87878787878788,-3.6868686868686864 2.7777777777777786,-3.6868686868686864 2.676767676767678,-3.7878787878787876 2.575757575757577,-3.8888888888888884 2.4747474747474754,-3.98989898989899 2.373737373737375,-4.090909090909091 2.2727272727272734,-4.191919191919193 2.1717171717171726,-4.292929292929293 2.070707070707072,-4.292929292929293 1.9696969696969702,-4.292929292929293 1.8686868686868696,-4.292929292929293 1.767676767676768,-4.191919191919193 1.6666666666666674,-4.090909090909091 1.5656565656565666,-3.98989898989899" data-type="line" data-label="" points="984,888.6464646464647 974.4646464646464,879.1111111111111 964.9292929292927,879.1111111111111 955.3939393939393,879.1111111111111 945.8585858585857,879.1111111111111 936.3232323232323,879.1111111111111 926.7878787878785,879.1111111111111 917.2525252525251,879.1111111111111 907.7171717171716,879.1111111111111 898.181818181818,879.1111111111111 888.6464646464647,869.5757575757575 879.111111111111,860.0404040404039 869.5757575757575,850.5050505050505 860.0404040404039,840.969696969697 850.5050505050505,850.5050505050505 840.969696969697,860.0404040404039 831.4343434343433,860.0404040404039 821.8989898989898,860.0404040404039 812.3636363636363,860.0404040404039 802.8282828282828,860.0404040404039 793.2929292929292,860.0404040404039 783.7575757575758,860.0404040404039 774.2222222222222,860.0404040404039 764.6868686868686,869.5757575757575 755.1515151515151,879.1111111111111 745.6161616161615,888.6464646464647 736.0808080808081,898.1818181818181 726.5454545454545,907.7171717171718 717.0101010101009,917.2525252525252 707.4747474747475,917.2525252525252 697.9393939393939,917.2525252525252 688.4040404040404,917.2525252525252 678.8686868686868,907.7171717171718 669.3333333333333,898.1818181818181 659.7979797979798,888.6464646464647" fill="none" stroke="rgba(255,0,0,0.75)" stroke-width="11.327999999999996"/></g><g><polyline data-points="1.5656565656565666,-3.98989898989899 1.4646464646464652,-4.090909090909091 1.3636363636363644,-4.191919191919193 1.262626262626263,-4.292929292929293 1.1616161616161622,-4.393939393939394 1.0606060606060617,-4.494949494949496 1.0606060606060617,-4.595959595959596 1.0606060606060617,-4.696969696969697 1.0606060606060617,-4.7979797979797985 1.0606060606060617,-4.898989898989899 0.9595959595959602,-5.000000000000001" data-type="line" data-label="" points="659.7979797979798,888.6464646464647 650.2626262626262,898.1818181818181 640.7272727272727,907.7171717171718 631.1919191919192,917.2525252525252 621.6565656565656,926.7878787878788 612.1212121212121,936.3232323232323 612.1212121212121,945.8585858585858 612.1212121212121,955.3939393939394 612.1212121212121,964.9292929292928 612.1212121212121,974.4646464646464 602.5858585858585,984" fill="none" stroke="rgba(0,0,255,0.75)" stroke-width="11.327999999999996"/></g><g><rect data-type="rect" data-label="" data-x="0" data-y="0" x="40.000000000000114" y="40.000000000000284" width="943.9999999999997" height="943.9999999999998" fill="none" stroke="gray" stroke-width="0.010593220338983056"/></g><g><rect data-type="rect" data-label="" data-x="0" data-y="0" x="40.000000000000114" y="40.000000000000284" width="943.9999999999997" height="943.9999999999998" fill="none" stroke="rgba(15, 23, 42, 0.8)" stroke-width="0.010593220338983056"/></g><circle data-type="circle" data-label="" data-x="3.7878787878787885" data-y="3.989898989898992" cx="869.5757575757575" cy="135.35353535353545" r="14.159999999999995" fill="rgba(0,0,0,0.3)" stroke="black" stroke-width="0.010593220338983056"/><circle data-type="circle" data-label="" data-x="-0.05050505050505001" data-y="2.676767676767678" cx="507.2323232323232" cy="259.3131313131314" r="14.159999999999995" fill="rgba(0,0,0,0.3)" stroke="black" stroke-width="0.010593220338983056"/><circle data-type="circle" data-label="" data-x="2.7777777777777786" data-y="-3.98989898989899" cx="774.2222222222222" cy="888.6464646464647" r="14.159999999999995" fill="rgba(0,0,0,0.3)" stroke="black" stroke-width="0.010593220338983056"/><circle data-type="circle" data-label="" data-x="-2.3737373737373733" data-y="-3.98989898989899" cx="287.91919191919203" cy="888.6464646464647" r="14.159999999999995" fill="rgba(0,0,0,0.3)" stroke="black" stroke-width="0.010593220338983056"/><circle data-type="circle" data-label="" data-x="0.2525252525252529" data-y="2.87878787878788" cx="535.8383838383838" cy="240.24242424242436" r="14.159999999999995" fill="rgba(0,0,0,0.3)" stroke="black" stroke-width="0.010593220338983056"/><circle data-type="circle" data-label="" data-x="3.6868686868686877" data-y="-3.7878787878787876" cx="860.0404040404039" cy="869.5757575757575" r="14.159999999999995" fill="rgba(0,0,0,0.3)" stroke="black" stroke-width="0.010593220338983056"/><circle data-type="circle" data-label="" data-x="2.373737373737375" data-y="-1.0606060606060603" cx="736.0808080808081" cy="612.1212121212121" r="14.159999999999995" fill="rgba(0,0,0,0.3)" stroke="black" stroke-width="0.010593220338983056"/><circle data-type="circle" data-label="" data-x="3.989898989898992" data-y="-0.35353535353535287" cx="888.6464646464647" cy="545.3737373737374" r="14.159999999999995" fill="rgba(0,0,0,0.3)" stroke="black" stroke-width="0.010593220338983056"/><circle data-type="circle" data-label="" data-x="-3.98989898989899" data-y="-3.8888888888888884" cx="135.35353535353545" cy="879.1111111111111" r="14.159999999999995" fill="rgba(0,0,0,0.3)" stroke="black" stroke-width="0.010593220338983056"/><circle data-type="circle" data-label="" data-x="2.070707070707072" data-y="-3.98989898989899" cx="707.4747474747475" cy="888.6464646464647" r="14.159999999999995" fill="rgba(0,0,0,0.3)" stroke="black" stroke-width="0.010593220338983056"/><circle data-type="circle" data-label="" data-x="1.5656565656565666" data-y="-3.98989898989899" cx="659.7979797979798" cy="888.6464646464647" r="14.159999999999995" fill="rgba(0,0,0,0.3)" stroke="black" stroke-width="0.010593220338983056"/><g id="crosshair" style="display: none"><line id="crosshair-h" y1="0" y2="1024" stroke="#666" stroke-width="0.5"/><line id="crosshair-v" x1="0" x2="1024" stroke="#666" stroke-width="0.5"/><text id="coordinates" font-family="monospace" font-size="12" fill="#666"></text></g><script><![CDATA[
              document.currentScript.parentElement.addEventListener('mousemove', (e) => {
                const svg = e.currentTarget;
                const rect = svg.getBoundingClientRect();
                const x = e.clientX - rect.left;
                const y = e.clientY - rect.top;
                const crosshair = svg.getElementById('crosshair');
                const h = svg.getElementById('crosshair-h');
                const v = svg.getElementById('crosshair-v');
                const coords = svg.getElementById('coordinates');
                
                crosshair.style.display = 'block';
                h.setAttribute('x1', '0');
                h.setAttribute('x2', '1024');
                h.setAttribute('y1', y);
                h.setAttribute('y2', y);
                v.setAttribute('x1', x);
                v.setAttribute('x2', x);
                v.setAttribute('y1', '0');
                v.setAttribute('y2', '1024');

                // Calculate real coordinates using inverse transformation
                const matrix = {"a":94.39999999999996,"c":0,"e":511.99999999999994,"b":0,"d":-94.39999999999996,"f":512.0000000000001};
                // Manually invert and apply the affine transform
                // Since we only use translate and scale, we can directly compute:
                // x' = (x - tx) / sx
                // y' = (y - ty) / sy
                const sx = matrix.a;
                const sy = matrix.d;
                const tx = matrix.e; 
                const ty = matrix.f;
                const realPoint = {
                  x: (x - tx) / sx,
                  y: (y - ty) / sy // Flip y back since we used negative scale
                }
                
                coords.textContent = `(${realPoint.x.toFixed(2)}, ${realPoint.y.toFixed(2)})`;
                coords.setAttribute('x', (x + 5).toString());
                coords.setAttribute('y', (y - 5).toString());
              });
              document.currentScript.parentElement.addEventListener('mouseleave', () => {
                document.currentScript.parentElement.getElementById('crosshair').style.display = 'none';
              });
            ]]></script></svg>