<svg width="1024" height="1024" viewBox="0 0 1024 1024" xmlns="http://www.w3.org/2000/svg"><rect width="100%" height="100%" fill="white"/><g><circle data-type="point" data-label="conn_000" data-x="1.78" data-y="-5" cx="680.0319999999999" cy="984" r="14.16" fill="blue"/></g><g><circle data-type="point" data-label="conn_000" data-x="-3.74" data-y="5" cx="158.94400000000007" cy="40.000000000000284" r="14.16" fill="red"/></g><g><circle data-type="point" data-label="conn_001" data-x="4.48" data-y="-5" cx="934.9119999999998" cy="984" r="14.16" fill="blue"/></g><g><circle data-type="point" data-label="conn_001" data-x="-1.1" data-y="5" cx="408.15999999999997" cy="40.000000000000284" r="14.16" fill="red"/></g><g><circle data-type="point" data-label="conn_002" data-x="5" data-y="-0.86" cx="983.9999999999998" cy="593.1840000000001" r="14.16" fill="blue"/></g><g><circle data-type="point" data-label="conn_002" data-x="-5" data-y="2.2800000000000002" cx="40.000000000000114" cy="296.76800000000014" r="14.16" fill="red"/></g><g><circle data-type="point" data-label="conn_003" data-x="-5" data-y="-1.34" cx="40.000000000000114" cy="638.4960000000001" r="14.16" fill="blue"/></g><g><circle data-type="point" data-label="conn_003" data-x="5" data-y="-4.16" cx="983.9999999999998" cy="904.704" r="14.16" fill="blue"/></g><g><circle data-type="point" data-label="conn_004" data-x="1.48" data-y="5" cx="651.7119999999999" cy="40.000000000000284" r="14.16" fill="red"/></g><g><circle data-type="point" data-label="conn_004" data-x="-5" data-y="-0.98" cx="40.000000000000114" cy="604.5120000000001" r="14.16" fill="blue"/></g><g><polyline data-points="1.767676767676768,-5.000000000000001 1.6666666666666674,-4.898989898989899 1.5656565656565666,-4.7979797979797985 1.4646464646464652,-4.696969696969697 1.3636363636363644,-4.595959595959596 1.262626262626263,-4.494949494949496 1.1616161616161622,-4.393939393939394 1.0606060606060617,-4.292929292929293 0.9595959595959602,-4.191919191919193 0.8585858585858596,-4.090909090909091 0.7575757575757579,-3.98989898989899 0.6565656565656574,-3.8888888888888884 0.5555555555555567,-3.7878787878787876 0.4545454545454551,-3.6868686868686864 0.3535353535353544,-3.5858585858585856 0.2525252525252529,-3.484848484848485 0.1515151515151522,-3.383838383838383 0.050505050505051545,-3.2828282828282824 -0.05050505050505001,-3.1818181818181817 -0.15151515151515066,-3.0808080808080804 -0.2525252525252522,-2.9797979797979792 -0.35353535353535287,-2.8787878787878785 -0.4545454545454544,-2.7777777777777777 -0.555555555555555,-2.6767676767676765 -0.6565656565656557,-2.5757575757575752 -0.7575757575757572,-2.474747474747474 -0.8585858585858579,-2.3737373737373733 -0.9595959595959596,-2.2727272727272725 -1.0606060606060603,-2.1717171717171713 -1.1616161616161613,-2.07070707070707 -1.2626262626262625,-1.9696969696969693 -1.363636363636363,-1.8686868686868683 -1.4646464646464643,-1.7676767676767675 -1.5656565656565653,-1.6666666666666665 -1.6666666666666665,-1.5656565656565653 -1.7676767676767675,-1.4646464646464643 -1.8686868686868683,-1.363636363636363 -1.9696969696969693,-1.2626262626262625 -2.07070707070707,-1.1616161616161613 -2.1717171717171713,-1.0606060606060603 -2.2727272727272725,-0.9595959595959596 -2.3737373737373733,-0.8585858585858579 -2.474747474747474,-0.7575757575757572 -2.5757575757575752,-0.6565656565656557 -2.6767676767676765,-0.555555555555555 -2.7777777777777777,-0.4545454545454544 -2.8787878787878785,-0.35353535353535287 -2.9797979797979792,-0.2525252525252522 -3.0808080808080804,-0.15151515151515066 -3.1818181818181817,-0.05050505050505001 -3.2828282828282824,0.050505050505051545 -3.383838383838383,0.1515151515151522 -3.484848484848485,0.2525252525252529 -3.5858585858585856,0.3535353535353544 -3.6868686868686864,0.4545454545454551 -3.7878787878787876,0.5555555555555567 -3.7878787878787876,0.6565656565656574 -3.7878787878787876,0.7575757575757579 -3.7878787878787876,0.8585858585858596 -3.7878787878787876,0.9595959595959602 -3.7878787878787876,1.0606060606060617 -3.7878787878787876,1.1616161616161622 -3.7878787878787876,1.262626262626263 -3.7878787878787876,1.3636363636363644 -3.7878787878787876,1.4646464646464652 -3.7878787878787876,1.5656565656565666 -3.7878787878787876,1.6666666666666674 -3.7878787878787876,1.767676767676768 -3.7878787878787876,1.8686868686868696 -3.7878787878787876,1.9696969696969702 -3.7878787878787876,2.070707070707072 -3.7878787878787876,2.1717171717171726 -3.7878787878787876,2.2727272727272734 -3.7878787878787876,2.373737373737375 -3.7878787878787876,2.4747474747474754 -3.7878787878787876,2.575757575757577 -3.7878787878787876,2.676767676767678 -3.7878787878787876,2.7777777777777786 -3.7878787878787876,2.87878787878788 -3.7878787878787876,2.9797979797979806 -3.7878787878787876,3.080808080808082 -3.7878787878787876,3.181818181818183 -3.7878787878787876,3.2828282828282833 -3.7878787878787876,3.383838383838384 -3.7878787878787876,3.4848484848484866 -3.7878787878787876,3.5858585858585874 -3.7878787878787876,3.6868686868686877 -3.7878787878787876,3.7878787878787885 -3.7878787878787876,3.8888888888888893 -3.7878787878787876,3.989898989898992" data-type="line" data-label="" points="678.8686868686868,984 669.3333333333333,974.4646464646464 659.7979797979798,964.9292929292928 650.2626262626262,955.3939393939394 640.7272727272727,945.8585858585858 631.1919191919192,936.3232323232323 621.6565656565656,926.7878787878788 612.1212121212121,917.2525252525252 602.5858585858585,907.7171717171718 593.0505050505051,898.1818181818181 583.5151515151515,888.6464646464647 573.9797979797979,879.1111111111111 564.4444444444445,869.5757575757575 554.9090909090909,860.0404040404039 545.3737373737374,850.5050505050505 535.8383838383838,840.969696969697 526.3030303030303,831.4343434343434 516.7676767676768,821.8989898989898 507.2323232323232,812.3636363636363 497.69696969696975,802.8282828282828 488.16161616161617,793.2929292929292 478.62626262626264,783.7575757575758 469.09090909090907,774.2222222222222 459.55555555555554,764.6868686868687 450.0202020202021,755.1515151515151 440.4848484848485,745.6161616161615 430.949494949495,736.0808080808081 421.4141414141414,726.5454545454545 411.8787878787879,717.010101010101 402.34343434343435,707.4747474747475 392.80808080808083,697.939393939394 383.2727272727273,688.4040404040404 373.7373737373738,678.8686868686868 364.2020202020202,669.3333333333334 354.6666666666667,659.7979797979798 345.13131313131316,650.2626262626263 335.59595959595964,640.7272727272727 326.0606060606061,631.1919191919193 316.5252525252526,621.6565656565657 306.9898989898991,612.1212121212121 297.4545454545455,602.5858585858587 287.91919191919203,593.0505050505051 278.38383838383845,583.5151515151516 268.84848484848493,573.979797979798 259.3131313131314,564.4444444444445 249.77777777777783,554.909090909091 240.2424242424243,545.3737373737374 230.70707070707084,535.838383838384 221.17171717171726,526.3030303030304 211.63636363636374,516.7676767676768 202.10101010101022,507.23232323232327 192.5656565656567,497.69696969696975 183.03030303030312,488.1616161616163 173.4949494949496,478.6262626262627 163.95959595959607,469.0909090909092 154.42424242424255,459.5555555555556 154.42424242424255,450.0202020202021 154.42424242424255,440.4848484848486 154.42424242424255,430.94949494949503 154.42424242424255,421.4141414141415 154.42424242424255,411.87878787878793 154.42424242424255,402.3434343434344 154.42424242424255,392.80808080808094 154.42424242424255,383.27272727272737 154.42424242424255,373.73737373737384 154.42424242424255,364.2020202020203 154.42424242424255,354.66666666666674 154.42424242424255,345.1313131313133 154.42424242424255,335.5959595959597 154.42424242424255,326.06060606060623 154.42424242424255,316.5252525252526 154.42424242424255,306.9898989898991 154.42424242424255,297.4545454545456 154.42424242424255,287.91919191919203 154.42424242424255,278.38383838383857 154.42424242424255,268.84848484848493 154.42424242424255,259.3131313131314 154.42424242424255,249.77777777777794 154.42424242424255,240.24242424242436 154.42424242424255,230.70707070707084 154.42424242424255,221.17171717171726 154.42424242424255,211.63636363636374 154.42424242424255,202.10101010101027 154.42424242424255,192.56565656565675 154.42424242424255,183.03030303030312 154.42424242424255,173.4949494949496 154.42424242424255,163.95959595959613 154.42424242424255,154.4242424242426 154.42424242424255,144.88888888888908 154.42424242424255,135.35353535353545" fill="none" stroke="rgba(0,0,255,0.75)" stroke-width="11.327999999999996"/></g><g><polyline data-points="-3.7878787878787876,3.989898989898992 -3.7878787878787876,4.090909090909092 -3.7878787878787876,4.191919191919193 -3.7878787878787876,4.292929292929293 -3.7878787878787876,4.393939393939394 -3.7878787878787876,4.494949494949497 -3.7878787878787876,4.595959595959597 -3.7878787878787876,4.696969696969697 -3.7878787878787876,4.7979797979797985 -3.7878787878787876,4.898989898989901 -3.7878787878787876,5.000000000000002" data-type="line" data-label="" points="154.42424242424255,135.35353535353545 154.42424242424255,125.81818181818198 154.42424242424255,116.28282828282846 154.42424242424255,106.747474747475 154.42424242424255,97.21212121212153 154.42424242424255,87.67676767676778 154.42424242424255,78.14141414141432 154.42424242424255,68.60606060606085 154.42424242424255,59.07070707070733 154.42424242424255,49.53535353535369 154.42424242424255,40.000000000000114" fill="none" stroke="rgba(255,0,0,0.75)" stroke-width="11.327999999999996"/></g><g><polyline data-points="1.4646464646464652,5.000000000000002 1.3636363636363644,4.898989898989901 1.262626262626263,4.7979797979797985 1.1616161616161622,4.696969696969697 1.0606060606060617,4.595959595959597 0.9595959595959602,4.494949494949497 0.8585858585858596,4.393939393939394 0.7575757575757579,4.292929292929293 0.6565656565656574,4.191919191919193 0.5555555555555567,4.090909090909092 0.4545454545454551,3.989898989898992 0.3535353535353544,3.8888888888888893 0.2525252525252529,3.7878787878787885 0.1515151515151522,3.6868686868686877 0.050505050505051545,3.5858585858585874 -0.05050505050505001,3.4848484848484866 -0.15151515151515066,3.383838383838384 -0.2525252525252522,3.2828282828282833 -0.35353535353535287,3.181818181818183 -0.4545454545454544,3.080808080808082 -0.555555555555555,2.9797979797979806 -0.6565656565656557,2.87878787878788 -0.7575757575757572,2.7777777777777786 -0.8585858585858579,2.676767676767678 -0.9595959595959596,2.575757575757577 -1.0606060606060603,2.4747474747474754 -1.1616161616161613,2.373737373737375 -1.2626262626262625,2.2727272727272734 -1.363636363636363,2.1717171717171726 -1.4646464646464643,2.070707070707072 -1.5656565656565653,1.9696969696969702 -1.6666666666666665,1.8686868686868696 -1.7676767676767675,1.767676767676768 -1.8686868686868683,1.6666666666666674 -1.9696969696969693,1.5656565656565666 -2.07070707070707,1.4646464646464652 -2.1717171717171713,1.3636363636363644 -2.2727272727272725,1.262626262626263 -2.3737373737373733,1.1616161616161622 -2.474747474747474,1.0606060606060617 -2.5757575757575752,0.9595959595959602 -2.6767676767676765,0.8585858585858596 -2.7777777777777777,0.7575757575757579 -2.8787878787878785,0.6565656565656574 -2.9797979797979792,0.5555555555555567 -3.0808080808080804,0.4545454545454551 -3.1818181818181817,0.3535353535353544 -3.2828282828282824,0.2525252525252529 -3.383838383838383,0.1515151515151522 -3.484848484848485,0.050505050505051545 -3.5858585858585856,-0.05050505050505001 -3.6868686868686864,-0.15151515151515066 -3.7878787878787876,-0.2525252525252522 -3.8888888888888884,-0.35353535353535287 -3.98989898989899,-0.4545454545454544" data-type="line" data-label="" points="650.2626262626262,40.000000000000114 640.7272727272727,49.53535353535369 631.1919191919192,59.07070707070733 621.6565656565656,68.60606060606085 612.1212121212121,78.14141414141432 602.5858585858585,87.67676767676778 593.0505050505051,97.21212121212153 583.5151515151515,106.747474747475 573.9797979797979,116.28282828282846 564.4444444444445,125.81818181818198 554.9090909090909,135.35353535353545 545.3737373737374,144.88888888888908 535.8383838383838,154.4242424242426 526.3030303030303,163.95959595959613 516.7676767676768,173.4949494949496 507.2323232323232,183.03030303030312 497.69696969696975,192.56565656565675 488.16161616161617,202.10101010101027 478.62626262626264,211.63636363636374 469.09090909090907,221.17171717171726 459.55555555555554,230.70707070707084 450.0202020202021,240.24242424242436 440.4848484848485,249.77777777777794 430.949494949495,259.3131313131314 421.4141414141414,268.84848484848493 411.8787878787879,278.38383838383857 402.34343434343435,287.91919191919203 392.80808080808083,297.4545454545456 383.2727272727273,306.9898989898991 373.7373737373738,316.5252525252526 364.2020202020202,326.06060606060623 354.6666666666667,335.5959595959597 345.13131313131316,345.1313131313133 335.59595959595964,354.66666666666674 326.0606060606061,364.2020202020203 316.5252525252526,373.73737373737384 306.9898989898991,383.27272727272737 297.4545454545455,392.80808080808094 287.91919191919203,402.3434343434344 278.38383838383845,411.87878787878793 268.84848484848493,421.4141414141415 259.3131313131314,430.94949494949503 249.77777777777783,440.4848484848486 240.2424242424243,450.0202020202021 230.70707070707084,459.5555555555556 221.17171717171726,469.0909090909092 211.63636363636374,478.6262626262627 202.10101010101022,488.1616161616163 192.5656565656567,497.69696969696975 183.03030303030312,507.23232323232327 173.4949494949496,516.7676767676768 163.95959595959607,526.3030303030304 154.42424242424255,535.838383838384 144.88888888888903,545.3737373737374 135.35353535353545,554.909090909091" fill="none" stroke="rgba(255,0,0,0.75)" stroke-width="11.327999999999996"/></g><g><polyline data-points="-3.98989898989899,-0.4545454545454544 -4.090909090909091,-0.555555555555555 -4.191919191919193,-0.6565656565656557 -4.292929292929293,-0.7575757575757572 -4.393939393939394,-0.8585858585858579 -4.494949494949496,-0.9595959595959596 -4.595959595959596,-0.9595959595959596 -4.696969696969697,-0.9595959595959596 -4.7979797979797985,-0.9595959595959596 -4.898989898989899,-0.9595959595959596 -5.000000000000001,-0.9595959595959596" data-type="line" data-label="" points="135.35353535353545,554.909090909091 125.81818181818193,564.4444444444445 116.28282828282829,573.979797979798 106.74747474747483,583.5151515151516 97.21212121212136,593.0505050505051 87.67676767676772,602.5858585858587 78.14141414141426,602.5858585858587 68.60606060606068,602.5858585858587 59.07070707070716,602.5858585858587 49.53535353535369,602.5858585858587 40.00000000000006,602.5858585858587" fill="none" stroke="rgba(0,0,255,0.75)" stroke-width="11.327999999999996"/></g><g><polyline data-points="5.000000000000002,-0.8585858585858579 4.898989898989901,-0.7575757575757572 4.7979797979797985,-0.6565656565656557 4.696969696969697,-0.555555555555555 4.595959595959597,-0.4545454545454544 4.494949494949497,-0.35353535353535287 4.393939393939394,-0.2525252525252522 4.292929292929293,-0.15151515151515066 4.191919191919193,-0.05050505050505001 4.090909090909092,0.050505050505051545 3.989898989898992,0.1515151515151522 3.8888888888888893,0.2525252525252529 3.7878787878787885,0.3535353535353544 3.6868686868686877,0.4545454545454551 3.5858585858585874,0.5555555555555567 3.4848484848484866,0.6565656565656574 3.383838383838384,0.7575757575757579 3.2828282828282833,0.8585858585858596 3.181818181818183,0.9595959595959602 3.080808080808082,1.0606060606060617 2.9797979797979806,1.1616161616161622 2.87878787878788,1.262626262626263 2.7777777777777786,1.3636363636363644 2.676767676767678,1.4646464646464652 2.575757575757577,1.5656565656565666 2.4747474747474754,1.6666666666666674 2.373737373737375,1.767676767676768 2.2727272727272734,1.8686868686868696 2.1717171717171726,1.9696969696969702 2.070707070707072,2.070707070707072 1.9696969696969702,2.1717171717171726 1.8686868686868696,2.2727272727272734 1.767676767676768,2.2727272727272734 1.6666666666666674,2.2727272727272734 1.5656565656565666,2.2727272727272734 1.4646464646464652,2.2727272727272734 1.3636363636363644,2.2727272727272734 1.262626262626263,2.2727272727272734 1.1616161616161622,2.2727272727272734 1.0606060606060617,2.2727272727272734 0.9595959595959602,2.2727272727272734 0.8585858585858596,2.2727272727272734 0.7575757575757579,2.2727272727272734 0.6565656565656574,2.2727272727272734 0.5555555555555567,2.2727272727272734 0.4545454545454551,2.2727272727272734 0.3535353535353544,2.2727272727272734 0.2525252525252529,2.2727272727272734 0.1515151515151522,2.2727272727272734 0.050505050505051545,2.2727272727272734 -0.05050505050505001,2.2727272727272734 -0.15151515151515066,2.2727272727272734 -0.2525252525252522,2.2727272727272734 -0.35353535353535287,2.2727272727272734 -0.4545454545454544,2.2727272727272734 -0.555555555555555,2.2727272727272734 -0.6565656565656557,2.2727272727272734 -0.7575757575757572,2.2727272727272734 -0.8585858585858579,2.2727272727272734 -0.9595959595959596,2.2727272727272734 -1.0606060606060603,2.2727272727272734 -1.1616161616161613,2.2727272727272734 -1.2626262626262625,2.2727272727272734 -1.363636363636363,2.2727272727272734 -1.4646464646464643,2.2727272727272734 -1.5656565656565653,2.2727272727272734 -1.6666666666666665,2.2727272727272734 -1.7676767676767675,2.2727272727272734 -1.8686868686868683,2.2727272727272734 -1.9696969696969693,2.2727272727272734 -2.07070707070707,2.2727272727272734 -2.1717171717171713,2.2727272727272734 -2.2727272727272725,2.2727272727272734 -2.3737373737373733,2.2727272727272734 -2.474747474747474,2.2727272727272734 -2.5757575757575752,2.2727272727272734 -2.6767676767676765,2.2727272727272734 -2.7777777777777777,2.2727272727272734 -2.8787878787878785,2.2727272727272734 -2.9797979797979792,2.2727272727272734 -3.0808080808080804,2.2727272727272734 -3.1818181818181817,2.2727272727272734 -3.2828282828282824,2.2727272727272734 -3.383838383838383,2.2727272727272734" data-type="line" data-label="" points="984,593.0505050505051 974.4646464646464,583.5151515151516 964.9292929292927,573.979797979798 955.3939393939393,564.4444444444445 945.8585858585857,554.909090909091 936.3232323232323,545.3737373737374 926.7878787878785,535.838383838384 917.2525252525251,526.3030303030304 907.7171717171716,516.7676767676768 898.181818181818,507.23232323232327 888.6464646464647,497.69696969696975 879.111111111111,488.1616161616163 869.5757575757575,478.6262626262627 860.0404040404039,469.0909090909092 850.5050505050505,459.5555555555556 840.969696969697,450.0202020202021 831.4343434343433,440.4848484848486 821.8989898989898,430.94949494949503 812.3636363636363,421.4141414141415 802.8282828282828,411.87878787878793 793.2929292929292,402.3434343434344 783.7575757575758,392.80808080808094 774.2222222222222,383.27272727272737 764.6868686868686,373.73737373737384 755.1515151515151,364.2020202020203 745.6161616161615,354.66666666666674 736.0808080808081,345.1313131313133 726.5454545454545,335.5959595959597 717.0101010101009,326.06060606060623 707.4747474747475,316.5252525252526 697.9393939393939,306.9898989898991 688.4040404040404,297.4545454545456 678.8686868686868,297.4545454545456 669.3333333333333,297.4545454545456 659.7979797979798,297.4545454545456 650.2626262626262,297.4545454545456 640.7272727272727,297.4545454545456 631.1919191919192,297.4545454545456 621.6565656565656,297.4545454545456 612.1212121212121,297.4545454545456 602.5858585858585,297.4545454545456 593.0505050505051,297.4545454545456 583.5151515151515,297.4545454545456 573.9797979797979,297.4545454545456 564.4444444444445,297.4545454545456 554.9090909090909,297.4545454545456 545.3737373737374,297.4545454545456 535.8383838383838,297.4545454545456 526.3030303030303,297.4545454545456 516.7676767676768,297.4545454545456 507.2323232323232,297.4545454545456 497.69696969696975,297.4545454545456 488.16161616161617,297.4545454545456 478.62626262626264,297.4545454545456 469.09090909090907,297.4545454545456 459.55555555555554,297.4545454545456 450.0202020202021,297.4545454545456 440.4848484848485,297.4545454545456 430.949494949495,297.4545454545456 421.4141414141414,297.4545454545456 411.8787878787879,297.4545454545456 402.34343434343435,297.4545454545456 392.80808080808083,297.4545454545456 383.2727272727273,297.4545454545456 373.7373737373738,297.4545454545456 364.2020202020202,297.4545454545456 354.6666666666667,297.4545454545456 345.13131313131316,297.4545454545456 335.59595959595964,297.4545454545456 326.0606060606061,297.4545454545456 316.5252525252526,297.4545454545456 306.9898989898991,297.4545454545456 297.4545454545455,297.4545454545456 287.91919191919203,297.4545454545456 278.38383838383845,297.4545454545456 268.84848484848493,297.4545454545456 259.3131313131314,297.4545454545456 249.77777777777783,297.4545454545456 240.2424242424243,297.4545454545456 230.70707070707084,297.4545454545456 221.17171717171726,297.4545454545456 211.63636363636374,297.4545454545456 202.10101010101022,297.4545454545456 192.5656565656567,297.4545454545456" fill="none" stroke="rgba(0,0,255,0.75)" stroke-width="11.327999999999996"/></g><g><polyline data-points="-3.383838383838383,2.2727272727272734 -3.484848484848485,2.2727272727272734 -3.5858585858585856,2.2727272727272734 -3.6868686868686864,2.2727272727272734 -3.7878787878787876,2.2727272727272734 -3.8888888888888884,2.2727272727272734 -3.98989898989899,2.2727272727272734 -4.090909090909091,2.2727272727272734 -4.191919191919193,2.2727272727272734 -4.292929292929293,2.2727272727272734 -4.393939393939394,2.2727272727272734 -4.494949494949496,2.2727272727272734 -4.595959595959596,2.2727272727272734 -4.696969696969697,2.2727272727272734 -4.7979797979797985,2.2727272727272734 -4.898989898989899,2.2727272727272734 -5.000000000000001,2.2727272727272734" data-type="line" data-label="" points="192.5656565656567,297.4545454545456 183.03030303030312,297.4545454545456 173.4949494949496,297.4545454545456 163.95959595959607,297.4545454545456 154.42424242424255,297.4545454545456 144.88888888888903,297.4545454545456 135.35353535353545,297.4545454545456 125.81818181818193,297.4545454545456 116.28282828282829,297.4545454545456 106.74747474747483,297.4545454545456 97.21212121212136,297.4545454545456 87.67676767676772,297.4545454545456 78.14141414141426,297.4545454545456 68.60606060606068,297.4545454545456 59.07070707070716,297.4545454545456 49.53535353535369,297.4545454545456 40.00000000000006,297.4545454545456" fill="none" stroke="rgba(255,0,0,0.75)" stroke-width="11.327999999999996"/></g><g><polyline data-points="-5.000000000000001,-1.363636363636363 -4.898989898989899,-1.4646464646464643 -4.7979797979797985,-1.5656565656565653 -4.696969696969697,-1.6666666666666665 -4.595959595959596,-1.7676767676767675 -4.494949494949496,-1.8686868686868683 -4.393939393939394,-1.9696969696969693 -4.292929292929293,-2.07070707070707 -4.191919191919193,-2.1717171717171713 -4.090909090909091,-2.2727272727272725 -3.98989898989899,-2.3737373737373733 -3.8888888888888884,-2.474747474747474 -3.7878787878787876,-2.5757575757575752 -3.6868686868686864,-2.6767676767676765 -3.5858585858585856,-2.7777777777777777 -3.484848484848485,-2.8787878787878785 -3.383838383838383,-2.9797979797979792 -3.2828282828282824,-3.0808080808080804 -3.1818181818181817,-3.1818181818181817 -3.0808080808080804,-3.2828282828282824 -2.9797979797979792,-3.383838383838383 -2.8787878787878785,-3.484848484848485 -2.7777777777777777,-3.5858585858585856 -2.6767676767676765,-3.6868686868686864 -2.5757575757575752,-3.7878787878787876 -2.474747474747474,-3.8888888888888884 -2.3737373737373733,-3.98989898989899 -2.2727272727272725,-3.98989898989899 -2.1717171717171713,-3.98989898989899 -2.07070707070707,-3.98989898989899 -1.9696969696969693,-3.98989898989899 -1.8686868686868683,-3.98989898989899 -1.7676767676767675,-3.98989898989899 -1.6666666666666665,-3.98989898989899 -1.5656565656565653,-3.98989898989899 -1.4646464646464643,-3.98989898989899 -1.363636363636363,-3.98989898989899 -1.2626262626262625,-3.98989898989899 -1.1616161616161613,-3.98989898989899 -1.0606060606060603,-3.98989898989899 -0.9595959595959596,-3.98989898989899 -0.8585858585858579,-3.98989898989899 -0.7575757575757572,-3.98989898989899 -0.6565656565656557,-3.98989898989899 -0.555555555555555,-3.98989898989899 -0.4545454545454544,-3.98989898989899 -0.35353535353535287,-3.98989898989899 -0.2525252525252522,-3.98989898989899 -0.15151515151515066,-3.98989898989899 -0.05050505050505001,-3.98989898989899 0.050505050505051545,-3.98989898989899 0.1515151515151522,-3.98989898989899 0.2525252525252529,-3.98989898989899" data-type="line" data-label="" points="40.00000000000006,640.7272727272727 49.53535353535369,650.2626262626263 59.07070707070716,659.7979797979798 68.60606060606068,669.3333333333334 78.14141414141426,678.8686868686868 87.67676767676772,688.4040404040404 97.21212121212136,697.939393939394 106.74747474747483,707.4747474747475 116.28282828282829,717.010101010101 125.81818181818193,726.5454545454545 135.35353535353545,736.0808080808081 144.88888888888903,745.6161616161615 154.42424242424255,755.1515151515151 163.95959595959607,764.6868686868687 173.4949494949496,774.2222222222222 183.03030303030312,783.7575757575758 192.5656565656567,793.2929292929292 202.10101010101022,802.8282828282828 211.63636363636374,812.3636363636363 221.17171717171726,821.8989898989898 230.70707070707084,831.4343434343434 240.2424242424243,840.969696969697 249.77777777777783,850.5050505050505 259.3131313131314,860.0404040404039 268.84848484848493,869.5757575757575 278.38383838383845,879.1111111111111 287.91919191919203,888.6464646464647 297.4545454545455,888.6464646464647 306.9898989898991,888.6464646464647 316.5252525252526,888.6464646464647 326.0606060606061,888.6464646464647 335.59595959595964,888.6464646464647 345.13131313131316,888.6464646464647 354.6666666666667,888.6464646464647 364.2020202020202,888.6464646464647 373.7373737373738,888.6464646464647 383.2727272727273,888.6464646464647 392.80808080808083,888.6464646464647 402.34343434343435,888.6464646464647 411.8787878787879,888.6464646464647 421.4141414141414,888.6464646464647 430.949494949495,888.6464646464647 440.4848484848485,888.6464646464647 450.0202020202021,888.6464646464647 459.55555555555554,888.6464646464647 469.09090909090907,888.6464646464647 478.62626262626264,888.6464646464647 488.16161616161617,888.6464646464647 497.69696969696975,888.6464646464647 507.2323232323232,888.6464646464647 516.7676767676768,888.6464646464647 526.3030303030303,888.6464646464647 535.8383838383838,888.6464646464647" fill="none" stroke="rgba(0,0,255,0.75)" stroke-width="11.327999999999996"/></g><g><polyline data-points="0.2525252525252529,-3.98989898989899 0.3535353535353544,-3.98989898989899 0.4545454545454551,-3.98989898989899 0.5555555555555567,-3.98989898989899 0.6565656565656574,-3.98989898989899 0.7575757575757579,-3.98989898989899 0.8585858585858596,-3.98989898989899 0.9595959595959602,-3.98989898989899 1.0606060606060617,-3.98989898989899 1.1616161616161622,-3.98989898989899 1.262626262626263,-3.98989898989899 1.3636363636363644,-3.98989898989899 1.4646464646464652,-3.98989898989899 1.5656565656565666,-3.98989898989899 1.6666666666666674,-3.98989898989899 1.767676767676768,-3.98989898989899 1.8686868686868696,-3.98989898989899 1.9696969696969702,-3.98989898989899 2.070707070707072,-3.98989898989899 2.1717171717171726,-3.98989898989899 2.2727272727272734,-3.98989898989899 2.373737373737375,-3.98989898989899 2.4747474747474754,-3.98989898989899 2.575757575757577,-3.98989898989899 2.676767676767678,-3.98989898989899 2.7777777777777786,-3.98989898989899 2.87878787878788,-3.98989898989899 2.9797979797979806,-3.98989898989899 3.080808080808082,-3.98989898989899 3.181818181818183,-3.98989898989899 3.2828282828282833,-3.98989898989899 3.383838383838384,-3.98989898989899 3.4848484848484866,-3.98989898989899" data-type="line" data-label="" points="535.8383838383838,888.6464646464647 545.3737373737374,888.6464646464647 554.9090909090909,888.6464646464647 564.4444444444445,888.6464646464647 573.9797979797979,888.6464646464647 583.5151515151515,888.6464646464647 593.0505050505051,888.6464646464647 602.5858585858585,888.6464646464647 612.1212121212121,888.6464646464647 621.6565656565656,888.6464646464647 631.1919191919192,888.6464646464647 640.7272727272727,888.6464646464647 650.2626262626262,888.6464646464647 659.7979797979798,888.6464646464647 669.3333333333333,888.6464646464647 678.8686868686868,888.6464646464647 688.4040404040404,888.6464646464647 697.9393939393939,888.6464646464647 707.4747474747475,888.6464646464647 717.0101010101009,888.6464646464647 726.5454545454545,888.6464646464647 736.0808080808081,888.6464646464647 745.6161616161615,888.6464646464647 755.1515151515151,888.6464646464647 764.6868686868686,888.6464646464647 774.2222222222222,888.6464646464647 783.7575757575758,888.6464646464647 793.2929292929292,888.6464646464647 802.8282828282828,888.6464646464647 812.3636363636363,888.6464646464647 821.8989898989898,888.6464646464647 831.4343434343433,888.6464646464647 840.969696969697,888.6464646464647" fill="none" stroke="rgba(255,0,0,0.75)" stroke-width="11.327999999999996"/></g><g><polyline data-points="3.4848484848484866,-3.98989898989899 3.5858585858585874,-4.090909090909091 3.6868686868686877,-4.191919191919193 3.7878787878787885,-4.191919191919193 3.8888888888888893,-4.191919191919193 3.989898989898992,-4.191919191919193 4.090909090909092,-4.191919191919193 4.191919191919193,-4.191919191919193 4.292929292929293,-4.191919191919193 4.393939393939394,-4.191919191919193 4.494949494949497,-4.191919191919193 4.595959595959597,-4.191919191919193 4.696969696969697,-4.191919191919193 4.7979797979797985,-4.191919191919193 4.898989898989901,-4.191919191919193 5.000000000000002,-4.191919191919193" data-type="line" data-label="" points="840.969696969697,888.6464646464647 850.5050505050505,898.1818181818181 860.0404040404039,907.7171717171718 869.5757575757575,907.7171717171718 879.111111111111,907.7171717171718 888.6464646464647,907.7171717171718 898.181818181818,907.7171717171718 907.7171717171716,907.7171717171718 917.2525252525251,907.7171717171718 926.7878787878785,907.7171717171718 936.3232323232323,907.7171717171718 945.8585858585857,907.7171717171718 955.3939393939393,907.7171717171718 964.9292929292927,907.7171717171718 974.4646464646464,907.7171717171718 984,907.7171717171718" fill="none" stroke="rgba(0,0,255,0.75)" stroke-width="11.327999999999996"/></g><g><polyline data-points="4.494949494949497,-5.000000000000001 4.393939393939394,-4.898989898989899 4.292929292929293,-4.7979797979797985 4.191919191919193,-4.696969696969697 4.090909090909092,-4.595959595959596 3.989898989898992,-4.494949494949496 3.8888888888888893,-4.393939393939394 3.7878787878787885,-4.393939393939394 3.6868686868686877,-4.393939393939394 3.5858585858585874,-4.393939393939394 3.4848484848484866,-4.292929292929293 3.383838383838384,-4.191919191919193 3.2828282828282833,-4.090909090909091 3.181818181818183,-3.98989898989899 3.080808080808082,-3.8888888888888884 2.9797979797979806,-3.7878787878787876 2.87878787878788,-3.6868686868686864 2.7777777777777786,-3.5858585858585856 2.676767676767678,-3.484848484848485 2.575757575757577,-3.383838383838383 2.4747474747474754,-3.2828282828282824 2.373737373737375,-3.1818181818181817 2.2727272727272734,-3.0808080808080804 2.1717171717171726,-2.9797979797979792 2.070707070707072,-2.8787878787878785 1.9696969696969702,-2.7777777777777777 1.8686868686868696,-2.6767676767676765 1.767676767676768,-2.5757575757575752 1.6666666666666674,-2.474747474747474 1.5656565656565666,-2.3737373737373733 1.4646464646464652,-2.2727272727272725 1.3636363636363644,-2.1717171717171713 1.262626262626263,-2.07070707070707 1.1616161616161622,-1.9696969696969693 1.0606060606060617,-1.8686868686868683 0.9595959595959602,-1.7676767676767675 0.8585858585858596,-1.6666666666666665 0.7575757575757579,-1.5656565656565653 0.6565656565656574,-1.4646464646464643 0.5555555555555567,-1.363636363636363 0.4545454545454551,-1.2626262626262625 0.3535353535353544,-1.1616161616161613 0.2525252525252529,-1.0606060606060603 0.1515151515151522,-0.9595959595959596 0.050505050505051545,-0.8585858585858579 -0.05050505050505001,-0.7575757575757572 -0.15151515151515066,-0.6565656565656557 -0.2525252525252522,-0.555555555555555 -0.35353535353535287,-0.4545454545454544 -0.35353535353535287,-0.35353535353535287 -0.35353535353535287,-0.2525252525252522 -0.35353535353535287,-0.15151515151515066 -0.35353535353535287,-0.05050505050505001 -0.35353535353535287,0.050505050505051545 -0.35353535353535287,0.1515151515151522 -0.35353535353535287,0.2525252525252529 -0.35353535353535287,0.3535353535353544 -0.35353535353535287,0.4545454545454551 -0.35353535353535287,0.5555555555555567 -0.35353535353535287,0.6565656565656574 -0.35353535353535287,0.7575757575757579 -0.35353535353535287,0.8585858585858596 -0.35353535353535287,0.9595959595959602 -0.35353535353535287,1.0606060606060617 -0.35353535353535287,1.1616161616161622 -0.35353535353535287,1.262626262626263 -0.35353535353535287,1.3636363636363644 -0.35353535353535287,1.4646464646464652 -0.35353535353535287,1.5656565656565666 -0.35353535353535287,1.6666666666666674 -0.35353535353535287,1.767676767676768 -0.35353535353535287,1.8686868686868696" data-type="line" data-label="" points="936.3232323232323,984 926.7878787878785,974.4646464646464 917.2525252525251,964.9292929292928 907.7171717171716,955.3939393939394 898.181818181818,945.8585858585858 888.6464646464647,936.3232323232323 879.111111111111,926.7878787878788 869.5757575757575,926.7878787878788 860.0404040404039,926.7878787878788 850.5050505050505,926.7878787878788 840.969696969697,917.2525252525252 831.4343434343433,907.7171717171718 821.8989898989898,898.1818181818181 812.3636363636363,888.6464646464647 802.8282828282828,879.1111111111111 793.2929292929292,869.5757575757575 783.7575757575758,860.0404040404039 774.2222222222222,850.5050505050505 764.6868686868686,840.969696969697 755.1515151515151,831.4343434343434 745.6161616161615,821.8989898989898 736.0808080808081,812.3636363636363 726.5454545454545,802.8282828282828 717.0101010101009,793.2929292929292 707.4747474747475,783.7575757575758 697.9393939393939,774.2222222222222 688.4040404040404,764.6868686868687 678.8686868686868,755.1515151515151 669.3333333333333,745.6161616161615 659.7979797979798,736.0808080808081 650.2626262626262,726.5454545454545 640.7272727272727,717.010101010101 631.1919191919192,707.4747474747475 621.6565656565656,697.939393939394 612.1212121212121,688.4040404040404 602.5858585858585,678.8686868686868 593.0505050505051,669.3333333333334 583.5151515151515,659.7979797979798 573.9797979797979,650.2626262626263 564.4444444444445,640.7272727272727 554.9090909090909,631.1919191919193 545.3737373737374,621.6565656565657 535.8383838383838,612.1212121212121 526.3030303030303,602.5858585858587 516.7676767676768,593.0505050505051 507.2323232323232,583.5151515151516 497.69696969696975,573.979797979798 488.16161616161617,564.4444444444445 478.62626262626264,554.909090909091 478.62626262626264,545.3737373737374 478.62626262626264,535.838383838384 478.62626262626264,526.3030303030304 478.62626262626264,516.7676767676768 478.62626262626264,507.23232323232327 478.62626262626264,497.69696969696975 478.62626262626264,488.1616161616163 478.62626262626264,478.6262626262627 478.62626262626264,469.0909090909092 478.62626262626264,459.5555555555556 478.62626262626264,450.0202020202021 478.62626262626264,440.4848484848486 478.62626262626264,430.94949494949503 478.62626262626264,421.4141414141415 478.62626262626264,411.87878787878793 478.62626262626264,402.3434343434344 478.62626262626264,392.80808080808094 478.62626262626264,383.27272727272737 478.62626262626264,373.73737373737384 478.62626262626264,364.2020202020203 478.62626262626264,354.66666666666674 478.62626262626264,345.1313131313133 478.62626262626264,335.5959595959597" fill="none" stroke="rgba(0,0,255,0.75)" stroke-width="11.327999999999996"/></g><g><polyline data-points="-0.35353535353535287,1.8686868686868696 -0.35353535353535287,1.9696969696969702 -0.35353535353535287,2.070707070707072 -0.35353535353535287,2.1717171717171726 -0.35353535353535287,2.2727272727272734 -0.35353535353535287,2.373737373737375 -0.35353535353535287,2.4747474747474754 -0.35353535353535287,2.575757575757577 -0.35353535353535287,2.676767676767678" data-type="line" data-label="" points="478.62626262626264,335.5959595959597 478.62626262626264,326.06060606060623 478.62626262626264,316.5252525252526 478.62626262626264,306.9898989898991 478.62626262626264,297.4545454545456 478.62626262626264,287.91919191919203 478.62626262626264,278.38383838383857 478.62626262626264,268.84848484848493 478.62626262626264,259.3131313131314" fill="none" stroke="rgba(255,0,0,0.75)" stroke-width="11.327999999999996"/></g><g><polyline data-points="-0.35353535353535287,2.676767676767678 -0.4545454545454544,2.7777777777777786 -0.555555555555555,2.87878787878788 -0.6565656565656557,2.9797979797979806 -0.7575757575757572,3.080808080808082 -0.8585858585858579,3.181818181818183 -0.9595959595959596,3.2828282828282833 -1.0606060606060603,3.383838383838384 -1.0606060606060603,3.4848484848484866 -1.0606060606060603,3.5858585858585874 -1.0606060606060603,3.6868686868686877 -1.0606060606060603,3.7878787878787885 -1.0606060606060603,3.8888888888888893 -1.0606060606060603,3.989898989898992" data-type="line" data-label="" points="478.62626262626264,259.3131313131314 469.09090909090907,249.77777777777794 459.55555555555554,240.24242424242436 450.0202020202021,230.70707070707084 440.4848484848485,221.17171717171726 430.949494949495,211.63636363636374 421.4141414141414,202.10101010101027 411.8787878787879,192.56565656565675 411.8787878787879,183.03030303030312 411.8787878787879,173.4949494949496 411.8787878787879,163.95959595959613 411.8787878787879,154.4242424242426 411.8787878787879,144.88888888888908 411.8787878787879,135.35353535353545" fill="none" stroke="rgba(0,0,255,0.75)" stroke-width="11.327999999999996"/></g><g><polyline data-points="-1.0606060606060603,3.989898989898992 -1.0606060606060603,4.090909090909092 -1.0606060606060603,4.191919191919193 -1.0606060606060603,4.292929292929293 -1.0606060606060603,4.393939393939394 -1.0606060606060603,4.494949494949497 -1.0606060606060603,4.595959595959597 -1.0606060606060603,4.696969696969697 -1.0606060606060603,4.7979797979797985 -1.0606060606060603,4.898989898989901 -1.0606060606060603,5.000000000000002" data-type="line" data-label="" points="411.8787878787879,135.35353535353545 411.8787878787879,125.81818181818198 411.8787878787879,116.28282828282846 411.8787878787879,106.747474747475 411.8787878787879,97.21212121212153 411.8787878787879,87.67676767676778 411.8787878787879,78.14141414141432 411.8787878787879,68.60606060606085 411.8787878787879,59.07070707070733 411.8787878787879,49.53535353535369 411.8787878787879,40.000000000000114" fill="none" stroke="rgba(255,0,0,0.75)" stroke-width="11.327999999999996"/></g><g><rect data-type="rect" data-label="" data-x="0" data-y="0" x="40.000000000000114" y="40.000000000000284" width="943.9999999999997" height="943.9999999999998" fill="none" stroke="gray" stroke-width="0.010593220338983056"/></g><g><rect data-type="rect" data-label="" data-x="0" data-y="0" x="40.000000000000114" y="40.000000000000284" width="943.9999999999997" height="943.9999999999998" fill="none" stroke="rgba(15, 23, 42, 0.8)" stroke-width="0.010593220338983056"/></g><circle data-type="circle" data-label="" data-x="-3.7878787878787876" data-y="3.989898989898992" cx="154.42424242424255" cy="135.35353535353545" r="14.159999999999995" fill="rgba(0,0,0,0.3)" stroke="black" stroke-width="0.010593220338983056"/><circle data-type="circle" data-label="" data-x="-3.98989898989899" data-y="-0.4545454545454544" cx="135.35353535353545" cy="554.909090909091" r="14.159999999999995" fill="rgba(0,0,0,0.3)" stroke="black" stroke-width="0.010593220338983056"/><circle data-type="circle" data-label="" data-x="-3.383838383838383" data-y="2.2727272727272734" cx="192.5656565656567" cy="297.4545454545456" r="14.159999999999995" fill="rgba(0,0,0,0.3)" stroke="black" stroke-width="0.010593220338983056"/><circle data-type="circle" data-label="" data-x="0.2525252525252529" data-y="-3.98989898989899" cx="535.8383838383838" cy="888.6464646464647" r="14.159999999999995" fill="rgba(0,0,0,0.3)" stroke="black" stroke-width="0.010593220338983056"/><circle data-type="circle" data-label="" data-x="3.4848484848484866" data-y="-3.98989898989899" cx="840.969696969697" cy="888.6464646464647" r="14.159999999999995" fill="rgba(0,0,0,0.3)" stroke="black" stroke-width="0.010593220338983056"/><circle data-type="circle" data-label="" data-x="-0.35353535353535287" data-y="1.8686868686868696" cx="478.62626262626264" cy="335.5959595959597" r="14.159999999999995" fill="rgba(0,0,0,0.3)" stroke="black" stroke-width="0.010593220338983056"/><circle data-type="circle" data-label="" data-x="-0.35353535353535287" data-y="2.676767676767678" cx="478.62626262626264" cy="259.3131313131314" r="14.159999999999995" fill="rgba(0,0,0,0.3)" stroke="black" stroke-width="0.010593220338983056"/><circle data-type="circle" data-label="" data-x="-1.0606060606060603" data-y="3.989898989898992" cx="411.8787878787879" cy="135.35353535353545" r="14.159999999999995" fill="rgba(0,0,0,0.3)" stroke="black" stroke-width="0.010593220338983056"/><g id="crosshair" style="display: none"><line id="crosshair-h" y1="0" y2="1024" stroke="#666" stroke-width="0.5"/><line id="crosshair-v" x1="0" x2="1024" stroke="#666" stroke-width="0.5"/><text id="coordinates" font-family="monospace" font-size="12" fill="#666"></text></g><script><![CDATA[
              document.currentScript.parentElement.addEventListener('mousemove', (e) => {
                const svg = e.currentTarget;
                const rect = svg.getBoundingClientRect();
                const x = e.clientX - rect.left;
                const y = e.clientY - rect.top;
                const crosshair = svg.getElementById('crosshair');
                const h = svg.getElementById('crosshair-h');
                const v = svg.getElementById('crosshair-v');
                const coords = svg.getElementById('coordinates');
                
                crosshair.style.display = 'block';
                h.setAttribute('x1', '0');
                h.setAttribute('x2', '1024');
                h.setAttribute('y1', y);
                h.setAttribute('y2', y);
                v.setAttribute('x1', x);
                v.setAttribute('x2', x);
                v.setAttribute('y1', '0');
                v.setAttribute('y2', '1024');

                // Calculate real coordinates using inverse transformation
                const matrix = {"a":94.39999999999996,"c":0,"e":511.99999999999994,"b":0,"d":-94.39999999999996,"f":512.0000000000001};
                // Manually invert and apply the affine transform
                // Since we only use translate and scale, we can directly compute:
                // x' = (x - tx) / sx
                // y' = (y - ty) / sy
                const sx = matrix.a;
                const sy = matrix.d;
                const tx = matrix.e; 
                const ty = matrix.f;
                const realPoint = {
                  x: (x - tx) / sx,
                  y: (y - ty) / sy // Flip y back since we used negative scale
                }
                
                coords.textContent = `(${realPoint.x.toFixed(2)}, ${realPoint.y.toFixed(2)})`;
                coords.setAttribute('x', (x + 5).toString());
                coords.setAttribute('y', (y - 5).toString());
              });
              document.currentScript.parentElement.addEventListener('mouseleave', () => {
                document.currentScript.parentElement.getElementById('crosshair').style.display = 'none';
              });
            ]]></script></svg>