<svg width="1024" height="1024" viewBox="0 0 1024 1024" xmlns="http://www.w3.org/2000/svg"><rect width="100%" height="100%" fill="white"/><g><circle data-type="point" data-label="conn_000" data-x="-4.7" data-y="5" cx="68.3200000000001" cy="40.000000000000284" r="14.16" fill="red"/></g><g><circle data-type="point" data-label="conn_000" data-x="-1.46" data-y="-5" cx="374.176" cy="984" r="14.16" fill="blue"/></g><g><circle data-type="point" data-label="conn_001" data-x="-2.1" data-y="-5" cx="313.76" cy="984" r="14.16" fill="blue"/></g><g><circle data-type="point" data-label="conn_001" data-x="-4.7" data-y="5" cx="68.3200000000001" cy="40.000000000000284" r="14.16" fill="blue"/></g><g><circle data-type="point" data-label="conn_002" data-x="-5" data-y="2.7800000000000002" cx="40.000000000000114" cy="249.5680000000002" r="14.16" fill="red"/></g><g><circle data-type="point" data-label="conn_002" data-x="5" data-y="2.02" cx="983.9999999999998" cy="321.3120000000002" r="14.16" fill="red"/></g><g><circle data-type="point" data-label="conn_003" data-x="-5" data-y="2.56" cx="40.000000000000114" cy="270.33600000000024" r="14.16" fill="blue"/></g><g><circle data-type="point" data-label="conn_003" data-x="-0.7000000000000001" data-y="-5" cx="445.91999999999996" cy="984" r="14.16" fill="blue"/></g><g><circle data-type="point" data-label="conn_004" data-x="-4.88" data-y="5" cx="51.328000000000145" cy="40.000000000000284" r="14.16" fill="blue"/></g><g><circle data-type="point" data-label="conn_004" data-x="-0.64" data-y="5" cx="451.58399999999995" cy="40.000000000000284" r="14.16" fill="blue"/></g><g><polyline data-points="-5.000000000000001,2.7777777777777786 -4.898989898989899,2.676767676767678 -4.7979797979797985,2.575757575757577 -4.696969696969697,2.4747474747474754 -4.595959595959596,2.373737373737375 -4.494949494949496,2.2727272727272734 -4.393939393939394,2.1717171717171726 -4.292929292929293,2.070707070707072 -4.191919191919193,2.070707070707072 -4.090909090909091,2.070707070707072 -3.98989898989899,2.070707070707072 -3.8888888888888884,2.070707070707072 -3.7878787878787876,2.070707070707072 -3.6868686868686864,2.070707070707072 -3.5858585858585856,2.070707070707072 -3.484848484848485,2.070707070707072 -3.383838383838383,2.070707070707072 -3.2828282828282824,2.070707070707072 -3.1818181818181817,2.070707070707072 -3.0808080808080804,2.070707070707072 -2.9797979797979792,2.070707070707072 -2.8787878787878785,2.070707070707072 -2.7777777777777777,2.070707070707072 -2.6767676767676765,2.070707070707072 -2.5757575757575752,2.070707070707072 -2.474747474747474,2.070707070707072 -2.3737373737373733,2.070707070707072 -2.2727272727272725,2.070707070707072 -2.1717171717171713,2.070707070707072 -2.07070707070707,2.070707070707072 -1.9696969696969693,2.070707070707072 -1.8686868686868683,2.070707070707072 -1.7676767676767675,2.070707070707072 -1.6666666666666665,2.070707070707072 -1.5656565656565653,2.070707070707072 -1.4646464646464643,2.070707070707072 -1.363636363636363,2.070707070707072 -1.2626262626262625,2.070707070707072 -1.1616161616161613,2.070707070707072 -1.0606060606060603,2.070707070707072 -0.9595959595959596,2.070707070707072 -0.8585858585858579,2.070707070707072 -0.7575757575757572,2.070707070707072 -0.6565656565656557,2.070707070707072 -0.555555555555555,2.070707070707072 -0.4545454545454544,2.070707070707072 -0.35353535353535287,2.070707070707072 -0.2525252525252522,2.070707070707072 -0.15151515151515066,2.070707070707072 -0.05050505050505001,2.070707070707072 0.050505050505051545,2.070707070707072 0.1515151515151522,2.070707070707072 0.2525252525252529,2.070707070707072 0.3535353535353544,2.070707070707072 0.4545454545454551,2.070707070707072 0.5555555555555567,2.070707070707072 0.6565656565656574,2.070707070707072 0.7575757575757579,2.070707070707072 0.8585858585858596,2.070707070707072 0.9595959595959602,2.070707070707072 1.0606060606060617,2.070707070707072 1.1616161616161622,2.070707070707072 1.262626262626263,2.070707070707072 1.3636363636363644,2.070707070707072 1.4646464646464652,2.070707070707072 1.5656565656565666,2.070707070707072 1.6666666666666674,2.070707070707072 1.767676767676768,2.070707070707072 1.8686868686868696,2.070707070707072 1.9696969696969702,2.070707070707072 2.070707070707072,2.070707070707072 2.1717171717171726,2.070707070707072 2.2727272727272734,2.070707070707072 2.373737373737375,2.070707070707072 2.4747474747474754,2.070707070707072 2.575757575757577,2.070707070707072 2.676767676767678,2.070707070707072 2.7777777777777786,2.070707070707072 2.87878787878788,2.070707070707072 2.9797979797979806,2.070707070707072 3.080808080808082,2.070707070707072 3.181818181818183,2.070707070707072 3.2828282828282833,2.070707070707072 3.383838383838384,2.070707070707072 3.4848484848484866,2.070707070707072 3.5858585858585874,2.070707070707072 3.6868686868686877,2.070707070707072 3.7878787878787885,2.070707070707072 3.8888888888888893,2.070707070707072 3.989898989898992,2.070707070707072 4.090909090909092,2.070707070707072 4.191919191919193,2.070707070707072 4.292929292929293,2.070707070707072 4.393939393939394,2.070707070707072 4.494949494949497,2.070707070707072 4.595959595959597,2.070707070707072 4.696969696969697,2.070707070707072 4.7979797979797985,2.070707070707072 4.898989898989901,2.070707070707072 5.000000000000002,2.070707070707072" data-type="line" data-label="" points="40.00000000000006,249.77777777777794 49.53535353535369,259.3131313131314 59.07070707070716,268.84848484848493 68.60606060606068,278.38383838383857 78.14141414141426,287.91919191919203 87.67676767676772,297.4545454545456 97.21212121212136,306.9898989898991 106.74747474747483,316.5252525252526 116.28282828282829,316.5252525252526 125.81818181818193,316.5252525252526 135.35353535353545,316.5252525252526 144.88888888888903,316.5252525252526 154.42424242424255,316.5252525252526 163.95959595959607,316.5252525252526 173.4949494949496,316.5252525252526 183.03030303030312,316.5252525252526 192.5656565656567,316.5252525252526 202.10101010101022,316.5252525252526 211.63636363636374,316.5252525252526 221.17171717171726,316.5252525252526 230.70707070707084,316.5252525252526 240.2424242424243,316.5252525252526 249.77777777777783,316.5252525252526 259.3131313131314,316.5252525252526 268.84848484848493,316.5252525252526 278.38383838383845,316.5252525252526 287.91919191919203,316.5252525252526 297.4545454545455,316.5252525252526 306.9898989898991,316.5252525252526 316.5252525252526,316.5252525252526 326.0606060606061,316.5252525252526 335.59595959595964,316.5252525252526 345.13131313131316,316.5252525252526 354.6666666666667,316.5252525252526 364.2020202020202,316.5252525252526 373.7373737373738,316.5252525252526 383.2727272727273,316.5252525252526 392.80808080808083,316.5252525252526 402.34343434343435,316.5252525252526 411.8787878787879,316.5252525252526 421.4141414141414,316.5252525252526 430.949494949495,316.5252525252526 440.4848484848485,316.5252525252526 450.0202020202021,316.5252525252526 459.55555555555554,316.5252525252526 469.09090909090907,316.5252525252526 478.62626262626264,316.5252525252526 488.16161616161617,316.5252525252526 497.69696969696975,316.5252525252526 507.2323232323232,316.5252525252526 516.7676767676768,316.5252525252526 526.3030303030303,316.5252525252526 535.8383838383838,316.5252525252526 545.3737373737374,316.5252525252526 554.9090909090909,316.5252525252526 564.4444444444445,316.5252525252526 573.9797979797979,316.5252525252526 583.5151515151515,316.5252525252526 593.0505050505051,316.5252525252526 602.5858585858585,316.5252525252526 612.1212121212121,316.5252525252526 621.6565656565656,316.5252525252526 631.1919191919192,316.5252525252526 640.7272727272727,316.5252525252526 650.2626262626262,316.5252525252526 659.7979797979798,316.5252525252526 669.3333333333333,316.5252525252526 678.8686868686868,316.5252525252526 688.4040404040404,316.5252525252526 697.9393939393939,316.5252525252526 707.4747474747475,316.5252525252526 717.0101010101009,316.5252525252526 726.5454545454545,316.5252525252526 736.0808080808081,316.5252525252526 745.6161616161615,316.5252525252526 755.1515151515151,316.5252525252526 764.6868686868686,316.5252525252526 774.2222222222222,316.5252525252526 783.7575757575758,316.5252525252526 793.2929292929292,316.5252525252526 802.8282828282828,316.5252525252526 812.3636363636363,316.5252525252526 821.8989898989898,316.5252525252526 831.4343434343433,316.5252525252526 840.969696969697,316.5252525252526 850.5050505050505,316.5252525252526 860.0404040404039,316.5252525252526 869.5757575757575,316.5252525252526 879.111111111111,316.5252525252526 888.6464646464647,316.5252525252526 898.181818181818,316.5252525252526 907.7171717171716,316.5252525252526 917.2525252525251,316.5252525252526 926.7878787878785,316.5252525252526 936.3232323232323,316.5252525252526 945.8585858585857,316.5252525252526 955.3939393939393,316.5252525252526 964.9292929292927,316.5252525252526 974.4646464646464,316.5252525252526 984,316.5252525252526" fill="none" stroke="rgba(255,0,0,0.75)" stroke-width="11.327999999999996"/></g><g><polyline data-points="-5.000000000000001,2.575757575757577 -4.898989898989899,2.4747474747474754 -4.898989898989899,2.373737373737375 -4.898989898989899,2.2727272727272734 -4.898989898989899,2.1717171717171726 -4.898989898989899,2.070707070707072 -4.898989898989899,1.9696969696969702 -4.898989898989899,1.8686868686868696 -4.898989898989899,1.767676767676768 -4.898989898989899,1.6666666666666674 -4.898989898989899,1.5656565656565666 -4.898989898989899,1.4646464646464652 -4.898989898989899,1.3636363636363644 -4.898989898989899,1.262626262626263 -4.898989898989899,1.1616161616161622 -4.898989898989899,1.0606060606060617 -4.898989898989899,0.9595959595959602 -4.898989898989899,0.8585858585858596 -4.898989898989899,0.7575757575757579 -4.898989898989899,0.6565656565656574 -4.898989898989899,0.5555555555555567 -4.898989898989899,0.4545454545454551 -4.898989898989899,0.3535353535353544 -4.898989898989899,0.2525252525252529 -4.898989898989899,0.1515151515151522 -4.898989898989899,0.050505050505051545 -4.898989898989899,-0.05050505050505001 -4.898989898989899,-0.15151515151515066 -4.898989898989899,-0.2525252525252522 -4.898989898989899,-0.35353535353535287 -4.898989898989899,-0.4545454545454544 -4.898989898989899,-0.555555555555555 -4.898989898989899,-0.6565656565656557 -4.898989898989899,-0.7575757575757572 -4.898989898989899,-0.8585858585858579 -4.898989898989899,-0.9595959595959596 -4.898989898989899,-1.0606060606060603 -4.898989898989899,-1.1616161616161613 -4.898989898989899,-1.2626262626262625 -4.898989898989899,-1.363636363636363 -4.898989898989899,-1.4646464646464643 -4.898989898989899,-1.5656565656565653 -4.898989898989899,-1.6666666666666665 -4.898989898989899,-1.7676767676767675 -4.898989898989899,-1.8686868686868683 -4.898989898989899,-1.9696969696969693 -4.898989898989899,-2.07070707070707 -4.898989898989899,-2.1717171717171713 -4.898989898989899,-2.2727272727272725 -4.898989898989899,-2.3737373737373733 -4.898989898989899,-2.474747474747474 -4.898989898989899,-2.5757575757575752 -4.7979797979797985,-2.6767676767676765 -4.696969696969697,-2.7777777777777777 -4.595959595959596,-2.8787878787878785 -4.494949494949496,-2.9797979797979792 -4.393939393939394,-3.0808080808080804 -4.292929292929293,-3.1818181818181817 -4.191919191919193,-3.2828282828282824 -4.090909090909091,-3.383838383838383 -3.98989898989899,-3.484848484848485 -3.8888888888888884,-3.5858585858585856 -3.7878787878787876,-3.6868686868686864 -3.6868686868686864,-3.7878787878787876 -3.6868686868686864,-3.8888888888888884 -3.6868686868686864,-3.98989898989899" data-type="line" data-label="" points="40.00000000000006,268.84848484848493 49.53535353535369,278.38383838383857 49.53535353535369,287.91919191919203 49.53535353535369,297.4545454545456 49.53535353535369,306.9898989898991 49.53535353535369,316.5252525252526 49.53535353535369,326.06060606060623 49.53535353535369,335.5959595959597 49.53535353535369,345.1313131313133 49.53535353535369,354.66666666666674 49.53535353535369,364.2020202020203 49.53535353535369,373.73737373737384 49.53535353535369,383.27272727272737 49.53535353535369,392.80808080808094 49.53535353535369,402.3434343434344 49.53535353535369,411.87878787878793 49.53535353535369,421.4141414141415 49.53535353535369,430.94949494949503 49.53535353535369,440.4848484848486 49.53535353535369,450.0202020202021 49.53535353535369,459.5555555555556 49.53535353535369,469.0909090909092 49.53535353535369,478.6262626262627 49.53535353535369,488.1616161616163 49.53535353535369,497.69696969696975 49.53535353535369,507.23232323232327 49.53535353535369,516.7676767676768 49.53535353535369,526.3030303030304 49.53535353535369,535.838383838384 49.53535353535369,545.3737373737374 49.53535353535369,554.909090909091 49.53535353535369,564.4444444444445 49.53535353535369,573.979797979798 49.53535353535369,583.5151515151516 49.53535353535369,593.0505050505051 49.53535353535369,602.5858585858587 49.53535353535369,612.1212121212121 49.53535353535369,621.6565656565657 49.53535353535369,631.1919191919193 49.53535353535369,640.7272727272727 49.53535353535369,650.2626262626263 49.53535353535369,659.7979797979798 49.53535353535369,669.3333333333334 49.53535353535369,678.8686868686868 49.53535353535369,688.4040404040404 49.53535353535369,697.939393939394 49.53535353535369,707.4747474747475 49.53535353535369,717.010101010101 49.53535353535369,726.5454545454545 49.53535353535369,736.0808080808081 49.53535353535369,745.6161616161615 49.53535353535369,755.1515151515151 59.07070707070716,764.6868686868687 68.60606060606068,774.2222222222222 78.14141414141426,783.7575757575758 87.67676767676772,793.2929292929292 97.21212121212136,802.8282828282828 106.74747474747483,812.3636363636363 116.28282828282829,821.8989898989898 125.81818181818193,831.4343434343434 135.35353535353545,840.969696969697 144.88888888888903,850.5050505050505 154.42424242424255,860.0404040404039 163.95959595959607,869.5757575757575 163.95959595959607,879.1111111111111 163.95959595959607,888.6464646464647" fill="none" stroke="rgba(0,0,255,0.75)" stroke-width="11.327999999999996"/></g><g><polyline data-points="-3.6868686868686864,-3.98989898989899 -3.5858585858585856,-3.98989898989899 -3.484848484848485,-3.98989898989899 -3.383838383838383,-3.98989898989899 -3.2828282828282824,-3.98989898989899 -3.1818181818181817,-3.98989898989899 -3.0808080808080804,-3.98989898989899 -2.9797979797979792,-3.98989898989899 -2.8787878787878785,-3.98989898989899 -2.7777777777777777,-3.98989898989899 -2.6767676767676765,-3.98989898989899 -2.5757575757575752,-3.98989898989899 -2.474747474747474,-3.98989898989899 -2.3737373737373733,-3.98989898989899 -2.2727272727272725,-3.98989898989899 -2.1717171717171713,-3.98989898989899 -2.07070707070707,-3.98989898989899 -1.9696969696969693,-3.98989898989899 -1.8686868686868683,-3.98989898989899 -1.7676767676767675,-3.98989898989899 -1.6666666666666665,-3.98989898989899 -1.5656565656565653,-3.98989898989899 -1.4646464646464643,-3.98989898989899 -1.363636363636363,-3.98989898989899 -1.2626262626262625,-3.98989898989899 -1.1616161616161613,-3.98989898989899 -1.0606060606060603,-3.98989898989899 -0.9595959595959596,-3.98989898989899" data-type="line" data-label="" points="163.95959595959607,888.6464646464647 173.4949494949496,888.6464646464647 183.03030303030312,888.6464646464647 192.5656565656567,888.6464646464647 202.10101010101022,888.6464646464647 211.63636363636374,888.6464646464647 221.17171717171726,888.6464646464647 230.70707070707084,888.6464646464647 240.2424242424243,888.6464646464647 249.77777777777783,888.6464646464647 259.3131313131314,888.6464646464647 268.84848484848493,888.6464646464647 278.38383838383845,888.6464646464647 287.91919191919203,888.6464646464647 297.4545454545455,888.6464646464647 306.9898989898991,888.6464646464647 316.5252525252526,888.6464646464647 326.0606060606061,888.6464646464647 335.59595959595964,888.6464646464647 345.13131313131316,888.6464646464647 354.6666666666667,888.6464646464647 364.2020202020202,888.6464646464647 373.7373737373738,888.6464646464647 383.2727272727273,888.6464646464647 392.80808080808083,888.6464646464647 402.34343434343435,888.6464646464647 411.8787878787879,888.6464646464647 421.4141414141414,888.6464646464647" fill="none" stroke="rgba(255,0,0,0.75)" stroke-width="11.327999999999996"/></g><g><polyline data-points="-0.9595959595959596,-3.98989898989899 -0.8585858585858579,-4.090909090909091 -0.7575757575757572,-4.191919191919193 -0.7575757575757572,-4.292929292929293 -0.7575757575757572,-4.393939393939394 -0.7575757575757572,-4.494949494949496 -0.7575757575757572,-4.595959595959596 -0.7575757575757572,-4.696969696969697 -0.7575757575757572,-4.7979797979797985 -0.7575757575757572,-4.898989898989899 -0.7575757575757572,-5.000000000000001" data-type="line" data-label="" points="421.4141414141414,888.6464646464647 430.949494949495,898.1818181818181 440.4848484848485,907.7171717171718 440.4848484848485,917.2525252525252 440.4848484848485,926.7878787878788 440.4848484848485,936.3232323232323 440.4848484848485,945.8585858585858 440.4848484848485,955.3939393939394 440.4848484848485,964.9292929292928 440.4848484848485,974.4646464646464 440.4848484848485,984" fill="none" stroke="rgba(0,0,255,0.75)" stroke-width="11.327999999999996"/></g><g><polyline data-points="-4.7979797979797985,5.000000000000002 -4.696969696969697,4.898989898989901 -4.595959595959596,4.7979797979797985 -4.494949494949496,4.696969696969697 -4.393939393939394,4.595959595959597 -4.292929292929293,4.494949494949497 -4.191919191919193,4.393939393939394 -4.090909090909091,4.292929292929293 -3.98989898989899,4.191919191919193 -3.8888888888888884,4.090909090909092 -3.7878787878787876,3.989898989898992 -3.6868686868686864,3.8888888888888893 -3.5858585858585856,3.7878787878787885 -3.484848484848485,3.6868686868686877 -3.383838383838383,3.5858585858585874 -3.2828282828282824,3.4848484848484866 -3.1818181818181817,3.383838383838384 -3.0808080808080804,3.2828282828282833 -2.9797979797979792,3.181818181818183 -2.8787878787878785,3.080808080808082 -2.7777777777777777,2.9797979797979806 -2.6767676767676765,2.87878787878788 -2.5757575757575752,2.7777777777777786 -2.474747474747474,2.676767676767678 -2.3737373737373733,2.575757575757577 -2.2727272727272725,2.4747474747474754 -2.1717171717171713,2.4747474747474754" data-type="line" data-label="" points="59.07070707070716,40.000000000000114 68.60606060606068,49.53535353535369 78.14141414141426,59.07070707070733 87.67676767676772,68.60606060606085 97.21212121212136,78.14141414141432 106.74747474747483,87.67676767676778 116.28282828282829,97.21212121212153 125.81818181818193,106.747474747475 135.35353535353545,116.28282828282846 144.88888888888903,125.81818181818198 154.42424242424255,135.35353535353545 163.95959595959607,144.88888888888908 173.4949494949496,154.4242424242426 183.03030303030312,163.95959595959613 192.5656565656567,173.4949494949496 202.10101010101022,183.03030303030312 211.63636363636374,192.56565656565675 221.17171717171726,202.10101010101027 230.70707070707084,211.63636363636374 240.2424242424243,221.17171717171726 249.77777777777783,230.70707070707084 259.3131313131314,240.24242424242436 268.84848484848493,249.77777777777794 278.38383838383845,259.3131313131314 287.91919191919203,268.84848484848493 297.4545454545455,278.38383838383857 306.9898989898991,278.38383838383857" fill="none" stroke="rgba(255,0,0,0.75)" stroke-width="11.327999999999996"/></g><g><polyline data-points="-2.1717171717171713,2.4747474747474754 -2.07070707070707,2.373737373737375 -1.9696969696969693,2.2727272727272734 -1.8686868686868683,2.1717171717171726 -1.7676767676767675,2.070707070707072 -1.6666666666666665,1.9696969696969702 -1.5656565656565653,1.8686868686868696 -1.4646464646464643,1.767676767676768 -1.4646464646464643,1.6666666666666674 -1.4646464646464643,1.5656565656565666 -1.4646464646464643,1.4646464646464652 -1.4646464646464643,1.3636363636363644 -1.4646464646464643,1.262626262626263 -1.4646464646464643,1.1616161616161622 -1.4646464646464643,1.0606060606060617 -1.4646464646464643,0.9595959595959602 -1.4646464646464643,0.8585858585858596 -1.4646464646464643,0.7575757575757579 -1.4646464646464643,0.6565656565656574 -1.4646464646464643,0.5555555555555567 -1.4646464646464643,0.4545454545454551 -1.4646464646464643,0.3535353535353544 -1.4646464646464643,0.2525252525252529 -1.4646464646464643,0.1515151515151522 -1.4646464646464643,0.050505050505051545 -1.4646464646464643,-0.05050505050505001 -1.4646464646464643,-0.15151515151515066 -1.4646464646464643,-0.2525252525252522 -1.4646464646464643,-0.35353535353535287 -1.4646464646464643,-0.4545454545454544 -1.4646464646464643,-0.555555555555555 -1.4646464646464643,-0.6565656565656557 -1.4646464646464643,-0.7575757575757572 -1.4646464646464643,-0.8585858585858579 -1.4646464646464643,-0.9595959595959596 -1.4646464646464643,-1.0606060606060603 -1.4646464646464643,-1.1616161616161613 -1.4646464646464643,-1.2626262626262625 -1.4646464646464643,-1.363636363636363 -1.4646464646464643,-1.4646464646464643 -1.4646464646464643,-1.5656565656565653 -1.4646464646464643,-1.6666666666666665 -1.4646464646464643,-1.7676767676767675 -1.4646464646464643,-1.8686868686868683 -1.4646464646464643,-1.9696969696969693 -1.4646464646464643,-2.07070707070707 -1.4646464646464643,-2.1717171717171713 -1.4646464646464643,-2.2727272727272725 -1.4646464646464643,-2.3737373737373733 -1.4646464646464643,-2.474747474747474 -1.4646464646464643,-2.5757575757575752 -1.4646464646464643,-2.6767676767676765 -1.4646464646464643,-2.7777777777777777 -1.4646464646464643,-2.8787878787878785 -1.4646464646464643,-2.9797979797979792 -1.4646464646464643,-3.0808080808080804 -1.4646464646464643,-3.1818181818181817 -1.4646464646464643,-3.2828282828282824 -1.4646464646464643,-3.383838383838383 -1.4646464646464643,-3.484848484848485 -1.4646464646464643,-3.5858585858585856 -1.4646464646464643,-3.6868686868686864 -1.4646464646464643,-3.7878787878787876 -1.4646464646464643,-3.8888888888888884 -1.4646464646464643,-3.98989898989899 -1.4646464646464643,-4.090909090909091 -1.4646464646464643,-4.191919191919193 -1.4646464646464643,-4.292929292929293 -1.4646464646464643,-4.393939393939394 -1.4646464646464643,-4.494949494949496 -1.4646464646464643,-4.595959595959596 -1.4646464646464643,-4.696969696969697 -1.4646464646464643,-4.7979797979797985 -1.4646464646464643,-4.898989898989899 -1.4646464646464643,-5.000000000000001" data-type="line" data-label="" points="306.9898989898991,278.38383838383857 316.5252525252526,287.91919191919203 326.0606060606061,297.4545454545456 335.59595959595964,306.9898989898991 345.13131313131316,316.5252525252526 354.6666666666667,326.06060606060623 364.2020202020202,335.5959595959597 373.7373737373738,345.1313131313133 373.7373737373738,354.66666666666674 373.7373737373738,364.2020202020203 373.7373737373738,373.73737373737384 373.7373737373738,383.27272727272737 373.7373737373738,392.80808080808094 373.7373737373738,402.3434343434344 373.7373737373738,411.87878787878793 373.7373737373738,421.4141414141415 373.7373737373738,430.94949494949503 373.7373737373738,440.4848484848486 373.7373737373738,450.0202020202021 373.7373737373738,459.5555555555556 373.7373737373738,469.0909090909092 373.7373737373738,478.6262626262627 373.7373737373738,488.1616161616163 373.7373737373738,497.69696969696975 373.7373737373738,507.23232323232327 373.7373737373738,516.7676767676768 373.7373737373738,526.3030303030304 373.7373737373738,535.838383838384 373.7373737373738,545.3737373737374 373.7373737373738,554.909090909091 373.7373737373738,564.4444444444445 373.7373737373738,573.979797979798 373.7373737373738,583.5151515151516 373.7373737373738,593.0505050505051 373.7373737373738,602.5858585858587 373.7373737373738,612.1212121212121 373.7373737373738,621.6565656565657 373.7373737373738,631.1919191919193 373.7373737373738,640.7272727272727 373.7373737373738,650.2626262626263 373.7373737373738,659.7979797979798 373.7373737373738,669.3333333333334 373.7373737373738,678.8686868686868 373.7373737373738,688.4040404040404 373.7373737373738,697.939393939394 373.7373737373738,707.4747474747475 373.7373737373738,717.010101010101 373.7373737373738,726.5454545454545 373.7373737373738,736.0808080808081 373.7373737373738,745.6161616161615 373.7373737373738,755.1515151515151 373.7373737373738,764.6868686868687 373.7373737373738,774.2222222222222 373.7373737373738,783.7575757575758 373.7373737373738,793.2929292929292 373.7373737373738,802.8282828282828 373.7373737373738,812.3636363636363 373.7373737373738,821.8989898989898 373.7373737373738,831.4343434343434 373.7373737373738,840.969696969697 373.7373737373738,850.5050505050505 373.7373737373738,860.0404040404039 373.7373737373738,869.5757575757575 373.7373737373738,879.1111111111111 373.7373737373738,888.6464646464647 373.7373737373738,898.1818181818181 373.7373737373738,907.7171717171718 373.7373737373738,917.2525252525252 373.7373737373738,926.7878787878788 373.7373737373738,936.3232323232323 373.7373737373738,945.8585858585858 373.7373737373738,955.3939393939394 373.7373737373738,964.9292929292928 373.7373737373738,974.4646464646464 373.7373737373738,984" fill="none" stroke="rgba(0,0,255,0.75)" stroke-width="11.327999999999996"/></g><g><polyline data-points="-2.1717171717171713,-5.000000000000001 -2.07070707070707,-4.898989898989899 -1.9696969696969693,-4.7979797979797985 -1.8686868686868683,-4.696969696969697 -1.8686868686868683,-4.595959595959596 -1.9696969696969693,-4.494949494949496 -2.07070707070707,-4.393939393939394 -2.1717171717171713,-4.292929292929293 -2.2727272727272725,-4.191919191919193 -2.3737373737373733,-4.090909090909091 -2.474747474747474,-3.98989898989899 -2.5757575757575752,-3.8888888888888884 -2.6767676767676765,-3.7878787878787876 -2.7777777777777777,-3.6868686868686864 -2.8787878787878785,-3.5858585858585856 -2.9797979797979792,-3.484848484848485 -3.0808080808080804,-3.383838383838383 -3.1818181818181817,-3.2828282828282824 -3.2828282828282824,-3.1818181818181817 -3.383838383838383,-3.0808080808080804 -3.383838383838383,-2.9797979797979792 -3.383838383838383,-2.8787878787878785 -3.383838383838383,-2.7777777777777777 -3.383838383838383,-2.6767676767676765 -3.383838383838383,-2.5757575757575752 -3.383838383838383,-2.474747474747474 -3.383838383838383,-2.3737373737373733 -3.383838383838383,-2.2727272727272725 -3.383838383838383,-2.1717171717171713 -3.383838383838383,-2.07070707070707 -3.383838383838383,-1.9696969696969693 -3.383838383838383,-1.8686868686868683 -3.383838383838383,-1.7676767676767675 -3.383838383838383,-1.6666666666666665 -3.383838383838383,-1.5656565656565653 -3.383838383838383,-1.4646464646464643 -3.383838383838383,-1.363636363636363 -3.383838383838383,-1.2626262626262625 -3.383838383838383,-1.1616161616161613 -3.383838383838383,-1.0606060606060603 -3.383838383838383,-0.9595959595959596 -3.383838383838383,-0.8585858585858579 -3.383838383838383,-0.7575757575757572 -3.383838383838383,-0.6565656565656557 -3.383838383838383,-0.555555555555555 -3.383838383838383,-0.4545454545454544 -3.383838383838383,-0.35353535353535287 -3.383838383838383,-0.2525252525252522 -3.383838383838383,-0.15151515151515066 -3.383838383838383,-0.05050505050505001 -3.383838383838383,0.050505050505051545 -3.383838383838383,0.1515151515151522 -3.383838383838383,0.2525252525252529 -3.383838383838383,0.3535353535353544 -3.383838383838383,0.4545454545454551 -3.383838383838383,0.5555555555555567 -3.383838383838383,0.6565656565656574 -3.383838383838383,0.7575757575757579 -3.383838383838383,0.8585858585858596 -3.383838383838383,0.9595959595959602 -3.383838383838383,1.0606060606060617 -3.383838383838383,1.1616161616161622 -3.383838383838383,1.262626262626263 -3.383838383838383,1.3636363636363644 -3.383838383838383,1.4646464646464652 -3.383838383838383,1.5656565656565666 -3.383838383838383,1.6666666666666674 -3.383838383838383,1.767676767676768 -3.383838383838383,1.8686868686868696 -3.383838383838383,1.9696969696969702 -3.383838383838383,2.070707070707072 -3.383838383838383,2.1717171717171726 -3.383838383838383,2.2727272727272734 -3.383838383838383,2.373737373737375 -3.383838383838383,2.4747474747474754 -3.383838383838383,2.575757575757577 -3.383838383838383,2.676767676767678 -3.383838383838383,2.7777777777777786 -3.383838383838383,2.87878787878788 -3.383838383838383,2.9797979797979806 -3.383838383838383,3.080808080808082 -3.383838383838383,3.181818181818183 -3.383838383838383,3.2828282828282833 -3.383838383838383,3.383838383838384 -3.383838383838383,3.4848484848484866 -3.383838383838383,3.5858585858585874 -3.383838383838383,3.6868686868686877 -3.383838383838383,3.7878787878787885 -3.383838383838383,3.8888888888888893 -3.383838383838383,3.989898989898992 -3.484848484848485,4.090909090909092 -3.5858585858585856,4.191919191919193 -3.6868686868686864,4.292929292929293 -3.7878787878787876,4.393939393939394 -3.8888888888888884,4.494949494949497 -3.98989898989899,4.595959595959597 -4.090909090909091,4.696969696969697 -4.191919191919193,4.7979797979797985 -4.292929292929293,4.898989898989901 -4.393939393939394,5.000000000000002 -4.494949494949496,5.000000000000002 -4.595959595959596,4.898989898989901 -4.696969696969697,5.000000000000002 -4.7979797979797985,5.000000000000002" data-type="line" data-label="" points="306.9898989898991,984 316.5252525252526,974.4646464646464 326.0606060606061,964.9292929292928 335.59595959595964,955.3939393939394 335.59595959595964,945.8585858585858 326.0606060606061,936.3232323232323 316.5252525252526,926.7878787878788 306.9898989898991,917.2525252525252 297.4545454545455,907.7171717171718 287.91919191919203,898.1818181818181 278.38383838383845,888.6464646464647 268.84848484848493,879.1111111111111 259.3131313131314,869.5757575757575 249.77777777777783,860.0404040404039 240.2424242424243,850.5050505050505 230.70707070707084,840.969696969697 221.17171717171726,831.4343434343434 211.63636363636374,821.8989898989898 202.10101010101022,812.3636363636363 192.5656565656567,802.8282828282828 192.5656565656567,793.2929292929292 192.5656565656567,783.7575757575758 192.5656565656567,774.2222222222222 192.5656565656567,764.6868686868687 192.5656565656567,755.1515151515151 192.5656565656567,745.6161616161615 192.5656565656567,736.0808080808081 192.5656565656567,726.5454545454545 192.5656565656567,717.010101010101 192.5656565656567,707.4747474747475 192.5656565656567,697.939393939394 192.5656565656567,688.4040404040404 192.5656565656567,678.8686868686868 192.5656565656567,669.3333333333334 192.5656565656567,659.7979797979798 192.5656565656567,650.2626262626263 192.5656565656567,640.7272727272727 192.5656565656567,631.1919191919193 192.5656565656567,621.6565656565657 192.5656565656567,612.1212121212121 192.5656565656567,602.5858585858587 192.5656565656567,593.0505050505051 192.5656565656567,583.5151515151516 192.5656565656567,573.979797979798 192.5656565656567,564.4444444444445 192.5656565656567,554.909090909091 192.5656565656567,545.3737373737374 192.5656565656567,535.838383838384 192.5656565656567,526.3030303030304 192.5656565656567,516.7676767676768 192.5656565656567,507.23232323232327 192.5656565656567,497.69696969696975 192.5656565656567,488.1616161616163 192.5656565656567,478.6262626262627 192.5656565656567,469.0909090909092 192.5656565656567,459.5555555555556 192.5656565656567,450.0202020202021 192.5656565656567,440.4848484848486 192.5656565656567,430.94949494949503 192.5656565656567,421.4141414141415 192.5656565656567,411.87878787878793 192.5656565656567,402.3434343434344 192.5656565656567,392.80808080808094 192.5656565656567,383.27272727272737 192.5656565656567,373.73737373737384 192.5656565656567,364.2020202020203 192.5656565656567,354.66666666666674 192.5656565656567,345.1313131313133 192.5656565656567,335.5959595959597 192.5656565656567,326.06060606060623 192.5656565656567,316.5252525252526 192.5656565656567,306.9898989898991 192.5656565656567,297.4545454545456 192.5656565656567,287.91919191919203 192.5656565656567,278.38383838383857 192.5656565656567,268.84848484848493 192.5656565656567,259.3131313131314 192.5656565656567,249.77777777777794 192.5656565656567,240.24242424242436 192.5656565656567,230.70707070707084 192.5656565656567,221.17171717171726 192.5656565656567,211.63636363636374 192.5656565656567,202.10101010101027 192.5656565656567,192.56565656565675 192.5656565656567,183.03030303030312 192.5656565656567,173.4949494949496 192.5656565656567,163.95959595959613 192.5656565656567,154.4242424242426 192.5656565656567,144.88888888888908 192.5656565656567,135.35353535353545 183.03030303030312,125.81818181818198 173.4949494949496,116.28282828282846 163.95959595959607,106.747474747475 154.42424242424255,97.21212121212153 144.88888888888903,87.67676767676778 135.35353535353545,78.14141414141432 125.81818181818193,68.60606060606085 116.28282828282829,59.07070707070733 106.74747474747483,49.53535353535369 97.21212121212136,40.000000000000114 87.67676767676772,40.000000000000114 78.14141414141426,49.53535353535369 68.60606060606068,40.000000000000114 59.07070707070716,40.000000000000114" fill="none" stroke="rgba(0,0,255,0.75)" stroke-width="11.327999999999996"/></g><g><polyline data-points="-4.898989898989899,5.000000000000002 -5.000000000000001,4.898989898989901 -5.000000000000001,4.7979797979797985 -5.000000000000001,4.696969696969697 -5.000000000000001,4.595959595959597 -5.000000000000001,4.494949494949497 -5.000000000000001,4.393939393939394 -5.000000000000001,4.292929292929293 -4.898989898989899,4.191919191919193 -4.7979797979797985,4.191919191919193 -4.696969696969697,4.090909090909092 -4.595959595959596,3.989898989898992 -4.494949494949496,3.8888888888888893 -4.393939393939394,3.7878787878787885 -4.292929292929293,3.8888888888888893 -4.191919191919193,3.8888888888888893 -4.090909090909091,3.7878787878787885 -3.98989898989899,3.6868686868686877" data-type="line" data-label="" points="49.53535353535369,40.000000000000114 40.00000000000006,49.53535353535369 40.00000000000006,59.07070707070733 40.00000000000006,68.60606060606085 40.00000000000006,78.14141414141432 40.00000000000006,87.67676767676778 40.00000000000006,97.21212121212153 40.00000000000006,106.747474747475 49.53535353535369,116.28282828282846 59.07070707070716,116.28282828282846 68.60606060606068,125.81818181818198 78.14141414141426,135.35353535353545 87.67676767676772,144.88888888888908 97.21212121212136,154.4242424242426 106.74747474747483,144.88888888888908 116.28282828282829,144.88888888888908 125.81818181818193,154.4242424242426 135.35353535353545,163.95959595959613" fill="none" stroke="rgba(0,0,255,0.75)" stroke-width="11.327999999999996"/></g><g><polyline data-points="-3.98989898989899,3.6868686868686877 -3.8888888888888884,3.5858585858585874 -3.7878787878787876,3.4848484848484866 -3.6868686868686864,3.383838383838384 -3.5858585858585856,3.2828282828282833 -3.484848484848485,3.181818181818183 -3.383838383838383,3.080808080808082 -3.2828282828282824,2.9797979797979806 -3.1818181818181817,2.87878787878788 -3.0808080808080804,2.7777777777777786 -2.9797979797979792,2.676767676767678" data-type="line" data-label="" points="135.35353535353545,163.95959595959613 144.88888888888903,173.4949494949496 154.42424242424255,183.03030303030312 163.95959595959607,192.56565656565675 173.4949494949496,202.10101010101027 183.03030303030312,211.63636363636374 192.5656565656567,221.17171717171726 202.10101010101022,230.70707070707084 211.63636363636374,240.24242424242436 221.17171717171726,249.77777777777794 230.70707070707084,259.3131313131314" fill="none" stroke="rgba(255,0,0,0.75)" stroke-width="11.327999999999996"/></g><g><polyline data-points="-2.9797979797979792,2.676767676767678 -2.8787878787878785,2.7777777777777786 -2.7777777777777777,2.87878787878788 -2.6767676767676765,2.9797979797979806 -2.5757575757575752,3.080808080808082 -2.474747474747474,3.181818181818183 -2.3737373737373733,3.2828282828282833 -2.2727272727272725,3.383838383838384 -2.1717171717171713,3.4848484848484866 -2.07070707070707,3.5858585858585874 -1.9696969696969693,3.6868686868686877 -1.8686868686868683,3.7878787878787885 -1.7676767676767675,3.8888888888888893 -1.6666666666666665,3.989898989898992 -1.5656565656565653,3.989898989898992 -1.4646464646464643,3.989898989898992 -1.363636363636363,3.989898989898992 -1.2626262626262625,3.989898989898992 -1.1616161616161613,3.989898989898992 -1.0606060606060603,3.989898989898992 -0.9595959595959596,3.989898989898992 -0.8585858585858579,3.989898989898992 -0.7575757575757572,3.989898989898992 -0.6565656565656557,4.090909090909092 -0.555555555555555,4.191919191919193 -0.4545454545454544,4.292929292929293 -0.35353535353535287,4.393939393939394 -0.2525252525252522,4.494949494949497 -0.35353535353535287,4.595959595959597 -0.4545454545454544,4.696969696969697 -0.555555555555555,4.7979797979797985 -0.6565656565656557,4.898989898989901 -0.6565656565656557,5.000000000000002" data-type="line" data-label="" points="230.70707070707084,259.3131313131314 240.2424242424243,249.77777777777794 249.77777777777783,240.24242424242436 259.3131313131314,230.70707070707084 268.84848484848493,221.17171717171726 278.38383838383845,211.63636363636374 287.91919191919203,202.10101010101027 297.4545454545455,192.56565656565675 306.9898989898991,183.03030303030312 316.5252525252526,173.4949494949496 326.0606060606061,163.95959595959613 335.59595959595964,154.4242424242426 345.13131313131316,144.88888888888908 354.6666666666667,135.35353535353545 364.2020202020202,135.35353535353545 373.7373737373738,135.35353535353545 383.2727272727273,135.35353535353545 392.80808080808083,135.35353535353545 402.34343434343435,135.35353535353545 411.8787878787879,135.35353535353545 421.4141414141414,135.35353535353545 430.949494949495,135.35353535353545 440.4848484848485,135.35353535353545 450.0202020202021,125.81818181818198 459.55555555555554,116.28282828282846 469.09090909090907,106.747474747475 478.62626262626264,97.21212121212153 488.16161616161617,87.67676767676778 478.62626262626264,78.14141414141432 469.09090909090907,68.60606060606085 459.55555555555554,59.07070707070733 450.0202020202021,49.53535353535369 450.0202020202021,40.000000000000114" fill="none" stroke="rgba(0,0,255,0.75)" stroke-width="11.327999999999996"/></g><g><rect data-type="rect" data-label="" data-x="0" data-y="0" x="40.000000000000114" y="40.000000000000284" width="943.9999999999997" height="943.9999999999998" fill="none" stroke="gray" stroke-width="0.010593220338983056"/></g><g><rect data-type="rect" data-label="" data-x="0" data-y="0" x="40.000000000000114" y="40.000000000000284" width="943.9999999999997" height="943.9999999999998" fill="none" stroke="rgba(15, 23, 42, 0.8)" stroke-width="0.010593220338983056"/></g><circle data-type="circle" data-label="" data-x="-3.6868686868686864" data-y="-3.98989898989899" cx="163.95959595959607" cy="888.6464646464647" r="14.159999999999995" fill="rgba(0,0,0,0.3)" stroke="black" stroke-width="0.010593220338983056"/><circle data-type="circle" data-label="" data-x="-0.9595959595959596" data-y="-3.98989898989899" cx="421.4141414141414" cy="888.6464646464647" r="14.159999999999995" fill="rgba(0,0,0,0.3)" stroke="black" stroke-width="0.010593220338983056"/><circle data-type="circle" data-label="" data-x="-2.1717171717171713" data-y="2.4747474747474754" cx="306.9898989898991" cy="278.38383838383857" r="14.159999999999995" fill="rgba(0,0,0,0.3)" stroke="black" stroke-width="0.010593220338983056"/><circle data-type="circle" data-label="" data-x="-3.98989898989899" data-y="3.6868686868686877" cx="135.35353535353545" cy="163.95959595959613" r="14.159999999999995" fill="rgba(0,0,0,0.3)" stroke="black" stroke-width="0.010593220338983056"/><circle data-type="circle" data-label="" data-x="-2.9797979797979792" data-y="2.676767676767678" cx="230.70707070707084" cy="259.3131313131314" r="14.159999999999995" fill="rgba(0,0,0,0.3)" stroke="black" stroke-width="0.010593220338983056"/><g id="crosshair" style="display: none"><line id="crosshair-h" y1="0" y2="1024" stroke="#666" stroke-width="0.5"/><line id="crosshair-v" x1="0" x2="1024" stroke="#666" stroke-width="0.5"/><text id="coordinates" font-family="monospace" font-size="12" fill="#666"></text></g><script><![CDATA[
              document.currentScript.parentElement.addEventListener('mousemove', (e) => {
                const svg = e.currentTarget;
                const rect = svg.getBoundingClientRect();
                const x = e.clientX - rect.left;
                const y = e.clientY - rect.top;
                const crosshair = svg.getElementById('crosshair');
                const h = svg.getElementById('crosshair-h');
                const v = svg.getElementById('crosshair-v');
                const coords = svg.getElementById('coordinates');
                
                crosshair.style.display = 'block';
                h.setAttribute('x1', '0');
                h.setAttribute('x2', '1024');
                h.setAttribute('y1', y);
                h.setAttribute('y2', y);
                v.setAttribute('x1', x);
                v.setAttribute('x2', x);
                v.setAttribute('y1', '0');
                v.setAttribute('y2', '1024');

                // Calculate real coordinates using inverse transformation
                const matrix = {"a":94.39999999999996,"c":0,"e":511.99999999999994,"b":0,"d":-94.39999999999996,"f":512.0000000000001};
                // Manually invert and apply the affine transform
                // Since we only use translate and scale, we can directly compute:
                // x' = (x - tx) / sx
                // y' = (y - ty) / sy
                const sx = matrix.a;
                const sy = matrix.d;
                const tx = matrix.e; 
                const ty = matrix.f;
                const realPoint = {
                  x: (x - tx) / sx,
                  y: (y - ty) / sy // Flip y back since we used negative scale
                }
                
                coords.textContent = `(${realPoint.x.toFixed(2)}, ${realPoint.y.toFixed(2)})`;
                coords.setAttribute('x', (x + 5).toString());
                coords.setAttribute('y', (y - 5).toString());
              });
              document.currentScript.parentElement.addEventListener('mouseleave', () => {
                document.currentScript.parentElement.getElementById('crosshair').style.display = 'none';
              });
            ]]></script></svg>