<svg width="1024" height="1024" viewBox="0 0 1024 1024" xmlns="http://www.w3.org/2000/svg"><rect width="100%" height="100%" fill="white"/><g><circle data-type="point" data-label="conn_000" data-x="5" data-y="0.36" cx="983.9999999999998" cy="478.01600000000013" r="14.16" fill="red"/></g><g><circle data-type="point" data-label="conn_000" data-x="-5" data-y="2.58" cx="40.000000000000114" cy="268.4480000000002" r="14.16" fill="red"/></g><g><circle data-type="point" data-label="conn_001" data-x="2.24" data-y="5" cx="723.4559999999999" cy="40.000000000000284" r="14.16" fill="red"/></g><g><circle data-type="point" data-label="conn_001" data-x="1.96" data-y="-5" cx="697.0239999999999" cy="984" r="14.16" fill="blue"/></g><g><circle data-type="point" data-label="conn_002" data-x="-5" data-y="-0.24" cx="40.000000000000114" cy="534.6560000000001" r="14.16" fill="blue"/></g><g><circle data-type="point" data-label="conn_002" data-x="5" data-y="3.66" cx="983.9999999999998" cy="166.4960000000002" r="14.16" fill="red"/></g><g><polyline data-points="-5.000000000000001,-0.2525252525252522 -4.898989898989899,-0.15151515151515066 -4.7979797979797985,-0.05050505050505001 -4.696969696969697,0.050505050505051545 -4.595959595959596,0.1515151515151522 -4.494949494949496,0.2525252525252529 -4.393939393939394,0.3535353535353544 -4.292929292929293,0.4545454545454551 -4.191919191919193,0.5555555555555567 -4.090909090909091,0.6565656565656574 -3.98989898989899,0.7575757575757579 -3.8888888888888884,0.8585858585858596 -3.7878787878787876,0.9595959595959602 -3.6868686868686864,1.0606060606060617 -3.5858585858585856,1.1616161616161622 -3.484848484848485,1.262626262626263 -3.383838383838383,1.3636363636363644 -3.2828282828282824,1.4646464646464652 -3.1818181818181817,1.5656565656565666 -3.0808080808080804,1.6666666666666674 -2.9797979797979792,1.767676767676768 -2.8787878787878785,1.8686868686868696 -2.7777777777777777,1.9696969696969702 -2.6767676767676765,2.070707070707072 -2.5757575757575752,2.1717171717171726 -2.474747474747474,2.2727272727272734 -2.3737373737373733,2.373737373737375 -2.2727272727272725,2.4747474747474754 -2.1717171717171713,2.575757575757577 -2.07070707070707,2.676767676767678 -1.9696969696969693,2.7777777777777786 -1.8686868686868683,2.87878787878788 -1.7676767676767675,2.9797979797979806 -1.6666666666666665,3.080808080808082 -1.5656565656565653,3.181818181818183 -1.4646464646464643,3.2828282828282833 -1.363636363636363,3.383838383838384 -1.2626262626262625,3.4848484848484866 -1.1616161616161613,3.5858585858585874 -1.0606060606060603,3.6868686868686877 -0.9595959595959596,3.6868686868686877 -0.8585858585858579,3.6868686868686877 -0.7575757575757572,3.6868686868686877 -0.6565656565656557,3.6868686868686877 -0.555555555555555,3.6868686868686877 -0.4545454545454544,3.6868686868686877 -0.35353535353535287,3.6868686868686877 -0.2525252525252522,3.6868686868686877 -0.15151515151515066,3.6868686868686877 -0.05050505050505001,3.6868686868686877 0.050505050505051545,3.6868686868686877 0.1515151515151522,3.6868686868686877 0.2525252525252529,3.6868686868686877 0.3535353535353544,3.6868686868686877 0.4545454545454551,3.6868686868686877 0.5555555555555567,3.6868686868686877 0.6565656565656574,3.6868686868686877 0.7575757575757579,3.6868686868686877 0.8585858585858596,3.6868686868686877 0.9595959595959602,3.6868686868686877 1.0606060606060617,3.6868686868686877 1.1616161616161622,3.6868686868686877 1.262626262626263,3.6868686868686877 1.3636363636363644,3.6868686868686877 1.4646464646464652,3.6868686868686877 1.5656565656565666,3.6868686868686877 1.6666666666666674,3.6868686868686877 1.767676767676768,3.6868686868686877 1.8686868686868696,3.6868686868686877 1.9696969696969702,3.6868686868686877 2.070707070707072,3.6868686868686877 2.1717171717171726,3.6868686868686877 2.2727272727272734,3.6868686868686877 2.373737373737375,3.6868686868686877 2.4747474747474754,3.6868686868686877 2.575757575757577,3.6868686868686877 2.676767676767678,3.6868686868686877 2.7777777777777786,3.6868686868686877 2.87878787878788,3.6868686868686877 2.9797979797979806,3.6868686868686877 3.080808080808082,3.6868686868686877 3.181818181818183,3.6868686868686877 3.2828282828282833,3.6868686868686877 3.383838383838384,3.6868686868686877 3.4848484848484866,3.6868686868686877 3.5858585858585874,3.6868686868686877 3.6868686868686877,3.6868686868686877 3.7878787878787885,3.6868686868686877 3.8888888888888893,3.6868686868686877 3.989898989898992,3.6868686868686877" data-type="line" data-label="" points="40.00000000000006,535.838383838384 49.53535353535369,526.3030303030304 59.07070707070716,516.7676767676768 68.60606060606068,507.23232323232327 78.14141414141426,497.69696969696975 87.67676767676772,488.1616161616163 97.21212121212136,478.6262626262627 106.74747474747483,469.0909090909092 116.28282828282829,459.5555555555556 125.81818181818193,450.0202020202021 135.35353535353545,440.4848484848486 144.88888888888903,430.94949494949503 154.42424242424255,421.4141414141415 163.95959595959607,411.87878787878793 173.4949494949496,402.3434343434344 183.03030303030312,392.80808080808094 192.5656565656567,383.27272727272737 202.10101010101022,373.73737373737384 211.63636363636374,364.2020202020203 221.17171717171726,354.66666666666674 230.70707070707084,345.1313131313133 240.2424242424243,335.5959595959597 249.77777777777783,326.06060606060623 259.3131313131314,316.5252525252526 268.84848484848493,306.9898989898991 278.38383838383845,297.4545454545456 287.91919191919203,287.91919191919203 297.4545454545455,278.38383838383857 306.9898989898991,268.84848484848493 316.5252525252526,259.3131313131314 326.0606060606061,249.77777777777794 335.59595959595964,240.24242424242436 345.13131313131316,230.70707070707084 354.6666666666667,221.17171717171726 364.2020202020202,211.63636363636374 373.7373737373738,202.10101010101027 383.2727272727273,192.56565656565675 392.80808080808083,183.03030303030312 402.34343434343435,173.4949494949496 411.8787878787879,163.95959595959613 421.4141414141414,163.95959595959613 430.949494949495,163.95959595959613 440.4848484848485,163.95959595959613 450.0202020202021,163.95959595959613 459.55555555555554,163.95959595959613 469.09090909090907,163.95959595959613 478.62626262626264,163.95959595959613 488.16161616161617,163.95959595959613 497.69696969696975,163.95959595959613 507.2323232323232,163.95959595959613 516.7676767676768,163.95959595959613 526.3030303030303,163.95959595959613 535.8383838383838,163.95959595959613 545.3737373737374,163.95959595959613 554.9090909090909,163.95959595959613 564.4444444444445,163.95959595959613 573.9797979797979,163.95959595959613 583.5151515151515,163.95959595959613 593.0505050505051,163.95959595959613 602.5858585858585,163.95959595959613 612.1212121212121,163.95959595959613 621.6565656565656,163.95959595959613 631.1919191919192,163.95959595959613 640.7272727272727,163.95959595959613 650.2626262626262,163.95959595959613 659.7979797979798,163.95959595959613 669.3333333333333,163.95959595959613 678.8686868686868,163.95959595959613 688.4040404040404,163.95959595959613 697.9393939393939,163.95959595959613 707.4747474747475,163.95959595959613 717.0101010101009,163.95959595959613 726.5454545454545,163.95959595959613 736.0808080808081,163.95959595959613 745.6161616161615,163.95959595959613 755.1515151515151,163.95959595959613 764.6868686868686,163.95959595959613 774.2222222222222,163.95959595959613 783.7575757575758,163.95959595959613 793.2929292929292,163.95959595959613 802.8282828282828,163.95959595959613 812.3636363636363,163.95959595959613 821.8989898989898,163.95959595959613 831.4343434343433,163.95959595959613 840.969696969697,163.95959595959613 850.5050505050505,163.95959595959613 860.0404040404039,163.95959595959613 869.5757575757575,163.95959595959613 879.111111111111,163.95959595959613 888.6464646464647,163.95959595959613" fill="none" stroke="rgba(0,0,255,0.75)" stroke-width="11.327999999999996"/></g><g><polyline data-points="3.989898989898992,3.6868686868686877 4.090909090909092,3.6868686868686877 4.191919191919193,3.6868686868686877 4.292929292929293,3.6868686868686877 4.393939393939394,3.6868686868686877 4.494949494949497,3.6868686868686877 4.595959595959597,3.6868686868686877 4.696969696969697,3.6868686868686877 4.7979797979797985,3.6868686868686877 4.898989898989901,3.6868686868686877 5.000000000000002,3.6868686868686877" data-type="line" data-label="" points="888.6464646464647,163.95959595959613 898.181818181818,163.95959595959613 907.7171717171716,163.95959595959613 917.2525252525251,163.95959595959613 926.7878787878785,163.95959595959613 936.3232323232323,163.95959595959613 945.8585858585857,163.95959595959613 955.3939393939393,163.95959595959613 964.9292929292927,163.95959595959613 974.4646464646464,163.95959595959613 984,163.95959595959613" fill="none" stroke="rgba(255,0,0,0.75)" stroke-width="11.327999999999996"/></g><g><polyline data-points="2.2727272727272734,5.000000000000002 2.1717171717171726,4.898989898989901 2.070707070707072,4.7979797979797985 1.9696969696969702,4.696969696969697 1.9696969696969702,4.595959595959597 1.9696969696969702,4.494949494949497 1.9696969696969702,4.393939393939394 1.9696969696969702,4.292929292929293 1.9696969696969702,4.191919191919193 1.9696969696969702,4.090909090909092 1.9696969696969702,3.989898989898992 1.9696969696969702,3.8888888888888893 1.9696969696969702,3.7878787878787885 1.9696969696969702,3.6868686868686877 1.9696969696969702,3.5858585858585874 1.9696969696969702,3.4848484848484866 1.9696969696969702,3.383838383838384 1.9696969696969702,3.2828282828282833 1.9696969696969702,3.181818181818183 1.9696969696969702,3.080808080808082 1.9696969696969702,2.9797979797979806 1.9696969696969702,2.87878787878788 1.9696969696969702,2.7777777777777786 1.9696969696969702,2.676767676767678 1.9696969696969702,2.575757575757577 1.9696969696969702,2.4747474747474754 1.9696969696969702,2.373737373737375 1.9696969696969702,2.2727272727272734 1.9696969696969702,2.1717171717171726 1.9696969696969702,2.070707070707072 1.9696969696969702,1.9696969696969702 1.9696969696969702,1.8686868686868696 1.9696969696969702,1.767676767676768 1.9696969696969702,1.6666666666666674 1.9696969696969702,1.5656565656565666 1.9696969696969702,1.4646464646464652 1.9696969696969702,1.3636363636363644 1.9696969696969702,1.262626262626263 1.9696969696969702,1.1616161616161622 1.9696969696969702,1.0606060606060617 1.9696969696969702,0.9595959595959602 1.9696969696969702,0.8585858585858596 1.9696969696969702,0.7575757575757579 1.9696969696969702,0.6565656565656574 1.9696969696969702,0.5555555555555567 1.9696969696969702,0.4545454545454551 1.9696969696969702,0.3535353535353544 1.9696969696969702,0.2525252525252529 1.9696969696969702,0.1515151515151522 1.9696969696969702,0.050505050505051545 1.9696969696969702,-0.05050505050505001 1.9696969696969702,-0.15151515151515066 1.9696969696969702,-0.2525252525252522 1.9696969696969702,-0.35353535353535287 1.9696969696969702,-0.4545454545454544 1.9696969696969702,-0.555555555555555 1.9696969696969702,-0.6565656565656557 1.9696969696969702,-0.7575757575757572 1.9696969696969702,-0.8585858585858579 1.9696969696969702,-0.9595959595959596 1.9696969696969702,-1.0606060606060603 1.9696969696969702,-1.1616161616161613 1.9696969696969702,-1.2626262626262625 1.9696969696969702,-1.363636363636363 1.9696969696969702,-1.4646464646464643 1.9696969696969702,-1.5656565656565653 1.9696969696969702,-1.6666666666666665 1.9696969696969702,-1.7676767676767675 1.9696969696969702,-1.8686868686868683 1.9696969696969702,-1.9696969696969693 1.9696969696969702,-2.07070707070707 1.9696969696969702,-2.1717171717171713 1.9696969696969702,-2.2727272727272725 1.9696969696969702,-2.3737373737373733 1.9696969696969702,-2.474747474747474 1.9696969696969702,-2.5757575757575752 1.9696969696969702,-2.6767676767676765 1.9696969696969702,-2.7777777777777777 1.9696969696969702,-2.8787878787878785 1.9696969696969702,-2.9797979797979792 1.9696969696969702,-3.0808080808080804 1.9696969696969702,-3.1818181818181817 1.9696969696969702,-3.2828282828282824 1.9696969696969702,-3.383838383838383 1.9696969696969702,-3.484848484848485 1.9696969696969702,-3.5858585858585856 1.9696969696969702,-3.6868686868686864 1.9696969696969702,-3.7878787878787876 1.9696969696969702,-3.8888888888888884 1.9696969696969702,-3.98989898989899" data-type="line" data-label="" points="726.5454545454545,40.000000000000114 717.0101010101009,49.53535353535369 707.4747474747475,59.07070707070733 697.9393939393939,68.60606060606085 697.9393939393939,78.14141414141432 697.9393939393939,87.67676767676778 697.9393939393939,97.21212121212153 697.9393939393939,106.747474747475 697.9393939393939,116.28282828282846 697.9393939393939,125.81818181818198 697.9393939393939,135.35353535353545 697.9393939393939,144.88888888888908 697.9393939393939,154.4242424242426 697.9393939393939,163.95959595959613 697.9393939393939,173.4949494949496 697.9393939393939,183.03030303030312 697.9393939393939,192.56565656565675 697.9393939393939,202.10101010101027 697.9393939393939,211.63636363636374 697.9393939393939,221.17171717171726 697.9393939393939,230.70707070707084 697.9393939393939,240.24242424242436 697.9393939393939,249.77777777777794 697.9393939393939,259.3131313131314 697.9393939393939,268.84848484848493 697.9393939393939,278.38383838383857 697.9393939393939,287.91919191919203 697.9393939393939,297.4545454545456 697.9393939393939,306.9898989898991 697.9393939393939,316.5252525252526 697.9393939393939,326.06060606060623 697.9393939393939,335.5959595959597 697.9393939393939,345.1313131313133 697.9393939393939,354.66666666666674 697.9393939393939,364.2020202020203 697.9393939393939,373.73737373737384 697.9393939393939,383.27272727272737 697.9393939393939,392.80808080808094 697.9393939393939,402.3434343434344 697.9393939393939,411.87878787878793 697.9393939393939,421.4141414141415 697.9393939393939,430.94949494949503 697.9393939393939,440.4848484848486 697.9393939393939,450.0202020202021 697.9393939393939,459.5555555555556 697.9393939393939,469.0909090909092 697.9393939393939,478.6262626262627 697.9393939393939,488.1616161616163 697.9393939393939,497.69696969696975 697.9393939393939,507.23232323232327 697.9393939393939,516.7676767676768 697.9393939393939,526.3030303030304 697.9393939393939,535.838383838384 697.9393939393939,545.3737373737374 697.9393939393939,554.909090909091 697.9393939393939,564.4444444444445 697.9393939393939,573.979797979798 697.9393939393939,583.5151515151516 697.9393939393939,593.0505050505051 697.9393939393939,602.5858585858587 697.9393939393939,612.1212121212121 697.9393939393939,621.6565656565657 697.9393939393939,631.1919191919193 697.9393939393939,640.7272727272727 697.9393939393939,650.2626262626263 697.9393939393939,659.7979797979798 697.9393939393939,669.3333333333334 697.9393939393939,678.8686868686868 697.9393939393939,688.4040404040404 697.9393939393939,697.939393939394 697.9393939393939,707.4747474747475 697.9393939393939,717.010101010101 697.9393939393939,726.5454545454545 697.9393939393939,736.0808080808081 697.9393939393939,745.6161616161615 697.9393939393939,755.1515151515151 697.9393939393939,764.6868686868687 697.9393939393939,774.2222222222222 697.9393939393939,783.7575757575758 697.9393939393939,793.2929292929292 697.9393939393939,802.8282828282828 697.9393939393939,812.3636363636363 697.9393939393939,821.8989898989898 697.9393939393939,831.4343434343434 697.9393939393939,840.969696969697 697.9393939393939,850.5050505050505 697.9393939393939,860.0404040404039 697.9393939393939,869.5757575757575 697.9393939393939,879.1111111111111 697.9393939393939,888.6464646464647" fill="none" stroke="rgba(255,0,0,0.75)" stroke-width="11.327999999999996"/></g><g><polyline data-points="1.9696969696969702,-3.98989898989899 1.9696969696969702,-4.090909090909091 1.9696969696969702,-4.191919191919193 1.9696969696969702,-4.292929292929293 1.9696969696969702,-4.393939393939394 1.9696969696969702,-4.494949494949496 1.9696969696969702,-4.595959595959596 1.9696969696969702,-4.696969696969697 1.9696969696969702,-4.7979797979797985 1.9696969696969702,-4.898989898989899 1.9696969696969702,-5.000000000000001" data-type="line" data-label="" points="697.9393939393939,888.6464646464647 697.9393939393939,898.1818181818181 697.9393939393939,907.7171717171718 697.9393939393939,917.2525252525252 697.9393939393939,926.7878787878788 697.9393939393939,936.3232323232323 697.9393939393939,945.8585858585858 697.9393939393939,955.3939393939394 697.9393939393939,964.9292929292928 697.9393939393939,974.4646464646464 697.9393939393939,984" fill="none" stroke="rgba(0,0,255,0.75)" stroke-width="11.327999999999996"/></g><g><polyline data-points="5.000000000000002,0.3535353535353544 4.898989898989901,0.4545454545454551 4.7979797979797985,0.5555555555555567 4.696969696969697,0.6565656565656574 4.595959595959597,0.7575757575757579 4.494949494949497,0.8585858585858596 4.393939393939394,0.9595959595959602 4.292929292929293,1.0606060606060617 4.191919191919193,1.1616161616161622 4.090909090909092,1.262626262626263 3.989898989898992,1.3636363636363644 3.8888888888888893,1.4646464646464652 3.7878787878787885,1.5656565656565666 3.6868686868686877,1.6666666666666674 3.5858585858585874,1.767676767676768 3.4848484848484866,1.8686868686868696 3.383838383838384,1.9696969696969702 3.2828282828282833,2.070707070707072 3.181818181818183,2.1717171717171726 3.080808080808082,2.2727272727272734 2.9797979797979806,2.373737373737375 2.87878787878788,2.4747474747474754 2.7777777777777786,2.575757575757577 2.676767676767678,2.575757575757577 2.575757575757577,2.575757575757577 2.4747474747474754,2.575757575757577 2.373737373737375,2.575757575757577" data-type="line" data-label="" points="984,478.6262626262627 974.4646464646464,469.0909090909092 964.9292929292927,459.5555555555556 955.3939393939393,450.0202020202021 945.8585858585857,440.4848484848486 936.3232323232323,430.94949494949503 926.7878787878785,421.4141414141415 917.2525252525251,411.87878787878793 907.7171717171716,402.3434343434344 898.181818181818,392.80808080808094 888.6464646464647,383.27272727272737 879.111111111111,373.73737373737384 869.5757575757575,364.2020202020203 860.0404040404039,354.66666666666674 850.5050505050505,345.1313131313133 840.969696969697,335.5959595959597 831.4343434343433,326.06060606060623 821.8989898989898,316.5252525252526 812.3636363636363,306.9898989898991 802.8282828282828,297.4545454545456 793.2929292929292,287.91919191919203 783.7575757575758,278.38383838383857 774.2222222222222,268.84848484848493 764.6868686868686,268.84848484848493 755.1515151515151,268.84848484848493 745.6161616161615,268.84848484848493 736.0808080808081,268.84848484848493" fill="none" stroke="rgba(255,0,0,0.75)" stroke-width="11.327999999999996"/></g><g><polyline data-points="2.373737373737375,2.575757575757577 2.2727272727272734,2.575757575757577 2.1717171717171726,2.575757575757577 2.070707070707072,2.575757575757577 1.9696969696969702,2.575757575757577 1.8686868686868696,2.575757575757577 1.767676767676768,2.575757575757577 1.6666666666666674,2.575757575757577 1.5656565656565666,2.575757575757577 1.4646464646464652,2.575757575757577 1.3636363636363644,2.575757575757577 1.262626262626263,2.575757575757577 1.1616161616161622,2.575757575757577 1.0606060606060617,2.575757575757577 0.9595959595959602,2.575757575757577 0.8585858585858596,2.575757575757577 0.7575757575757579,2.575757575757577 0.6565656565656574,2.575757575757577 0.5555555555555567,2.575757575757577 0.4545454545454551,2.575757575757577 0.3535353535353544,2.575757575757577 0.2525252525252529,2.575757575757577 0.1515151515151522,2.575757575757577 0.050505050505051545,2.575757575757577 -0.05050505050505001,2.575757575757577 -0.15151515151515066,2.575757575757577 -0.2525252525252522,2.575757575757577 -0.35353535353535287,2.575757575757577 -0.4545454545454544,2.575757575757577 -0.555555555555555,2.575757575757577 -0.6565656565656557,2.575757575757577 -0.7575757575757572,2.575757575757577 -0.8585858585858579,2.575757575757577 -0.9595959595959596,2.575757575757577 -1.0606060606060603,2.575757575757577 -1.1616161616161613,2.575757575757577 -1.2626262626262625,2.575757575757577 -1.363636363636363,2.575757575757577 -1.4646464646464643,2.575757575757577 -1.5656565656565653,2.575757575757577 -1.6666666666666665,2.575757575757577" data-type="line" data-label="" points="736.0808080808081,268.84848484848493 726.5454545454545,268.84848484848493 717.0101010101009,268.84848484848493 707.4747474747475,268.84848484848493 697.9393939393939,268.84848484848493 688.4040404040404,268.84848484848493 678.8686868686868,268.84848484848493 669.3333333333333,268.84848484848493 659.7979797979798,268.84848484848493 650.2626262626262,268.84848484848493 640.7272727272727,268.84848484848493 631.1919191919192,268.84848484848493 621.6565656565656,268.84848484848493 612.1212121212121,268.84848484848493 602.5858585858585,268.84848484848493 593.0505050505051,268.84848484848493 583.5151515151515,268.84848484848493 573.9797979797979,268.84848484848493 564.4444444444445,268.84848484848493 554.9090909090909,268.84848484848493 545.3737373737374,268.84848484848493 535.8383838383838,268.84848484848493 526.3030303030303,268.84848484848493 516.7676767676768,268.84848484848493 507.2323232323232,268.84848484848493 497.69696969696975,268.84848484848493 488.16161616161617,268.84848484848493 478.62626262626264,268.84848484848493 469.09090909090907,268.84848484848493 459.55555555555554,268.84848484848493 450.0202020202021,268.84848484848493 440.4848484848485,268.84848484848493 430.949494949495,268.84848484848493 421.4141414141414,268.84848484848493 411.8787878787879,268.84848484848493 402.34343434343435,268.84848484848493 392.80808080808083,268.84848484848493 383.2727272727273,268.84848484848493 373.7373737373738,268.84848484848493 364.2020202020202,268.84848484848493 354.6666666666667,268.84848484848493" fill="none" stroke="rgba(0,0,255,0.75)" stroke-width="11.327999999999996"/></g><g><polyline data-points="-1.6666666666666665,2.575757575757577 -1.7676767676767675,2.575757575757577 -1.8686868686868683,2.575757575757577 -1.9696969696969693,2.575757575757577 -2.07070707070707,2.575757575757577 -2.1717171717171713,2.575757575757577 -2.2727272727272725,2.575757575757577 -2.3737373737373733,2.575757575757577 -2.474747474747474,2.575757575757577 -2.5757575757575752,2.575757575757577 -2.6767676767676765,2.575757575757577 -2.7777777777777777,2.575757575757577 -2.8787878787878785,2.575757575757577 -2.9797979797979792,2.575757575757577 -3.0808080808080804,2.575757575757577 -3.1818181818181817,2.575757575757577 -3.2828282828282824,2.575757575757577 -3.383838383838383,2.575757575757577 -3.484848484848485,2.575757575757577 -3.5858585858585856,2.575757575757577 -3.6868686868686864,2.575757575757577 -3.7878787878787876,2.575757575757577 -3.8888888888888884,2.575757575757577 -3.98989898989899,2.575757575757577 -4.090909090909091,2.575757575757577 -4.191919191919193,2.575757575757577 -4.292929292929293,2.575757575757577 -4.393939393939394,2.575757575757577 -4.494949494949496,2.575757575757577 -4.595959595959596,2.575757575757577 -4.696969696969697,2.575757575757577 -4.7979797979797985,2.575757575757577 -4.898989898989899,2.575757575757577 -5.000000000000001,2.575757575757577" data-type="line" data-label="" points="354.6666666666667,268.84848484848493 345.13131313131316,268.84848484848493 335.59595959595964,268.84848484848493 326.0606060606061,268.84848484848493 316.5252525252526,268.84848484848493 306.9898989898991,268.84848484848493 297.4545454545455,268.84848484848493 287.91919191919203,268.84848484848493 278.38383838383845,268.84848484848493 268.84848484848493,268.84848484848493 259.3131313131314,268.84848484848493 249.77777777777783,268.84848484848493 240.2424242424243,268.84848484848493 230.70707070707084,268.84848484848493 221.17171717171726,268.84848484848493 211.63636363636374,268.84848484848493 202.10101010101022,268.84848484848493 192.5656565656567,268.84848484848493 183.03030303030312,268.84848484848493 173.4949494949496,268.84848484848493 163.95959595959607,268.84848484848493 154.42424242424255,268.84848484848493 144.88888888888903,268.84848484848493 135.35353535353545,268.84848484848493 125.81818181818193,268.84848484848493 116.28282828282829,268.84848484848493 106.74747474747483,268.84848484848493 97.21212121212136,268.84848484848493 87.67676767676772,268.84848484848493 78.14141414141426,268.84848484848493 68.60606060606068,268.84848484848493 59.07070707070716,268.84848484848493 49.53535353535369,268.84848484848493 40.00000000000006,268.84848484848493" fill="none" stroke="rgba(255,0,0,0.75)" stroke-width="11.327999999999996"/></g><g><rect data-type="rect" data-label="" data-x="0" data-y="0" x="40.000000000000114" y="40.000000000000284" width="943.9999999999997" height="943.9999999999998" fill="none" stroke="gray" stroke-width="0.010593220338983056"/></g><g><rect data-type="rect" data-label="" data-x="0" data-y="0" x="40.000000000000114" y="40.000000000000284" width="943.9999999999997" height="943.9999999999998" fill="none" stroke="rgba(15, 23, 42, 0.8)" stroke-width="0.010593220338983056"/></g><circle data-type="circle" data-label="" data-x="3.989898989898992" data-y="3.6868686868686877" cx="888.6464646464647" cy="163.95959595959613" r="14.159999999999995" fill="rgba(0,0,0,0.3)" stroke="black" stroke-width="0.010593220338983056"/><circle data-type="circle" data-label="" data-x="1.9696969696969702" data-y="-3.98989898989899" cx="697.9393939393939" cy="888.6464646464647" r="14.159999999999995" fill="rgba(0,0,0,0.3)" stroke="black" stroke-width="0.010593220338983056"/><circle data-type="circle" data-label="" data-x="2.373737373737375" data-y="2.575757575757577" cx="736.0808080808081" cy="268.84848484848493" r="14.159999999999995" fill="rgba(0,0,0,0.3)" stroke="black" stroke-width="0.010593220338983056"/><circle data-type="circle" data-label="" data-x="-1.6666666666666665" data-y="2.575757575757577" cx="354.6666666666667" cy="268.84848484848493" r="14.159999999999995" fill="rgba(0,0,0,0.3)" stroke="black" stroke-width="0.010593220338983056"/><g id="crosshair" style="display: none"><line id="crosshair-h" y1="0" y2="1024" stroke="#666" stroke-width="0.5"/><line id="crosshair-v" x1="0" x2="1024" stroke="#666" stroke-width="0.5"/><text id="coordinates" font-family="monospace" font-size="12" fill="#666"></text></g><script><![CDATA[
              document.currentScript.parentElement.addEventListener('mousemove', (e) => {
                const svg = e.currentTarget;
                const rect = svg.getBoundingClientRect();
                const x = e.clientX - rect.left;
                const y = e.clientY - rect.top;
                const crosshair = svg.getElementById('crosshair');
                const h = svg.getElementById('crosshair-h');
                const v = svg.getElementById('crosshair-v');
                const coords = svg.getElementById('coordinates');
                
                crosshair.style.display = 'block';
                h.setAttribute('x1', '0');
                h.setAttribute('x2', '1024');
                h.setAttribute('y1', y);
                h.setAttribute('y2', y);
                v.setAttribute('x1', x);
                v.setAttribute('x2', x);
                v.setAttribute('y1', '0');
                v.setAttribute('y2', '1024');

                // Calculate real coordinates using inverse transformation
                const matrix = {"a":94.39999999999996,"c":0,"e":511.99999999999994,"b":0,"d":-94.39999999999996,"f":512.0000000000001};
                // Manually invert and apply the affine transform
                // Since we only use translate and scale, we can directly compute:
                // x' = (x - tx) / sx
                // y' = (y - ty) / sy
                const sx = matrix.a;
                const sy = matrix.d;
                const tx = matrix.e; 
                const ty = matrix.f;
                const realPoint = {
                  x: (x - tx) / sx,
                  y: (y - ty) / sy // Flip y back since we used negative scale
                }
                
                coords.textContent = `(${realPoint.x.toFixed(2)}, ${realPoint.y.toFixed(2)})`;
                coords.setAttribute('x', (x + 5).toString());
                coords.setAttribute('y', (y - 5).toString());
              });
              document.currentScript.parentElement.addEventListener('mouseleave', () => {
                document.currentScript.parentElement.getElementById('crosshair').style.display = 'none';
              });
            ]]></script></svg>