<svg width="1024" height="1024" viewBox="0 0 1024 1024" xmlns="http://www.w3.org/2000/svg"><rect width="100%" height="100%" fill="white"/><g><circle data-type="point" data-label="conn_000" data-x="-5" data-y="-2.04" cx="40.000000000000114" cy="704.576" r="14.16" fill="red"/></g><g><circle data-type="point" data-label="conn_000" data-x="5" data-y="-2.36" cx="983.9999999999998" cy="734.784" r="14.16" fill="red"/></g><g><circle data-type="point" data-label="conn_001" data-x="-5" data-y="3.5" cx="40.000000000000114" cy="181.60000000000025" r="14.16" fill="red"/></g><g><circle data-type="point" data-label="conn_001" data-x="5" data-y="0.96" cx="983.9999999999998" cy="421.37600000000015" r="14.16" fill="red"/></g><g><circle data-type="point" data-label="conn_002" data-x="3.46" data-y="5" cx="838.6239999999998" cy="40.000000000000284" r="14.16" fill="red"/></g><g><circle data-type="point" data-label="conn_002" data-x="4.18" data-y="5" cx="906.5919999999998" cy="40.000000000000284" r="14.16" fill="red"/></g><g><circle data-type="point" data-label="conn_003" data-x="5" data-y="-1.96" cx="983.9999999999998" cy="697.024" r="14.16" fill="red"/></g><g><circle data-type="point" data-label="conn_003" data-x="-5" data-y="-4.36" cx="40.000000000000114" cy="923.5840000000001" r="14.16" fill="red"/></g><g><circle data-type="point" data-label="conn_004" data-x="3.16" data-y="-5" cx="810.3039999999999" cy="984" r="14.16" fill="red"/></g><g><circle data-type="point" data-label="conn_004" data-x="-0.58" data-y="-5" cx="457.248" cy="984" r="14.16" fill="red"/></g><g><circle data-type="point" data-label="conn_005" data-x="3.86" data-y="5" cx="876.3839999999998" cy="40.000000000000284" r="14.16" fill="blue"/></g><g><circle data-type="point" data-label="conn_005" data-x="0.18" data-y="-5" cx="528.992" cy="984" r="14.16" fill="red"/></g><g><circle data-type="point" data-label="conn_006" data-x="5" data-y="4.38" cx="983.9999999999998" cy="98.5280000000003" r="14.16" fill="blue"/></g><g><circle data-type="point" data-label="conn_006" data-x="-5" data-y="0.4" cx="40.000000000000114" cy="474.2400000000001" r="14.16" fill="blue"/></g><g><circle data-type="point" data-label="conn_007" data-x="2.32" data-y="-5" cx="731.0079999999998" cy="984" r="14.16" fill="red"/></g><g><circle data-type="point" data-label="conn_007" data-x="5" data-y="1.84" cx="983.9999999999998" cy="338.3040000000002" r="14.16" fill="red"/></g><g><circle data-type="point" data-label="conn_008" data-x="3.92" data-y="5" cx="882.0479999999998" cy="40.000000000000284" r="14.16" fill="blue"/></g><g><circle data-type="point" data-label="conn_008" data-x="-3.5" data-y="5" cx="181.60000000000008" cy="40.000000000000284" r="14.16" fill="blue"/></g><g><polyline data-points="-5.000000000000001,-2.07070707070707 -4.898989898989899,-2.1717171717171713 -4.7979797979797985,-2.2727272727272725 -4.696969696969697,-2.3737373737373733 -4.595959595959596,-2.3737373737373733 -4.494949494949496,-2.3737373737373733 -4.393939393939394,-2.3737373737373733 -4.292929292929293,-2.3737373737373733 -4.191919191919193,-2.3737373737373733 -4.090909090909091,-2.3737373737373733 -3.98989898989899,-2.3737373737373733 -3.8888888888888884,-2.3737373737373733 -3.7878787878787876,-2.3737373737373733 -3.6868686868686864,-2.3737373737373733 -3.5858585858585856,-2.3737373737373733 -3.484848484848485,-2.3737373737373733 -3.383838383838383,-2.3737373737373733 -3.2828282828282824,-2.3737373737373733 -3.1818181818181817,-2.3737373737373733 -3.0808080808080804,-2.3737373737373733 -2.9797979797979792,-2.3737373737373733 -2.8787878787878785,-2.3737373737373733 -2.7777777777777777,-2.3737373737373733 -2.6767676767676765,-2.3737373737373733 -2.5757575757575752,-2.3737373737373733 -2.474747474747474,-2.3737373737373733 -2.3737373737373733,-2.3737373737373733 -2.2727272727272725,-2.3737373737373733 -2.1717171717171713,-2.3737373737373733 -2.07070707070707,-2.3737373737373733 -1.9696969696969693,-2.3737373737373733 -1.8686868686868683,-2.3737373737373733 -1.7676767676767675,-2.3737373737373733 -1.6666666666666665,-2.3737373737373733 -1.5656565656565653,-2.3737373737373733 -1.4646464646464643,-2.3737373737373733 -1.363636363636363,-2.3737373737373733 -1.2626262626262625,-2.3737373737373733 -1.1616161616161613,-2.3737373737373733 -1.0606060606060603,-2.3737373737373733 -0.9595959595959596,-2.3737373737373733 -0.8585858585858579,-2.3737373737373733 -0.7575757575757572,-2.3737373737373733 -0.6565656565656557,-2.3737373737373733 -0.555555555555555,-2.3737373737373733 -0.4545454545454544,-2.3737373737373733 -0.35353535353535287,-2.3737373737373733 -0.2525252525252522,-2.3737373737373733 -0.15151515151515066,-2.3737373737373733 -0.05050505050505001,-2.3737373737373733 0.050505050505051545,-2.3737373737373733 0.1515151515151522,-2.3737373737373733 0.2525252525252529,-2.3737373737373733 0.3535353535353544,-2.3737373737373733 0.4545454545454551,-2.3737373737373733 0.5555555555555567,-2.3737373737373733 0.6565656565656574,-2.3737373737373733 0.7575757575757579,-2.3737373737373733 0.8585858585858596,-2.3737373737373733 0.9595959595959602,-2.3737373737373733 1.0606060606060617,-2.3737373737373733 1.1616161616161622,-2.3737373737373733 1.262626262626263,-2.3737373737373733 1.3636363636363644,-2.3737373737373733 1.4646464646464652,-2.3737373737373733 1.5656565656565666,-2.3737373737373733 1.6666666666666674,-2.3737373737373733 1.767676767676768,-2.3737373737373733 1.8686868686868696,-2.3737373737373733 1.9696969696969702,-2.3737373737373733 2.070707070707072,-2.3737373737373733 2.1717171717171726,-2.3737373737373733 2.2727272727272734,-2.3737373737373733 2.373737373737375,-2.3737373737373733 2.4747474747474754,-2.3737373737373733 2.575757575757577,-2.3737373737373733 2.676767676767678,-2.3737373737373733 2.7777777777777786,-2.3737373737373733 2.87878787878788,-2.3737373737373733" data-type="line" data-label="" points="40.00000000000006,707.4747474747475 49.53535353535369,717.010101010101 59.07070707070716,726.5454545454545 68.60606060606068,736.0808080808081 78.14141414141426,736.0808080808081 87.67676767676772,736.0808080808081 97.21212121212136,736.0808080808081 106.74747474747483,736.0808080808081 116.28282828282829,736.0808080808081 125.81818181818193,736.0808080808081 135.35353535353545,736.0808080808081 144.88888888888903,736.0808080808081 154.42424242424255,736.0808080808081 163.95959595959607,736.0808080808081 173.4949494949496,736.0808080808081 183.03030303030312,736.0808080808081 192.5656565656567,736.0808080808081 202.10101010101022,736.0808080808081 211.63636363636374,736.0808080808081 221.17171717171726,736.0808080808081 230.70707070707084,736.0808080808081 240.2424242424243,736.0808080808081 249.77777777777783,736.0808080808081 259.3131313131314,736.0808080808081 268.84848484848493,736.0808080808081 278.38383838383845,736.0808080808081 287.91919191919203,736.0808080808081 297.4545454545455,736.0808080808081 306.9898989898991,736.0808080808081 316.5252525252526,736.0808080808081 326.0606060606061,736.0808080808081 335.59595959595964,736.0808080808081 345.13131313131316,736.0808080808081 354.6666666666667,736.0808080808081 364.2020202020202,736.0808080808081 373.7373737373738,736.0808080808081 383.2727272727273,736.0808080808081 392.80808080808083,736.0808080808081 402.34343434343435,736.0808080808081 411.8787878787879,736.0808080808081 421.4141414141414,736.0808080808081 430.949494949495,736.0808080808081 440.4848484848485,736.0808080808081 450.0202020202021,736.0808080808081 459.55555555555554,736.0808080808081 469.09090909090907,736.0808080808081 478.62626262626264,736.0808080808081 488.16161616161617,736.0808080808081 497.69696969696975,736.0808080808081 507.2323232323232,736.0808080808081 516.7676767676768,736.0808080808081 526.3030303030303,736.0808080808081 535.8383838383838,736.0808080808081 545.3737373737374,736.0808080808081 554.9090909090909,736.0808080808081 564.4444444444445,736.0808080808081 573.9797979797979,736.0808080808081 583.5151515151515,736.0808080808081 593.0505050505051,736.0808080808081 602.5858585858585,736.0808080808081 612.1212121212121,736.0808080808081 621.6565656565656,736.0808080808081 631.1919191919192,736.0808080808081 640.7272727272727,736.0808080808081 650.2626262626262,736.0808080808081 659.7979797979798,736.0808080808081 669.3333333333333,736.0808080808081 678.8686868686868,736.0808080808081 688.4040404040404,736.0808080808081 697.9393939393939,736.0808080808081 707.4747474747475,736.0808080808081 717.0101010101009,736.0808080808081 726.5454545454545,736.0808080808081 736.0808080808081,736.0808080808081 745.6161616161615,736.0808080808081 755.1515151515151,736.0808080808081 764.6868686868686,736.0808080808081 774.2222222222222,736.0808080808081 783.7575757575758,736.0808080808081" fill="none" stroke="rgba(255,0,0,0.75)" stroke-width="11.327999999999996"/></g><g><polyline data-points="2.87878787878788,-2.3737373737373733 2.9797979797979806,-2.474747474747474 3.080808080808082,-2.5757575757575752 3.181818181818183,-2.6767676767676765 3.2828282828282833,-2.7777777777777777 3.383838383838384,-2.8787878787878785 3.4848484848484866,-2.9797979797979792 3.5858585858585874,-3.0808080808080804 3.6868686868686877,-3.1818181818181817 3.7878787878787885,-3.2828282828282824 3.8888888888888893,-3.383838383838383 3.989898989898992,-3.484848484848485" data-type="line" data-label="" points="783.7575757575758,736.0808080808081 793.2929292929292,745.6161616161615 802.8282828282828,755.1515151515151 812.3636363636363,764.6868686868687 821.8989898989898,774.2222222222222 831.4343434343433,783.7575757575758 840.969696969697,793.2929292929292 850.5050505050505,802.8282828282828 860.0404040404039,812.3636363636363 869.5757575757575,821.8989898989898 879.111111111111,831.4343434343434 888.6464646464647,840.969696969697" fill="none" stroke="rgba(0,0,255,0.75)" stroke-width="11.327999999999996"/></g><g><polyline data-points="3.989898989898992,-3.484848484848485 4.090909090909092,-3.383838383838383 4.191919191919193,-3.2828282828282824 4.292929292929293,-3.1818181818181817 4.393939393939394,-3.0808080808080804 4.494949494949497,-2.9797979797979792 4.595959595959597,-2.8787878787878785 4.696969696969697,-2.7777777777777777 4.7979797979797985,-2.6767676767676765 4.898989898989901,-2.5757575757575752 5.000000000000002,-2.474747474747474 5.000000000000002,-2.3737373737373733" data-type="line" data-label="" points="888.6464646464647,840.969696969697 898.181818181818,831.4343434343434 907.7171717171716,821.8989898989898 917.2525252525251,812.3636363636363 926.7878787878785,802.8282828282828 936.3232323232323,793.2929292929292 945.8585858585857,783.7575757575758 955.3939393939393,774.2222222222222 964.9292929292927,764.6868686868687 974.4646464646464,755.1515151515151 984,745.6161616161615 984,736.0808080808081" fill="none" stroke="rgba(255,0,0,0.75)" stroke-width="11.327999999999996"/></g><g><polyline data-points="-5.000000000000001,3.5858585858585874 -4.898989898989899,3.4848484848484866 -4.7979797979797985,3.383838383838384 -4.696969696969697,3.2828282828282833 -4.595959595959596,3.181818181818183 -4.494949494949496,3.080808080808082 -4.393939393939394,2.9797979797979806 -4.292929292929293,2.87878787878788 -4.191919191919193,2.7777777777777786 -4.090909090909091,2.676767676767678 -3.98989898989899,2.575757575757577 -3.8888888888888884,2.4747474747474754 -3.7878787878787876,2.373737373737375 -3.6868686868686864,2.2727272727272734 -3.5858585858585856,2.1717171717171726 -3.484848484848485,2.070707070707072 -3.383838383838383,1.9696969696969702 -3.2828282828282824,1.8686868686868696 -3.1818181818181817,1.767676767676768 -3.0808080808080804,1.6666666666666674 -2.9797979797979792,1.5656565656565666 -2.8787878787878785,1.4646464646464652 -2.7777777777777777,1.3636363636363644 -2.6767676767676765,1.262626262626263 -2.5757575757575752,1.1616161616161622 -2.474747474747474,1.0606060606060617 -2.3737373737373733,0.9595959595959602 -2.2727272727272725,0.9595959595959602 -2.1717171717171713,0.9595959595959602 -2.07070707070707,0.9595959595959602 -1.9696969696969693,0.9595959595959602 -1.8686868686868683,0.9595959595959602 -1.7676767676767675,0.9595959595959602 -1.6666666666666665,0.9595959595959602 -1.5656565656565653,0.9595959595959602 -1.4646464646464643,0.9595959595959602 -1.363636363636363,0.9595959595959602 -1.2626262626262625,0.9595959595959602 -1.1616161616161613,0.9595959595959602 -1.0606060606060603,0.9595959595959602 -0.9595959595959596,0.9595959595959602 -0.8585858585858579,0.9595959595959602 -0.7575757575757572,0.9595959595959602 -0.6565656565656557,0.9595959595959602 -0.555555555555555,0.9595959595959602 -0.4545454545454544,0.9595959595959602 -0.35353535353535287,0.9595959595959602 -0.2525252525252522,0.9595959595959602 -0.15151515151515066,0.9595959595959602 -0.05050505050505001,0.9595959595959602 0.050505050505051545,0.9595959595959602 0.1515151515151522,0.9595959595959602 0.2525252525252529,0.9595959595959602 0.3535353535353544,0.9595959595959602 0.4545454545454551,0.9595959595959602 0.5555555555555567,0.9595959595959602 0.6565656565656574,0.9595959595959602 0.7575757575757579,0.9595959595959602 0.8585858585858596,0.9595959595959602 0.9595959595959602,0.9595959595959602 1.0606060606060617,0.9595959595959602 1.1616161616161622,0.9595959595959602 1.262626262626263,0.9595959595959602 1.3636363636363644,0.9595959595959602 1.4646464646464652,0.9595959595959602 1.5656565656565666,0.9595959595959602 1.6666666666666674,0.9595959595959602 1.767676767676768,0.9595959595959602 1.8686868686868696,0.9595959595959602 1.9696969696969702,0.9595959595959602 2.070707070707072,0.9595959595959602 2.1717171717171726,0.9595959595959602 2.2727272727272734,0.9595959595959602 2.373737373737375,0.9595959595959602 2.4747474747474754,0.9595959595959602 2.575757575757577,0.9595959595959602 2.676767676767678,0.9595959595959602 2.7777777777777786,0.9595959595959602 2.87878787878788,0.9595959595959602 2.9797979797979806,0.9595959595959602 3.080808080808082,0.9595959595959602 3.181818181818183,0.9595959595959602 3.2828282828282833,0.9595959595959602 3.383838383838384,0.9595959595959602 3.4848484848484866,0.9595959595959602 3.5858585858585874,0.9595959595959602 3.6868686868686877,0.9595959595959602 3.7878787878787885,0.9595959595959602 3.8888888888888893,0.9595959595959602 3.989898989898992,0.9595959595959602 4.090909090909092,0.9595959595959602 4.191919191919193,0.9595959595959602 4.292929292929293,0.9595959595959602 4.393939393939394,0.9595959595959602 4.494949494949497,0.9595959595959602 4.595959595959597,0.9595959595959602 4.696969696969697,0.9595959595959602 4.7979797979797985,0.9595959595959602 4.898989898989901,0.9595959595959602 5.000000000000002,0.9595959595959602" data-type="line" data-label="" points="40.00000000000006,173.4949494949496 49.53535353535369,183.03030303030312 59.07070707070716,192.56565656565675 68.60606060606068,202.10101010101027 78.14141414141426,211.63636363636374 87.67676767676772,221.17171717171726 97.21212121212136,230.70707070707084 106.74747474747483,240.24242424242436 116.28282828282829,249.77777777777794 125.81818181818193,259.3131313131314 135.35353535353545,268.84848484848493 144.88888888888903,278.38383838383857 154.42424242424255,287.91919191919203 163.95959595959607,297.4545454545456 173.4949494949496,306.9898989898991 183.03030303030312,316.5252525252526 192.5656565656567,326.06060606060623 202.10101010101022,335.5959595959597 211.63636363636374,345.1313131313133 221.17171717171726,354.66666666666674 230.70707070707084,364.2020202020203 240.2424242424243,373.73737373737384 249.77777777777783,383.27272727272737 259.3131313131314,392.80808080808094 268.84848484848493,402.3434343434344 278.38383838383845,411.87878787878793 287.91919191919203,421.4141414141415 297.4545454545455,421.4141414141415 306.9898989898991,421.4141414141415 316.5252525252526,421.4141414141415 326.0606060606061,421.4141414141415 335.59595959595964,421.4141414141415 345.13131313131316,421.4141414141415 354.6666666666667,421.4141414141415 364.2020202020202,421.4141414141415 373.7373737373738,421.4141414141415 383.2727272727273,421.4141414141415 392.80808080808083,421.4141414141415 402.34343434343435,421.4141414141415 411.8787878787879,421.4141414141415 421.4141414141414,421.4141414141415 430.949494949495,421.4141414141415 440.4848484848485,421.4141414141415 450.0202020202021,421.4141414141415 459.55555555555554,421.4141414141415 469.09090909090907,421.4141414141415 478.62626262626264,421.4141414141415 488.16161616161617,421.4141414141415 497.69696969696975,421.4141414141415 507.2323232323232,421.4141414141415 516.7676767676768,421.4141414141415 526.3030303030303,421.4141414141415 535.8383838383838,421.4141414141415 545.3737373737374,421.4141414141415 554.9090909090909,421.4141414141415 564.4444444444445,421.4141414141415 573.9797979797979,421.4141414141415 583.5151515151515,421.4141414141415 593.0505050505051,421.4141414141415 602.5858585858585,421.4141414141415 612.1212121212121,421.4141414141415 621.6565656565656,421.4141414141415 631.1919191919192,421.4141414141415 640.7272727272727,421.4141414141415 650.2626262626262,421.4141414141415 659.7979797979798,421.4141414141415 669.3333333333333,421.4141414141415 678.8686868686868,421.4141414141415 688.4040404040404,421.4141414141415 697.9393939393939,421.4141414141415 707.4747474747475,421.4141414141415 717.0101010101009,421.4141414141415 726.5454545454545,421.4141414141415 736.0808080808081,421.4141414141415 745.6161616161615,421.4141414141415 755.1515151515151,421.4141414141415 764.6868686868686,421.4141414141415 774.2222222222222,421.4141414141415 783.7575757575758,421.4141414141415 793.2929292929292,421.4141414141415 802.8282828282828,421.4141414141415 812.3636363636363,421.4141414141415 821.8989898989898,421.4141414141415 831.4343434343433,421.4141414141415 840.969696969697,421.4141414141415 850.5050505050505,421.4141414141415 860.0404040404039,421.4141414141415 869.5757575757575,421.4141414141415 879.111111111111,421.4141414141415 888.6464646464647,421.4141414141415 898.181818181818,421.4141414141415 907.7171717171716,421.4141414141415 917.2525252525251,421.4141414141415 926.7878787878785,421.4141414141415 936.3232323232323,421.4141414141415 945.8585858585857,421.4141414141415 955.3939393939393,421.4141414141415 964.9292929292927,421.4141414141415 974.4646464646464,421.4141414141415 984,421.4141414141415" fill="none" stroke="rgba(255,0,0,0.75)" stroke-width="11.327999999999996"/></g><g><polyline data-points="3.4848484848484866,5.000000000000002 3.5858585858585874,4.898989898989901 3.6868686868686877,4.898989898989901 3.7878787878787885,4.898989898989901 3.8888888888888893,4.898989898989901 3.989898989898992,4.898989898989901 4.090909090909092,5.000000000000002 4.191919191919193,5.000000000000002" data-type="line" data-label="" points="840.969696969697,40.000000000000114 850.5050505050505,49.53535353535369 860.0404040404039,49.53535353535369 869.5757575757575,49.53535353535369 879.111111111111,49.53535353535369 888.6464646464647,49.53535353535369 898.181818181818,40.000000000000114 907.7171717171716,40.000000000000114" fill="none" stroke="rgba(255,0,0,0.75)" stroke-width="11.327999999999996"/></g><g><polyline data-points="5.000000000000002,4.393939393939394 4.898989898989901,4.292929292929293 4.7979797979797985,4.191919191919193 4.696969696969697,4.090909090909092 4.595959595959597,3.989898989898992 4.494949494949497,3.8888888888888893 4.393939393939394,3.7878787878787885 4.292929292929293,3.6868686868686877 4.191919191919193,3.5858585858585874 4.090909090909092,3.4848484848484866 3.989898989898992,3.383838383838384 3.8888888888888893,3.2828282828282833 3.7878787878787885,3.181818181818183 3.6868686868686877,3.080808080808082 3.5858585858585874,2.9797979797979806" data-type="line" data-label="" points="984,97.21212121212153 974.4646464646464,106.747474747475 964.9292929292927,116.28282828282846 955.3939393939393,125.81818181818198 945.8585858585857,135.35353535353545 936.3232323232323,144.88888888888908 926.7878787878785,154.4242424242426 917.2525252525251,163.95959595959613 907.7171717171716,173.4949494949496 898.181818181818,183.03030303030312 888.6464646464647,192.56565656565675 879.111111111111,202.10101010101027 869.5757575757575,211.63636363636374 860.0404040404039,221.17171717171726 850.5050505050505,230.70707070707084" fill="none" stroke="rgba(0,0,255,0.75)" stroke-width="11.327999999999996"/></g><g><polyline data-points="3.5858585858585874,2.9797979797979806 3.4848484848484866,2.87878787878788 3.383838383838384,2.7777777777777786 3.2828282828282833,2.676767676767678 3.181818181818183,2.575757575757577 3.080808080808082,2.4747474747474754 2.9797979797979806,2.373737373737375 2.87878787878788,2.2727272727272734 2.7777777777777786,2.1717171717171726 2.676767676767678,2.070707070707072 2.575757575757577,1.9696969696969702 2.4747474747474754,1.8686868686868696 2.373737373737375,1.767676767676768 2.2727272727272734,1.6666666666666674 2.1717171717171726,1.5656565656565666 2.070707070707072,1.4646464646464652 1.9696969696969702,1.3636363636363644 1.8686868686868696,1.3636363636363644 1.767676767676768,1.3636363636363644 1.6666666666666674,1.3636363636363644 1.5656565656565666,1.3636363636363644 1.4646464646464652,1.3636363636363644 1.3636363636363644,1.3636363636363644 1.262626262626263,1.3636363636363644 1.1616161616161622,1.3636363636363644 1.0606060606060617,1.3636363636363644 0.9595959595959602,1.3636363636363644 0.8585858585858596,1.3636363636363644 0.7575757575757579,1.3636363636363644 0.6565656565656574,1.3636363636363644 0.5555555555555567,1.3636363636363644 0.4545454545454551,1.3636363636363644 0.3535353535353544,1.3636363636363644 0.2525252525252529,1.3636363636363644 0.1515151515151522,1.3636363636363644 0.050505050505051545,1.3636363636363644 -0.05050505050505001,1.3636363636363644 -0.15151515151515066,1.3636363636363644 -0.2525252525252522,1.3636363636363644 -0.35353535353535287,1.3636363636363644 -0.4545454545454544,1.3636363636363644 -0.555555555555555,1.3636363636363644 -0.6565656565656557,1.3636363636363644 -0.7575757575757572,1.3636363636363644 -0.8585858585858579,1.3636363636363644 -0.9595959595959596,1.3636363636363644 -1.0606060606060603,1.3636363636363644 -1.1616161616161613,1.3636363636363644 -1.2626262626262625,1.3636363636363644 -1.363636363636363,1.3636363636363644 -1.4646464646464643,1.3636363636363644 -1.5656565656565653,1.3636363636363644 -1.6666666666666665,1.3636363636363644 -1.7676767676767675,1.3636363636363644 -1.8686868686868683,1.3636363636363644 -1.9696969696969693,1.3636363636363644 -2.07070707070707,1.3636363636363644 -2.1717171717171713,1.3636363636363644 -2.2727272727272725,1.3636363636363644" data-type="line" data-label="" points="850.5050505050505,230.70707070707084 840.969696969697,240.24242424242436 831.4343434343433,249.77777777777794 821.8989898989898,259.3131313131314 812.3636363636363,268.84848484848493 802.8282828282828,278.38383838383857 793.2929292929292,287.91919191919203 783.7575757575758,297.4545454545456 774.2222222222222,306.9898989898991 764.6868686868686,316.5252525252526 755.1515151515151,326.06060606060623 745.6161616161615,335.5959595959597 736.0808080808081,345.1313131313133 726.5454545454545,354.66666666666674 717.0101010101009,364.2020202020203 707.4747474747475,373.73737373737384 697.9393939393939,383.27272727272737 688.4040404040404,383.27272727272737 678.8686868686868,383.27272727272737 669.3333333333333,383.27272727272737 659.7979797979798,383.27272727272737 650.2626262626262,383.27272727272737 640.7272727272727,383.27272727272737 631.1919191919192,383.27272727272737 621.6565656565656,383.27272727272737 612.1212121212121,383.27272727272737 602.5858585858585,383.27272727272737 593.0505050505051,383.27272727272737 583.5151515151515,383.27272727272737 573.9797979797979,383.27272727272737 564.4444444444445,383.27272727272737 554.9090909090909,383.27272727272737 545.3737373737374,383.27272727272737 535.8383838383838,383.27272727272737 526.3030303030303,383.27272727272737 516.7676767676768,383.27272727272737 507.2323232323232,383.27272727272737 497.69696969696975,383.27272727272737 488.16161616161617,383.27272727272737 478.62626262626264,383.27272727272737 469.09090909090907,383.27272727272737 459.55555555555554,383.27272727272737 450.0202020202021,383.27272727272737 440.4848484848485,383.27272727272737 430.949494949495,383.27272727272737 421.4141414141414,383.27272727272737 411.8787878787879,383.27272727272737 402.34343434343435,383.27272727272737 392.80808080808083,383.27272727272737 383.2727272727273,383.27272727272737 373.7373737373738,383.27272727272737 364.2020202020202,383.27272727272737 354.6666666666667,383.27272727272737 345.13131313131316,383.27272727272737 335.59595959595964,383.27272727272737 326.0606060606061,383.27272727272737 316.5252525252526,383.27272727272737 306.9898989898991,383.27272727272737 297.4545454545455,383.27272727272737" fill="none" stroke="rgba(255,0,0,0.75)" stroke-width="11.327999999999996"/></g><g><polyline data-points="-2.2727272727272725,1.3636363636363644 -2.3737373737373733,1.262626262626263 -2.474747474747474,1.1616161616161622 -2.5757575757575752,1.0606060606060617 -2.6767676767676765,0.9595959595959602 -2.7777777777777777,0.8585858585858596 -2.8787878787878785,0.7575757575757579 -2.9797979797979792,0.6565656565656574 -3.0808080808080804,0.5555555555555567 -3.1818181818181817,0.4545454545454551 -3.2828282828282824,0.4545454545454551 -3.383838383838383,0.4545454545454551 -3.484848484848485,0.4545454545454551 -3.5858585858585856,0.4545454545454551 -3.6868686868686864,0.4545454545454551 -3.7878787878787876,0.4545454545454551 -3.8888888888888884,0.4545454545454551 -3.98989898989899,0.4545454545454551 -4.090909090909091,0.4545454545454551 -4.191919191919193,0.4545454545454551 -4.292929292929293,0.4545454545454551 -4.393939393939394,0.4545454545454551 -4.494949494949496,0.4545454545454551 -4.595959595959596,0.4545454545454551 -4.696969696969697,0.4545454545454551 -4.7979797979797985,0.4545454545454551 -4.898989898989899,0.4545454545454551 -5.000000000000001,0.4545454545454551" data-type="line" data-label="" points="297.4545454545455,383.27272727272737 287.91919191919203,392.80808080808094 278.38383838383845,402.3434343434344 268.84848484848493,411.87878787878793 259.3131313131314,421.4141414141415 249.77777777777783,430.94949494949503 240.2424242424243,440.4848484848486 230.70707070707084,450.0202020202021 221.17171717171726,459.5555555555556 211.63636363636374,469.0909090909092 202.10101010101022,469.0909090909092 192.5656565656567,469.0909090909092 183.03030303030312,469.0909090909092 173.4949494949496,469.0909090909092 163.95959595959607,469.0909090909092 154.42424242424255,469.0909090909092 144.88888888888903,469.0909090909092 135.35353535353545,469.0909090909092 125.81818181818193,469.0909090909092 116.28282828282829,469.0909090909092 106.74747474747483,469.0909090909092 97.21212121212136,469.0909090909092 87.67676767676772,469.0909090909092 78.14141414141426,469.0909090909092 68.60606060606068,469.0909090909092 59.07070707070716,469.0909090909092 49.53535353535369,469.0909090909092 40.00000000000006,469.0909090909092" fill="none" stroke="rgba(0,0,255,0.75)" stroke-width="11.327999999999996"/></g><g><polyline data-points="3.8888888888888893,5.000000000000002 3.7878787878787885,5.000000000000002 3.6868686868686877,4.898989898989901 3.5858585858585874,4.7979797979797985 3.4848484848484866,4.696969696969697 3.383838383838384,4.595959595959597 3.2828282828282833,4.494949494949497 3.181818181818183,4.393939393939394 3.080808080808082,4.292929292929293 2.9797979797979806,4.191919191919193 2.87878787878788,4.090909090909092 2.7777777777777786,3.989898989898992 2.676767676767678,3.8888888888888893 2.575757575757577,3.7878787878787885 2.4747474747474754,3.6868686868686877 2.373737373737375,3.5858585858585874 2.2727272727272734,3.4848484848484866 2.1717171717171726,3.383838383838384 2.070707070707072,3.2828282828282833 1.9696969696969702,3.181818181818183 1.8686868686868696,3.080808080808082 1.767676767676768,2.9797979797979806 1.6666666666666674,2.87878787878788 1.5656565656565666,2.7777777777777786 1.4646464646464652,2.676767676767678 1.3636363636363644,2.575757575757577 1.262626262626263,2.4747474747474754 1.1616161616161622,2.373737373737375 1.0606060606060617,2.2727272727272734 0.9595959595959602,2.1717171717171726 0.8585858585858596,2.070707070707072 0.7575757575757579,1.9696969696969702 0.6565656565656574,1.8686868686868696 0.5555555555555567,1.767676767676768 0.4545454545454551,1.6666666666666674 0.3535353535353544,1.5656565656565666 0.2525252525252529,1.4646464646464652 0.1515151515151522,1.3636363636363644 0.1515151515151522,1.262626262626263 0.1515151515151522,1.1616161616161622 0.1515151515151522,1.0606060606060617 0.1515151515151522,0.9595959595959602 0.1515151515151522,0.8585858585858596 0.1515151515151522,0.7575757575757579 0.1515151515151522,0.6565656565656574 0.1515151515151522,0.5555555555555567 0.1515151515151522,0.4545454545454551 0.1515151515151522,0.3535353535353544 0.1515151515151522,0.2525252525252529 0.1515151515151522,0.1515151515151522 0.1515151515151522,0.050505050505051545 0.1515151515151522,-0.05050505050505001 0.1515151515151522,-0.15151515151515066 0.1515151515151522,-0.2525252525252522 0.1515151515151522,-0.35353535353535287 0.1515151515151522,-0.4545454545454544 0.1515151515151522,-0.555555555555555 0.1515151515151522,-0.6565656565656557 0.1515151515151522,-0.7575757575757572 0.1515151515151522,-0.8585858585858579 0.1515151515151522,-0.9595959595959596 0.1515151515151522,-1.0606060606060603 0.1515151515151522,-1.1616161616161613 0.1515151515151522,-1.2626262626262625 0.1515151515151522,-1.363636363636363 0.1515151515151522,-1.4646464646464643 0.1515151515151522,-1.5656565656565653 0.1515151515151522,-1.6666666666666665 0.1515151515151522,-1.7676767676767675 0.1515151515151522,-1.8686868686868683 0.1515151515151522,-1.9696969696969693 0.1515151515151522,-2.07070707070707 0.1515151515151522,-2.1717171717171713 0.1515151515151522,-2.2727272727272725 0.1515151515151522,-2.3737373737373733 0.1515151515151522,-2.474747474747474 0.1515151515151522,-2.5757575757575752 0.1515151515151522,-2.6767676767676765 0.1515151515151522,-2.7777777777777777 0.1515151515151522,-2.8787878787878785 0.1515151515151522,-2.9797979797979792 0.1515151515151522,-3.0808080808080804 0.1515151515151522,-3.1818181818181817 0.1515151515151522,-3.2828282828282824 0.1515151515151522,-3.383838383838383 0.1515151515151522,-3.484848484848485 0.1515151515151522,-3.5858585858585856 0.1515151515151522,-3.6868686868686864 0.1515151515151522,-3.7878787878787876 0.1515151515151522,-3.8888888888888884 0.1515151515151522,-3.98989898989899" data-type="line" data-label="" points="879.111111111111,40.000000000000114 869.5757575757575,40.000000000000114 860.0404040404039,49.53535353535369 850.5050505050505,59.07070707070733 840.969696969697,68.60606060606085 831.4343434343433,78.14141414141432 821.8989898989898,87.67676767676778 812.3636363636363,97.21212121212153 802.8282828282828,106.747474747475 793.2929292929292,116.28282828282846 783.7575757575758,125.81818181818198 774.2222222222222,135.35353535353545 764.6868686868686,144.88888888888908 755.1515151515151,154.4242424242426 745.6161616161615,163.95959595959613 736.0808080808081,173.4949494949496 726.5454545454545,183.03030303030312 717.0101010101009,192.56565656565675 707.4747474747475,202.10101010101027 697.9393939393939,211.63636363636374 688.4040404040404,221.17171717171726 678.8686868686868,230.70707070707084 669.3333333333333,240.24242424242436 659.7979797979798,249.77777777777794 650.2626262626262,259.3131313131314 640.7272727272727,268.84848484848493 631.1919191919192,278.38383838383857 621.6565656565656,287.91919191919203 612.1212121212121,297.4545454545456 602.5858585858585,306.9898989898991 593.0505050505051,316.5252525252526 583.5151515151515,326.06060606060623 573.9797979797979,335.5959595959597 564.4444444444445,345.1313131313133 554.9090909090909,354.66666666666674 545.3737373737374,364.2020202020203 535.8383838383838,373.73737373737384 526.3030303030303,383.27272727272737 526.3030303030303,392.80808080808094 526.3030303030303,402.3434343434344 526.3030303030303,411.87878787878793 526.3030303030303,421.4141414141415 526.3030303030303,430.94949494949503 526.3030303030303,440.4848484848486 526.3030303030303,450.0202020202021 526.3030303030303,459.5555555555556 526.3030303030303,469.0909090909092 526.3030303030303,478.6262626262627 526.3030303030303,488.1616161616163 526.3030303030303,497.69696969696975 526.3030303030303,507.23232323232327 526.3030303030303,516.7676767676768 526.3030303030303,526.3030303030304 526.3030303030303,535.838383838384 526.3030303030303,545.3737373737374 526.3030303030303,554.909090909091 526.3030303030303,564.4444444444445 526.3030303030303,573.979797979798 526.3030303030303,583.5151515151516 526.3030303030303,593.0505050505051 526.3030303030303,602.5858585858587 526.3030303030303,612.1212121212121 526.3030303030303,621.6565656565657 526.3030303030303,631.1919191919193 526.3030303030303,640.7272727272727 526.3030303030303,650.2626262626263 526.3030303030303,659.7979797979798 526.3030303030303,669.3333333333334 526.3030303030303,678.8686868686868 526.3030303030303,688.4040404040404 526.3030303030303,697.939393939394 526.3030303030303,707.4747474747475 526.3030303030303,717.010101010101 526.3030303030303,726.5454545454545 526.3030303030303,736.0808080808081 526.3030303030303,745.6161616161615 526.3030303030303,755.1515151515151 526.3030303030303,764.6868686868687 526.3030303030303,774.2222222222222 526.3030303030303,783.7575757575758 526.3030303030303,793.2929292929292 526.3030303030303,802.8282828282828 526.3030303030303,812.3636363636363 526.3030303030303,821.8989898989898 526.3030303030303,831.4343434343434 526.3030303030303,840.969696969697 526.3030303030303,850.5050505050505 526.3030303030303,860.0404040404039 526.3030303030303,869.5757575757575 526.3030303030303,879.1111111111111 526.3030303030303,888.6464646464647" fill="none" stroke="rgba(0,0,255,0.75)" stroke-width="11.327999999999996"/></g><g><polyline data-points="0.1515151515151522,-3.98989898989899 0.1515151515151522,-4.090909090909091 0.1515151515151522,-4.191919191919193 0.1515151515151522,-4.292929292929293 0.1515151515151522,-4.393939393939394 0.1515151515151522,-4.494949494949496 0.1515151515151522,-4.595959595959596 0.050505050505051545,-4.696969696969697 0.1515151515151522,-4.7979797979797985 0.1515151515151522,-4.898989898989899 0.1515151515151522,-5.000000000000001" data-type="line" data-label="" points="526.3030303030303,888.6464646464647 526.3030303030303,898.1818181818181 526.3030303030303,907.7171717171718 526.3030303030303,917.2525252525252 526.3030303030303,926.7878787878788 526.3030303030303,936.3232323232323 526.3030303030303,945.8585858585858 516.7676767676768,955.3939393939394 526.3030303030303,964.9292929292928 526.3030303030303,974.4646464646464 526.3030303030303,984" fill="none" stroke="rgba(255,0,0,0.75)" stroke-width="11.327999999999996"/></g><g><polyline data-points="2.373737373737375,-5.000000000000001 2.373737373737375,-4.898989898989899 2.4747474747474754,-4.7979797979797985 2.4747474747474754,-4.696969696969697 2.575757575757577,-4.595959595959596 2.676767676767678,-4.494949494949496 2.7777777777777786,-4.393939393939394 2.87878787878788,-4.292929292929293 2.9797979797979806,-4.191919191919193 3.080808080808082,-4.090909090909091 3.181818181818183,-3.98989898989899 3.2828282828282833,-3.8888888888888884 3.383838383838384,-3.7878787878787876 3.4848484848484866,-3.6868686868686864 3.5858585858585874,-3.5858585858585856 3.6868686868686877,-3.484848484848485 3.7878787878787885,-3.383838383838383 3.8888888888888893,-3.2828282828282824 3.989898989898992,-3.1818181818181817 4.090909090909092,-3.0808080808080804 4.090909090909092,-2.9797979797979792 3.989898989898992,-2.8787878787878785 3.989898989898992,-2.7777777777777777 3.989898989898992,-2.6767676767676765 3.989898989898992,-2.5757575757575752 3.989898989898992,-2.474747474747474 3.989898989898992,-2.3737373737373733 3.989898989898992,-2.2727272727272725 3.989898989898992,-2.1717171717171713" data-type="line" data-label="" points="736.0808080808081,984 736.0808080808081,974.4646464646464 745.6161616161615,964.9292929292928 745.6161616161615,955.3939393939394 755.1515151515151,945.8585858585858 764.6868686868686,936.3232323232323 774.2222222222222,926.7878787878788 783.7575757575758,917.2525252525252 793.2929292929292,907.7171717171718 802.8282828282828,898.1818181818181 812.3636363636363,888.6464646464647 821.8989898989898,879.1111111111111 831.4343434343433,869.5757575757575 840.969696969697,860.0404040404039 850.5050505050505,850.5050505050505 860.0404040404039,840.969696969697 869.5757575757575,831.4343434343434 879.111111111111,821.8989898989898 888.6464646464647,812.3636363636363 898.181818181818,802.8282828282828 898.181818181818,793.2929292929292 888.6464646464647,783.7575757575758 888.6464646464647,774.2222222222222 888.6464646464647,764.6868686868687 888.6464646464647,755.1515151515151 888.6464646464647,745.6161616161615 888.6464646464647,736.0808080808081 888.6464646464647,726.5454545454545 888.6464646464647,717.010101010101" fill="none" stroke="rgba(255,0,0,0.75)" stroke-width="11.327999999999996"/></g><g><polyline data-points="3.989898989898992,-2.1717171717171713 4.090909090909092,-2.07070707070707 4.090909090909092,-1.9696969696969693 4.090909090909092,-1.8686868686868683 4.090909090909092,-1.7676767676767675 4.090909090909092,-1.6666666666666665 4.090909090909092,-1.5656565656565653 4.090909090909092,-1.4646464646464643 4.090909090909092,-1.363636363636363 4.090909090909092,-1.2626262626262625 4.090909090909092,-1.1616161616161613 4.090909090909092,-1.0606060606060603 4.090909090909092,-0.9595959595959596 4.090909090909092,-0.8585858585858579 4.090909090909092,-0.7575757575757572 4.090909090909092,-0.6565656565656557 4.090909090909092,-0.555555555555555 4.090909090909092,-0.4545454545454544 4.090909090909092,-0.35353535353535287 4.090909090909092,-0.2525252525252522 4.090909090909092,-0.15151515151515066 4.090909090909092,-0.05050505050505001 4.090909090909092,0.050505050505051545 4.090909090909092,0.1515151515151522 4.090909090909092,0.2525252525252529 4.090909090909092,0.3535353535353544 4.090909090909092,0.4545454545454551 4.090909090909092,0.5555555555555567 4.090909090909092,0.6565656565656574 4.090909090909092,0.7575757575757579 4.090909090909092,0.8585858585858596 4.090909090909092,0.9595959595959602 4.090909090909092,1.0606060606060617 4.090909090909092,1.1616161616161622 4.090909090909092,1.262626262626263 4.090909090909092,1.3636363636363644 3.989898989898992,1.4646464646464652" data-type="line" data-label="" points="888.6464646464647,717.010101010101 898.181818181818,707.4747474747475 898.181818181818,697.939393939394 898.181818181818,688.4040404040404 898.181818181818,678.8686868686868 898.181818181818,669.3333333333334 898.181818181818,659.7979797979798 898.181818181818,650.2626262626263 898.181818181818,640.7272727272727 898.181818181818,631.1919191919193 898.181818181818,621.6565656565657 898.181818181818,612.1212121212121 898.181818181818,602.5858585858587 898.181818181818,593.0505050505051 898.181818181818,583.5151515151516 898.181818181818,573.979797979798 898.181818181818,564.4444444444445 898.181818181818,554.909090909091 898.181818181818,545.3737373737374 898.181818181818,535.838383838384 898.181818181818,526.3030303030304 898.181818181818,516.7676767676768 898.181818181818,507.23232323232327 898.181818181818,497.69696969696975 898.181818181818,488.1616161616163 898.181818181818,478.6262626262627 898.181818181818,469.0909090909092 898.181818181818,459.5555555555556 898.181818181818,450.0202020202021 898.181818181818,440.4848484848486 898.181818181818,430.94949494949503 898.181818181818,421.4141414141415 898.181818181818,411.87878787878793 898.181818181818,402.3434343434344 898.181818181818,392.80808080808094 898.181818181818,383.27272727272737 888.6464646464647,373.73737373737384" fill="none" stroke="rgba(0,0,255,0.75)" stroke-width="11.327999999999996"/></g><g><polyline data-points="3.989898989898992,1.4646464646464652 4.090909090909092,1.5656565656565666 4.191919191919193,1.6666666666666674 4.292929292929293,1.767676767676768 4.393939393939394,1.767676767676768 4.494949494949497,1.6666666666666674 4.595959595959597,1.6666666666666674 4.696969696969697,1.6666666666666674 4.7979797979797985,1.6666666666666674 4.898989898989901,1.6666666666666674 5.000000000000002,1.767676767676768 5.000000000000002,1.8686868686868696" data-type="line" data-label="" points="888.6464646464647,373.73737373737384 898.181818181818,364.2020202020203 907.7171717171716,354.66666666666674 917.2525252525251,345.1313131313133 926.7878787878785,345.1313131313133 936.3232323232323,354.66666666666674 945.8585858585857,354.66666666666674 955.3939393939393,354.66666666666674 964.9292929292927,354.66666666666674 974.4646464646464,354.66666666666674 984,345.1313131313133 984,335.5959595959597" fill="none" stroke="rgba(255,0,0,0.75)" stroke-width="11.327999999999996"/></g><g><polyline data-points="3.181818181818183,-5.000000000000001 3.181818181818183,-4.898989898989899 3.181818181818183,-4.7979797979797985 3.2828282828282833,-4.696969696969697 3.181818181818183,-4.595959595959596 3.181818181818183,-4.494949494949496 3.2828282828282833,-4.393939393939394 3.383838383838384,-4.292929292929293 3.4848484848484866,-4.191919191919193 3.5858585858585874,-4.090909090909091 3.6868686868686877,-3.98989898989899" data-type="line" data-label="" points="812.3636363636363,984 812.3636363636363,974.4646464646464 812.3636363636363,964.9292929292928 821.8989898989898,955.3939393939394 812.3636363636363,945.8585858585858 812.3636363636363,936.3232323232323 821.8989898989898,926.7878787878788 831.4343434343433,917.2525252525252 840.969696969697,907.7171717171718 850.5050505050505,898.1818181818181 860.0404040404039,888.6464646464647" fill="none" stroke="rgba(255,0,0,0.75)" stroke-width="11.327999999999996"/></g><g><polyline data-points="3.6868686868686877,-3.98989898989899 3.5858585858585874,-4.090909090909091 3.4848484848484866,-4.191919191919193 3.383838383838384,-4.191919191919193 3.2828282828282833,-4.090909090909091 3.181818181818183,-3.98989898989899 3.080808080808082,-3.98989898989899 2.9797979797979806,-3.8888888888888884 2.87878787878788,-3.8888888888888884 2.7777777777777786,-3.8888888888888884 2.676767676767678,-3.8888888888888884 2.575757575757577,-3.8888888888888884 2.4747474747474754,-3.8888888888888884 2.373737373737375,-3.8888888888888884 2.2727272727272734,-3.8888888888888884 2.1717171717171726,-3.8888888888888884 2.070707070707072,-3.8888888888888884 1.9696969696969702,-3.8888888888888884 1.8686868686868696,-3.8888888888888884 1.767676767676768,-3.8888888888888884 1.6666666666666674,-3.8888888888888884 1.5656565656565666,-3.8888888888888884 1.4646464646464652,-3.8888888888888884 1.3636363636363644,-3.8888888888888884 1.262626262626263,-3.8888888888888884 1.1616161616161622,-3.8888888888888884 1.0606060606060617,-3.8888888888888884 0.9595959595959602,-3.8888888888888884 0.8585858585858596,-3.8888888888888884 0.7575757575757579,-3.8888888888888884 0.6565656565656574,-3.8888888888888884 0.5555555555555567,-3.8888888888888884" data-type="line" data-label="" points="860.0404040404039,888.6464646464647 850.5050505050505,898.1818181818181 840.969696969697,907.7171717171718 831.4343434343433,907.7171717171718 821.8989898989898,898.1818181818181 812.3636363636363,888.6464646464647 802.8282828282828,888.6464646464647 793.2929292929292,879.1111111111111 783.7575757575758,879.1111111111111 774.2222222222222,879.1111111111111 764.6868686868686,879.1111111111111 755.1515151515151,879.1111111111111 745.6161616161615,879.1111111111111 736.0808080808081,879.1111111111111 726.5454545454545,879.1111111111111 717.0101010101009,879.1111111111111 707.4747474747475,879.1111111111111 697.9393939393939,879.1111111111111 688.4040404040404,879.1111111111111 678.8686868686868,879.1111111111111 669.3333333333333,879.1111111111111 659.7979797979798,879.1111111111111 650.2626262626262,879.1111111111111 640.7272727272727,879.1111111111111 631.1919191919192,879.1111111111111 621.6565656565656,879.1111111111111 612.1212121212121,879.1111111111111 602.5858585858585,879.1111111111111 593.0505050505051,879.1111111111111 583.5151515151515,879.1111111111111 573.9797979797979,879.1111111111111 564.4444444444445,879.1111111111111" fill="none" stroke="rgba(0,0,255,0.75)" stroke-width="11.327999999999996"/></g><g><polyline data-points="0.5555555555555567,-3.8888888888888884 0.4545454545454551,-3.8888888888888884 0.3535353535353544,-3.8888888888888884 0.2525252525252529,-3.7878787878787876 0.1515151515151522,-3.6868686868686864 0.050505050505051545,-3.7878787878787876 -0.05050505050505001,-3.8888888888888884 -0.15151515151515066,-3.98989898989899 -0.2525252525252522,-4.090909090909091 -0.2525252525252522,-4.191919191919193 -0.2525252525252522,-4.292929292929293 -0.35353535353535287,-4.393939393939394 -0.4545454545454544,-4.494949494949496 -0.555555555555555,-4.595959595959596 -0.555555555555555,-4.696969696969697 -0.555555555555555,-4.7979797979797985 -0.6565656565656557,-4.898989898989899 -0.555555555555555,-5.000000000000001" data-type="line" data-label="" points="564.4444444444445,879.1111111111111 554.9090909090909,879.1111111111111 545.3737373737374,879.1111111111111 535.8383838383838,869.5757575757575 526.3030303030303,860.0404040404039 516.7676767676768,869.5757575757575 507.2323232323232,879.1111111111111 497.69696969696975,888.6464646464647 488.16161616161617,898.1818181818181 488.16161616161617,907.7171717171718 488.16161616161617,917.2525252525252 478.62626262626264,926.7878787878788 469.09090909090907,936.3232323232323 459.55555555555554,945.8585858585858 459.55555555555554,955.3939393939394 459.55555555555554,964.9292929292928 450.0202020202021,974.4646464646464 459.55555555555554,984" fill="none" stroke="rgba(255,0,0,0.75)" stroke-width="11.327999999999996"/></g><g><polyline data-points="5.000000000000002,-1.9696969696969693 4.898989898989901,-1.9696969696969693 4.7979797979797985,-1.9696969696969693 4.696969696969697,-1.9696969696969693 4.595959595959597,-1.9696969696969693 4.494949494949497,-1.9696969696969693 4.393939393939394,-1.9696969696969693 4.292929292929293,-1.9696969696969693 4.191919191919193,-1.9696969696969693 4.090909090909092,-1.9696969696969693 3.989898989898992,-1.8686868686868683 3.8888888888888893,-1.9696969696969693 3.7878787878787885,-2.07070707070707 3.6868686868686877,-2.1717171717171713 3.5858585858585874,-2.2727272727272725 3.4848484848484866,-2.3737373737373733 3.383838383838384,-2.474747474747474 3.2828282828282833,-2.5757575757575752 3.181818181818183,-2.6767676767676765 3.080808080808082,-2.5757575757575752 2.9797979797979806,-2.6767676767676765 2.87878787878788,-2.7777777777777777 2.7777777777777786,-2.8787878787878785 2.676767676767678,-2.9797979797979792 2.575757575757577,-3.0808080808080804 2.4747474747474754,-3.1818181818181817 2.373737373737375,-3.2828282828282824 2.2727272727272734,-3.383838383838383 2.1717171717171726,-3.484848484848485 2.070707070707072,-3.484848484848485 1.9696969696969702,-3.484848484848485 1.8686868686868696,-3.484848484848485 1.767676767676768,-3.484848484848485 1.6666666666666674,-3.484848484848485 1.5656565656565666,-3.484848484848485 1.4646464646464652,-3.484848484848485 1.3636363636363644,-3.484848484848485 1.262626262626263,-3.484848484848485 1.1616161616161622,-3.484848484848485 1.0606060606060617,-3.484848484848485 0.9595959595959602,-3.484848484848485 0.8585858585858596,-3.484848484848485 0.7575757575757579,-3.484848484848485 0.6565656565656574,-3.484848484848485 0.5555555555555567,-3.484848484848485 0.4545454545454551,-3.484848484848485 0.3535353535353544,-3.484848484848485 0.2525252525252529,-3.484848484848485 0.1515151515151522,-3.484848484848485 0.050505050505051545,-3.484848484848485 -0.05050505050505001,-3.5858585858585856 -0.15151515151515066,-3.6868686868686864 -0.2525252525252522,-3.7878787878787876 -0.35353535353535287,-3.8888888888888884 -0.4545454545454544,-3.98989898989899 -0.555555555555555,-4.090909090909091 -0.6565656565656557,-4.191919191919193 -0.7575757575757572,-4.292929292929293 -0.8585858585858579,-4.292929292929293 -0.9595959595959596,-4.292929292929293 -1.0606060606060603,-4.292929292929293 -1.1616161616161613,-4.292929292929293 -1.2626262626262625,-4.292929292929293 -1.363636363636363,-4.292929292929293 -1.4646464646464643,-4.292929292929293 -1.5656565656565653,-4.292929292929293 -1.6666666666666665,-4.292929292929293 -1.7676767676767675,-4.292929292929293 -1.8686868686868683,-4.292929292929293 -1.9696969696969693,-4.292929292929293 -2.07070707070707,-4.292929292929293 -2.1717171717171713,-4.292929292929293 -2.2727272727272725,-4.292929292929293 -2.3737373737373733,-4.292929292929293 -2.474747474747474,-4.292929292929293 -2.5757575757575752,-4.292929292929293 -2.6767676767676765,-4.292929292929293 -2.7777777777777777,-4.292929292929293 -2.8787878787878785,-4.292929292929293 -2.9797979797979792,-4.292929292929293 -3.0808080808080804,-4.292929292929293 -3.1818181818181817,-4.292929292929293 -3.2828282828282824,-4.292929292929293 -3.383838383838383,-4.292929292929293 -3.484848484848485,-4.292929292929293 -3.5858585858585856,-4.292929292929293 -3.6868686868686864,-4.292929292929293 -3.7878787878787876,-4.292929292929293 -3.8888888888888884,-4.292929292929293 -3.98989898989899,-4.292929292929293 -4.090909090909091,-4.292929292929293 -4.191919191919193,-4.292929292929293 -4.292929292929293,-4.292929292929293 -4.393939393939394,-4.292929292929293 -4.494949494949496,-4.292929292929293 -4.595959595959596,-4.292929292929293 -4.696969696969697,-4.292929292929293 -4.7979797979797985,-4.292929292929293 -4.898989898989899,-4.292929292929293 -5.000000000000001,-4.393939393939394" data-type="line" data-label="" points="984,697.939393939394 974.4646464646464,697.939393939394 964.9292929292927,697.939393939394 955.3939393939393,697.939393939394 945.8585858585857,697.939393939394 936.3232323232323,697.939393939394 926.7878787878785,697.939393939394 917.2525252525251,697.939393939394 907.7171717171716,697.939393939394 898.181818181818,697.939393939394 888.6464646464647,688.4040404040404 879.111111111111,697.939393939394 869.5757575757575,707.4747474747475 860.0404040404039,717.010101010101 850.5050505050505,726.5454545454545 840.969696969697,736.0808080808081 831.4343434343433,745.6161616161615 821.8989898989898,755.1515151515151 812.3636363636363,764.6868686868687 802.8282828282828,755.1515151515151 793.2929292929292,764.6868686868687 783.7575757575758,774.2222222222222 774.2222222222222,783.7575757575758 764.6868686868686,793.2929292929292 755.1515151515151,802.8282828282828 745.6161616161615,812.3636363636363 736.0808080808081,821.8989898989898 726.5454545454545,831.4343434343434 717.0101010101009,840.969696969697 707.4747474747475,840.969696969697 697.9393939393939,840.969696969697 688.4040404040404,840.969696969697 678.8686868686868,840.969696969697 669.3333333333333,840.969696969697 659.7979797979798,840.969696969697 650.2626262626262,840.969696969697 640.7272727272727,840.969696969697 631.1919191919192,840.969696969697 621.6565656565656,840.969696969697 612.1212121212121,840.969696969697 602.5858585858585,840.969696969697 593.0505050505051,840.969696969697 583.5151515151515,840.969696969697 573.9797979797979,840.969696969697 564.4444444444445,840.969696969697 554.9090909090909,840.969696969697 545.3737373737374,840.969696969697 535.8383838383838,840.969696969697 526.3030303030303,840.969696969697 516.7676767676768,840.969696969697 507.2323232323232,850.5050505050505 497.69696969696975,860.0404040404039 488.16161616161617,869.5757575757575 478.62626262626264,879.1111111111111 469.09090909090907,888.6464646464647 459.55555555555554,898.1818181818181 450.0202020202021,907.7171717171718 440.4848484848485,917.2525252525252 430.949494949495,917.2525252525252 421.4141414141414,917.2525252525252 411.8787878787879,917.2525252525252 402.34343434343435,917.2525252525252 392.80808080808083,917.2525252525252 383.2727272727273,917.2525252525252 373.7373737373738,917.2525252525252 364.2020202020202,917.2525252525252 354.6666666666667,917.2525252525252 345.13131313131316,917.2525252525252 335.59595959595964,917.2525252525252 326.0606060606061,917.2525252525252 316.5252525252526,917.2525252525252 306.9898989898991,917.2525252525252 297.4545454545455,917.2525252525252 287.91919191919203,917.2525252525252 278.38383838383845,917.2525252525252 268.84848484848493,917.2525252525252 259.3131313131314,917.2525252525252 249.77777777777783,917.2525252525252 240.2424242424243,917.2525252525252 230.70707070707084,917.2525252525252 221.17171717171726,917.2525252525252 211.63636363636374,917.2525252525252 202.10101010101022,917.2525252525252 192.5656565656567,917.2525252525252 183.03030303030312,917.2525252525252 173.4949494949496,917.2525252525252 163.95959595959607,917.2525252525252 154.42424242424255,917.2525252525252 144.88888888888903,917.2525252525252 135.35353535353545,917.2525252525252 125.81818181818193,917.2525252525252 116.28282828282829,917.2525252525252 106.74747474747483,917.2525252525252 97.21212121212136,917.2525252525252 87.67676767676772,917.2525252525252 78.14141414141426,917.2525252525252 68.60606060606068,917.2525252525252 59.07070707070716,917.2525252525252 49.53535353535369,917.2525252525252 40.00000000000006,926.7878787878788" fill="none" stroke="rgba(255,0,0,0.75)" stroke-width="11.327999999999996"/></g><g><polyline data-points="3.989898989898992,5.000000000000002 4.090909090909092,5.000000000000002 4.191919191919193,4.898989898989901 4.191919191919193,4.7979797979797985 4.090909090909092,4.696969696969697 3.989898989898992,4.595959595959597 3.8888888888888893,4.494949494949497 3.7878787878787885,4.393939393939394 3.6868686868686877,4.292929292929293 3.5858585858585874,4.191919191919193 3.4848484848484866,4.090909090909092 3.383838383838384,3.989898989898992" data-type="line" data-label="" points="888.6464646464647,40.000000000000114 898.181818181818,40.000000000000114 907.7171717171716,49.53535353535369 907.7171717171716,59.07070707070733 898.181818181818,68.60606060606085 888.6464646464647,78.14141414141432 879.111111111111,87.67676767676778 869.5757575757575,97.21212121212153 860.0404040404039,106.747474747475 850.5050505050505,116.28282828282846 840.969696969697,125.81818181818198 831.4343434343433,135.35353535353545" fill="none" stroke="rgba(0,0,255,0.75)" stroke-width="11.327999999999996"/></g><g><polyline data-points="3.383838383838384,3.989898989898992 3.2828282828282833,4.090909090909092 3.2828282828282833,4.191919191919193 3.2828282828282833,4.292929292929293 3.181818181818183,4.393939393939394 3.080808080808082,4.393939393939394 2.9797979797979806,4.393939393939394 2.87878787878788,4.393939393939394 2.7777777777777786,4.393939393939394 2.676767676767678,4.393939393939394 2.575757575757577,4.393939393939394 2.4747474747474754,4.393939393939394 2.373737373737375,4.393939393939394 2.2727272727272734,4.393939393939394 2.1717171717171726,4.393939393939394 2.070707070707072,4.393939393939394 1.9696969696969702,4.393939393939394 1.8686868686868696,4.393939393939394 1.767676767676768,4.393939393939394 1.6666666666666674,4.393939393939394 1.5656565656565666,4.393939393939394 1.4646464646464652,4.393939393939394 1.3636363636363644,4.393939393939394 1.262626262626263,4.393939393939394 1.1616161616161622,4.393939393939394 1.0606060606060617,4.393939393939394 0.9595959595959602,4.393939393939394 0.8585858585858596,4.393939393939394 0.7575757575757579,4.393939393939394 0.6565656565656574,4.393939393939394 0.5555555555555567,4.393939393939394 0.4545454545454551,4.393939393939394 0.3535353535353544,4.393939393939394 0.2525252525252529,4.393939393939394 0.1515151515151522,4.393939393939394 0.050505050505051545,4.393939393939394 -0.05050505050505001,4.393939393939394 -0.15151515151515066,4.393939393939394 -0.2525252525252522,4.393939393939394 -0.35353535353535287,4.393939393939394 -0.4545454545454544,4.393939393939394 -0.555555555555555,4.393939393939394 -0.6565656565656557,4.393939393939394 -0.7575757575757572,4.393939393939394 -0.8585858585858579,4.393939393939394 -0.9595959595959596,4.393939393939394 -1.0606060606060603,4.393939393939394 -1.1616161616161613,4.393939393939394 -1.2626262626262625,4.393939393939394 -1.363636363636363,4.393939393939394 -1.4646464646464643,4.393939393939394 -1.5656565656565653,4.393939393939394 -1.6666666666666665,4.393939393939394 -1.7676767676767675,4.393939393939394 -1.8686868686868683,4.393939393939394 -1.9696969696969693,4.393939393939394 -2.07070707070707,4.393939393939394 -2.1717171717171713,4.393939393939394 -2.2727272727272725,4.393939393939394 -2.3737373737373733,4.393939393939394 -2.474747474747474,4.393939393939394 -2.5757575757575752,4.393939393939394 -2.6767676767676765,4.393939393939394 -2.7777777777777777,4.393939393939394 -2.8787878787878785,4.393939393939394 -2.9797979797979792,4.393939393939394 -3.0808080808080804,4.292929292929293 -3.1818181818181817,4.191919191919193 -3.2828282828282824,4.090909090909092 -3.383838383838383,3.989898989898992" data-type="line" data-label="" points="831.4343434343433,135.35353535353545 821.8989898989898,125.81818181818198 821.8989898989898,116.28282828282846 821.8989898989898,106.747474747475 812.3636363636363,97.21212121212153 802.8282828282828,97.21212121212153 793.2929292929292,97.21212121212153 783.7575757575758,97.21212121212153 774.2222222222222,97.21212121212153 764.6868686868686,97.21212121212153 755.1515151515151,97.21212121212153 745.6161616161615,97.21212121212153 736.0808080808081,97.21212121212153 726.5454545454545,97.21212121212153 717.0101010101009,97.21212121212153 707.4747474747475,97.21212121212153 697.9393939393939,97.21212121212153 688.4040404040404,97.21212121212153 678.8686868686868,97.21212121212153 669.3333333333333,97.21212121212153 659.7979797979798,97.21212121212153 650.2626262626262,97.21212121212153 640.7272727272727,97.21212121212153 631.1919191919192,97.21212121212153 621.6565656565656,97.21212121212153 612.1212121212121,97.21212121212153 602.5858585858585,97.21212121212153 593.0505050505051,97.21212121212153 583.5151515151515,97.21212121212153 573.9797979797979,97.21212121212153 564.4444444444445,97.21212121212153 554.9090909090909,97.21212121212153 545.3737373737374,97.21212121212153 535.8383838383838,97.21212121212153 526.3030303030303,97.21212121212153 516.7676767676768,97.21212121212153 507.2323232323232,97.21212121212153 497.69696969696975,97.21212121212153 488.16161616161617,97.21212121212153 478.62626262626264,97.21212121212153 469.09090909090907,97.21212121212153 459.55555555555554,97.21212121212153 450.0202020202021,97.21212121212153 440.4848484848485,97.21212121212153 430.949494949495,97.21212121212153 421.4141414141414,97.21212121212153 411.8787878787879,97.21212121212153 402.34343434343435,97.21212121212153 392.80808080808083,97.21212121212153 383.2727272727273,97.21212121212153 373.7373737373738,97.21212121212153 364.2020202020202,97.21212121212153 354.6666666666667,97.21212121212153 345.13131313131316,97.21212121212153 335.59595959595964,97.21212121212153 326.0606060606061,97.21212121212153 316.5252525252526,97.21212121212153 306.9898989898991,97.21212121212153 297.4545454545455,97.21212121212153 287.91919191919203,97.21212121212153 278.38383838383845,97.21212121212153 268.84848484848493,97.21212121212153 259.3131313131314,97.21212121212153 249.77777777777783,97.21212121212153 240.2424242424243,97.21212121212153 230.70707070707084,97.21212121212153 221.17171717171726,106.747474747475 211.63636363636374,116.28282828282846 202.10101010101022,125.81818181818198 192.5656565656567,135.35353535353545" fill="none" stroke="rgba(255,0,0,0.75)" stroke-width="11.327999999999996"/></g><g><polyline data-points="-3.383838383838383,3.989898989898992 -3.484848484848485,4.090909090909092 -3.484848484848485,4.191919191919193 -3.484848484848485,4.292929292929293 -3.484848484848485,4.393939393939394 -3.484848484848485,4.494949494949497 -3.484848484848485,4.595959595959597 -3.484848484848485,4.696969696969697 -3.484848484848485,4.7979797979797985 -3.5858585858585856,4.898989898989901 -3.484848484848485,5.000000000000002" data-type="line" data-label="" points="192.5656565656567,135.35353535353545 183.03030303030312,125.81818181818198 183.03030303030312,116.28282828282846 183.03030303030312,106.747474747475 183.03030303030312,97.21212121212153 183.03030303030312,87.67676767676778 183.03030303030312,78.14141414141432 183.03030303030312,68.60606060606085 183.03030303030312,59.07070707070733 173.4949494949496,49.53535353535369 183.03030303030312,40.000000000000114" fill="none" stroke="rgba(0,0,255,0.75)" stroke-width="11.327999999999996"/></g><g><rect data-type="rect" data-label="" data-x="0" data-y="0" x="40.000000000000114" y="40.000000000000284" width="943.9999999999997" height="943.9999999999998" fill="none" stroke="gray" stroke-width="0.010593220338983056"/></g><g><rect data-type="rect" data-label="" data-x="0" data-y="0" x="40.000000000000114" y="40.000000000000284" width="943.9999999999997" height="943.9999999999998" fill="none" stroke="rgba(15, 23, 42, 0.8)" stroke-width="0.010593220338983056"/></g><circle data-type="circle" data-label="" data-x="2.87878787878788" data-y="-2.3737373737373733" cx="783.7575757575758" cy="736.0808080808081" r="14.159999999999995" fill="rgba(0,0,0,0.3)" stroke="black" stroke-width="0.010593220338983056"/><circle data-type="circle" data-label="" data-x="3.989898989898992" data-y="-3.484848484848485" cx="888.6464646464647" cy="840.969696969697" r="14.159999999999995" fill="rgba(0,0,0,0.3)" stroke="black" stroke-width="0.010593220338983056"/><circle data-type="circle" data-label="" data-x="3.5858585858585874" data-y="2.9797979797979806" cx="850.5050505050505" cy="230.70707070707084" r="14.159999999999995" fill="rgba(0,0,0,0.3)" stroke="black" stroke-width="0.010593220338983056"/><circle data-type="circle" data-label="" data-x="-2.2727272727272725" data-y="1.3636363636363644" cx="297.4545454545455" cy="383.27272727272737" r="14.159999999999995" fill="rgba(0,0,0,0.3)" stroke="black" stroke-width="0.010593220338983056"/><circle data-type="circle" data-label="" data-x="0.1515151515151522" data-y="-3.98989898989899" cx="526.3030303030303" cy="888.6464646464647" r="14.159999999999995" fill="rgba(0,0,0,0.3)" stroke="black" stroke-width="0.010593220338983056"/><circle data-type="circle" data-label="" data-x="3.989898989898992" data-y="-2.1717171717171713" cx="888.6464646464647" cy="717.010101010101" r="14.159999999999995" fill="rgba(0,0,0,0.3)" stroke="black" stroke-width="0.010593220338983056"/><circle data-type="circle" data-label="" data-x="3.989898989898992" data-y="1.4646464646464652" cx="888.6464646464647" cy="373.73737373737384" r="14.159999999999995" fill="rgba(0,0,0,0.3)" stroke="black" stroke-width="0.010593220338983056"/><circle data-type="circle" data-label="" data-x="3.6868686868686877" data-y="-3.98989898989899" cx="860.0404040404039" cy="888.6464646464647" r="14.159999999999995" fill="rgba(0,0,0,0.3)" stroke="black" stroke-width="0.010593220338983056"/><circle data-type="circle" data-label="" data-x="0.5555555555555567" data-y="-3.8888888888888884" cx="564.4444444444445" cy="879.1111111111111" r="14.159999999999995" fill="rgba(0,0,0,0.3)" stroke="black" stroke-width="0.010593220338983056"/><circle data-type="circle" data-label="" data-x="3.383838383838384" data-y="3.989898989898992" cx="831.4343434343433" cy="135.35353535353545" r="14.159999999999995" fill="rgba(0,0,0,0.3)" stroke="black" stroke-width="0.010593220338983056"/><circle data-type="circle" data-label="" data-x="-3.383838383838383" data-y="3.989898989898992" cx="192.5656565656567" cy="135.35353535353545" r="14.159999999999995" fill="rgba(0,0,0,0.3)" stroke="black" stroke-width="0.010593220338983056"/><g id="crosshair" style="display: none"><line id="crosshair-h" y1="0" y2="1024" stroke="#666" stroke-width="0.5"/><line id="crosshair-v" x1="0" x2="1024" stroke="#666" stroke-width="0.5"/><text id="coordinates" font-family="monospace" font-size="12" fill="#666"></text></g><script><![CDATA[
              document.currentScript.parentElement.addEventListener('mousemove', (e) => {
                const svg = e.currentTarget;
                const rect = svg.getBoundingClientRect();
                const x = e.clientX - rect.left;
                const y = e.clientY - rect.top;
                const crosshair = svg.getElementById('crosshair');
                const h = svg.getElementById('crosshair-h');
                const v = svg.getElementById('crosshair-v');
                const coords = svg.getElementById('coordinates');
                
                crosshair.style.display = 'block';
                h.setAttribute('x1', '0');
                h.setAttribute('x2', '1024');
                h.setAttribute('y1', y);
                h.setAttribute('y2', y);
                v.setAttribute('x1', x);
                v.setAttribute('x2', x);
                v.setAttribute('y1', '0');
                v.setAttribute('y2', '1024');

                // Calculate real coordinates using inverse transformation
                const matrix = {"a":94.39999999999996,"c":0,"e":511.99999999999994,"b":0,"d":-94.39999999999996,"f":512.0000000000001};
                // Manually invert and apply the affine transform
                // Since we only use translate and scale, we can directly compute:
                // x' = (x - tx) / sx
                // y' = (y - ty) / sy
                const sx = matrix.a;
                const sy = matrix.d;
                const tx = matrix.e; 
                const ty = matrix.f;
                const realPoint = {
                  x: (x - tx) / sx,
                  y: (y - ty) / sy // Flip y back since we used negative scale
                }
                
                coords.textContent = `(${realPoint.x.toFixed(2)}, ${realPoint.y.toFixed(2)})`;
                coords.setAttribute('x', (x + 5).toString());
                coords.setAttribute('y', (y - 5).toString());
              });
              document.currentScript.parentElement.addEventListener('mouseleave', () => {
                document.currentScript.parentElement.getElementById('crosshair').style.display = 'none';
              });
            ]]></script></svg>