<svg width="1024" height="1024" viewBox="0 0 1024 1024" xmlns="http://www.w3.org/2000/svg"><rect width="100%" height="100%" fill="white"/><g><circle data-type="point" data-label="conn_000" data-x="-3.74" data-y="5" cx="158.94400000000007" cy="40.000000000000284" r="14.16" fill="red"/></g><g><circle data-type="point" data-label="conn_000" data-x="-2.06" data-y="-5" cx="317.536" cy="984" r="14.16" fill="blue"/></g><g><circle data-type="point" data-label="conn_001" data-x="-4.6000000000000005" data-y="-5" cx="77.76000000000005" cy="984" r="14.16" fill="blue"/></g><g><circle data-type="point" data-label="conn_001" data-x="-3.86" data-y="5" cx="147.6160000000001" cy="40.000000000000284" r="14.16" fill="red"/></g><g><circle data-type="point" data-label="conn_002" data-x="-5" data-y="-2" cx="40.000000000000114" cy="700.8000000000001" r="14.16" fill="blue"/></g><g><circle data-type="point" data-label="conn_002" data-x="-1.56" data-y="-5" cx="364.736" cy="984" r="14.16" fill="red"/></g><g><circle data-type="point" data-label="conn_003" data-x="1.58" data-y="5" cx="661.1519999999999" cy="40.000000000000284" r="14.16" fill="blue"/></g><g><circle data-type="point" data-label="conn_003" data-x="-1.72" data-y="-5" cx="349.632" cy="984" r="14.16" fill="blue"/></g><g><circle data-type="point" data-label="conn_004" data-x="-5" data-y="4.7" cx="40.000000000000114" cy="68.32000000000028" r="14.16" fill="blue"/></g><g><circle data-type="point" data-label="conn_004" data-x="5" data-y="2.42" cx="983.9999999999998" cy="283.55200000000025" r="14.16" fill="red"/></g><g><circle data-type="point" data-label="conn_005" data-x="-1.6" data-y="-5" cx="360.96000000000004" cy="984" r="14.16" fill="blue"/></g><g><circle data-type="point" data-label="conn_005" data-x="-1.78" data-y="5" cx="343.968" cy="40.000000000000284" r="14.16" fill="red"/></g><g><circle data-type="point" data-label="conn_006" data-x="1.84" data-y="5" cx="685.6959999999999" cy="40.000000000000284" r="14.16" fill="red"/></g><g><circle data-type="point" data-label="conn_006" data-x="-4.64" data-y="-5" cx="73.98400000000015" cy="984" r="14.16" fill="red"/></g><g><polyline data-points="-1.5656565656565653,-5.000000000000001 -1.5656565656565653,-4.898989898989899 -1.5656565656565653,-4.7979797979797985 -1.5656565656565653,-4.696969696969697 -1.5656565656565653,-4.595959595959596 -1.5656565656565653,-4.494949494949496 -1.5656565656565653,-4.393939393939394 -1.5656565656565653,-4.292929292929293 -1.4646464646464643,-4.191919191919193 -1.363636363636363,-4.090909090909091 -1.2626262626262625,-3.98989898989899 -1.363636363636363,-3.8888888888888884 -1.4646464646464643,-3.7878787878787876 -1.5656565656565653,-3.6868686868686864 -1.6666666666666665,-3.5858585858585856 -1.7676767676767675,-3.484848484848485 -1.7676767676767675,-3.383838383838383 -1.7676767676767675,-3.2828282828282824 -1.7676767676767675,-3.1818181818181817 -1.7676767676767675,-3.0808080808080804 -1.7676767676767675,-2.9797979797979792 -1.7676767676767675,-2.8787878787878785 -1.7676767676767675,-2.7777777777777777 -1.7676767676767675,-2.6767676767676765 -1.7676767676767675,-2.5757575757575752 -1.7676767676767675,-2.474747474747474 -1.7676767676767675,-2.3737373737373733 -1.7676767676767675,-2.2727272727272725 -1.7676767676767675,-2.1717171717171713 -1.7676767676767675,-2.07070707070707 -1.7676767676767675,-1.9696969696969693 -1.7676767676767675,-1.8686868686868683 -1.7676767676767675,-1.7676767676767675 -1.7676767676767675,-1.6666666666666665 -1.7676767676767675,-1.5656565656565653 -1.7676767676767675,-1.4646464646464643 -1.7676767676767675,-1.363636363636363 -1.7676767676767675,-1.2626262626262625 -1.7676767676767675,-1.1616161616161613 -1.7676767676767675,-1.0606060606060603 -1.7676767676767675,-0.9595959595959596 -1.7676767676767675,-0.8585858585858579 -1.7676767676767675,-0.7575757575757572 -1.7676767676767675,-0.6565656565656557 -1.7676767676767675,-0.555555555555555 -1.7676767676767675,-0.4545454545454544 -1.7676767676767675,-0.35353535353535287 -1.7676767676767675,-0.2525252525252522 -1.7676767676767675,-0.15151515151515066 -1.7676767676767675,-0.05050505050505001 -1.7676767676767675,0.050505050505051545 -1.7676767676767675,0.1515151515151522 -1.7676767676767675,0.2525252525252529 -1.7676767676767675,0.3535353535353544 -1.7676767676767675,0.4545454545454551 -1.7676767676767675,0.5555555555555567 -1.7676767676767675,0.6565656565656574 -1.7676767676767675,0.7575757575757579 -1.7676767676767675,0.8585858585858596 -1.7676767676767675,0.9595959595959602 -1.7676767676767675,1.0606060606060617 -1.7676767676767675,1.1616161616161622 -1.7676767676767675,1.262626262626263 -1.7676767676767675,1.3636363636363644 -1.7676767676767675,1.4646464646464652 -1.7676767676767675,1.5656565656565666 -1.7676767676767675,1.6666666666666674 -1.7676767676767675,1.767676767676768 -1.7676767676767675,1.8686868686868696 -1.7676767676767675,1.9696969696969702 -1.7676767676767675,2.070707070707072 -1.7676767676767675,2.1717171717171726 -1.7676767676767675,2.2727272727272734 -1.7676767676767675,2.373737373737375 -1.7676767676767675,2.4747474747474754 -1.7676767676767675,2.575757575757577 -1.7676767676767675,2.676767676767678 -1.7676767676767675,2.7777777777777786 -1.7676767676767675,2.87878787878788 -1.7676767676767675,2.9797979797979806 -1.7676767676767675,3.080808080808082 -1.7676767676767675,3.181818181818183 -1.7676767676767675,3.2828282828282833 -1.7676767676767675,3.383838383838384 -1.7676767676767675,3.4848484848484866 -1.7676767676767675,3.5858585858585874 -1.7676767676767675,3.6868686868686877 -1.7676767676767675,3.7878787878787885 -1.7676767676767675,3.8888888888888893 -1.7676767676767675,3.989898989898992" data-type="line" data-label="" points="364.2020202020202,984 364.2020202020202,974.4646464646464 364.2020202020202,964.9292929292928 364.2020202020202,955.3939393939394 364.2020202020202,945.8585858585858 364.2020202020202,936.3232323232323 364.2020202020202,926.7878787878788 364.2020202020202,917.2525252525252 373.7373737373738,907.7171717171718 383.2727272727273,898.1818181818181 392.80808080808083,888.6464646464647 383.2727272727273,879.1111111111111 373.7373737373738,869.5757575757575 364.2020202020202,860.0404040404039 354.6666666666667,850.5050505050505 345.13131313131316,840.969696969697 345.13131313131316,831.4343434343434 345.13131313131316,821.8989898989898 345.13131313131316,812.3636363636363 345.13131313131316,802.8282828282828 345.13131313131316,793.2929292929292 345.13131313131316,783.7575757575758 345.13131313131316,774.2222222222222 345.13131313131316,764.6868686868687 345.13131313131316,755.1515151515151 345.13131313131316,745.6161616161615 345.13131313131316,736.0808080808081 345.13131313131316,726.5454545454545 345.13131313131316,717.010101010101 345.13131313131316,707.4747474747475 345.13131313131316,697.939393939394 345.13131313131316,688.4040404040404 345.13131313131316,678.8686868686868 345.13131313131316,669.3333333333334 345.13131313131316,659.7979797979798 345.13131313131316,650.2626262626263 345.13131313131316,640.7272727272727 345.13131313131316,631.1919191919193 345.13131313131316,621.6565656565657 345.13131313131316,612.1212121212121 345.13131313131316,602.5858585858587 345.13131313131316,593.0505050505051 345.13131313131316,583.5151515151516 345.13131313131316,573.979797979798 345.13131313131316,564.4444444444445 345.13131313131316,554.909090909091 345.13131313131316,545.3737373737374 345.13131313131316,535.838383838384 345.13131313131316,526.3030303030304 345.13131313131316,516.7676767676768 345.13131313131316,507.23232323232327 345.13131313131316,497.69696969696975 345.13131313131316,488.1616161616163 345.13131313131316,478.6262626262627 345.13131313131316,469.0909090909092 345.13131313131316,459.5555555555556 345.13131313131316,450.0202020202021 345.13131313131316,440.4848484848486 345.13131313131316,430.94949494949503 345.13131313131316,421.4141414141415 345.13131313131316,411.87878787878793 345.13131313131316,402.3434343434344 345.13131313131316,392.80808080808094 345.13131313131316,383.27272727272737 345.13131313131316,373.73737373737384 345.13131313131316,364.2020202020203 345.13131313131316,354.66666666666674 345.13131313131316,345.1313131313133 345.13131313131316,335.5959595959597 345.13131313131316,326.06060606060623 345.13131313131316,316.5252525252526 345.13131313131316,306.9898989898991 345.13131313131316,297.4545454545456 345.13131313131316,287.91919191919203 345.13131313131316,278.38383838383857 345.13131313131316,268.84848484848493 345.13131313131316,259.3131313131314 345.13131313131316,249.77777777777794 345.13131313131316,240.24242424242436 345.13131313131316,230.70707070707084 345.13131313131316,221.17171717171726 345.13131313131316,211.63636363636374 345.13131313131316,202.10101010101027 345.13131313131316,192.56565656565675 345.13131313131316,183.03030303030312 345.13131313131316,173.4949494949496 345.13131313131316,163.95959595959613 345.13131313131316,154.4242424242426 345.13131313131316,144.88888888888908 345.13131313131316,135.35353535353545" fill="none" stroke="rgba(0,0,255,0.75)" stroke-width="11.327999999999996"/></g><g><polyline data-points="-1.7676767676767675,3.989898989898992 -1.7676767676767675,4.090909090909092 -1.7676767676767675,4.191919191919193 -1.7676767676767675,4.292929292929293 -1.7676767676767675,4.393939393939394 -1.7676767676767675,4.494949494949497 -1.7676767676767675,4.595959595959597 -1.7676767676767675,4.696969696969697 -1.7676767676767675,4.7979797979797985 -1.7676767676767675,4.898989898989901 -1.7676767676767675,5.000000000000002" data-type="line" data-label="" points="345.13131313131316,135.35353535353545 345.13131313131316,125.81818181818198 345.13131313131316,116.28282828282846 345.13131313131316,106.747474747475 345.13131313131316,97.21212121212153 345.13131313131316,87.67676767676778 345.13131313131316,78.14141414141432 345.13131313131316,68.60606060606085 345.13131313131316,59.07070707070733 345.13131313131316,49.53535353535369 345.13131313131316,40.000000000000114" fill="none" stroke="rgba(255,0,0,0.75)" stroke-width="11.327999999999996"/></g><g><polyline data-points="-4.696969696969697,-5.000000000000001 -4.595959595959596,-4.898989898989899 -4.494949494949496,-4.7979797979797985 -4.393939393939394,-4.696969696969697 -4.292929292929293,-4.595959595959596 -4.191919191919193,-4.494949494949496 -4.090909090909091,-4.393939393939394 -3.98989898989899,-4.292929292929293 -3.8888888888888884,-4.191919191919193 -3.8888888888888884,-4.090909090909091 -3.8888888888888884,-3.98989898989899 -3.8888888888888884,-3.8888888888888884 -3.8888888888888884,-3.7878787878787876 -3.8888888888888884,-3.6868686868686864 -3.8888888888888884,-3.5858585858585856" data-type="line" data-label="" points="68.60606060606068,984 78.14141414141426,974.4646464646464 87.67676767676772,964.9292929292928 97.21212121212136,955.3939393939394 106.74747474747483,945.8585858585858 116.28282828282829,936.3232323232323 125.81818181818193,926.7878787878788 135.35353535353545,917.2525252525252 144.88888888888903,907.7171717171718 144.88888888888903,898.1818181818181 144.88888888888903,888.6464646464647 144.88888888888903,879.1111111111111 144.88888888888903,869.5757575757575 144.88888888888903,860.0404040404039 144.88888888888903,850.5050505050505" fill="none" stroke="rgba(0,0,255,0.75)" stroke-width="11.327999999999996"/></g><g><polyline data-points="-3.8888888888888884,-3.5858585858585856 -3.8888888888888884,-3.484848484848485 -3.8888888888888884,-3.383838383838383 -3.8888888888888884,-3.2828282828282824 -3.8888888888888884,-3.1818181818181817 -3.8888888888888884,-3.0808080808080804 -3.8888888888888884,-2.9797979797979792 -3.8888888888888884,-2.8787878787878785 -3.8888888888888884,-2.7777777777777777 -3.8888888888888884,-2.6767676767676765 -3.8888888888888884,-2.5757575757575752 -3.8888888888888884,-2.474747474747474 -3.8888888888888884,-2.3737373737373733 -3.8888888888888884,-2.2727272727272725 -3.8888888888888884,-2.1717171717171713 -3.8888888888888884,-2.07070707070707 -3.8888888888888884,-1.9696969696969693 -3.8888888888888884,-1.8686868686868683 -3.8888888888888884,-1.7676767676767675 -3.8888888888888884,-1.6666666666666665 -3.8888888888888884,-1.5656565656565653 -3.8888888888888884,-1.4646464646464643 -3.8888888888888884,-1.363636363636363 -3.8888888888888884,-1.2626262626262625 -3.8888888888888884,-1.1616161616161613 -3.8888888888888884,-1.0606060606060603 -3.8888888888888884,-0.9595959595959596 -3.8888888888888884,-0.8585858585858579 -3.8888888888888884,-0.7575757575757572 -3.8888888888888884,-0.6565656565656557 -3.8888888888888884,-0.555555555555555 -3.8888888888888884,-0.4545454545454544 -3.8888888888888884,-0.35353535353535287 -3.8888888888888884,-0.2525252525252522 -3.8888888888888884,-0.15151515151515066 -3.8888888888888884,-0.05050505050505001 -3.8888888888888884,0.050505050505051545 -3.8888888888888884,0.1515151515151522 -3.8888888888888884,0.2525252525252529 -3.8888888888888884,0.3535353535353544 -3.8888888888888884,0.4545454545454551 -3.8888888888888884,0.5555555555555567 -3.8888888888888884,0.6565656565656574 -3.8888888888888884,0.7575757575757579 -3.8888888888888884,0.8585858585858596 -3.8888888888888884,0.9595959595959602 -3.8888888888888884,1.0606060606060617 -3.8888888888888884,1.1616161616161622 -3.8888888888888884,1.262626262626263 -3.8888888888888884,1.3636363636363644 -3.8888888888888884,1.4646464646464652 -3.8888888888888884,1.5656565656565666 -3.8888888888888884,1.6666666666666674 -3.8888888888888884,1.767676767676768 -3.8888888888888884,1.8686868686868696 -3.8888888888888884,1.9696969696969702 -3.8888888888888884,2.070707070707072 -3.8888888888888884,2.1717171717171726 -3.8888888888888884,2.2727272727272734 -3.8888888888888884,2.373737373737375 -3.8888888888888884,2.4747474747474754 -3.8888888888888884,2.575757575757577 -3.8888888888888884,2.676767676767678 -3.8888888888888884,2.7777777777777786 -3.8888888888888884,2.87878787878788 -3.8888888888888884,2.9797979797979806 -3.8888888888888884,3.080808080808082 -3.8888888888888884,3.181818181818183 -3.8888888888888884,3.2828282828282833 -3.8888888888888884,3.383838383838384 -3.8888888888888884,3.4848484848484866 -3.8888888888888884,3.5858585858585874 -3.8888888888888884,3.6868686868686877 -3.8888888888888884,3.7878787878787885 -3.8888888888888884,3.8888888888888893 -3.8888888888888884,3.989898989898992 -3.8888888888888884,4.090909090909092 -3.8888888888888884,4.191919191919193 -3.8888888888888884,4.292929292929293 -3.8888888888888884,4.393939393939394 -3.8888888888888884,4.494949494949497 -3.8888888888888884,4.595959595959597 -3.8888888888888884,4.696969696969697 -3.8888888888888884,4.7979797979797985 -3.8888888888888884,4.898989898989901 -3.8888888888888884,5.000000000000002" data-type="line" data-label="" points="144.88888888888903,850.5050505050505 144.88888888888903,840.969696969697 144.88888888888903,831.4343434343434 144.88888888888903,821.8989898989898 144.88888888888903,812.3636363636363 144.88888888888903,802.8282828282828 144.88888888888903,793.2929292929292 144.88888888888903,783.7575757575758 144.88888888888903,774.2222222222222 144.88888888888903,764.6868686868687 144.88888888888903,755.1515151515151 144.88888888888903,745.6161616161615 144.88888888888903,736.0808080808081 144.88888888888903,726.5454545454545 144.88888888888903,717.010101010101 144.88888888888903,707.4747474747475 144.88888888888903,697.939393939394 144.88888888888903,688.4040404040404 144.88888888888903,678.8686868686868 144.88888888888903,669.3333333333334 144.88888888888903,659.7979797979798 144.88888888888903,650.2626262626263 144.88888888888903,640.7272727272727 144.88888888888903,631.1919191919193 144.88888888888903,621.6565656565657 144.88888888888903,612.1212121212121 144.88888888888903,602.5858585858587 144.88888888888903,593.0505050505051 144.88888888888903,583.5151515151516 144.88888888888903,573.979797979798 144.88888888888903,564.4444444444445 144.88888888888903,554.909090909091 144.88888888888903,545.3737373737374 144.88888888888903,535.838383838384 144.88888888888903,526.3030303030304 144.88888888888903,516.7676767676768 144.88888888888903,507.23232323232327 144.88888888888903,497.69696969696975 144.88888888888903,488.1616161616163 144.88888888888903,478.6262626262627 144.88888888888903,469.0909090909092 144.88888888888903,459.5555555555556 144.88888888888903,450.0202020202021 144.88888888888903,440.4848484848486 144.88888888888903,430.94949494949503 144.88888888888903,421.4141414141415 144.88888888888903,411.87878787878793 144.88888888888903,402.3434343434344 144.88888888888903,392.80808080808094 144.88888888888903,383.27272727272737 144.88888888888903,373.73737373737384 144.88888888888903,364.2020202020203 144.88888888888903,354.66666666666674 144.88888888888903,345.1313131313133 144.88888888888903,335.5959595959597 144.88888888888903,326.06060606060623 144.88888888888903,316.5252525252526 144.88888888888903,306.9898989898991 144.88888888888903,297.4545454545456 144.88888888888903,287.91919191919203 144.88888888888903,278.38383838383857 144.88888888888903,268.84848484848493 144.88888888888903,259.3131313131314 144.88888888888903,249.77777777777794 144.88888888888903,240.24242424242436 144.88888888888903,230.70707070707084 144.88888888888903,221.17171717171726 144.88888888888903,211.63636363636374 144.88888888888903,202.10101010101027 144.88888888888903,192.56565656565675 144.88888888888903,183.03030303030312 144.88888888888903,173.4949494949496 144.88888888888903,163.95959595959613 144.88888888888903,154.4242424242426 144.88888888888903,144.88888888888908 144.88888888888903,135.35353535353545 144.88888888888903,125.81818181818198 144.88888888888903,116.28282828282846 144.88888888888903,106.747474747475 144.88888888888903,97.21212121212153 144.88888888888903,87.67676767676778 144.88888888888903,78.14141414141432 144.88888888888903,68.60606060606085 144.88888888888903,59.07070707070733 144.88888888888903,49.53535353535369 144.88888888888903,40.000000000000114" fill="none" stroke="rgba(255,0,0,0.75)" stroke-width="11.327999999999996"/></g><g><polyline data-points="1.8686868686868696,5.000000000000002 1.767676767676768,4.898989898989901 1.6666666666666674,4.7979797979797985 1.5656565656565666,4.696969696969697 1.4646464646464652,4.595959595959597 1.3636363636363644,4.494949494949497 1.262626262626263,4.393939393939394 1.1616161616161622,4.292929292929293 1.0606060606060617,4.191919191919193 0.9595959595959602,4.090909090909092 0.8585858585858596,3.989898989898992 0.7575757575757579,3.8888888888888893 0.6565656565656574,3.7878787878787885 0.5555555555555567,3.6868686868686877 0.4545454545454551,3.5858585858585874 0.3535353535353544,3.4848484848484866 0.2525252525252529,3.383838383838384 0.1515151515151522,3.2828282828282833 0.050505050505051545,3.181818181818183 -0.05050505050505001,3.080808080808082 -0.15151515151515066,2.9797979797979806 -0.2525252525252522,2.87878787878788 -0.35353535353535287,2.7777777777777786 -0.4545454545454544,2.676767676767678 -0.555555555555555,2.575757575757577 -0.6565656565656557,2.4747474747474754 -0.7575757575757572,2.373737373737375 -0.8585858585858579,2.2727272727272734 -0.9595959595959596,2.1717171717171726 -1.0606060606060603,2.070707070707072 -1.1616161616161613,1.9696969696969702 -1.2626262626262625,1.8686868686868696 -1.363636363636363,1.767676767676768 -1.4646464646464643,1.6666666666666674 -1.5656565656565653,1.5656565656565666 -1.6666666666666665,1.4646464646464652 -1.7676767676767675,1.3636363636363644 -1.8686868686868683,1.262626262626263 -1.9696969696969693,1.1616161616161622 -2.07070707070707,1.0606060606060617 -2.1717171717171713,0.9595959595959602 -2.2727272727272725,0.8585858585858596 -2.3737373737373733,0.7575757575757579 -2.474747474747474,0.6565656565656574 -2.5757575757575752,0.5555555555555567 -2.6767676767676765,0.4545454545454551 -2.7777777777777777,0.3535353535353544 -2.8787878787878785,0.2525252525252529 -2.9797979797979792,0.1515151515151522 -3.0808080808080804,0.050505050505051545 -3.1818181818181817,-0.05050505050505001 -3.2828282828282824,-0.15151515151515066 -3.383838383838383,-0.2525252525252522 -3.484848484848485,-0.35353535353535287 -3.5858585858585856,-0.4545454545454544 -3.5858585858585856,-0.555555555555555 -3.5858585858585856,-0.6565656565656557 -3.5858585858585856,-0.7575757575757572 -3.5858585858585856,-0.8585858585858579 -3.5858585858585856,-0.9595959595959596 -3.5858585858585856,-1.0606060606060603 -3.5858585858585856,-1.1616161616161613 -3.5858585858585856,-1.2626262626262625 -3.5858585858585856,-1.363636363636363 -3.5858585858585856,-1.4646464646464643 -3.5858585858585856,-1.5656565656565653 -3.5858585858585856,-1.6666666666666665 -3.5858585858585856,-1.7676767676767675 -3.5858585858585856,-1.8686868686868683 -3.5858585858585856,-1.9696969696969693 -3.5858585858585856,-2.07070707070707 -3.5858585858585856,-2.1717171717171713 -3.5858585858585856,-2.2727272727272725 -3.5858585858585856,-2.3737373737373733 -3.5858585858585856,-2.474747474747474 -3.5858585858585856,-2.5757575757575752 -3.5858585858585856,-2.6767676767676765 -3.5858585858585856,-2.7777777777777777 -3.5858585858585856,-2.8787878787878785 -3.5858585858585856,-2.9797979797979792 -3.5858585858585856,-3.0808080808080804 -3.5858585858585856,-3.1818181818181817 -3.5858585858585856,-3.2828282828282824 -3.5858585858585856,-3.383838383838383 -3.5858585858585856,-3.484848484848485 -3.5858585858585856,-3.5858585858585856 -3.6868686868686864,-3.6868686868686864 -3.7878787878787876,-3.7878787878787876 -3.8888888888888884,-3.8888888888888884 -3.98989898989899,-3.98989898989899 -4.090909090909091,-4.090909090909091 -4.191919191919193,-4.191919191919193 -4.292929292929293,-4.292929292929293 -4.393939393939394,-4.393939393939394 -4.494949494949496,-4.494949494949496 -4.595959595959596,-4.595959595959596 -4.696969696969697,-4.696969696969697 -4.696969696969697,-4.7979797979797985 -4.696969696969697,-4.898989898989899 -4.696969696969697,-5.000000000000001" data-type="line" data-label="" points="688.4040404040404,40.000000000000114 678.8686868686868,49.53535353535369 669.3333333333333,59.07070707070733 659.7979797979798,68.60606060606085 650.2626262626262,78.14141414141432 640.7272727272727,87.67676767676778 631.1919191919192,97.21212121212153 621.6565656565656,106.747474747475 612.1212121212121,116.28282828282846 602.5858585858585,125.81818181818198 593.0505050505051,135.35353535353545 583.5151515151515,144.88888888888908 573.9797979797979,154.4242424242426 564.4444444444445,163.95959595959613 554.9090909090909,173.4949494949496 545.3737373737374,183.03030303030312 535.8383838383838,192.56565656565675 526.3030303030303,202.10101010101027 516.7676767676768,211.63636363636374 507.2323232323232,221.17171717171726 497.69696969696975,230.70707070707084 488.16161616161617,240.24242424242436 478.62626262626264,249.77777777777794 469.09090909090907,259.3131313131314 459.55555555555554,268.84848484848493 450.0202020202021,278.38383838383857 440.4848484848485,287.91919191919203 430.949494949495,297.4545454545456 421.4141414141414,306.9898989898991 411.8787878787879,316.5252525252526 402.34343434343435,326.06060606060623 392.80808080808083,335.5959595959597 383.2727272727273,345.1313131313133 373.7373737373738,354.66666666666674 364.2020202020202,364.2020202020203 354.6666666666667,373.73737373737384 345.13131313131316,383.27272727272737 335.59595959595964,392.80808080808094 326.0606060606061,402.3434343434344 316.5252525252526,411.87878787878793 306.9898989898991,421.4141414141415 297.4545454545455,430.94949494949503 287.91919191919203,440.4848484848486 278.38383838383845,450.0202020202021 268.84848484848493,459.5555555555556 259.3131313131314,469.0909090909092 249.77777777777783,478.6262626262627 240.2424242424243,488.1616161616163 230.70707070707084,497.69696969696975 221.17171717171726,507.23232323232327 211.63636363636374,516.7676767676768 202.10101010101022,526.3030303030304 192.5656565656567,535.838383838384 183.03030303030312,545.3737373737374 173.4949494949496,554.909090909091 173.4949494949496,564.4444444444445 173.4949494949496,573.979797979798 173.4949494949496,583.5151515151516 173.4949494949496,593.0505050505051 173.4949494949496,602.5858585858587 173.4949494949496,612.1212121212121 173.4949494949496,621.6565656565657 173.4949494949496,631.1919191919193 173.4949494949496,640.7272727272727 173.4949494949496,650.2626262626263 173.4949494949496,659.7979797979798 173.4949494949496,669.3333333333334 173.4949494949496,678.8686868686868 173.4949494949496,688.4040404040404 173.4949494949496,697.939393939394 173.4949494949496,707.4747474747475 173.4949494949496,717.010101010101 173.4949494949496,726.5454545454545 173.4949494949496,736.0808080808081 173.4949494949496,745.6161616161615 173.4949494949496,755.1515151515151 173.4949494949496,764.6868686868687 173.4949494949496,774.2222222222222 173.4949494949496,783.7575757575758 173.4949494949496,793.2929292929292 173.4949494949496,802.8282828282828 173.4949494949496,812.3636363636363 173.4949494949496,821.8989898989898 173.4949494949496,831.4343434343434 173.4949494949496,840.969696969697 173.4949494949496,850.5050505050505 163.95959595959607,860.0404040404039 154.42424242424255,869.5757575757575 144.88888888888903,879.1111111111111 135.35353535353545,888.6464646464647 125.81818181818193,898.1818181818181 116.28282828282829,907.7171717171718 106.74747474747483,917.2525252525252 97.21212121212136,926.7878787878788 87.67676767676772,936.3232323232323 78.14141414141426,945.8585858585858 68.60606060606068,955.3939393939394 68.60606060606068,964.9292929292928 68.60606060606068,974.4646464646464 68.60606060606068,984" fill="none" stroke="rgba(255,0,0,0.75)" stroke-width="11.327999999999996"/></g><g><polyline data-points="-3.7878787878787876,5.000000000000002 -3.6868686868686864,4.898989898989901 -3.5858585858585856,4.7979797979797985 -3.484848484848485,4.696969696969697 -3.383838383838383,4.595959595959597 -3.2828282828282824,4.494949494949497 -3.1818181818181817,4.393939393939394 -3.0808080808080804,4.292929292929293 -2.9797979797979792,4.191919191919193 -2.8787878787878785,4.090909090909092 -2.7777777777777777,3.989898989898992 -2.6767676767676765,3.8888888888888893 -2.5757575757575752,3.7878787878787885 -2.5757575757575752,3.6868686868686877 -2.5757575757575752,3.5858585858585874 -2.5757575757575752,3.4848484848484866 -2.5757575757575752,3.383838383838384 -2.5757575757575752,3.2828282828282833 -2.5757575757575752,3.181818181818183 -2.5757575757575752,3.080808080808082 -2.5757575757575752,2.9797979797979806 -2.5757575757575752,2.87878787878788 -2.5757575757575752,2.7777777777777786 -2.5757575757575752,2.676767676767678 -2.5757575757575752,2.575757575757577 -2.5757575757575752,2.4747474747474754 -2.5757575757575752,2.373737373737375 -2.5757575757575752,2.2727272727272734 -2.5757575757575752,2.1717171717171726 -2.5757575757575752,2.070707070707072 -2.5757575757575752,1.9696969696969702 -2.5757575757575752,1.8686868686868696 -2.5757575757575752,1.767676767676768 -2.5757575757575752,1.6666666666666674 -2.5757575757575752,1.5656565656565666 -2.5757575757575752,1.4646464646464652 -2.5757575757575752,1.3636363636363644 -2.5757575757575752,1.262626262626263 -2.5757575757575752,1.1616161616161622 -2.5757575757575752,1.0606060606060617" data-type="line" data-label="" points="154.42424242424255,40.000000000000114 163.95959595959607,49.53535353535369 173.4949494949496,59.07070707070733 183.03030303030312,68.60606060606085 192.5656565656567,78.14141414141432 202.10101010101022,87.67676767676778 211.63636363636374,97.21212121212153 221.17171717171726,106.747474747475 230.70707070707084,116.28282828282846 240.2424242424243,125.81818181818198 249.77777777777783,135.35353535353545 259.3131313131314,144.88888888888908 268.84848484848493,154.4242424242426 268.84848484848493,163.95959595959613 268.84848484848493,173.4949494949496 268.84848484848493,183.03030303030312 268.84848484848493,192.56565656565675 268.84848484848493,202.10101010101027 268.84848484848493,211.63636363636374 268.84848484848493,221.17171717171726 268.84848484848493,230.70707070707084 268.84848484848493,240.24242424242436 268.84848484848493,249.77777777777794 268.84848484848493,259.3131313131314 268.84848484848493,268.84848484848493 268.84848484848493,278.38383838383857 268.84848484848493,287.91919191919203 268.84848484848493,297.4545454545456 268.84848484848493,306.9898989898991 268.84848484848493,316.5252525252526 268.84848484848493,326.06060606060623 268.84848484848493,335.5959595959597 268.84848484848493,345.1313131313133 268.84848484848493,354.66666666666674 268.84848484848493,364.2020202020203 268.84848484848493,373.73737373737384 268.84848484848493,383.27272727272737 268.84848484848493,392.80808080808094 268.84848484848493,402.3434343434344 268.84848484848493,411.87878787878793" fill="none" stroke="rgba(255,0,0,0.75)" stroke-width="11.327999999999996"/></g><g><polyline data-points="-2.5757575757575752,1.0606060606060617 -2.5757575757575752,0.9595959595959602 -2.5757575757575752,0.8585858585858596 -2.5757575757575752,0.7575757575757579 -2.5757575757575752,0.6565656565656574 -2.5757575757575752,0.5555555555555567 -2.5757575757575752,0.4545454545454551 -2.5757575757575752,0.3535353535353544 -2.5757575757575752,0.2525252525252529 -2.5757575757575752,0.1515151515151522 -2.5757575757575752,0.050505050505051545 -2.5757575757575752,-0.05050505050505001 -2.5757575757575752,-0.15151515151515066 -2.5757575757575752,-0.2525252525252522 -2.5757575757575752,-0.35353535353535287 -2.5757575757575752,-0.4545454545454544 -2.5757575757575752,-0.555555555555555 -2.5757575757575752,-0.6565656565656557 -2.5757575757575752,-0.7575757575757572 -2.5757575757575752,-0.8585858585858579 -2.5757575757575752,-0.9595959595959596 -2.5757575757575752,-1.0606060606060603 -2.5757575757575752,-1.1616161616161613 -2.5757575757575752,-1.2626262626262625 -2.5757575757575752,-1.363636363636363 -2.5757575757575752,-1.4646464646464643 -2.5757575757575752,-1.5656565656565653 -2.5757575757575752,-1.6666666666666665 -2.5757575757575752,-1.7676767676767675 -2.5757575757575752,-1.8686868686868683 -2.5757575757575752,-1.9696969696969693 -2.5757575757575752,-2.07070707070707 -2.5757575757575752,-2.1717171717171713 -2.5757575757575752,-2.2727272727272725 -2.5757575757575752,-2.3737373737373733 -2.5757575757575752,-2.474747474747474 -2.5757575757575752,-2.5757575757575752 -2.5757575757575752,-2.6767676767676765 -2.5757575757575752,-2.7777777777777777 -2.5757575757575752,-2.8787878787878785 -2.5757575757575752,-2.9797979797979792 -2.5757575757575752,-3.0808080808080804 -2.5757575757575752,-3.1818181818181817 -2.5757575757575752,-3.2828282828282824 -2.5757575757575752,-3.383838383838383 -2.5757575757575752,-3.484848484848485 -2.5757575757575752,-3.5858585858585856" data-type="line" data-label="" points="268.84848484848493,411.87878787878793 268.84848484848493,421.4141414141415 268.84848484848493,430.94949494949503 268.84848484848493,440.4848484848486 268.84848484848493,450.0202020202021 268.84848484848493,459.5555555555556 268.84848484848493,469.0909090909092 268.84848484848493,478.6262626262627 268.84848484848493,488.1616161616163 268.84848484848493,497.69696969696975 268.84848484848493,507.23232323232327 268.84848484848493,516.7676767676768 268.84848484848493,526.3030303030304 268.84848484848493,535.838383838384 268.84848484848493,545.3737373737374 268.84848484848493,554.909090909091 268.84848484848493,564.4444444444445 268.84848484848493,573.979797979798 268.84848484848493,583.5151515151516 268.84848484848493,593.0505050505051 268.84848484848493,602.5858585858587 268.84848484848493,612.1212121212121 268.84848484848493,621.6565656565657 268.84848484848493,631.1919191919193 268.84848484848493,640.7272727272727 268.84848484848493,650.2626262626263 268.84848484848493,659.7979797979798 268.84848484848493,669.3333333333334 268.84848484848493,678.8686868686868 268.84848484848493,688.4040404040404 268.84848484848493,697.939393939394 268.84848484848493,707.4747474747475 268.84848484848493,717.010101010101 268.84848484848493,726.5454545454545 268.84848484848493,736.0808080808081 268.84848484848493,745.6161616161615 268.84848484848493,755.1515151515151 268.84848484848493,764.6868686868687 268.84848484848493,774.2222222222222 268.84848484848493,783.7575757575758 268.84848484848493,793.2929292929292 268.84848484848493,802.8282828282828 268.84848484848493,812.3636363636363 268.84848484848493,821.8989898989898 268.84848484848493,831.4343434343434 268.84848484848493,840.969696969697 268.84848484848493,850.5050505050505" fill="none" stroke="rgba(0,0,255,0.75)" stroke-width="11.327999999999996"/></g><g><polyline data-points="-2.5757575757575752,-3.5858585858585856 -2.6767676767676765,-3.6868686868686864 -2.7777777777777777,-3.7878787878787876 -2.8787878787878785,-3.8888888888888884 -2.9797979797979792,-3.98989898989899 -3.0808080808080804,-4.090909090909091 -3.1818181818181817,-4.090909090909091 -3.2828282828282824,-4.090909090909091 -3.383838383838383,-4.090909090909091 -3.484848484848485,-3.98989898989899" data-type="line" data-label="" points="268.84848484848493,850.5050505050505 259.3131313131314,860.0404040404039 249.77777777777783,869.5757575757575 240.2424242424243,879.1111111111111 230.70707070707084,888.6464646464647 221.17171717171726,898.1818181818181 211.63636363636374,898.1818181818181 202.10101010101022,898.1818181818181 192.5656565656567,898.1818181818181 183.03030303030312,888.6464646464647" fill="none" stroke="rgba(255,0,0,0.75)" stroke-width="11.327999999999996"/></g><g><polyline data-points="-3.484848484848485,-3.98989898989899 -3.484848484848485,-4.090909090909091 -3.5858585858585856,-4.191919191919193 -3.484848484848485,-4.292929292929293 -3.383838383838383,-4.393939393939394 -3.2828282828282824,-4.494949494949496 -3.1818181818181817,-4.595959595959596 -3.0808080808080804,-4.696969696969697 -2.9797979797979792,-4.7979797979797985 -2.8787878787878785,-4.898989898989899 -2.7777777777777777,-5.000000000000001 -2.6767676767676765,-5.000000000000001 -2.5757575757575752,-5.000000000000001 -2.474747474747474,-5.000000000000001 -2.3737373737373733,-5.000000000000001 -2.2727272727272725,-5.000000000000001 -2.1717171717171713,-5.000000000000001 -2.07070707070707,-5.000000000000001" data-type="line" data-label="" points="183.03030303030312,888.6464646464647 183.03030303030312,898.1818181818181 173.4949494949496,907.7171717171718 183.03030303030312,917.2525252525252 192.5656565656567,926.7878787878788 202.10101010101022,936.3232323232323 211.63636363636374,945.8585858585858 221.17171717171726,955.3939393939394 230.70707070707084,964.9292929292928 240.2424242424243,974.4646464646464 249.77777777777783,984 259.3131313131314,984 268.84848484848493,984 278.38383838383845,984 287.91919191919203,984 297.4545454545455,984 306.9898989898991,984 316.5252525252526,984" fill="none" stroke="rgba(0,0,255,0.75)" stroke-width="11.327999999999996"/></g><g><polyline data-points="-5.000000000000001,4.696969696969697 -4.898989898989899,4.595959595959597 -4.7979797979797985,4.494949494949497 -4.696969696969697,4.393939393939394 -4.595959595959596,4.292929292929293 -4.494949494949496,4.191919191919193 -4.393939393939394,4.090909090909092 -4.292929292929293,3.989898989898992 -4.191919191919193,3.8888888888888893 -4.090909090909091,3.7878787878787885 -3.98989898989899,3.6868686868686877 -3.8888888888888884,3.5858585858585874 -3.7878787878787876,3.4848484848484866 -3.6868686868686864,3.383838383838384 -3.5858585858585856,3.2828282828282833 -3.484848484848485,3.181818181818183 -3.383838383838383,3.080808080808082 -3.2828282828282824,2.9797979797979806 -3.1818181818181817,2.87878787878788 -3.0808080808080804,2.7777777777777786 -2.9797979797979792,2.676767676767678 -2.8787878787878785,2.575757575757577 -2.7777777777777777,2.575757575757577 -2.6767676767676765,2.575757575757577 -2.5757575757575752,2.575757575757577 -2.474747474747474,2.575757575757577 -2.3737373737373733,2.575757575757577 -2.2727272727272725,2.575757575757577 -2.1717171717171713,2.575757575757577" data-type="line" data-label="" points="40.00000000000006,68.60606060606085 49.53535353535369,78.14141414141432 59.07070707070716,87.67676767676778 68.60606060606068,97.21212121212153 78.14141414141426,106.747474747475 87.67676767676772,116.28282828282846 97.21212121212136,125.81818181818198 106.74747474747483,135.35353535353545 116.28282828282829,144.88888888888908 125.81818181818193,154.4242424242426 135.35353535353545,163.95959595959613 144.88888888888903,173.4949494949496 154.42424242424255,183.03030303030312 163.95959595959607,192.56565656565675 173.4949494949496,202.10101010101027 183.03030303030312,211.63636363636374 192.5656565656567,221.17171717171726 202.10101010101022,230.70707070707084 211.63636363636374,240.24242424242436 221.17171717171726,249.77777777777794 230.70707070707084,259.3131313131314 240.2424242424243,268.84848484848493 249.77777777777783,268.84848484848493 259.3131313131314,268.84848484848493 268.84848484848493,268.84848484848493 278.38383838383845,268.84848484848493 287.91919191919203,268.84848484848493 297.4545454545455,268.84848484848493 306.9898989898991,268.84848484848493" fill="none" stroke="rgba(0,0,255,0.75)" stroke-width="11.327999999999996"/></g><g><polyline data-points="-2.1717171717171713,2.575757575757577 -2.07070707070707,2.575757575757577 -1.9696969696969693,2.575757575757577 -1.8686868686868683,2.575757575757577 -1.7676767676767675,2.575757575757577 -1.6666666666666665,2.575757575757577 -1.5656565656565653,2.575757575757577 -1.4646464646464643,2.575757575757577 -1.363636363636363,2.575757575757577 -1.2626262626262625,2.575757575757577 -1.1616161616161613,2.575757575757577 -1.0606060606060603,2.575757575757577" data-type="line" data-label="" points="306.9898989898991,268.84848484848493 316.5252525252526,268.84848484848493 326.0606060606061,268.84848484848493 335.59595959595964,268.84848484848493 345.13131313131316,268.84848484848493 354.6666666666667,268.84848484848493 364.2020202020202,268.84848484848493 373.7373737373738,268.84848484848493 383.2727272727273,268.84848484848493 392.80808080808083,268.84848484848493 402.34343434343435,268.84848484848493 411.8787878787879,268.84848484848493" fill="none" stroke="rgba(255,0,0,0.75)" stroke-width="11.327999999999996"/></g><g><polyline data-points="-1.0606060606060603,2.575757575757577 -0.9595959595959596,2.575757575757577 -0.8585858585858579,2.4747474747474754 -0.7575757575757572,2.4747474747474754 -0.6565656565656557,2.4747474747474754 -0.555555555555555,2.4747474747474754 -0.4545454545454544,2.4747474747474754 -0.35353535353535287,2.4747474747474754 -0.2525252525252522,2.4747474747474754 -0.15151515151515066,2.4747474747474754 -0.05050505050505001,2.4747474747474754 0.050505050505051545,2.4747474747474754 0.1515151515151522,2.4747474747474754 0.2525252525252529,2.4747474747474754 0.3535353535353544,2.4747474747474754 0.4545454545454551,2.4747474747474754 0.5555555555555567,2.4747474747474754 0.6565656565656574,2.4747474747474754 0.7575757575757579,2.4747474747474754 0.8585858585858596,2.4747474747474754 0.9595959595959602,2.4747474747474754 1.0606060606060617,2.4747474747474754 1.1616161616161622,2.4747474747474754 1.262626262626263,2.4747474747474754 1.3636363636363644,2.4747474747474754 1.4646464646464652,2.4747474747474754 1.5656565656565666,2.4747474747474754 1.6666666666666674,2.4747474747474754 1.767676767676768,2.4747474747474754 1.8686868686868696,2.4747474747474754 1.9696969696969702,2.4747474747474754 2.070707070707072,2.4747474747474754 2.1717171717171726,2.4747474747474754 2.2727272727272734,2.4747474747474754 2.373737373737375,2.4747474747474754 2.4747474747474754,2.4747474747474754 2.575757575757577,2.4747474747474754 2.676767676767678,2.4747474747474754 2.7777777777777786,2.4747474747474754 2.87878787878788,2.4747474747474754 2.9797979797979806,2.4747474747474754 3.080808080808082,2.4747474747474754 3.181818181818183,2.4747474747474754 3.2828282828282833,2.4747474747474754 3.383838383838384,2.4747474747474754 3.4848484848484866,2.4747474747474754 3.5858585858585874,2.4747474747474754 3.6868686868686877,2.4747474747474754 3.7878787878787885,2.4747474747474754 3.8888888888888893,2.4747474747474754 3.989898989898992,2.4747474747474754" data-type="line" data-label="" points="411.8787878787879,268.84848484848493 421.4141414141414,268.84848484848493 430.949494949495,278.38383838383857 440.4848484848485,278.38383838383857 450.0202020202021,278.38383838383857 459.55555555555554,278.38383838383857 469.09090909090907,278.38383838383857 478.62626262626264,278.38383838383857 488.16161616161617,278.38383838383857 497.69696969696975,278.38383838383857 507.2323232323232,278.38383838383857 516.7676767676768,278.38383838383857 526.3030303030303,278.38383838383857 535.8383838383838,278.38383838383857 545.3737373737374,278.38383838383857 554.9090909090909,278.38383838383857 564.4444444444445,278.38383838383857 573.9797979797979,278.38383838383857 583.5151515151515,278.38383838383857 593.0505050505051,278.38383838383857 602.5858585858585,278.38383838383857 612.1212121212121,278.38383838383857 621.6565656565656,278.38383838383857 631.1919191919192,278.38383838383857 640.7272727272727,278.38383838383857 650.2626262626262,278.38383838383857 659.7979797979798,278.38383838383857 669.3333333333333,278.38383838383857 678.8686868686868,278.38383838383857 688.4040404040404,278.38383838383857 697.9393939393939,278.38383838383857 707.4747474747475,278.38383838383857 717.0101010101009,278.38383838383857 726.5454545454545,278.38383838383857 736.0808080808081,278.38383838383857 745.6161616161615,278.38383838383857 755.1515151515151,278.38383838383857 764.6868686868686,278.38383838383857 774.2222222222222,278.38383838383857 783.7575757575758,278.38383838383857 793.2929292929292,278.38383838383857 802.8282828282828,278.38383838383857 812.3636363636363,278.38383838383857 821.8989898989898,278.38383838383857 831.4343434343433,278.38383838383857 840.969696969697,278.38383838383857 850.5050505050505,278.38383838383857 860.0404040404039,278.38383838383857 869.5757575757575,278.38383838383857 879.111111111111,278.38383838383857 888.6464646464647,278.38383838383857" fill="none" stroke="rgba(0,0,255,0.75)" stroke-width="11.327999999999996"/></g><g><polyline data-points="3.989898989898992,2.4747474747474754 4.090909090909092,2.4747474747474754 4.191919191919193,2.4747474747474754 4.292929292929293,2.4747474747474754 4.393939393939394,2.4747474747474754 4.494949494949497,2.4747474747474754 4.595959595959597,2.4747474747474754 4.696969696969697,2.4747474747474754 4.7979797979797985,2.4747474747474754 4.898989898989901,2.4747474747474754 5.000000000000002,2.4747474747474754" data-type="line" data-label="" points="888.6464646464647,278.38383838383857 898.181818181818,278.38383838383857 907.7171717171716,278.38383838383857 917.2525252525251,278.38383838383857 926.7878787878785,278.38383838383857 936.3232323232323,278.38383838383857 945.8585858585857,278.38383838383857 955.3939393939393,278.38383838383857 964.9292929292927,278.38383838383857 974.4646464646464,278.38383838383857 984,278.38383838383857" fill="none" stroke="rgba(255,0,0,0.75)" stroke-width="11.327999999999996"/></g><g><polyline data-points="1.5656565656565666,5.000000000000002 1.5656565656565666,4.898989898989901 1.4646464646464652,4.7979797979797985 1.3636363636363644,4.696969696969697 1.262626262626263,4.595959595959597 1.1616161616161622,4.494949494949497 1.0606060606060617,4.393939393939394 0.9595959595959602,4.292929292929293 0.8585858585858596,4.191919191919193 0.7575757575757579,4.090909090909092 0.6565656565656574,3.989898989898992 0.5555555555555567,3.8888888888888893 0.4545454545454551,3.7878787878787885 0.3535353535353544,3.6868686868686877 0.2525252525252529,3.5858585858585874 0.1515151515151522,3.4848484848484866 0.050505050505051545,3.383838383838384 -0.05050505050505001,3.2828282828282833 -0.15151515151515066,3.181818181818183 -0.2525252525252522,3.080808080808082 -0.35353535353535287,2.9797979797979806 -0.4545454545454544,2.87878787878788 -0.555555555555555,2.7777777777777786 -0.6565656565656557,2.87878787878788 -0.7575757575757572,2.87878787878788 -0.8585858585858579,2.87878787878788 -0.9595959595959596,2.87878787878788 -1.0606060606060603,2.87878787878788 -1.1616161616161613,2.7777777777777786 -1.2626262626262625,2.676767676767678 -1.363636363636363,2.575757575757577 -1.4646464646464643,2.4747474747474754 -1.4646464646464643,2.373737373737375 -1.4646464646464643,2.2727272727272734 -1.4646464646464643,2.1717171717171726 -1.4646464646464643,2.070707070707072 -1.4646464646464643,1.9696969696969702 -1.4646464646464643,1.8686868686868696 -1.4646464646464643,1.767676767676768 -1.4646464646464643,1.6666666666666674 -1.4646464646464643,1.5656565656565666 -1.4646464646464643,1.4646464646464652 -1.4646464646464643,1.3636363636363644 -1.4646464646464643,1.262626262626263 -1.4646464646464643,1.1616161616161622 -1.4646464646464643,1.0606060606060617 -1.4646464646464643,0.9595959595959602 -1.4646464646464643,0.8585858585858596 -1.4646464646464643,0.7575757575757579 -1.4646464646464643,0.6565656565656574 -1.4646464646464643,0.5555555555555567 -1.4646464646464643,0.4545454545454551 -1.4646464646464643,0.3535353535353544 -1.4646464646464643,0.2525252525252529 -1.4646464646464643,0.1515151515151522 -1.4646464646464643,0.050505050505051545 -1.4646464646464643,-0.05050505050505001 -1.4646464646464643,-0.15151515151515066 -1.4646464646464643,-0.2525252525252522 -1.4646464646464643,-0.35353535353535287 -1.4646464646464643,-0.4545454545454544 -1.4646464646464643,-0.555555555555555 -1.4646464646464643,-0.6565656565656557 -1.4646464646464643,-0.7575757575757572 -1.4646464646464643,-0.8585858585858579 -1.4646464646464643,-0.9595959595959596 -1.4646464646464643,-1.0606060606060603 -1.4646464646464643,-1.1616161616161613 -1.4646464646464643,-1.2626262626262625 -1.4646464646464643,-1.363636363636363 -1.363636363636363,-1.4646464646464643 -1.363636363636363,-1.5656565656565653 -1.363636363636363,-1.6666666666666665 -1.363636363636363,-1.7676767676767675 -1.363636363636363,-1.8686868686868683 -1.363636363636363,-1.9696969696969693 -1.363636363636363,-2.07070707070707 -1.363636363636363,-2.1717171717171713 -1.363636363636363,-2.2727272727272725 -1.363636363636363,-2.3737373737373733 -1.363636363636363,-2.474747474747474 -1.363636363636363,-2.5757575757575752 -1.363636363636363,-2.6767676767676765 -1.363636363636363,-2.7777777777777777 -1.363636363636363,-2.8787878787878785 -1.363636363636363,-2.9797979797979792 -1.363636363636363,-3.0808080808080804 -1.363636363636363,-3.1818181818181817 -1.363636363636363,-3.2828282828282824" data-type="line" data-label="" points="659.7979797979798,40.000000000000114 659.7979797979798,49.53535353535369 650.2626262626262,59.07070707070733 640.7272727272727,68.60606060606085 631.1919191919192,78.14141414141432 621.6565656565656,87.67676767676778 612.1212121212121,97.21212121212153 602.5858585858585,106.747474747475 593.0505050505051,116.28282828282846 583.5151515151515,125.81818181818198 573.9797979797979,135.35353535353545 564.4444444444445,144.88888888888908 554.9090909090909,154.4242424242426 545.3737373737374,163.95959595959613 535.8383838383838,173.4949494949496 526.3030303030303,183.03030303030312 516.7676767676768,192.56565656565675 507.2323232323232,202.10101010101027 497.69696969696975,211.63636363636374 488.16161616161617,221.17171717171726 478.62626262626264,230.70707070707084 469.09090909090907,240.24242424242436 459.55555555555554,249.77777777777794 450.0202020202021,240.24242424242436 440.4848484848485,240.24242424242436 430.949494949495,240.24242424242436 421.4141414141414,240.24242424242436 411.8787878787879,240.24242424242436 402.34343434343435,249.77777777777794 392.80808080808083,259.3131313131314 383.2727272727273,268.84848484848493 373.7373737373738,278.38383838383857 373.7373737373738,287.91919191919203 373.7373737373738,297.4545454545456 373.7373737373738,306.9898989898991 373.7373737373738,316.5252525252526 373.7373737373738,326.06060606060623 373.7373737373738,335.5959595959597 373.7373737373738,345.1313131313133 373.7373737373738,354.66666666666674 373.7373737373738,364.2020202020203 373.7373737373738,373.73737373737384 373.7373737373738,383.27272727272737 373.7373737373738,392.80808080808094 373.7373737373738,402.3434343434344 373.7373737373738,411.87878787878793 373.7373737373738,421.4141414141415 373.7373737373738,430.94949494949503 373.7373737373738,440.4848484848486 373.7373737373738,450.0202020202021 373.7373737373738,459.5555555555556 373.7373737373738,469.0909090909092 373.7373737373738,478.6262626262627 373.7373737373738,488.1616161616163 373.7373737373738,497.69696969696975 373.7373737373738,507.23232323232327 373.7373737373738,516.7676767676768 373.7373737373738,526.3030303030304 373.7373737373738,535.838383838384 373.7373737373738,545.3737373737374 373.7373737373738,554.909090909091 373.7373737373738,564.4444444444445 373.7373737373738,573.979797979798 373.7373737373738,583.5151515151516 373.7373737373738,593.0505050505051 373.7373737373738,602.5858585858587 373.7373737373738,612.1212121212121 373.7373737373738,621.6565656565657 373.7373737373738,631.1919191919193 373.7373737373738,640.7272727272727 383.2727272727273,650.2626262626263 383.2727272727273,659.7979797979798 383.2727272727273,669.3333333333334 383.2727272727273,678.8686868686868 383.2727272727273,688.4040404040404 383.2727272727273,697.939393939394 383.2727272727273,707.4747474747475 383.2727272727273,717.010101010101 383.2727272727273,726.5454545454545 383.2727272727273,736.0808080808081 383.2727272727273,745.6161616161615 383.2727272727273,755.1515151515151 383.2727272727273,764.6868686868687 383.2727272727273,774.2222222222222 383.2727272727273,783.7575757575758 383.2727272727273,793.2929292929292 383.2727272727273,802.8282828282828 383.2727272727273,812.3636363636363 383.2727272727273,821.8989898989898" fill="none" stroke="rgba(0,0,255,0.75)" stroke-width="11.327999999999996"/></g><g><polyline data-points="-1.363636363636363,-3.2828282828282824 -1.4646464646464643,-3.383838383838383 -1.5656565656565653,-3.484848484848485 -1.6666666666666665,-3.5858585858585856 -1.7676767676767675,-3.6868686868686864 -1.7676767676767675,-3.7878787878787876 -1.7676767676767675,-3.8888888888888884 -1.8686868686868683,-3.98989898989899" data-type="line" data-label="" points="383.2727272727273,821.8989898989898 373.7373737373738,831.4343434343434 364.2020202020202,840.969696969697 354.6666666666667,850.5050505050505 345.13131313131316,860.0404040404039 345.13131313131316,869.5757575757575 345.13131313131316,879.1111111111111 335.59595959595964,888.6464646464647" fill="none" stroke="rgba(255,0,0,0.75)" stroke-width="11.327999999999996"/></g><g><polyline data-points="-1.8686868686868683,-3.98989898989899 -1.7676767676767675,-4.090909090909091 -1.7676767676767675,-4.191919191919193 -1.7676767676767675,-4.292929292929293 -1.7676767676767675,-4.393939393939394 -1.7676767676767675,-4.494949494949496 -1.7676767676767675,-4.595959595959596 -1.7676767676767675,-4.696969696969697 -1.7676767676767675,-4.7979797979797985 -1.7676767676767675,-4.898989898989899 -1.7676767676767675,-5.000000000000001" data-type="line" data-label="" points="335.59595959595964,888.6464646464647 345.13131313131316,898.1818181818181 345.13131313131316,907.7171717171718 345.13131313131316,917.2525252525252 345.13131313131316,926.7878787878788 345.13131313131316,936.3232323232323 345.13131313131316,945.8585858585858 345.13131313131316,955.3939393939394 345.13131313131316,964.9292929292928 345.13131313131316,974.4646464646464 345.13131313131316,984" fill="none" stroke="rgba(0,0,255,0.75)" stroke-width="11.327999999999996"/></g><g><polyline data-points="-5.000000000000001,-1.9696969696969693 -5.000000000000001,-2.07070707070707 -4.898989898989899,-2.1717171717171713 -4.7979797979797985,-2.2727272727272725 -4.696969696969697,-2.3737373737373733 -4.595959595959596,-2.474747474747474 -4.494949494949496,-2.5757575757575752 -4.393939393939394,-2.6767676767676765 -4.292929292929293,-2.7777777777777777 -4.191919191919193,-2.8787878787878785 -4.090909090909091,-2.9797979797979792 -3.98989898989899,-3.0808080808080804 -3.8888888888888884,-3.1818181818181817 -3.7878787878787876,-3.2828282828282824 -3.6868686868686864,-3.383838383838383 -3.5858585858585856,-3.484848484848485 -3.484848484848485,-3.5858585858585856 -3.383838383838383,-3.6868686868686864 -3.383838383838383,-3.7878787878787876 -3.2828282828282824,-3.8888888888888884 -3.1818181818181817,-3.98989898989899 -3.0808080808080804,-3.98989898989899 -2.9797979797979792,-3.8888888888888884 -2.8787878787878785,-3.8888888888888884 -2.7777777777777777,-3.8888888888888884 -2.6767676767676765,-3.8888888888888884 -2.5757575757575752,-3.8888888888888884 -2.474747474747474,-3.8888888888888884 -2.3737373737373733,-3.8888888888888884" data-type="line" data-label="" points="40.00000000000006,697.939393939394 40.00000000000006,707.4747474747475 49.53535353535369,717.010101010101 59.07070707070716,726.5454545454545 68.60606060606068,736.0808080808081 78.14141414141426,745.6161616161615 87.67676767676772,755.1515151515151 97.21212121212136,764.6868686868687 106.74747474747483,774.2222222222222 116.28282828282829,783.7575757575758 125.81818181818193,793.2929292929292 135.35353535353545,802.8282828282828 144.88888888888903,812.3636363636363 154.42424242424255,821.8989898989898 163.95959595959607,831.4343434343434 173.4949494949496,840.969696969697 183.03030303030312,850.5050505050505 192.5656565656567,860.0404040404039 192.5656565656567,869.5757575757575 202.10101010101022,879.1111111111111 211.63636363636374,888.6464646464647 221.17171717171726,888.6464646464647 230.70707070707084,879.1111111111111 240.2424242424243,879.1111111111111 249.77777777777783,879.1111111111111 259.3131313131314,879.1111111111111 268.84848484848493,879.1111111111111 278.38383838383845,879.1111111111111 287.91919191919203,879.1111111111111" fill="none" stroke="rgba(0,0,255,0.75)" stroke-width="11.327999999999996"/></g><g><polyline data-points="-2.3737373737373733,-3.8888888888888884 -2.2727272727272725,-3.98989898989899 -2.1717171717171713,-4.090909090909091 -2.07070707070707,-4.191919191919193 -1.9696969696969693,-4.292929292929293 -1.8686868686868683,-4.393939393939394 -1.7676767676767675,-4.494949494949496 -1.6666666666666665,-4.595959595959596 -1.6666666666666665,-4.696969696969697 -1.6666666666666665,-4.7979797979797985 -1.6666666666666665,-4.898989898989899 -1.5656565656565653,-5.000000000000001" data-type="line" data-label="" points="287.91919191919203,879.1111111111111 297.4545454545455,888.6464646464647 306.9898989898991,898.1818181818181 316.5252525252526,907.7171717171718 326.0606060606061,917.2525252525252 335.59595959595964,926.7878787878788 345.13131313131316,936.3232323232323 354.6666666666667,945.8585858585858 354.6666666666667,955.3939393939394 354.6666666666667,964.9292929292928 354.6666666666667,974.4646464646464 364.2020202020202,984" fill="none" stroke="rgba(255,0,0,0.75)" stroke-width="11.327999999999996"/></g><g><rect data-type="rect" data-label="" data-x="0" data-y="0" x="40.000000000000114" y="40.000000000000284" width="943.9999999999997" height="943.9999999999998" fill="none" stroke="gray" stroke-width="0.010593220338983056"/></g><g><rect data-type="rect" data-label="" data-x="0" data-y="0" x="40.000000000000114" y="40.000000000000284" width="943.9999999999997" height="943.9999999999998" fill="none" stroke="rgba(15, 23, 42, 0.8)" stroke-width="0.010593220338983056"/></g><circle data-type="circle" data-label="" data-x="-1.7676767676767675" data-y="3.989898989898992" cx="345.13131313131316" cy="135.35353535353545" r="14.159999999999995" fill="rgba(0,0,0,0.3)" stroke="black" stroke-width="0.010593220338983056"/><circle data-type="circle" data-label="" data-x="-3.8888888888888884" data-y="-3.5858585858585856" cx="144.88888888888903" cy="850.5050505050505" r="14.159999999999995" fill="rgba(0,0,0,0.3)" stroke="black" stroke-width="0.010593220338983056"/><circle data-type="circle" data-label="" data-x="-2.5757575757575752" data-y="1.0606060606060617" cx="268.84848484848493" cy="411.87878787878793" r="14.159999999999995" fill="rgba(0,0,0,0.3)" stroke="black" stroke-width="0.010593220338983056"/><circle data-type="circle" data-label="" data-x="-2.5757575757575752" data-y="-3.5858585858585856" cx="268.84848484848493" cy="850.5050505050505" r="14.159999999999995" fill="rgba(0,0,0,0.3)" stroke="black" stroke-width="0.010593220338983056"/><circle data-type="circle" data-label="" data-x="-3.484848484848485" data-y="-3.98989898989899" cx="183.03030303030312" cy="888.6464646464647" r="14.159999999999995" fill="rgba(0,0,0,0.3)" stroke="black" stroke-width="0.010593220338983056"/><circle data-type="circle" data-label="" data-x="-2.1717171717171713" data-y="2.575757575757577" cx="306.9898989898991" cy="268.84848484848493" r="14.159999999999995" fill="rgba(0,0,0,0.3)" stroke="black" stroke-width="0.010593220338983056"/><circle data-type="circle" data-label="" data-x="-1.0606060606060603" data-y="2.575757575757577" cx="411.8787878787879" cy="268.84848484848493" r="14.159999999999995" fill="rgba(0,0,0,0.3)" stroke="black" stroke-width="0.010593220338983056"/><circle data-type="circle" data-label="" data-x="3.989898989898992" data-y="2.4747474747474754" cx="888.6464646464647" cy="278.38383838383857" r="14.159999999999995" fill="rgba(0,0,0,0.3)" stroke="black" stroke-width="0.010593220338983056"/><circle data-type="circle" data-label="" data-x="-1.363636363636363" data-y="-3.2828282828282824" cx="383.2727272727273" cy="821.8989898989898" r="14.159999999999995" fill="rgba(0,0,0,0.3)" stroke="black" stroke-width="0.010593220338983056"/><circle data-type="circle" data-label="" data-x="-1.8686868686868683" data-y="-3.98989898989899" cx="335.59595959595964" cy="888.6464646464647" r="14.159999999999995" fill="rgba(0,0,0,0.3)" stroke="black" stroke-width="0.010593220338983056"/><circle data-type="circle" data-label="" data-x="-2.3737373737373733" data-y="-3.8888888888888884" cx="287.91919191919203" cy="879.1111111111111" r="14.159999999999995" fill="rgba(0,0,0,0.3)" stroke="black" stroke-width="0.010593220338983056"/><g id="crosshair" style="display: none"><line id="crosshair-h" y1="0" y2="1024" stroke="#666" stroke-width="0.5"/><line id="crosshair-v" x1="0" x2="1024" stroke="#666" stroke-width="0.5"/><text id="coordinates" font-family="monospace" font-size="12" fill="#666"></text></g><script><![CDATA[
              document.currentScript.parentElement.addEventListener('mousemove', (e) => {
                const svg = e.currentTarget;
                const rect = svg.getBoundingClientRect();
                const x = e.clientX - rect.left;
                const y = e.clientY - rect.top;
                const crosshair = svg.getElementById('crosshair');
                const h = svg.getElementById('crosshair-h');
                const v = svg.getElementById('crosshair-v');
                const coords = svg.getElementById('coordinates');
                
                crosshair.style.display = 'block';
                h.setAttribute('x1', '0');
                h.setAttribute('x2', '1024');
                h.setAttribute('y1', y);
                h.setAttribute('y2', y);
                v.setAttribute('x1', x);
                v.setAttribute('x2', x);
                v.setAttribute('y1', '0');
                v.setAttribute('y2', '1024');

                // Calculate real coordinates using inverse transformation
                const matrix = {"a":94.39999999999996,"c":0,"e":511.99999999999994,"b":0,"d":-94.39999999999996,"f":512.0000000000001};
                // Manually invert and apply the affine transform
                // Since we only use translate and scale, we can directly compute:
                // x' = (x - tx) / sx
                // y' = (y - ty) / sy
                const sx = matrix.a;
                const sy = matrix.d;
                const tx = matrix.e; 
                const ty = matrix.f;
                const realPoint = {
                  x: (x - tx) / sx,
                  y: (y - ty) / sy // Flip y back since we used negative scale
                }
                
                coords.textContent = `(${realPoint.x.toFixed(2)}, ${realPoint.y.toFixed(2)})`;
                coords.setAttribute('x', (x + 5).toString());
                coords.setAttribute('y', (y - 5).toString());
              });
              document.currentScript.parentElement.addEventListener('mouseleave', () => {
                document.currentScript.parentElement.getElementById('crosshair').style.display = 'none';
              });
            ]]></script></svg>