<svg width="1024" height="1024" viewBox="0 0 1024 1024" xmlns="http://www.w3.org/2000/svg"><rect width="100%" height="100%" fill="white"/><g><circle data-type="point" data-label="conn_000" data-x="5" data-y="-0.46" cx="983.9999999999998" cy="555.424" r="14.16" fill="red"/></g><g><circle data-type="point" data-label="conn_000" data-x="-5" data-y="3.7" cx="40.000000000000114" cy="162.72000000000008" r="14.16" fill="red"/></g><g><circle data-type="point" data-label="conn_001" data-x="-0.24" data-y="-5" cx="489.34399999999994" cy="983.9999999999998" r="14.16" fill="blue"/></g><g><circle data-type="point" data-label="conn_001" data-x="5" data-y="-0.22" cx="983.9999999999998" cy="532.7679999999999" r="14.16" fill="red"/></g><g><circle data-type="point" data-label="conn_002" data-x="-5" data-y="-1.26" cx="40.000000000000114" cy="630.944" r="14.16" fill="red"/></g><g><circle data-type="point" data-label="conn_002" data-x="4.46" data-y="-5" cx="933.0239999999998" cy="983.9999999999998" r="14.16" fill="blue"/></g><g><circle data-type="point" data-label="conn_003" data-x="5" data-y="1.02" cx="983.9999999999998" cy="415.712" r="14.16" fill="red"/></g><g><circle data-type="point" data-label="conn_003" data-x="-5" data-y="-3.2600000000000002" cx="40.000000000000114" cy="819.7439999999999" r="14.16" fill="blue"/></g><g><circle data-type="point" data-label="conn_004" data-x="5" data-y="-1.96" cx="983.9999999999998" cy="697.0239999999999" r="14.16" fill="red"/></g><g><circle data-type="point" data-label="conn_004" data-x="-5" data-y="2.5" cx="40.000000000000114" cy="276" r="14.16" fill="blue"/></g><g><polyline data-points="5.000000000000002,-1.9696969696969693 4.898989898989901,-1.8686868686868683 4.7979797979797985,-1.7676767676767675 4.696969696969697,-1.6666666666666665 4.595959595959597,-1.5656565656565653 4.494949494949497,-1.4646464646464643 4.393939393939394,-1.363636363636363 4.292929292929293,-1.2626262626262625 4.191919191919193,-1.1616161616161613 4.090909090909092,-1.0606060606060603 3.989898989898992,-0.9595959595959596 3.8888888888888893,-0.8585858585858579 3.7878787878787885,-0.7575757575757572 3.6868686868686877,-0.6565656565656557 3.5858585858585874,-0.555555555555555 3.4848484848484866,-0.4545454545454544 3.383838383838384,-0.35353535353535287 3.2828282828282833,-0.2525252525252522 3.181818181818183,-0.15151515151515066 3.080808080808082,-0.05050505050505001 2.9797979797979806,0.050505050505051545 2.87878787878788,0.1515151515151522 2.7777777777777786,0.2525252525252529 2.676767676767678,0.3535353535353544 2.575757575757577,0.4545454545454551 2.4747474747474754,0.5555555555555567 2.373737373737375,0.6565656565656574 2.2727272727272734,0.7575757575757579 2.1717171717171726,0.8585858585858596 2.070707070707072,0.9595959595959602 1.9696969696969702,1.0606060606060617 1.8686868686868696,1.1616161616161622 1.767676767676768,1.262626262626263 1.6666666666666674,1.3636363636363644 1.5656565656565666,1.4646464646464652 1.4646464646464652,1.5656565656565666 1.3636363636363644,1.6666666666666674 1.262626262626263,1.767676767676768 1.1616161616161622,1.8686868686868696 1.0606060606060617,1.9696969696969702 0.9595959595959602,2.070707070707072 0.8585858585858596,2.1717171717171726 0.7575757575757579,2.2727272727272734 0.6565656565656574,2.373737373737375 0.5555555555555567,2.4747474747474754 0.4545454545454551,2.575757575757577 0.3535353535353544,2.575757575757577 0.2525252525252529,2.575757575757577 0.1515151515151522,2.575757575757577 0.050505050505051545,2.575757575757577 -0.05050505050505001,2.575757575757577 -0.15151515151515066,2.575757575757577 -0.2525252525252522,2.575757575757577 -0.35353535353535287,2.575757575757577 -0.4545454545454544,2.575757575757577 -0.555555555555555,2.575757575757577 -0.6565656565656557,2.575757575757577 -0.7575757575757572,2.575757575757577 -0.8585858585858579,2.575757575757577 -0.9595959595959596,2.575757575757577 -1.0606060606060603,2.575757575757577 -1.1616161616161613,2.575757575757577 -1.2626262626262625,2.575757575757577 -1.363636363636363,2.575757575757577 -1.4646464646464643,2.575757575757577 -1.5656565656565653,2.575757575757577 -1.6666666666666665,2.575757575757577 -1.7676767676767675,2.575757575757577 -1.8686868686868683,2.575757575757577 -1.9696969696969693,2.575757575757577 -2.07070707070707,2.575757575757577 -2.1717171717171713,2.575757575757577 -2.2727272727272725,2.575757575757577 -2.3737373737373733,2.575757575757577 -2.474747474747474,2.575757575757577 -2.5757575757575752,2.575757575757577 -2.6767676767676765,2.575757575757577 -2.7777777777777777,2.575757575757577 -2.8787878787878785,2.575757575757577 -2.9797979797979792,2.575757575757577 -3.0808080808080804,2.575757575757577 -3.1818181818181817,2.575757575757577 -3.2828282828282824,2.575757575757577 -3.383838383838383,2.575757575757577 -3.484848484848485,2.575757575757577 -3.5858585858585856,2.575757575757577 -3.6868686868686864,2.575757575757577 -3.7878787878787876,2.575757575757577 -3.8888888888888884,2.575757575757577 -3.98989898989899,2.575757575757577" data-type="line" data-label="" points="984,697.9393939393938 974.4646464646464,688.4040404040402 964.9292929292927,678.8686868686867 955.3939393939393,669.3333333333333 945.8585858585857,659.7979797979797 936.3232323232323,650.2626262626261 926.7878787878785,640.7272727272725 917.2525252525251,631.191919191919 907.7171717171716,621.6565656565656 898.181818181818,612.121212121212 888.6464646464647,602.5858585858584 879.111111111111,593.0505050505049 869.5757575757575,583.5151515151514 860.0404040404039,573.9797979797978 850.5050505050505,564.4444444444443 840.969696969697,554.9090909090908 831.4343434343433,545.3737373737372 821.8989898989898,535.8383838383837 812.3636363636363,526.3030303030301 802.8282828282828,516.7676767676767 793.2929292929292,507.2323232323231 783.7575757575758,497.6969696969696 774.2222222222222,488.16161616161605 764.6868686868686,478.6262626262625 755.1515151515151,469.090909090909 745.6161616161615,459.55555555555543 736.0808080808081,450.0202020202019 726.5454545454545,440.48484848484844 717.0101010101009,430.9494949494948 707.4747474747475,421.41414141414134 697.9393939393939,411.87878787878776 688.4040404040404,402.3434343434343 678.8686868686868,392.8080808080808 669.3333333333333,383.2727272727272 659.7979797979798,373.7373737373737 650.2626262626262,364.2020202020201 640.7272727272727,354.66666666666663 631.1919191919192,345.1313131313131 621.6565656565656,335.5959595959595 612.1212121212121,326.060606060606 602.5858585858585,316.5252525252524 593.0505050505051,306.98989898989896 583.5151515151515,297.4545454545454 573.9797979797979,287.9191919191918 564.4444444444445,278.38383838383834 554.9090909090909,268.84848484848476 545.3737373737374,268.84848484848476 535.8383838383838,268.84848484848476 526.3030303030303,268.84848484848476 516.7676767676768,268.84848484848476 507.2323232323232,268.84848484848476 497.69696969696975,268.84848484848476 488.16161616161617,268.84848484848476 478.62626262626264,268.84848484848476 469.09090909090907,268.84848484848476 459.55555555555554,268.84848484848476 450.0202020202021,268.84848484848476 440.4848484848485,268.84848484848476 430.949494949495,268.84848484848476 421.4141414141414,268.84848484848476 411.8787878787879,268.84848484848476 402.34343434343435,268.84848484848476 392.80808080808083,268.84848484848476 383.2727272727273,268.84848484848476 373.7373737373738,268.84848484848476 364.2020202020202,268.84848484848476 354.6666666666667,268.84848484848476 345.13131313131316,268.84848484848476 335.59595959595964,268.84848484848476 326.0606060606061,268.84848484848476 316.5252525252526,268.84848484848476 306.9898989898991,268.84848484848476 297.4545454545455,268.84848484848476 287.91919191919203,268.84848484848476 278.38383838383845,268.84848484848476 268.84848484848493,268.84848484848476 259.3131313131314,268.84848484848476 249.77777777777783,268.84848484848476 240.2424242424243,268.84848484848476 230.70707070707084,268.84848484848476 221.17171717171726,268.84848484848476 211.63636363636374,268.84848484848476 202.10101010101022,268.84848484848476 192.5656565656567,268.84848484848476 183.03030303030312,268.84848484848476 173.4949494949496,268.84848484848476 163.95959595959607,268.84848484848476 154.42424242424255,268.84848484848476 144.88888888888903,268.84848484848476 135.35353535353545,268.84848484848476" fill="none" stroke="rgba(255,0,0,0.75)" stroke-width="11.327999999999996"/></g><g><polyline data-points="-3.98989898989899,2.575757575757577 -4.090909090909091,2.575757575757577 -4.191919191919193,2.575757575757577 -4.292929292929293,2.575757575757577 -4.393939393939394,2.575757575757577 -4.494949494949496,2.575757575757577 -4.595959595959596,2.575757575757577 -4.696969696969697,2.575757575757577 -4.7979797979797985,2.575757575757577 -4.898989898989899,2.575757575757577 -5.000000000000001,2.575757575757577" data-type="line" data-label="" points="135.35353535353545,268.84848484848476 125.81818181818193,268.84848484848476 116.28282828282829,268.84848484848476 106.74747474747483,268.84848484848476 97.21212121212136,268.84848484848476 87.67676767676772,268.84848484848476 78.14141414141426,268.84848484848476 68.60606060606068,268.84848484848476 59.07070707070716,268.84848484848476 49.53535353535369,268.84848484848476 40.00000000000006,268.84848484848476" fill="none" stroke="rgba(0,0,255,0.75)" stroke-width="11.327999999999996"/></g><g><polyline data-points="-5.000000000000001,-1.2626262626262625 -4.898989898989899,-1.363636363636363 -4.7979797979797985,-1.4646464646464643 -4.696969696969697,-1.5656565656565653 -4.595959595959596,-1.6666666666666665 -4.494949494949496,-1.7676767676767675 -4.393939393939394,-1.8686868686868683 -4.292929292929293,-1.9696969696969693 -4.191919191919193,-2.07070707070707 -4.090909090909091,-2.1717171717171713 -3.98989898989899,-2.2727272727272725 -3.8888888888888884,-2.3737373737373733 -3.7878787878787876,-2.474747474747474 -3.6868686868686864,-2.5757575757575752 -3.5858585858585856,-2.6767676767676765 -3.484848484848485,-2.7777777777777777 -3.383838383838383,-2.8787878787878785 -3.2828282828282824,-2.9797979797979792 -3.1818181818181817,-3.0808080808080804 -3.0808080808080804,-3.1818181818181817 -2.9797979797979792,-3.2828282828282824 -2.8787878787878785,-3.383838383838383 -2.7777777777777777,-3.484848484848485 -2.6767676767676765,-3.5858585858585856 -2.5757575757575752,-3.6868686868686864 -2.474747474747474,-3.7878787878787876 -2.3737373737373733,-3.8888888888888884 -2.2727272727272725,-3.98989898989899 -2.1717171717171713,-3.98989898989899 -2.07070707070707,-3.98989898989899 -1.9696969696969693,-3.98989898989899 -1.8686868686868683,-3.98989898989899 -1.7676767676767675,-3.98989898989899 -1.6666666666666665,-3.98989898989899 -1.5656565656565653,-3.98989898989899 -1.4646464646464643,-3.98989898989899 -1.363636363636363,-3.98989898989899 -1.2626262626262625,-3.98989898989899 -1.1616161616161613,-3.98989898989899 -1.0606060606060603,-3.98989898989899 -0.9595959595959596,-3.98989898989899 -0.8585858585858579,-3.98989898989899 -0.7575757575757572,-3.98989898989899 -0.6565656565656557,-3.98989898989899 -0.555555555555555,-3.98989898989899 -0.4545454545454544,-3.98989898989899 -0.35353535353535287,-3.98989898989899 -0.2525252525252522,-3.98989898989899 -0.15151515151515066,-3.98989898989899 -0.05050505050505001,-3.98989898989899 0.050505050505051545,-3.98989898989899 0.1515151515151522,-3.98989898989899 0.2525252525252529,-3.98989898989899 0.3535353535353544,-3.98989898989899 0.4545454545454551,-3.98989898989899 0.5555555555555567,-3.98989898989899 0.6565656565656574,-3.98989898989899 0.7575757575757579,-3.98989898989899 0.8585858585858596,-3.98989898989899 0.9595959595959602,-3.98989898989899 1.0606060606060617,-3.98989898989899 1.1616161616161622,-3.98989898989899 1.262626262626263,-3.98989898989899 1.3636363636363644,-3.98989898989899 1.4646464646464652,-3.98989898989899 1.5656565656565666,-3.98989898989899 1.6666666666666674,-3.98989898989899 1.767676767676768,-3.98989898989899 1.8686868686868696,-3.98989898989899 1.9696969696969702,-3.98989898989899 2.070707070707072,-3.98989898989899 2.1717171717171726,-3.98989898989899 2.2727272727272734,-3.98989898989899 2.373737373737375,-3.98989898989899 2.4747474747474754,-3.98989898989899 2.575757575757577,-3.98989898989899 2.676767676767678,-3.98989898989899 2.7777777777777786,-3.98989898989899 2.87878787878788,-3.98989898989899 2.9797979797979806,-3.98989898989899 3.080808080808082,-3.98989898989899 3.181818181818183,-3.98989898989899 3.2828282828282833,-3.98989898989899 3.383838383838384,-3.98989898989899 3.4848484848484866,-3.98989898989899 3.5858585858585874,-3.98989898989899 3.6868686868686877,-3.98989898989899 3.7878787878787885,-3.98989898989899 3.8888888888888893,-3.98989898989899" data-type="line" data-label="" points="40.00000000000006,631.191919191919 49.53535353535369,640.7272727272725 59.07070707070716,650.2626262626261 68.60606060606068,659.7979797979797 78.14141414141426,669.3333333333333 87.67676767676772,678.8686868686867 97.21212121212136,688.4040404040402 106.74747474747483,697.9393939393938 116.28282828282829,707.4747474747473 125.81818181818193,717.0101010101008 135.35353535353545,726.5454545454544 144.88888888888903,736.0808080808079 154.42424242424255,745.6161616161614 163.95959595959607,755.151515151515 173.4949494949496,764.6868686868685 183.03030303030312,774.2222222222221 192.5656565656567,783.7575757575755 202.10101010101022,793.2929292929291 211.63636363636374,802.8282828282827 221.17171717171726,812.3636363636361 230.70707070707084,821.8989898989896 240.2424242424243,831.4343434343432 249.77777777777783,840.9696969696968 259.3131313131314,850.5050505050503 268.84848484848493,860.0404040404038 278.38383838383845,869.5757575757573 287.91919191919203,879.1111111111109 297.4545454545455,888.6464646464644 306.9898989898991,888.6464646464644 316.5252525252526,888.6464646464644 326.0606060606061,888.6464646464644 335.59595959595964,888.6464646464644 345.13131313131316,888.6464646464644 354.6666666666667,888.6464646464644 364.2020202020202,888.6464646464644 373.7373737373738,888.6464646464644 383.2727272727273,888.6464646464644 392.80808080808083,888.6464646464644 402.34343434343435,888.6464646464644 411.8787878787879,888.6464646464644 421.4141414141414,888.6464646464644 430.949494949495,888.6464646464644 440.4848484848485,888.6464646464644 450.0202020202021,888.6464646464644 459.55555555555554,888.6464646464644 469.09090909090907,888.6464646464644 478.62626262626264,888.6464646464644 488.16161616161617,888.6464646464644 497.69696969696975,888.6464646464644 507.2323232323232,888.6464646464644 516.7676767676768,888.6464646464644 526.3030303030303,888.6464646464644 535.8383838383838,888.6464646464644 545.3737373737374,888.6464646464644 554.9090909090909,888.6464646464644 564.4444444444445,888.6464646464644 573.9797979797979,888.6464646464644 583.5151515151515,888.6464646464644 593.0505050505051,888.6464646464644 602.5858585858585,888.6464646464644 612.1212121212121,888.6464646464644 621.6565656565656,888.6464646464644 631.1919191919192,888.6464646464644 640.7272727272727,888.6464646464644 650.2626262626262,888.6464646464644 659.7979797979798,888.6464646464644 669.3333333333333,888.6464646464644 678.8686868686868,888.6464646464644 688.4040404040404,888.6464646464644 697.9393939393939,888.6464646464644 707.4747474747475,888.6464646464644 717.0101010101009,888.6464646464644 726.5454545454545,888.6464646464644 736.0808080808081,888.6464646464644 745.6161616161615,888.6464646464644 755.1515151515151,888.6464646464644 764.6868686868686,888.6464646464644 774.2222222222222,888.6464646464644 783.7575757575758,888.6464646464644 793.2929292929292,888.6464646464644 802.8282828282828,888.6464646464644 812.3636363636363,888.6464646464644 821.8989898989898,888.6464646464644 831.4343434343433,888.6464646464644 840.969696969697,888.6464646464644 850.5050505050505,888.6464646464644 860.0404040404039,888.6464646464644 869.5757575757575,888.6464646464644 879.111111111111,888.6464646464644" fill="none" stroke="rgba(255,0,0,0.75)" stroke-width="11.327999999999996"/></g><g><polyline data-points="3.8888888888888893,-3.98989898989899 3.989898989898992,-4.090909090909091 4.090909090909092,-4.191919191919193 4.191919191919193,-4.292929292929293 4.292929292929293,-4.393939393939394 4.393939393939394,-4.494949494949496 4.494949494949497,-4.595959595959596 4.494949494949497,-4.696969696969697 4.494949494949497,-4.7979797979797985 4.494949494949497,-4.898989898989899 4.494949494949497,-5.000000000000001" data-type="line" data-label="" points="879.111111111111,888.6464646464644 888.6464646464647,898.181818181818 898.181818181818,907.7171717171716 907.7171717171716,917.2525252525251 917.2525252525251,926.7878787878785 926.7878787878785,936.3232323232321 936.3232323232323,945.8585858585857 936.3232323232323,955.3939393939393 936.3232323232323,964.9292929292927 936.3232323232323,974.4646464646462 936.3232323232323,983.9999999999998" fill="none" stroke="rgba(0,0,255,0.75)" stroke-width="11.327999999999996"/></g><g><polyline data-points="5.000000000000002,-0.4545454545454544 4.898989898989901,-0.555555555555555 4.7979797979797985,-0.6565656565656557 4.696969696969697,-0.6565656565656557 4.595959595959597,-0.6565656565656557 4.494949494949497,-0.6565656565656557 4.393939393939394,-0.6565656565656557 4.292929292929293,-0.6565656565656557 4.191919191919193,-0.6565656565656557 4.090909090909092,-0.6565656565656557 3.989898989898992,-0.555555555555555 3.8888888888888893,-0.4545454545454544 3.7878787878787885,-0.4545454545454544 3.6868686868686877,-0.35353535353535287 3.5858585858585874,-0.2525252525252522 3.4848484848484866,-0.15151515151515066 3.383838383838384,-0.05050505050505001 3.2828282828282833,0.050505050505051545 3.181818181818183,0.1515151515151522 3.080808080808082,0.2525252525252529 2.9797979797979806,0.3535353535353544 2.87878787878788,0.4545454545454551 2.7777777777777786,0.5555555555555567 2.676767676767678,0.6565656565656574 2.575757575757577,0.7575757575757579 2.4747474747474754,0.8585858585858596 2.373737373737375,0.9595959595959602 2.2727272727272734,1.0606060606060617 2.1717171717171726,1.1616161616161622 2.070707070707072,1.262626262626263 1.9696969696969702,1.3636363636363644 1.8686868686868696,1.4646464646464652 1.767676767676768,1.5656565656565666 1.6666666666666674,1.6666666666666674 1.5656565656565666,1.767676767676768 1.4646464646464652,1.8686868686868696 1.3636363636363644,1.9696969696969702 1.262626262626263,2.070707070707072 1.1616161616161622,2.1717171717171726 1.0606060606060617,2.2727272727272734 0.9595959595959602,2.373737373737375 0.8585858585858596,2.4747474747474754 0.7575757575757579,2.575757575757577 0.6565656565656574,2.676767676767678 0.5555555555555567,2.7777777777777786 0.4545454545454551,2.87878787878788 0.3535353535353544,2.9797979797979806 0.2525252525252529,3.080808080808082 0.1515151515151522,3.181818181818183 0.050505050505051545,3.2828282828282833 -0.05050505050505001,3.383838383838384 -0.15151515151515066,3.4848484848484866 -0.2525252525252522,3.5858585858585874 -0.35353535353535287,3.5858585858585874 -0.4545454545454544,3.5858585858585874 -0.555555555555555,3.5858585858585874 -0.6565656565656557,3.5858585858585874 -0.7575757575757572,3.5858585858585874 -0.8585858585858579,3.5858585858585874 -0.9595959595959596,3.5858585858585874 -1.0606060606060603,3.5858585858585874 -1.1616161616161613,3.5858585858585874 -1.2626262626262625,3.5858585858585874 -1.363636363636363,3.5858585858585874 -1.4646464646464643,3.5858585858585874 -1.5656565656565653,3.5858585858585874 -1.6666666666666665,3.5858585858585874 -1.7676767676767675,3.5858585858585874 -1.8686868686868683,3.5858585858585874 -1.9696969696969693,3.5858585858585874 -2.07070707070707,3.5858585858585874 -2.1717171717171713,3.5858585858585874 -2.2727272727272725,3.5858585858585874 -2.3737373737373733,3.5858585858585874 -2.474747474747474,3.5858585858585874 -2.5757575757575752,3.5858585858585874 -2.6767676767676765,3.5858585858585874 -2.7777777777777777,3.5858585858585874 -2.8787878787878785,3.5858585858585874 -2.9797979797979792,3.5858585858585874 -3.0808080808080804,3.5858585858585874 -3.1818181818181817,3.5858585858585874 -3.2828282828282824,3.5858585858585874 -3.383838383838383,3.5858585858585874 -3.484848484848485,3.5858585858585874 -3.5858585858585856,3.5858585858585874 -3.6868686868686864,3.5858585858585874 -3.7878787878787876,3.5858585858585874 -3.8888888888888884,3.5858585858585874 -3.98989898989899,3.5858585858585874 -4.090909090909091,3.5858585858585874 -4.191919191919193,3.5858585858585874 -4.292929292929293,3.5858585858585874 -4.393939393939394,3.5858585858585874 -4.494949494949496,3.5858585858585874 -4.595959595959596,3.5858585858585874 -4.696969696969697,3.5858585858585874 -4.7979797979797985,3.5858585858585874 -4.898989898989899,3.5858585858585874 -5.000000000000001,3.6868686868686877" data-type="line" data-label="" points="984,554.9090909090908 974.4646464646464,564.4444444444443 964.9292929292927,573.9797979797978 955.3939393939393,573.9797979797978 945.8585858585857,573.9797979797978 936.3232323232323,573.9797979797978 926.7878787878785,573.9797979797978 917.2525252525251,573.9797979797978 907.7171717171716,573.9797979797978 898.181818181818,573.9797979797978 888.6464646464647,564.4444444444443 879.111111111111,554.9090909090908 869.5757575757575,554.9090909090908 860.0404040404039,545.3737373737372 850.5050505050505,535.8383838383837 840.969696969697,526.3030303030301 831.4343434343433,516.7676767676767 821.8989898989898,507.2323232323231 812.3636363636363,497.6969696969696 802.8282828282828,488.16161616161605 793.2929292929292,478.6262626262625 783.7575757575758,469.090909090909 774.2222222222222,459.55555555555543 764.6868686868686,450.0202020202019 755.1515151515151,440.48484848484844 745.6161616161615,430.9494949494948 736.0808080808081,421.41414141414134 726.5454545454545,411.87878787878776 717.0101010101009,402.3434343434343 707.4747474747475,392.8080808080808 697.9393939393939,383.2727272727272 688.4040404040404,373.7373737373737 678.8686868686868,364.2020202020201 669.3333333333333,354.66666666666663 659.7979797979798,345.1313131313131 650.2626262626262,335.5959595959595 640.7272727272727,326.060606060606 631.1919191919192,316.5252525252524 621.6565656565656,306.98989898989896 612.1212121212121,297.4545454545454 602.5858585858585,287.9191919191918 593.0505050505051,278.38383838383834 583.5151515151515,268.84848484848476 573.9797979797979,259.3131313131313 564.4444444444445,249.77777777777777 554.9090909090909,240.2424242424242 545.3737373737374,230.70707070707067 535.8383838383838,221.1717171717171 526.3030303030303,211.63636363636357 516.7676767676768,202.1010101010101 507.2323232323232,192.56565656565658 497.69696969696975,183.03030303030295 488.16161616161617,173.49494949494942 478.62626262626264,173.49494949494942 469.09090909090907,173.49494949494942 459.55555555555554,173.49494949494942 450.0202020202021,173.49494949494942 440.4848484848485,173.49494949494942 430.949494949495,173.49494949494942 421.4141414141414,173.49494949494942 411.8787878787879,173.49494949494942 402.34343434343435,173.49494949494942 392.80808080808083,173.49494949494942 383.2727272727273,173.49494949494942 373.7373737373738,173.49494949494942 364.2020202020202,173.49494949494942 354.6666666666667,173.49494949494942 345.13131313131316,173.49494949494942 335.59595959595964,173.49494949494942 326.0606060606061,173.49494949494942 316.5252525252526,173.49494949494942 306.9898989898991,173.49494949494942 297.4545454545455,173.49494949494942 287.91919191919203,173.49494949494942 278.38383838383845,173.49494949494942 268.84848484848493,173.49494949494942 259.3131313131314,173.49494949494942 249.77777777777783,173.49494949494942 240.2424242424243,173.49494949494942 230.70707070707084,173.49494949494942 221.17171717171726,173.49494949494942 211.63636363636374,173.49494949494942 202.10101010101022,173.49494949494942 192.5656565656567,173.49494949494942 183.03030303030312,173.49494949494942 173.4949494949496,173.49494949494942 163.95959595959607,173.49494949494942 154.42424242424255,173.49494949494942 144.88888888888903,173.49494949494942 135.35353535353545,173.49494949494942 125.81818181818193,173.49494949494942 116.28282828282829,173.49494949494942 106.74747474747483,173.49494949494942 97.21212121212136,173.49494949494942 87.67676767676772,173.49494949494942 78.14141414141426,173.49494949494942 68.60606060606068,173.49494949494942 59.07070707070716,173.49494949494942 49.53535353535369,173.49494949494942 40.00000000000006,163.95959595959596" fill="none" stroke="rgba(255,0,0,0.75)" stroke-width="11.327999999999996"/></g><g><polyline data-points="-0.2525252525252522,-5.000000000000001 -0.15151515151515066,-5.000000000000001 -0.05050505050505001,-4.898989898989899 0.050505050505051545,-4.7979797979797985 0.1515151515151522,-4.696969696969697 0.2525252525252529,-4.595959595959596 0.3535353535353544,-4.494949494949496 0.4545454545454551,-4.393939393939394 0.5555555555555567,-4.292929292929293 0.6565656565656574,-4.191919191919193 0.7575757575757579,-4.090909090909091 0.8585858585858596,-3.98989898989899 0.9595959595959602,-3.8888888888888884 1.0606060606060617,-3.7878787878787876 1.1616161616161622,-3.6868686868686864 1.262626262626263,-3.5858585858585856 1.3636363636363644,-3.484848484848485 1.4646464646464652,-3.383838383838383 1.5656565656565666,-3.2828282828282824 1.6666666666666674,-3.1818181818181817 1.767676767676768,-3.0808080808080804 1.8686868686868696,-2.9797979797979792 1.9696969696969702,-2.8787878787878785 2.070707070707072,-2.7777777777777777 2.1717171717171726,-2.6767676767676765 2.2727272727272734,-2.5757575757575752 2.373737373737375,-2.474747474747474 2.4747474747474754,-2.3737373737373733 2.575757575757577,-2.2727272727272725 2.676767676767678,-2.1717171717171713 2.7777777777777786,-2.07070707070707 2.87878787878788,-1.9696969696969693 2.9797979797979806,-1.8686868686868683 3.080808080808082,-1.7676767676767675 3.181818181818183,-1.6666666666666665 3.2828282828282833,-1.5656565656565653 3.383838383838384,-1.4646464646464643 3.4848484848484866,-1.363636363636363 3.5858585858585874,-1.2626262626262625 3.6868686868686877,-1.1616161616161613 3.7878787878787885,-1.0606060606060603 3.8888888888888893,-0.9595959595959596 3.989898989898992,-0.8585858585858579 3.8888888888888893,-0.7575757575757572 3.8888888888888893,-0.6565656565656557 3.8888888888888893,-0.555555555555555 3.8888888888888893,-0.4545454545454544 3.989898989898992,-0.35353535353535287 4.090909090909092,-0.2525252525252522 4.090909090909092,-0.15151515151515066 3.989898989898992,-0.05050505050505001" data-type="line" data-label="" points="488.16161616161617,983.9999999999998 497.69696969696975,983.9999999999998 507.2323232323232,974.4646464646462 516.7676767676768,964.9292929292927 526.3030303030303,955.3939393939393 535.8383838383838,945.8585858585857 545.3737373737374,936.3232323232321 554.9090909090909,926.7878787878785 564.4444444444445,917.2525252525251 573.9797979797979,907.7171717171716 583.5151515151515,898.181818181818 593.0505050505051,888.6464646464644 602.5858585858585,879.1111111111109 612.1212121212121,869.5757575757573 621.6565656565656,860.0404040404038 631.1919191919192,850.5050505050503 640.7272727272727,840.9696969696968 650.2626262626262,831.4343434343432 659.7979797979798,821.8989898989896 669.3333333333333,812.3636363636361 678.8686868686868,802.8282828282827 688.4040404040404,793.2929292929291 697.9393939393939,783.7575757575755 707.4747474747475,774.2222222222221 717.0101010101009,764.6868686868685 726.5454545454545,755.151515151515 736.0808080808081,745.6161616161614 745.6161616161615,736.0808080808079 755.1515151515151,726.5454545454544 764.6868686868686,717.0101010101008 774.2222222222222,707.4747474747473 783.7575757575758,697.9393939393938 793.2929292929292,688.4040404040402 802.8282828282828,678.8686868686867 812.3636363636363,669.3333333333333 821.8989898989898,659.7979797979797 831.4343434343433,650.2626262626261 840.969696969697,640.7272727272725 850.5050505050505,631.191919191919 860.0404040404039,621.6565656565656 869.5757575757575,612.121212121212 879.111111111111,602.5858585858584 888.6464646464647,593.0505050505049 879.111111111111,583.5151515151514 879.111111111111,573.9797979797978 879.111111111111,564.4444444444443 879.111111111111,554.9090909090908 888.6464646464647,545.3737373737372 898.181818181818,535.8383838383837 898.181818181818,526.3030303030301 888.6464646464647,516.7676767676767" fill="none" stroke="rgba(0,0,255,0.75)" stroke-width="11.327999999999996"/></g><g><polyline data-points="3.989898989898992,-0.05050505050505001 4.090909090909092,-0.15151515151515066 4.191919191919193,-0.2525252525252522 4.292929292929293,-0.2525252525252522 4.393939393939394,-0.2525252525252522 4.494949494949497,-0.2525252525252522 4.595959595959597,-0.2525252525252522 4.696969696969697,-0.2525252525252522 4.7979797979797985,-0.15151515151515066 4.898989898989901,-0.15151515151515066 5.000000000000002,-0.2525252525252522" data-type="line" data-label="" points="888.6464646464647,516.7676767676767 898.181818181818,526.3030303030301 907.7171717171716,535.8383838383837 917.2525252525251,535.8383838383837 926.7878787878785,535.8383838383837 936.3232323232323,535.8383838383837 945.8585858585857,535.8383838383837 955.3939393939393,535.8383838383837 964.9292929292927,526.3030303030301 974.4646464646464,526.3030303030301 984,535.8383838383837" fill="none" stroke="rgba(255,0,0,0.75)" stroke-width="11.327999999999996"/></g><g><polyline data-points="5.000000000000002,1.0606060606060617 5.000000000000002,0.9595959595959602 4.898989898989901,0.8585858585858596 4.7979797979797985,0.7575757575757579 4.696969696969697,0.6565656565656574 4.595959595959597,0.5555555555555567 4.494949494949497,0.4545454545454551 4.393939393939394,0.3535353535353544 4.393939393939394,0.2525252525252529 4.292929292929293,0.1515151515151522 4.191919191919193,0.1515151515151522 4.090909090909092,0.2525252525252529 3.989898989898992,0.2525252525252529 3.8888888888888893,0.1515151515151522 3.7878787878787885,0.1515151515151522 3.6868686868686877,0.1515151515151522" data-type="line" data-label="" points="984,411.87878787878776 984,421.41414141414134 974.4646464646464,430.9494949494948 964.9292929292927,440.48484848484844 955.3939393939393,450.0202020202019 945.8585858585857,459.55555555555543 936.3232323232323,469.090909090909 926.7878787878785,478.6262626262625 926.7878787878785,488.16161616161605 917.2525252525251,497.6969696969696 907.7171717171716,497.6969696969696 898.181818181818,488.16161616161605 888.6464646464647,488.16161616161605 879.111111111111,497.6969696969696 869.5757575757575,497.6969696969696 860.0404040404039,497.6969696969696" fill="none" stroke="rgba(255,0,0,0.75)" stroke-width="11.327999999999996"/></g><g><polyline data-points="3.6868686868686877,0.1515151515151522 3.5858585858585874,0.050505050505051545 3.4848484848484866,-0.05050505050505001 3.383838383838384,-0.15151515151515066 3.2828282828282833,-0.2525252525252522 3.181818181818183,-0.35353535353535287 3.080808080808082,-0.4545454545454544 2.9797979797979806,-0.555555555555555 2.87878787878788,-0.6565656565656557 2.7777777777777786,-0.7575757575757572 2.676767676767678,-0.8585858585858579 2.575757575757577,-0.9595959595959596 2.4747474747474754,-1.0606060606060603 2.373737373737375,-1.1616161616161613 2.2727272727272734,-1.2626262626262625 2.1717171717171726,-1.363636363636363 2.070707070707072,-1.4646464646464643 1.9696969696969702,-1.5656565656565653 1.8686868686868696,-1.6666666666666665 1.767676767676768,-1.7676767676767675 1.6666666666666674,-1.8686868686868683 1.5656565656565666,-1.9696969696969693 1.4646464646464652,-2.07070707070707 1.3636363636363644,-2.1717171717171713 1.262626262626263,-2.2727272727272725 1.1616161616161622,-2.3737373737373733 1.0606060606060617,-2.474747474747474 0.9595959595959602,-2.5757575757575752 0.8585858585858596,-2.6767676767676765 0.7575757575757579,-2.7777777777777777 0.6565656565656574,-2.8787878787878785 0.5555555555555567,-2.9797979797979792 0.4545454545454551,-3.0808080808080804 0.3535353535353544,-3.1818181818181817 0.2525252525252529,-3.1818181818181817 0.1515151515151522,-3.1818181818181817 0.050505050505051545,-3.1818181818181817 -0.05050505050505001,-3.1818181818181817 -0.15151515151515066,-3.1818181818181817 -0.2525252525252522,-3.1818181818181817 -0.35353535353535287,-3.1818181818181817 -0.4545454545454544,-3.1818181818181817 -0.555555555555555,-3.1818181818181817 -0.6565656565656557,-3.1818181818181817 -0.7575757575757572,-3.1818181818181817 -0.8585858585858579,-3.1818181818181817 -0.9595959595959596,-3.1818181818181817 -1.0606060606060603,-3.1818181818181817 -1.1616161616161613,-3.1818181818181817 -1.2626262626262625,-3.1818181818181817 -1.363636363636363,-3.1818181818181817 -1.4646464646464643,-3.1818181818181817 -1.5656565656565653,-3.1818181818181817 -1.6666666666666665,-3.1818181818181817 -1.7676767676767675,-3.1818181818181817 -1.8686868686868683,-3.1818181818181817 -1.9696969696969693,-3.1818181818181817 -2.07070707070707,-3.1818181818181817 -2.1717171717171713,-3.1818181818181817 -2.2727272727272725,-3.1818181818181817 -2.3737373737373733,-3.1818181818181817 -2.474747474747474,-3.1818181818181817 -2.5757575757575752,-3.1818181818181817 -2.6767676767676765,-3.1818181818181817 -2.7777777777777777,-3.1818181818181817 -2.8787878787878785,-3.1818181818181817 -2.9797979797979792,-3.1818181818181817 -3.0808080808080804,-3.1818181818181817 -3.1818181818181817,-3.1818181818181817 -3.2828282828282824,-3.1818181818181817 -3.383838383838383,-3.1818181818181817 -3.484848484848485,-3.1818181818181817 -3.5858585858585856,-3.1818181818181817 -3.6868686868686864,-3.1818181818181817 -3.7878787878787876,-3.1818181818181817 -3.8888888888888884,-3.1818181818181817 -3.98989898989899,-3.1818181818181817 -4.090909090909091,-3.1818181818181817 -4.191919191919193,-3.1818181818181817 -4.292929292929293,-3.1818181818181817 -4.393939393939394,-3.1818181818181817 -4.494949494949496,-3.1818181818181817 -4.595959595959596,-3.1818181818181817 -4.696969696969697,-3.1818181818181817 -4.7979797979797985,-3.1818181818181817 -4.898989898989899,-3.1818181818181817 -5.000000000000001,-3.2828282828282824" data-type="line" data-label="" points="860.0404040404039,497.6969696969696 850.5050505050505,507.2323232323231 840.969696969697,516.7676767676767 831.4343434343433,526.3030303030301 821.8989898989898,535.8383838383837 812.3636363636363,545.3737373737372 802.8282828282828,554.9090909090908 793.2929292929292,564.4444444444443 783.7575757575758,573.9797979797978 774.2222222222222,583.5151515151514 764.6868686868686,593.0505050505049 755.1515151515151,602.5858585858584 745.6161616161615,612.121212121212 736.0808080808081,621.6565656565656 726.5454545454545,631.191919191919 717.0101010101009,640.7272727272725 707.4747474747475,650.2626262626261 697.9393939393939,659.7979797979797 688.4040404040404,669.3333333333333 678.8686868686868,678.8686868686867 669.3333333333333,688.4040404040402 659.7979797979798,697.9393939393938 650.2626262626262,707.4747474747473 640.7272727272727,717.0101010101008 631.1919191919192,726.5454545454544 621.6565656565656,736.0808080808079 612.1212121212121,745.6161616161614 602.5858585858585,755.151515151515 593.0505050505051,764.6868686868685 583.5151515151515,774.2222222222221 573.9797979797979,783.7575757575755 564.4444444444445,793.2929292929291 554.9090909090909,802.8282828282827 545.3737373737374,812.3636363636361 535.8383838383838,812.3636363636361 526.3030303030303,812.3636363636361 516.7676767676768,812.3636363636361 507.2323232323232,812.3636363636361 497.69696969696975,812.3636363636361 488.16161616161617,812.3636363636361 478.62626262626264,812.3636363636361 469.09090909090907,812.3636363636361 459.55555555555554,812.3636363636361 450.0202020202021,812.3636363636361 440.4848484848485,812.3636363636361 430.949494949495,812.3636363636361 421.4141414141414,812.3636363636361 411.8787878787879,812.3636363636361 402.34343434343435,812.3636363636361 392.80808080808083,812.3636363636361 383.2727272727273,812.3636363636361 373.7373737373738,812.3636363636361 364.2020202020202,812.3636363636361 354.6666666666667,812.3636363636361 345.13131313131316,812.3636363636361 335.59595959595964,812.3636363636361 326.0606060606061,812.3636363636361 316.5252525252526,812.3636363636361 306.9898989898991,812.3636363636361 297.4545454545455,812.3636363636361 287.91919191919203,812.3636363636361 278.38383838383845,812.3636363636361 268.84848484848493,812.3636363636361 259.3131313131314,812.3636363636361 249.77777777777783,812.3636363636361 240.2424242424243,812.3636363636361 230.70707070707084,812.3636363636361 221.17171717171726,812.3636363636361 211.63636363636374,812.3636363636361 202.10101010101022,812.3636363636361 192.5656565656567,812.3636363636361 183.03030303030312,812.3636363636361 173.4949494949496,812.3636363636361 163.95959595959607,812.3636363636361 154.42424242424255,812.3636363636361 144.88888888888903,812.3636363636361 135.35353535353545,812.3636363636361 125.81818181818193,812.3636363636361 116.28282828282829,812.3636363636361 106.74747474747483,812.3636363636361 97.21212121212136,812.3636363636361 87.67676767676772,812.3636363636361 78.14141414141426,812.3636363636361 68.60606060606068,812.3636363636361 59.07070707070716,812.3636363636361 49.53535353535369,812.3636363636361 40.00000000000006,821.8989898989896" fill="none" stroke="rgba(0,0,255,0.75)" stroke-width="11.327999999999996"/></g><g><rect data-type="rect" data-label="" data-x="0" data-y="0" x="40.000000000000114" y="40.000000000000114" width="943.9999999999997" height="943.9999999999997" fill="none" stroke="gray" stroke-width="0.010593220338983056"/></g><g><rect data-type="rect" data-label="" data-x="0" data-y="0" x="40.000000000000114" y="40.000000000000114" width="943.9999999999997" height="943.9999999999997" fill="none" stroke="rgba(15, 23, 42, 0.8)" stroke-width="0.010593220338983056"/></g><circle data-type="circle" data-label="" data-x="-3.98989898989899" data-y="2.575757575757577" cx="135.35353535353545" cy="268.84848484848476" r="14.159999999999995" fill="rgba(0,0,0,0.3)" stroke="black" stroke-width="0.010593220338983056"/><circle data-type="circle" data-label="" data-x="3.8888888888888893" data-y="-3.98989898989899" cx="879.111111111111" cy="888.6464646464644" r="14.159999999999995" fill="rgba(0,0,0,0.3)" stroke="black" stroke-width="0.010593220338983056"/><circle data-type="circle" data-label="" data-x="3.989898989898992" data-y="-0.05050505050505001" cx="888.6464646464647" cy="516.7676767676767" r="14.159999999999995" fill="rgba(0,0,0,0.3)" stroke="black" stroke-width="0.010593220338983056"/><circle data-type="circle" data-label="" data-x="3.6868686868686877" data-y="0.1515151515151522" cx="860.0404040404039" cy="497.6969696969696" r="14.159999999999995" fill="rgba(0,0,0,0.3)" stroke="black" stroke-width="0.010593220338983056"/><g id="crosshair" style="display: none"><line id="crosshair-h" y1="0" y2="1024" stroke="#666" stroke-width="0.5"/><line id="crosshair-v" x1="0" x2="1024" stroke="#666" stroke-width="0.5"/><text id="coordinates" font-family="monospace" font-size="12" fill="#666"></text></g><script><![CDATA[
              document.currentScript.parentElement.addEventListener('mousemove', (e) => {
                const svg = e.currentTarget;
                const rect = svg.getBoundingClientRect();
                const x = e.clientX - rect.left;
                const y = e.clientY - rect.top;
                const crosshair = svg.getElementById('crosshair');
                const h = svg.getElementById('crosshair-h');
                const v = svg.getElementById('crosshair-v');
                const coords = svg.getElementById('coordinates');
                
                crosshair.style.display = 'block';
                h.setAttribute('x1', '0');
                h.setAttribute('x2', '1024');
                h.setAttribute('y1', y);
                h.setAttribute('y2', y);
                v.setAttribute('x1', x);
                v.setAttribute('x2', x);
                v.setAttribute('y1', '0');
                v.setAttribute('y2', '1024');

                // Calculate real coordinates using inverse transformation
                const matrix = {"a":94.39999999999996,"c":0,"e":511.99999999999994,"b":0,"d":-94.39999999999996,"f":511.99999999999994};
                // Manually invert and apply the affine transform
                // Since we only use translate and scale, we can directly compute:
                // x' = (x - tx) / sx
                // y' = (y - ty) / sy
                const sx = matrix.a;
                const sy = matrix.d;
                const tx = matrix.e; 
                const ty = matrix.f;
                const realPoint = {
                  x: (x - tx) / sx,
                  y: (y - ty) / sy // Flip y back since we used negative scale
                }
                
                coords.textContent = `(${realPoint.x.toFixed(2)}, ${realPoint.y.toFixed(2)})`;
                coords.setAttribute('x', (x + 5).toString());
                coords.setAttribute('y', (y - 5).toString());
              });
              document.currentScript.parentElement.addEventListener('mouseleave', () => {
                document.currentScript.parentElement.getElementById('crosshair').style.display = 'none';
              });
            ]]></script></svg>