<svg width="1024" height="1024" viewBox="0 0 1024 1024" xmlns="http://www.w3.org/2000/svg"><rect width="100%" height="100%" fill="white"/><g><circle data-type="point" data-label="conn_000" data-x="5" data-y="-1.48" cx="983.9999999999998" cy="651.712" r="14.16" fill="red"/></g><g><circle data-type="point" data-label="conn_000" data-x="-5" data-y="2.52" cx="40.000000000000114" cy="274.1120000000002" r="14.16" fill="blue"/></g><g><circle data-type="point" data-label="conn_001" data-x="-3.22" data-y="5" cx="208.03200000000004" cy="40.000000000000284" r="14.16" fill="red"/></g><g><circle data-type="point" data-label="conn_001" data-x="-2.32" data-y="-5" cx="292.9920000000001" cy="984" r="14.16" fill="red"/></g><g><circle data-type="point" data-label="conn_002" data-x="-5" data-y="-1.58" cx="40.000000000000114" cy="661.152" r="14.16" fill="red"/></g><g><circle data-type="point" data-label="conn_002" data-x="5" data-y="-2.7600000000000002" cx="983.9999999999998" cy="772.5440000000001" r="14.16" fill="red"/></g><g><circle data-type="point" data-label="conn_003" data-x="5" data-y="-1.3" cx="983.9999999999998" cy="634.72" r="14.16" fill="blue"/></g><g><circle data-type="point" data-label="conn_003" data-x="-5" data-y="-1.86" cx="40.000000000000114" cy="687.5840000000001" r="14.16" fill="blue"/></g><g><circle data-type="point" data-label="conn_004" data-x="-5" data-y="3.2" cx="40.000000000000114" cy="209.92000000000024" r="14.16" fill="blue"/></g><g><circle data-type="point" data-label="conn_004" data-x="5" data-y="-1.48" cx="983.9999999999998" cy="651.712" r="14.16" fill="blue"/></g><g><circle data-type="point" data-label="conn_005" data-x="4" data-y="-5" cx="889.5999999999998" cy="984" r="14.16" fill="red"/></g><g><circle data-type="point" data-label="conn_005" data-x="-3.4" data-y="5" cx="191.04000000000008" cy="40.000000000000284" r="14.16" fill="blue"/></g><g><circle data-type="point" data-label="conn_006" data-x="-5" data-y="-3.16" cx="40.000000000000114" cy="810.3040000000001" r="14.16" fill="blue"/></g><g><circle data-type="point" data-label="conn_006" data-x="5" data-y="0.96" cx="983.9999999999998" cy="421.37600000000015" r="14.16" fill="blue"/></g><g><circle data-type="point" data-label="conn_007" data-x="2.42" data-y="-5" cx="740.4479999999999" cy="984" r="14.16" fill="red"/></g><g><circle data-type="point" data-label="conn_007" data-x="1.34" data-y="5" cx="638.4959999999999" cy="40.000000000000284" r="14.16" fill="blue"/></g><g><polyline data-points="4.090909090909092,-5.000000000000001 3.989898989898992,-4.898989898989899 3.8888888888888893,-4.7979797979797985 3.7878787878787885,-4.696969696969697 3.6868686868686877,-4.595959595959596 3.5858585858585874,-4.494949494949496 3.4848484848484866,-4.393939393939394 3.383838383838384,-4.292929292929293 3.2828282828282833,-4.191919191919193 3.181818181818183,-4.090909090909091 3.080808080808082,-3.98989898989899 2.9797979797979806,-3.8888888888888884 2.87878787878788,-3.7878787878787876 2.7777777777777786,-3.6868686868686864 2.676767676767678,-3.5858585858585856 2.575757575757577,-3.484848484848485 2.4747474747474754,-3.383838383838383 2.373737373737375,-3.2828282828282824 2.2727272727272734,-3.1818181818181817 2.1717171717171726,-3.0808080808080804 2.070707070707072,-2.9797979797979792 1.9696969696969702,-2.8787878787878785 1.8686868686868696,-2.7777777777777777 1.767676767676768,-2.6767676767676765 1.6666666666666674,-2.5757575757575752 1.5656565656565666,-2.474747474747474 1.4646464646464652,-2.3737373737373733 1.3636363636363644,-2.2727272727272725 1.262626262626263,-2.1717171717171713 1.1616161616161622,-2.07070707070707 1.0606060606060617,-1.9696969696969693 0.9595959595959602,-1.8686868686868683 0.8585858585858596,-1.7676767676767675 0.7575757575757579,-1.6666666666666665 0.6565656565656574,-1.5656565656565653 0.5555555555555567,-1.4646464646464643 0.4545454545454551,-1.363636363636363 0.3535353535353544,-1.2626262626262625 0.2525252525252529,-1.1616161616161613 0.1515151515151522,-1.0606060606060603 0.050505050505051545,-0.9595959595959596 -0.05050505050505001,-0.8585858585858579 -0.15151515151515066,-0.7575757575757572 -0.2525252525252522,-0.6565656565656557 -0.35353535353535287,-0.555555555555555 -0.4545454545454544,-0.4545454545454544 -0.555555555555555,-0.35353535353535287 -0.6565656565656557,-0.2525252525252522 -0.7575757575757572,-0.15151515151515066 -0.8585858585858579,-0.05050505050505001 -0.9595959595959596,0.050505050505051545 -1.0606060606060603,0.1515151515151522 -1.1616161616161613,0.2525252525252529 -1.2626262626262625,0.3535353535353544 -1.363636363636363,0.4545454545454551 -1.4646464646464643,0.5555555555555567 -1.5656565656565653,0.6565656565656574 -1.6666666666666665,0.7575757575757579 -1.7676767676767675,0.8585858585858596 -1.8686868686868683,0.9595959595959602 -1.9696969696969693,1.0606060606060617 -2.07070707070707,1.1616161616161622 -2.1717171717171713,1.262626262626263 -2.2727272727272725,1.3636363636363644 -2.3737373737373733,1.4646464646464652 -2.474747474747474,1.5656565656565666 -2.5757575757575752,1.6666666666666674 -2.6767676767676765,1.767676767676768 -2.7777777777777777,1.8686868686868696 -2.8787878787878785,1.9696969696969702 -2.9797979797979792,2.070707070707072 -3.0808080808080804,2.1717171717171726 -3.1818181818181817,2.2727272727272734 -3.2828282828282824,2.373737373737375 -3.383838383838383,2.4747474747474754 -3.383838383838383,2.575757575757577 -3.383838383838383,2.676767676767678 -3.383838383838383,2.7777777777777786 -3.383838383838383,2.87878787878788 -3.383838383838383,2.9797979797979806 -3.383838383838383,3.080808080808082 -3.383838383838383,3.181818181818183 -3.383838383838383,3.2828282828282833 -3.383838383838383,3.383838383838384 -3.383838383838383,3.4848484848484866 -3.383838383838383,3.5858585858585874 -3.383838383838383,3.6868686868686877 -3.383838383838383,3.7878787878787885 -3.383838383838383,3.8888888888888893 -3.383838383838383,3.989898989898992" data-type="line" data-label="" points="898.181818181818,984 888.6464646464647,974.4646464646464 879.111111111111,964.9292929292928 869.5757575757575,955.3939393939394 860.0404040404039,945.8585858585858 850.5050505050505,936.3232323232323 840.969696969697,926.7878787878788 831.4343434343433,917.2525252525252 821.8989898989898,907.7171717171718 812.3636363636363,898.1818181818181 802.8282828282828,888.6464646464647 793.2929292929292,879.1111111111111 783.7575757575758,869.5757575757575 774.2222222222222,860.0404040404039 764.6868686868686,850.5050505050505 755.1515151515151,840.969696969697 745.6161616161615,831.4343434343434 736.0808080808081,821.8989898989898 726.5454545454545,812.3636363636363 717.0101010101009,802.8282828282828 707.4747474747475,793.2929292929292 697.9393939393939,783.7575757575758 688.4040404040404,774.2222222222222 678.8686868686868,764.6868686868687 669.3333333333333,755.1515151515151 659.7979797979798,745.6161616161615 650.2626262626262,736.0808080808081 640.7272727272727,726.5454545454545 631.1919191919192,717.010101010101 621.6565656565656,707.4747474747475 612.1212121212121,697.939393939394 602.5858585858585,688.4040404040404 593.0505050505051,678.8686868686868 583.5151515151515,669.3333333333334 573.9797979797979,659.7979797979798 564.4444444444445,650.2626262626263 554.9090909090909,640.7272727272727 545.3737373737374,631.1919191919193 535.8383838383838,621.6565656565657 526.3030303030303,612.1212121212121 516.7676767676768,602.5858585858587 507.2323232323232,593.0505050505051 497.69696969696975,583.5151515151516 488.16161616161617,573.979797979798 478.62626262626264,564.4444444444445 469.09090909090907,554.909090909091 459.55555555555554,545.3737373737374 450.0202020202021,535.838383838384 440.4848484848485,526.3030303030304 430.949494949495,516.7676767676768 421.4141414141414,507.23232323232327 411.8787878787879,497.69696969696975 402.34343434343435,488.1616161616163 392.80808080808083,478.6262626262627 383.2727272727273,469.0909090909092 373.7373737373738,459.5555555555556 364.2020202020202,450.0202020202021 354.6666666666667,440.4848484848486 345.13131313131316,430.94949494949503 335.59595959595964,421.4141414141415 326.0606060606061,411.87878787878793 316.5252525252526,402.3434343434344 306.9898989898991,392.80808080808094 297.4545454545455,383.27272727272737 287.91919191919203,373.73737373737384 278.38383838383845,364.2020202020203 268.84848484848493,354.66666666666674 259.3131313131314,345.1313131313133 249.77777777777783,335.5959595959597 240.2424242424243,326.06060606060623 230.70707070707084,316.5252525252526 221.17171717171726,306.9898989898991 211.63636363636374,297.4545454545456 202.10101010101022,287.91919191919203 192.5656565656567,278.38383838383857 192.5656565656567,268.84848484848493 192.5656565656567,259.3131313131314 192.5656565656567,249.77777777777794 192.5656565656567,240.24242424242436 192.5656565656567,230.70707070707084 192.5656565656567,221.17171717171726 192.5656565656567,211.63636363636374 192.5656565656567,202.10101010101027 192.5656565656567,192.56565656565675 192.5656565656567,183.03030303030312 192.5656565656567,173.4949494949496 192.5656565656567,163.95959595959613 192.5656565656567,154.4242424242426 192.5656565656567,144.88888888888908 192.5656565656567,135.35353535353545" fill="none" stroke="rgba(255,0,0,0.75)" stroke-width="11.327999999999996"/></g><g><polyline data-points="-3.383838383838383,3.989898989898992 -3.383838383838383,4.090909090909092 -3.383838383838383,4.191919191919193 -3.383838383838383,4.292929292929293 -3.383838383838383,4.393939393939394 -3.383838383838383,4.494949494949497 -3.383838383838383,4.595959595959597 -3.383838383838383,4.696969696969697 -3.383838383838383,4.7979797979797985 -3.383838383838383,4.898989898989901 -3.383838383838383,5.000000000000002" data-type="line" data-label="" points="192.5656565656567,135.35353535353545 192.5656565656567,125.81818181818198 192.5656565656567,116.28282828282846 192.5656565656567,106.747474747475 192.5656565656567,97.21212121212153 192.5656565656567,87.67676767676778 192.5656565656567,78.14141414141432 192.5656565656567,68.60606060606085 192.5656565656567,59.07070707070733 192.5656565656567,49.53535353535369 192.5656565656567,40.000000000000114" fill="none" stroke="rgba(0,0,255,0.75)" stroke-width="11.327999999999996"/></g><g><polyline data-points="-5.000000000000001,-1.5656565656565653 -4.898989898989899,-1.6666666666666665 -4.7979797979797985,-1.7676767676767675 -4.696969696969697,-1.8686868686868683 -4.595959595959596,-1.9696969696969693 -4.494949494949496,-2.07070707070707 -4.393939393939394,-2.1717171717171713 -4.292929292929293,-2.2727272727272725 -4.191919191919193,-2.3737373737373733 -4.090909090909091,-2.474747474747474 -3.98989898989899,-2.5757575757575752 -3.8888888888888884,-2.6767676767676765 -3.7878787878787876,-2.7777777777777777 -3.6868686868686864,-2.7777777777777777 -3.5858585858585856,-2.7777777777777777 -3.484848484848485,-2.7777777777777777 -3.383838383838383,-2.7777777777777777 -3.2828282828282824,-2.7777777777777777 -3.1818181818181817,-2.7777777777777777 -3.0808080808080804,-2.7777777777777777 -2.9797979797979792,-2.7777777777777777 -2.8787878787878785,-2.7777777777777777 -2.7777777777777777,-2.7777777777777777 -2.6767676767676765,-2.7777777777777777 -2.5757575757575752,-2.7777777777777777 -2.474747474747474,-2.7777777777777777 -2.3737373737373733,-2.7777777777777777 -2.2727272727272725,-2.7777777777777777 -2.1717171717171713,-2.7777777777777777 -2.07070707070707,-2.7777777777777777 -1.9696969696969693,-2.7777777777777777 -1.8686868686868683,-2.7777777777777777 -1.7676767676767675,-2.7777777777777777 -1.6666666666666665,-2.7777777777777777 -1.5656565656565653,-2.7777777777777777 -1.4646464646464643,-2.7777777777777777 -1.363636363636363,-2.7777777777777777 -1.2626262626262625,-2.7777777777777777 -1.1616161616161613,-2.7777777777777777 -1.0606060606060603,-2.7777777777777777 -0.9595959595959596,-2.7777777777777777 -0.8585858585858579,-2.7777777777777777 -0.7575757575757572,-2.7777777777777777 -0.6565656565656557,-2.7777777777777777 -0.555555555555555,-2.7777777777777777 -0.4545454545454544,-2.7777777777777777 -0.35353535353535287,-2.7777777777777777 -0.2525252525252522,-2.7777777777777777 -0.15151515151515066,-2.7777777777777777 -0.05050505050505001,-2.7777777777777777 0.050505050505051545,-2.7777777777777777 0.1515151515151522,-2.7777777777777777 0.2525252525252529,-2.7777777777777777 0.3535353535353544,-2.7777777777777777 0.4545454545454551,-2.7777777777777777 0.5555555555555567,-2.7777777777777777 0.6565656565656574,-2.7777777777777777 0.7575757575757579,-2.7777777777777777 0.8585858585858596,-2.7777777777777777 0.9595959595959602,-2.7777777777777777 1.0606060606060617,-2.7777777777777777 1.1616161616161622,-2.7777777777777777 1.262626262626263,-2.7777777777777777 1.3636363636363644,-2.7777777777777777" data-type="line" data-label="" points="40.00000000000006,659.7979797979798 49.53535353535369,669.3333333333334 59.07070707070716,678.8686868686868 68.60606060606068,688.4040404040404 78.14141414141426,697.939393939394 87.67676767676772,707.4747474747475 97.21212121212136,717.010101010101 106.74747474747483,726.5454545454545 116.28282828282829,736.0808080808081 125.81818181818193,745.6161616161615 135.35353535353545,755.1515151515151 144.88888888888903,764.6868686868687 154.42424242424255,774.2222222222222 163.95959595959607,774.2222222222222 173.4949494949496,774.2222222222222 183.03030303030312,774.2222222222222 192.5656565656567,774.2222222222222 202.10101010101022,774.2222222222222 211.63636363636374,774.2222222222222 221.17171717171726,774.2222222222222 230.70707070707084,774.2222222222222 240.2424242424243,774.2222222222222 249.77777777777783,774.2222222222222 259.3131313131314,774.2222222222222 268.84848484848493,774.2222222222222 278.38383838383845,774.2222222222222 287.91919191919203,774.2222222222222 297.4545454545455,774.2222222222222 306.9898989898991,774.2222222222222 316.5252525252526,774.2222222222222 326.0606060606061,774.2222222222222 335.59595959595964,774.2222222222222 345.13131313131316,774.2222222222222 354.6666666666667,774.2222222222222 364.2020202020202,774.2222222222222 373.7373737373738,774.2222222222222 383.2727272727273,774.2222222222222 392.80808080808083,774.2222222222222 402.34343434343435,774.2222222222222 411.8787878787879,774.2222222222222 421.4141414141414,774.2222222222222 430.949494949495,774.2222222222222 440.4848484848485,774.2222222222222 450.0202020202021,774.2222222222222 459.55555555555554,774.2222222222222 469.09090909090907,774.2222222222222 478.62626262626264,774.2222222222222 488.16161616161617,774.2222222222222 497.69696969696975,774.2222222222222 507.2323232323232,774.2222222222222 516.7676767676768,774.2222222222222 526.3030303030303,774.2222222222222 535.8383838383838,774.2222222222222 545.3737373737374,774.2222222222222 554.9090909090909,774.2222222222222 564.4444444444445,774.2222222222222 573.9797979797979,774.2222222222222 583.5151515151515,774.2222222222222 593.0505050505051,774.2222222222222 602.5858585858585,774.2222222222222 612.1212121212121,774.2222222222222 621.6565656565656,774.2222222222222 631.1919191919192,774.2222222222222 640.7272727272727,774.2222222222222" fill="none" stroke="rgba(255,0,0,0.75)" stroke-width="11.327999999999996"/></g><g><polyline data-points="1.3636363636363644,-2.7777777777777777 1.4646464646464652,-2.7777777777777777 1.5656565656565666,-2.7777777777777777 1.6666666666666674,-2.7777777777777777 1.767676767676768,-2.7777777777777777 1.8686868686868696,-2.7777777777777777 1.9696969696969702,-2.7777777777777777 2.070707070707072,-2.7777777777777777 2.1717171717171726,-2.7777777777777777 2.2727272727272734,-2.7777777777777777 2.373737373737375,-2.7777777777777777 2.4747474747474754,-2.7777777777777777 2.575757575757577,-2.7777777777777777 2.676767676767678,-2.7777777777777777 2.7777777777777786,-2.7777777777777777 2.87878787878788,-2.7777777777777777 2.9797979797979806,-2.7777777777777777 3.080808080808082,-2.7777777777777777 3.181818181818183,-2.7777777777777777 3.2828282828282833,-2.7777777777777777 3.383838383838384,-2.7777777777777777 3.4848484848484866,-2.7777777777777777 3.5858585858585874,-2.7777777777777777 3.6868686868686877,-2.7777777777777777 3.7878787878787885,-2.7777777777777777 3.8888888888888893,-2.7777777777777777 3.989898989898992,-2.7777777777777777" data-type="line" data-label="" points="640.7272727272727,774.2222222222222 650.2626262626262,774.2222222222222 659.7979797979798,774.2222222222222 669.3333333333333,774.2222222222222 678.8686868686868,774.2222222222222 688.4040404040404,774.2222222222222 697.9393939393939,774.2222222222222 707.4747474747475,774.2222222222222 717.0101010101009,774.2222222222222 726.5454545454545,774.2222222222222 736.0808080808081,774.2222222222222 745.6161616161615,774.2222222222222 755.1515151515151,774.2222222222222 764.6868686868686,774.2222222222222 774.2222222222222,774.2222222222222 783.7575757575758,774.2222222222222 793.2929292929292,774.2222222222222 802.8282828282828,774.2222222222222 812.3636363636363,774.2222222222222 821.8989898989898,774.2222222222222 831.4343434343433,774.2222222222222 840.969696969697,774.2222222222222 850.5050505050505,774.2222222222222 860.0404040404039,774.2222222222222 869.5757575757575,774.2222222222222 879.111111111111,774.2222222222222 888.6464646464647,774.2222222222222" fill="none" stroke="rgba(0,0,255,0.75)" stroke-width="11.327999999999996"/></g><g><polyline data-points="3.989898989898992,-2.7777777777777777 4.090909090909092,-2.7777777777777777 4.191919191919193,-2.7777777777777777 4.292929292929293,-2.7777777777777777 4.393939393939394,-2.7777777777777777 4.494949494949497,-2.7777777777777777 4.595959595959597,-2.7777777777777777 4.696969696969697,-2.7777777777777777 4.7979797979797985,-2.7777777777777777 4.898989898989901,-2.7777777777777777 5.000000000000002,-2.7777777777777777" data-type="line" data-label="" points="888.6464646464647,774.2222222222222 898.181818181818,774.2222222222222 907.7171717171716,774.2222222222222 917.2525252525251,774.2222222222222 926.7878787878785,774.2222222222222 936.3232323232323,774.2222222222222 945.8585858585857,774.2222222222222 955.3939393939393,774.2222222222222 964.9292929292927,774.2222222222222 974.4646464646464,774.2222222222222 984,774.2222222222222" fill="none" stroke="rgba(255,0,0,0.75)" stroke-width="11.327999999999996"/></g><g><polyline data-points="-5.000000000000001,3.181818181818183 -4.898989898989899,3.080808080808082 -4.7979797979797985,2.9797979797979806 -4.696969696969697,2.87878787878788 -4.595959595959596,2.7777777777777786 -4.494949494949496,2.676767676767678 -4.393939393939394,2.575757575757577 -4.292929292929293,2.4747474747474754 -4.191919191919193,2.373737373737375 -4.090909090909091,2.2727272727272734 -3.98989898989899,2.1717171717171726 -3.8888888888888884,2.070707070707072 -3.7878787878787876,1.9696969696969702 -3.6868686868686864,1.8686868686868696 -3.5858585858585856,1.767676767676768 -3.484848484848485,1.6666666666666674 -3.383838383838383,1.5656565656565666 -3.2828282828282824,1.4646464646464652 -3.1818181818181817,1.3636363636363644 -3.0808080808080804,1.262626262626263 -2.9797979797979792,1.1616161616161622 -2.8787878787878785,1.0606060606060617 -2.7777777777777777,0.9595959595959602 -2.6767676767676765,0.8585858585858596 -2.5757575757575752,0.7575757575757579 -2.474747474747474,0.6565656565656574 -2.3737373737373733,0.5555555555555567 -2.2727272727272725,0.4545454545454551 -2.1717171717171713,0.3535353535353544 -2.07070707070707,0.2525252525252529 -1.9696969696969693,0.1515151515151522 -1.8686868686868683,0.050505050505051545 -1.7676767676767675,-0.05050505050505001 -1.6666666666666665,-0.15151515151515066 -1.5656565656565653,-0.2525252525252522 -1.4646464646464643,-0.35353535353535287 -1.363636363636363,-0.4545454545454544 -1.2626262626262625,-0.555555555555555 -1.1616161616161613,-0.6565656565656557 -1.0606060606060603,-0.7575757575757572 -0.9595959595959596,-0.8585858585858579 -0.8585858585858579,-0.9595959595959596 -0.7575757575757572,-1.0606060606060603 -0.6565656565656557,-1.1616161616161613 -0.555555555555555,-1.2626262626262625 -0.4545454545454544,-1.363636363636363 -0.35353535353535287,-1.4646464646464643 -0.2525252525252522,-1.4646464646464643 -0.15151515151515066,-1.4646464646464643 -0.05050505050505001,-1.4646464646464643 0.050505050505051545,-1.4646464646464643 0.1515151515151522,-1.4646464646464643 0.2525252525252529,-1.4646464646464643 0.3535353535353544,-1.4646464646464643 0.4545454545454551,-1.4646464646464643 0.5555555555555567,-1.4646464646464643 0.6565656565656574,-1.4646464646464643 0.7575757575757579,-1.4646464646464643 0.8585858585858596,-1.4646464646464643 0.9595959595959602,-1.4646464646464643 1.0606060606060617,-1.4646464646464643 1.1616161616161622,-1.4646464646464643 1.262626262626263,-1.4646464646464643 1.3636363636363644,-1.4646464646464643 1.4646464646464652,-1.4646464646464643 1.5656565656565666,-1.4646464646464643 1.6666666666666674,-1.4646464646464643 1.767676767676768,-1.4646464646464643 1.8686868686868696,-1.4646464646464643 1.9696969696969702,-1.4646464646464643 2.070707070707072,-1.4646464646464643 2.1717171717171726,-1.4646464646464643 2.2727272727272734,-1.4646464646464643 2.373737373737375,-1.4646464646464643 2.4747474747474754,-1.4646464646464643 2.575757575757577,-1.4646464646464643 2.676767676767678,-1.4646464646464643 2.7777777777777786,-1.4646464646464643 2.87878787878788,-1.4646464646464643" data-type="line" data-label="" points="40.00000000000006,211.63636363636374 49.53535353535369,221.17171717171726 59.07070707070716,230.70707070707084 68.60606060606068,240.24242424242436 78.14141414141426,249.77777777777794 87.67676767676772,259.3131313131314 97.21212121212136,268.84848484848493 106.74747474747483,278.38383838383857 116.28282828282829,287.91919191919203 125.81818181818193,297.4545454545456 135.35353535353545,306.9898989898991 144.88888888888903,316.5252525252526 154.42424242424255,326.06060606060623 163.95959595959607,335.5959595959597 173.4949494949496,345.1313131313133 183.03030303030312,354.66666666666674 192.5656565656567,364.2020202020203 202.10101010101022,373.73737373737384 211.63636363636374,383.27272727272737 221.17171717171726,392.80808080808094 230.70707070707084,402.3434343434344 240.2424242424243,411.87878787878793 249.77777777777783,421.4141414141415 259.3131313131314,430.94949494949503 268.84848484848493,440.4848484848486 278.38383838383845,450.0202020202021 287.91919191919203,459.5555555555556 297.4545454545455,469.0909090909092 306.9898989898991,478.6262626262627 316.5252525252526,488.1616161616163 326.0606060606061,497.69696969696975 335.59595959595964,507.23232323232327 345.13131313131316,516.7676767676768 354.6666666666667,526.3030303030304 364.2020202020202,535.838383838384 373.7373737373738,545.3737373737374 383.2727272727273,554.909090909091 392.80808080808083,564.4444444444445 402.34343434343435,573.979797979798 411.8787878787879,583.5151515151516 421.4141414141414,593.0505050505051 430.949494949495,602.5858585858587 440.4848484848485,612.1212121212121 450.0202020202021,621.6565656565657 459.55555555555554,631.1919191919193 469.09090909090907,640.7272727272727 478.62626262626264,650.2626262626263 488.16161616161617,650.2626262626263 497.69696969696975,650.2626262626263 507.2323232323232,650.2626262626263 516.7676767676768,650.2626262626263 526.3030303030303,650.2626262626263 535.8383838383838,650.2626262626263 545.3737373737374,650.2626262626263 554.9090909090909,650.2626262626263 564.4444444444445,650.2626262626263 573.9797979797979,650.2626262626263 583.5151515151515,650.2626262626263 593.0505050505051,650.2626262626263 602.5858585858585,650.2626262626263 612.1212121212121,650.2626262626263 621.6565656565656,650.2626262626263 631.1919191919192,650.2626262626263 640.7272727272727,650.2626262626263 650.2626262626262,650.2626262626263 659.7979797979798,650.2626262626263 669.3333333333333,650.2626262626263 678.8686868686868,650.2626262626263 688.4040404040404,650.2626262626263 697.9393939393939,650.2626262626263 707.4747474747475,650.2626262626263 717.0101010101009,650.2626262626263 726.5454545454545,650.2626262626263 736.0808080808081,650.2626262626263 745.6161616161615,650.2626262626263 755.1515151515151,650.2626262626263 764.6868686868686,650.2626262626263 774.2222222222222,650.2626262626263 783.7575757575758,650.2626262626263" fill="none" stroke="rgba(0,0,255,0.75)" stroke-width="11.327999999999996"/></g><g><polyline data-points="2.87878787878788,-1.4646464646464643 2.9797979797979806,-1.5656565656565653 3.080808080808082,-1.6666666666666665 3.181818181818183,-1.7676767676767675 3.2828282828282833,-1.8686868686868683 3.383838383838384,-1.9696969696969693 3.4848484848484866,-2.07070707070707 3.5858585858585874,-2.1717171717171713 3.6868686868686877,-2.2727272727272725" data-type="line" data-label="" points="783.7575757575758,650.2626262626263 793.2929292929292,659.7979797979798 802.8282828282828,669.3333333333334 812.3636363636363,678.8686868686868 821.8989898989898,688.4040404040404 831.4343434343433,697.939393939394 840.969696969697,707.4747474747475 850.5050505050505,717.010101010101 860.0404040404039,726.5454545454545" fill="none" stroke="rgba(255,0,0,0.75)" stroke-width="11.327999999999996"/></g><g><polyline data-points="3.6868686868686877,-2.2727272727272725 3.7878787878787885,-2.1717171717171713 3.8888888888888893,-2.07070707070707 3.989898989898992,-2.07070707070707 4.090909090909092,-2.07070707070707 4.191919191919193,-2.07070707070707 4.292929292929293,-2.07070707070707 4.393939393939394,-2.07070707070707 4.494949494949497,-2.07070707070707 4.595959595959597,-1.9696969696969693 4.696969696969697,-1.8686868686868683 4.7979797979797985,-1.7676767676767675 4.898989898989901,-1.6666666666666665 5.000000000000002,-1.5656565656565653 5.000000000000002,-1.4646464646464643" data-type="line" data-label="" points="860.0404040404039,726.5454545454545 869.5757575757575,717.010101010101 879.111111111111,707.4747474747475 888.6464646464647,707.4747474747475 898.181818181818,707.4747474747475 907.7171717171716,707.4747474747475 917.2525252525251,707.4747474747475 926.7878787878785,707.4747474747475 936.3232323232323,707.4747474747475 945.8585858585857,697.939393939394 955.3939393939393,688.4040404040404 964.9292929292927,678.8686868686868 974.4646464646464,669.3333333333334 984,659.7979797979798 984,650.2626262626263" fill="none" stroke="rgba(0,0,255,0.75)" stroke-width="11.327999999999996"/></g><g><polyline data-points="-3.2828282828282824,5.000000000000002 -3.2828282828282824,4.898989898989901 -3.2828282828282824,4.7979797979797985 -3.2828282828282824,4.696969696969697 -3.2828282828282824,4.595959595959597 -3.2828282828282824,4.494949494949497 -3.2828282828282824,4.393939393939394 -3.383838383838383,4.292929292929293 -3.484848484848485,4.191919191919193 -3.5858585858585856,4.090909090909092 -3.6868686868686864,3.989898989898992 -3.5858585858585856,3.8888888888888893 -3.5858585858585856,3.7878787878787885 -3.5858585858585856,3.6868686868686877 -3.5858585858585856,3.5858585858585874 -3.5858585858585856,3.4848484848484866 -3.5858585858585856,3.383838383838384 -3.5858585858585856,3.2828282828282833 -3.5858585858585856,3.181818181818183 -3.5858585858585856,3.080808080808082 -3.5858585858585856,2.9797979797979806 -3.5858585858585856,2.87878787878788 -3.5858585858585856,2.7777777777777786 -3.5858585858585856,2.676767676767678 -3.5858585858585856,2.575757575757577 -3.5858585858585856,2.4747474747474754 -3.5858585858585856,2.373737373737375 -3.484848484848485,2.2727272727272734 -3.383838383838383,2.1717171717171726 -3.2828282828282824,2.070707070707072 -3.1818181818181817,1.9696969696969702 -3.0808080808080804,1.8686868686868696 -2.9797979797979792,1.767676767676768 -2.8787878787878785,1.6666666666666674 -2.7777777777777777,1.5656565656565666 -2.6767676767676765,1.4646464646464652 -2.5757575757575752,1.3636363636363644 -2.474747474747474,1.262626262626263 -2.3737373737373733,1.1616161616161622 -2.3737373737373733,1.0606060606060617 -2.3737373737373733,0.9595959595959602 -2.3737373737373733,0.8585858585858596 -2.3737373737373733,0.7575757575757579 -2.3737373737373733,0.6565656565656574 -2.3737373737373733,0.5555555555555567 -2.3737373737373733,0.4545454545454551 -2.3737373737373733,0.3535353535353544 -2.3737373737373733,0.2525252525252529 -2.3737373737373733,0.1515151515151522 -2.3737373737373733,0.050505050505051545 -2.3737373737373733,-0.05050505050505001 -2.3737373737373733,-0.15151515151515066 -2.3737373737373733,-0.2525252525252522 -2.3737373737373733,-0.35353535353535287 -2.3737373737373733,-0.4545454545454544 -2.3737373737373733,-0.555555555555555 -2.3737373737373733,-0.6565656565656557 -2.3737373737373733,-0.7575757575757572 -2.3737373737373733,-0.8585858585858579 -2.3737373737373733,-0.9595959595959596 -2.3737373737373733,-1.0606060606060603 -2.3737373737373733,-1.1616161616161613 -2.3737373737373733,-1.2626262626262625 -2.3737373737373733,-1.363636363636363 -2.3737373737373733,-1.4646464646464643 -2.3737373737373733,-1.5656565656565653 -2.3737373737373733,-1.6666666666666665 -2.3737373737373733,-1.7676767676767675 -2.3737373737373733,-1.8686868686868683 -2.3737373737373733,-1.9696969696969693 -2.3737373737373733,-2.07070707070707 -2.3737373737373733,-2.1717171717171713 -2.3737373737373733,-2.2727272727272725 -2.3737373737373733,-2.3737373737373733" data-type="line" data-label="" points="202.10101010101022,40.000000000000114 202.10101010101022,49.53535353535369 202.10101010101022,59.07070707070733 202.10101010101022,68.60606060606085 202.10101010101022,78.14141414141432 202.10101010101022,87.67676767676778 202.10101010101022,97.21212121212153 192.5656565656567,106.747474747475 183.03030303030312,116.28282828282846 173.4949494949496,125.81818181818198 163.95959595959607,135.35353535353545 173.4949494949496,144.88888888888908 173.4949494949496,154.4242424242426 173.4949494949496,163.95959595959613 173.4949494949496,173.4949494949496 173.4949494949496,183.03030303030312 173.4949494949496,192.56565656565675 173.4949494949496,202.10101010101027 173.4949494949496,211.63636363636374 173.4949494949496,221.17171717171726 173.4949494949496,230.70707070707084 173.4949494949496,240.24242424242436 173.4949494949496,249.77777777777794 173.4949494949496,259.3131313131314 173.4949494949496,268.84848484848493 173.4949494949496,278.38383838383857 173.4949494949496,287.91919191919203 183.03030303030312,297.4545454545456 192.5656565656567,306.9898989898991 202.10101010101022,316.5252525252526 211.63636363636374,326.06060606060623 221.17171717171726,335.5959595959597 230.70707070707084,345.1313131313133 240.2424242424243,354.66666666666674 249.77777777777783,364.2020202020203 259.3131313131314,373.73737373737384 268.84848484848493,383.27272727272737 278.38383838383845,392.80808080808094 287.91919191919203,402.3434343434344 287.91919191919203,411.87878787878793 287.91919191919203,421.4141414141415 287.91919191919203,430.94949494949503 287.91919191919203,440.4848484848486 287.91919191919203,450.0202020202021 287.91919191919203,459.5555555555556 287.91919191919203,469.0909090909092 287.91919191919203,478.6262626262627 287.91919191919203,488.1616161616163 287.91919191919203,497.69696969696975 287.91919191919203,507.23232323232327 287.91919191919203,516.7676767676768 287.91919191919203,526.3030303030304 287.91919191919203,535.838383838384 287.91919191919203,545.3737373737374 287.91919191919203,554.909090909091 287.91919191919203,564.4444444444445 287.91919191919203,573.979797979798 287.91919191919203,583.5151515151516 287.91919191919203,593.0505050505051 287.91919191919203,602.5858585858587 287.91919191919203,612.1212121212121 287.91919191919203,621.6565656565657 287.91919191919203,631.1919191919193 287.91919191919203,640.7272727272727 287.91919191919203,650.2626262626263 287.91919191919203,659.7979797979798 287.91919191919203,669.3333333333334 287.91919191919203,678.8686868686868 287.91919191919203,688.4040404040404 287.91919191919203,697.939393939394 287.91919191919203,707.4747474747475 287.91919191919203,717.010101010101 287.91919191919203,726.5454545454545 287.91919191919203,736.0808080808081" fill="none" stroke="rgba(255,0,0,0.75)" stroke-width="11.327999999999996"/></g><g><polyline data-points="-2.3737373737373733,-2.3737373737373733 -2.3737373737373733,-2.474747474747474 -2.3737373737373733,-2.5757575757575752 -2.3737373737373733,-2.6767676767676765 -2.3737373737373733,-2.7777777777777777 -2.3737373737373733,-2.8787878787878785 -2.3737373737373733,-2.9797979797979792 -2.3737373737373733,-3.0808080808080804 -2.3737373737373733,-3.1818181818181817 -2.3737373737373733,-3.2828282828282824 -2.3737373737373733,-3.383838383838383 -2.3737373737373733,-3.484848484848485 -2.3737373737373733,-3.5858585858585856 -2.3737373737373733,-3.6868686868686864 -2.3737373737373733,-3.7878787878787876 -2.3737373737373733,-3.8888888888888884 -2.3737373737373733,-3.98989898989899" data-type="line" data-label="" points="287.91919191919203,736.0808080808081 287.91919191919203,745.6161616161615 287.91919191919203,755.1515151515151 287.91919191919203,764.6868686868687 287.91919191919203,774.2222222222222 287.91919191919203,783.7575757575758 287.91919191919203,793.2929292929292 287.91919191919203,802.8282828282828 287.91919191919203,812.3636363636363 287.91919191919203,821.8989898989898 287.91919191919203,831.4343434343434 287.91919191919203,840.969696969697 287.91919191919203,850.5050505050505 287.91919191919203,860.0404040404039 287.91919191919203,869.5757575757575 287.91919191919203,879.1111111111111 287.91919191919203,888.6464646464647" fill="none" stroke="rgba(0,0,255,0.75)" stroke-width="11.327999999999996"/></g><g><polyline data-points="-2.3737373737373733,-3.98989898989899 -2.3737373737373733,-4.090909090909091 -2.3737373737373733,-4.191919191919193 -2.3737373737373733,-4.292929292929293 -2.3737373737373733,-4.393939393939394 -2.3737373737373733,-4.494949494949496 -2.3737373737373733,-4.595959595959596 -2.3737373737373733,-4.696969696969697 -2.3737373737373733,-4.7979797979797985 -2.3737373737373733,-4.898989898989899 -2.3737373737373733,-5.000000000000001" data-type="line" data-label="" points="287.91919191919203,888.6464646464647 287.91919191919203,898.1818181818181 287.91919191919203,907.7171717171718 287.91919191919203,917.2525252525252 287.91919191919203,926.7878787878788 287.91919191919203,936.3232323232323 287.91919191919203,945.8585858585858 287.91919191919203,955.3939393939394 287.91919191919203,964.9292929292928 287.91919191919203,974.4646464646464 287.91919191919203,984" fill="none" stroke="rgba(255,0,0,0.75)" stroke-width="11.327999999999996"/></g><g><polyline data-points="2.4747474747474754,-5.000000000000001 2.373737373737375,-4.898989898989899 2.2727272727272734,-4.7979797979797985 2.1717171717171726,-4.696969696969697 2.070707070707072,-4.595959595959596 1.9696969696969702,-4.494949494949496 1.8686868686868696,-4.393939393939394 1.767676767676768,-4.292929292929293 1.6666666666666674,-4.191919191919193 1.5656565656565666,-4.090909090909091 1.4646464646464652,-3.98989898989899 1.3636363636363644,-3.8888888888888884 1.3636363636363644,-3.7878787878787876 1.3636363636363644,-3.6868686868686864 1.3636363636363644,-3.5858585858585856 1.3636363636363644,-3.484848484848485 1.3636363636363644,-3.383838383838383 1.3636363636363644,-3.2828282828282824" data-type="line" data-label="" points="745.6161616161615,984 736.0808080808081,974.4646464646464 726.5454545454545,964.9292929292928 717.0101010101009,955.3939393939394 707.4747474747475,945.8585858585858 697.9393939393939,936.3232323232323 688.4040404040404,926.7878787878788 678.8686868686868,917.2525252525252 669.3333333333333,907.7171717171718 659.7979797979798,898.1818181818181 650.2626262626262,888.6464646464647 640.7272727272727,879.1111111111111 640.7272727272727,869.5757575757575 640.7272727272727,860.0404040404039 640.7272727272727,850.5050505050505 640.7272727272727,840.969696969697 640.7272727272727,831.4343434343434 640.7272727272727,821.8989898989898" fill="none" stroke="rgba(255,0,0,0.75)" stroke-width="11.327999999999996"/></g><g><polyline data-points="1.3636363636363644,-3.2828282828282824 1.3636363636363644,-3.1818181818181817 1.3636363636363644,-3.0808080808080804 1.262626262626263,-2.9797979797979792 1.1616161616161622,-2.8787878787878785 1.0606060606060617,-2.7777777777777777 1.1616161616161622,-2.6767676767676765 1.262626262626263,-2.5757575757575752 1.3636363636363644,-2.474747474747474 1.3636363636363644,-2.3737373737373733 1.3636363636363644,-2.2727272727272725 1.3636363636363644,-2.1717171717171713 1.4646464646464652,-2.07070707070707 1.5656565656565666,-1.9696969696969693" data-type="line" data-label="" points="640.7272727272727,821.8989898989898 640.7272727272727,812.3636363636363 640.7272727272727,802.8282828282828 631.1919191919192,793.2929292929292 621.6565656565656,783.7575757575758 612.1212121212121,774.2222222222222 621.6565656565656,764.6868686868687 631.1919191919192,755.1515151515151 640.7272727272727,745.6161616161615 640.7272727272727,736.0808080808081 640.7272727272727,726.5454545454545 640.7272727272727,717.010101010101 650.2626262626262,707.4747474747475 659.7979797979798,697.939393939394" fill="none" stroke="rgba(0,0,255,0.75)" stroke-width="11.327999999999996"/></g><g><polyline data-points="1.5656565656565666,-1.9696969696969693 1.4646464646464652,-1.8686868686868683 1.3636363636363644,-1.7676767676767675 1.3636363636363644,-1.6666666666666665 1.3636363636363644,-1.5656565656565653 1.3636363636363644,-1.4646464646464643 1.3636363636363644,-1.363636363636363 1.3636363636363644,-1.2626262626262625 1.3636363636363644,-1.1616161616161613 1.3636363636363644,-1.0606060606060603 1.3636363636363644,-0.9595959595959596 1.3636363636363644,-0.8585858585858579 1.3636363636363644,-0.7575757575757572 1.3636363636363644,-0.6565656565656557 1.3636363636363644,-0.555555555555555 1.3636363636363644,-0.4545454545454544 1.3636363636363644,-0.35353535353535287 1.3636363636363644,-0.2525252525252522 1.3636363636363644,-0.15151515151515066 1.3636363636363644,-0.05050505050505001 1.3636363636363644,0.050505050505051545 1.3636363636363644,0.1515151515151522 1.3636363636363644,0.2525252525252529 1.3636363636363644,0.3535353535353544 1.3636363636363644,0.4545454545454551 1.3636363636363644,0.5555555555555567 1.3636363636363644,0.6565656565656574 1.3636363636363644,0.7575757575757579 1.3636363636363644,0.8585858585858596 1.3636363636363644,0.9595959595959602 1.3636363636363644,1.0606060606060617 1.3636363636363644,1.1616161616161622 1.3636363636363644,1.262626262626263 1.3636363636363644,1.3636363636363644 1.3636363636363644,1.4646464646464652 1.3636363636363644,1.5656565656565666 1.3636363636363644,1.6666666666666674 1.3636363636363644,1.767676767676768 1.3636363636363644,1.8686868686868696 1.3636363636363644,1.9696969696969702 1.3636363636363644,2.070707070707072 1.3636363636363644,2.1717171717171726 1.3636363636363644,2.2727272727272734 1.3636363636363644,2.373737373737375 1.3636363636363644,2.4747474747474754 1.3636363636363644,2.575757575757577 1.3636363636363644,2.676767676767678 1.3636363636363644,2.7777777777777786 1.3636363636363644,2.87878787878788 1.3636363636363644,2.9797979797979806 1.3636363636363644,3.080808080808082 1.3636363636363644,3.181818181818183 1.3636363636363644,3.2828282828282833 1.3636363636363644,3.383838383838384 1.3636363636363644,3.4848484848484866 1.3636363636363644,3.5858585858585874 1.3636363636363644,3.6868686868686877 1.3636363636363644,3.7878787878787885 1.3636363636363644,3.8888888888888893 1.3636363636363644,3.989898989898992" data-type="line" data-label="" points="659.7979797979798,697.939393939394 650.2626262626262,688.4040404040404 640.7272727272727,678.8686868686868 640.7272727272727,669.3333333333334 640.7272727272727,659.7979797979798 640.7272727272727,650.2626262626263 640.7272727272727,640.7272727272727 640.7272727272727,631.1919191919193 640.7272727272727,621.6565656565657 640.7272727272727,612.1212121212121 640.7272727272727,602.5858585858587 640.7272727272727,593.0505050505051 640.7272727272727,583.5151515151516 640.7272727272727,573.979797979798 640.7272727272727,564.4444444444445 640.7272727272727,554.909090909091 640.7272727272727,545.3737373737374 640.7272727272727,535.838383838384 640.7272727272727,526.3030303030304 640.7272727272727,516.7676767676768 640.7272727272727,507.23232323232327 640.7272727272727,497.69696969696975 640.7272727272727,488.1616161616163 640.7272727272727,478.6262626262627 640.7272727272727,469.0909090909092 640.7272727272727,459.5555555555556 640.7272727272727,450.0202020202021 640.7272727272727,440.4848484848486 640.7272727272727,430.94949494949503 640.7272727272727,421.4141414141415 640.7272727272727,411.87878787878793 640.7272727272727,402.3434343434344 640.7272727272727,392.80808080808094 640.7272727272727,383.27272727272737 640.7272727272727,373.73737373737384 640.7272727272727,364.2020202020203 640.7272727272727,354.66666666666674 640.7272727272727,345.1313131313133 640.7272727272727,335.5959595959597 640.7272727272727,326.06060606060623 640.7272727272727,316.5252525252526 640.7272727272727,306.9898989898991 640.7272727272727,297.4545454545456 640.7272727272727,287.91919191919203 640.7272727272727,278.38383838383857 640.7272727272727,268.84848484848493 640.7272727272727,259.3131313131314 640.7272727272727,249.77777777777794 640.7272727272727,240.24242424242436 640.7272727272727,230.70707070707084 640.7272727272727,221.17171717171726 640.7272727272727,211.63636363636374 640.7272727272727,202.10101010101027 640.7272727272727,192.56565656565675 640.7272727272727,183.03030303030312 640.7272727272727,173.4949494949496 640.7272727272727,163.95959595959613 640.7272727272727,154.4242424242426 640.7272727272727,144.88888888888908 640.7272727272727,135.35353535353545" fill="none" stroke="rgba(255,0,0,0.75)" stroke-width="11.327999999999996"/></g><g><polyline data-points="1.3636363636363644,3.989898989898992 1.3636363636363644,4.090909090909092 1.3636363636363644,4.191919191919193 1.3636363636363644,4.292929292929293 1.3636363636363644,4.393939393939394 1.3636363636363644,4.494949494949497 1.3636363636363644,4.595959595959597 1.3636363636363644,4.696969696969697 1.3636363636363644,4.7979797979797985 1.3636363636363644,4.898989898989901 1.3636363636363644,5.000000000000002" data-type="line" data-label="" points="640.7272727272727,135.35353535353545 640.7272727272727,125.81818181818198 640.7272727272727,116.28282828282846 640.7272727272727,106.747474747475 640.7272727272727,97.21212121212153 640.7272727272727,87.67676767676778 640.7272727272727,78.14141414141432 640.7272727272727,68.60606060606085 640.7272727272727,59.07070707070733 640.7272727272727,49.53535353535369 640.7272727272727,40.000000000000114" fill="none" stroke="rgba(0,0,255,0.75)" stroke-width="11.327999999999996"/></g><g><polyline data-points="-5.000000000000001,-3.1818181818181817 -4.898989898989899,-3.0808080808080804 -4.7979797979797985,-2.9797979797979792 -4.696969696969697,-2.8787878787878785 -4.595959595959596,-2.7777777777777777 -4.494949494949496,-2.6767676767676765 -4.393939393939394,-2.5757575757575752 -4.292929292929293,-2.474747474747474 -4.191919191919193,-2.3737373737373733 -4.090909090909091,-2.2727272727272725 -3.98989898989899,-2.1717171717171713 -3.8888888888888884,-2.07070707070707 -3.7878787878787876,-1.9696969696969693 -3.6868686868686864,-1.9696969696969693 -3.5858585858585856,-1.9696969696969693 -3.484848484848485,-1.9696969696969693 -3.383838383838383,-1.9696969696969693 -3.2828282828282824,-1.9696969696969693 -3.1818181818181817,-1.9696969696969693 -3.0808080808080804,-1.9696969696969693 -2.9797979797979792,-1.9696969696969693 -2.8787878787878785,-1.9696969696969693 -2.7777777777777777,-1.9696969696969693 -2.6767676767676765,-1.9696969696969693 -2.5757575757575752,-1.9696969696969693 -2.474747474747474,-1.9696969696969693 -2.3737373737373733,-1.9696969696969693 -2.2727272727272725,-1.9696969696969693 -2.1717171717171713,-1.9696969696969693 -2.07070707070707,-1.9696969696969693 -1.9696969696969693,-1.9696969696969693 -1.8686868686868683,-1.9696969696969693 -1.7676767676767675,-1.9696969696969693 -1.6666666666666665,-1.9696969696969693 -1.5656565656565653,-1.9696969696969693 -1.4646464646464643,-1.9696969696969693 -1.363636363636363,-1.9696969696969693 -1.2626262626262625,-1.9696969696969693 -1.1616161616161613,-1.9696969696969693 -1.0606060606060603,-1.9696969696969693 -0.9595959595959596,-1.9696969696969693 -0.8585858585858579,-1.9696969696969693 -0.7575757575757572,-1.9696969696969693 -0.6565656565656557,-1.9696969696969693 -0.555555555555555,-1.9696969696969693 -0.4545454545454544,-1.9696969696969693 -0.35353535353535287,-1.9696969696969693 -0.2525252525252522,-1.9696969696969693 -0.15151515151515066,-1.9696969696969693 -0.05050505050505001,-1.9696969696969693 0.050505050505051545,-1.9696969696969693 0.1515151515151522,-1.9696969696969693 0.2525252525252529,-1.9696969696969693 0.3535353535353544,-1.9696969696969693 0.4545454545454551,-1.9696969696969693 0.5555555555555567,-1.9696969696969693 0.6565656565656574,-1.9696969696969693 0.7575757575757579,-1.9696969696969693 0.8585858585858596,-1.9696969696969693 0.9595959595959602,-1.9696969696969693 1.0606060606060617,-1.9696969696969693 1.1616161616161622,-1.9696969696969693 1.262626262626263,-1.8686868686868683 1.3636363636363644,-1.7676767676767675 1.4646464646464652,-1.6666666666666665 1.5656565656565666,-1.6666666666666665 1.6666666666666674,-1.6666666666666665 1.767676767676768,-1.6666666666666665 1.8686868686868696,-1.6666666666666665 1.9696969696969702,-1.6666666666666665 2.070707070707072,-1.6666666666666665 2.1717171717171726,-1.6666666666666665 2.2727272727272734,-1.6666666666666665 2.373737373737375,-1.6666666666666665 2.4747474747474754,-1.6666666666666665 2.575757575757577,-1.6666666666666665 2.676767676767678,-1.6666666666666665 2.7777777777777786,-1.6666666666666665 2.87878787878788,-1.7676767676767675 2.9797979797979806,-1.6666666666666665 3.080808080808082,-1.5656565656565653 3.181818181818183,-1.4646464646464643 3.2828282828282833,-1.363636363636363 3.383838383838384,-1.2626262626262625 3.4848484848484866,-1.1616161616161613 3.5858585858585874,-1.0606060606060603 3.6868686868686877,-0.9595959595959596 3.7878787878787885,-0.8585858585858579 3.8888888888888893,-0.7575757575757572 3.989898989898992,-0.6565656565656557 4.090909090909092,-0.555555555555555 4.191919191919193,-0.4545454545454544 4.292929292929293,-0.35353535353535287 4.393939393939394,-0.2525252525252522 4.494949494949497,-0.15151515151515066 4.595959595959597,-0.05050505050505001 4.696969696969697,0.050505050505051545 4.7979797979797985,0.1515151515151522 4.898989898989901,0.2525252525252529 5.000000000000002,0.3535353535353544 5.000000000000002,0.4545454545454551 5.000000000000002,0.5555555555555567 5.000000000000002,0.6565656565656574 5.000000000000002,0.7575757575757579 5.000000000000002,0.8585858585858596 5.000000000000002,0.9595959595959602" data-type="line" data-label="" points="40.00000000000006,812.3636363636363 49.53535353535369,802.8282828282828 59.07070707070716,793.2929292929292 68.60606060606068,783.7575757575758 78.14141414141426,774.2222222222222 87.67676767676772,764.6868686868687 97.21212121212136,755.1515151515151 106.74747474747483,745.6161616161615 116.28282828282829,736.0808080808081 125.81818181818193,726.5454545454545 135.35353535353545,717.010101010101 144.88888888888903,707.4747474747475 154.42424242424255,697.939393939394 163.95959595959607,697.939393939394 173.4949494949496,697.939393939394 183.03030303030312,697.939393939394 192.5656565656567,697.939393939394 202.10101010101022,697.939393939394 211.63636363636374,697.939393939394 221.17171717171726,697.939393939394 230.70707070707084,697.939393939394 240.2424242424243,697.939393939394 249.77777777777783,697.939393939394 259.3131313131314,697.939393939394 268.84848484848493,697.939393939394 278.38383838383845,697.939393939394 287.91919191919203,697.939393939394 297.4545454545455,697.939393939394 306.9898989898991,697.939393939394 316.5252525252526,697.939393939394 326.0606060606061,697.939393939394 335.59595959595964,697.939393939394 345.13131313131316,697.939393939394 354.6666666666667,697.939393939394 364.2020202020202,697.939393939394 373.7373737373738,697.939393939394 383.2727272727273,697.939393939394 392.80808080808083,697.939393939394 402.34343434343435,697.939393939394 411.8787878787879,697.939393939394 421.4141414141414,697.939393939394 430.949494949495,697.939393939394 440.4848484848485,697.939393939394 450.0202020202021,697.939393939394 459.55555555555554,697.939393939394 469.09090909090907,697.939393939394 478.62626262626264,697.939393939394 488.16161616161617,697.939393939394 497.69696969696975,697.939393939394 507.2323232323232,697.939393939394 516.7676767676768,697.939393939394 526.3030303030303,697.939393939394 535.8383838383838,697.939393939394 545.3737373737374,697.939393939394 554.9090909090909,697.939393939394 564.4444444444445,697.939393939394 573.9797979797979,697.939393939394 583.5151515151515,697.939393939394 593.0505050505051,697.939393939394 602.5858585858585,697.939393939394 612.1212121212121,697.939393939394 621.6565656565656,697.939393939394 631.1919191919192,688.4040404040404 640.7272727272727,678.8686868686868 650.2626262626262,669.3333333333334 659.7979797979798,669.3333333333334 669.3333333333333,669.3333333333334 678.8686868686868,669.3333333333334 688.4040404040404,669.3333333333334 697.9393939393939,669.3333333333334 707.4747474747475,669.3333333333334 717.0101010101009,669.3333333333334 726.5454545454545,669.3333333333334 736.0808080808081,669.3333333333334 745.6161616161615,669.3333333333334 755.1515151515151,669.3333333333334 764.6868686868686,669.3333333333334 774.2222222222222,669.3333333333334 783.7575757575758,678.8686868686868 793.2929292929292,669.3333333333334 802.8282828282828,659.7979797979798 812.3636363636363,650.2626262626263 821.8989898989898,640.7272727272727 831.4343434343433,631.1919191919193 840.969696969697,621.6565656565657 850.5050505050505,612.1212121212121 860.0404040404039,602.5858585858587 869.5757575757575,593.0505050505051 879.111111111111,583.5151515151516 888.6464646464647,573.979797979798 898.181818181818,564.4444444444445 907.7171717171716,554.909090909091 917.2525252525251,545.3737373737374 926.7878787878785,535.838383838384 936.3232323232323,526.3030303030304 945.8585858585857,516.7676767676768 955.3939393939393,507.23232323232327 964.9292929292927,497.69696969696975 974.4646464646464,488.1616161616163 984,478.6262626262627 984,469.0909090909092 984,459.5555555555556 984,450.0202020202021 984,440.4848484848486 984,430.94949494949503 984,421.4141414141415" fill="none" stroke="rgba(0,0,255,0.75)" stroke-width="11.327999999999996"/></g><g><polyline data-points="5.000000000000002,-1.4646464646464643 4.898989898989901,-1.4646464646464643 4.7979797979797985,-1.363636363636363 4.696969696969697,-1.2626262626262625 4.595959595959597,-1.1616161616161613 4.494949494949497,-1.0606060606060603 4.393939393939394,-0.9595959595959596 4.292929292929293,-0.8585858585858579 4.191919191919193,-0.7575757575757572 4.090909090909092,-0.6565656565656557 3.989898989898992,-0.555555555555555 3.8888888888888893,-0.4545454545454544 3.7878787878787885,-0.35353535353535287 3.6868686868686877,-0.2525252525252522 3.5858585858585874,-0.15151515151515066 3.4848484848484866,-0.05050505050505001 3.383838383838384,0.050505050505051545 3.2828282828282833,0.1515151515151522 3.181818181818183,0.2525252525252529 3.080808080808082,0.3535353535353544 2.9797979797979806,0.4545454545454551 2.87878787878788,0.5555555555555567 2.7777777777777786,0.6565656565656574 2.676767676767678,0.7575757575757579 2.575757575757577,0.8585858585858596 2.4747474747474754,0.9595959595959602 2.373737373737375,1.0606060606060617 2.2727272727272734,1.1616161616161622 2.1717171717171726,1.262626262626263 2.070707070707072,1.3636363636363644 1.9696969696969702,1.4646464646464652 1.8686868686868696,1.5656565656565666 1.767676767676768,1.6666666666666674 1.767676767676768,1.767676767676768 1.767676767676768,1.8686868686868696 1.767676767676768,1.9696969696969702 1.767676767676768,2.070707070707072" data-type="line" data-label="" points="984,650.2626262626263 974.4646464646464,650.2626262626263 964.9292929292927,640.7272727272727 955.3939393939393,631.1919191919193 945.8585858585857,621.6565656565657 936.3232323232323,612.1212121212121 926.7878787878785,602.5858585858587 917.2525252525251,593.0505050505051 907.7171717171716,583.5151515151516 898.181818181818,573.979797979798 888.6464646464647,564.4444444444445 879.111111111111,554.909090909091 869.5757575757575,545.3737373737374 860.0404040404039,535.838383838384 850.5050505050505,526.3030303030304 840.969696969697,516.7676767676768 831.4343434343433,507.23232323232327 821.8989898989898,497.69696969696975 812.3636363636363,488.1616161616163 802.8282828282828,478.6262626262627 793.2929292929292,469.0909090909092 783.7575757575758,459.5555555555556 774.2222222222222,450.0202020202021 764.6868686868686,440.4848484848486 755.1515151515151,430.94949494949503 745.6161616161615,421.4141414141415 736.0808080808081,411.87878787878793 726.5454545454545,402.3434343434344 717.0101010101009,392.80808080808094 707.4747474747475,383.27272727272737 697.9393939393939,373.73737373737384 688.4040404040404,364.2020202020203 678.8686868686868,354.66666666666674 678.8686868686868,345.1313131313133 678.8686868686868,335.5959595959597 678.8686868686868,326.06060606060623 678.8686868686868,316.5252525252526" fill="none" stroke="rgba(255,0,0,0.75)" stroke-width="11.327999999999996"/></g><g><polyline data-points="1.767676767676768,2.070707070707072 1.6666666666666674,2.1717171717171726 1.5656565656565666,2.2727272727272734 1.4646464646464652,2.373737373737375 1.3636363636363644,2.4747474747474754 1.262626262626263,2.575757575757577 1.1616161616161622,2.575757575757577 1.0606060606060617,2.575757575757577 0.9595959595959602,2.575757575757577 0.8585858585858596,2.575757575757577 0.7575757575757579,2.575757575757577 0.6565656565656574,2.575757575757577 0.5555555555555567,2.575757575757577 0.4545454545454551,2.575757575757577 0.3535353535353544,2.575757575757577 0.2525252525252529,2.575757575757577 0.1515151515151522,2.575757575757577 0.050505050505051545,2.575757575757577 -0.05050505050505001,2.575757575757577 -0.15151515151515066,2.575757575757577 -0.2525252525252522,2.575757575757577 -0.35353535353535287,2.575757575757577 -0.4545454545454544,2.575757575757577 -0.555555555555555,2.575757575757577 -0.6565656565656557,2.575757575757577 -0.7575757575757572,2.575757575757577 -0.8585858585858579,2.575757575757577 -0.9595959595959596,2.575757575757577 -1.0606060606060603,2.575757575757577 -1.1616161616161613,2.575757575757577 -1.2626262626262625,2.575757575757577 -1.363636363636363,2.575757575757577 -1.4646464646464643,2.575757575757577 -1.5656565656565653,2.575757575757577 -1.6666666666666665,2.575757575757577 -1.7676767676767675,2.575757575757577 -1.8686868686868683,2.575757575757577 -1.9696969696969693,2.575757575757577 -2.07070707070707,2.575757575757577 -2.1717171717171713,2.575757575757577 -2.2727272727272725,2.575757575757577 -2.3737373737373733,2.575757575757577 -2.474747474747474,2.575757575757577 -2.5757575757575752,2.575757575757577 -2.6767676767676765,2.575757575757577 -2.7777777777777777,2.575757575757577 -2.8787878787878785,2.575757575757577 -2.9797979797979792,2.575757575757577 -3.0808080808080804,2.575757575757577 -3.1818181818181817,2.575757575757577 -3.2828282828282824,2.575757575757577 -3.383838383838383,2.575757575757577 -3.484848484848485,2.575757575757577 -3.5858585858585856,2.575757575757577 -3.6868686868686864,2.575757575757577 -3.7878787878787876,2.575757575757577 -3.8888888888888884,2.575757575757577 -3.98989898989899,2.676767676767678" data-type="line" data-label="" points="678.8686868686868,316.5252525252526 669.3333333333333,306.9898989898991 659.7979797979798,297.4545454545456 650.2626262626262,287.91919191919203 640.7272727272727,278.38383838383857 631.1919191919192,268.84848484848493 621.6565656565656,268.84848484848493 612.1212121212121,268.84848484848493 602.5858585858585,268.84848484848493 593.0505050505051,268.84848484848493 583.5151515151515,268.84848484848493 573.9797979797979,268.84848484848493 564.4444444444445,268.84848484848493 554.9090909090909,268.84848484848493 545.3737373737374,268.84848484848493 535.8383838383838,268.84848484848493 526.3030303030303,268.84848484848493 516.7676767676768,268.84848484848493 507.2323232323232,268.84848484848493 497.69696969696975,268.84848484848493 488.16161616161617,268.84848484848493 478.62626262626264,268.84848484848493 469.09090909090907,268.84848484848493 459.55555555555554,268.84848484848493 450.0202020202021,268.84848484848493 440.4848484848485,268.84848484848493 430.949494949495,268.84848484848493 421.4141414141414,268.84848484848493 411.8787878787879,268.84848484848493 402.34343434343435,268.84848484848493 392.80808080808083,268.84848484848493 383.2727272727273,268.84848484848493 373.7373737373738,268.84848484848493 364.2020202020202,268.84848484848493 354.6666666666667,268.84848484848493 345.13131313131316,268.84848484848493 335.59595959595964,268.84848484848493 326.0606060606061,268.84848484848493 316.5252525252526,268.84848484848493 306.9898989898991,268.84848484848493 297.4545454545455,268.84848484848493 287.91919191919203,268.84848484848493 278.38383838383845,268.84848484848493 268.84848484848493,268.84848484848493 259.3131313131314,268.84848484848493 249.77777777777783,268.84848484848493 240.2424242424243,268.84848484848493 230.70707070707084,268.84848484848493 221.17171717171726,268.84848484848493 211.63636363636374,268.84848484848493 202.10101010101022,268.84848484848493 192.5656565656567,268.84848484848493 183.03030303030312,268.84848484848493 173.4949494949496,268.84848484848493 163.95959595959607,268.84848484848493 154.42424242424255,268.84848484848493 144.88888888888903,268.84848484848493 135.35353535353545,259.3131313131314" fill="none" stroke="rgba(0,0,255,0.75)" stroke-width="11.327999999999996"/></g><g><polyline data-points="-3.98989898989899,2.676767676767678 -3.98989898989899,2.575757575757577 -3.98989898989899,2.4747474747474754 -3.98989898989899,2.373737373737375 -3.98989898989899,2.2727272727272734 -3.98989898989899,2.1717171717171726 -3.98989898989899,2.070707070707072 -3.98989898989899,1.9696969696969702 -3.98989898989899,1.8686868686868696 -3.98989898989899,1.767676767676768 -3.98989898989899,1.6666666666666674" data-type="line" data-label="" points="135.35353535353545,259.3131313131314 135.35353535353545,268.84848484848493 135.35353535353545,278.38383838383857 135.35353535353545,287.91919191919203 135.35353535353545,297.4545454545456 135.35353535353545,306.9898989898991 135.35353535353545,316.5252525252526 135.35353535353545,326.06060606060623 135.35353535353545,335.5959595959597 135.35353535353545,345.1313131313133 135.35353535353545,354.66666666666674" fill="none" stroke="rgba(255,0,0,0.75)" stroke-width="11.327999999999996"/></g><g><polyline data-points="-3.98989898989899,1.6666666666666674 -4.090909090909091,1.767676767676768 -4.191919191919193,1.8686868686868696 -4.292929292929293,1.9696969696969702 -4.393939393939394,2.070707070707072 -4.494949494949496,2.1717171717171726 -4.595959595959596,2.2727272727272734 -4.696969696969697,2.373737373737375 -4.7979797979797985,2.4747474747474754 -4.898989898989899,2.575757575757577 -5.000000000000001,2.575757575757577" data-type="line" data-label="" points="135.35353535353545,354.66666666666674 125.81818181818193,345.1313131313133 116.28282828282829,335.5959595959597 106.74747474747483,326.06060606060623 97.21212121212136,316.5252525252526 87.67676767676772,306.9898989898991 78.14141414141426,297.4545454545456 68.60606060606068,287.91919191919203 59.07070707070716,278.38383838383857 49.53535353535369,268.84848484848493 40.00000000000006,268.84848484848493" fill="none" stroke="rgba(0,0,255,0.75)" stroke-width="11.327999999999996"/></g><g><polyline data-points="5.000000000000002,-1.2626262626262625 4.898989898989901,-1.2626262626262625 4.7979797979797985,-1.363636363636363 4.696969696969697,-1.4646464646464643 4.595959595959597,-1.5656565656565653 4.494949494949497,-1.6666666666666665 4.393939393939394,-1.7676767676767675 4.292929292929293,-1.7676767676767675 4.191919191919193,-1.7676767676767675 4.090909090909092,-1.7676767676767675 3.989898989898992,-1.7676767676767675 3.8888888888888893,-1.7676767676767675 3.7878787878787885,-1.8686868686868683 3.6868686868686877,-1.9696969696969693 3.5858585858585874,-2.07070707070707 3.4848484848484866,-2.1717171717171713 3.383838383838384,-2.2727272727272725 3.2828282828282833,-2.3737373737373733" data-type="line" data-label="" points="984,631.1919191919193 974.4646464646464,631.1919191919193 964.9292929292927,640.7272727272727 955.3939393939393,650.2626262626263 945.8585858585857,659.7979797979798 936.3232323232323,669.3333333333334 926.7878787878785,678.8686868686868 917.2525252525251,678.8686868686868 907.7171717171716,678.8686868686868 898.181818181818,678.8686868686868 888.6464646464647,678.8686868686868 879.111111111111,678.8686868686868 869.5757575757575,688.4040404040404 860.0404040404039,697.939393939394 850.5050505050505,707.4747474747475 840.969696969697,717.010101010101 831.4343434343433,726.5454545454545 821.8989898989898,736.0808080808081" fill="none" stroke="rgba(0,0,255,0.75)" stroke-width="11.327999999999996"/></g><g><polyline data-points="3.2828282828282833,-2.3737373737373733 3.181818181818183,-2.474747474747474 3.080808080808082,-2.5757575757575752 2.9797979797979806,-2.6767676767676765 2.87878787878788,-2.7777777777777777 2.7777777777777786,-2.8787878787878785 2.7777777777777786,-2.9797979797979792 2.7777777777777786,-3.0808080808080804 2.7777777777777786,-3.1818181818181817" data-type="line" data-label="" points="821.8989898989898,736.0808080808081 812.3636363636363,745.6161616161615 802.8282828282828,755.1515151515151 793.2929292929292,764.6868686868687 783.7575757575758,774.2222222222222 774.2222222222222,783.7575757575758 774.2222222222222,793.2929292929292 774.2222222222222,802.8282828282828 774.2222222222222,812.3636363636363" fill="none" stroke="rgba(255,0,0,0.75)" stroke-width="11.327999999999996"/></g><g><polyline data-points="2.7777777777777786,-3.1818181818181817 2.676767676767678,-3.1818181818181817 2.575757575757577,-3.1818181818181817 2.4747474747474754,-3.1818181818181817 2.373737373737375,-3.1818181818181817 2.2727272727272734,-3.1818181818181817 2.1717171717171726,-3.1818181818181817 2.070707070707072,-3.1818181818181817 1.9696969696969702,-3.1818181818181817 1.8686868686868696,-3.1818181818181817 1.767676767676768,-3.1818181818181817 1.6666666666666674,-3.2828282828282824 1.5656565656565666,-3.383838383838383 1.4646464646464652,-3.484848484848485 1.3636363636363644,-3.5858585858585856 1.262626262626263,-3.484848484848485 1.1616161616161622,-3.383838383838383 1.0606060606060617,-3.2828282828282824 0.9595959595959602,-3.1818181818181817 0.8585858585858596,-3.0808080808080804 0.7575757575757579,-2.9797979797979792 0.6565656565656574,-2.8787878787878785 0.5555555555555567,-2.7777777777777777 0.4545454545454551,-2.6767676767676765 0.3535353535353544,-2.5757575757575752 0.2525252525252529,-2.474747474747474 0.1515151515151522,-2.3737373737373733 0.050505050505051545,-2.3737373737373733 -0.05050505050505001,-2.3737373737373733 -0.15151515151515066,-2.3737373737373733 -0.2525252525252522,-2.3737373737373733 -0.35353535353535287,-2.3737373737373733 -0.4545454545454544,-2.3737373737373733" data-type="line" data-label="" points="774.2222222222222,812.3636363636363 764.6868686868686,812.3636363636363 755.1515151515151,812.3636363636363 745.6161616161615,812.3636363636363 736.0808080808081,812.3636363636363 726.5454545454545,812.3636363636363 717.0101010101009,812.3636363636363 707.4747474747475,812.3636363636363 697.9393939393939,812.3636363636363 688.4040404040404,812.3636363636363 678.8686868686868,812.3636363636363 669.3333333333333,821.8989898989898 659.7979797979798,831.4343434343434 650.2626262626262,840.969696969697 640.7272727272727,850.5050505050505 631.1919191919192,840.969696969697 621.6565656565656,831.4343434343434 612.1212121212121,821.8989898989898 602.5858585858585,812.3636363636363 593.0505050505051,802.8282828282828 583.5151515151515,793.2929292929292 573.9797979797979,783.7575757575758 564.4444444444445,774.2222222222222 554.9090909090909,764.6868686868687 545.3737373737374,755.1515151515151 535.8383838383838,745.6161616161615 526.3030303030303,736.0808080808081 516.7676767676768,736.0808080808081 507.2323232323232,736.0808080808081 497.69696969696975,736.0808080808081 488.16161616161617,736.0808080808081 478.62626262626264,736.0808080808081 469.09090909090907,736.0808080808081" fill="none" stroke="rgba(0,0,255,0.75)" stroke-width="11.327999999999996"/></g><g><polyline data-points="-0.4545454545454544,-2.3737373737373733 -0.555555555555555,-2.2727272727272725 -0.6565656565656557,-2.1717171717171713 -0.7575757575757572,-2.07070707070707 -0.8585858585858579,-1.9696969696969693 -0.9595959595959596,-1.9696969696969693 -1.0606060606060603,-1.9696969696969693 -1.1616161616161613,-1.9696969696969693 -1.2626262626262625,-1.9696969696969693 -1.363636363636363,-1.8686868686868683 -1.4646464646464643,-1.7676767676767675 -1.5656565656565653,-1.6666666666666665 -1.6666666666666665,-1.5656565656565653" data-type="line" data-label="" points="469.09090909090907,736.0808080808081 459.55555555555554,726.5454545454545 450.0202020202021,717.010101010101 440.4848484848485,707.4747474747475 430.949494949495,697.939393939394 421.4141414141414,697.939393939394 411.8787878787879,697.939393939394 402.34343434343435,697.939393939394 392.80808080808083,697.939393939394 383.2727272727273,688.4040404040404 373.7373737373738,678.8686868686868 364.2020202020202,669.3333333333334 354.6666666666667,659.7979797979798" fill="none" stroke="rgba(255,0,0,0.75)" stroke-width="11.327999999999996"/></g><g><polyline data-points="-1.6666666666666665,-1.5656565656565653 -1.7676767676767675,-1.6666666666666665 -1.8686868686868683,-1.7676767676767675 -1.9696969696969693,-1.7676767676767675 -2.07070707070707,-1.7676767676767675 -2.1717171717171713,-1.7676767676767675 -2.2727272727272725,-1.7676767676767675 -2.3737373737373733,-1.7676767676767675 -2.474747474747474,-1.7676767676767675 -2.5757575757575752,-1.7676767676767675 -2.6767676767676765,-1.7676767676767675 -2.7777777777777777,-1.7676767676767675 -2.8787878787878785,-1.7676767676767675 -2.9797979797979792,-1.7676767676767675 -3.0808080808080804,-1.7676767676767675 -3.1818181818181817,-1.7676767676767675 -3.2828282828282824,-1.7676767676767675 -3.383838383838383,-1.7676767676767675 -3.484848484848485,-1.7676767676767675 -3.5858585858585856,-1.7676767676767675 -3.6868686868686864,-1.7676767676767675 -3.7878787878787876,-1.7676767676767675 -3.8888888888888884,-1.7676767676767675 -3.98989898989899,-1.7676767676767675 -4.090909090909091,-1.7676767676767675 -4.191919191919193,-1.7676767676767675 -4.292929292929293,-1.7676767676767675 -4.393939393939394,-1.7676767676767675 -4.494949494949496,-1.7676767676767675 -4.595959595959596,-1.7676767676767675 -4.696969696969697,-1.7676767676767675 -4.7979797979797985,-1.7676767676767675 -4.898989898989899,-1.7676767676767675 -5.000000000000001,-1.8686868686868683" data-type="line" data-label="" points="354.6666666666667,659.7979797979798 345.13131313131316,669.3333333333334 335.59595959595964,678.8686868686868 326.0606060606061,678.8686868686868 316.5252525252526,678.8686868686868 306.9898989898991,678.8686868686868 297.4545454545455,678.8686868686868 287.91919191919203,678.8686868686868 278.38383838383845,678.8686868686868 268.84848484848493,678.8686868686868 259.3131313131314,678.8686868686868 249.77777777777783,678.8686868686868 240.2424242424243,678.8686868686868 230.70707070707084,678.8686868686868 221.17171717171726,678.8686868686868 211.63636363636374,678.8686868686868 202.10101010101022,678.8686868686868 192.5656565656567,678.8686868686868 183.03030303030312,678.8686868686868 173.4949494949496,678.8686868686868 163.95959595959607,678.8686868686868 154.42424242424255,678.8686868686868 144.88888888888903,678.8686868686868 135.35353535353545,678.8686868686868 125.81818181818193,678.8686868686868 116.28282828282829,678.8686868686868 106.74747474747483,678.8686868686868 97.21212121212136,678.8686868686868 87.67676767676772,678.8686868686868 78.14141414141426,678.8686868686868 68.60606060606068,678.8686868686868 59.07070707070716,678.8686868686868 49.53535353535369,678.8686868686868 40.00000000000006,688.4040404040404" fill="none" stroke="rgba(0,0,255,0.75)" stroke-width="11.327999999999996"/></g><g><rect data-type="rect" data-label="" data-x="0" data-y="0" x="40.000000000000114" y="40.000000000000284" width="943.9999999999997" height="943.9999999999998" fill="none" stroke="gray" stroke-width="0.010593220338983056"/></g><g><rect data-type="rect" data-label="" data-x="0" data-y="0" x="40.000000000000114" y="40.000000000000284" width="943.9999999999997" height="943.9999999999998" fill="none" stroke="rgba(15, 23, 42, 0.8)" stroke-width="0.010593220338983056"/></g><circle data-type="circle" data-label="" data-x="-3.383838383838383" data-y="3.989898989898992" cx="192.5656565656567" cy="135.35353535353545" r="14.159999999999995" fill="rgba(0,0,0,0.3)" stroke="black" stroke-width="0.010593220338983056"/><circle data-type="circle" data-label="" data-x="1.3636363636363644" data-y="-2.7777777777777777" cx="640.7272727272727" cy="774.2222222222222" r="14.159999999999995" fill="rgba(0,0,0,0.3)" stroke="black" stroke-width="0.010593220338983056"/><circle data-type="circle" data-label="" data-x="3.989898989898992" data-y="-2.7777777777777777" cx="888.6464646464647" cy="774.2222222222222" r="14.159999999999995" fill="rgba(0,0,0,0.3)" stroke="black" stroke-width="0.010593220338983056"/><circle data-type="circle" data-label="" data-x="2.87878787878788" data-y="-1.4646464646464643" cx="783.7575757575758" cy="650.2626262626263" r="14.159999999999995" fill="rgba(0,0,0,0.3)" stroke="black" stroke-width="0.010593220338983056"/><circle data-type="circle" data-label="" data-x="3.6868686868686877" data-y="-2.2727272727272725" cx="860.0404040404039" cy="726.5454545454545" r="14.159999999999995" fill="rgba(0,0,0,0.3)" stroke="black" stroke-width="0.010593220338983056"/><circle data-type="circle" data-label="" data-x="-2.3737373737373733" data-y="-2.3737373737373733" cx="287.91919191919203" cy="736.0808080808081" r="14.159999999999995" fill="rgba(0,0,0,0.3)" stroke="black" stroke-width="0.010593220338983056"/><circle data-type="circle" data-label="" data-x="-2.3737373737373733" data-y="-3.98989898989899" cx="287.91919191919203" cy="888.6464646464647" r="14.159999999999995" fill="rgba(0,0,0,0.3)" stroke="black" stroke-width="0.010593220338983056"/><circle data-type="circle" data-label="" data-x="1.3636363636363644" data-y="-3.2828282828282824" cx="640.7272727272727" cy="821.8989898989898" r="14.159999999999995" fill="rgba(0,0,0,0.3)" stroke="black" stroke-width="0.010593220338983056"/><circle data-type="circle" data-label="" data-x="1.5656565656565666" data-y="-1.9696969696969693" cx="659.7979797979798" cy="697.939393939394" r="14.159999999999995" fill="rgba(0,0,0,0.3)" stroke="black" stroke-width="0.010593220338983056"/><circle data-type="circle" data-label="" data-x="1.3636363636363644" data-y="3.989898989898992" cx="640.7272727272727" cy="135.35353535353545" r="14.159999999999995" fill="rgba(0,0,0,0.3)" stroke="black" stroke-width="0.010593220338983056"/><circle data-type="circle" data-label="" data-x="1.767676767676768" data-y="2.070707070707072" cx="678.8686868686868" cy="316.5252525252526" r="14.159999999999995" fill="rgba(0,0,0,0.3)" stroke="black" stroke-width="0.010593220338983056"/><circle data-type="circle" data-label="" data-x="-3.98989898989899" data-y="2.676767676767678" cx="135.35353535353545" cy="259.3131313131314" r="14.159999999999995" fill="rgba(0,0,0,0.3)" stroke="black" stroke-width="0.010593220338983056"/><circle data-type="circle" data-label="" data-x="-3.98989898989899" data-y="1.6666666666666674" cx="135.35353535353545" cy="354.66666666666674" r="14.159999999999995" fill="rgba(0,0,0,0.3)" stroke="black" stroke-width="0.010593220338983056"/><circle data-type="circle" data-label="" data-x="3.2828282828282833" data-y="-2.3737373737373733" cx="821.8989898989898" cy="736.0808080808081" r="14.159999999999995" fill="rgba(0,0,0,0.3)" stroke="black" stroke-width="0.010593220338983056"/><circle data-type="circle" data-label="" data-x="2.7777777777777786" data-y="-3.1818181818181817" cx="774.2222222222222" cy="812.3636363636363" r="14.159999999999995" fill="rgba(0,0,0,0.3)" stroke="black" stroke-width="0.010593220338983056"/><circle data-type="circle" data-label="" data-x="-0.4545454545454544" data-y="-2.3737373737373733" cx="469.09090909090907" cy="736.0808080808081" r="14.159999999999995" fill="rgba(0,0,0,0.3)" stroke="black" stroke-width="0.010593220338983056"/><circle data-type="circle" data-label="" data-x="-1.6666666666666665" data-y="-1.5656565656565653" cx="354.6666666666667" cy="659.7979797979798" r="14.159999999999995" fill="rgba(0,0,0,0.3)" stroke="black" stroke-width="0.010593220338983056"/><g id="crosshair" style="display: none"><line id="crosshair-h" y1="0" y2="1024" stroke="#666" stroke-width="0.5"/><line id="crosshair-v" x1="0" x2="1024" stroke="#666" stroke-width="0.5"/><text id="coordinates" font-family="monospace" font-size="12" fill="#666"></text></g><script><![CDATA[
              document.currentScript.parentElement.addEventListener('mousemove', (e) => {
                const svg = e.currentTarget;
                const rect = svg.getBoundingClientRect();
                const x = e.clientX - rect.left;
                const y = e.clientY - rect.top;
                const crosshair = svg.getElementById('crosshair');
                const h = svg.getElementById('crosshair-h');
                const v = svg.getElementById('crosshair-v');
                const coords = svg.getElementById('coordinates');
                
                crosshair.style.display = 'block';
                h.setAttribute('x1', '0');
                h.setAttribute('x2', '1024');
                h.setAttribute('y1', y);
                h.setAttribute('y2', y);
                v.setAttribute('x1', x);
                v.setAttribute('x2', x);
                v.setAttribute('y1', '0');
                v.setAttribute('y2', '1024');

                // Calculate real coordinates using inverse transformation
                const matrix = {"a":94.39999999999996,"c":0,"e":511.99999999999994,"b":0,"d":-94.39999999999996,"f":512.0000000000001};
                // Manually invert and apply the affine transform
                // Since we only use translate and scale, we can directly compute:
                // x' = (x - tx) / sx
                // y' = (y - ty) / sy
                const sx = matrix.a;
                const sy = matrix.d;
                const tx = matrix.e; 
                const ty = matrix.f;
                const realPoint = {
                  x: (x - tx) / sx,
                  y: (y - ty) / sy // Flip y back since we used negative scale
                }
                
                coords.textContent = `(${realPoint.x.toFixed(2)}, ${realPoint.y.toFixed(2)})`;
                coords.setAttribute('x', (x + 5).toString());
                coords.setAttribute('y', (y - 5).toString());
              });
              document.currentScript.parentElement.addEventListener('mouseleave', () => {
                document.currentScript.parentElement.getElementById('crosshair').style.display = 'none';
              });
            ]]></script></svg>