<svg width="1024" height="1024" viewBox="0 0 1024 1024" xmlns="http://www.w3.org/2000/svg"><rect width="100%" height="100%" fill="white"/><g><circle data-type="point" data-label="conn_000" data-x="-0.28" data-y="-5" cx="485.5679999999999" cy="984" r="14.16" fill="blue"/></g><g><circle data-type="point" data-label="conn_000" data-x="2.66" data-y="5" cx="763.1039999999998" cy="40.000000000000284" r="14.16" fill="red"/></g><g><circle data-type="point" data-label="conn_001" data-x="-5" data-y="-3.36" cx="40.000000000000114" cy="829.184" r="14.16" fill="red"/></g><g><circle data-type="point" data-label="conn_001" data-x="5" data-y="3.64" cx="983.9999999999998" cy="168.38400000000024" r="14.16" fill="red"/></g><g><circle data-type="point" data-label="conn_002" data-x="-4.38" data-y="5" cx="98.52800000000013" cy="40.000000000000284" r="14.16" fill="red"/></g><g><circle data-type="point" data-label="conn_002" data-x="-1.6" data-y="-5" cx="360.96000000000004" cy="984" r="14.16" fill="red"/></g><g><polyline data-points="-4.393939393939394,5.000000000000002 -4.292929292929293,4.898989898989901 -4.191919191919193,4.7979797979797985 -4.090909090909091,4.696969696969697 -3.98989898989899,4.595959595959597 -3.8888888888888884,4.494949494949497 -3.7878787878787876,4.393939393939394 -3.6868686868686864,4.292929292929293 -3.5858585858585856,4.191919191919193 -3.484848484848485,4.090909090909092 -3.383838383838383,3.989898989898992 -3.2828282828282824,3.8888888888888893 -3.1818181818181817,3.7878787878787885 -3.0808080808080804,3.6868686868686877 -2.9797979797979792,3.5858585858585874 -2.8787878787878785,3.4848484848484866 -2.7777777777777777,3.383838383838384 -2.6767676767676765,3.2828282828282833 -2.5757575757575752,3.181818181818183 -2.474747474747474,3.080808080808082 -2.3737373737373733,2.9797979797979806 -2.2727272727272725,2.87878787878788 -2.1717171717171713,2.7777777777777786 -2.07070707070707,2.676767676767678 -1.9696969696969693,2.575757575757577 -1.8686868686868683,2.4747474747474754 -1.7676767676767675,2.373737373737375 -1.6666666666666665,2.2727272727272734 -1.5656565656565653,2.1717171717171726 -1.5656565656565653,2.070707070707072 -1.5656565656565653,1.9696969696969702 -1.5656565656565653,1.8686868686868696 -1.5656565656565653,1.767676767676768 -1.5656565656565653,1.6666666666666674 -1.5656565656565653,1.5656565656565666 -1.5656565656565653,1.4646464646464652 -1.5656565656565653,1.3636363636363644 -1.5656565656565653,1.262626262626263 -1.5656565656565653,1.1616161616161622 -1.5656565656565653,1.0606060606060617 -1.5656565656565653,0.9595959595959602 -1.5656565656565653,0.8585858585858596 -1.5656565656565653,0.7575757575757579 -1.5656565656565653,0.6565656565656574 -1.5656565656565653,0.5555555555555567 -1.5656565656565653,0.4545454545454551 -1.5656565656565653,0.3535353535353544 -1.5656565656565653,0.2525252525252529 -1.5656565656565653,0.1515151515151522 -1.5656565656565653,0.050505050505051545 -1.5656565656565653,-0.05050505050505001 -1.5656565656565653,-0.15151515151515066 -1.5656565656565653,-0.2525252525252522 -1.5656565656565653,-0.35353535353535287 -1.5656565656565653,-0.4545454545454544 -1.5656565656565653,-0.555555555555555 -1.5656565656565653,-0.6565656565656557 -1.5656565656565653,-0.7575757575757572 -1.5656565656565653,-0.8585858585858579 -1.5656565656565653,-0.9595959595959596 -1.5656565656565653,-1.0606060606060603 -1.5656565656565653,-1.1616161616161613 -1.5656565656565653,-1.2626262626262625 -1.5656565656565653,-1.363636363636363 -1.5656565656565653,-1.4646464646464643 -1.5656565656565653,-1.5656565656565653 -1.5656565656565653,-1.6666666666666665 -1.5656565656565653,-1.7676767676767675 -1.5656565656565653,-1.8686868686868683 -1.5656565656565653,-1.9696969696969693 -1.5656565656565653,-2.07070707070707 -1.5656565656565653,-2.1717171717171713 -1.5656565656565653,-2.2727272727272725 -1.5656565656565653,-2.3737373737373733 -1.5656565656565653,-2.474747474747474 -1.5656565656565653,-2.5757575757575752 -1.5656565656565653,-2.6767676767676765 -1.5656565656565653,-2.7777777777777777 -1.5656565656565653,-2.8787878787878785 -1.5656565656565653,-2.9797979797979792 -1.5656565656565653,-3.0808080808080804 -1.5656565656565653,-3.1818181818181817 -1.5656565656565653,-3.2828282828282824 -1.5656565656565653,-3.383838383838383 -1.5656565656565653,-3.484848484848485 -1.5656565656565653,-3.5858585858585856 -1.5656565656565653,-3.6868686868686864 -1.5656565656565653,-3.7878787878787876 -1.5656565656565653,-3.8888888888888884 -1.5656565656565653,-3.98989898989899 -1.5656565656565653,-4.090909090909091 -1.5656565656565653,-4.191919191919193 -1.5656565656565653,-4.292929292929293 -1.5656565656565653,-4.393939393939394 -1.5656565656565653,-4.494949494949496 -1.5656565656565653,-4.595959595959596 -1.5656565656565653,-4.696969696969697 -1.5656565656565653,-4.7979797979797985 -1.5656565656565653,-4.898989898989899 -1.5656565656565653,-5.000000000000001" data-type="line" data-label="" points="97.21212121212136,40.000000000000114 106.74747474747483,49.53535353535369 116.28282828282829,59.07070707070733 125.81818181818193,68.60606060606085 135.35353535353545,78.14141414141432 144.88888888888903,87.67676767676778 154.42424242424255,97.21212121212153 163.95959595959607,106.747474747475 173.4949494949496,116.28282828282846 183.03030303030312,125.81818181818198 192.5656565656567,135.35353535353545 202.10101010101022,144.88888888888908 211.63636363636374,154.4242424242426 221.17171717171726,163.95959595959613 230.70707070707084,173.4949494949496 240.2424242424243,183.03030303030312 249.77777777777783,192.56565656565675 259.3131313131314,202.10101010101027 268.84848484848493,211.63636363636374 278.38383838383845,221.17171717171726 287.91919191919203,230.70707070707084 297.4545454545455,240.24242424242436 306.9898989898991,249.77777777777794 316.5252525252526,259.3131313131314 326.0606060606061,268.84848484848493 335.59595959595964,278.38383838383857 345.13131313131316,287.91919191919203 354.6666666666667,297.4545454545456 364.2020202020202,306.9898989898991 364.2020202020202,316.5252525252526 364.2020202020202,326.06060606060623 364.2020202020202,335.5959595959597 364.2020202020202,345.1313131313133 364.2020202020202,354.66666666666674 364.2020202020202,364.2020202020203 364.2020202020202,373.73737373737384 364.2020202020202,383.27272727272737 364.2020202020202,392.80808080808094 364.2020202020202,402.3434343434344 364.2020202020202,411.87878787878793 364.2020202020202,421.4141414141415 364.2020202020202,430.94949494949503 364.2020202020202,440.4848484848486 364.2020202020202,450.0202020202021 364.2020202020202,459.5555555555556 364.2020202020202,469.0909090909092 364.2020202020202,478.6262626262627 364.2020202020202,488.1616161616163 364.2020202020202,497.69696969696975 364.2020202020202,507.23232323232327 364.2020202020202,516.7676767676768 364.2020202020202,526.3030303030304 364.2020202020202,535.838383838384 364.2020202020202,545.3737373737374 364.2020202020202,554.909090909091 364.2020202020202,564.4444444444445 364.2020202020202,573.979797979798 364.2020202020202,583.5151515151516 364.2020202020202,593.0505050505051 364.2020202020202,602.5858585858587 364.2020202020202,612.1212121212121 364.2020202020202,621.6565656565657 364.2020202020202,631.1919191919193 364.2020202020202,640.7272727272727 364.2020202020202,650.2626262626263 364.2020202020202,659.7979797979798 364.2020202020202,669.3333333333334 364.2020202020202,678.8686868686868 364.2020202020202,688.4040404040404 364.2020202020202,697.939393939394 364.2020202020202,707.4747474747475 364.2020202020202,717.010101010101 364.2020202020202,726.5454545454545 364.2020202020202,736.0808080808081 364.2020202020202,745.6161616161615 364.2020202020202,755.1515151515151 364.2020202020202,764.6868686868687 364.2020202020202,774.2222222222222 364.2020202020202,783.7575757575758 364.2020202020202,793.2929292929292 364.2020202020202,802.8282828282828 364.2020202020202,812.3636363636363 364.2020202020202,821.8989898989898 364.2020202020202,831.4343434343434 364.2020202020202,840.969696969697 364.2020202020202,850.5050505050505 364.2020202020202,860.0404040404039 364.2020202020202,869.5757575757575 364.2020202020202,879.1111111111111 364.2020202020202,888.6464646464647 364.2020202020202,898.1818181818181 364.2020202020202,907.7171717171718 364.2020202020202,917.2525252525252 364.2020202020202,926.7878787878788 364.2020202020202,936.3232323232323 364.2020202020202,945.8585858585858 364.2020202020202,955.3939393939394 364.2020202020202,964.9292929292928 364.2020202020202,974.4646464646464 364.2020202020202,984" fill="none" stroke="rgba(255,0,0,0.75)" stroke-width="11.327999999999996"/></g><g><polyline data-points="-5.000000000000001,-3.383838383838383 -4.898989898989899,-3.2828282828282824 -4.7979797979797985,-3.1818181818181817 -4.696969696969697,-3.0808080808080804 -4.595959595959596,-2.9797979797979792 -4.494949494949496,-2.8787878787878785 -4.393939393939394,-2.7777777777777777 -4.292929292929293,-2.6767676767676765 -4.191919191919193,-2.5757575757575752 -4.090909090909091,-2.474747474747474 -3.98989898989899,-2.3737373737373733 -3.8888888888888884,-2.2727272727272725 -3.7878787878787876,-2.1717171717171713 -3.6868686868686864,-2.07070707070707 -3.5858585858585856,-1.9696969696969693 -3.484848484848485,-1.8686868686868683 -3.383838383838383,-1.7676767676767675 -3.2828282828282824,-1.6666666666666665 -3.1818181818181817,-1.5656565656565653 -3.0808080808080804,-1.4646464646464643 -2.9797979797979792,-1.363636363636363 -2.8787878787878785,-1.2626262626262625 -2.7777777777777777,-1.1616161616161613 -2.6767676767676765,-1.0606060606060603 -2.5757575757575752,-0.9595959595959596 -2.474747474747474,-0.8585858585858579 -2.3737373737373733,-0.7575757575757572 -2.2727272727272725,-0.6565656565656557 -2.1717171717171713,-0.555555555555555 -2.07070707070707,-0.4545454545454544 -1.9696969696969693,-0.35353535353535287 -1.9696969696969693,-0.2525252525252522 -1.9696969696969693,-0.15151515151515066 -1.9696969696969693,-0.05050505050505001 -1.9696969696969693,0.050505050505051545 -1.9696969696969693,0.1515151515151522 -1.9696969696969693,0.2525252525252529 -1.9696969696969693,0.3535353535353544 -1.9696969696969693,0.4545454545454551 -1.9696969696969693,0.5555555555555567 -1.9696969696969693,0.6565656565656574 -1.9696969696969693,0.7575757575757579 -1.9696969696969693,0.8585858585858596 -1.9696969696969693,0.9595959595959602 -1.9696969696969693,1.0606060606060617 -1.9696969696969693,1.1616161616161622 -1.9696969696969693,1.262626262626263 -1.9696969696969693,1.3636363636363644 -1.9696969696969693,1.4646464646464652 -1.9696969696969693,1.5656565656565666 -1.9696969696969693,1.6666666666666674 -1.9696969696969693,1.767676767676768 -1.9696969696969693,1.8686868686868696 -1.9696969696969693,1.9696969696969702" data-type="line" data-label="" points="40.00000000000006,831.4343434343434 49.53535353535369,821.8989898989898 59.07070707070716,812.3636363636363 68.60606060606068,802.8282828282828 78.14141414141426,793.2929292929292 87.67676767676772,783.7575757575758 97.21212121212136,774.2222222222222 106.74747474747483,764.6868686868687 116.28282828282829,755.1515151515151 125.81818181818193,745.6161616161615 135.35353535353545,736.0808080808081 144.88888888888903,726.5454545454545 154.42424242424255,717.010101010101 163.95959595959607,707.4747474747475 173.4949494949496,697.939393939394 183.03030303030312,688.4040404040404 192.5656565656567,678.8686868686868 202.10101010101022,669.3333333333334 211.63636363636374,659.7979797979798 221.17171717171726,650.2626262626263 230.70707070707084,640.7272727272727 240.2424242424243,631.1919191919193 249.77777777777783,621.6565656565657 259.3131313131314,612.1212121212121 268.84848484848493,602.5858585858587 278.38383838383845,593.0505050505051 287.91919191919203,583.5151515151516 297.4545454545455,573.979797979798 306.9898989898991,564.4444444444445 316.5252525252526,554.909090909091 326.0606060606061,545.3737373737374 326.0606060606061,535.838383838384 326.0606060606061,526.3030303030304 326.0606060606061,516.7676767676768 326.0606060606061,507.23232323232327 326.0606060606061,497.69696969696975 326.0606060606061,488.1616161616163 326.0606060606061,478.6262626262627 326.0606060606061,469.0909090909092 326.0606060606061,459.5555555555556 326.0606060606061,450.0202020202021 326.0606060606061,440.4848484848486 326.0606060606061,430.94949494949503 326.0606060606061,421.4141414141415 326.0606060606061,411.87878787878793 326.0606060606061,402.3434343434344 326.0606060606061,392.80808080808094 326.0606060606061,383.27272727272737 326.0606060606061,373.73737373737384 326.0606060606061,364.2020202020203 326.0606060606061,354.66666666666674 326.0606060606061,345.1313131313133 326.0606060606061,335.5959595959597 326.0606060606061,326.06060606060623" fill="none" stroke="rgba(255,0,0,0.75)" stroke-width="11.327999999999996"/></g><g><polyline data-points="-1.9696969696969693,1.9696969696969702 -1.8686868686868683,2.070707070707072 -1.7676767676767675,2.1717171717171726 -1.6666666666666665,2.2727272727272734 -1.5656565656565653,2.373737373737375 -1.4646464646464643,2.4747474747474754 -1.363636363636363,2.575757575757577 -1.2626262626262625,2.676767676767678 -1.1616161616161613,2.7777777777777786 -1.0606060606060603,2.87878787878788 -0.9595959595959596,2.9797979797979806 -0.8585858585858579,3.080808080808082 -0.7575757575757572,3.181818181818183 -0.6565656565656557,3.2828282828282833 -0.555555555555555,3.383838383838384 -0.4545454545454544,3.4848484848484866 -0.35353535353535287,3.5858585858585874 -0.2525252525252522,3.6868686868686877 -0.15151515151515066,3.6868686868686877 -0.05050505050505001,3.6868686868686877 0.050505050505051545,3.6868686868686877 0.1515151515151522,3.6868686868686877 0.2525252525252529,3.6868686868686877 0.3535353535353544,3.6868686868686877 0.4545454545454551,3.6868686868686877 0.5555555555555567,3.6868686868686877 0.6565656565656574,3.6868686868686877 0.7575757575757579,3.6868686868686877 0.8585858585858596,3.6868686868686877 0.9595959595959602,3.6868686868686877 1.0606060606060617,3.6868686868686877 1.1616161616161622,3.6868686868686877 1.262626262626263,3.6868686868686877 1.3636363636363644,3.6868686868686877 1.4646464646464652,3.6868686868686877 1.5656565656565666,3.6868686868686877 1.6666666666666674,3.6868686868686877 1.767676767676768,3.6868686868686877 1.8686868686868696,3.6868686868686877 1.9696969696969702,3.6868686868686877 2.070707070707072,3.6868686868686877 2.1717171717171726,3.6868686868686877 2.2727272727272734,3.6868686868686877 2.373737373737375,3.6868686868686877 2.4747474747474754,3.6868686868686877 2.575757575757577,3.6868686868686877 2.676767676767678,3.6868686868686877 2.7777777777777786,3.6868686868686877 2.87878787878788,3.6868686868686877 2.9797979797979806,3.6868686868686877 3.080808080808082,3.6868686868686877 3.181818181818183,3.6868686868686877 3.2828282828282833,3.6868686868686877 3.383838383838384,3.6868686868686877 3.4848484848484866,3.6868686868686877 3.5858585858585874,3.6868686868686877 3.6868686868686877,3.6868686868686877 3.7878787878787885,3.6868686868686877 3.8888888888888893,3.6868686868686877 3.989898989898992,3.6868686868686877" data-type="line" data-label="" points="326.0606060606061,326.06060606060623 335.59595959595964,316.5252525252526 345.13131313131316,306.9898989898991 354.6666666666667,297.4545454545456 364.2020202020202,287.91919191919203 373.7373737373738,278.38383838383857 383.2727272727273,268.84848484848493 392.80808080808083,259.3131313131314 402.34343434343435,249.77777777777794 411.8787878787879,240.24242424242436 421.4141414141414,230.70707070707084 430.949494949495,221.17171717171726 440.4848484848485,211.63636363636374 450.0202020202021,202.10101010101027 459.55555555555554,192.56565656565675 469.09090909090907,183.03030303030312 478.62626262626264,173.4949494949496 488.16161616161617,163.95959595959613 497.69696969696975,163.95959595959613 507.2323232323232,163.95959595959613 516.7676767676768,163.95959595959613 526.3030303030303,163.95959595959613 535.8383838383838,163.95959595959613 545.3737373737374,163.95959595959613 554.9090909090909,163.95959595959613 564.4444444444445,163.95959595959613 573.9797979797979,163.95959595959613 583.5151515151515,163.95959595959613 593.0505050505051,163.95959595959613 602.5858585858585,163.95959595959613 612.1212121212121,163.95959595959613 621.6565656565656,163.95959595959613 631.1919191919192,163.95959595959613 640.7272727272727,163.95959595959613 650.2626262626262,163.95959595959613 659.7979797979798,163.95959595959613 669.3333333333333,163.95959595959613 678.8686868686868,163.95959595959613 688.4040404040404,163.95959595959613 697.9393939393939,163.95959595959613 707.4747474747475,163.95959595959613 717.0101010101009,163.95959595959613 726.5454545454545,163.95959595959613 736.0808080808081,163.95959595959613 745.6161616161615,163.95959595959613 755.1515151515151,163.95959595959613 764.6868686868686,163.95959595959613 774.2222222222222,163.95959595959613 783.7575757575758,163.95959595959613 793.2929292929292,163.95959595959613 802.8282828282828,163.95959595959613 812.3636363636363,163.95959595959613 821.8989898989898,163.95959595959613 831.4343434343433,163.95959595959613 840.969696969697,163.95959595959613 850.5050505050505,163.95959595959613 860.0404040404039,163.95959595959613 869.5757575757575,163.95959595959613 879.111111111111,163.95959595959613 888.6464646464647,163.95959595959613" fill="none" stroke="rgba(0,0,255,0.75)" stroke-width="11.327999999999996"/></g><g><polyline data-points="3.989898989898992,3.6868686868686877 4.090909090909092,3.6868686868686877 4.191919191919193,3.6868686868686877 4.292929292929293,3.6868686868686877 4.393939393939394,3.6868686868686877 4.494949494949497,3.6868686868686877 4.595959595959597,3.6868686868686877 4.696969696969697,3.6868686868686877 4.7979797979797985,3.6868686868686877 4.898989898989901,3.6868686868686877 5.000000000000002,3.6868686868686877" data-type="line" data-label="" points="888.6464646464647,163.95959595959613 898.181818181818,163.95959595959613 907.7171717171716,163.95959595959613 917.2525252525251,163.95959595959613 926.7878787878785,163.95959595959613 936.3232323232323,163.95959595959613 945.8585858585857,163.95959595959613 955.3939393939393,163.95959595959613 964.9292929292927,163.95959595959613 974.4646464646464,163.95959595959613 984,163.95959595959613" fill="none" stroke="rgba(255,0,0,0.75)" stroke-width="11.327999999999996"/></g><g><polyline data-points="-0.2525252525252522,-5.000000000000001 -0.15151515151515066,-4.898989898989899 -0.05050505050505001,-4.7979797979797985 0.050505050505051545,-4.696969696969697 0.1515151515151522,-4.595959595959596 0.2525252525252529,-4.494949494949496 0.3535353535353544,-4.393939393939394 0.4545454545454551,-4.292929292929293 0.5555555555555567,-4.191919191919193 0.6565656565656574,-4.090909090909091 0.7575757575757579,-3.98989898989899 0.8585858585858596,-3.8888888888888884 0.9595959595959602,-3.7878787878787876 1.0606060606060617,-3.6868686868686864 1.1616161616161622,-3.5858585858585856 1.262626262626263,-3.484848484848485 1.3636363636363644,-3.383838383838383 1.4646464646464652,-3.2828282828282824 1.5656565656565666,-3.1818181818181817 1.6666666666666674,-3.0808080808080804 1.767676767676768,-2.9797979797979792 1.8686868686868696,-2.8787878787878785 1.9696969696969702,-2.7777777777777777 2.070707070707072,-2.6767676767676765 2.1717171717171726,-2.5757575757575752 2.2727272727272734,-2.474747474747474 2.373737373737375,-2.3737373737373733 2.4747474747474754,-2.2727272727272725 2.575757575757577,-2.1717171717171713 2.676767676767678,-2.07070707070707 2.676767676767678,-1.9696969696969693 2.676767676767678,-1.8686868686868683 2.676767676767678,-1.7676767676767675 2.676767676767678,-1.6666666666666665 2.676767676767678,-1.5656565656565653 2.676767676767678,-1.4646464646464643 2.676767676767678,-1.363636363636363 2.676767676767678,-1.2626262626262625 2.676767676767678,-1.1616161616161613 2.676767676767678,-1.0606060606060603 2.676767676767678,-0.9595959595959596 2.676767676767678,-0.8585858585858579 2.676767676767678,-0.7575757575757572 2.676767676767678,-0.6565656565656557 2.676767676767678,-0.555555555555555 2.676767676767678,-0.4545454545454544 2.676767676767678,-0.35353535353535287 2.676767676767678,-0.2525252525252522 2.676767676767678,-0.15151515151515066 2.676767676767678,-0.05050505050505001 2.676767676767678,0.050505050505051545 2.676767676767678,0.1515151515151522 2.676767676767678,0.2525252525252529 2.676767676767678,0.3535353535353544 2.676767676767678,0.4545454545454551 2.676767676767678,0.5555555555555567 2.676767676767678,0.6565656565656574 2.676767676767678,0.7575757575757579 2.676767676767678,0.8585858585858596 2.676767676767678,0.9595959595959602 2.676767676767678,1.0606060606060617 2.676767676767678,1.1616161616161622 2.676767676767678,1.262626262626263 2.676767676767678,1.3636363636363644 2.676767676767678,1.4646464646464652 2.676767676767678,1.5656565656565666 2.676767676767678,1.6666666666666674 2.676767676767678,1.767676767676768 2.676767676767678,1.8686868686868696 2.676767676767678,1.9696969696969702 2.676767676767678,2.070707070707072 2.676767676767678,2.1717171717171726 2.676767676767678,2.2727272727272734 2.676767676767678,2.373737373737375 2.676767676767678,2.4747474747474754 2.676767676767678,2.575757575757577 2.676767676767678,2.676767676767678 2.676767676767678,2.7777777777777786 2.676767676767678,2.87878787878788 2.676767676767678,2.9797979797979806 2.676767676767678,3.080808080808082 2.676767676767678,3.181818181818183 2.676767676767678,3.2828282828282833" data-type="line" data-label="" points="488.16161616161617,984 497.69696969696975,974.4646464646464 507.2323232323232,964.9292929292928 516.7676767676768,955.3939393939394 526.3030303030303,945.8585858585858 535.8383838383838,936.3232323232323 545.3737373737374,926.7878787878788 554.9090909090909,917.2525252525252 564.4444444444445,907.7171717171718 573.9797979797979,898.1818181818181 583.5151515151515,888.6464646464647 593.0505050505051,879.1111111111111 602.5858585858585,869.5757575757575 612.1212121212121,860.0404040404039 621.6565656565656,850.5050505050505 631.1919191919192,840.969696969697 640.7272727272727,831.4343434343434 650.2626262626262,821.8989898989898 659.7979797979798,812.3636363636363 669.3333333333333,802.8282828282828 678.8686868686868,793.2929292929292 688.4040404040404,783.7575757575758 697.9393939393939,774.2222222222222 707.4747474747475,764.6868686868687 717.0101010101009,755.1515151515151 726.5454545454545,745.6161616161615 736.0808080808081,736.0808080808081 745.6161616161615,726.5454545454545 755.1515151515151,717.010101010101 764.6868686868686,707.4747474747475 764.6868686868686,697.939393939394 764.6868686868686,688.4040404040404 764.6868686868686,678.8686868686868 764.6868686868686,669.3333333333334 764.6868686868686,659.7979797979798 764.6868686868686,650.2626262626263 764.6868686868686,640.7272727272727 764.6868686868686,631.1919191919193 764.6868686868686,621.6565656565657 764.6868686868686,612.1212121212121 764.6868686868686,602.5858585858587 764.6868686868686,593.0505050505051 764.6868686868686,583.5151515151516 764.6868686868686,573.979797979798 764.6868686868686,564.4444444444445 764.6868686868686,554.909090909091 764.6868686868686,545.3737373737374 764.6868686868686,535.838383838384 764.6868686868686,526.3030303030304 764.6868686868686,516.7676767676768 764.6868686868686,507.23232323232327 764.6868686868686,497.69696969696975 764.6868686868686,488.1616161616163 764.6868686868686,478.6262626262627 764.6868686868686,469.0909090909092 764.6868686868686,459.5555555555556 764.6868686868686,450.0202020202021 764.6868686868686,440.4848484848486 764.6868686868686,430.94949494949503 764.6868686868686,421.4141414141415 764.6868686868686,411.87878787878793 764.6868686868686,402.3434343434344 764.6868686868686,392.80808080808094 764.6868686868686,383.27272727272737 764.6868686868686,373.73737373737384 764.6868686868686,364.2020202020203 764.6868686868686,354.66666666666674 764.6868686868686,345.1313131313133 764.6868686868686,335.5959595959597 764.6868686868686,326.06060606060623 764.6868686868686,316.5252525252526 764.6868686868686,306.9898989898991 764.6868686868686,297.4545454545456 764.6868686868686,287.91919191919203 764.6868686868686,278.38383838383857 764.6868686868686,268.84848484848493 764.6868686868686,259.3131313131314 764.6868686868686,249.77777777777794 764.6868686868686,240.24242424242436 764.6868686868686,230.70707070707084 764.6868686868686,221.17171717171726 764.6868686868686,211.63636363636374 764.6868686868686,202.10101010101027" fill="none" stroke="rgba(0,0,255,0.75)" stroke-width="11.327999999999996"/></g><g><polyline data-points="2.676767676767678,3.2828282828282833 2.676767676767678,3.383838383838384 2.676767676767678,3.4848484848484866 2.676767676767678,3.5858585858585874 2.676767676767678,3.6868686868686877 2.676767676767678,3.7878787878787885 2.676767676767678,3.8888888888888893 2.676767676767678,3.989898989898992 2.676767676767678,4.090909090909092 2.676767676767678,4.191919191919193 2.676767676767678,4.292929292929293 2.676767676767678,4.393939393939394 2.676767676767678,4.494949494949497 2.676767676767678,4.595959595959597 2.676767676767678,4.696969696969697 2.676767676767678,4.7979797979797985 2.676767676767678,4.898989898989901 2.676767676767678,5.000000000000002" data-type="line" data-label="" points="764.6868686868686,202.10101010101027 764.6868686868686,192.56565656565675 764.6868686868686,183.03030303030312 764.6868686868686,173.4949494949496 764.6868686868686,163.95959595959613 764.6868686868686,154.4242424242426 764.6868686868686,144.88888888888908 764.6868686868686,135.35353535353545 764.6868686868686,125.81818181818198 764.6868686868686,116.28282828282846 764.6868686868686,106.747474747475 764.6868686868686,97.21212121212153 764.6868686868686,87.67676767676778 764.6868686868686,78.14141414141432 764.6868686868686,68.60606060606085 764.6868686868686,59.07070707070733 764.6868686868686,49.53535353535369 764.6868686868686,40.000000000000114" fill="none" stroke="rgba(255,0,0,0.75)" stroke-width="11.327999999999996"/></g><g><rect data-type="rect" data-label="" data-x="0" data-y="0" x="40.000000000000114" y="40.000000000000284" width="943.9999999999997" height="943.9999999999998" fill="none" stroke="gray" stroke-width="0.010593220338983056"/></g><g><rect data-type="rect" data-label="" data-x="0" data-y="0" x="40.000000000000114" y="40.000000000000284" width="943.9999999999997" height="943.9999999999998" fill="none" stroke="rgba(15, 23, 42, 0.8)" stroke-width="0.010593220338983056"/></g><circle data-type="circle" data-label="" data-x="-1.9696969696969693" data-y="1.9696969696969702" cx="326.0606060606061" cy="326.06060606060623" r="14.159999999999995" fill="rgba(0,0,0,0.3)" stroke="black" stroke-width="0.010593220338983056"/><circle data-type="circle" data-label="" data-x="3.989898989898992" data-y="3.6868686868686877" cx="888.6464646464647" cy="163.95959595959613" r="14.159999999999995" fill="rgba(0,0,0,0.3)" stroke="black" stroke-width="0.010593220338983056"/><circle data-type="circle" data-label="" data-x="2.676767676767678" data-y="3.2828282828282833" cx="764.6868686868686" cy="202.10101010101027" r="14.159999999999995" fill="rgba(0,0,0,0.3)" stroke="black" stroke-width="0.010593220338983056"/><g id="crosshair" style="display: none"><line id="crosshair-h" y1="0" y2="1024" stroke="#666" stroke-width="0.5"/><line id="crosshair-v" x1="0" x2="1024" stroke="#666" stroke-width="0.5"/><text id="coordinates" font-family="monospace" font-size="12" fill="#666"></text></g><script><![CDATA[
              document.currentScript.parentElement.addEventListener('mousemove', (e) => {
                const svg = e.currentTarget;
                const rect = svg.getBoundingClientRect();
                const x = e.clientX - rect.left;
                const y = e.clientY - rect.top;
                const crosshair = svg.getElementById('crosshair');
                const h = svg.getElementById('crosshair-h');
                const v = svg.getElementById('crosshair-v');
                const coords = svg.getElementById('coordinates');
                
                crosshair.style.display = 'block';
                h.setAttribute('x1', '0');
                h.setAttribute('x2', '1024');
                h.setAttribute('y1', y);
                h.setAttribute('y2', y);
                v.setAttribute('x1', x);
                v.setAttribute('x2', x);
                v.setAttribute('y1', '0');
                v.setAttribute('y2', '1024');

                // Calculate real coordinates using inverse transformation
                const matrix = {"a":94.39999999999996,"c":0,"e":511.99999999999994,"b":0,"d":-94.39999999999996,"f":512.0000000000001};
                // Manually invert and apply the affine transform
                // Since we only use translate and scale, we can directly compute:
                // x' = (x - tx) / sx
                // y' = (y - ty) / sy
                const sx = matrix.a;
                const sy = matrix.d;
                const tx = matrix.e; 
                const ty = matrix.f;
                const realPoint = {
                  x: (x - tx) / sx,
                  y: (y - ty) / sy // Flip y back since we used negative scale
                }
                
                coords.textContent = `(${realPoint.x.toFixed(2)}, ${realPoint.y.toFixed(2)})`;
                coords.setAttribute('x', (x + 5).toString());
                coords.setAttribute('y', (y - 5).toString());
              });
              document.currentScript.parentElement.addEventListener('mouseleave', () => {
                document.currentScript.parentElement.getElementById('crosshair').style.display = 'none';
              });
            ]]></script></svg>