<svg width="1024" height="1024" viewBox="0 0 1024 1024" xmlns="http://www.w3.org/2000/svg"><rect width="100%" height="100%" fill="white"/><g><circle data-type="point" data-label="conn_000" data-x="5" data-y="0.76" cx="983.9999999999998" cy="440.25600000000014" r="14.16" fill="blue"/></g><g><circle data-type="point" data-label="conn_000" data-x="-5" data-y="-4.84" cx="40.000000000000114" cy="968.896" r="14.16" fill="red"/></g><g><circle data-type="point" data-label="conn_001" data-x="0.14" data-y="-5" cx="525.2159999999999" cy="984" r="14.16" fill="blue"/></g><g><circle data-type="point" data-label="conn_001" data-x="1.1400000000000001" data-y="5" cx="619.6159999999999" cy="40.000000000000284" r="14.16" fill="blue"/></g><g><circle data-type="point" data-label="conn_002" data-x="2.2" data-y="-5" cx="719.6799999999998" cy="984" r="14.16" fill="blue"/></g><g><circle data-type="point" data-label="conn_002" data-x="4.14" data-y="5" cx="902.8159999999998" cy="40.000000000000284" r="14.16" fill="red"/></g><g><circle data-type="point" data-label="conn_003" data-x="0.12" data-y="5" cx="523.328" cy="40.000000000000284" r="14.16" fill="blue"/></g><g><circle data-type="point" data-label="conn_003" data-x="-4.98" data-y="-5" cx="41.88800000000009" cy="984" r="14.16" fill="blue"/></g><g><circle data-type="point" data-label="conn_004" data-x="-5" data-y="0.58" cx="40.000000000000114" cy="457.24800000000016" r="14.16" fill="blue"/></g><g><circle data-type="point" data-label="conn_004" data-x="5" data-y="-1.48" cx="983.9999999999998" cy="651.712" r="14.16" fill="red"/></g><g><circle data-type="point" data-label="conn_005" data-x="0.86" data-y="5" cx="593.184" cy="40.000000000000284" r="14.16" fill="blue"/></g><g><circle data-type="point" data-label="conn_005" data-x="1.56" data-y="-5" cx="659.2639999999999" cy="984" r="14.16" fill="blue"/></g><g><circle data-type="point" data-label="conn_006" data-x="-4.44" data-y="-5" cx="92.86400000000009" cy="984" r="14.16" fill="red"/></g><g><circle data-type="point" data-label="conn_006" data-x="-3.8200000000000003" data-y="5" cx="151.39200000000005" cy="40.000000000000284" r="14.16" fill="red"/></g><g><circle data-type="point" data-label="conn_007" data-x="-5" data-y="3.68" cx="40.000000000000114" cy="164.60800000000023" r="14.16" fill="blue"/></g><g><circle data-type="point" data-label="conn_007" data-x="5" data-y="0.72" cx="983.9999999999998" cy="444.03200000000015" r="14.16" fill="red"/></g><g><circle data-type="point" data-label="conn_008" data-x="-4.72" data-y="-5" cx="66.43200000000013" cy="984" r="14.16" fill="blue"/></g><g><circle data-type="point" data-label="conn_008" data-x="-1.1" data-y="5" cx="408.15999999999997" cy="40.000000000000284" r="14.16" fill="red"/></g><g><polyline data-points="0.1515151515151522,5.000000000000002 0.050505050505051545,4.898989898989901 -0.05050505050505001,4.7979797979797985 -0.15151515151515066,4.696969696969697 -0.2525252525252522,4.595959595959597 -0.35353535353535287,4.494949494949497 -0.4545454545454544,4.393939393939394 -0.555555555555555,4.292929292929293 -0.6565656565656557,4.191919191919193 -0.7575757575757572,4.090909090909092 -0.8585858585858579,3.989898989898992 -0.9595959595959596,3.8888888888888893 -1.0606060606060603,3.7878787878787885 -1.1616161616161613,3.6868686868686877 -1.2626262626262625,3.5858585858585874 -1.363636363636363,3.4848484848484866 -1.4646464646464643,3.383838383838384 -1.5656565656565653,3.2828282828282833 -1.6666666666666665,3.181818181818183 -1.7676767676767675,3.080808080808082 -1.8686868686868683,2.9797979797979806 -1.9696969696969693,2.87878787878788 -2.07070707070707,2.7777777777777786 -2.1717171717171713,2.676767676767678 -2.2727272727272725,2.575757575757577 -2.3737373737373733,2.4747474747474754 -2.474747474747474,2.373737373737375 -2.5757575757575752,2.2727272727272734 -2.6767676767676765,2.1717171717171726 -2.7777777777777777,2.070707070707072 -2.8787878787878785,1.9696969696969702 -2.9797979797979792,1.8686868686868696 -3.0808080808080804,1.767676767676768 -3.1818181818181817,1.6666666666666674 -3.2828282828282824,1.5656565656565666 -3.383838383838383,1.4646464646464652 -3.484848484848485,1.3636363636363644 -3.5858585858585856,1.262626262626263 -3.6868686868686864,1.1616161616161622 -3.7878787878787876,1.0606060606060617 -3.8888888888888884,0.9595959595959602 -3.98989898989899,0.8585858585858596 -4.090909090909091,0.7575757575757579 -4.191919191919193,0.6565656565656574 -4.292929292929293,0.5555555555555567 -4.393939393939394,0.4545454545454551 -4.494949494949496,0.3535353535353544 -4.595959595959596,0.2525252525252529 -4.696969696969697,0.1515151515151522 -4.7979797979797985,0.050505050505051545 -4.898989898989899,-0.05050505050505001 -5.000000000000001,-0.15151515151515066 -5.000000000000001,-0.2525252525252522 -5.000000000000001,-0.35353535353535287 -5.000000000000001,-0.4545454545454544 -5.000000000000001,-0.555555555555555 -5.000000000000001,-0.6565656565656557 -5.000000000000001,-0.7575757575757572 -5.000000000000001,-0.8585858585858579 -5.000000000000001,-0.9595959595959596 -5.000000000000001,-1.0606060606060603 -5.000000000000001,-1.1616161616161613 -5.000000000000001,-1.2626262626262625 -5.000000000000001,-1.363636363636363 -5.000000000000001,-1.4646464646464643 -5.000000000000001,-1.5656565656565653 -5.000000000000001,-1.6666666666666665 -5.000000000000001,-1.7676767676767675 -5.000000000000001,-1.8686868686868683 -5.000000000000001,-1.9696969696969693 -5.000000000000001,-2.07070707070707 -5.000000000000001,-2.1717171717171713 -5.000000000000001,-2.2727272727272725 -5.000000000000001,-2.3737373737373733 -5.000000000000001,-2.474747474747474 -5.000000000000001,-2.5757575757575752 -5.000000000000001,-2.6767676767676765 -5.000000000000001,-2.7777777777777777 -5.000000000000001,-2.8787878787878785 -5.000000000000001,-2.9797979797979792 -5.000000000000001,-3.0808080808080804 -5.000000000000001,-3.1818181818181817 -5.000000000000001,-3.2828282828282824 -5.000000000000001,-3.383838383838383 -5.000000000000001,-3.484848484848485 -5.000000000000001,-3.5858585858585856 -5.000000000000001,-3.6868686868686864 -5.000000000000001,-3.7878787878787876 -5.000000000000001,-3.8888888888888884 -5.000000000000001,-3.98989898989899 -5.000000000000001,-4.090909090909091 -5.000000000000001,-4.191919191919193 -5.000000000000001,-4.292929292929293 -5.000000000000001,-4.393939393939394 -5.000000000000001,-4.494949494949496 -5.000000000000001,-4.595959595959596 -5.000000000000001,-4.696969696969697 -5.000000000000001,-4.7979797979797985 -5.000000000000001,-4.898989898989899 -5.000000000000001,-5.000000000000001" data-type="line" data-label="" points="526.3030303030303,40.000000000000114 516.7676767676768,49.53535353535369 507.2323232323232,59.07070707070733 497.69696969696975,68.60606060606085 488.16161616161617,78.14141414141432 478.62626262626264,87.67676767676778 469.09090909090907,97.21212121212153 459.55555555555554,106.747474747475 450.0202020202021,116.28282828282846 440.4848484848485,125.81818181818198 430.949494949495,135.35353535353545 421.4141414141414,144.88888888888908 411.8787878787879,154.4242424242426 402.34343434343435,163.95959595959613 392.80808080808083,173.4949494949496 383.2727272727273,183.03030303030312 373.7373737373738,192.56565656565675 364.2020202020202,202.10101010101027 354.6666666666667,211.63636363636374 345.13131313131316,221.17171717171726 335.59595959595964,230.70707070707084 326.0606060606061,240.24242424242436 316.5252525252526,249.77777777777794 306.9898989898991,259.3131313131314 297.4545454545455,268.84848484848493 287.91919191919203,278.38383838383857 278.38383838383845,287.91919191919203 268.84848484848493,297.4545454545456 259.3131313131314,306.9898989898991 249.77777777777783,316.5252525252526 240.2424242424243,326.06060606060623 230.70707070707084,335.5959595959597 221.17171717171726,345.1313131313133 211.63636363636374,354.66666666666674 202.10101010101022,364.2020202020203 192.5656565656567,373.73737373737384 183.03030303030312,383.27272727272737 173.4949494949496,392.80808080808094 163.95959595959607,402.3434343434344 154.42424242424255,411.87878787878793 144.88888888888903,421.4141414141415 135.35353535353545,430.94949494949503 125.81818181818193,440.4848484848486 116.28282828282829,450.0202020202021 106.74747474747483,459.5555555555556 97.21212121212136,469.0909090909092 87.67676767676772,478.6262626262627 78.14141414141426,488.1616161616163 68.60606060606068,497.69696969696975 59.07070707070716,507.23232323232327 49.53535353535369,516.7676767676768 40.00000000000006,526.3030303030304 40.00000000000006,535.838383838384 40.00000000000006,545.3737373737374 40.00000000000006,554.909090909091 40.00000000000006,564.4444444444445 40.00000000000006,573.979797979798 40.00000000000006,583.5151515151516 40.00000000000006,593.0505050505051 40.00000000000006,602.5858585858587 40.00000000000006,612.1212121212121 40.00000000000006,621.6565656565657 40.00000000000006,631.1919191919193 40.00000000000006,640.7272727272727 40.00000000000006,650.2626262626263 40.00000000000006,659.7979797979798 40.00000000000006,669.3333333333334 40.00000000000006,678.8686868686868 40.00000000000006,688.4040404040404 40.00000000000006,697.939393939394 40.00000000000006,707.4747474747475 40.00000000000006,717.010101010101 40.00000000000006,726.5454545454545 40.00000000000006,736.0808080808081 40.00000000000006,745.6161616161615 40.00000000000006,755.1515151515151 40.00000000000006,764.6868686868687 40.00000000000006,774.2222222222222 40.00000000000006,783.7575757575758 40.00000000000006,793.2929292929292 40.00000000000006,802.8282828282828 40.00000000000006,812.3636363636363 40.00000000000006,821.8989898989898 40.00000000000006,831.4343434343434 40.00000000000006,840.969696969697 40.00000000000006,850.5050505050505 40.00000000000006,860.0404040404039 40.00000000000006,869.5757575757575 40.00000000000006,879.1111111111111 40.00000000000006,888.6464646464647 40.00000000000006,898.1818181818181 40.00000000000006,907.7171717171718 40.00000000000006,917.2525252525252 40.00000000000006,926.7878787878788 40.00000000000006,936.3232323232323 40.00000000000006,945.8585858585858 40.00000000000006,955.3939393939394 40.00000000000006,964.9292929292928 40.00000000000006,974.4646464646464 40.00000000000006,984" fill="none" stroke="rgba(0,0,255,0.75)" stroke-width="11.327999999999996"/></g><g><polyline data-points="0.8585858585858596,5.000000000000002 0.9595959595959602,4.898989898989901 1.0606060606060617,4.7979797979797985 1.1616161616161622,4.696969696969697 1.262626262626263,4.595959595959597 1.3636363636363644,4.494949494949497 1.4646464646464652,4.393939393939394 1.5656565656565666,4.292929292929293 1.5656565656565666,4.191919191919193 1.5656565656565666,4.090909090909092 1.5656565656565666,3.989898989898992 1.5656565656565666,3.8888888888888893 1.5656565656565666,3.7878787878787885 1.5656565656565666,3.6868686868686877 1.5656565656565666,3.5858585858585874 1.5656565656565666,3.4848484848484866 1.5656565656565666,3.383838383838384 1.5656565656565666,3.2828282828282833 1.5656565656565666,3.181818181818183 1.5656565656565666,3.080808080808082 1.5656565656565666,2.9797979797979806 1.5656565656565666,2.87878787878788 1.5656565656565666,2.7777777777777786 1.5656565656565666,2.676767676767678 1.5656565656565666,2.575757575757577 1.5656565656565666,2.4747474747474754 1.5656565656565666,2.373737373737375 1.5656565656565666,2.2727272727272734 1.5656565656565666,2.1717171717171726 1.5656565656565666,2.070707070707072 1.5656565656565666,1.9696969696969702 1.5656565656565666,1.8686868686868696 1.5656565656565666,1.767676767676768 1.5656565656565666,1.6666666666666674 1.5656565656565666,1.5656565656565666 1.5656565656565666,1.4646464646464652 1.5656565656565666,1.3636363636363644 1.5656565656565666,1.262626262626263 1.5656565656565666,1.1616161616161622 1.5656565656565666,1.0606060606060617 1.5656565656565666,0.9595959595959602 1.5656565656565666,0.8585858585858596 1.5656565656565666,0.7575757575757579 1.5656565656565666,0.6565656565656574 1.5656565656565666,0.5555555555555567 1.5656565656565666,0.4545454545454551 1.5656565656565666,0.3535353535353544 1.5656565656565666,0.2525252525252529 1.5656565656565666,0.1515151515151522 1.5656565656565666,0.050505050505051545 1.5656565656565666,-0.05050505050505001 1.5656565656565666,-0.15151515151515066 1.5656565656565666,-0.2525252525252522 1.5656565656565666,-0.35353535353535287 1.5656565656565666,-0.4545454545454544 1.5656565656565666,-0.555555555555555 1.5656565656565666,-0.6565656565656557 1.5656565656565666,-0.7575757575757572 1.5656565656565666,-0.8585858585858579 1.5656565656565666,-0.9595959595959596 1.5656565656565666,-1.0606060606060603 1.5656565656565666,-1.1616161616161613 1.5656565656565666,-1.2626262626262625 1.5656565656565666,-1.363636363636363 1.5656565656565666,-1.4646464646464643 1.5656565656565666,-1.5656565656565653 1.5656565656565666,-1.6666666666666665 1.5656565656565666,-1.7676767676767675 1.5656565656565666,-1.8686868686868683 1.5656565656565666,-1.9696969696969693 1.5656565656565666,-2.07070707070707 1.5656565656565666,-2.1717171717171713 1.5656565656565666,-2.2727272727272725 1.5656565656565666,-2.3737373737373733 1.5656565656565666,-2.474747474747474 1.5656565656565666,-2.5757575757575752 1.5656565656565666,-2.6767676767676765 1.5656565656565666,-2.7777777777777777 1.5656565656565666,-2.8787878787878785 1.5656565656565666,-2.9797979797979792 1.5656565656565666,-3.0808080808080804 1.5656565656565666,-3.1818181818181817 1.5656565656565666,-3.2828282828282824 1.5656565656565666,-3.383838383838383 1.5656565656565666,-3.484848484848485 1.5656565656565666,-3.5858585858585856 1.5656565656565666,-3.6868686868686864 1.5656565656565666,-3.7878787878787876 1.5656565656565666,-3.8888888888888884 1.5656565656565666,-3.98989898989899 1.5656565656565666,-4.090909090909091 1.5656565656565666,-4.191919191919193 1.5656565656565666,-4.292929292929293 1.5656565656565666,-4.393939393939394 1.5656565656565666,-4.494949494949496 1.5656565656565666,-4.595959595959596 1.5656565656565666,-4.696969696969697 1.5656565656565666,-4.7979797979797985 1.5656565656565666,-4.898989898989899 1.5656565656565666,-5.000000000000001" data-type="line" data-label="" points="593.0505050505051,40.000000000000114 602.5858585858585,49.53535353535369 612.1212121212121,59.07070707070733 621.6565656565656,68.60606060606085 631.1919191919192,78.14141414141432 640.7272727272727,87.67676767676778 650.2626262626262,97.21212121212153 659.7979797979798,106.747474747475 659.7979797979798,116.28282828282846 659.7979797979798,125.81818181818198 659.7979797979798,135.35353535353545 659.7979797979798,144.88888888888908 659.7979797979798,154.4242424242426 659.7979797979798,163.95959595959613 659.7979797979798,173.4949494949496 659.7979797979798,183.03030303030312 659.7979797979798,192.56565656565675 659.7979797979798,202.10101010101027 659.7979797979798,211.63636363636374 659.7979797979798,221.17171717171726 659.7979797979798,230.70707070707084 659.7979797979798,240.24242424242436 659.7979797979798,249.77777777777794 659.7979797979798,259.3131313131314 659.7979797979798,268.84848484848493 659.7979797979798,278.38383838383857 659.7979797979798,287.91919191919203 659.7979797979798,297.4545454545456 659.7979797979798,306.9898989898991 659.7979797979798,316.5252525252526 659.7979797979798,326.06060606060623 659.7979797979798,335.5959595959597 659.7979797979798,345.1313131313133 659.7979797979798,354.66666666666674 659.7979797979798,364.2020202020203 659.7979797979798,373.73737373737384 659.7979797979798,383.27272727272737 659.7979797979798,392.80808080808094 659.7979797979798,402.3434343434344 659.7979797979798,411.87878787878793 659.7979797979798,421.4141414141415 659.7979797979798,430.94949494949503 659.7979797979798,440.4848484848486 659.7979797979798,450.0202020202021 659.7979797979798,459.5555555555556 659.7979797979798,469.0909090909092 659.7979797979798,478.6262626262627 659.7979797979798,488.1616161616163 659.7979797979798,497.69696969696975 659.7979797979798,507.23232323232327 659.7979797979798,516.7676767676768 659.7979797979798,526.3030303030304 659.7979797979798,535.838383838384 659.7979797979798,545.3737373737374 659.7979797979798,554.909090909091 659.7979797979798,564.4444444444445 659.7979797979798,573.979797979798 659.7979797979798,583.5151515151516 659.7979797979798,593.0505050505051 659.7979797979798,602.5858585858587 659.7979797979798,612.1212121212121 659.7979797979798,621.6565656565657 659.7979797979798,631.1919191919193 659.7979797979798,640.7272727272727 659.7979797979798,650.2626262626263 659.7979797979798,659.7979797979798 659.7979797979798,669.3333333333334 659.7979797979798,678.8686868686868 659.7979797979798,688.4040404040404 659.7979797979798,697.939393939394 659.7979797979798,707.4747474747475 659.7979797979798,717.010101010101 659.7979797979798,726.5454545454545 659.7979797979798,736.0808080808081 659.7979797979798,745.6161616161615 659.7979797979798,755.1515151515151 659.7979797979798,764.6868686868687 659.7979797979798,774.2222222222222 659.7979797979798,783.7575757575758 659.7979797979798,793.2929292929292 659.7979797979798,802.8282828282828 659.7979797979798,812.3636363636363 659.7979797979798,821.8989898989898 659.7979797979798,831.4343434343434 659.7979797979798,840.969696969697 659.7979797979798,850.5050505050505 659.7979797979798,860.0404040404039 659.7979797979798,869.5757575757575 659.7979797979798,879.1111111111111 659.7979797979798,888.6464646464647 659.7979797979798,898.1818181818181 659.7979797979798,907.7171717171718 659.7979797979798,917.2525252525252 659.7979797979798,926.7878787878788 659.7979797979798,936.3232323232323 659.7979797979798,945.8585858585858 659.7979797979798,955.3939393939394 659.7979797979798,964.9292929292928 659.7979797979798,974.4646464646464 659.7979797979798,984" fill="none" stroke="rgba(0,0,255,0.75)" stroke-width="11.327999999999996"/></g><g><polyline data-points="-4.7979797979797985,-5.000000000000001 -4.696969696969697,-4.898989898989899 -4.595959595959596,-4.7979797979797985 -4.494949494949496,-4.696969696969697 -4.393939393939394,-4.595959595959596 -4.292929292929293,-4.494949494949496 -4.191919191919193,-4.393939393939394 -4.090909090909091,-4.292929292929293 -3.98989898989899,-4.191919191919193 -3.8888888888888884,-4.090909090909091 -3.7878787878787876,-3.98989898989899 -3.6868686868686864,-3.8888888888888884 -3.5858585858585856,-3.7878787878787876 -3.484848484848485,-3.6868686868686864 -3.383838383838383,-3.5858585858585856 -3.2828282828282824,-3.484848484848485 -3.1818181818181817,-3.383838383838383 -3.0808080808080804,-3.2828282828282824 -2.9797979797979792,-3.1818181818181817 -2.8787878787878785,-3.0808080808080804 -2.7777777777777777,-2.9797979797979792 -2.6767676767676765,-2.8787878787878785 -2.5757575757575752,-2.7777777777777777 -2.474747474747474,-2.6767676767676765 -2.3737373737373733,-2.5757575757575752 -2.2727272727272725,-2.474747474747474 -2.1717171717171713,-2.3737373737373733 -2.07070707070707,-2.2727272727272725 -1.9696969696969693,-2.1717171717171713 -1.8686868686868683,-2.07070707070707 -1.7676767676767675,-1.9696969696969693 -1.6666666666666665,-1.8686868686868683 -1.5656565656565653,-1.7676767676767675 -1.4646464646464643,-1.6666666666666665 -1.363636363636363,-1.5656565656565653 -1.2626262626262625,-1.4646464646464643 -1.1616161616161613,-1.363636363636363 -1.0606060606060603,-1.2626262626262625 -1.0606060606060603,-1.1616161616161613 -1.0606060606060603,-1.0606060606060603 -1.0606060606060603,-0.9595959595959596 -1.0606060606060603,-0.8585858585858579 -1.0606060606060603,-0.7575757575757572 -1.0606060606060603,-0.6565656565656557 -1.0606060606060603,-0.555555555555555 -1.0606060606060603,-0.4545454545454544 -1.0606060606060603,-0.35353535353535287 -1.0606060606060603,-0.2525252525252522 -1.0606060606060603,-0.15151515151515066 -1.0606060606060603,-0.05050505050505001 -1.0606060606060603,0.050505050505051545 -1.0606060606060603,0.1515151515151522 -1.0606060606060603,0.2525252525252529 -1.0606060606060603,0.3535353535353544 -1.0606060606060603,0.4545454545454551 -1.0606060606060603,0.5555555555555567 -1.0606060606060603,0.6565656565656574 -1.0606060606060603,0.7575757575757579 -1.0606060606060603,0.8585858585858596 -1.0606060606060603,0.9595959595959602 -1.0606060606060603,1.0606060606060617 -1.0606060606060603,1.1616161616161622 -1.0606060606060603,1.262626262626263 -1.0606060606060603,1.3636363636363644 -1.0606060606060603,1.4646464646464652 -1.0606060606060603,1.5656565656565666 -1.0606060606060603,1.6666666666666674 -1.0606060606060603,1.767676767676768 -1.0606060606060603,1.8686868686868696 -1.0606060606060603,1.9696969696969702 -1.0606060606060603,2.070707070707072 -1.0606060606060603,2.1717171717171726 -1.0606060606060603,2.2727272727272734 -1.0606060606060603,2.373737373737375 -1.0606060606060603,2.4747474747474754 -1.0606060606060603,2.575757575757577 -1.0606060606060603,2.676767676767678 -1.0606060606060603,2.7777777777777786 -1.0606060606060603,2.87878787878788 -1.0606060606060603,2.9797979797979806 -1.0606060606060603,3.080808080808082 -1.0606060606060603,3.181818181818183 -1.0606060606060603,3.2828282828282833" data-type="line" data-label="" points="59.07070707070716,984 68.60606060606068,974.4646464646464 78.14141414141426,964.9292929292928 87.67676767676772,955.3939393939394 97.21212121212136,945.8585858585858 106.74747474747483,936.3232323232323 116.28282828282829,926.7878787878788 125.81818181818193,917.2525252525252 135.35353535353545,907.7171717171718 144.88888888888903,898.1818181818181 154.42424242424255,888.6464646464647 163.95959595959607,879.1111111111111 173.4949494949496,869.5757575757575 183.03030303030312,860.0404040404039 192.5656565656567,850.5050505050505 202.10101010101022,840.969696969697 211.63636363636374,831.4343434343434 221.17171717171726,821.8989898989898 230.70707070707084,812.3636363636363 240.2424242424243,802.8282828282828 249.77777777777783,793.2929292929292 259.3131313131314,783.7575757575758 268.84848484848493,774.2222222222222 278.38383838383845,764.6868686868687 287.91919191919203,755.1515151515151 297.4545454545455,745.6161616161615 306.9898989898991,736.0808080808081 316.5252525252526,726.5454545454545 326.0606060606061,717.010101010101 335.59595959595964,707.4747474747475 345.13131313131316,697.939393939394 354.6666666666667,688.4040404040404 364.2020202020202,678.8686868686868 373.7373737373738,669.3333333333334 383.2727272727273,659.7979797979798 392.80808080808083,650.2626262626263 402.34343434343435,640.7272727272727 411.8787878787879,631.1919191919193 411.8787878787879,621.6565656565657 411.8787878787879,612.1212121212121 411.8787878787879,602.5858585858587 411.8787878787879,593.0505050505051 411.8787878787879,583.5151515151516 411.8787878787879,573.979797979798 411.8787878787879,564.4444444444445 411.8787878787879,554.909090909091 411.8787878787879,545.3737373737374 411.8787878787879,535.838383838384 411.8787878787879,526.3030303030304 411.8787878787879,516.7676767676768 411.8787878787879,507.23232323232327 411.8787878787879,497.69696969696975 411.8787878787879,488.1616161616163 411.8787878787879,478.6262626262627 411.8787878787879,469.0909090909092 411.8787878787879,459.5555555555556 411.8787878787879,450.0202020202021 411.8787878787879,440.4848484848486 411.8787878787879,430.94949494949503 411.8787878787879,421.4141414141415 411.8787878787879,411.87878787878793 411.8787878787879,402.3434343434344 411.8787878787879,392.80808080808094 411.8787878787879,383.27272727272737 411.8787878787879,373.73737373737384 411.8787878787879,364.2020202020203 411.8787878787879,354.66666666666674 411.8787878787879,345.1313131313133 411.8787878787879,335.5959595959597 411.8787878787879,326.06060606060623 411.8787878787879,316.5252525252526 411.8787878787879,306.9898989898991 411.8787878787879,297.4545454545456 411.8787878787879,287.91919191919203 411.8787878787879,278.38383838383857 411.8787878787879,268.84848484848493 411.8787878787879,259.3131313131314 411.8787878787879,249.77777777777794 411.8787878787879,240.24242424242436 411.8787878787879,230.70707070707084 411.8787878787879,221.17171717171726 411.8787878787879,211.63636363636374 411.8787878787879,202.10101010101027" fill="none" stroke="rgba(0,0,255,0.75)" stroke-width="11.327999999999996"/></g><g><polyline data-points="-1.0606060606060603,3.2828282828282833 -1.0606060606060603,3.383838383838384 -1.0606060606060603,3.4848484848484866 -1.0606060606060603,3.5858585858585874 -1.0606060606060603,3.6868686868686877 -1.0606060606060603,3.7878787878787885 -1.0606060606060603,3.8888888888888893 -1.0606060606060603,3.989898989898992 -1.0606060606060603,4.090909090909092 -1.0606060606060603,4.191919191919193 -1.0606060606060603,4.292929292929293 -1.0606060606060603,4.393939393939394 -1.0606060606060603,4.494949494949497 -1.0606060606060603,4.595959595959597 -1.0606060606060603,4.696969696969697 -1.0606060606060603,4.7979797979797985 -1.0606060606060603,4.898989898989901 -1.0606060606060603,5.000000000000002" data-type="line" data-label="" points="411.8787878787879,202.10101010101027 411.8787878787879,192.56565656565675 411.8787878787879,183.03030303030312 411.8787878787879,173.4949494949496 411.8787878787879,163.95959595959613 411.8787878787879,154.4242424242426 411.8787878787879,144.88888888888908 411.8787878787879,135.35353535353545 411.8787878787879,125.81818181818198 411.8787878787879,116.28282828282846 411.8787878787879,106.747474747475 411.8787878787879,97.21212121212153 411.8787878787879,87.67676767676778 411.8787878787879,78.14141414141432 411.8787878787879,68.60606060606085 411.8787878787879,59.07070707070733 411.8787878787879,49.53535353535369 411.8787878787879,40.000000000000114" fill="none" stroke="rgba(255,0,0,0.75)" stroke-width="11.327999999999996"/></g><g><polyline data-points="0.1515151515151522,-5.000000000000001 0.2525252525252529,-4.898989898989899 0.3535353535353544,-4.7979797979797985 0.4545454545454551,-4.696969696969697 0.5555555555555567,-4.595959595959596 0.6565656565656574,-4.494949494949496 0.7575757575757579,-4.393939393939394 0.8585858585858596,-4.292929292929293 0.9595959595959602,-4.191919191919193 1.0606060606060617,-4.090909090909091 1.1616161616161622,-3.98989898989899 1.1616161616161622,-3.8888888888888884 1.1616161616161622,-3.7878787878787876 1.1616161616161622,-3.6868686868686864 1.1616161616161622,-3.5858585858585856 1.1616161616161622,-3.484848484848485 1.1616161616161622,-3.383838383838383 1.1616161616161622,-3.2828282828282824 1.1616161616161622,-3.1818181818181817 1.1616161616161622,-3.0808080808080804 1.1616161616161622,-2.9797979797979792 1.1616161616161622,-2.8787878787878785 1.1616161616161622,-2.7777777777777777 1.1616161616161622,-2.6767676767676765 1.1616161616161622,-2.5757575757575752 1.1616161616161622,-2.474747474747474 1.1616161616161622,-2.3737373737373733 1.1616161616161622,-2.2727272727272725 1.1616161616161622,-2.1717171717171713 1.1616161616161622,-2.07070707070707 1.1616161616161622,-1.9696969696969693 1.1616161616161622,-1.8686868686868683 1.1616161616161622,-1.7676767676767675 1.1616161616161622,-1.6666666666666665 1.1616161616161622,-1.5656565656565653 1.1616161616161622,-1.4646464646464643 1.1616161616161622,-1.363636363636363 1.1616161616161622,-1.2626262626262625 1.1616161616161622,-1.1616161616161613 1.1616161616161622,-1.0606060606060603 1.1616161616161622,-0.9595959595959596 1.1616161616161622,-0.8585858585858579 1.1616161616161622,-0.7575757575757572 1.1616161616161622,-0.6565656565656557 1.1616161616161622,-0.555555555555555 1.1616161616161622,-0.4545454545454544 1.1616161616161622,-0.35353535353535287 1.1616161616161622,-0.2525252525252522 1.1616161616161622,-0.15151515151515066 1.1616161616161622,-0.05050505050505001 1.1616161616161622,0.050505050505051545 1.1616161616161622,0.1515151515151522 1.1616161616161622,0.2525252525252529 1.1616161616161622,0.3535353535353544 1.1616161616161622,0.4545454545454551 1.1616161616161622,0.5555555555555567 1.1616161616161622,0.6565656565656574 1.1616161616161622,0.7575757575757579 1.1616161616161622,0.8585858585858596 1.1616161616161622,0.9595959595959602 1.1616161616161622,1.0606060606060617 1.1616161616161622,1.1616161616161622 1.1616161616161622,1.262626262626263 1.1616161616161622,1.3636363636363644 1.1616161616161622,1.4646464646464652 1.1616161616161622,1.5656565656565666 1.1616161616161622,1.6666666666666674 1.1616161616161622,1.767676767676768 1.1616161616161622,1.8686868686868696 1.1616161616161622,1.9696969696969702 1.1616161616161622,2.070707070707072 1.1616161616161622,2.1717171717171726 1.1616161616161622,2.2727272727272734 1.1616161616161622,2.373737373737375 1.1616161616161622,2.4747474747474754 1.1616161616161622,2.575757575757577 1.1616161616161622,2.676767676767678 1.1616161616161622,2.7777777777777786 1.1616161616161622,2.87878787878788" data-type="line" data-label="" points="526.3030303030303,984 535.8383838383838,974.4646464646464 545.3737373737374,964.9292929292928 554.9090909090909,955.3939393939394 564.4444444444445,945.8585858585858 573.9797979797979,936.3232323232323 583.5151515151515,926.7878787878788 593.0505050505051,917.2525252525252 602.5858585858585,907.7171717171718 612.1212121212121,898.1818181818181 621.6565656565656,888.6464646464647 621.6565656565656,879.1111111111111 621.6565656565656,869.5757575757575 621.6565656565656,860.0404040404039 621.6565656565656,850.5050505050505 621.6565656565656,840.969696969697 621.6565656565656,831.4343434343434 621.6565656565656,821.8989898989898 621.6565656565656,812.3636363636363 621.6565656565656,802.8282828282828 621.6565656565656,793.2929292929292 621.6565656565656,783.7575757575758 621.6565656565656,774.2222222222222 621.6565656565656,764.6868686868687 621.6565656565656,755.1515151515151 621.6565656565656,745.6161616161615 621.6565656565656,736.0808080808081 621.6565656565656,726.5454545454545 621.6565656565656,717.010101010101 621.6565656565656,707.4747474747475 621.6565656565656,697.939393939394 621.6565656565656,688.4040404040404 621.6565656565656,678.8686868686868 621.6565656565656,669.3333333333334 621.6565656565656,659.7979797979798 621.6565656565656,650.2626262626263 621.6565656565656,640.7272727272727 621.6565656565656,631.1919191919193 621.6565656565656,621.6565656565657 621.6565656565656,612.1212121212121 621.6565656565656,602.5858585858587 621.6565656565656,593.0505050505051 621.6565656565656,583.5151515151516 621.6565656565656,573.979797979798 621.6565656565656,564.4444444444445 621.6565656565656,554.909090909091 621.6565656565656,545.3737373737374 621.6565656565656,535.838383838384 621.6565656565656,526.3030303030304 621.6565656565656,516.7676767676768 621.6565656565656,507.23232323232327 621.6565656565656,497.69696969696975 621.6565656565656,488.1616161616163 621.6565656565656,478.6262626262627 621.6565656565656,469.0909090909092 621.6565656565656,459.5555555555556 621.6565656565656,450.0202020202021 621.6565656565656,440.4848484848486 621.6565656565656,430.94949494949503 621.6565656565656,421.4141414141415 621.6565656565656,411.87878787878793 621.6565656565656,402.3434343434344 621.6565656565656,392.80808080808094 621.6565656565656,383.27272727272737 621.6565656565656,373.73737373737384 621.6565656565656,364.2020202020203 621.6565656565656,354.66666666666674 621.6565656565656,345.1313131313133 621.6565656565656,335.5959595959597 621.6565656565656,326.06060606060623 621.6565656565656,316.5252525252526 621.6565656565656,306.9898989898991 621.6565656565656,297.4545454545456 621.6565656565656,287.91919191919203 621.6565656565656,278.38383838383857 621.6565656565656,268.84848484848493 621.6565656565656,259.3131313131314 621.6565656565656,249.77777777777794 621.6565656565656,240.24242424242436" fill="none" stroke="rgba(0,0,255,0.75)" stroke-width="11.327999999999996"/></g><g><polyline data-points="1.1616161616161622,2.87878787878788 1.262626262626263,2.9797979797979806 1.3636363636363644,3.080808080808082 1.4646464646464652,3.181818181818183 1.5656565656565666,3.2828282828282833 1.6666666666666674,3.383838383838384 1.767676767676768,3.4848484848484866 1.8686868686868696,3.5858585858585874 1.9696969696969702,3.6868686868686877" data-type="line" data-label="" points="621.6565656565656,240.24242424242436 631.1919191919192,230.70707070707084 640.7272727272727,221.17171717171726 650.2626262626262,211.63636363636374 659.7979797979798,202.10101010101027 669.3333333333333,192.56565656565675 678.8686868686868,183.03030303030312 688.4040404040404,173.4949494949496 697.9393939393939,163.95959595959613" fill="none" stroke="rgba(255,0,0,0.75)" stroke-width="11.327999999999996"/></g><g><polyline data-points="1.9696969696969702,3.6868686868686877 1.8686868686868696,3.7878787878787885 1.767676767676768,3.8888888888888893 1.767676767676768,3.989898989898992 1.767676767676768,4.090909090909092 1.767676767676768,4.191919191919193 1.767676767676768,4.292929292929293 1.767676767676768,4.393939393939394 1.6666666666666674,4.494949494949497 1.5656565656565666,4.595959595959597 1.4646464646464652,4.696969696969697 1.3636363636363644,4.7979797979797985 1.262626262626263,4.898989898989901 1.1616161616161622,5.000000000000002" data-type="line" data-label="" points="697.9393939393939,163.95959595959613 688.4040404040404,154.4242424242426 678.8686868686868,144.88888888888908 678.8686868686868,135.35353535353545 678.8686868686868,125.81818181818198 678.8686868686868,116.28282828282846 678.8686868686868,106.747474747475 678.8686868686868,97.21212121212153 669.3333333333333,87.67676767676778 659.7979797979798,78.14141414141432 650.2626262626262,68.60606060606085 640.7272727272727,59.07070707070733 631.1919191919192,49.53535353535369 621.6565656565656,40.000000000000114" fill="none" stroke="rgba(0,0,255,0.75)" stroke-width="11.327999999999996"/></g><g><polyline data-points="-5.000000000000001,3.6868686868686877 -4.898989898989899,3.5858585858585874 -4.7979797979797985,3.4848484848484866 -4.696969696969697,3.383838383838384 -4.595959595959596,3.2828282828282833 -4.494949494949496,3.181818181818183 -4.393939393939394,3.080808080808082 -4.292929292929293,2.9797979797979806 -4.191919191919193,2.87878787878788 -4.090909090909091,2.7777777777777786 -3.98989898989899,2.676767676767678 -3.8888888888888884,2.575757575757577 -3.7878787878787876,2.4747474747474754 -3.6868686868686864,2.373737373737375 -3.5858585858585856,2.2727272727272734 -3.484848484848485,2.1717171717171726 -3.383838383838383,2.070707070707072 -3.383838383838383,1.9696969696969702" data-type="line" data-label="" points="40.00000000000006,163.95959595959613 49.53535353535369,173.4949494949496 59.07070707070716,183.03030303030312 68.60606060606068,192.56565656565675 78.14141414141426,202.10101010101027 87.67676767676772,211.63636363636374 97.21212121212136,221.17171717171726 106.74747474747483,230.70707070707084 116.28282828282829,240.24242424242436 125.81818181818193,249.77777777777794 135.35353535353545,259.3131313131314 144.88888888888903,268.84848484848493 154.42424242424255,278.38383838383857 163.95959595959607,287.91919191919203 173.4949494949496,297.4545454545456 183.03030303030312,306.9898989898991 192.5656565656567,316.5252525252526 192.5656565656567,326.06060606060623" fill="none" stroke="rgba(0,0,255,0.75)" stroke-width="11.327999999999996"/></g><g><polyline data-points="-3.383838383838383,1.9696969696969702 -3.2828282828282824,1.8686868686868696 -3.1818181818181817,1.767676767676768 -3.0808080808080804,1.6666666666666674 -2.9797979797979792,1.5656565656565666 -2.8787878787878785,1.4646464646464652 -2.7777777777777777,1.3636363636363644 -2.6767676767676765,1.262626262626263 -2.5757575757575752,1.1616161616161622 -2.474747474747474,1.0606060606060617 -2.3737373737373733,0.9595959595959602 -2.2727272727272725,0.8585858585858596 -2.1717171717171713,0.7575757575757579 -2.07070707070707,0.7575757575757579 -1.9696969696969693,0.7575757575757579 -1.8686868686868683,0.7575757575757579 -1.7676767676767675,0.7575757575757579 -1.6666666666666665,0.7575757575757579 -1.5656565656565653,0.7575757575757579 -1.4646464646464643,0.7575757575757579 -1.363636363636363,0.7575757575757579 -1.2626262626262625,0.7575757575757579 -1.1616161616161613,0.7575757575757579 -1.0606060606060603,0.7575757575757579 -0.9595959595959596,0.7575757575757579 -0.8585858585858579,0.7575757575757579 -0.7575757575757572,0.7575757575757579 -0.6565656565656557,0.7575757575757579 -0.555555555555555,0.7575757575757579 -0.4545454545454544,0.7575757575757579 -0.35353535353535287,0.7575757575757579 -0.2525252525252522,0.7575757575757579 -0.15151515151515066,0.7575757575757579 -0.05050505050505001,0.7575757575757579 0.050505050505051545,0.7575757575757579 0.1515151515151522,0.7575757575757579 0.2525252525252529,0.7575757575757579 0.3535353535353544,0.7575757575757579 0.4545454545454551,0.7575757575757579 0.5555555555555567,0.7575757575757579 0.6565656565656574,0.7575757575757579 0.7575757575757579,0.7575757575757579 0.8585858585858596,0.7575757575757579 0.9595959595959602,0.7575757575757579 1.0606060606060617,0.7575757575757579 1.1616161616161622,0.7575757575757579 1.262626262626263,0.7575757575757579 1.3636363636363644,0.7575757575757579 1.4646464646464652,0.7575757575757579 1.5656565656565666,0.7575757575757579 1.6666666666666674,0.7575757575757579 1.767676767676768,0.7575757575757579 1.8686868686868696,0.7575757575757579 1.9696969696969702,0.7575757575757579 2.070707070707072,0.7575757575757579 2.1717171717171726,0.7575757575757579 2.2727272727272734,0.7575757575757579 2.373737373737375,0.7575757575757579 2.4747474747474754,0.7575757575757579 2.575757575757577,0.7575757575757579 2.676767676767678,0.7575757575757579 2.7777777777777786,0.7575757575757579 2.87878787878788,0.7575757575757579 2.9797979797979806,0.7575757575757579 3.080808080808082,0.7575757575757579 3.181818181818183,0.7575757575757579 3.2828282828282833,0.7575757575757579 3.383838383838384,0.7575757575757579 3.4848484848484866,0.7575757575757579 3.5858585858585874,0.7575757575757579 3.6868686868686877,0.7575757575757579 3.7878787878787885,0.7575757575757579 3.8888888888888893,0.7575757575757579 3.989898989898992,0.7575757575757579 4.090909090909092,0.7575757575757579 4.191919191919193,0.7575757575757579 4.292929292929293,0.7575757575757579 4.393939393939394,0.7575757575757579 4.494949494949497,0.7575757575757579 4.595959595959597,0.7575757575757579 4.696969696969697,0.7575757575757579 4.7979797979797985,0.7575757575757579 4.898989898989901,0.7575757575757579 5.000000000000002,0.7575757575757579" data-type="line" data-label="" points="192.5656565656567,326.06060606060623 202.10101010101022,335.5959595959597 211.63636363636374,345.1313131313133 221.17171717171726,354.66666666666674 230.70707070707084,364.2020202020203 240.2424242424243,373.73737373737384 249.77777777777783,383.27272727272737 259.3131313131314,392.80808080808094 268.84848484848493,402.3434343434344 278.38383838383845,411.87878787878793 287.91919191919203,421.4141414141415 297.4545454545455,430.94949494949503 306.9898989898991,440.4848484848486 316.5252525252526,440.4848484848486 326.0606060606061,440.4848484848486 335.59595959595964,440.4848484848486 345.13131313131316,440.4848484848486 354.6666666666667,440.4848484848486 364.2020202020202,440.4848484848486 373.7373737373738,440.4848484848486 383.2727272727273,440.4848484848486 392.80808080808083,440.4848484848486 402.34343434343435,440.4848484848486 411.8787878787879,440.4848484848486 421.4141414141414,440.4848484848486 430.949494949495,440.4848484848486 440.4848484848485,440.4848484848486 450.0202020202021,440.4848484848486 459.55555555555554,440.4848484848486 469.09090909090907,440.4848484848486 478.62626262626264,440.4848484848486 488.16161616161617,440.4848484848486 497.69696969696975,440.4848484848486 507.2323232323232,440.4848484848486 516.7676767676768,440.4848484848486 526.3030303030303,440.4848484848486 535.8383838383838,440.4848484848486 545.3737373737374,440.4848484848486 554.9090909090909,440.4848484848486 564.4444444444445,440.4848484848486 573.9797979797979,440.4848484848486 583.5151515151515,440.4848484848486 593.0505050505051,440.4848484848486 602.5858585858585,440.4848484848486 612.1212121212121,440.4848484848486 621.6565656565656,440.4848484848486 631.1919191919192,440.4848484848486 640.7272727272727,440.4848484848486 650.2626262626262,440.4848484848486 659.7979797979798,440.4848484848486 669.3333333333333,440.4848484848486 678.8686868686868,440.4848484848486 688.4040404040404,440.4848484848486 697.9393939393939,440.4848484848486 707.4747474747475,440.4848484848486 717.0101010101009,440.4848484848486 726.5454545454545,440.4848484848486 736.0808080808081,440.4848484848486 745.6161616161615,440.4848484848486 755.1515151515151,440.4848484848486 764.6868686868686,440.4848484848486 774.2222222222222,440.4848484848486 783.7575757575758,440.4848484848486 793.2929292929292,440.4848484848486 802.8282828282828,440.4848484848486 812.3636363636363,440.4848484848486 821.8989898989898,440.4848484848486 831.4343434343433,440.4848484848486 840.969696969697,440.4848484848486 850.5050505050505,440.4848484848486 860.0404040404039,440.4848484848486 869.5757575757575,440.4848484848486 879.111111111111,440.4848484848486 888.6464646464647,440.4848484848486 898.181818181818,440.4848484848486 907.7171717171716,440.4848484848486 917.2525252525251,440.4848484848486 926.7878787878785,440.4848484848486 936.3232323232323,440.4848484848486 945.8585858585857,440.4848484848486 955.3939393939393,440.4848484848486 964.9292929292927,440.4848484848486 974.4646464646464,440.4848484848486 984,440.4848484848486" fill="none" stroke="rgba(255,0,0,0.75)" stroke-width="11.327999999999996"/></g><g><polyline data-points="5.000000000000002,0.7575757575757579 4.898989898989901,0.6565656565656574 4.7979797979797985,0.5555555555555567 4.696969696969697,0.4545454545454551 4.595959595959597,0.3535353535353544 4.494949494949497,0.2525252525252529 4.393939393939394,0.1515151515151522 4.292929292929293,0.050505050505051545 4.191919191919193,-0.05050505050505001 4.090909090909092,-0.15151515151515066 3.989898989898992,-0.2525252525252522 3.8888888888888893,-0.35353535353535287 3.7878787878787885,-0.4545454545454544 3.6868686868686877,-0.555555555555555 3.5858585858585874,-0.6565656565656557 3.4848484848484866,-0.7575757575757572 3.383838383838384,-0.8585858585858579 3.2828282828282833,-0.9595959595959596 3.181818181818183,-1.0606060606060603 3.080808080808082,-1.1616161616161613 2.9797979797979806,-1.2626262626262625 2.87878787878788,-1.363636363636363 2.7777777777777786,-1.4646464646464643 2.676767676767678,-1.5656565656565653 2.575757575757577,-1.6666666666666665 2.4747474747474754,-1.7676767676767675 2.373737373737375,-1.8686868686868683 2.2727272727272734,-1.9696969696969693 2.1717171717171726,-2.07070707070707 2.070707070707072,-2.1717171717171713 1.9696969696969702,-2.2727272727272725" data-type="line" data-label="" points="984,440.4848484848486 974.4646464646464,450.0202020202021 964.9292929292927,459.5555555555556 955.3939393939393,469.0909090909092 945.8585858585857,478.6262626262627 936.3232323232323,488.1616161616163 926.7878787878785,497.69696969696975 917.2525252525251,507.23232323232327 907.7171717171716,516.7676767676768 898.181818181818,526.3030303030304 888.6464646464647,535.838383838384 879.111111111111,545.3737373737374 869.5757575757575,554.909090909091 860.0404040404039,564.4444444444445 850.5050505050505,573.979797979798 840.969696969697,583.5151515151516 831.4343434343433,593.0505050505051 821.8989898989898,602.5858585858587 812.3636363636363,612.1212121212121 802.8282828282828,621.6565656565657 793.2929292929292,631.1919191919193 783.7575757575758,640.7272727272727 774.2222222222222,650.2626262626263 764.6868686868686,659.7979797979798 755.1515151515151,669.3333333333334 745.6161616161615,678.8686868686868 736.0808080808081,688.4040404040404 726.5454545454545,697.939393939394 717.0101010101009,707.4747474747475 707.4747474747475,717.010101010101 697.9393939393939,726.5454545454545" fill="none" stroke="rgba(0,0,255,0.75)" stroke-width="11.327999999999996"/></g><g><polyline data-points="1.9696969696969702,-2.2727272727272725 1.8686868686868696,-2.3737373737373733 1.767676767676768,-2.474747474747474 1.6666666666666674,-2.5757575757575752 1.5656565656565666,-2.6767676767676765 1.4646464646464652,-2.7777777777777777 1.3636363636363644,-2.8787878787878785 1.262626262626263,-2.9797979797979792 1.1616161616161622,-3.0808080808080804 1.0606060606060617,-3.0808080808080804 0.9595959595959602,-3.0808080808080804 0.8585858585858596,-3.0808080808080804 0.7575757575757579,-3.0808080808080804 0.6565656565656574,-3.0808080808080804 0.5555555555555567,-3.0808080808080804 0.4545454545454551,-3.0808080808080804 0.3535353535353544,-3.0808080808080804 0.2525252525252529,-3.0808080808080804 0.1515151515151522,-3.0808080808080804 0.050505050505051545,-3.0808080808080804 -0.05050505050505001,-3.0808080808080804 -0.15151515151515066,-3.0808080808080804 -0.2525252525252522,-3.0808080808080804 -0.35353535353535287,-3.0808080808080804 -0.4545454545454544,-3.0808080808080804 -0.555555555555555,-3.0808080808080804 -0.6565656565656557,-3.0808080808080804 -0.7575757575757572,-3.0808080808080804 -0.8585858585858579,-3.0808080808080804 -0.9595959595959596,-3.0808080808080804 -1.0606060606060603,-3.0808080808080804 -1.1616161616161613,-3.0808080808080804 -1.2626262626262625,-3.0808080808080804 -1.363636363636363,-3.0808080808080804 -1.4646464646464643,-3.0808080808080804 -1.5656565656565653,-3.0808080808080804 -1.6666666666666665,-3.0808080808080804 -1.7676767676767675,-3.0808080808080804 -1.8686868686868683,-3.0808080808080804 -1.9696969696969693,-3.0808080808080804 -2.07070707070707,-3.0808080808080804 -2.1717171717171713,-3.0808080808080804 -2.2727272727272725,-3.0808080808080804 -2.3737373737373733,-3.0808080808080804 -2.474747474747474,-3.0808080808080804 -2.5757575757575752,-3.0808080808080804 -2.6767676767676765,-3.0808080808080804 -2.7777777777777777,-3.0808080808080804 -2.8787878787878785,-3.0808080808080804 -2.9797979797979792,-3.0808080808080804 -3.0808080808080804,-3.0808080808080804 -3.1818181818181817,-3.0808080808080804 -3.2828282828282824,-3.0808080808080804 -3.383838383838383,-3.0808080808080804" data-type="line" data-label="" points="697.9393939393939,726.5454545454545 688.4040404040404,736.0808080808081 678.8686868686868,745.6161616161615 669.3333333333333,755.1515151515151 659.7979797979798,764.6868686868687 650.2626262626262,774.2222222222222 640.7272727272727,783.7575757575758 631.1919191919192,793.2929292929292 621.6565656565656,802.8282828282828 612.1212121212121,802.8282828282828 602.5858585858585,802.8282828282828 593.0505050505051,802.8282828282828 583.5151515151515,802.8282828282828 573.9797979797979,802.8282828282828 564.4444444444445,802.8282828282828 554.9090909090909,802.8282828282828 545.3737373737374,802.8282828282828 535.8383838383838,802.8282828282828 526.3030303030303,802.8282828282828 516.7676767676768,802.8282828282828 507.2323232323232,802.8282828282828 497.69696969696975,802.8282828282828 488.16161616161617,802.8282828282828 478.62626262626264,802.8282828282828 469.09090909090907,802.8282828282828 459.55555555555554,802.8282828282828 450.0202020202021,802.8282828282828 440.4848484848485,802.8282828282828 430.949494949495,802.8282828282828 421.4141414141414,802.8282828282828 411.8787878787879,802.8282828282828 402.34343434343435,802.8282828282828 392.80808080808083,802.8282828282828 383.2727272727273,802.8282828282828 373.7373737373738,802.8282828282828 364.2020202020202,802.8282828282828 354.6666666666667,802.8282828282828 345.13131313131316,802.8282828282828 335.59595959595964,802.8282828282828 326.0606060606061,802.8282828282828 316.5252525252526,802.8282828282828 306.9898989898991,802.8282828282828 297.4545454545455,802.8282828282828 287.91919191919203,802.8282828282828 278.38383838383845,802.8282828282828 268.84848484848493,802.8282828282828 259.3131313131314,802.8282828282828 249.77777777777783,802.8282828282828 240.2424242424243,802.8282828282828 230.70707070707084,802.8282828282828 221.17171717171726,802.8282828282828 211.63636363636374,802.8282828282828 202.10101010101022,802.8282828282828 192.5656565656567,802.8282828282828" fill="none" stroke="rgba(255,0,0,0.75)" stroke-width="11.327999999999996"/></g><g><polyline data-points="-3.383838383838383,-3.0808080808080804 -3.484848484848485,-3.1818181818181817 -3.5858585858585856,-3.2828282828282824 -3.6868686868686864,-3.383838383838383 -3.7878787878787876,-3.484848484848485 -3.8888888888888884,-3.5858585858585856 -3.98989898989899,-3.6868686868686864" data-type="line" data-label="" points="192.5656565656567,802.8282828282828 183.03030303030312,812.3636363636363 173.4949494949496,821.8989898989898 163.95959595959607,831.4343434343434 154.42424242424255,840.969696969697 144.88888888888903,850.5050505050505 135.35353535353545,860.0404040404039" fill="none" stroke="rgba(0,0,255,0.75)" stroke-width="11.327999999999996"/></g><g><polyline data-points="-3.98989898989899,-3.6868686868686864 -4.090909090909091,-3.7878787878787876 -4.191919191919193,-3.8888888888888884 -4.292929292929293,-3.98989898989899 -4.393939393939394,-4.090909090909091 -4.494949494949496,-4.191919191919193 -4.595959595959596,-4.292929292929293 -4.696969696969697,-4.393939393939394 -4.7979797979797985,-4.494949494949496 -4.898989898989899,-4.595959595959596 -5.000000000000001,-4.696969696969697 -5.000000000000001,-4.7979797979797985 -5.000000000000001,-4.898989898989899" data-type="line" data-label="" points="135.35353535353545,860.0404040404039 125.81818181818193,869.5757575757575 116.28282828282829,879.1111111111111 106.74747474747483,888.6464646464647 97.21212121212136,898.1818181818181 87.67676767676772,907.7171717171718 78.14141414141426,917.2525252525252 68.60606060606068,926.7878787878788 59.07070707070716,936.3232323232323 49.53535353535369,945.8585858585858 40.00000000000006,955.3939393939394 40.00000000000006,964.9292929292928 40.00000000000006,974.4646464646464" fill="none" stroke="rgba(255,0,0,0.75)" stroke-width="11.327999999999996"/></g><g><polyline data-points="2.2727272727272734,-5.000000000000001 2.373737373737375,-4.898989898989899 2.4747474747474754,-4.7979797979797985 2.575757575757577,-4.696969696969697 2.676767676767678,-4.595959595959596 2.7777777777777786,-4.494949494949496 2.87878787878788,-4.393939393939394 2.9797979797979806,-4.292929292929293 3.080808080808082,-4.191919191919193 3.181818181818183,-4.090909090909091 3.2828282828282833,-3.98989898989899 3.383838383838384,-3.8888888888888884 3.4848484848484866,-3.7878787878787876 3.5858585858585874,-3.6868686868686864 3.6868686868686877,-3.5858585858585856 3.7878787878787885,-3.484848484848485 3.8888888888888893,-3.383838383838383 3.989898989898992,-3.2828282828282824 3.989898989898992,-3.1818181818181817 3.989898989898992,-3.0808080808080804 3.989898989898992,-2.9797979797979792 3.989898989898992,-2.8787878787878785 3.989898989898992,-2.7777777777777777 3.989898989898992,-2.6767676767676765 3.989898989898992,-2.5757575757575752 3.989898989898992,-2.474747474747474 3.989898989898992,-2.3737373737373733 3.989898989898992,-2.2727272727272725 3.989898989898992,-2.1717171717171713 3.989898989898992,-2.07070707070707 3.989898989898992,-1.9696969696969693 3.989898989898992,-1.8686868686868683 3.989898989898992,-1.7676767676767675 3.989898989898992,-1.6666666666666665 3.989898989898992,-1.5656565656565653 3.989898989898992,-1.4646464646464643 3.989898989898992,-1.363636363636363 3.989898989898992,-1.2626262626262625 3.989898989898992,-1.1616161616161613 3.989898989898992,-1.0606060606060603 3.989898989898992,-0.9595959595959596 3.989898989898992,-0.8585858585858579 3.989898989898992,-0.7575757575757572" data-type="line" data-label="" points="726.5454545454545,984 736.0808080808081,974.4646464646464 745.6161616161615,964.9292929292928 755.1515151515151,955.3939393939394 764.6868686868686,945.8585858585858 774.2222222222222,936.3232323232323 783.7575757575758,926.7878787878788 793.2929292929292,917.2525252525252 802.8282828282828,907.7171717171718 812.3636363636363,898.1818181818181 821.8989898989898,888.6464646464647 831.4343434343433,879.1111111111111 840.969696969697,869.5757575757575 850.5050505050505,860.0404040404039 860.0404040404039,850.5050505050505 869.5757575757575,840.969696969697 879.111111111111,831.4343434343434 888.6464646464647,821.8989898989898 888.6464646464647,812.3636363636363 888.6464646464647,802.8282828282828 888.6464646464647,793.2929292929292 888.6464646464647,783.7575757575758 888.6464646464647,774.2222222222222 888.6464646464647,764.6868686868687 888.6464646464647,755.1515151515151 888.6464646464647,745.6161616161615 888.6464646464647,736.0808080808081 888.6464646464647,726.5454545454545 888.6464646464647,717.010101010101 888.6464646464647,707.4747474747475 888.6464646464647,697.939393939394 888.6464646464647,688.4040404040404 888.6464646464647,678.8686868686868 888.6464646464647,669.3333333333334 888.6464646464647,659.7979797979798 888.6464646464647,650.2626262626263 888.6464646464647,640.7272727272727 888.6464646464647,631.1919191919193 888.6464646464647,621.6565656565657 888.6464646464647,612.1212121212121 888.6464646464647,602.5858585858587 888.6464646464647,593.0505050505051 888.6464646464647,583.5151515151516" fill="none" stroke="rgba(0,0,255,0.75)" stroke-width="11.327999999999996"/></g><g><polyline data-points="3.989898989898992,-0.7575757575757572 3.989898989898992,-0.6565656565656557 3.989898989898992,-0.555555555555555 3.989898989898992,-0.4545454545454544 3.989898989898992,-0.35353535353535287 3.989898989898992,-0.2525252525252522 3.989898989898992,-0.15151515151515066 3.989898989898992,-0.05050505050505001 3.989898989898992,0.050505050505051545 3.989898989898992,0.1515151515151522 3.989898989898992,0.2525252525252529 3.989898989898992,0.3535353535353544" data-type="line" data-label="" points="888.6464646464647,583.5151515151516 888.6464646464647,573.979797979798 888.6464646464647,564.4444444444445 888.6464646464647,554.909090909091 888.6464646464647,545.3737373737374 888.6464646464647,535.838383838384 888.6464646464647,526.3030303030304 888.6464646464647,516.7676767676768 888.6464646464647,507.23232323232327 888.6464646464647,497.69696969696975 888.6464646464647,488.1616161616163 888.6464646464647,478.6262626262627" fill="none" stroke="rgba(255,0,0,0.75)" stroke-width="11.327999999999996"/></g><g><polyline data-points="3.989898989898992,0.3535353535353544 3.989898989898992,0.4545454545454551 3.989898989898992,0.5555555555555567 3.989898989898992,0.6565656565656574 3.989898989898992,0.7575757575757579 3.989898989898992,0.8585858585858596 3.989898989898992,0.9595959595959602 3.989898989898992,1.0606060606060617 3.989898989898992,1.1616161616161622 3.989898989898992,1.262626262626263 3.989898989898992,1.3636363636363644 3.989898989898992,1.4646464646464652 3.989898989898992,1.5656565656565666 3.989898989898992,1.6666666666666674 3.989898989898992,1.767676767676768 3.989898989898992,1.8686868686868696 3.989898989898992,1.9696969696969702 3.989898989898992,2.070707070707072 3.989898989898992,2.1717171717171726 3.989898989898992,2.2727272727272734 3.989898989898992,2.373737373737375 3.989898989898992,2.4747474747474754 3.989898989898992,2.575757575757577 3.989898989898992,2.676767676767678 3.989898989898992,2.7777777777777786 3.989898989898992,2.87878787878788 3.989898989898992,2.9797979797979806 3.989898989898992,3.080808080808082 3.989898989898992,3.181818181818183 3.989898989898992,3.2828282828282833 3.989898989898992,3.383838383838384 3.989898989898992,3.4848484848484866 3.989898989898992,3.5858585858585874 3.989898989898992,3.6868686868686877 3.989898989898992,3.7878787878787885 3.989898989898992,3.8888888888888893 3.989898989898992,3.989898989898992" data-type="line" data-label="" points="888.6464646464647,478.6262626262627 888.6464646464647,469.0909090909092 888.6464646464647,459.5555555555556 888.6464646464647,450.0202020202021 888.6464646464647,440.4848484848486 888.6464646464647,430.94949494949503 888.6464646464647,421.4141414141415 888.6464646464647,411.87878787878793 888.6464646464647,402.3434343434344 888.6464646464647,392.80808080808094 888.6464646464647,383.27272727272737 888.6464646464647,373.73737373737384 888.6464646464647,364.2020202020203 888.6464646464647,354.66666666666674 888.6464646464647,345.1313131313133 888.6464646464647,335.5959595959597 888.6464646464647,326.06060606060623 888.6464646464647,316.5252525252526 888.6464646464647,306.9898989898991 888.6464646464647,297.4545454545456 888.6464646464647,287.91919191919203 888.6464646464647,278.38383838383857 888.6464646464647,268.84848484848493 888.6464646464647,259.3131313131314 888.6464646464647,249.77777777777794 888.6464646464647,240.24242424242436 888.6464646464647,230.70707070707084 888.6464646464647,221.17171717171726 888.6464646464647,211.63636363636374 888.6464646464647,202.10101010101027 888.6464646464647,192.56565656565675 888.6464646464647,183.03030303030312 888.6464646464647,173.4949494949496 888.6464646464647,163.95959595959613 888.6464646464647,154.4242424242426 888.6464646464647,144.88888888888908 888.6464646464647,135.35353535353545" fill="none" stroke="rgba(0,0,255,0.75)" stroke-width="11.327999999999996"/></g><g><polyline data-points="3.989898989898992,3.989898989898992 4.090909090909092,4.090909090909092 4.191919191919193,4.191919191919193 4.191919191919193,4.292929292929293 4.191919191919193,4.393939393939394 4.191919191919193,4.494949494949497 4.191919191919193,4.595959595959597 4.191919191919193,4.696969696969697 4.191919191919193,4.7979797979797985 4.191919191919193,4.898989898989901 4.191919191919193,5.000000000000002" data-type="line" data-label="" points="888.6464646464647,135.35353535353545 898.181818181818,125.81818181818198 907.7171717171716,116.28282828282846 907.7171717171716,106.747474747475 907.7171717171716,97.21212121212153 907.7171717171716,87.67676767676778 907.7171717171716,78.14141414141432 907.7171717171716,68.60606060606085 907.7171717171716,59.07070707070733 907.7171717171716,49.53535353535369 907.7171717171716,40.000000000000114" fill="none" stroke="rgba(255,0,0,0.75)" stroke-width="11.327999999999996"/></g><g><polyline data-points="-5.000000000000001,0.5555555555555567 -4.898989898989899,0.5555555555555567 -4.7979797979797985,0.5555555555555567 -4.696969696969697,0.6565656565656574 -4.595959595959596,0.7575757575757579 -4.494949494949496,0.8585858585858596 -4.393939393939394,0.9595959595959602 -4.292929292929293,1.0606060606060617 -4.191919191919193,1.1616161616161622 -4.090909090909091,1.262626262626263 -3.98989898989899,1.3636363636363644" data-type="line" data-label="" points="40.00000000000006,459.5555555555556 49.53535353535369,459.5555555555556 59.07070707070716,459.5555555555556 68.60606060606068,450.0202020202021 78.14141414141426,440.4848484848486 87.67676767676772,430.94949494949503 97.21212121212136,421.4141414141415 106.74747474747483,411.87878787878793 116.28282828282829,402.3434343434344 125.81818181818193,392.80808080808094 135.35353535353545,383.27272727272737" fill="none" stroke="rgba(0,0,255,0.75)" stroke-width="11.327999999999996"/></g><g><polyline data-points="-3.98989898989899,1.3636363636363644 -3.8888888888888884,1.262626262626263 -3.7878787878787876,1.1616161616161622 -3.6868686868686864,1.0606060606060617 -3.5858585858585856,0.9595959595959602 -3.484848484848485,0.8585858585858596 -3.383838383838383,0.7575757575757579 -3.2828282828282824,0.6565656565656574 -3.1818181818181817,0.5555555555555567 -3.0808080808080804,0.4545454545454551 -2.9797979797979792,0.3535353535353544 -2.8787878787878785,0.2525252525252529 -2.7777777777777777,0.1515151515151522 -2.6767676767676765,0.050505050505051545 -2.5757575757575752,-0.05050505050505001 -2.474747474747474,-0.15151515151515066 -2.3737373737373733,-0.2525252525252522 -2.2727272727272725,-0.35353535353535287 -2.1717171717171713,-0.4545454545454544 -2.07070707070707,-0.555555555555555 -1.9696969696969693,-0.6565656565656557 -1.8686868686868683,-0.7575757575757572 -1.7676767676767675,-0.8585858585858579 -1.6666666666666665,-0.9595959595959596 -1.5656565656565653,-1.0606060606060603 -1.4646464646464643,-1.1616161616161613 -1.363636363636363,-1.2626262626262625 -1.2626262626262625,-1.363636363636363 -1.1616161616161613,-1.4646464646464643 -1.0606060606060603,-1.4646464646464643 -0.9595959595959596,-1.4646464646464643 -0.8585858585858579,-1.4646464646464643 -0.7575757575757572,-1.4646464646464643 -0.6565656565656557,-1.4646464646464643 -0.555555555555555,-1.4646464646464643 -0.4545454545454544,-1.4646464646464643 -0.35353535353535287,-1.4646464646464643 -0.2525252525252522,-1.4646464646464643 -0.15151515151515066,-1.4646464646464643 -0.05050505050505001,-1.4646464646464643 0.050505050505051545,-1.4646464646464643 0.1515151515151522,-1.4646464646464643 0.2525252525252529,-1.4646464646464643 0.3535353535353544,-1.4646464646464643 0.4545454545454551,-1.4646464646464643 0.5555555555555567,-1.4646464646464643 0.6565656565656574,-1.4646464646464643 0.7575757575757579,-1.4646464646464643 0.8585858585858596,-1.4646464646464643 0.9595959595959602,-1.4646464646464643 1.0606060606060617,-1.4646464646464643 1.1616161616161622,-1.4646464646464643 1.262626262626263,-1.4646464646464643 1.3636363636363644,-1.4646464646464643 1.4646464646464652,-1.4646464646464643 1.5656565656565666,-1.4646464646464643 1.6666666666666674,-1.4646464646464643 1.767676767676768,-1.4646464646464643 1.8686868686868696,-1.4646464646464643 1.9696969696969702,-1.4646464646464643 2.070707070707072,-1.4646464646464643 2.1717171717171726,-1.4646464646464643 2.2727272727272734,-1.4646464646464643 2.373737373737375,-1.4646464646464643 2.4747474747474754,-1.4646464646464643 2.575757575757577,-1.4646464646464643 2.676767676767678,-1.4646464646464643 2.7777777777777786,-1.4646464646464643 2.87878787878788,-1.4646464646464643 2.9797979797979806,-1.4646464646464643 3.080808080808082,-1.4646464646464643 3.181818181818183,-1.4646464646464643 3.2828282828282833,-1.4646464646464643 3.383838383838384,-1.4646464646464643 3.4848484848484866,-1.4646464646464643 3.5858585858585874,-1.4646464646464643 3.6868686868686877,-1.4646464646464643 3.7878787878787885,-1.4646464646464643 3.8888888888888893,-1.4646464646464643 3.989898989898992,-1.4646464646464643 4.090909090909092,-1.4646464646464643 4.191919191919193,-1.4646464646464643 4.292929292929293,-1.4646464646464643 4.393939393939394,-1.4646464646464643 4.494949494949497,-1.4646464646464643 4.595959595959597,-1.4646464646464643 4.696969696969697,-1.4646464646464643 4.7979797979797985,-1.4646464646464643 4.898989898989901,-1.4646464646464643 5.000000000000002,-1.4646464646464643" data-type="line" data-label="" points="135.35353535353545,383.27272727272737 144.88888888888903,392.80808080808094 154.42424242424255,402.3434343434344 163.95959595959607,411.87878787878793 173.4949494949496,421.4141414141415 183.03030303030312,430.94949494949503 192.5656565656567,440.4848484848486 202.10101010101022,450.0202020202021 211.63636363636374,459.5555555555556 221.17171717171726,469.0909090909092 230.70707070707084,478.6262626262627 240.2424242424243,488.1616161616163 249.77777777777783,497.69696969696975 259.3131313131314,507.23232323232327 268.84848484848493,516.7676767676768 278.38383838383845,526.3030303030304 287.91919191919203,535.838383838384 297.4545454545455,545.3737373737374 306.9898989898991,554.909090909091 316.5252525252526,564.4444444444445 326.0606060606061,573.979797979798 335.59595959595964,583.5151515151516 345.13131313131316,593.0505050505051 354.6666666666667,602.5858585858587 364.2020202020202,612.1212121212121 373.7373737373738,621.6565656565657 383.2727272727273,631.1919191919193 392.80808080808083,640.7272727272727 402.34343434343435,650.2626262626263 411.8787878787879,650.2626262626263 421.4141414141414,650.2626262626263 430.949494949495,650.2626262626263 440.4848484848485,650.2626262626263 450.0202020202021,650.2626262626263 459.55555555555554,650.2626262626263 469.09090909090907,650.2626262626263 478.62626262626264,650.2626262626263 488.16161616161617,650.2626262626263 497.69696969696975,650.2626262626263 507.2323232323232,650.2626262626263 516.7676767676768,650.2626262626263 526.3030303030303,650.2626262626263 535.8383838383838,650.2626262626263 545.3737373737374,650.2626262626263 554.9090909090909,650.2626262626263 564.4444444444445,650.2626262626263 573.9797979797979,650.2626262626263 583.5151515151515,650.2626262626263 593.0505050505051,650.2626262626263 602.5858585858585,650.2626262626263 612.1212121212121,650.2626262626263 621.6565656565656,650.2626262626263 631.1919191919192,650.2626262626263 640.7272727272727,650.2626262626263 650.2626262626262,650.2626262626263 659.7979797979798,650.2626262626263 669.3333333333333,650.2626262626263 678.8686868686868,650.2626262626263 688.4040404040404,650.2626262626263 697.9393939393939,650.2626262626263 707.4747474747475,650.2626262626263 717.0101010101009,650.2626262626263 726.5454545454545,650.2626262626263 736.0808080808081,650.2626262626263 745.6161616161615,650.2626262626263 755.1515151515151,650.2626262626263 764.6868686868686,650.2626262626263 774.2222222222222,650.2626262626263 783.7575757575758,650.2626262626263 793.2929292929292,650.2626262626263 802.8282828282828,650.2626262626263 812.3636363636363,650.2626262626263 821.8989898989898,650.2626262626263 831.4343434343433,650.2626262626263 840.969696969697,650.2626262626263 850.5050505050505,650.2626262626263 860.0404040404039,650.2626262626263 869.5757575757575,650.2626262626263 879.111111111111,650.2626262626263 888.6464646464647,650.2626262626263 898.181818181818,650.2626262626263 907.7171717171716,650.2626262626263 917.2525252525251,650.2626262626263 926.7878787878785,650.2626262626263 936.3232323232323,650.2626262626263 945.8585858585857,650.2626262626263 955.3939393939393,650.2626262626263 964.9292929292927,650.2626262626263 974.4646464646464,650.2626262626263 984,650.2626262626263" fill="none" stroke="rgba(255,0,0,0.75)" stroke-width="11.327999999999996"/></g><g><polyline data-points="-4.494949494949496,-5.000000000000001 -4.393939393939394,-5.000000000000001 -4.292929292929293,-4.898989898989899 -4.191919191919193,-4.7979797979797985 -4.090909090909091,-4.696969696969697 -3.98989898989899,-4.595959595959596 -3.8888888888888884,-4.494949494949496 -3.7878787878787876,-4.393939393939394 -3.7878787878787876,-4.292929292929293 -3.7878787878787876,-4.191919191919193 -3.7878787878787876,-4.090909090909091 -3.7878787878787876,-3.98989898989899 -3.7878787878787876,-3.8888888888888884 -3.7878787878787876,-3.7878787878787876 -3.6868686868686864,-3.6868686868686864 -3.6868686868686864,-3.5858585858585856 -3.6868686868686864,-3.484848484848485 -3.6868686868686864,-3.383838383838383 -3.6868686868686864,-3.2828282828282824 -3.6868686868686864,-3.1818181818181817 -3.6868686868686864,-3.0808080808080804 -3.6868686868686864,-2.9797979797979792 -3.6868686868686864,-2.8787878787878785 -3.6868686868686864,-2.7777777777777777 -3.6868686868686864,-2.6767676767676765 -3.6868686868686864,-2.5757575757575752 -3.6868686868686864,-2.474747474747474 -3.6868686868686864,-2.3737373737373733 -3.6868686868686864,-2.2727272727272725 -3.6868686868686864,-2.1717171717171713 -3.6868686868686864,-2.07070707070707 -3.6868686868686864,-1.9696969696969693 -3.6868686868686864,-1.8686868686868683 -3.6868686868686864,-1.7676767676767675 -3.6868686868686864,-1.6666666666666665 -3.6868686868686864,-1.5656565656565653 -3.6868686868686864,-1.4646464646464643 -3.6868686868686864,-1.363636363636363 -3.6868686868686864,-1.2626262626262625 -3.6868686868686864,-1.1616161616161613 -3.6868686868686864,-1.0606060606060603 -3.6868686868686864,-0.9595959595959596 -3.6868686868686864,-0.8585858585858579 -3.6868686868686864,-0.7575757575757572 -3.6868686868686864,-0.6565656565656557 -3.6868686868686864,-0.555555555555555 -3.6868686868686864,-0.4545454545454544 -3.6868686868686864,-0.35353535353535287 -3.6868686868686864,-0.2525252525252522 -3.6868686868686864,-0.15151515151515066 -3.6868686868686864,-0.05050505050505001 -3.6868686868686864,0.050505050505051545 -3.6868686868686864,0.1515151515151522 -3.6868686868686864,0.2525252525252529 -3.6868686868686864,0.3535353535353544 -3.6868686868686864,0.4545454545454551 -3.6868686868686864,0.5555555555555567" data-type="line" data-label="" points="87.67676767676772,984 97.21212121212136,984 106.74747474747483,974.4646464646464 116.28282828282829,964.9292929292928 125.81818181818193,955.3939393939394 135.35353535353545,945.8585858585858 144.88888888888903,936.3232323232323 154.42424242424255,926.7878787878788 154.42424242424255,917.2525252525252 154.42424242424255,907.7171717171718 154.42424242424255,898.1818181818181 154.42424242424255,888.6464646464647 154.42424242424255,879.1111111111111 154.42424242424255,869.5757575757575 163.95959595959607,860.0404040404039 163.95959595959607,850.5050505050505 163.95959595959607,840.969696969697 163.95959595959607,831.4343434343434 163.95959595959607,821.8989898989898 163.95959595959607,812.3636363636363 163.95959595959607,802.8282828282828 163.95959595959607,793.2929292929292 163.95959595959607,783.7575757575758 163.95959595959607,774.2222222222222 163.95959595959607,764.6868686868687 163.95959595959607,755.1515151515151 163.95959595959607,745.6161616161615 163.95959595959607,736.0808080808081 163.95959595959607,726.5454545454545 163.95959595959607,717.010101010101 163.95959595959607,707.4747474747475 163.95959595959607,697.939393939394 163.95959595959607,688.4040404040404 163.95959595959607,678.8686868686868 163.95959595959607,669.3333333333334 163.95959595959607,659.7979797979798 163.95959595959607,650.2626262626263 163.95959595959607,640.7272727272727 163.95959595959607,631.1919191919193 163.95959595959607,621.6565656565657 163.95959595959607,612.1212121212121 163.95959595959607,602.5858585858587 163.95959595959607,593.0505050505051 163.95959595959607,583.5151515151516 163.95959595959607,573.979797979798 163.95959595959607,564.4444444444445 163.95959595959607,554.909090909091 163.95959595959607,545.3737373737374 163.95959595959607,535.838383838384 163.95959595959607,526.3030303030304 163.95959595959607,516.7676767676768 163.95959595959607,507.23232323232327 163.95959595959607,497.69696969696975 163.95959595959607,488.1616161616163 163.95959595959607,478.6262626262627 163.95959595959607,469.0909090909092 163.95959595959607,459.5555555555556" fill="none" stroke="rgba(255,0,0,0.75)" stroke-width="11.327999999999996"/></g><g><polyline data-points="-3.6868686868686864,0.5555555555555567 -3.6868686868686864,0.6565656565656574 -3.5858585858585856,0.7575757575757579 -3.484848484848485,0.8585858585858596 -3.383838383838383,0.9595959595959602 -3.2828282828282824,1.0606060606060617 -3.1818181818181817,1.1616161616161622" data-type="line" data-label="" points="163.95959595959607,459.5555555555556 163.95959595959607,450.0202020202021 173.4949494949496,440.4848484848486 183.03030303030312,430.94949494949503 192.5656565656567,421.4141414141415 202.10101010101022,411.87878787878793 211.63636363636374,402.3434343434344" fill="none" stroke="rgba(0,0,255,0.75)" stroke-width="11.327999999999996"/></g><g><polyline data-points="-3.1818181818181817,1.1616161616161622 -3.2828282828282824,1.262626262626263 -3.383838383838383,1.3636363636363644 -3.484848484848485,1.4646464646464652 -3.5858585858585856,1.5656565656565666 -3.6868686868686864,1.6666666666666674 -3.7878787878787876,1.767676767676768 -3.7878787878787876,1.8686868686868696 -3.7878787878787876,1.9696969696969702 -3.7878787878787876,2.070707070707072 -3.7878787878787876,2.1717171717171726 -3.7878787878787876,2.2727272727272734 -3.7878787878787876,2.373737373737375 -3.7878787878787876,2.4747474747474754 -3.7878787878787876,2.575757575757577 -3.7878787878787876,2.676767676767678 -3.7878787878787876,2.7777777777777786 -3.7878787878787876,2.87878787878788 -3.7878787878787876,2.9797979797979806 -3.7878787878787876,3.080808080808082 -3.7878787878787876,3.181818181818183 -3.7878787878787876,3.2828282828282833 -3.7878787878787876,3.383838383838384 -3.7878787878787876,3.4848484848484866 -3.7878787878787876,3.5858585858585874 -3.7878787878787876,3.6868686868686877 -3.7878787878787876,3.7878787878787885 -3.7878787878787876,3.8888888888888893 -3.7878787878787876,3.989898989898992 -3.7878787878787876,4.090909090909092 -3.7878787878787876,4.191919191919193 -3.7878787878787876,4.292929292929293 -3.7878787878787876,4.393939393939394 -3.7878787878787876,4.494949494949497 -3.7878787878787876,4.595959595959597 -3.7878787878787876,4.696969696969697 -3.7878787878787876,4.7979797979797985 -3.7878787878787876,4.898989898989901 -3.8888888888888884,5.000000000000002" data-type="line" data-label="" points="211.63636363636374,402.3434343434344 202.10101010101022,392.80808080808094 192.5656565656567,383.27272727272737 183.03030303030312,373.73737373737384 173.4949494949496,364.2020202020203 163.95959595959607,354.66666666666674 154.42424242424255,345.1313131313133 154.42424242424255,335.5959595959597 154.42424242424255,326.06060606060623 154.42424242424255,316.5252525252526 154.42424242424255,306.9898989898991 154.42424242424255,297.4545454545456 154.42424242424255,287.91919191919203 154.42424242424255,278.38383838383857 154.42424242424255,268.84848484848493 154.42424242424255,259.3131313131314 154.42424242424255,249.77777777777794 154.42424242424255,240.24242424242436 154.42424242424255,230.70707070707084 154.42424242424255,221.17171717171726 154.42424242424255,211.63636363636374 154.42424242424255,202.10101010101027 154.42424242424255,192.56565656565675 154.42424242424255,183.03030303030312 154.42424242424255,173.4949494949496 154.42424242424255,163.95959595959613 154.42424242424255,154.4242424242426 154.42424242424255,144.88888888888908 154.42424242424255,135.35353535353545 154.42424242424255,125.81818181818198 154.42424242424255,116.28282828282846 154.42424242424255,106.747474747475 154.42424242424255,97.21212121212153 154.42424242424255,87.67676767676778 154.42424242424255,78.14141414141432 154.42424242424255,68.60606060606085 154.42424242424255,59.07070707070733 154.42424242424255,49.53535353535369 144.88888888888903,40.000000000000114" fill="none" stroke="rgba(255,0,0,0.75)" stroke-width="11.327999999999996"/></g><g><rect data-type="rect" data-label="" data-x="0" data-y="0" x="40.000000000000114" y="40.000000000000284" width="943.9999999999997" height="943.9999999999998" fill="none" stroke="gray" stroke-width="0.010593220338983056"/></g><g><rect data-type="rect" data-label="" data-x="0" data-y="0" x="40.000000000000114" y="40.000000000000284" width="943.9999999999997" height="943.9999999999998" fill="none" stroke="rgba(15, 23, 42, 0.8)" stroke-width="0.010593220338983056"/></g><circle data-type="circle" data-label="" data-x="-1.0606060606060603" data-y="3.2828282828282833" cx="411.8787878787879" cy="202.10101010101027" r="14.159999999999995" fill="rgba(0,0,0,0.3)" stroke="black" stroke-width="0.010593220338983056"/><circle data-type="circle" data-label="" data-x="1.1616161616161622" data-y="2.87878787878788" cx="621.6565656565656" cy="240.24242424242436" r="14.159999999999995" fill="rgba(0,0,0,0.3)" stroke="black" stroke-width="0.010593220338983056"/><circle data-type="circle" data-label="" data-x="1.9696969696969702" data-y="3.6868686868686877" cx="697.9393939393939" cy="163.95959595959613" r="14.159999999999995" fill="rgba(0,0,0,0.3)" stroke="black" stroke-width="0.010593220338983056"/><circle data-type="circle" data-label="" data-x="-3.383838383838383" data-y="1.9696969696969702" cx="192.5656565656567" cy="326.06060606060623" r="14.159999999999995" fill="rgba(0,0,0,0.3)" stroke="black" stroke-width="0.010593220338983056"/><circle data-type="circle" data-label="" data-x="1.9696969696969702" data-y="-2.2727272727272725" cx="697.9393939393939" cy="726.5454545454545" r="14.159999999999995" fill="rgba(0,0,0,0.3)" stroke="black" stroke-width="0.010593220338983056"/><circle data-type="circle" data-label="" data-x="-3.383838383838383" data-y="-3.0808080808080804" cx="192.5656565656567" cy="802.8282828282828" r="14.159999999999995" fill="rgba(0,0,0,0.3)" stroke="black" stroke-width="0.010593220338983056"/><circle data-type="circle" data-label="" data-x="-3.98989898989899" data-y="-3.6868686868686864" cx="135.35353535353545" cy="860.0404040404039" r="14.159999999999995" fill="rgba(0,0,0,0.3)" stroke="black" stroke-width="0.010593220338983056"/><circle data-type="circle" data-label="" data-x="3.989898989898992" data-y="-0.7575757575757572" cx="888.6464646464647" cy="583.5151515151516" r="14.159999999999995" fill="rgba(0,0,0,0.3)" stroke="black" stroke-width="0.010593220338983056"/><circle data-type="circle" data-label="" data-x="3.989898989898992" data-y="0.3535353535353544" cx="888.6464646464647" cy="478.6262626262627" r="14.159999999999995" fill="rgba(0,0,0,0.3)" stroke="black" stroke-width="0.010593220338983056"/><circle data-type="circle" data-label="" data-x="3.989898989898992" data-y="3.989898989898992" cx="888.6464646464647" cy="135.35353535353545" r="14.159999999999995" fill="rgba(0,0,0,0.3)" stroke="black" stroke-width="0.010593220338983056"/><circle data-type="circle" data-label="" data-x="-3.98989898989899" data-y="1.3636363636363644" cx="135.35353535353545" cy="383.27272727272737" r="14.159999999999995" fill="rgba(0,0,0,0.3)" stroke="black" stroke-width="0.010593220338983056"/><circle data-type="circle" data-label="" data-x="-3.6868686868686864" data-y="0.5555555555555567" cx="163.95959595959607" cy="459.5555555555556" r="14.159999999999995" fill="rgba(0,0,0,0.3)" stroke="black" stroke-width="0.010593220338983056"/><circle data-type="circle" data-label="" data-x="-3.1818181818181817" data-y="1.1616161616161622" cx="211.63636363636374" cy="402.3434343434344" r="14.159999999999995" fill="rgba(0,0,0,0.3)" stroke="black" stroke-width="0.010593220338983056"/><g id="crosshair" style="display: none"><line id="crosshair-h" y1="0" y2="1024" stroke="#666" stroke-width="0.5"/><line id="crosshair-v" x1="0" x2="1024" stroke="#666" stroke-width="0.5"/><text id="coordinates" font-family="monospace" font-size="12" fill="#666"></text></g><script><![CDATA[
              document.currentScript.parentElement.addEventListener('mousemove', (e) => {
                const svg = e.currentTarget;
                const rect = svg.getBoundingClientRect();
                const x = e.clientX - rect.left;
                const y = e.clientY - rect.top;
                const crosshair = svg.getElementById('crosshair');
                const h = svg.getElementById('crosshair-h');
                const v = svg.getElementById('crosshair-v');
                const coords = svg.getElementById('coordinates');
                
                crosshair.style.display = 'block';
                h.setAttribute('x1', '0');
                h.setAttribute('x2', '1024');
                h.setAttribute('y1', y);
                h.setAttribute('y2', y);
                v.setAttribute('x1', x);
                v.setAttribute('x2', x);
                v.setAttribute('y1', '0');
                v.setAttribute('y2', '1024');

                // Calculate real coordinates using inverse transformation
                const matrix = {"a":94.39999999999996,"c":0,"e":511.99999999999994,"b":0,"d":-94.39999999999996,"f":512.0000000000001};
                // Manually invert and apply the affine transform
                // Since we only use translate and scale, we can directly compute:
                // x' = (x - tx) / sx
                // y' = (y - ty) / sy
                const sx = matrix.a;
                const sy = matrix.d;
                const tx = matrix.e; 
                const ty = matrix.f;
                const realPoint = {
                  x: (x - tx) / sx,
                  y: (y - ty) / sy // Flip y back since we used negative scale
                }
                
                coords.textContent = `(${realPoint.x.toFixed(2)}, ${realPoint.y.toFixed(2)})`;
                coords.setAttribute('x', (x + 5).toString());
                coords.setAttribute('y', (y - 5).toString());
              });
              document.currentScript.parentElement.addEventListener('mouseleave', () => {
                document.currentScript.parentElement.getElementById('crosshair').style.display = 'none';
              });
            ]]></script></svg>