<svg width="1024" height="1024" viewBox="0 0 1024 1024" xmlns="http://www.w3.org/2000/svg"><rect width="100%" height="100%" fill="white"/><g><circle data-type="point" data-label="conn_000" data-x="-4.72" data-y="5" cx="66.43200000000013" cy="40.000000000000284" r="14.16" fill="blue"/></g><g><circle data-type="point" data-label="conn_000" data-x="-2.04" data-y="-5" cx="319.424" cy="984" r="14.16" fill="red"/></g><g><circle data-type="point" data-label="conn_001" data-x="-2.62" data-y="-5" cx="264.672" cy="984" r="14.16" fill="red"/></g><g><circle data-type="point" data-label="conn_001" data-x="-2.94" data-y="5" cx="234.46400000000006" cy="40.000000000000284" r="14.16" fill="blue"/></g><g><circle data-type="point" data-label="conn_002" data-x="-2.96" data-y="5" cx="232.57600000000008" cy="40.000000000000284" r="14.16" fill="red"/></g><g><circle data-type="point" data-label="conn_002" data-x="3.7" data-y="5" cx="861.2799999999997" cy="40.000000000000284" r="14.16" fill="blue"/></g><g><circle data-type="point" data-label="conn_003" data-x="-5" data-y="3.94" cx="40.000000000000114" cy="140.06400000000025" r="14.16" fill="blue"/></g><g><circle data-type="point" data-label="conn_003" data-x="5" data-y="4.24" cx="983.9999999999998" cy="111.74400000000026" r="14.16" fill="blue"/></g><g><circle data-type="point" data-label="conn_004" data-x="-5" data-y="-3.9" cx="40.000000000000114" cy="880.16" r="14.16" fill="red"/></g><g><circle data-type="point" data-label="conn_004" data-x="5" data-y="3" cx="983.9999999999998" cy="228.80000000000024" r="14.16" fill="red"/></g><g><circle data-type="point" data-label="conn_005" data-x="4.58" data-y="-5" cx="944.3519999999999" cy="984" r="14.16" fill="blue"/></g><g><circle data-type="point" data-label="conn_005" data-x="2.42" data-y="5" cx="740.4479999999999" cy="40.000000000000284" r="14.16" fill="blue"/></g><g><circle data-type="point" data-label="conn_006" data-x="-2.32" data-y="5" cx="292.9920000000001" cy="40.000000000000284" r="14.16" fill="red"/></g><g><circle data-type="point" data-label="conn_006" data-x="5" data-y="0.12" cx="983.9999999999998" cy="500.67200000000014" r="14.16" fill="red"/></g><g><circle data-type="point" data-label="conn_007" data-x="0.84" data-y="-5" cx="591.2959999999999" cy="984" r="14.16" fill="red"/></g><g><circle data-type="point" data-label="conn_007" data-x="3.2600000000000002" data-y="5" cx="819.7439999999999" cy="40.000000000000284" r="14.16" fill="blue"/></g><g><circle data-type="point" data-label="conn_008" data-x="-1.24" data-y="-5" cx="394.94399999999996" cy="984" r="14.16" fill="blue"/></g><g><circle data-type="point" data-label="conn_008" data-x="0.7000000000000001" data-y="-5" cx="578.0799999999999" cy="984" r="14.16" fill="red"/></g><g><circle data-type="point" data-label="conn_009" data-x="5" data-y="2.02" cx="983.9999999999998" cy="321.3120000000002" r="14.16" fill="blue"/></g><g><circle data-type="point" data-label="conn_009" data-x="-5" data-y="-4.6000000000000005" cx="40.000000000000114" cy="946.24" r="14.16" fill="blue"/></g><g><polyline data-points="-4.7979797979797985,5.000000000000002 -4.696969696969697,4.898989898989901 -4.595959595959596,4.7979797979797985 -4.494949494949496,4.696969696969697 -4.393939393939394,4.595959595959597 -4.292929292929293,4.494949494949497 -4.191919191919193,4.393939393939394 -4.090909090909091,4.292929292929293 -3.98989898989899,4.191919191919193 -3.8888888888888884,4.090909090909092 -3.7878787878787876,3.989898989898992 -3.6868686868686864,3.8888888888888893 -3.5858585858585856,3.7878787878787885 -3.484848484848485,3.6868686868686877 -3.383838383838383,3.5858585858585874 -3.2828282828282824,3.4848484848484866 -3.1818181818181817,3.383838383838384 -3.0808080808080804,3.2828282828282833 -2.9797979797979792,3.181818181818183 -2.8787878787878785,3.080808080808082 -2.7777777777777777,2.9797979797979806 -2.6767676767676765,2.87878787878788 -2.5757575757575752,2.7777777777777786 -2.474747474747474,2.676767676767678 -2.3737373737373733,2.575757575757577 -2.2727272727272725,2.4747474747474754 -2.1717171717171713,2.373737373737375 -2.07070707070707,2.2727272727272734 -2.07070707070707,2.1717171717171726 -2.07070707070707,2.070707070707072 -2.07070707070707,1.9696969696969702 -2.07070707070707,1.8686868686868696 -2.07070707070707,1.767676767676768 -2.07070707070707,1.6666666666666674 -2.07070707070707,1.5656565656565666 -2.07070707070707,1.4646464646464652 -2.07070707070707,1.3636363636363644 -2.07070707070707,1.262626262626263 -2.07070707070707,1.1616161616161622 -2.07070707070707,1.0606060606060617 -2.07070707070707,0.9595959595959602 -2.07070707070707,0.8585858585858596 -2.07070707070707,0.7575757575757579 -2.07070707070707,0.6565656565656574 -2.07070707070707,0.5555555555555567 -2.07070707070707,0.4545454545454551 -2.07070707070707,0.3535353535353544 -2.07070707070707,0.2525252525252529 -2.07070707070707,0.1515151515151522 -2.07070707070707,0.050505050505051545 -2.07070707070707,-0.05050505050505001 -2.07070707070707,-0.15151515151515066 -2.07070707070707,-0.2525252525252522 -2.07070707070707,-0.35353535353535287 -2.07070707070707,-0.4545454545454544 -2.07070707070707,-0.555555555555555 -2.07070707070707,-0.6565656565656557 -2.07070707070707,-0.7575757575757572 -2.07070707070707,-0.8585858585858579 -2.07070707070707,-0.9595959595959596 -2.07070707070707,-1.0606060606060603 -2.07070707070707,-1.1616161616161613 -2.07070707070707,-1.2626262626262625 -2.07070707070707,-1.363636363636363 -2.07070707070707,-1.4646464646464643 -2.07070707070707,-1.5656565656565653 -2.07070707070707,-1.6666666666666665 -2.07070707070707,-1.7676767676767675 -2.07070707070707,-1.8686868686868683 -2.07070707070707,-1.9696969696969693 -2.07070707070707,-2.07070707070707 -2.07070707070707,-2.1717171717171713 -2.07070707070707,-2.2727272727272725 -2.07070707070707,-2.3737373737373733 -2.07070707070707,-2.474747474747474 -2.07070707070707,-2.5757575757575752 -2.07070707070707,-2.6767676767676765 -2.07070707070707,-2.7777777777777777 -2.07070707070707,-2.8787878787878785 -2.07070707070707,-2.9797979797979792 -2.07070707070707,-3.0808080808080804 -2.07070707070707,-3.1818181818181817 -2.07070707070707,-3.2828282828282824 -2.07070707070707,-3.383838383838383 -2.07070707070707,-3.484848484848485 -2.07070707070707,-3.5858585858585856 -2.07070707070707,-3.6868686868686864 -2.07070707070707,-3.7878787878787876 -2.07070707070707,-3.8888888888888884 -2.07070707070707,-3.98989898989899" data-type="line" data-label="" points="59.07070707070716,40.000000000000114 68.60606060606068,49.53535353535369 78.14141414141426,59.07070707070733 87.67676767676772,68.60606060606085 97.21212121212136,78.14141414141432 106.74747474747483,87.67676767676778 116.28282828282829,97.21212121212153 125.81818181818193,106.747474747475 135.35353535353545,116.28282828282846 144.88888888888903,125.81818181818198 154.42424242424255,135.35353535353545 163.95959595959607,144.88888888888908 173.4949494949496,154.4242424242426 183.03030303030312,163.95959595959613 192.5656565656567,173.4949494949496 202.10101010101022,183.03030303030312 211.63636363636374,192.56565656565675 221.17171717171726,202.10101010101027 230.70707070707084,211.63636363636374 240.2424242424243,221.17171717171726 249.77777777777783,230.70707070707084 259.3131313131314,240.24242424242436 268.84848484848493,249.77777777777794 278.38383838383845,259.3131313131314 287.91919191919203,268.84848484848493 297.4545454545455,278.38383838383857 306.9898989898991,287.91919191919203 316.5252525252526,297.4545454545456 316.5252525252526,306.9898989898991 316.5252525252526,316.5252525252526 316.5252525252526,326.06060606060623 316.5252525252526,335.5959595959597 316.5252525252526,345.1313131313133 316.5252525252526,354.66666666666674 316.5252525252526,364.2020202020203 316.5252525252526,373.73737373737384 316.5252525252526,383.27272727272737 316.5252525252526,392.80808080808094 316.5252525252526,402.3434343434344 316.5252525252526,411.87878787878793 316.5252525252526,421.4141414141415 316.5252525252526,430.94949494949503 316.5252525252526,440.4848484848486 316.5252525252526,450.0202020202021 316.5252525252526,459.5555555555556 316.5252525252526,469.0909090909092 316.5252525252526,478.6262626262627 316.5252525252526,488.1616161616163 316.5252525252526,497.69696969696975 316.5252525252526,507.23232323232327 316.5252525252526,516.7676767676768 316.5252525252526,526.3030303030304 316.5252525252526,535.838383838384 316.5252525252526,545.3737373737374 316.5252525252526,554.909090909091 316.5252525252526,564.4444444444445 316.5252525252526,573.979797979798 316.5252525252526,583.5151515151516 316.5252525252526,593.0505050505051 316.5252525252526,602.5858585858587 316.5252525252526,612.1212121212121 316.5252525252526,621.6565656565657 316.5252525252526,631.1919191919193 316.5252525252526,640.7272727272727 316.5252525252526,650.2626262626263 316.5252525252526,659.7979797979798 316.5252525252526,669.3333333333334 316.5252525252526,678.8686868686868 316.5252525252526,688.4040404040404 316.5252525252526,697.939393939394 316.5252525252526,707.4747474747475 316.5252525252526,717.010101010101 316.5252525252526,726.5454545454545 316.5252525252526,736.0808080808081 316.5252525252526,745.6161616161615 316.5252525252526,755.1515151515151 316.5252525252526,764.6868686868687 316.5252525252526,774.2222222222222 316.5252525252526,783.7575757575758 316.5252525252526,793.2929292929292 316.5252525252526,802.8282828282828 316.5252525252526,812.3636363636363 316.5252525252526,821.8989898989898 316.5252525252526,831.4343434343434 316.5252525252526,840.969696969697 316.5252525252526,850.5050505050505 316.5252525252526,860.0404040404039 316.5252525252526,869.5757575757575 316.5252525252526,879.1111111111111 316.5252525252526,888.6464646464647" fill="none" stroke="rgba(0,0,255,0.75)" stroke-width="11.327999999999996"/></g><g><polyline data-points="-2.07070707070707,-3.98989898989899 -2.07070707070707,-4.090909090909091 -2.07070707070707,-4.191919191919193 -2.07070707070707,-4.292929292929293 -2.07070707070707,-4.393939393939394 -2.07070707070707,-4.494949494949496 -2.07070707070707,-4.595959595959596 -2.07070707070707,-4.696969696969697 -2.07070707070707,-4.7979797979797985 -2.07070707070707,-4.898989898989899 -2.07070707070707,-5.000000000000001" data-type="line" data-label="" points="316.5252525252526,888.6464646464647 316.5252525252526,898.1818181818181 316.5252525252526,907.7171717171718 316.5252525252526,917.2525252525252 316.5252525252526,926.7878787878788 316.5252525252526,936.3232323232323 316.5252525252526,945.8585858585858 316.5252525252526,955.3939393939394 316.5252525252526,964.9292929292928 316.5252525252526,974.4646464646464 316.5252525252526,984" fill="none" stroke="rgba(255,0,0,0.75)" stroke-width="11.327999999999996"/></g><g><polyline data-points="-1.2626262626262625,-5.000000000000001 -1.1616161616161613,-5.000000000000001 -1.0606060606060603,-5.000000000000001 -0.9595959595959596,-5.000000000000001 -0.8585858585858579,-5.000000000000001 -0.7575757575757572,-5.000000000000001 -0.6565656565656557,-5.000000000000001 -0.555555555555555,-5.000000000000001 -0.4545454545454544,-4.898989898989899 -0.35353535353535287,-4.7979797979797985 -0.2525252525252522,-4.696969696969697 -0.15151515151515066,-4.595959595959596 -0.05050505050505001,-4.494949494949496 0.050505050505051545,-4.393939393939394 0.1515151515151522,-4.292929292929293 0.2525252525252529,-4.191919191919193 0.3535353535353544,-4.090909090909091 0.4545454545454551,-3.98989898989899" data-type="line" data-label="" points="392.80808080808083,984 402.34343434343435,984 411.8787878787879,984 421.4141414141414,984 430.949494949495,984 440.4848484848485,984 450.0202020202021,984 459.55555555555554,984 469.09090909090907,974.4646464646464 478.62626262626264,964.9292929292928 488.16161616161617,955.3939393939394 497.69696969696975,945.8585858585858 507.2323232323232,936.3232323232323 516.7676767676768,926.7878787878788 526.3030303030303,917.2525252525252 535.8383838383838,907.7171717171718 545.3737373737374,898.1818181818181 554.9090909090909,888.6464646464647" fill="none" stroke="rgba(0,0,255,0.75)" stroke-width="11.327999999999996"/></g><g><polyline data-points="0.4545454545454551,-3.98989898989899 0.5555555555555567,-4.090909090909091 0.6565656565656574,-4.191919191919193 0.7575757575757579,-4.292929292929293 0.7575757575757579,-4.393939393939394 0.7575757575757579,-4.494949494949496 0.7575757575757579,-4.595959595959596 0.7575757575757579,-4.696969696969697 0.7575757575757579,-4.7979797979797985 0.7575757575757579,-4.898989898989899 0.7575757575757579,-5.000000000000001" data-type="line" data-label="" points="554.9090909090909,888.6464646464647 564.4444444444445,898.1818181818181 573.9797979797979,907.7171717171718 583.5151515151515,917.2525252525252 583.5151515151515,926.7878787878788 583.5151515151515,936.3232323232323 583.5151515151515,945.8585858585858 583.5151515151515,955.3939393939394 583.5151515151515,964.9292929292928 583.5151515151515,974.4646464646464 583.5151515151515,984" fill="none" stroke="rgba(255,0,0,0.75)" stroke-width="11.327999999999996"/></g><g><polyline data-points="0.8585858585858596,-5.000000000000001 0.9595959595959602,-4.898989898989899 1.0606060606060617,-4.7979797979797985 1.1616161616161622,-4.696969696969697 1.262626262626263,-4.595959595959596 1.3636363636363644,-4.494949494949496 1.4646464646464652,-4.393939393939394 1.5656565656565666,-4.292929292929293 1.6666666666666674,-4.191919191919193 1.767676767676768,-4.090909090909091 1.8686868686868696,-3.98989898989899 1.9696969696969702,-3.8888888888888884 2.070707070707072,-3.7878787878787876 2.1717171717171726,-3.6868686868686864 2.2727272727272734,-3.5858585858585856 2.373737373737375,-3.484848484848485 2.4747474747474754,-3.383838383838383 2.575757575757577,-3.2828282828282824 2.676767676767678,-3.1818181818181817 2.7777777777777786,-3.0808080808080804 2.87878787878788,-2.9797979797979792 2.9797979797979806,-2.8787878787878785 3.080808080808082,-2.7777777777777777 3.181818181818183,-2.6767676767676765 3.2828282828282833,-2.5757575757575752 3.2828282828282833,-2.474747474747474 3.2828282828282833,-2.3737373737373733 3.2828282828282833,-2.2727272727272725 3.2828282828282833,-2.1717171717171713 3.2828282828282833,-2.07070707070707 3.2828282828282833,-1.9696969696969693 3.2828282828282833,-1.8686868686868683 3.2828282828282833,-1.7676767676767675 3.2828282828282833,-1.6666666666666665 3.2828282828282833,-1.5656565656565653 3.2828282828282833,-1.4646464646464643 3.2828282828282833,-1.363636363636363 3.2828282828282833,-1.2626262626262625 3.2828282828282833,-1.1616161616161613 3.2828282828282833,-1.0606060606060603 3.2828282828282833,-0.9595959595959596 3.2828282828282833,-0.8585858585858579 3.2828282828282833,-0.7575757575757572 3.2828282828282833,-0.6565656565656557 3.2828282828282833,-0.555555555555555 3.2828282828282833,-0.4545454545454544 3.2828282828282833,-0.35353535353535287 3.2828282828282833,-0.2525252525252522 3.2828282828282833,-0.15151515151515066 3.2828282828282833,-0.05050505050505001 3.2828282828282833,0.050505050505051545 3.2828282828282833,0.1515151515151522 3.2828282828282833,0.2525252525252529 3.2828282828282833,0.3535353535353544 3.2828282828282833,0.4545454545454551 3.2828282828282833,0.5555555555555567 3.2828282828282833,0.6565656565656574 3.2828282828282833,0.7575757575757579 3.2828282828282833,0.8585858585858596 3.2828282828282833,0.9595959595959602 3.2828282828282833,1.0606060606060617 3.2828282828282833,1.1616161616161622 3.2828282828282833,1.262626262626263 3.2828282828282833,1.3636363636363644 3.2828282828282833,1.4646464646464652 3.2828282828282833,1.5656565656565666 3.2828282828282833,1.6666666666666674 3.2828282828282833,1.767676767676768 3.2828282828282833,1.8686868686868696 3.2828282828282833,1.9696969696969702 3.2828282828282833,2.070707070707072 3.2828282828282833,2.1717171717171726 3.2828282828282833,2.2727272727272734 3.2828282828282833,2.373737373737375 3.2828282828282833,2.4747474747474754 3.2828282828282833,2.575757575757577 3.2828282828282833,2.676767676767678 3.2828282828282833,2.7777777777777786 3.2828282828282833,2.87878787878788 3.2828282828282833,2.9797979797979806 3.2828282828282833,3.080808080808082 3.2828282828282833,3.181818181818183 3.2828282828282833,3.2828282828282833 3.2828282828282833,3.383838383838384 3.2828282828282833,3.4848484848484866 3.2828282828282833,3.5858585858585874 3.2828282828282833,3.6868686868686877 3.2828282828282833,3.7878787878787885 3.2828282828282833,3.8888888888888893 3.2828282828282833,3.989898989898992" data-type="line" data-label="" points="593.0505050505051,984 602.5858585858585,974.4646464646464 612.1212121212121,964.9292929292928 621.6565656565656,955.3939393939394 631.1919191919192,945.8585858585858 640.7272727272727,936.3232323232323 650.2626262626262,926.7878787878788 659.7979797979798,917.2525252525252 669.3333333333333,907.7171717171718 678.8686868686868,898.1818181818181 688.4040404040404,888.6464646464647 697.9393939393939,879.1111111111111 707.4747474747475,869.5757575757575 717.0101010101009,860.0404040404039 726.5454545454545,850.5050505050505 736.0808080808081,840.969696969697 745.6161616161615,831.4343434343434 755.1515151515151,821.8989898989898 764.6868686868686,812.3636363636363 774.2222222222222,802.8282828282828 783.7575757575758,793.2929292929292 793.2929292929292,783.7575757575758 802.8282828282828,774.2222222222222 812.3636363636363,764.6868686868687 821.8989898989898,755.1515151515151 821.8989898989898,745.6161616161615 821.8989898989898,736.0808080808081 821.8989898989898,726.5454545454545 821.8989898989898,717.010101010101 821.8989898989898,707.4747474747475 821.8989898989898,697.939393939394 821.8989898989898,688.4040404040404 821.8989898989898,678.8686868686868 821.8989898989898,669.3333333333334 821.8989898989898,659.7979797979798 821.8989898989898,650.2626262626263 821.8989898989898,640.7272727272727 821.8989898989898,631.1919191919193 821.8989898989898,621.6565656565657 821.8989898989898,612.1212121212121 821.8989898989898,602.5858585858587 821.8989898989898,593.0505050505051 821.8989898989898,583.5151515151516 821.8989898989898,573.979797979798 821.8989898989898,564.4444444444445 821.8989898989898,554.909090909091 821.8989898989898,545.3737373737374 821.8989898989898,535.838383838384 821.8989898989898,526.3030303030304 821.8989898989898,516.7676767676768 821.8989898989898,507.23232323232327 821.8989898989898,497.69696969696975 821.8989898989898,488.1616161616163 821.8989898989898,478.6262626262627 821.8989898989898,469.0909090909092 821.8989898989898,459.5555555555556 821.8989898989898,450.0202020202021 821.8989898989898,440.4848484848486 821.8989898989898,430.94949494949503 821.8989898989898,421.4141414141415 821.8989898989898,411.87878787878793 821.8989898989898,402.3434343434344 821.8989898989898,392.80808080808094 821.8989898989898,383.27272727272737 821.8989898989898,373.73737373737384 821.8989898989898,364.2020202020203 821.8989898989898,354.66666666666674 821.8989898989898,345.1313131313133 821.8989898989898,335.5959595959597 821.8989898989898,326.06060606060623 821.8989898989898,316.5252525252526 821.8989898989898,306.9898989898991 821.8989898989898,297.4545454545456 821.8989898989898,287.91919191919203 821.8989898989898,278.38383838383857 821.8989898989898,268.84848484848493 821.8989898989898,259.3131313131314 821.8989898989898,249.77777777777794 821.8989898989898,240.24242424242436 821.8989898989898,230.70707070707084 821.8989898989898,221.17171717171726 821.8989898989898,211.63636363636374 821.8989898989898,202.10101010101027 821.8989898989898,192.56565656565675 821.8989898989898,183.03030303030312 821.8989898989898,173.4949494949496 821.8989898989898,163.95959595959613 821.8989898989898,154.4242424242426 821.8989898989898,144.88888888888908 821.8989898989898,135.35353535353545" fill="none" stroke="rgba(255,0,0,0.75)" stroke-width="11.327999999999996"/></g><g><polyline data-points="3.2828282828282833,3.989898989898992 3.2828282828282833,4.090909090909092 3.2828282828282833,4.191919191919193 3.2828282828282833,4.292929292929293 3.2828282828282833,4.393939393939394 3.2828282828282833,4.494949494949497 3.2828282828282833,4.595959595959597 3.2828282828282833,4.696969696969697 3.2828282828282833,4.7979797979797985 3.2828282828282833,4.898989898989901 3.2828282828282833,5.000000000000002" data-type="line" data-label="" points="821.8989898989898,135.35353535353545 821.8989898989898,125.81818181818198 821.8989898989898,116.28282828282846 821.8989898989898,106.747474747475 821.8989898989898,97.21212121212153 821.8989898989898,87.67676767676778 821.8989898989898,78.14141414141432 821.8989898989898,68.60606060606085 821.8989898989898,59.07070707070733 821.8989898989898,49.53535353535369 821.8989898989898,40.000000000000114" fill="none" stroke="rgba(0,0,255,0.75)" stroke-width="11.327999999999996"/></g><g><polyline data-points="-5.000000000000001,-3.8888888888888884 -4.898989898989899,-3.7878787878787876 -4.7979797979797985,-3.6868686868686864 -4.696969696969697,-3.5858585858585856 -4.595959595959596,-3.484848484848485 -4.494949494949496,-3.383838383838383 -4.393939393939394,-3.2828282828282824 -4.292929292929293,-3.1818181818181817 -4.191919191919193,-3.0808080808080804 -4.090909090909091,-2.9797979797979792 -3.98989898989899,-2.8787878787878785 -3.8888888888888884,-2.7777777777777777 -3.7878787878787876,-2.6767676767676765 -3.6868686868686864,-2.5757575757575752 -3.5858585858585856,-2.474747474747474 -3.484848484848485,-2.3737373737373733 -3.383838383838383,-2.2727272727272725 -3.2828282828282824,-2.1717171717171713 -3.1818181818181817,-2.07070707070707 -3.0808080808080804,-1.9696969696969693 -2.9797979797979792,-1.8686868686868683 -2.8787878787878785,-1.7676767676767675 -2.7777777777777777,-1.6666666666666665 -2.6767676767676765,-1.5656565656565653 -2.5757575757575752,-1.4646464646464643 -2.474747474747474,-1.363636363636363 -2.3737373737373733,-1.2626262626262625 -2.2727272727272725,-1.1616161616161613 -2.1717171717171713,-1.0606060606060603 -2.07070707070707,-0.9595959595959596 -1.9696969696969693,-0.8585858585858579 -1.8686868686868683,-0.7575757575757572 -1.7676767676767675,-0.6565656565656557 -1.6666666666666665,-0.555555555555555 -1.5656565656565653,-0.4545454545454544 -1.4646464646464643,-0.35353535353535287 -1.363636363636363,-0.2525252525252522 -1.2626262626262625,-0.15151515151515066 -1.1616161616161613,-0.05050505050505001 -1.0606060606060603,0.050505050505051545 -0.9595959595959596,0.1515151515151522 -0.8585858585858579,0.2525252525252529 -0.7575757575757572,0.3535353535353544 -0.6565656565656557,0.4545454545454551 -0.555555555555555,0.5555555555555567 -0.4545454545454544,0.6565656565656574 -0.35353535353535287,0.7575757575757579 -0.2525252525252522,0.8585858585858596 -0.15151515151515066,0.9595959595959602 -0.05050505050505001,1.0606060606060617 0.050505050505051545,1.1616161616161622 0.1515151515151522,1.262626262626263 0.2525252525252529,1.3636363636363644 0.3535353535353544,1.4646464646464652 0.4545454545454551,1.5656565656565666 0.5555555555555567,1.6666666666666674 0.6565656565656574,1.767676767676768 0.7575757575757579,1.8686868686868696 0.8585858585858596,1.9696969696969702 0.9595959595959602,2.070707070707072 1.0606060606060617,2.1717171717171726 1.1616161616161622,2.2727272727272734 1.262626262626263,2.373737373737375 1.3636363636363644,2.4747474747474754 1.4646464646464652,2.575757575757577 1.5656565656565666,2.676767676767678 1.6666666666666674,2.7777777777777786 1.767676767676768,2.87878787878788 1.8686868686868696,2.9797979797979806 1.9696969696969702,3.080808080808082 2.070707070707072,3.080808080808082 2.1717171717171726,3.080808080808082 2.2727272727272734,3.080808080808082 2.373737373737375,3.080808080808082 2.4747474747474754,3.080808080808082 2.575757575757577,3.080808080808082 2.676767676767678,3.080808080808082 2.7777777777777786,3.080808080808082 2.87878787878788,3.080808080808082" data-type="line" data-label="" points="40.00000000000006,879.1111111111111 49.53535353535369,869.5757575757575 59.07070707070716,860.0404040404039 68.60606060606068,850.5050505050505 78.14141414141426,840.969696969697 87.67676767676772,831.4343434343434 97.21212121212136,821.8989898989898 106.74747474747483,812.3636363636363 116.28282828282829,802.8282828282828 125.81818181818193,793.2929292929292 135.35353535353545,783.7575757575758 144.88888888888903,774.2222222222222 154.42424242424255,764.6868686868687 163.95959595959607,755.1515151515151 173.4949494949496,745.6161616161615 183.03030303030312,736.0808080808081 192.5656565656567,726.5454545454545 202.10101010101022,717.010101010101 211.63636363636374,707.4747474747475 221.17171717171726,697.939393939394 230.70707070707084,688.4040404040404 240.2424242424243,678.8686868686868 249.77777777777783,669.3333333333334 259.3131313131314,659.7979797979798 268.84848484848493,650.2626262626263 278.38383838383845,640.7272727272727 287.91919191919203,631.1919191919193 297.4545454545455,621.6565656565657 306.9898989898991,612.1212121212121 316.5252525252526,602.5858585858587 326.0606060606061,593.0505050505051 335.59595959595964,583.5151515151516 345.13131313131316,573.979797979798 354.6666666666667,564.4444444444445 364.2020202020202,554.909090909091 373.7373737373738,545.3737373737374 383.2727272727273,535.838383838384 392.80808080808083,526.3030303030304 402.34343434343435,516.7676767676768 411.8787878787879,507.23232323232327 421.4141414141414,497.69696969696975 430.949494949495,488.1616161616163 440.4848484848485,478.6262626262627 450.0202020202021,469.0909090909092 459.55555555555554,459.5555555555556 469.09090909090907,450.0202020202021 478.62626262626264,440.4848484848486 488.16161616161617,430.94949494949503 497.69696969696975,421.4141414141415 507.2323232323232,411.87878787878793 516.7676767676768,402.3434343434344 526.3030303030303,392.80808080808094 535.8383838383838,383.27272727272737 545.3737373737374,373.73737373737384 554.9090909090909,364.2020202020203 564.4444444444445,354.66666666666674 573.9797979797979,345.1313131313133 583.5151515151515,335.5959595959597 593.0505050505051,326.06060606060623 602.5858585858585,316.5252525252526 612.1212121212121,306.9898989898991 621.6565656565656,297.4545454545456 631.1919191919192,287.91919191919203 640.7272727272727,278.38383838383857 650.2626262626262,268.84848484848493 659.7979797979798,259.3131313131314 669.3333333333333,249.77777777777794 678.8686868686868,240.24242424242436 688.4040404040404,230.70707070707084 697.9393939393939,221.17171717171726 707.4747474747475,221.17171717171726 717.0101010101009,221.17171717171726 726.5454545454545,221.17171717171726 736.0808080808081,221.17171717171726 745.6161616161615,221.17171717171726 755.1515151515151,221.17171717171726 764.6868686868686,221.17171717171726 774.2222222222222,221.17171717171726 783.7575757575758,221.17171717171726" fill="none" stroke="rgba(255,0,0,0.75)" stroke-width="11.327999999999996"/></g><g><polyline data-points="2.87878787878788,3.080808080808082 2.9797979797979806,3.080808080808082 3.080808080808082,3.080808080808082 3.181818181818183,3.080808080808082 3.2828282828282833,3.080808080808082 3.383838383838384,3.080808080808082 3.4848484848484866,3.080808080808082 3.5858585858585874,3.080808080808082 3.6868686868686877,3.080808080808082 3.7878787878787885,3.080808080808082 3.8888888888888893,3.080808080808082 3.989898989898992,3.080808080808082" data-type="line" data-label="" points="783.7575757575758,221.17171717171726 793.2929292929292,221.17171717171726 802.8282828282828,221.17171717171726 812.3636363636363,221.17171717171726 821.8989898989898,221.17171717171726 831.4343434343433,221.17171717171726 840.969696969697,221.17171717171726 850.5050505050505,221.17171717171726 860.0404040404039,221.17171717171726 869.5757575757575,221.17171717171726 879.111111111111,221.17171717171726 888.6464646464647,221.17171717171726" fill="none" stroke="rgba(0,0,255,0.75)" stroke-width="11.327999999999996"/></g><g><polyline data-points="3.989898989898992,3.080808080808082 4.090909090909092,3.080808080808082 4.191919191919193,3.080808080808082 4.292929292929293,3.080808080808082 4.393939393939394,3.080808080808082 4.494949494949497,3.080808080808082 4.595959595959597,3.080808080808082 4.696969696969697,3.080808080808082 4.7979797979797985,3.080808080808082 4.898989898989901,3.080808080808082 5.000000000000002,3.080808080808082" data-type="line" data-label="" points="888.6464646464647,221.17171717171726 898.181818181818,221.17171717171726 907.7171717171716,221.17171717171726 917.2525252525251,221.17171717171726 926.7878787878785,221.17171717171726 936.3232323232323,221.17171717171726 945.8585858585857,221.17171717171726 955.3939393939393,221.17171717171726 964.9292929292927,221.17171717171726 974.4646464646464,221.17171717171726 984,221.17171717171726" fill="none" stroke="rgba(255,0,0,0.75)" stroke-width="11.327999999999996"/></g><g><polyline data-points="5.000000000000002,2.070707070707072 4.898989898989901,1.9696969696969702 4.7979797979797985,1.8686868686868696 4.696969696969697,1.767676767676768 4.595959595959597,1.6666666666666674 4.494949494949497,1.5656565656565666 4.393939393939394,1.4646464646464652 4.292929292929293,1.3636363636363644 4.191919191919193,1.262626262626263 4.090909090909092,1.1616161616161622 3.989898989898992,1.0606060606060617 3.8888888888888893,0.9595959595959602 3.7878787878787885,0.8585858585858596 3.6868686868686877,0.7575757575757579 3.5858585858585874,0.6565656565656574 3.4848484848484866,0.5555555555555567 3.383838383838384,0.4545454545454551 3.2828282828282833,0.3535353535353544 3.181818181818183,0.2525252525252529 3.080808080808082,0.1515151515151522 2.9797979797979806,0.050505050505051545 2.87878787878788,-0.05050505050505001 2.7777777777777786,-0.15151515151515066 2.676767676767678,-0.2525252525252522 2.575757575757577,-0.35353535353535287 2.4747474747474754,-0.4545454545454544 2.373737373737375,-0.555555555555555 2.2727272727272734,-0.6565656565656557 2.1717171717171726,-0.7575757575757572 2.070707070707072,-0.8585858585858579 1.9696969696969702,-0.9595959595959596 1.8686868686868696,-1.0606060606060603 1.767676767676768,-1.1616161616161613 1.6666666666666674,-1.2626262626262625 1.5656565656565666,-1.363636363636363 1.4646464646464652,-1.4646464646464643 1.3636363636363644,-1.5656565656565653 1.262626262626263,-1.6666666666666665 1.1616161616161622,-1.7676767676767675 1.0606060606060617,-1.8686868686868683 0.9595959595959602,-1.9696969696969693 0.8585858585858596,-2.07070707070707 0.7575757575757579,-2.1717171717171713 0.6565656565656574,-2.2727272727272725 0.5555555555555567,-2.3737373737373733 0.4545454545454551,-2.474747474747474 0.3535353535353544,-2.5757575757575752 0.2525252525252529,-2.6767676767676765 0.1515151515151522,-2.7777777777777777 0.050505050505051545,-2.8787878787878785 -0.05050505050505001,-2.9797979797979792 -0.15151515151515066,-3.0808080808080804 -0.2525252525252522,-3.1818181818181817 -0.35353535353535287,-3.2828282828282824 -0.4545454545454544,-3.383838383838383 -0.555555555555555,-3.484848484848485 -0.6565656565656557,-3.5858585858585856 -0.7575757575757572,-3.6868686868686864 -0.8585858585858579,-3.7878787878787876 -0.9595959595959596,-3.8888888888888884 -1.0606060606060603,-3.98989898989899 -1.1616161616161613,-4.090909090909091 -1.2626262626262625,-4.191919191919193 -1.363636363636363,-4.292929292929293 -1.4646464646464643,-4.393939393939394 -1.5656565656565653,-4.494949494949496 -1.6666666666666665,-4.595959595959596 -1.7676767676767675,-4.696969696969697 -1.8686868686868683,-4.696969696969697 -1.9696969696969693,-4.696969696969697 -2.07070707070707,-4.696969696969697 -2.1717171717171713,-4.696969696969697 -2.2727272727272725,-4.696969696969697 -2.3737373737373733,-4.696969696969697 -2.474747474747474,-4.696969696969697 -2.5757575757575752,-4.696969696969697 -2.6767676767676765,-4.696969696969697 -2.7777777777777777,-4.696969696969697 -2.8787878787878785,-4.696969696969697 -2.9797979797979792,-4.696969696969697 -3.0808080808080804,-4.696969696969697 -3.1818181818181817,-4.696969696969697 -3.2828282828282824,-4.696969696969697 -3.383838383838383,-4.696969696969697 -3.484848484848485,-4.696969696969697 -3.5858585858585856,-4.696969696969697 -3.6868686868686864,-4.696969696969697 -3.7878787878787876,-4.696969696969697 -3.8888888888888884,-4.696969696969697 -3.98989898989899,-4.696969696969697 -4.090909090909091,-4.696969696969697 -4.191919191919193,-4.696969696969697 -4.292929292929293,-4.696969696969697 -4.393939393939394,-4.696969696969697 -4.494949494949496,-4.696969696969697 -4.595959595959596,-4.696969696969697 -4.696969696969697,-4.696969696969697 -4.7979797979797985,-4.696969696969697 -4.898989898989899,-4.696969696969697 -5.000000000000001,-4.696969696969697" data-type="line" data-label="" points="984,316.5252525252526 974.4646464646464,326.06060606060623 964.9292929292927,335.5959595959597 955.3939393939393,345.1313131313133 945.8585858585857,354.66666666666674 936.3232323232323,364.2020202020203 926.7878787878785,373.73737373737384 917.2525252525251,383.27272727272737 907.7171717171716,392.80808080808094 898.181818181818,402.3434343434344 888.6464646464647,411.87878787878793 879.111111111111,421.4141414141415 869.5757575757575,430.94949494949503 860.0404040404039,440.4848484848486 850.5050505050505,450.0202020202021 840.969696969697,459.5555555555556 831.4343434343433,469.0909090909092 821.8989898989898,478.6262626262627 812.3636363636363,488.1616161616163 802.8282828282828,497.69696969696975 793.2929292929292,507.23232323232327 783.7575757575758,516.7676767676768 774.2222222222222,526.3030303030304 764.6868686868686,535.838383838384 755.1515151515151,545.3737373737374 745.6161616161615,554.909090909091 736.0808080808081,564.4444444444445 726.5454545454545,573.979797979798 717.0101010101009,583.5151515151516 707.4747474747475,593.0505050505051 697.9393939393939,602.5858585858587 688.4040404040404,612.1212121212121 678.8686868686868,621.6565656565657 669.3333333333333,631.1919191919193 659.7979797979798,640.7272727272727 650.2626262626262,650.2626262626263 640.7272727272727,659.7979797979798 631.1919191919192,669.3333333333334 621.6565656565656,678.8686868686868 612.1212121212121,688.4040404040404 602.5858585858585,697.939393939394 593.0505050505051,707.4747474747475 583.5151515151515,717.010101010101 573.9797979797979,726.5454545454545 564.4444444444445,736.0808080808081 554.9090909090909,745.6161616161615 545.3737373737374,755.1515151515151 535.8383838383838,764.6868686868687 526.3030303030303,774.2222222222222 516.7676767676768,783.7575757575758 507.2323232323232,793.2929292929292 497.69696969696975,802.8282828282828 488.16161616161617,812.3636363636363 478.62626262626264,821.8989898989898 469.09090909090907,831.4343434343434 459.55555555555554,840.969696969697 450.0202020202021,850.5050505050505 440.4848484848485,860.0404040404039 430.949494949495,869.5757575757575 421.4141414141414,879.1111111111111 411.8787878787879,888.6464646464647 402.34343434343435,898.1818181818181 392.80808080808083,907.7171717171718 383.2727272727273,917.2525252525252 373.7373737373738,926.7878787878788 364.2020202020202,936.3232323232323 354.6666666666667,945.8585858585858 345.13131313131316,955.3939393939394 335.59595959595964,955.3939393939394 326.0606060606061,955.3939393939394 316.5252525252526,955.3939393939394 306.9898989898991,955.3939393939394 297.4545454545455,955.3939393939394 287.91919191919203,955.3939393939394 278.38383838383845,955.3939393939394 268.84848484848493,955.3939393939394 259.3131313131314,955.3939393939394 249.77777777777783,955.3939393939394 240.2424242424243,955.3939393939394 230.70707070707084,955.3939393939394 221.17171717171726,955.3939393939394 211.63636363636374,955.3939393939394 202.10101010101022,955.3939393939394 192.5656565656567,955.3939393939394 183.03030303030312,955.3939393939394 173.4949494949496,955.3939393939394 163.95959595959607,955.3939393939394 154.42424242424255,955.3939393939394 144.88888888888903,955.3939393939394 135.35353535353545,955.3939393939394 125.81818181818193,955.3939393939394 116.28282828282829,955.3939393939394 106.74747474747483,955.3939393939394 97.21212121212136,955.3939393939394 87.67676767676772,955.3939393939394 78.14141414141426,955.3939393939394 68.60606060606068,955.3939393939394 59.07070707070716,955.3939393939394 49.53535353535369,955.3939393939394 40.00000000000006,955.3939393939394" fill="none" stroke="rgba(0,0,255,0.75)" stroke-width="11.327999999999996"/></g><g><polyline data-points="-2.3737373737373733,5.000000000000002 -2.2727272727272725,4.898989898989901 -2.1717171717171713,4.7979797979797985 -2.07070707070707,4.696969696969697 -1.9696969696969693,4.595959595959597 -1.8686868686868683,4.494949494949497 -1.7676767676767675,4.393939393939394 -1.6666666666666665,4.292929292929293 -1.5656565656565653,4.191919191919193 -1.4646464646464643,4.090909090909092 -1.363636363636363,3.989898989898992 -1.2626262626262625,3.8888888888888893 -1.1616161616161613,3.7878787878787885 -1.0606060606060603,3.7878787878787885 -0.9595959595959596,3.7878787878787885 -0.8585858585858579,3.7878787878787885 -0.7575757575757572,3.7878787878787885 -0.6565656565656557,3.7878787878787885 -0.555555555555555,3.7878787878787885 -0.4545454545454544,3.7878787878787885 -0.35353535353535287,3.7878787878787885 -0.2525252525252522,3.7878787878787885 -0.15151515151515066,3.7878787878787885 -0.05050505050505001,3.7878787878787885 0.050505050505051545,3.7878787878787885 0.1515151515151522,3.7878787878787885 0.2525252525252529,3.7878787878787885 0.3535353535353544,3.7878787878787885 0.4545454545454551,3.7878787878787885 0.5555555555555567,3.7878787878787885 0.6565656565656574,3.7878787878787885 0.7575757575757579,3.7878787878787885 0.8585858585858596,3.7878787878787885 0.9595959595959602,3.7878787878787885 1.0606060606060617,3.7878787878787885 1.1616161616161622,3.7878787878787885 1.262626262626263,3.7878787878787885 1.3636363636363644,3.7878787878787885 1.4646464646464652,3.7878787878787885 1.5656565656565666,3.7878787878787885 1.6666666666666674,3.7878787878787885 1.767676767676768,3.6868686868686877 1.8686868686868696,3.5858585858585874 1.9696969696969702,3.4848484848484866" data-type="line" data-label="" points="287.91919191919203,40.000000000000114 297.4545454545455,49.53535353535369 306.9898989898991,59.07070707070733 316.5252525252526,68.60606060606085 326.0606060606061,78.14141414141432 335.59595959595964,87.67676767676778 345.13131313131316,97.21212121212153 354.6666666666667,106.747474747475 364.2020202020202,116.28282828282846 373.7373737373738,125.81818181818198 383.2727272727273,135.35353535353545 392.80808080808083,144.88888888888908 402.34343434343435,154.4242424242426 411.8787878787879,154.4242424242426 421.4141414141414,154.4242424242426 430.949494949495,154.4242424242426 440.4848484848485,154.4242424242426 450.0202020202021,154.4242424242426 459.55555555555554,154.4242424242426 469.09090909090907,154.4242424242426 478.62626262626264,154.4242424242426 488.16161616161617,154.4242424242426 497.69696969696975,154.4242424242426 507.2323232323232,154.4242424242426 516.7676767676768,154.4242424242426 526.3030303030303,154.4242424242426 535.8383838383838,154.4242424242426 545.3737373737374,154.4242424242426 554.9090909090909,154.4242424242426 564.4444444444445,154.4242424242426 573.9797979797979,154.4242424242426 583.5151515151515,154.4242424242426 593.0505050505051,154.4242424242426 602.5858585858585,154.4242424242426 612.1212121212121,154.4242424242426 621.6565656565656,154.4242424242426 631.1919191919192,154.4242424242426 640.7272727272727,154.4242424242426 650.2626262626262,154.4242424242426 659.7979797979798,154.4242424242426 669.3333333333333,154.4242424242426 678.8686868686868,163.95959595959613 688.4040404040404,173.4949494949496 697.9393939393939,183.03030303030312" fill="none" stroke="rgba(255,0,0,0.75)" stroke-width="11.327999999999996"/></g><g><polyline data-points="1.9696969696969702,3.4848484848484866 2.070707070707072,3.383838383838384 2.1717171717171726,3.2828282828282833 2.2727272727272734,3.181818181818183 2.373737373737375,3.080808080808082 2.4747474747474754,2.9797979797979806 2.575757575757577,2.87878787878788 2.676767676767678,2.7777777777777786 2.7777777777777786,2.676767676767678 2.87878787878788,2.575757575757577 2.9797979797979806,2.4747474747474754 3.080808080808082,2.373737373737375 3.181818181818183,2.2727272727272734 3.2828282828282833,2.1717171717171726 3.383838383838384,2.070707070707072 3.4848484848484866,1.9696969696969702 3.5858585858585874,1.8686868686868696 3.6868686868686877,1.767676767676768 3.7878787878787885,1.6666666666666674 3.8888888888888893,1.5656565656565666" data-type="line" data-label="" points="697.9393939393939,183.03030303030312 707.4747474747475,192.56565656565675 717.0101010101009,202.10101010101027 726.5454545454545,211.63636363636374 736.0808080808081,221.17171717171726 745.6161616161615,230.70707070707084 755.1515151515151,240.24242424242436 764.6868686868686,249.77777777777794 774.2222222222222,259.3131313131314 783.7575757575758,268.84848484848493 793.2929292929292,278.38383838383857 802.8282828282828,287.91919191919203 812.3636363636363,297.4545454545456 821.8989898989898,306.9898989898991 831.4343434343433,316.5252525252526 840.969696969697,326.06060606060623 850.5050505050505,335.5959595959597 860.0404040404039,345.1313131313133 869.5757575757575,354.66666666666674 879.111111111111,364.2020202020203" fill="none" stroke="rgba(0,0,255,0.75)" stroke-width="11.327999999999996"/></g><g><polyline data-points="3.8888888888888893,1.5656565656565666 3.989898989898992,1.4646464646464652 4.090909090909092,1.3636363636363644 4.191919191919193,1.262626262626263 4.292929292929293,1.1616161616161622 4.393939393939394,1.0606060606060617 4.494949494949497,0.9595959595959602 4.595959595959597,0.8585858585858596 4.696969696969697,0.7575757575757579 4.7979797979797985,0.6565656565656574 4.898989898989901,0.5555555555555567 5.000000000000002,0.4545454545454551 5.000000000000002,0.3535353535353544 5.000000000000002,0.2525252525252529 5.000000000000002,0.1515151515151522" data-type="line" data-label="" points="879.111111111111,364.2020202020203 888.6464646464647,373.73737373737384 898.181818181818,383.27272727272737 907.7171717171716,392.80808080808094 917.2525252525251,402.3434343434344 926.7878787878785,411.87878787878793 936.3232323232323,421.4141414141415 945.8585858585857,430.94949494949503 955.3939393939393,440.4848484848486 964.9292929292927,450.0202020202021 974.4646464646464,459.5555555555556 984,469.0909090909092 984,478.6262626262627 984,488.1616161616163 984,497.69696969696975" fill="none" stroke="rgba(255,0,0,0.75)" stroke-width="11.327999999999996"/></g><g><polyline data-points="-2.6767676767676765,-5.000000000000001 -2.7777777777777777,-4.898989898989899 -2.8787878787878785,-4.7979797979797985 -2.9797979797979792,-4.696969696969697 -2.9797979797979792,-4.595959595959596 -2.9797979797979792,-4.494949494949496 -2.9797979797979792,-4.393939393939394 -2.9797979797979792,-4.292929292929293 -2.9797979797979792,-4.191919191919193 -2.9797979797979792,-4.090909090909091 -2.9797979797979792,-3.98989898989899 -2.9797979797979792,-3.8888888888888884 -2.9797979797979792,-3.7878787878787876 -2.9797979797979792,-3.6868686868686864 -2.9797979797979792,-3.5858585858585856 -2.9797979797979792,-3.484848484848485 -2.9797979797979792,-3.383838383838383 -2.9797979797979792,-3.2828282828282824 -2.9797979797979792,-3.1818181818181817 -2.9797979797979792,-3.0808080808080804 -2.9797979797979792,-2.9797979797979792 -2.9797979797979792,-2.8787878787878785 -2.9797979797979792,-2.7777777777777777 -2.9797979797979792,-2.6767676767676765 -2.9797979797979792,-2.5757575757575752 -2.9797979797979792,-2.474747474747474 -2.9797979797979792,-2.3737373737373733" data-type="line" data-label="" points="259.3131313131314,984 249.77777777777783,974.4646464646464 240.2424242424243,964.9292929292928 230.70707070707084,955.3939393939394 230.70707070707084,945.8585858585858 230.70707070707084,936.3232323232323 230.70707070707084,926.7878787878788 230.70707070707084,917.2525252525252 230.70707070707084,907.7171717171718 230.70707070707084,898.1818181818181 230.70707070707084,888.6464646464647 230.70707070707084,879.1111111111111 230.70707070707084,869.5757575757575 230.70707070707084,860.0404040404039 230.70707070707084,850.5050505050505 230.70707070707084,840.969696969697 230.70707070707084,831.4343434343434 230.70707070707084,821.8989898989898 230.70707070707084,812.3636363636363 230.70707070707084,802.8282828282828 230.70707070707084,793.2929292929292 230.70707070707084,783.7575757575758 230.70707070707084,774.2222222222222 230.70707070707084,764.6868686868687 230.70707070707084,755.1515151515151 230.70707070707084,745.6161616161615 230.70707070707084,736.0808080808081" fill="none" stroke="rgba(255,0,0,0.75)" stroke-width="11.327999999999996"/></g><g><polyline data-points="-2.9797979797979792,-2.3737373737373733 -2.9797979797979792,-2.2727272727272725 -2.9797979797979792,-2.1717171717171713 -2.9797979797979792,-2.07070707070707 -2.9797979797979792,-1.9696969696969693 -2.9797979797979792,-1.8686868686868683 -2.9797979797979792,-1.7676767676767675 -2.9797979797979792,-1.6666666666666665 -2.9797979797979792,-1.5656565656565653 -2.9797979797979792,-1.4646464646464643 -2.9797979797979792,-1.363636363636363 -2.9797979797979792,-1.2626262626262625 -2.9797979797979792,-1.1616161616161613 -2.9797979797979792,-1.0606060606060603 -2.9797979797979792,-0.9595959595959596 -2.9797979797979792,-0.8585858585858579 -2.9797979797979792,-0.7575757575757572 -2.9797979797979792,-0.6565656565656557 -2.9797979797979792,-0.555555555555555 -2.9797979797979792,-0.4545454545454544 -2.9797979797979792,-0.35353535353535287 -2.9797979797979792,-0.2525252525252522 -2.9797979797979792,-0.15151515151515066 -2.9797979797979792,-0.05050505050505001 -2.9797979797979792,0.050505050505051545 -2.9797979797979792,0.1515151515151522 -2.9797979797979792,0.2525252525252529 -2.9797979797979792,0.3535353535353544 -2.9797979797979792,0.4545454545454551 -2.9797979797979792,0.5555555555555567 -2.9797979797979792,0.6565656565656574 -2.9797979797979792,0.7575757575757579 -2.9797979797979792,0.8585858585858596 -2.9797979797979792,0.9595959595959602 -2.9797979797979792,1.0606060606060617 -2.9797979797979792,1.1616161616161622 -2.9797979797979792,1.262626262626263 -2.9797979797979792,1.3636363636363644 -2.9797979797979792,1.4646464646464652 -2.9797979797979792,1.5656565656565666 -2.9797979797979792,1.6666666666666674 -2.9797979797979792,1.767676767676768 -2.9797979797979792,1.8686868686868696 -2.9797979797979792,1.9696969696969702 -2.9797979797979792,2.070707070707072 -2.9797979797979792,2.1717171717171726 -2.9797979797979792,2.2727272727272734 -2.9797979797979792,2.373737373737375 -2.9797979797979792,2.4747474747474754 -2.9797979797979792,2.575757575757577 -2.9797979797979792,2.676767676767678" data-type="line" data-label="" points="230.70707070707084,736.0808080808081 230.70707070707084,726.5454545454545 230.70707070707084,717.010101010101 230.70707070707084,707.4747474747475 230.70707070707084,697.939393939394 230.70707070707084,688.4040404040404 230.70707070707084,678.8686868686868 230.70707070707084,669.3333333333334 230.70707070707084,659.7979797979798 230.70707070707084,650.2626262626263 230.70707070707084,640.7272727272727 230.70707070707084,631.1919191919193 230.70707070707084,621.6565656565657 230.70707070707084,612.1212121212121 230.70707070707084,602.5858585858587 230.70707070707084,593.0505050505051 230.70707070707084,583.5151515151516 230.70707070707084,573.979797979798 230.70707070707084,564.4444444444445 230.70707070707084,554.909090909091 230.70707070707084,545.3737373737374 230.70707070707084,535.838383838384 230.70707070707084,526.3030303030304 230.70707070707084,516.7676767676768 230.70707070707084,507.23232323232327 230.70707070707084,497.69696969696975 230.70707070707084,488.1616161616163 230.70707070707084,478.6262626262627 230.70707070707084,469.0909090909092 230.70707070707084,459.5555555555556 230.70707070707084,450.0202020202021 230.70707070707084,440.4848484848486 230.70707070707084,430.94949494949503 230.70707070707084,421.4141414141415 230.70707070707084,411.87878787878793 230.70707070707084,402.3434343434344 230.70707070707084,392.80808080808094 230.70707070707084,383.27272727272737 230.70707070707084,373.73737373737384 230.70707070707084,364.2020202020203 230.70707070707084,354.66666666666674 230.70707070707084,345.1313131313133 230.70707070707084,335.5959595959597 230.70707070707084,326.06060606060623 230.70707070707084,316.5252525252526 230.70707070707084,306.9898989898991 230.70707070707084,297.4545454545456 230.70707070707084,287.91919191919203 230.70707070707084,278.38383838383857 230.70707070707084,268.84848484848493 230.70707070707084,259.3131313131314" fill="none" stroke="rgba(0,0,255,0.75)" stroke-width="11.327999999999996"/></g><g><polyline data-points="-2.9797979797979792,2.676767676767678 -2.9797979797979792,2.7777777777777786 -2.9797979797979792,2.87878787878788 -2.9797979797979792,2.9797979797979806 -2.9797979797979792,3.080808080808082 -2.9797979797979792,3.181818181818183 -2.9797979797979792,3.2828282828282833 -2.9797979797979792,3.383838383838384 -2.9797979797979792,3.4848484848484866 -2.9797979797979792,3.5858585858585874 -2.9797979797979792,3.6868686868686877 -2.9797979797979792,3.7878787878787885 -2.9797979797979792,3.8888888888888893 -2.9797979797979792,3.989898989898992" data-type="line" data-label="" points="230.70707070707084,259.3131313131314 230.70707070707084,249.77777777777794 230.70707070707084,240.24242424242436 230.70707070707084,230.70707070707084 230.70707070707084,221.17171717171726 230.70707070707084,211.63636363636374 230.70707070707084,202.10101010101027 230.70707070707084,192.56565656565675 230.70707070707084,183.03030303030312 230.70707070707084,173.4949494949496 230.70707070707084,163.95959595959613 230.70707070707084,154.4242424242426 230.70707070707084,144.88888888888908 230.70707070707084,135.35353535353545" fill="none" stroke="rgba(255,0,0,0.75)" stroke-width="11.327999999999996"/></g><g><polyline data-points="-2.9797979797979792,3.989898989898992 -2.9797979797979792,4.090909090909092 -2.9797979797979792,4.191919191919193 -2.9797979797979792,4.292929292929293 -2.9797979797979792,4.393939393939394 -2.9797979797979792,4.494949494949497 -2.9797979797979792,4.595959595959597 -2.9797979797979792,4.696969696969697 -2.9797979797979792,4.7979797979797985 -2.9797979797979792,4.898989898989901 -2.9797979797979792,5.000000000000002" data-type="line" data-label="" points="230.70707070707084,135.35353535353545 230.70707070707084,125.81818181818198 230.70707070707084,116.28282828282846 230.70707070707084,106.747474747475 230.70707070707084,97.21212121212153 230.70707070707084,87.67676767676778 230.70707070707084,78.14141414141432 230.70707070707084,68.60606060606085 230.70707070707084,59.07070707070733 230.70707070707084,49.53535353535369 230.70707070707084,40.000000000000114" fill="none" stroke="rgba(0,0,255,0.75)" stroke-width="11.327999999999996"/></g><g><polyline data-points="4.595959595959597,-5.000000000000001 4.494949494949497,-4.898989898989899 4.393939393939394,-4.7979797979797985 4.292929292929293,-4.696969696969697 4.191919191919193,-4.595959595959596 4.090909090909092,-4.494949494949496 3.989898989898992,-4.393939393939394 3.8888888888888893,-4.292929292929293 3.7878787878787885,-4.191919191919193 3.6868686868686877,-4.090909090909091 3.5858585858585874,-3.98989898989899 3.5858585858585874,-3.8888888888888884 3.5858585858585874,-3.7878787878787876 3.5858585858585874,-3.6868686868686864 3.5858585858585874,-3.5858585858585856 3.5858585858585874,-3.484848484848485 3.5858585858585874,-3.383838383838383 3.5858585858585874,-3.2828282828282824 3.5858585858585874,-3.1818181818181817 3.5858585858585874,-3.0808080808080804 3.5858585858585874,-2.9797979797979792 3.5858585858585874,-2.8787878787878785 3.5858585858585874,-2.7777777777777777" data-type="line" data-label="" points="945.8585858585857,984 936.3232323232323,974.4646464646464 926.7878787878785,964.9292929292928 917.2525252525251,955.3939393939394 907.7171717171716,945.8585858585858 898.181818181818,936.3232323232323 888.6464646464647,926.7878787878788 879.111111111111,917.2525252525252 869.5757575757575,907.7171717171718 860.0404040404039,898.1818181818181 850.5050505050505,888.6464646464647 850.5050505050505,879.1111111111111 850.5050505050505,869.5757575757575 850.5050505050505,860.0404040404039 850.5050505050505,850.5050505050505 850.5050505050505,840.969696969697 850.5050505050505,831.4343434343434 850.5050505050505,821.8989898989898 850.5050505050505,812.3636363636363 850.5050505050505,802.8282828282828 850.5050505050505,793.2929292929292 850.5050505050505,783.7575757575758 850.5050505050505,774.2222222222222" fill="none" stroke="rgba(0,0,255,0.75)" stroke-width="11.327999999999996"/></g><g><polyline data-points="3.5858585858585874,-2.7777777777777777 3.5858585858585874,-2.6767676767676765 3.5858585858585874,-2.5757575757575752 3.5858585858585874,-2.474747474747474 3.5858585858585874,-2.3737373737373733 3.5858585858585874,-2.2727272727272725 3.5858585858585874,-2.1717171717171713 3.5858585858585874,-2.07070707070707 3.5858585858585874,-1.9696969696969693 3.5858585858585874,-1.8686868686868683 3.5858585858585874,-1.7676767676767675 3.5858585858585874,-1.6666666666666665 3.5858585858585874,-1.5656565656565653 3.5858585858585874,-1.4646464646464643 3.5858585858585874,-1.363636363636363 3.5858585858585874,-1.2626262626262625 3.5858585858585874,-1.1616161616161613 3.5858585858585874,-1.0606060606060603 3.5858585858585874,-0.9595959595959596 3.5858585858585874,-0.8585858585858579 3.5858585858585874,-0.7575757575757572 3.5858585858585874,-0.6565656565656557 3.5858585858585874,-0.555555555555555 3.5858585858585874,-0.4545454545454544 3.5858585858585874,-0.35353535353535287 3.5858585858585874,-0.2525252525252522 3.5858585858585874,-0.15151515151515066 3.5858585858585874,-0.05050505050505001 3.5858585858585874,0.050505050505051545 3.5858585858585874,0.1515151515151522 3.5858585858585874,0.2525252525252529 3.5858585858585874,0.3535353535353544 3.5858585858585874,0.4545454545454551 3.5858585858585874,0.5555555555555567 3.5858585858585874,0.6565656565656574 3.5858585858585874,0.7575757575757579 3.5858585858585874,0.8585858585858596 3.5858585858585874,0.9595959595959602 3.5858585858585874,1.0606060606060617 3.5858585858585874,1.1616161616161622 3.5858585858585874,1.262626262626263 3.5858585858585874,1.3636363636363644 3.5858585858585874,1.4646464646464652 3.5858585858585874,1.5656565656565666 3.5858585858585874,1.6666666666666674 3.5858585858585874,1.767676767676768 3.5858585858585874,1.8686868686868696 3.5858585858585874,1.9696969696969702 3.5858585858585874,2.070707070707072 3.5858585858585874,2.1717171717171726 3.5858585858585874,2.2727272727272734 3.5858585858585874,2.373737373737375 3.5858585858585874,2.4747474747474754 3.5858585858585874,2.575757575757577 3.5858585858585874,2.676767676767678 3.5858585858585874,2.7777777777777786 3.5858585858585874,2.87878787878788 3.5858585858585874,2.9797979797979806 3.5858585858585874,3.080808080808082 3.5858585858585874,3.181818181818183 3.5858585858585874,3.2828282828282833 3.5858585858585874,3.383838383838384 3.5858585858585874,3.4848484848484866 3.5858585858585874,3.5858585858585874 3.5858585858585874,3.6868686868686877 3.5858585858585874,3.7878787878787885 3.5858585858585874,3.8888888888888893 3.6868686868686877,3.989898989898992 3.5858585858585874,4.090909090909092 3.4848484848484866,4.191919191919193 3.383838383838384,4.292929292929293 3.2828282828282833,4.292929292929293 3.181818181818183,4.292929292929293 3.080808080808082,4.292929292929293 2.9797979797979806,4.292929292929293 2.87878787878788,4.191919191919193 2.7777777777777786,4.090909090909092 2.676767676767678,3.989898989898992" data-type="line" data-label="" points="850.5050505050505,774.2222222222222 850.5050505050505,764.6868686868687 850.5050505050505,755.1515151515151 850.5050505050505,745.6161616161615 850.5050505050505,736.0808080808081 850.5050505050505,726.5454545454545 850.5050505050505,717.010101010101 850.5050505050505,707.4747474747475 850.5050505050505,697.939393939394 850.5050505050505,688.4040404040404 850.5050505050505,678.8686868686868 850.5050505050505,669.3333333333334 850.5050505050505,659.7979797979798 850.5050505050505,650.2626262626263 850.5050505050505,640.7272727272727 850.5050505050505,631.1919191919193 850.5050505050505,621.6565656565657 850.5050505050505,612.1212121212121 850.5050505050505,602.5858585858587 850.5050505050505,593.0505050505051 850.5050505050505,583.5151515151516 850.5050505050505,573.979797979798 850.5050505050505,564.4444444444445 850.5050505050505,554.909090909091 850.5050505050505,545.3737373737374 850.5050505050505,535.838383838384 850.5050505050505,526.3030303030304 850.5050505050505,516.7676767676768 850.5050505050505,507.23232323232327 850.5050505050505,497.69696969696975 850.5050505050505,488.1616161616163 850.5050505050505,478.6262626262627 850.5050505050505,469.0909090909092 850.5050505050505,459.5555555555556 850.5050505050505,450.0202020202021 850.5050505050505,440.4848484848486 850.5050505050505,430.94949494949503 850.5050505050505,421.4141414141415 850.5050505050505,411.87878787878793 850.5050505050505,402.3434343434344 850.5050505050505,392.80808080808094 850.5050505050505,383.27272727272737 850.5050505050505,373.73737373737384 850.5050505050505,364.2020202020203 850.5050505050505,354.66666666666674 850.5050505050505,345.1313131313133 850.5050505050505,335.5959595959597 850.5050505050505,326.06060606060623 850.5050505050505,316.5252525252526 850.5050505050505,306.9898989898991 850.5050505050505,297.4545454545456 850.5050505050505,287.91919191919203 850.5050505050505,278.38383838383857 850.5050505050505,268.84848484848493 850.5050505050505,259.3131313131314 850.5050505050505,249.77777777777794 850.5050505050505,240.24242424242436 850.5050505050505,230.70707070707084 850.5050505050505,221.17171717171726 850.5050505050505,211.63636363636374 850.5050505050505,202.10101010101027 850.5050505050505,192.56565656565675 850.5050505050505,183.03030303030312 850.5050505050505,173.4949494949496 850.5050505050505,163.95959595959613 850.5050505050505,154.4242424242426 850.5050505050505,144.88888888888908 860.0404040404039,135.35353535353545 850.5050505050505,125.81818181818198 840.969696969697,116.28282828282846 831.4343434343433,106.747474747475 821.8989898989898,106.747474747475 812.3636363636363,106.747474747475 802.8282828282828,106.747474747475 793.2929292929292,106.747474747475 783.7575757575758,116.28282828282846 774.2222222222222,125.81818181818198 764.6868686868686,135.35353535353545" fill="none" stroke="rgba(255,0,0,0.75)" stroke-width="11.327999999999996"/></g><g><polyline data-points="2.676767676767678,3.989898989898992 2.575757575757577,4.090909090909092 2.575757575757577,4.191919191919193 2.575757575757577,4.292929292929293 2.575757575757577,4.393939393939394 2.575757575757577,4.494949494949497 2.575757575757577,4.595959595959597 2.575757575757577,4.696969696969697 2.575757575757577,4.7979797979797985 2.575757575757577,4.898989898989901 2.4747474747474754,5.000000000000002" data-type="line" data-label="" points="764.6868686868686,135.35353535353545 755.1515151515151,125.81818181818198 755.1515151515151,116.28282828282846 755.1515151515151,106.747474747475 755.1515151515151,97.21212121212153 755.1515151515151,87.67676767676778 755.1515151515151,78.14141414141432 755.1515151515151,68.60606060606085 755.1515151515151,59.07070707070733 755.1515151515151,49.53535353535369 745.6161616161615,40.000000000000114" fill="none" stroke="rgba(0,0,255,0.75)" stroke-width="11.327999999999996"/></g><g><polyline data-points="-2.9797979797979792,5.000000000000002 -3.0808080808080804,5.000000000000002 -3.1818181818181817,5.000000000000002 -3.2828282828282824,4.898989898989901 -3.383838383838383,4.7979797979797985 -3.484848484848485,4.696969696969697 -3.5858585858585856,4.595959595959597 -3.6868686868686864,4.494949494949497 -3.7878787878787876,4.393939393939394 -3.8888888888888884,4.292929292929293 -3.98989898989899,4.191919191919193 -4.090909090909091,4.090909090909092 -4.191919191919193,3.989898989898992 -4.292929292929293,3.8888888888888893 -4.292929292929293,3.7878787878787885 -4.292929292929293,3.6868686868686877 -4.292929292929293,3.5858585858585874 -4.191919191919193,3.4848484848484866 -4.090909090909091,3.383838383838384 -3.98989898989899,3.2828282828282833 -3.8888888888888884,3.2828282828282833 -3.7878787878787876,3.181818181818183 -3.6868686868686864,3.080808080808082 -3.5858585858585856,2.9797979797979806 -3.484848484848485,2.87878787878788 -3.383838383838383,2.7777777777777786 -3.2828282828282824,2.676767676767678 -3.1818181818181817,2.575757575757577 -3.0808080808080804,2.4747474747474754 -2.9797979797979792,2.373737373737375 -2.8787878787878785,2.4747474747474754 -2.7777777777777777,2.575757575757577 -2.6767676767676765,2.676767676767678 -2.5757575757575752,2.7777777777777786 -2.474747474747474,2.87878787878788 -2.3737373737373733,2.9797979797979806 -2.2727272727272725,3.080808080808082 -2.1717171717171713,3.181818181818183 -2.07070707070707,3.2828282828282833 -1.9696969696969693,3.383838383838384 -1.8686868686868683,3.4848484848484866 -1.7676767676767675,3.5858585858585874 -1.6666666666666665,3.5858585858585874 -1.5656565656565653,3.5858585858585874 -1.4646464646464643,3.5858585858585874" data-type="line" data-label="" points="230.70707070707084,40.000000000000114 221.17171717171726,40.000000000000114 211.63636363636374,40.000000000000114 202.10101010101022,49.53535353535369 192.5656565656567,59.07070707070733 183.03030303030312,68.60606060606085 173.4949494949496,78.14141414141432 163.95959595959607,87.67676767676778 154.42424242424255,97.21212121212153 144.88888888888903,106.747474747475 135.35353535353545,116.28282828282846 125.81818181818193,125.81818181818198 116.28282828282829,135.35353535353545 106.74747474747483,144.88888888888908 106.74747474747483,154.4242424242426 106.74747474747483,163.95959595959613 106.74747474747483,173.4949494949496 116.28282828282829,183.03030303030312 125.81818181818193,192.56565656565675 135.35353535353545,202.10101010101027 144.88888888888903,202.10101010101027 154.42424242424255,211.63636363636374 163.95959595959607,221.17171717171726 173.4949494949496,230.70707070707084 183.03030303030312,240.24242424242436 192.5656565656567,249.77777777777794 202.10101010101022,259.3131313131314 211.63636363636374,268.84848484848493 221.17171717171726,278.38383838383857 230.70707070707084,287.91919191919203 240.2424242424243,278.38383838383857 249.77777777777783,268.84848484848493 259.3131313131314,259.3131313131314 268.84848484848493,249.77777777777794 278.38383838383845,240.24242424242436 287.91919191919203,230.70707070707084 297.4545454545455,221.17171717171726 306.9898989898991,211.63636363636374 316.5252525252526,202.10101010101027 326.0606060606061,192.56565656565675 335.59595959595964,183.03030303030312 345.13131313131316,173.4949494949496 354.6666666666667,173.4949494949496 364.2020202020202,173.4949494949496 373.7373737373738,173.4949494949496" fill="none" stroke="rgba(255,0,0,0.75)" stroke-width="11.327999999999996"/></g><g><polyline data-points="-1.4646464646464643,3.5858585858585874 -1.363636363636363,3.5858585858585874 -1.2626262626262625,3.5858585858585874 -1.1616161616161613,3.5858585858585874 -1.0606060606060603,3.5858585858585874 -0.9595959595959596,3.5858585858585874 -0.8585858585858579,3.5858585858585874 -0.7575757575757572,3.5858585858585874 -0.6565656565656557,3.5858585858585874 -0.555555555555555,3.5858585858585874 -0.4545454545454544,3.5858585858585874 -0.35353535353535287,3.5858585858585874 -0.2525252525252522,3.5858585858585874 -0.15151515151515066,3.5858585858585874 -0.05050505050505001,3.5858585858585874 0.050505050505051545,3.5858585858585874 0.1515151515151522,3.5858585858585874 0.2525252525252529,3.5858585858585874 0.3535353535353544,3.5858585858585874 0.4545454545454551,3.5858585858585874 0.5555555555555567,3.5858585858585874 0.6565656565656574,3.5858585858585874 0.7575757575757579,3.5858585858585874 0.8585858585858596,3.5858585858585874 0.9595959595959602,3.5858585858585874 1.0606060606060617,3.5858585858585874 1.1616161616161622,3.5858585858585874 1.262626262626263,3.5858585858585874 1.3636363636363644,3.5858585858585874 1.4646464646464652,3.5858585858585874 1.5656565656565666,3.5858585858585874 1.6666666666666674,3.5858585858585874 1.767676767676768,3.6868686868686877 1.8686868686868696,3.7878787878787885 1.9696969696969702,3.7878787878787885 2.070707070707072,3.7878787878787885 2.1717171717171726,3.7878787878787885 2.2727272727272734,3.7878787878787885 2.373737373737375,3.6868686868686877 2.4747474747474754,3.5858585858585874 2.575757575757577,3.4848484848484866 2.676767676767678,3.383838383838384 2.7777777777777786,3.383838383838384 2.87878787878788,3.383838383838384 2.9797979797979806,3.383838383838384 3.080808080808082,3.383838383838384 3.181818181818183,3.383838383838384 3.2828282828282833,3.383838383838384 3.383838383838384,3.383838383838384 3.4848484848484866,3.4848484848484866 3.5858585858585874,3.5858585858585874 3.6868686868686877,3.6868686868686877 3.7878787878787885,3.7878787878787885 3.7878787878787885,3.8888888888888893 3.6868686868686877,3.989898989898992 3.5858585858585874,4.090909090909092 3.5858585858585874,4.191919191919193 3.6868686868686877,4.292929292929293 3.5858585858585874,4.393939393939394 3.5858585858585874,4.494949494949497 3.5858585858585874,4.595959595959597 3.5858585858585874,4.696969696969697 3.5858585858585874,4.7979797979797985 3.5858585858585874,4.898989898989901 3.6868686868686877,5.000000000000002" data-type="line" data-label="" points="373.7373737373738,173.4949494949496 383.2727272727273,173.4949494949496 392.80808080808083,173.4949494949496 402.34343434343435,173.4949494949496 411.8787878787879,173.4949494949496 421.4141414141414,173.4949494949496 430.949494949495,173.4949494949496 440.4848484848485,173.4949494949496 450.0202020202021,173.4949494949496 459.55555555555554,173.4949494949496 469.09090909090907,173.4949494949496 478.62626262626264,173.4949494949496 488.16161616161617,173.4949494949496 497.69696969696975,173.4949494949496 507.2323232323232,173.4949494949496 516.7676767676768,173.4949494949496 526.3030303030303,173.4949494949496 535.8383838383838,173.4949494949496 545.3737373737374,173.4949494949496 554.9090909090909,173.4949494949496 564.4444444444445,173.4949494949496 573.9797979797979,173.4949494949496 583.5151515151515,173.4949494949496 593.0505050505051,173.4949494949496 602.5858585858585,173.4949494949496 612.1212121212121,173.4949494949496 621.6565656565656,173.4949494949496 631.1919191919192,173.4949494949496 640.7272727272727,173.4949494949496 650.2626262626262,173.4949494949496 659.7979797979798,173.4949494949496 669.3333333333333,173.4949494949496 678.8686868686868,163.95959595959613 688.4040404040404,154.4242424242426 697.9393939393939,154.4242424242426 707.4747474747475,154.4242424242426 717.0101010101009,154.4242424242426 726.5454545454545,154.4242424242426 736.0808080808081,163.95959595959613 745.6161616161615,173.4949494949496 755.1515151515151,183.03030303030312 764.6868686868686,192.56565656565675 774.2222222222222,192.56565656565675 783.7575757575758,192.56565656565675 793.2929292929292,192.56565656565675 802.8282828282828,192.56565656565675 812.3636363636363,192.56565656565675 821.8989898989898,192.56565656565675 831.4343434343433,192.56565656565675 840.969696969697,183.03030303030312 850.5050505050505,173.4949494949496 860.0404040404039,163.95959595959613 869.5757575757575,154.4242424242426 869.5757575757575,144.88888888888908 860.0404040404039,135.35353535353545 850.5050505050505,125.81818181818198 850.5050505050505,116.28282828282846 860.0404040404039,106.747474747475 850.5050505050505,97.21212121212153 850.5050505050505,87.67676767676778 850.5050505050505,78.14141414141432 850.5050505050505,68.60606060606085 850.5050505050505,59.07070707070733 850.5050505050505,49.53535353535369 860.0404040404039,40.000000000000114" fill="none" stroke="rgba(0,0,255,0.75)" stroke-width="11.327999999999996"/></g><g><polyline data-points="-5.000000000000001,3.989898989898992 -5.000000000000001,3.8888888888888893 -4.898989898989899,3.7878787878787885 -4.7979797979797985,3.6868686868686877 -4.696969696969697,3.5858585858585874 -4.595959595959596,3.4848484848484866 -4.494949494949496,3.383838383838384 -4.393939393939394,3.2828282828282833 -4.292929292929293,3.181818181818183 -4.191919191919193,3.080808080808082 -4.090909090909091,2.9797979797979806 -3.98989898989899,2.87878787878788" data-type="line" data-label="" points="40.00000000000006,135.35353535353545 40.00000000000006,144.88888888888908 49.53535353535369,154.4242424242426 59.07070707070716,163.95959595959613 68.60606060606068,173.4949494949496 78.14141414141426,183.03030303030312 87.67676767676772,192.56565656565675 97.21212121212136,202.10101010101027 106.74747474747483,211.63636363636374 116.28282828282829,221.17171717171726 125.81818181818193,230.70707070707084 135.35353535353545,240.24242424242436" fill="none" stroke="rgba(0,0,255,0.75)" stroke-width="11.327999999999996"/></g><g><polyline data-points="-3.98989898989899,2.87878787878788 -3.8888888888888884,2.87878787878788 -3.7878787878787876,2.7777777777777786 -3.6868686868686864,2.676767676767678 -3.5858585858585856,2.575757575757577 -3.484848484848485,2.4747474747474754 -3.383838383838383,2.4747474747474754 -3.2828282828282824,2.373737373737375 -3.1818181818181817,2.2727272727272734 -3.0808080808080804,2.1717171717171726 -2.9797979797979792,2.1717171717171726 -2.8787878787878785,2.1717171717171726 -2.7777777777777777,2.1717171717171726 -2.6767676767676765,2.1717171717171726 -2.5757575757575752,2.1717171717171726 -2.474747474747474,2.1717171717171726 -2.3737373737373733,2.1717171717171726 -2.2727272727272725,2.1717171717171726 -2.1717171717171713,2.1717171717171726 -2.07070707070707,2.1717171717171726 -1.9696969696969693,2.1717171717171726 -1.8686868686868683,2.1717171717171726 -1.7676767676767675,2.1717171717171726 -1.6666666666666665,2.1717171717171726 -1.5656565656565653,2.1717171717171726 -1.4646464646464643,2.1717171717171726 -1.363636363636363,2.1717171717171726 -1.2626262626262625,2.1717171717171726 -1.1616161616161613,2.1717171717171726 -1.0606060606060603,2.1717171717171726 -0.9595959595959596,2.1717171717171726 -0.8585858585858579,2.1717171717171726 -0.7575757575757572,2.1717171717171726 -0.6565656565656557,2.1717171717171726 -0.555555555555555,2.1717171717171726 -0.4545454545454544,2.1717171717171726 -0.35353535353535287,2.1717171717171726 -0.2525252525252522,2.1717171717171726 -0.15151515151515066,2.1717171717171726 -0.05050505050505001,2.1717171717171726 0.050505050505051545,2.1717171717171726 0.1515151515151522,2.1717171717171726 0.2525252525252529,2.1717171717171726 0.3535353535353544,2.1717171717171726 0.4545454545454551,2.1717171717171726 0.5555555555555567,2.1717171717171726" data-type="line" data-label="" points="135.35353535353545,240.24242424242436 144.88888888888903,240.24242424242436 154.42424242424255,249.77777777777794 163.95959595959607,259.3131313131314 173.4949494949496,268.84848484848493 183.03030303030312,278.38383838383857 192.5656565656567,278.38383838383857 202.10101010101022,287.91919191919203 211.63636363636374,297.4545454545456 221.17171717171726,306.9898989898991 230.70707070707084,306.9898989898991 240.2424242424243,306.9898989898991 249.77777777777783,306.9898989898991 259.3131313131314,306.9898989898991 268.84848484848493,306.9898989898991 278.38383838383845,306.9898989898991 287.91919191919203,306.9898989898991 297.4545454545455,306.9898989898991 306.9898989898991,306.9898989898991 316.5252525252526,306.9898989898991 326.0606060606061,306.9898989898991 335.59595959595964,306.9898989898991 345.13131313131316,306.9898989898991 354.6666666666667,306.9898989898991 364.2020202020202,306.9898989898991 373.7373737373738,306.9898989898991 383.2727272727273,306.9898989898991 392.80808080808083,306.9898989898991 402.34343434343435,306.9898989898991 411.8787878787879,306.9898989898991 421.4141414141414,306.9898989898991 430.949494949495,306.9898989898991 440.4848484848485,306.9898989898991 450.0202020202021,306.9898989898991 459.55555555555554,306.9898989898991 469.09090909090907,306.9898989898991 478.62626262626264,306.9898989898991 488.16161616161617,306.9898989898991 497.69696969696975,306.9898989898991 507.2323232323232,306.9898989898991 516.7676767676768,306.9898989898991 526.3030303030303,306.9898989898991 535.8383838383838,306.9898989898991 545.3737373737374,306.9898989898991 554.9090909090909,306.9898989898991 564.4444444444445,306.9898989898991" fill="none" stroke="rgba(255,0,0,0.75)" stroke-width="11.327999999999996"/></g><g><polyline data-points="0.5555555555555567,2.1717171717171726 0.6565656565656574,2.1717171717171726 0.7575757575757579,2.1717171717171726 0.8585858585858596,2.1717171717171726 0.9595959595959602,2.1717171717171726 1.0606060606060617,2.1717171717171726 1.1616161616161622,2.1717171717171726 1.262626262626263,2.1717171717171726 1.3636363636363644,2.1717171717171726 1.4646464646464652,2.1717171717171726 1.5656565656565666,2.1717171717171726 1.6666666666666674,2.1717171717171726 1.767676767676768,2.1717171717171726 1.8686868686868696,2.1717171717171726 1.9696969696969702,2.1717171717171726 2.070707070707072,2.1717171717171726 2.1717171717171726,2.1717171717171726 2.2727272727272734,2.1717171717171726 2.373737373737375,2.1717171717171726 2.4747474747474754,2.1717171717171726 2.575757575757577,2.1717171717171726 2.676767676767678,2.1717171717171726 2.7777777777777786,2.1717171717171726 2.87878787878788,2.1717171717171726 2.9797979797979806,2.1717171717171726 3.080808080808082,2.070707070707072 3.181818181818183,1.9696969696969702 3.2828282828282833,1.8686868686868696 3.383838383838384,1.767676767676768 3.4848484848484866,1.6666666666666674 3.5858585858585874,1.5656565656565666 3.6868686868686877,1.4646464646464652 3.7878787878787885,1.3636363636363644 3.8888888888888893,1.262626262626263 3.989898989898992,1.3636363636363644 4.090909090909092,1.4646464646464652 4.191919191919193,1.5656565656565666 4.292929292929293,1.6666666666666674 4.393939393939394,1.767676767676768 4.494949494949497,1.8686868686868696 4.595959595959597,1.9696969696969702 4.696969696969697,2.070707070707072 4.7979797979797985,2.1717171717171726 4.898989898989901,2.2727272727272734 5.000000000000002,2.373737373737375 5.000000000000002,2.4747474747474754 5.000000000000002,2.575757575757577 5.000000000000002,2.676767676767678 5.000000000000002,2.7777777777777786 5.000000000000002,2.87878787878788 5.000000000000002,2.9797979797979806 5.000000000000002,3.080808080808082 5.000000000000002,3.181818181818183 5.000000000000002,3.2828282828282833 5.000000000000002,3.383838383838384 5.000000000000002,3.4848484848484866 5.000000000000002,3.5858585858585874 5.000000000000002,3.6868686868686877 5.000000000000002,3.7878787878787885 5.000000000000002,3.8888888888888893 5.000000000000002,3.989898989898992 5.000000000000002,4.090909090909092 5.000000000000002,4.191919191919193 5.000000000000002,4.292929292929293" data-type="line" data-label="" points="564.4444444444445,306.9898989898991 573.9797979797979,306.9898989898991 583.5151515151515,306.9898989898991 593.0505050505051,306.9898989898991 602.5858585858585,306.9898989898991 612.1212121212121,306.9898989898991 621.6565656565656,306.9898989898991 631.1919191919192,306.9898989898991 640.7272727272727,306.9898989898991 650.2626262626262,306.9898989898991 659.7979797979798,306.9898989898991 669.3333333333333,306.9898989898991 678.8686868686868,306.9898989898991 688.4040404040404,306.9898989898991 697.9393939393939,306.9898989898991 707.4747474747475,306.9898989898991 717.0101010101009,306.9898989898991 726.5454545454545,306.9898989898991 736.0808080808081,306.9898989898991 745.6161616161615,306.9898989898991 755.1515151515151,306.9898989898991 764.6868686868686,306.9898989898991 774.2222222222222,306.9898989898991 783.7575757575758,306.9898989898991 793.2929292929292,306.9898989898991 802.8282828282828,316.5252525252526 812.3636363636363,326.06060606060623 821.8989898989898,335.5959595959597 831.4343434343433,345.1313131313133 840.969696969697,354.66666666666674 850.5050505050505,364.2020202020203 860.0404040404039,373.73737373737384 869.5757575757575,383.27272727272737 879.111111111111,392.80808080808094 888.6464646464647,383.27272727272737 898.181818181818,373.73737373737384 907.7171717171716,364.2020202020203 917.2525252525251,354.66666666666674 926.7878787878785,345.1313131313133 936.3232323232323,335.5959595959597 945.8585858585857,326.06060606060623 955.3939393939393,316.5252525252526 964.9292929292927,306.9898989898991 974.4646464646464,297.4545454545456 984,287.91919191919203 984,278.38383838383857 984,268.84848484848493 984,259.3131313131314 984,249.77777777777794 984,240.24242424242436 984,230.70707070707084 984,221.17171717171726 984,211.63636363636374 984,202.10101010101027 984,192.56565656565675 984,183.03030303030312 984,173.4949494949496 984,163.95959595959613 984,154.4242424242426 984,144.88888888888908 984,135.35353535353545 984,125.81818181818198 984,116.28282828282846 984,106.747474747475" fill="none" stroke="rgba(0,0,255,0.75)" stroke-width="11.327999999999996"/></g><g><rect data-type="rect" data-label="" data-x="0" data-y="0" x="40.000000000000114" y="40.000000000000284" width="943.9999999999997" height="943.9999999999998" fill="none" stroke="gray" stroke-width="0.010593220338983056"/></g><g><rect data-type="rect" data-label="" data-x="0" data-y="0" x="40.000000000000114" y="40.000000000000284" width="943.9999999999997" height="943.9999999999998" fill="none" stroke="rgba(15, 23, 42, 0.8)" stroke-width="0.010593220338983056"/></g><circle data-type="circle" data-label="" data-x="-2.07070707070707" data-y="-3.98989898989899" cx="316.5252525252526" cy="888.6464646464647" r="14.159999999999995" fill="rgba(0,0,0,0.3)" stroke="black" stroke-width="0.010593220338983056"/><circle data-type="circle" data-label="" data-x="0.4545454545454551" data-y="-3.98989898989899" cx="554.9090909090909" cy="888.6464646464647" r="14.159999999999995" fill="rgba(0,0,0,0.3)" stroke="black" stroke-width="0.010593220338983056"/><circle data-type="circle" data-label="" data-x="3.2828282828282833" data-y="3.989898989898992" cx="821.8989898989898" cy="135.35353535353545" r="14.159999999999995" fill="rgba(0,0,0,0.3)" stroke="black" stroke-width="0.010593220338983056"/><circle data-type="circle" data-label="" data-x="2.87878787878788" data-y="3.080808080808082" cx="783.7575757575758" cy="221.17171717171726" r="14.159999999999995" fill="rgba(0,0,0,0.3)" stroke="black" stroke-width="0.010593220338983056"/><circle data-type="circle" data-label="" data-x="3.989898989898992" data-y="3.080808080808082" cx="888.6464646464647" cy="221.17171717171726" r="14.159999999999995" fill="rgba(0,0,0,0.3)" stroke="black" stroke-width="0.010593220338983056"/><circle data-type="circle" data-label="" data-x="1.9696969696969702" data-y="3.4848484848484866" cx="697.9393939393939" cy="183.03030303030312" r="14.159999999999995" fill="rgba(0,0,0,0.3)" stroke="black" stroke-width="0.010593220338983056"/><circle data-type="circle" data-label="" data-x="3.8888888888888893" data-y="1.5656565656565666" cx="879.111111111111" cy="364.2020202020203" r="14.159999999999995" fill="rgba(0,0,0,0.3)" stroke="black" stroke-width="0.010593220338983056"/><circle data-type="circle" data-label="" data-x="-2.9797979797979792" data-y="-2.3737373737373733" cx="230.70707070707084" cy="736.0808080808081" r="14.159999999999995" fill="rgba(0,0,0,0.3)" stroke="black" stroke-width="0.010593220338983056"/><circle data-type="circle" data-label="" data-x="-2.9797979797979792" data-y="2.676767676767678" cx="230.70707070707084" cy="259.3131313131314" r="14.159999999999995" fill="rgba(0,0,0,0.3)" stroke="black" stroke-width="0.010593220338983056"/><circle data-type="circle" data-label="" data-x="-2.9797979797979792" data-y="3.989898989898992" cx="230.70707070707084" cy="135.35353535353545" r="14.159999999999995" fill="rgba(0,0,0,0.3)" stroke="black" stroke-width="0.010593220338983056"/><circle data-type="circle" data-label="" data-x="3.5858585858585874" data-y="-2.7777777777777777" cx="850.5050505050505" cy="774.2222222222222" r="14.159999999999995" fill="rgba(0,0,0,0.3)" stroke="black" stroke-width="0.010593220338983056"/><circle data-type="circle" data-label="" data-x="2.676767676767678" data-y="3.989898989898992" cx="764.6868686868686" cy="135.35353535353545" r="14.159999999999995" fill="rgba(0,0,0,0.3)" stroke="black" stroke-width="0.010593220338983056"/><circle data-type="circle" data-label="" data-x="-1.4646464646464643" data-y="3.5858585858585874" cx="373.7373737373738" cy="173.4949494949496" r="14.159999999999995" fill="rgba(0,0,0,0.3)" stroke="black" stroke-width="0.010593220338983056"/><circle data-type="circle" data-label="" data-x="-3.98989898989899" data-y="2.87878787878788" cx="135.35353535353545" cy="240.24242424242436" r="14.159999999999995" fill="rgba(0,0,0,0.3)" stroke="black" stroke-width="0.010593220338983056"/><circle data-type="circle" data-label="" data-x="0.5555555555555567" data-y="2.1717171717171726" cx="564.4444444444445" cy="306.9898989898991" r="14.159999999999995" fill="rgba(0,0,0,0.3)" stroke="black" stroke-width="0.010593220338983056"/><g id="crosshair" style="display: none"><line id="crosshair-h" y1="0" y2="1024" stroke="#666" stroke-width="0.5"/><line id="crosshair-v" x1="0" x2="1024" stroke="#666" stroke-width="0.5"/><text id="coordinates" font-family="monospace" font-size="12" fill="#666"></text></g><script><![CDATA[
              document.currentScript.parentElement.addEventListener('mousemove', (e) => {
                const svg = e.currentTarget;
                const rect = svg.getBoundingClientRect();
                const x = e.clientX - rect.left;
                const y = e.clientY - rect.top;
                const crosshair = svg.getElementById('crosshair');
                const h = svg.getElementById('crosshair-h');
                const v = svg.getElementById('crosshair-v');
                const coords = svg.getElementById('coordinates');
                
                crosshair.style.display = 'block';
                h.setAttribute('x1', '0');
                h.setAttribute('x2', '1024');
                h.setAttribute('y1', y);
                h.setAttribute('y2', y);
                v.setAttribute('x1', x);
                v.setAttribute('x2', x);
                v.setAttribute('y1', '0');
                v.setAttribute('y2', '1024');

                // Calculate real coordinates using inverse transformation
                const matrix = {"a":94.39999999999996,"c":0,"e":511.99999999999994,"b":0,"d":-94.39999999999996,"f":512.0000000000001};
                // Manually invert and apply the affine transform
                // Since we only use translate and scale, we can directly compute:
                // x' = (x - tx) / sx
                // y' = (y - ty) / sy
                const sx = matrix.a;
                const sy = matrix.d;
                const tx = matrix.e; 
                const ty = matrix.f;
                const realPoint = {
                  x: (x - tx) / sx,
                  y: (y - ty) / sy // Flip y back since we used negative scale
                }
                
                coords.textContent = `(${realPoint.x.toFixed(2)}, ${realPoint.y.toFixed(2)})`;
                coords.setAttribute('x', (x + 5).toString());
                coords.setAttribute('y', (y - 5).toString());
              });
              document.currentScript.parentElement.addEventListener('mouseleave', () => {
                document.currentScript.parentElement.getElementById('crosshair').style.display = 'none';
              });
            ]]></script></svg>