<svg width="1024" height="1024" viewBox="0 0 1024 1024" xmlns="http://www.w3.org/2000/svg"><rect width="100%" height="100%" fill="white"/><g><circle data-type="point" data-label="conn_000" data-x="2.72" data-y="-5" cx="768.7679999999998" cy="984" r="14.16" fill="blue"/></g><g><circle data-type="point" data-label="conn_000" data-x="0.68" data-y="5" cx="576.1919999999999" cy="40.000000000000284" r="14.16" fill="blue"/></g><g><circle data-type="point" data-label="conn_001" data-x="-0.26" data-y="5" cx="487.45599999999996" cy="40.000000000000284" r="14.16" fill="blue"/></g><g><circle data-type="point" data-label="conn_001" data-x="2.64" data-y="-5" cx="761.2159999999999" cy="984" r="14.16" fill="red"/></g><g><circle data-type="point" data-label="conn_002" data-x="2.6" data-y="-5" cx="757.4399999999998" cy="984" r="14.16" fill="blue"/></g><g><circle data-type="point" data-label="conn_002" data-x="-0.12" data-y="5" cx="500.67199999999997" cy="40.000000000000284" r="14.16" fill="blue"/></g><g><circle data-type="point" data-label="conn_003" data-x="-4.14" data-y="-5" cx="121.18400000000014" cy="984" r="14.16" fill="red"/></g><g><circle data-type="point" data-label="conn_003" data-x="-1.2" data-y="5" cx="398.71999999999997" cy="40.000000000000284" r="14.16" fill="blue"/></g><g><circle data-type="point" data-label="conn_004" data-x="4.64" data-y="5" cx="950.0159999999997" cy="40.000000000000284" r="14.16" fill="red"/></g><g><circle data-type="point" data-label="conn_004" data-x="5" data-y="-0.8200000000000001" cx="983.9999999999998" cy="589.4080000000001" r="14.16" fill="red"/></g><g><circle data-type="point" data-label="conn_005" data-x="1.2" data-y="5" cx="625.2799999999999" cy="40.000000000000284" r="14.16" fill="blue"/></g><g><circle data-type="point" data-label="conn_005" data-x="-2.94" data-y="5" cx="234.46400000000006" cy="40.000000000000284" r="14.16" fill="red"/></g><g><circle data-type="point" data-label="conn_006" data-x="-5" data-y="-3.3200000000000003" cx="40.000000000000114" cy="825.408" r="14.16" fill="blue"/></g><g><circle data-type="point" data-label="conn_006" data-x="-1.16" data-y="5" cx="402.496" cy="40.000000000000284" r="14.16" fill="red"/></g><g><circle data-type="point" data-label="conn_007" data-x="-3.14" data-y="5" cx="215.58400000000006" cy="40.000000000000284" r="14.16" fill="blue"/></g><g><circle data-type="point" data-label="conn_007" data-x="2.18" data-y="-5" cx="717.7919999999999" cy="984" r="14.16" fill="blue"/></g><g><polyline data-points="2.575757575757577,-5.000000000000001 2.4747474747474754,-4.898989898989899 2.373737373737375,-4.7979797979797985 2.2727272727272734,-4.696969696969697 2.1717171717171726,-4.595959595959596 2.070707070707072,-4.494949494949496 1.9696969696969702,-4.393939393939394 1.8686868686868696,-4.292929292929293 1.767676767676768,-4.191919191919193 1.6666666666666674,-4.090909090909091 1.5656565656565666,-3.98989898989899 1.4646464646464652,-3.8888888888888884 1.3636363636363644,-3.7878787878787876 1.262626262626263,-3.6868686868686864 1.1616161616161622,-3.5858585858585856 1.0606060606060617,-3.484848484848485 0.9595959595959602,-3.383838383838383 0.8585858585858596,-3.2828282828282824 0.7575757575757579,-3.1818181818181817 0.6565656565656574,-3.0808080808080804 0.5555555555555567,-2.9797979797979792 0.4545454545454551,-2.8787878787878785 0.3535353535353544,-2.7777777777777777 0.2525252525252529,-2.6767676767676765 0.1515151515151522,-2.5757575757575752 0.050505050505051545,-2.474747474747474 -0.05050505050505001,-2.3737373737373733 -0.15151515151515066,-2.2727272727272725 -0.15151515151515066,-2.1717171717171713 -0.15151515151515066,-2.07070707070707 -0.15151515151515066,-1.9696969696969693 -0.15151515151515066,-1.8686868686868683 -0.15151515151515066,-1.7676767676767675 -0.15151515151515066,-1.6666666666666665 -0.15151515151515066,-1.5656565656565653 -0.15151515151515066,-1.4646464646464643 -0.15151515151515066,-1.363636363636363 -0.15151515151515066,-1.2626262626262625 -0.15151515151515066,-1.1616161616161613 -0.15151515151515066,-1.0606060606060603 -0.15151515151515066,-0.9595959595959596 -0.15151515151515066,-0.8585858585858579 -0.15151515151515066,-0.7575757575757572 -0.15151515151515066,-0.6565656565656557 -0.15151515151515066,-0.555555555555555 -0.15151515151515066,-0.4545454545454544 -0.15151515151515066,-0.35353535353535287 -0.15151515151515066,-0.2525252525252522 -0.15151515151515066,-0.15151515151515066 -0.15151515151515066,-0.05050505050505001 -0.15151515151515066,0.050505050505051545 -0.15151515151515066,0.1515151515151522 -0.15151515151515066,0.2525252525252529 -0.15151515151515066,0.3535353535353544 -0.15151515151515066,0.4545454545454551 -0.15151515151515066,0.5555555555555567 -0.15151515151515066,0.6565656565656574 -0.15151515151515066,0.7575757575757579 -0.15151515151515066,0.8585858585858596 -0.15151515151515066,0.9595959595959602 -0.15151515151515066,1.0606060606060617 -0.15151515151515066,1.1616161616161622 -0.15151515151515066,1.262626262626263 -0.15151515151515066,1.3636363636363644 -0.15151515151515066,1.4646464646464652 -0.15151515151515066,1.5656565656565666 -0.15151515151515066,1.6666666666666674 -0.15151515151515066,1.767676767676768 -0.15151515151515066,1.8686868686868696 -0.15151515151515066,1.9696969696969702 -0.15151515151515066,2.070707070707072 -0.15151515151515066,2.1717171717171726 -0.15151515151515066,2.2727272727272734 -0.15151515151515066,2.373737373737375 -0.15151515151515066,2.4747474747474754 -0.15151515151515066,2.575757575757577 -0.15151515151515066,2.676767676767678 -0.15151515151515066,2.7777777777777786 -0.15151515151515066,2.87878787878788 -0.15151515151515066,2.9797979797979806 -0.15151515151515066,3.080808080808082 -0.15151515151515066,3.181818181818183 -0.15151515151515066,3.2828282828282833 -0.15151515151515066,3.383838383838384 -0.15151515151515066,3.4848484848484866 -0.15151515151515066,3.5858585858585874 -0.15151515151515066,3.6868686868686877 -0.15151515151515066,3.7878787878787885 -0.15151515151515066,3.8888888888888893 -0.15151515151515066,3.989898989898992 -0.15151515151515066,4.090909090909092 -0.15151515151515066,4.191919191919193 -0.15151515151515066,4.292929292929293 -0.15151515151515066,4.393939393939394 -0.15151515151515066,4.494949494949497 -0.15151515151515066,4.595959595959597 -0.15151515151515066,4.696969696969697 -0.15151515151515066,4.7979797979797985 -0.15151515151515066,4.898989898989901 -0.15151515151515066,5.000000000000002" data-type="line" data-label="" points="755.1515151515151,984 745.6161616161615,974.4646464646464 736.0808080808081,964.9292929292928 726.5454545454545,955.3939393939394 717.0101010101009,945.8585858585858 707.4747474747475,936.3232323232323 697.9393939393939,926.7878787878788 688.4040404040404,917.2525252525252 678.8686868686868,907.7171717171718 669.3333333333333,898.1818181818181 659.7979797979798,888.6464646464647 650.2626262626262,879.1111111111111 640.7272727272727,869.5757575757575 631.1919191919192,860.0404040404039 621.6565656565656,850.5050505050505 612.1212121212121,840.969696969697 602.5858585858585,831.4343434343434 593.0505050505051,821.8989898989898 583.5151515151515,812.3636363636363 573.9797979797979,802.8282828282828 564.4444444444445,793.2929292929292 554.9090909090909,783.7575757575758 545.3737373737374,774.2222222222222 535.8383838383838,764.6868686868687 526.3030303030303,755.1515151515151 516.7676767676768,745.6161616161615 507.2323232323232,736.0808080808081 497.69696969696975,726.5454545454545 497.69696969696975,717.010101010101 497.69696969696975,707.4747474747475 497.69696969696975,697.939393939394 497.69696969696975,688.4040404040404 497.69696969696975,678.8686868686868 497.69696969696975,669.3333333333334 497.69696969696975,659.7979797979798 497.69696969696975,650.2626262626263 497.69696969696975,640.7272727272727 497.69696969696975,631.1919191919193 497.69696969696975,621.6565656565657 497.69696969696975,612.1212121212121 497.69696969696975,602.5858585858587 497.69696969696975,593.0505050505051 497.69696969696975,583.5151515151516 497.69696969696975,573.979797979798 497.69696969696975,564.4444444444445 497.69696969696975,554.909090909091 497.69696969696975,545.3737373737374 497.69696969696975,535.838383838384 497.69696969696975,526.3030303030304 497.69696969696975,516.7676767676768 497.69696969696975,507.23232323232327 497.69696969696975,497.69696969696975 497.69696969696975,488.1616161616163 497.69696969696975,478.6262626262627 497.69696969696975,469.0909090909092 497.69696969696975,459.5555555555556 497.69696969696975,450.0202020202021 497.69696969696975,440.4848484848486 497.69696969696975,430.94949494949503 497.69696969696975,421.4141414141415 497.69696969696975,411.87878787878793 497.69696969696975,402.3434343434344 497.69696969696975,392.80808080808094 497.69696969696975,383.27272727272737 497.69696969696975,373.73737373737384 497.69696969696975,364.2020202020203 497.69696969696975,354.66666666666674 497.69696969696975,345.1313131313133 497.69696969696975,335.5959595959597 497.69696969696975,326.06060606060623 497.69696969696975,316.5252525252526 497.69696969696975,306.9898989898991 497.69696969696975,297.4545454545456 497.69696969696975,287.91919191919203 497.69696969696975,278.38383838383857 497.69696969696975,268.84848484848493 497.69696969696975,259.3131313131314 497.69696969696975,249.77777777777794 497.69696969696975,240.24242424242436 497.69696969696975,230.70707070707084 497.69696969696975,221.17171717171726 497.69696969696975,211.63636363636374 497.69696969696975,202.10101010101027 497.69696969696975,192.56565656565675 497.69696969696975,183.03030303030312 497.69696969696975,173.4949494949496 497.69696969696975,163.95959595959613 497.69696969696975,154.4242424242426 497.69696969696975,144.88888888888908 497.69696969696975,135.35353535353545 497.69696969696975,125.81818181818198 497.69696969696975,116.28282828282846 497.69696969696975,106.747474747475 497.69696969696975,97.21212121212153 497.69696969696975,87.67676767676778 497.69696969696975,78.14141414141432 497.69696969696975,68.60606060606085 497.69696969696975,59.07070707070733 497.69696969696975,49.53535353535369 497.69696969696975,40.000000000000114" fill="none" stroke="rgba(0,0,255,0.75)" stroke-width="11.327999999999996"/></g><g><polyline data-points="4.696969696969697,5.000000000000002 4.7979797979797985,4.898989898989901 4.898989898989901,4.7979797979797985 5.000000000000002,4.696969696969697 5.000000000000002,4.595959595959597 5.000000000000002,4.494949494949497 5.000000000000002,4.393939393939394 5.000000000000002,4.292929292929293 5.000000000000002,4.191919191919193 5.000000000000002,4.090909090909092 5.000000000000002,3.989898989898992 5.000000000000002,3.8888888888888893 5.000000000000002,3.7878787878787885 5.000000000000002,3.6868686868686877 5.000000000000002,3.5858585858585874 5.000000000000002,3.4848484848484866 5.000000000000002,3.383838383838384 5.000000000000002,3.2828282828282833 5.000000000000002,3.181818181818183 5.000000000000002,3.080808080808082 5.000000000000002,2.9797979797979806 5.000000000000002,2.87878787878788 5.000000000000002,2.7777777777777786 5.000000000000002,2.676767676767678 5.000000000000002,2.575757575757577 5.000000000000002,2.4747474747474754 5.000000000000002,2.373737373737375 5.000000000000002,2.2727272727272734 5.000000000000002,2.1717171717171726 5.000000000000002,2.070707070707072 5.000000000000002,1.9696969696969702 5.000000000000002,1.8686868686868696 5.000000000000002,1.767676767676768 5.000000000000002,1.6666666666666674 5.000000000000002,1.5656565656565666 5.000000000000002,1.4646464646464652 5.000000000000002,1.3636363636363644 5.000000000000002,1.262626262626263 5.000000000000002,1.1616161616161622 5.000000000000002,1.0606060606060617 5.000000000000002,0.9595959595959602 5.000000000000002,0.8585858585858596 5.000000000000002,0.7575757575757579 5.000000000000002,0.6565656565656574 5.000000000000002,0.5555555555555567 5.000000000000002,0.4545454545454551 5.000000000000002,0.3535353535353544 5.000000000000002,0.2525252525252529 5.000000000000002,0.1515151515151522 5.000000000000002,0.050505050505051545 5.000000000000002,-0.05050505050505001 5.000000000000002,-0.15151515151515066 5.000000000000002,-0.2525252525252522 5.000000000000002,-0.35353535353535287 5.000000000000002,-0.4545454545454544 5.000000000000002,-0.555555555555555 5.000000000000002,-0.6565656565656557 5.000000000000002,-0.7575757575757572 5.000000000000002,-0.8585858585858579" data-type="line" data-label="" points="955.3939393939393,40.000000000000114 964.9292929292927,49.53535353535369 974.4646464646464,59.07070707070733 984,68.60606060606085 984,78.14141414141432 984,87.67676767676778 984,97.21212121212153 984,106.747474747475 984,116.28282828282846 984,125.81818181818198 984,135.35353535353545 984,144.88888888888908 984,154.4242424242426 984,163.95959595959613 984,173.4949494949496 984,183.03030303030312 984,192.56565656565675 984,202.10101010101027 984,211.63636363636374 984,221.17171717171726 984,230.70707070707084 984,240.24242424242436 984,249.77777777777794 984,259.3131313131314 984,268.84848484848493 984,278.38383838383857 984,287.91919191919203 984,297.4545454545456 984,306.9898989898991 984,316.5252525252526 984,326.06060606060623 984,335.5959595959597 984,345.1313131313133 984,354.66666666666674 984,364.2020202020203 984,373.73737373737384 984,383.27272727272737 984,392.80808080808094 984,402.3434343434344 984,411.87878787878793 984,421.4141414141415 984,430.94949494949503 984,440.4848484848486 984,450.0202020202021 984,459.5555555555556 984,469.0909090909092 984,478.6262626262627 984,488.1616161616163 984,497.69696969696975 984,507.23232323232327 984,516.7676767676768 984,526.3030303030304 984,535.838383838384 984,545.3737373737374 984,554.909090909091 984,564.4444444444445 984,573.979797979798 984,583.5151515151516 984,593.0505050505051" fill="none" stroke="rgba(255,0,0,0.75)" stroke-width="11.327999999999996"/></g><g><polyline data-points="-3.1818181818181817,5.000000000000002 -3.0808080808080804,4.898989898989901 -2.9797979797979792,4.7979797979797985 -2.8787878787878785,4.696969696969697 -2.7777777777777777,4.595959595959597 -2.6767676767676765,4.494949494949497 -2.5757575757575752,4.393939393939394 -2.474747474747474,4.292929292929293 -2.3737373737373733,4.191919191919193 -2.2727272727272725,4.090909090909092 -2.1717171717171713,3.989898989898992 -2.07070707070707,3.8888888888888893 -1.9696969696969693,3.7878787878787885 -1.8686868686868683,3.6868686868686877 -1.7676767676767675,3.5858585858585874 -1.6666666666666665,3.4848484848484866 -1.5656565656565653,3.383838383838384 -1.4646464646464643,3.2828282828282833 -1.363636363636363,3.181818181818183 -1.2626262626262625,3.080808080808082 -1.1616161616161613,2.9797979797979806 -1.0606060606060603,2.87878787878788 -0.9595959595959596,2.7777777777777786 -0.8585858585858579,2.676767676767678 -0.7575757575757572,2.575757575757577 -0.6565656565656557,2.4747474747474754 -0.555555555555555,2.373737373737375 -0.4545454545454544,2.2727272727272734 -0.35353535353535287,2.1717171717171726 -0.35353535353535287,2.070707070707072 -0.35353535353535287,1.9696969696969702 -0.35353535353535287,1.8686868686868696 -0.35353535353535287,1.767676767676768 -0.35353535353535287,1.6666666666666674 -0.35353535353535287,1.5656565656565666 -0.35353535353535287,1.4646464646464652 -0.35353535353535287,1.3636363636363644 -0.35353535353535287,1.262626262626263 -0.35353535353535287,1.1616161616161622 -0.35353535353535287,1.0606060606060617 -0.35353535353535287,0.9595959595959602 -0.35353535353535287,0.8585858585858596 -0.35353535353535287,0.7575757575757579 -0.35353535353535287,0.6565656565656574 -0.35353535353535287,0.5555555555555567 -0.35353535353535287,0.4545454545454551 -0.35353535353535287,0.3535353535353544 -0.35353535353535287,0.2525252525252529 -0.35353535353535287,0.1515151515151522 -0.35353535353535287,0.050505050505051545 -0.35353535353535287,-0.05050505050505001 -0.35353535353535287,-0.15151515151515066 -0.35353535353535287,-0.2525252525252522 -0.35353535353535287,-0.35353535353535287 -0.35353535353535287,-0.4545454545454544 -0.35353535353535287,-0.555555555555555 -0.35353535353535287,-0.6565656565656557 -0.35353535353535287,-0.7575757575757572 -0.35353535353535287,-0.8585858585858579 -0.35353535353535287,-0.9595959595959596 -0.35353535353535287,-1.0606060606060603 -0.35353535353535287,-1.1616161616161613 -0.35353535353535287,-1.2626262626262625 -0.35353535353535287,-1.363636363636363 -0.35353535353535287,-1.4646464646464643 -0.35353535353535287,-1.5656565656565653 -0.35353535353535287,-1.6666666666666665 -0.35353535353535287,-1.7676767676767675 -0.35353535353535287,-1.8686868686868683 -0.35353535353535287,-1.9696969696969693 -0.35353535353535287,-2.07070707070707 -0.35353535353535287,-2.1717171717171713 -0.35353535353535287,-2.2727272727272725 -0.35353535353535287,-2.3737373737373733 -0.2525252525252522,-2.474747474747474 -0.15151515151515066,-2.5757575757575752 -0.05050505050505001,-2.6767676767676765 0.050505050505051545,-2.7777777777777777 0.1515151515151522,-2.8787878787878785 0.2525252525252529,-2.9797979797979792 0.3535353535353544,-3.0808080808080804 0.4545454545454551,-3.1818181818181817 0.5555555555555567,-3.2828282828282824 0.6565656565656574,-3.383838383838383 0.7575757575757579,-3.484848484848485 0.8585858585858596,-3.5858585858585856 0.9595959595959602,-3.6868686868686864 1.0606060606060617,-3.7878787878787876 1.1616161616161622,-3.8888888888888884 1.262626262626263,-3.98989898989899 1.3636363636363644,-4.090909090909091 1.4646464646464652,-4.191919191919193 1.5656565656565666,-4.292929292929293 1.6666666666666674,-4.393939393939394 1.767676767676768,-4.494949494949496 1.8686868686868696,-4.595959595959596 1.9696969696969702,-4.696969696969697 2.070707070707072,-4.7979797979797985 2.1717171717171726,-4.898989898989899 2.1717171717171726,-5.000000000000001" data-type="line" data-label="" points="211.63636363636374,40.000000000000114 221.17171717171726,49.53535353535369 230.70707070707084,59.07070707070733 240.2424242424243,68.60606060606085 249.77777777777783,78.14141414141432 259.3131313131314,87.67676767676778 268.84848484848493,97.21212121212153 278.38383838383845,106.747474747475 287.91919191919203,116.28282828282846 297.4545454545455,125.81818181818198 306.9898989898991,135.35353535353545 316.5252525252526,144.88888888888908 326.0606060606061,154.4242424242426 335.59595959595964,163.95959595959613 345.13131313131316,173.4949494949496 354.6666666666667,183.03030303030312 364.2020202020202,192.56565656565675 373.7373737373738,202.10101010101027 383.2727272727273,211.63636363636374 392.80808080808083,221.17171717171726 402.34343434343435,230.70707070707084 411.8787878787879,240.24242424242436 421.4141414141414,249.77777777777794 430.949494949495,259.3131313131314 440.4848484848485,268.84848484848493 450.0202020202021,278.38383838383857 459.55555555555554,287.91919191919203 469.09090909090907,297.4545454545456 478.62626262626264,306.9898989898991 478.62626262626264,316.5252525252526 478.62626262626264,326.06060606060623 478.62626262626264,335.5959595959597 478.62626262626264,345.1313131313133 478.62626262626264,354.66666666666674 478.62626262626264,364.2020202020203 478.62626262626264,373.73737373737384 478.62626262626264,383.27272727272737 478.62626262626264,392.80808080808094 478.62626262626264,402.3434343434344 478.62626262626264,411.87878787878793 478.62626262626264,421.4141414141415 478.62626262626264,430.94949494949503 478.62626262626264,440.4848484848486 478.62626262626264,450.0202020202021 478.62626262626264,459.5555555555556 478.62626262626264,469.0909090909092 478.62626262626264,478.6262626262627 478.62626262626264,488.1616161616163 478.62626262626264,497.69696969696975 478.62626262626264,507.23232323232327 478.62626262626264,516.7676767676768 478.62626262626264,526.3030303030304 478.62626262626264,535.838383838384 478.62626262626264,545.3737373737374 478.62626262626264,554.909090909091 478.62626262626264,564.4444444444445 478.62626262626264,573.979797979798 478.62626262626264,583.5151515151516 478.62626262626264,593.0505050505051 478.62626262626264,602.5858585858587 478.62626262626264,612.1212121212121 478.62626262626264,621.6565656565657 478.62626262626264,631.1919191919193 478.62626262626264,640.7272727272727 478.62626262626264,650.2626262626263 478.62626262626264,659.7979797979798 478.62626262626264,669.3333333333334 478.62626262626264,678.8686868686868 478.62626262626264,688.4040404040404 478.62626262626264,697.939393939394 478.62626262626264,707.4747474747475 478.62626262626264,717.010101010101 478.62626262626264,726.5454545454545 478.62626262626264,736.0808080808081 488.16161616161617,745.6161616161615 497.69696969696975,755.1515151515151 507.2323232323232,764.6868686868687 516.7676767676768,774.2222222222222 526.3030303030303,783.7575757575758 535.8383838383838,793.2929292929292 545.3737373737374,802.8282828282828 554.9090909090909,812.3636363636363 564.4444444444445,821.8989898989898 573.9797979797979,831.4343434343434 583.5151515151515,840.969696969697 593.0505050505051,850.5050505050505 602.5858585858585,860.0404040404039 612.1212121212121,869.5757575757575 621.6565656565656,879.1111111111111 631.1919191919192,888.6464646464647 640.7272727272727,898.1818181818181 650.2626262626262,907.7171717171718 659.7979797979798,917.2525252525252 669.3333333333333,926.7878787878788 678.8686868686868,936.3232323232323 688.4040404040404,945.8585858585858 697.9393939393939,955.3939393939394 707.4747474747475,964.9292929292928 717.0101010101009,974.4646464646464 717.0101010101009,984" fill="none" stroke="rgba(0,0,255,0.75)" stroke-width="11.327999999999996"/></g><g><polyline data-points="2.7777777777777786,-5.000000000000001 2.7777777777777786,-4.898989898989899 2.676767676767678,-4.7979797979797985 2.575757575757577,-4.696969696969697 2.4747474747474754,-4.595959595959596 2.373737373737375,-4.494949494949496 2.2727272727272734,-4.393939393939394 2.1717171717171726,-4.292929292929293 2.070707070707072,-4.191919191919193 1.9696969696969702,-4.090909090909091 1.8686868686868696,-3.98989898989899 1.767676767676768,-3.8888888888888884 1.6666666666666674,-3.7878787878787876 1.5656565656565666,-3.6868686868686864 1.4646464646464652,-3.5858585858585856 1.3636363636363644,-3.484848484848485 1.262626262626263,-3.383838383838383 1.1616161616161622,-3.2828282828282824 1.0606060606060617,-3.1818181818181817 0.9595959595959602,-3.0808080808080804 0.9595959595959602,-2.9797979797979792 0.9595959595959602,-2.8787878787878785 0.9595959595959602,-2.7777777777777777 0.9595959595959602,-2.6767676767676765 0.9595959595959602,-2.5757575757575752 0.9595959595959602,-2.474747474747474 0.9595959595959602,-2.3737373737373733 0.9595959595959602,-2.2727272727272725 0.9595959595959602,-2.1717171717171713 0.9595959595959602,-2.07070707070707 0.9595959595959602,-1.9696969696969693 0.9595959595959602,-1.8686868686868683 0.9595959595959602,-1.7676767676767675 0.9595959595959602,-1.6666666666666665 0.9595959595959602,-1.5656565656565653 0.9595959595959602,-1.4646464646464643 0.9595959595959602,-1.363636363636363 0.9595959595959602,-1.2626262626262625 0.9595959595959602,-1.1616161616161613 0.9595959595959602,-1.0606060606060603 0.9595959595959602,-0.9595959595959596 0.9595959595959602,-0.8585858585858579 0.9595959595959602,-0.7575757575757572 0.9595959595959602,-0.6565656565656557 0.9595959595959602,-0.555555555555555 0.9595959595959602,-0.4545454545454544 0.9595959595959602,-0.35353535353535287 0.9595959595959602,-0.2525252525252522 0.9595959595959602,-0.15151515151515066 0.9595959595959602,-0.05050505050505001 0.9595959595959602,0.050505050505051545 0.9595959595959602,0.1515151515151522 0.9595959595959602,0.2525252525252529 0.9595959595959602,0.3535353535353544 0.9595959595959602,0.4545454545454551 0.9595959595959602,0.5555555555555567 0.9595959595959602,0.6565656565656574 0.9595959595959602,0.7575757575757579 0.9595959595959602,0.8585858585858596 0.9595959595959602,0.9595959595959602 0.9595959595959602,1.0606060606060617 0.9595959595959602,1.1616161616161622 0.9595959595959602,1.262626262626263 0.9595959595959602,1.3636363636363644 0.9595959595959602,1.4646464646464652 0.9595959595959602,1.5656565656565666 0.9595959595959602,1.6666666666666674 0.9595959595959602,1.767676767676768 0.9595959595959602,1.8686868686868696 0.9595959595959602,1.9696969696969702 0.9595959595959602,2.070707070707072 0.9595959595959602,2.1717171717171726 0.9595959595959602,2.2727272727272734 0.9595959595959602,2.373737373737375 0.9595959595959602,2.4747474747474754 0.9595959595959602,2.575757575757577 0.9595959595959602,2.676767676767678 0.9595959595959602,2.7777777777777786 0.9595959595959602,2.87878787878788 0.9595959595959602,2.9797979797979806 0.9595959595959602,3.080808080808082 0.9595959595959602,3.181818181818183 0.9595959595959602,3.2828282828282833 0.9595959595959602,3.383838383838384 0.9595959595959602,3.4848484848484866 0.9595959595959602,3.5858585858585874 0.9595959595959602,3.6868686868686877 0.9595959595959602,3.7878787878787885 0.9595959595959602,3.8888888888888893 0.9595959595959602,3.989898989898992 0.9595959595959602,4.090909090909092 0.9595959595959602,4.191919191919193 0.9595959595959602,4.292929292929293 0.9595959595959602,4.393939393939394 0.8585858585858596,4.494949494949497 0.7575757575757579,4.595959595959597 0.6565656565656574,4.696969696969697 0.6565656565656574,4.7979797979797985 0.6565656565656574,4.898989898989901 0.6565656565656574,5.000000000000002" data-type="line" data-label="" points="774.2222222222222,984 774.2222222222222,974.4646464646464 764.6868686868686,964.9292929292928 755.1515151515151,955.3939393939394 745.6161616161615,945.8585858585858 736.0808080808081,936.3232323232323 726.5454545454545,926.7878787878788 717.0101010101009,917.2525252525252 707.4747474747475,907.7171717171718 697.9393939393939,898.1818181818181 688.4040404040404,888.6464646464647 678.8686868686868,879.1111111111111 669.3333333333333,869.5757575757575 659.7979797979798,860.0404040404039 650.2626262626262,850.5050505050505 640.7272727272727,840.969696969697 631.1919191919192,831.4343434343434 621.6565656565656,821.8989898989898 612.1212121212121,812.3636363636363 602.5858585858585,802.8282828282828 602.5858585858585,793.2929292929292 602.5858585858585,783.7575757575758 602.5858585858585,774.2222222222222 602.5858585858585,764.6868686868687 602.5858585858585,755.1515151515151 602.5858585858585,745.6161616161615 602.5858585858585,736.0808080808081 602.5858585858585,726.5454545454545 602.5858585858585,717.010101010101 602.5858585858585,707.4747474747475 602.5858585858585,697.939393939394 602.5858585858585,688.4040404040404 602.5858585858585,678.8686868686868 602.5858585858585,669.3333333333334 602.5858585858585,659.7979797979798 602.5858585858585,650.2626262626263 602.5858585858585,640.7272727272727 602.5858585858585,631.1919191919193 602.5858585858585,621.6565656565657 602.5858585858585,612.1212121212121 602.5858585858585,602.5858585858587 602.5858585858585,593.0505050505051 602.5858585858585,583.5151515151516 602.5858585858585,573.979797979798 602.5858585858585,564.4444444444445 602.5858585858585,554.909090909091 602.5858585858585,545.3737373737374 602.5858585858585,535.838383838384 602.5858585858585,526.3030303030304 602.5858585858585,516.7676767676768 602.5858585858585,507.23232323232327 602.5858585858585,497.69696969696975 602.5858585858585,488.1616161616163 602.5858585858585,478.6262626262627 602.5858585858585,469.0909090909092 602.5858585858585,459.5555555555556 602.5858585858585,450.0202020202021 602.5858585858585,440.4848484848486 602.5858585858585,430.94949494949503 602.5858585858585,421.4141414141415 602.5858585858585,411.87878787878793 602.5858585858585,402.3434343434344 602.5858585858585,392.80808080808094 602.5858585858585,383.27272727272737 602.5858585858585,373.73737373737384 602.5858585858585,364.2020202020203 602.5858585858585,354.66666666666674 602.5858585858585,345.1313131313133 602.5858585858585,335.5959595959597 602.5858585858585,326.06060606060623 602.5858585858585,316.5252525252526 602.5858585858585,306.9898989898991 602.5858585858585,297.4545454545456 602.5858585858585,287.91919191919203 602.5858585858585,278.38383838383857 602.5858585858585,268.84848484848493 602.5858585858585,259.3131313131314 602.5858585858585,249.77777777777794 602.5858585858585,240.24242424242436 602.5858585858585,230.70707070707084 602.5858585858585,221.17171717171726 602.5858585858585,211.63636363636374 602.5858585858585,202.10101010101027 602.5858585858585,192.56565656565675 602.5858585858585,183.03030303030312 602.5858585858585,173.4949494949496 602.5858585858585,163.95959595959613 602.5858585858585,154.4242424242426 602.5858585858585,144.88888888888908 602.5858585858585,135.35353535353545 602.5858585858585,125.81818181818198 602.5858585858585,116.28282828282846 602.5858585858585,106.747474747475 602.5858585858585,97.21212121212153 593.0505050505051,87.67676767676778 583.5151515151515,78.14141414141432 573.9797979797979,68.60606060606085 573.9797979797979,59.07070707070733 573.9797979797979,49.53535353535369 573.9797979797979,40.000000000000114" fill="none" stroke="rgba(0,0,255,0.75)" stroke-width="11.327999999999996"/></g><g><polyline data-points="-0.2525252525252522,5.000000000000002 -0.35353535353535287,4.898989898989901 -0.35353535353535287,4.7979797979797985 -0.35353535353535287,4.696969696969697 -0.4545454545454544,4.595959595959597 -0.4545454545454544,4.494949494949497 -0.4545454545454544,4.393939393939394 -0.4545454545454544,4.292929292929293 -0.4545454545454544,4.191919191919193 -0.4545454545454544,4.090909090909092 -0.4545454545454544,3.989898989898992 -0.555555555555555,3.8888888888888893" data-type="line" data-label="" points="488.16161616161617,40.000000000000114 478.62626262626264,49.53535353535369 478.62626262626264,59.07070707070733 478.62626262626264,68.60606060606085 469.09090909090907,78.14141414141432 469.09090909090907,87.67676767676778 469.09090909090907,97.21212121212153 469.09090909090907,106.747474747475 469.09090909090907,116.28282828282846 469.09090909090907,125.81818181818198 469.09090909090907,135.35353535353545 459.55555555555554,144.88888888888908" fill="none" stroke="rgba(0,0,255,0.75)" stroke-width="11.327999999999996"/></g><g><polyline data-points="-0.555555555555555,3.8888888888888893 -0.4545454545454544,3.7878787878787885 -0.35353535353535287,3.6868686868686877 -0.2525252525252522,3.5858585858585874 -0.15151515151515066,3.4848484848484866 -0.05050505050505001,3.383838383838384 0.050505050505051545,3.2828282828282833 0.1515151515151522,3.181818181818183 0.2525252525252529,3.080808080808082 0.3535353535353544,2.9797979797979806 0.4545454545454551,2.87878787878788 0.5555555555555567,2.7777777777777786 0.6565656565656574,2.676767676767678 0.7575757575757579,2.575757575757577 0.8585858585858596,2.4747474747474754 0.9595959595959602,2.373737373737375 1.0606060606060617,2.2727272727272734 1.1616161616161622,2.1717171717171726 1.262626262626263,2.070707070707072 1.3636363636363644,1.9696969696969702 1.4646464646464652,1.8686868686868696 1.5656565656565666,1.767676767676768 1.6666666666666674,1.6666666666666674 1.767676767676768,1.5656565656565666 1.8686868686868696,1.4646464646464652 1.9696969696969702,1.3636363636363644 2.070707070707072,1.262626262626263 2.1717171717171726,1.1616161616161622 2.2727272727272734,1.0606060606060617 2.373737373737375,0.9595959595959602 2.4747474747474754,0.8585858585858596 2.575757575757577,0.7575757575757579 2.676767676767678,0.6565656565656574 2.676767676767678,0.5555555555555567 2.676767676767678,0.4545454545454551 2.676767676767678,0.3535353535353544 2.676767676767678,0.2525252525252529 2.676767676767678,0.1515151515151522 2.676767676767678,0.050505050505051545 2.676767676767678,-0.05050505050505001 2.676767676767678,-0.15151515151515066 2.676767676767678,-0.2525252525252522 2.676767676767678,-0.35353535353535287 2.676767676767678,-0.4545454545454544 2.676767676767678,-0.555555555555555 2.676767676767678,-0.6565656565656557 2.676767676767678,-0.7575757575757572 2.676767676767678,-0.8585858585858579 2.676767676767678,-0.9595959595959596 2.676767676767678,-1.0606060606060603 2.676767676767678,-1.1616161616161613 2.676767676767678,-1.2626262626262625 2.676767676767678,-1.363636363636363 2.676767676767678,-1.4646464646464643 2.676767676767678,-1.5656565656565653 2.676767676767678,-1.6666666666666665 2.676767676767678,-1.7676767676767675 2.676767676767678,-1.8686868686868683 2.676767676767678,-1.9696969696969693 2.676767676767678,-2.07070707070707 2.676767676767678,-2.1717171717171713 2.676767676767678,-2.2727272727272725 2.676767676767678,-2.3737373737373733 2.676767676767678,-2.474747474747474 2.676767676767678,-2.5757575757575752 2.676767676767678,-2.6767676767676765 2.676767676767678,-2.7777777777777777 2.676767676767678,-2.8787878787878785 2.676767676767678,-2.9797979797979792 2.676767676767678,-3.0808080808080804 2.676767676767678,-3.1818181818181817 2.676767676767678,-3.2828282828282824 2.676767676767678,-3.383838383838383 2.676767676767678,-3.484848484848485 2.676767676767678,-3.5858585858585856 2.676767676767678,-3.6868686868686864 2.676767676767678,-3.7878787878787876 2.676767676767678,-3.8888888888888884 2.676767676767678,-3.98989898989899 2.676767676767678,-4.090909090909091 2.676767676767678,-4.191919191919193 2.676767676767678,-4.292929292929293 2.676767676767678,-4.393939393939394 2.676767676767678,-4.494949494949496 2.676767676767678,-4.595959595959596 2.676767676767678,-4.696969696969697 2.676767676767678,-4.7979797979797985 2.676767676767678,-4.898989898989899 2.676767676767678,-5.000000000000001" data-type="line" data-label="" points="459.55555555555554,144.88888888888908 469.09090909090907,154.4242424242426 478.62626262626264,163.95959595959613 488.16161616161617,173.4949494949496 497.69696969696975,183.03030303030312 507.2323232323232,192.56565656565675 516.7676767676768,202.10101010101027 526.3030303030303,211.63636363636374 535.8383838383838,221.17171717171726 545.3737373737374,230.70707070707084 554.9090909090909,240.24242424242436 564.4444444444445,249.77777777777794 573.9797979797979,259.3131313131314 583.5151515151515,268.84848484848493 593.0505050505051,278.38383838383857 602.5858585858585,287.91919191919203 612.1212121212121,297.4545454545456 621.6565656565656,306.9898989898991 631.1919191919192,316.5252525252526 640.7272727272727,326.06060606060623 650.2626262626262,335.5959595959597 659.7979797979798,345.1313131313133 669.3333333333333,354.66666666666674 678.8686868686868,364.2020202020203 688.4040404040404,373.73737373737384 697.9393939393939,383.27272727272737 707.4747474747475,392.80808080808094 717.0101010101009,402.3434343434344 726.5454545454545,411.87878787878793 736.0808080808081,421.4141414141415 745.6161616161615,430.94949494949503 755.1515151515151,440.4848484848486 764.6868686868686,450.0202020202021 764.6868686868686,459.5555555555556 764.6868686868686,469.0909090909092 764.6868686868686,478.6262626262627 764.6868686868686,488.1616161616163 764.6868686868686,497.69696969696975 764.6868686868686,507.23232323232327 764.6868686868686,516.7676767676768 764.6868686868686,526.3030303030304 764.6868686868686,535.838383838384 764.6868686868686,545.3737373737374 764.6868686868686,554.909090909091 764.6868686868686,564.4444444444445 764.6868686868686,573.979797979798 764.6868686868686,583.5151515151516 764.6868686868686,593.0505050505051 764.6868686868686,602.5858585858587 764.6868686868686,612.1212121212121 764.6868686868686,621.6565656565657 764.6868686868686,631.1919191919193 764.6868686868686,640.7272727272727 764.6868686868686,650.2626262626263 764.6868686868686,659.7979797979798 764.6868686868686,669.3333333333334 764.6868686868686,678.8686868686868 764.6868686868686,688.4040404040404 764.6868686868686,697.939393939394 764.6868686868686,707.4747474747475 764.6868686868686,717.010101010101 764.6868686868686,726.5454545454545 764.6868686868686,736.0808080808081 764.6868686868686,745.6161616161615 764.6868686868686,755.1515151515151 764.6868686868686,764.6868686868687 764.6868686868686,774.2222222222222 764.6868686868686,783.7575757575758 764.6868686868686,793.2929292929292 764.6868686868686,802.8282828282828 764.6868686868686,812.3636363636363 764.6868686868686,821.8989898989898 764.6868686868686,831.4343434343434 764.6868686868686,840.969696969697 764.6868686868686,850.5050505050505 764.6868686868686,860.0404040404039 764.6868686868686,869.5757575757575 764.6868686868686,879.1111111111111 764.6868686868686,888.6464646464647 764.6868686868686,898.1818181818181 764.6868686868686,907.7171717171718 764.6868686868686,917.2525252525252 764.6868686868686,926.7878787878788 764.6868686868686,936.3232323232323 764.6868686868686,945.8585858585858 764.6868686868686,955.3939393939394 764.6868686868686,964.9292929292928 764.6868686868686,974.4646464646464 764.6868686868686,984" fill="none" stroke="rgba(255,0,0,0.75)" stroke-width="11.327999999999996"/></g><g><polyline data-points="-4.191919191919193,-5.000000000000001 -4.090909090909091,-4.898989898989899 -3.98989898989899,-4.7979797979797985 -3.8888888888888884,-4.696969696969697 -3.7878787878787876,-4.595959595959596 -3.6868686868686864,-4.494949494949496 -3.5858585858585856,-4.393939393939394 -3.484848484848485,-4.292929292929293 -3.383838383838383,-4.191919191919193 -3.2828282828282824,-4.090909090909091 -3.1818181818181817,-3.98989898989899 -3.0808080808080804,-3.8888888888888884 -2.9797979797979792,-3.7878787878787876 -2.8787878787878785,-3.6868686868686864 -2.7777777777777777,-3.5858585858585856 -2.6767676767676765,-3.484848484848485 -2.5757575757575752,-3.383838383838383 -2.474747474747474,-3.2828282828282824 -2.3737373737373733,-3.1818181818181817 -2.2727272727272725,-3.0808080808080804 -2.1717171717171713,-2.9797979797979792 -2.07070707070707,-2.8787878787878785 -1.9696969696969693,-2.7777777777777777 -1.8686868686868683,-2.6767676767676765 -1.7676767676767675,-2.5757575757575752 -1.6666666666666665,-2.474747474747474 -1.5656565656565653,-2.3737373737373733 -1.4646464646464643,-2.2727272727272725 -1.363636363636363,-2.1717171717171713 -1.2626262626262625,-2.07070707070707 -1.2626262626262625,-1.9696969696969693 -1.2626262626262625,-1.8686868686868683 -1.2626262626262625,-1.7676767676767675 -1.2626262626262625,-1.6666666666666665 -1.2626262626262625,-1.5656565656565653 -1.2626262626262625,-1.4646464646464643 -1.2626262626262625,-1.363636363636363 -1.2626262626262625,-1.2626262626262625 -1.2626262626262625,-1.1616161616161613 -1.2626262626262625,-1.0606060606060603 -1.2626262626262625,-0.9595959595959596 -1.2626262626262625,-0.8585858585858579 -1.2626262626262625,-0.7575757575757572 -1.2626262626262625,-0.6565656565656557 -1.2626262626262625,-0.555555555555555 -1.2626262626262625,-0.4545454545454544 -1.2626262626262625,-0.35353535353535287 -1.2626262626262625,-0.2525252525252522 -1.2626262626262625,-0.15151515151515066 -1.2626262626262625,-0.05050505050505001 -1.2626262626262625,0.050505050505051545 -1.2626262626262625,0.1515151515151522 -1.2626262626262625,0.2525252525252529 -1.2626262626262625,0.3535353535353544 -1.2626262626262625,0.4545454545454551 -1.2626262626262625,0.5555555555555567 -1.2626262626262625,0.6565656565656574 -1.2626262626262625,0.7575757575757579 -1.2626262626262625,0.8585858585858596 -1.2626262626262625,0.9595959595959602 -1.2626262626262625,1.0606060606060617 -1.2626262626262625,1.1616161616161622 -1.2626262626262625,1.262626262626263 -1.2626262626262625,1.3636363636363644 -1.2626262626262625,1.4646464646464652 -1.2626262626262625,1.5656565656565666 -1.2626262626262625,1.6666666666666674 -1.2626262626262625,1.767676767676768 -1.2626262626262625,1.8686868686868696 -1.2626262626262625,1.9696969696969702 -1.2626262626262625,2.070707070707072 -1.2626262626262625,2.1717171717171726 -1.2626262626262625,2.2727272727272734 -1.2626262626262625,2.373737373737375 -1.2626262626262625,2.4747474747474754 -1.2626262626262625,2.575757575757577 -1.2626262626262625,2.676767676767678 -1.2626262626262625,2.7777777777777786 -1.2626262626262625,2.87878787878788 -1.2626262626262625,2.9797979797979806 -1.2626262626262625,3.080808080808082 -1.2626262626262625,3.181818181818183 -1.2626262626262625,3.2828282828282833 -1.2626262626262625,3.383838383838384 -1.2626262626262625,3.4848484848484866 -1.2626262626262625,3.5858585858585874 -1.2626262626262625,3.6868686868686877 -1.2626262626262625,3.7878787878787885 -1.2626262626262625,3.8888888888888893 -1.2626262626262625,3.989898989898992" data-type="line" data-label="" points="116.28282828282829,984 125.81818181818193,974.4646464646464 135.35353535353545,964.9292929292928 144.88888888888903,955.3939393939394 154.42424242424255,945.8585858585858 163.95959595959607,936.3232323232323 173.4949494949496,926.7878787878788 183.03030303030312,917.2525252525252 192.5656565656567,907.7171717171718 202.10101010101022,898.1818181818181 211.63636363636374,888.6464646464647 221.17171717171726,879.1111111111111 230.70707070707084,869.5757575757575 240.2424242424243,860.0404040404039 249.77777777777783,850.5050505050505 259.3131313131314,840.969696969697 268.84848484848493,831.4343434343434 278.38383838383845,821.8989898989898 287.91919191919203,812.3636363636363 297.4545454545455,802.8282828282828 306.9898989898991,793.2929292929292 316.5252525252526,783.7575757575758 326.0606060606061,774.2222222222222 335.59595959595964,764.6868686868687 345.13131313131316,755.1515151515151 354.6666666666667,745.6161616161615 364.2020202020202,736.0808080808081 373.7373737373738,726.5454545454545 383.2727272727273,717.010101010101 392.80808080808083,707.4747474747475 392.80808080808083,697.939393939394 392.80808080808083,688.4040404040404 392.80808080808083,678.8686868686868 392.80808080808083,669.3333333333334 392.80808080808083,659.7979797979798 392.80808080808083,650.2626262626263 392.80808080808083,640.7272727272727 392.80808080808083,631.1919191919193 392.80808080808083,621.6565656565657 392.80808080808083,612.1212121212121 392.80808080808083,602.5858585858587 392.80808080808083,593.0505050505051 392.80808080808083,583.5151515151516 392.80808080808083,573.979797979798 392.80808080808083,564.4444444444445 392.80808080808083,554.909090909091 392.80808080808083,545.3737373737374 392.80808080808083,535.838383838384 392.80808080808083,526.3030303030304 392.80808080808083,516.7676767676768 392.80808080808083,507.23232323232327 392.80808080808083,497.69696969696975 392.80808080808083,488.1616161616163 392.80808080808083,478.6262626262627 392.80808080808083,469.0909090909092 392.80808080808083,459.5555555555556 392.80808080808083,450.0202020202021 392.80808080808083,440.4848484848486 392.80808080808083,430.94949494949503 392.80808080808083,421.4141414141415 392.80808080808083,411.87878787878793 392.80808080808083,402.3434343434344 392.80808080808083,392.80808080808094 392.80808080808083,383.27272727272737 392.80808080808083,373.73737373737384 392.80808080808083,364.2020202020203 392.80808080808083,354.66666666666674 392.80808080808083,345.1313131313133 392.80808080808083,335.5959595959597 392.80808080808083,326.06060606060623 392.80808080808083,316.5252525252526 392.80808080808083,306.9898989898991 392.80808080808083,297.4545454545456 392.80808080808083,287.91919191919203 392.80808080808083,278.38383838383857 392.80808080808083,268.84848484848493 392.80808080808083,259.3131313131314 392.80808080808083,249.77777777777794 392.80808080808083,240.24242424242436 392.80808080808083,230.70707070707084 392.80808080808083,221.17171717171726 392.80808080808083,211.63636363636374 392.80808080808083,202.10101010101027 392.80808080808083,192.56565656565675 392.80808080808083,183.03030303030312 392.80808080808083,173.4949494949496 392.80808080808083,163.95959595959613 392.80808080808083,154.4242424242426 392.80808080808083,144.88888888888908 392.80808080808083,135.35353535353545" fill="none" stroke="rgba(255,0,0,0.75)" stroke-width="11.327999999999996"/></g><g><polyline data-points="-1.2626262626262625,3.989898989898992 -1.2626262626262625,4.090909090909092 -1.2626262626262625,4.191919191919193 -1.2626262626262625,4.292929292929293 -1.2626262626262625,4.393939393939394 -1.2626262626262625,4.494949494949497 -1.2626262626262625,4.595959595959597 -1.2626262626262625,4.696969696969697 -1.2626262626262625,4.7979797979797985 -1.2626262626262625,4.898989898989901 -1.2626262626262625,5.000000000000002" data-type="line" data-label="" points="392.80808080808083,135.35353535353545 392.80808080808083,125.81818181818198 392.80808080808083,116.28282828282846 392.80808080808083,106.747474747475 392.80808080808083,97.21212121212153 392.80808080808083,87.67676767676778 392.80808080808083,78.14141414141432 392.80808080808083,68.60606060606085 392.80808080808083,59.07070707070733 392.80808080808083,49.53535353535369 392.80808080808083,40.000000000000114" fill="none" stroke="rgba(0,0,255,0.75)" stroke-width="11.327999999999996"/></g><g><polyline data-points="-5.000000000000001,-3.383838383838383 -4.898989898989899,-3.2828282828282824 -4.7979797979797985,-3.1818181818181817 -4.696969696969697,-3.0808080808080804 -4.595959595959596,-2.9797979797979792 -4.494949494949496,-2.8787878787878785 -4.393939393939394,-2.7777777777777777 -4.292929292929293,-2.6767676767676765 -4.191919191919193,-2.5757575757575752 -4.090909090909091,-2.474747474747474 -3.98989898989899,-2.3737373737373733 -3.8888888888888884,-2.2727272727272725 -3.7878787878787876,-2.1717171717171713 -3.6868686868686864,-2.07070707070707 -3.5858585858585856,-1.9696969696969693 -3.484848484848485,-1.8686868686868683 -3.383838383838383,-1.7676767676767675 -3.2828282828282824,-1.6666666666666665 -3.1818181818181817,-1.5656565656565653 -3.0808080808080804,-1.4646464646464643 -2.9797979797979792,-1.363636363636363 -2.8787878787878785,-1.2626262626262625 -2.7777777777777777,-1.1616161616161613 -2.6767676767676765,-1.0606060606060603 -2.5757575757575752,-0.9595959595959596 -2.474747474747474,-0.8585858585858579 -2.3737373737373733,-0.7575757575757572 -2.2727272727272725,-0.6565656565656557 -2.1717171717171713,-0.555555555555555 -2.07070707070707,-0.4545454545454544 -1.9696969696969693,-0.35353535353535287 -1.8686868686868683,-0.2525252525252522 -1.7676767676767675,-0.15151515151515066 -1.6666666666666665,-0.05050505050505001 -1.6666666666666665,0.050505050505051545 -1.6666666666666665,0.1515151515151522 -1.6666666666666665,0.2525252525252529 -1.6666666666666665,0.3535353535353544 -1.6666666666666665,0.4545454545454551 -1.6666666666666665,0.5555555555555567 -1.6666666666666665,0.6565656565656574 -1.6666666666666665,0.7575757575757579 -1.6666666666666665,0.8585858585858596 -1.6666666666666665,0.9595959595959602 -1.6666666666666665,1.0606060606060617 -1.6666666666666665,1.1616161616161622 -1.6666666666666665,1.262626262626263 -1.6666666666666665,1.3636363636363644 -1.6666666666666665,1.4646464646464652 -1.6666666666666665,1.5656565656565666 -1.6666666666666665,1.6666666666666674 -1.6666666666666665,1.767676767676768 -1.6666666666666665,1.8686868686868696 -1.6666666666666665,1.9696969696969702 -1.6666666666666665,2.070707070707072 -1.6666666666666665,2.1717171717171726 -1.6666666666666665,2.2727272727272734 -1.6666666666666665,2.373737373737375 -1.6666666666666665,2.4747474747474754 -1.6666666666666665,2.575757575757577 -1.6666666666666665,2.676767676767678 -1.6666666666666665,2.7777777777777786 -1.6666666666666665,2.87878787878788 -1.6666666666666665,2.9797979797979806" data-type="line" data-label="" points="40.00000000000006,831.4343434343434 49.53535353535369,821.8989898989898 59.07070707070716,812.3636363636363 68.60606060606068,802.8282828282828 78.14141414141426,793.2929292929292 87.67676767676772,783.7575757575758 97.21212121212136,774.2222222222222 106.74747474747483,764.6868686868687 116.28282828282829,755.1515151515151 125.81818181818193,745.6161616161615 135.35353535353545,736.0808080808081 144.88888888888903,726.5454545454545 154.42424242424255,717.010101010101 163.95959595959607,707.4747474747475 173.4949494949496,697.939393939394 183.03030303030312,688.4040404040404 192.5656565656567,678.8686868686868 202.10101010101022,669.3333333333334 211.63636363636374,659.7979797979798 221.17171717171726,650.2626262626263 230.70707070707084,640.7272727272727 240.2424242424243,631.1919191919193 249.77777777777783,621.6565656565657 259.3131313131314,612.1212121212121 268.84848484848493,602.5858585858587 278.38383838383845,593.0505050505051 287.91919191919203,583.5151515151516 297.4545454545455,573.979797979798 306.9898989898991,564.4444444444445 316.5252525252526,554.909090909091 326.0606060606061,545.3737373737374 335.59595959595964,535.838383838384 345.13131313131316,526.3030303030304 354.6666666666667,516.7676767676768 354.6666666666667,507.23232323232327 354.6666666666667,497.69696969696975 354.6666666666667,488.1616161616163 354.6666666666667,478.6262626262627 354.6666666666667,469.0909090909092 354.6666666666667,459.5555555555556 354.6666666666667,450.0202020202021 354.6666666666667,440.4848484848486 354.6666666666667,430.94949494949503 354.6666666666667,421.4141414141415 354.6666666666667,411.87878787878793 354.6666666666667,402.3434343434344 354.6666666666667,392.80808080808094 354.6666666666667,383.27272727272737 354.6666666666667,373.73737373737384 354.6666666666667,364.2020202020203 354.6666666666667,354.66666666666674 354.6666666666667,345.1313131313133 354.6666666666667,335.5959595959597 354.6666666666667,326.06060606060623 354.6666666666667,316.5252525252526 354.6666666666667,306.9898989898991 354.6666666666667,297.4545454545456 354.6666666666667,287.91919191919203 354.6666666666667,278.38383838383857 354.6666666666667,268.84848484848493 354.6666666666667,259.3131313131314 354.6666666666667,249.77777777777794 354.6666666666667,240.24242424242436 354.6666666666667,230.70707070707084" fill="none" stroke="rgba(0,0,255,0.75)" stroke-width="11.327999999999996"/></g><g><polyline data-points="-1.6666666666666665,2.9797979797979806 -1.5656565656565653,3.080808080808082 -1.5656565656565653,3.181818181818183 -1.5656565656565653,3.2828282828282833 -1.5656565656565653,3.383838383838384 -1.5656565656565653,3.4848484848484866 -1.5656565656565653,3.5858585858585874 -1.5656565656565653,3.6868686868686877 -1.5656565656565653,3.7878787878787885 -1.5656565656565653,3.8888888888888893 -1.5656565656565653,3.989898989898992 -1.4646464646464643,4.090909090909092 -1.363636363636363,4.191919191919193 -1.2626262626262625,4.292929292929293 -1.1616161616161613,4.393939393939394 -1.1616161616161613,4.494949494949497 -1.1616161616161613,4.595959595959597 -1.1616161616161613,4.696969696969697 -1.1616161616161613,4.7979797979797985 -1.1616161616161613,4.898989898989901 -1.1616161616161613,5.000000000000002" data-type="line" data-label="" points="354.6666666666667,230.70707070707084 364.2020202020202,221.17171717171726 364.2020202020202,211.63636363636374 364.2020202020202,202.10101010101027 364.2020202020202,192.56565656565675 364.2020202020202,183.03030303030312 364.2020202020202,173.4949494949496 364.2020202020202,163.95959595959613 364.2020202020202,154.4242424242426 364.2020202020202,144.88888888888908 364.2020202020202,135.35353535353545 373.7373737373738,125.81818181818198 383.2727272727273,116.28282828282846 392.80808080808083,106.747474747475 402.34343434343435,97.21212121212153 402.34343434343435,87.67676767676778 402.34343434343435,78.14141414141432 402.34343434343435,68.60606060606085 402.34343434343435,59.07070707070733 402.34343434343435,49.53535353535369 402.34343434343435,40.000000000000114" fill="none" stroke="rgba(255,0,0,0.75)" stroke-width="11.327999999999996"/></g><g><polyline data-points="1.262626262626263,5.000000000000002 1.262626262626263,4.898989898989901 1.262626262626263,4.7979797979797985 1.262626262626263,4.696969696969697 1.262626262626263,4.595959595959597 1.262626262626263,4.494949494949497 1.262626262626263,4.393939393939394 1.262626262626263,4.292929292929293 1.262626262626263,4.191919191919193 1.262626262626263,4.090909090909092 1.3636363636363644,3.989898989898992" data-type="line" data-label="" points="631.1919191919192,40.000000000000114 631.1919191919192,49.53535353535369 631.1919191919192,59.07070707070733 631.1919191919192,68.60606060606085 631.1919191919192,78.14141414141432 631.1919191919192,87.67676767676778 631.1919191919192,97.21212121212153 631.1919191919192,106.747474747475 631.1919191919192,116.28282828282846 631.1919191919192,125.81818181818198 640.7272727272727,135.35353535353545" fill="none" stroke="rgba(0,0,255,0.75)" stroke-width="11.327999999999996"/></g><g><polyline data-points="1.3636363636363644,3.989898989898992 1.262626262626263,3.989898989898992 1.1616161616161622,3.8888888888888893 1.0606060606060617,3.7878787878787885 0.9595959595959602,3.6868686868686877 0.8585858585858596,3.5858585858585874 0.7575757575757579,3.4848484848484866 0.6565656565656574,3.383838383838384 0.5555555555555567,3.2828282828282833" data-type="line" data-label="" points="640.7272727272727,135.35353535353545 631.1919191919192,135.35353535353545 621.6565656565656,144.88888888888908 612.1212121212121,154.4242424242426 602.5858585858585,163.95959595959613 593.0505050505051,173.4949494949496 583.5151515151515,183.03030303030312 573.9797979797979,192.56565656565675 564.4444444444445,202.10101010101027" fill="none" stroke="rgba(255,0,0,0.75)" stroke-width="11.327999999999996"/></g><g><polyline data-points="0.5555555555555567,3.2828282828282833 0.4545454545454551,3.181818181818183 0.3535353535353544,3.080808080808082 0.2525252525252529,2.9797979797979806 0.2525252525252529,2.87878787878788 0.2525252525252529,2.7777777777777786 0.2525252525252529,2.676767676767678 0.2525252525252529,2.575757575757577" data-type="line" data-label="" points="564.4444444444445,202.10101010101027 554.9090909090909,211.63636363636374 545.3737373737374,221.17171717171726 535.8383838383838,230.70707070707084 535.8383838383838,240.24242424242436 535.8383838383838,249.77777777777794 535.8383838383838,259.3131313131314 535.8383838383838,268.84848484848493" fill="none" stroke="rgba(0,0,255,0.75)" stroke-width="11.327999999999996"/></g><g><polyline data-points="0.2525252525252529,2.575757575757577 0.1515151515151522,2.4747474747474754 0.050505050505051545,2.373737373737375 -0.05050505050505001,2.2727272727272734 -0.15151515151515066,2.1717171717171726 -0.2525252525252522,2.070707070707072 -0.35353535353535287,1.9696969696969702 -0.4545454545454544,1.8686868686868696 -0.555555555555555,1.767676767676768 -0.6565656565656557,1.6666666666666674 -0.7575757575757572,1.5656565656565666" data-type="line" data-label="" points="535.8383838383838,268.84848484848493 526.3030303030303,278.38383838383857 516.7676767676768,287.91919191919203 507.2323232323232,297.4545454545456 497.69696969696975,306.9898989898991 488.16161616161617,316.5252525252526 478.62626262626264,326.06060606060623 469.09090909090907,335.5959595959597 459.55555555555554,345.1313131313133 450.0202020202021,354.66666666666674 440.4848484848485,364.2020202020203" fill="none" stroke="rgba(255,0,0,0.75)" stroke-width="11.327999999999996"/></g><g><polyline data-points="-0.7575757575757572,1.5656565656565666 -0.8585858585858579,1.4646464646464652 -0.9595959595959596,1.3636363636363644 -1.0606060606060603,1.262626262626263 -1.1616161616161613,1.1616161616161622 -1.2626262626262625,1.0606060606060617 -1.363636363636363,0.9595959595959602 -1.4646464646464643,0.8585858585858596 -1.4646464646464643,0.7575757575757579 -1.4646464646464643,0.6565656565656574 -1.4646464646464643,0.5555555555555567 -1.4646464646464643,0.4545454545454551 -1.4646464646464643,0.3535353535353544 -1.4646464646464643,0.2525252525252529 -1.4646464646464643,0.1515151515151522 -1.4646464646464643,0.050505050505051545 -1.4646464646464643,-0.05050505050505001 -1.4646464646464643,-0.15151515151515066 -1.5656565656565653,-0.2525252525252522 -1.6666666666666665,-0.35353535353535287 -1.6666666666666665,-0.4545454545454544 -1.6666666666666665,-0.555555555555555" data-type="line" data-label="" points="440.4848484848485,364.2020202020203 430.949494949495,373.73737373737384 421.4141414141414,383.27272727272737 411.8787878787879,392.80808080808094 402.34343434343435,402.3434343434344 392.80808080808083,411.87878787878793 383.2727272727273,421.4141414141415 373.7373737373738,430.94949494949503 373.7373737373738,440.4848484848486 373.7373737373738,450.0202020202021 373.7373737373738,459.5555555555556 373.7373737373738,469.0909090909092 373.7373737373738,478.6262626262627 373.7373737373738,488.1616161616163 373.7373737373738,497.69696969696975 373.7373737373738,507.23232323232327 373.7373737373738,516.7676767676768 373.7373737373738,526.3030303030304 364.2020202020202,535.838383838384 354.6666666666667,545.3737373737374 354.6666666666667,554.909090909091 354.6666666666667,564.4444444444445" fill="none" stroke="rgba(0,0,255,0.75)" stroke-width="11.327999999999996"/></g><g><polyline data-points="-1.6666666666666665,-0.555555555555555 -1.7676767676767675,-0.4545454545454544 -1.8686868686868683,-0.35353535353535287 -1.9696969696969693,-0.2525252525252522 -2.07070707070707,-0.15151515151515066 -2.1717171717171713,-0.05050505050505001 -2.2727272727272725,0.050505050505051545 -2.3737373737373733,0.1515151515151522 -2.474747474747474,0.2525252525252529 -2.5757575757575752,0.3535353535353544 -2.6767676767676765,0.4545454545454551 -2.7777777777777777,0.5555555555555567 -2.8787878787878785,0.6565656565656574 -2.9797979797979792,0.7575757575757579 -2.9797979797979792,0.8585858585858596 -2.9797979797979792,0.9595959595959602 -2.9797979797979792,1.0606060606060617 -2.9797979797979792,1.1616161616161622 -2.9797979797979792,1.262626262626263 -2.9797979797979792,1.3636363636363644 -2.9797979797979792,1.4646464646464652 -2.9797979797979792,1.5656565656565666 -2.9797979797979792,1.6666666666666674 -2.9797979797979792,1.767676767676768 -2.9797979797979792,1.8686868686868696 -2.9797979797979792,1.9696969696969702 -2.9797979797979792,2.070707070707072 -2.9797979797979792,2.1717171717171726 -2.9797979797979792,2.2727272727272734 -2.9797979797979792,2.373737373737375 -2.9797979797979792,2.4747474747474754 -2.9797979797979792,2.575757575757577 -2.9797979797979792,2.676767676767678 -2.9797979797979792,2.7777777777777786 -2.9797979797979792,2.87878787878788 -2.9797979797979792,2.9797979797979806 -2.9797979797979792,3.080808080808082 -2.9797979797979792,3.181818181818183 -2.9797979797979792,3.2828282828282833 -2.9797979797979792,3.383838383838384 -2.9797979797979792,3.4848484848484866 -2.9797979797979792,3.5858585858585874 -2.9797979797979792,3.6868686868686877 -2.9797979797979792,3.7878787878787885 -2.9797979797979792,3.8888888888888893 -2.9797979797979792,3.989898989898992 -2.9797979797979792,4.090909090909092 -2.9797979797979792,4.191919191919193 -2.9797979797979792,4.292929292929293 -2.9797979797979792,4.393939393939394 -2.9797979797979792,4.494949494949497 -2.9797979797979792,4.595959595959597 -2.9797979797979792,4.696969696969697 -2.9797979797979792,4.7979797979797985 -2.9797979797979792,4.898989898989901 -2.9797979797979792,5.000000000000002" data-type="line" data-label="" points="354.6666666666667,564.4444444444445 345.13131313131316,554.909090909091 335.59595959595964,545.3737373737374 326.0606060606061,535.838383838384 316.5252525252526,526.3030303030304 306.9898989898991,516.7676767676768 297.4545454545455,507.23232323232327 287.91919191919203,497.69696969696975 278.38383838383845,488.1616161616163 268.84848484848493,478.6262626262627 259.3131313131314,469.0909090909092 249.77777777777783,459.5555555555556 240.2424242424243,450.0202020202021 230.70707070707084,440.4848484848486 230.70707070707084,430.94949494949503 230.70707070707084,421.4141414141415 230.70707070707084,411.87878787878793 230.70707070707084,402.3434343434344 230.70707070707084,392.80808080808094 230.70707070707084,383.27272727272737 230.70707070707084,373.73737373737384 230.70707070707084,364.2020202020203 230.70707070707084,354.66666666666674 230.70707070707084,345.1313131313133 230.70707070707084,335.5959595959597 230.70707070707084,326.06060606060623 230.70707070707084,316.5252525252526 230.70707070707084,306.9898989898991 230.70707070707084,297.4545454545456 230.70707070707084,287.91919191919203 230.70707070707084,278.38383838383857 230.70707070707084,268.84848484848493 230.70707070707084,259.3131313131314 230.70707070707084,249.77777777777794 230.70707070707084,240.24242424242436 230.70707070707084,230.70707070707084 230.70707070707084,221.17171717171726 230.70707070707084,211.63636363636374 230.70707070707084,202.10101010101027 230.70707070707084,192.56565656565675 230.70707070707084,183.03030303030312 230.70707070707084,173.4949494949496 230.70707070707084,163.95959595959613 230.70707070707084,154.4242424242426 230.70707070707084,144.88888888888908 230.70707070707084,135.35353535353545 230.70707070707084,125.81818181818198 230.70707070707084,116.28282828282846 230.70707070707084,106.747474747475 230.70707070707084,97.21212121212153 230.70707070707084,87.67676767676778 230.70707070707084,78.14141414141432 230.70707070707084,68.60606060606085 230.70707070707084,59.07070707070733 230.70707070707084,49.53535353535369 230.70707070707084,40.000000000000114" fill="none" stroke="rgba(255,0,0,0.75)" stroke-width="11.327999999999996"/></g><g><rect data-type="rect" data-label="" data-x="0" data-y="0" x="40.000000000000114" y="40.000000000000284" width="943.9999999999997" height="943.9999999999998" fill="none" stroke="gray" stroke-width="0.010593220338983056"/></g><g><rect data-type="rect" data-label="" data-x="0" data-y="0" x="40.000000000000114" y="40.000000000000284" width="943.9999999999997" height="943.9999999999998" fill="none" stroke="rgba(15, 23, 42, 0.8)" stroke-width="0.010593220338983056"/></g><circle data-type="circle" data-label="" data-x="-0.555555555555555" data-y="3.8888888888888893" cx="459.55555555555554" cy="144.88888888888908" r="14.159999999999995" fill="rgba(0,0,0,0.3)" stroke="black" stroke-width="0.010593220338983056"/><circle data-type="circle" data-label="" data-x="-1.2626262626262625" data-y="3.989898989898992" cx="392.80808080808083" cy="135.35353535353545" r="14.159999999999995" fill="rgba(0,0,0,0.3)" stroke="black" stroke-width="0.010593220338983056"/><circle data-type="circle" data-label="" data-x="-1.6666666666666665" data-y="2.9797979797979806" cx="354.6666666666667" cy="230.70707070707084" r="14.159999999999995" fill="rgba(0,0,0,0.3)" stroke="black" stroke-width="0.010593220338983056"/><circle data-type="circle" data-label="" data-x="1.3636363636363644" data-y="3.989898989898992" cx="640.7272727272727" cy="135.35353535353545" r="14.159999999999995" fill="rgba(0,0,0,0.3)" stroke="black" stroke-width="0.010593220338983056"/><circle data-type="circle" data-label="" data-x="0.5555555555555567" data-y="3.2828282828282833" cx="564.4444444444445" cy="202.10101010101027" r="14.159999999999995" fill="rgba(0,0,0,0.3)" stroke="black" stroke-width="0.010593220338983056"/><circle data-type="circle" data-label="" data-x="0.2525252525252529" data-y="2.575757575757577" cx="535.8383838383838" cy="268.84848484848493" r="14.159999999999995" fill="rgba(0,0,0,0.3)" stroke="black" stroke-width="0.010593220338983056"/><circle data-type="circle" data-label="" data-x="-0.7575757575757572" data-y="1.5656565656565666" cx="440.4848484848485" cy="364.2020202020203" r="14.159999999999995" fill="rgba(0,0,0,0.3)" stroke="black" stroke-width="0.010593220338983056"/><circle data-type="circle" data-label="" data-x="-1.6666666666666665" data-y="-0.555555555555555" cx="354.6666666666667" cy="564.4444444444445" r="14.159999999999995" fill="rgba(0,0,0,0.3)" stroke="black" stroke-width="0.010593220338983056"/><g id="crosshair" style="display: none"><line id="crosshair-h" y1="0" y2="1024" stroke="#666" stroke-width="0.5"/><line id="crosshair-v" x1="0" x2="1024" stroke="#666" stroke-width="0.5"/><text id="coordinates" font-family="monospace" font-size="12" fill="#666"></text></g><script><![CDATA[
              document.currentScript.parentElement.addEventListener('mousemove', (e) => {
                const svg = e.currentTarget;
                const rect = svg.getBoundingClientRect();
                const x = e.clientX - rect.left;
                const y = e.clientY - rect.top;
                const crosshair = svg.getElementById('crosshair');
                const h = svg.getElementById('crosshair-h');
                const v = svg.getElementById('crosshair-v');
                const coords = svg.getElementById('coordinates');
                
                crosshair.style.display = 'block';
                h.setAttribute('x1', '0');
                h.setAttribute('x2', '1024');
                h.setAttribute('y1', y);
                h.setAttribute('y2', y);
                v.setAttribute('x1', x);
                v.setAttribute('x2', x);
                v.setAttribute('y1', '0');
                v.setAttribute('y2', '1024');

                // Calculate real coordinates using inverse transformation
                const matrix = {"a":94.39999999999996,"c":0,"e":511.99999999999994,"b":0,"d":-94.39999999999996,"f":512.0000000000001};
                // Manually invert and apply the affine transform
                // Since we only use translate and scale, we can directly compute:
                // x' = (x - tx) / sx
                // y' = (y - ty) / sy
                const sx = matrix.a;
                const sy = matrix.d;
                const tx = matrix.e; 
                const ty = matrix.f;
                const realPoint = {
                  x: (x - tx) / sx,
                  y: (y - ty) / sy // Flip y back since we used negative scale
                }
                
                coords.textContent = `(${realPoint.x.toFixed(2)}, ${realPoint.y.toFixed(2)})`;
                coords.setAttribute('x', (x + 5).toString());
                coords.setAttribute('y', (y - 5).toString());
              });
              document.currentScript.parentElement.addEventListener('mouseleave', () => {
                document.currentScript.parentElement.getElementById('crosshair').style.display = 'none';
              });
            ]]></script></svg>