<svg width="1024" height="1024" viewBox="0 0 1024 1024" xmlns="http://www.w3.org/2000/svg"><rect width="100%" height="100%" fill="white"/><g><circle data-type="point" data-label="conn_000" data-x="5" data-y="-4.6000000000000005" cx="983.9999999999998" cy="946.24" r="14.16" fill="red"/></g><g><circle data-type="point" data-label="conn_000" data-x="-5" data-y="3.6" cx="40.000000000000114" cy="172.16000000000025" r="14.16" fill="red"/></g><g><circle data-type="point" data-label="conn_001" data-x="5" data-y="0.28" cx="983.9999999999998" cy="485.5680000000001" r="14.16" fill="blue"/></g><g><circle data-type="point" data-label="conn_001" data-x="-0.22" data-y="5" cx="491.23199999999997" cy="40.000000000000284" r="14.16" fill="blue"/></g><g><circle data-type="point" data-label="conn_002" data-x="4.68" data-y="5" cx="953.7919999999997" cy="40.000000000000284" r="14.16" fill="blue"/></g><g><circle data-type="point" data-label="conn_002" data-x="-1.86" data-y="-5" cx="336.416" cy="984" r="14.16" fill="red"/></g><g><circle data-type="point" data-label="conn_003" data-x="5" data-y="0.84" cx="983.9999999999998" cy="432.7040000000002" r="14.16" fill="blue"/></g><g><circle data-type="point" data-label="conn_003" data-x="-0.44" data-y="5" cx="470.46399999999994" cy="40.000000000000284" r="14.16" fill="blue"/></g><g><circle data-type="point" data-label="conn_004" data-x="5" data-y="-0.8" cx="983.9999999999998" cy="587.5200000000001" r="14.16" fill="blue"/></g><g><circle data-type="point" data-label="conn_004" data-x="-5" data-y="-0.9400000000000001" cx="40.000000000000114" cy="600.7360000000001" r="14.16" fill="blue"/></g><g><circle data-type="point" data-label="conn_005" data-x="-5" data-y="-0.32" cx="40.000000000000114" cy="542.2080000000001" r="14.16" fill="red"/></g><g><circle data-type="point" data-label="conn_005" data-x="5" data-y="-0.34" cx="983.9999999999998" cy="544.0960000000001" r="14.16" fill="blue"/></g><g><circle data-type="point" data-label="conn_006" data-x="5" data-y="-3.18" cx="983.9999999999998" cy="812.192" r="14.16" fill="blue"/></g><g><circle data-type="point" data-label="conn_006" data-x="-5" data-y="2.66" cx="40.000000000000114" cy="260.8960000000002" r="14.16" fill="blue"/></g><g><circle data-type="point" data-label="conn_007" data-x="5" data-y="-4.08" cx="983.9999999999998" cy="897.152" r="14.16" fill="blue"/></g><g><circle data-type="point" data-label="conn_007" data-x="-5" data-y="-5" cx="40.000000000000114" cy="984" r="14.16" fill="blue"/></g><g><circle data-type="point" data-label="conn_008" data-x="5" data-y="2.32" cx="983.9999999999998" cy="292.9920000000002" r="14.16" fill="red"/></g><g><circle data-type="point" data-label="conn_008" data-x="-5" data-y="-2.2800000000000002" cx="40.000000000000114" cy="727.2320000000001" r="14.16" fill="blue"/></g><g><circle data-type="point" data-label="conn_009" data-x="5" data-y="-1.6" cx="983.9999999999998" cy="663.0400000000001" r="14.16" fill="red"/></g><g><circle data-type="point" data-label="conn_009" data-x="-3.94" data-y="5" cx="140.06400000000008" cy="40.000000000000284" r="14.16" fill="red"/></g><g><polyline data-points="5.000000000000002,-4.696969696969697 4.898989898989901,-4.595959595959596 4.7979797979797985,-4.494949494949496 4.696969696969697,-4.393939393939394 4.595959595959597,-4.292929292929293 4.494949494949497,-4.191919191919193 4.393939393939394,-4.090909090909091 4.292929292929293,-3.98989898989899 4.191919191919193,-3.8888888888888884 4.090909090909092,-3.7878787878787876 3.989898989898992,-3.6868686868686864 3.8888888888888893,-3.5858585858585856 3.7878787878787885,-3.484848484848485 3.6868686868686877,-3.383838383838383 3.5858585858585874,-3.2828282828282824 3.4848484848484866,-3.1818181818181817 3.383838383838384,-3.0808080808080804 3.2828282828282833,-2.9797979797979792 3.181818181818183,-2.8787878787878785 3.080808080808082,-2.7777777777777777 2.9797979797979806,-2.6767676767676765 2.87878787878788,-2.5757575757575752 2.7777777777777786,-2.474747474747474 2.676767676767678,-2.3737373737373733 2.575757575757577,-2.2727272727272725 2.4747474747474754,-2.1717171717171713 2.373737373737375,-2.07070707070707 2.2727272727272734,-1.9696969696969693 2.1717171717171726,-1.8686868686868683 2.070707070707072,-1.7676767676767675 1.9696969696969702,-1.6666666666666665 1.8686868686868696,-1.5656565656565653 1.767676767676768,-1.4646464646464643 1.6666666666666674,-1.363636363636363 1.5656565656565666,-1.2626262626262625 1.4646464646464652,-1.1616161616161613 1.3636363636363644,-1.0606060606060603 1.262626262626263,-0.9595959595959596 1.1616161616161622,-0.8585858585858579 1.0606060606060617,-0.7575757575757572 0.9595959595959602,-0.6565656565656557 0.8585858585858596,-0.555555555555555 0.7575757575757579,-0.4545454545454544 0.6565656565656574,-0.35353535353535287 0.5555555555555567,-0.2525252525252522 0.4545454545454551,-0.15151515151515066 0.3535353535353544,-0.05050505050505001 0.2525252525252529,0.050505050505051545 0.1515151515151522,0.1515151515151522 0.050505050505051545,0.2525252525252529 -0.05050505050505001,0.3535353535353544 -0.15151515151515066,0.4545454545454551 -0.2525252525252522,0.5555555555555567 -0.35353535353535287,0.6565656565656574 -0.4545454545454544,0.7575757575757579 -0.555555555555555,0.8585858585858596 -0.6565656565656557,0.9595959595959602 -0.7575757575757572,1.0606060606060617 -0.8585858585858579,1.1616161616161622 -0.9595959595959596,1.262626262626263 -1.0606060606060603,1.3636363636363644 -1.1616161616161613,1.4646464646464652 -1.2626262626262625,1.5656565656565666 -1.363636363636363,1.6666666666666674 -1.4646464646464643,1.767676767676768 -1.5656565656565653,1.8686868686868696 -1.6666666666666665,1.9696969696969702 -1.7676767676767675,2.070707070707072 -1.8686868686868683,2.1717171717171726 -1.9696969696969693,2.2727272727272734 -2.07070707070707,2.373737373737375 -2.1717171717171713,2.4747474747474754 -2.2727272727272725,2.575757575757577 -2.3737373737373733,2.676767676767678 -2.474747474747474,2.7777777777777786 -2.5757575757575752,2.87878787878788 -2.6767676767676765,2.9797979797979806 -2.7777777777777777,3.080808080808082 -2.8787878787878785,3.181818181818183 -2.9797979797979792,3.2828282828282833 -3.0808080808080804,3.383838383838384 -3.1818181818181817,3.4848484848484866 -3.2828282828282824,3.5858585858585874 -3.383838383838383,3.5858585858585874 -3.484848484848485,3.5858585858585874 -3.5858585858585856,3.5858585858585874 -3.6868686868686864,3.5858585858585874 -3.7878787878787876,3.5858585858585874 -3.8888888888888884,3.5858585858585874 -3.98989898989899,3.5858585858585874 -4.090909090909091,3.5858585858585874 -4.191919191919193,3.5858585858585874 -4.292929292929293,3.5858585858585874 -4.393939393939394,3.5858585858585874 -4.494949494949496,3.5858585858585874 -4.595959595959596,3.5858585858585874 -4.696969696969697,3.5858585858585874 -4.7979797979797985,3.5858585858585874 -4.898989898989899,3.5858585858585874 -5.000000000000001,3.5858585858585874" data-type="line" data-label="" points="984,955.3939393939394 974.4646464646464,945.8585858585858 964.9292929292927,936.3232323232323 955.3939393939393,926.7878787878788 945.8585858585857,917.2525252525252 936.3232323232323,907.7171717171718 926.7878787878785,898.1818181818181 917.2525252525251,888.6464646464647 907.7171717171716,879.1111111111111 898.181818181818,869.5757575757575 888.6464646464647,860.0404040404039 879.111111111111,850.5050505050505 869.5757575757575,840.969696969697 860.0404040404039,831.4343434343434 850.5050505050505,821.8989898989898 840.969696969697,812.3636363636363 831.4343434343433,802.8282828282828 821.8989898989898,793.2929292929292 812.3636363636363,783.7575757575758 802.8282828282828,774.2222222222222 793.2929292929292,764.6868686868687 783.7575757575758,755.1515151515151 774.2222222222222,745.6161616161615 764.6868686868686,736.0808080808081 755.1515151515151,726.5454545454545 745.6161616161615,717.010101010101 736.0808080808081,707.4747474747475 726.5454545454545,697.939393939394 717.0101010101009,688.4040404040404 707.4747474747475,678.8686868686868 697.9393939393939,669.3333333333334 688.4040404040404,659.7979797979798 678.8686868686868,650.2626262626263 669.3333333333333,640.7272727272727 659.7979797979798,631.1919191919193 650.2626262626262,621.6565656565657 640.7272727272727,612.1212121212121 631.1919191919192,602.5858585858587 621.6565656565656,593.0505050505051 612.1212121212121,583.5151515151516 602.5858585858585,573.979797979798 593.0505050505051,564.4444444444445 583.5151515151515,554.909090909091 573.9797979797979,545.3737373737374 564.4444444444445,535.838383838384 554.9090909090909,526.3030303030304 545.3737373737374,516.7676767676768 535.8383838383838,507.23232323232327 526.3030303030303,497.69696969696975 516.7676767676768,488.1616161616163 507.2323232323232,478.6262626262627 497.69696969696975,469.0909090909092 488.16161616161617,459.5555555555556 478.62626262626264,450.0202020202021 469.09090909090907,440.4848484848486 459.55555555555554,430.94949494949503 450.0202020202021,421.4141414141415 440.4848484848485,411.87878787878793 430.949494949495,402.3434343434344 421.4141414141414,392.80808080808094 411.8787878787879,383.27272727272737 402.34343434343435,373.73737373737384 392.80808080808083,364.2020202020203 383.2727272727273,354.66666666666674 373.7373737373738,345.1313131313133 364.2020202020202,335.5959595959597 354.6666666666667,326.06060606060623 345.13131313131316,316.5252525252526 335.59595959595964,306.9898989898991 326.0606060606061,297.4545454545456 316.5252525252526,287.91919191919203 306.9898989898991,278.38383838383857 297.4545454545455,268.84848484848493 287.91919191919203,259.3131313131314 278.38383838383845,249.77777777777794 268.84848484848493,240.24242424242436 259.3131313131314,230.70707070707084 249.77777777777783,221.17171717171726 240.2424242424243,211.63636363636374 230.70707070707084,202.10101010101027 221.17171717171726,192.56565656565675 211.63636363636374,183.03030303030312 202.10101010101022,173.4949494949496 192.5656565656567,173.4949494949496 183.03030303030312,173.4949494949496 173.4949494949496,173.4949494949496 163.95959595959607,173.4949494949496 154.42424242424255,173.4949494949496 144.88888888888903,173.4949494949496 135.35353535353545,173.4949494949496 125.81818181818193,173.4949494949496 116.28282828282829,173.4949494949496 106.74747474747483,173.4949494949496 97.21212121212136,173.4949494949496 87.67676767676772,173.4949494949496 78.14141414141426,173.4949494949496 68.60606060606068,173.4949494949496 59.07070707070716,173.4949494949496 49.53535353535369,173.4949494949496 40.00000000000006,173.4949494949496" fill="none" stroke="rgba(255,0,0,0.75)" stroke-width="11.327999999999996"/></g><g><polyline data-points="5.000000000000002,0.2525252525252529 4.898989898989901,0.3535353535353544 4.7979797979797985,0.4545454545454551 4.696969696969697,0.5555555555555567 4.595959595959597,0.6565656565656574 4.494949494949497,0.7575757575757579 4.393939393939394,0.8585858585858596 4.292929292929293,0.9595959595959602 4.191919191919193,1.0606060606060617 4.090909090909092,1.1616161616161622 3.989898989898992,1.262626262626263 3.8888888888888893,1.3636363636363644 3.7878787878787885,1.4646464646464652 3.6868686868686877,1.5656565656565666 3.5858585858585874,1.6666666666666674 3.4848484848484866,1.767676767676768 3.383838383838384,1.8686868686868696 3.2828282828282833,1.9696969696969702 3.181818181818183,2.070707070707072 3.080808080808082,2.1717171717171726 2.9797979797979806,2.2727272727272734 2.87878787878788,2.373737373737375 2.7777777777777786,2.4747474747474754 2.676767676767678,2.575757575757577 2.575757575757577,2.676767676767678 2.4747474747474754,2.7777777777777786 2.373737373737375,2.87878787878788 2.2727272727272734,2.9797979797979806 2.1717171717171726,3.080808080808082 2.070707070707072,3.181818181818183 1.9696969696969702,3.2828282828282833 1.8686868686868696,3.383838383838384 1.767676767676768,3.4848484848484866 1.6666666666666674,3.5858585858585874 1.5656565656565666,3.6868686868686877 1.4646464646464652,3.7878787878787885 1.3636363636363644,3.8888888888888893 1.262626262626263,3.989898989898992 1.1616161616161622,4.090909090909092 1.0606060606060617,4.191919191919193 0.9595959595959602,4.292929292929293 0.8585858585858596,4.393939393939394 0.7575757575757579,4.494949494949497 0.6565656565656574,4.595959595959597 0.5555555555555567,4.696969696969697 0.4545454545454551,4.7979797979797985 0.3535353535353544,4.898989898989901 0.2525252525252529,5.000000000000002 0.1515151515151522,5.000000000000002 0.050505050505051545,5.000000000000002 -0.05050505050505001,5.000000000000002 -0.15151515151515066,5.000000000000002 -0.2525252525252522,5.000000000000002" data-type="line" data-label="" points="984,488.1616161616163 974.4646464646464,478.6262626262627 964.9292929292927,469.0909090909092 955.3939393939393,459.5555555555556 945.8585858585857,450.0202020202021 936.3232323232323,440.4848484848486 926.7878787878785,430.94949494949503 917.2525252525251,421.4141414141415 907.7171717171716,411.87878787878793 898.181818181818,402.3434343434344 888.6464646464647,392.80808080808094 879.111111111111,383.27272727272737 869.5757575757575,373.73737373737384 860.0404040404039,364.2020202020203 850.5050505050505,354.66666666666674 840.969696969697,345.1313131313133 831.4343434343433,335.5959595959597 821.8989898989898,326.06060606060623 812.3636363636363,316.5252525252526 802.8282828282828,306.9898989898991 793.2929292929292,297.4545454545456 783.7575757575758,287.91919191919203 774.2222222222222,278.38383838383857 764.6868686868686,268.84848484848493 755.1515151515151,259.3131313131314 745.6161616161615,249.77777777777794 736.0808080808081,240.24242424242436 726.5454545454545,230.70707070707084 717.0101010101009,221.17171717171726 707.4747474747475,211.63636363636374 697.9393939393939,202.10101010101027 688.4040404040404,192.56565656565675 678.8686868686868,183.03030303030312 669.3333333333333,173.4949494949496 659.7979797979798,163.95959595959613 650.2626262626262,154.4242424242426 640.7272727272727,144.88888888888908 631.1919191919192,135.35353535353545 621.6565656565656,125.81818181818198 612.1212121212121,116.28282828282846 602.5858585858585,106.747474747475 593.0505050505051,97.21212121212153 583.5151515151515,87.67676767676778 573.9797979797979,78.14141414141432 564.4444444444445,68.60606060606085 554.9090909090909,59.07070707070733 545.3737373737374,49.53535353535369 535.8383838383838,40.000000000000114 526.3030303030303,40.000000000000114 516.7676767676768,40.000000000000114 507.2323232323232,40.000000000000114 497.69696969696975,40.000000000000114 488.16161616161617,40.000000000000114" fill="none" stroke="rgba(0,0,255,0.75)" stroke-width="11.327999999999996"/></g><g><polyline data-points="-5.000000000000001,-0.35353535353535287 -4.898989898989899,-0.35353535353535287 -4.7979797979797985,-0.35353535353535287 -4.696969696969697,-0.35353535353535287 -4.595959595959596,-0.35353535353535287 -4.494949494949496,-0.35353535353535287 -4.393939393939394,-0.35353535353535287 -4.292929292929293,-0.35353535353535287 -4.191919191919193,-0.35353535353535287 -4.090909090909091,-0.35353535353535287 -3.98989898989899,-0.35353535353535287 -3.8888888888888884,-0.35353535353535287 -3.7878787878787876,-0.35353535353535287 -3.6868686868686864,-0.35353535353535287 -3.5858585858585856,-0.35353535353535287 -3.484848484848485,-0.35353535353535287 -3.383838383838383,-0.35353535353535287 -3.2828282828282824,-0.35353535353535287 -3.1818181818181817,-0.35353535353535287 -3.0808080808080804,-0.35353535353535287 -2.9797979797979792,-0.35353535353535287 -2.8787878787878785,-0.35353535353535287 -2.7777777777777777,-0.35353535353535287 -2.6767676767676765,-0.35353535353535287 -2.5757575757575752,-0.35353535353535287 -2.474747474747474,-0.35353535353535287 -2.3737373737373733,-0.35353535353535287 -2.2727272727272725,-0.35353535353535287 -2.1717171717171713,-0.35353535353535287 -2.07070707070707,-0.35353535353535287 -1.9696969696969693,-0.35353535353535287 -1.8686868686868683,-0.35353535353535287 -1.7676767676767675,-0.35353535353535287 -1.6666666666666665,-0.35353535353535287 -1.5656565656565653,-0.35353535353535287 -1.4646464646464643,-0.35353535353535287 -1.363636363636363,-0.35353535353535287 -1.2626262626262625,-0.35353535353535287 -1.1616161616161613,-0.35353535353535287 -1.0606060606060603,-0.35353535353535287 -0.9595959595959596,-0.35353535353535287 -0.8585858585858579,-0.35353535353535287 -0.7575757575757572,-0.35353535353535287 -0.6565656565656557,-0.35353535353535287 -0.555555555555555,-0.35353535353535287 -0.4545454545454544,-0.35353535353535287 -0.35353535353535287,-0.35353535353535287 -0.2525252525252522,-0.35353535353535287 -0.15151515151515066,-0.35353535353535287 -0.05050505050505001,-0.35353535353535287 0.050505050505051545,-0.35353535353535287 0.1515151515151522,-0.35353535353535287" data-type="line" data-label="" points="40.00000000000006,545.3737373737374 49.53535353535369,545.3737373737374 59.07070707070716,545.3737373737374 68.60606060606068,545.3737373737374 78.14141414141426,545.3737373737374 87.67676767676772,545.3737373737374 97.21212121212136,545.3737373737374 106.74747474747483,545.3737373737374 116.28282828282829,545.3737373737374 125.81818181818193,545.3737373737374 135.35353535353545,545.3737373737374 144.88888888888903,545.3737373737374 154.42424242424255,545.3737373737374 163.95959595959607,545.3737373737374 173.4949494949496,545.3737373737374 183.03030303030312,545.3737373737374 192.5656565656567,545.3737373737374 202.10101010101022,545.3737373737374 211.63636363636374,545.3737373737374 221.17171717171726,545.3737373737374 230.70707070707084,545.3737373737374 240.2424242424243,545.3737373737374 249.77777777777783,545.3737373737374 259.3131313131314,545.3737373737374 268.84848484848493,545.3737373737374 278.38383838383845,545.3737373737374 287.91919191919203,545.3737373737374 297.4545454545455,545.3737373737374 306.9898989898991,545.3737373737374 316.5252525252526,545.3737373737374 326.0606060606061,545.3737373737374 335.59595959595964,545.3737373737374 345.13131313131316,545.3737373737374 354.6666666666667,545.3737373737374 364.2020202020202,545.3737373737374 373.7373737373738,545.3737373737374 383.2727272727273,545.3737373737374 392.80808080808083,545.3737373737374 402.34343434343435,545.3737373737374 411.8787878787879,545.3737373737374 421.4141414141414,545.3737373737374 430.949494949495,545.3737373737374 440.4848484848485,545.3737373737374 450.0202020202021,545.3737373737374 459.55555555555554,545.3737373737374 469.09090909090907,545.3737373737374 478.62626262626264,545.3737373737374 488.16161616161617,545.3737373737374 497.69696969696975,545.3737373737374 507.2323232323232,545.3737373737374 516.7676767676768,545.3737373737374 526.3030303030303,545.3737373737374" fill="none" stroke="rgba(255,0,0,0.75)" stroke-width="11.327999999999996"/></g><g><polyline data-points="0.1515151515151522,-0.35353535353535287 0.2525252525252529,-0.35353535353535287 0.3535353535353544,-0.35353535353535287 0.4545454545454551,-0.35353535353535287 0.5555555555555567,-0.35353535353535287 0.6565656565656574,-0.35353535353535287 0.7575757575757579,-0.35353535353535287 0.8585858585858596,-0.35353535353535287 0.9595959595959602,-0.35353535353535287 1.0606060606060617,-0.35353535353535287 1.1616161616161622,-0.35353535353535287 1.262626262626263,-0.35353535353535287 1.3636363636363644,-0.35353535353535287 1.4646464646464652,-0.35353535353535287 1.5656565656565666,-0.35353535353535287 1.6666666666666674,-0.35353535353535287 1.767676767676768,-0.35353535353535287 1.8686868686868696,-0.35353535353535287 1.9696969696969702,-0.35353535353535287 2.070707070707072,-0.35353535353535287 2.1717171717171726,-0.35353535353535287 2.2727272727272734,-0.35353535353535287 2.373737373737375,-0.35353535353535287 2.4747474747474754,-0.35353535353535287 2.575757575757577,-0.35353535353535287 2.676767676767678,-0.35353535353535287 2.7777777777777786,-0.35353535353535287 2.87878787878788,-0.35353535353535287 2.9797979797979806,-0.35353535353535287 3.080808080808082,-0.35353535353535287 3.181818181818183,-0.35353535353535287 3.2828282828282833,-0.35353535353535287 3.383838383838384,-0.35353535353535287 3.4848484848484866,-0.35353535353535287 3.5858585858585874,-0.35353535353535287 3.6868686868686877,-0.35353535353535287 3.7878787878787885,-0.35353535353535287 3.8888888888888893,-0.35353535353535287 3.989898989898992,-0.35353535353535287 4.090909090909092,-0.35353535353535287 4.191919191919193,-0.35353535353535287 4.292929292929293,-0.35353535353535287 4.393939393939394,-0.35353535353535287 4.494949494949497,-0.35353535353535287 4.595959595959597,-0.35353535353535287 4.696969696969697,-0.35353535353535287 4.7979797979797985,-0.35353535353535287 4.898989898989901,-0.35353535353535287 5.000000000000002,-0.35353535353535287" data-type="line" data-label="" points="526.3030303030303,545.3737373737374 535.8383838383838,545.3737373737374 545.3737373737374,545.3737373737374 554.9090909090909,545.3737373737374 564.4444444444445,545.3737373737374 573.9797979797979,545.3737373737374 583.5151515151515,545.3737373737374 593.0505050505051,545.3737373737374 602.5858585858585,545.3737373737374 612.1212121212121,545.3737373737374 621.6565656565656,545.3737373737374 631.1919191919192,545.3737373737374 640.7272727272727,545.3737373737374 650.2626262626262,545.3737373737374 659.7979797979798,545.3737373737374 669.3333333333333,545.3737373737374 678.8686868686868,545.3737373737374 688.4040404040404,545.3737373737374 697.9393939393939,545.3737373737374 707.4747474747475,545.3737373737374 717.0101010101009,545.3737373737374 726.5454545454545,545.3737373737374 736.0808080808081,545.3737373737374 745.6161616161615,545.3737373737374 755.1515151515151,545.3737373737374 764.6868686868686,545.3737373737374 774.2222222222222,545.3737373737374 783.7575757575758,545.3737373737374 793.2929292929292,545.3737373737374 802.8282828282828,545.3737373737374 812.3636363636363,545.3737373737374 821.8989898989898,545.3737373737374 831.4343434343433,545.3737373737374 840.969696969697,545.3737373737374 850.5050505050505,545.3737373737374 860.0404040404039,545.3737373737374 869.5757575757575,545.3737373737374 879.111111111111,545.3737373737374 888.6464646464647,545.3737373737374 898.181818181818,545.3737373737374 907.7171717171716,545.3737373737374 917.2525252525251,545.3737373737374 926.7878787878785,545.3737373737374 936.3232323232323,545.3737373737374 945.8585858585857,545.3737373737374 955.3939393939393,545.3737373737374 964.9292929292927,545.3737373737374 974.4646464646464,545.3737373737374 984,545.3737373737374" fill="none" stroke="rgba(0,0,255,0.75)" stroke-width="11.327999999999996"/></g><g><polyline data-points="5.000000000000002,2.373737373737375 4.898989898989901,2.2727272727272734 4.7979797979797985,2.1717171717171726 4.696969696969697,2.070707070707072 4.595959595959597,1.9696969696969702 4.494949494949497,1.8686868686868696 4.393939393939394,1.767676767676768 4.292929292929293,1.6666666666666674 4.191919191919193,1.5656565656565666 4.090909090909092,1.4646464646464652 3.989898989898992,1.3636363636363644 3.8888888888888893,1.262626262626263 3.7878787878787885,1.1616161616161622 3.6868686868686877,1.0606060606060617 3.5858585858585874,0.9595959595959602 3.4848484848484866,0.8585858585858596 3.383838383838384,0.7575757575757579 3.2828282828282833,0.6565656565656574 3.181818181818183,0.5555555555555567 3.080808080808082,0.4545454545454551 2.9797979797979806,0.3535353535353544 2.87878787878788,0.2525252525252529 2.7777777777777786,0.1515151515151522 2.676767676767678,0.050505050505051545 2.575757575757577,-0.05050505050505001 2.4747474747474754,-0.15151515151515066 2.373737373737375,-0.2525252525252522 2.2727272727272734,-0.35353535353535287 2.1717171717171726,-0.4545454545454544 2.1717171717171726,-0.555555555555555 2.1717171717171726,-0.6565656565656557 2.1717171717171726,-0.7575757575757572 2.1717171717171726,-0.8585858585858579 2.1717171717171726,-0.9595959595959596 2.1717171717171726,-1.0606060606060603 2.1717171717171726,-1.1616161616161613 2.1717171717171726,-1.2626262626262625 2.1717171717171726,-1.363636363636363" data-type="line" data-label="" points="984,287.91919191919203 974.4646464646464,297.4545454545456 964.9292929292927,306.9898989898991 955.3939393939393,316.5252525252526 945.8585858585857,326.06060606060623 936.3232323232323,335.5959595959597 926.7878787878785,345.1313131313133 917.2525252525251,354.66666666666674 907.7171717171716,364.2020202020203 898.181818181818,373.73737373737384 888.6464646464647,383.27272727272737 879.111111111111,392.80808080808094 869.5757575757575,402.3434343434344 860.0404040404039,411.87878787878793 850.5050505050505,421.4141414141415 840.969696969697,430.94949494949503 831.4343434343433,440.4848484848486 821.8989898989898,450.0202020202021 812.3636363636363,459.5555555555556 802.8282828282828,469.0909090909092 793.2929292929292,478.6262626262627 783.7575757575758,488.1616161616163 774.2222222222222,497.69696969696975 764.6868686868686,507.23232323232327 755.1515151515151,516.7676767676768 745.6161616161615,526.3030303030304 736.0808080808081,535.838383838384 726.5454545454545,545.3737373737374 717.0101010101009,554.909090909091 717.0101010101009,564.4444444444445 717.0101010101009,573.979797979798 717.0101010101009,583.5151515151516 717.0101010101009,593.0505050505051 717.0101010101009,602.5858585858587 717.0101010101009,612.1212121212121 717.0101010101009,621.6565656565657 717.0101010101009,631.1919191919193 717.0101010101009,640.7272727272727" fill="none" stroke="rgba(255,0,0,0.75)" stroke-width="11.327999999999996"/></g><g><polyline data-points="2.1717171717171726,-1.363636363636363 2.070707070707072,-1.4646464646464643 1.9696969696969702,-1.5656565656565653 1.8686868686868696,-1.6666666666666665 1.767676767676768,-1.7676767676767675 1.6666666666666674,-1.8686868686868683 1.5656565656565666,-1.9696969696969693 1.4646464646464652,-2.07070707070707 1.3636363636363644,-2.1717171717171713 1.262626262626263,-2.2727272727272725 1.1616161616161622,-2.2727272727272725 1.0606060606060617,-2.2727272727272725 0.9595959595959602,-2.2727272727272725 0.8585858585858596,-2.2727272727272725 0.7575757575757579,-2.2727272727272725 0.6565656565656574,-2.2727272727272725 0.5555555555555567,-2.2727272727272725 0.4545454545454551,-2.2727272727272725 0.3535353535353544,-2.2727272727272725 0.2525252525252529,-2.2727272727272725 0.1515151515151522,-2.2727272727272725 0.050505050505051545,-2.2727272727272725 -0.05050505050505001,-2.2727272727272725 -0.15151515151515066,-2.2727272727272725 -0.2525252525252522,-2.2727272727272725 -0.35353535353535287,-2.2727272727272725 -0.4545454545454544,-2.2727272727272725 -0.555555555555555,-2.2727272727272725 -0.6565656565656557,-2.2727272727272725 -0.7575757575757572,-2.2727272727272725 -0.8585858585858579,-2.2727272727272725 -0.9595959595959596,-2.2727272727272725 -1.0606060606060603,-2.2727272727272725 -1.1616161616161613,-2.2727272727272725 -1.2626262626262625,-2.2727272727272725 -1.363636363636363,-2.2727272727272725 -1.4646464646464643,-2.2727272727272725 -1.5656565656565653,-2.2727272727272725 -1.6666666666666665,-2.2727272727272725 -1.7676767676767675,-2.2727272727272725 -1.8686868686868683,-2.2727272727272725 -1.9696969696969693,-2.2727272727272725 -2.07070707070707,-2.2727272727272725 -2.1717171717171713,-2.2727272727272725 -2.2727272727272725,-2.2727272727272725 -2.3737373737373733,-2.2727272727272725 -2.474747474747474,-2.2727272727272725 -2.5757575757575752,-2.2727272727272725 -2.6767676767676765,-2.2727272727272725 -2.7777777777777777,-2.2727272727272725 -2.8787878787878785,-2.2727272727272725 -2.9797979797979792,-2.2727272727272725 -3.0808080808080804,-2.2727272727272725 -3.1818181818181817,-2.2727272727272725 -3.2828282828282824,-2.2727272727272725 -3.383838383838383,-2.2727272727272725 -3.484848484848485,-2.2727272727272725 -3.5858585858585856,-2.2727272727272725 -3.6868686868686864,-2.2727272727272725 -3.7878787878787876,-2.2727272727272725 -3.8888888888888884,-2.2727272727272725 -3.98989898989899,-2.2727272727272725 -4.090909090909091,-2.2727272727272725 -4.191919191919193,-2.2727272727272725 -4.292929292929293,-2.2727272727272725 -4.393939393939394,-2.2727272727272725 -4.494949494949496,-2.2727272727272725 -4.595959595959596,-2.2727272727272725 -4.696969696969697,-2.2727272727272725 -4.7979797979797985,-2.2727272727272725 -4.898989898989899,-2.2727272727272725 -5.000000000000001,-2.2727272727272725" data-type="line" data-label="" points="717.0101010101009,640.7272727272727 707.4747474747475,650.2626262626263 697.9393939393939,659.7979797979798 688.4040404040404,669.3333333333334 678.8686868686868,678.8686868686868 669.3333333333333,688.4040404040404 659.7979797979798,697.939393939394 650.2626262626262,707.4747474747475 640.7272727272727,717.010101010101 631.1919191919192,726.5454545454545 621.6565656565656,726.5454545454545 612.1212121212121,726.5454545454545 602.5858585858585,726.5454545454545 593.0505050505051,726.5454545454545 583.5151515151515,726.5454545454545 573.9797979797979,726.5454545454545 564.4444444444445,726.5454545454545 554.9090909090909,726.5454545454545 545.3737373737374,726.5454545454545 535.8383838383838,726.5454545454545 526.3030303030303,726.5454545454545 516.7676767676768,726.5454545454545 507.2323232323232,726.5454545454545 497.69696969696975,726.5454545454545 488.16161616161617,726.5454545454545 478.62626262626264,726.5454545454545 469.09090909090907,726.5454545454545 459.55555555555554,726.5454545454545 450.0202020202021,726.5454545454545 440.4848484848485,726.5454545454545 430.949494949495,726.5454545454545 421.4141414141414,726.5454545454545 411.8787878787879,726.5454545454545 402.34343434343435,726.5454545454545 392.80808080808083,726.5454545454545 383.2727272727273,726.5454545454545 373.7373737373738,726.5454545454545 364.2020202020202,726.5454545454545 354.6666666666667,726.5454545454545 345.13131313131316,726.5454545454545 335.59595959595964,726.5454545454545 326.0606060606061,726.5454545454545 316.5252525252526,726.5454545454545 306.9898989898991,726.5454545454545 297.4545454545455,726.5454545454545 287.91919191919203,726.5454545454545 278.38383838383845,726.5454545454545 268.84848484848493,726.5454545454545 259.3131313131314,726.5454545454545 249.77777777777783,726.5454545454545 240.2424242424243,726.5454545454545 230.70707070707084,726.5454545454545 221.17171717171726,726.5454545454545 211.63636363636374,726.5454545454545 202.10101010101022,726.5454545454545 192.5656565656567,726.5454545454545 183.03030303030312,726.5454545454545 173.4949494949496,726.5454545454545 163.95959595959607,726.5454545454545 154.42424242424255,726.5454545454545 144.88888888888903,726.5454545454545 135.35353535353545,726.5454545454545 125.81818181818193,726.5454545454545 116.28282828282829,726.5454545454545 106.74747474747483,726.5454545454545 97.21212121212136,726.5454545454545 87.67676767676772,726.5454545454545 78.14141414141426,726.5454545454545 68.60606060606068,726.5454545454545 59.07070707070716,726.5454545454545 49.53535353535369,726.5454545454545 40.00000000000006,726.5454545454545" fill="none" stroke="rgba(0,0,255,0.75)" stroke-width="11.327999999999996"/></g><g><polyline data-points="5.000000000000002,-4.090909090909091 4.898989898989901,-4.191919191919193 4.7979797979797985,-4.292929292929293 4.696969696969697,-4.393939393939394 4.595959595959597,-4.494949494949496 4.494949494949497,-4.595959595959596 4.393939393939394,-4.696969696969697 4.292929292929293,-4.7979797979797985 4.191919191919193,-4.898989898989899 4.090909090909092,-5.000000000000001 3.989898989898992,-5.000000000000001 3.8888888888888893,-5.000000000000001 3.7878787878787885,-5.000000000000001 3.6868686868686877,-5.000000000000001 3.5858585858585874,-5.000000000000001 3.4848484848484866,-5.000000000000001 3.383838383838384,-5.000000000000001 3.2828282828282833,-5.000000000000001 3.181818181818183,-5.000000000000001 3.080808080808082,-5.000000000000001 2.9797979797979806,-5.000000000000001 2.87878787878788,-5.000000000000001 2.7777777777777786,-5.000000000000001 2.676767676767678,-5.000000000000001 2.575757575757577,-5.000000000000001 2.4747474747474754,-5.000000000000001 2.373737373737375,-5.000000000000001 2.2727272727272734,-5.000000000000001 2.1717171717171726,-5.000000000000001 2.070707070707072,-5.000000000000001 1.9696969696969702,-5.000000000000001 1.8686868686868696,-5.000000000000001 1.767676767676768,-5.000000000000001 1.6666666666666674,-5.000000000000001 1.5656565656565666,-5.000000000000001 1.4646464646464652,-5.000000000000001 1.3636363636363644,-5.000000000000001 1.262626262626263,-5.000000000000001 1.1616161616161622,-5.000000000000001 1.0606060606060617,-5.000000000000001 0.9595959595959602,-5.000000000000001 0.8585858585858596,-5.000000000000001 0.7575757575757579,-5.000000000000001 0.6565656565656574,-5.000000000000001 0.5555555555555567,-5.000000000000001 0.4545454545454551,-5.000000000000001 0.3535353535353544,-5.000000000000001 0.2525252525252529,-5.000000000000001 0.1515151515151522,-5.000000000000001 0.050505050505051545,-5.000000000000001 -0.05050505050505001,-5.000000000000001 -0.15151515151515066,-5.000000000000001 -0.2525252525252522,-5.000000000000001 -0.35353535353535287,-5.000000000000001 -0.4545454545454544,-5.000000000000001 -0.555555555555555,-5.000000000000001 -0.6565656565656557,-5.000000000000001 -0.7575757575757572,-5.000000000000001 -0.8585858585858579,-5.000000000000001 -0.9595959595959596,-5.000000000000001 -1.0606060606060603,-5.000000000000001 -1.1616161616161613,-5.000000000000001 -1.2626262626262625,-5.000000000000001 -1.363636363636363,-5.000000000000001 -1.4646464646464643,-5.000000000000001 -1.5656565656565653,-5.000000000000001 -1.6666666666666665,-5.000000000000001 -1.7676767676767675,-5.000000000000001 -1.8686868686868683,-5.000000000000001 -1.9696969696969693,-5.000000000000001 -2.07070707070707,-5.000000000000001 -2.1717171717171713,-5.000000000000001 -2.2727272727272725,-5.000000000000001 -2.3737373737373733,-5.000000000000001 -2.474747474747474,-5.000000000000001 -2.5757575757575752,-5.000000000000001 -2.6767676767676765,-5.000000000000001 -2.7777777777777777,-5.000000000000001 -2.8787878787878785,-5.000000000000001 -2.9797979797979792,-5.000000000000001 -3.0808080808080804,-5.000000000000001 -3.1818181818181817,-5.000000000000001 -3.2828282828282824,-5.000000000000001 -3.383838383838383,-5.000000000000001 -3.484848484848485,-5.000000000000001 -3.5858585858585856,-5.000000000000001 -3.6868686868686864,-5.000000000000001 -3.7878787878787876,-5.000000000000001 -3.8888888888888884,-5.000000000000001 -3.98989898989899,-5.000000000000001 -4.090909090909091,-5.000000000000001 -4.191919191919193,-5.000000000000001 -4.292929292929293,-5.000000000000001 -4.393939393939394,-5.000000000000001 -4.494949494949496,-5.000000000000001 -4.595959595959596,-5.000000000000001 -4.696969696969697,-5.000000000000001 -4.7979797979797985,-5.000000000000001 -4.898989898989899,-5.000000000000001 -5.000000000000001,-5.000000000000001" data-type="line" data-label="" points="984,898.1818181818181 974.4646464646464,907.7171717171718 964.9292929292927,917.2525252525252 955.3939393939393,926.7878787878788 945.8585858585857,936.3232323232323 936.3232323232323,945.8585858585858 926.7878787878785,955.3939393939394 917.2525252525251,964.9292929292928 907.7171717171716,974.4646464646464 898.181818181818,984 888.6464646464647,984 879.111111111111,984 869.5757575757575,984 860.0404040404039,984 850.5050505050505,984 840.969696969697,984 831.4343434343433,984 821.8989898989898,984 812.3636363636363,984 802.8282828282828,984 793.2929292929292,984 783.7575757575758,984 774.2222222222222,984 764.6868686868686,984 755.1515151515151,984 745.6161616161615,984 736.0808080808081,984 726.5454545454545,984 717.0101010101009,984 707.4747474747475,984 697.9393939393939,984 688.4040404040404,984 678.8686868686868,984 669.3333333333333,984 659.7979797979798,984 650.2626262626262,984 640.7272727272727,984 631.1919191919192,984 621.6565656565656,984 612.1212121212121,984 602.5858585858585,984 593.0505050505051,984 583.5151515151515,984 573.9797979797979,984 564.4444444444445,984 554.9090909090909,984 545.3737373737374,984 535.8383838383838,984 526.3030303030303,984 516.7676767676768,984 507.2323232323232,984 497.69696969696975,984 488.16161616161617,984 478.62626262626264,984 469.09090909090907,984 459.55555555555554,984 450.0202020202021,984 440.4848484848485,984 430.949494949495,984 421.4141414141414,984 411.8787878787879,984 402.34343434343435,984 392.80808080808083,984 383.2727272727273,984 373.7373737373738,984 364.2020202020202,984 354.6666666666667,984 345.13131313131316,984 335.59595959595964,984 326.0606060606061,984 316.5252525252526,984 306.9898989898991,984 297.4545454545455,984 287.91919191919203,984 278.38383838383845,984 268.84848484848493,984 259.3131313131314,984 249.77777777777783,984 240.2424242424243,984 230.70707070707084,984 221.17171717171726,984 211.63636363636374,984 202.10101010101022,984 192.5656565656567,984 183.03030303030312,984 173.4949494949496,984 163.95959595959607,984 154.42424242424255,984 144.88888888888903,984 135.35353535353545,984 125.81818181818193,984 116.28282828282829,984 106.74747474747483,984 97.21212121212136,984 87.67676767676772,984 78.14141414141426,984 68.60606060606068,984 59.07070707070716,984 49.53535353535369,984 40.00000000000006,984" fill="none" stroke="rgba(0,0,255,0.75)" stroke-width="11.327999999999996"/></g><g><polyline data-points="5.000000000000002,0.8585858585858596 4.898989898989901,0.9595959595959602 4.7979797979797985,1.0606060606060617 4.696969696969697,1.1616161616161622 4.595959595959597,1.262626262626263 4.494949494949497,1.3636363636363644 4.393939393939394,1.4646464646464652 4.292929292929293,1.5656565656565666 4.191919191919193,1.6666666666666674 4.090909090909092,1.767676767676768 3.989898989898992,1.8686868686868696 3.8888888888888893,1.9696969696969702 3.7878787878787885,2.070707070707072 3.6868686868686877,2.1717171717171726 3.5858585858585874,2.2727272727272734 3.4848484848484866,2.373737373737375 3.383838383838384,2.4747474747474754 3.2828282828282833,2.575757575757577 3.181818181818183,2.676767676767678 3.080808080808082,2.7777777777777786 2.9797979797979806,2.87878787878788 2.87878787878788,2.9797979797979806 2.7777777777777786,3.080808080808082 2.676767676767678,3.181818181818183 2.575757575757577,3.2828282828282833 2.4747474747474754,3.383838383838384 2.373737373737375,3.4848484848484866 2.2727272727272734,3.5858585858585874 2.1717171717171726,3.6868686868686877 2.070707070707072,3.7878787878787885 1.9696969696969702,3.8888888888888893 1.8686868686868696,3.989898989898992 1.767676767676768,3.989898989898992" data-type="line" data-label="" points="984,430.94949494949503 974.4646464646464,421.4141414141415 964.9292929292927,411.87878787878793 955.3939393939393,402.3434343434344 945.8585858585857,392.80808080808094 936.3232323232323,383.27272727272737 926.7878787878785,373.73737373737384 917.2525252525251,364.2020202020203 907.7171717171716,354.66666666666674 898.181818181818,345.1313131313133 888.6464646464647,335.5959595959597 879.111111111111,326.06060606060623 869.5757575757575,316.5252525252526 860.0404040404039,306.9898989898991 850.5050505050505,297.4545454545456 840.969696969697,287.91919191919203 831.4343434343433,278.38383838383857 821.8989898989898,268.84848484848493 812.3636363636363,259.3131313131314 802.8282828282828,249.77777777777794 793.2929292929292,240.24242424242436 783.7575757575758,230.70707070707084 774.2222222222222,221.17171717171726 764.6868686868686,211.63636363636374 755.1515151515151,202.10101010101027 745.6161616161615,192.56565656565675 736.0808080808081,183.03030303030312 726.5454545454545,173.4949494949496 717.0101010101009,163.95959595959613 707.4747474747475,154.4242424242426 697.9393939393939,144.88888888888908 688.4040404040404,135.35353535353545 678.8686868686868,135.35353535353545" fill="none" stroke="rgba(0,0,255,0.75)" stroke-width="11.327999999999996"/></g><g><polyline data-points="1.767676767676768,3.989898989898992 1.6666666666666674,3.989898989898992 1.5656565656565666,3.989898989898992 1.4646464646464652,3.989898989898992 1.3636363636363644,3.989898989898992 1.262626262626263,3.989898989898992 1.1616161616161622,3.989898989898992 1.0606060606060617,3.989898989898992 0.9595959595959602,3.989898989898992 0.8585858585858596,3.989898989898992 0.7575757575757579,3.989898989898992 0.6565656565656574,3.989898989898992 0.5555555555555567,3.989898989898992 0.4545454545454551,3.989898989898992 0.3535353535353544,3.989898989898992 0.2525252525252529,3.989898989898992 0.1515151515151522,3.989898989898992 0.050505050505051545,3.989898989898992 -0.05050505050505001,3.989898989898992 -0.15151515151515066,3.989898989898992 -0.2525252525252522,3.989898989898992 -0.35353535353535287,3.989898989898992 -0.4545454545454544,3.989898989898992" data-type="line" data-label="" points="678.8686868686868,135.35353535353545 669.3333333333333,135.35353535353545 659.7979797979798,135.35353535353545 650.2626262626262,135.35353535353545 640.7272727272727,135.35353535353545 631.1919191919192,135.35353535353545 621.6565656565656,135.35353535353545 612.1212121212121,135.35353535353545 602.5858585858585,135.35353535353545 593.0505050505051,135.35353535353545 583.5151515151515,135.35353535353545 573.9797979797979,135.35353535353545 564.4444444444445,135.35353535353545 554.9090909090909,135.35353535353545 545.3737373737374,135.35353535353545 535.8383838383838,135.35353535353545 526.3030303030303,135.35353535353545 516.7676767676768,135.35353535353545 507.2323232323232,135.35353535353545 497.69696969696975,135.35353535353545 488.16161616161617,135.35353535353545 478.62626262626264,135.35353535353545 469.09090909090907,135.35353535353545" fill="none" stroke="rgba(255,0,0,0.75)" stroke-width="11.327999999999996"/></g><g><polyline data-points="-0.4545454545454544,3.989898989898992 -0.4545454545454544,4.090909090909092 -0.4545454545454544,4.191919191919193 -0.4545454545454544,4.292929292929293 -0.4545454545454544,4.393939393939394 -0.4545454545454544,4.494949494949497 -0.4545454545454544,4.595959595959597 -0.4545454545454544,4.696969696969697 -0.4545454545454544,4.7979797979797985 -0.4545454545454544,4.898989898989901 -0.4545454545454544,5.000000000000002" data-type="line" data-label="" points="469.09090909090907,135.35353535353545 469.09090909090907,125.81818181818198 469.09090909090907,116.28282828282846 469.09090909090907,106.747474747475 469.09090909090907,97.21212121212153 469.09090909090907,87.67676767676778 469.09090909090907,78.14141414141432 469.09090909090907,68.60606060606085 469.09090909090907,59.07070707070733 469.09090909090907,49.53535353535369 469.09090909090907,40.000000000000114" fill="none" stroke="rgba(0,0,255,0.75)" stroke-width="11.327999999999996"/></g><g><polyline data-points="5.000000000000002,-1.5656565656565653 4.898989898989901,-1.4646464646464643 4.7979797979797985,-1.363636363636363 4.696969696969697,-1.2626262626262625 4.595959595959597,-1.1616161616161613 4.494949494949497,-1.0606060606060603 4.393939393939394,-0.9595959595959596 4.292929292929293,-0.8585858585858579 4.191919191919193,-0.7575757575757572 4.090909090909092,-0.6565656565656557 3.989898989898992,-0.555555555555555 3.8888888888888893,-0.4545454545454544 3.7878787878787885,-0.35353535353535287 3.6868686868686877,-0.2525252525252522 3.5858585858585874,-0.15151515151515066 3.4848484848484866,-0.05050505050505001 3.383838383838384,0.050505050505051545 3.2828282828282833,0.1515151515151522" data-type="line" data-label="" points="984,659.7979797979798 974.4646464646464,650.2626262626263 964.9292929292927,640.7272727272727 955.3939393939393,631.1919191919193 945.8585858585857,621.6565656565657 936.3232323232323,612.1212121212121 926.7878787878785,602.5858585858587 917.2525252525251,593.0505050505051 907.7171717171716,583.5151515151516 898.181818181818,573.979797979798 888.6464646464647,564.4444444444445 879.111111111111,554.909090909091 869.5757575757575,545.3737373737374 860.0404040404039,535.838383838384 850.5050505050505,526.3030303030304 840.969696969697,516.7676767676768 831.4343434343433,507.23232323232327 821.8989898989898,497.69696969696975" fill="none" stroke="rgba(255,0,0,0.75)" stroke-width="11.327999999999996"/></g><g><polyline data-points="3.2828282828282833,0.1515151515151522 3.181818181818183,0.2525252525252529 3.080808080808082,0.3535353535353544 2.9797979797979806,0.4545454545454551 2.87878787878788,0.5555555555555567 2.7777777777777786,0.6565656565656574 2.676767676767678,0.7575757575757579 2.575757575757577,0.8585858585858596 2.4747474747474754,0.9595959595959602 2.373737373737375,1.0606060606060617 2.2727272727272734,1.1616161616161622 2.1717171717171726,1.262626262626263 2.070707070707072,1.3636363636363644 1.9696969696969702,1.4646464646464652 1.8686868686868696,1.5656565656565666 1.767676767676768,1.6666666666666674 1.6666666666666674,1.767676767676768 1.5656565656565666,1.8686868686868696 1.4646464646464652,1.9696969696969702 1.3636363636363644,2.070707070707072 1.262626262626263,2.1717171717171726 1.1616161616161622,2.2727272727272734 1.0606060606060617,2.373737373737375 0.9595959595959602,2.4747474747474754 0.8585858585858596,2.575757575757577 0.7575757575757579,2.676767676767678 0.6565656565656574,2.7777777777777786 0.5555555555555567,2.87878787878788 0.4545454545454551,2.9797979797979806 0.3535353535353544,3.080808080808082 0.2525252525252529,3.181818181818183 0.1515151515151522,3.2828282828282833 0.050505050505051545,3.383838383838384 -0.05050505050505001,3.4848484848484866 -0.15151515151515066,3.5858585858585874 -0.2525252525252522,3.6868686868686877 -0.35353535353535287,3.6868686868686877 -0.4545454545454544,3.6868686868686877 -0.555555555555555,3.7878787878787885 -0.6565656565656557,3.8888888888888893 -0.7575757575757572,3.989898989898992 -0.8585858585858579,3.989898989898992 -0.9595959595959596,3.989898989898992 -1.0606060606060603,3.989898989898992 -1.1616161616161613,3.989898989898992 -1.2626262626262625,3.989898989898992 -1.363636363636363,3.989898989898992 -1.4646464646464643,3.989898989898992 -1.5656565656565653,3.989898989898992 -1.6666666666666665,3.989898989898992 -1.7676767676767675,3.989898989898992 -1.8686868686868683,3.989898989898992 -1.9696969696969693,3.989898989898992 -2.07070707070707,3.989898989898992 -2.1717171717171713,3.989898989898992 -2.2727272727272725,3.989898989898992 -2.3737373737373733,3.989898989898992 -2.474747474747474,3.989898989898992 -2.5757575757575752,3.989898989898992 -2.6767676767676765,3.989898989898992 -2.7777777777777777,3.989898989898992 -2.8787878787878785,3.989898989898992 -2.9797979797979792,3.989898989898992 -3.0808080808080804,3.989898989898992 -3.1818181818181817,3.989898989898992 -3.2828282828282824,3.989898989898992 -3.383838383838383,3.989898989898992 -3.484848484848485,3.989898989898992 -3.5858585858585856,3.989898989898992 -3.6868686868686864,3.989898989898992 -3.7878787878787876,3.989898989898992" data-type="line" data-label="" points="821.8989898989898,497.69696969696975 812.3636363636363,488.1616161616163 802.8282828282828,478.6262626262627 793.2929292929292,469.0909090909092 783.7575757575758,459.5555555555556 774.2222222222222,450.0202020202021 764.6868686868686,440.4848484848486 755.1515151515151,430.94949494949503 745.6161616161615,421.4141414141415 736.0808080808081,411.87878787878793 726.5454545454545,402.3434343434344 717.0101010101009,392.80808080808094 707.4747474747475,383.27272727272737 697.9393939393939,373.73737373737384 688.4040404040404,364.2020202020203 678.8686868686868,354.66666666666674 669.3333333333333,345.1313131313133 659.7979797979798,335.5959595959597 650.2626262626262,326.06060606060623 640.7272727272727,316.5252525252526 631.1919191919192,306.9898989898991 621.6565656565656,297.4545454545456 612.1212121212121,287.91919191919203 602.5858585858585,278.38383838383857 593.0505050505051,268.84848484848493 583.5151515151515,259.3131313131314 573.9797979797979,249.77777777777794 564.4444444444445,240.24242424242436 554.9090909090909,230.70707070707084 545.3737373737374,221.17171717171726 535.8383838383838,211.63636363636374 526.3030303030303,202.10101010101027 516.7676767676768,192.56565656565675 507.2323232323232,183.03030303030312 497.69696969696975,173.4949494949496 488.16161616161617,163.95959595959613 478.62626262626264,163.95959595959613 469.09090909090907,163.95959595959613 459.55555555555554,154.4242424242426 450.0202020202021,144.88888888888908 440.4848484848485,135.35353535353545 430.949494949495,135.35353535353545 421.4141414141414,135.35353535353545 411.8787878787879,135.35353535353545 402.34343434343435,135.35353535353545 392.80808080808083,135.35353535353545 383.2727272727273,135.35353535353545 373.7373737373738,135.35353535353545 364.2020202020202,135.35353535353545 354.6666666666667,135.35353535353545 345.13131313131316,135.35353535353545 335.59595959595964,135.35353535353545 326.0606060606061,135.35353535353545 316.5252525252526,135.35353535353545 306.9898989898991,135.35353535353545 297.4545454545455,135.35353535353545 287.91919191919203,135.35353535353545 278.38383838383845,135.35353535353545 268.84848484848493,135.35353535353545 259.3131313131314,135.35353535353545 249.77777777777783,135.35353535353545 240.2424242424243,135.35353535353545 230.70707070707084,135.35353535353545 221.17171717171726,135.35353535353545 211.63636363636374,135.35353535353545 202.10101010101022,135.35353535353545 192.5656565656567,135.35353535353545 183.03030303030312,135.35353535353545 173.4949494949496,135.35353535353545 163.95959595959607,135.35353535353545 154.42424242424255,135.35353535353545" fill="none" stroke="rgba(0,0,255,0.75)" stroke-width="11.327999999999996"/></g><g><polyline data-points="-3.7878787878787876,3.989898989898992 -3.8888888888888884,4.090909090909092 -3.98989898989899,4.191919191919193 -3.98989898989899,4.292929292929293 -3.98989898989899,4.393939393939394 -3.98989898989899,4.494949494949497 -3.98989898989899,4.595959595959597 -3.98989898989899,4.696969696969697 -3.98989898989899,4.7979797979797985 -3.98989898989899,4.898989898989901 -3.98989898989899,5.000000000000002" data-type="line" data-label="" points="154.42424242424255,135.35353535353545 144.88888888888903,125.81818181818198 135.35353535353545,116.28282828282846 135.35353535353545,106.747474747475 135.35353535353545,97.21212121212153 135.35353535353545,87.67676767676778 135.35353535353545,78.14141414141432 135.35353535353545,68.60606060606085 135.35353535353545,59.07070707070733 135.35353535353545,49.53535353535369 135.35353535353545,40.000000000000114" fill="none" stroke="rgba(255,0,0,0.75)" stroke-width="11.327999999999996"/></g><g><polyline data-points="4.696969696969697,5.000000000000002 4.595959595959597,4.898989898989901 4.494949494949497,4.7979797979797985 4.393939393939394,4.696969696969697 4.292929292929293,4.595959595959597 4.191919191919193,4.494949494949497 4.090909090909092,4.393939393939394 3.989898989898992,4.292929292929293 3.8888888888888893,4.191919191919193 3.7878787878787885,4.090909090909092 3.6868686868686877,3.989898989898992 3.5858585858585874,3.8888888888888893 3.4848484848484866,3.7878787878787885 3.383838383838384,3.6868686868686877 3.2828282828282833,3.5858585858585874 3.181818181818183,3.4848484848484866 3.080808080808082,3.383838383838384" data-type="line" data-label="" points="955.3939393939393,40.000000000000114 945.8585858585857,49.53535353535369 936.3232323232323,59.07070707070733 926.7878787878785,68.60606060606085 917.2525252525251,78.14141414141432 907.7171717171716,87.67676767676778 898.181818181818,97.21212121212153 888.6464646464647,106.747474747475 879.111111111111,116.28282828282846 869.5757575757575,125.81818181818198 860.0404040404039,135.35353535353545 850.5050505050505,144.88888888888908 840.969696969697,154.4242424242426 831.4343434343433,163.95959595959613 821.8989898989898,173.4949494949496 812.3636363636363,183.03030303030312 802.8282828282828,192.56565656565675" fill="none" stroke="rgba(0,0,255,0.75)" stroke-width="11.327999999999996"/></g><g><polyline data-points="3.080808080808082,3.383838383838384 2.9797979797979806,3.2828282828282833 2.87878787878788,3.181818181818183 2.7777777777777786,3.080808080808082 2.676767676767678,2.9797979797979806 2.575757575757577,2.87878787878788 2.4747474747474754,2.7777777777777786 2.373737373737375,2.676767676767678 2.2727272727272734,2.575757575757577 2.1717171717171726,2.4747474747474754 2.070707070707072,2.373737373737375 1.9696969696969702,2.2727272727272734 1.8686868686868696,2.1717171717171726 1.767676767676768,2.070707070707072 1.6666666666666674,1.9696969696969702 1.5656565656565666,1.8686868686868696 1.4646464646464652,1.767676767676768 1.3636363636363644,1.6666666666666674 1.262626262626263,1.5656565656565666 1.1616161616161622,1.4646464646464652 1.0606060606060617,1.3636363636363644 0.9595959595959602,1.262626262626263 0.8585858585858596,1.1616161616161622 0.7575757575757579,1.0606060606060617 0.6565656565656574,0.9595959595959602 0.5555555555555567,0.8585858585858596 0.4545454545454551,0.7575757575757579 0.3535353535353544,0.6565656565656574 0.2525252525252529,0.5555555555555567" data-type="line" data-label="" points="802.8282828282828,192.56565656565675 793.2929292929292,202.10101010101027 783.7575757575758,211.63636363636374 774.2222222222222,221.17171717171726 764.6868686868686,230.70707070707084 755.1515151515151,240.24242424242436 745.6161616161615,249.77777777777794 736.0808080808081,259.3131313131314 726.5454545454545,268.84848484848493 717.0101010101009,278.38383838383857 707.4747474747475,287.91919191919203 697.9393939393939,297.4545454545456 688.4040404040404,306.9898989898991 678.8686868686868,316.5252525252526 669.3333333333333,326.06060606060623 659.7979797979798,335.5959595959597 650.2626262626262,345.1313131313133 640.7272727272727,354.66666666666674 631.1919191919192,364.2020202020203 621.6565656565656,373.73737373737384 612.1212121212121,383.27272727272737 602.5858585858585,392.80808080808094 593.0505050505051,402.3434343434344 583.5151515151515,411.87878787878793 573.9797979797979,421.4141414141415 564.4444444444445,430.94949494949503 554.9090909090909,440.4848484848486 545.3737373737374,450.0202020202021 535.8383838383838,459.5555555555556" fill="none" stroke="rgba(255,0,0,0.75)" stroke-width="11.327999999999996"/></g><g><polyline data-points="0.2525252525252529,0.5555555555555567 0.1515151515151522,0.4545454545454551 0.050505050505051545,0.3535353535353544 -0.05050505050505001,0.2525252525252529 -0.15151515151515066,0.1515151515151522 -0.2525252525252522,0.050505050505051545 -0.35353535353535287,-0.05050505050505001 -0.4545454545454544,-0.15151515151515066 -0.555555555555555,-0.2525252525252522 -0.6565656565656557,-0.35353535353535287 -0.7575757575757572,-0.4545454545454544 -0.8585858585858579,-0.555555555555555 -0.9595959595959596,-0.6565656565656557 -1.0606060606060603,-0.7575757575757572 -1.1616161616161613,-0.7575757575757572 -1.2626262626262625,-0.7575757575757572 -1.363636363636363,-0.7575757575757572 -1.4646464646464643,-0.7575757575757572 -1.5656565656565653,-0.7575757575757572 -1.6666666666666665,-0.7575757575757572" data-type="line" data-label="" points="535.8383838383838,459.5555555555556 526.3030303030303,469.0909090909092 516.7676767676768,478.6262626262627 507.2323232323232,488.1616161616163 497.69696969696975,497.69696969696975 488.16161616161617,507.23232323232327 478.62626262626264,516.7676767676768 469.09090909090907,526.3030303030304 459.55555555555554,535.838383838384 450.0202020202021,545.3737373737374 440.4848484848485,554.909090909091 430.949494949495,564.4444444444445 421.4141414141414,573.979797979798 411.8787878787879,583.5151515151516 402.34343434343435,583.5151515151516 392.80808080808083,583.5151515151516 383.2727272727273,583.5151515151516 373.7373737373738,583.5151515151516 364.2020202020202,583.5151515151516 354.6666666666667,583.5151515151516" fill="none" stroke="rgba(0,0,255,0.75)" stroke-width="11.327999999999996"/></g><g><polyline data-points="-1.6666666666666665,-0.7575757575757572 -1.7676767676767675,-0.8585858585858579 -1.8686868686868683,-0.9595959595959596 -1.8686868686868683,-1.0606060606060603 -1.8686868686868683,-1.1616161616161613 -1.8686868686868683,-1.2626262626262625 -1.8686868686868683,-1.363636363636363 -1.8686868686868683,-1.4646464646464643 -1.8686868686868683,-1.5656565656565653 -1.8686868686868683,-1.6666666666666665 -1.8686868686868683,-1.7676767676767675 -1.8686868686868683,-1.8686868686868683 -1.8686868686868683,-1.9696969696969693 -1.8686868686868683,-2.07070707070707 -1.8686868686868683,-2.1717171717171713 -1.8686868686868683,-2.2727272727272725 -1.8686868686868683,-2.3737373737373733 -1.8686868686868683,-2.474747474747474 -1.8686868686868683,-2.5757575757575752 -1.8686868686868683,-2.6767676767676765 -1.8686868686868683,-2.7777777777777777 -1.8686868686868683,-2.8787878787878785 -1.8686868686868683,-2.9797979797979792 -1.8686868686868683,-3.0808080808080804 -1.8686868686868683,-3.1818181818181817 -1.8686868686868683,-3.2828282828282824 -1.8686868686868683,-3.383838383838383 -1.8686868686868683,-3.484848484848485 -1.8686868686868683,-3.5858585858585856 -1.8686868686868683,-3.6868686868686864 -1.8686868686868683,-3.7878787878787876 -1.8686868686868683,-3.8888888888888884 -1.8686868686868683,-3.98989898989899 -1.8686868686868683,-4.090909090909091 -1.8686868686868683,-4.191919191919193 -1.8686868686868683,-4.292929292929293 -1.8686868686868683,-4.393939393939394 -1.8686868686868683,-4.494949494949496 -1.8686868686868683,-4.595959595959596 -1.8686868686868683,-4.696969696969697 -1.8686868686868683,-4.7979797979797985 -1.8686868686868683,-4.898989898989899 -1.8686868686868683,-5.000000000000001" data-type="line" data-label="" points="354.6666666666667,583.5151515151516 345.13131313131316,593.0505050505051 335.59595959595964,602.5858585858587 335.59595959595964,612.1212121212121 335.59595959595964,621.6565656565657 335.59595959595964,631.1919191919193 335.59595959595964,640.7272727272727 335.59595959595964,650.2626262626263 335.59595959595964,659.7979797979798 335.59595959595964,669.3333333333334 335.59595959595964,678.8686868686868 335.59595959595964,688.4040404040404 335.59595959595964,697.939393939394 335.59595959595964,707.4747474747475 335.59595959595964,717.010101010101 335.59595959595964,726.5454545454545 335.59595959595964,736.0808080808081 335.59595959595964,745.6161616161615 335.59595959595964,755.1515151515151 335.59595959595964,764.6868686868687 335.59595959595964,774.2222222222222 335.59595959595964,783.7575757575758 335.59595959595964,793.2929292929292 335.59595959595964,802.8282828282828 335.59595959595964,812.3636363636363 335.59595959595964,821.8989898989898 335.59595959595964,831.4343434343434 335.59595959595964,840.969696969697 335.59595959595964,850.5050505050505 335.59595959595964,860.0404040404039 335.59595959595964,869.5757575757575 335.59595959595964,879.1111111111111 335.59595959595964,888.6464646464647 335.59595959595964,898.1818181818181 335.59595959595964,907.7171717171718 335.59595959595964,917.2525252525252 335.59595959595964,926.7878787878788 335.59595959595964,936.3232323232323 335.59595959595964,945.8585858585858 335.59595959595964,955.3939393939394 335.59595959595964,964.9292929292928 335.59595959595964,974.4646464646464 335.59595959595964,984" fill="none" stroke="rgba(255,0,0,0.75)" stroke-width="11.327999999999996"/></g><g><polyline data-points="5.000000000000002,-0.7575757575757572 5.000000000000002,-0.8585858585858579 4.898989898989901,-0.9595959595959596 4.7979797979797985,-1.0606060606060603 4.696969696969697,-1.0606060606060603 4.595959595959597,-1.0606060606060603 4.494949494949497,-1.0606060606060603 4.393939393939394,-1.0606060606060603 4.292929292929293,-1.0606060606060603 4.191919191919193,-1.0606060606060603 4.090909090909092,-1.0606060606060603 3.989898989898992,-1.0606060606060603 3.8888888888888893,-1.0606060606060603 3.7878787878787885,-1.0606060606060603 3.6868686868686877,-1.0606060606060603 3.5858585858585874,-1.0606060606060603 3.4848484848484866,-1.0606060606060603 3.383838383838384,-1.0606060606060603" data-type="line" data-label="" points="984,583.5151515151516 984,593.0505050505051 974.4646464646464,602.5858585858587 964.9292929292927,612.1212121212121 955.3939393939393,612.1212121212121 945.8585858585857,612.1212121212121 936.3232323232323,612.1212121212121 926.7878787878785,612.1212121212121 917.2525252525251,612.1212121212121 907.7171717171716,612.1212121212121 898.181818181818,612.1212121212121 888.6464646464647,612.1212121212121 879.111111111111,612.1212121212121 869.5757575757575,612.1212121212121 860.0404040404039,612.1212121212121 850.5050505050505,612.1212121212121 840.969696969697,612.1212121212121 831.4343434343433,612.1212121212121" fill="none" stroke="rgba(0,0,255,0.75)" stroke-width="11.327999999999996"/></g><g><polyline data-points="3.383838383838384,-1.0606060606060603 3.2828282828282833,-1.0606060606060603 3.181818181818183,-1.0606060606060603 3.080808080808082,-1.0606060606060603 2.9797979797979806,-1.1616161616161613 2.87878787878788,-1.2626262626262625 2.7777777777777786,-1.363636363636363 2.676767676767678,-1.4646464646464643" data-type="line" data-label="" points="831.4343434343433,612.1212121212121 821.8989898989898,612.1212121212121 812.3636363636363,612.1212121212121 802.8282828282828,612.1212121212121 793.2929292929292,621.6565656565657 783.7575757575758,631.1919191919193 774.2222222222222,640.7272727272727 764.6868686868686,650.2626262626263" fill="none" stroke="rgba(255,0,0,0.75)" stroke-width="11.327999999999996"/></g><g><polyline data-points="2.676767676767678,-1.4646464646464643 2.575757575757577,-1.5656565656565653 2.4747474747474754,-1.6666666666666665 2.373737373737375,-1.7676767676767675 2.2727272727272734,-1.8686868686868683 2.1717171717171726,-1.9696969696969693 2.070707070707072,-2.07070707070707 1.9696969696969702,-2.1717171717171713" data-type="line" data-label="" points="764.6868686868686,650.2626262626263 755.1515151515151,659.7979797979798 745.6161616161615,669.3333333333334 736.0808080808081,678.8686868686868 726.5454545454545,688.4040404040404 717.0101010101009,697.939393939394 707.4747474747475,707.4747474747475 697.9393939393939,717.010101010101" fill="none" stroke="rgba(0,0,255,0.75)" stroke-width="11.327999999999996"/></g><g><polyline data-points="1.9696969696969702,-2.1717171717171713 1.8686868686868696,-2.07070707070707 1.767676767676768,-1.9696969696969693 1.6666666666666674,-1.8686868686868683 1.5656565656565666,-1.7676767676767675 1.4646464646464652,-1.6666666666666665 1.3636363636363644,-1.5656565656565653 1.262626262626263,-1.4646464646464643 1.1616161616161622,-1.4646464646464643 1.0606060606060617,-1.4646464646464643 0.9595959595959602,-1.4646464646464643 0.8585858585858596,-1.4646464646464643 0.7575757575757579,-1.4646464646464643 0.6565656565656574,-1.4646464646464643 0.5555555555555567,-1.4646464646464643 0.4545454545454551,-1.4646464646464643 0.3535353535353544,-1.4646464646464643 0.2525252525252529,-1.4646464646464643 0.1515151515151522,-1.4646464646464643 0.050505050505051545,-1.4646464646464643 -0.05050505050505001,-1.4646464646464643 -0.15151515151515066,-1.4646464646464643 -0.2525252525252522,-1.4646464646464643 -0.35353535353535287,-1.4646464646464643 -0.4545454545454544,-1.4646464646464643 -0.555555555555555,-1.4646464646464643 -0.6565656565656557,-1.4646464646464643 -0.7575757575757572,-1.4646464646464643 -0.8585858585858579,-1.4646464646464643 -0.9595959595959596,-1.4646464646464643 -1.0606060606060603,-1.4646464646464643 -1.1616161616161613,-1.4646464646464643 -1.2626262626262625,-1.4646464646464643 -1.363636363636363,-1.4646464646464643 -1.4646464646464643,-1.4646464646464643" data-type="line" data-label="" points="697.9393939393939,717.010101010101 688.4040404040404,707.4747474747475 678.8686868686868,697.939393939394 669.3333333333333,688.4040404040404 659.7979797979798,678.8686868686868 650.2626262626262,669.3333333333334 640.7272727272727,659.7979797979798 631.1919191919192,650.2626262626263 621.6565656565656,650.2626262626263 612.1212121212121,650.2626262626263 602.5858585858585,650.2626262626263 593.0505050505051,650.2626262626263 583.5151515151515,650.2626262626263 573.9797979797979,650.2626262626263 564.4444444444445,650.2626262626263 554.9090909090909,650.2626262626263 545.3737373737374,650.2626262626263 535.8383838383838,650.2626262626263 526.3030303030303,650.2626262626263 516.7676767676768,650.2626262626263 507.2323232323232,650.2626262626263 497.69696969696975,650.2626262626263 488.16161616161617,650.2626262626263 478.62626262626264,650.2626262626263 469.09090909090907,650.2626262626263 459.55555555555554,650.2626262626263 450.0202020202021,650.2626262626263 440.4848484848485,650.2626262626263 430.949494949495,650.2626262626263 421.4141414141414,650.2626262626263 411.8787878787879,650.2626262626263 402.34343434343435,650.2626262626263 392.80808080808083,650.2626262626263 383.2727272727273,650.2626262626263 373.7373737373738,650.2626262626263" fill="none" stroke="rgba(255,0,0,0.75)" stroke-width="11.327999999999996"/></g><g><polyline data-points="-1.4646464646464643,-1.4646464646464643 -1.5656565656565653,-1.363636363636363 -1.6666666666666665,-1.2626262626262625 -1.7676767676767675,-1.2626262626262625 -1.8686868686868683,-1.2626262626262625 -1.9696969696969693,-1.2626262626262625 -2.07070707070707,-1.2626262626262625 -2.1717171717171713,-1.2626262626262625 -2.2727272727272725,-1.2626262626262625 -2.3737373737373733,-1.2626262626262625 -2.474747474747474,-1.2626262626262625 -2.5757575757575752,-1.2626262626262625 -2.6767676767676765,-1.2626262626262625 -2.7777777777777777,-1.2626262626262625 -2.8787878787878785,-1.2626262626262625 -2.9797979797979792,-1.2626262626262625 -3.0808080808080804,-1.2626262626262625 -3.1818181818181817,-1.2626262626262625 -3.2828282828282824,-1.2626262626262625 -3.383838383838383,-1.2626262626262625 -3.484848484848485,-1.2626262626262625 -3.5858585858585856,-1.2626262626262625 -3.6868686868686864,-1.2626262626262625 -3.7878787878787876,-1.2626262626262625 -3.8888888888888884,-1.2626262626262625 -3.98989898989899,-1.2626262626262625 -4.090909090909091,-1.2626262626262625 -4.191919191919193,-1.2626262626262625 -4.292929292929293,-1.2626262626262625 -4.393939393939394,-1.2626262626262625 -4.494949494949496,-1.2626262626262625 -4.595959595959596,-1.2626262626262625 -4.696969696969697,-1.2626262626262625 -4.7979797979797985,-1.1616161616161613 -4.898989898989899,-1.0606060606060603 -5.000000000000001,-0.9595959595959596" data-type="line" data-label="" points="373.7373737373738,650.2626262626263 364.2020202020202,640.7272727272727 354.6666666666667,631.1919191919193 345.13131313131316,631.1919191919193 335.59595959595964,631.1919191919193 326.0606060606061,631.1919191919193 316.5252525252526,631.1919191919193 306.9898989898991,631.1919191919193 297.4545454545455,631.1919191919193 287.91919191919203,631.1919191919193 278.38383838383845,631.1919191919193 268.84848484848493,631.1919191919193 259.3131313131314,631.1919191919193 249.77777777777783,631.1919191919193 240.2424242424243,631.1919191919193 230.70707070707084,631.1919191919193 221.17171717171726,631.1919191919193 211.63636363636374,631.1919191919193 202.10101010101022,631.1919191919193 192.5656565656567,631.1919191919193 183.03030303030312,631.1919191919193 173.4949494949496,631.1919191919193 163.95959595959607,631.1919191919193 154.42424242424255,631.1919191919193 144.88888888888903,631.1919191919193 135.35353535353545,631.1919191919193 125.81818181818193,631.1919191919193 116.28282828282829,631.1919191919193 106.74747474747483,631.1919191919193 97.21212121212136,631.1919191919193 87.67676767676772,631.1919191919193 78.14141414141426,631.1919191919193 68.60606060606068,631.1919191919193 59.07070707070716,621.6565656565657 49.53535353535369,612.1212121212121 40.00000000000006,602.5858585858587" fill="none" stroke="rgba(0,0,255,0.75)" stroke-width="11.327999999999996"/></g><g><polyline data-points="5.000000000000002,-3.1818181818181817 4.898989898989901,-3.1818181818181817 4.7979797979797985,-3.0808080808080804 4.696969696969697,-2.9797979797979792 4.595959595959597,-2.8787878787878785 4.494949494949497,-2.7777777777777777 4.393939393939394,-2.6767676767676765 4.292929292929293,-2.5757575757575752 4.191919191919193,-2.474747474747474 4.090909090909092,-2.3737373737373733 3.989898989898992,-2.2727272727272725 3.8888888888888893,-2.1717171717171713 3.7878787878787885,-2.07070707070707 3.6868686868686877,-1.9696969696969693 3.5858585858585874,-1.8686868686868683 3.4848484848484866,-1.7676767676767675 3.383838383838384,-1.6666666666666665 3.2828282828282833,-1.5656565656565653 3.181818181818183,-1.4646464646464643 3.080808080808082,-1.363636363636363 2.9797979797979806,-1.2626262626262625 2.87878787878788,-1.1616161616161613 2.9797979797979806,-1.0606060606060603 2.87878787878788,-0.9595959595959596 2.7777777777777786,-0.8585858585858579 2.676767676767678,-0.7575757575757572 2.575757575757577,-0.7575757575757572 2.4747474747474754,-0.7575757575757572 2.373737373737375,-0.7575757575757572 2.2727272727272734,-0.7575757575757572 2.1717171717171726,-0.7575757575757572 2.070707070707072,-0.7575757575757572 1.9696969696969702,-0.7575757575757572 1.8686868686868696,-0.7575757575757572 1.767676767676768,-0.7575757575757572 1.6666666666666674,-0.7575757575757572" data-type="line" data-label="" points="984,812.3636363636363 974.4646464646464,812.3636363636363 964.9292929292927,802.8282828282828 955.3939393939393,793.2929292929292 945.8585858585857,783.7575757575758 936.3232323232323,774.2222222222222 926.7878787878785,764.6868686868687 917.2525252525251,755.1515151515151 907.7171717171716,745.6161616161615 898.181818181818,736.0808080808081 888.6464646464647,726.5454545454545 879.111111111111,717.010101010101 869.5757575757575,707.4747474747475 860.0404040404039,697.939393939394 850.5050505050505,688.4040404040404 840.969696969697,678.8686868686868 831.4343434343433,669.3333333333334 821.8989898989898,659.7979797979798 812.3636363636363,650.2626262626263 802.8282828282828,640.7272727272727 793.2929292929292,631.1919191919193 783.7575757575758,621.6565656565657 793.2929292929292,612.1212121212121 783.7575757575758,602.5858585858587 774.2222222222222,593.0505050505051 764.6868686868686,583.5151515151516 755.1515151515151,583.5151515151516 745.6161616161615,583.5151515151516 736.0808080808081,583.5151515151516 726.5454545454545,583.5151515151516 717.0101010101009,583.5151515151516 707.4747474747475,583.5151515151516 697.9393939393939,583.5151515151516 688.4040404040404,583.5151515151516 678.8686868686868,583.5151515151516 669.3333333333333,583.5151515151516" fill="none" stroke="rgba(0,0,255,0.75)" stroke-width="11.327999999999996"/></g><g><polyline data-points="1.6666666666666674,-0.7575757575757572 1.5656565656565666,-0.6565656565656557 1.4646464646464652,-0.555555555555555 1.3636363636363644,-0.4545454545454544 1.262626262626263,-0.35353535353535287 1.1616161616161622,-0.2525252525252522 1.0606060606060617,-0.15151515151515066 0.9595959595959602,-0.05050505050505001 0.8585858585858596,0.050505050505051545 0.7575757575757579,0.1515151515151522 0.6565656565656574,0.2525252525252529 0.5555555555555567,0.3535353535353544" data-type="line" data-label="" points="669.3333333333333,583.5151515151516 659.7979797979798,573.979797979798 650.2626262626262,564.4444444444445 640.7272727272727,554.909090909091 631.1919191919192,545.3737373737374 621.6565656565656,535.838383838384 612.1212121212121,526.3030303030304 602.5858585858585,516.7676767676768 593.0505050505051,507.23232323232327 583.5151515151515,497.69696969696975 573.9797979797979,488.1616161616163 564.4444444444445,478.6262626262627" fill="none" stroke="rgba(255,0,0,0.75)" stroke-width="11.327999999999996"/></g><g><polyline data-points="0.5555555555555567,0.3535353535353544 0.5555555555555567,0.4545454545454551 0.5555555555555567,0.5555555555555567 0.4545454545454551,0.6565656565656574 0.3535353535353544,0.7575757575757579 0.2525252525252529,0.8585858585858596 0.1515151515151522,0.9595959595959602 0.050505050505051545,1.0606060606060617 -0.05050505050505001,1.1616161616161622 -0.15151515151515066,1.262626262626263 -0.2525252525252522,1.3636363636363644 -0.35353535353535287,1.4646464646464652 -0.4545454545454544,1.5656565656565666 -0.555555555555555,1.6666666666666674 -0.6565656565656557,1.767676767676768 -0.7575757575757572,1.8686868686868696 -0.8585858585858579,1.9696969696969702 -0.9595959595959596,2.070707070707072 -1.0606060606060603,2.1717171717171726 -1.1616161616161613,2.2727272727272734 -1.2626262626262625,2.373737373737375 -1.363636363636363,2.4747474747474754 -1.4646464646464643,2.575757575757577 -1.5656565656565653,2.676767676767678 -1.6666666666666665,2.676767676767678 -1.7676767676767675,2.676767676767678 -1.8686868686868683,2.676767676767678 -1.9696969696969693,2.676767676767678 -2.07070707070707,2.676767676767678 -2.1717171717171713,2.676767676767678 -2.2727272727272725,2.676767676767678 -2.3737373737373733,2.676767676767678 -2.474747474747474,2.676767676767678 -2.5757575757575752,2.676767676767678 -2.6767676767676765,2.676767676767678 -2.7777777777777777,2.676767676767678 -2.8787878787878785,2.676767676767678 -2.9797979797979792,2.676767676767678 -3.0808080808080804,2.676767676767678 -3.1818181818181817,2.676767676767678 -3.2828282828282824,2.676767676767678 -3.383838383838383,2.676767676767678 -3.484848484848485,2.676767676767678 -3.5858585858585856,2.676767676767678 -3.6868686868686864,2.676767676767678 -3.7878787878787876,2.676767676767678 -3.8888888888888884,2.676767676767678 -3.98989898989899,2.676767676767678 -4.090909090909091,2.676767676767678 -4.191919191919193,2.676767676767678 -4.292929292929293,2.676767676767678 -4.393939393939394,2.676767676767678 -4.494949494949496,2.676767676767678 -4.595959595959596,2.676767676767678 -4.696969696969697,2.676767676767678 -4.7979797979797985,2.676767676767678 -4.898989898989899,2.676767676767678 -5.000000000000001,2.676767676767678" data-type="line" data-label="" points="564.4444444444445,478.6262626262627 564.4444444444445,469.0909090909092 564.4444444444445,459.5555555555556 554.9090909090909,450.0202020202021 545.3737373737374,440.4848484848486 535.8383838383838,430.94949494949503 526.3030303030303,421.4141414141415 516.7676767676768,411.87878787878793 507.2323232323232,402.3434343434344 497.69696969696975,392.80808080808094 488.16161616161617,383.27272727272737 478.62626262626264,373.73737373737384 469.09090909090907,364.2020202020203 459.55555555555554,354.66666666666674 450.0202020202021,345.1313131313133 440.4848484848485,335.5959595959597 430.949494949495,326.06060606060623 421.4141414141414,316.5252525252526 411.8787878787879,306.9898989898991 402.34343434343435,297.4545454545456 392.80808080808083,287.91919191919203 383.2727272727273,278.38383838383857 373.7373737373738,268.84848484848493 364.2020202020202,259.3131313131314 354.6666666666667,259.3131313131314 345.13131313131316,259.3131313131314 335.59595959595964,259.3131313131314 326.0606060606061,259.3131313131314 316.5252525252526,259.3131313131314 306.9898989898991,259.3131313131314 297.4545454545455,259.3131313131314 287.91919191919203,259.3131313131314 278.38383838383845,259.3131313131314 268.84848484848493,259.3131313131314 259.3131313131314,259.3131313131314 249.77777777777783,259.3131313131314 240.2424242424243,259.3131313131314 230.70707070707084,259.3131313131314 221.17171717171726,259.3131313131314 211.63636363636374,259.3131313131314 202.10101010101022,259.3131313131314 192.5656565656567,259.3131313131314 183.03030303030312,259.3131313131314 173.4949494949496,259.3131313131314 163.95959595959607,259.3131313131314 154.42424242424255,259.3131313131314 144.88888888888903,259.3131313131314 135.35353535353545,259.3131313131314 125.81818181818193,259.3131313131314 116.28282828282829,259.3131313131314 106.74747474747483,259.3131313131314 97.21212121212136,259.3131313131314 87.67676767676772,259.3131313131314 78.14141414141426,259.3131313131314 68.60606060606068,259.3131313131314 59.07070707070716,259.3131313131314 49.53535353535369,259.3131313131314 40.00000000000006,259.3131313131314" fill="none" stroke="rgba(0,0,255,0.75)" stroke-width="11.327999999999996"/></g><g><rect data-type="rect" data-label="" data-x="0" data-y="0" x="40.000000000000114" y="40.000000000000284" width="943.9999999999997" height="943.9999999999998" fill="none" stroke="gray" stroke-width="0.010593220338983056"/></g><g><rect data-type="rect" data-label="" data-x="0" data-y="0" x="40.000000000000114" y="40.000000000000284" width="943.9999999999997" height="943.9999999999998" fill="none" stroke="rgba(15, 23, 42, 0.8)" stroke-width="0.010593220338983056"/></g><circle data-type="circle" data-label="" data-x="0.1515151515151522" data-y="-0.35353535353535287" cx="526.3030303030303" cy="545.3737373737374" r="14.159999999999995" fill="rgba(0,0,0,0.3)" stroke="black" stroke-width="0.010593220338983056"/><circle data-type="circle" data-label="" data-x="2.1717171717171726" data-y="-1.363636363636363" cx="717.0101010101009" cy="640.7272727272727" r="14.159999999999995" fill="rgba(0,0,0,0.3)" stroke="black" stroke-width="0.010593220338983056"/><circle data-type="circle" data-label="" data-x="1.767676767676768" data-y="3.989898989898992" cx="678.8686868686868" cy="135.35353535353545" r="14.159999999999995" fill="rgba(0,0,0,0.3)" stroke="black" stroke-width="0.010593220338983056"/><circle data-type="circle" data-label="" data-x="-0.4545454545454544" data-y="3.989898989898992" cx="469.09090909090907" cy="135.35353535353545" r="14.159999999999995" fill="rgba(0,0,0,0.3)" stroke="black" stroke-width="0.010593220338983056"/><circle data-type="circle" data-label="" data-x="3.2828282828282833" data-y="0.1515151515151522" cx="821.8989898989898" cy="497.69696969696975" r="14.159999999999995" fill="rgba(0,0,0,0.3)" stroke="black" stroke-width="0.010593220338983056"/><circle data-type="circle" data-label="" data-x="-3.7878787878787876" data-y="3.989898989898992" cx="154.42424242424255" cy="135.35353535353545" r="14.159999999999995" fill="rgba(0,0,0,0.3)" stroke="black" stroke-width="0.010593220338983056"/><circle data-type="circle" data-label="" data-x="3.080808080808082" data-y="3.383838383838384" cx="802.8282828282828" cy="192.56565656565675" r="14.159999999999995" fill="rgba(0,0,0,0.3)" stroke="black" stroke-width="0.010593220338983056"/><circle data-type="circle" data-label="" data-x="0.2525252525252529" data-y="0.5555555555555567" cx="535.8383838383838" cy="459.5555555555556" r="14.159999999999995" fill="rgba(0,0,0,0.3)" stroke="black" stroke-width="0.010593220338983056"/><circle data-type="circle" data-label="" data-x="-1.6666666666666665" data-y="-0.7575757575757572" cx="354.6666666666667" cy="583.5151515151516" r="14.159999999999995" fill="rgba(0,0,0,0.3)" stroke="black" stroke-width="0.010593220338983056"/><circle data-type="circle" data-label="" data-x="3.383838383838384" data-y="-1.0606060606060603" cx="831.4343434343433" cy="612.1212121212121" r="14.159999999999995" fill="rgba(0,0,0,0.3)" stroke="black" stroke-width="0.010593220338983056"/><circle data-type="circle" data-label="" data-x="2.676767676767678" data-y="-1.4646464646464643" cx="764.6868686868686" cy="650.2626262626263" r="14.159999999999995" fill="rgba(0,0,0,0.3)" stroke="black" stroke-width="0.010593220338983056"/><circle data-type="circle" data-label="" data-x="1.9696969696969702" data-y="-2.1717171717171713" cx="697.9393939393939" cy="717.010101010101" r="14.159999999999995" fill="rgba(0,0,0,0.3)" stroke="black" stroke-width="0.010593220338983056"/><circle data-type="circle" data-label="" data-x="-1.4646464646464643" data-y="-1.4646464646464643" cx="373.7373737373738" cy="650.2626262626263" r="14.159999999999995" fill="rgba(0,0,0,0.3)" stroke="black" stroke-width="0.010593220338983056"/><circle data-type="circle" data-label="" data-x="1.6666666666666674" data-y="-0.7575757575757572" cx="669.3333333333333" cy="583.5151515151516" r="14.159999999999995" fill="rgba(0,0,0,0.3)" stroke="black" stroke-width="0.010593220338983056"/><circle data-type="circle" data-label="" data-x="0.5555555555555567" data-y="0.3535353535353544" cx="564.4444444444445" cy="478.6262626262627" r="14.159999999999995" fill="rgba(0,0,0,0.3)" stroke="black" stroke-width="0.010593220338983056"/><g id="crosshair" style="display: none"><line id="crosshair-h" y1="0" y2="1024" stroke="#666" stroke-width="0.5"/><line id="crosshair-v" x1="0" x2="1024" stroke="#666" stroke-width="0.5"/><text id="coordinates" font-family="monospace" font-size="12" fill="#666"></text></g><script><![CDATA[
              document.currentScript.parentElement.addEventListener('mousemove', (e) => {
                const svg = e.currentTarget;
                const rect = svg.getBoundingClientRect();
                const x = e.clientX - rect.left;
                const y = e.clientY - rect.top;
                const crosshair = svg.getElementById('crosshair');
                const h = svg.getElementById('crosshair-h');
                const v = svg.getElementById('crosshair-v');
                const coords = svg.getElementById('coordinates');
                
                crosshair.style.display = 'block';
                h.setAttribute('x1', '0');
                h.setAttribute('x2', '1024');
                h.setAttribute('y1', y);
                h.setAttribute('y2', y);
                v.setAttribute('x1', x);
                v.setAttribute('x2', x);
                v.setAttribute('y1', '0');
                v.setAttribute('y2', '1024');

                // Calculate real coordinates using inverse transformation
                const matrix = {"a":94.39999999999996,"c":0,"e":511.99999999999994,"b":0,"d":-94.39999999999996,"f":512.0000000000001};
                // Manually invert and apply the affine transform
                // Since we only use translate and scale, we can directly compute:
                // x' = (x - tx) / sx
                // y' = (y - ty) / sy
                const sx = matrix.a;
                const sy = matrix.d;
                const tx = matrix.e; 
                const ty = matrix.f;
                const realPoint = {
                  x: (x - tx) / sx,
                  y: (y - ty) / sy // Flip y back since we used negative scale
                }
                
                coords.textContent = `(${realPoint.x.toFixed(2)}, ${realPoint.y.toFixed(2)})`;
                coords.setAttribute('x', (x + 5).toString());
                coords.setAttribute('y', (y - 5).toString());
              });
              document.currentScript.parentElement.addEventListener('mouseleave', () => {
                document.currentScript.parentElement.getElementById('crosshair').style.display = 'none';
              });
            ]]></script></svg>