<svg width="1024" height="1024" viewBox="0 0 1024 1024" xmlns="http://www.w3.org/2000/svg"><rect width="100%" height="100%" fill="white"/><g><circle data-type="point" data-label="conn_000" data-x="4.66" data-y="5" cx="951.9039999999998" cy="40.000000000000284" r="14.16" fill="red"/></g><g><circle data-type="point" data-label="conn_000" data-x="1.6" data-y="-5" cx="663.0399999999998" cy="984" r="14.16" fill="red"/></g><g><circle data-type="point" data-label="conn_001" data-x="-5" data-y="2.08" cx="40.000000000000114" cy="315.6480000000002" r="14.16" fill="blue"/></g><g><circle data-type="point" data-label="conn_001" data-x="5" data-y="-2.42" cx="983.9999999999998" cy="740.448" r="14.16" fill="red"/></g><g><circle data-type="point" data-label="conn_002" data-x="5" data-y="-1.58" cx="983.9999999999998" cy="661.152" r="14.16" fill="blue"/></g><g><circle data-type="point" data-label="conn_002" data-x="-5" data-y="-1.08" cx="40.000000000000114" cy="613.9520000000001" r="14.16" fill="blue"/></g><g><circle data-type="point" data-label="conn_003" data-x="5" data-y="1.28" cx="983.9999999999998" cy="391.1680000000002" r="14.16" fill="blue"/></g><g><circle data-type="point" data-label="conn_003" data-x="-5" data-y="-0.72" cx="40.000000000000114" cy="579.9680000000001" r="14.16" fill="blue"/></g><g><circle data-type="point" data-label="conn_004" data-x="-4.38" data-y="-5" cx="98.52800000000013" cy="984" r="14.16" fill="red"/></g><g><circle data-type="point" data-label="conn_004" data-x="5" data-y="-1.82" cx="983.9999999999998" cy="683.808" r="14.16" fill="red"/></g><g><circle data-type="point" data-label="conn_005" data-x="5" data-y="0.12" cx="983.9999999999998" cy="500.67200000000014" r="14.16" fill="red"/></g><g><circle data-type="point" data-label="conn_005" data-x="-5" data-y="-1.18" cx="40.000000000000114" cy="623.392" r="14.16" fill="red"/></g><g><circle data-type="point" data-label="conn_006" data-x="5" data-y="-2.56" cx="983.9999999999998" cy="753.664" r="14.16" fill="blue"/></g><g><circle data-type="point" data-label="conn_006" data-x="-5" data-y="2.74" cx="40.000000000000114" cy="253.34400000000022" r="14.16" fill="blue"/></g><g><circle data-type="point" data-label="conn_007" data-x="-5" data-y="-1.44" cx="40.000000000000114" cy="647.936" r="14.16" fill="blue"/></g><g><circle data-type="point" data-label="conn_007" data-x="5" data-y="2.88" cx="983.9999999999998" cy="240.1280000000002" r="14.16" fill="blue"/></g><g><polyline data-points="5.000000000000002,-1.5656565656565653 4.898989898989901,-1.4646464646464643 4.7979797979797985,-1.363636363636363 4.696969696969697,-1.2626262626262625 4.595959595959597,-1.1616161616161613 4.494949494949497,-1.0606060606060603 4.393939393939394,-1.0606060606060603 4.292929292929293,-1.0606060606060603 4.191919191919193,-1.0606060606060603 4.090909090909092,-1.0606060606060603 3.989898989898992,-1.0606060606060603 3.8888888888888893,-1.0606060606060603 3.7878787878787885,-1.0606060606060603 3.6868686868686877,-1.0606060606060603 3.5858585858585874,-1.0606060606060603 3.4848484848484866,-1.0606060606060603 3.383838383838384,-1.0606060606060603 3.2828282828282833,-1.0606060606060603 3.181818181818183,-1.0606060606060603 3.080808080808082,-1.0606060606060603 2.9797979797979806,-1.0606060606060603 2.87878787878788,-1.0606060606060603 2.7777777777777786,-1.0606060606060603 2.676767676767678,-1.0606060606060603 2.575757575757577,-1.0606060606060603 2.4747474747474754,-1.0606060606060603 2.373737373737375,-1.0606060606060603 2.2727272727272734,-1.0606060606060603 2.1717171717171726,-1.0606060606060603 2.070707070707072,-1.0606060606060603 1.9696969696969702,-1.0606060606060603 1.8686868686868696,-1.0606060606060603 1.767676767676768,-1.0606060606060603 1.6666666666666674,-1.0606060606060603 1.5656565656565666,-1.0606060606060603 1.4646464646464652,-1.0606060606060603 1.3636363636363644,-1.0606060606060603 1.262626262626263,-1.0606060606060603 1.1616161616161622,-1.0606060606060603 1.0606060606060617,-1.0606060606060603 0.9595959595959602,-1.0606060606060603 0.8585858585858596,-1.0606060606060603 0.7575757575757579,-1.0606060606060603 0.6565656565656574,-1.0606060606060603 0.5555555555555567,-1.0606060606060603 0.4545454545454551,-1.0606060606060603 0.3535353535353544,-1.0606060606060603 0.2525252525252529,-1.0606060606060603 0.1515151515151522,-1.0606060606060603 0.050505050505051545,-1.0606060606060603 -0.05050505050505001,-1.0606060606060603 -0.15151515151515066,-1.0606060606060603 -0.2525252525252522,-1.0606060606060603 -0.35353535353535287,-1.0606060606060603 -0.4545454545454544,-1.0606060606060603 -0.555555555555555,-1.0606060606060603 -0.6565656565656557,-1.0606060606060603 -0.7575757575757572,-1.0606060606060603 -0.8585858585858579,-1.0606060606060603 -0.9595959595959596,-1.0606060606060603 -1.0606060606060603,-1.0606060606060603 -1.1616161616161613,-1.0606060606060603 -1.2626262626262625,-1.0606060606060603 -1.363636363636363,-1.0606060606060603 -1.4646464646464643,-1.0606060606060603 -1.5656565656565653,-1.0606060606060603 -1.6666666666666665,-1.0606060606060603 -1.7676767676767675,-1.0606060606060603 -1.8686868686868683,-1.0606060606060603 -1.9696969696969693,-1.0606060606060603 -2.07070707070707,-1.0606060606060603 -2.1717171717171713,-1.0606060606060603 -2.2727272727272725,-1.0606060606060603 -2.3737373737373733,-1.0606060606060603 -2.474747474747474,-1.0606060606060603 -2.5757575757575752,-1.0606060606060603 -2.6767676767676765,-1.0606060606060603 -2.7777777777777777,-1.0606060606060603 -2.8787878787878785,-1.0606060606060603 -2.9797979797979792,-1.0606060606060603 -3.0808080808080804,-1.0606060606060603 -3.1818181818181817,-1.0606060606060603 -3.2828282828282824,-1.0606060606060603 -3.383838383838383,-1.0606060606060603 -3.484848484848485,-1.0606060606060603 -3.5858585858585856,-1.0606060606060603 -3.6868686868686864,-1.0606060606060603 -3.7878787878787876,-1.0606060606060603 -3.8888888888888884,-1.0606060606060603 -3.98989898989899,-1.0606060606060603 -4.090909090909091,-1.0606060606060603 -4.191919191919193,-1.0606060606060603 -4.292929292929293,-1.0606060606060603 -4.393939393939394,-1.0606060606060603 -4.494949494949496,-1.0606060606060603 -4.595959595959596,-1.0606060606060603 -4.696969696969697,-1.0606060606060603 -4.7979797979797985,-1.0606060606060603 -4.898989898989899,-1.0606060606060603 -5.000000000000001,-1.0606060606060603" data-type="line" data-label="" points="984,659.7979797979798 974.4646464646464,650.2626262626263 964.9292929292927,640.7272727272727 955.3939393939393,631.1919191919193 945.8585858585857,621.6565656565657 936.3232323232323,612.1212121212121 926.7878787878785,612.1212121212121 917.2525252525251,612.1212121212121 907.7171717171716,612.1212121212121 898.181818181818,612.1212121212121 888.6464646464647,612.1212121212121 879.111111111111,612.1212121212121 869.5757575757575,612.1212121212121 860.0404040404039,612.1212121212121 850.5050505050505,612.1212121212121 840.969696969697,612.1212121212121 831.4343434343433,612.1212121212121 821.8989898989898,612.1212121212121 812.3636363636363,612.1212121212121 802.8282828282828,612.1212121212121 793.2929292929292,612.1212121212121 783.7575757575758,612.1212121212121 774.2222222222222,612.1212121212121 764.6868686868686,612.1212121212121 755.1515151515151,612.1212121212121 745.6161616161615,612.1212121212121 736.0808080808081,612.1212121212121 726.5454545454545,612.1212121212121 717.0101010101009,612.1212121212121 707.4747474747475,612.1212121212121 697.9393939393939,612.1212121212121 688.4040404040404,612.1212121212121 678.8686868686868,612.1212121212121 669.3333333333333,612.1212121212121 659.7979797979798,612.1212121212121 650.2626262626262,612.1212121212121 640.7272727272727,612.1212121212121 631.1919191919192,612.1212121212121 621.6565656565656,612.1212121212121 612.1212121212121,612.1212121212121 602.5858585858585,612.1212121212121 593.0505050505051,612.1212121212121 583.5151515151515,612.1212121212121 573.9797979797979,612.1212121212121 564.4444444444445,612.1212121212121 554.9090909090909,612.1212121212121 545.3737373737374,612.1212121212121 535.8383838383838,612.1212121212121 526.3030303030303,612.1212121212121 516.7676767676768,612.1212121212121 507.2323232323232,612.1212121212121 497.69696969696975,612.1212121212121 488.16161616161617,612.1212121212121 478.62626262626264,612.1212121212121 469.09090909090907,612.1212121212121 459.55555555555554,612.1212121212121 450.0202020202021,612.1212121212121 440.4848484848485,612.1212121212121 430.949494949495,612.1212121212121 421.4141414141414,612.1212121212121 411.8787878787879,612.1212121212121 402.34343434343435,612.1212121212121 392.80808080808083,612.1212121212121 383.2727272727273,612.1212121212121 373.7373737373738,612.1212121212121 364.2020202020202,612.1212121212121 354.6666666666667,612.1212121212121 345.13131313131316,612.1212121212121 335.59595959595964,612.1212121212121 326.0606060606061,612.1212121212121 316.5252525252526,612.1212121212121 306.9898989898991,612.1212121212121 297.4545454545455,612.1212121212121 287.91919191919203,612.1212121212121 278.38383838383845,612.1212121212121 268.84848484848493,612.1212121212121 259.3131313131314,612.1212121212121 249.77777777777783,612.1212121212121 240.2424242424243,612.1212121212121 230.70707070707084,612.1212121212121 221.17171717171726,612.1212121212121 211.63636363636374,612.1212121212121 202.10101010101022,612.1212121212121 192.5656565656567,612.1212121212121 183.03030303030312,612.1212121212121 173.4949494949496,612.1212121212121 163.95959595959607,612.1212121212121 154.42424242424255,612.1212121212121 144.88888888888903,612.1212121212121 135.35353535353545,612.1212121212121 125.81818181818193,612.1212121212121 116.28282828282829,612.1212121212121 106.74747474747483,612.1212121212121 97.21212121212136,612.1212121212121 87.67676767676772,612.1212121212121 78.14141414141426,612.1212121212121 68.60606060606068,612.1212121212121 59.07070707070716,612.1212121212121 49.53535353535369,612.1212121212121 40.00000000000006,612.1212121212121" fill="none" stroke="rgba(0,0,255,0.75)" stroke-width="11.327999999999996"/></g><g><polyline data-points="5.000000000000002,1.262626262626263 4.898989898989901,1.1616161616161622 4.7979797979797985,1.0606060606060617 4.696969696969697,0.9595959595959602 4.595959595959597,0.8585858585858596 4.494949494949497,0.7575757575757579 4.393939393939394,0.6565656565656574 4.292929292929293,0.5555555555555567 4.191919191919193,0.4545454545454551 4.090909090909092,0.3535353535353544 3.989898989898992,0.2525252525252529 3.8888888888888893,0.1515151515151522 3.7878787878787885,0.050505050505051545 3.6868686868686877,-0.05050505050505001 3.5858585858585874,-0.15151515151515066 3.4848484848484866,-0.2525252525252522 3.383838383838384,-0.35353535353535287 3.2828282828282833,-0.4545454545454544 3.181818181818183,-0.555555555555555 3.080808080808082,-0.6565656565656557 2.9797979797979806,-0.7575757575757572 2.87878787878788,-0.7575757575757572 2.7777777777777786,-0.7575757575757572 2.676767676767678,-0.7575757575757572 2.575757575757577,-0.7575757575757572 2.4747474747474754,-0.7575757575757572 2.373737373737375,-0.7575757575757572 2.2727272727272734,-0.7575757575757572 2.1717171717171726,-0.7575757575757572 2.070707070707072,-0.7575757575757572 1.9696969696969702,-0.7575757575757572 1.8686868686868696,-0.7575757575757572 1.767676767676768,-0.7575757575757572 1.6666666666666674,-0.7575757575757572 1.5656565656565666,-0.7575757575757572 1.4646464646464652,-0.7575757575757572 1.3636363636363644,-0.7575757575757572 1.262626262626263,-0.7575757575757572 1.1616161616161622,-0.7575757575757572 1.0606060606060617,-0.7575757575757572 0.9595959595959602,-0.7575757575757572 0.8585858585858596,-0.7575757575757572 0.7575757575757579,-0.7575757575757572 0.6565656565656574,-0.7575757575757572 0.5555555555555567,-0.7575757575757572 0.4545454545454551,-0.7575757575757572 0.3535353535353544,-0.7575757575757572 0.2525252525252529,-0.7575757575757572 0.1515151515151522,-0.7575757575757572 0.050505050505051545,-0.7575757575757572 -0.05050505050505001,-0.7575757575757572 -0.15151515151515066,-0.7575757575757572 -0.2525252525252522,-0.7575757575757572 -0.35353535353535287,-0.7575757575757572 -0.4545454545454544,-0.7575757575757572 -0.555555555555555,-0.7575757575757572 -0.6565656565656557,-0.7575757575757572 -0.7575757575757572,-0.7575757575757572 -0.8585858585858579,-0.7575757575757572 -0.9595959595959596,-0.7575757575757572 -1.0606060606060603,-0.7575757575757572 -1.1616161616161613,-0.7575757575757572 -1.2626262626262625,-0.7575757575757572 -1.363636363636363,-0.7575757575757572 -1.4646464646464643,-0.7575757575757572 -1.5656565656565653,-0.7575757575757572 -1.6666666666666665,-0.7575757575757572 -1.7676767676767675,-0.7575757575757572 -1.8686868686868683,-0.7575757575757572 -1.9696969696969693,-0.7575757575757572 -2.07070707070707,-0.7575757575757572 -2.1717171717171713,-0.7575757575757572 -2.2727272727272725,-0.7575757575757572 -2.3737373737373733,-0.7575757575757572 -2.474747474747474,-0.7575757575757572 -2.5757575757575752,-0.7575757575757572 -2.6767676767676765,-0.7575757575757572 -2.7777777777777777,-0.7575757575757572 -2.8787878787878785,-0.7575757575757572 -2.9797979797979792,-0.7575757575757572 -3.0808080808080804,-0.7575757575757572 -3.1818181818181817,-0.7575757575757572 -3.2828282828282824,-0.7575757575757572 -3.383838383838383,-0.7575757575757572 -3.484848484848485,-0.7575757575757572 -3.5858585858585856,-0.7575757575757572 -3.6868686868686864,-0.7575757575757572 -3.7878787878787876,-0.7575757575757572 -3.8888888888888884,-0.7575757575757572 -3.98989898989899,-0.7575757575757572 -4.090909090909091,-0.7575757575757572 -4.191919191919193,-0.7575757575757572 -4.292929292929293,-0.7575757575757572 -4.393939393939394,-0.7575757575757572 -4.494949494949496,-0.7575757575757572 -4.595959595959596,-0.7575757575757572 -4.696969696969697,-0.7575757575757572 -4.7979797979797985,-0.7575757575757572 -4.898989898989899,-0.7575757575757572 -5.000000000000001,-0.7575757575757572" data-type="line" data-label="" points="984,392.80808080808094 974.4646464646464,402.3434343434344 964.9292929292927,411.87878787878793 955.3939393939393,421.4141414141415 945.8585858585857,430.94949494949503 936.3232323232323,440.4848484848486 926.7878787878785,450.0202020202021 917.2525252525251,459.5555555555556 907.7171717171716,469.0909090909092 898.181818181818,478.6262626262627 888.6464646464647,488.1616161616163 879.111111111111,497.69696969696975 869.5757575757575,507.23232323232327 860.0404040404039,516.7676767676768 850.5050505050505,526.3030303030304 840.969696969697,535.838383838384 831.4343434343433,545.3737373737374 821.8989898989898,554.909090909091 812.3636363636363,564.4444444444445 802.8282828282828,573.979797979798 793.2929292929292,583.5151515151516 783.7575757575758,583.5151515151516 774.2222222222222,583.5151515151516 764.6868686868686,583.5151515151516 755.1515151515151,583.5151515151516 745.6161616161615,583.5151515151516 736.0808080808081,583.5151515151516 726.5454545454545,583.5151515151516 717.0101010101009,583.5151515151516 707.4747474747475,583.5151515151516 697.9393939393939,583.5151515151516 688.4040404040404,583.5151515151516 678.8686868686868,583.5151515151516 669.3333333333333,583.5151515151516 659.7979797979798,583.5151515151516 650.2626262626262,583.5151515151516 640.7272727272727,583.5151515151516 631.1919191919192,583.5151515151516 621.6565656565656,583.5151515151516 612.1212121212121,583.5151515151516 602.5858585858585,583.5151515151516 593.0505050505051,583.5151515151516 583.5151515151515,583.5151515151516 573.9797979797979,583.5151515151516 564.4444444444445,583.5151515151516 554.9090909090909,583.5151515151516 545.3737373737374,583.5151515151516 535.8383838383838,583.5151515151516 526.3030303030303,583.5151515151516 516.7676767676768,583.5151515151516 507.2323232323232,583.5151515151516 497.69696969696975,583.5151515151516 488.16161616161617,583.5151515151516 478.62626262626264,583.5151515151516 469.09090909090907,583.5151515151516 459.55555555555554,583.5151515151516 450.0202020202021,583.5151515151516 440.4848484848485,583.5151515151516 430.949494949495,583.5151515151516 421.4141414141414,583.5151515151516 411.8787878787879,583.5151515151516 402.34343434343435,583.5151515151516 392.80808080808083,583.5151515151516 383.2727272727273,583.5151515151516 373.7373737373738,583.5151515151516 364.2020202020202,583.5151515151516 354.6666666666667,583.5151515151516 345.13131313131316,583.5151515151516 335.59595959595964,583.5151515151516 326.0606060606061,583.5151515151516 316.5252525252526,583.5151515151516 306.9898989898991,583.5151515151516 297.4545454545455,583.5151515151516 287.91919191919203,583.5151515151516 278.38383838383845,583.5151515151516 268.84848484848493,583.5151515151516 259.3131313131314,583.5151515151516 249.77777777777783,583.5151515151516 240.2424242424243,583.5151515151516 230.70707070707084,583.5151515151516 221.17171717171726,583.5151515151516 211.63636363636374,583.5151515151516 202.10101010101022,583.5151515151516 192.5656565656567,583.5151515151516 183.03030303030312,583.5151515151516 173.4949494949496,583.5151515151516 163.95959595959607,583.5151515151516 154.42424242424255,583.5151515151516 144.88888888888903,583.5151515151516 135.35353535353545,583.5151515151516 125.81818181818193,583.5151515151516 116.28282828282829,583.5151515151516 106.74747474747483,583.5151515151516 97.21212121212136,583.5151515151516 87.67676767676772,583.5151515151516 78.14141414141426,583.5151515151516 68.60606060606068,583.5151515151516 59.07070707070716,583.5151515151516 49.53535353535369,583.5151515151516 40.00000000000006,583.5151515151516" fill="none" stroke="rgba(0,0,255,0.75)" stroke-width="11.327999999999996"/></g><g><polyline data-points="4.696969696969697,5.000000000000002 4.595959595959597,4.898989898989901 4.494949494949497,4.7979797979797985 4.393939393939394,4.696969696969697 4.292929292929293,4.595959595959597 4.191919191919193,4.494949494949497 4.090909090909092,4.393939393939394 3.989898989898992,4.292929292929293 3.8888888888888893,4.191919191919193 3.7878787878787885,4.090909090909092 3.6868686868686877,3.989898989898992 3.5858585858585874,3.8888888888888893 3.4848484848484866,3.7878787878787885 3.383838383838384,3.6868686868686877 3.2828282828282833,3.5858585858585874 3.181818181818183,3.4848484848484866 3.080808080808082,3.383838383838384 2.9797979797979806,3.2828282828282833 2.87878787878788,3.181818181818183 2.7777777777777786,3.080808080808082 2.676767676767678,2.9797979797979806 2.575757575757577,2.87878787878788 2.4747474747474754,2.7777777777777786 2.373737373737375,2.676767676767678 2.2727272727272734,2.575757575757577 2.1717171717171726,2.4747474747474754 2.070707070707072,2.373737373737375 1.9696969696969702,2.2727272727272734 1.8686868686868696,2.1717171717171726 1.767676767676768,2.070707070707072 1.6666666666666674,1.9696969696969702 1.5656565656565666,1.8686868686868696 1.5656565656565666,1.767676767676768 1.5656565656565666,1.6666666666666674 1.5656565656565666,1.5656565656565666 1.5656565656565666,1.4646464646464652 1.5656565656565666,1.3636363636363644 1.5656565656565666,1.262626262626263 1.5656565656565666,1.1616161616161622 1.5656565656565666,1.0606060606060617 1.5656565656565666,0.9595959595959602 1.5656565656565666,0.8585858585858596 1.5656565656565666,0.7575757575757579 1.5656565656565666,0.6565656565656574 1.5656565656565666,0.5555555555555567 1.5656565656565666,0.4545454545454551 1.5656565656565666,0.3535353535353544 1.5656565656565666,0.2525252525252529 1.5656565656565666,0.1515151515151522 1.5656565656565666,0.050505050505051545 1.5656565656565666,-0.05050505050505001 1.5656565656565666,-0.15151515151515066 1.5656565656565666,-0.2525252525252522 1.5656565656565666,-0.35353535353535287 1.5656565656565666,-0.4545454545454544 1.5656565656565666,-0.555555555555555 1.5656565656565666,-0.6565656565656557 1.5656565656565666,-0.7575757575757572 1.5656565656565666,-0.8585858585858579 1.5656565656565666,-0.9595959595959596 1.5656565656565666,-1.0606060606060603 1.5656565656565666,-1.1616161616161613 1.5656565656565666,-1.2626262626262625 1.5656565656565666,-1.363636363636363 1.5656565656565666,-1.4646464646464643 1.5656565656565666,-1.5656565656565653 1.5656565656565666,-1.6666666666666665 1.5656565656565666,-1.7676767676767675 1.5656565656565666,-1.8686868686868683 1.5656565656565666,-1.9696969696969693 1.5656565656565666,-2.07070707070707 1.5656565656565666,-2.1717171717171713 1.5656565656565666,-2.2727272727272725 1.5656565656565666,-2.3737373737373733 1.5656565656565666,-2.474747474747474 1.5656565656565666,-2.5757575757575752 1.5656565656565666,-2.6767676767676765 1.5656565656565666,-2.7777777777777777 1.5656565656565666,-2.8787878787878785 1.5656565656565666,-2.9797979797979792 1.5656565656565666,-3.0808080808080804 1.5656565656565666,-3.1818181818181817 1.5656565656565666,-3.2828282828282824 1.5656565656565666,-3.383838383838383 1.5656565656565666,-3.484848484848485 1.5656565656565666,-3.5858585858585856 1.5656565656565666,-3.6868686868686864 1.5656565656565666,-3.7878787878787876 1.5656565656565666,-3.8888888888888884 1.5656565656565666,-3.98989898989899 1.5656565656565666,-4.090909090909091 1.5656565656565666,-4.191919191919193 1.5656565656565666,-4.292929292929293 1.5656565656565666,-4.393939393939394 1.5656565656565666,-4.494949494949496 1.5656565656565666,-4.595959595959596 1.5656565656565666,-4.696969696969697 1.5656565656565666,-4.7979797979797985 1.5656565656565666,-4.898989898989899 1.5656565656565666,-5.000000000000001" data-type="line" data-label="" points="955.3939393939393,40.000000000000114 945.8585858585857,49.53535353535369 936.3232323232323,59.07070707070733 926.7878787878785,68.60606060606085 917.2525252525251,78.14141414141432 907.7171717171716,87.67676767676778 898.181818181818,97.21212121212153 888.6464646464647,106.747474747475 879.111111111111,116.28282828282846 869.5757575757575,125.81818181818198 860.0404040404039,135.35353535353545 850.5050505050505,144.88888888888908 840.969696969697,154.4242424242426 831.4343434343433,163.95959595959613 821.8989898989898,173.4949494949496 812.3636363636363,183.03030303030312 802.8282828282828,192.56565656565675 793.2929292929292,202.10101010101027 783.7575757575758,211.63636363636374 774.2222222222222,221.17171717171726 764.6868686868686,230.70707070707084 755.1515151515151,240.24242424242436 745.6161616161615,249.77777777777794 736.0808080808081,259.3131313131314 726.5454545454545,268.84848484848493 717.0101010101009,278.38383838383857 707.4747474747475,287.91919191919203 697.9393939393939,297.4545454545456 688.4040404040404,306.9898989898991 678.8686868686868,316.5252525252526 669.3333333333333,326.06060606060623 659.7979797979798,335.5959595959597 659.7979797979798,345.1313131313133 659.7979797979798,354.66666666666674 659.7979797979798,364.2020202020203 659.7979797979798,373.73737373737384 659.7979797979798,383.27272727272737 659.7979797979798,392.80808080808094 659.7979797979798,402.3434343434344 659.7979797979798,411.87878787878793 659.7979797979798,421.4141414141415 659.7979797979798,430.94949494949503 659.7979797979798,440.4848484848486 659.7979797979798,450.0202020202021 659.7979797979798,459.5555555555556 659.7979797979798,469.0909090909092 659.7979797979798,478.6262626262627 659.7979797979798,488.1616161616163 659.7979797979798,497.69696969696975 659.7979797979798,507.23232323232327 659.7979797979798,516.7676767676768 659.7979797979798,526.3030303030304 659.7979797979798,535.838383838384 659.7979797979798,545.3737373737374 659.7979797979798,554.909090909091 659.7979797979798,564.4444444444445 659.7979797979798,573.979797979798 659.7979797979798,583.5151515151516 659.7979797979798,593.0505050505051 659.7979797979798,602.5858585858587 659.7979797979798,612.1212121212121 659.7979797979798,621.6565656565657 659.7979797979798,631.1919191919193 659.7979797979798,640.7272727272727 659.7979797979798,650.2626262626263 659.7979797979798,659.7979797979798 659.7979797979798,669.3333333333334 659.7979797979798,678.8686868686868 659.7979797979798,688.4040404040404 659.7979797979798,697.939393939394 659.7979797979798,707.4747474747475 659.7979797979798,717.010101010101 659.7979797979798,726.5454545454545 659.7979797979798,736.0808080808081 659.7979797979798,745.6161616161615 659.7979797979798,755.1515151515151 659.7979797979798,764.6868686868687 659.7979797979798,774.2222222222222 659.7979797979798,783.7575757575758 659.7979797979798,793.2929292929292 659.7979797979798,802.8282828282828 659.7979797979798,812.3636363636363 659.7979797979798,821.8989898989898 659.7979797979798,831.4343434343434 659.7979797979798,840.969696969697 659.7979797979798,850.5050505050505 659.7979797979798,860.0404040404039 659.7979797979798,869.5757575757575 659.7979797979798,879.1111111111111 659.7979797979798,888.6464646464647 659.7979797979798,898.1818181818181 659.7979797979798,907.7171717171718 659.7979797979798,917.2525252525252 659.7979797979798,926.7878787878788 659.7979797979798,936.3232323232323 659.7979797979798,945.8585858585858 659.7979797979798,955.3939393939394 659.7979797979798,964.9292929292928 659.7979797979798,974.4646464646464 659.7979797979798,984" fill="none" stroke="rgba(255,0,0,0.75)" stroke-width="11.327999999999996"/></g><g><polyline data-points="-4.393939393939394,-5.000000000000001 -4.292929292929293,-4.898989898989899 -4.191919191919193,-4.7979797979797985 -4.090909090909091,-4.696969696969697 -3.98989898989899,-4.595959595959596 -3.8888888888888884,-4.494949494949496 -3.7878787878787876,-4.393939393939394 -3.6868686868686864,-4.292929292929293 -3.5858585858585856,-4.191919191919193 -3.484848484848485,-4.090909090909091 -3.383838383838383,-3.98989898989899 -3.2828282828282824,-3.8888888888888884 -3.1818181818181817,-3.7878787878787876 -3.0808080808080804,-3.6868686868686864 -2.9797979797979792,-3.5858585858585856 -2.8787878787878785,-3.484848484848485 -2.7777777777777777,-3.383838383838383 -2.6767676767676765,-3.2828282828282824 -2.5757575757575752,-3.1818181818181817 -2.474747474747474,-3.0808080808080804 -2.3737373737373733,-2.9797979797979792 -2.2727272727272725,-2.8787878787878785 -2.1717171717171713,-2.7777777777777777 -2.07070707070707,-2.6767676767676765 -1.9696969696969693,-2.5757575757575752 -1.8686868686868683,-2.474747474747474 -1.7676767676767675,-2.3737373737373733 -1.6666666666666665,-2.2727272727272725 -1.5656565656565653,-2.1717171717171713 -1.4646464646464643,-2.07070707070707 -1.363636363636363,-1.9696969696969693 -1.2626262626262625,-1.8686868686868683 -1.1616161616161613,-1.8686868686868683 -1.0606060606060603,-1.8686868686868683 -0.9595959595959596,-1.8686868686868683 -0.8585858585858579,-1.8686868686868683 -0.7575757575757572,-1.8686868686868683 -0.6565656565656557,-1.8686868686868683 -0.555555555555555,-1.8686868686868683 -0.4545454545454544,-1.8686868686868683 -0.35353535353535287,-1.8686868686868683 -0.2525252525252522,-1.8686868686868683 -0.15151515151515066,-1.8686868686868683 -0.05050505050505001,-1.8686868686868683 0.050505050505051545,-1.8686868686868683 0.1515151515151522,-1.8686868686868683 0.2525252525252529,-1.8686868686868683 0.3535353535353544,-1.8686868686868683 0.4545454545454551,-1.8686868686868683 0.5555555555555567,-1.8686868686868683 0.6565656565656574,-1.8686868686868683 0.7575757575757579,-1.8686868686868683 0.8585858585858596,-1.8686868686868683 0.9595959595959602,-1.8686868686868683 1.0606060606060617,-1.8686868686868683 1.1616161616161622,-1.8686868686868683" data-type="line" data-label="" points="97.21212121212136,984 106.74747474747483,974.4646464646464 116.28282828282829,964.9292929292928 125.81818181818193,955.3939393939394 135.35353535353545,945.8585858585858 144.88888888888903,936.3232323232323 154.42424242424255,926.7878787878788 163.95959595959607,917.2525252525252 173.4949494949496,907.7171717171718 183.03030303030312,898.1818181818181 192.5656565656567,888.6464646464647 202.10101010101022,879.1111111111111 211.63636363636374,869.5757575757575 221.17171717171726,860.0404040404039 230.70707070707084,850.5050505050505 240.2424242424243,840.969696969697 249.77777777777783,831.4343434343434 259.3131313131314,821.8989898989898 268.84848484848493,812.3636363636363 278.38383838383845,802.8282828282828 287.91919191919203,793.2929292929292 297.4545454545455,783.7575757575758 306.9898989898991,774.2222222222222 316.5252525252526,764.6868686868687 326.0606060606061,755.1515151515151 335.59595959595964,745.6161616161615 345.13131313131316,736.0808080808081 354.6666666666667,726.5454545454545 364.2020202020202,717.010101010101 373.7373737373738,707.4747474747475 383.2727272727273,697.939393939394 392.80808080808083,688.4040404040404 402.34343434343435,688.4040404040404 411.8787878787879,688.4040404040404 421.4141414141414,688.4040404040404 430.949494949495,688.4040404040404 440.4848484848485,688.4040404040404 450.0202020202021,688.4040404040404 459.55555555555554,688.4040404040404 469.09090909090907,688.4040404040404 478.62626262626264,688.4040404040404 488.16161616161617,688.4040404040404 497.69696969696975,688.4040404040404 507.2323232323232,688.4040404040404 516.7676767676768,688.4040404040404 526.3030303030303,688.4040404040404 535.8383838383838,688.4040404040404 545.3737373737374,688.4040404040404 554.9090909090909,688.4040404040404 564.4444444444445,688.4040404040404 573.9797979797979,688.4040404040404 583.5151515151515,688.4040404040404 593.0505050505051,688.4040404040404 602.5858585858585,688.4040404040404 612.1212121212121,688.4040404040404 621.6565656565656,688.4040404040404" fill="none" stroke="rgba(255,0,0,0.75)" stroke-width="11.327999999999996"/></g><g><polyline data-points="1.1616161616161622,-1.8686868686868683 1.262626262626263,-1.8686868686868683 1.3636363636363644,-1.8686868686868683 1.4646464646464652,-1.8686868686868683 1.5656565656565666,-1.8686868686868683 1.6666666666666674,-1.8686868686868683 1.767676767676768,-1.8686868686868683 1.8686868686868696,-1.8686868686868683 1.9696969696969702,-1.8686868686868683 2.070707070707072,-1.8686868686868683 2.1717171717171726,-1.8686868686868683 2.2727272727272734,-1.8686868686868683 2.373737373737375,-1.8686868686868683 2.4747474747474754,-1.8686868686868683 2.575757575757577,-1.8686868686868683 2.676767676767678,-1.8686868686868683 2.7777777777777786,-1.8686868686868683 2.87878787878788,-1.8686868686868683 2.9797979797979806,-1.8686868686868683 3.080808080808082,-1.8686868686868683 3.181818181818183,-1.8686868686868683 3.2828282828282833,-1.8686868686868683 3.383838383838384,-1.8686868686868683 3.4848484848484866,-1.8686868686868683 3.5858585858585874,-1.8686868686868683 3.6868686868686877,-1.8686868686868683 3.7878787878787885,-1.8686868686868683 3.8888888888888893,-1.8686868686868683 3.989898989898992,-1.8686868686868683" data-type="line" data-label="" points="621.6565656565656,688.4040404040404 631.1919191919192,688.4040404040404 640.7272727272727,688.4040404040404 650.2626262626262,688.4040404040404 659.7979797979798,688.4040404040404 669.3333333333333,688.4040404040404 678.8686868686868,688.4040404040404 688.4040404040404,688.4040404040404 697.9393939393939,688.4040404040404 707.4747474747475,688.4040404040404 717.0101010101009,688.4040404040404 726.5454545454545,688.4040404040404 736.0808080808081,688.4040404040404 745.6161616161615,688.4040404040404 755.1515151515151,688.4040404040404 764.6868686868686,688.4040404040404 774.2222222222222,688.4040404040404 783.7575757575758,688.4040404040404 793.2929292929292,688.4040404040404 802.8282828282828,688.4040404040404 812.3636363636363,688.4040404040404 821.8989898989898,688.4040404040404 831.4343434343433,688.4040404040404 840.969696969697,688.4040404040404 850.5050505050505,688.4040404040404 860.0404040404039,688.4040404040404 869.5757575757575,688.4040404040404 879.111111111111,688.4040404040404 888.6464646464647,688.4040404040404" fill="none" stroke="rgba(0,0,255,0.75)" stroke-width="11.327999999999996"/></g><g><polyline data-points="3.989898989898992,-1.8686868686868683 4.090909090909092,-1.8686868686868683 4.191919191919193,-1.8686868686868683 4.292929292929293,-1.8686868686868683 4.393939393939394,-1.8686868686868683 4.494949494949497,-1.8686868686868683 4.595959595959597,-1.8686868686868683 4.696969696969697,-1.8686868686868683 4.7979797979797985,-1.8686868686868683 4.898989898989901,-1.8686868686868683 5.000000000000002,-1.8686868686868683" data-type="line" data-label="" points="888.6464646464647,688.4040404040404 898.181818181818,688.4040404040404 907.7171717171716,688.4040404040404 917.2525252525251,688.4040404040404 926.7878787878785,688.4040404040404 936.3232323232323,688.4040404040404 945.8585858585857,688.4040404040404 955.3939393939393,688.4040404040404 964.9292929292927,688.4040404040404 974.4646464646464,688.4040404040404 984,688.4040404040404" fill="none" stroke="rgba(255,0,0,0.75)" stroke-width="11.327999999999996"/></g><g><polyline data-points="5.000000000000002,-2.5757575757575752 4.898989898989901,-2.474747474747474 4.7979797979797985,-2.3737373737373733 4.696969696969697,-2.2727272727272725 4.595959595959597,-2.1717171717171713 4.494949494949497,-2.07070707070707 4.393939393939394,-1.9696969696969693 4.292929292929293,-1.8686868686868683 4.191919191919193,-1.7676767676767675 4.090909090909092,-1.6666666666666665 3.989898989898992,-1.5656565656565653 3.8888888888888893,-1.4646464646464643 3.7878787878787885,-1.4646464646464643 3.6868686868686877,-1.4646464646464643 3.5858585858585874,-1.4646464646464643 3.4848484848484866,-1.4646464646464643 3.383838383838384,-1.4646464646464643 3.2828282828282833,-1.4646464646464643 3.181818181818183,-1.4646464646464643 3.080808080808082,-1.4646464646464643 2.9797979797979806,-1.4646464646464643 2.87878787878788,-1.4646464646464643 2.7777777777777786,-1.4646464646464643 2.676767676767678,-1.4646464646464643 2.575757575757577,-1.4646464646464643 2.4747474747474754,-1.4646464646464643 2.373737373737375,-1.4646464646464643 2.2727272727272734,-1.4646464646464643 2.1717171717171726,-1.4646464646464643 2.070707070707072,-1.4646464646464643 1.9696969696969702,-1.4646464646464643 1.8686868686868696,-1.4646464646464643 1.767676767676768,-1.4646464646464643 1.6666666666666674,-1.4646464646464643 1.5656565656565666,-1.4646464646464643 1.4646464646464652,-1.4646464646464643 1.3636363636363644,-1.4646464646464643 1.262626262626263,-1.4646464646464643 1.1616161616161622,-1.4646464646464643 1.0606060606060617,-1.4646464646464643 0.9595959595959602,-1.4646464646464643 0.8585858585858596,-1.4646464646464643 0.7575757575757579,-1.4646464646464643 0.6565656565656574,-1.4646464646464643 0.5555555555555567,-1.4646464646464643 0.4545454545454551,-1.4646464646464643 0.3535353535353544,-1.4646464646464643 0.2525252525252529,-1.4646464646464643 0.1515151515151522,-1.4646464646464643 0.050505050505051545,-1.4646464646464643 -0.05050505050505001,-1.4646464646464643 -0.15151515151515066,-1.4646464646464643 -0.2525252525252522,-1.4646464646464643 -0.35353535353535287,-1.4646464646464643 -0.4545454545454544,-1.4646464646464643 -0.555555555555555,-1.4646464646464643 -0.6565656565656557,-1.4646464646464643 -0.7575757575757572,-1.4646464646464643 -0.8585858585858579,-1.4646464646464643 -0.9595959595959596,-1.4646464646464643 -1.0606060606060603,-1.4646464646464643 -1.1616161616161613,-1.4646464646464643 -1.2626262626262625,-1.4646464646464643 -1.363636363636363,-1.4646464646464643 -1.4646464646464643,-1.4646464646464643 -1.5656565656565653,-1.4646464646464643 -1.6666666666666665,-1.4646464646464643 -1.7676767676767675,-1.4646464646464643 -1.8686868686868683,-1.4646464646464643 -1.9696969696969693,-1.4646464646464643 -2.07070707070707,-1.4646464646464643 -2.1717171717171713,-1.4646464646464643 -2.2727272727272725,-1.4646464646464643 -2.3737373737373733,-1.4646464646464643 -2.474747474747474,-1.4646464646464643 -2.5757575757575752,-1.4646464646464643 -2.6767676767676765,-1.4646464646464643 -2.7777777777777777,-1.4646464646464643 -2.8787878787878785,-1.4646464646464643 -2.9797979797979792,-1.4646464646464643 -3.0808080808080804,-1.4646464646464643 -3.1818181818181817,-1.4646464646464643 -3.2828282828282824,-1.4646464646464643 -3.383838383838383,-1.4646464646464643 -3.484848484848485,-1.4646464646464643" data-type="line" data-label="" points="984,755.1515151515151 974.4646464646464,745.6161616161615 964.9292929292927,736.0808080808081 955.3939393939393,726.5454545454545 945.8585858585857,717.010101010101 936.3232323232323,707.4747474747475 926.7878787878785,697.939393939394 917.2525252525251,688.4040404040404 907.7171717171716,678.8686868686868 898.181818181818,669.3333333333334 888.6464646464647,659.7979797979798 879.111111111111,650.2626262626263 869.5757575757575,650.2626262626263 860.0404040404039,650.2626262626263 850.5050505050505,650.2626262626263 840.969696969697,650.2626262626263 831.4343434343433,650.2626262626263 821.8989898989898,650.2626262626263 812.3636363636363,650.2626262626263 802.8282828282828,650.2626262626263 793.2929292929292,650.2626262626263 783.7575757575758,650.2626262626263 774.2222222222222,650.2626262626263 764.6868686868686,650.2626262626263 755.1515151515151,650.2626262626263 745.6161616161615,650.2626262626263 736.0808080808081,650.2626262626263 726.5454545454545,650.2626262626263 717.0101010101009,650.2626262626263 707.4747474747475,650.2626262626263 697.9393939393939,650.2626262626263 688.4040404040404,650.2626262626263 678.8686868686868,650.2626262626263 669.3333333333333,650.2626262626263 659.7979797979798,650.2626262626263 650.2626262626262,650.2626262626263 640.7272727272727,650.2626262626263 631.1919191919192,650.2626262626263 621.6565656565656,650.2626262626263 612.1212121212121,650.2626262626263 602.5858585858585,650.2626262626263 593.0505050505051,650.2626262626263 583.5151515151515,650.2626262626263 573.9797979797979,650.2626262626263 564.4444444444445,650.2626262626263 554.9090909090909,650.2626262626263 545.3737373737374,650.2626262626263 535.8383838383838,650.2626262626263 526.3030303030303,650.2626262626263 516.7676767676768,650.2626262626263 507.2323232323232,650.2626262626263 497.69696969696975,650.2626262626263 488.16161616161617,650.2626262626263 478.62626262626264,650.2626262626263 469.09090909090907,650.2626262626263 459.55555555555554,650.2626262626263 450.0202020202021,650.2626262626263 440.4848484848485,650.2626262626263 430.949494949495,650.2626262626263 421.4141414141414,650.2626262626263 411.8787878787879,650.2626262626263 402.34343434343435,650.2626262626263 392.80808080808083,650.2626262626263 383.2727272727273,650.2626262626263 373.7373737373738,650.2626262626263 364.2020202020202,650.2626262626263 354.6666666666667,650.2626262626263 345.13131313131316,650.2626262626263 335.59595959595964,650.2626262626263 326.0606060606061,650.2626262626263 316.5252525252526,650.2626262626263 306.9898989898991,650.2626262626263 297.4545454545455,650.2626262626263 287.91919191919203,650.2626262626263 278.38383838383845,650.2626262626263 268.84848484848493,650.2626262626263 259.3131313131314,650.2626262626263 249.77777777777783,650.2626262626263 240.2424242424243,650.2626262626263 230.70707070707084,650.2626262626263 221.17171717171726,650.2626262626263 211.63636363636374,650.2626262626263 202.10101010101022,650.2626262626263 192.5656565656567,650.2626262626263 183.03030303030312,650.2626262626263" fill="none" stroke="rgba(0,0,255,0.75)" stroke-width="11.327999999999996"/></g><g><polyline data-points="-3.484848484848485,-1.4646464646464643 -3.5858585858585856,-1.363636363636363 -3.6868686868686864,-1.2626262626262625 -3.7878787878787876,-1.1616161616161613 -3.8888888888888884,-1.0606060606060603 -3.98989898989899,-0.9595959595959596 -3.98989898989899,-0.8585858585858579 -3.98989898989899,-0.7575757575757572 -3.98989898989899,-0.6565656565656557 -3.98989898989899,-0.555555555555555 -3.98989898989899,-0.4545454545454544 -3.98989898989899,-0.35353535353535287 -3.98989898989899,-0.2525252525252522 -3.98989898989899,-0.15151515151515066 -3.98989898989899,-0.05050505050505001 -3.98989898989899,0.050505050505051545 -3.98989898989899,0.1515151515151522 -3.98989898989899,0.2525252525252529 -3.98989898989899,0.3535353535353544 -3.98989898989899,0.4545454545454551 -3.98989898989899,0.5555555555555567 -3.98989898989899,0.6565656565656574 -3.98989898989899,0.7575757575757579 -3.98989898989899,0.8585858585858596 -3.98989898989899,0.9595959595959602 -3.98989898989899,1.0606060606060617 -3.98989898989899,1.1616161616161622 -3.98989898989899,1.262626262626263 -3.98989898989899,1.3636363636363644 -3.98989898989899,1.4646464646464652 -3.98989898989899,1.5656565656565666 -3.98989898989899,1.6666666666666674 -3.98989898989899,1.767676767676768 -3.98989898989899,1.8686868686868696 -3.98989898989899,1.9696969696969702 -3.98989898989899,2.070707070707072 -3.98989898989899,2.1717171717171726 -3.98989898989899,2.2727272727272734 -3.98989898989899,2.373737373737375 -3.98989898989899,2.4747474747474754 -3.98989898989899,2.575757575757577" data-type="line" data-label="" points="183.03030303030312,650.2626262626263 173.4949494949496,640.7272727272727 163.95959595959607,631.1919191919193 154.42424242424255,621.6565656565657 144.88888888888903,612.1212121212121 135.35353535353545,602.5858585858587 135.35353535353545,593.0505050505051 135.35353535353545,583.5151515151516 135.35353535353545,573.979797979798 135.35353535353545,564.4444444444445 135.35353535353545,554.909090909091 135.35353535353545,545.3737373737374 135.35353535353545,535.838383838384 135.35353535353545,526.3030303030304 135.35353535353545,516.7676767676768 135.35353535353545,507.23232323232327 135.35353535353545,497.69696969696975 135.35353535353545,488.1616161616163 135.35353535353545,478.6262626262627 135.35353535353545,469.0909090909092 135.35353535353545,459.5555555555556 135.35353535353545,450.0202020202021 135.35353535353545,440.4848484848486 135.35353535353545,430.94949494949503 135.35353535353545,421.4141414141415 135.35353535353545,411.87878787878793 135.35353535353545,402.3434343434344 135.35353535353545,392.80808080808094 135.35353535353545,383.27272727272737 135.35353535353545,373.73737373737384 135.35353535353545,364.2020202020203 135.35353535353545,354.66666666666674 135.35353535353545,345.1313131313133 135.35353535353545,335.5959595959597 135.35353535353545,326.06060606060623 135.35353535353545,316.5252525252526 135.35353535353545,306.9898989898991 135.35353535353545,297.4545454545456 135.35353535353545,287.91919191919203 135.35353535353545,278.38383838383857 135.35353535353545,268.84848484848493" fill="none" stroke="rgba(255,0,0,0.75)" stroke-width="11.327999999999996"/></g><g><polyline data-points="-3.98989898989899,2.575757575757577 -4.090909090909091,2.676767676767678 -4.191919191919193,2.7777777777777786 -4.292929292929293,2.7777777777777786 -4.393939393939394,2.7777777777777786 -4.494949494949496,2.7777777777777786 -4.595959595959596,2.7777777777777786 -4.696969696969697,2.7777777777777786 -4.7979797979797985,2.7777777777777786 -4.898989898989899,2.7777777777777786 -5.000000000000001,2.7777777777777786" data-type="line" data-label="" points="135.35353535353545,268.84848484848493 125.81818181818193,259.3131313131314 116.28282828282829,249.77777777777794 106.74747474747483,249.77777777777794 97.21212121212136,249.77777777777794 87.67676767676772,249.77777777777794 78.14141414141426,249.77777777777794 68.60606060606068,249.77777777777794 59.07070707070716,249.77777777777794 49.53535353535369,249.77777777777794 40.00000000000006,249.77777777777794" fill="none" stroke="rgba(0,0,255,0.75)" stroke-width="11.327999999999996"/></g><g><polyline data-points="-5.000000000000001,-1.4646464646464643 -4.898989898989899,-1.4646464646464643 -4.7979797979797985,-1.4646464646464643 -4.696969696969697,-1.4646464646464643 -4.595959595959596,-1.4646464646464643 -4.494949494949496,-1.4646464646464643 -4.393939393939394,-1.4646464646464643 -4.292929292929293,-1.4646464646464643 -4.191919191919193,-1.4646464646464643 -4.090909090909091,-1.4646464646464643 -3.98989898989899,-1.4646464646464643" data-type="line" data-label="" points="40.00000000000006,650.2626262626263 49.53535353535369,650.2626262626263 59.07070707070716,650.2626262626263 68.60606060606068,650.2626262626263 78.14141414141426,650.2626262626263 87.67676767676772,650.2626262626263 97.21212121212136,650.2626262626263 106.74747474747483,650.2626262626263 116.28282828282829,650.2626262626263 125.81818181818193,650.2626262626263 135.35353535353545,650.2626262626263" fill="none" stroke="rgba(0,0,255,0.75)" stroke-width="11.327999999999996"/></g><g><polyline data-points="-3.98989898989899,-1.4646464646464643 -3.98989898989899,-1.363636363636363 -3.98989898989899,-1.2626262626262625 -4.090909090909091,-1.1616161616161613 -4.191919191919193,-1.0606060606060603 -4.191919191919193,-0.9595959595959596 -4.191919191919193,-0.8585858585858579 -4.191919191919193,-0.7575757575757572 -4.191919191919193,-0.6565656565656557 -4.191919191919193,-0.555555555555555 -4.191919191919193,-0.4545454545454544 -4.191919191919193,-0.35353535353535287 -4.191919191919193,-0.2525252525252522 -4.191919191919193,-0.15151515151515066 -4.191919191919193,-0.05050505050505001 -4.191919191919193,0.050505050505051545 -4.191919191919193,0.1515151515151522 -4.191919191919193,0.2525252525252529 -4.191919191919193,0.3535353535353544 -4.191919191919193,0.4545454545454551 -4.191919191919193,0.5555555555555567 -4.191919191919193,0.6565656565656574 -4.191919191919193,0.7575757575757579 -4.191919191919193,0.8585858585858596 -4.191919191919193,0.9595959595959602 -4.191919191919193,1.0606060606060617 -4.191919191919193,1.1616161616161622 -4.191919191919193,1.262626262626263 -4.191919191919193,1.3636363636363644 -4.191919191919193,1.4646464646464652 -4.191919191919193,1.5656565656565666 -4.191919191919193,1.6666666666666674 -4.191919191919193,1.767676767676768 -4.191919191919193,1.8686868686868696 -4.191919191919193,1.9696969696969702 -4.191919191919193,2.070707070707072 -4.191919191919193,2.1717171717171726 -4.191919191919193,2.2727272727272734 -4.191919191919193,2.373737373737375 -4.191919191919193,2.4747474747474754 -4.292929292929293,2.575757575757577 -4.191919191919193,2.676767676767678 -4.090909090909091,2.7777777777777786 -3.98989898989899,2.87878787878788 -3.8888888888888884,2.87878787878788 -3.7878787878787876,2.87878787878788 -3.6868686868686864,2.87878787878788 -3.5858585858585856,2.87878787878788 -3.484848484848485,2.87878787878788 -3.383838383838383,2.87878787878788 -3.2828282828282824,2.87878787878788 -3.1818181818181817,2.87878787878788 -3.0808080808080804,2.87878787878788 -2.9797979797979792,2.87878787878788 -2.8787878787878785,2.87878787878788 -2.7777777777777777,2.87878787878788 -2.6767676767676765,2.87878787878788 -2.5757575757575752,2.87878787878788 -2.474747474747474,2.87878787878788 -2.3737373737373733,2.87878787878788 -2.2727272727272725,2.87878787878788 -2.1717171717171713,2.87878787878788 -2.07070707070707,2.87878787878788 -1.9696969696969693,2.87878787878788 -1.8686868686868683,2.87878787878788 -1.7676767676767675,2.87878787878788 -1.6666666666666665,2.87878787878788 -1.5656565656565653,2.87878787878788 -1.4646464646464643,2.87878787878788 -1.363636363636363,2.87878787878788 -1.2626262626262625,2.87878787878788 -1.1616161616161613,2.87878787878788 -1.0606060606060603,2.87878787878788 -0.9595959595959596,2.87878787878788 -0.8585858585858579,2.87878787878788 -0.7575757575757572,2.87878787878788 -0.6565656565656557,2.87878787878788 -0.555555555555555,2.87878787878788 -0.4545454545454544,2.87878787878788 -0.35353535353535287,2.87878787878788 -0.2525252525252522,2.87878787878788 -0.15151515151515066,2.87878787878788 -0.05050505050505001,2.87878787878788 0.050505050505051545,2.87878787878788 0.1515151515151522,2.87878787878788 0.2525252525252529,2.87878787878788 0.3535353535353544,2.87878787878788 0.4545454545454551,2.87878787878788 0.5555555555555567,2.87878787878788 0.6565656565656574,2.87878787878788 0.7575757575757579,2.87878787878788 0.8585858585858596,2.87878787878788 0.9595959595959602,2.87878787878788 1.0606060606060617,2.87878787878788 1.1616161616161622,2.87878787878788 1.262626262626263,2.87878787878788 1.3636363636363644,2.87878787878788 1.4646464646464652,2.87878787878788 1.5656565656565666,2.87878787878788 1.6666666666666674,2.87878787878788 1.767676767676768,2.87878787878788 1.8686868686868696,2.87878787878788 1.9696969696969702,2.87878787878788 2.070707070707072,2.87878787878788" data-type="line" data-label="" points="135.35353535353545,650.2626262626263 135.35353535353545,640.7272727272727 135.35353535353545,631.1919191919193 125.81818181818193,621.6565656565657 116.28282828282829,612.1212121212121 116.28282828282829,602.5858585858587 116.28282828282829,593.0505050505051 116.28282828282829,583.5151515151516 116.28282828282829,573.979797979798 116.28282828282829,564.4444444444445 116.28282828282829,554.909090909091 116.28282828282829,545.3737373737374 116.28282828282829,535.838383838384 116.28282828282829,526.3030303030304 116.28282828282829,516.7676767676768 116.28282828282829,507.23232323232327 116.28282828282829,497.69696969696975 116.28282828282829,488.1616161616163 116.28282828282829,478.6262626262627 116.28282828282829,469.0909090909092 116.28282828282829,459.5555555555556 116.28282828282829,450.0202020202021 116.28282828282829,440.4848484848486 116.28282828282829,430.94949494949503 116.28282828282829,421.4141414141415 116.28282828282829,411.87878787878793 116.28282828282829,402.3434343434344 116.28282828282829,392.80808080808094 116.28282828282829,383.27272727272737 116.28282828282829,373.73737373737384 116.28282828282829,364.2020202020203 116.28282828282829,354.66666666666674 116.28282828282829,345.1313131313133 116.28282828282829,335.5959595959597 116.28282828282829,326.06060606060623 116.28282828282829,316.5252525252526 116.28282828282829,306.9898989898991 116.28282828282829,297.4545454545456 116.28282828282829,287.91919191919203 116.28282828282829,278.38383838383857 106.74747474747483,268.84848484848493 116.28282828282829,259.3131313131314 125.81818181818193,249.77777777777794 135.35353535353545,240.24242424242436 144.88888888888903,240.24242424242436 154.42424242424255,240.24242424242436 163.95959595959607,240.24242424242436 173.4949494949496,240.24242424242436 183.03030303030312,240.24242424242436 192.5656565656567,240.24242424242436 202.10101010101022,240.24242424242436 211.63636363636374,240.24242424242436 221.17171717171726,240.24242424242436 230.70707070707084,240.24242424242436 240.2424242424243,240.24242424242436 249.77777777777783,240.24242424242436 259.3131313131314,240.24242424242436 268.84848484848493,240.24242424242436 278.38383838383845,240.24242424242436 287.91919191919203,240.24242424242436 297.4545454545455,240.24242424242436 306.9898989898991,240.24242424242436 316.5252525252526,240.24242424242436 326.0606060606061,240.24242424242436 335.59595959595964,240.24242424242436 345.13131313131316,240.24242424242436 354.6666666666667,240.24242424242436 364.2020202020202,240.24242424242436 373.7373737373738,240.24242424242436 383.2727272727273,240.24242424242436 392.80808080808083,240.24242424242436 402.34343434343435,240.24242424242436 411.8787878787879,240.24242424242436 421.4141414141414,240.24242424242436 430.949494949495,240.24242424242436 440.4848484848485,240.24242424242436 450.0202020202021,240.24242424242436 459.55555555555554,240.24242424242436 469.09090909090907,240.24242424242436 478.62626262626264,240.24242424242436 488.16161616161617,240.24242424242436 497.69696969696975,240.24242424242436 507.2323232323232,240.24242424242436 516.7676767676768,240.24242424242436 526.3030303030303,240.24242424242436 535.8383838383838,240.24242424242436 545.3737373737374,240.24242424242436 554.9090909090909,240.24242424242436 564.4444444444445,240.24242424242436 573.9797979797979,240.24242424242436 583.5151515151515,240.24242424242436 593.0505050505051,240.24242424242436 602.5858585858585,240.24242424242436 612.1212121212121,240.24242424242436 621.6565656565656,240.24242424242436 631.1919191919192,240.24242424242436 640.7272727272727,240.24242424242436 650.2626262626262,240.24242424242436 659.7979797979798,240.24242424242436 669.3333333333333,240.24242424242436 678.8686868686868,240.24242424242436 688.4040404040404,240.24242424242436 697.9393939393939,240.24242424242436 707.4747474747475,240.24242424242436" fill="none" stroke="rgba(255,0,0,0.75)" stroke-width="11.327999999999996"/></g><g><polyline data-points="2.070707070707072,2.87878787878788 2.1717171717171726,2.87878787878788 2.2727272727272734,2.87878787878788 2.373737373737375,2.87878787878788 2.4747474747474754,2.87878787878788 2.575757575757577,2.87878787878788 2.676767676767678,2.87878787878788 2.7777777777777786,2.87878787878788 2.87878787878788,2.87878787878788 2.9797979797979806,2.87878787878788 3.080808080808082,2.87878787878788 3.181818181818183,2.87878787878788 3.2828282828282833,2.87878787878788 3.383838383838384,2.87878787878788 3.4848484848484866,2.87878787878788 3.5858585858585874,2.87878787878788 3.6868686868686877,2.87878787878788 3.7878787878787885,2.87878787878788 3.8888888888888893,2.87878787878788 3.989898989898992,2.87878787878788 4.090909090909092,2.87878787878788 4.191919191919193,2.87878787878788 4.292929292929293,2.87878787878788 4.393939393939394,2.87878787878788 4.494949494949497,2.87878787878788 4.595959595959597,2.87878787878788 4.696969696969697,2.87878787878788 4.7979797979797985,2.87878787878788 4.898989898989901,2.87878787878788 5.000000000000002,2.87878787878788" data-type="line" data-label="" points="707.4747474747475,240.24242424242436 717.0101010101009,240.24242424242436 726.5454545454545,240.24242424242436 736.0808080808081,240.24242424242436 745.6161616161615,240.24242424242436 755.1515151515151,240.24242424242436 764.6868686868686,240.24242424242436 774.2222222222222,240.24242424242436 783.7575757575758,240.24242424242436 793.2929292929292,240.24242424242436 802.8282828282828,240.24242424242436 812.3636363636363,240.24242424242436 821.8989898989898,240.24242424242436 831.4343434343433,240.24242424242436 840.969696969697,240.24242424242436 850.5050505050505,240.24242424242436 860.0404040404039,240.24242424242436 869.5757575757575,240.24242424242436 879.111111111111,240.24242424242436 888.6464646464647,240.24242424242436 898.181818181818,240.24242424242436 907.7171717171716,240.24242424242436 917.2525252525251,240.24242424242436 926.7878787878785,240.24242424242436 936.3232323232323,240.24242424242436 945.8585858585857,240.24242424242436 955.3939393939393,240.24242424242436 964.9292929292927,240.24242424242436 974.4646464646464,240.24242424242436 984,240.24242424242436" fill="none" stroke="rgba(0,0,255,0.75)" stroke-width="11.327999999999996"/></g><g><polyline data-points="5.000000000000002,0.1515151515151522 4.898989898989901,0.050505050505051545 4.7979797979797985,-0.05050505050505001 4.696969696969697,-0.15151515151515066 4.595959595959597,-0.2525252525252522 4.494949494949497,-0.35353535353535287 4.393939393939394,-0.35353535353535287 4.292929292929293,-0.35353535353535287 4.191919191919193,-0.35353535353535287 4.090909090909092,-0.35353535353535287 3.989898989898992,-0.35353535353535287 3.8888888888888893,-0.35353535353535287 3.7878787878787885,-0.35353535353535287 3.6868686868686877,-0.35353535353535287 3.5858585858585874,-0.35353535353535287 3.4848484848484866,-0.35353535353535287 3.383838383838384,-0.35353535353535287 3.2828282828282833,-0.35353535353535287 3.181818181818183,-0.35353535353535287 3.080808080808082,-0.35353535353535287 2.9797979797979806,-0.35353535353535287 2.87878787878788,-0.35353535353535287 2.7777777777777786,-0.35353535353535287 2.676767676767678,-0.35353535353535287 2.575757575757577,-0.35353535353535287 2.4747474747474754,-0.35353535353535287 2.373737373737375,-0.35353535353535287 2.2727272727272734,-0.35353535353535287 2.1717171717171726,-0.35353535353535287 2.070707070707072,-0.35353535353535287 1.9696969696969702,-0.35353535353535287" data-type="line" data-label="" points="984,497.69696969696975 974.4646464646464,507.23232323232327 964.9292929292927,516.7676767676768 955.3939393939393,526.3030303030304 945.8585858585857,535.838383838384 936.3232323232323,545.3737373737374 926.7878787878785,545.3737373737374 917.2525252525251,545.3737373737374 907.7171717171716,545.3737373737374 898.181818181818,545.3737373737374 888.6464646464647,545.3737373737374 879.111111111111,545.3737373737374 869.5757575757575,545.3737373737374 860.0404040404039,545.3737373737374 850.5050505050505,545.3737373737374 840.969696969697,545.3737373737374 831.4343434343433,545.3737373737374 821.8989898989898,545.3737373737374 812.3636363636363,545.3737373737374 802.8282828282828,545.3737373737374 793.2929292929292,545.3737373737374 783.7575757575758,545.3737373737374 774.2222222222222,545.3737373737374 764.6868686868686,545.3737373737374 755.1515151515151,545.3737373737374 745.6161616161615,545.3737373737374 736.0808080808081,545.3737373737374 726.5454545454545,545.3737373737374 717.0101010101009,545.3737373737374 707.4747474747475,545.3737373737374 697.9393939393939,545.3737373737374" fill="none" stroke="rgba(255,0,0,0.75)" stroke-width="11.327999999999996"/></g><g><polyline data-points="1.9696969696969702,-0.35353535353535287 1.8686868686868696,-0.35353535353535287 1.767676767676768,-0.35353535353535287 1.6666666666666674,-0.35353535353535287 1.5656565656565666,-0.35353535353535287 1.4646464646464652,-0.35353535353535287 1.3636363636363644,-0.35353535353535287 1.262626262626263,-0.35353535353535287 1.1616161616161622,-0.35353535353535287 1.0606060606060617,-0.35353535353535287 0.9595959595959602,-0.35353535353535287 0.8585858585858596,-0.35353535353535287 0.7575757575757579,-0.35353535353535287 0.6565656565656574,-0.35353535353535287 0.5555555555555567,-0.35353535353535287 0.4545454545454551,-0.35353535353535287 0.3535353535353544,-0.35353535353535287 0.2525252525252529,-0.35353535353535287 0.1515151515151522,-0.35353535353535287 0.050505050505051545,-0.35353535353535287 -0.05050505050505001,-0.35353535353535287 -0.15151515151515066,-0.35353535353535287 -0.2525252525252522,-0.35353535353535287 -0.35353535353535287,-0.35353535353535287 -0.4545454545454544,-0.35353535353535287 -0.555555555555555,-0.35353535353535287 -0.6565656565656557,-0.35353535353535287 -0.7575757575757572,-0.35353535353535287 -0.8585858585858579,-0.35353535353535287 -0.9595959595959596,-0.35353535353535287 -1.0606060606060603,-0.35353535353535287" data-type="line" data-label="" points="697.9393939393939,545.3737373737374 688.4040404040404,545.3737373737374 678.8686868686868,545.3737373737374 669.3333333333333,545.3737373737374 659.7979797979798,545.3737373737374 650.2626262626262,545.3737373737374 640.7272727272727,545.3737373737374 631.1919191919192,545.3737373737374 621.6565656565656,545.3737373737374 612.1212121212121,545.3737373737374 602.5858585858585,545.3737373737374 593.0505050505051,545.3737373737374 583.5151515151515,545.3737373737374 573.9797979797979,545.3737373737374 564.4444444444445,545.3737373737374 554.9090909090909,545.3737373737374 545.3737373737374,545.3737373737374 535.8383838383838,545.3737373737374 526.3030303030303,545.3737373737374 516.7676767676768,545.3737373737374 507.2323232323232,545.3737373737374 497.69696969696975,545.3737373737374 488.16161616161617,545.3737373737374 478.62626262626264,545.3737373737374 469.09090909090907,545.3737373737374 459.55555555555554,545.3737373737374 450.0202020202021,545.3737373737374 440.4848484848485,545.3737373737374 430.949494949495,545.3737373737374 421.4141414141414,545.3737373737374 411.8787878787879,545.3737373737374" fill="none" stroke="rgba(0,0,255,0.75)" stroke-width="11.327999999999996"/></g><g><polyline data-points="-1.0606060606060603,-0.35353535353535287 -1.1616161616161613,-0.4545454545454544 -1.2626262626262625,-0.555555555555555 -1.363636363636363,-0.6565656565656557 -1.4646464646464643,-0.7575757575757572 -1.5656565656565653,-0.8585858585858579 -1.6666666666666665,-0.9595959595959596 -1.6666666666666665,-1.0606060606060603 -1.6666666666666665,-1.1616161616161613 -1.7676767676767675,-1.2626262626262625 -1.8686868686868683,-1.2626262626262625 -1.9696969696969693,-1.2626262626262625 -2.07070707070707,-1.2626262626262625 -2.1717171717171713,-1.2626262626262625 -2.2727272727272725,-1.2626262626262625 -2.3737373737373733,-1.2626262626262625 -2.474747474747474,-1.363636363636363 -2.5757575757575752,-1.363636363636363 -2.6767676767676765,-1.363636363636363 -2.7777777777777777,-1.4646464646464643 -2.8787878787878785,-1.4646464646464643 -2.9797979797979792,-1.4646464646464643 -3.0808080808080804,-1.4646464646464643 -3.1818181818181817,-1.4646464646464643 -3.2828282828282824,-1.5656565656565653 -3.383838383838383,-1.6666666666666665 -3.484848484848485,-1.7676767676767675 -3.5858585858585856,-1.7676767676767675 -3.6868686868686864,-1.7676767676767675 -3.7878787878787876,-1.7676767676767675 -3.8888888888888884,-1.7676767676767675 -3.98989898989899,-1.7676767676767675 -4.090909090909091,-1.6666666666666665 -4.191919191919193,-1.5656565656565653 -4.292929292929293,-1.4646464646464643 -4.393939393939394,-1.363636363636363 -4.494949494949496,-1.2626262626262625 -4.595959595959596,-1.1616161616161613 -4.696969696969697,-1.1616161616161613 -4.7979797979797985,-1.1616161616161613 -4.898989898989899,-1.1616161616161613 -5.000000000000001,-1.1616161616161613" data-type="line" data-label="" points="411.8787878787879,545.3737373737374 402.34343434343435,554.909090909091 392.80808080808083,564.4444444444445 383.2727272727273,573.979797979798 373.7373737373738,583.5151515151516 364.2020202020202,593.0505050505051 354.6666666666667,602.5858585858587 354.6666666666667,612.1212121212121 354.6666666666667,621.6565656565657 345.13131313131316,631.1919191919193 335.59595959595964,631.1919191919193 326.0606060606061,631.1919191919193 316.5252525252526,631.1919191919193 306.9898989898991,631.1919191919193 297.4545454545455,631.1919191919193 287.91919191919203,631.1919191919193 278.38383838383845,640.7272727272727 268.84848484848493,640.7272727272727 259.3131313131314,640.7272727272727 249.77777777777783,650.2626262626263 240.2424242424243,650.2626262626263 230.70707070707084,650.2626262626263 221.17171717171726,650.2626262626263 211.63636363636374,650.2626262626263 202.10101010101022,659.7979797979798 192.5656565656567,669.3333333333334 183.03030303030312,678.8686868686868 173.4949494949496,678.8686868686868 163.95959595959607,678.8686868686868 154.42424242424255,678.8686868686868 144.88888888888903,678.8686868686868 135.35353535353545,678.8686868686868 125.81818181818193,669.3333333333334 116.28282828282829,659.7979797979798 106.74747474747483,650.2626262626263 97.21212121212136,640.7272727272727 87.67676767676772,631.1919191919193 78.14141414141426,621.6565656565657 68.60606060606068,621.6565656565657 59.07070707070716,621.6565656565657 49.53535353535369,621.6565656565657 40.00000000000006,621.6565656565657" fill="none" stroke="rgba(255,0,0,0.75)" stroke-width="11.327999999999996"/></g><g><polyline data-points="-5.000000000000001,2.070707070707072 -4.898989898989899,1.9696969696969702 -4.7979797979797985,1.8686868686868696 -4.696969696969697,1.767676767676768 -4.595959595959596,1.6666666666666674 -4.494949494949496,1.5656565656565666 -4.393939393939394,1.4646464646464652 -4.292929292929293,1.3636363636363644 -4.191919191919193,1.262626262626263 -4.090909090909091,1.1616161616161622 -3.98989898989899,1.0606060606060617 -3.8888888888888884,0.9595959595959602 -3.7878787878787876,0.8585858585858596 -3.6868686868686864,0.7575757575757579 -3.5858585858585856,0.6565656565656574 -3.484848484848485,0.5555555555555567 -3.383838383838383,0.4545454545454551 -3.2828282828282824,0.3535353535353544 -3.1818181818181817,0.2525252525252529 -3.0808080808080804,0.1515151515151522 -2.9797979797979792,0.050505050505051545 -2.8787878787878785,-0.05050505050505001 -2.7777777777777777,-0.05050505050505001 -2.6767676767676765,-0.05050505050505001 -2.5757575757575752,-0.05050505050505001 -2.474747474747474,-0.05050505050505001 -2.3737373737373733,-0.05050505050505001 -2.2727272727272725,-0.05050505050505001 -2.1717171717171713,-0.05050505050505001 -2.07070707070707,-0.05050505050505001 -1.9696969696969693,-0.05050505050505001 -1.8686868686868683,-0.05050505050505001 -1.7676767676767675,-0.05050505050505001 -1.6666666666666665,-0.05050505050505001 -1.5656565656565653,-0.05050505050505001 -1.4646464646464643,-0.05050505050505001 -1.363636363636363,-0.05050505050505001 -1.2626262626262625,-0.05050505050505001" data-type="line" data-label="" points="40.00000000000006,316.5252525252526 49.53535353535369,326.06060606060623 59.07070707070716,335.5959595959597 68.60606060606068,345.1313131313133 78.14141414141426,354.66666666666674 87.67676767676772,364.2020202020203 97.21212121212136,373.73737373737384 106.74747474747483,383.27272727272737 116.28282828282829,392.80808080808094 125.81818181818193,402.3434343434344 135.35353535353545,411.87878787878793 144.88888888888903,421.4141414141415 154.42424242424255,430.94949494949503 163.95959595959607,440.4848484848486 173.4949494949496,450.0202020202021 183.03030303030312,459.5555555555556 192.5656565656567,469.0909090909092 202.10101010101022,478.6262626262627 211.63636363636374,488.1616161616163 221.17171717171726,497.69696969696975 230.70707070707084,507.23232323232327 240.2424242424243,516.7676767676768 249.77777777777783,516.7676767676768 259.3131313131314,516.7676767676768 268.84848484848493,516.7676767676768 278.38383838383845,516.7676767676768 287.91919191919203,516.7676767676768 297.4545454545455,516.7676767676768 306.9898989898991,516.7676767676768 316.5252525252526,516.7676767676768 326.0606060606061,516.7676767676768 335.59595959595964,516.7676767676768 345.13131313131316,516.7676767676768 354.6666666666667,516.7676767676768 364.2020202020202,516.7676767676768 373.7373737373738,516.7676767676768 383.2727272727273,516.7676767676768 392.80808080808083,516.7676767676768" fill="none" stroke="rgba(0,0,255,0.75)" stroke-width="11.327999999999996"/></g><g><polyline data-points="-1.2626262626262625,-0.05050505050505001 -1.1616161616161613,-0.05050505050505001 -1.0606060606060603,-0.05050505050505001 -0.9595959595959596,-0.15151515151515066 -0.8585858585858579,-0.2525252525252522 -0.7575757575757572,-0.35353535353535287 -0.7575757575757572,-0.4545454545454544 -0.7575757575757572,-0.555555555555555 -0.7575757575757572,-0.6565656565656557 -0.7575757575757572,-0.7575757575757572 -0.7575757575757572,-0.8585858585858579 -0.8585858585858579,-0.9595959595959596 -0.9595959595959596,-1.0606060606060603 -1.0606060606060603,-1.1616161616161613 -1.1616161616161613,-1.2626262626262625 -1.2626262626262625,-1.363636363636363 -1.363636363636363,-1.4646464646464643 -1.4646464646464643,-1.5656565656565653 -1.5656565656565653,-1.6666666666666665 -1.6666666666666665,-1.7676767676767675 -1.7676767676767675,-1.8686868686868683" data-type="line" data-label="" points="392.80808080808083,516.7676767676768 402.34343434343435,516.7676767676768 411.8787878787879,516.7676767676768 421.4141414141414,526.3030303030304 430.949494949495,535.838383838384 440.4848484848485,545.3737373737374 440.4848484848485,554.909090909091 440.4848484848485,564.4444444444445 440.4848484848485,573.979797979798 440.4848484848485,583.5151515151516 440.4848484848485,593.0505050505051 430.949494949495,602.5858585858587 421.4141414141414,612.1212121212121 411.8787878787879,621.6565656565657 402.34343434343435,631.1919191919193 392.80808080808083,640.7272727272727 383.2727272727273,650.2626262626263 373.7373737373738,659.7979797979798 364.2020202020202,669.3333333333334 354.6666666666667,678.8686868686868 345.13131313131316,688.4040404040404" fill="none" stroke="rgba(255,0,0,0.75)" stroke-width="11.327999999999996"/></g><g><polyline data-points="-1.7676767676767675,-1.8686868686868683 -1.6666666666666665,-1.9696969696969693 -1.5656565656565653,-2.07070707070707 -1.4646464646464643,-2.1717171717171713 -1.363636363636363,-2.2727272727272725 -1.2626262626262625,-2.3737373737373733 -1.1616161616161613,-2.474747474747474 -1.0606060606060603,-2.474747474747474 -0.9595959595959596,-2.474747474747474 -0.8585858585858579,-2.474747474747474 -0.7575757575757572,-2.474747474747474 -0.6565656565656557,-2.474747474747474 -0.555555555555555,-2.474747474747474 -0.4545454545454544,-2.474747474747474 -0.35353535353535287,-2.474747474747474 -0.2525252525252522,-2.474747474747474 -0.15151515151515066,-2.474747474747474 -0.05050505050505001,-2.474747474747474 0.050505050505051545,-2.474747474747474 0.1515151515151522,-2.474747474747474 0.2525252525252529,-2.474747474747474 0.3535353535353544,-2.474747474747474 0.4545454545454551,-2.474747474747474 0.5555555555555567,-2.474747474747474 0.6565656565656574,-2.474747474747474 0.7575757575757579,-2.474747474747474 0.8585858585858596,-2.474747474747474 0.9595959595959602,-2.474747474747474 1.0606060606060617,-2.474747474747474 1.1616161616161622,-2.474747474747474 1.262626262626263,-2.474747474747474 1.3636363636363644,-2.474747474747474 1.4646464646464652,-2.474747474747474 1.5656565656565666,-2.474747474747474 1.6666666666666674,-2.474747474747474 1.767676767676768,-2.474747474747474 1.8686868686868696,-2.474747474747474 1.9696969696969702,-2.474747474747474 2.070707070707072,-2.474747474747474 2.1717171717171726,-2.474747474747474 2.2727272727272734,-2.474747474747474 2.373737373737375,-2.474747474747474 2.4747474747474754,-2.474747474747474 2.575757575757577,-2.474747474747474 2.676767676767678,-2.474747474747474 2.7777777777777786,-2.474747474747474 2.87878787878788,-2.474747474747474 2.9797979797979806,-2.474747474747474 3.080808080808082,-2.474747474747474 3.181818181818183,-2.474747474747474 3.2828282828282833,-2.474747474747474 3.383838383838384,-2.474747474747474 3.4848484848484866,-2.474747474747474 3.5858585858585874,-2.474747474747474 3.6868686868686877,-2.474747474747474 3.7878787878787885,-2.474747474747474 3.8888888888888893,-2.474747474747474 3.989898989898992,-2.474747474747474" data-type="line" data-label="" points="345.13131313131316,688.4040404040404 354.6666666666667,697.939393939394 364.2020202020202,707.4747474747475 373.7373737373738,717.010101010101 383.2727272727273,726.5454545454545 392.80808080808083,736.0808080808081 402.34343434343435,745.6161616161615 411.8787878787879,745.6161616161615 421.4141414141414,745.6161616161615 430.949494949495,745.6161616161615 440.4848484848485,745.6161616161615 450.0202020202021,745.6161616161615 459.55555555555554,745.6161616161615 469.09090909090907,745.6161616161615 478.62626262626264,745.6161616161615 488.16161616161617,745.6161616161615 497.69696969696975,745.6161616161615 507.2323232323232,745.6161616161615 516.7676767676768,745.6161616161615 526.3030303030303,745.6161616161615 535.8383838383838,745.6161616161615 545.3737373737374,745.6161616161615 554.9090909090909,745.6161616161615 564.4444444444445,745.6161616161615 573.9797979797979,745.6161616161615 583.5151515151515,745.6161616161615 593.0505050505051,745.6161616161615 602.5858585858585,745.6161616161615 612.1212121212121,745.6161616161615 621.6565656565656,745.6161616161615 631.1919191919192,745.6161616161615 640.7272727272727,745.6161616161615 650.2626262626262,745.6161616161615 659.7979797979798,745.6161616161615 669.3333333333333,745.6161616161615 678.8686868686868,745.6161616161615 688.4040404040404,745.6161616161615 697.9393939393939,745.6161616161615 707.4747474747475,745.6161616161615 717.0101010101009,745.6161616161615 726.5454545454545,745.6161616161615 736.0808080808081,745.6161616161615 745.6161616161615,745.6161616161615 755.1515151515151,745.6161616161615 764.6868686868686,745.6161616161615 774.2222222222222,745.6161616161615 783.7575757575758,745.6161616161615 793.2929292929292,745.6161616161615 802.8282828282828,745.6161616161615 812.3636363636363,745.6161616161615 821.8989898989898,745.6161616161615 831.4343434343433,745.6161616161615 840.969696969697,745.6161616161615 850.5050505050505,745.6161616161615 860.0404040404039,745.6161616161615 869.5757575757575,745.6161616161615 879.111111111111,745.6161616161615 888.6464646464647,745.6161616161615" fill="none" stroke="rgba(0,0,255,0.75)" stroke-width="11.327999999999996"/></g><g><polyline data-points="3.989898989898992,-2.474747474747474 4.090909090909092,-2.474747474747474 4.191919191919193,-2.474747474747474 4.292929292929293,-2.474747474747474 4.393939393939394,-2.474747474747474 4.494949494949497,-2.474747474747474 4.595959595959597,-2.474747474747474 4.696969696969697,-2.474747474747474 4.7979797979797985,-2.474747474747474 4.898989898989901,-2.474747474747474 5.000000000000002,-2.474747474747474" data-type="line" data-label="" points="888.6464646464647,745.6161616161615 898.181818181818,745.6161616161615 907.7171717171716,745.6161616161615 917.2525252525251,745.6161616161615 926.7878787878785,745.6161616161615 936.3232323232323,745.6161616161615 945.8585858585857,745.6161616161615 955.3939393939393,745.6161616161615 964.9292929292927,745.6161616161615 974.4646464646464,745.6161616161615 984,745.6161616161615" fill="none" stroke="rgba(255,0,0,0.75)" stroke-width="11.327999999999996"/></g><g><rect data-type="rect" data-label="" data-x="0" data-y="0" x="40.000000000000114" y="40.000000000000284" width="943.9999999999997" height="943.9999999999998" fill="none" stroke="gray" stroke-width="0.010593220338983056"/></g><g><rect data-type="rect" data-label="" data-x="0" data-y="0" x="40.000000000000114" y="40.000000000000284" width="943.9999999999997" height="943.9999999999998" fill="none" stroke="rgba(15, 23, 42, 0.8)" stroke-width="0.010593220338983056"/></g><circle data-type="circle" data-label="" data-x="1.1616161616161622" data-y="-1.8686868686868683" cx="621.6565656565656" cy="688.4040404040404" r="14.159999999999995" fill="rgba(0,0,0,0.3)" stroke="black" stroke-width="0.010593220338983056"/><circle data-type="circle" data-label="" data-x="3.989898989898992" data-y="-1.8686868686868683" cx="888.6464646464647" cy="688.4040404040404" r="14.159999999999995" fill="rgba(0,0,0,0.3)" stroke="black" stroke-width="0.010593220338983056"/><circle data-type="circle" data-label="" data-x="-3.484848484848485" data-y="-1.4646464646464643" cx="183.03030303030312" cy="650.2626262626263" r="14.159999999999995" fill="rgba(0,0,0,0.3)" stroke="black" stroke-width="0.010593220338983056"/><circle data-type="circle" data-label="" data-x="-3.98989898989899" data-y="2.575757575757577" cx="135.35353535353545" cy="268.84848484848493" r="14.159999999999995" fill="rgba(0,0,0,0.3)" stroke="black" stroke-width="0.010593220338983056"/><circle data-type="circle" data-label="" data-x="-3.98989898989899" data-y="-1.4646464646464643" cx="135.35353535353545" cy="650.2626262626263" r="14.159999999999995" fill="rgba(0,0,0,0.3)" stroke="black" stroke-width="0.010593220338983056"/><circle data-type="circle" data-label="" data-x="2.070707070707072" data-y="2.87878787878788" cx="707.4747474747475" cy="240.24242424242436" r="14.159999999999995" fill="rgba(0,0,0,0.3)" stroke="black" stroke-width="0.010593220338983056"/><circle data-type="circle" data-label="" data-x="1.9696969696969702" data-y="-0.35353535353535287" cx="697.9393939393939" cy="545.3737373737374" r="14.159999999999995" fill="rgba(0,0,0,0.3)" stroke="black" stroke-width="0.010593220338983056"/><circle data-type="circle" data-label="" data-x="-1.0606060606060603" data-y="-0.35353535353535287" cx="411.8787878787879" cy="545.3737373737374" r="14.159999999999995" fill="rgba(0,0,0,0.3)" stroke="black" stroke-width="0.010593220338983056"/><circle data-type="circle" data-label="" data-x="-1.2626262626262625" data-y="-0.05050505050505001" cx="392.80808080808083" cy="516.7676767676768" r="14.159999999999995" fill="rgba(0,0,0,0.3)" stroke="black" stroke-width="0.010593220338983056"/><circle data-type="circle" data-label="" data-x="-1.7676767676767675" data-y="-1.8686868686868683" cx="345.13131313131316" cy="688.4040404040404" r="14.159999999999995" fill="rgba(0,0,0,0.3)" stroke="black" stroke-width="0.010593220338983056"/><circle data-type="circle" data-label="" data-x="3.989898989898992" data-y="-2.474747474747474" cx="888.6464646464647" cy="745.6161616161615" r="14.159999999999995" fill="rgba(0,0,0,0.3)" stroke="black" stroke-width="0.010593220338983056"/><g id="crosshair" style="display: none"><line id="crosshair-h" y1="0" y2="1024" stroke="#666" stroke-width="0.5"/><line id="crosshair-v" x1="0" x2="1024" stroke="#666" stroke-width="0.5"/><text id="coordinates" font-family="monospace" font-size="12" fill="#666"></text></g><script><![CDATA[
              document.currentScript.parentElement.addEventListener('mousemove', (e) => {
                const svg = e.currentTarget;
                const rect = svg.getBoundingClientRect();
                const x = e.clientX - rect.left;
                const y = e.clientY - rect.top;
                const crosshair = svg.getElementById('crosshair');
                const h = svg.getElementById('crosshair-h');
                const v = svg.getElementById('crosshair-v');
                const coords = svg.getElementById('coordinates');
                
                crosshair.style.display = 'block';
                h.setAttribute('x1', '0');
                h.setAttribute('x2', '1024');
                h.setAttribute('y1', y);
                h.setAttribute('y2', y);
                v.setAttribute('x1', x);
                v.setAttribute('x2', x);
                v.setAttribute('y1', '0');
                v.setAttribute('y2', '1024');

                // Calculate real coordinates using inverse transformation
                const matrix = {"a":94.39999999999996,"c":0,"e":511.99999999999994,"b":0,"d":-94.39999999999996,"f":512.0000000000001};
                // Manually invert and apply the affine transform
                // Since we only use translate and scale, we can directly compute:
                // x' = (x - tx) / sx
                // y' = (y - ty) / sy
                const sx = matrix.a;
                const sy = matrix.d;
                const tx = matrix.e; 
                const ty = matrix.f;
                const realPoint = {
                  x: (x - tx) / sx,
                  y: (y - ty) / sy // Flip y back since we used negative scale
                }
                
                coords.textContent = `(${realPoint.x.toFixed(2)}, ${realPoint.y.toFixed(2)})`;
                coords.setAttribute('x', (x + 5).toString());
                coords.setAttribute('y', (y - 5).toString());
              });
              document.currentScript.parentElement.addEventListener('mouseleave', () => {
                document.currentScript.parentElement.getElementById('crosshair').style.display = 'none';
              });
            ]]></script></svg>