<svg width="1024" height="1024" viewBox="0 0 1024 1024" xmlns="http://www.w3.org/2000/svg"><rect width="100%" height="100%" fill="white"/><g><circle data-type="point" data-label="conn_000" data-x="-5" data-y="-4.04" cx="40.000000000000114" cy="893.376" r="14.16" fill="blue"/></g><g><circle data-type="point" data-label="conn_000" data-x="-5" data-y="4.92" cx="40.000000000000114" cy="47.552000000000305" r="14.16" fill="blue"/></g><g><circle data-type="point" data-label="conn_001" data-x="-1.98" data-y="5" cx="325.088" cy="40.000000000000284" r="14.16" fill="blue"/></g><g><circle data-type="point" data-label="conn_001" data-x="-2.2800000000000002" data-y="5" cx="296.76800000000003" cy="40.000000000000284" r="14.16" fill="red"/></g><g><circle data-type="point" data-label="conn_002" data-x="1.18" data-y="5" cx="623.3919999999999" cy="40.000000000000284" r="14.16" fill="blue"/></g><g><circle data-type="point" data-label="conn_002" data-x="0.8200000000000001" data-y="-5" cx="589.4079999999999" cy="984" r="14.16" fill="red"/></g><g><circle data-type="point" data-label="conn_003" data-x="4.72" data-y="5" cx="957.5679999999998" cy="40.000000000000284" r="14.16" fill="blue"/></g><g><circle data-type="point" data-label="conn_003" data-x="5" data-y="-4.42" cx="983.9999999999998" cy="929.2479999999999" r="14.16" fill="red"/></g><g><circle data-type="point" data-label="conn_004" data-x="-3.98" data-y="-5" cx="136.28800000000007" cy="984" r="14.16" fill="blue"/></g><g><circle data-type="point" data-label="conn_004" data-x="-5" data-y="0.12" cx="40.000000000000114" cy="500.67200000000014" r="14.16" fill="red"/></g><g><circle data-type="point" data-label="conn_005" data-x="2.42" data-y="-5" cx="740.4479999999999" cy="984" r="14.16" fill="red"/></g><g><circle data-type="point" data-label="conn_005" data-x="5" data-y="4.92" cx="983.9999999999998" cy="47.552000000000305" r="14.16" fill="red"/></g><g><circle data-type="point" data-label="conn_006" data-x="-1.3" data-y="5" cx="389.28" cy="40.000000000000284" r="14.16" fill="red"/></g><g><circle data-type="point" data-label="conn_006" data-x="-2.4" data-y="-5" cx="285.44000000000005" cy="984" r="14.16" fill="red"/></g><g><polyline data-points="-3.98989898989899,-5.000000000000001 -3.98989898989899,-4.898989898989899 -3.98989898989899,-4.7979797979797985 -3.98989898989899,-4.696969696969697 -3.98989898989899,-4.595959595959596 -3.98989898989899,-4.494949494949496 -3.98989898989899,-4.393939393939394 -3.98989898989899,-4.292929292929293 -3.98989898989899,-4.191919191919193 -3.98989898989899,-4.090909090909091 -3.98989898989899,-3.98989898989899 -3.98989898989899,-3.8888888888888884 -3.98989898989899,-3.7878787878787876 -3.98989898989899,-3.6868686868686864 -3.98989898989899,-3.5858585858585856 -3.98989898989899,-3.484848484848485 -3.98989898989899,-3.383838383838383 -3.98989898989899,-3.2828282828282824 -3.98989898989899,-3.1818181818181817 -3.98989898989899,-3.0808080808080804 -3.98989898989899,-2.9797979797979792 -3.98989898989899,-2.8787878787878785 -3.98989898989899,-2.7777777777777777 -3.98989898989899,-2.6767676767676765 -3.98989898989899,-2.5757575757575752 -3.98989898989899,-2.474747474747474 -3.98989898989899,-2.3737373737373733 -3.98989898989899,-2.2727272727272725 -3.98989898989899,-2.1717171717171713 -3.98989898989899,-2.07070707070707 -3.98989898989899,-1.9696969696969693 -3.98989898989899,-1.8686868686868683 -3.98989898989899,-1.7676767676767675 -3.98989898989899,-1.6666666666666665 -3.98989898989899,-1.5656565656565653 -3.98989898989899,-1.4646464646464643 -3.98989898989899,-1.363636363636363 -3.98989898989899,-1.2626262626262625 -3.98989898989899,-1.1616161616161613 -3.98989898989899,-1.0606060606060603 -3.98989898989899,-0.9595959595959596 -3.98989898989899,-0.8585858585858579 -3.98989898989899,-0.7575757575757572 -3.98989898989899,-0.6565656565656557 -3.98989898989899,-0.555555555555555 -3.98989898989899,-0.4545454545454544 -3.98989898989899,-0.35353535353535287 -3.98989898989899,-0.2525252525252522 -3.98989898989899,-0.15151515151515066 -3.98989898989899,-0.05050505050505001 -3.98989898989899,0.050505050505051545" data-type="line" data-label="" points="135.35353535353545,984 135.35353535353545,974.4646464646464 135.35353535353545,964.9292929292928 135.35353535353545,955.3939393939394 135.35353535353545,945.8585858585858 135.35353535353545,936.3232323232323 135.35353535353545,926.7878787878788 135.35353535353545,917.2525252525252 135.35353535353545,907.7171717171718 135.35353535353545,898.1818181818181 135.35353535353545,888.6464646464647 135.35353535353545,879.1111111111111 135.35353535353545,869.5757575757575 135.35353535353545,860.0404040404039 135.35353535353545,850.5050505050505 135.35353535353545,840.969696969697 135.35353535353545,831.4343434343434 135.35353535353545,821.8989898989898 135.35353535353545,812.3636363636363 135.35353535353545,802.8282828282828 135.35353535353545,793.2929292929292 135.35353535353545,783.7575757575758 135.35353535353545,774.2222222222222 135.35353535353545,764.6868686868687 135.35353535353545,755.1515151515151 135.35353535353545,745.6161616161615 135.35353535353545,736.0808080808081 135.35353535353545,726.5454545454545 135.35353535353545,717.010101010101 135.35353535353545,707.4747474747475 135.35353535353545,697.939393939394 135.35353535353545,688.4040404040404 135.35353535353545,678.8686868686868 135.35353535353545,669.3333333333334 135.35353535353545,659.7979797979798 135.35353535353545,650.2626262626263 135.35353535353545,640.7272727272727 135.35353535353545,631.1919191919193 135.35353535353545,621.6565656565657 135.35353535353545,612.1212121212121 135.35353535353545,602.5858585858587 135.35353535353545,593.0505050505051 135.35353535353545,583.5151515151516 135.35353535353545,573.979797979798 135.35353535353545,564.4444444444445 135.35353535353545,554.909090909091 135.35353535353545,545.3737373737374 135.35353535353545,535.838383838384 135.35353535353545,526.3030303030304 135.35353535353545,516.7676767676768 135.35353535353545,507.23232323232327" fill="none" stroke="rgba(0,0,255,0.75)" stroke-width="11.327999999999996"/></g><g><polyline data-points="-3.98989898989899,0.050505050505051545 -4.090909090909091,0.1515151515151522 -4.191919191919193,0.1515151515151522 -4.292929292929293,0.1515151515151522 -4.393939393939394,0.1515151515151522 -4.494949494949496,0.1515151515151522 -4.595959595959596,0.1515151515151522 -4.696969696969697,0.1515151515151522 -4.7979797979797985,0.1515151515151522 -4.898989898989899,0.1515151515151522 -5.000000000000001,0.1515151515151522" data-type="line" data-label="" points="135.35353535353545,507.23232323232327 125.81818181818193,497.69696969696975 116.28282828282829,497.69696969696975 106.74747474747483,497.69696969696975 97.21212121212136,497.69696969696975 87.67676767676772,497.69696969696975 78.14141414141426,497.69696969696975 68.60606060606068,497.69696969696975 59.07070707070716,497.69696969696975 49.53535353535369,497.69696969696975 40.00000000000006,497.69696969696975" fill="none" stroke="rgba(255,0,0,0.75)" stroke-width="11.327999999999996"/></g><g><polyline data-points="4.7979797979797985,5.000000000000002 4.7979797979797985,4.898989898989901 4.7979797979797985,4.7979797979797985 4.7979797979797985,4.696969696969697 4.7979797979797985,4.595959595959597 4.7979797979797985,4.494949494949497 4.7979797979797985,4.393939393939394 4.7979797979797985,4.292929292929293 4.7979797979797985,4.191919191919193 4.7979797979797985,4.090909090909092 4.7979797979797985,3.989898989898992 4.7979797979797985,3.8888888888888893 4.7979797979797985,3.7878787878787885 4.7979797979797985,3.6868686868686877 4.7979797979797985,3.5858585858585874 4.7979797979797985,3.4848484848484866 4.7979797979797985,3.383838383838384 4.7979797979797985,3.2828282828282833 4.7979797979797985,3.181818181818183 4.7979797979797985,3.080808080808082 4.7979797979797985,2.9797979797979806 4.7979797979797985,2.87878787878788 4.7979797979797985,2.7777777777777786 4.7979797979797985,2.676767676767678 4.7979797979797985,2.575757575757577 4.7979797979797985,2.4747474747474754 4.7979797979797985,2.373737373737375 4.7979797979797985,2.2727272727272734 4.7979797979797985,2.1717171717171726 4.7979797979797985,2.070707070707072 4.7979797979797985,1.9696969696969702 4.7979797979797985,1.8686868686868696 4.7979797979797985,1.767676767676768 4.7979797979797985,1.6666666666666674 4.7979797979797985,1.5656565656565666 4.7979797979797985,1.4646464646464652 4.7979797979797985,1.3636363636363644 4.7979797979797985,1.262626262626263 4.7979797979797985,1.1616161616161622 4.7979797979797985,1.0606060606060617 4.7979797979797985,0.9595959595959602 4.7979797979797985,0.8585858585858596 4.7979797979797985,0.7575757575757579 4.7979797979797985,0.6565656565656574 4.7979797979797985,0.5555555555555567 4.7979797979797985,0.4545454545454551 4.7979797979797985,0.3535353535353544 4.7979797979797985,0.2525252525252529 4.7979797979797985,0.1515151515151522 4.7979797979797985,0.050505050505051545 4.7979797979797985,-0.05050505050505001 4.7979797979797985,-0.15151515151515066 4.7979797979797985,-0.2525252525252522 4.7979797979797985,-0.35353535353535287 4.7979797979797985,-0.4545454545454544 4.7979797979797985,-0.555555555555555 4.7979797979797985,-0.6565656565656557 4.7979797979797985,-0.7575757575757572 4.7979797979797985,-0.8585858585858579 4.7979797979797985,-0.9595959595959596 4.7979797979797985,-1.0606060606060603 4.7979797979797985,-1.1616161616161613 4.7979797979797985,-1.2626262626262625 4.7979797979797985,-1.363636363636363 4.7979797979797985,-1.4646464646464643 4.7979797979797985,-1.5656565656565653 4.7979797979797985,-1.6666666666666665 4.7979797979797985,-1.7676767676767675 4.7979797979797985,-1.8686868686868683 4.7979797979797985,-1.9696969696969693 4.7979797979797985,-2.07070707070707 4.7979797979797985,-2.1717171717171713 4.7979797979797985,-2.2727272727272725 4.7979797979797985,-2.3737373737373733 4.7979797979797985,-2.474747474747474 4.7979797979797985,-2.5757575757575752 4.7979797979797985,-2.6767676767676765 4.7979797979797985,-2.7777777777777777 4.7979797979797985,-2.8787878787878785 4.7979797979797985,-2.9797979797979792 4.7979797979797985,-3.0808080808080804 4.696969696969697,-3.1818181818181817 4.595959595959597,-3.2828282828282824 4.494949494949497,-3.383838383838383 4.393939393939394,-3.484848484848485 4.292929292929293,-3.5858585858585856 4.191919191919193,-3.6868686868686864 4.090909090909092,-3.7878787878787876 3.989898989898992,-3.8888888888888884" data-type="line" data-label="" points="964.9292929292927,40.000000000000114 964.9292929292927,49.53535353535369 964.9292929292927,59.07070707070733 964.9292929292927,68.60606060606085 964.9292929292927,78.14141414141432 964.9292929292927,87.67676767676778 964.9292929292927,97.21212121212153 964.9292929292927,106.747474747475 964.9292929292927,116.28282828282846 964.9292929292927,125.81818181818198 964.9292929292927,135.35353535353545 964.9292929292927,144.88888888888908 964.9292929292927,154.4242424242426 964.9292929292927,163.95959595959613 964.9292929292927,173.4949494949496 964.9292929292927,183.03030303030312 964.9292929292927,192.56565656565675 964.9292929292927,202.10101010101027 964.9292929292927,211.63636363636374 964.9292929292927,221.17171717171726 964.9292929292927,230.70707070707084 964.9292929292927,240.24242424242436 964.9292929292927,249.77777777777794 964.9292929292927,259.3131313131314 964.9292929292927,268.84848484848493 964.9292929292927,278.38383838383857 964.9292929292927,287.91919191919203 964.9292929292927,297.4545454545456 964.9292929292927,306.9898989898991 964.9292929292927,316.5252525252526 964.9292929292927,326.06060606060623 964.9292929292927,335.5959595959597 964.9292929292927,345.1313131313133 964.9292929292927,354.66666666666674 964.9292929292927,364.2020202020203 964.9292929292927,373.73737373737384 964.9292929292927,383.27272727272737 964.9292929292927,392.80808080808094 964.9292929292927,402.3434343434344 964.9292929292927,411.87878787878793 964.9292929292927,421.4141414141415 964.9292929292927,430.94949494949503 964.9292929292927,440.4848484848486 964.9292929292927,450.0202020202021 964.9292929292927,459.5555555555556 964.9292929292927,469.0909090909092 964.9292929292927,478.6262626262627 964.9292929292927,488.1616161616163 964.9292929292927,497.69696969696975 964.9292929292927,507.23232323232327 964.9292929292927,516.7676767676768 964.9292929292927,526.3030303030304 964.9292929292927,535.838383838384 964.9292929292927,545.3737373737374 964.9292929292927,554.909090909091 964.9292929292927,564.4444444444445 964.9292929292927,573.979797979798 964.9292929292927,583.5151515151516 964.9292929292927,593.0505050505051 964.9292929292927,602.5858585858587 964.9292929292927,612.1212121212121 964.9292929292927,621.6565656565657 964.9292929292927,631.1919191919193 964.9292929292927,640.7272727272727 964.9292929292927,650.2626262626263 964.9292929292927,659.7979797979798 964.9292929292927,669.3333333333334 964.9292929292927,678.8686868686868 964.9292929292927,688.4040404040404 964.9292929292927,697.939393939394 964.9292929292927,707.4747474747475 964.9292929292927,717.010101010101 964.9292929292927,726.5454545454545 964.9292929292927,736.0808080808081 964.9292929292927,745.6161616161615 964.9292929292927,755.1515151515151 964.9292929292927,764.6868686868687 964.9292929292927,774.2222222222222 964.9292929292927,783.7575757575758 964.9292929292927,793.2929292929292 964.9292929292927,802.8282828282828 955.3939393939393,812.3636363636363 945.8585858585857,821.8989898989898 936.3232323232323,831.4343434343434 926.7878787878785,840.969696969697 917.2525252525251,850.5050505050505 907.7171717171716,860.0404040404039 898.181818181818,869.5757575757575 888.6464646464647,879.1111111111111" fill="none" stroke="rgba(0,0,255,0.75)" stroke-width="11.327999999999996"/></g><g><polyline data-points="3.989898989898992,-3.8888888888888884 4.090909090909092,-3.98989898989899 4.191919191919193,-4.090909090909091 4.292929292929293,-4.191919191919193 4.393939393939394,-4.292929292929293 4.494949494949497,-4.393939393939394 4.595959595959597,-4.494949494949496 4.696969696969697,-4.494949494949496 4.7979797979797985,-4.494949494949496 4.898989898989901,-4.494949494949496 5.000000000000002,-4.494949494949496" data-type="line" data-label="" points="888.6464646464647,879.1111111111111 898.181818181818,888.6464646464647 907.7171717171716,898.1818181818181 917.2525252525251,907.7171717171718 926.7878787878785,917.2525252525252 936.3232323232323,926.7878787878788 945.8585858585857,936.3232323232323 955.3939393939393,936.3232323232323 964.9292929292927,936.3232323232323 974.4646464646464,936.3232323232323 984,936.3232323232323" fill="none" stroke="rgba(255,0,0,0.75)" stroke-width="11.327999999999996"/></g><g><polyline data-points="2.4747474747474754,-5.000000000000001 2.575757575757577,-4.898989898989899 2.676767676767678,-4.7979797979797985 2.7777777777777786,-4.696969696969697 2.87878787878788,-4.595959595959596 2.9797979797979806,-4.494949494949496 3.080808080808082,-4.393939393939394 3.181818181818183,-4.292929292929293 3.2828282828282833,-4.191919191919193 3.383838383838384,-4.090909090909091 3.4848484848484866,-3.98989898989899 3.5858585858585874,-3.8888888888888884 3.6868686868686877,-3.7878787878787876 3.7878787878787885,-3.6868686868686864 3.8888888888888893,-3.5858585858585856 3.989898989898992,-3.484848484848485 4.090909090909092,-3.383838383838383 4.191919191919193,-3.2828282828282824 4.292929292929293,-3.1818181818181817 4.393939393939394,-3.0808080808080804 4.494949494949497,-2.9797979797979792 4.595959595959597,-2.8787878787878785 4.696969696969697,-2.7777777777777777 4.7979797979797985,-2.6767676767676765 4.898989898989901,-2.5757575757575752 5.000000000000002,-2.474747474747474 5.000000000000002,-2.3737373737373733 5.000000000000002,-2.2727272727272725 5.000000000000002,-2.1717171717171713 5.000000000000002,-2.07070707070707 5.000000000000002,-1.9696969696969693 5.000000000000002,-1.8686868686868683 5.000000000000002,-1.7676767676767675 5.000000000000002,-1.6666666666666665 5.000000000000002,-1.5656565656565653 5.000000000000002,-1.4646464646464643 5.000000000000002,-1.363636363636363 5.000000000000002,-1.2626262626262625 5.000000000000002,-1.1616161616161613 5.000000000000002,-1.0606060606060603 5.000000000000002,-0.9595959595959596 5.000000000000002,-0.8585858585858579 5.000000000000002,-0.7575757575757572 5.000000000000002,-0.6565656565656557 5.000000000000002,-0.555555555555555 5.000000000000002,-0.4545454545454544 5.000000000000002,-0.35353535353535287 5.000000000000002,-0.2525252525252522 5.000000000000002,-0.15151515151515066 5.000000000000002,-0.05050505050505001 5.000000000000002,0.050505050505051545 5.000000000000002,0.1515151515151522 5.000000000000002,0.2525252525252529 5.000000000000002,0.3535353535353544 5.000000000000002,0.4545454545454551 5.000000000000002,0.5555555555555567 5.000000000000002,0.6565656565656574 5.000000000000002,0.7575757575757579 5.000000000000002,0.8585858585858596 5.000000000000002,0.9595959595959602 5.000000000000002,1.0606060606060617 5.000000000000002,1.1616161616161622 5.000000000000002,1.262626262626263 5.000000000000002,1.3636363636363644 5.000000000000002,1.4646464646464652 5.000000000000002,1.5656565656565666 5.000000000000002,1.6666666666666674 5.000000000000002,1.767676767676768 5.000000000000002,1.8686868686868696 5.000000000000002,1.9696969696969702 5.000000000000002,2.070707070707072 5.000000000000002,2.1717171717171726 5.000000000000002,2.2727272727272734 5.000000000000002,2.373737373737375 5.000000000000002,2.4747474747474754 5.000000000000002,2.575757575757577 5.000000000000002,2.676767676767678 5.000000000000002,2.7777777777777786 5.000000000000002,2.87878787878788 5.000000000000002,2.9797979797979806 5.000000000000002,3.080808080808082 5.000000000000002,3.181818181818183 5.000000000000002,3.2828282828282833 5.000000000000002,3.383838383838384 5.000000000000002,3.4848484848484866 5.000000000000002,3.5858585858585874 5.000000000000002,3.6868686868686877 5.000000000000002,3.7878787878787885 5.000000000000002,3.8888888888888893 5.000000000000002,3.989898989898992 5.000000000000002,4.090909090909092 5.000000000000002,4.191919191919193 5.000000000000002,4.292929292929293 5.000000000000002,4.393939393939394 5.000000000000002,4.494949494949497 5.000000000000002,4.595959595959597 5.000000000000002,4.696969696969697 5.000000000000002,4.7979797979797985 5.000000000000002,4.898989898989901 5.000000000000002,5.000000000000002" data-type="line" data-label="" points="745.6161616161615,984 755.1515151515151,974.4646464646464 764.6868686868686,964.9292929292928 774.2222222222222,955.3939393939394 783.7575757575758,945.8585858585858 793.2929292929292,936.3232323232323 802.8282828282828,926.7878787878788 812.3636363636363,917.2525252525252 821.8989898989898,907.7171717171718 831.4343434343433,898.1818181818181 840.969696969697,888.6464646464647 850.5050505050505,879.1111111111111 860.0404040404039,869.5757575757575 869.5757575757575,860.0404040404039 879.111111111111,850.5050505050505 888.6464646464647,840.969696969697 898.181818181818,831.4343434343434 907.7171717171716,821.8989898989898 917.2525252525251,812.3636363636363 926.7878787878785,802.8282828282828 936.3232323232323,793.2929292929292 945.8585858585857,783.7575757575758 955.3939393939393,774.2222222222222 964.9292929292927,764.6868686868687 974.4646464646464,755.1515151515151 984,745.6161616161615 984,736.0808080808081 984,726.5454545454545 984,717.010101010101 984,707.4747474747475 984,697.939393939394 984,688.4040404040404 984,678.8686868686868 984,669.3333333333334 984,659.7979797979798 984,650.2626262626263 984,640.7272727272727 984,631.1919191919193 984,621.6565656565657 984,612.1212121212121 984,602.5858585858587 984,593.0505050505051 984,583.5151515151516 984,573.979797979798 984,564.4444444444445 984,554.909090909091 984,545.3737373737374 984,535.838383838384 984,526.3030303030304 984,516.7676767676768 984,507.23232323232327 984,497.69696969696975 984,488.1616161616163 984,478.6262626262627 984,469.0909090909092 984,459.5555555555556 984,450.0202020202021 984,440.4848484848486 984,430.94949494949503 984,421.4141414141415 984,411.87878787878793 984,402.3434343434344 984,392.80808080808094 984,383.27272727272737 984,373.73737373737384 984,364.2020202020203 984,354.66666666666674 984,345.1313131313133 984,335.5959595959597 984,326.06060606060623 984,316.5252525252526 984,306.9898989898991 984,297.4545454545456 984,287.91919191919203 984,278.38383838383857 984,268.84848484848493 984,259.3131313131314 984,249.77777777777794 984,240.24242424242436 984,230.70707070707084 984,221.17171717171726 984,211.63636363636374 984,202.10101010101027 984,192.56565656565675 984,183.03030303030312 984,173.4949494949496 984,163.95959595959613 984,154.4242424242426 984,144.88888888888908 984,135.35353535353545 984,125.81818181818198 984,116.28282828282846 984,106.747474747475 984,97.21212121212153 984,87.67676767676778 984,78.14141414141432 984,68.60606060606085 984,59.07070707070733 984,49.53535353535369 984,40.000000000000114" fill="none" stroke="rgba(255,0,0,0.75)" stroke-width="11.327999999999996"/></g><g><polyline data-points="1.1616161616161622,5.000000000000002 1.0606060606060617,4.898989898989901 0.9595959595959602,4.7979797979797985 0.8585858585858596,4.696969696969697 0.8585858585858596,4.595959595959597 0.8585858585858596,4.494949494949497 0.8585858585858596,4.393939393939394 0.8585858585858596,4.292929292929293 0.8585858585858596,4.191919191919193 0.8585858585858596,4.090909090909092 0.8585858585858596,3.989898989898992 0.8585858585858596,3.8888888888888893 0.8585858585858596,3.7878787878787885 0.8585858585858596,3.6868686868686877 0.8585858585858596,3.5858585858585874 0.8585858585858596,3.4848484848484866 0.8585858585858596,3.383838383838384 0.8585858585858596,3.2828282828282833 0.8585858585858596,3.181818181818183 0.8585858585858596,3.080808080808082 0.8585858585858596,2.9797979797979806 0.8585858585858596,2.87878787878788 0.8585858585858596,2.7777777777777786 0.8585858585858596,2.676767676767678 0.8585858585858596,2.575757575757577 0.8585858585858596,2.4747474747474754 0.8585858585858596,2.373737373737375 0.8585858585858596,2.2727272727272734 0.8585858585858596,2.1717171717171726 0.8585858585858596,2.070707070707072 0.8585858585858596,1.9696969696969702 0.8585858585858596,1.8686868686868696 0.8585858585858596,1.767676767676768 0.8585858585858596,1.6666666666666674 0.8585858585858596,1.5656565656565666 0.8585858585858596,1.4646464646464652 0.8585858585858596,1.3636363636363644 0.8585858585858596,1.262626262626263 0.8585858585858596,1.1616161616161622 0.8585858585858596,1.0606060606060617 0.8585858585858596,0.9595959595959602 0.8585858585858596,0.8585858585858596 0.8585858585858596,0.7575757575757579 0.8585858585858596,0.6565656565656574 0.8585858585858596,0.5555555555555567 0.8585858585858596,0.4545454545454551 0.8585858585858596,0.3535353535353544 0.8585858585858596,0.2525252525252529 0.8585858585858596,0.1515151515151522 0.8585858585858596,0.050505050505051545 0.8585858585858596,-0.05050505050505001 0.8585858585858596,-0.15151515151515066 0.8585858585858596,-0.2525252525252522 0.8585858585858596,-0.35353535353535287 0.8585858585858596,-0.4545454545454544 0.8585858585858596,-0.555555555555555 0.8585858585858596,-0.6565656565656557 0.8585858585858596,-0.7575757575757572 0.8585858585858596,-0.8585858585858579 0.8585858585858596,-0.9595959595959596 0.8585858585858596,-1.0606060606060603 0.8585858585858596,-1.1616161616161613 0.8585858585858596,-1.2626262626262625 0.8585858585858596,-1.363636363636363 0.8585858585858596,-1.4646464646464643 0.8585858585858596,-1.5656565656565653 0.8585858585858596,-1.6666666666666665 0.8585858585858596,-1.7676767676767675 0.8585858585858596,-1.8686868686868683 0.8585858585858596,-1.9696969696969693 0.8585858585858596,-2.07070707070707 0.8585858585858596,-2.1717171717171713 0.8585858585858596,-2.2727272727272725 0.8585858585858596,-2.3737373737373733 0.8585858585858596,-2.474747474747474 0.8585858585858596,-2.5757575757575752 0.8585858585858596,-2.6767676767676765 0.8585858585858596,-2.7777777777777777 0.8585858585858596,-2.8787878787878785 0.8585858585858596,-2.9797979797979792 0.8585858585858596,-3.0808080808080804 0.8585858585858596,-3.1818181818181817 0.8585858585858596,-3.2828282828282824 0.8585858585858596,-3.383838383838383 0.8585858585858596,-3.484848484848485 0.8585858585858596,-3.5858585858585856 0.8585858585858596,-3.6868686868686864 0.8585858585858596,-3.7878787878787876 0.8585858585858596,-3.8888888888888884 0.8585858585858596,-3.98989898989899" data-type="line" data-label="" points="621.6565656565656,40.000000000000114 612.1212121212121,49.53535353535369 602.5858585858585,59.07070707070733 593.0505050505051,68.60606060606085 593.0505050505051,78.14141414141432 593.0505050505051,87.67676767676778 593.0505050505051,97.21212121212153 593.0505050505051,106.747474747475 593.0505050505051,116.28282828282846 593.0505050505051,125.81818181818198 593.0505050505051,135.35353535353545 593.0505050505051,144.88888888888908 593.0505050505051,154.4242424242426 593.0505050505051,163.95959595959613 593.0505050505051,173.4949494949496 593.0505050505051,183.03030303030312 593.0505050505051,192.56565656565675 593.0505050505051,202.10101010101027 593.0505050505051,211.63636363636374 593.0505050505051,221.17171717171726 593.0505050505051,230.70707070707084 593.0505050505051,240.24242424242436 593.0505050505051,249.77777777777794 593.0505050505051,259.3131313131314 593.0505050505051,268.84848484848493 593.0505050505051,278.38383838383857 593.0505050505051,287.91919191919203 593.0505050505051,297.4545454545456 593.0505050505051,306.9898989898991 593.0505050505051,316.5252525252526 593.0505050505051,326.06060606060623 593.0505050505051,335.5959595959597 593.0505050505051,345.1313131313133 593.0505050505051,354.66666666666674 593.0505050505051,364.2020202020203 593.0505050505051,373.73737373737384 593.0505050505051,383.27272727272737 593.0505050505051,392.80808080808094 593.0505050505051,402.3434343434344 593.0505050505051,411.87878787878793 593.0505050505051,421.4141414141415 593.0505050505051,430.94949494949503 593.0505050505051,440.4848484848486 593.0505050505051,450.0202020202021 593.0505050505051,459.5555555555556 593.0505050505051,469.0909090909092 593.0505050505051,478.6262626262627 593.0505050505051,488.1616161616163 593.0505050505051,497.69696969696975 593.0505050505051,507.23232323232327 593.0505050505051,516.7676767676768 593.0505050505051,526.3030303030304 593.0505050505051,535.838383838384 593.0505050505051,545.3737373737374 593.0505050505051,554.909090909091 593.0505050505051,564.4444444444445 593.0505050505051,573.979797979798 593.0505050505051,583.5151515151516 593.0505050505051,593.0505050505051 593.0505050505051,602.5858585858587 593.0505050505051,612.1212121212121 593.0505050505051,621.6565656565657 593.0505050505051,631.1919191919193 593.0505050505051,640.7272727272727 593.0505050505051,650.2626262626263 593.0505050505051,659.7979797979798 593.0505050505051,669.3333333333334 593.0505050505051,678.8686868686868 593.0505050505051,688.4040404040404 593.0505050505051,697.939393939394 593.0505050505051,707.4747474747475 593.0505050505051,717.010101010101 593.0505050505051,726.5454545454545 593.0505050505051,736.0808080808081 593.0505050505051,745.6161616161615 593.0505050505051,755.1515151515151 593.0505050505051,764.6868686868687 593.0505050505051,774.2222222222222 593.0505050505051,783.7575757575758 593.0505050505051,793.2929292929292 593.0505050505051,802.8282828282828 593.0505050505051,812.3636363636363 593.0505050505051,821.8989898989898 593.0505050505051,831.4343434343434 593.0505050505051,840.969696969697 593.0505050505051,850.5050505050505 593.0505050505051,860.0404040404039 593.0505050505051,869.5757575757575 593.0505050505051,879.1111111111111 593.0505050505051,888.6464646464647" fill="none" stroke="rgba(0,0,255,0.75)" stroke-width="11.327999999999996"/></g><g><polyline data-points="0.8585858585858596,-3.98989898989899 0.8585858585858596,-4.090909090909091 0.8585858585858596,-4.191919191919193 0.8585858585858596,-4.292929292929293 0.8585858585858596,-4.393939393939394 0.8585858585858596,-4.494949494949496 0.8585858585858596,-4.595959595959596 0.8585858585858596,-4.696969696969697 0.8585858585858596,-4.7979797979797985 0.8585858585858596,-4.898989898989899 0.8585858585858596,-5.000000000000001" data-type="line" data-label="" points="593.0505050505051,888.6464646464647 593.0505050505051,898.1818181818181 593.0505050505051,907.7171717171718 593.0505050505051,917.2525252525252 593.0505050505051,926.7878787878788 593.0505050505051,936.3232323232323 593.0505050505051,945.8585858585858 593.0505050505051,955.3939393939394 593.0505050505051,964.9292929292928 593.0505050505051,974.4646464646464 593.0505050505051,984" fill="none" stroke="rgba(255,0,0,0.75)" stroke-width="11.327999999999996"/></g><g><polyline data-points="-1.9696969696969693,5.000000000000002 -2.07070707070707,4.898989898989901 -2.1717171717171713,4.7979797979797985 -2.2727272727272725,4.696969696969697 -2.2727272727272725,4.595959595959597 -2.2727272727272725,4.494949494949497 -2.2727272727272725,4.393939393939394 -2.2727272727272725,4.292929292929293 -2.2727272727272725,4.191919191919193 -2.2727272727272725,4.090909090909092 -2.2727272727272725,3.989898989898992" data-type="line" data-label="" points="326.0606060606061,40.000000000000114 316.5252525252526,49.53535353535369 306.9898989898991,59.07070707070733 297.4545454545455,68.60606060606085 297.4545454545455,78.14141414141432 297.4545454545455,87.67676767676778 297.4545454545455,97.21212121212153 297.4545454545455,106.747474747475 297.4545454545455,116.28282828282846 297.4545454545455,125.81818181818198 297.4545454545455,135.35353535353545" fill="none" stroke="rgba(0,0,255,0.75)" stroke-width="11.327999999999996"/></g><g><polyline data-points="-2.2727272727272725,3.989898989898992 -2.2727272727272725,4.090909090909092 -2.2727272727272725,4.191919191919193 -2.2727272727272725,4.292929292929293 -2.2727272727272725,4.393939393939394 -2.2727272727272725,4.494949494949497 -2.2727272727272725,4.595959595959597 -2.2727272727272725,4.696969696969697 -2.2727272727272725,4.7979797979797985 -2.2727272727272725,4.898989898989901 -2.2727272727272725,5.000000000000002" data-type="line" data-label="" points="297.4545454545455,135.35353535353545 297.4545454545455,125.81818181818198 297.4545454545455,116.28282828282846 297.4545454545455,106.747474747475 297.4545454545455,97.21212121212153 297.4545454545455,87.67676767676778 297.4545454545455,78.14141414141432 297.4545454545455,68.60606060606085 297.4545454545455,59.07070707070733 297.4545454545455,49.53535353535369 297.4545454545455,40.000000000000114" fill="none" stroke="rgba(255,0,0,0.75)" stroke-width="11.327999999999996"/></g><g><polyline data-points="-5.000000000000001,-4.090909090909091 -5.000000000000001,-3.98989898989899 -5.000000000000001,-3.8888888888888884 -5.000000000000001,-3.7878787878787876 -5.000000000000001,-3.6868686868686864 -5.000000000000001,-3.5858585858585856 -5.000000000000001,-3.484848484848485 -5.000000000000001,-3.383838383838383 -5.000000000000001,-3.2828282828282824 -5.000000000000001,-3.1818181818181817 -5.000000000000001,-3.0808080808080804 -5.000000000000001,-2.9797979797979792 -5.000000000000001,-2.8787878787878785 -5.000000000000001,-2.7777777777777777 -5.000000000000001,-2.6767676767676765 -5.000000000000001,-2.5757575757575752 -5.000000000000001,-2.474747474747474 -5.000000000000001,-2.3737373737373733 -5.000000000000001,-2.2727272727272725 -5.000000000000001,-2.1717171717171713 -5.000000000000001,-2.07070707070707 -5.000000000000001,-1.9696969696969693 -5.000000000000001,-1.8686868686868683 -5.000000000000001,-1.7676767676767675 -5.000000000000001,-1.6666666666666665 -5.000000000000001,-1.5656565656565653 -5.000000000000001,-1.4646464646464643 -5.000000000000001,-1.363636363636363 -5.000000000000001,-1.2626262626262625 -5.000000000000001,-1.1616161616161613 -5.000000000000001,-1.0606060606060603 -5.000000000000001,-0.9595959595959596 -5.000000000000001,-0.8585858585858579 -5.000000000000001,-0.7575757575757572 -5.000000000000001,-0.6565656565656557 -5.000000000000001,-0.555555555555555 -5.000000000000001,-0.4545454545454544 -5.000000000000001,-0.35353535353535287 -5.000000000000001,-0.2525252525252522 -5.000000000000001,-0.15151515151515066 -5.000000000000001,-0.05050505050505001 -5.000000000000001,0.050505050505051545 -5.000000000000001,0.1515151515151522 -5.000000000000001,0.2525252525252529 -5.000000000000001,0.3535353535353544 -5.000000000000001,0.4545454545454551 -5.000000000000001,0.5555555555555567 -5.000000000000001,0.6565656565656574 -5.000000000000001,0.7575757575757579 -5.000000000000001,0.8585858585858596 -5.000000000000001,0.9595959595959602 -5.000000000000001,1.0606060606060617 -5.000000000000001,1.1616161616161622 -5.000000000000001,1.262626262626263 -5.000000000000001,1.3636363636363644 -5.000000000000001,1.4646464646464652 -5.000000000000001,1.5656565656565666 -5.000000000000001,1.6666666666666674 -5.000000000000001,1.767676767676768 -5.000000000000001,1.8686868686868696 -5.000000000000001,1.9696969696969702 -5.000000000000001,2.070707070707072 -5.000000000000001,2.1717171717171726 -5.000000000000001,2.2727272727272734 -5.000000000000001,2.373737373737375 -5.000000000000001,2.4747474747474754 -5.000000000000001,2.575757575757577 -5.000000000000001,2.676767676767678 -5.000000000000001,2.7777777777777786 -5.000000000000001,2.87878787878788 -5.000000000000001,2.9797979797979806 -5.000000000000001,3.080808080808082 -5.000000000000001,3.181818181818183 -5.000000000000001,3.2828282828282833 -5.000000000000001,3.383838383838384 -5.000000000000001,3.4848484848484866 -5.000000000000001,3.5858585858585874 -5.000000000000001,3.6868686868686877 -5.000000000000001,3.7878787878787885 -5.000000000000001,3.8888888888888893 -5.000000000000001,3.989898989898992 -5.000000000000001,4.090909090909092 -5.000000000000001,4.191919191919193 -5.000000000000001,4.292929292929293 -5.000000000000001,4.393939393939394 -5.000000000000001,4.494949494949497 -5.000000000000001,4.595959595959597 -5.000000000000001,4.696969696969697 -5.000000000000001,4.7979797979797985 -5.000000000000001,4.898989898989901 -5.000000000000001,5.000000000000002" data-type="line" data-label="" points="40.00000000000006,898.1818181818181 40.00000000000006,888.6464646464647 40.00000000000006,879.1111111111111 40.00000000000006,869.5757575757575 40.00000000000006,860.0404040404039 40.00000000000006,850.5050505050505 40.00000000000006,840.969696969697 40.00000000000006,831.4343434343434 40.00000000000006,821.8989898989898 40.00000000000006,812.3636363636363 40.00000000000006,802.8282828282828 40.00000000000006,793.2929292929292 40.00000000000006,783.7575757575758 40.00000000000006,774.2222222222222 40.00000000000006,764.6868686868687 40.00000000000006,755.1515151515151 40.00000000000006,745.6161616161615 40.00000000000006,736.0808080808081 40.00000000000006,726.5454545454545 40.00000000000006,717.010101010101 40.00000000000006,707.4747474747475 40.00000000000006,697.939393939394 40.00000000000006,688.4040404040404 40.00000000000006,678.8686868686868 40.00000000000006,669.3333333333334 40.00000000000006,659.7979797979798 40.00000000000006,650.2626262626263 40.00000000000006,640.7272727272727 40.00000000000006,631.1919191919193 40.00000000000006,621.6565656565657 40.00000000000006,612.1212121212121 40.00000000000006,602.5858585858587 40.00000000000006,593.0505050505051 40.00000000000006,583.5151515151516 40.00000000000006,573.979797979798 40.00000000000006,564.4444444444445 40.00000000000006,554.909090909091 40.00000000000006,545.3737373737374 40.00000000000006,535.838383838384 40.00000000000006,526.3030303030304 40.00000000000006,516.7676767676768 40.00000000000006,507.23232323232327 40.00000000000006,497.69696969696975 40.00000000000006,488.1616161616163 40.00000000000006,478.6262626262627 40.00000000000006,469.0909090909092 40.00000000000006,459.5555555555556 40.00000000000006,450.0202020202021 40.00000000000006,440.4848484848486 40.00000000000006,430.94949494949503 40.00000000000006,421.4141414141415 40.00000000000006,411.87878787878793 40.00000000000006,402.3434343434344 40.00000000000006,392.80808080808094 40.00000000000006,383.27272727272737 40.00000000000006,373.73737373737384 40.00000000000006,364.2020202020203 40.00000000000006,354.66666666666674 40.00000000000006,345.1313131313133 40.00000000000006,335.5959595959597 40.00000000000006,326.06060606060623 40.00000000000006,316.5252525252526 40.00000000000006,306.9898989898991 40.00000000000006,297.4545454545456 40.00000000000006,287.91919191919203 40.00000000000006,278.38383838383857 40.00000000000006,268.84848484848493 40.00000000000006,259.3131313131314 40.00000000000006,249.77777777777794 40.00000000000006,240.24242424242436 40.00000000000006,230.70707070707084 40.00000000000006,221.17171717171726 40.00000000000006,211.63636363636374 40.00000000000006,202.10101010101027 40.00000000000006,192.56565656565675 40.00000000000006,183.03030303030312 40.00000000000006,173.4949494949496 40.00000000000006,163.95959595959613 40.00000000000006,154.4242424242426 40.00000000000006,144.88888888888908 40.00000000000006,135.35353535353545 40.00000000000006,125.81818181818198 40.00000000000006,116.28282828282846 40.00000000000006,106.747474747475 40.00000000000006,97.21212121212153 40.00000000000006,87.67676767676778 40.00000000000006,78.14141414141432 40.00000000000006,68.60606060606085 40.00000000000006,59.07070707070733 40.00000000000006,49.53535353535369 40.00000000000006,40.000000000000114" fill="none" stroke="rgba(0,0,255,0.75)" stroke-width="11.327999999999996"/></g><g><polyline data-points="-1.2626262626262625,5.000000000000002 -1.363636363636363,4.898989898989901 -1.4646464646464643,4.7979797979797985 -1.5656565656565653,4.696969696969697 -1.6666666666666665,4.595959595959597 -1.7676767676767675,4.494949494949497 -1.8686868686868683,4.393939393939394 -1.9696969696969693,4.292929292929293 -1.9696969696969693,4.191919191919193 -1.9696969696969693,4.090909090909092 -1.9696969696969693,3.989898989898992 -2.07070707070707,3.8888888888888893 -2.1717171717171713,3.7878787878787885 -2.2727272727272725,3.6868686868686877 -2.3737373737373733,3.5858585858585874 -2.3737373737373733,3.4848484848484866 -2.3737373737373733,3.383838383838384 -2.3737373737373733,3.2828282828282833 -2.3737373737373733,3.181818181818183 -2.3737373737373733,3.080808080808082 -2.3737373737373733,2.9797979797979806 -2.3737373737373733,2.87878787878788 -2.3737373737373733,2.7777777777777786 -2.3737373737373733,2.676767676767678 -2.3737373737373733,2.575757575757577 -2.3737373737373733,2.4747474747474754 -2.3737373737373733,2.373737373737375 -2.3737373737373733,2.2727272727272734 -2.3737373737373733,2.1717171717171726 -2.3737373737373733,2.070707070707072 -2.3737373737373733,1.9696969696969702 -2.3737373737373733,1.8686868686868696 -2.3737373737373733,1.767676767676768 -2.3737373737373733,1.6666666666666674 -2.3737373737373733,1.5656565656565666 -2.3737373737373733,1.4646464646464652 -2.3737373737373733,1.3636363636363644 -2.3737373737373733,1.262626262626263 -2.3737373737373733,1.1616161616161622 -2.3737373737373733,1.0606060606060617 -2.3737373737373733,0.9595959595959602 -2.3737373737373733,0.8585858585858596 -2.3737373737373733,0.7575757575757579 -2.3737373737373733,0.6565656565656574 -2.3737373737373733,0.5555555555555567 -2.3737373737373733,0.4545454545454551 -2.3737373737373733,0.3535353535353544 -2.3737373737373733,0.2525252525252529 -2.3737373737373733,0.1515151515151522 -2.3737373737373733,0.050505050505051545 -2.3737373737373733,-0.05050505050505001 -2.3737373737373733,-0.15151515151515066 -2.3737373737373733,-0.2525252525252522 -2.3737373737373733,-0.35353535353535287 -2.3737373737373733,-0.4545454545454544 -2.3737373737373733,-0.555555555555555 -2.3737373737373733,-0.6565656565656557 -2.3737373737373733,-0.7575757575757572 -2.3737373737373733,-0.8585858585858579 -2.3737373737373733,-0.9595959595959596 -2.3737373737373733,-1.0606060606060603 -2.3737373737373733,-1.1616161616161613 -2.3737373737373733,-1.2626262626262625 -2.3737373737373733,-1.363636363636363 -2.3737373737373733,-1.4646464646464643 -2.3737373737373733,-1.5656565656565653 -2.3737373737373733,-1.6666666666666665 -2.3737373737373733,-1.7676767676767675 -2.3737373737373733,-1.8686868686868683 -2.3737373737373733,-1.9696969696969693 -2.3737373737373733,-2.07070707070707 -2.3737373737373733,-2.1717171717171713 -2.3737373737373733,-2.2727272727272725 -2.3737373737373733,-2.3737373737373733 -2.3737373737373733,-2.474747474747474 -2.3737373737373733,-2.5757575757575752 -2.3737373737373733,-2.6767676767676765 -2.3737373737373733,-2.7777777777777777 -2.3737373737373733,-2.8787878787878785 -2.3737373737373733,-2.9797979797979792 -2.3737373737373733,-3.0808080808080804 -2.3737373737373733,-3.1818181818181817 -2.3737373737373733,-3.2828282828282824 -2.3737373737373733,-3.383838383838383 -2.3737373737373733,-3.484848484848485 -2.3737373737373733,-3.5858585858585856 -2.3737373737373733,-3.6868686868686864 -2.3737373737373733,-3.7878787878787876 -2.3737373737373733,-3.8888888888888884 -2.3737373737373733,-3.98989898989899 -2.3737373737373733,-4.090909090909091 -2.3737373737373733,-4.191919191919193 -2.3737373737373733,-4.292929292929293 -2.3737373737373733,-4.393939393939394 -2.3737373737373733,-4.494949494949496 -2.3737373737373733,-4.595959595959596 -2.3737373737373733,-4.696969696969697 -2.3737373737373733,-4.7979797979797985 -2.3737373737373733,-4.898989898989899 -2.3737373737373733,-5.000000000000001" data-type="line" data-label="" points="392.80808080808083,40.000000000000114 383.2727272727273,49.53535353535369 373.7373737373738,59.07070707070733 364.2020202020202,68.60606060606085 354.6666666666667,78.14141414141432 345.13131313131316,87.67676767676778 335.59595959595964,97.21212121212153 326.0606060606061,106.747474747475 326.0606060606061,116.28282828282846 326.0606060606061,125.81818181818198 326.0606060606061,135.35353535353545 316.5252525252526,144.88888888888908 306.9898989898991,154.4242424242426 297.4545454545455,163.95959595959613 287.91919191919203,173.4949494949496 287.91919191919203,183.03030303030312 287.91919191919203,192.56565656565675 287.91919191919203,202.10101010101027 287.91919191919203,211.63636363636374 287.91919191919203,221.17171717171726 287.91919191919203,230.70707070707084 287.91919191919203,240.24242424242436 287.91919191919203,249.77777777777794 287.91919191919203,259.3131313131314 287.91919191919203,268.84848484848493 287.91919191919203,278.38383838383857 287.91919191919203,287.91919191919203 287.91919191919203,297.4545454545456 287.91919191919203,306.9898989898991 287.91919191919203,316.5252525252526 287.91919191919203,326.06060606060623 287.91919191919203,335.5959595959597 287.91919191919203,345.1313131313133 287.91919191919203,354.66666666666674 287.91919191919203,364.2020202020203 287.91919191919203,373.73737373737384 287.91919191919203,383.27272727272737 287.91919191919203,392.80808080808094 287.91919191919203,402.3434343434344 287.91919191919203,411.87878787878793 287.91919191919203,421.4141414141415 287.91919191919203,430.94949494949503 287.91919191919203,440.4848484848486 287.91919191919203,450.0202020202021 287.91919191919203,459.5555555555556 287.91919191919203,469.0909090909092 287.91919191919203,478.6262626262627 287.91919191919203,488.1616161616163 287.91919191919203,497.69696969696975 287.91919191919203,507.23232323232327 287.91919191919203,516.7676767676768 287.91919191919203,526.3030303030304 287.91919191919203,535.838383838384 287.91919191919203,545.3737373737374 287.91919191919203,554.909090909091 287.91919191919203,564.4444444444445 287.91919191919203,573.979797979798 287.91919191919203,583.5151515151516 287.91919191919203,593.0505050505051 287.91919191919203,602.5858585858587 287.91919191919203,612.1212121212121 287.91919191919203,621.6565656565657 287.91919191919203,631.1919191919193 287.91919191919203,640.7272727272727 287.91919191919203,650.2626262626263 287.91919191919203,659.7979797979798 287.91919191919203,669.3333333333334 287.91919191919203,678.8686868686868 287.91919191919203,688.4040404040404 287.91919191919203,697.939393939394 287.91919191919203,707.4747474747475 287.91919191919203,717.010101010101 287.91919191919203,726.5454545454545 287.91919191919203,736.0808080808081 287.91919191919203,745.6161616161615 287.91919191919203,755.1515151515151 287.91919191919203,764.6868686868687 287.91919191919203,774.2222222222222 287.91919191919203,783.7575757575758 287.91919191919203,793.2929292929292 287.91919191919203,802.8282828282828 287.91919191919203,812.3636363636363 287.91919191919203,821.8989898989898 287.91919191919203,831.4343434343434 287.91919191919203,840.969696969697 287.91919191919203,850.5050505050505 287.91919191919203,860.0404040404039 287.91919191919203,869.5757575757575 287.91919191919203,879.1111111111111 287.91919191919203,888.6464646464647 287.91919191919203,898.1818181818181 287.91919191919203,907.7171717171718 287.91919191919203,917.2525252525252 287.91919191919203,926.7878787878788 287.91919191919203,936.3232323232323 287.91919191919203,945.8585858585858 287.91919191919203,955.3939393939394 287.91919191919203,964.9292929292928 287.91919191919203,974.4646464646464 287.91919191919203,984" fill="none" stroke="rgba(255,0,0,0.75)" stroke-width="11.327999999999996"/></g><g><rect data-type="rect" data-label="" data-x="0" data-y="0" x="40.000000000000114" y="40.000000000000284" width="943.9999999999997" height="943.9999999999998" fill="none" stroke="gray" stroke-width="0.010593220338983056"/></g><g><rect data-type="rect" data-label="" data-x="0" data-y="0" x="40.000000000000114" y="40.000000000000284" width="943.9999999999997" height="943.9999999999998" fill="none" stroke="rgba(15, 23, 42, 0.8)" stroke-width="0.010593220338983056"/></g><circle data-type="circle" data-label="" data-x="-3.98989898989899" data-y="0.050505050505051545" cx="135.35353535353545" cy="507.23232323232327" r="14.159999999999995" fill="rgba(0,0,0,0.3)" stroke="black" stroke-width="0.010593220338983056"/><circle data-type="circle" data-label="" data-x="3.989898989898992" data-y="-3.8888888888888884" cx="888.6464646464647" cy="879.1111111111111" r="14.159999999999995" fill="rgba(0,0,0,0.3)" stroke="black" stroke-width="0.010593220338983056"/><circle data-type="circle" data-label="" data-x="0.8585858585858596" data-y="-3.98989898989899" cx="593.0505050505051" cy="888.6464646464647" r="14.159999999999995" fill="rgba(0,0,0,0.3)" stroke="black" stroke-width="0.010593220338983056"/><circle data-type="circle" data-label="" data-x="-2.2727272727272725" data-y="3.989898989898992" cx="297.4545454545455" cy="135.35353535353545" r="14.159999999999995" fill="rgba(0,0,0,0.3)" stroke="black" stroke-width="0.010593220338983056"/><g id="crosshair" style="display: none"><line id="crosshair-h" y1="0" y2="1024" stroke="#666" stroke-width="0.5"/><line id="crosshair-v" x1="0" x2="1024" stroke="#666" stroke-width="0.5"/><text id="coordinates" font-family="monospace" font-size="12" fill="#666"></text></g><script><![CDATA[
              document.currentScript.parentElement.addEventListener('mousemove', (e) => {
                const svg = e.currentTarget;
                const rect = svg.getBoundingClientRect();
                const x = e.clientX - rect.left;
                const y = e.clientY - rect.top;
                const crosshair = svg.getElementById('crosshair');
                const h = svg.getElementById('crosshair-h');
                const v = svg.getElementById('crosshair-v');
                const coords = svg.getElementById('coordinates');
                
                crosshair.style.display = 'block';
                h.setAttribute('x1', '0');
                h.setAttribute('x2', '1024');
                h.setAttribute('y1', y);
                h.setAttribute('y2', y);
                v.setAttribute('x1', x);
                v.setAttribute('x2', x);
                v.setAttribute('y1', '0');
                v.setAttribute('y2', '1024');

                // Calculate real coordinates using inverse transformation
                const matrix = {"a":94.39999999999996,"c":0,"e":511.99999999999994,"b":0,"d":-94.39999999999996,"f":512.0000000000001};
                // Manually invert and apply the affine transform
                // Since we only use translate and scale, we can directly compute:
                // x' = (x - tx) / sx
                // y' = (y - ty) / sy
                const sx = matrix.a;
                const sy = matrix.d;
                const tx = matrix.e; 
                const ty = matrix.f;
                const realPoint = {
                  x: (x - tx) / sx,
                  y: (y - ty) / sy // Flip y back since we used negative scale
                }
                
                coords.textContent = `(${realPoint.x.toFixed(2)}, ${realPoint.y.toFixed(2)})`;
                coords.setAttribute('x', (x + 5).toString());
                coords.setAttribute('y', (y - 5).toString());
              });
              document.currentScript.parentElement.addEventListener('mouseleave', () => {
                document.currentScript.parentElement.getElementById('crosshair').style.display = 'none';
              });
            ]]></script></svg>