<svg width="1024" height="1024" viewBox="0 0 1024 1024" xmlns="http://www.w3.org/2000/svg"><rect width="100%" height="100%" fill="white"/><g><circle data-type="point" data-label="conn_000" data-x="5" data-y="4.12" cx="983.9999999999998" cy="123.07200000000006" r="14.16" fill="red"/></g><g><circle data-type="point" data-label="conn_000" data-x="-5" data-y="1.68" cx="40.000000000000114" cy="353.408" r="14.16" fill="blue"/></g><g><circle data-type="point" data-label="conn_001" data-x="-5" data-y="0.68" cx="40.000000000000114" cy="447.808" r="14.16" fill="blue"/></g><g><circle data-type="point" data-label="conn_001" data-x="5" data-y="-3.6" cx="983.9999999999998" cy="851.8399999999998" r="14.16" fill="red"/></g><g><circle data-type="point" data-label="conn_002" data-x="-5" data-y="2.94" cx="40.000000000000114" cy="234.46400000000006" r="14.16" fill="blue"/></g><g><circle data-type="point" data-label="conn_002" data-x="5" data-y="1.98" cx="983.9999999999998" cy="325.088" r="14.16" fill="red"/></g><g><circle data-type="point" data-label="conn_003" data-x="4.36" data-y="-5" cx="923.5839999999998" cy="983.9999999999998" r="14.16" fill="blue"/></g><g><circle data-type="point" data-label="conn_003" data-x="5" data-y="0.96" cx="983.9999999999998" cy="421.376" r="14.16" fill="blue"/></g><g><polyline data-points="5.000000000000002,4.191919191919193 4.898989898989901,4.090909090909092 4.7979797979797985,3.989898989898992 4.696969696969697,3.8888888888888893 4.595959595959597,3.7878787878787885 4.494949494949497,3.6868686868686877 4.393939393939394,3.5858585858585874 4.292929292929293,3.4848484848484866 4.191919191919193,3.383838383838384 4.090909090909092,3.2828282828282833 3.989898989898992,3.181818181818183 3.8888888888888893,3.080808080808082 3.7878787878787885,2.9797979797979806 3.6868686868686877,2.87878787878788 3.5858585858585874,2.7777777777777786 3.4848484848484866,2.676767676767678 3.383838383838384,2.575757575757577 3.2828282828282833,2.4747474747474754 3.181818181818183,2.373737373737375 3.080808080808082,2.2727272727272734 2.9797979797979806,2.1717171717171726 2.87878787878788,2.070707070707072 2.7777777777777786,1.9696969696969702 2.676767676767678,1.8686868686868696 2.575757575757577,1.767676767676768 2.4747474747474754,1.6666666666666674 2.373737373737375,1.6666666666666674 2.2727272727272734,1.6666666666666674 2.1717171717171726,1.6666666666666674 2.070707070707072,1.6666666666666674 1.9696969696969702,1.6666666666666674 1.8686868686868696,1.6666666666666674 1.767676767676768,1.6666666666666674 1.6666666666666674,1.6666666666666674 1.5656565656565666,1.6666666666666674 1.4646464646464652,1.6666666666666674 1.3636363636363644,1.6666666666666674 1.262626262626263,1.6666666666666674 1.1616161616161622,1.6666666666666674 1.0606060606060617,1.6666666666666674 0.9595959595959602,1.6666666666666674 0.8585858585858596,1.6666666666666674 0.7575757575757579,1.6666666666666674 0.6565656565656574,1.6666666666666674 0.5555555555555567,1.6666666666666674 0.4545454545454551,1.6666666666666674 0.3535353535353544,1.6666666666666674 0.2525252525252529,1.6666666666666674 0.1515151515151522,1.6666666666666674 0.050505050505051545,1.6666666666666674 -0.05050505050505001,1.6666666666666674 -0.15151515151515066,1.6666666666666674 -0.2525252525252522,1.6666666666666674 -0.35353535353535287,1.6666666666666674 -0.4545454545454544,1.6666666666666674 -0.555555555555555,1.6666666666666674 -0.6565656565656557,1.6666666666666674 -0.7575757575757572,1.6666666666666674 -0.8585858585858579,1.6666666666666674 -0.9595959595959596,1.6666666666666674 -1.0606060606060603,1.6666666666666674 -1.1616161616161613,1.6666666666666674 -1.2626262626262625,1.6666666666666674 -1.363636363636363,1.6666666666666674 -1.4646464646464643,1.6666666666666674 -1.5656565656565653,1.6666666666666674 -1.6666666666666665,1.6666666666666674 -1.7676767676767675,1.6666666666666674 -1.8686868686868683,1.6666666666666674 -1.9696969696969693,1.6666666666666674 -2.07070707070707,1.6666666666666674 -2.1717171717171713,1.6666666666666674 -2.2727272727272725,1.6666666666666674 -2.3737373737373733,1.6666666666666674 -2.474747474747474,1.6666666666666674 -2.5757575757575752,1.6666666666666674 -2.6767676767676765,1.6666666666666674 -2.7777777777777777,1.6666666666666674 -2.8787878787878785,1.6666666666666674 -2.9797979797979792,1.6666666666666674 -3.0808080808080804,1.6666666666666674 -3.1818181818181817,1.6666666666666674 -3.2828282828282824,1.6666666666666674 -3.383838383838383,1.6666666666666674 -3.484848484848485,1.6666666666666674 -3.5858585858585856,1.6666666666666674 -3.6868686868686864,1.6666666666666674 -3.7878787878787876,1.6666666666666674 -3.8888888888888884,1.6666666666666674 -3.98989898989899,1.6666666666666674" data-type="line" data-label="" points="984,116.28282828282829 974.4646464646464,125.81818181818181 964.9292929292927,135.35353535353528 955.3939393939393,144.8888888888889 945.8585858585857,154.42424242424244 936.3232323232323,163.95959595959596 926.7878787878785,173.49494949494942 917.2525252525251,183.03030303030295 907.7171717171716,192.56565656565658 898.181818181818,202.1010101010101 888.6464646464647,211.63636363636357 879.111111111111,221.1717171717171 869.5757575757575,230.70707070707067 860.0404040404039,240.2424242424242 850.5050505050505,249.77777777777777 840.969696969697,259.3131313131313 831.4343434343433,268.84848484848476 821.8989898989898,278.38383838383834 812.3636363636363,287.9191919191918 802.8282828282828,297.4545454545454 793.2929292929292,306.98989898989896 783.7575757575758,316.5252525252524 774.2222222222222,326.060606060606 764.6868686868686,335.5959595959595 755.1515151515151,345.1313131313131 745.6161616161615,354.66666666666663 736.0808080808081,354.66666666666663 726.5454545454545,354.66666666666663 717.0101010101009,354.66666666666663 707.4747474747475,354.66666666666663 697.9393939393939,354.66666666666663 688.4040404040404,354.66666666666663 678.8686868686868,354.66666666666663 669.3333333333333,354.66666666666663 659.7979797979798,354.66666666666663 650.2626262626262,354.66666666666663 640.7272727272727,354.66666666666663 631.1919191919192,354.66666666666663 621.6565656565656,354.66666666666663 612.1212121212121,354.66666666666663 602.5858585858585,354.66666666666663 593.0505050505051,354.66666666666663 583.5151515151515,354.66666666666663 573.9797979797979,354.66666666666663 564.4444444444445,354.66666666666663 554.9090909090909,354.66666666666663 545.3737373737374,354.66666666666663 535.8383838383838,354.66666666666663 526.3030303030303,354.66666666666663 516.7676767676768,354.66666666666663 507.2323232323232,354.66666666666663 497.69696969696975,354.66666666666663 488.16161616161617,354.66666666666663 478.62626262626264,354.66666666666663 469.09090909090907,354.66666666666663 459.55555555555554,354.66666666666663 450.0202020202021,354.66666666666663 440.4848484848485,354.66666666666663 430.949494949495,354.66666666666663 421.4141414141414,354.66666666666663 411.8787878787879,354.66666666666663 402.34343434343435,354.66666666666663 392.80808080808083,354.66666666666663 383.2727272727273,354.66666666666663 373.7373737373738,354.66666666666663 364.2020202020202,354.66666666666663 354.6666666666667,354.66666666666663 345.13131313131316,354.66666666666663 335.59595959595964,354.66666666666663 326.0606060606061,354.66666666666663 316.5252525252526,354.66666666666663 306.9898989898991,354.66666666666663 297.4545454545455,354.66666666666663 287.91919191919203,354.66666666666663 278.38383838383845,354.66666666666663 268.84848484848493,354.66666666666663 259.3131313131314,354.66666666666663 249.77777777777783,354.66666666666663 240.2424242424243,354.66666666666663 230.70707070707084,354.66666666666663 221.17171717171726,354.66666666666663 211.63636363636374,354.66666666666663 202.10101010101022,354.66666666666663 192.5656565656567,354.66666666666663 183.03030303030312,354.66666666666663 173.4949494949496,354.66666666666663 163.95959595959607,354.66666666666663 154.42424242424255,354.66666666666663 144.88888888888903,354.66666666666663 135.35353535353545,354.66666666666663" fill="none" stroke="rgba(255,0,0,0.75)" stroke-width="11.327999999999996"/></g><g><polyline data-points="-3.98989898989899,1.6666666666666674 -4.090909090909091,1.6666666666666674 -4.191919191919193,1.6666666666666674 -4.292929292929293,1.6666666666666674 -4.393939393939394,1.6666666666666674 -4.494949494949496,1.6666666666666674 -4.595959595959596,1.6666666666666674 -4.696969696969697,1.6666666666666674 -4.7979797979797985,1.6666666666666674 -4.898989898989899,1.6666666666666674 -5.000000000000001,1.6666666666666674" data-type="line" data-label="" points="135.35353535353545,354.66666666666663 125.81818181818193,354.66666666666663 116.28282828282829,354.66666666666663 106.74747474747483,354.66666666666663 97.21212121212136,354.66666666666663 87.67676767676772,354.66666666666663 78.14141414141426,354.66666666666663 68.60606060606068,354.66666666666663 59.07070707070716,354.66666666666663 49.53535353535369,354.66666666666663 40.00000000000006,354.66666666666663" fill="none" stroke="rgba(0,0,255,0.75)" stroke-width="11.327999999999996"/></g><g><polyline data-points="-5.000000000000001,2.9797979797979806 -4.898989898989899,2.87878787878788 -4.7979797979797985,2.7777777777777786 -4.696969696969697,2.676767676767678 -4.595959595959596,2.575757575757577 -4.494949494949496,2.4747474747474754 -4.393939393939394,2.373737373737375 -4.292929292929293,2.2727272727272734 -4.191919191919193,2.1717171717171726 -4.090909090909091,2.070707070707072 -3.98989898989899,1.9696969696969702 -3.8888888888888884,1.9696969696969702 -3.7878787878787876,1.9696969696969702 -3.6868686868686864,1.9696969696969702 -3.5858585858585856,1.9696969696969702 -3.484848484848485,1.9696969696969702 -3.383838383838383,1.9696969696969702 -3.2828282828282824,1.9696969696969702 -3.1818181818181817,1.9696969696969702 -3.0808080808080804,1.9696969696969702 -2.9797979797979792,1.9696969696969702 -2.8787878787878785,1.9696969696969702 -2.7777777777777777,1.9696969696969702 -2.6767676767676765,1.9696969696969702 -2.5757575757575752,1.9696969696969702 -2.474747474747474,1.9696969696969702 -2.3737373737373733,1.9696969696969702 -2.2727272727272725,1.9696969696969702 -2.1717171717171713,1.9696969696969702 -2.07070707070707,1.9696969696969702 -1.9696969696969693,1.9696969696969702 -1.8686868686868683,1.9696969696969702 -1.7676767676767675,1.9696969696969702 -1.6666666666666665,1.9696969696969702 -1.5656565656565653,1.9696969696969702 -1.4646464646464643,1.9696969696969702 -1.363636363636363,1.9696969696969702 -1.2626262626262625,1.9696969696969702 -1.1616161616161613,1.9696969696969702 -1.0606060606060603,1.9696969696969702 -0.9595959595959596,1.9696969696969702 -0.8585858585858579,1.9696969696969702 -0.7575757575757572,1.9696969696969702 -0.6565656565656557,1.9696969696969702 -0.555555555555555,1.9696969696969702 -0.4545454545454544,1.9696969696969702 -0.35353535353535287,1.9696969696969702 -0.2525252525252522,1.9696969696969702 -0.15151515151515066,1.9696969696969702 -0.05050505050505001,1.9696969696969702 0.050505050505051545,1.9696969696969702 0.1515151515151522,1.9696969696969702 0.2525252525252529,1.9696969696969702 0.3535353535353544,1.9696969696969702 0.4545454545454551,1.9696969696969702 0.5555555555555567,1.9696969696969702 0.6565656565656574,1.9696969696969702 0.7575757575757579,1.9696969696969702 0.8585858585858596,1.9696969696969702 0.9595959595959602,1.9696969696969702 1.0606060606060617,1.9696969696969702 1.1616161616161622,1.9696969696969702 1.262626262626263,1.9696969696969702 1.3636363636363644,1.9696969696969702 1.4646464646464652,1.9696969696969702 1.5656565656565666,1.9696969696969702 1.6666666666666674,1.9696969696969702 1.767676767676768,1.9696969696969702 1.8686868686868696,1.9696969696969702 1.9696969696969702,1.9696969696969702 2.070707070707072,1.9696969696969702 2.1717171717171726,1.9696969696969702 2.2727272727272734,1.9696969696969702 2.373737373737375,1.9696969696969702 2.4747474747474754,1.9696969696969702 2.575757575757577,1.9696969696969702 2.676767676767678,1.9696969696969702 2.7777777777777786,1.9696969696969702 2.87878787878788,1.9696969696969702 2.9797979797979806,1.9696969696969702 3.080808080808082,1.9696969696969702 3.181818181818183,1.9696969696969702 3.2828282828282833,1.9696969696969702 3.383838383838384,1.9696969696969702 3.4848484848484866,1.9696969696969702 3.5858585858585874,1.9696969696969702 3.6868686868686877,1.9696969696969702 3.7878787878787885,1.9696969696969702 3.8888888888888893,1.9696969696969702 3.989898989898992,1.9696969696969702" data-type="line" data-label="" points="40.00000000000006,230.70707070707067 49.53535353535369,240.2424242424242 59.07070707070716,249.77777777777777 68.60606060606068,259.3131313131313 78.14141414141426,268.84848484848476 87.67676767676772,278.38383838383834 97.21212121212136,287.9191919191918 106.74747474747483,297.4545454545454 116.28282828282829,306.98989898989896 125.81818181818193,316.5252525252524 135.35353535353545,326.060606060606 144.88888888888903,326.060606060606 154.42424242424255,326.060606060606 163.95959595959607,326.060606060606 173.4949494949496,326.060606060606 183.03030303030312,326.060606060606 192.5656565656567,326.060606060606 202.10101010101022,326.060606060606 211.63636363636374,326.060606060606 221.17171717171726,326.060606060606 230.70707070707084,326.060606060606 240.2424242424243,326.060606060606 249.77777777777783,326.060606060606 259.3131313131314,326.060606060606 268.84848484848493,326.060606060606 278.38383838383845,326.060606060606 287.91919191919203,326.060606060606 297.4545454545455,326.060606060606 306.9898989898991,326.060606060606 316.5252525252526,326.060606060606 326.0606060606061,326.060606060606 335.59595959595964,326.060606060606 345.13131313131316,326.060606060606 354.6666666666667,326.060606060606 364.2020202020202,326.060606060606 373.7373737373738,326.060606060606 383.2727272727273,326.060606060606 392.80808080808083,326.060606060606 402.34343434343435,326.060606060606 411.8787878787879,326.060606060606 421.4141414141414,326.060606060606 430.949494949495,326.060606060606 440.4848484848485,326.060606060606 450.0202020202021,326.060606060606 459.55555555555554,326.060606060606 469.09090909090907,326.060606060606 478.62626262626264,326.060606060606 488.16161616161617,326.060606060606 497.69696969696975,326.060606060606 507.2323232323232,326.060606060606 516.7676767676768,326.060606060606 526.3030303030303,326.060606060606 535.8383838383838,326.060606060606 545.3737373737374,326.060606060606 554.9090909090909,326.060606060606 564.4444444444445,326.060606060606 573.9797979797979,326.060606060606 583.5151515151515,326.060606060606 593.0505050505051,326.060606060606 602.5858585858585,326.060606060606 612.1212121212121,326.060606060606 621.6565656565656,326.060606060606 631.1919191919192,326.060606060606 640.7272727272727,326.060606060606 650.2626262626262,326.060606060606 659.7979797979798,326.060606060606 669.3333333333333,326.060606060606 678.8686868686868,326.060606060606 688.4040404040404,326.060606060606 697.9393939393939,326.060606060606 707.4747474747475,326.060606060606 717.0101010101009,326.060606060606 726.5454545454545,326.060606060606 736.0808080808081,326.060606060606 745.6161616161615,326.060606060606 755.1515151515151,326.060606060606 764.6868686868686,326.060606060606 774.2222222222222,326.060606060606 783.7575757575758,326.060606060606 793.2929292929292,326.060606060606 802.8282828282828,326.060606060606 812.3636363636363,326.060606060606 821.8989898989898,326.060606060606 831.4343434343433,326.060606060606 840.969696969697,326.060606060606 850.5050505050505,326.060606060606 860.0404040404039,326.060606060606 869.5757575757575,326.060606060606 879.111111111111,326.060606060606 888.6464646464647,326.060606060606" fill="none" stroke="rgba(0,0,255,0.75)" stroke-width="11.327999999999996"/></g><g><polyline data-points="3.989898989898992,1.9696969696969702 4.090909090909092,1.9696969696969702 4.191919191919193,1.9696969696969702 4.292929292929293,1.9696969696969702 4.393939393939394,1.9696969696969702 4.494949494949497,1.9696969696969702 4.595959595959597,1.9696969696969702 4.696969696969697,1.9696969696969702 4.7979797979797985,1.9696969696969702 4.898989898989901,1.9696969696969702 5.000000000000002,1.9696969696969702" data-type="line" data-label="" points="888.6464646464647,326.060606060606 898.181818181818,326.060606060606 907.7171717171716,326.060606060606 917.2525252525251,326.060606060606 926.7878787878785,326.060606060606 936.3232323232323,326.060606060606 945.8585858585857,326.060606060606 955.3939393939393,326.060606060606 964.9292929292927,326.060606060606 974.4646464646464,326.060606060606 984,326.060606060606" fill="none" stroke="rgba(255,0,0,0.75)" stroke-width="11.327999999999996"/></g><g><polyline data-points="-5.000000000000001,0.6565656565656574 -4.898989898989899,0.5555555555555567 -4.7979797979797985,0.4545454545454551 -4.696969696969697,0.3535353535353544 -4.595959595959596,0.2525252525252529 -4.494949494949496,0.1515151515151522 -4.393939393939394,0.050505050505051545 -4.292929292929293,-0.05050505050505001 -4.191919191919193,-0.15151515151515066 -4.090909090909091,-0.2525252525252522 -3.98989898989899,-0.35353535353535287 -3.8888888888888884,-0.4545454545454544 -3.7878787878787876,-0.555555555555555 -3.6868686868686864,-0.6565656565656557 -3.5858585858585856,-0.7575757575757572 -3.484848484848485,-0.8585858585858579 -3.383838383838383,-0.9595959595959596 -3.2828282828282824,-1.0606060606060603 -3.1818181818181817,-1.1616161616161613 -3.0808080808080804,-1.2626262626262625 -2.9797979797979792,-1.363636363636363 -2.8787878787878785,-1.4646464646464643 -2.7777777777777777,-1.5656565656565653 -2.6767676767676765,-1.6666666666666665 -2.5757575757575752,-1.7676767676767675 -2.474747474747474,-1.8686868686868683 -2.3737373737373733,-1.9696969696969693 -2.2727272727272725,-2.07070707070707 -2.1717171717171713,-2.1717171717171713 -2.07070707070707,-2.2727272727272725 -1.9696969696969693,-2.3737373737373733 -1.8686868686868683,-2.474747474747474 -1.7676767676767675,-2.5757575757575752 -1.6666666666666665,-2.6767676767676765 -1.5656565656565653,-2.7777777777777777 -1.4646464646464643,-2.8787878787878785 -1.363636363636363,-2.9797979797979792 -1.2626262626262625,-3.0808080808080804 -1.1616161616161613,-3.1818181818181817 -1.0606060606060603,-3.2828282828282824 -0.9595959595959596,-3.383838383838383 -0.8585858585858579,-3.484848484848485 -0.7575757575757572,-3.5858585858585856 -0.6565656565656557,-3.6868686868686864 -0.555555555555555,-3.6868686868686864 -0.4545454545454544,-3.6868686868686864 -0.35353535353535287,-3.6868686868686864 -0.2525252525252522,-3.6868686868686864 -0.15151515151515066,-3.6868686868686864 -0.05050505050505001,-3.6868686868686864 0.050505050505051545,-3.6868686868686864 0.1515151515151522,-3.6868686868686864 0.2525252525252529,-3.6868686868686864 0.3535353535353544,-3.6868686868686864 0.4545454545454551,-3.6868686868686864 0.5555555555555567,-3.6868686868686864 0.6565656565656574,-3.6868686868686864 0.7575757575757579,-3.6868686868686864 0.8585858585858596,-3.6868686868686864 0.9595959595959602,-3.6868686868686864 1.0606060606060617,-3.6868686868686864 1.1616161616161622,-3.6868686868686864 1.262626262626263,-3.6868686868686864 1.3636363636363644,-3.6868686868686864 1.4646464646464652,-3.6868686868686864 1.5656565656565666,-3.6868686868686864 1.6666666666666674,-3.6868686868686864 1.767676767676768,-3.6868686868686864 1.8686868686868696,-3.6868686868686864 1.9696969696969702,-3.6868686868686864 2.070707070707072,-3.6868686868686864 2.1717171717171726,-3.6868686868686864 2.2727272727272734,-3.6868686868686864 2.373737373737375,-3.6868686868686864 2.4747474747474754,-3.6868686868686864 2.575757575757577,-3.6868686868686864 2.676767676767678,-3.6868686868686864 2.7777777777777786,-3.6868686868686864 2.87878787878788,-3.6868686868686864 2.9797979797979806,-3.6868686868686864 3.080808080808082,-3.6868686868686864 3.181818181818183,-3.6868686868686864 3.2828282828282833,-3.6868686868686864 3.383838383838384,-3.6868686868686864 3.4848484848484866,-3.6868686868686864 3.5858585858585874,-3.6868686868686864 3.6868686868686877,-3.6868686868686864 3.7878787878787885,-3.6868686868686864 3.8888888888888893,-3.6868686868686864 3.989898989898992,-3.6868686868686864" data-type="line" data-label="" points="40.00000000000006,450.0202020202019 49.53535353535369,459.55555555555543 59.07070707070716,469.090909090909 68.60606060606068,478.6262626262625 78.14141414141426,488.16161616161605 87.67676767676772,497.6969696969696 97.21212121212136,507.2323232323231 106.74747474747483,516.7676767676767 116.28282828282829,526.3030303030301 125.81818181818193,535.8383838383837 135.35353535353545,545.3737373737372 144.88888888888903,554.9090909090908 154.42424242424255,564.4444444444443 163.95959595959607,573.9797979797978 173.4949494949496,583.5151515151514 183.03030303030312,593.0505050505049 192.5656565656567,602.5858585858584 202.10101010101022,612.121212121212 211.63636363636374,621.6565656565656 221.17171717171726,631.191919191919 230.70707070707084,640.7272727272725 240.2424242424243,650.2626262626261 249.77777777777783,659.7979797979797 259.3131313131314,669.3333333333333 268.84848484848493,678.8686868686867 278.38383838383845,688.4040404040402 287.91919191919203,697.9393939393938 297.4545454545455,707.4747474747473 306.9898989898991,717.0101010101008 316.5252525252526,726.5454545454544 326.0606060606061,736.0808080808079 335.59595959595964,745.6161616161614 345.13131313131316,755.151515151515 354.6666666666667,764.6868686868685 364.2020202020202,774.2222222222221 373.7373737373738,783.7575757575755 383.2727272727273,793.2929292929291 392.80808080808083,802.8282828282827 402.34343434343435,812.3636363636361 411.8787878787879,821.8989898989896 421.4141414141414,831.4343434343432 430.949494949495,840.9696969696968 440.4848484848485,850.5050505050503 450.0202020202021,860.0404040404038 459.55555555555554,860.0404040404038 469.09090909090907,860.0404040404038 478.62626262626264,860.0404040404038 488.16161616161617,860.0404040404038 497.69696969696975,860.0404040404038 507.2323232323232,860.0404040404038 516.7676767676768,860.0404040404038 526.3030303030303,860.0404040404038 535.8383838383838,860.0404040404038 545.3737373737374,860.0404040404038 554.9090909090909,860.0404040404038 564.4444444444445,860.0404040404038 573.9797979797979,860.0404040404038 583.5151515151515,860.0404040404038 593.0505050505051,860.0404040404038 602.5858585858585,860.0404040404038 612.1212121212121,860.0404040404038 621.6565656565656,860.0404040404038 631.1919191919192,860.0404040404038 640.7272727272727,860.0404040404038 650.2626262626262,860.0404040404038 659.7979797979798,860.0404040404038 669.3333333333333,860.0404040404038 678.8686868686868,860.0404040404038 688.4040404040404,860.0404040404038 697.9393939393939,860.0404040404038 707.4747474747475,860.0404040404038 717.0101010101009,860.0404040404038 726.5454545454545,860.0404040404038 736.0808080808081,860.0404040404038 745.6161616161615,860.0404040404038 755.1515151515151,860.0404040404038 764.6868686868686,860.0404040404038 774.2222222222222,860.0404040404038 783.7575757575758,860.0404040404038 793.2929292929292,860.0404040404038 802.8282828282828,860.0404040404038 812.3636363636363,860.0404040404038 821.8989898989898,860.0404040404038 831.4343434343433,860.0404040404038 840.969696969697,860.0404040404038 850.5050505050505,860.0404040404038 860.0404040404039,860.0404040404038 869.5757575757575,860.0404040404038 879.111111111111,860.0404040404038 888.6464646464647,860.0404040404038" fill="none" stroke="rgba(0,0,255,0.75)" stroke-width="11.327999999999996"/></g><g><polyline data-points="3.989898989898992,-3.6868686868686864 4.090909090909092,-3.6868686868686864 4.191919191919193,-3.6868686868686864 4.292929292929293,-3.6868686868686864 4.393939393939394,-3.6868686868686864 4.494949494949497,-3.6868686868686864 4.595959595959597,-3.6868686868686864 4.696969696969697,-3.6868686868686864 4.7979797979797985,-3.6868686868686864 4.898989898989901,-3.6868686868686864 5.000000000000002,-3.6868686868686864" data-type="line" data-label="" points="888.6464646464647,860.0404040404038 898.181818181818,860.0404040404038 907.7171717171716,860.0404040404038 917.2525252525251,860.0404040404038 926.7878787878785,860.0404040404038 936.3232323232323,860.0404040404038 945.8585858585857,860.0404040404038 955.3939393939393,860.0404040404038 964.9292929292927,860.0404040404038 974.4646464646464,860.0404040404038 984,860.0404040404038" fill="none" stroke="rgba(255,0,0,0.75)" stroke-width="11.327999999999996"/></g><g><polyline data-points="4.393939393939394,-5.000000000000001 4.494949494949497,-4.898989898989899 4.595959595959597,-4.7979797979797985 4.696969696969697,-4.696969696969697 4.7979797979797985,-4.595959595959596 4.898989898989901,-4.494949494949496 5.000000000000002,-4.393939393939394 5.000000000000002,-4.292929292929293 5.000000000000002,-4.191919191919193 5.000000000000002,-4.090909090909091 5.000000000000002,-3.98989898989899 5.000000000000002,-3.8888888888888884 5.000000000000002,-3.7878787878787876 5.000000000000002,-3.6868686868686864 5.000000000000002,-3.5858585858585856 5.000000000000002,-3.484848484848485 5.000000000000002,-3.383838383838383 5.000000000000002,-3.2828282828282824 5.000000000000002,-3.1818181818181817 5.000000000000002,-3.0808080808080804 5.000000000000002,-2.9797979797979792 5.000000000000002,-2.8787878787878785 5.000000000000002,-2.7777777777777777 5.000000000000002,-2.6767676767676765 5.000000000000002,-2.5757575757575752 5.000000000000002,-2.474747474747474 5.000000000000002,-2.3737373737373733 5.000000000000002,-2.2727272727272725 5.000000000000002,-2.1717171717171713 5.000000000000002,-2.07070707070707 5.000000000000002,-1.9696969696969693 5.000000000000002,-1.8686868686868683 5.000000000000002,-1.7676767676767675 5.000000000000002,-1.6666666666666665 5.000000000000002,-1.5656565656565653 5.000000000000002,-1.4646464646464643 5.000000000000002,-1.363636363636363 5.000000000000002,-1.2626262626262625 5.000000000000002,-1.1616161616161613 5.000000000000002,-1.0606060606060603 5.000000000000002,-0.9595959595959596 5.000000000000002,-0.8585858585858579 5.000000000000002,-0.7575757575757572 5.000000000000002,-0.6565656565656557 5.000000000000002,-0.555555555555555 5.000000000000002,-0.4545454545454544 5.000000000000002,-0.35353535353535287 5.000000000000002,-0.2525252525252522 5.000000000000002,-0.15151515151515066 5.000000000000002,-0.05050505050505001 5.000000000000002,0.050505050505051545 5.000000000000002,0.1515151515151522 5.000000000000002,0.2525252525252529 5.000000000000002,0.3535353535353544 5.000000000000002,0.4545454545454551 5.000000000000002,0.5555555555555567 5.000000000000002,0.6565656565656574 5.000000000000002,0.7575757575757579 5.000000000000002,0.8585858585858596 5.000000000000002,0.9595959595959602" data-type="line" data-label="" points="926.7878787878785,983.9999999999998 936.3232323232323,974.4646464646462 945.8585858585857,964.9292929292927 955.3939393939393,955.3939393939393 964.9292929292927,945.8585858585857 974.4646464646464,936.3232323232321 984,926.7878787878785 984,917.2525252525251 984,907.7171717171716 984,898.181818181818 984,888.6464646464644 984,879.1111111111109 984,869.5757575757573 984,860.0404040404038 984,850.5050505050503 984,840.9696969696968 984,831.4343434343432 984,821.8989898989896 984,812.3636363636361 984,802.8282828282827 984,793.2929292929291 984,783.7575757575755 984,774.2222222222221 984,764.6868686868685 984,755.151515151515 984,745.6161616161614 984,736.0808080808079 984,726.5454545454544 984,717.0101010101008 984,707.4747474747473 984,697.9393939393938 984,688.4040404040402 984,678.8686868686867 984,669.3333333333333 984,659.7979797979797 984,650.2626262626261 984,640.7272727272725 984,631.191919191919 984,621.6565656565656 984,612.121212121212 984,602.5858585858584 984,593.0505050505049 984,583.5151515151514 984,573.9797979797978 984,564.4444444444443 984,554.9090909090908 984,545.3737373737372 984,535.8383838383837 984,526.3030303030301 984,516.7676767676767 984,507.2323232323231 984,497.6969696969696 984,488.16161616161605 984,478.6262626262625 984,469.090909090909 984,459.55555555555543 984,450.0202020202019 984,440.48484848484844 984,430.9494949494948 984,421.41414141414134" fill="none" stroke="rgba(0,0,255,0.75)" stroke-width="11.327999999999996"/></g><g><rect data-type="rect" data-label="" data-x="0" data-y="0" x="40.000000000000114" y="40.000000000000114" width="943.9999999999997" height="943.9999999999997" fill="none" stroke="gray" stroke-width="0.010593220338983056"/></g><g><rect data-type="rect" data-label="" data-x="0" data-y="0" x="40.000000000000114" y="40.000000000000114" width="943.9999999999997" height="943.9999999999997" fill="none" stroke="rgba(15, 23, 42, 0.8)" stroke-width="0.010593220338983056"/></g><circle data-type="circle" data-label="" data-x="-3.98989898989899" data-y="1.6666666666666674" cx="135.35353535353545" cy="354.66666666666663" r="14.159999999999995" fill="rgba(0,0,0,0.3)" stroke="black" stroke-width="0.010593220338983056"/><circle data-type="circle" data-label="" data-x="3.989898989898992" data-y="1.9696969696969702" cx="888.6464646464647" cy="326.060606060606" r="14.159999999999995" fill="rgba(0,0,0,0.3)" stroke="black" stroke-width="0.010593220338983056"/><circle data-type="circle" data-label="" data-x="3.989898989898992" data-y="-3.6868686868686864" cx="888.6464646464647" cy="860.0404040404038" r="14.159999999999995" fill="rgba(0,0,0,0.3)" stroke="black" stroke-width="0.010593220338983056"/><g id="crosshair" style="display: none"><line id="crosshair-h" y1="0" y2="1024" stroke="#666" stroke-width="0.5"/><line id="crosshair-v" x1="0" x2="1024" stroke="#666" stroke-width="0.5"/><text id="coordinates" font-family="monospace" font-size="12" fill="#666"></text></g><script><![CDATA[
              document.currentScript.parentElement.addEventListener('mousemove', (e) => {
                const svg = e.currentTarget;
                const rect = svg.getBoundingClientRect();
                const x = e.clientX - rect.left;
                const y = e.clientY - rect.top;
                const crosshair = svg.getElementById('crosshair');
                const h = svg.getElementById('crosshair-h');
                const v = svg.getElementById('crosshair-v');
                const coords = svg.getElementById('coordinates');
                
                crosshair.style.display = 'block';
                h.setAttribute('x1', '0');
                h.setAttribute('x2', '1024');
                h.setAttribute('y1', y);
                h.setAttribute('y2', y);
                v.setAttribute('x1', x);
                v.setAttribute('x2', x);
                v.setAttribute('y1', '0');
                v.setAttribute('y2', '1024');

                // Calculate real coordinates using inverse transformation
                const matrix = {"a":94.39999999999996,"c":0,"e":511.99999999999994,"b":0,"d":-94.39999999999996,"f":511.99999999999994};
                // Manually invert and apply the affine transform
                // Since we only use translate and scale, we can directly compute:
                // x' = (x - tx) / sx
                // y' = (y - ty) / sy
                const sx = matrix.a;
                const sy = matrix.d;
                const tx = matrix.e; 
                const ty = matrix.f;
                const realPoint = {
                  x: (x - tx) / sx,
                  y: (y - ty) / sy // Flip y back since we used negative scale
                }
                
                coords.textContent = `(${realPoint.x.toFixed(2)}, ${realPoint.y.toFixed(2)})`;
                coords.setAttribute('x', (x + 5).toString());
                coords.setAttribute('y', (y - 5).toString());
              });
              document.currentScript.parentElement.addEventListener('mouseleave', () => {
                document.currentScript.parentElement.getElementById('crosshair').style.display = 'none';
              });
            ]]></script></svg>