<svg width="1024" height="1024" viewBox="0 0 1024 1024" xmlns="http://www.w3.org/2000/svg"><rect width="100%" height="100%" fill="white"/><g><circle data-type="point" data-label="conn_000" data-x="5" data-y="-3.52" cx="983.9999999999998" cy="844.2879999999999" r="14.16" fill="red"/></g><g><circle data-type="point" data-label="conn_000" data-x="-5" data-y="-3.98" cx="40.000000000000114" cy="887.7119999999999" r="14.16" fill="red"/></g><g><circle data-type="point" data-label="conn_001" data-x="5" data-y="1.84" cx="983.9999999999998" cy="338.3040000000001" r="14.16" fill="blue"/></g><g><circle data-type="point" data-label="conn_001" data-x="-5" data-y="0.22" cx="40.000000000000114" cy="491.232" r="14.16" fill="blue"/></g><g><polyline data-points="5.000000000000002,-3.5858585858585856 4.898989898989901,-3.6868686868686864 4.7979797979797985,-3.7878787878787876 4.696969696969697,-3.8888888888888884 4.595959595959597,-3.98989898989899 4.494949494949497,-3.98989898989899 4.393939393939394,-3.98989898989899 4.292929292929293,-3.98989898989899 4.191919191919193,-3.98989898989899 4.090909090909092,-3.98989898989899 3.989898989898992,-3.98989898989899 3.8888888888888893,-3.98989898989899 3.7878787878787885,-3.98989898989899 3.6868686868686877,-3.98989898989899 3.5858585858585874,-3.98989898989899 3.4848484848484866,-3.98989898989899 3.383838383838384,-3.98989898989899 3.2828282828282833,-3.98989898989899 3.181818181818183,-3.98989898989899 3.080808080808082,-3.98989898989899 2.9797979797979806,-3.98989898989899 2.87878787878788,-3.98989898989899 2.7777777777777786,-3.98989898989899 2.676767676767678,-3.98989898989899 2.575757575757577,-3.98989898989899 2.4747474747474754,-3.98989898989899 2.373737373737375,-3.98989898989899 2.2727272727272734,-3.98989898989899 2.1717171717171726,-3.98989898989899 2.070707070707072,-3.98989898989899 1.9696969696969702,-3.98989898989899 1.8686868686868696,-3.98989898989899 1.767676767676768,-3.98989898989899 1.6666666666666674,-3.98989898989899 1.5656565656565666,-3.98989898989899 1.4646464646464652,-3.98989898989899 1.3636363636363644,-3.98989898989899 1.262626262626263,-3.98989898989899 1.1616161616161622,-3.98989898989899 1.0606060606060617,-3.98989898989899 0.9595959595959602,-3.98989898989899 0.8585858585858596,-3.98989898989899 0.7575757575757579,-3.98989898989899 0.6565656565656574,-3.98989898989899 0.5555555555555567,-3.98989898989899 0.4545454545454551,-3.98989898989899 0.3535353535353544,-3.98989898989899 0.2525252525252529,-3.98989898989899 0.1515151515151522,-3.98989898989899 0.050505050505051545,-3.98989898989899 -0.05050505050505001,-3.98989898989899 -0.15151515151515066,-3.98989898989899 -0.2525252525252522,-3.98989898989899 -0.35353535353535287,-3.98989898989899 -0.4545454545454544,-3.98989898989899 -0.555555555555555,-3.98989898989899 -0.6565656565656557,-3.98989898989899 -0.7575757575757572,-3.98989898989899 -0.8585858585858579,-3.98989898989899 -0.9595959595959596,-3.98989898989899 -1.0606060606060603,-3.98989898989899 -1.1616161616161613,-3.98989898989899 -1.2626262626262625,-3.98989898989899 -1.363636363636363,-3.98989898989899 -1.4646464646464643,-3.98989898989899 -1.5656565656565653,-3.98989898989899 -1.6666666666666665,-3.98989898989899 -1.7676767676767675,-3.98989898989899 -1.8686868686868683,-3.98989898989899 -1.9696969696969693,-3.98989898989899 -2.07070707070707,-3.98989898989899 -2.1717171717171713,-3.98989898989899 -2.2727272727272725,-3.98989898989899 -2.3737373737373733,-3.98989898989899 -2.474747474747474,-3.98989898989899 -2.5757575757575752,-3.98989898989899 -2.6767676767676765,-3.98989898989899 -2.7777777777777777,-3.98989898989899 -2.8787878787878785,-3.98989898989899 -2.9797979797979792,-3.98989898989899 -3.0808080808080804,-3.98989898989899 -3.1818181818181817,-3.98989898989899 -3.2828282828282824,-3.98989898989899 -3.383838383838383,-3.98989898989899 -3.484848484848485,-3.98989898989899 -3.5858585858585856,-3.98989898989899 -3.6868686868686864,-3.98989898989899 -3.7878787878787876,-3.98989898989899 -3.8888888888888884,-3.98989898989899 -3.98989898989899,-3.98989898989899 -4.090909090909091,-3.98989898989899 -4.191919191919193,-3.98989898989899 -4.292929292929293,-3.98989898989899 -4.393939393939394,-3.98989898989899 -4.494949494949496,-3.98989898989899 -4.595959595959596,-3.98989898989899 -4.696969696969697,-3.98989898989899 -4.7979797979797985,-3.98989898989899 -4.898989898989899,-3.98989898989899 -5.000000000000001,-3.98989898989899" data-type="line" data-label="" points="984,850.5050505050503 974.4646464646464,860.0404040404039 964.9292929292927,869.5757575757574 955.3939393939393,879.1111111111109 945.8585858585857,888.6464646464644 936.3232323232323,888.6464646464644 926.7878787878785,888.6464646464644 917.2525252525251,888.6464646464644 907.7171717171716,888.6464646464644 898.181818181818,888.6464646464644 888.6464646464647,888.6464646464644 879.111111111111,888.6464646464644 869.5757575757575,888.6464646464644 860.0404040404039,888.6464646464644 850.5050505050505,888.6464646464644 840.969696969697,888.6464646464644 831.4343434343433,888.6464646464644 821.8989898989898,888.6464646464644 812.3636363636363,888.6464646464644 802.8282828282828,888.6464646464644 793.2929292929292,888.6464646464644 783.7575757575758,888.6464646464644 774.2222222222222,888.6464646464644 764.6868686868686,888.6464646464644 755.1515151515151,888.6464646464644 745.6161616161615,888.6464646464644 736.0808080808081,888.6464646464644 726.5454545454545,888.6464646464644 717.0101010101009,888.6464646464644 707.4747474747475,888.6464646464644 697.9393939393939,888.6464646464644 688.4040404040404,888.6464646464644 678.8686868686868,888.6464646464644 669.3333333333333,888.6464646464644 659.7979797979798,888.6464646464644 650.2626262626262,888.6464646464644 640.7272727272727,888.6464646464644 631.1919191919192,888.6464646464644 621.6565656565656,888.6464646464644 612.1212121212121,888.6464646464644 602.5858585858585,888.6464646464644 593.0505050505051,888.6464646464644 583.5151515151515,888.6464646464644 573.9797979797979,888.6464646464644 564.4444444444445,888.6464646464644 554.9090909090909,888.6464646464644 545.3737373737374,888.6464646464644 535.8383838383838,888.6464646464644 526.3030303030303,888.6464646464644 516.7676767676768,888.6464646464644 507.2323232323232,888.6464646464644 497.69696969696975,888.6464646464644 488.16161616161617,888.6464646464644 478.62626262626264,888.6464646464644 469.09090909090907,888.6464646464644 459.55555555555554,888.6464646464644 450.0202020202021,888.6464646464644 440.4848484848485,888.6464646464644 430.949494949495,888.6464646464644 421.4141414141414,888.6464646464644 411.8787878787879,888.6464646464644 402.34343434343435,888.6464646464644 392.80808080808083,888.6464646464644 383.2727272727273,888.6464646464644 373.7373737373738,888.6464646464644 364.2020202020202,888.6464646464644 354.6666666666667,888.6464646464644 345.13131313131316,888.6464646464644 335.59595959595964,888.6464646464644 326.0606060606061,888.6464646464644 316.5252525252526,888.6464646464644 306.9898989898991,888.6464646464644 297.4545454545455,888.6464646464644 287.91919191919203,888.6464646464644 278.38383838383845,888.6464646464644 268.84848484848493,888.6464646464644 259.3131313131314,888.6464646464644 249.77777777777783,888.6464646464644 240.2424242424243,888.6464646464644 230.70707070707084,888.6464646464644 221.17171717171726,888.6464646464644 211.63636363636374,888.6464646464644 202.10101010101022,888.6464646464644 192.5656565656567,888.6464646464644 183.03030303030312,888.6464646464644 173.4949494949496,888.6464646464644 163.95959595959607,888.6464646464644 154.42424242424255,888.6464646464644 144.88888888888903,888.6464646464644 135.35353535353545,888.6464646464644 125.81818181818193,888.6464646464644 116.28282828282829,888.6464646464644 106.74747474747483,888.6464646464644 97.21212121212136,888.6464646464644 87.67676767676772,888.6464646464644 78.14141414141426,888.6464646464644 68.60606060606068,888.6464646464644 59.07070707070716,888.6464646464644 49.53535353535369,888.6464646464644 40.00000000000006,888.6464646464644" fill="none" stroke="rgba(255,0,0,0.75)" stroke-width="11.327999999999996"/></g><g><polyline data-points="5.000000000000002,1.8686868686868696 4.898989898989901,1.767676767676768 4.7979797979797985,1.6666666666666674 4.696969696969697,1.5656565656565666 4.595959595959597,1.4646464646464652 4.494949494949497,1.3636363636363644 4.393939393939394,1.262626262626263 4.292929292929293,1.1616161616161622 4.191919191919193,1.0606060606060617 4.090909090909092,0.9595959595959602 3.989898989898992,0.8585858585858596 3.8888888888888893,0.7575757575757579 3.7878787878787885,0.6565656565656574 3.6868686868686877,0.5555555555555567 3.5858585858585874,0.4545454545454551 3.4848484848484866,0.3535353535353544 3.383838383838384,0.2525252525252529 3.2828282828282833,0.2525252525252529 3.181818181818183,0.2525252525252529 3.080808080808082,0.2525252525252529 2.9797979797979806,0.2525252525252529 2.87878787878788,0.2525252525252529 2.7777777777777786,0.2525252525252529 2.676767676767678,0.2525252525252529 2.575757575757577,0.2525252525252529 2.4747474747474754,0.2525252525252529 2.373737373737375,0.2525252525252529 2.2727272727272734,0.2525252525252529 2.1717171717171726,0.2525252525252529 2.070707070707072,0.2525252525252529 1.9696969696969702,0.2525252525252529 1.8686868686868696,0.2525252525252529 1.767676767676768,0.2525252525252529 1.6666666666666674,0.2525252525252529 1.5656565656565666,0.2525252525252529 1.4646464646464652,0.2525252525252529 1.3636363636363644,0.2525252525252529 1.262626262626263,0.2525252525252529 1.1616161616161622,0.2525252525252529 1.0606060606060617,0.2525252525252529 0.9595959595959602,0.2525252525252529 0.8585858585858596,0.2525252525252529 0.7575757575757579,0.2525252525252529 0.6565656565656574,0.2525252525252529 0.5555555555555567,0.2525252525252529 0.4545454545454551,0.2525252525252529 0.3535353535353544,0.2525252525252529 0.2525252525252529,0.2525252525252529 0.1515151515151522,0.2525252525252529 0.050505050505051545,0.2525252525252529 -0.05050505050505001,0.2525252525252529 -0.15151515151515066,0.2525252525252529 -0.2525252525252522,0.2525252525252529 -0.35353535353535287,0.2525252525252529 -0.4545454545454544,0.2525252525252529 -0.555555555555555,0.2525252525252529 -0.6565656565656557,0.2525252525252529 -0.7575757575757572,0.2525252525252529 -0.8585858585858579,0.2525252525252529 -0.9595959595959596,0.2525252525252529 -1.0606060606060603,0.2525252525252529 -1.1616161616161613,0.2525252525252529 -1.2626262626262625,0.2525252525252529 -1.363636363636363,0.2525252525252529 -1.4646464646464643,0.2525252525252529 -1.5656565656565653,0.2525252525252529 -1.6666666666666665,0.2525252525252529 -1.7676767676767675,0.2525252525252529 -1.8686868686868683,0.2525252525252529 -1.9696969696969693,0.2525252525252529 -2.07070707070707,0.2525252525252529 -2.1717171717171713,0.2525252525252529 -2.2727272727272725,0.2525252525252529 -2.3737373737373733,0.2525252525252529 -2.474747474747474,0.2525252525252529 -2.5757575757575752,0.2525252525252529 -2.6767676767676765,0.2525252525252529 -2.7777777777777777,0.2525252525252529 -2.8787878787878785,0.2525252525252529 -2.9797979797979792,0.2525252525252529 -3.0808080808080804,0.2525252525252529 -3.1818181818181817,0.2525252525252529 -3.2828282828282824,0.2525252525252529 -3.383838383838383,0.2525252525252529 -3.484848484848485,0.2525252525252529 -3.5858585858585856,0.2525252525252529 -3.6868686868686864,0.2525252525252529 -3.7878787878787876,0.2525252525252529 -3.8888888888888884,0.2525252525252529 -3.98989898989899,0.2525252525252529 -4.090909090909091,0.2525252525252529 -4.191919191919193,0.2525252525252529 -4.292929292929293,0.2525252525252529 -4.393939393939394,0.2525252525252529 -4.494949494949496,0.2525252525252529 -4.595959595959596,0.2525252525252529 -4.696969696969697,0.2525252525252529 -4.7979797979797985,0.2525252525252529 -4.898989898989899,0.2525252525252529 -5.000000000000001,0.2525252525252529" data-type="line" data-label="" points="984,335.5959595959596 974.4646464646464,345.13131313131316 964.9292929292927,354.66666666666663 955.3939393939393,364.2020202020202 945.8585858585857,373.73737373737373 936.3232323232323,383.27272727272725 926.7878787878785,392.80808080808083 917.2525252525251,402.3434343434343 907.7171717171716,411.8787878787878 898.181818181818,421.4141414141414 888.6464646464647,430.9494949494949 879.111111111111,440.4848484848485 869.5757575757575,450.02020202020196 860.0404040404039,459.5555555555555 850.5050505050505,469.09090909090907 840.969696969697,478.6262626262626 831.4343434343433,488.16161616161617 821.8989898989898,488.16161616161617 812.3636363636363,488.16161616161617 802.8282828282828,488.16161616161617 793.2929292929292,488.16161616161617 783.7575757575758,488.16161616161617 774.2222222222222,488.16161616161617 764.6868686868686,488.16161616161617 755.1515151515151,488.16161616161617 745.6161616161615,488.16161616161617 736.0808080808081,488.16161616161617 726.5454545454545,488.16161616161617 717.0101010101009,488.16161616161617 707.4747474747475,488.16161616161617 697.9393939393939,488.16161616161617 688.4040404040404,488.16161616161617 678.8686868686868,488.16161616161617 669.3333333333333,488.16161616161617 659.7979797979798,488.16161616161617 650.2626262626262,488.16161616161617 640.7272727272727,488.16161616161617 631.1919191919192,488.16161616161617 621.6565656565656,488.16161616161617 612.1212121212121,488.16161616161617 602.5858585858585,488.16161616161617 593.0505050505051,488.16161616161617 583.5151515151515,488.16161616161617 573.9797979797979,488.16161616161617 564.4444444444445,488.16161616161617 554.9090909090909,488.16161616161617 545.3737373737374,488.16161616161617 535.8383838383838,488.16161616161617 526.3030303030303,488.16161616161617 516.7676767676768,488.16161616161617 507.2323232323232,488.16161616161617 497.69696969696975,488.16161616161617 488.16161616161617,488.16161616161617 478.62626262626264,488.16161616161617 469.09090909090907,488.16161616161617 459.55555555555554,488.16161616161617 450.0202020202021,488.16161616161617 440.4848484848485,488.16161616161617 430.949494949495,488.16161616161617 421.4141414141414,488.16161616161617 411.8787878787879,488.16161616161617 402.34343434343435,488.16161616161617 392.80808080808083,488.16161616161617 383.2727272727273,488.16161616161617 373.7373737373738,488.16161616161617 364.2020202020202,488.16161616161617 354.6666666666667,488.16161616161617 345.13131313131316,488.16161616161617 335.59595959595964,488.16161616161617 326.0606060606061,488.16161616161617 316.5252525252526,488.16161616161617 306.9898989898991,488.16161616161617 297.4545454545455,488.16161616161617 287.91919191919203,488.16161616161617 278.38383838383845,488.16161616161617 268.84848484848493,488.16161616161617 259.3131313131314,488.16161616161617 249.77777777777783,488.16161616161617 240.2424242424243,488.16161616161617 230.70707070707084,488.16161616161617 221.17171717171726,488.16161616161617 211.63636363636374,488.16161616161617 202.10101010101022,488.16161616161617 192.5656565656567,488.16161616161617 183.03030303030312,488.16161616161617 173.4949494949496,488.16161616161617 163.95959595959607,488.16161616161617 154.42424242424255,488.16161616161617 144.88888888888903,488.16161616161617 135.35353535353545,488.16161616161617 125.81818181818193,488.16161616161617 116.28282828282829,488.16161616161617 106.74747474747483,488.16161616161617 97.21212121212136,488.16161616161617 87.67676767676772,488.16161616161617 78.14141414141426,488.16161616161617 68.60606060606068,488.16161616161617 59.07070707070716,488.16161616161617 49.53535353535369,488.16161616161617 40.00000000000006,488.16161616161617" fill="none" stroke="rgba(0,0,255,0.75)" stroke-width="11.327999999999996"/></g><g><rect data-type="rect" data-label="" data-x="0" data-y="0" x="40.000000000000114" y="40.00000000000017" width="943.9999999999997" height="943.9999999999995" fill="none" stroke="gray" stroke-width="0.010593220338983056"/></g><g><rect data-type="rect" data-label="" data-x="0" data-y="0" x="40.000000000000114" y="40.00000000000017" width="943.9999999999997" height="943.9999999999995" fill="none" stroke="rgba(15, 23, 42, 0.8)" stroke-width="0.010593220338983056"/></g><g id="crosshair" style="display: none"><line id="crosshair-h" y1="0" y2="1024" stroke="#666" stroke-width="0.5"/><line id="crosshair-v" x1="0" x2="1024" stroke="#666" stroke-width="0.5"/><text id="coordinates" font-family="monospace" font-size="12" fill="#666"></text></g><script><![CDATA[
              document.currentScript.parentElement.addEventListener('mousemove', (e) => {
                const svg = e.currentTarget;
                const rect = svg.getBoundingClientRect();
                const x = e.clientX - rect.left;
                const y = e.clientY - rect.top;
                const crosshair = svg.getElementById('crosshair');
                const h = svg.getElementById('crosshair-h');
                const v = svg.getElementById('crosshair-v');
                const coords = svg.getElementById('coordinates');
                
                crosshair.style.display = 'block';
                h.setAttribute('x1', '0');
                h.setAttribute('x2', '1024');
                h.setAttribute('y1', y);
                h.setAttribute('y2', y);
                v.setAttribute('x1', x);
                v.setAttribute('x2', x);
                v.setAttribute('y1', '0');
                v.setAttribute('y2', '1024');

                // Calculate real coordinates using inverse transformation
                const matrix = {"a":94.39999999999996,"c":0,"e":511.99999999999994,"b":0,"d":-94.39999999999996,"f":512};
                // Manually invert and apply the affine transform
                // Since we only use translate and scale, we can directly compute:
                // x' = (x - tx) / sx
                // y' = (y - ty) / sy
                const sx = matrix.a;
                const sy = matrix.d;
                const tx = matrix.e; 
                const ty = matrix.f;
                const realPoint = {
                  x: (x - tx) / sx,
                  y: (y - ty) / sy // Flip y back since we used negative scale
                }
                
                coords.textContent = `(${realPoint.x.toFixed(2)}, ${realPoint.y.toFixed(2)})`;
                coords.setAttribute('x', (x + 5).toString());
                coords.setAttribute('y', (y - 5).toString());
              });
              document.currentScript.parentElement.addEventListener('mouseleave', () => {
                document.currentScript.parentElement.getElementById('crosshair').style.display = 'none';
              });
            ]]></script></svg>