<svg width="1024" height="1024" viewBox="0 0 1024 1024" xmlns="http://www.w3.org/2000/svg"><rect width="100%" height="100%" fill="white"/><g><circle data-type="point" data-label="conn_000" data-x="5" data-y="-0.4" cx="983.9999999999998" cy="549.7600000000001" r="14.16" fill="blue"/></g><g><circle data-type="point" data-label="conn_000" data-x="-5" data-y="1.76" cx="40.000000000000114" cy="345.85600000000017" r="14.16" fill="blue"/></g><g><circle data-type="point" data-label="conn_001" data-x="5" data-y="1.76" cx="983.9999999999998" cy="345.85600000000017" r="14.16" fill="red"/></g><g><circle data-type="point" data-label="conn_001" data-x="-5" data-y="4.22" cx="40.000000000000114" cy="113.63200000000029" r="14.16" fill="blue"/></g><g><circle data-type="point" data-label="conn_002" data-x="-4.4" data-y="5" cx="96.6400000000001" cy="40.000000000000284" r="14.16" fill="blue"/></g><g><circle data-type="point" data-label="conn_002" data-x="-4.62" data-y="-5" cx="75.87200000000013" cy="984" r="14.16" fill="blue"/></g><g><circle data-type="point" data-label="conn_003" data-x="3.46" data-y="-5" cx="838.6239999999998" cy="984" r="14.16" fill="blue"/></g><g><circle data-type="point" data-label="conn_003" data-x="-2.7600000000000002" data-y="5" cx="251.45600000000002" cy="40.000000000000284" r="14.16" fill="blue"/></g><g><circle data-type="point" data-label="conn_004" data-x="-3.6" data-y="-5" cx="172.16000000000008" cy="984" r="14.16" fill="blue"/></g><g><circle data-type="point" data-label="conn_004" data-x="4.54" data-y="5" cx="940.5759999999998" cy="40.000000000000284" r="14.16" fill="red"/></g><g><circle data-type="point" data-label="conn_005" data-x="-5" data-y="4.1" cx="40.000000000000114" cy="124.96000000000032" r="14.16" fill="blue"/></g><g><circle data-type="point" data-label="conn_005" data-x="-2.72" data-y="5" cx="255.23200000000003" cy="40.000000000000284" r="14.16" fill="red"/></g><g><circle data-type="point" data-label="conn_006" data-x="2.52" data-y="-5" cx="749.8879999999999" cy="984" r="14.16" fill="red"/></g><g><circle data-type="point" data-label="conn_006" data-x="4.24" data-y="5" cx="912.2559999999999" cy="40.000000000000284" r="14.16" fill="blue"/></g><g><polyline data-points="-3.6868686868686864,-5.000000000000001 -3.5858585858585856,-4.898989898989899 -3.484848484848485,-4.7979797979797985 -3.383838383838383,-4.696969696969697 -3.2828282828282824,-4.595959595959596 -3.1818181818181817,-4.494949494949496 -3.0808080808080804,-4.393939393939394 -2.9797979797979792,-4.292929292929293 -2.8787878787878785,-4.191919191919193 -2.7777777777777777,-4.090909090909091 -2.6767676767676765,-3.98989898989899 -2.5757575757575752,-3.8888888888888884 -2.474747474747474,-3.7878787878787876 -2.3737373737373733,-3.6868686868686864 -2.2727272727272725,-3.5858585858585856 -2.1717171717171713,-3.484848484848485 -2.07070707070707,-3.383838383838383 -1.9696969696969693,-3.2828282828282824 -1.8686868686868683,-3.1818181818181817 -1.7676767676767675,-3.0808080808080804 -1.6666666666666665,-2.9797979797979792 -1.5656565656565653,-2.8787878787878785 -1.4646464646464643,-2.7777777777777777 -1.363636363636363,-2.6767676767676765 -1.2626262626262625,-2.5757575757575752 -1.1616161616161613,-2.474747474747474 -1.0606060606060603,-2.3737373737373733 -0.9595959595959596,-2.2727272727272725 -0.8585858585858579,-2.1717171717171713 -0.7575757575757572,-2.07070707070707 -0.6565656565656557,-1.9696969696969693 -0.555555555555555,-1.8686868686868683 -0.4545454545454544,-1.7676767676767675 -0.35353535353535287,-1.6666666666666665 -0.2525252525252522,-1.5656565656565653 -0.15151515151515066,-1.4646464646464643 -0.05050505050505001,-1.363636363636363 0.050505050505051545,-1.2626262626262625 0.1515151515151522,-1.1616161616161613 0.2525252525252529,-1.0606060606060603 0.3535353535353544,-0.9595959595959596 0.4545454545454551,-0.8585858585858579 0.5555555555555567,-0.7575757575757572 0.6565656565656574,-0.6565656565656557 0.7575757575757579,-0.555555555555555 0.8585858585858596,-0.4545454545454544 0.9595959595959602,-0.35353535353535287 1.0606060606060617,-0.2525252525252522 1.1616161616161622,-0.15151515151515066 1.262626262626263,-0.05050505050505001 1.3636363636363644,0.050505050505051545 1.4646464646464652,0.1515151515151522 1.5656565656565666,0.2525252525252529 1.6666666666666674,0.3535353535353544 1.767676767676768,0.4545454545454551 1.8686868686868696,0.5555555555555567 1.9696969696969702,0.6565656565656574 2.070707070707072,0.7575757575757579 2.1717171717171726,0.8585858585858596 2.2727272727272734,0.9595959595959602 2.373737373737375,1.0606060606060617 2.4747474747474754,1.1616161616161622 2.575757575757577,1.262626262626263 2.676767676767678,1.3636363636363644 2.7777777777777786,1.4646464646464652 2.87878787878788,1.5656565656565666 2.9797979797979806,1.6666666666666674 3.080808080808082,1.767676767676768 3.181818181818183,1.8686868686868696 3.2828282828282833,1.9696969696969702 3.383838383838384,2.070707070707072 3.4848484848484866,2.1717171717171726 3.5858585858585874,2.2727272727272734 3.6868686868686877,2.373737373737375 3.6868686868686877,2.4747474747474754 3.6868686868686877,2.575757575757577 3.6868686868686877,2.676767676767678 3.6868686868686877,2.7777777777777786 3.6868686868686877,2.87878787878788 3.6868686868686877,2.9797979797979806 3.6868686868686877,3.080808080808082 3.6868686868686877,3.181818181818183 3.6868686868686877,3.2828282828282833 3.6868686868686877,3.383838383838384 3.6868686868686877,3.4848484848484866 3.6868686868686877,3.5858585858585874 3.6868686868686877,3.6868686868686877 3.7878787878787885,3.7878787878787885 3.7878787878787885,3.8888888888888893 3.7878787878787885,3.989898989898992" data-type="line" data-label="" points="163.95959595959607,984 173.4949494949496,974.4646464646464 183.03030303030312,964.9292929292928 192.5656565656567,955.3939393939394 202.10101010101022,945.8585858585858 211.63636363636374,936.3232323232323 221.17171717171726,926.7878787878788 230.70707070707084,917.2525252525252 240.2424242424243,907.7171717171718 249.77777777777783,898.1818181818181 259.3131313131314,888.6464646464647 268.84848484848493,879.1111111111111 278.38383838383845,869.5757575757575 287.91919191919203,860.0404040404039 297.4545454545455,850.5050505050505 306.9898989898991,840.969696969697 316.5252525252526,831.4343434343434 326.0606060606061,821.8989898989898 335.59595959595964,812.3636363636363 345.13131313131316,802.8282828282828 354.6666666666667,793.2929292929292 364.2020202020202,783.7575757575758 373.7373737373738,774.2222222222222 383.2727272727273,764.6868686868687 392.80808080808083,755.1515151515151 402.34343434343435,745.6161616161615 411.8787878787879,736.0808080808081 421.4141414141414,726.5454545454545 430.949494949495,717.010101010101 440.4848484848485,707.4747474747475 450.0202020202021,697.939393939394 459.55555555555554,688.4040404040404 469.09090909090907,678.8686868686868 478.62626262626264,669.3333333333334 488.16161616161617,659.7979797979798 497.69696969696975,650.2626262626263 507.2323232323232,640.7272727272727 516.7676767676768,631.1919191919193 526.3030303030303,621.6565656565657 535.8383838383838,612.1212121212121 545.3737373737374,602.5858585858587 554.9090909090909,593.0505050505051 564.4444444444445,583.5151515151516 573.9797979797979,573.979797979798 583.5151515151515,564.4444444444445 593.0505050505051,554.909090909091 602.5858585858585,545.3737373737374 612.1212121212121,535.838383838384 621.6565656565656,526.3030303030304 631.1919191919192,516.7676767676768 640.7272727272727,507.23232323232327 650.2626262626262,497.69696969696975 659.7979797979798,488.1616161616163 669.3333333333333,478.6262626262627 678.8686868686868,469.0909090909092 688.4040404040404,459.5555555555556 697.9393939393939,450.0202020202021 707.4747474747475,440.4848484848486 717.0101010101009,430.94949494949503 726.5454545454545,421.4141414141415 736.0808080808081,411.87878787878793 745.6161616161615,402.3434343434344 755.1515151515151,392.80808080808094 764.6868686868686,383.27272727272737 774.2222222222222,373.73737373737384 783.7575757575758,364.2020202020203 793.2929292929292,354.66666666666674 802.8282828282828,345.1313131313133 812.3636363636363,335.5959595959597 821.8989898989898,326.06060606060623 831.4343434343433,316.5252525252526 840.969696969697,306.9898989898991 850.5050505050505,297.4545454545456 860.0404040404039,287.91919191919203 860.0404040404039,278.38383838383857 860.0404040404039,268.84848484848493 860.0404040404039,259.3131313131314 860.0404040404039,249.77777777777794 860.0404040404039,240.24242424242436 860.0404040404039,230.70707070707084 860.0404040404039,221.17171717171726 860.0404040404039,211.63636363636374 860.0404040404039,202.10101010101027 860.0404040404039,192.56565656565675 860.0404040404039,183.03030303030312 860.0404040404039,173.4949494949496 860.0404040404039,163.95959595959613 869.5757575757575,154.4242424242426 869.5757575757575,144.88888888888908 869.5757575757575,135.35353535353545" fill="none" stroke="rgba(0,0,255,0.75)" stroke-width="11.327999999999996"/></g><g><polyline data-points="3.7878787878787885,3.989898989898992 3.8888888888888893,4.090909090909092 3.989898989898992,4.191919191919193 4.090909090909092,4.292929292929293 4.191919191919193,4.393939393939394 4.292929292929293,4.494949494949497 4.393939393939394,4.595959595959597 4.494949494949497,4.696969696969697 4.595959595959597,4.7979797979797985 4.595959595959597,4.898989898989901 4.595959595959597,5.000000000000002" data-type="line" data-label="" points="869.5757575757575,135.35353535353545 879.111111111111,125.81818181818198 888.6464646464647,116.28282828282846 898.181818181818,106.747474747475 907.7171717171716,97.21212121212153 917.2525252525251,87.67676767676778 926.7878787878785,78.14141414141432 936.3232323232323,68.60606060606085 945.8585858585857,59.07070707070733 945.8585858585857,49.53535353535369 945.8585858585857,40.000000000000114" fill="none" stroke="rgba(255,0,0,0.75)" stroke-width="11.327999999999996"/></g><g><polyline data-points="5.000000000000002,-0.4545454545454544 4.898989898989901,-0.35353535353535287 4.7979797979797985,-0.2525252525252522 4.696969696969697,-0.15151515151515066 4.595959595959597,-0.05050505050505001 4.494949494949497,0.050505050505051545 4.393939393939394,0.1515151515151522 4.292929292929293,0.2525252525252529 4.191919191919193,0.3535353535353544 4.090909090909092,0.4545454545454551 3.989898989898992,0.5555555555555567 3.8888888888888893,0.6565656565656574 3.7878787878787885,0.7575757575757579 3.6868686868686877,0.8585858585858596 3.5858585858585874,0.9595959595959602 3.4848484848484866,1.0606060606060617 3.383838383838384,1.1616161616161622 3.2828282828282833,1.262626262626263 3.181818181818183,1.3636363636363644" data-type="line" data-label="" points="984,554.909090909091 974.4646464646464,545.3737373737374 964.9292929292927,535.838383838384 955.3939393939393,526.3030303030304 945.8585858585857,516.7676767676768 936.3232323232323,507.23232323232327 926.7878787878785,497.69696969696975 917.2525252525251,488.1616161616163 907.7171717171716,478.6262626262627 898.181818181818,469.0909090909092 888.6464646464647,459.5555555555556 879.111111111111,450.0202020202021 869.5757575757575,440.4848484848486 860.0404040404039,430.94949494949503 850.5050505050505,421.4141414141415 840.969696969697,411.87878787878793 831.4343434343433,402.3434343434344 821.8989898989898,392.80808080808094 812.3636363636363,383.27272727272737" fill="none" stroke="rgba(0,0,255,0.75)" stroke-width="11.327999999999996"/></g><g><polyline data-points="3.181818181818183,1.3636363636363644 3.080808080808082,1.4646464646464652 2.9797979797979806,1.5656565656565666 2.87878787878788,1.5656565656565666 2.7777777777777786,1.5656565656565666 2.676767676767678,1.5656565656565666 2.575757575757577,1.5656565656565666 2.4747474747474754,1.5656565656565666 2.373737373737375,1.5656565656565666 2.2727272727272734,1.5656565656565666 2.1717171717171726,1.5656565656565666 2.070707070707072,1.5656565656565666 1.9696969696969702,1.5656565656565666 1.8686868686868696,1.5656565656565666 1.767676767676768,1.5656565656565666 1.6666666666666674,1.5656565656565666 1.5656565656565666,1.5656565656565666 1.4646464646464652,1.5656565656565666 1.3636363636363644,1.5656565656565666 1.262626262626263,1.5656565656565666 1.1616161616161622,1.5656565656565666 1.0606060606060617,1.5656565656565666 0.9595959595959602,1.5656565656565666 0.8585858585858596,1.5656565656565666 0.7575757575757579,1.5656565656565666 0.6565656565656574,1.5656565656565666 0.5555555555555567,1.5656565656565666 0.4545454545454551,1.5656565656565666 0.3535353535353544,1.5656565656565666 0.2525252525252529,1.5656565656565666 0.1515151515151522,1.5656565656565666 0.050505050505051545,1.5656565656565666 -0.05050505050505001,1.5656565656565666 -0.15151515151515066,1.5656565656565666 -0.2525252525252522,1.5656565656565666 -0.35353535353535287,1.5656565656565666 -0.4545454545454544,1.5656565656565666 -0.555555555555555,1.5656565656565666 -0.6565656565656557,1.5656565656565666 -0.7575757575757572,1.5656565656565666 -0.8585858585858579,1.5656565656565666 -0.9595959595959596,1.5656565656565666 -1.0606060606060603,1.5656565656565666 -1.1616161616161613,1.5656565656565666 -1.2626262626262625,1.5656565656565666 -1.363636363636363,1.5656565656565666 -1.4646464646464643,1.5656565656565666 -1.5656565656565653,1.5656565656565666 -1.6666666666666665,1.5656565656565666 -1.7676767676767675,1.5656565656565666 -1.8686868686868683,1.5656565656565666 -1.9696969696969693,1.5656565656565666 -2.07070707070707,1.5656565656565666 -2.1717171717171713,1.5656565656565666 -2.2727272727272725,1.5656565656565666 -2.3737373737373733,1.5656565656565666 -2.474747474747474,1.5656565656565666 -2.5757575757575752,1.5656565656565666 -2.6767676767676765,1.5656565656565666 -2.7777777777777777,1.5656565656565666 -2.8787878787878785,1.5656565656565666 -2.9797979797979792,1.5656565656565666 -3.0808080808080804,1.5656565656565666 -3.1818181818181817,1.5656565656565666 -3.2828282828282824,1.5656565656565666 -3.383838383838383,1.5656565656565666 -3.484848484848485,1.5656565656565666 -3.5858585858585856,1.5656565656565666 -3.6868686868686864,1.5656565656565666 -3.7878787878787876,1.5656565656565666 -3.8888888888888884,1.5656565656565666 -3.98989898989899,1.5656565656565666" data-type="line" data-label="" points="812.3636363636363,383.27272727272737 802.8282828282828,373.73737373737384 793.2929292929292,364.2020202020203 783.7575757575758,364.2020202020203 774.2222222222222,364.2020202020203 764.6868686868686,364.2020202020203 755.1515151515151,364.2020202020203 745.6161616161615,364.2020202020203 736.0808080808081,364.2020202020203 726.5454545454545,364.2020202020203 717.0101010101009,364.2020202020203 707.4747474747475,364.2020202020203 697.9393939393939,364.2020202020203 688.4040404040404,364.2020202020203 678.8686868686868,364.2020202020203 669.3333333333333,364.2020202020203 659.7979797979798,364.2020202020203 650.2626262626262,364.2020202020203 640.7272727272727,364.2020202020203 631.1919191919192,364.2020202020203 621.6565656565656,364.2020202020203 612.1212121212121,364.2020202020203 602.5858585858585,364.2020202020203 593.0505050505051,364.2020202020203 583.5151515151515,364.2020202020203 573.9797979797979,364.2020202020203 564.4444444444445,364.2020202020203 554.9090909090909,364.2020202020203 545.3737373737374,364.2020202020203 535.8383838383838,364.2020202020203 526.3030303030303,364.2020202020203 516.7676767676768,364.2020202020203 507.2323232323232,364.2020202020203 497.69696969696975,364.2020202020203 488.16161616161617,364.2020202020203 478.62626262626264,364.2020202020203 469.09090909090907,364.2020202020203 459.55555555555554,364.2020202020203 450.0202020202021,364.2020202020203 440.4848484848485,364.2020202020203 430.949494949495,364.2020202020203 421.4141414141414,364.2020202020203 411.8787878787879,364.2020202020203 402.34343434343435,364.2020202020203 392.80808080808083,364.2020202020203 383.2727272727273,364.2020202020203 373.7373737373738,364.2020202020203 364.2020202020202,364.2020202020203 354.6666666666667,364.2020202020203 345.13131313131316,364.2020202020203 335.59595959595964,364.2020202020203 326.0606060606061,364.2020202020203 316.5252525252526,364.2020202020203 306.9898989898991,364.2020202020203 297.4545454545455,364.2020202020203 287.91919191919203,364.2020202020203 278.38383838383845,364.2020202020203 268.84848484848493,364.2020202020203 259.3131313131314,364.2020202020203 249.77777777777783,364.2020202020203 240.2424242424243,364.2020202020203 230.70707070707084,364.2020202020203 221.17171717171726,364.2020202020203 211.63636363636374,364.2020202020203 202.10101010101022,364.2020202020203 192.5656565656567,364.2020202020203 183.03030303030312,364.2020202020203 173.4949494949496,364.2020202020203 163.95959595959607,364.2020202020203 154.42424242424255,364.2020202020203 144.88888888888903,364.2020202020203 135.35353535353545,364.2020202020203" fill="none" stroke="rgba(255,0,0,0.75)" stroke-width="11.327999999999996"/></g><g><polyline data-points="-3.98989898989899,1.5656565656565666 -4.090909090909091,1.5656565656565666 -4.191919191919193,1.5656565656565666 -4.292929292929293,1.5656565656565666 -4.393939393939394,1.5656565656565666 -4.494949494949496,1.5656565656565666 -4.595959595959596,1.5656565656565666 -4.696969696969697,1.6666666666666674 -4.7979797979797985,1.767676767676768 -4.898989898989899,1.767676767676768 -5.000000000000001,1.767676767676768" data-type="line" data-label="" points="135.35353535353545,364.2020202020203 125.81818181818193,364.2020202020203 116.28282828282829,364.2020202020203 106.74747474747483,364.2020202020203 97.21212121212136,364.2020202020203 87.67676767676772,364.2020202020203 78.14141414141426,364.2020202020203 68.60606060606068,354.66666666666674 59.07070707070716,345.1313131313133 49.53535353535369,345.1313131313133 40.00000000000006,345.1313131313133" fill="none" stroke="rgba(0,0,255,0.75)" stroke-width="11.327999999999996"/></g><g><polyline data-points="3.4848484848484866,-5.000000000000001 3.383838383838384,-4.898989898989899 3.2828282828282833,-4.7979797979797985 3.181818181818183,-4.696969696969697 3.080808080808082,-4.595959595959596 2.9797979797979806,-4.494949494949496 2.87878787878788,-4.393939393939394 2.7777777777777786,-4.292929292929293 2.676767676767678,-4.191919191919193 2.575757575757577,-4.090909090909091 2.4747474747474754,-3.98989898989899 2.373737373737375,-3.8888888888888884 2.2727272727272734,-3.7878787878787876 2.1717171717171726,-3.6868686868686864 2.070707070707072,-3.5858585858585856 1.9696969696969702,-3.484848484848485 1.8686868686868696,-3.383838383838383 1.767676767676768,-3.2828282828282824 1.6666666666666674,-3.1818181818181817 1.5656565656565666,-3.0808080808080804 1.4646464646464652,-2.9797979797979792 1.3636363636363644,-2.8787878787878785 1.262626262626263,-2.7777777777777777 1.1616161616161622,-2.6767676767676765 1.0606060606060617,-2.5757575757575752 0.9595959595959602,-2.474747474747474 0.8585858585858596,-2.3737373737373733 0.7575757575757579,-2.2727272727272725 0.6565656565656574,-2.1717171717171713 0.5555555555555567,-2.07070707070707 0.4545454545454551,-1.9696969696969693 0.3535353535353544,-1.8686868686868683 0.2525252525252529,-1.7676767676767675 0.1515151515151522,-1.6666666666666665" data-type="line" data-label="" points="840.969696969697,984 831.4343434343433,974.4646464646464 821.8989898989898,964.9292929292928 812.3636363636363,955.3939393939394 802.8282828282828,945.8585858585858 793.2929292929292,936.3232323232323 783.7575757575758,926.7878787878788 774.2222222222222,917.2525252525252 764.6868686868686,907.7171717171718 755.1515151515151,898.1818181818181 745.6161616161615,888.6464646464647 736.0808080808081,879.1111111111111 726.5454545454545,869.5757575757575 717.0101010101009,860.0404040404039 707.4747474747475,850.5050505050505 697.9393939393939,840.969696969697 688.4040404040404,831.4343434343434 678.8686868686868,821.8989898989898 669.3333333333333,812.3636363636363 659.7979797979798,802.8282828282828 650.2626262626262,793.2929292929292 640.7272727272727,783.7575757575758 631.1919191919192,774.2222222222222 621.6565656565656,764.6868686868687 612.1212121212121,755.1515151515151 602.5858585858585,745.6161616161615 593.0505050505051,736.0808080808081 583.5151515151515,726.5454545454545 573.9797979797979,717.010101010101 564.4444444444445,707.4747474747475 554.9090909090909,697.939393939394 545.3737373737374,688.4040404040404 535.8383838383838,678.8686868686868 526.3030303030303,669.3333333333334" fill="none" stroke="rgba(0,0,255,0.75)" stroke-width="11.327999999999996"/></g><g><polyline data-points="0.1515151515151522,-1.6666666666666665 0.050505050505051545,-1.5656565656565653 -0.05050505050505001,-1.4646464646464643 -0.15151515151515066,-1.363636363636363 -0.2525252525252522,-1.2626262626262625 -0.35353535353535287,-1.1616161616161613 -0.4545454545454544,-1.0606060606060603 -0.555555555555555,-0.9595959595959596 -0.6565656565656557,-0.8585858585858579 -0.7575757575757572,-0.7575757575757572 -0.8585858585858579,-0.6565656565656557 -0.9595959595959596,-0.555555555555555 -1.0606060606060603,-0.4545454545454544 -1.1616161616161613,-0.35353535353535287 -1.2626262626262625,-0.2525252525252522 -1.363636363636363,-0.15151515151515066 -1.4646464646464643,-0.05050505050505001 -1.5656565656565653,0.050505050505051545 -1.6666666666666665,0.1515151515151522 -1.7676767676767675,0.2525252525252529 -1.8686868686868683,0.3535353535353544 -1.9696969696969693,0.4545454545454551 -2.07070707070707,0.5555555555555567 -2.1717171717171713,0.6565656565656574 -2.2727272727272725,0.7575757575757579 -2.3737373737373733,0.8585858585858596 -2.474747474747474,0.9595959595959602 -2.5757575757575752,1.0606060606060617 -2.6767676767676765,1.1616161616161622" data-type="line" data-label="" points="526.3030303030303,669.3333333333334 516.7676767676768,659.7979797979798 507.2323232323232,650.2626262626263 497.69696969696975,640.7272727272727 488.16161616161617,631.1919191919193 478.62626262626264,621.6565656565657 469.09090909090907,612.1212121212121 459.55555555555554,602.5858585858587 450.0202020202021,593.0505050505051 440.4848484848485,583.5151515151516 430.949494949495,573.979797979798 421.4141414141414,564.4444444444445 411.8787878787879,554.909090909091 402.34343434343435,545.3737373737374 392.80808080808083,535.838383838384 383.2727272727273,526.3030303030304 373.7373737373738,516.7676767676768 364.2020202020202,507.23232323232327 354.6666666666667,497.69696969696975 345.13131313131316,488.1616161616163 335.59595959595964,478.6262626262627 326.0606060606061,469.0909090909092 316.5252525252526,459.5555555555556 306.9898989898991,450.0202020202021 297.4545454545455,440.4848484848486 287.91919191919203,430.94949494949503 278.38383838383845,421.4141414141415 268.84848484848493,411.87878787878793 259.3131313131314,402.3434343434344" fill="none" stroke="rgba(255,0,0,0.75)" stroke-width="11.327999999999996"/></g><g><polyline data-points="-2.6767676767676765,1.1616161616161622 -2.7777777777777777,1.262626262626263 -2.7777777777777777,1.3636363636363644 -2.7777777777777777,1.4646464646464652 -2.7777777777777777,1.5656565656565666 -2.7777777777777777,1.6666666666666674 -2.7777777777777777,1.767676767676768 -2.7777777777777777,1.8686868686868696 -2.7777777777777777,1.9696969696969702 -2.7777777777777777,2.070707070707072 -2.7777777777777777,2.1717171717171726 -2.7777777777777777,2.2727272727272734 -2.7777777777777777,2.373737373737375 -2.7777777777777777,2.4747474747474754 -2.7777777777777777,2.575757575757577 -2.7777777777777777,2.676767676767678 -2.7777777777777777,2.7777777777777786 -2.7777777777777777,2.87878787878788 -2.7777777777777777,2.9797979797979806 -2.7777777777777777,3.080808080808082 -2.7777777777777777,3.181818181818183 -2.7777777777777777,3.2828282828282833 -2.7777777777777777,3.383838383838384 -2.7777777777777777,3.4848484848484866 -2.7777777777777777,3.5858585858585874 -2.7777777777777777,3.6868686868686877 -2.7777777777777777,3.7878787878787885 -2.7777777777777777,3.8888888888888893 -2.7777777777777777,3.989898989898992 -2.7777777777777777,4.090909090909092 -2.7777777777777777,4.191919191919193 -2.7777777777777777,4.292929292929293 -2.7777777777777777,4.393939393939394 -2.7777777777777777,4.494949494949497 -2.7777777777777777,4.595959595959597 -2.7777777777777777,4.696969696969697 -2.7777777777777777,4.7979797979797985 -2.7777777777777777,4.898989898989901 -2.7777777777777777,5.000000000000002" data-type="line" data-label="" points="259.3131313131314,402.3434343434344 249.77777777777783,392.80808080808094 249.77777777777783,383.27272727272737 249.77777777777783,373.73737373737384 249.77777777777783,364.2020202020203 249.77777777777783,354.66666666666674 249.77777777777783,345.1313131313133 249.77777777777783,335.5959595959597 249.77777777777783,326.06060606060623 249.77777777777783,316.5252525252526 249.77777777777783,306.9898989898991 249.77777777777783,297.4545454545456 249.77777777777783,287.91919191919203 249.77777777777783,278.38383838383857 249.77777777777783,268.84848484848493 249.77777777777783,259.3131313131314 249.77777777777783,249.77777777777794 249.77777777777783,240.24242424242436 249.77777777777783,230.70707070707084 249.77777777777783,221.17171717171726 249.77777777777783,211.63636363636374 249.77777777777783,202.10101010101027 249.77777777777783,192.56565656565675 249.77777777777783,183.03030303030312 249.77777777777783,173.4949494949496 249.77777777777783,163.95959595959613 249.77777777777783,154.4242424242426 249.77777777777783,144.88888888888908 249.77777777777783,135.35353535353545 249.77777777777783,125.81818181818198 249.77777777777783,116.28282828282846 249.77777777777783,106.747474747475 249.77777777777783,97.21212121212153 249.77777777777783,87.67676767676778 249.77777777777783,78.14141414141432 249.77777777777783,68.60606060606085 249.77777777777783,59.07070707070733 249.77777777777783,49.53535353535369 249.77777777777783,40.000000000000114" fill="none" stroke="rgba(0,0,255,0.75)" stroke-width="11.327999999999996"/></g><g><polyline data-points="5.000000000000002,1.767676767676768 4.898989898989901,1.8686868686868696 4.7979797979797985,1.9696969696969702 4.696969696969697,2.070707070707072 4.595959595959597,2.1717171717171726 4.494949494949497,2.2727272727272734 4.393939393939394,2.373737373737375 4.292929292929293,2.4747474747474754 4.191919191919193,2.575757575757577 4.090909090909092,2.676767676767678 3.989898989898992,2.7777777777777786 3.8888888888888893,2.87878787878788 3.7878787878787885,2.9797979797979806 3.6868686868686877,3.080808080808082 3.5858585858585874,3.181818181818183 3.4848484848484866,3.2828282828282833 3.383838383838384,3.383838383838384 3.2828282828282833,3.4848484848484866 3.181818181818183,3.5858585858585874 3.080808080808082,3.6868686868686877 2.9797979797979806,3.7878787878787885 2.87878787878788,3.8888888888888893 2.7777777777777786,3.8888888888888893 2.676767676767678,3.8888888888888893 2.575757575757577,3.8888888888888893 2.4747474747474754,3.8888888888888893 2.373737373737375,3.8888888888888893 2.2727272727272734,3.8888888888888893 2.1717171717171726,3.8888888888888893 2.070707070707072,3.8888888888888893 1.9696969696969702,3.8888888888888893 1.8686868686868696,3.8888888888888893 1.767676767676768,3.8888888888888893 1.6666666666666674,3.8888888888888893 1.5656565656565666,3.8888888888888893 1.4646464646464652,3.8888888888888893 1.3636363636363644,3.8888888888888893 1.262626262626263,3.8888888888888893 1.1616161616161622,3.8888888888888893 1.0606060606060617,3.8888888888888893 0.9595959595959602,3.8888888888888893 0.8585858585858596,3.8888888888888893 0.7575757575757579,3.8888888888888893 0.6565656565656574,3.8888888888888893 0.5555555555555567,3.8888888888888893 0.4545454545454551,3.8888888888888893 0.3535353535353544,3.8888888888888893 0.2525252525252529,3.8888888888888893 0.1515151515151522,3.8888888888888893 0.050505050505051545,3.8888888888888893 -0.05050505050505001,3.8888888888888893 -0.15151515151515066,3.8888888888888893 -0.2525252525252522,3.8888888888888893 -0.35353535353535287,3.8888888888888893 -0.4545454545454544,3.8888888888888893 -0.555555555555555,3.8888888888888893 -0.6565656565656557,3.8888888888888893 -0.7575757575757572,3.8888888888888893 -0.8585858585858579,3.8888888888888893 -0.9595959595959596,3.8888888888888893 -1.0606060606060603,3.8888888888888893 -1.1616161616161613,3.8888888888888893 -1.2626262626262625,3.8888888888888893 -1.363636363636363,3.8888888888888893 -1.4646464646464643,3.8888888888888893 -1.5656565656565653,3.8888888888888893 -1.6666666666666665,3.8888888888888893 -1.7676767676767675,3.8888888888888893 -1.8686868686868683,3.8888888888888893 -1.9696969696969693,3.8888888888888893 -2.07070707070707,3.8888888888888893 -2.1717171717171713,3.8888888888888893 -2.2727272727272725,3.8888888888888893 -2.3737373737373733,3.8888888888888893 -2.474747474747474,3.8888888888888893 -2.5757575757575752,3.8888888888888893 -2.6767676767676765,3.8888888888888893 -2.7777777777777777,3.8888888888888893 -2.8787878787878785,3.8888888888888893 -2.9797979797979792,3.8888888888888893 -3.0808080808080804,3.8888888888888893 -3.1818181818181817,3.8888888888888893 -3.2828282828282824,3.8888888888888893 -3.383838383838383,3.8888888888888893 -3.484848484848485,3.8888888888888893 -3.5858585858585856,3.8888888888888893 -3.6868686868686864,3.8888888888888893 -3.7878787878787876,3.8888888888888893 -3.8888888888888884,3.8888888888888893 -3.98989898989899,3.8888888888888893" data-type="line" data-label="" points="984,345.1313131313133 974.4646464646464,335.5959595959597 964.9292929292927,326.06060606060623 955.3939393939393,316.5252525252526 945.8585858585857,306.9898989898991 936.3232323232323,297.4545454545456 926.7878787878785,287.91919191919203 917.2525252525251,278.38383838383857 907.7171717171716,268.84848484848493 898.181818181818,259.3131313131314 888.6464646464647,249.77777777777794 879.111111111111,240.24242424242436 869.5757575757575,230.70707070707084 860.0404040404039,221.17171717171726 850.5050505050505,211.63636363636374 840.969696969697,202.10101010101027 831.4343434343433,192.56565656565675 821.8989898989898,183.03030303030312 812.3636363636363,173.4949494949496 802.8282828282828,163.95959595959613 793.2929292929292,154.4242424242426 783.7575757575758,144.88888888888908 774.2222222222222,144.88888888888908 764.6868686868686,144.88888888888908 755.1515151515151,144.88888888888908 745.6161616161615,144.88888888888908 736.0808080808081,144.88888888888908 726.5454545454545,144.88888888888908 717.0101010101009,144.88888888888908 707.4747474747475,144.88888888888908 697.9393939393939,144.88888888888908 688.4040404040404,144.88888888888908 678.8686868686868,144.88888888888908 669.3333333333333,144.88888888888908 659.7979797979798,144.88888888888908 650.2626262626262,144.88888888888908 640.7272727272727,144.88888888888908 631.1919191919192,144.88888888888908 621.6565656565656,144.88888888888908 612.1212121212121,144.88888888888908 602.5858585858585,144.88888888888908 593.0505050505051,144.88888888888908 583.5151515151515,144.88888888888908 573.9797979797979,144.88888888888908 564.4444444444445,144.88888888888908 554.9090909090909,144.88888888888908 545.3737373737374,144.88888888888908 535.8383838383838,144.88888888888908 526.3030303030303,144.88888888888908 516.7676767676768,144.88888888888908 507.2323232323232,144.88888888888908 497.69696969696975,144.88888888888908 488.16161616161617,144.88888888888908 478.62626262626264,144.88888888888908 469.09090909090907,144.88888888888908 459.55555555555554,144.88888888888908 450.0202020202021,144.88888888888908 440.4848484848485,144.88888888888908 430.949494949495,144.88888888888908 421.4141414141414,144.88888888888908 411.8787878787879,144.88888888888908 402.34343434343435,144.88888888888908 392.80808080808083,144.88888888888908 383.2727272727273,144.88888888888908 373.7373737373738,144.88888888888908 364.2020202020202,144.88888888888908 354.6666666666667,144.88888888888908 345.13131313131316,144.88888888888908 335.59595959595964,144.88888888888908 326.0606060606061,144.88888888888908 316.5252525252526,144.88888888888908 306.9898989898991,144.88888888888908 297.4545454545455,144.88888888888908 287.91919191919203,144.88888888888908 278.38383838383845,144.88888888888908 268.84848484848493,144.88888888888908 259.3131313131314,144.88888888888908 249.77777777777783,144.88888888888908 240.2424242424243,144.88888888888908 230.70707070707084,144.88888888888908 221.17171717171726,144.88888888888908 211.63636363636374,144.88888888888908 202.10101010101022,144.88888888888908 192.5656565656567,144.88888888888908 183.03030303030312,144.88888888888908 173.4949494949496,144.88888888888908 163.95959595959607,144.88888888888908 154.42424242424255,144.88888888888908 144.88888888888903,144.88888888888908 135.35353535353545,144.88888888888908" fill="none" stroke="rgba(255,0,0,0.75)" stroke-width="11.327999999999996"/></g><g><polyline data-points="-3.98989898989899,3.8888888888888893 -4.090909090909091,3.8888888888888893 -4.191919191919193,3.8888888888888893 -4.292929292929293,3.8888888888888893 -4.393939393939394,3.8888888888888893 -4.494949494949496,3.8888888888888893 -4.595959595959596,3.8888888888888893 -4.696969696969697,3.989898989898992 -4.7979797979797985,4.090909090909092 -4.898989898989899,4.191919191919193 -5.000000000000001,4.292929292929293" data-type="line" data-label="" points="135.35353535353545,144.88888888888908 125.81818181818193,144.88888888888908 116.28282828282829,144.88888888888908 106.74747474747483,144.88888888888908 97.21212121212136,144.88888888888908 87.67676767676772,144.88888888888908 78.14141414141426,144.88888888888908 68.60606060606068,135.35353535353545 59.07070707070716,125.81818181818198 49.53535353535369,116.28282828282846 40.00000000000006,106.747474747475" fill="none" stroke="rgba(0,0,255,0.75)" stroke-width="11.327999999999996"/></g><g><polyline data-points="-5.000000000000001,4.090909090909092 -5.000000000000001,3.989898989898992 -4.898989898989899,3.8888888888888893 -4.7979797979797985,3.7878787878787885 -4.696969696969697,3.6868686868686877 -4.595959595959596,3.6868686868686877 -4.494949494949496,3.6868686868686877 -4.393939393939394,3.6868686868686877 -4.292929292929293,3.6868686868686877 -4.191919191919193,3.5858585858585874 -4.090909090909091,3.4848484848484866 -3.98989898989899,3.383838383838384" data-type="line" data-label="" points="40.00000000000006,125.81818181818198 40.00000000000006,135.35353535353545 49.53535353535369,144.88888888888908 59.07070707070716,154.4242424242426 68.60606060606068,163.95959595959613 78.14141414141426,163.95959595959613 87.67676767676772,163.95959595959613 97.21212121212136,163.95959595959613 106.74747474747483,163.95959595959613 116.28282828282829,173.4949494949496 125.81818181818193,183.03030303030312 135.35353535353545,192.56565656565675" fill="none" stroke="rgba(0,0,255,0.75)" stroke-width="11.327999999999996"/></g><g><polyline data-points="-3.98989898989899,3.383838383838384 -3.98989898989899,3.4848484848484866 -4.090909090909091,3.5858585858585874 -4.090909090909091,3.6868686868686877 -4.191919191919193,3.7878787878787885 -4.292929292929293,3.8888888888888893 -4.191919191919193,3.989898989898992 -4.090909090909091,4.090909090909092 -3.98989898989899,4.191919191919193 -3.8888888888888884,4.292929292929293 -3.7878787878787876,4.393939393939394 -3.6868686868686864,4.494949494949497 -3.5858585858585856,4.595959595959597 -3.484848484848485,4.696969696969697 -3.383838383838383,4.7979797979797985 -3.2828282828282824,4.898989898989901 -3.1818181818181817,5.000000000000002 -3.0808080808080804,5.000000000000002 -2.9797979797979792,5.000000000000002 -2.8787878787878785,5.000000000000002 -2.7777777777777777,5.000000000000002" data-type="line" data-label="" points="135.35353535353545,192.56565656565675 135.35353535353545,183.03030303030312 125.81818181818193,173.4949494949496 125.81818181818193,163.95959595959613 116.28282828282829,154.4242424242426 106.74747474747483,144.88888888888908 116.28282828282829,135.35353535353545 125.81818181818193,125.81818181818198 135.35353535353545,116.28282828282846 144.88888888888903,106.747474747475 154.42424242424255,97.21212121212153 163.95959595959607,87.67676767676778 173.4949494949496,78.14141414141432 183.03030303030312,68.60606060606085 192.5656565656567,59.07070707070733 202.10101010101022,49.53535353535369 211.63636363636374,40.000000000000114 221.17171717171726,40.000000000000114 230.70707070707084,40.000000000000114 240.2424242424243,40.000000000000114 249.77777777777783,40.000000000000114" fill="none" stroke="rgba(255,0,0,0.75)" stroke-width="11.327999999999996"/></g><g><polyline data-points="-4.494949494949496,5.000000000000002 -4.494949494949496,4.898989898989901 -4.494949494949496,4.7979797979797985 -4.494949494949496,4.696969696969697 -4.393939393939394,4.595959595959597 -4.292929292929293,4.494949494949497 -4.191919191919193,4.393939393939394 -4.090909090909091,4.292929292929293 -3.98989898989899,4.191919191919193 -3.8888888888888884,4.090909090909092 -3.7878787878787876,3.989898989898992 -3.6868686868686864,3.8888888888888893 -3.6868686868686864,3.7878787878787885 -3.6868686868686864,3.6868686868686877 -3.6868686868686864,3.5858585858585874 -3.6868686868686864,3.4848484848484866 -3.6868686868686864,3.383838383838384 -3.6868686868686864,3.2828282828282833 -3.6868686868686864,3.181818181818183 -3.6868686868686864,3.080808080808082 -3.6868686868686864,2.9797979797979806 -3.6868686868686864,2.87878787878788 -3.6868686868686864,2.7777777777777786 -3.6868686868686864,2.676767676767678 -3.6868686868686864,2.575757575757577 -3.6868686868686864,2.4747474747474754 -3.6868686868686864,2.373737373737375 -3.6868686868686864,2.2727272727272734 -3.6868686868686864,2.1717171717171726 -3.6868686868686864,2.070707070707072 -3.6868686868686864,1.9696969696969702 -3.6868686868686864,1.8686868686868696 -3.6868686868686864,1.767676767676768 -3.6868686868686864,1.6666666666666674 -3.6868686868686864,1.5656565656565666 -3.7878787878787876,1.4646464646464652 -3.8888888888888884,1.3636363636363644 -3.98989898989899,1.262626262626263 -4.090909090909091,1.1616161616161622 -4.191919191919193,1.0606060606060617 -4.292929292929293,0.9595959595959602 -4.393939393939394,0.8585858585858596 -4.494949494949496,0.7575757575757579 -4.595959595959596,0.6565656565656574 -4.595959595959596,0.5555555555555567 -4.595959595959596,0.4545454545454551 -4.595959595959596,0.3535353535353544 -4.595959595959596,0.2525252525252529 -4.595959595959596,0.1515151515151522 -4.595959595959596,0.050505050505051545 -4.595959595959596,-0.05050505050505001 -4.595959595959596,-0.15151515151515066 -4.595959595959596,-0.2525252525252522 -4.595959595959596,-0.35353535353535287 -4.595959595959596,-0.4545454545454544 -4.595959595959596,-0.555555555555555 -4.595959595959596,-0.6565656565656557 -4.595959595959596,-0.7575757575757572 -4.595959595959596,-0.8585858585858579 -4.595959595959596,-0.9595959595959596 -4.595959595959596,-1.0606060606060603 -4.595959595959596,-1.1616161616161613 -4.595959595959596,-1.2626262626262625 -4.595959595959596,-1.363636363636363 -4.595959595959596,-1.4646464646464643 -4.595959595959596,-1.5656565656565653 -4.595959595959596,-1.6666666666666665 -4.595959595959596,-1.7676767676767675 -4.595959595959596,-1.8686868686868683 -4.595959595959596,-1.9696969696969693 -4.595959595959596,-2.07070707070707 -4.595959595959596,-2.1717171717171713 -4.595959595959596,-2.2727272727272725 -4.595959595959596,-2.3737373737373733 -4.595959595959596,-2.474747474747474 -4.595959595959596,-2.5757575757575752 -4.595959595959596,-2.6767676767676765 -4.595959595959596,-2.7777777777777777 -4.595959595959596,-2.8787878787878785 -4.595959595959596,-2.9797979797979792 -4.595959595959596,-3.0808080808080804 -4.595959595959596,-3.1818181818181817 -4.595959595959596,-3.2828282828282824 -4.595959595959596,-3.383838383838383 -4.595959595959596,-3.484848484848485 -4.595959595959596,-3.5858585858585856 -4.595959595959596,-3.6868686868686864 -4.595959595959596,-3.7878787878787876 -4.595959595959596,-3.8888888888888884 -4.595959595959596,-3.98989898989899 -4.595959595959596,-4.090909090909091 -4.595959595959596,-4.191919191919193 -4.595959595959596,-4.292929292929293 -4.595959595959596,-4.393939393939394 -4.595959595959596,-4.494949494949496 -4.595959595959596,-4.595959595959596 -4.595959595959596,-4.696969696969697 -4.595959595959596,-4.7979797979797985 -4.595959595959596,-4.898989898989899 -4.696969696969697,-5.000000000000001" data-type="line" data-label="" points="87.67676767676772,40.000000000000114 87.67676767676772,49.53535353535369 87.67676767676772,59.07070707070733 87.67676767676772,68.60606060606085 97.21212121212136,78.14141414141432 106.74747474747483,87.67676767676778 116.28282828282829,97.21212121212153 125.81818181818193,106.747474747475 135.35353535353545,116.28282828282846 144.88888888888903,125.81818181818198 154.42424242424255,135.35353535353545 163.95959595959607,144.88888888888908 163.95959595959607,154.4242424242426 163.95959595959607,163.95959595959613 163.95959595959607,173.4949494949496 163.95959595959607,183.03030303030312 163.95959595959607,192.56565656565675 163.95959595959607,202.10101010101027 163.95959595959607,211.63636363636374 163.95959595959607,221.17171717171726 163.95959595959607,230.70707070707084 163.95959595959607,240.24242424242436 163.95959595959607,249.77777777777794 163.95959595959607,259.3131313131314 163.95959595959607,268.84848484848493 163.95959595959607,278.38383838383857 163.95959595959607,287.91919191919203 163.95959595959607,297.4545454545456 163.95959595959607,306.9898989898991 163.95959595959607,316.5252525252526 163.95959595959607,326.06060606060623 163.95959595959607,335.5959595959597 163.95959595959607,345.1313131313133 163.95959595959607,354.66666666666674 163.95959595959607,364.2020202020203 154.42424242424255,373.73737373737384 144.88888888888903,383.27272727272737 135.35353535353545,392.80808080808094 125.81818181818193,402.3434343434344 116.28282828282829,411.87878787878793 106.74747474747483,421.4141414141415 97.21212121212136,430.94949494949503 87.67676767676772,440.4848484848486 78.14141414141426,450.0202020202021 78.14141414141426,459.5555555555556 78.14141414141426,469.0909090909092 78.14141414141426,478.6262626262627 78.14141414141426,488.1616161616163 78.14141414141426,497.69696969696975 78.14141414141426,507.23232323232327 78.14141414141426,516.7676767676768 78.14141414141426,526.3030303030304 78.14141414141426,535.838383838384 78.14141414141426,545.3737373737374 78.14141414141426,554.909090909091 78.14141414141426,564.4444444444445 78.14141414141426,573.979797979798 78.14141414141426,583.5151515151516 78.14141414141426,593.0505050505051 78.14141414141426,602.5858585858587 78.14141414141426,612.1212121212121 78.14141414141426,621.6565656565657 78.14141414141426,631.1919191919193 78.14141414141426,640.7272727272727 78.14141414141426,650.2626262626263 78.14141414141426,659.7979797979798 78.14141414141426,669.3333333333334 78.14141414141426,678.8686868686868 78.14141414141426,688.4040404040404 78.14141414141426,697.939393939394 78.14141414141426,707.4747474747475 78.14141414141426,717.010101010101 78.14141414141426,726.5454545454545 78.14141414141426,736.0808080808081 78.14141414141426,745.6161616161615 78.14141414141426,755.1515151515151 78.14141414141426,764.6868686868687 78.14141414141426,774.2222222222222 78.14141414141426,783.7575757575758 78.14141414141426,793.2929292929292 78.14141414141426,802.8282828282828 78.14141414141426,812.3636363636363 78.14141414141426,821.8989898989898 78.14141414141426,831.4343434343434 78.14141414141426,840.969696969697 78.14141414141426,850.5050505050505 78.14141414141426,860.0404040404039 78.14141414141426,869.5757575757575 78.14141414141426,879.1111111111111 78.14141414141426,888.6464646464647 78.14141414141426,898.1818181818181 78.14141414141426,907.7171717171718 78.14141414141426,917.2525252525252 78.14141414141426,926.7878787878788 78.14141414141426,936.3232323232323 78.14141414141426,945.8585858585858 78.14141414141426,955.3939393939394 78.14141414141426,964.9292929292928 78.14141414141426,974.4646464646464 68.60606060606068,984" fill="none" stroke="rgba(0,0,255,0.75)" stroke-width="11.327999999999996"/></g><g><polyline data-points="2.575757575757577,-5.000000000000001 2.676767676767678,-5.000000000000001 2.7777777777777786,-4.898989898989899 2.87878787878788,-4.7979797979797985 2.9797979797979806,-4.696969696969697 3.080808080808082,-4.595959595959596 3.181818181818183,-4.494949494949496 3.2828282828282833,-4.393939393939394 3.383838383838384,-4.292929292929293 3.4848484848484866,-4.191919191919193 3.5858585858585874,-4.090909090909091 3.6868686868686877,-3.98989898989899 3.7878787878787885,-3.8888888888888884 3.8888888888888893,-3.7878787878787876 3.989898989898992,-3.6868686868686864 3.8888888888888893,-3.5858585858585856 3.8888888888888893,-3.484848484848485 3.8888888888888893,-3.383838383838383 3.8888888888888893,-3.2828282828282824 3.8888888888888893,-3.1818181818181817 3.8888888888888893,-3.0808080808080804 3.8888888888888893,-2.9797979797979792 3.8888888888888893,-2.8787878787878785 3.8888888888888893,-2.7777777777777777 3.8888888888888893,-2.6767676767676765 3.8888888888888893,-2.5757575757575752 3.8888888888888893,-2.474747474747474 3.8888888888888893,-2.3737373737373733 3.8888888888888893,-2.2727272727272725 3.8888888888888893,-2.1717171717171713 3.8888888888888893,-2.07070707070707 3.8888888888888893,-1.9696969696969693 3.8888888888888893,-1.8686868686868683 3.8888888888888893,-1.7676767676767675 3.8888888888888893,-1.6666666666666665 3.8888888888888893,-1.5656565656565653 3.8888888888888893,-1.4646464646464643 3.8888888888888893,-1.363636363636363 3.8888888888888893,-1.2626262626262625 3.8888888888888893,-1.1616161616161613 3.8888888888888893,-1.0606060606060603 3.8888888888888893,-0.9595959595959596 3.8888888888888893,-0.8585858585858579 3.8888888888888893,-0.7575757575757572 3.8888888888888893,-0.6565656565656557 3.8888888888888893,-0.555555555555555 3.8888888888888893,-0.4545454545454544 3.8888888888888893,-0.35353535353535287 3.8888888888888893,-0.2525252525252522 3.8888888888888893,-0.15151515151515066 3.8888888888888893,-0.05050505050505001 3.8888888888888893,0.050505050505051545 3.8888888888888893,0.1515151515151522 3.8888888888888893,0.2525252525252529 3.8888888888888893,0.3535353535353544 3.8888888888888893,0.4545454545454551 3.8888888888888893,0.5555555555555567 3.8888888888888893,0.6565656565656574 3.8888888888888893,0.7575757575757579 3.8888888888888893,0.8585858585858596 3.8888888888888893,0.9595959595959602 3.8888888888888893,1.0606060606060617 3.8888888888888893,1.1616161616161622 3.8888888888888893,1.262626262626263 3.8888888888888893,1.3636363636363644 3.8888888888888893,1.4646464646464652 3.8888888888888893,1.5656565656565666 3.8888888888888893,1.6666666666666674 3.8888888888888893,1.767676767676768 3.8888888888888893,1.8686868686868696 3.8888888888888893,1.9696969696969702 3.8888888888888893,2.070707070707072" data-type="line" data-label="" points="755.1515151515151,984 764.6868686868686,984 774.2222222222222,974.4646464646464 783.7575757575758,964.9292929292928 793.2929292929292,955.3939393939394 802.8282828282828,945.8585858585858 812.3636363636363,936.3232323232323 821.8989898989898,926.7878787878788 831.4343434343433,917.2525252525252 840.969696969697,907.7171717171718 850.5050505050505,898.1818181818181 860.0404040404039,888.6464646464647 869.5757575757575,879.1111111111111 879.111111111111,869.5757575757575 888.6464646464647,860.0404040404039 879.111111111111,850.5050505050505 879.111111111111,840.969696969697 879.111111111111,831.4343434343434 879.111111111111,821.8989898989898 879.111111111111,812.3636363636363 879.111111111111,802.8282828282828 879.111111111111,793.2929292929292 879.111111111111,783.7575757575758 879.111111111111,774.2222222222222 879.111111111111,764.6868686868687 879.111111111111,755.1515151515151 879.111111111111,745.6161616161615 879.111111111111,736.0808080808081 879.111111111111,726.5454545454545 879.111111111111,717.010101010101 879.111111111111,707.4747474747475 879.111111111111,697.939393939394 879.111111111111,688.4040404040404 879.111111111111,678.8686868686868 879.111111111111,669.3333333333334 879.111111111111,659.7979797979798 879.111111111111,650.2626262626263 879.111111111111,640.7272727272727 879.111111111111,631.1919191919193 879.111111111111,621.6565656565657 879.111111111111,612.1212121212121 879.111111111111,602.5858585858587 879.111111111111,593.0505050505051 879.111111111111,583.5151515151516 879.111111111111,573.979797979798 879.111111111111,564.4444444444445 879.111111111111,554.909090909091 879.111111111111,545.3737373737374 879.111111111111,535.838383838384 879.111111111111,526.3030303030304 879.111111111111,516.7676767676768 879.111111111111,507.23232323232327 879.111111111111,497.69696969696975 879.111111111111,488.1616161616163 879.111111111111,478.6262626262627 879.111111111111,469.0909090909092 879.111111111111,459.5555555555556 879.111111111111,450.0202020202021 879.111111111111,440.4848484848486 879.111111111111,430.94949494949503 879.111111111111,421.4141414141415 879.111111111111,411.87878787878793 879.111111111111,402.3434343434344 879.111111111111,392.80808080808094 879.111111111111,383.27272727272737 879.111111111111,373.73737373737384 879.111111111111,364.2020202020203 879.111111111111,354.66666666666674 879.111111111111,345.1313131313133 879.111111111111,335.5959595959597 879.111111111111,326.06060606060623 879.111111111111,316.5252525252526" fill="none" stroke="rgba(255,0,0,0.75)" stroke-width="11.327999999999996"/></g><g><polyline data-points="3.8888888888888893,2.070707070707072 3.8888888888888893,2.1717171717171726 3.8888888888888893,2.2727272727272734 3.8888888888888893,2.373737373737375 3.8888888888888893,2.4747474747474754 3.8888888888888893,2.575757575757577 3.8888888888888893,2.676767676767678 3.8888888888888893,2.7777777777777786 3.8888888888888893,2.87878787878788 3.8888888888888893,2.9797979797979806 3.8888888888888893,3.080808080808082 3.8888888888888893,3.181818181818183 3.8888888888888893,3.2828282828282833 3.8888888888888893,3.383838383838384 3.8888888888888893,3.4848484848484866 3.8888888888888893,3.5858585858585874 3.8888888888888893,3.6868686868686877 3.989898989898992,3.7878787878787885 4.090909090909092,3.8888888888888893 4.191919191919193,3.989898989898992 4.191919191919193,4.090909090909092 4.191919191919193,4.191919191919193 4.191919191919193,4.292929292929293 4.191919191919193,4.393939393939394 4.191919191919193,4.494949494949497 4.191919191919193,4.595959595959597 4.191919191919193,4.696969696969697 4.191919191919193,4.7979797979797985 4.191919191919193,4.898989898989901 4.292929292929293,5.000000000000002" data-type="line" data-label="" points="879.111111111111,316.5252525252526 879.111111111111,306.9898989898991 879.111111111111,297.4545454545456 879.111111111111,287.91919191919203 879.111111111111,278.38383838383857 879.111111111111,268.84848484848493 879.111111111111,259.3131313131314 879.111111111111,249.77777777777794 879.111111111111,240.24242424242436 879.111111111111,230.70707070707084 879.111111111111,221.17171717171726 879.111111111111,211.63636363636374 879.111111111111,202.10101010101027 879.111111111111,192.56565656565675 879.111111111111,183.03030303030312 879.111111111111,173.4949494949496 879.111111111111,163.95959595959613 888.6464646464647,154.4242424242426 898.181818181818,144.88888888888908 907.7171717171716,135.35353535353545 907.7171717171716,125.81818181818198 907.7171717171716,116.28282828282846 907.7171717171716,106.747474747475 907.7171717171716,97.21212121212153 907.7171717171716,87.67676767676778 907.7171717171716,78.14141414141432 907.7171717171716,68.60606060606085 907.7171717171716,59.07070707070733 907.7171717171716,49.53535353535369 917.2525252525251,40.000000000000114" fill="none" stroke="rgba(0,0,255,0.75)" stroke-width="11.327999999999996"/></g><g><rect data-type="rect" data-label="" data-x="0" data-y="0" x="40.000000000000114" y="40.000000000000284" width="943.9999999999997" height="943.9999999999998" fill="none" stroke="gray" stroke-width="0.010593220338983056"/></g><g><rect data-type="rect" data-label="" data-x="0" data-y="0" x="40.000000000000114" y="40.000000000000284" width="943.9999999999997" height="943.9999999999998" fill="none" stroke="rgba(15, 23, 42, 0.8)" stroke-width="0.010593220338983056"/></g><circle data-type="circle" data-label="" data-x="3.7878787878787885" data-y="3.989898989898992" cx="869.5757575757575" cy="135.35353535353545" r="14.159999999999995" fill="rgba(0,0,0,0.3)" stroke="black" stroke-width="0.010593220338983056"/><circle data-type="circle" data-label="" data-x="3.181818181818183" data-y="1.3636363636363644" cx="812.3636363636363" cy="383.27272727272737" r="14.159999999999995" fill="rgba(0,0,0,0.3)" stroke="black" stroke-width="0.010593220338983056"/><circle data-type="circle" data-label="" data-x="-3.98989898989899" data-y="1.5656565656565666" cx="135.35353535353545" cy="364.2020202020203" r="14.159999999999995" fill="rgba(0,0,0,0.3)" stroke="black" stroke-width="0.010593220338983056"/><circle data-type="circle" data-label="" data-x="0.1515151515151522" data-y="-1.6666666666666665" cx="526.3030303030303" cy="669.3333333333334" r="14.159999999999995" fill="rgba(0,0,0,0.3)" stroke="black" stroke-width="0.010593220338983056"/><circle data-type="circle" data-label="" data-x="-2.6767676767676765" data-y="1.1616161616161622" cx="259.3131313131314" cy="402.3434343434344" r="14.159999999999995" fill="rgba(0,0,0,0.3)" stroke="black" stroke-width="0.010593220338983056"/><circle data-type="circle" data-label="" data-x="-3.98989898989899" data-y="3.8888888888888893" cx="135.35353535353545" cy="144.88888888888908" r="14.159999999999995" fill="rgba(0,0,0,0.3)" stroke="black" stroke-width="0.010593220338983056"/><circle data-type="circle" data-label="" data-x="-3.98989898989899" data-y="3.383838383838384" cx="135.35353535353545" cy="192.56565656565675" r="14.159999999999995" fill="rgba(0,0,0,0.3)" stroke="black" stroke-width="0.010593220338983056"/><circle data-type="circle" data-label="" data-x="3.8888888888888893" data-y="2.070707070707072" cx="879.111111111111" cy="316.5252525252526" r="14.159999999999995" fill="rgba(0,0,0,0.3)" stroke="black" stroke-width="0.010593220338983056"/><g id="crosshair" style="display: none"><line id="crosshair-h" y1="0" y2="1024" stroke="#666" stroke-width="0.5"/><line id="crosshair-v" x1="0" x2="1024" stroke="#666" stroke-width="0.5"/><text id="coordinates" font-family="monospace" font-size="12" fill="#666"></text></g><script><![CDATA[
              document.currentScript.parentElement.addEventListener('mousemove', (e) => {
                const svg = e.currentTarget;
                const rect = svg.getBoundingClientRect();
                const x = e.clientX - rect.left;
                const y = e.clientY - rect.top;
                const crosshair = svg.getElementById('crosshair');
                const h = svg.getElementById('crosshair-h');
                const v = svg.getElementById('crosshair-v');
                const coords = svg.getElementById('coordinates');
                
                crosshair.style.display = 'block';
                h.setAttribute('x1', '0');
                h.setAttribute('x2', '1024');
                h.setAttribute('y1', y);
                h.setAttribute('y2', y);
                v.setAttribute('x1', x);
                v.setAttribute('x2', x);
                v.setAttribute('y1', '0');
                v.setAttribute('y2', '1024');

                // Calculate real coordinates using inverse transformation
                const matrix = {"a":94.39999999999996,"c":0,"e":511.99999999999994,"b":0,"d":-94.39999999999996,"f":512.0000000000001};
                // Manually invert and apply the affine transform
                // Since we only use translate and scale, we can directly compute:
                // x' = (x - tx) / sx
                // y' = (y - ty) / sy
                const sx = matrix.a;
                const sy = matrix.d;
                const tx = matrix.e; 
                const ty = matrix.f;
                const realPoint = {
                  x: (x - tx) / sx,
                  y: (y - ty) / sy // Flip y back since we used negative scale
                }
                
                coords.textContent = `(${realPoint.x.toFixed(2)}, ${realPoint.y.toFixed(2)})`;
                coords.setAttribute('x', (x + 5).toString());
                coords.setAttribute('y', (y - 5).toString());
              });
              document.currentScript.parentElement.addEventListener('mouseleave', () => {
                document.currentScript.parentElement.getElementById('crosshair').style.display = 'none';
              });
            ]]></script></svg>