<svg width="1024" height="1024" viewBox="0 0 1024 1024" xmlns="http://www.w3.org/2000/svg"><rect width="100%" height="100%" fill="white"/><g><circle data-type="point" data-label="conn_000" data-x="-5" data-y="2.52" cx="40.000000000000114" cy="274.1120000000002" r="14.16" fill="blue"/></g><g><circle data-type="point" data-label="conn_000" data-x="5" data-y="1.78" cx="983.9999999999998" cy="343.9680000000002" r="14.16" fill="blue"/></g><g><circle data-type="point" data-label="conn_001" data-x="5" data-y="-3.5" cx="983.9999999999998" cy="842.4" r="14.16" fill="red"/></g><g><circle data-type="point" data-label="conn_001" data-x="-5" data-y="-2.2600000000000002" cx="40.000000000000114" cy="725.344" r="14.16" fill="red"/></g><g><circle data-type="point" data-label="conn_002" data-x="-0.9" data-y="-5" cx="427.03999999999996" cy="984" r="14.16" fill="red"/></g><g><circle data-type="point" data-label="conn_002" data-x="5" data-y="-2.5" cx="983.9999999999998" cy="748" r="14.16" fill="blue"/></g><g><circle data-type="point" data-label="conn_003" data-x="4.46" data-y="-5" cx="933.0239999999998" cy="984" r="14.16" fill="blue"/></g><g><circle data-type="point" data-label="conn_003" data-x="-3.1" data-y="5" cx="219.36000000000007" cy="40.000000000000284" r="14.16" fill="blue"/></g><g><polyline data-points="-0.9595959595959596,-5.000000000000001 -0.8585858585858579,-4.898989898989899 -0.7575757575757572,-4.7979797979797985 -0.6565656565656557,-4.696969696969697 -0.555555555555555,-4.595959595959596 -0.4545454545454544,-4.494949494949496 -0.35353535353535287,-4.393939393939394 -0.2525252525252522,-4.292929292929293 -0.15151515151515066,-4.191919191919193 -0.05050505050505001,-4.090909090909091 0.050505050505051545,-3.98989898989899 0.1515151515151522,-3.8888888888888884 0.2525252525252529,-3.7878787878787876 0.3535353535353544,-3.6868686868686864 0.4545454545454551,-3.5858585858585856 0.5555555555555567,-3.484848484848485 0.6565656565656574,-3.383838383838383 0.7575757575757579,-3.2828282828282824 0.8585858585858596,-3.1818181818181817 0.9595959595959602,-3.0808080808080804 1.0606060606060617,-2.9797979797979792 1.1616161616161622,-2.8787878787878785 1.262626262626263,-2.7777777777777777 1.3636363636363644,-2.6767676767676765 1.4646464646464652,-2.5757575757575752 1.5656565656565666,-2.474747474747474 1.6666666666666674,-2.474747474747474 1.767676767676768,-2.474747474747474 1.8686868686868696,-2.474747474747474 1.9696969696969702,-2.474747474747474 2.070707070707072,-2.474747474747474 2.1717171717171726,-2.474747474747474 2.2727272727272734,-2.474747474747474 2.373737373737375,-2.474747474747474 2.4747474747474754,-2.474747474747474 2.575757575757577,-2.474747474747474 2.676767676767678,-2.474747474747474 2.7777777777777786,-2.474747474747474 2.87878787878788,-2.474747474747474 2.9797979797979806,-2.474747474747474 3.080808080808082,-2.474747474747474 3.181818181818183,-2.474747474747474 3.2828282828282833,-2.474747474747474 3.383838383838384,-2.474747474747474 3.4848484848484866,-2.474747474747474 3.5858585858585874,-2.474747474747474 3.6868686868686877,-2.474747474747474 3.7878787878787885,-2.474747474747474 3.8888888888888893,-2.474747474747474 3.989898989898992,-2.474747474747474" data-type="line" data-label="" points="421.4141414141414,984 430.949494949495,974.4646464646464 440.4848484848485,964.9292929292928 450.0202020202021,955.3939393939394 459.55555555555554,945.8585858585858 469.09090909090907,936.3232323232323 478.62626262626264,926.7878787878788 488.16161616161617,917.2525252525252 497.69696969696975,907.7171717171718 507.2323232323232,898.1818181818181 516.7676767676768,888.6464646464647 526.3030303030303,879.1111111111111 535.8383838383838,869.5757575757575 545.3737373737374,860.0404040404039 554.9090909090909,850.5050505050505 564.4444444444445,840.969696969697 573.9797979797979,831.4343434343434 583.5151515151515,821.8989898989898 593.0505050505051,812.3636363636363 602.5858585858585,802.8282828282828 612.1212121212121,793.2929292929292 621.6565656565656,783.7575757575758 631.1919191919192,774.2222222222222 640.7272727272727,764.6868686868687 650.2626262626262,755.1515151515151 659.7979797979798,745.6161616161615 669.3333333333333,745.6161616161615 678.8686868686868,745.6161616161615 688.4040404040404,745.6161616161615 697.9393939393939,745.6161616161615 707.4747474747475,745.6161616161615 717.0101010101009,745.6161616161615 726.5454545454545,745.6161616161615 736.0808080808081,745.6161616161615 745.6161616161615,745.6161616161615 755.1515151515151,745.6161616161615 764.6868686868686,745.6161616161615 774.2222222222222,745.6161616161615 783.7575757575758,745.6161616161615 793.2929292929292,745.6161616161615 802.8282828282828,745.6161616161615 812.3636363636363,745.6161616161615 821.8989898989898,745.6161616161615 831.4343434343433,745.6161616161615 840.969696969697,745.6161616161615 850.5050505050505,745.6161616161615 860.0404040404039,745.6161616161615 869.5757575757575,745.6161616161615 879.111111111111,745.6161616161615 888.6464646464647,745.6161616161615" fill="none" stroke="rgba(255,0,0,0.75)" stroke-width="11.327999999999996"/></g><g><polyline data-points="3.989898989898992,-2.474747474747474 4.090909090909092,-2.474747474747474 4.191919191919193,-2.474747474747474 4.292929292929293,-2.474747474747474 4.393939393939394,-2.474747474747474 4.494949494949497,-2.474747474747474 4.595959595959597,-2.474747474747474 4.696969696969697,-2.474747474747474 4.7979797979797985,-2.474747474747474 4.898989898989901,-2.474747474747474 5.000000000000002,-2.474747474747474" data-type="line" data-label="" points="888.6464646464647,745.6161616161615 898.181818181818,745.6161616161615 907.7171717171716,745.6161616161615 917.2525252525251,745.6161616161615 926.7878787878785,745.6161616161615 936.3232323232323,745.6161616161615 945.8585858585857,745.6161616161615 955.3939393939393,745.6161616161615 964.9292929292927,745.6161616161615 974.4646464646464,745.6161616161615 984,745.6161616161615" fill="none" stroke="rgba(0,0,255,0.75)" stroke-width="11.327999999999996"/></g><g><polyline data-points="4.494949494949497,-5.000000000000001 4.393939393939394,-4.898989898989899 4.292929292929293,-4.7979797979797985 4.191919191919193,-4.696969696969697 4.090909090909092,-4.595959595959596 3.989898989898992,-4.494949494949496 3.8888888888888893,-4.393939393939394 3.7878787878787885,-4.292929292929293 3.6868686868686877,-4.191919191919193 3.5858585858585874,-4.090909090909091 3.4848484848484866,-3.98989898989899 3.383838383838384,-3.8888888888888884 3.2828282828282833,-3.7878787878787876 3.181818181818183,-3.6868686868686864 3.080808080808082,-3.5858585858585856 2.9797979797979806,-3.484848484848485 2.87878787878788,-3.383838383838383 2.7777777777777786,-3.2828282828282824 2.676767676767678,-3.1818181818181817 2.575757575757577,-3.0808080808080804 2.4747474747474754,-2.9797979797979792 2.373737373737375,-2.8787878787878785 2.2727272727272734,-2.7777777777777777 2.1717171717171726,-2.6767676767676765 2.070707070707072,-2.5757575757575752 1.9696969696969702,-2.474747474747474 1.8686868686868696,-2.3737373737373733 1.767676767676768,-2.2727272727272725 1.6666666666666674,-2.1717171717171713 1.5656565656565666,-2.07070707070707 1.4646464646464652,-1.9696969696969693 1.3636363636363644,-1.8686868686868683 1.262626262626263,-1.7676767676767675 1.1616161616161622,-1.6666666666666665 1.0606060606060617,-1.5656565656565653 0.9595959595959602,-1.4646464646464643 0.8585858585858596,-1.363636363636363 0.7575757575757579,-1.2626262626262625 0.6565656565656574,-1.1616161616161613 0.5555555555555567,-1.0606060606060603 0.4545454545454551,-0.9595959595959596 0.3535353535353544,-0.8585858585858579 0.2525252525252529,-0.7575757575757572 0.1515151515151522,-0.6565656565656557 0.050505050505051545,-0.555555555555555 -0.05050505050505001,-0.4545454545454544 -0.15151515151515066,-0.35353535353535287 -0.2525252525252522,-0.2525252525252522 -0.35353535353535287,-0.15151515151515066 -0.4545454545454544,-0.05050505050505001 -0.555555555555555,0.050505050505051545 -0.6565656565656557,0.1515151515151522 -0.7575757575757572,0.2525252525252529 -0.8585858585858579,0.3535353535353544 -0.9595959595959596,0.4545454545454551 -1.0606060606060603,0.5555555555555567 -1.1616161616161613,0.6565656565656574 -1.2626262626262625,0.7575757575757579 -1.363636363636363,0.8585858585858596 -1.4646464646464643,0.9595959595959602 -1.5656565656565653,1.0606060606060617 -1.6666666666666665,1.1616161616161622 -1.7676767676767675,1.262626262626263 -1.8686868686868683,1.3636363636363644 -1.9696969696969693,1.4646464646464652 -2.07070707070707,1.5656565656565666 -2.1717171717171713,1.6666666666666674 -2.2727272727272725,1.767676767676768 -2.3737373737373733,1.8686868686868696 -2.474747474747474,1.9696969696969702 -2.5757575757575752,2.070707070707072 -2.6767676767676765,2.1717171717171726 -2.7777777777777777,2.2727272727272734 -2.8787878787878785,2.373737373737375 -2.9797979797979792,2.4747474747474754 -3.0808080808080804,2.575757575757577 -3.1818181818181817,2.676767676767678 -3.1818181818181817,2.7777777777777786 -3.1818181818181817,2.87878787878788 -3.1818181818181817,2.9797979797979806 -3.1818181818181817,3.080808080808082 -3.1818181818181817,3.181818181818183 -3.1818181818181817,3.2828282828282833 -3.1818181818181817,3.383838383838384 -3.1818181818181817,3.4848484848484866 -3.1818181818181817,3.5858585858585874 -3.1818181818181817,3.6868686868686877 -3.1818181818181817,3.7878787878787885 -3.1818181818181817,3.8888888888888893 -3.1818181818181817,3.989898989898992 -3.1818181818181817,4.090909090909092 -3.1818181818181817,4.191919191919193 -3.1818181818181817,4.292929292929293 -3.1818181818181817,4.393939393939394 -3.1818181818181817,4.494949494949497 -3.1818181818181817,4.595959595959597 -3.1818181818181817,4.696969696969697 -3.1818181818181817,4.7979797979797985 -3.1818181818181817,4.898989898989901 -3.1818181818181817,5.000000000000002" data-type="line" data-label="" points="936.3232323232323,984 926.7878787878785,974.4646464646464 917.2525252525251,964.9292929292928 907.7171717171716,955.3939393939394 898.181818181818,945.8585858585858 888.6464646464647,936.3232323232323 879.111111111111,926.7878787878788 869.5757575757575,917.2525252525252 860.0404040404039,907.7171717171718 850.5050505050505,898.1818181818181 840.969696969697,888.6464646464647 831.4343434343433,879.1111111111111 821.8989898989898,869.5757575757575 812.3636363636363,860.0404040404039 802.8282828282828,850.5050505050505 793.2929292929292,840.969696969697 783.7575757575758,831.4343434343434 774.2222222222222,821.8989898989898 764.6868686868686,812.3636363636363 755.1515151515151,802.8282828282828 745.6161616161615,793.2929292929292 736.0808080808081,783.7575757575758 726.5454545454545,774.2222222222222 717.0101010101009,764.6868686868687 707.4747474747475,755.1515151515151 697.9393939393939,745.6161616161615 688.4040404040404,736.0808080808081 678.8686868686868,726.5454545454545 669.3333333333333,717.010101010101 659.7979797979798,707.4747474747475 650.2626262626262,697.939393939394 640.7272727272727,688.4040404040404 631.1919191919192,678.8686868686868 621.6565656565656,669.3333333333334 612.1212121212121,659.7979797979798 602.5858585858585,650.2626262626263 593.0505050505051,640.7272727272727 583.5151515151515,631.1919191919193 573.9797979797979,621.6565656565657 564.4444444444445,612.1212121212121 554.9090909090909,602.5858585858587 545.3737373737374,593.0505050505051 535.8383838383838,583.5151515151516 526.3030303030303,573.979797979798 516.7676767676768,564.4444444444445 507.2323232323232,554.909090909091 497.69696969696975,545.3737373737374 488.16161616161617,535.838383838384 478.62626262626264,526.3030303030304 469.09090909090907,516.7676767676768 459.55555555555554,507.23232323232327 450.0202020202021,497.69696969696975 440.4848484848485,488.1616161616163 430.949494949495,478.6262626262627 421.4141414141414,469.0909090909092 411.8787878787879,459.5555555555556 402.34343434343435,450.0202020202021 392.80808080808083,440.4848484848486 383.2727272727273,430.94949494949503 373.7373737373738,421.4141414141415 364.2020202020202,411.87878787878793 354.6666666666667,402.3434343434344 345.13131313131316,392.80808080808094 335.59595959595964,383.27272727272737 326.0606060606061,373.73737373737384 316.5252525252526,364.2020202020203 306.9898989898991,354.66666666666674 297.4545454545455,345.1313131313133 287.91919191919203,335.5959595959597 278.38383838383845,326.06060606060623 268.84848484848493,316.5252525252526 259.3131313131314,306.9898989898991 249.77777777777783,297.4545454545456 240.2424242424243,287.91919191919203 230.70707070707084,278.38383838383857 221.17171717171726,268.84848484848493 211.63636363636374,259.3131313131314 211.63636363636374,249.77777777777794 211.63636363636374,240.24242424242436 211.63636363636374,230.70707070707084 211.63636363636374,221.17171717171726 211.63636363636374,211.63636363636374 211.63636363636374,202.10101010101027 211.63636363636374,192.56565656565675 211.63636363636374,183.03030303030312 211.63636363636374,173.4949494949496 211.63636363636374,163.95959595959613 211.63636363636374,154.4242424242426 211.63636363636374,144.88888888888908 211.63636363636374,135.35353535353545 211.63636363636374,125.81818181818198 211.63636363636374,116.28282828282846 211.63636363636374,106.747474747475 211.63636363636374,97.21212121212153 211.63636363636374,87.67676767676778 211.63636363636374,78.14141414141432 211.63636363636374,68.60606060606085 211.63636363636374,59.07070707070733 211.63636363636374,49.53535353535369 211.63636363636374,40.000000000000114" fill="none" stroke="rgba(0,0,255,0.75)" stroke-width="11.327999999999996"/></g><g><polyline data-points="5.000000000000002,-3.484848484848485 4.898989898989901,-3.383838383838383 4.7979797979797985,-3.2828282828282824 4.696969696969697,-3.1818181818181817 4.595959595959597,-3.0808080808080804 4.494949494949497,-2.9797979797979792 4.393939393939394,-2.8787878787878785 4.292929292929293,-2.7777777777777777 4.292929292929293,-2.6767676767676765 4.292929292929293,-2.5757575757575752 4.292929292929293,-2.474747474747474 4.191919191919193,-2.3737373737373733 4.090909090909092,-2.2727272727272725 3.989898989898992,-2.1717171717171713 3.8888888888888893,-2.2727272727272725 3.7878787878787885,-2.2727272727272725 3.6868686868686877,-2.2727272727272725 3.5858585858585874,-2.2727272727272725 3.4848484848484866,-2.2727272727272725 3.383838383838384,-2.2727272727272725 3.2828282828282833,-2.2727272727272725 3.181818181818183,-2.2727272727272725 3.080808080808082,-2.2727272727272725 2.9797979797979806,-2.2727272727272725 2.87878787878788,-2.2727272727272725 2.7777777777777786,-2.2727272727272725 2.676767676767678,-2.2727272727272725 2.575757575757577,-2.2727272727272725 2.4747474747474754,-2.2727272727272725 2.373737373737375,-2.2727272727272725 2.2727272727272734,-2.2727272727272725 2.1717171717171726,-2.2727272727272725 2.070707070707072,-2.2727272727272725 1.9696969696969702,-2.2727272727272725 1.8686868686868696,-2.2727272727272725 1.767676767676768,-2.2727272727272725 1.6666666666666674,-2.2727272727272725 1.5656565656565666,-2.2727272727272725 1.4646464646464652,-2.2727272727272725 1.3636363636363644,-2.2727272727272725 1.262626262626263,-2.2727272727272725 1.1616161616161622,-2.2727272727272725 1.0606060606060617,-2.2727272727272725 0.9595959595959602,-2.2727272727272725 0.8585858585858596,-2.2727272727272725 0.7575757575757579,-2.2727272727272725 0.6565656565656574,-2.2727272727272725 0.5555555555555567,-2.2727272727272725 0.4545454545454551,-2.2727272727272725 0.3535353535353544,-2.2727272727272725 0.2525252525252529,-2.2727272727272725 0.1515151515151522,-2.2727272727272725 0.050505050505051545,-2.2727272727272725 -0.05050505050505001,-2.2727272727272725 -0.15151515151515066,-2.2727272727272725 -0.2525252525252522,-2.2727272727272725 -0.35353535353535287,-2.2727272727272725 -0.4545454545454544,-2.2727272727272725 -0.555555555555555,-2.2727272727272725 -0.6565656565656557,-2.2727272727272725 -0.7575757575757572,-2.2727272727272725 -0.8585858585858579,-2.2727272727272725 -0.9595959595959596,-2.2727272727272725 -1.0606060606060603,-2.2727272727272725 -1.1616161616161613,-2.2727272727272725 -1.2626262626262625,-2.2727272727272725 -1.363636363636363,-2.2727272727272725 -1.4646464646464643,-2.2727272727272725 -1.5656565656565653,-2.2727272727272725 -1.6666666666666665,-2.2727272727272725 -1.7676767676767675,-2.2727272727272725 -1.8686868686868683,-2.2727272727272725 -1.9696969696969693,-2.2727272727272725 -2.07070707070707,-2.2727272727272725 -2.1717171717171713,-2.2727272727272725 -2.2727272727272725,-2.2727272727272725 -2.3737373737373733,-2.2727272727272725 -2.474747474747474,-2.2727272727272725 -2.5757575757575752,-2.2727272727272725 -2.6767676767676765,-2.2727272727272725 -2.7777777777777777,-2.2727272727272725 -2.8787878787878785,-2.2727272727272725 -2.9797979797979792,-2.2727272727272725 -3.0808080808080804,-2.2727272727272725 -3.1818181818181817,-2.2727272727272725 -3.2828282828282824,-2.2727272727272725 -3.383838383838383,-2.2727272727272725 -3.484848484848485,-2.2727272727272725 -3.5858585858585856,-2.2727272727272725 -3.6868686868686864,-2.2727272727272725 -3.7878787878787876,-2.2727272727272725 -3.8888888888888884,-2.2727272727272725 -3.98989898989899,-2.2727272727272725 -4.090909090909091,-2.2727272727272725 -4.191919191919193,-2.2727272727272725 -4.292929292929293,-2.2727272727272725 -4.393939393939394,-2.2727272727272725 -4.494949494949496,-2.2727272727272725 -4.595959595959596,-2.2727272727272725 -4.696969696969697,-2.2727272727272725 -4.7979797979797985,-2.2727272727272725 -4.898989898989899,-2.2727272727272725 -5.000000000000001,-2.2727272727272725" data-type="line" data-label="" points="984,840.969696969697 974.4646464646464,831.4343434343434 964.9292929292927,821.8989898989898 955.3939393939393,812.3636363636363 945.8585858585857,802.8282828282828 936.3232323232323,793.2929292929292 926.7878787878785,783.7575757575758 917.2525252525251,774.2222222222222 917.2525252525251,764.6868686868687 917.2525252525251,755.1515151515151 917.2525252525251,745.6161616161615 907.7171717171716,736.0808080808081 898.181818181818,726.5454545454545 888.6464646464647,717.010101010101 879.111111111111,726.5454545454545 869.5757575757575,726.5454545454545 860.0404040404039,726.5454545454545 850.5050505050505,726.5454545454545 840.969696969697,726.5454545454545 831.4343434343433,726.5454545454545 821.8989898989898,726.5454545454545 812.3636363636363,726.5454545454545 802.8282828282828,726.5454545454545 793.2929292929292,726.5454545454545 783.7575757575758,726.5454545454545 774.2222222222222,726.5454545454545 764.6868686868686,726.5454545454545 755.1515151515151,726.5454545454545 745.6161616161615,726.5454545454545 736.0808080808081,726.5454545454545 726.5454545454545,726.5454545454545 717.0101010101009,726.5454545454545 707.4747474747475,726.5454545454545 697.9393939393939,726.5454545454545 688.4040404040404,726.5454545454545 678.8686868686868,726.5454545454545 669.3333333333333,726.5454545454545 659.7979797979798,726.5454545454545 650.2626262626262,726.5454545454545 640.7272727272727,726.5454545454545 631.1919191919192,726.5454545454545 621.6565656565656,726.5454545454545 612.1212121212121,726.5454545454545 602.5858585858585,726.5454545454545 593.0505050505051,726.5454545454545 583.5151515151515,726.5454545454545 573.9797979797979,726.5454545454545 564.4444444444445,726.5454545454545 554.9090909090909,726.5454545454545 545.3737373737374,726.5454545454545 535.8383838383838,726.5454545454545 526.3030303030303,726.5454545454545 516.7676767676768,726.5454545454545 507.2323232323232,726.5454545454545 497.69696969696975,726.5454545454545 488.16161616161617,726.5454545454545 478.62626262626264,726.5454545454545 469.09090909090907,726.5454545454545 459.55555555555554,726.5454545454545 450.0202020202021,726.5454545454545 440.4848484848485,726.5454545454545 430.949494949495,726.5454545454545 421.4141414141414,726.5454545454545 411.8787878787879,726.5454545454545 402.34343434343435,726.5454545454545 392.80808080808083,726.5454545454545 383.2727272727273,726.5454545454545 373.7373737373738,726.5454545454545 364.2020202020202,726.5454545454545 354.6666666666667,726.5454545454545 345.13131313131316,726.5454545454545 335.59595959595964,726.5454545454545 326.0606060606061,726.5454545454545 316.5252525252526,726.5454545454545 306.9898989898991,726.5454545454545 297.4545454545455,726.5454545454545 287.91919191919203,726.5454545454545 278.38383838383845,726.5454545454545 268.84848484848493,726.5454545454545 259.3131313131314,726.5454545454545 249.77777777777783,726.5454545454545 240.2424242424243,726.5454545454545 230.70707070707084,726.5454545454545 221.17171717171726,726.5454545454545 211.63636363636374,726.5454545454545 202.10101010101022,726.5454545454545 192.5656565656567,726.5454545454545 183.03030303030312,726.5454545454545 173.4949494949496,726.5454545454545 163.95959595959607,726.5454545454545 154.42424242424255,726.5454545454545 144.88888888888903,726.5454545454545 135.35353535353545,726.5454545454545 125.81818181818193,726.5454545454545 116.28282828282829,726.5454545454545 106.74747474747483,726.5454545454545 97.21212121212136,726.5454545454545 87.67676767676772,726.5454545454545 78.14141414141426,726.5454545454545 68.60606060606068,726.5454545454545 59.07070707070716,726.5454545454545 49.53535353535369,726.5454545454545 40.00000000000006,726.5454545454545" fill="none" stroke="rgba(255,0,0,0.75)" stroke-width="11.327999999999996"/></g><g><polyline data-points="-5.000000000000001,2.575757575757577 -4.898989898989899,2.4747474747474754 -4.7979797979797985,2.373737373737375 -4.696969696969697,2.2727272727272734 -4.595959595959596,2.1717171717171726 -4.494949494949496,2.070707070707072 -4.393939393939394,1.9696969696969702 -4.292929292929293,1.8686868686868696 -4.191919191919193,1.767676767676768 -4.090909090909091,1.767676767676768 -3.98989898989899,1.767676767676768 -3.8888888888888884,1.767676767676768 -3.7878787878787876,1.767676767676768 -3.6868686868686864,1.767676767676768 -3.5858585858585856,1.767676767676768 -3.484848484848485,1.767676767676768 -3.383838383838383,1.767676767676768 -3.2828282828282824,1.767676767676768 -3.1818181818181817,1.767676767676768 -3.0808080808080804,1.767676767676768 -2.9797979797979792,1.767676767676768 -2.8787878787878785,1.767676767676768 -2.7777777777777777,1.767676767676768" data-type="line" data-label="" points="40.00000000000006,268.84848484848493 49.53535353535369,278.38383838383857 59.07070707070716,287.91919191919203 68.60606060606068,297.4545454545456 78.14141414141426,306.9898989898991 87.67676767676772,316.5252525252526 97.21212121212136,326.06060606060623 106.74747474747483,335.5959595959597 116.28282828282829,345.1313131313133 125.81818181818193,345.1313131313133 135.35353535353545,345.1313131313133 144.88888888888903,345.1313131313133 154.42424242424255,345.1313131313133 163.95959595959607,345.1313131313133 173.4949494949496,345.1313131313133 183.03030303030312,345.1313131313133 192.5656565656567,345.1313131313133 202.10101010101022,345.1313131313133 211.63636363636374,345.1313131313133 221.17171717171726,345.1313131313133 230.70707070707084,345.1313131313133 240.2424242424243,345.1313131313133 249.77777777777783,345.1313131313133" fill="none" stroke="rgba(0,0,255,0.75)" stroke-width="11.327999999999996"/></g><g><polyline data-points="-2.7777777777777777,1.767676767676768 -2.6767676767676765,1.767676767676768 -2.5757575757575752,1.767676767676768 -2.474747474747474,1.767676767676768 -2.3737373737373733,1.767676767676768 -2.2727272727272725,1.767676767676768 -2.1717171717171713,1.767676767676768 -2.07070707070707,1.767676767676768 -1.9696969696969693,1.767676767676768 -1.8686868686868683,1.767676767676768 -1.7676767676767675,1.767676767676768 -1.6666666666666665,1.767676767676768 -1.5656565656565653,1.767676767676768 -1.4646464646464643,1.767676767676768 -1.363636363636363,1.767676767676768 -1.2626262626262625,1.767676767676768 -1.1616161616161613,1.767676767676768 -1.0606060606060603,1.767676767676768 -0.9595959595959596,1.767676767676768 -0.8585858585858579,1.767676767676768 -0.7575757575757572,1.767676767676768 -0.6565656565656557,1.767676767676768 -0.555555555555555,1.767676767676768 -0.4545454545454544,1.767676767676768 -0.35353535353535287,1.767676767676768 -0.2525252525252522,1.767676767676768 -0.15151515151515066,1.767676767676768 -0.05050505050505001,1.767676767676768 0.050505050505051545,1.767676767676768 0.1515151515151522,1.767676767676768 0.2525252525252529,1.767676767676768 0.3535353535353544,1.767676767676768 0.4545454545454551,1.767676767676768 0.5555555555555567,1.767676767676768 0.6565656565656574,1.767676767676768 0.7575757575757579,1.767676767676768 0.8585858585858596,1.767676767676768 0.9595959595959602,1.767676767676768 1.0606060606060617,1.767676767676768 1.1616161616161622,1.767676767676768 1.262626262626263,1.767676767676768 1.3636363636363644,1.767676767676768 1.4646464646464652,1.767676767676768 1.5656565656565666,1.767676767676768 1.6666666666666674,1.767676767676768 1.767676767676768,1.767676767676768 1.8686868686868696,1.767676767676768 1.9696969696969702,1.767676767676768 2.070707070707072,1.767676767676768 2.1717171717171726,1.767676767676768 2.2727272727272734,1.767676767676768 2.373737373737375,1.767676767676768 2.4747474747474754,1.767676767676768 2.575757575757577,1.767676767676768 2.676767676767678,1.767676767676768 2.7777777777777786,1.767676767676768 2.87878787878788,1.767676767676768 2.9797979797979806,1.767676767676768 3.080808080808082,1.767676767676768 3.181818181818183,1.767676767676768 3.2828282828282833,1.767676767676768 3.383838383838384,1.767676767676768 3.4848484848484866,1.767676767676768 3.5858585858585874,1.767676767676768 3.6868686868686877,1.767676767676768 3.7878787878787885,1.767676767676768 3.8888888888888893,1.767676767676768 3.989898989898992,1.767676767676768" data-type="line" data-label="" points="249.77777777777783,345.1313131313133 259.3131313131314,345.1313131313133 268.84848484848493,345.1313131313133 278.38383838383845,345.1313131313133 287.91919191919203,345.1313131313133 297.4545454545455,345.1313131313133 306.9898989898991,345.1313131313133 316.5252525252526,345.1313131313133 326.0606060606061,345.1313131313133 335.59595959595964,345.1313131313133 345.13131313131316,345.1313131313133 354.6666666666667,345.1313131313133 364.2020202020202,345.1313131313133 373.7373737373738,345.1313131313133 383.2727272727273,345.1313131313133 392.80808080808083,345.1313131313133 402.34343434343435,345.1313131313133 411.8787878787879,345.1313131313133 421.4141414141414,345.1313131313133 430.949494949495,345.1313131313133 440.4848484848485,345.1313131313133 450.0202020202021,345.1313131313133 459.55555555555554,345.1313131313133 469.09090909090907,345.1313131313133 478.62626262626264,345.1313131313133 488.16161616161617,345.1313131313133 497.69696969696975,345.1313131313133 507.2323232323232,345.1313131313133 516.7676767676768,345.1313131313133 526.3030303030303,345.1313131313133 535.8383838383838,345.1313131313133 545.3737373737374,345.1313131313133 554.9090909090909,345.1313131313133 564.4444444444445,345.1313131313133 573.9797979797979,345.1313131313133 583.5151515151515,345.1313131313133 593.0505050505051,345.1313131313133 602.5858585858585,345.1313131313133 612.1212121212121,345.1313131313133 621.6565656565656,345.1313131313133 631.1919191919192,345.1313131313133 640.7272727272727,345.1313131313133 650.2626262626262,345.1313131313133 659.7979797979798,345.1313131313133 669.3333333333333,345.1313131313133 678.8686868686868,345.1313131313133 688.4040404040404,345.1313131313133 697.9393939393939,345.1313131313133 707.4747474747475,345.1313131313133 717.0101010101009,345.1313131313133 726.5454545454545,345.1313131313133 736.0808080808081,345.1313131313133 745.6161616161615,345.1313131313133 755.1515151515151,345.1313131313133 764.6868686868686,345.1313131313133 774.2222222222222,345.1313131313133 783.7575757575758,345.1313131313133 793.2929292929292,345.1313131313133 802.8282828282828,345.1313131313133 812.3636363636363,345.1313131313133 821.8989898989898,345.1313131313133 831.4343434343433,345.1313131313133 840.969696969697,345.1313131313133 850.5050505050505,345.1313131313133 860.0404040404039,345.1313131313133 869.5757575757575,345.1313131313133 879.111111111111,345.1313131313133 888.6464646464647,345.1313131313133" fill="none" stroke="rgba(255,0,0,0.75)" stroke-width="11.327999999999996"/></g><g><polyline data-points="3.989898989898992,1.767676767676768 4.090909090909092,1.767676767676768 4.191919191919193,1.767676767676768 4.292929292929293,1.767676767676768 4.393939393939394,1.767676767676768 4.494949494949497,1.767676767676768 4.595959595959597,1.767676767676768 4.696969696969697,1.767676767676768 4.7979797979797985,1.767676767676768 4.898989898989901,1.767676767676768 5.000000000000002,1.767676767676768" data-type="line" data-label="" points="888.6464646464647,345.1313131313133 898.181818181818,345.1313131313133 907.7171717171716,345.1313131313133 917.2525252525251,345.1313131313133 926.7878787878785,345.1313131313133 936.3232323232323,345.1313131313133 945.8585858585857,345.1313131313133 955.3939393939393,345.1313131313133 964.9292929292927,345.1313131313133 974.4646464646464,345.1313131313133 984,345.1313131313133" fill="none" stroke="rgba(0,0,255,0.75)" stroke-width="11.327999999999996"/></g><g><rect data-type="rect" data-label="" data-x="0" data-y="0" x="40.000000000000114" y="40.000000000000284" width="943.9999999999997" height="943.9999999999998" fill="none" stroke="gray" stroke-width="0.010593220338983056"/></g><g><rect data-type="rect" data-label="" data-x="0" data-y="0" x="40.000000000000114" y="40.000000000000284" width="943.9999999999997" height="943.9999999999998" fill="none" stroke="rgba(15, 23, 42, 0.8)" stroke-width="0.010593220338983056"/></g><circle data-type="circle" data-label="" data-x="3.989898989898992" data-y="-2.474747474747474" cx="888.6464646464647" cy="745.6161616161615" r="14.159999999999995" fill="rgba(0,0,0,0.3)" stroke="black" stroke-width="0.010593220338983056"/><circle data-type="circle" data-label="" data-x="-2.7777777777777777" data-y="1.767676767676768" cx="249.77777777777783" cy="345.1313131313133" r="14.159999999999995" fill="rgba(0,0,0,0.3)" stroke="black" stroke-width="0.010593220338983056"/><circle data-type="circle" data-label="" data-x="3.989898989898992" data-y="1.767676767676768" cx="888.6464646464647" cy="345.1313131313133" r="14.159999999999995" fill="rgba(0,0,0,0.3)" stroke="black" stroke-width="0.010593220338983056"/><g id="crosshair" style="display: none"><line id="crosshair-h" y1="0" y2="1024" stroke="#666" stroke-width="0.5"/><line id="crosshair-v" x1="0" x2="1024" stroke="#666" stroke-width="0.5"/><text id="coordinates" font-family="monospace" font-size="12" fill="#666"></text></g><script><![CDATA[
              document.currentScript.parentElement.addEventListener('mousemove', (e) => {
                const svg = e.currentTarget;
                const rect = svg.getBoundingClientRect();
                const x = e.clientX - rect.left;
                const y = e.clientY - rect.top;
                const crosshair = svg.getElementById('crosshair');
                const h = svg.getElementById('crosshair-h');
                const v = svg.getElementById('crosshair-v');
                const coords = svg.getElementById('coordinates');
                
                crosshair.style.display = 'block';
                h.setAttribute('x1', '0');
                h.setAttribute('x2', '1024');
                h.setAttribute('y1', y);
                h.setAttribute('y2', y);
                v.setAttribute('x1', x);
                v.setAttribute('x2', x);
                v.setAttribute('y1', '0');
                v.setAttribute('y2', '1024');

                // Calculate real coordinates using inverse transformation
                const matrix = {"a":94.39999999999996,"c":0,"e":511.99999999999994,"b":0,"d":-94.39999999999996,"f":512.0000000000001};
                // Manually invert and apply the affine transform
                // Since we only use translate and scale, we can directly compute:
                // x' = (x - tx) / sx
                // y' = (y - ty) / sy
                const sx = matrix.a;
                const sy = matrix.d;
                const tx = matrix.e; 
                const ty = matrix.f;
                const realPoint = {
                  x: (x - tx) / sx,
                  y: (y - ty) / sy // Flip y back since we used negative scale
                }
                
                coords.textContent = `(${realPoint.x.toFixed(2)}, ${realPoint.y.toFixed(2)})`;
                coords.setAttribute('x', (x + 5).toString());
                coords.setAttribute('y', (y - 5).toString());
              });
              document.currentScript.parentElement.addEventListener('mouseleave', () => {
                document.currentScript.parentElement.getElementById('crosshair').style.display = 'none';
              });
            ]]></script></svg>